<?xml version="1.0" encoding="utf-8" standalone="no"?>
<!DOCTYPE svg PUBLIC "-//W3C//DTD SVG 1.1//EN"
  "http://www.w3.org/Graphics/SVG/1.1/DTD/svg11.dtd">
<svg xmlns:xlink="http://www.w3.org/1999/xlink" width="432pt" height="288pt" viewBox="0 0 432 288" xmlns="http://www.w3.org/2000/svg" version="1.1">
 <metadata>
  <rdf:RDF xmlns:dc="http://purl.org/dc/elements/1.1/" xmlns:cc="http://creativecommons.org/ns#" xmlns:rdf="http://www.w3.org/1999/02/22-rdf-syntax-ns#">
   <cc:Work>
    <dc:type rdf:resource="http://purl.org/dc/dcmitype/StillImage"/>
    <dc:date>2022-09-27T12:14:41.189254</dc:date>
    <dc:format>image/svg+xml</dc:format>
    <dc:creator>
     <cc:Agent>
      <dc:title>Matplotlib v3.6.0, https://matplotlib.org/</dc:title>
     </cc:Agent>
    </dc:creator>
   </cc:Work>
  </rdf:RDF>
 </metadata>
 <defs>
  <style type="text/css">*{stroke-linejoin: round; stroke-linecap: butt}</style>
 </defs>
 <g id="figure_1">
  <g id="patch_1">
   <path d="M 0 288 
L 432 288 
L 432 0 
L 0 0 
z
" style="fill: #ffffff"/>
  </g>
  <g id="axes_1">
   <g id="patch_2">
    <path d="M 55.43125 254.69 
L 413.23125 254.69 
L 413.23125 14.55 
L 55.43125 14.55 
z
" style="fill: #ffffff"/>
   </g>
   <g id="matplotlib.axis_1">
    <g id="xtick_1">
     <g id="line2d_1">
      <defs>
       <path id="m8497fc20c2" d="M 0 0 
L 0 3.5 
" style="stroke: #000000; stroke-width: 0.8"/>
      </defs>
      <g>
       <use xlink:href="#m8497fc20c2" x="65.557665" y="254.69" style="stroke: #000000; stroke-width: 0.8"/>
      </g>
     </g>
     <g id="text_1">
      <!-- 0 -->
      <g transform="translate(62.376415 269.288437) scale(0.1 -0.1)">
       <defs>
        <path id="DejaVuSans-30" d="M 2034 4250 
Q 1547 4250 1301 3770 
Q 1056 3291 1056 2328 
Q 1056 1369 1301 889 
Q 1547 409 2034 409 
Q 2525 409 2770 889 
Q 3016 1369 3016 2328 
Q 3016 3291 2770 3770 
Q 2525 4250 2034 4250 
z
M 2034 4750 
Q 2819 4750 3233 4129 
Q 3647 3509 3647 2328 
Q 3647 1150 3233 529 
Q 2819 -91 2034 -91 
Q 1250 -91 836 529 
Q 422 1150 422 2328 
Q 422 3509 836 4129 
Q 1250 4750 2034 4750 
z
" transform="scale(0.015625)"/>
       </defs>
       <use xlink:href="#DejaVuSans-30"/>
      </g>
     </g>
    </g>
    <g id="xtick_2">
     <g id="line2d_2">
      <g>
       <use xlink:href="#m8497fc20c2" x="134.444843" y="254.69" style="stroke: #000000; stroke-width: 0.8"/>
      </g>
     </g>
     <g id="text_2">
      <!-- 10 -->
      <g transform="translate(128.082343 269.288437) scale(0.1 -0.1)">
       <defs>
        <path id="DejaVuSans-31" d="M 794 531 
L 1825 531 
L 1825 4091 
L 703 3866 
L 703 4441 
L 1819 4666 
L 2450 4666 
L 2450 531 
L 3481 531 
L 3481 0 
L 794 0 
L 794 531 
z
" transform="scale(0.015625)"/>
       </defs>
       <use xlink:href="#DejaVuSans-31"/>
       <use xlink:href="#DejaVuSans-30" x="63.623047"/>
      </g>
     </g>
    </g>
    <g id="xtick_3">
     <g id="line2d_3">
      <g>
       <use xlink:href="#m8497fc20c2" x="203.33202" y="254.69" style="stroke: #000000; stroke-width: 0.8"/>
      </g>
     </g>
     <g id="text_3">
      <!-- 20 -->
      <g transform="translate(196.96952 269.288437) scale(0.1 -0.1)">
       <defs>
        <path id="DejaVuSans-32" d="M 1228 531 
L 3431 531 
L 3431 0 
L 469 0 
L 469 531 
Q 828 903 1448 1529 
Q 2069 2156 2228 2338 
Q 2531 2678 2651 2914 
Q 2772 3150 2772 3378 
Q 2772 3750 2511 3984 
Q 2250 4219 1831 4219 
Q 1534 4219 1204 4116 
Q 875 4013 500 3803 
L 500 4441 
Q 881 4594 1212 4672 
Q 1544 4750 1819 4750 
Q 2544 4750 2975 4387 
Q 3406 4025 3406 3419 
Q 3406 3131 3298 2873 
Q 3191 2616 2906 2266 
Q 2828 2175 2409 1742 
Q 1991 1309 1228 531 
z
" transform="scale(0.015625)"/>
       </defs>
       <use xlink:href="#DejaVuSans-32"/>
       <use xlink:href="#DejaVuSans-30" x="63.623047"/>
      </g>
     </g>
    </g>
    <g id="xtick_4">
     <g id="line2d_4">
      <g>
       <use xlink:href="#m8497fc20c2" x="272.219198" y="254.69" style="stroke: #000000; stroke-width: 0.8"/>
      </g>
     </g>
     <g id="text_4">
      <!-- 30 -->
      <g transform="translate(265.856698 269.288437) scale(0.1 -0.1)">
       <defs>
        <path id="DejaVuSans-33" d="M 2597 2516 
Q 3050 2419 3304 2112 
Q 3559 1806 3559 1356 
Q 3559 666 3084 287 
Q 2609 -91 1734 -91 
Q 1441 -91 1130 -33 
Q 819 25 488 141 
L 488 750 
Q 750 597 1062 519 
Q 1375 441 1716 441 
Q 2309 441 2620 675 
Q 2931 909 2931 1356 
Q 2931 1769 2642 2001 
Q 2353 2234 1838 2234 
L 1294 2234 
L 1294 2753 
L 1863 2753 
Q 2328 2753 2575 2939 
Q 2822 3125 2822 3475 
Q 2822 3834 2567 4026 
Q 2313 4219 1838 4219 
Q 1578 4219 1281 4162 
Q 984 4106 628 3988 
L 628 4550 
Q 988 4650 1302 4700 
Q 1616 4750 1894 4750 
Q 2613 4750 3031 4423 
Q 3450 4097 3450 3541 
Q 3450 3153 3228 2886 
Q 3006 2619 2597 2516 
z
" transform="scale(0.015625)"/>
       </defs>
       <use xlink:href="#DejaVuSans-33"/>
       <use xlink:href="#DejaVuSans-30" x="63.623047"/>
      </g>
     </g>
    </g>
    <g id="xtick_5">
     <g id="line2d_5">
      <g>
       <use xlink:href="#m8497fc20c2" x="341.106375" y="254.69" style="stroke: #000000; stroke-width: 0.8"/>
      </g>
     </g>
     <g id="text_5">
      <!-- 40 -->
      <g transform="translate(334.743875 269.288437) scale(0.1 -0.1)">
       <defs>
        <path id="DejaVuSans-34" d="M 2419 4116 
L 825 1625 
L 2419 1625 
L 2419 4116 
z
M 2253 4666 
L 3047 4666 
L 3047 1625 
L 3713 1625 
L 3713 1100 
L 3047 1100 
L 3047 0 
L 2419 0 
L 2419 1100 
L 313 1100 
L 313 1709 
L 2253 4666 
z
" transform="scale(0.015625)"/>
       </defs>
       <use xlink:href="#DejaVuSans-34"/>
       <use xlink:href="#DejaVuSans-30" x="63.623047"/>
      </g>
     </g>
    </g>
    <g id="xtick_6">
     <g id="line2d_6">
      <g>
       <use xlink:href="#m8497fc20c2" x="409.993553" y="254.69" style="stroke: #000000; stroke-width: 0.8"/>
      </g>
     </g>
     <g id="text_6">
      <!-- 50 -->
      <g transform="translate(403.631053 269.288437) scale(0.1 -0.1)">
       <defs>
        <path id="DejaVuSans-35" d="M 691 4666 
L 3169 4666 
L 3169 4134 
L 1269 4134 
L 1269 2991 
Q 1406 3038 1543 3061 
Q 1681 3084 1819 3084 
Q 2600 3084 3056 2656 
Q 3513 2228 3513 1497 
Q 3513 744 3044 326 
Q 2575 -91 1722 -91 
Q 1428 -91 1123 -41 
Q 819 9 494 109 
L 494 744 
Q 775 591 1075 516 
Q 1375 441 1709 441 
Q 2250 441 2565 725 
Q 2881 1009 2881 1497 
Q 2881 1984 2565 2268 
Q 2250 2553 1709 2553 
Q 1456 2553 1204 2497 
Q 953 2441 691 2322 
L 691 4666 
z
" transform="scale(0.015625)"/>
       </defs>
       <use xlink:href="#DejaVuSans-35"/>
       <use xlink:href="#DejaVuSans-30" x="63.623047"/>
      </g>
     </g>
    </g>
    <g id="text_7">
     <!-- xx [m] -->
     <g transform="translate(218.051563 282.966563) scale(0.1 -0.1)">
      <defs>
       <path id="DejaVuSans-78" d="M 3513 3500 
L 2247 1797 
L 3578 0 
L 2900 0 
L 1881 1375 
L 863 0 
L 184 0 
L 1544 1831 
L 300 3500 
L 978 3500 
L 1906 2253 
L 2834 3500 
L 3513 3500 
z
" transform="scale(0.015625)"/>
       <path id="DejaVuSans-20" transform="scale(0.015625)"/>
       <path id="DejaVuSans-5b" d="M 550 4863 
L 1875 4863 
L 1875 4416 
L 1125 4416 
L 1125 -397 
L 1875 -397 
L 1875 -844 
L 550 -844 
L 550 4863 
z
" transform="scale(0.015625)"/>
       <path id="DejaVuSans-6d" d="M 3328 2828 
Q 3544 3216 3844 3400 
Q 4144 3584 4550 3584 
Q 5097 3584 5394 3201 
Q 5691 2819 5691 2113 
L 5691 0 
L 5113 0 
L 5113 2094 
Q 5113 2597 4934 2840 
Q 4756 3084 4391 3084 
Q 3944 3084 3684 2787 
Q 3425 2491 3425 1978 
L 3425 0 
L 2847 0 
L 2847 2094 
Q 2847 2600 2669 2842 
Q 2491 3084 2119 3084 
Q 1678 3084 1418 2786 
Q 1159 2488 1159 1978 
L 1159 0 
L 581 0 
L 581 3500 
L 1159 3500 
L 1159 2956 
Q 1356 3278 1631 3431 
Q 1906 3584 2284 3584 
Q 2666 3584 2933 3390 
Q 3200 3197 3328 2828 
z
" transform="scale(0.015625)"/>
       <path id="DejaVuSans-5d" d="M 1947 4863 
L 1947 -844 
L 622 -844 
L 622 -397 
L 1369 -397 
L 1369 4416 
L 622 4416 
L 622 4863 
L 1947 4863 
z
" transform="scale(0.015625)"/>
      </defs>
      <use xlink:href="#DejaVuSans-78"/>
      <use xlink:href="#DejaVuSans-78" x="59.179688"/>
      <use xlink:href="#DejaVuSans-20" x="118.359375"/>
      <use xlink:href="#DejaVuSans-5b" x="150.146484"/>
      <use xlink:href="#DejaVuSans-6d" x="189.160156"/>
      <use xlink:href="#DejaVuSans-5d" x="286.572266"/>
     </g>
    </g>
   </g>
   <g id="matplotlib.axis_2">
    <g id="ytick_1">
     <g id="line2d_7">
      <defs>
       <path id="mdc658575a5" d="M 0 0 
L -3.5 0 
" style="stroke: #000000; stroke-width: 0.8"/>
      </defs>
      <g>
       <use xlink:href="#mdc658575a5" x="55.43125" y="228.752868" style="stroke: #000000; stroke-width: 0.8"/>
      </g>
     </g>
     <g id="text_8">
      <!-- −7.5 -->
      <g transform="translate(24.148438 232.552087) scale(0.1 -0.1)">
       <defs>
        <path id="DejaVuSans-2212" d="M 678 2272 
L 4684 2272 
L 4684 1741 
L 678 1741 
L 678 2272 
z
" transform="scale(0.015625)"/>
        <path id="DejaVuSans-37" d="M 525 4666 
L 3525 4666 
L 3525 4397 
L 1831 0 
L 1172 0 
L 2766 4134 
L 525 4134 
L 525 4666 
z
" transform="scale(0.015625)"/>
        <path id="DejaVuSans-2e" d="M 684 794 
L 1344 794 
L 1344 0 
L 684 0 
L 684 794 
z
" transform="scale(0.015625)"/>
       </defs>
       <use xlink:href="#DejaVuSans-2212"/>
       <use xlink:href="#DejaVuSans-37" x="83.789062"/>
       <use xlink:href="#DejaVuSans-2e" x="147.412109"/>
       <use xlink:href="#DejaVuSans-35" x="179.199219"/>
      </g>
     </g>
    </g>
    <g id="ytick_2">
     <g id="line2d_8">
      <g>
       <use xlink:href="#mdc658575a5" x="55.43125" y="197.439741" style="stroke: #000000; stroke-width: 0.8"/>
      </g>
     </g>
     <g id="text_9">
      <!-- −5.0 -->
      <g transform="translate(24.148438 201.23896) scale(0.1 -0.1)">
       <use xlink:href="#DejaVuSans-2212"/>
       <use xlink:href="#DejaVuSans-35" x="83.789062"/>
       <use xlink:href="#DejaVuSans-2e" x="147.412109"/>
       <use xlink:href="#DejaVuSans-30" x="179.199219"/>
      </g>
     </g>
    </g>
    <g id="ytick_3">
     <g id="line2d_9">
      <g>
       <use xlink:href="#mdc658575a5" x="55.43125" y="166.126614" style="stroke: #000000; stroke-width: 0.8"/>
      </g>
     </g>
     <g id="text_10">
      <!-- −2.5 -->
      <g transform="translate(24.148438 169.925833) scale(0.1 -0.1)">
       <use xlink:href="#DejaVuSans-2212"/>
       <use xlink:href="#DejaVuSans-32" x="83.789062"/>
       <use xlink:href="#DejaVuSans-2e" x="147.412109"/>
       <use xlink:href="#DejaVuSans-35" x="179.199219"/>
      </g>
     </g>
    </g>
    <g id="ytick_4">
     <g id="line2d_10">
      <g>
       <use xlink:href="#mdc658575a5" x="55.43125" y="134.813487" style="stroke: #000000; stroke-width: 0.8"/>
      </g>
     </g>
     <g id="text_11">
      <!-- 0.0 -->
      <g transform="translate(32.528125 138.612706) scale(0.1 -0.1)">
       <use xlink:href="#DejaVuSans-30"/>
       <use xlink:href="#DejaVuSans-2e" x="63.623047"/>
       <use xlink:href="#DejaVuSans-30" x="95.410156"/>
      </g>
     </g>
    </g>
    <g id="ytick_5">
     <g id="line2d_11">
      <g>
       <use xlink:href="#mdc658575a5" x="55.43125" y="103.50036" style="stroke: #000000; stroke-width: 0.8"/>
      </g>
     </g>
     <g id="text_12">
      <!-- 2.5 -->
      <g transform="translate(32.528125 107.299579) scale(0.1 -0.1)">
       <use xlink:href="#DejaVuSans-32"/>
       <use xlink:href="#DejaVuSans-2e" x="63.623047"/>
       <use xlink:href="#DejaVuSans-35" x="95.410156"/>
      </g>
     </g>
    </g>
    <g id="ytick_6">
     <g id="line2d_12">
      <g>
       <use xlink:href="#mdc658575a5" x="55.43125" y="72.187233" style="stroke: #000000; stroke-width: 0.8"/>
      </g>
     </g>
     <g id="text_13">
      <!-- 5.0 -->
      <g transform="translate(32.528125 75.986452) scale(0.1 -0.1)">
       <use xlink:href="#DejaVuSans-35"/>
       <use xlink:href="#DejaVuSans-2e" x="63.623047"/>
       <use xlink:href="#DejaVuSans-30" x="95.410156"/>
      </g>
     </g>
    </g>
    <g id="ytick_7">
     <g id="line2d_13">
      <g>
       <use xlink:href="#mdc658575a5" x="55.43125" y="40.874106" style="stroke: #000000; stroke-width: 0.8"/>
      </g>
     </g>
     <g id="text_14">
      <!-- 7.5 -->
      <g transform="translate(32.528125 44.673325) scale(0.1 -0.1)">
       <use xlink:href="#DejaVuSans-37"/>
       <use xlink:href="#DejaVuSans-2e" x="63.623047"/>
       <use xlink:href="#DejaVuSans-35" x="95.410156"/>
      </g>
     </g>
    </g>
    <g id="text_15">
     <!--  [m/s] -->
     <g transform="translate(18.06875 149.27) rotate(-90) scale(0.1 -0.1)">
      <defs>
       <path id="DejaVuSans-2f" d="M 1625 4666 
L 2156 4666 
L 531 -594 
L 0 -594 
L 1625 4666 
z
" transform="scale(0.015625)"/>
       <path id="DejaVuSans-73" d="M 2834 3397 
L 2834 2853 
Q 2591 2978 2328 3040 
Q 2066 3103 1784 3103 
Q 1356 3103 1142 2972 
Q 928 2841 928 2578 
Q 928 2378 1081 2264 
Q 1234 2150 1697 2047 
L 1894 2003 
Q 2506 1872 2764 1633 
Q 3022 1394 3022 966 
Q 3022 478 2636 193 
Q 2250 -91 1575 -91 
Q 1294 -91 989 -36 
Q 684 19 347 128 
L 347 722 
Q 666 556 975 473 
Q 1284 391 1588 391 
Q 1994 391 2212 530 
Q 2431 669 2431 922 
Q 2431 1156 2273 1281 
Q 2116 1406 1581 1522 
L 1381 1569 
Q 847 1681 609 1914 
Q 372 2147 372 2553 
Q 372 3047 722 3315 
Q 1072 3584 1716 3584 
Q 2034 3584 2315 3537 
Q 2597 3491 2834 3397 
z
" transform="scale(0.015625)"/>
      </defs>
      <use xlink:href="#DejaVuSans-20"/>
      <use xlink:href="#DejaVuSans-5b" x="31.787109"/>
      <use xlink:href="#DejaVuSans-6d" x="70.800781"/>
      <use xlink:href="#DejaVuSans-2f" x="168.212891"/>
      <use xlink:href="#DejaVuSans-73" x="201.904297"/>
      <use xlink:href="#DejaVuSans-5d" x="254.003906"/>
     </g>
    </g>
   </g>
   <g id="patch_3">
    <path d="M 55.43125 254.69 
L 55.43125 14.55 
" style="fill: none; stroke: #000000; stroke-width: 0.8; stroke-linejoin: miter; stroke-linecap: square"/>
   </g>
   <g id="patch_4">
    <path d="M 413.23125 254.69 
L 413.23125 14.55 
" style="fill: none; stroke: #000000; stroke-width: 0.8; stroke-linejoin: miter; stroke-linecap: square"/>
   </g>
   <g id="patch_5">
    <path d="M 55.43125 254.69 
L 413.23125 254.69 
" style="fill: none; stroke: #000000; stroke-width: 0.8; stroke-linejoin: miter; stroke-linecap: square"/>
   </g>
   <g id="patch_6">
    <path d="M 55.43125 14.55 
L 413.23125 14.55 
" style="fill: none; stroke: #000000; stroke-width: 0.8; stroke-linejoin: miter; stroke-linecap: square"/>
   </g>
   <g id="legend_1">
    <g id="patch_7">
     <path d="M 367.882813 51.90625 
L 406.23125 51.90625 
Q 408.23125 51.90625 408.23125 49.90625 
L 408.23125 21.55 
Q 408.23125 19.55 406.23125 19.55 
L 367.882813 19.55 
Q 365.882813 19.55 365.882813 21.55 
L 365.882813 49.90625 
Q 365.882813 51.90625 367.882813 51.90625 
z
" style="fill: #ffffff; opacity: 0.8; stroke: #cccccc; stroke-linejoin: miter"/>
    </g>
    <g id="line2d_14">
     <defs>
      <path id="m21030e52cf" d="M 0 3 
C 0.795609 3 1.55874 2.683901 2.12132 2.12132 
C 2.683901 1.55874 3 0.795609 3 0 
C 3 -0.795609 2.683901 -1.55874 2.12132 -2.12132 
C 1.55874 -2.683901 0.795609 -3 0 -3 
C -0.795609 -3 -1.55874 -2.683901 -2.12132 -2.12132 
C -2.683901 -1.55874 -3 -0.795609 -3 0 
C -3 0.795609 -2.683901 1.55874 -2.12132 2.12132 
C -1.55874 2.683901 -0.795609 3 0 3 
z
" style="stroke: #1f77b4"/>
     </defs>
     <g>
      <use xlink:href="#m21030e52cf" x="379.882813" y="27.648438" style="fill: #1f77b4; stroke: #1f77b4"/>
     </g>
    </g>
    <g id="text_16">
     <!-- a -->
     <g transform="translate(397.882813 31.148438) scale(0.1 -0.1)">
      <defs>
       <path id="DejaVuSans-61" d="M 2194 1759 
Q 1497 1759 1228 1600 
Q 959 1441 959 1056 
Q 959 750 1161 570 
Q 1363 391 1709 391 
Q 2188 391 2477 730 
Q 2766 1069 2766 1631 
L 2766 1759 
L 2194 1759 
z
M 3341 1997 
L 3341 0 
L 2766 0 
L 2766 531 
Q 2569 213 2275 61 
Q 1981 -91 1556 -91 
Q 1019 -91 701 211 
Q 384 513 384 1019 
Q 384 1609 779 1909 
Q 1175 2209 1959 2209 
L 2766 2209 
L 2766 2266 
Q 2766 2663 2505 2880 
Q 2244 3097 1772 3097 
Q 1472 3097 1187 3025 
Q 903 2953 641 2809 
L 641 3341 
Q 956 3463 1253 3523 
Q 1550 3584 1831 3584 
Q 2591 3584 2966 3190 
Q 3341 2797 3341 1997 
z
" transform="scale(0.015625)"/>
      </defs>
      <use xlink:href="#DejaVuSans-61"/>
     </g>
    </g>
    <g id="line2d_15">
     <defs>
      <path id="m580a8da5ff" d="M -0 3 
L 3 -3 
L -3 -3 
z
" style="stroke: #ff7f0e; stroke-linejoin: miter"/>
     </defs>
     <g>
      <use xlink:href="#m580a8da5ff" x="379.882813" y="42.326562" style="fill: #ff7f0e; stroke: #ff7f0e; stroke-linejoin: miter"/>
     </g>
    </g>
    <g id="text_17">
     <!-- b -->
     <g transform="translate(397.882813 45.826562) scale(0.1 -0.1)">
      <defs>
       <path id="DejaVuSans-62" d="M 3116 1747 
Q 3116 2381 2855 2742 
Q 2594 3103 2138 3103 
Q 1681 3103 1420 2742 
Q 1159 2381 1159 1747 
Q 1159 1113 1420 752 
Q 1681 391 2138 391 
Q 2594 391 2855 752 
Q 3116 1113 3116 1747 
z
M 1159 2969 
Q 1341 3281 1617 3432 
Q 1894 3584 2278 3584 
Q 2916 3584 3314 3078 
Q 3713 2572 3713 1747 
Q 3713 922 3314 415 
Q 2916 -91 2278 -91 
Q 1894 -91 1617 61 
Q 1341 213 1159 525 
L 1159 0 
L 581 0 
L 581 4863 
L 1159 4863 
L 1159 2969 
z
" transform="scale(0.015625)"/>
      </defs>
      <use xlink:href="#DejaVuSans-62"/>
     </g>
    </g>
   </g>
   <g id="line2d_16">
    <g clip-path="url(#p7b00b205bd)">
     <use xlink:href="#m21030e52cf" x="65.557665" y="134.813487" style="fill: #1f77b4; stroke: #1f77b4"/>
     <use xlink:href="#m21030e52cf" x="72.446383" y="120.527423" style="fill: #1f77b4; stroke: #1f77b4"/>
     <use xlink:href="#m21030e52cf" x="79.335101" y="106.810899" style="fill: #1f77b4; stroke: #1f77b4"/>
     <use xlink:href="#m21030e52cf" x="86.223818" y="94.210751" style="fill: #1f77b4; stroke: #1f77b4"/>
     <use xlink:href="#m21030e52cf" x="93.112536" y="83.229305" style="fill: #1f77b4; stroke: #1f77b4"/>
     <use xlink:href="#m21030e52cf" x="100.001254" y="74.304357" style="fill: #1f77b4; stroke: #1f77b4"/>
     <use xlink:href="#m21030e52cf" x="106.889972" y="67.791718" style="fill: #1f77b4; stroke: #1f77b4"/>
     <use xlink:href="#m21030e52cf" x="113.778689" y="63.951025" style="fill: #1f77b4; stroke: #1f77b4"/>
     <use xlink:href="#m21030e52cf" x="120.667407" y="62.935395" style="fill: #1f77b4; stroke: #1f77b4"/>
     <use xlink:href="#m21030e52cf" x="127.556125" y="64.785318" style="fill: #1f77b4; stroke: #1f77b4"/>
     <use xlink:href="#m21030e52cf" x="134.444843" y="69.427043" style="fill: #1f77b4; stroke: #1f77b4"/>
     <use xlink:href="#m21030e52cf" x="141.33356" y="76.675519" style="fill: #1f77b4; stroke: #1f77b4"/>
     <use xlink:href="#m21030e52cf" x="148.222278" y="86.241772" style="fill: #1f77b4; stroke: #1f77b4"/>
     <use xlink:href="#m21030e52cf" x="155.110996" y="97.744426" style="fill: #1f77b4; stroke: #1f77b4"/>
     <use xlink:href="#m21030e52cf" x="161.999714" y="110.724907" style="fill: #1f77b4; stroke: #1f77b4"/>
     <use xlink:href="#m21030e52cf" x="168.888431" y="124.665723" style="fill: #1f77b4; stroke: #1f77b4"/>
     <use xlink:href="#m21030e52cf" x="175.777149" y="139.011099" style="fill: #1f77b4; stroke: #1f77b4"/>
     <use xlink:href="#m21030e52cf" x="182.665867" y="153.189129" style="fill: #1f77b4; stroke: #1f77b4"/>
     <use xlink:href="#m21030e52cf" x="189.554585" y="166.63458" style="fill: #1f77b4; stroke: #1f77b4"/>
     <use xlink:href="#m21030e52cf" x="196.443302" y="178.811425" style="fill: #1f77b4; stroke: #1f77b4"/>
     <use xlink:href="#m21030e52cf" x="203.33202" y="189.234211" style="fill: #1f77b4; stroke: #1f77b4"/>
     <use xlink:href="#m21030e52cf" x="210.220738" y="197.487414" style="fill: #1f77b4; stroke: #1f77b4"/>
     <use xlink:href="#m21030e52cf" x="217.109456" y="203.242005" style="fill: #1f77b4; stroke: #1f77b4"/>
     <use xlink:href="#m21030e52cf" x="223.998173" y="206.268568" style="fill: #1f77b4; stroke: #1f77b4"/>
     <use xlink:href="#m21030e52cf" x="230.886891" y="206.446442" style="fill: #1f77b4; stroke: #1f77b4"/>
     <use xlink:href="#m21030e52cf" x="237.775609" y="203.768536" style="fill: #1f77b4; stroke: #1f77b4"/>
     <use xlink:href="#m21030e52cf" x="244.664327" y="198.34161" style="fill: #1f77b4; stroke: #1f77b4"/>
     <use xlink:href="#m21030e52cf" x="251.553044" y="190.382018" style="fill: #1f77b4; stroke: #1f77b4"/>
     <use xlink:href="#m21030e52cf" x="258.441762" y="180.207084" style="fill: #1f77b4; stroke: #1f77b4"/>
     <use xlink:href="#m21030e52cf" x="265.33048" y="168.22245" style="fill: #1f77b4; stroke: #1f77b4"/>
     <use xlink:href="#m21030e52cf" x="272.219198" y="154.905907" style="fill: #1f77b4; stroke: #1f77b4"/>
     <use xlink:href="#m21030e52cf" x="279.107915" y="140.788342" style="fill: #1f77b4; stroke: #1f77b4"/>
     <use xlink:href="#m21030e52cf" x="285.996633" y="126.432579" style="fill: #1f77b4; stroke: #1f77b4"/>
     <use xlink:href="#m21030e52cf" x="292.885351" y="112.410936" style="fill: #1f77b4; stroke: #1f77b4"/>
     <use xlink:href="#m21030e52cf" x="299.774069" y="99.282412" style="fill: #1f77b4; stroke: #1f77b4"/>
     <use xlink:href="#m21030e52cf" x="306.662786" y="87.5704" style="fill: #1f77b4; stroke: #1f77b4"/>
     <use xlink:href="#m21030e52cf" x="313.551504" y="77.74182" style="fill: #1f77b4; stroke: #1f77b4"/>
     <use xlink:href="#m21030e52cf" x="320.440222" y="70.188508" style="fill: #1f77b4; stroke: #1f77b4"/>
     <use xlink:href="#m21030e52cf" x="327.32894" y="65.21159" style="fill: #1f77b4; stroke: #1f77b4"/>
     <use xlink:href="#m21030e52cf" x="334.217657" y="63.00948" style="fill: #1f77b4; stroke: #1f77b4"/>
     <use xlink:href="#m21030e52cf" x="341.106375" y="63.669969" style="fill: #1f77b4; stroke: #1f77b4"/>
     <use xlink:href="#m21030e52cf" x="347.995093" y="67.166725" style="fill: #1f77b4; stroke: #1f77b4"/>
     <use xlink:href="#m21030e52cf" x="354.883811" y="73.360345" style="fill: #1f77b4; stroke: #1f77b4"/>
     <use xlink:href="#m21030e52cf" x="361.772528" y="82.003907" style="fill: #1f77b4; stroke: #1f77b4"/>
     <use xlink:href="#m21030e52cf" x="368.661246" y="92.752821" style="fill: #1f77b4; stroke: #1f77b4"/>
     <use xlink:href="#m21030e52cf" x="375.549964" y="105.17856" style="fill: #1f77b4; stroke: #1f77b4"/>
     <use xlink:href="#m21030e52cf" x="382.438682" y="118.785751" style="fill: #1f77b4; stroke: #1f77b4"/>
     <use xlink:href="#m21030e52cf" x="389.327399" y="133.031917" style="fill: #1f77b4; stroke: #1f77b4"/>
     <use xlink:href="#m21030e52cf" x="396.216117" y="147.349108" style="fill: #1f77b4; stroke: #1f77b4"/>
     <use xlink:href="#m21030e52cf" x="403.104835" y="161.166544" style="fill: #1f77b4; stroke: #1f77b4"/>
    </g>
   </g>
   <g id="line2d_17">
    <g clip-path="url(#p7b00b205bd)">
     <use xlink:href="#m580a8da5ff" x="65.557665" y="134.813487" style="fill: #ff7f0e; stroke: #ff7f0e; stroke-linejoin: miter"/>
     <use xlink:href="#m580a8da5ff" x="72.446383" y="112.261443" style="fill: #ff7f0e; stroke: #ff7f0e; stroke-linejoin: miter"/>
     <use xlink:href="#m580a8da5ff" x="79.335101" y="90.608479" style="fill: #ff7f0e; stroke: #ff7f0e; stroke-linejoin: miter"/>
     <use xlink:href="#m580a8da5ff" x="86.223818" y="70.717829" style="fill: #ff7f0e; stroke: #ff7f0e; stroke-linejoin: miter"/>
     <use xlink:href="#m580a8da5ff" x="93.112536" y="53.38247" style="fill: #ff7f0e; stroke: #ff7f0e; stroke-linejoin: miter"/>
     <use xlink:href="#m580a8da5ff" x="100.001254" y="39.293509" style="fill: #ff7f0e; stroke: #ff7f0e; stroke-linejoin: miter"/>
     <use xlink:href="#m580a8da5ff" x="106.889972" y="29.012628" style="fill: #ff7f0e; stroke: #ff7f0e; stroke-linejoin: miter"/>
     <use xlink:href="#m580a8da5ff" x="113.778689" y="22.949693" style="fill: #ff7f0e; stroke: #ff7f0e; stroke-linejoin: miter"/>
     <use xlink:href="#m580a8da5ff" x="120.667407" y="21.346415" style="fill: #ff7f0e; stroke: #ff7f0e; stroke-linejoin: miter"/>
     <use xlink:href="#m580a8da5ff" x="127.556125" y="24.266711" style="fill: #ff7f0e; stroke: #ff7f0e; stroke-linejoin: miter"/>
     <use xlink:href="#m580a8da5ff" x="134.444843" y="31.594158" style="fill: #ff7f0e; stroke: #ff7f0e; stroke-linejoin: miter"/>
     <use xlink:href="#m580a8da5ff" x="141.33356" y="43.036634" style="fill: #ff7f0e; stroke: #ff7f0e; stroke-linejoin: miter"/>
     <use xlink:href="#m580a8da5ff" x="148.222278" y="58.137963" style="fill: #ff7f0e; stroke: #ff7f0e; stroke-linejoin: miter"/>
     <use xlink:href="#m580a8da5ff" x="155.110996" y="76.296104" style="fill: #ff7f0e; stroke: #ff7f0e; stroke-linejoin: miter"/>
     <use xlink:href="#m580a8da5ff" x="161.999714" y="96.787148" style="fill: #ff7f0e; stroke: #ff7f0e; stroke-linejoin: miter"/>
     <use xlink:href="#m580a8da5ff" x="168.888431" y="118.794182" style="fill: #ff7f0e; stroke: #ff7f0e; stroke-linejoin: miter"/>
     <use xlink:href="#m580a8da5ff" x="175.777149" y="141.439855" style="fill: #ff7f0e; stroke: #ff7f0e; stroke-linejoin: miter"/>
     <use xlink:href="#m580a8da5ff" x="182.665867" y="163.821356" style="fill: #ff7f0e; stroke: #ff7f0e; stroke-linejoin: miter"/>
     <use xlink:href="#m580a8da5ff" x="189.554585" y="185.046405" style="fill: #ff7f0e; stroke: #ff7f0e; stroke-linejoin: miter"/>
     <use xlink:href="#m580a8da5ff" x="196.443302" y="204.268826" style="fill: #ff7f0e; stroke: #ff7f0e; stroke-linejoin: miter"/>
     <use xlink:href="#m580a8da5ff" x="203.33202" y="220.722281" style="fill: #ff7f0e; stroke: #ff7f0e; stroke-linejoin: miter"/>
     <use xlink:href="#m580a8da5ff" x="210.220738" y="233.750824" style="fill: #ff7f0e; stroke: #ff7f0e; stroke-linejoin: miter"/>
     <use xlink:href="#m580a8da5ff" x="217.109456" y="242.835048" style="fill: #ff7f0e; stroke: #ff7f0e; stroke-linejoin: miter"/>
     <use xlink:href="#m580a8da5ff" x="223.998173" y="247.612792" style="fill: #ff7f0e; stroke: #ff7f0e; stroke-linejoin: miter"/>
     <use xlink:href="#m580a8da5ff" x="230.886891" y="247.893585" style="fill: #ff7f0e; stroke: #ff7f0e; stroke-linejoin: miter"/>
     <use xlink:href="#m580a8da5ff" x="237.775609" y="243.666231" style="fill: #ff7f0e; stroke: #ff7f0e; stroke-linejoin: miter"/>
     <use xlink:href="#m580a8da5ff" x="244.664327" y="235.099261" style="fill: #ff7f0e; stroke: #ff7f0e; stroke-linejoin: miter"/>
     <use xlink:href="#m580a8da5ff" x="251.553044" y="222.534214" style="fill: #ff7f0e; stroke: #ff7f0e; stroke-linejoin: miter"/>
     <use xlink:href="#m580a8da5ff" x="258.441762" y="206.472019" style="fill: #ff7f0e; stroke: #ff7f0e; stroke-linejoin: miter"/>
     <use xlink:href="#m580a8da5ff" x="265.33048" y="187.553024" style="fill: #ff7f0e; stroke: #ff7f0e; stroke-linejoin: miter"/>
     <use xlink:href="#m580a8da5ff" x="272.219198" y="166.53147" style="fill: #ff7f0e; stroke: #ff7f0e; stroke-linejoin: miter"/>
     <use xlink:href="#m580a8da5ff" x="279.107915" y="144.24542" style="fill: #ff7f0e; stroke: #ff7f0e; stroke-linejoin: miter"/>
     <use xlink:href="#m580a8da5ff" x="285.996633" y="121.583349" style="fill: #ff7f0e; stroke: #ff7f0e; stroke-linejoin: miter"/>
     <use xlink:href="#m580a8da5ff" x="292.885351" y="99.448721" style="fill: #ff7f0e; stroke: #ff7f0e; stroke-linejoin: miter"/>
     <use xlink:href="#m580a8da5ff" x="299.774069" y="78.723975" style="fill: #ff7f0e; stroke: #ff7f0e; stroke-linejoin: miter"/>
     <use xlink:href="#m580a8da5ff" x="306.662786" y="60.235341" style="fill: #ff7f0e; stroke: #ff7f0e; stroke-linejoin: miter"/>
     <use xlink:href="#m580a8da5ff" x="313.551504" y="44.719903" style="fill: #ff7f0e; stroke: #ff7f0e; stroke-linejoin: miter"/>
     <use xlink:href="#m580a8da5ff" x="320.440222" y="32.796211" style="fill: #ff7f0e; stroke: #ff7f0e; stroke-linejoin: miter"/>
     <use xlink:href="#m580a8da5ff" x="327.32894" y="24.939626" style="fill: #ff7f0e; stroke: #ff7f0e; stroke-linejoin: miter"/>
     <use xlink:href="#m580a8da5ff" x="334.217657" y="21.463365" style="fill: #ff7f0e; stroke: #ff7f0e; stroke-linejoin: miter"/>
     <use xlink:href="#m580a8da5ff" x="341.106375" y="22.506016" style="fill: #ff7f0e; stroke: #ff7f0e; stroke-linejoin: miter"/>
     <use xlink:href="#m580a8da5ff" x="347.995093" y="28.026011" style="fill: #ff7f0e; stroke: #ff7f0e; stroke-linejoin: miter"/>
     <use xlink:href="#m580a8da5ff" x="354.883811" y="37.803286" style="fill: #ff7f0e; stroke: #ff7f0e; stroke-linejoin: miter"/>
     <use xlink:href="#m580a8da5ff" x="361.772528" y="51.448052" style="fill: #ff7f0e; stroke: #ff7f0e; stroke-linejoin: miter"/>
     <use xlink:href="#m580a8da5ff" x="368.661246" y="68.416334" style="fill: #ff7f0e; stroke: #ff7f0e; stroke-linejoin: miter"/>
     <use xlink:href="#m580a8da5ff" x="375.549964" y="88.031661" style="fill: #ff7f0e; stroke: #ff7f0e; stroke-linejoin: miter"/>
     <use xlink:href="#m580a8da5ff" x="382.438682" y="109.512032" style="fill: #ff7f0e; stroke: #ff7f0e; stroke-linejoin: miter"/>
     <use xlink:href="#m580a8da5ff" x="389.327399" y="132.001093" style="fill: #ff7f0e; stroke: #ff7f0e; stroke-linejoin: miter"/>
     <use xlink:href="#m580a8da5ff" x="396.216117" y="154.602274" style="fill: #ff7f0e; stroke: #ff7f0e; stroke-linejoin: miter"/>
     <use xlink:href="#m580a8da5ff" x="403.104835" y="176.414539" style="fill: #ff7f0e; stroke: #ff7f0e; stroke-linejoin: miter"/>
    </g>
   </g>
  </g>
 </g>
 <defs>
  <clipPath id="p7b00b205bd">
   <rect x="55.43125" y="14.55" width="357.8" height="240.14"/>
  </clipPath>
 </defs>
</svg>
