<?xml version="1.0" encoding="UTF-8" standalone="no"?>
<!DOCTYPE svg PUBLIC "-//W3C//DTD SVG 1.1//EN"
 "http://www.w3.org/Graphics/SVG/1.1/DTD/svg11.dtd">
<!-- Generated by graphviz version 2.43.0 (0)
 -->
<!-- Title: %3 Pages: 1 -->
<svg width="609pt" height="323pt"
 viewBox="0.00 0.00 609.00 322.53" xmlns="http://www.w3.org/2000/svg" xmlns:xlink="http://www.w3.org/1999/xlink">
<g id="graph0" class="graph" transform="scale(1 1) rotate(0) translate(4 318.53)">
<title>%3</title>
<polygon fill="white" stroke="transparent" points="-4,4 -4,-318.53 605,-318.53 605,4 -4,4"/>
<!-- 89400559a2664020a32c1460f72bc285 -->
<g id="node1" class="node">
<title>89400559a2664020a32c1460f72bc285</title>
<polygon fill="none" stroke="black" points="157,-314.53 0,-314.53 0,-291.53 157,-291.53 157,-314.53"/>
<text text-anchor="middle" x="78.5" y="-299.33" font-family="Times,serif" font-size="14.00">Input &lt;DataArray&gt;</text>
</g>
<!-- 29c43703d48d48c698c20eba0fad23ce -->
<g id="node2" class="node">
<title>29c43703d48d48c698c20eba0fad23ce</title>
<polygon fill="none" stroke="black" points="285,-240.53 62,-240.53 62,-217.53 285,-217.53 285,-240.53"/>
<text text-anchor="middle" x="173.5" y="-225.33" font-family="Times,serif" font-size="14.00">gaussian_filter(arg_0, sigma)</text>
</g>
<!-- 89400559a2664020a32c1460f72bc285&#45;&gt;29c43703d48d48c698c20eba0fad23ce -->
<g id="edge1" class="edge">
<title>89400559a2664020a32c1460f72bc285&#45;&gt;29c43703d48d48c698c20eba0fad23ce</title>
<path fill="none" stroke="black" d="M92.52,-291.4C107.95,-279.7 132.99,-260.73 151.14,-246.97"/>
<polygon fill="black" stroke="black" points="153.57,-249.52 159.42,-240.69 149.34,-243.95 153.57,-249.52"/>
<text text-anchor="middle" x="155.5" y="-262.33" font-family="Times,serif" font-size="14.00">arg_0</text>
</g>
<!-- df48d0f9dd2445d88796deaebee12b90 -->
<g id="node3" class="node">
<title>df48d0f9dd2445d88796deaebee12b90</title>
<polygon fill="none" stroke="black" points="324,-166.53 229,-166.53 229,-143.53 324,-143.53 324,-166.53"/>
<text text-anchor="middle" x="276.5" y="-151.33" font-family="Times,serif" font-size="14.00">preprocess</text>
</g>
<!-- 29c43703d48d48c698c20eba0fad23ce&#45;&gt;df48d0f9dd2445d88796deaebee12b90 -->
<g id="edge2" class="edge">
<title>29c43703d48d48c698c20eba0fad23ce&#45;&gt;df48d0f9dd2445d88796deaebee12b90</title>
<path fill="none" stroke="black" d="M188.7,-217.4C205.59,-205.6 233.07,-186.39 252.79,-172.6"/>
<polygon fill="black" stroke="black" points="255.05,-175.29 261.24,-166.69 251.04,-169.56 255.05,-175.29"/>
<text text-anchor="middle" x="253.5" y="-188.33" font-family="Times,serif" font-size="14.00">arg_0</text>
</g>
<!-- fe0095dba1ee4e8db521f02e6f451a67 -->
<g id="node4" class="node">
<title>fe0095dba1ee4e8db521f02e6f451a67</title>
<polygon fill="none" stroke="black" points="468,-92.53 279,-92.53 279,-69.53 468,-69.53 468,-92.53"/>
<text text-anchor="middle" x="373.5" y="-77.33" font-family="Times,serif" font-size="14.00">slice_dims(arg_0, arg_1)</text>
</g>
<!-- df48d0f9dd2445d88796deaebee12b90&#45;&gt;fe0095dba1ee4e8db521f02e6f451a67 -->
<g id="edge3" class="edge">
<title>df48d0f9dd2445d88796deaebee12b90&#45;&gt;fe0095dba1ee4e8db521f02e6f451a67</title>
<path fill="none" stroke="black" d="M290.81,-143.4C306.64,-131.65 332.37,-112.56 350.92,-98.79"/>
<polygon fill="black" stroke="black" points="353.18,-101.46 359.13,-92.69 349.01,-95.84 353.18,-101.46"/>
<text text-anchor="middle" x="353.5" y="-114.33" font-family="Times,serif" font-size="14.00">arg_0</text>
</g>
<!-- 1993d7a0dbad4accb6747a229531f5c2 -->
<g id="node8" class="node">
<title>1993d7a0dbad4accb6747a229531f5c2</title>
<ellipse fill="lightgrey" stroke="lightgrey" cx="373.5" cy="-16.26" rx="84.71" ry="16.03"/>
<text text-anchor="middle" x="373.5" y="-12.56" font-family="Times,serif" font-size="14.00">GraphicalView</text>
</g>
<!-- fe0095dba1ee4e8db521f02e6f451a67&#45;&gt;1993d7a0dbad4accb6747a229531f5c2 -->
<g id="edge5" class="edge">
<title>fe0095dba1ee4e8db521f02e6f451a67&#45;&gt;1993d7a0dbad4accb6747a229531f5c2</title>
<path fill="none" stroke="black" d="M373.5,-69.38C373.5,-62.06 373.5,-52.02 373.5,-42.7"/>
<polygon fill="black" stroke="black" points="377,-42.68 373.5,-32.68 370,-42.68 377,-42.68"/>
</g>
<!-- 3a5681ffc744430db94d3382247cbf67 -->
<g id="node5" class="node">
<title>3a5681ffc744430db94d3382247cbf67</title>
<polygon fill="none" stroke="black" points="601,-166.53 342,-166.53 342,-143.53 601,-143.53 601,-166.53"/>
<text text-anchor="middle" x="471.5" y="-151.33" font-family="Times,serif" font-size="14.00">Widget &lt;_BaseSliceWidget: dict&gt;</text>
</g>
<!-- 3a5681ffc744430db94d3382247cbf67&#45;&gt;fe0095dba1ee4e8db521f02e6f451a67 -->
<g id="edge4" class="edge">
<title>3a5681ffc744430db94d3382247cbf67&#45;&gt;fe0095dba1ee4e8db521f02e6f451a67</title>
<path fill="none" stroke="black" d="M457.04,-143.4C441.04,-131.65 415.06,-112.56 396.31,-98.79"/>
<polygon fill="black" stroke="black" points="398.15,-95.79 388.02,-92.69 394.01,-101.44 398.15,-95.79"/>
<text text-anchor="middle" x="450.5" y="-114.33" font-family="Times,serif" font-size="14.00">arg_1</text>
</g>
<!-- 764d2a7606aa48b5be5311b51c375f10 -->
<g id="node6" class="node">
<title>764d2a7606aa48b5be5311b51c375f10</title>
<polygon fill="none" stroke="black" points="458,-240.53 303,-240.53 303,-217.53 458,-217.53 458,-240.53"/>
<text text-anchor="middle" x="380.5" y="-225.33" font-family="Times,serif" font-size="14.00">Input &lt;NoneType&gt;</text>
</g>
<!-- 764d2a7606aa48b5be5311b51c375f10&#45;&gt;df48d0f9dd2445d88796deaebee12b90 -->
<g id="edge6" class="edge">
<title>764d2a7606aa48b5be5311b51c375f10&#45;&gt;df48d0f9dd2445d88796deaebee12b90</title>
<path fill="none" stroke="black" d="M365.15,-217.4C348.03,-205.55 320.1,-186.21 300.17,-172.41"/>
<polygon fill="black" stroke="black" points="302.12,-169.51 291.91,-166.69 298.14,-175.26 302.12,-169.51"/>
<text text-anchor="middle" x="357.5" y="-188.33" font-family="Times,serif" font-size="14.00">name</text>
</g>
<!-- 124f22aee2de4b20957becd46e90a5d7 -->
<g id="node7" class="node">
<title>124f22aee2de4b20957becd46e90a5d7</title>
<polygon fill="none" stroke="black" points="363.5,-314.53 175.5,-314.53 175.5,-291.53 363.5,-291.53 363.5,-314.53"/>
<text text-anchor="middle" x="269.5" y="-299.33" font-family="Times,serif" font-size="14.00">Widget &lt;IntSlider: int&gt;</text>
</g>
<!-- 124f22aee2de4b20957becd46e90a5d7&#45;&gt;29c43703d48d48c698c20eba0fad23ce -->
<g id="edge7" class="edge">
<title>124f22aee2de4b20957becd46e90a5d7&#45;&gt;29c43703d48d48c698c20eba0fad23ce</title>
<path fill="none" stroke="black" d="M255.33,-291.4C239.74,-279.7 214.44,-260.73 196.1,-246.97"/>
<polygon fill="black" stroke="black" points="197.82,-243.89 187.72,-240.69 193.62,-249.49 197.82,-243.89"/>
<text text-anchor="middle" x="251" y="-262.33" font-family="Times,serif" font-size="14.00">sigma</text>
</g>
</g>
</svg>
