<?xml version="1.0" encoding="UTF-8" standalone="no"?>
<!DOCTYPE svg PUBLIC "-//W3C//DTD SVG 1.1//EN"
 "http://www.w3.org/Graphics/SVG/1.1/DTD/svg11.dtd">
<!-- Generated by graphviz version 2.43.0 (0)
 -->
<!-- Title: %3 Pages: 1 -->
<svg width="774pt" height="397pt"
 viewBox="0.00 0.00 774.00 396.53" xmlns="http://www.w3.org/2000/svg" xmlns:xlink="http://www.w3.org/1999/xlink">
<g id="graph0" class="graph" transform="scale(1 1) rotate(0) translate(4 392.53)">
<title>%3</title>
<polygon fill="white" stroke="transparent" points="-4,4 -4,-392.53 770,-392.53 770,4 -4,4"/>
<!-- c4d3402b29d042d7b1aa5ca958b52352 -->
<g id="node1" class="node">
<title>c4d3402b29d042d7b1aa5ca958b52352</title>
<polygon fill="none" stroke="black" points="157,-388.53 0,-388.53 0,-365.53 157,-365.53 157,-388.53"/>
<text text-anchor="middle" x="78.5" y="-373.33" font-family="Times,serif" font-size="14.00">Input &lt;DataArray&gt;</text>
</g>
<!-- dfcdb4659cfd4508bc246f43f634fbc7 -->
<g id="node2" class="node">
<title>dfcdb4659cfd4508bc246f43f634fbc7</title>
<polygon fill="none" stroke="black" points="285,-314.53 62,-314.53 62,-291.53 285,-291.53 285,-314.53"/>
<text text-anchor="middle" x="173.5" y="-299.33" font-family="Times,serif" font-size="14.00">gaussian_filter(arg_0, sigma)</text>
</g>
<!-- c4d3402b29d042d7b1aa5ca958b52352&#45;&gt;dfcdb4659cfd4508bc246f43f634fbc7 -->
<g id="edge1" class="edge">
<title>c4d3402b29d042d7b1aa5ca958b52352&#45;&gt;dfcdb4659cfd4508bc246f43f634fbc7</title>
<path fill="none" stroke="black" d="M92.52,-365.4C107.95,-353.7 132.99,-334.73 151.14,-320.97"/>
<polygon fill="black" stroke="black" points="153.57,-323.52 159.42,-314.69 149.34,-317.95 153.57,-323.52"/>
<text text-anchor="middle" x="155.5" y="-336.33" font-family="Times,serif" font-size="14.00">arg_0</text>
</g>
<!-- 08133c3f2b5d4f1b9660e9b2d6e23c6a -->
<g id="node3" class="node">
<title>08133c3f2b5d4f1b9660e9b2d6e23c6a</title>
<polygon fill="none" stroke="black" points="326,-240.53 231,-240.53 231,-217.53 326,-217.53 326,-240.53"/>
<text text-anchor="middle" x="278.5" y="-225.33" font-family="Times,serif" font-size="14.00">preprocess</text>
</g>
<!-- dfcdb4659cfd4508bc246f43f634fbc7&#45;&gt;08133c3f2b5d4f1b9660e9b2d6e23c6a -->
<g id="edge2" class="edge">
<title>dfcdb4659cfd4508bc246f43f634fbc7&#45;&gt;08133c3f2b5d4f1b9660e9b2d6e23c6a</title>
<path fill="none" stroke="black" d="M188.99,-291.4C206.29,-279.55 234.48,-260.21 254.6,-246.41"/>
<polygon fill="black" stroke="black" points="256.68,-249.24 262.94,-240.69 252.72,-243.46 256.68,-249.24"/>
<text text-anchor="middle" x="254.5" y="-262.33" font-family="Times,serif" font-size="14.00">arg_0</text>
</g>
<!-- 1f746d0039f34684a276ce0c3ddfcd84 -->
<g id="node4" class="node">
<title>1f746d0039f34684a276ce0c3ddfcd84</title>
<polygon fill="none" stroke="black" points="470,-166.53 281,-166.53 281,-143.53 470,-143.53 470,-166.53"/>
<text text-anchor="middle" x="375.5" y="-151.33" font-family="Times,serif" font-size="14.00">slice_dims(arg_0, arg_1)</text>
</g>
<!-- 08133c3f2b5d4f1b9660e9b2d6e23c6a&#45;&gt;1f746d0039f34684a276ce0c3ddfcd84 -->
<g id="edge3" class="edge">
<title>08133c3f2b5d4f1b9660e9b2d6e23c6a&#45;&gt;1f746d0039f34684a276ce0c3ddfcd84</title>
<path fill="none" stroke="black" d="M292.81,-217.4C308.64,-205.65 334.37,-186.56 352.92,-172.79"/>
<polygon fill="black" stroke="black" points="355.18,-175.46 361.13,-166.69 351.01,-169.84 355.18,-175.46"/>
<text text-anchor="middle" x="355.5" y="-188.33" font-family="Times,serif" font-size="14.00">arg_0</text>
</g>
<!-- e4f1d612350649478b63f9f946591fad -->
<g id="node5" class="node">
<title>e4f1d612350649478b63f9f946591fad</title>
<polygon fill="none" stroke="black" points="670,-92.53 413,-92.53 413,-69.53 670,-69.53 670,-92.53"/>
<text text-anchor="middle" x="541.5" y="-77.33" font-family="Times,serif" font-size="14.00">_maybe_reduce_dim(da, dims, op)</text>
</g>
<!-- 1f746d0039f34684a276ce0c3ddfcd84&#45;&gt;e4f1d612350649478b63f9f946591fad -->
<g id="edge4" class="edge">
<title>1f746d0039f34684a276ce0c3ddfcd84&#45;&gt;e4f1d612350649478b63f9f946591fad</title>
<path fill="none" stroke="black" d="M399.99,-143.4C428.52,-131.03 475.8,-110.52 507.78,-96.65"/>
<polygon fill="black" stroke="black" points="509.39,-99.77 517.18,-92.58 506.61,-93.35 509.39,-99.77"/>
<text text-anchor="middle" x="481.5" y="-114.33" font-family="Times,serif" font-size="14.00">da</text>
</g>
<!-- 77bbc470e0bd4c688e34b1858fa2544f -->
<g id="node11" class="node">
<title>77bbc470e0bd4c688e34b1858fa2544f</title>
<ellipse fill="lightgrey" stroke="lightgrey" cx="541.5" cy="-16.26" rx="84.71" ry="16.03"/>
<text text-anchor="middle" x="541.5" y="-12.56" font-family="Times,serif" font-size="14.00">GraphicalView</text>
</g>
<!-- e4f1d612350649478b63f9f946591fad&#45;&gt;77bbc470e0bd4c688e34b1858fa2544f -->
<g id="edge7" class="edge">
<title>e4f1d612350649478b63f9f946591fad&#45;&gt;77bbc470e0bd4c688e34b1858fa2544f</title>
<path fill="none" stroke="black" d="M541.5,-69.38C541.5,-62.06 541.5,-52.02 541.5,-42.7"/>
<polygon fill="black" stroke="black" points="545,-42.68 541.5,-32.68 538,-42.68 545,-42.68"/>
</g>
<!-- 39aa7bffd1774923a1e426e7d8a2fc80 -->
<g id="node6" class="node">
<title>39aa7bffd1774923a1e426e7d8a2fc80</title>
<polygon fill="none" stroke="black" points="594.5,-166.53 488.5,-166.53 488.5,-143.53 594.5,-143.53 594.5,-166.53"/>
<text text-anchor="middle" x="541.5" y="-151.33" font-family="Times,serif" font-size="14.00">Input &lt;list&gt;</text>
</g>
<!-- 39aa7bffd1774923a1e426e7d8a2fc80&#45;&gt;e4f1d612350649478b63f9f946591fad -->
<g id="edge5" class="edge">
<title>39aa7bffd1774923a1e426e7d8a2fc80&#45;&gt;e4f1d612350649478b63f9f946591fad</title>
<path fill="none" stroke="black" d="M541.5,-143.4C541.5,-132.77 541.5,-116.12 541.5,-102.85"/>
<polygon fill="black" stroke="black" points="545,-102.69 541.5,-92.69 538,-102.69 545,-102.69"/>
<text text-anchor="middle" x="559" y="-114.33" font-family="Times,serif" font-size="14.00">dims</text>
</g>
<!-- 40bab563d7544464962cef067162b479 -->
<g id="node7" class="node">
<title>40bab563d7544464962cef067162b479</title>
<polygon fill="none" stroke="black" points="766,-166.53 613,-166.53 613,-143.53 766,-143.53 766,-166.53"/>
<text text-anchor="middle" x="689.5" y="-151.33" font-family="Times,serif" font-size="14.00">Input &lt;str=&#39;sum&#39;&gt;</text>
</g>
<!-- 40bab563d7544464962cef067162b479&#45;&gt;e4f1d612350649478b63f9f946591fad -->
<g id="edge6" class="edge">
<title>40bab563d7544464962cef067162b479&#45;&gt;e4f1d612350649478b63f9f946591fad</title>
<path fill="none" stroke="black" d="M667.66,-143.4C642.52,-131.17 601.04,-110.99 572.55,-97.13"/>
<polygon fill="black" stroke="black" points="573.95,-93.92 563.43,-92.69 570.89,-100.22 573.95,-93.92"/>
<text text-anchor="middle" x="637.5" y="-114.33" font-family="Times,serif" font-size="14.00">op</text>
</g>
<!-- 3ddd1570cb2944aeb2bdbb26a477da56 -->
<g id="node8" class="node">
<title>3ddd1570cb2944aeb2bdbb26a477da56</title>
<polygon fill="none" stroke="black" points="603,-240.53 344,-240.53 344,-217.53 603,-217.53 603,-240.53"/>
<text text-anchor="middle" x="473.5" y="-225.33" font-family="Times,serif" font-size="14.00">Widget &lt;_BaseSliceWidget: dict&gt;</text>
</g>
<!-- 3ddd1570cb2944aeb2bdbb26a477da56&#45;&gt;1f746d0039f34684a276ce0c3ddfcd84 -->
<g id="edge8" class="edge">
<title>3ddd1570cb2944aeb2bdbb26a477da56&#45;&gt;1f746d0039f34684a276ce0c3ddfcd84</title>
<path fill="none" stroke="black" d="M459.04,-217.4C443.04,-205.65 417.06,-186.56 398.31,-172.79"/>
<polygon fill="black" stroke="black" points="400.15,-169.79 390.02,-166.69 396.01,-175.44 400.15,-169.79"/>
<text text-anchor="middle" x="452.5" y="-188.33" font-family="Times,serif" font-size="14.00">arg_1</text>
</g>
<!-- aea59bd997164d67996ad3e2ac41dc27 -->
<g id="node9" class="node">
<title>aea59bd997164d67996ad3e2ac41dc27</title>
<polygon fill="none" stroke="black" points="464,-314.53 303,-314.53 303,-291.53 464,-291.53 464,-314.53"/>
<text text-anchor="middle" x="383.5" y="-299.33" font-family="Times,serif" font-size="14.00">Input &lt;str=&#39;None&#39;&gt;</text>
</g>
<!-- aea59bd997164d67996ad3e2ac41dc27&#45;&gt;08133c3f2b5d4f1b9660e9b2d6e23c6a -->
<g id="edge9" class="edge">
<title>aea59bd997164d67996ad3e2ac41dc27&#45;&gt;08133c3f2b5d4f1b9660e9b2d6e23c6a</title>
<path fill="none" stroke="black" d="M368.01,-291.4C350.71,-279.55 322.52,-260.21 302.4,-246.41"/>
<polygon fill="black" stroke="black" points="304.28,-243.46 294.06,-240.69 300.32,-249.24 304.28,-243.46"/>
<text text-anchor="middle" x="359.5" y="-262.33" font-family="Times,serif" font-size="14.00">name</text>
</g>
<!-- 764f69a97526416e910aeae3022df176 -->
<g id="node10" class="node">
<title>764f69a97526416e910aeae3022df176</title>
<polygon fill="none" stroke="black" points="363.5,-388.53 175.5,-388.53 175.5,-365.53 363.5,-365.53 363.5,-388.53"/>
<text text-anchor="middle" x="269.5" y="-373.33" font-family="Times,serif" font-size="14.00">Widget &lt;IntSlider: int&gt;</text>
</g>
<!-- 764f69a97526416e910aeae3022df176&#45;&gt;dfcdb4659cfd4508bc246f43f634fbc7 -->
<g id="edge10" class="edge">
<title>764f69a97526416e910aeae3022df176&#45;&gt;dfcdb4659cfd4508bc246f43f634fbc7</title>
<path fill="none" stroke="black" d="M255.33,-365.4C239.74,-353.7 214.44,-334.73 196.1,-320.97"/>
<polygon fill="black" stroke="black" points="197.82,-317.89 187.72,-314.69 193.62,-323.49 197.82,-317.89"/>
<text text-anchor="middle" x="251" y="-336.33" font-family="Times,serif" font-size="14.00">sigma</text>
</g>
</g>
</svg>
