<?xml version="1.0" encoding="UTF-8" standalone="no"?>
<!DOCTYPE svg PUBLIC "-//W3C//DTD SVG 1.1//EN"
 "http://www.w3.org/Graphics/SVG/1.1/DTD/svg11.dtd">
<!-- Generated by graphviz version 2.43.0 (0)
 -->
<!-- Title: %3 Pages: 1 -->
<svg width="609pt" height="323pt"
 viewBox="0.00 0.00 609.00 322.53" xmlns="http://www.w3.org/2000/svg" xmlns:xlink="http://www.w3.org/1999/xlink">
<g id="graph0" class="graph" transform="scale(1 1) rotate(0) translate(4 318.53)">
<title>%3</title>
<polygon fill="white" stroke="transparent" points="-4,4 -4,-318.53 605,-318.53 605,4 -4,4"/>
<!-- 86df5f723c80437aa89d1a7c708dd44d -->
<g id="node1" class="node">
<title>86df5f723c80437aa89d1a7c708dd44d</title>
<polygon fill="none" stroke="black" points="157,-314.53 0,-314.53 0,-291.53 157,-291.53 157,-314.53"/>
<text text-anchor="middle" x="78.5" y="-299.33" font-family="Times,serif" font-size="14.00">Input &lt;DataArray&gt;</text>
</g>
<!-- 68246ddd8b724f50993a6b1556979fe5 -->
<g id="node2" class="node">
<title>68246ddd8b724f50993a6b1556979fe5</title>
<polygon fill="none" stroke="black" points="285,-240.53 62,-240.53 62,-217.53 285,-217.53 285,-240.53"/>
<text text-anchor="middle" x="173.5" y="-225.33" font-family="Times,serif" font-size="14.00">gaussian_filter(arg_0, sigma)</text>
</g>
<!-- 86df5f723c80437aa89d1a7c708dd44d&#45;&gt;68246ddd8b724f50993a6b1556979fe5 -->
<g id="edge1" class="edge">
<title>86df5f723c80437aa89d1a7c708dd44d&#45;&gt;68246ddd8b724f50993a6b1556979fe5</title>
<path fill="none" stroke="black" d="M92.52,-291.4C107.95,-279.7 132.99,-260.73 151.14,-246.97"/>
<polygon fill="black" stroke="black" points="153.57,-249.52 159.42,-240.69 149.34,-243.95 153.57,-249.52"/>
<text text-anchor="middle" x="155.5" y="-262.33" font-family="Times,serif" font-size="14.00">arg_0</text>
</g>
<!-- bce14a71c9db4b2bbc062fb2499f7214 -->
<g id="node3" class="node">
<title>bce14a71c9db4b2bbc062fb2499f7214</title>
<polygon fill="none" stroke="black" points="324,-166.53 229,-166.53 229,-143.53 324,-143.53 324,-166.53"/>
<text text-anchor="middle" x="276.5" y="-151.33" font-family="Times,serif" font-size="14.00">preprocess</text>
</g>
<!-- 68246ddd8b724f50993a6b1556979fe5&#45;&gt;bce14a71c9db4b2bbc062fb2499f7214 -->
<g id="edge2" class="edge">
<title>68246ddd8b724f50993a6b1556979fe5&#45;&gt;bce14a71c9db4b2bbc062fb2499f7214</title>
<path fill="none" stroke="black" d="M188.7,-217.4C205.59,-205.6 233.07,-186.39 252.79,-172.6"/>
<polygon fill="black" stroke="black" points="255.05,-175.29 261.24,-166.69 251.04,-169.56 255.05,-175.29"/>
<text text-anchor="middle" x="253.5" y="-188.33" font-family="Times,serif" font-size="14.00">arg_0</text>
</g>
<!-- 726f9b96058642a58e0ac7ae372fc88d -->
<g id="node4" class="node">
<title>726f9b96058642a58e0ac7ae372fc88d</title>
<polygon fill="none" stroke="black" points="468,-92.53 279,-92.53 279,-69.53 468,-69.53 468,-92.53"/>
<text text-anchor="middle" x="373.5" y="-77.33" font-family="Times,serif" font-size="14.00">slice_dims(arg_0, arg_1)</text>
</g>
<!-- bce14a71c9db4b2bbc062fb2499f7214&#45;&gt;726f9b96058642a58e0ac7ae372fc88d -->
<g id="edge3" class="edge">
<title>bce14a71c9db4b2bbc062fb2499f7214&#45;&gt;726f9b96058642a58e0ac7ae372fc88d</title>
<path fill="none" stroke="black" d="M290.81,-143.4C306.64,-131.65 332.37,-112.56 350.92,-98.79"/>
<polygon fill="black" stroke="black" points="353.18,-101.46 359.13,-92.69 349.01,-95.84 353.18,-101.46"/>
<text text-anchor="middle" x="353.5" y="-114.33" font-family="Times,serif" font-size="14.00">arg_0</text>
</g>
<!-- 0ef98e64bc5a4d3eb341ce20276fb9f0 -->
<g id="node8" class="node">
<title>0ef98e64bc5a4d3eb341ce20276fb9f0</title>
<ellipse fill="lightgrey" stroke="lightgrey" cx="373.5" cy="-16.26" rx="84.71" ry="16.03"/>
<text text-anchor="middle" x="373.5" y="-12.56" font-family="Times,serif" font-size="14.00">GraphicalView</text>
</g>
<!-- 726f9b96058642a58e0ac7ae372fc88d&#45;&gt;0ef98e64bc5a4d3eb341ce20276fb9f0 -->
<g id="edge5" class="edge">
<title>726f9b96058642a58e0ac7ae372fc88d&#45;&gt;0ef98e64bc5a4d3eb341ce20276fb9f0</title>
<path fill="none" stroke="black" d="M373.5,-69.38C373.5,-62.06 373.5,-52.02 373.5,-42.7"/>
<polygon fill="black" stroke="black" points="377,-42.68 373.5,-32.68 370,-42.68 377,-42.68"/>
</g>
<!-- 6fa4d554ca0144a68288e6c44b18292f -->
<g id="node5" class="node">
<title>6fa4d554ca0144a68288e6c44b18292f</title>
<polygon fill="none" stroke="black" points="601,-166.53 342,-166.53 342,-143.53 601,-143.53 601,-166.53"/>
<text text-anchor="middle" x="471.5" y="-151.33" font-family="Times,serif" font-size="14.00">Widget &lt;_BaseSliceWidget: dict&gt;</text>
</g>
<!-- 6fa4d554ca0144a68288e6c44b18292f&#45;&gt;726f9b96058642a58e0ac7ae372fc88d -->
<g id="edge4" class="edge">
<title>6fa4d554ca0144a68288e6c44b18292f&#45;&gt;726f9b96058642a58e0ac7ae372fc88d</title>
<path fill="none" stroke="black" d="M457.04,-143.4C441.04,-131.65 415.06,-112.56 396.31,-98.79"/>
<polygon fill="black" stroke="black" points="398.15,-95.79 388.02,-92.69 394.01,-101.44 398.15,-95.79"/>
<text text-anchor="middle" x="450.5" y="-114.33" font-family="Times,serif" font-size="14.00">arg_1</text>
</g>
<!-- f17eb972e36042fbb3f0d2e2585ca411 -->
<g id="node6" class="node">
<title>f17eb972e36042fbb3f0d2e2585ca411</title>
<polygon fill="none" stroke="black" points="458,-240.53 303,-240.53 303,-217.53 458,-217.53 458,-240.53"/>
<text text-anchor="middle" x="380.5" y="-225.33" font-family="Times,serif" font-size="14.00">Input &lt;NoneType&gt;</text>
</g>
<!-- f17eb972e36042fbb3f0d2e2585ca411&#45;&gt;bce14a71c9db4b2bbc062fb2499f7214 -->
<g id="edge6" class="edge">
<title>f17eb972e36042fbb3f0d2e2585ca411&#45;&gt;bce14a71c9db4b2bbc062fb2499f7214</title>
<path fill="none" stroke="black" d="M365.15,-217.4C348.03,-205.55 320.1,-186.21 300.17,-172.41"/>
<polygon fill="black" stroke="black" points="302.12,-169.51 291.91,-166.69 298.14,-175.26 302.12,-169.51"/>
<text text-anchor="middle" x="357.5" y="-188.33" font-family="Times,serif" font-size="14.00">name</text>
</g>
<!-- 4793aa68db004365b2c9f856f21c2d10 -->
<g id="node7" class="node">
<title>4793aa68db004365b2c9f856f21c2d10</title>
<polygon fill="none" stroke="black" points="363.5,-314.53 175.5,-314.53 175.5,-291.53 363.5,-291.53 363.5,-314.53"/>
<text text-anchor="middle" x="269.5" y="-299.33" font-family="Times,serif" font-size="14.00">Widget &lt;IntSlider: int&gt;</text>
</g>
<!-- 4793aa68db004365b2c9f856f21c2d10&#45;&gt;68246ddd8b724f50993a6b1556979fe5 -->
<g id="edge7" class="edge">
<title>4793aa68db004365b2c9f856f21c2d10&#45;&gt;68246ddd8b724f50993a6b1556979fe5</title>
<path fill="none" stroke="black" d="M255.33,-291.4C239.74,-279.7 214.44,-260.73 196.1,-246.97"/>
<polygon fill="black" stroke="black" points="197.82,-243.89 187.72,-240.69 193.62,-249.49 197.82,-243.89"/>
<text text-anchor="middle" x="251" y="-262.33" font-family="Times,serif" font-size="14.00">sigma</text>
</g>
</g>
</svg>
