<?xml version="1.0" encoding="UTF-8" standalone="no"?>
<!DOCTYPE svg PUBLIC "-//W3C//DTD SVG 1.1//EN"
 "http://www.w3.org/Graphics/SVG/1.1/DTD/svg11.dtd">
<!-- Generated by graphviz version 2.43.0 (0)
 -->
<!-- Title: %3 Pages: 1 -->
<svg width="611pt" height="323pt"
 viewBox="0.00 0.00 611.00 322.53" xmlns="http://www.w3.org/2000/svg" xmlns:xlink="http://www.w3.org/1999/xlink">
<g id="graph0" class="graph" transform="scale(1 1) rotate(0) translate(4 318.53)">
<title>%3</title>
<polygon fill="white" stroke="transparent" points="-4,4 -4,-318.53 607,-318.53 607,4 -4,4"/>
<!-- c177353336b54ddfae95566fe5a64dd5 -->
<g id="node1" class="node">
<title>c177353336b54ddfae95566fe5a64dd5</title>
<polygon fill="none" stroke="black" points="157,-314.53 0,-314.53 0,-291.53 157,-291.53 157,-314.53"/>
<text text-anchor="middle" x="78.5" y="-299.33" font-family="Times,serif" font-size="14.00">Input &lt;DataArray&gt;</text>
</g>
<!-- 11e8794a2415450c92fa25a1123b010a -->
<g id="node2" class="node">
<title>11e8794a2415450c92fa25a1123b010a</title>
<polygon fill="none" stroke="black" points="285,-240.53 62,-240.53 62,-217.53 285,-217.53 285,-240.53"/>
<text text-anchor="middle" x="173.5" y="-225.33" font-family="Times,serif" font-size="14.00">gaussian_filter(arg_0, sigma)</text>
</g>
<!-- c177353336b54ddfae95566fe5a64dd5&#45;&gt;11e8794a2415450c92fa25a1123b010a -->
<g id="edge1" class="edge">
<title>c177353336b54ddfae95566fe5a64dd5&#45;&gt;11e8794a2415450c92fa25a1123b010a</title>
<path fill="none" stroke="black" d="M92.52,-291.4C107.95,-279.7 132.99,-260.73 151.14,-246.97"/>
<polygon fill="black" stroke="black" points="153.57,-249.52 159.42,-240.69 149.34,-243.95 153.57,-249.52"/>
<text text-anchor="middle" x="155.5" y="-262.33" font-family="Times,serif" font-size="14.00">arg_0</text>
</g>
<!-- a23d9a59f48744d5aec101e380ccc84b -->
<g id="node3" class="node">
<title>a23d9a59f48744d5aec101e380ccc84b</title>
<polygon fill="none" stroke="black" points="326,-166.53 231,-166.53 231,-143.53 326,-143.53 326,-166.53"/>
<text text-anchor="middle" x="278.5" y="-151.33" font-family="Times,serif" font-size="14.00">preprocess</text>
</g>
<!-- 11e8794a2415450c92fa25a1123b010a&#45;&gt;a23d9a59f48744d5aec101e380ccc84b -->
<g id="edge2" class="edge">
<title>11e8794a2415450c92fa25a1123b010a&#45;&gt;a23d9a59f48744d5aec101e380ccc84b</title>
<path fill="none" stroke="black" d="M188.99,-217.4C206.29,-205.55 234.48,-186.21 254.6,-172.41"/>
<polygon fill="black" stroke="black" points="256.68,-175.24 262.94,-166.69 252.72,-169.46 256.68,-175.24"/>
<text text-anchor="middle" x="254.5" y="-188.33" font-family="Times,serif" font-size="14.00">arg_0</text>
</g>
<!-- 9d02d94190a3453d9e2fcb16661981e9 -->
<g id="node4" class="node">
<title>9d02d94190a3453d9e2fcb16661981e9</title>
<polygon fill="none" stroke="black" points="470,-92.53 281,-92.53 281,-69.53 470,-69.53 470,-92.53"/>
<text text-anchor="middle" x="375.5" y="-77.33" font-family="Times,serif" font-size="14.00">slice_dims(arg_0, arg_1)</text>
</g>
<!-- a23d9a59f48744d5aec101e380ccc84b&#45;&gt;9d02d94190a3453d9e2fcb16661981e9 -->
<g id="edge3" class="edge">
<title>a23d9a59f48744d5aec101e380ccc84b&#45;&gt;9d02d94190a3453d9e2fcb16661981e9</title>
<path fill="none" stroke="black" d="M292.81,-143.4C308.64,-131.65 334.37,-112.56 352.92,-98.79"/>
<polygon fill="black" stroke="black" points="355.18,-101.46 361.13,-92.69 351.01,-95.84 355.18,-101.46"/>
<text text-anchor="middle" x="355.5" y="-114.33" font-family="Times,serif" font-size="14.00">arg_0</text>
</g>
<!-- bed5df2b4a8547d3a28780bca1bd1175 -->
<g id="node8" class="node">
<title>bed5df2b4a8547d3a28780bca1bd1175</title>
<ellipse fill="lightgrey" stroke="lightgrey" cx="375.5" cy="-16.26" rx="84.71" ry="16.03"/>
<text text-anchor="middle" x="375.5" y="-12.56" font-family="Times,serif" font-size="14.00">GraphicalView</text>
</g>
<!-- 9d02d94190a3453d9e2fcb16661981e9&#45;&gt;bed5df2b4a8547d3a28780bca1bd1175 -->
<g id="edge5" class="edge">
<title>9d02d94190a3453d9e2fcb16661981e9&#45;&gt;bed5df2b4a8547d3a28780bca1bd1175</title>
<path fill="none" stroke="black" d="M375.5,-69.38C375.5,-62.06 375.5,-52.02 375.5,-42.7"/>
<polygon fill="black" stroke="black" points="379,-42.68 375.5,-32.68 372,-42.68 379,-42.68"/>
</g>
<!-- 459ebf38f5c94f04a74b10f67825de12 -->
<g id="node5" class="node">
<title>459ebf38f5c94f04a74b10f67825de12</title>
<polygon fill="none" stroke="black" points="603,-166.53 344,-166.53 344,-143.53 603,-143.53 603,-166.53"/>
<text text-anchor="middle" x="473.5" y="-151.33" font-family="Times,serif" font-size="14.00">Widget &lt;_BaseSliceWidget: dict&gt;</text>
</g>
<!-- 459ebf38f5c94f04a74b10f67825de12&#45;&gt;9d02d94190a3453d9e2fcb16661981e9 -->
<g id="edge4" class="edge">
<title>459ebf38f5c94f04a74b10f67825de12&#45;&gt;9d02d94190a3453d9e2fcb16661981e9</title>
<path fill="none" stroke="black" d="M459.04,-143.4C443.04,-131.65 417.06,-112.56 398.31,-98.79"/>
<polygon fill="black" stroke="black" points="400.15,-95.79 390.02,-92.69 396.01,-101.44 400.15,-95.79"/>
<text text-anchor="middle" x="452.5" y="-114.33" font-family="Times,serif" font-size="14.00">arg_1</text>
</g>
<!-- 720a0a610c1b494c8e99bfe1cbee6b38 -->
<g id="node6" class="node">
<title>720a0a610c1b494c8e99bfe1cbee6b38</title>
<polygon fill="none" stroke="black" points="464,-240.53 303,-240.53 303,-217.53 464,-217.53 464,-240.53"/>
<text text-anchor="middle" x="383.5" y="-225.33" font-family="Times,serif" font-size="14.00">Input &lt;str=&#39;None&#39;&gt;</text>
</g>
<!-- 720a0a610c1b494c8e99bfe1cbee6b38&#45;&gt;a23d9a59f48744d5aec101e380ccc84b -->
<g id="edge6" class="edge">
<title>720a0a610c1b494c8e99bfe1cbee6b38&#45;&gt;a23d9a59f48744d5aec101e380ccc84b</title>
<path fill="none" stroke="black" d="M368.01,-217.4C350.71,-205.55 322.52,-186.21 302.4,-172.41"/>
<polygon fill="black" stroke="black" points="304.28,-169.46 294.06,-166.69 300.32,-175.24 304.28,-169.46"/>
<text text-anchor="middle" x="359.5" y="-188.33" font-family="Times,serif" font-size="14.00">name</text>
</g>
<!-- f4c236881c3648e381feca8d275ef81a -->
<g id="node7" class="node">
<title>f4c236881c3648e381feca8d275ef81a</title>
<polygon fill="none" stroke="black" points="363.5,-314.53 175.5,-314.53 175.5,-291.53 363.5,-291.53 363.5,-314.53"/>
<text text-anchor="middle" x="269.5" y="-299.33" font-family="Times,serif" font-size="14.00">Widget &lt;IntSlider: int&gt;</text>
</g>
<!-- f4c236881c3648e381feca8d275ef81a&#45;&gt;11e8794a2415450c92fa25a1123b010a -->
<g id="edge7" class="edge">
<title>f4c236881c3648e381feca8d275ef81a&#45;&gt;11e8794a2415450c92fa25a1123b010a</title>
<path fill="none" stroke="black" d="M255.33,-291.4C239.74,-279.7 214.44,-260.73 196.1,-246.97"/>
<polygon fill="black" stroke="black" points="197.82,-243.89 187.72,-240.69 193.62,-249.49 197.82,-243.89"/>
<text text-anchor="middle" x="251" y="-262.33" font-family="Times,serif" font-size="14.00">sigma</text>
</g>
</g>
</svg>
