<?xml version="1.0" encoding="UTF-8" standalone="no"?>
<!DOCTYPE svg PUBLIC "-//W3C//DTD SVG 1.1//EN"
 "http://www.w3.org/Graphics/SVG/1.1/DTD/svg11.dtd">
<!-- Generated by graphviz version 2.43.0 (0)
 -->
<!-- Title: %3 Pages: 1 -->
<svg width="534pt" height="258pt"
 viewBox="0.00 0.00 534.00 258.05" xmlns="http://www.w3.org/2000/svg" xmlns:xlink="http://www.w3.org/1999/xlink">
<g id="graph0" class="graph" transform="scale(1 1) rotate(0) translate(4 254.05)">
<title>%3</title>
<polygon fill="white" stroke="transparent" points="-4,4 -4,-254.05 530,-254.05 530,4 -4,4"/>
<!-- ceed29d377cc4cadb8736ec465ebfbe8 -->
<g id="node1" class="node">
<title>ceed29d377cc4cadb8736ec465ebfbe8</title>
<polygon fill="none" stroke="black" points="201.5,-250.05 13.5,-250.05 13.5,-227.05 201.5,-227.05 201.5,-250.05"/>
<text text-anchor="middle" x="107.5" y="-234.85" font-family="Times,serif" font-size="14.00">Widget &lt;IntSlider: int&gt;</text>
</g>
<!-- f630d7b98f4644cbb93e9e85e175852f -->
<g id="node2" class="node">
<title>f630d7b98f4644cbb93e9e85e175852f</title>
<polygon fill="none" stroke="black" points="223,-176.05 0,-176.05 0,-153.05 223,-153.05 223,-176.05"/>
<text text-anchor="middle" x="111.5" y="-160.85" font-family="Times,serif" font-size="14.00">gaussian_filter(arg_0, sigma)</text>
</g>
<!-- ceed29d377cc4cadb8736ec465ebfbe8&#45;&gt;f630d7b98f4644cbb93e9e85e175852f -->
<g id="edge1" class="edge">
<title>ceed29d377cc4cadb8736ec465ebfbe8&#45;&gt;f630d7b98f4644cbb93e9e85e175852f</title>
<path fill="none" stroke="black" d="M108.09,-226.93C108.68,-216.29 109.61,-199.65 110.34,-186.37"/>
<polygon fill="black" stroke="black" points="113.85,-186.4 110.91,-176.22 106.86,-186.01 113.85,-186.4"/>
<text text-anchor="middle" x="132" y="-197.85" font-family="Times,serif" font-size="14.00">sigma</text>
</g>
<!-- 8f6df953096d466e971f36280caec005 -->
<g id="node3" class="node">
<title>8f6df953096d466e971f36280caec005</title>
<polygon fill="none" stroke="black" points="373,-97.29 240,-97.29 240,-74.29 373,-74.29 373,-97.29"/>
<text text-anchor="middle" x="306.5" y="-82.09" font-family="Times,serif" font-size="14.00">sum(arg_0, dim)</text>
</g>
<!-- f630d7b98f4644cbb93e9e85e175852f&#45;&gt;8f6df953096d466e971f36280caec005 -->
<g id="edge3" class="edge">
<title>f630d7b98f4644cbb93e9e85e175852f&#45;&gt;8f6df953096d466e971f36280caec005</title>
<path fill="none" stroke="black" d="M138.21,-153.04C172.39,-139.58 231.76,-116.21 270.07,-101.13"/>
<polygon fill="black" stroke="black" points="271.78,-104.22 279.81,-97.3 269.22,-97.71 271.78,-104.22"/>
<text text-anchor="middle" x="240.5" y="-123.85" font-family="Times,serif" font-size="14.00">arg_0</text>
</g>
<!-- b312230c76fb480fba0b006abac85e3d -->
<g id="node9" class="node">
<title>b312230c76fb480fba0b006abac85e3d</title>
<ellipse fill="lightgrey" stroke="lightgrey" cx="111.5" cy="-85.79" rx="84.71" ry="16.03"/>
<text text-anchor="middle" x="111.5" y="-82.09" font-family="Times,serif" font-size="14.00">GraphicalView</text>
</g>
<!-- f630d7b98f4644cbb93e9e85e175852f&#45;&gt;b312230c76fb480fba0b006abac85e3d -->
<g id="edge2" class="edge">
<title>f630d7b98f4644cbb93e9e85e175852f&#45;&gt;b312230c76fb480fba0b006abac85e3d</title>
<path fill="none" stroke="black" d="M111.5,-152.88C111.5,-142.48 111.5,-126.26 111.5,-112.5"/>
<polygon fill="black" stroke="black" points="115,-112.14 111.5,-102.14 108,-112.14 115,-112.14"/>
</g>
<!-- bdcdf96ae6934922bc6151442bc53a73 -->
<g id="node8" class="node">
<title>bdcdf96ae6934922bc6151442bc53a73</title>
<ellipse fill="lightgrey" stroke="lightgrey" cx="367.5" cy="-16.26" rx="84.71" ry="16.03"/>
<text text-anchor="middle" x="367.5" y="-12.56" font-family="Times,serif" font-size="14.00">GraphicalView</text>
</g>
<!-- 8f6df953096d466e971f36280caec005&#45;&gt;bdcdf96ae6934922bc6151442bc53a73 -->
<g id="edge5" class="edge">
<title>8f6df953096d466e971f36280caec005&#45;&gt;bdcdf96ae6934922bc6151442bc53a73</title>
<path fill="none" stroke="black" d="M316.03,-74.24C324.25,-65.14 336.42,-51.67 346.85,-40.12"/>
<polygon fill="black" stroke="black" points="349.63,-42.27 353.73,-32.5 344.43,-37.58 349.63,-42.27"/>
</g>
<!-- 1fe2e34e3e1e4cef8276a8b466d32edc -->
<g id="node4" class="node">
<title>1fe2e34e3e1e4cef8276a8b466d32edc</title>
<polygon fill="none" stroke="black" points="372,-176.05 241,-176.05 241,-153.05 372,-153.05 372,-176.05"/>
<text text-anchor="middle" x="306.5" y="-160.85" font-family="Times,serif" font-size="14.00">Input &lt;str=&#39;y&#39;&gt;</text>
</g>
<!-- 1fe2e34e3e1e4cef8276a8b466d32edc&#45;&gt;8f6df953096d466e971f36280caec005 -->
<g id="edge4" class="edge">
<title>1fe2e34e3e1e4cef8276a8b466d32edc&#45;&gt;8f6df953096d466e971f36280caec005</title>
<path fill="none" stroke="black" d="M306.5,-152.88C306.5,-141.19 306.5,-122.17 306.5,-107.52"/>
<polygon fill="black" stroke="black" points="310,-107.37 306.5,-97.37 303,-107.37 310,-107.37"/>
<text text-anchor="middle" x="320.5" y="-123.85" font-family="Times,serif" font-size="14.00">dim</text>
</g>
<!-- 7c4bee721f004d4d82b0a2cce69680f9 -->
<g id="node5" class="node">
<title>7c4bee721f004d4d82b0a2cce69680f9</title>
<polygon fill="none" stroke="black" points="523,-176.05 390,-176.05 390,-153.05 523,-153.05 523,-176.05"/>
<text text-anchor="middle" x="456.5" y="-160.85" font-family="Times,serif" font-size="14.00">sum(arg_0, dim)</text>
</g>
<!-- 7c4bee721f004d4d82b0a2cce69680f9&#45;&gt;bdcdf96ae6934922bc6151442bc53a73 -->
<g id="edge9" class="edge">
<title>7c4bee721f004d4d82b0a2cce69680f9&#45;&gt;bdcdf96ae6934922bc6151442bc53a73</title>
<path fill="none" stroke="black" d="M450.1,-153.03C436.02,-129.9 402.07,-74.09 382.36,-41.68"/>
<polygon fill="black" stroke="black" points="385.15,-39.55 376.97,-32.82 379.17,-43.19 385.15,-39.55"/>
</g>
<!-- f074eae806064302b1239ef8341db4b1 -->
<g id="node6" class="node">
<title>f074eae806064302b1239ef8341db4b1</title>
<polygon fill="none" stroke="black" points="377,-250.05 220,-250.05 220,-227.05 377,-227.05 377,-250.05"/>
<text text-anchor="middle" x="298.5" y="-234.85" font-family="Times,serif" font-size="14.00">Input &lt;DataArray&gt;</text>
</g>
<!-- f074eae806064302b1239ef8341db4b1&#45;&gt;f630d7b98f4644cbb93e9e85e175852f -->
<g id="edge7" class="edge">
<title>f074eae806064302b1239ef8341db4b1&#45;&gt;f630d7b98f4644cbb93e9e85e175852f</title>
<path fill="none" stroke="black" d="M270.91,-226.93C238.5,-214.45 184.59,-193.7 148.56,-179.82"/>
<polygon fill="black" stroke="black" points="149.49,-176.43 138.9,-176.1 146.98,-182.96 149.49,-176.43"/>
<text text-anchor="middle" x="241.5" y="-197.85" font-family="Times,serif" font-size="14.00">arg_0</text>
</g>
<!-- f074eae806064302b1239ef8341db4b1&#45;&gt;7c4bee721f004d4d82b0a2cce69680f9 -->
<g id="edge6" class="edge">
<title>f074eae806064302b1239ef8341db4b1&#45;&gt;7c4bee721f004d4d82b0a2cce69680f9</title>
<path fill="none" stroke="black" d="M321.81,-226.93C348.85,-214.61 393.58,-194.23 424.01,-180.36"/>
<polygon fill="black" stroke="black" points="425.7,-183.44 433.35,-176.1 422.8,-177.07 425.7,-183.44"/>
<text text-anchor="middle" x="411.5" y="-197.85" font-family="Times,serif" font-size="14.00">arg_0</text>
</g>
<!-- 247f5ab37b0c420eb37b8772bcbb44ab -->
<g id="node7" class="node">
<title>247f5ab37b0c420eb37b8772bcbb44ab</title>
<polygon fill="none" stroke="black" points="526,-250.05 395,-250.05 395,-227.05 526,-227.05 526,-250.05"/>
<text text-anchor="middle" x="460.5" y="-234.85" font-family="Times,serif" font-size="14.00">Input &lt;str=&#39;y&#39;&gt;</text>
</g>
<!-- 247f5ab37b0c420eb37b8772bcbb44ab&#45;&gt;7c4bee721f004d4d82b0a2cce69680f9 -->
<g id="edge8" class="edge">
<title>247f5ab37b0c420eb37b8772bcbb44ab&#45;&gt;7c4bee721f004d4d82b0a2cce69680f9</title>
<path fill="none" stroke="black" d="M459.91,-226.93C459.32,-216.29 458.39,-199.65 457.66,-186.37"/>
<polygon fill="black" stroke="black" points="461.14,-186.01 457.09,-176.22 454.15,-186.4 461.14,-186.01"/>
<text text-anchor="middle" x="472.5" y="-197.85" font-family="Times,serif" font-size="14.00">dim</text>
</g>
</g>
</svg>
