<?xml version="1.0" encoding="UTF-8" standalone="no"?>
<!DOCTYPE svg PUBLIC "-//W3C//DTD SVG 1.1//EN"
 "http://www.w3.org/Graphics/SVG/1.1/DTD/svg11.dtd">
<!-- Generated by graphviz version 2.43.0 (0)
 -->
<!-- Title: %3 Pages: 1 -->
<svg width="308pt" height="175pt"
 viewBox="0.00 0.00 307.50 174.53" xmlns="http://www.w3.org/2000/svg" xmlns:xlink="http://www.w3.org/1999/xlink">
<g id="graph0" class="graph" transform="scale(1 1) rotate(0) translate(4 170.53)">
<title>%3</title>
<polygon fill="white" stroke="transparent" points="-4,4 -4,-170.53 303.5,-170.53 303.5,4 -4,4"/>
<!-- c64a25c748474c8d8d6131f0be8634bf -->
<g id="node1" class="node">
<title>c64a25c748474c8d8d6131f0be8634bf</title>
<polygon fill="none" stroke="black" points="157,-166.53 0,-166.53 0,-143.53 157,-143.53 157,-166.53"/>
<text text-anchor="middle" x="78.5" y="-151.33" font-family="Times,serif" font-size="14.00">Input &lt;DataArray&gt;</text>
</g>
<!-- 1edbb896d4ad44bc807e1eb6f2bcff93 -->
<g id="node2" class="node">
<title>1edbb896d4ad44bc807e1eb6f2bcff93</title>
<polygon fill="none" stroke="black" points="269,-92.53 46,-92.53 46,-69.53 269,-69.53 269,-92.53"/>
<text text-anchor="middle" x="157.5" y="-77.33" font-family="Times,serif" font-size="14.00">gaussian_filter(arg_0, sigma)</text>
</g>
<!-- c64a25c748474c8d8d6131f0be8634bf&#45;&gt;1edbb896d4ad44bc807e1eb6f2bcff93 -->
<g id="edge1" class="edge">
<title>c64a25c748474c8d8d6131f0be8634bf&#45;&gt;1edbb896d4ad44bc807e1eb6f2bcff93</title>
<path fill="none" stroke="black" d="M90.16,-143.4C102.76,-131.92 123.06,-113.42 138.08,-99.73"/>
<polygon fill="black" stroke="black" points="140.76,-102.02 145.8,-92.69 136.05,-96.84 140.76,-102.02"/>
<text text-anchor="middle" x="145.5" y="-114.33" font-family="Times,serif" font-size="14.00">arg_0</text>
</g>
<!-- 2150d57a349649bba40c547ce3c5183f -->
<g id="node4" class="node">
<title>2150d57a349649bba40c547ce3c5183f</title>
<ellipse fill="lightgrey" stroke="lightgrey" cx="157.5" cy="-16.26" rx="84.71" ry="16.03"/>
<text text-anchor="middle" x="157.5" y="-12.56" font-family="Times,serif" font-size="14.00">GraphicalView</text>
</g>
<!-- 1edbb896d4ad44bc807e1eb6f2bcff93&#45;&gt;2150d57a349649bba40c547ce3c5183f -->
<g id="edge3" class="edge">
<title>1edbb896d4ad44bc807e1eb6f2bcff93&#45;&gt;2150d57a349649bba40c547ce3c5183f</title>
<path fill="none" stroke="black" d="M157.5,-69.38C157.5,-62.06 157.5,-52.02 157.5,-42.7"/>
<polygon fill="black" stroke="black" points="161,-42.68 157.5,-32.68 154,-42.68 161,-42.68"/>
</g>
<!-- 82df9d92a3784db4acfe91dd9c6ba3af -->
<g id="node3" class="node">
<title>82df9d92a3784db4acfe91dd9c6ba3af</title>
<polygon fill="none" stroke="black" points="299.5,-166.53 175.5,-166.53 175.5,-143.53 299.5,-143.53 299.5,-166.53"/>
<text text-anchor="middle" x="237.5" y="-151.33" font-family="Times,serif" font-size="14.00">Input &lt;int=5&gt;</text>
</g>
<!-- 82df9d92a3784db4acfe91dd9c6ba3af&#45;&gt;1edbb896d4ad44bc807e1eb6f2bcff93 -->
<g id="edge2" class="edge">
<title>82df9d92a3784db4acfe91dd9c6ba3af&#45;&gt;1edbb896d4ad44bc807e1eb6f2bcff93</title>
<path fill="none" stroke="black" d="M225.7,-143.4C212.93,-131.92 192.38,-113.42 177.17,-99.73"/>
<polygon fill="black" stroke="black" points="179.13,-96.78 169.35,-92.69 174.44,-101.99 179.13,-96.78"/>
<text text-anchor="middle" x="226" y="-114.33" font-family="Times,serif" font-size="14.00">sigma</text>
</g>
</g>
</svg>
