<?xml version="1.0" encoding="UTF-8" standalone="no"?>
<!DOCTYPE svg PUBLIC "-//W3C//DTD SVG 1.1//EN"
 "http://www.w3.org/Graphics/SVG/1.1/DTD/svg11.dtd">
<!-- Generated by graphviz version 2.43.0 (0)
 -->
<!-- Title: %3 Pages: 1 -->
<svg width="653pt" height="323pt"
 viewBox="0.00 0.00 653.00 322.53" xmlns="http://www.w3.org/2000/svg" xmlns:xlink="http://www.w3.org/1999/xlink">
<g id="graph0" class="graph" transform="scale(1 1) rotate(0) translate(4 318.53)">
<title>%3</title>
<polygon fill="white" stroke="transparent" points="-4,4 -4,-318.53 649,-318.53 649,4 -4,4"/>
<!-- 2020bfa81ff941f982b311d92d2b16cb -->
<g id="node1" class="node">
<title>2020bfa81ff941f982b311d92d2b16cb</title>
<polygon fill="none" stroke="black" points="157,-314.53 0,-314.53 0,-291.53 157,-291.53 157,-314.53"/>
<text text-anchor="middle" x="78.5" y="-299.33" font-family="Times,serif" font-size="14.00">Input &lt;DataArray&gt;</text>
</g>
<!-- 320ef4070db142fd91e6d809f16bc89f -->
<g id="node2" class="node">
<title>320ef4070db142fd91e6d809f16bc89f</title>
<polygon fill="none" stroke="black" points="285,-240.53 62,-240.53 62,-217.53 285,-217.53 285,-240.53"/>
<text text-anchor="middle" x="173.5" y="-225.33" font-family="Times,serif" font-size="14.00">gaussian_filter(arg_0, sigma)</text>
</g>
<!-- 2020bfa81ff941f982b311d92d2b16cb&#45;&gt;320ef4070db142fd91e6d809f16bc89f -->
<g id="edge1" class="edge">
<title>2020bfa81ff941f982b311d92d2b16cb&#45;&gt;320ef4070db142fd91e6d809f16bc89f</title>
<path fill="none" stroke="black" d="M92.52,-291.4C107.95,-279.7 132.99,-260.73 151.14,-246.97"/>
<polygon fill="black" stroke="black" points="153.57,-249.52 159.42,-240.69 149.34,-243.95 153.57,-249.52"/>
<text text-anchor="middle" x="155.5" y="-262.33" font-family="Times,serif" font-size="14.00">arg_0</text>
</g>
<!-- 814168a15a224a51a5961e547ee97ff9 -->
<g id="node3" class="node">
<title>814168a15a224a51a5961e547ee97ff9</title>
<polygon fill="none" stroke="black" points="368,-166.53 273,-166.53 273,-143.53 368,-143.53 368,-166.53"/>
<text text-anchor="middle" x="320.5" y="-151.33" font-family="Times,serif" font-size="14.00">preprocess</text>
</g>
<!-- 320ef4070db142fd91e6d809f16bc89f&#45;&gt;814168a15a224a51a5961e547ee97ff9 -->
<g id="edge2" class="edge">
<title>320ef4070db142fd91e6d809f16bc89f&#45;&gt;814168a15a224a51a5961e547ee97ff9</title>
<path fill="none" stroke="black" d="M195.19,-217.4C220.16,-205.17 261.36,-184.99 289.66,-171.13"/>
<polygon fill="black" stroke="black" points="291.28,-174.24 298.72,-166.69 288.2,-167.95 291.28,-174.24"/>
<text text-anchor="middle" x="279.5" y="-188.33" font-family="Times,serif" font-size="14.00">arg_0</text>
</g>
<!-- e5a832dbc86c4a9484522b27828b8b36 -->
<g id="node4" class="node">
<title>e5a832dbc86c4a9484522b27828b8b36</title>
<polygon fill="none" stroke="black" points="512,-92.53 323,-92.53 323,-69.53 512,-69.53 512,-92.53"/>
<text text-anchor="middle" x="417.5" y="-77.33" font-family="Times,serif" font-size="14.00">slice_dims(arg_0, arg_1)</text>
</g>
<!-- 814168a15a224a51a5961e547ee97ff9&#45;&gt;e5a832dbc86c4a9484522b27828b8b36 -->
<g id="edge3" class="edge">
<title>814168a15a224a51a5961e547ee97ff9&#45;&gt;e5a832dbc86c4a9484522b27828b8b36</title>
<path fill="none" stroke="black" d="M334.81,-143.4C350.64,-131.65 376.37,-112.56 394.92,-98.79"/>
<polygon fill="black" stroke="black" points="397.18,-101.46 403.13,-92.69 393.01,-95.84 397.18,-101.46"/>
<text text-anchor="middle" x="397.5" y="-114.33" font-family="Times,serif" font-size="14.00">arg_0</text>
</g>
<!-- bc0e4367334f4cb485019e5ff4412d49 -->
<g id="node8" class="node">
<title>bc0e4367334f4cb485019e5ff4412d49</title>
<ellipse fill="lightgrey" stroke="lightgrey" cx="417.5" cy="-16.26" rx="84.71" ry="16.03"/>
<text text-anchor="middle" x="417.5" y="-12.56" font-family="Times,serif" font-size="14.00">GraphicalView</text>
</g>
<!-- e5a832dbc86c4a9484522b27828b8b36&#45;&gt;bc0e4367334f4cb485019e5ff4412d49 -->
<g id="edge5" class="edge">
<title>e5a832dbc86c4a9484522b27828b8b36&#45;&gt;bc0e4367334f4cb485019e5ff4412d49</title>
<path fill="none" stroke="black" d="M417.5,-69.38C417.5,-62.06 417.5,-52.02 417.5,-42.7"/>
<polygon fill="black" stroke="black" points="421,-42.68 417.5,-32.68 414,-42.68 421,-42.68"/>
</g>
<!-- 410d902f3bcd4b9ea3e989c96160251c -->
<g id="node5" class="node">
<title>410d902f3bcd4b9ea3e989c96160251c</title>
<polygon fill="none" stroke="black" points="645,-166.53 386,-166.53 386,-143.53 645,-143.53 645,-166.53"/>
<text text-anchor="middle" x="515.5" y="-151.33" font-family="Times,serif" font-size="14.00">Widget &lt;_BaseSliceWidget: dict&gt;</text>
</g>
<!-- 410d902f3bcd4b9ea3e989c96160251c&#45;&gt;e5a832dbc86c4a9484522b27828b8b36 -->
<g id="edge4" class="edge">
<title>410d902f3bcd4b9ea3e989c96160251c&#45;&gt;e5a832dbc86c4a9484522b27828b8b36</title>
<path fill="none" stroke="black" d="M501.04,-143.4C485.04,-131.65 459.06,-112.56 440.31,-98.79"/>
<polygon fill="black" stroke="black" points="442.15,-95.79 432.02,-92.69 438.01,-101.44 442.15,-95.79"/>
<text text-anchor="middle" x="494.5" y="-114.33" font-family="Times,serif" font-size="14.00">arg_1</text>
</g>
<!-- 0b69488b564e4581a0b7e8b598024bd8 -->
<g id="node6" class="node">
<title>0b69488b564e4581a0b7e8b598024bd8</title>
<polygon fill="none" stroke="black" points="632,-240.53 303,-240.53 303,-217.53 632,-217.53 632,-240.53"/>
<text text-anchor="middle" x="467.5" y="-225.33" font-family="Times,serif" font-size="14.00">Input &lt;str=&#39;gaussian_filter(arg_0, sigma)&#39;&gt;</text>
</g>
<!-- 0b69488b564e4581a0b7e8b598024bd8&#45;&gt;814168a15a224a51a5961e547ee97ff9 -->
<g id="edge6" class="edge">
<title>0b69488b564e4581a0b7e8b598024bd8&#45;&gt;814168a15a224a51a5961e547ee97ff9</title>
<path fill="none" stroke="black" d="M445.81,-217.4C420.84,-205.17 379.64,-184.99 351.34,-171.13"/>
<polygon fill="black" stroke="black" points="352.8,-167.95 342.28,-166.69 349.72,-174.24 352.8,-167.95"/>
<text text-anchor="middle" x="426.5" y="-188.33" font-family="Times,serif" font-size="14.00">name</text>
</g>
<!-- b2d3b824a0e2499d8fd60c8b4b3558bc -->
<g id="node7" class="node">
<title>b2d3b824a0e2499d8fd60c8b4b3558bc</title>
<polygon fill="none" stroke="black" points="363.5,-314.53 175.5,-314.53 175.5,-291.53 363.5,-291.53 363.5,-314.53"/>
<text text-anchor="middle" x="269.5" y="-299.33" font-family="Times,serif" font-size="14.00">Widget &lt;IntSlider: int&gt;</text>
</g>
<!-- b2d3b824a0e2499d8fd60c8b4b3558bc&#45;&gt;320ef4070db142fd91e6d809f16bc89f -->
<g id="edge7" class="edge">
<title>b2d3b824a0e2499d8fd60c8b4b3558bc&#45;&gt;320ef4070db142fd91e6d809f16bc89f</title>
<path fill="none" stroke="black" d="M255.33,-291.4C239.74,-279.7 214.44,-260.73 196.1,-246.97"/>
<polygon fill="black" stroke="black" points="197.82,-243.89 187.72,-240.69 193.62,-249.49 197.82,-243.89"/>
<text text-anchor="middle" x="251" y="-262.33" font-family="Times,serif" font-size="14.00">sigma</text>
</g>
</g>
</svg>
