<?xml version="1.0" encoding="UTF-8" standalone="no"?>
<!DOCTYPE svg PUBLIC "-//W3C//DTD SVG 1.1//EN"
 "http://www.w3.org/Graphics/SVG/1.1/DTD/svg11.dtd">
<!-- Generated by graphviz version 2.43.0 (0)
 -->
<!-- Title: %3 Pages: 1 -->
<svg width="653pt" height="323pt"
 viewBox="0.00 0.00 653.00 322.53" xmlns="http://www.w3.org/2000/svg" xmlns:xlink="http://www.w3.org/1999/xlink">
<g id="graph0" class="graph" transform="scale(1 1) rotate(0) translate(4 318.53)">
<title>%3</title>
<polygon fill="white" stroke="transparent" points="-4,4 -4,-318.53 649,-318.53 649,4 -4,4"/>
<!-- 5cd8f5911eec4d73af08f5d32e5e2258 -->
<g id="node1" class="node">
<title>5cd8f5911eec4d73af08f5d32e5e2258</title>
<polygon fill="none" stroke="black" points="157,-314.53 0,-314.53 0,-291.53 157,-291.53 157,-314.53"/>
<text text-anchor="middle" x="78.5" y="-299.33" font-family="Times,serif" font-size="14.00">Input &lt;DataArray&gt;</text>
</g>
<!-- a66d65adb3e848ca8cf4592883e6027b -->
<g id="node2" class="node">
<title>a66d65adb3e848ca8cf4592883e6027b</title>
<polygon fill="none" stroke="black" points="285,-240.53 62,-240.53 62,-217.53 285,-217.53 285,-240.53"/>
<text text-anchor="middle" x="173.5" y="-225.33" font-family="Times,serif" font-size="14.00">gaussian_filter(arg_0, sigma)</text>
</g>
<!-- 5cd8f5911eec4d73af08f5d32e5e2258&#45;&gt;a66d65adb3e848ca8cf4592883e6027b -->
<g id="edge1" class="edge">
<title>5cd8f5911eec4d73af08f5d32e5e2258&#45;&gt;a66d65adb3e848ca8cf4592883e6027b</title>
<path fill="none" stroke="black" d="M92.52,-291.4C107.95,-279.7 132.99,-260.73 151.14,-246.97"/>
<polygon fill="black" stroke="black" points="153.57,-249.52 159.42,-240.69 149.34,-243.95 153.57,-249.52"/>
<text text-anchor="middle" x="155.5" y="-262.33" font-family="Times,serif" font-size="14.00">arg_0</text>
</g>
<!-- edf2d777d78a40fab1c1891a0f3721ea -->
<g id="node3" class="node">
<title>edf2d777d78a40fab1c1891a0f3721ea</title>
<polygon fill="none" stroke="black" points="368,-166.53 273,-166.53 273,-143.53 368,-143.53 368,-166.53"/>
<text text-anchor="middle" x="320.5" y="-151.33" font-family="Times,serif" font-size="14.00">preprocess</text>
</g>
<!-- a66d65adb3e848ca8cf4592883e6027b&#45;&gt;edf2d777d78a40fab1c1891a0f3721ea -->
<g id="edge2" class="edge">
<title>a66d65adb3e848ca8cf4592883e6027b&#45;&gt;edf2d777d78a40fab1c1891a0f3721ea</title>
<path fill="none" stroke="black" d="M195.19,-217.4C220.16,-205.17 261.36,-184.99 289.66,-171.13"/>
<polygon fill="black" stroke="black" points="291.28,-174.24 298.72,-166.69 288.2,-167.95 291.28,-174.24"/>
<text text-anchor="middle" x="279.5" y="-188.33" font-family="Times,serif" font-size="14.00">arg_0</text>
</g>
<!-- f82cfe4fe6914bf28a7dc507c09663ad -->
<g id="node4" class="node">
<title>f82cfe4fe6914bf28a7dc507c09663ad</title>
<polygon fill="none" stroke="black" points="512,-92.53 323,-92.53 323,-69.53 512,-69.53 512,-92.53"/>
<text text-anchor="middle" x="417.5" y="-77.33" font-family="Times,serif" font-size="14.00">slice_dims(arg_0, arg_1)</text>
</g>
<!-- edf2d777d78a40fab1c1891a0f3721ea&#45;&gt;f82cfe4fe6914bf28a7dc507c09663ad -->
<g id="edge3" class="edge">
<title>edf2d777d78a40fab1c1891a0f3721ea&#45;&gt;f82cfe4fe6914bf28a7dc507c09663ad</title>
<path fill="none" stroke="black" d="M334.81,-143.4C350.64,-131.65 376.37,-112.56 394.92,-98.79"/>
<polygon fill="black" stroke="black" points="397.18,-101.46 403.13,-92.69 393.01,-95.84 397.18,-101.46"/>
<text text-anchor="middle" x="397.5" y="-114.33" font-family="Times,serif" font-size="14.00">arg_0</text>
</g>
<!-- c27a9bacd4364fc4ad357d2ff42388d0 -->
<g id="node8" class="node">
<title>c27a9bacd4364fc4ad357d2ff42388d0</title>
<ellipse fill="lightgrey" stroke="lightgrey" cx="417.5" cy="-16.26" rx="84.71" ry="16.03"/>
<text text-anchor="middle" x="417.5" y="-12.56" font-family="Times,serif" font-size="14.00">GraphicalView</text>
</g>
<!-- f82cfe4fe6914bf28a7dc507c09663ad&#45;&gt;c27a9bacd4364fc4ad357d2ff42388d0 -->
<g id="edge5" class="edge">
<title>f82cfe4fe6914bf28a7dc507c09663ad&#45;&gt;c27a9bacd4364fc4ad357d2ff42388d0</title>
<path fill="none" stroke="black" d="M417.5,-69.38C417.5,-62.06 417.5,-52.02 417.5,-42.7"/>
<polygon fill="black" stroke="black" points="421,-42.68 417.5,-32.68 414,-42.68 421,-42.68"/>
</g>
<!-- 3ff27be5d3674611ac1e1c6e058af800 -->
<g id="node5" class="node">
<title>3ff27be5d3674611ac1e1c6e058af800</title>
<polygon fill="none" stroke="black" points="645,-166.53 386,-166.53 386,-143.53 645,-143.53 645,-166.53"/>
<text text-anchor="middle" x="515.5" y="-151.33" font-family="Times,serif" font-size="14.00">Widget &lt;_BaseSliceWidget: dict&gt;</text>
</g>
<!-- 3ff27be5d3674611ac1e1c6e058af800&#45;&gt;f82cfe4fe6914bf28a7dc507c09663ad -->
<g id="edge4" class="edge">
<title>3ff27be5d3674611ac1e1c6e058af800&#45;&gt;f82cfe4fe6914bf28a7dc507c09663ad</title>
<path fill="none" stroke="black" d="M501.04,-143.4C485.04,-131.65 459.06,-112.56 440.31,-98.79"/>
<polygon fill="black" stroke="black" points="442.15,-95.79 432.02,-92.69 438.01,-101.44 442.15,-95.79"/>
<text text-anchor="middle" x="494.5" y="-114.33" font-family="Times,serif" font-size="14.00">arg_1</text>
</g>
<!-- c6daa61fdb4345c0bb9f8237c0a31e46 -->
<g id="node6" class="node">
<title>c6daa61fdb4345c0bb9f8237c0a31e46</title>
<polygon fill="none" stroke="black" points="632,-240.53 303,-240.53 303,-217.53 632,-217.53 632,-240.53"/>
<text text-anchor="middle" x="467.5" y="-225.33" font-family="Times,serif" font-size="14.00">Input &lt;str=&#39;gaussian_filter(arg_0, sigma)&#39;&gt;</text>
</g>
<!-- c6daa61fdb4345c0bb9f8237c0a31e46&#45;&gt;edf2d777d78a40fab1c1891a0f3721ea -->
<g id="edge6" class="edge">
<title>c6daa61fdb4345c0bb9f8237c0a31e46&#45;&gt;edf2d777d78a40fab1c1891a0f3721ea</title>
<path fill="none" stroke="black" d="M445.81,-217.4C420.84,-205.17 379.64,-184.99 351.34,-171.13"/>
<polygon fill="black" stroke="black" points="352.8,-167.95 342.28,-166.69 349.72,-174.24 352.8,-167.95"/>
<text text-anchor="middle" x="426.5" y="-188.33" font-family="Times,serif" font-size="14.00">name</text>
</g>
<!-- f1773d4d6cb046599f33fba4f3c03317 -->
<g id="node7" class="node">
<title>f1773d4d6cb046599f33fba4f3c03317</title>
<polygon fill="none" stroke="black" points="363.5,-314.53 175.5,-314.53 175.5,-291.53 363.5,-291.53 363.5,-314.53"/>
<text text-anchor="middle" x="269.5" y="-299.33" font-family="Times,serif" font-size="14.00">Widget &lt;IntSlider: int&gt;</text>
</g>
<!-- f1773d4d6cb046599f33fba4f3c03317&#45;&gt;a66d65adb3e848ca8cf4592883e6027b -->
<g id="edge7" class="edge">
<title>f1773d4d6cb046599f33fba4f3c03317&#45;&gt;a66d65adb3e848ca8cf4592883e6027b</title>
<path fill="none" stroke="black" d="M255.33,-291.4C239.74,-279.7 214.44,-260.73 196.1,-246.97"/>
<polygon fill="black" stroke="black" points="197.82,-243.89 187.72,-240.69 193.62,-249.49 197.82,-243.89"/>
<text text-anchor="middle" x="251" y="-262.33" font-family="Times,serif" font-size="14.00">sigma</text>
</g>
</g>
</svg>
