<?xml version="1.0" encoding="UTF-8" standalone="no"?>
<!DOCTYPE svg PUBLIC "-//W3C//DTD SVG 1.1//EN"
 "http://www.w3.org/Graphics/SVG/1.1/DTD/svg11.dtd">
<!-- Generated by graphviz version 2.43.0 (0)
 -->
<!-- Title: %3 Pages: 1 -->
<svg width="544pt" height="258pt"
 viewBox="0.00 0.00 543.50 258.05" xmlns="http://www.w3.org/2000/svg" xmlns:xlink="http://www.w3.org/1999/xlink">
<g id="graph0" class="graph" transform="scale(1 1) rotate(0) translate(4 254.05)">
<title>%3</title>
<polygon fill="white" stroke="transparent" points="-4,4 -4,-254.05 539.5,-254.05 539.5,4 -4,4"/>
<!-- 826b50c4492440f88bf56bb57be19a8d -->
<g id="node1" class="node">
<title>826b50c4492440f88bf56bb57be19a8d</title>
<polygon fill="none" stroke="black" points="217,-250.05 0,-250.05 0,-227.05 217,-227.05 217,-250.05"/>
<text text-anchor="middle" x="108.5" y="-234.85" font-family="Times,serif" font-size="14.00">Widget &lt;Checkboxes: dict&gt;</text>
</g>
<!-- 2bbc6f57472c4a73868b2c019cb4a730 -->
<g id="node2" class="node">
<title>2bbc6f57472c4a73868b2c019cb4a730</title>
<polygon fill="none" stroke="black" points="329.5,-176.05 91.5,-176.05 91.5,-153.05 329.5,-153.05 329.5,-176.05"/>
<text text-anchor="middle" x="210.5" y="-160.85" font-family="Times,serif" font-size="14.00">hide_masks(data_array, masks)</text>
</g>
<!-- 826b50c4492440f88bf56bb57be19a8d&#45;&gt;2bbc6f57472c4a73868b2c019cb4a730 -->
<g id="edge1" class="edge">
<title>826b50c4492440f88bf56bb57be19a8d&#45;&gt;2bbc6f57472c4a73868b2c019cb4a730</title>
<path fill="none" stroke="black" d="M123.55,-226.93C140.27,-215.13 167.49,-195.91 187.02,-182.13"/>
<polygon fill="black" stroke="black" points="189.24,-184.85 195.39,-176.22 185.2,-179.13 189.24,-184.85"/>
<text text-anchor="middle" x="192.5" y="-197.85" font-family="Times,serif" font-size="14.00">masks</text>
</g>
<!-- d9536080787e420d91bcf92401d8a07d -->
<g id="node3" class="node">
<title>d9536080787e420d91bcf92401d8a07d</title>
<polygon fill="none" stroke="black" points="499.5,-97.29 337.5,-97.29 337.5,-74.29 499.5,-74.29 499.5,-97.29"/>
<text text-anchor="middle" x="418.5" y="-82.09" font-family="Times,serif" font-size="14.00">slice_y(arg_0, index)</text>
</g>
<!-- 2bbc6f57472c4a73868b2c019cb4a730&#45;&gt;d9536080787e420d91bcf92401d8a07d -->
<g id="edge2" class="edge">
<title>2bbc6f57472c4a73868b2c019cb4a730&#45;&gt;d9536080787e420d91bcf92401d8a07d</title>
<path fill="none" stroke="black" d="M238.99,-153.04C275.68,-139.5 339.59,-115.91 380.42,-100.84"/>
<polygon fill="black" stroke="black" points="381.86,-104.04 390.03,-97.3 379.43,-97.48 381.86,-104.04"/>
<text text-anchor="middle" x="346.5" y="-123.85" font-family="Times,serif" font-size="14.00">arg_0</text>
</g>
<!-- dcfdc809e6764d07b33bfe3a33b4062d -->
<g id="node7" class="node">
<title>dcfdc809e6764d07b33bfe3a33b4062d</title>
<ellipse fill="lightgrey" stroke="lightgrey" cx="210.5" cy="-85.79" rx="84.71" ry="16.03"/>
<text text-anchor="middle" x="210.5" y="-82.09" font-family="Times,serif" font-size="14.00">GraphicalView</text>
</g>
<!-- 2bbc6f57472c4a73868b2c019cb4a730&#45;&gt;dcfdc809e6764d07b33bfe3a33b4062d -->
<g id="edge3" class="edge">
<title>2bbc6f57472c4a73868b2c019cb4a730&#45;&gt;dcfdc809e6764d07b33bfe3a33b4062d</title>
<path fill="none" stroke="black" d="M210.5,-152.88C210.5,-142.48 210.5,-126.26 210.5,-112.5"/>
<polygon fill="black" stroke="black" points="214,-112.14 210.5,-102.14 207,-112.14 214,-112.14"/>
</g>
<!-- dd9806d1995d4cdb913f16666de1e3f7 -->
<g id="node6" class="node">
<title>dd9806d1995d4cdb913f16666de1e3f7</title>
<ellipse fill="lightgrey" stroke="lightgrey" cx="418.5" cy="-16.26" rx="84.71" ry="16.03"/>
<text text-anchor="middle" x="418.5" y="-12.56" font-family="Times,serif" font-size="14.00">GraphicalView</text>
</g>
<!-- d9536080787e420d91bcf92401d8a07d&#45;&gt;dd9806d1995d4cdb913f16666de1e3f7 -->
<g id="edge5" class="edge">
<title>d9536080787e420d91bcf92401d8a07d&#45;&gt;dd9806d1995d4cdb913f16666de1e3f7</title>
<path fill="none" stroke="black" d="M418.5,-74.24C418.5,-65.89 418.5,-53.88 418.5,-43.03"/>
<polygon fill="black" stroke="black" points="422,-42.76 418.5,-32.76 415,-42.76 422,-42.76"/>
</g>
<!-- a7281128dc984cdf8886cc010f8dab5b -->
<g id="node4" class="node">
<title>a7281128dc984cdf8886cc010f8dab5b</title>
<polygon fill="none" stroke="black" points="535.5,-176.05 347.5,-176.05 347.5,-153.05 535.5,-153.05 535.5,-176.05"/>
<text text-anchor="middle" x="441.5" y="-160.85" font-family="Times,serif" font-size="14.00">Widget &lt;IntSlider: int&gt;</text>
</g>
<!-- a7281128dc984cdf8886cc010f8dab5b&#45;&gt;d9536080787e420d91bcf92401d8a07d -->
<g id="edge4" class="edge">
<title>a7281128dc984cdf8886cc010f8dab5b&#45;&gt;d9536080787e420d91bcf92401d8a07d</title>
<path fill="none" stroke="black" d="M438.3,-152.88C434.77,-141.08 428.99,-121.79 424.58,-107.09"/>
<polygon fill="black" stroke="black" points="427.89,-105.95 421.67,-97.37 421.19,-107.96 427.89,-105.95"/>
<text text-anchor="middle" x="452.5" y="-123.85" font-family="Times,serif" font-size="14.00">index</text>
</g>
<!-- 26964853652c488daba293c345bd9379 -->
<g id="node5" class="node">
<title>26964853652c488daba293c345bd9379</title>
<polygon fill="none" stroke="black" points="392,-250.05 235,-250.05 235,-227.05 392,-227.05 392,-250.05"/>
<text text-anchor="middle" x="313.5" y="-234.85" font-family="Times,serif" font-size="14.00">Input &lt;DataArray&gt;</text>
</g>
<!-- 26964853652c488daba293c345bd9379&#45;&gt;2bbc6f57472c4a73868b2c019cb4a730 -->
<g id="edge6" class="edge">
<title>26964853652c488daba293c345bd9379&#45;&gt;2bbc6f57472c4a73868b2c019cb4a730</title>
<path fill="none" stroke="black" d="M298.3,-226.93C281.41,-215.13 253.93,-195.91 234.21,-182.13"/>
<polygon fill="black" stroke="black" points="235.96,-179.08 225.76,-176.22 231.95,-184.82 235.96,-179.08"/>
<text text-anchor="middle" x="309" y="-197.85" font-family="Times,serif" font-size="14.00">data_array</text>
</g>
</g>
</svg>
