<?xml version="1.0" encoding="UTF-8" standalone="no"?>
<!DOCTYPE svg PUBLIC "-//W3C//DTD SVG 1.1//EN"
 "http://www.w3.org/Graphics/SVG/1.1/DTD/svg11.dtd">
<!-- Generated by graphviz version 2.43.0 (0)
 -->
<!-- Title: %3 Pages: 1 -->
<svg width="372pt" height="175pt"
 viewBox="0.00 0.00 371.50 174.53" xmlns="http://www.w3.org/2000/svg" xmlns:xlink="http://www.w3.org/1999/xlink">
<g id="graph0" class="graph" transform="scale(1 1) rotate(0) translate(4 170.53)">
<title>%3</title>
<polygon fill="white" stroke="transparent" points="-4,4 -4,-170.53 367.5,-170.53 367.5,4 -4,4"/>
<!-- a2acc51f66d545cbab3ad38093766222 -->
<g id="node1" class="node">
<title>a2acc51f66d545cbab3ad38093766222</title>
<polygon fill="none" stroke="black" points="285,-92.53 62,-92.53 62,-69.53 285,-69.53 285,-92.53"/>
<text text-anchor="middle" x="173.5" y="-77.33" font-family="Times,serif" font-size="14.00">gaussian_filter(arg_0, sigma)</text>
</g>
<!-- b6b74aeb7e38454ab7e00810553756b3 -->
<g id="node4" class="node">
<title>b6b74aeb7e38454ab7e00810553756b3</title>
<ellipse fill="lightgrey" stroke="lightgrey" cx="173.5" cy="-16.26" rx="84.71" ry="16.03"/>
<text text-anchor="middle" x="173.5" y="-12.56" font-family="Times,serif" font-size="14.00">GraphicalView</text>
</g>
<!-- a2acc51f66d545cbab3ad38093766222&#45;&gt;b6b74aeb7e38454ab7e00810553756b3 -->
<g id="edge3" class="edge">
<title>a2acc51f66d545cbab3ad38093766222&#45;&gt;b6b74aeb7e38454ab7e00810553756b3</title>
<path fill="none" stroke="black" d="M173.5,-69.38C173.5,-62.06 173.5,-52.02 173.5,-42.7"/>
<polygon fill="black" stroke="black" points="177,-42.68 173.5,-32.68 170,-42.68 177,-42.68"/>
</g>
<!-- e5db11179bae45a0a5ff6f4102c808bf -->
<g id="node2" class="node">
<title>e5db11179bae45a0a5ff6f4102c808bf</title>
<polygon fill="none" stroke="black" points="157,-166.53 0,-166.53 0,-143.53 157,-143.53 157,-166.53"/>
<text text-anchor="middle" x="78.5" y="-151.33" font-family="Times,serif" font-size="14.00">Input &lt;DataArray&gt;</text>
</g>
<!-- e5db11179bae45a0a5ff6f4102c808bf&#45;&gt;a2acc51f66d545cbab3ad38093766222 -->
<g id="edge1" class="edge">
<title>e5db11179bae45a0a5ff6f4102c808bf&#45;&gt;a2acc51f66d545cbab3ad38093766222</title>
<path fill="none" stroke="black" d="M92.52,-143.4C107.95,-131.7 132.99,-112.73 151.14,-98.97"/>
<polygon fill="black" stroke="black" points="153.57,-101.52 159.42,-92.69 149.34,-95.95 153.57,-101.52"/>
<text text-anchor="middle" x="155.5" y="-114.33" font-family="Times,serif" font-size="14.00">arg_0</text>
</g>
<!-- ef5390c7cc5f42f493d3edfabe502a66 -->
<g id="node3" class="node">
<title>ef5390c7cc5f42f493d3edfabe502a66</title>
<polygon fill="none" stroke="black" points="363.5,-166.53 175.5,-166.53 175.5,-143.53 363.5,-143.53 363.5,-166.53"/>
<text text-anchor="middle" x="269.5" y="-151.33" font-family="Times,serif" font-size="14.00">Widget &lt;IntSlider: int&gt;</text>
</g>
<!-- ef5390c7cc5f42f493d3edfabe502a66&#45;&gt;a2acc51f66d545cbab3ad38093766222 -->
<g id="edge2" class="edge">
<title>ef5390c7cc5f42f493d3edfabe502a66&#45;&gt;a2acc51f66d545cbab3ad38093766222</title>
<path fill="none" stroke="black" d="M255.33,-143.4C239.74,-131.7 214.44,-112.73 196.1,-98.97"/>
<polygon fill="black" stroke="black" points="197.82,-95.89 187.72,-92.69 193.62,-101.49 197.82,-95.89"/>
<text text-anchor="middle" x="251" y="-114.33" font-family="Times,serif" font-size="14.00">sigma</text>
</g>
</g>
</svg>
