<?xml version="1.0" encoding="UTF-8" standalone="no"?>
<!DOCTYPE svg PUBLIC "-//W3C//DTD SVG 1.1//EN"
 "http://www.w3.org/Graphics/SVG/1.1/DTD/svg11.dtd">
<!-- Generated by graphviz version 2.43.0 (0)
 -->
<!-- Title: %3 Pages: 1 -->
<svg width="611pt" height="323pt"
 viewBox="0.00 0.00 611.00 322.53" xmlns="http://www.w3.org/2000/svg" xmlns:xlink="http://www.w3.org/1999/xlink">
<g id="graph0" class="graph" transform="scale(1 1) rotate(0) translate(4 318.53)">
<title>%3</title>
<polygon fill="white" stroke="transparent" points="-4,4 -4,-318.53 607,-318.53 607,4 -4,4"/>
<!-- de1f236be8f14db786ca39566150907f -->
<g id="node1" class="node">
<title>de1f236be8f14db786ca39566150907f</title>
<polygon fill="none" stroke="black" points="157,-314.53 0,-314.53 0,-291.53 157,-291.53 157,-314.53"/>
<text text-anchor="middle" x="78.5" y="-299.33" font-family="Times,serif" font-size="14.00">Input &lt;DataArray&gt;</text>
</g>
<!-- d706d245506547659e6969fffa460fea -->
<g id="node2" class="node">
<title>d706d245506547659e6969fffa460fea</title>
<polygon fill="none" stroke="black" points="285,-240.53 62,-240.53 62,-217.53 285,-217.53 285,-240.53"/>
<text text-anchor="middle" x="173.5" y="-225.33" font-family="Times,serif" font-size="14.00">gaussian_filter(arg_0, sigma)</text>
</g>
<!-- de1f236be8f14db786ca39566150907f&#45;&gt;d706d245506547659e6969fffa460fea -->
<g id="edge1" class="edge">
<title>de1f236be8f14db786ca39566150907f&#45;&gt;d706d245506547659e6969fffa460fea</title>
<path fill="none" stroke="black" d="M92.52,-291.4C107.95,-279.7 132.99,-260.73 151.14,-246.97"/>
<polygon fill="black" stroke="black" points="153.57,-249.52 159.42,-240.69 149.34,-243.95 153.57,-249.52"/>
<text text-anchor="middle" x="155.5" y="-262.33" font-family="Times,serif" font-size="14.00">arg_0</text>
</g>
<!-- 0984269f3a4c4d448be8135d66eb6aab -->
<g id="node3" class="node">
<title>0984269f3a4c4d448be8135d66eb6aab</title>
<polygon fill="none" stroke="black" points="326,-166.53 231,-166.53 231,-143.53 326,-143.53 326,-166.53"/>
<text text-anchor="middle" x="278.5" y="-151.33" font-family="Times,serif" font-size="14.00">preprocess</text>
</g>
<!-- d706d245506547659e6969fffa460fea&#45;&gt;0984269f3a4c4d448be8135d66eb6aab -->
<g id="edge2" class="edge">
<title>d706d245506547659e6969fffa460fea&#45;&gt;0984269f3a4c4d448be8135d66eb6aab</title>
<path fill="none" stroke="black" d="M188.99,-217.4C206.29,-205.55 234.48,-186.21 254.6,-172.41"/>
<polygon fill="black" stroke="black" points="256.68,-175.24 262.94,-166.69 252.72,-169.46 256.68,-175.24"/>
<text text-anchor="middle" x="254.5" y="-188.33" font-family="Times,serif" font-size="14.00">arg_0</text>
</g>
<!-- 6225fc6b68954af096e83fdfc10666d3 -->
<g id="node4" class="node">
<title>6225fc6b68954af096e83fdfc10666d3</title>
<polygon fill="none" stroke="black" points="470,-92.53 281,-92.53 281,-69.53 470,-69.53 470,-92.53"/>
<text text-anchor="middle" x="375.5" y="-77.33" font-family="Times,serif" font-size="14.00">slice_dims(arg_0, arg_1)</text>
</g>
<!-- 0984269f3a4c4d448be8135d66eb6aab&#45;&gt;6225fc6b68954af096e83fdfc10666d3 -->
<g id="edge3" class="edge">
<title>0984269f3a4c4d448be8135d66eb6aab&#45;&gt;6225fc6b68954af096e83fdfc10666d3</title>
<path fill="none" stroke="black" d="M292.81,-143.4C308.64,-131.65 334.37,-112.56 352.92,-98.79"/>
<polygon fill="black" stroke="black" points="355.18,-101.46 361.13,-92.69 351.01,-95.84 355.18,-101.46"/>
<text text-anchor="middle" x="355.5" y="-114.33" font-family="Times,serif" font-size="14.00">arg_0</text>
</g>
<!-- b03542c22a3947a0a7a5107a0826ee34 -->
<g id="node8" class="node">
<title>b03542c22a3947a0a7a5107a0826ee34</title>
<ellipse fill="lightgrey" stroke="lightgrey" cx="375.5" cy="-16.26" rx="84.71" ry="16.03"/>
<text text-anchor="middle" x="375.5" y="-12.56" font-family="Times,serif" font-size="14.00">GraphicalView</text>
</g>
<!-- 6225fc6b68954af096e83fdfc10666d3&#45;&gt;b03542c22a3947a0a7a5107a0826ee34 -->
<g id="edge5" class="edge">
<title>6225fc6b68954af096e83fdfc10666d3&#45;&gt;b03542c22a3947a0a7a5107a0826ee34</title>
<path fill="none" stroke="black" d="M375.5,-69.38C375.5,-62.06 375.5,-52.02 375.5,-42.7"/>
<polygon fill="black" stroke="black" points="379,-42.68 375.5,-32.68 372,-42.68 379,-42.68"/>
</g>
<!-- c768bebe579c49748f39bc9836b04aa7 -->
<g id="node5" class="node">
<title>c768bebe579c49748f39bc9836b04aa7</title>
<polygon fill="none" stroke="black" points="603,-166.53 344,-166.53 344,-143.53 603,-143.53 603,-166.53"/>
<text text-anchor="middle" x="473.5" y="-151.33" font-family="Times,serif" font-size="14.00">Widget &lt;_BaseSliceWidget: dict&gt;</text>
</g>
<!-- c768bebe579c49748f39bc9836b04aa7&#45;&gt;6225fc6b68954af096e83fdfc10666d3 -->
<g id="edge4" class="edge">
<title>c768bebe579c49748f39bc9836b04aa7&#45;&gt;6225fc6b68954af096e83fdfc10666d3</title>
<path fill="none" stroke="black" d="M459.04,-143.4C443.04,-131.65 417.06,-112.56 398.31,-98.79"/>
<polygon fill="black" stroke="black" points="400.15,-95.79 390.02,-92.69 396.01,-101.44 400.15,-95.79"/>
<text text-anchor="middle" x="452.5" y="-114.33" font-family="Times,serif" font-size="14.00">arg_1</text>
</g>
<!-- 1441a82d6b774da9b30a8b993c1d6896 -->
<g id="node6" class="node">
<title>1441a82d6b774da9b30a8b993c1d6896</title>
<polygon fill="none" stroke="black" points="464,-240.53 303,-240.53 303,-217.53 464,-217.53 464,-240.53"/>
<text text-anchor="middle" x="383.5" y="-225.33" font-family="Times,serif" font-size="14.00">Input &lt;str=&#39;None&#39;&gt;</text>
</g>
<!-- 1441a82d6b774da9b30a8b993c1d6896&#45;&gt;0984269f3a4c4d448be8135d66eb6aab -->
<g id="edge6" class="edge">
<title>1441a82d6b774da9b30a8b993c1d6896&#45;&gt;0984269f3a4c4d448be8135d66eb6aab</title>
<path fill="none" stroke="black" d="M368.01,-217.4C350.71,-205.55 322.52,-186.21 302.4,-172.41"/>
<polygon fill="black" stroke="black" points="304.28,-169.46 294.06,-166.69 300.32,-175.24 304.28,-169.46"/>
<text text-anchor="middle" x="359.5" y="-188.33" font-family="Times,serif" font-size="14.00">name</text>
</g>
<!-- 0e3a7175e5ee454c8b73fbd881db096c -->
<g id="node7" class="node">
<title>0e3a7175e5ee454c8b73fbd881db096c</title>
<polygon fill="none" stroke="black" points="363.5,-314.53 175.5,-314.53 175.5,-291.53 363.5,-291.53 363.5,-314.53"/>
<text text-anchor="middle" x="269.5" y="-299.33" font-family="Times,serif" font-size="14.00">Widget &lt;IntSlider: int&gt;</text>
</g>
<!-- 0e3a7175e5ee454c8b73fbd881db096c&#45;&gt;d706d245506547659e6969fffa460fea -->
<g id="edge7" class="edge">
<title>0e3a7175e5ee454c8b73fbd881db096c&#45;&gt;d706d245506547659e6969fffa460fea</title>
<path fill="none" stroke="black" d="M255.33,-291.4C239.74,-279.7 214.44,-260.73 196.1,-246.97"/>
<polygon fill="black" stroke="black" points="197.82,-243.89 187.72,-240.69 193.62,-249.49 197.82,-243.89"/>
<text text-anchor="middle" x="251" y="-262.33" font-family="Times,serif" font-size="14.00">sigma</text>
</g>
</g>
</svg>
