<?xml version="1.0" encoding="UTF-8" standalone="no"?>
<!DOCTYPE svg PUBLIC "-//W3C//DTD SVG 1.1//EN"
 "http://www.w3.org/Graphics/SVG/1.1/DTD/svg11.dtd">
<!-- Generated by graphviz version 2.43.0 (0)
 -->
<!-- Title: %3 Pages: 1 -->
<svg width="379pt" height="227pt"
 viewBox="0.00 0.00 379.00 227.05" xmlns="http://www.w3.org/2000/svg" xmlns:xlink="http://www.w3.org/1999/xlink">
<g id="graph0" class="graph" transform="scale(1 1) rotate(0) translate(4 223.05)">
<title>%3</title>
<polygon fill="white" stroke="transparent" points="-4,4 -4,-223.05 375,-223.05 375,4 -4,4"/>
<!-- 322d977d&#45;8dc4&#45;11ed&#45;83f8&#45;55990384cbba -->
<g id="node1" class="node">
<title>322d977d&#45;8dc4&#45;11ed&#45;83f8&#45;55990384cbba</title>
<polygon fill="none" stroke="black" points="203.5,-219.05 109.5,-219.05 109.5,-196.05 203.5,-196.05 203.5,-219.05"/>
<text text-anchor="middle" x="156.5" y="-203.85" font-family="Times,serif" font-size="14.00">Input node</text>
</g>
<!-- 322d977f&#45;8dc4&#45;11ed&#45;83f8&#45;55990384cbba -->
<g id="node2" class="node">
<title>322d977f&#45;8dc4&#45;11ed&#45;83f8&#45;55990384cbba</title>
<polygon fill="none" stroke="black" points="297,-160.05 156,-160.05 156,-137.05 297,-137.05 297,-160.05"/>
<text text-anchor="middle" x="226.5" y="-144.85" font-family="Times,serif" font-size="14.00">Hide/show masks</text>
</g>
<!-- 322d977d&#45;8dc4&#45;11ed&#45;83f8&#45;55990384cbba&#45;&gt;322d977f&#45;8dc4&#45;11ed&#45;83f8&#45;55990384cbba -->
<g id="edge1" class="edge">
<title>322d977d&#45;8dc4&#45;11ed&#45;83f8&#45;55990384cbba&#45;&gt;322d977f&#45;8dc4&#45;11ed&#45;83f8&#45;55990384cbba</title>
<path fill="none" stroke="black" d="M169.67,-195.83C179.74,-187.63 193.82,-176.16 205.45,-166.69"/>
<polygon fill="black" stroke="black" points="207.85,-169.26 213.39,-160.23 203.43,-163.83 207.85,-169.26"/>
</g>
<!-- 322d9781&#45;8dc4&#45;11ed&#45;83f8&#45;55990384cbba -->
<g id="node3" class="node">
<title>322d9781&#45;8dc4&#45;11ed&#45;83f8&#45;55990384cbba</title>
<polygon fill="none" stroke="black" points="159,-96.29 0,-96.29 0,-73.29 159,-73.29 159,-96.29"/>
<text text-anchor="middle" x="79.5" y="-81.09" font-family="Times,serif" font-size="14.00">Slice horizontal row</text>
</g>
<!-- 322d977f&#45;8dc4&#45;11ed&#45;83f8&#45;55990384cbba&#45;&gt;322d9781&#45;8dc4&#45;11ed&#45;83f8&#45;55990384cbba -->
<g id="edge2" class="edge">
<title>322d977f&#45;8dc4&#45;11ed&#45;83f8&#45;55990384cbba&#45;&gt;322d9781&#45;8dc4&#45;11ed&#45;83f8&#45;55990384cbba</title>
<path fill="none" stroke="black" d="M201.23,-136.94C177.25,-126.86 141.01,-111.63 114.3,-100.41"/>
<polygon fill="black" stroke="black" points="115.51,-97.12 104.93,-96.48 112.8,-103.58 115.51,-97.12"/>
</g>
<!-- 332d552c&#45;8dc4&#45;11ed&#45;83f8&#45;55990384cbba -->
<g id="node7" class="node">
<title>332d552c&#45;8dc4&#45;11ed&#45;83f8&#45;55990384cbba</title>
<ellipse fill="lightgrey" stroke="lightgrey" cx="236.5" cy="-84.79" rx="59.29" ry="16.03"/>
<text text-anchor="middle" x="236.5" y="-81.09" font-family="Times,serif" font-size="14.00">FigImage</text>
</g>
<!-- 322d977f&#45;8dc4&#45;11ed&#45;83f8&#45;55990384cbba&#45;&gt;332d552c&#45;8dc4&#45;11ed&#45;83f8&#45;55990384cbba -->
<g id="edge6" class="edge">
<title>322d977f&#45;8dc4&#45;11ed&#45;83f8&#45;55990384cbba&#45;&gt;332d552c&#45;8dc4&#45;11ed&#45;83f8&#45;55990384cbba</title>
<path fill="none" stroke="black" d="M228.24,-136.8C229.38,-129.74 230.93,-120.2 232.37,-111.29"/>
<polygon fill="black" stroke="black" points="235.85,-111.72 233.99,-101.29 228.94,-110.6 235.85,-111.72"/>
</g>
<!-- 332d552d&#45;8dc4&#45;11ed&#45;83f8&#45;55990384cbba -->
<g id="node5" class="node">
<title>332d552d&#45;8dc4&#45;11ed&#45;83f8&#45;55990384cbba</title>
<ellipse fill="lightgrey" stroke="lightgrey" cx="79.5" cy="-16.26" rx="50.41" ry="16.03"/>
<text text-anchor="middle" x="79.5" y="-12.56" font-family="Times,serif" font-size="14.00">FigLine</text>
</g>
<!-- 322d9781&#45;8dc4&#45;11ed&#45;83f8&#45;55990384cbba&#45;&gt;332d552d&#45;8dc4&#45;11ed&#45;83f8&#45;55990384cbba -->
<g id="edge4" class="edge">
<title>322d9781&#45;8dc4&#45;11ed&#45;83f8&#45;55990384cbba&#45;&gt;332d552d&#45;8dc4&#45;11ed&#45;83f8&#45;55990384cbba</title>
<path fill="none" stroke="black" d="M79.5,-73.1C79.5,-65.03 79.5,-53.61 79.5,-43.19"/>
<polygon fill="black" stroke="black" points="83,-42.89 79.5,-32.89 76,-42.89 83,-42.89"/>
</g>
<!-- 322d9780&#45;8dc4&#45;11ed&#45;83f8&#45;55990384cbba -->
<g id="node4" class="node">
<title>322d9780&#45;8dc4&#45;11ed&#45;83f8&#45;55990384cbba</title>
<polygon fill="none" stroke="black" points="128.5,-160.05 30.5,-160.05 30.5,-137.05 128.5,-137.05 128.5,-160.05"/>
<text text-anchor="middle" x="79.5" y="-144.85" font-family="Times,serif" font-size="14.00">Slider node</text>
</g>
<!-- 322d9780&#45;8dc4&#45;11ed&#45;83f8&#45;55990384cbba&#45;&gt;322d9781&#45;8dc4&#45;11ed&#45;83f8&#45;55990384cbba -->
<g id="edge3" class="edge">
<title>322d9780&#45;8dc4&#45;11ed&#45;83f8&#45;55990384cbba&#45;&gt;322d9781&#45;8dc4&#45;11ed&#45;83f8&#45;55990384cbba</title>
<path fill="none" stroke="black" d="M79.5,-136.8C79.5,-128.47 79.5,-116.69 79.5,-106.55"/>
<polygon fill="black" stroke="black" points="83,-106.43 79.5,-96.43 76,-106.43 83,-106.43"/>
</g>
<!-- 322d977e&#45;8dc4&#45;11ed&#45;83f8&#45;55990384cbba -->
<g id="node6" class="node">
<title>322d977e&#45;8dc4&#45;11ed&#45;83f8&#45;55990384cbba</title>
<polygon fill="none" stroke="black" points="371,-219.05 222,-219.05 222,-196.05 371,-196.05 371,-219.05"/>
<text text-anchor="middle" x="296.5" y="-203.85" font-family="Times,serif" font-size="14.00">Masks checkboxes</text>
</g>
<!-- 322d977e&#45;8dc4&#45;11ed&#45;83f8&#45;55990384cbba&#45;&gt;322d977f&#45;8dc4&#45;11ed&#45;83f8&#45;55990384cbba -->
<g id="edge5" class="edge">
<title>322d977e&#45;8dc4&#45;11ed&#45;83f8&#45;55990384cbba&#45;&gt;322d977f&#45;8dc4&#45;11ed&#45;83f8&#45;55990384cbba</title>
<path fill="none" stroke="black" d="M283.33,-195.83C273.26,-187.63 259.18,-176.16 247.55,-166.69"/>
<polygon fill="black" stroke="black" points="249.57,-163.83 239.61,-160.23 245.15,-169.26 249.57,-163.83"/>
</g>
</g>
</svg>
