<?xml version="1.0" encoding="UTF-8" standalone="no"?>
<!DOCTYPE svg PUBLIC "-//W3C//DTD SVG 1.1//EN"
 "http://www.w3.org/Graphics/SVG/1.1/DTD/svg11.dtd">
<!-- Generated by graphviz version 2.43.0 (0)
 -->
<!-- Title: %3 Pages: 1 -->
<svg width="444pt" height="227pt"
 viewBox="0.00 0.00 443.50 227.05" xmlns="http://www.w3.org/2000/svg" xmlns:xlink="http://www.w3.org/1999/xlink">
<g id="graph0" class="graph" transform="scale(1 1) rotate(0) translate(4 223.05)">
<title>%3</title>
<polygon fill="white" stroke="transparent" points="-4,4 -4,-223.05 439.5,-223.05 439.5,4 -4,4"/>
<!-- 322d9776&#45;8dc4&#45;11ed&#45;83f8&#45;55990384cbba -->
<g id="node1" class="node">
<title>322d9776&#45;8dc4&#45;11ed&#45;83f8&#45;55990384cbba</title>
<polygon fill="none" stroke="black" points="392.5,-219.05 298.5,-219.05 298.5,-196.05 392.5,-196.05 392.5,-219.05"/>
<text text-anchor="middle" x="345.5" y="-203.85" font-family="Times,serif" font-size="14.00">Input node</text>
</g>
<!-- 322d9778&#45;8dc4&#45;11ed&#45;83f8&#45;55990384cbba -->
<g id="node2" class="node">
<title>322d9778&#45;8dc4&#45;11ed&#45;83f8&#45;55990384cbba</title>
<polygon fill="none" stroke="black" points="265.5,-160.05 171.5,-160.05 171.5,-137.05 265.5,-137.05 265.5,-160.05"/>
<text text-anchor="middle" x="218.5" y="-144.85" font-family="Times,serif" font-size="14.00">Smoothing</text>
</g>
<!-- 322d9776&#45;8dc4&#45;11ed&#45;83f8&#45;55990384cbba&#45;&gt;322d9778&#45;8dc4&#45;11ed&#45;83f8&#45;55990384cbba -->
<g id="edge1" class="edge">
<title>322d9776&#45;8dc4&#45;11ed&#45;83f8&#45;55990384cbba&#45;&gt;322d9778&#45;8dc4&#45;11ed&#45;83f8&#45;55990384cbba</title>
<path fill="none" stroke="black" d="M321.91,-195.97C302.04,-187.05 273.4,-174.19 251.3,-164.27"/>
<polygon fill="black" stroke="black" points="252.52,-160.99 241.96,-160.08 249.65,-167.37 252.52,-160.99"/>
</g>
<!-- 322d977a&#45;8dc4&#45;11ed&#45;83f8&#45;55990384cbba -->
<g id="node7" class="node">
<title>322d977a&#45;8dc4&#45;11ed&#45;83f8&#45;55990384cbba</title>
<polygon fill="none" stroke="black" points="435.5,-160.05 283.5,-160.05 283.5,-137.05 435.5,-137.05 435.5,-160.05"/>
<text text-anchor="middle" x="359.5" y="-144.85" font-family="Times,serif" font-size="14.00">Summing raw data</text>
</g>
<!-- 322d9776&#45;8dc4&#45;11ed&#45;83f8&#45;55990384cbba&#45;&gt;322d977a&#45;8dc4&#45;11ed&#45;83f8&#45;55990384cbba -->
<g id="edge6" class="edge">
<title>322d9776&#45;8dc4&#45;11ed&#45;83f8&#45;55990384cbba&#45;&gt;322d977a&#45;8dc4&#45;11ed&#45;83f8&#45;55990384cbba</title>
<path fill="none" stroke="black" d="M348.13,-195.83C349.91,-188.59 352.32,-178.79 354.46,-170.08"/>
<polygon fill="black" stroke="black" points="357.89,-170.77 356.88,-160.23 351.09,-169.1 357.89,-170.77"/>
</g>
<!-- 322d977b&#45;8dc4&#45;11ed&#45;83f8&#45;55990384cbba -->
<g id="node3" class="node">
<title>322d977b&#45;8dc4&#45;11ed&#45;83f8&#45;55990384cbba</title>
<polygon fill="none" stroke="black" points="195,-96.29 0,-96.29 0,-73.29 195,-73.29 195,-96.29"/>
<text text-anchor="middle" x="97.5" y="-81.09" font-family="Times,serif" font-size="14.00">Summing smoothed data</text>
</g>
<!-- 322d9778&#45;8dc4&#45;11ed&#45;83f8&#45;55990384cbba&#45;&gt;322d977b&#45;8dc4&#45;11ed&#45;83f8&#45;55990384cbba -->
<g id="edge2" class="edge">
<title>322d9778&#45;8dc4&#45;11ed&#45;83f8&#45;55990384cbba&#45;&gt;322d977b&#45;8dc4&#45;11ed&#45;83f8&#45;55990384cbba</title>
<path fill="none" stroke="black" d="M197.7,-136.94C178.39,-127.08 149.43,-112.3 127.6,-101.16"/>
<polygon fill="black" stroke="black" points="128.93,-97.91 118.43,-96.48 125.75,-104.14 128.93,-97.91"/>
</g>
<!-- 322d9779&#45;8dc4&#45;11ed&#45;83f8&#45;55990384cbba -->
<g id="node6" class="node">
<title>322d9779&#45;8dc4&#45;11ed&#45;83f8&#45;55990384cbba</title>
<ellipse fill="lightgrey" stroke="lightgrey" cx="272.5" cy="-84.79" rx="59.29" ry="16.03"/>
<text text-anchor="middle" x="272.5" y="-81.09" font-family="Times,serif" font-size="14.00">FigImage</text>
</g>
<!-- 322d9778&#45;8dc4&#45;11ed&#45;83f8&#45;55990384cbba&#45;&gt;322d9779&#45;8dc4&#45;11ed&#45;83f8&#45;55990384cbba -->
<g id="edge5" class="edge">
<title>322d9778&#45;8dc4&#45;11ed&#45;83f8&#45;55990384cbba&#45;&gt;322d9779&#45;8dc4&#45;11ed&#45;83f8&#45;55990384cbba</title>
<path fill="none" stroke="black" d="M227.91,-136.8C234.71,-129.02 244.14,-118.23 252.58,-108.57"/>
<polygon fill="black" stroke="black" points="255.41,-110.65 259.36,-100.82 250.14,-106.05 255.41,-110.65"/>
</g>
<!-- 322d977c&#45;8dc4&#45;11ed&#45;83f8&#45;55990384cbba -->
<g id="node4" class="node">
<title>322d977c&#45;8dc4&#45;11ed&#45;83f8&#45;55990384cbba</title>
<ellipse fill="lightgrey" stroke="lightgrey" cx="228.5" cy="-16.26" rx="50.41" ry="16.03"/>
<text text-anchor="middle" x="228.5" y="-12.56" font-family="Times,serif" font-size="14.00">FigLine</text>
</g>
<!-- 322d977b&#45;8dc4&#45;11ed&#45;83f8&#45;55990384cbba&#45;&gt;322d977c&#45;8dc4&#45;11ed&#45;83f8&#45;55990384cbba -->
<g id="edge3" class="edge">
<title>322d977b&#45;8dc4&#45;11ed&#45;83f8&#45;55990384cbba&#45;&gt;322d977c&#45;8dc4&#45;11ed&#45;83f8&#45;55990384cbba</title>
<path fill="none" stroke="black" d="M118.26,-73.25C138.51,-62.96 169.7,-47.13 193.74,-34.92"/>
<polygon fill="black" stroke="black" points="195.56,-37.92 202.89,-30.27 192.39,-31.67 195.56,-37.92"/>
</g>
<!-- 322d9777&#45;8dc4&#45;11ed&#45;83f8&#45;55990384cbba -->
<g id="node5" class="node">
<title>322d9777&#45;8dc4&#45;11ed&#45;83f8&#45;55990384cbba</title>
<polygon fill="none" stroke="black" points="267.5,-219.05 169.5,-219.05 169.5,-196.05 267.5,-196.05 267.5,-219.05"/>
<text text-anchor="middle" x="218.5" y="-203.85" font-family="Times,serif" font-size="14.00">Slider node</text>
</g>
<!-- 322d9777&#45;8dc4&#45;11ed&#45;83f8&#45;55990384cbba&#45;&gt;322d9778&#45;8dc4&#45;11ed&#45;83f8&#45;55990384cbba -->
<g id="edge4" class="edge">
<title>322d9777&#45;8dc4&#45;11ed&#45;83f8&#45;55990384cbba&#45;&gt;322d9778&#45;8dc4&#45;11ed&#45;83f8&#45;55990384cbba</title>
<path fill="none" stroke="black" d="M218.5,-195.83C218.5,-188.67 218.5,-179.01 218.5,-170.36"/>
<polygon fill="black" stroke="black" points="222,-170.23 218.5,-160.23 215,-170.23 222,-170.23"/>
</g>
<!-- 322d977a&#45;8dc4&#45;11ed&#45;83f8&#45;55990384cbba&#45;&gt;322d977c&#45;8dc4&#45;11ed&#45;83f8&#45;55990384cbba -->
<g id="edge7" class="edge">
<title>322d977a&#45;8dc4&#45;11ed&#45;83f8&#45;55990384cbba&#45;&gt;322d977c&#45;8dc4&#45;11ed&#45;83f8&#45;55990384cbba</title>
<path fill="none" stroke="black" d="M359.75,-136.8C359.57,-120.28 356.91,-88.46 340.5,-68.53 324.75,-49.4 300.32,-37.09 278.29,-29.34"/>
<polygon fill="black" stroke="black" points="279.29,-25.98 268.7,-26.19 277.11,-32.63 279.29,-25.98"/>
</g>
</g>
</svg>
