<?xml version="1.0" encoding="UTF-8" standalone="no"?>
<!DOCTYPE svg PUBLIC "-//W3C//DTD SVG 1.1//EN"
 "http://www.w3.org/Graphics/SVG/1.1/DTD/svg11.dtd">
<!-- Generated by graphviz version 2.43.0 (0)
 -->
<!-- Title: %3 Pages: 1 -->
<svg width="226pt" height="227pt"
 viewBox="0.00 0.00 225.60 227.05" xmlns="http://www.w3.org/2000/svg" xmlns:xlink="http://www.w3.org/1999/xlink">
<g id="graph0" class="graph" transform="scale(1 1) rotate(0) translate(4 223.05)">
<title>%3</title>
<polygon fill="white" stroke="transparent" points="-4,4 -4,-223.05 221.6,-223.05 221.6,4 -4,4"/>
<!-- 366536b0&#45;8dc4&#45;11ed&#45;83f8&#45;55990384cbba -->
<g id="node1" class="node">
<title>366536b0&#45;8dc4&#45;11ed&#45;83f8&#45;55990384cbba</title>
<polygon fill="none" stroke="black" points="94.2,-219.05 0.2,-219.05 0.2,-196.05 94.2,-196.05 94.2,-219.05"/>
<text text-anchor="middle" x="47.2" y="-203.85" font-family="Times,serif" font-size="14.00">Input node</text>
</g>
<!-- 366536b2&#45;8dc4&#45;11ed&#45;83f8&#45;55990384cbba -->
<g id="node2" class="node">
<title>366536b2&#45;8dc4&#45;11ed&#45;83f8&#45;55990384cbba</title>
<polygon fill="none" stroke="black" points="151.2,-160.05 57.2,-160.05 57.2,-137.05 151.2,-137.05 151.2,-160.05"/>
<text text-anchor="middle" x="104.2" y="-144.85" font-family="Times,serif" font-size="14.00">Add masks</text>
</g>
<!-- 366536b0&#45;8dc4&#45;11ed&#45;83f8&#45;55990384cbba&#45;&gt;366536b2&#45;8dc4&#45;11ed&#45;83f8&#45;55990384cbba -->
<g id="edge1" class="edge">
<title>366536b0&#45;8dc4&#45;11ed&#45;83f8&#45;55990384cbba&#45;&gt;366536b2&#45;8dc4&#45;11ed&#45;83f8&#45;55990384cbba</title>
<path fill="none" stroke="black" d="M57.93,-195.83C65.89,-187.87 76.93,-176.83 86.23,-167.53"/>
<polygon fill="black" stroke="black" points="88.94,-169.77 93.53,-160.23 83.99,-164.82 88.94,-169.77"/>
</g>
<!-- 366536b3&#45;8dc4&#45;11ed&#45;83f8&#45;55990384cbba -->
<g id="node3" class="node">
<title>366536b3&#45;8dc4&#45;11ed&#45;83f8&#45;55990384cbba</title>
<polygon fill="none" stroke="black" points="81.2,-96.29 19.2,-96.29 19.2,-73.29 81.2,-73.29 81.2,-96.29"/>
<text text-anchor="middle" x="50.2" y="-81.09" font-family="Times,serif" font-size="14.00">Sum Y</text>
</g>
<!-- 366536b2&#45;8dc4&#45;11ed&#45;83f8&#45;55990384cbba&#45;&gt;366536b3&#45;8dc4&#45;11ed&#45;83f8&#45;55990384cbba -->
<g id="edge2" class="edge">
<title>366536b2&#45;8dc4&#45;11ed&#45;83f8&#45;55990384cbba&#45;&gt;366536b3&#45;8dc4&#45;11ed&#45;83f8&#45;55990384cbba</title>
<path fill="none" stroke="black" d="M94.8,-136.8C86.9,-127.76 75.44,-114.66 66.12,-104"/>
<polygon fill="black" stroke="black" points="68.72,-101.65 59.5,-96.43 63.45,-106.26 68.72,-101.65"/>
</g>
<!-- 366536b4&#45;8dc4&#45;11ed&#45;83f8&#45;55990384cbba -->
<g id="node6" class="node">
<title>366536b4&#45;8dc4&#45;11ed&#45;83f8&#45;55990384cbba</title>
<ellipse fill="lightgrey" stroke="lightgrey" cx="158.2" cy="-84.79" rx="59.29" ry="16.03"/>
<text text-anchor="middle" x="158.2" y="-81.09" font-family="Times,serif" font-size="14.00">FigImage</text>
</g>
<!-- 366536b2&#45;8dc4&#45;11ed&#45;83f8&#45;55990384cbba&#45;&gt;366536b4&#45;8dc4&#45;11ed&#45;83f8&#45;55990384cbba -->
<g id="edge5" class="edge">
<title>366536b2&#45;8dc4&#45;11ed&#45;83f8&#45;55990384cbba&#45;&gt;366536b4&#45;8dc4&#45;11ed&#45;83f8&#45;55990384cbba</title>
<path fill="none" stroke="black" d="M113.61,-136.8C120.41,-129.02 129.84,-118.23 138.29,-108.57"/>
<polygon fill="black" stroke="black" points="141.12,-110.65 145.06,-100.82 135.85,-106.05 141.12,-110.65"/>
</g>
<!-- 366536b5&#45;8dc4&#45;11ed&#45;83f8&#45;55990384cbba -->
<g id="node4" class="node">
<title>366536b5&#45;8dc4&#45;11ed&#45;83f8&#45;55990384cbba</title>
<ellipse fill="lightgrey" stroke="lightgrey" cx="50.2" cy="-16.26" rx="50.41" ry="16.03"/>
<text text-anchor="middle" x="50.2" y="-12.56" font-family="Times,serif" font-size="14.00">FigLine</text>
</g>
<!-- 366536b3&#45;8dc4&#45;11ed&#45;83f8&#45;55990384cbba&#45;&gt;366536b5&#45;8dc4&#45;11ed&#45;83f8&#45;55990384cbba -->
<g id="edge3" class="edge">
<title>366536b3&#45;8dc4&#45;11ed&#45;83f8&#45;55990384cbba&#45;&gt;366536b5&#45;8dc4&#45;11ed&#45;83f8&#45;55990384cbba</title>
<path fill="none" stroke="black" d="M50.2,-73.1C50.2,-65.03 50.2,-53.61 50.2,-43.19"/>
<polygon fill="black" stroke="black" points="53.7,-42.89 50.2,-32.89 46.7,-42.89 53.7,-42.89"/>
</g>
<!-- 366536b1&#45;8dc4&#45;11ed&#45;83f8&#45;55990384cbba -->
<g id="node5" class="node">
<title>366536b1&#45;8dc4&#45;11ed&#45;83f8&#45;55990384cbba</title>
<polygon fill="none" stroke="black" points="210.2,-219.05 112.2,-219.05 112.2,-196.05 210.2,-196.05 210.2,-219.05"/>
<text text-anchor="middle" x="161.2" y="-203.85" font-family="Times,serif" font-size="14.00">Slider node</text>
</g>
<!-- 366536b1&#45;8dc4&#45;11ed&#45;83f8&#45;55990384cbba&#45;&gt;366536b2&#45;8dc4&#45;11ed&#45;83f8&#45;55990384cbba -->
<g id="edge4" class="edge">
<title>366536b1&#45;8dc4&#45;11ed&#45;83f8&#45;55990384cbba&#45;&gt;366536b2&#45;8dc4&#45;11ed&#45;83f8&#45;55990384cbba</title>
<path fill="none" stroke="black" d="M150.48,-195.83C142.52,-187.87 131.48,-176.83 122.18,-167.53"/>
<polygon fill="black" stroke="black" points="124.42,-164.82 114.88,-160.23 119.47,-169.77 124.42,-164.82"/>
</g>
</g>
</svg>
