<?xml version="1.0" encoding="UTF-8" standalone="no"?>
<!DOCTYPE svg PUBLIC "-//W3C//DTD SVG 1.1//EN"
 "http://www.w3.org/Graphics/SVG/1.1/DTD/svg11.dtd">
<!-- Generated by graphviz version 2.43.0 (0)
 -->
<!-- Title: %3 Pages: 1 -->
<svg width="622pt" height="249pt"
 viewBox="0.00 0.00 621.50 248.53" xmlns="http://www.w3.org/2000/svg" xmlns:xlink="http://www.w3.org/1999/xlink">
<g id="graph0" class="graph" transform="scale(1 1) rotate(0) translate(4 244.53)">
<title>%3</title>
<polygon fill="white" stroke="transparent" points="-4,4 -4,-244.53 617.5,-244.53 617.5,4 -4,4"/>
<!-- 45c9a64cb76249beb9a3a41a77ec9cac -->
<g id="node1" class="node">
<title>45c9a64cb76249beb9a3a41a77ec9cac</title>
<polygon fill="none" stroke="black" points="454.5,-92.53 295.5,-92.53 295.5,-69.53 454.5,-69.53 454.5,-92.53"/>
<text text-anchor="middle" x="375" y="-77.33" font-family="Times,serif" font-size="14.00">_preprocess_scatter</text>
</g>
<!-- e2bd71aafedd4f9bb9c217118aa29d9f -->
<g id="node5" class="node">
<title>e2bd71aafedd4f9bb9c217118aa29d9f</title>
<ellipse fill="lightgrey" stroke="lightgrey" cx="375" cy="-16.26" rx="84.71" ry="16.03"/>
<text text-anchor="middle" x="375" y="-12.56" font-family="Times,serif" font-size="14.00">GraphicalView</text>
</g>
<!-- 45c9a64cb76249beb9a3a41a77ec9cac&#45;&gt;e2bd71aafedd4f9bb9c217118aa29d9f -->
<g id="edge3" class="edge">
<title>45c9a64cb76249beb9a3a41a77ec9cac&#45;&gt;e2bd71aafedd4f9bb9c217118aa29d9f</title>
<path fill="none" stroke="black" d="M375,-69.38C375,-62.06 375,-52.02 375,-42.7"/>
<polygon fill="black" stroke="black" points="378.5,-42.68 375,-32.68 371.5,-42.68 378.5,-42.68"/>
</g>
<!-- 99f0838e96e74621ac0ff449051641e4 -->
<g id="node2" class="node">
<title>99f0838e96e74621ac0ff449051641e4</title>
<polygon fill="none" stroke="black" points="434,-166.53 0,-166.53 0,-143.53 434,-143.53 434,-166.53"/>
<text text-anchor="middle" x="217" y="-151.33" font-family="Times,serif" font-size="14.00">&lt;__main__.DataGen object at 0x7f7de1b03d10&gt;(iteration)</text>
</g>
<!-- 99f0838e96e74621ac0ff449051641e4&#45;&gt;45c9a64cb76249beb9a3a41a77ec9cac -->
<g id="edge1" class="edge">
<title>99f0838e96e74621ac0ff449051641e4&#45;&gt;45c9a64cb76249beb9a3a41a77ec9cac</title>
<path fill="none" stroke="black" d="M240.31,-143.4C267.35,-131.08 312.08,-110.7 342.51,-96.83"/>
<polygon fill="black" stroke="black" points="344.2,-99.91 351.85,-92.58 341.3,-93.54 344.2,-99.91"/>
<text text-anchor="middle" x="331" y="-114.33" font-family="Times,serif" font-size="14.00">arg_0</text>
</g>
<!-- af7fb4d16a6c4919a4eb6a26de416740 -->
<g id="node3" class="node">
<title>af7fb4d16a6c4919a4eb6a26de416740</title>
<polygon fill="none" stroke="black" points="613.5,-166.53 452.5,-166.53 452.5,-143.53 613.5,-143.53 613.5,-166.53"/>
<text text-anchor="middle" x="533" y="-151.33" font-family="Times,serif" font-size="14.00">Input &lt;str=&#39;None&#39;&gt;</text>
</g>
<!-- af7fb4d16a6c4919a4eb6a26de416740&#45;&gt;45c9a64cb76249beb9a3a41a77ec9cac -->
<g id="edge2" class="edge">
<title>af7fb4d16a6c4919a4eb6a26de416740&#45;&gt;45c9a64cb76249beb9a3a41a77ec9cac</title>
<path fill="none" stroke="black" d="M509.69,-143.4C482.65,-131.08 437.92,-110.7 407.49,-96.83"/>
<polygon fill="black" stroke="black" points="408.7,-93.54 398.15,-92.58 405.8,-99.91 408.7,-93.54"/>
<text text-anchor="middle" x="489" y="-114.33" font-family="Times,serif" font-size="14.00">name</text>
</g>
<!-- 6e15456cd08b4198b8ddf0589999f67c -->
<g id="node4" class="node">
<title>6e15456cd08b4198b8ddf0589999f67c</title>
<polygon fill="none" stroke="black" points="294.5,-240.53 139.5,-240.53 139.5,-217.53 294.5,-217.53 294.5,-240.53"/>
<text text-anchor="middle" x="217" y="-225.33" font-family="Times,serif" font-size="14.00">Widget &lt;Play: int&gt;</text>
</g>
<!-- 6e15456cd08b4198b8ddf0589999f67c&#45;&gt;99f0838e96e74621ac0ff449051641e4 -->
<g id="edge4" class="edge">
<title>6e15456cd08b4198b8ddf0589999f67c&#45;&gt;99f0838e96e74621ac0ff449051641e4</title>
<path fill="none" stroke="black" d="M217,-217.4C217,-206.77 217,-190.12 217,-176.85"/>
<polygon fill="black" stroke="black" points="220.5,-176.69 217,-166.69 213.5,-176.69 220.5,-176.69"/>
<text text-anchor="middle" x="248" y="-188.33" font-family="Times,serif" font-size="14.00">iteration</text>
</g>
</g>
</svg>
