<?xml version="1.0" encoding="UTF-8" standalone="no"?>
<!DOCTYPE svg PUBLIC "-//W3C//DTD SVG 1.1//EN"
 "http://www.w3.org/Graphics/SVG/1.1/DTD/svg11.dtd">
<!-- Generated by graphviz version 2.43.0 (0)
 -->
<!-- Title: %3 Pages: 1 -->
<svg width="485pt" height="249pt"
 viewBox="0.00 0.00 485.00 248.53" xmlns="http://www.w3.org/2000/svg" xmlns:xlink="http://www.w3.org/1999/xlink">
<g id="graph0" class="graph" transform="scale(1 1) rotate(0) translate(4 244.53)">
<title>%3</title>
<polygon fill="white" stroke="transparent" points="-4,4 -4,-244.53 481,-244.53 481,4 -4,4"/>
<!-- 52138dc5df80470fbb85fdf5516547b5 -->
<g id="node1" class="node">
<title>52138dc5df80470fbb85fdf5516547b5</title>
<polygon fill="none" stroke="black" points="362,-92.53 229,-92.53 229,-69.53 362,-69.53 362,-92.53"/>
<text text-anchor="middle" x="295.5" y="-77.33" font-family="Times,serif" font-size="14.00">sum(arg_0, dim)</text>
</g>
<!-- 46dcea22f51a4d6a9976fb9e39804ac5 -->
<g id="node6" class="node">
<title>46dcea22f51a4d6a9976fb9e39804ac5</title>
<ellipse fill="lightgrey" stroke="lightgrey" cx="295.5" cy="-16.26" rx="84.71" ry="16.03"/>
<text text-anchor="middle" x="295.5" y="-12.56" font-family="Times,serif" font-size="14.00">GraphicalView</text>
</g>
<!-- 52138dc5df80470fbb85fdf5516547b5&#45;&gt;46dcea22f51a4d6a9976fb9e39804ac5 -->
<g id="edge3" class="edge">
<title>52138dc5df80470fbb85fdf5516547b5&#45;&gt;46dcea22f51a4d6a9976fb9e39804ac5</title>
<path fill="none" stroke="black" d="M295.5,-69.38C295.5,-62.06 295.5,-52.02 295.5,-42.7"/>
<polygon fill="black" stroke="black" points="299,-42.68 295.5,-32.68 292,-42.68 299,-42.68"/>
</g>
<!-- df99bc5fc89543b691af75d6ebbd3ee4 -->
<g id="node2" class="node">
<title>df99bc5fc89543b691af75d6ebbd3ee4</title>
<polygon fill="none" stroke="black" points="303.5,-166.53 79.5,-166.53 79.5,-143.53 303.5,-143.53 303.5,-166.53"/>
<text text-anchor="middle" x="191.5" y="-151.33" font-family="Times,serif" font-size="14.00">slice_dims(data_array, slices)</text>
</g>
<!-- df99bc5fc89543b691af75d6ebbd3ee4&#45;&gt;52138dc5df80470fbb85fdf5516547b5 -->
<g id="edge1" class="edge">
<title>df99bc5fc89543b691af75d6ebbd3ee4&#45;&gt;52138dc5df80470fbb85fdf5516547b5</title>
<path fill="none" stroke="black" d="M206.85,-143.4C223.97,-131.55 251.9,-112.21 271.83,-98.41"/>
<polygon fill="black" stroke="black" points="273.86,-101.26 280.09,-92.69 269.88,-95.51 273.86,-101.26"/>
<text text-anchor="middle" x="273.5" y="-114.33" font-family="Times,serif" font-size="14.00">arg_0</text>
</g>
<!-- aa26bcba3b8c4cc9b4228fd26918a5bb -->
<g id="node3" class="node">
<title>aa26bcba3b8c4cc9b4228fd26918a5bb</title>
<polygon fill="none" stroke="black" points="477,-166.53 322,-166.53 322,-143.53 477,-143.53 477,-166.53"/>
<text text-anchor="middle" x="399.5" y="-151.33" font-family="Times,serif" font-size="14.00">Input &lt;str=&#39;time&#39;&gt;</text>
</g>
<!-- aa26bcba3b8c4cc9b4228fd26918a5bb&#45;&gt;52138dc5df80470fbb85fdf5516547b5 -->
<g id="edge2" class="edge">
<title>aa26bcba3b8c4cc9b4228fd26918a5bb&#45;&gt;52138dc5df80470fbb85fdf5516547b5</title>
<path fill="none" stroke="black" d="M384.15,-143.4C367.03,-131.55 339.1,-112.21 319.17,-98.41"/>
<polygon fill="black" stroke="black" points="321.12,-95.51 310.91,-92.69 317.14,-101.26 321.12,-95.51"/>
<text text-anchor="middle" x="370.5" y="-114.33" font-family="Times,serif" font-size="14.00">dim</text>
</g>
<!-- b0004c5ff1b84f22af61b54edb7bce8e -->
<g id="node4" class="node">
<title>b0004c5ff1b84f22af61b54edb7bce8e</title>
<polygon fill="none" stroke="black" points="157,-240.53 0,-240.53 0,-217.53 157,-217.53 157,-240.53"/>
<text text-anchor="middle" x="78.5" y="-225.33" font-family="Times,serif" font-size="14.00">Input &lt;DataArray&gt;</text>
</g>
<!-- b0004c5ff1b84f22af61b54edb7bce8e&#45;&gt;df99bc5fc89543b691af75d6ebbd3ee4 -->
<g id="edge4" class="edge">
<title>b0004c5ff1b84f22af61b54edb7bce8e&#45;&gt;df99bc5fc89543b691af75d6ebbd3ee4</title>
<path fill="none" stroke="black" d="M95.17,-217.4C113.87,-205.49 144.4,-186.04 166.07,-172.23"/>
<polygon fill="black" stroke="black" points="168.21,-175.02 174.76,-166.69 164.44,-169.12 168.21,-175.02"/>
<text text-anchor="middle" x="184" y="-188.33" font-family="Times,serif" font-size="14.00">data_array</text>
</g>
<!-- 2ea7d8d02f074f03a1776cb310796ba7 -->
<g id="node5" class="node">
<title>2ea7d8d02f074f03a1776cb310796ba7</title>
<polygon fill="none" stroke="black" points="434,-240.53 175,-240.53 175,-217.53 434,-217.53 434,-240.53"/>
<text text-anchor="middle" x="304.5" y="-225.33" font-family="Times,serif" font-size="14.00">Widget &lt;_BaseSliceWidget: dict&gt;</text>
</g>
<!-- 2ea7d8d02f074f03a1776cb310796ba7&#45;&gt;df99bc5fc89543b691af75d6ebbd3ee4 -->
<g id="edge5" class="edge">
<title>2ea7d8d02f074f03a1776cb310796ba7&#45;&gt;df99bc5fc89543b691af75d6ebbd3ee4</title>
<path fill="none" stroke="black" d="M287.83,-217.4C269.13,-205.49 238.6,-186.04 216.93,-172.23"/>
<polygon fill="black" stroke="black" points="218.56,-169.12 208.24,-166.69 214.79,-175.02 218.56,-169.12"/>
<text text-anchor="middle" x="278.5" y="-188.33" font-family="Times,serif" font-size="14.00">slices</text>
</g>
</g>
</svg>
