<?xml version="1.0" encoding="UTF-8" standalone="no"?>
<!DOCTYPE svg PUBLIC "-//W3C//DTD SVG 1.1//EN"
 "http://www.w3.org/Graphics/SVG/1.1/DTD/svg11.dtd">
<!-- Generated by graphviz version 2.43.0 (0)
 -->
<!-- Title: %3 Pages: 1 -->
<svg width="614pt" height="249pt"
 viewBox="0.00 0.00 613.50 248.53" xmlns="http://www.w3.org/2000/svg" xmlns:xlink="http://www.w3.org/1999/xlink">
<g id="graph0" class="graph" transform="scale(1 1) rotate(0) translate(4 244.53)">
<title>%3</title>
<polygon fill="white" stroke="transparent" points="-4,4 -4,-244.53 609.5,-244.53 609.5,4 -4,4"/>
<!-- 6bcaba423fe2433a84816b4dc66741b7 -->
<g id="node1" class="node">
<title>6bcaba423fe2433a84816b4dc66741b7</title>
<polygon fill="none" stroke="black" points="451.5,-92.53 292.5,-92.53 292.5,-69.53 451.5,-69.53 451.5,-92.53"/>
<text text-anchor="middle" x="372" y="-77.33" font-family="Times,serif" font-size="14.00">_preprocess_scatter</text>
</g>
<!-- d1e414f1d5554c979c563b470247b3b6 -->
<g id="node5" class="node">
<title>d1e414f1d5554c979c563b470247b3b6</title>
<ellipse fill="lightgrey" stroke="lightgrey" cx="372" cy="-16.26" rx="84.71" ry="16.03"/>
<text text-anchor="middle" x="372" y="-12.56" font-family="Times,serif" font-size="14.00">GraphicalView</text>
</g>
<!-- 6bcaba423fe2433a84816b4dc66741b7&#45;&gt;d1e414f1d5554c979c563b470247b3b6 -->
<g id="edge3" class="edge">
<title>6bcaba423fe2433a84816b4dc66741b7&#45;&gt;d1e414f1d5554c979c563b470247b3b6</title>
<path fill="none" stroke="black" d="M372,-69.38C372,-62.06 372,-52.02 372,-42.7"/>
<polygon fill="black" stroke="black" points="375.5,-42.68 372,-32.68 368.5,-42.68 375.5,-42.68"/>
</g>
<!-- 64198f8f8f4c483ab6e2e9f53f31a461 -->
<g id="node2" class="node">
<title>64198f8f8f4c483ab6e2e9f53f31a461</title>
<polygon fill="none" stroke="black" points="432,-166.53 0,-166.53 0,-143.53 432,-143.53 432,-166.53"/>
<text text-anchor="middle" x="216" y="-151.33" font-family="Times,serif" font-size="14.00">&lt;__main__.DataGen object at 0x7fa9505e4ad0&gt;(iteration)</text>
</g>
<!-- 64198f8f8f4c483ab6e2e9f53f31a461&#45;&gt;6bcaba423fe2433a84816b4dc66741b7 -->
<g id="edge1" class="edge">
<title>64198f8f8f4c483ab6e2e9f53f31a461&#45;&gt;6bcaba423fe2433a84816b4dc66741b7</title>
<path fill="none" stroke="black" d="M239.02,-143.4C265.71,-131.08 309.88,-110.7 339.92,-96.83"/>
<polygon fill="black" stroke="black" points="341.53,-99.95 349.14,-92.58 338.6,-93.59 341.53,-99.95"/>
<text text-anchor="middle" x="328" y="-114.33" font-family="Times,serif" font-size="14.00">arg_0</text>
</g>
<!-- e930f690e9704d2db1344d8a4b5a8501 -->
<g id="node3" class="node">
<title>e930f690e9704d2db1344d8a4b5a8501</title>
<polygon fill="none" stroke="black" points="605.5,-166.53 450.5,-166.53 450.5,-143.53 605.5,-143.53 605.5,-166.53"/>
<text text-anchor="middle" x="528" y="-151.33" font-family="Times,serif" font-size="14.00">Input &lt;NoneType&gt;</text>
</g>
<!-- e930f690e9704d2db1344d8a4b5a8501&#45;&gt;6bcaba423fe2433a84816b4dc66741b7 -->
<g id="edge2" class="edge">
<title>e930f690e9704d2db1344d8a4b5a8501&#45;&gt;6bcaba423fe2433a84816b4dc66741b7</title>
<path fill="none" stroke="black" d="M504.98,-143.4C478.29,-131.08 434.12,-110.7 404.08,-96.83"/>
<polygon fill="black" stroke="black" points="405.4,-93.59 394.86,-92.58 402.47,-99.95 405.4,-93.59"/>
<text text-anchor="middle" x="484" y="-114.33" font-family="Times,serif" font-size="14.00">name</text>
</g>
<!-- 5f486d5af840416e95090bc41b00d07a -->
<g id="node4" class="node">
<title>5f486d5af840416e95090bc41b00d07a</title>
<polygon fill="none" stroke="black" points="293.5,-240.53 138.5,-240.53 138.5,-217.53 293.5,-217.53 293.5,-240.53"/>
<text text-anchor="middle" x="216" y="-225.33" font-family="Times,serif" font-size="14.00">Widget &lt;Play: int&gt;</text>
</g>
<!-- 5f486d5af840416e95090bc41b00d07a&#45;&gt;64198f8f8f4c483ab6e2e9f53f31a461 -->
<g id="edge4" class="edge">
<title>5f486d5af840416e95090bc41b00d07a&#45;&gt;64198f8f8f4c483ab6e2e9f53f31a461</title>
<path fill="none" stroke="black" d="M216,-217.4C216,-206.77 216,-190.12 216,-176.85"/>
<polygon fill="black" stroke="black" points="219.5,-176.69 216,-166.69 212.5,-176.69 219.5,-176.69"/>
<text text-anchor="middle" x="247" y="-188.33" font-family="Times,serif" font-size="14.00">iteration</text>
</g>
</g>
</svg>
