<?xml version="1.0" encoding="UTF-8" standalone="no"?>
<!DOCTYPE svg PUBLIC "-//W3C//DTD SVG 1.1//EN"
 "http://www.w3.org/Graphics/SVG/1.1/DTD/svg11.dtd">
<!-- Generated by graphviz version 2.43.0 (0)
 -->
<!-- Title: %3 Pages: 1 -->
<svg width="467pt" height="258pt"
 viewBox="0.00 0.00 467.35 258.05" xmlns="http://www.w3.org/2000/svg" xmlns:xlink="http://www.w3.org/1999/xlink">
<g id="graph0" class="graph" transform="scale(1 1) rotate(0) translate(4 254.05)">
<title>%3</title>
<polygon fill="white" stroke="transparent" points="-4,4 -4,-254.05 463.35,-254.05 463.35,4 -4,4"/>
<!-- 675572185c574596a68c5090e871ce31 -->
<g id="node1" class="node">
<title>675572185c574596a68c5090e871ce31</title>
<polygon fill="none" stroke="black" points="441,-97.29 308,-97.29 308,-74.29 441,-74.29 441,-97.29"/>
<text text-anchor="middle" x="374.5" y="-82.09" font-family="Times,serif" font-size="14.00">sum(arg_0, dim)</text>
</g>
<!-- 3986c2a2678d4c71892a3999e65285f4 -->
<g id="node6" class="node">
<title>3986c2a2678d4c71892a3999e65285f4</title>
<ellipse fill="lightgrey" stroke="lightgrey" cx="374.5" cy="-16.26" rx="84.71" ry="16.03"/>
<text text-anchor="middle" x="374.5" y="-12.56" font-family="Times,serif" font-size="14.00">GraphicalView</text>
</g>
<!-- 675572185c574596a68c5090e871ce31&#45;&gt;3986c2a2678d4c71892a3999e65285f4 -->
<g id="edge4" class="edge">
<title>675572185c574596a68c5090e871ce31&#45;&gt;3986c2a2678d4c71892a3999e65285f4</title>
<path fill="none" stroke="black" d="M374.5,-74.24C374.5,-65.89 374.5,-53.88 374.5,-43.03"/>
<polygon fill="black" stroke="black" points="378,-42.76 374.5,-32.76 371,-42.76 378,-42.76"/>
</g>
<!-- bddac86574e44a52a47a99fb1991eb45 -->
<g id="node2" class="node">
<title>bddac86574e44a52a47a99fb1991eb45</title>
<polygon fill="none" stroke="black" points="306,-176.05 73,-176.05 73,-153.05 306,-153.05 306,-176.05"/>
<text text-anchor="middle" x="189.5" y="-160.85" font-family="Times,serif" font-size="14.00">add_mask(arg_0, trunc_range)</text>
</g>
<!-- bddac86574e44a52a47a99fb1991eb45&#45;&gt;675572185c574596a68c5090e871ce31 -->
<g id="edge2" class="edge">
<title>bddac86574e44a52a47a99fb1991eb45&#45;&gt;675572185c574596a68c5090e871ce31</title>
<path fill="none" stroke="black" d="M214.84,-153.04C247.13,-139.64 303.11,-116.41 339.48,-101.32"/>
<polygon fill="black" stroke="black" points="341.28,-104.36 349.17,-97.3 338.6,-97.9 341.28,-104.36"/>
<text text-anchor="middle" x="313.5" y="-123.85" font-family="Times,serif" font-size="14.00">arg_0</text>
</g>
<!-- b18e3a9f1ab04f358730bdc8396a427a -->
<g id="node7" class="node">
<title>b18e3a9f1ab04f358730bdc8396a427a</title>
<ellipse fill="lightgrey" stroke="lightgrey" cx="189.5" cy="-85.79" rx="84.71" ry="16.03"/>
<text text-anchor="middle" x="189.5" y="-82.09" font-family="Times,serif" font-size="14.00">GraphicalView</text>
</g>
<!-- bddac86574e44a52a47a99fb1991eb45&#45;&gt;b18e3a9f1ab04f358730bdc8396a427a -->
<g id="edge1" class="edge">
<title>bddac86574e44a52a47a99fb1991eb45&#45;&gt;b18e3a9f1ab04f358730bdc8396a427a</title>
<path fill="none" stroke="black" d="M189.5,-152.88C189.5,-142.48 189.5,-126.26 189.5,-112.5"/>
<polygon fill="black" stroke="black" points="193,-112.14 189.5,-102.14 186,-112.14 193,-112.14"/>
</g>
<!-- c4ebbe2be9644c3b86e120cc3b52ae5f -->
<g id="node3" class="node">
<title>c4ebbe2be9644c3b86e120cc3b52ae5f</title>
<polygon fill="none" stroke="black" points="455,-176.05 324,-176.05 324,-153.05 455,-153.05 455,-176.05"/>
<text text-anchor="middle" x="389.5" y="-160.85" font-family="Times,serif" font-size="14.00">Input &lt;str=&#39;y&#39;&gt;</text>
</g>
<!-- c4ebbe2be9644c3b86e120cc3b52ae5f&#45;&gt;675572185c574596a68c5090e871ce31 -->
<g id="edge3" class="edge">
<title>c4ebbe2be9644c3b86e120cc3b52ae5f&#45;&gt;675572185c574596a68c5090e871ce31</title>
<path fill="none" stroke="black" d="M387.41,-152.88C385.13,-141.19 381.41,-122.17 378.55,-107.52"/>
<polygon fill="black" stroke="black" points="381.92,-106.52 376.57,-97.37 375.05,-107.86 381.92,-106.52"/>
<text text-anchor="middle" x="398.5" y="-123.85" font-family="Times,serif" font-size="14.00">dim</text>
</g>
<!-- 969cfdcd1aa244628d2d6a9279843201 -->
<g id="node4" class="node">
<title>969cfdcd1aa244628d2d6a9279843201</title>
<polygon fill="none" stroke="black" points="157,-250.05 0,-250.05 0,-227.05 157,-227.05 157,-250.05"/>
<text text-anchor="middle" x="78.5" y="-234.85" font-family="Times,serif" font-size="14.00">Input &lt;DataArray&gt;</text>
</g>
<!-- 969cfdcd1aa244628d2d6a9279843201&#45;&gt;bddac86574e44a52a47a99fb1991eb45 -->
<g id="edge5" class="edge">
<title>969cfdcd1aa244628d2d6a9279843201&#45;&gt;bddac86574e44a52a47a99fb1991eb45</title>
<path fill="none" stroke="black" d="M94.88,-226.93C113.24,-215.02 143.23,-195.57 164.52,-181.76"/>
<polygon fill="black" stroke="black" points="166.57,-184.6 173.05,-176.22 162.76,-178.73 166.57,-184.6"/>
<text text-anchor="middle" x="164.5" y="-197.85" font-family="Times,serif" font-size="14.00">arg_0</text>
</g>
<!-- c7cd4bc4256843de9229ce52220e2b6b -->
<g id="node5" class="node">
<title>c7cd4bc4256843de9229ce52220e2b6b</title>
<polygon fill="none" stroke="black" points="425.5,-250.05 175.5,-250.05 175.5,-227.05 425.5,-227.05 425.5,-250.05"/>
<text text-anchor="middle" x="300.5" y="-234.85" font-family="Times,serif" font-size="14.00">Widget &lt;IntRangeSlider: tuple&gt;</text>
</g>
<!-- c7cd4bc4256843de9229ce52220e2b6b&#45;&gt;bddac86574e44a52a47a99fb1991eb45 -->
<g id="edge6" class="edge">
<title>c7cd4bc4256843de9229ce52220e2b6b&#45;&gt;bddac86574e44a52a47a99fb1991eb45</title>
<path fill="none" stroke="black" d="M284.12,-226.93C265.76,-215.02 235.77,-195.57 214.48,-181.76"/>
<polygon fill="black" stroke="black" points="216.24,-178.73 205.95,-176.22 212.43,-184.6 216.24,-178.73"/>
<text text-anchor="middle" x="299" y="-197.85" font-family="Times,serif" font-size="14.00">trunc_range</text>
</g>
</g>
</svg>
