<?xml version="1.0" encoding="UTF-8" standalone="no"?>
<!DOCTYPE svg PUBLIC "-//W3C//DTD SVG 1.1//EN"
 "http://www.w3.org/Graphics/SVG/1.1/DTD/svg11.dtd">
<!-- Generated by graphviz version 2.43.0 (0)
 -->
<!-- Title: %3 Pages: 1 -->
<svg width="491pt" height="332pt"
 viewBox="0.00 0.00 490.50 332.05" xmlns="http://www.w3.org/2000/svg" xmlns:xlink="http://www.w3.org/1999/xlink">
<g id="graph0" class="graph" transform="scale(1 1) rotate(0) translate(4 328.05)">
<title>%3</title>
<polygon fill="white" stroke="transparent" points="-4,4 -4,-328.05 486.5,-328.05 486.5,4 -4,4"/>
<!-- fd8d449bf69e46969c5f0516bc11d892 -->
<g id="node1" class="node">
<title>fd8d449bf69e46969c5f0516bc11d892</title>
<polygon fill="none" stroke="black" points="427.5,-171.29 294.5,-171.29 294.5,-148.29 427.5,-148.29 427.5,-171.29"/>
<text text-anchor="middle" x="361" y="-156.09" font-family="Times,serif" font-size="14.00">sum(arg_0, dim)</text>
</g>
<!-- c2b1969e78554507ac8d380ee1286b31 -->
<g id="node2" class="node">
<title>c2b1969e78554507ac8d380ee1286b31</title>
<polygon fill="none" stroke="black" points="332.5,-92.53 109.5,-92.53 109.5,-69.53 332.5,-69.53 332.5,-92.53"/>
<text text-anchor="middle" x="221" y="-77.33" font-family="Times,serif" font-size="14.00">gaussian_filter(arg_0, sigma)</text>
</g>
<!-- fd8d449bf69e46969c5f0516bc11d892&#45;&gt;c2b1969e78554507ac8d380ee1286b31 -->
<g id="edge2" class="edge">
<title>fd8d449bf69e46969c5f0516bc11d892&#45;&gt;c2b1969e78554507ac8d380ee1286b31</title>
<path fill="none" stroke="black" d="M341.83,-148.28C317.87,-135.14 276.7,-112.57 249.16,-97.47"/>
<polygon fill="black" stroke="black" points="250.84,-94.4 240.39,-92.66 247.48,-100.54 250.84,-94.4"/>
<text text-anchor="middle" x="320" y="-114.33" font-family="Times,serif" font-size="14.00">arg_0</text>
</g>
<!-- 24a3e28dd3c24e118a7b864cf320594d -->
<g id="node8" class="node">
<title>24a3e28dd3c24e118a7b864cf320594d</title>
<ellipse fill="lightgrey" stroke="lightgrey" cx="291" cy="-16.26" rx="57.97" ry="16.03"/>
<text text-anchor="middle" x="291" y="-12.56" font-family="Times,serif" font-size="14.00">LineView</text>
</g>
<!-- fd8d449bf69e46969c5f0516bc11d892&#45;&gt;24a3e28dd3c24e118a7b864cf320594d -->
<g id="edge1" class="edge">
<title>fd8d449bf69e46969c5f0516bc11d892&#45;&gt;24a3e28dd3c24e118a7b864cf320594d</title>
<path fill="none" stroke="black" d="M360.46,-148.26C359.19,-130.89 354.95,-95.56 341,-69.53 334.88,-58.11 325.58,-47.41 316.65,-38.71"/>
<polygon fill="black" stroke="black" points="319.03,-36.13 309.32,-31.89 314.26,-41.26 319.03,-36.13"/>
</g>
<!-- c2b1969e78554507ac8d380ee1286b31&#45;&gt;24a3e28dd3c24e118a7b864cf320594d -->
<g id="edge4" class="edge">
<title>c2b1969e78554507ac8d380ee1286b31&#45;&gt;24a3e28dd3c24e118a7b864cf320594d</title>
<path fill="none" stroke="black" d="M232.87,-69.38C242.19,-61.03 255.47,-49.12 266.98,-38.8"/>
<polygon fill="black" stroke="black" points="269.49,-41.25 274.6,-31.97 264.82,-36.04 269.49,-41.25"/>
</g>
<!-- 190b5e66a45344bc99af274bdc5e6643 -->
<g id="node3" class="node">
<title>190b5e66a45344bc99af274bdc5e6643</title>
<polygon fill="none" stroke="black" points="124,-171.29 0,-171.29 0,-148.29 124,-148.29 124,-171.29"/>
<text text-anchor="middle" x="62" y="-156.09" font-family="Times,serif" font-size="14.00">Input &lt;int=5&gt;</text>
</g>
<!-- 190b5e66a45344bc99af274bdc5e6643&#45;&gt;c2b1969e78554507ac8d380ee1286b31 -->
<g id="edge3" class="edge">
<title>190b5e66a45344bc99af274bdc5e6643&#45;&gt;c2b1969e78554507ac8d380ee1286b31</title>
<path fill="none" stroke="black" d="M83.77,-148.28C111.29,-134.99 158.83,-112.04 190.09,-96.95"/>
<polygon fill="black" stroke="black" points="191.75,-100.04 199.23,-92.54 188.71,-93.73 191.75,-100.04"/>
<text text-anchor="middle" x="182.5" y="-114.33" font-family="Times,serif" font-size="14.00">sigma</text>
</g>
<!-- 2acee5642cba4a1f9066c6c625428232 -->
<g id="node4" class="node">
<title>2acee5642cba4a1f9066c6c625428232</title>
<polygon fill="none" stroke="black" points="285,-250.05 133,-250.05 133,-227.05 285,-227.05 285,-250.05"/>
<text text-anchor="middle" x="209" y="-234.85" font-family="Times,serif" font-size="14.00">&lt;lambda&gt;(da, ind)</text>
</g>
<!-- 2acee5642cba4a1f9066c6c625428232&#45;&gt;fd8d449bf69e46969c5f0516bc11d892 -->
<g id="edge6" class="edge">
<title>2acee5642cba4a1f9066c6c625428232&#45;&gt;fd8d449bf69e46969c5f0516bc11d892</title>
<path fill="none" stroke="black" d="M229.82,-227.04C255.93,-213.85 300.92,-191.13 330.81,-176.03"/>
<polygon fill="black" stroke="black" points="332.6,-179.05 339.95,-171.42 329.44,-172.81 332.6,-179.05"/>
<text text-anchor="middle" x="315" y="-197.85" font-family="Times,serif" font-size="14.00">arg_0</text>
</g>
<!-- c19fb1acf64d4a7da622c6b7d8c87623 -->
<g id="node9" class="node">
<title>c19fb1acf64d4a7da622c6b7d8c87623</title>
<ellipse fill="lightgrey" stroke="lightgrey" cx="209" cy="-159.79" rx="67.35" ry="16.03"/>
<text text-anchor="middle" x="209" y="-156.09" font-family="Times,serif" font-size="14.00">ImageView</text>
</g>
<!-- 2acee5642cba4a1f9066c6c625428232&#45;&gt;c19fb1acf64d4a7da622c6b7d8c87623 -->
<g id="edge5" class="edge">
<title>2acee5642cba4a1f9066c6c625428232&#45;&gt;c19fb1acf64d4a7da622c6b7d8c87623</title>
<path fill="none" stroke="black" d="M209,-226.88C209,-216.48 209,-200.26 209,-186.5"/>
<polygon fill="black" stroke="black" points="212.5,-186.14 209,-176.14 205.5,-186.14 212.5,-186.14"/>
</g>
<!-- af2095f9500b4541a1e4a2a650b6025d -->
<g id="node5" class="node">
<title>af2095f9500b4541a1e4a2a650b6025d</title>
<polygon fill="none" stroke="black" points="482.5,-250.05 303.5,-250.05 303.5,-227.05 482.5,-227.05 482.5,-250.05"/>
<text text-anchor="middle" x="393" y="-234.85" font-family="Times,serif" font-size="14.00">Input &lt;str=&#39;latitude&#39;&gt;</text>
</g>
<!-- af2095f9500b4541a1e4a2a650b6025d&#45;&gt;fd8d449bf69e46969c5f0516bc11d892 -->
<g id="edge7" class="edge">
<title>af2095f9500b4541a1e4a2a650b6025d&#45;&gt;fd8d449bf69e46969c5f0516bc11d892</title>
<path fill="none" stroke="black" d="M388.55,-226.88C383.58,-214.96 375.44,-195.42 369.29,-180.67"/>
<polygon fill="black" stroke="black" points="372.49,-179.26 365.41,-171.37 366.03,-181.95 372.49,-179.26"/>
<text text-anchor="middle" x="395" y="-197.85" font-family="Times,serif" font-size="14.00">dim</text>
</g>
<!-- 6cedcaf21f944ba7b794b2426677aae1 -->
<g id="node6" class="node">
<title>6cedcaf21f944ba7b794b2426677aae1</title>
<polygon fill="none" stroke="black" points="192.5,-324.05 35.5,-324.05 35.5,-301.05 192.5,-301.05 192.5,-324.05"/>
<text text-anchor="middle" x="114" y="-308.85" font-family="Times,serif" font-size="14.00">Input &lt;DataArray&gt;</text>
</g>
<!-- 6cedcaf21f944ba7b794b2426677aae1&#45;&gt;2acee5642cba4a1f9066c6c625428232 -->
<g id="edge8" class="edge">
<title>6cedcaf21f944ba7b794b2426677aae1&#45;&gt;2acee5642cba4a1f9066c6c625428232</title>
<path fill="none" stroke="black" d="M128.02,-300.93C143.45,-289.23 168.49,-270.26 186.64,-256.5"/>
<polygon fill="black" stroke="black" points="189.07,-259.05 194.92,-250.22 184.84,-253.47 189.07,-259.05"/>
<text text-anchor="middle" x="180" y="-271.85" font-family="Times,serif" font-size="14.00">da</text>
</g>
<!-- c49018b06f7b481a91fb608b8c8de872 -->
<g id="node7" class="node">
<title>c49018b06f7b481a91fb608b8c8de872</title>
<polygon fill="none" stroke="black" points="399,-324.05 211,-324.05 211,-301.05 399,-301.05 399,-324.05"/>
<text text-anchor="middle" x="305" y="-308.85" font-family="Times,serif" font-size="14.00">Widget &lt;IntSlider: int&gt;</text>
</g>
<!-- c49018b06f7b481a91fb608b8c8de872&#45;&gt;2acee5642cba4a1f9066c6c625428232 -->
<g id="edge9" class="edge">
<title>c49018b06f7b481a91fb608b8c8de872&#45;&gt;2acee5642cba4a1f9066c6c625428232</title>
<path fill="none" stroke="black" d="M290.83,-300.93C275.24,-289.23 249.94,-270.26 231.6,-256.5"/>
<polygon fill="black" stroke="black" points="233.32,-253.42 223.22,-250.22 229.12,-259.02 233.32,-253.42"/>
<text text-anchor="middle" x="277.5" y="-271.85" font-family="Times,serif" font-size="14.00">ind</text>
</g>
</g>
</svg>
