<?xml version="1.0" encoding="utf-8" standalone="no"?>
<!DOCTYPE svg PUBLIC "-//W3C//DTD SVG 1.1//EN"
  "http://www.w3.org/Graphics/SVG/1.1/DTD/svg11.dtd">
<svg xmlns:xlink="http://www.w3.org/1999/xlink" width="1088.39952pt" height="296.39952pt" viewBox="0 0 1088.39952 296.39952" xmlns="http://www.w3.org/2000/svg" version="1.1">
 <metadata>
  <rdf:RDF xmlns:dc="http://purl.org/dc/elements/1.1/" xmlns:cc="http://creativecommons.org/ns#" xmlns:rdf="http://www.w3.org/1999/02/22-rdf-syntax-ns#">
   <cc:Work>
    <dc:type rdf:resource="http://purl.org/dc/dcmitype/StillImage"/>
    <dc:date>2025-06-23T08:20:41.732712</dc:date>
    <dc:format>image/svg+xml</dc:format>
    <dc:creator>
     <cc:Agent>
      <dc:title>Matplotlib v3.10.3, https://matplotlib.org/</dc:title>
     </cc:Agent>
    </dc:creator>
   </cc:Work>
  </rdf:RDF>
 </metadata>
 <defs>
  <style type="text/css">*{stroke-linejoin: round; stroke-linecap: butt}</style>
 </defs>
 <g id="figure_1">
  <g id="patch_1">
   <path d="M 0 296.39952 
L 1088.39952 296.39952 
L 1088.39952 0 
L 0 0 
z
" style="fill: #ffffff"/>
  </g>
  <g id="axes_1">
   <g id="patch_2">
    <path d="M 50.14375 258.84327 
L 362.275466 258.84327 
L 362.275466 22.318125 
L 50.14375 22.318125 
z
" style="fill: #ffffff"/>
   </g>
   <g id="matplotlib.axis_1">
    <g id="xtick_1">
     <g id="line2d_1">
      <defs>
       <path id="m131525fc54" d="M 0 0 
L 0 3.5 
" style="stroke: #000000; stroke-width: 0.8"/>
      </defs>
      <g>
       <use xlink:href="#m131525fc54" x="59.349984" y="258.84327" style="stroke: #000000; stroke-width: 0.8"/>
      </g>
     </g>
     <g id="text_1">
      <!-- −8 -->
      <g transform="translate(51.97889 273.441707) scale(0.1 -0.1)">
       <defs>
        <path id="DejaVuSans-2212" d="M 678 2272 
L 4684 2272 
L 4684 1741 
L 678 1741 
L 678 2272 
z
" transform="scale(0.015625)"/>
        <path id="DejaVuSans-38" d="M 2034 2216 
Q 1584 2216 1326 1975 
Q 1069 1734 1069 1313 
Q 1069 891 1326 650 
Q 1584 409 2034 409 
Q 2484 409 2743 651 
Q 3003 894 3003 1313 
Q 3003 1734 2745 1975 
Q 2488 2216 2034 2216 
z
M 1403 2484 
Q 997 2584 770 2862 
Q 544 3141 544 3541 
Q 544 4100 942 4425 
Q 1341 4750 2034 4750 
Q 2731 4750 3128 4425 
Q 3525 4100 3525 3541 
Q 3525 3141 3298 2862 
Q 3072 2584 2669 2484 
Q 3125 2378 3379 2068 
Q 3634 1759 3634 1313 
Q 3634 634 3220 271 
Q 2806 -91 2034 -91 
Q 1263 -91 848 271 
Q 434 634 434 1313 
Q 434 1759 690 2068 
Q 947 2378 1403 2484 
z
M 1172 3481 
Q 1172 3119 1398 2916 
Q 1625 2713 2034 2713 
Q 2441 2713 2670 2916 
Q 2900 3119 2900 3481 
Q 2900 3844 2670 4047 
Q 2441 4250 2034 4250 
Q 1625 4250 1398 4047 
Q 1172 3844 1172 3481 
z
" transform="scale(0.015625)"/>
       </defs>
       <use xlink:href="#DejaVuSans-2212"/>
       <use xlink:href="#DejaVuSans-38" transform="translate(83.789062 0)"/>
      </g>
     </g>
    </g>
    <g id="xtick_2">
     <g id="line2d_2">
      <g>
       <use xlink:href="#m131525fc54" x="96.910205" y="258.84327" style="stroke: #000000; stroke-width: 0.8"/>
      </g>
     </g>
     <g id="text_2">
      <!-- −6 -->
      <g transform="translate(89.539112 273.441707) scale(0.1 -0.1)">
       <defs>
        <path id="DejaVuSans-36" d="M 2113 2584 
Q 1688 2584 1439 2293 
Q 1191 2003 1191 1497 
Q 1191 994 1439 701 
Q 1688 409 2113 409 
Q 2538 409 2786 701 
Q 3034 994 3034 1497 
Q 3034 2003 2786 2293 
Q 2538 2584 2113 2584 
z
M 3366 4563 
L 3366 3988 
Q 3128 4100 2886 4159 
Q 2644 4219 2406 4219 
Q 1781 4219 1451 3797 
Q 1122 3375 1075 2522 
Q 1259 2794 1537 2939 
Q 1816 3084 2150 3084 
Q 2853 3084 3261 2657 
Q 3669 2231 3669 1497 
Q 3669 778 3244 343 
Q 2819 -91 2113 -91 
Q 1303 -91 875 529 
Q 447 1150 447 2328 
Q 447 3434 972 4092 
Q 1497 4750 2381 4750 
Q 2619 4750 2861 4703 
Q 3103 4656 3366 4563 
z
" transform="scale(0.015625)"/>
       </defs>
       <use xlink:href="#DejaVuSans-2212"/>
       <use xlink:href="#DejaVuSans-36" transform="translate(83.789062 0)"/>
      </g>
     </g>
    </g>
    <g id="xtick_3">
     <g id="line2d_3">
      <g>
       <use xlink:href="#m131525fc54" x="134.470427" y="258.84327" style="stroke: #000000; stroke-width: 0.8"/>
      </g>
     </g>
     <g id="text_3">
      <!-- −4 -->
      <g transform="translate(127.099333 273.441707) scale(0.1 -0.1)">
       <defs>
        <path id="DejaVuSans-34" d="M 2419 4116 
L 825 1625 
L 2419 1625 
L 2419 4116 
z
M 2253 4666 
L 3047 4666 
L 3047 1625 
L 3713 1625 
L 3713 1100 
L 3047 1100 
L 3047 0 
L 2419 0 
L 2419 1100 
L 313 1100 
L 313 1709 
L 2253 4666 
z
" transform="scale(0.015625)"/>
       </defs>
       <use xlink:href="#DejaVuSans-2212"/>
       <use xlink:href="#DejaVuSans-34" transform="translate(83.789062 0)"/>
      </g>
     </g>
    </g>
    <g id="xtick_4">
     <g id="line2d_4">
      <g>
       <use xlink:href="#m131525fc54" x="172.030649" y="258.84327" style="stroke: #000000; stroke-width: 0.8"/>
      </g>
     </g>
     <g id="text_4">
      <!-- −2 -->
      <g transform="translate(164.659555 273.441707) scale(0.1 -0.1)">
       <defs>
        <path id="DejaVuSans-32" d="M 1228 531 
L 3431 531 
L 3431 0 
L 469 0 
L 469 531 
Q 828 903 1448 1529 
Q 2069 2156 2228 2338 
Q 2531 2678 2651 2914 
Q 2772 3150 2772 3378 
Q 2772 3750 2511 3984 
Q 2250 4219 1831 4219 
Q 1534 4219 1204 4116 
Q 875 4013 500 3803 
L 500 4441 
Q 881 4594 1212 4672 
Q 1544 4750 1819 4750 
Q 2544 4750 2975 4387 
Q 3406 4025 3406 3419 
Q 3406 3131 3298 2873 
Q 3191 2616 2906 2266 
Q 2828 2175 2409 1742 
Q 1991 1309 1228 531 
z
" transform="scale(0.015625)"/>
       </defs>
       <use xlink:href="#DejaVuSans-2212"/>
       <use xlink:href="#DejaVuSans-32" transform="translate(83.789062 0)"/>
      </g>
     </g>
    </g>
    <g id="xtick_5">
     <g id="line2d_5">
      <g>
       <use xlink:href="#m131525fc54" x="209.590871" y="258.84327" style="stroke: #000000; stroke-width: 0.8"/>
      </g>
     </g>
     <g id="text_5">
      <!-- 0 -->
      <g transform="translate(206.409621 273.441707) scale(0.1 -0.1)">
       <defs>
        <path id="DejaVuSans-30" d="M 2034 4250 
Q 1547 4250 1301 3770 
Q 1056 3291 1056 2328 
Q 1056 1369 1301 889 
Q 1547 409 2034 409 
Q 2525 409 2770 889 
Q 3016 1369 3016 2328 
Q 3016 3291 2770 3770 
Q 2525 4250 2034 4250 
z
M 2034 4750 
Q 2819 4750 3233 4129 
Q 3647 3509 3647 2328 
Q 3647 1150 3233 529 
Q 2819 -91 2034 -91 
Q 1250 -91 836 529 
Q 422 1150 422 2328 
Q 422 3509 836 4129 
Q 1250 4750 2034 4750 
z
" transform="scale(0.015625)"/>
       </defs>
       <use xlink:href="#DejaVuSans-30"/>
      </g>
     </g>
    </g>
    <g id="xtick_6">
     <g id="line2d_6">
      <g>
       <use xlink:href="#m131525fc54" x="247.151092" y="258.84327" style="stroke: #000000; stroke-width: 0.8"/>
      </g>
     </g>
     <g id="text_6">
      <!-- 2 -->
      <g transform="translate(243.969842 273.441707) scale(0.1 -0.1)">
       <use xlink:href="#DejaVuSans-32"/>
      </g>
     </g>
    </g>
    <g id="xtick_7">
     <g id="line2d_7">
      <g>
       <use xlink:href="#m131525fc54" x="284.711314" y="258.84327" style="stroke: #000000; stroke-width: 0.8"/>
      </g>
     </g>
     <g id="text_7">
      <!-- 4 -->
      <g transform="translate(281.530064 273.441707) scale(0.1 -0.1)">
       <use xlink:href="#DejaVuSans-34"/>
      </g>
     </g>
    </g>
    <g id="xtick_8">
     <g id="line2d_8">
      <g>
       <use xlink:href="#m131525fc54" x="322.271536" y="258.84327" style="stroke: #000000; stroke-width: 0.8"/>
      </g>
     </g>
     <g id="text_8">
      <!-- 6 -->
      <g transform="translate(319.090286 273.441707) scale(0.1 -0.1)">
       <use xlink:href="#DejaVuSans-36"/>
      </g>
     </g>
    </g>
    <g id="xtick_9">
     <g id="line2d_9">
      <g>
       <use xlink:href="#m131525fc54" x="359.831757" y="258.84327" style="stroke: #000000; stroke-width: 0.8"/>
      </g>
     </g>
     <g id="text_9">
      <!-- 8 -->
      <g transform="translate(356.650507 273.441707) scale(0.1 -0.1)">
       <use xlink:href="#DejaVuSans-38"/>
      </g>
     </g>
    </g>
    <g id="text_10">
     <!-- event [dimensionless] -->
     <g transform="translate(150.901796 287.119832) scale(0.1 -0.1)">
      <defs>
       <path id="DejaVuSans-65" d="M 3597 1894 
L 3597 1613 
L 953 1613 
Q 991 1019 1311 708 
Q 1631 397 2203 397 
Q 2534 397 2845 478 
Q 3156 559 3463 722 
L 3463 178 
Q 3153 47 2828 -22 
Q 2503 -91 2169 -91 
Q 1331 -91 842 396 
Q 353 884 353 1716 
Q 353 2575 817 3079 
Q 1281 3584 2069 3584 
Q 2775 3584 3186 3129 
Q 3597 2675 3597 1894 
z
M 3022 2063 
Q 3016 2534 2758 2815 
Q 2500 3097 2075 3097 
Q 1594 3097 1305 2825 
Q 1016 2553 972 2059 
L 3022 2063 
z
" transform="scale(0.015625)"/>
       <path id="DejaVuSans-76" d="M 191 3500 
L 800 3500 
L 1894 563 
L 2988 3500 
L 3597 3500 
L 2284 0 
L 1503 0 
L 191 3500 
z
" transform="scale(0.015625)"/>
       <path id="DejaVuSans-6e" d="M 3513 2113 
L 3513 0 
L 2938 0 
L 2938 2094 
Q 2938 2591 2744 2837 
Q 2550 3084 2163 3084 
Q 1697 3084 1428 2787 
Q 1159 2491 1159 1978 
L 1159 0 
L 581 0 
L 581 3500 
L 1159 3500 
L 1159 2956 
Q 1366 3272 1645 3428 
Q 1925 3584 2291 3584 
Q 2894 3584 3203 3211 
Q 3513 2838 3513 2113 
z
" transform="scale(0.015625)"/>
       <path id="DejaVuSans-74" d="M 1172 4494 
L 1172 3500 
L 2356 3500 
L 2356 3053 
L 1172 3053 
L 1172 1153 
Q 1172 725 1289 603 
Q 1406 481 1766 481 
L 2356 481 
L 2356 0 
L 1766 0 
Q 1100 0 847 248 
Q 594 497 594 1153 
L 594 3053 
L 172 3053 
L 172 3500 
L 594 3500 
L 594 4494 
L 1172 4494 
z
" transform="scale(0.015625)"/>
       <path id="DejaVuSans-20" transform="scale(0.015625)"/>
       <path id="DejaVuSans-5b" d="M 550 4863 
L 1875 4863 
L 1875 4416 
L 1125 4416 
L 1125 -397 
L 1875 -397 
L 1875 -844 
L 550 -844 
L 550 4863 
z
" transform="scale(0.015625)"/>
       <path id="DejaVuSans-64" d="M 2906 2969 
L 2906 4863 
L 3481 4863 
L 3481 0 
L 2906 0 
L 2906 525 
Q 2725 213 2448 61 
Q 2172 -91 1784 -91 
Q 1150 -91 751 415 
Q 353 922 353 1747 
Q 353 2572 751 3078 
Q 1150 3584 1784 3584 
Q 2172 3584 2448 3432 
Q 2725 3281 2906 2969 
z
M 947 1747 
Q 947 1113 1208 752 
Q 1469 391 1925 391 
Q 2381 391 2643 752 
Q 2906 1113 2906 1747 
Q 2906 2381 2643 2742 
Q 2381 3103 1925 3103 
Q 1469 3103 1208 2742 
Q 947 2381 947 1747 
z
" transform="scale(0.015625)"/>
       <path id="DejaVuSans-69" d="M 603 3500 
L 1178 3500 
L 1178 0 
L 603 0 
L 603 3500 
z
M 603 4863 
L 1178 4863 
L 1178 4134 
L 603 4134 
L 603 4863 
z
" transform="scale(0.015625)"/>
       <path id="DejaVuSans-6d" d="M 3328 2828 
Q 3544 3216 3844 3400 
Q 4144 3584 4550 3584 
Q 5097 3584 5394 3201 
Q 5691 2819 5691 2113 
L 5691 0 
L 5113 0 
L 5113 2094 
Q 5113 2597 4934 2840 
Q 4756 3084 4391 3084 
Q 3944 3084 3684 2787 
Q 3425 2491 3425 1978 
L 3425 0 
L 2847 0 
L 2847 2094 
Q 2847 2600 2669 2842 
Q 2491 3084 2119 3084 
Q 1678 3084 1418 2786 
Q 1159 2488 1159 1978 
L 1159 0 
L 581 0 
L 581 3500 
L 1159 3500 
L 1159 2956 
Q 1356 3278 1631 3431 
Q 1906 3584 2284 3584 
Q 2666 3584 2933 3390 
Q 3200 3197 3328 2828 
z
" transform="scale(0.015625)"/>
       <path id="DejaVuSans-73" d="M 2834 3397 
L 2834 2853 
Q 2591 2978 2328 3040 
Q 2066 3103 1784 3103 
Q 1356 3103 1142 2972 
Q 928 2841 928 2578 
Q 928 2378 1081 2264 
Q 1234 2150 1697 2047 
L 1894 2003 
Q 2506 1872 2764 1633 
Q 3022 1394 3022 966 
Q 3022 478 2636 193 
Q 2250 -91 1575 -91 
Q 1294 -91 989 -36 
Q 684 19 347 128 
L 347 722 
Q 666 556 975 473 
Q 1284 391 1588 391 
Q 1994 391 2212 530 
Q 2431 669 2431 922 
Q 2431 1156 2273 1281 
Q 2116 1406 1581 1522 
L 1381 1569 
Q 847 1681 609 1914 
Q 372 2147 372 2553 
Q 372 3047 722 3315 
Q 1072 3584 1716 3584 
Q 2034 3584 2315 3537 
Q 2597 3491 2834 3397 
z
" transform="scale(0.015625)"/>
       <path id="DejaVuSans-6f" d="M 1959 3097 
Q 1497 3097 1228 2736 
Q 959 2375 959 1747 
Q 959 1119 1226 758 
Q 1494 397 1959 397 
Q 2419 397 2687 759 
Q 2956 1122 2956 1747 
Q 2956 2369 2687 2733 
Q 2419 3097 1959 3097 
z
M 1959 3584 
Q 2709 3584 3137 3096 
Q 3566 2609 3566 1747 
Q 3566 888 3137 398 
Q 2709 -91 1959 -91 
Q 1206 -91 779 398 
Q 353 888 353 1747 
Q 353 2609 779 3096 
Q 1206 3584 1959 3584 
z
" transform="scale(0.015625)"/>
       <path id="DejaVuSans-6c" d="M 603 4863 
L 1178 4863 
L 1178 0 
L 603 0 
L 603 4863 
z
" transform="scale(0.015625)"/>
       <path id="DejaVuSans-5d" d="M 1947 4863 
L 1947 -844 
L 622 -844 
L 622 -397 
L 1369 -397 
L 1369 4416 
L 622 4416 
L 622 4863 
L 1947 4863 
z
" transform="scale(0.015625)"/>
      </defs>
      <use xlink:href="#DejaVuSans-65"/>
      <use xlink:href="#DejaVuSans-76" transform="translate(61.523438 0)"/>
      <use xlink:href="#DejaVuSans-65" transform="translate(120.703125 0)"/>
      <use xlink:href="#DejaVuSans-6e" transform="translate(182.226562 0)"/>
      <use xlink:href="#DejaVuSans-74" transform="translate(245.605469 0)"/>
      <use xlink:href="#DejaVuSans-20" transform="translate(284.814453 0)"/>
      <use xlink:href="#DejaVuSans-5b" transform="translate(316.601562 0)"/>
      <use xlink:href="#DejaVuSans-64" transform="translate(355.615234 0)"/>
      <use xlink:href="#DejaVuSans-69" transform="translate(419.091797 0)"/>
      <use xlink:href="#DejaVuSans-6d" transform="translate(446.875 0)"/>
      <use xlink:href="#DejaVuSans-65" transform="translate(544.287109 0)"/>
      <use xlink:href="#DejaVuSans-6e" transform="translate(605.810547 0)"/>
      <use xlink:href="#DejaVuSans-73" transform="translate(669.189453 0)"/>
      <use xlink:href="#DejaVuSans-69" transform="translate(721.289062 0)"/>
      <use xlink:href="#DejaVuSans-6f" transform="translate(749.072266 0)"/>
      <use xlink:href="#DejaVuSans-6e" transform="translate(810.253906 0)"/>
      <use xlink:href="#DejaVuSans-6c" transform="translate(873.632812 0)"/>
      <use xlink:href="#DejaVuSans-65" transform="translate(901.416016 0)"/>
      <use xlink:href="#DejaVuSans-73" transform="translate(962.939453 0)"/>
      <use xlink:href="#DejaVuSans-73" transform="translate(1015.039062 0)"/>
      <use xlink:href="#DejaVuSans-5d" transform="translate(1067.138672 0)"/>
     </g>
    </g>
   </g>
   <g id="matplotlib.axis_2">
    <g id="ytick_1">
     <g id="line2d_10">
      <defs>
       <path id="m5e4f22d2b6" d="M 0 0 
L -3.5 0 
" style="stroke: #000000; stroke-width: 0.8"/>
      </defs>
      <g>
       <use xlink:href="#m5e4f22d2b6" x="50.14375" y="248.230494" style="stroke: #000000; stroke-width: 0.8"/>
      </g>
     </g>
     <g id="text_11">
      <!-- 0.00 -->
      <g transform="translate(20.878125 252.029713) scale(0.1 -0.1)">
       <defs>
        <path id="DejaVuSans-2e" d="M 684 794 
L 1344 794 
L 1344 0 
L 684 0 
L 684 794 
z
" transform="scale(0.015625)"/>
       </defs>
       <use xlink:href="#DejaVuSans-30"/>
       <use xlink:href="#DejaVuSans-2e" transform="translate(63.623047 0)"/>
       <use xlink:href="#DejaVuSans-30" transform="translate(95.410156 0)"/>
       <use xlink:href="#DejaVuSans-30" transform="translate(159.033203 0)"/>
      </g>
     </g>
    </g>
    <g id="ytick_2">
     <g id="line2d_11">
      <g>
       <use xlink:href="#m5e4f22d2b6" x="50.14375" y="213.638657" style="stroke: #000000; stroke-width: 0.8"/>
      </g>
     </g>
     <g id="text_12">
      <!-- 0.05 -->
      <g transform="translate(20.878125 217.437876) scale(0.1 -0.1)">
       <defs>
        <path id="DejaVuSans-35" d="M 691 4666 
L 3169 4666 
L 3169 4134 
L 1269 4134 
L 1269 2991 
Q 1406 3038 1543 3061 
Q 1681 3084 1819 3084 
Q 2600 3084 3056 2656 
Q 3513 2228 3513 1497 
Q 3513 744 3044 326 
Q 2575 -91 1722 -91 
Q 1428 -91 1123 -41 
Q 819 9 494 109 
L 494 744 
Q 775 591 1075 516 
Q 1375 441 1709 441 
Q 2250 441 2565 725 
Q 2881 1009 2881 1497 
Q 2881 1984 2565 2268 
Q 2250 2553 1709 2553 
Q 1456 2553 1204 2497 
Q 953 2441 691 2322 
L 691 4666 
z
" transform="scale(0.015625)"/>
       </defs>
       <use xlink:href="#DejaVuSans-30"/>
       <use xlink:href="#DejaVuSans-2e" transform="translate(63.623047 0)"/>
       <use xlink:href="#DejaVuSans-30" transform="translate(95.410156 0)"/>
       <use xlink:href="#DejaVuSans-35" transform="translate(159.033203 0)"/>
      </g>
     </g>
    </g>
    <g id="ytick_3">
     <g id="line2d_12">
      <g>
       <use xlink:href="#m5e4f22d2b6" x="50.14375" y="179.04682" style="stroke: #000000; stroke-width: 0.8"/>
      </g>
     </g>
     <g id="text_13">
      <!-- 0.10 -->
      <g transform="translate(20.878125 182.846039) scale(0.1 -0.1)">
       <defs>
        <path id="DejaVuSans-31" d="M 794 531 
L 1825 531 
L 1825 4091 
L 703 3866 
L 703 4441 
L 1819 4666 
L 2450 4666 
L 2450 531 
L 3481 531 
L 3481 0 
L 794 0 
L 794 531 
z
" transform="scale(0.015625)"/>
       </defs>
       <use xlink:href="#DejaVuSans-30"/>
       <use xlink:href="#DejaVuSans-2e" transform="translate(63.623047 0)"/>
       <use xlink:href="#DejaVuSans-31" transform="translate(95.410156 0)"/>
       <use xlink:href="#DejaVuSans-30" transform="translate(159.033203 0)"/>
      </g>
     </g>
    </g>
    <g id="ytick_4">
     <g id="line2d_13">
      <g>
       <use xlink:href="#m5e4f22d2b6" x="50.14375" y="144.454983" style="stroke: #000000; stroke-width: 0.8"/>
      </g>
     </g>
     <g id="text_14">
      <!-- 0.15 -->
      <g transform="translate(20.878125 148.254202) scale(0.1 -0.1)">
       <use xlink:href="#DejaVuSans-30"/>
       <use xlink:href="#DejaVuSans-2e" transform="translate(63.623047 0)"/>
       <use xlink:href="#DejaVuSans-31" transform="translate(95.410156 0)"/>
       <use xlink:href="#DejaVuSans-35" transform="translate(159.033203 0)"/>
      </g>
     </g>
    </g>
    <g id="ytick_5">
     <g id="line2d_14">
      <g>
       <use xlink:href="#m5e4f22d2b6" x="50.14375" y="109.863146" style="stroke: #000000; stroke-width: 0.8"/>
      </g>
     </g>
     <g id="text_15">
      <!-- 0.20 -->
      <g transform="translate(20.878125 113.662365) scale(0.1 -0.1)">
       <use xlink:href="#DejaVuSans-30"/>
       <use xlink:href="#DejaVuSans-2e" transform="translate(63.623047 0)"/>
       <use xlink:href="#DejaVuSans-32" transform="translate(95.410156 0)"/>
       <use xlink:href="#DejaVuSans-30" transform="translate(159.033203 0)"/>
      </g>
     </g>
    </g>
    <g id="ytick_6">
     <g id="line2d_15">
      <g>
       <use xlink:href="#m5e4f22d2b6" x="50.14375" y="75.271309" style="stroke: #000000; stroke-width: 0.8"/>
      </g>
     </g>
     <g id="text_16">
      <!-- 0.25 -->
      <g transform="translate(20.878125 79.070528) scale(0.1 -0.1)">
       <use xlink:href="#DejaVuSans-30"/>
       <use xlink:href="#DejaVuSans-2e" transform="translate(63.623047 0)"/>
       <use xlink:href="#DejaVuSans-32" transform="translate(95.410156 0)"/>
       <use xlink:href="#DejaVuSans-35" transform="translate(159.033203 0)"/>
      </g>
     </g>
    </g>
    <g id="ytick_7">
     <g id="line2d_16">
      <g>
       <use xlink:href="#m5e4f22d2b6" x="50.14375" y="40.679472" style="stroke: #000000; stroke-width: 0.8"/>
      </g>
     </g>
     <g id="text_17">
      <!-- 0.30 -->
      <g transform="translate(20.878125 44.478691) scale(0.1 -0.1)">
       <defs>
        <path id="DejaVuSans-33" d="M 2597 2516 
Q 3050 2419 3304 2112 
Q 3559 1806 3559 1356 
Q 3559 666 3084 287 
Q 2609 -91 1734 -91 
Q 1441 -91 1130 -33 
Q 819 25 488 141 
L 488 750 
Q 750 597 1062 519 
Q 1375 441 1716 441 
Q 2309 441 2620 675 
Q 2931 909 2931 1356 
Q 2931 1769 2642 2001 
Q 2353 2234 1838 2234 
L 1294 2234 
L 1294 2753 
L 1863 2753 
Q 2328 2753 2575 2939 
Q 2822 3125 2822 3475 
Q 2822 3834 2567 4026 
Q 2313 4219 1838 4219 
Q 1578 4219 1281 4162 
Q 984 4106 628 3988 
L 628 4550 
Q 988 4650 1302 4700 
Q 1616 4750 1894 4750 
Q 2613 4750 3031 4423 
Q 3450 4097 3450 3541 
Q 3450 3153 3228 2886 
Q 3006 2619 2597 2516 
z
" transform="scale(0.015625)"/>
       </defs>
       <use xlink:href="#DejaVuSans-30"/>
       <use xlink:href="#DejaVuSans-2e" transform="translate(63.623047 0)"/>
       <use xlink:href="#DejaVuSans-33" transform="translate(95.410156 0)"/>
       <use xlink:href="#DejaVuSans-30" transform="translate(159.033203 0)"/>
      </g>
     </g>
    </g>
    <g id="text_18">
     <!-- [counts] -->
     <g transform="translate(14.798438 161.193197) rotate(-90) scale(0.1 -0.1)">
      <defs>
       <path id="DejaVuSans-63" d="M 3122 3366 
L 3122 2828 
Q 2878 2963 2633 3030 
Q 2388 3097 2138 3097 
Q 1578 3097 1268 2742 
Q 959 2388 959 1747 
Q 959 1106 1268 751 
Q 1578 397 2138 397 
Q 2388 397 2633 464 
Q 2878 531 3122 666 
L 3122 134 
Q 2881 22 2623 -34 
Q 2366 -91 2075 -91 
Q 1284 -91 818 406 
Q 353 903 353 1747 
Q 353 2603 823 3093 
Q 1294 3584 2113 3584 
Q 2378 3584 2631 3529 
Q 2884 3475 3122 3366 
z
" transform="scale(0.015625)"/>
       <path id="DejaVuSans-75" d="M 544 1381 
L 544 3500 
L 1119 3500 
L 1119 1403 
Q 1119 906 1312 657 
Q 1506 409 1894 409 
Q 2359 409 2629 706 
Q 2900 1003 2900 1516 
L 2900 3500 
L 3475 3500 
L 3475 0 
L 2900 0 
L 2900 538 
Q 2691 219 2414 64 
Q 2138 -91 1772 -91 
Q 1169 -91 856 284 
Q 544 659 544 1381 
z
M 1991 3584 
L 1991 3584 
z
" transform="scale(0.015625)"/>
      </defs>
      <use xlink:href="#DejaVuSans-5b"/>
      <use xlink:href="#DejaVuSans-63" transform="translate(39.013672 0)"/>
      <use xlink:href="#DejaVuSans-6f" transform="translate(93.994141 0)"/>
      <use xlink:href="#DejaVuSans-75" transform="translate(155.175781 0)"/>
      <use xlink:href="#DejaVuSans-6e" transform="translate(218.554688 0)"/>
      <use xlink:href="#DejaVuSans-74" transform="translate(281.933594 0)"/>
      <use xlink:href="#DejaVuSans-73" transform="translate(321.142578 0)"/>
      <use xlink:href="#DejaVuSans-5d" transform="translate(373.242188 0)"/>
     </g>
    </g>
   </g>
   <g id="line2d_17">
    <path d="M 170.857979 247.815392 
L 170.857979 247.815392 
L 178.54929 247.815392 
L 178.54929 244.217841 
L 186.2406 244.217841 
L 186.2406 219.034984 
L 193.93191 219.034984 
L 193.93191 140.580697 
L 201.62322 140.580697 
L 201.62322 49.742533 
L 209.314531 49.742533 
L 209.314531 43.100901 
L 217.005841 43.100901 
L 217.005841 139.68131 
L 224.697151 139.68131 
L 224.697151 214.953147 
L 232.388462 214.953147 
L 232.388462 243.387637 
L 240.079772 243.387637 
L 240.079772 247.95376 
L 247.771082 247.95376 
" clip-path="url(#pc89f4438d2)" style="fill: none; stroke: #1f77b4; stroke-opacity: 0.8; stroke-width: 4; stroke-linecap: square"/>
   </g>
   <g id="line2d_18">
    <path d="M 139.716272 247.469474 
L 139.716272 247.469474 
L 154.758305 247.469474 
L 154.758305 235.984984 
L 169.800338 235.984984 
L 169.800338 194.128861 
L 184.842372 194.128861 
L 184.842372 106.611514 
L 199.884405 106.611514 
L 199.884405 33.069268 
L 214.926438 33.069268 
L 214.926438 76.447432 
L 229.968472 76.447432 
L 229.968472 172.543555 
L 245.010505 172.543555 
L 245.010505 229.966004 
L 260.052538 229.966004 
L 260.052538 246.154984 
L 275.094572 246.154984 
L 275.094572 248.092127 
L 290.136605 248.092127 
" clip-path="url(#pc89f4438d2)" style="fill: none; stroke: #ff7f0e; stroke-opacity: 0.8; stroke-width: 4; stroke-linecap: square"/>
   </g>
   <g id="line2d_19">
    <path d="M 64.331555 247.469474 
L 64.331555 247.469474 
L 92.707166 247.469474 
L 92.707166 242.6958 
L 121.082776 242.6958 
L 121.082776 215.852535 
L 149.458387 215.852535 
L 149.458387 148.744371 
L 177.833998 148.744371 
L 177.833998 64.340289 
L 206.209608 64.340289 
L 206.209608 55.277227 
L 234.585219 55.277227 
L 234.585219 127.089881 
L 262.960829 127.089881 
L 262.960829 203.399474 
L 291.33644 203.399474 
L 291.33644 238.683147 
L 319.71205 238.683147 
L 319.71205 246.916005 
L 348.087661 246.916005 
" clip-path="url(#pc89f4438d2)" style="fill: none; stroke: #2ca02c; stroke-opacity: 0.8; stroke-width: 4; stroke-linecap: square"/>
   </g>
   <g id="patch_3">
    <path d="M 50.14375 258.84327 
L 50.14375 22.318125 
" style="fill: none; stroke: #000000; stroke-width: 0.8; stroke-linejoin: miter; stroke-linecap: square"/>
   </g>
   <g id="patch_4">
    <path d="M 362.275466 258.84327 
L 362.275466 22.318125 
" style="fill: none; stroke: #000000; stroke-width: 0.8; stroke-linejoin: miter; stroke-linecap: square"/>
   </g>
   <g id="patch_5">
    <path d="M 50.14375 258.84327 
L 362.275466 258.84327 
" style="fill: none; stroke: #000000; stroke-width: 0.8; stroke-linejoin: miter; stroke-linecap: square"/>
   </g>
   <g id="patch_6">
    <path d="M 50.14375 22.318125 
L 362.275466 22.318125 
" style="fill: none; stroke: #000000; stroke-width: 0.8; stroke-linejoin: miter; stroke-linecap: square"/>
   </g>
   <g id="text_19">
    <!-- normal distribution -->
    <g transform="translate(149.087733 16.318125) scale(0.12 -0.12)">
     <defs>
      <path id="DejaVuSans-72" d="M 2631 2963 
Q 2534 3019 2420 3045 
Q 2306 3072 2169 3072 
Q 1681 3072 1420 2755 
Q 1159 2438 1159 1844 
L 1159 0 
L 581 0 
L 581 3500 
L 1159 3500 
L 1159 2956 
Q 1341 3275 1631 3429 
Q 1922 3584 2338 3584 
Q 2397 3584 2469 3576 
Q 2541 3569 2628 3553 
L 2631 2963 
z
" transform="scale(0.015625)"/>
      <path id="DejaVuSans-61" d="M 2194 1759 
Q 1497 1759 1228 1600 
Q 959 1441 959 1056 
Q 959 750 1161 570 
Q 1363 391 1709 391 
Q 2188 391 2477 730 
Q 2766 1069 2766 1631 
L 2766 1759 
L 2194 1759 
z
M 3341 1997 
L 3341 0 
L 2766 0 
L 2766 531 
Q 2569 213 2275 61 
Q 1981 -91 1556 -91 
Q 1019 -91 701 211 
Q 384 513 384 1019 
Q 384 1609 779 1909 
Q 1175 2209 1959 2209 
L 2766 2209 
L 2766 2266 
Q 2766 2663 2505 2880 
Q 2244 3097 1772 3097 
Q 1472 3097 1187 3025 
Q 903 2953 641 2809 
L 641 3341 
Q 956 3463 1253 3523 
Q 1550 3584 1831 3584 
Q 2591 3584 2966 3190 
Q 3341 2797 3341 1997 
z
" transform="scale(0.015625)"/>
      <path id="DejaVuSans-62" d="M 3116 1747 
Q 3116 2381 2855 2742 
Q 2594 3103 2138 3103 
Q 1681 3103 1420 2742 
Q 1159 2381 1159 1747 
Q 1159 1113 1420 752 
Q 1681 391 2138 391 
Q 2594 391 2855 752 
Q 3116 1113 3116 1747 
z
M 1159 2969 
Q 1341 3281 1617 3432 
Q 1894 3584 2278 3584 
Q 2916 3584 3314 3078 
Q 3713 2572 3713 1747 
Q 3713 922 3314 415 
Q 2916 -91 2278 -91 
Q 1894 -91 1617 61 
Q 1341 213 1159 525 
L 1159 0 
L 581 0 
L 581 4863 
L 1159 4863 
L 1159 2969 
z
" transform="scale(0.015625)"/>
     </defs>
     <use xlink:href="#DejaVuSans-6e"/>
     <use xlink:href="#DejaVuSans-6f" transform="translate(63.378906 0)"/>
     <use xlink:href="#DejaVuSans-72" transform="translate(124.560547 0)"/>
     <use xlink:href="#DejaVuSans-6d" transform="translate(163.923828 0)"/>
     <use xlink:href="#DejaVuSans-61" transform="translate(261.335938 0)"/>
     <use xlink:href="#DejaVuSans-6c" transform="translate(322.615234 0)"/>
     <use xlink:href="#DejaVuSans-20" transform="translate(350.398438 0)"/>
     <use xlink:href="#DejaVuSans-64" transform="translate(382.185547 0)"/>
     <use xlink:href="#DejaVuSans-69" transform="translate(445.662109 0)"/>
     <use xlink:href="#DejaVuSans-73" transform="translate(473.445312 0)"/>
     <use xlink:href="#DejaVuSans-74" transform="translate(525.544922 0)"/>
     <use xlink:href="#DejaVuSans-72" transform="translate(564.753906 0)"/>
     <use xlink:href="#DejaVuSans-69" transform="translate(605.867188 0)"/>
     <use xlink:href="#DejaVuSans-62" transform="translate(633.650391 0)"/>
     <use xlink:href="#DejaVuSans-75" transform="translate(697.126953 0)"/>
     <use xlink:href="#DejaVuSans-74" transform="translate(760.505859 0)"/>
     <use xlink:href="#DejaVuSans-69" transform="translate(799.714844 0)"/>
     <use xlink:href="#DejaVuSans-6f" transform="translate(827.498047 0)"/>
     <use xlink:href="#DejaVuSans-6e" transform="translate(888.679688 0)"/>
    </g>
   </g>
   <g id="legend_1">
    <g id="patch_7">
     <path d="M 244.575466 74.3525 
L 355.275466 74.3525 
Q 357.275466 74.3525 357.275466 72.3525 
L 357.275466 29.318125 
Q 357.275466 27.318125 355.275466 27.318125 
L 244.575466 27.318125 
Q 242.575466 27.318125 242.575466 29.318125 
L 242.575466 72.3525 
Q 242.575466 74.3525 244.575466 74.3525 
z
" style="fill: #ffffff; opacity: 0.8; stroke: #cccccc; stroke-linejoin: miter"/>
    </g>
    <g id="line2d_20">
     <path d="M 246.575466 35.416562 
L 246.575466 35.416562 
L 256.575466 35.416562 
L 256.575466 35.416562 
L 266.575466 35.416562 
" style="fill: none; stroke: #1f77b4; stroke-opacity: 0.8; stroke-width: 4; stroke-linecap: square"/>
    </g>
    <g id="text_20">
     <!-- loc: 0,scale: 0.5 -->
     <g transform="translate(274.575466 38.916562) scale(0.1 -0.1)">
      <defs>
       <path id="DejaVuSans-3a" d="M 750 794 
L 1409 794 
L 1409 0 
L 750 0 
L 750 794 
z
M 750 3309 
L 1409 3309 
L 1409 2516 
L 750 2516 
L 750 3309 
z
" transform="scale(0.015625)"/>
       <path id="DejaVuSans-2c" d="M 750 794 
L 1409 794 
L 1409 256 
L 897 -744 
L 494 -744 
L 750 256 
L 750 794 
z
" transform="scale(0.015625)"/>
      </defs>
      <use xlink:href="#DejaVuSans-6c"/>
      <use xlink:href="#DejaVuSans-6f" transform="translate(27.783203 0)"/>
      <use xlink:href="#DejaVuSans-63" transform="translate(88.964844 0)"/>
      <use xlink:href="#DejaVuSans-3a" transform="translate(143.945312 0)"/>
      <use xlink:href="#DejaVuSans-20" transform="translate(177.636719 0)"/>
      <use xlink:href="#DejaVuSans-30" transform="translate(209.423828 0)"/>
      <use xlink:href="#DejaVuSans-2c" transform="translate(273.046875 0)"/>
      <use xlink:href="#DejaVuSans-73" transform="translate(304.833984 0)"/>
      <use xlink:href="#DejaVuSans-63" transform="translate(356.933594 0)"/>
      <use xlink:href="#DejaVuSans-61" transform="translate(411.914062 0)"/>
      <use xlink:href="#DejaVuSans-6c" transform="translate(473.193359 0)"/>
      <use xlink:href="#DejaVuSans-65" transform="translate(500.976562 0)"/>
      <use xlink:href="#DejaVuSans-3a" transform="translate(562.5 0)"/>
      <use xlink:href="#DejaVuSans-20" transform="translate(596.191406 0)"/>
      <use xlink:href="#DejaVuSans-30" transform="translate(627.978516 0)"/>
      <use xlink:href="#DejaVuSans-2e" transform="translate(691.601562 0)"/>
      <use xlink:href="#DejaVuSans-35" transform="translate(723.388672 0)"/>
     </g>
    </g>
    <g id="line2d_21">
     <path d="M 246.575466 50.094687 
L 246.575466 50.094687 
L 256.575466 50.094687 
L 256.575466 50.094687 
L 266.575466 50.094687 
" style="fill: none; stroke: #ff7f0e; stroke-opacity: 0.8; stroke-width: 4; stroke-linecap: square"/>
    </g>
    <g id="text_21">
     <!-- loc: 0,scale: 1 -->
     <g transform="translate(274.575466 53.594687) scale(0.1 -0.1)">
      <use xlink:href="#DejaVuSans-6c"/>
      <use xlink:href="#DejaVuSans-6f" transform="translate(27.783203 0)"/>
      <use xlink:href="#DejaVuSans-63" transform="translate(88.964844 0)"/>
      <use xlink:href="#DejaVuSans-3a" transform="translate(143.945312 0)"/>
      <use xlink:href="#DejaVuSans-20" transform="translate(177.636719 0)"/>
      <use xlink:href="#DejaVuSans-30" transform="translate(209.423828 0)"/>
      <use xlink:href="#DejaVuSans-2c" transform="translate(273.046875 0)"/>
      <use xlink:href="#DejaVuSans-73" transform="translate(304.833984 0)"/>
      <use xlink:href="#DejaVuSans-63" transform="translate(356.933594 0)"/>
      <use xlink:href="#DejaVuSans-61" transform="translate(411.914062 0)"/>
      <use xlink:href="#DejaVuSans-6c" transform="translate(473.193359 0)"/>
      <use xlink:href="#DejaVuSans-65" transform="translate(500.976562 0)"/>
      <use xlink:href="#DejaVuSans-3a" transform="translate(562.5 0)"/>
      <use xlink:href="#DejaVuSans-20" transform="translate(596.191406 0)"/>
      <use xlink:href="#DejaVuSans-31" transform="translate(627.978516 0)"/>
     </g>
    </g>
    <g id="line2d_22">
     <path d="M 246.575466 64.772812 
L 246.575466 64.772812 
L 256.575466 64.772812 
L 256.575466 64.772812 
L 266.575466 64.772812 
" style="fill: none; stroke: #2ca02c; stroke-opacity: 0.8; stroke-width: 4; stroke-linecap: square"/>
    </g>
    <g id="text_22">
     <!-- loc: 0,scale: 2 -->
     <g transform="translate(274.575466 68.272812) scale(0.1 -0.1)">
      <use xlink:href="#DejaVuSans-6c"/>
      <use xlink:href="#DejaVuSans-6f" transform="translate(27.783203 0)"/>
      <use xlink:href="#DejaVuSans-63" transform="translate(88.964844 0)"/>
      <use xlink:href="#DejaVuSans-3a" transform="translate(143.945312 0)"/>
      <use xlink:href="#DejaVuSans-20" transform="translate(177.636719 0)"/>
      <use xlink:href="#DejaVuSans-30" transform="translate(209.423828 0)"/>
      <use xlink:href="#DejaVuSans-2c" transform="translate(273.046875 0)"/>
      <use xlink:href="#DejaVuSans-73" transform="translate(304.833984 0)"/>
      <use xlink:href="#DejaVuSans-63" transform="translate(356.933594 0)"/>
      <use xlink:href="#DejaVuSans-61" transform="translate(411.914062 0)"/>
      <use xlink:href="#DejaVuSans-6c" transform="translate(473.193359 0)"/>
      <use xlink:href="#DejaVuSans-65" transform="translate(500.976562 0)"/>
      <use xlink:href="#DejaVuSans-3a" transform="translate(562.5 0)"/>
      <use xlink:href="#DejaVuSans-20" transform="translate(596.191406 0)"/>
      <use xlink:href="#DejaVuSans-32" transform="translate(627.978516 0)"/>
     </g>
    </g>
   </g>
  </g>
  <g id="axes_2">
   <g id="patch_8">
    <path d="M 406.792338 258.84327 
L 718.924054 258.84327 
L 718.924054 22.318125 
L 406.792338 22.318125 
z
" style="fill: #ffffff"/>
   </g>
   <g id="matplotlib.axis_3">
    <g id="xtick_10">
     <g id="line2d_23">
      <g>
       <use xlink:href="#m131525fc54" x="414.405864" y="258.84327" style="stroke: #000000; stroke-width: 0.8"/>
      </g>
     </g>
     <g id="text_23">
      <!-- −20 -->
      <g transform="translate(403.85352 273.441707) scale(0.1 -0.1)">
       <use xlink:href="#DejaVuSans-2212"/>
       <use xlink:href="#DejaVuSans-32" transform="translate(83.789062 0)"/>
       <use xlink:href="#DejaVuSans-30" transform="translate(147.412109 0)"/>
      </g>
     </g>
    </g>
    <g id="xtick_11">
     <g id="line2d_24">
      <g>
       <use xlink:href="#m131525fc54" x="482.43585" y="258.84327" style="stroke: #000000; stroke-width: 0.8"/>
      </g>
     </g>
     <g id="text_24">
      <!-- −10 -->
      <g transform="translate(471.883506 273.441707) scale(0.1 -0.1)">
       <use xlink:href="#DejaVuSans-2212"/>
       <use xlink:href="#DejaVuSans-31" transform="translate(83.789062 0)"/>
       <use xlink:href="#DejaVuSans-30" transform="translate(147.412109 0)"/>
      </g>
     </g>
    </g>
    <g id="xtick_12">
     <g id="line2d_25">
      <g>
       <use xlink:href="#m131525fc54" x="550.465835" y="258.84327" style="stroke: #000000; stroke-width: 0.8"/>
      </g>
     </g>
     <g id="text_25">
      <!-- 0 -->
      <g transform="translate(547.284585 273.441707) scale(0.1 -0.1)">
       <use xlink:href="#DejaVuSans-30"/>
      </g>
     </g>
    </g>
    <g id="xtick_13">
     <g id="line2d_26">
      <g>
       <use xlink:href="#m131525fc54" x="618.495821" y="258.84327" style="stroke: #000000; stroke-width: 0.8"/>
      </g>
     </g>
     <g id="text_26">
      <!-- 10 -->
      <g transform="translate(612.133321 273.441707) scale(0.1 -0.1)">
       <use xlink:href="#DejaVuSans-31"/>
       <use xlink:href="#DejaVuSans-30" transform="translate(63.623047 0)"/>
      </g>
     </g>
    </g>
    <g id="xtick_14">
     <g id="line2d_27">
      <g>
       <use xlink:href="#m131525fc54" x="686.525807" y="258.84327" style="stroke: #000000; stroke-width: 0.8"/>
      </g>
     </g>
     <g id="text_27">
      <!-- 20 -->
      <g transform="translate(680.163307 273.441707) scale(0.1 -0.1)">
       <use xlink:href="#DejaVuSans-32"/>
       <use xlink:href="#DejaVuSans-30" transform="translate(63.623047 0)"/>
      </g>
     </g>
    </g>
    <g id="text_28">
     <!-- event [dimensionless] -->
     <g transform="translate(507.550383 287.119832) scale(0.1 -0.1)">
      <use xlink:href="#DejaVuSans-65"/>
      <use xlink:href="#DejaVuSans-76" transform="translate(61.523438 0)"/>
      <use xlink:href="#DejaVuSans-65" transform="translate(120.703125 0)"/>
      <use xlink:href="#DejaVuSans-6e" transform="translate(182.226562 0)"/>
      <use xlink:href="#DejaVuSans-74" transform="translate(245.605469 0)"/>
      <use xlink:href="#DejaVuSans-20" transform="translate(284.814453 0)"/>
      <use xlink:href="#DejaVuSans-5b" transform="translate(316.601562 0)"/>
      <use xlink:href="#DejaVuSans-64" transform="translate(355.615234 0)"/>
      <use xlink:href="#DejaVuSans-69" transform="translate(419.091797 0)"/>
      <use xlink:href="#DejaVuSans-6d" transform="translate(446.875 0)"/>
      <use xlink:href="#DejaVuSans-65" transform="translate(544.287109 0)"/>
      <use xlink:href="#DejaVuSans-6e" transform="translate(605.810547 0)"/>
      <use xlink:href="#DejaVuSans-73" transform="translate(669.189453 0)"/>
      <use xlink:href="#DejaVuSans-69" transform="translate(721.289062 0)"/>
      <use xlink:href="#DejaVuSans-6f" transform="translate(749.072266 0)"/>
      <use xlink:href="#DejaVuSans-6e" transform="translate(810.253906 0)"/>
      <use xlink:href="#DejaVuSans-6c" transform="translate(873.632812 0)"/>
      <use xlink:href="#DejaVuSans-65" transform="translate(901.416016 0)"/>
      <use xlink:href="#DejaVuSans-73" transform="translate(962.939453 0)"/>
      <use xlink:href="#DejaVuSans-73" transform="translate(1015.039062 0)"/>
      <use xlink:href="#DejaVuSans-5d" transform="translate(1067.138672 0)"/>
     </g>
    </g>
   </g>
   <g id="matplotlib.axis_4">
    <g id="ytick_8">
     <g id="line2d_28">
      <g>
       <use xlink:href="#m5e4f22d2b6" x="406.792338" y="248.12532" style="stroke: #000000; stroke-width: 0.8"/>
      </g>
     </g>
     <g id="text_29">
      <!-- 0.0 -->
      <g transform="translate(383.889213 251.924539) scale(0.1 -0.1)">
       <use xlink:href="#DejaVuSans-30"/>
       <use xlink:href="#DejaVuSans-2e" transform="translate(63.623047 0)"/>
       <use xlink:href="#DejaVuSans-30" transform="translate(95.410156 0)"/>
      </g>
     </g>
    </g>
    <g id="ytick_9">
     <g id="line2d_29">
      <g>
       <use xlink:href="#m5e4f22d2b6" x="406.792338" y="214.932535" style="stroke: #000000; stroke-width: 0.8"/>
      </g>
     </g>
     <g id="text_30">
      <!-- 0.1 -->
      <g transform="translate(383.889213 218.731754) scale(0.1 -0.1)">
       <use xlink:href="#DejaVuSans-30"/>
       <use xlink:href="#DejaVuSans-2e" transform="translate(63.623047 0)"/>
       <use xlink:href="#DejaVuSans-31" transform="translate(95.410156 0)"/>
      </g>
     </g>
    </g>
    <g id="ytick_10">
     <g id="line2d_30">
      <g>
       <use xlink:href="#m5e4f22d2b6" x="406.792338" y="181.73975" style="stroke: #000000; stroke-width: 0.8"/>
      </g>
     </g>
     <g id="text_31">
      <!-- 0.2 -->
      <g transform="translate(383.889213 185.538969) scale(0.1 -0.1)">
       <use xlink:href="#DejaVuSans-30"/>
       <use xlink:href="#DejaVuSans-2e" transform="translate(63.623047 0)"/>
       <use xlink:href="#DejaVuSans-32" transform="translate(95.410156 0)"/>
      </g>
     </g>
    </g>
    <g id="ytick_11">
     <g id="line2d_31">
      <g>
       <use xlink:href="#m5e4f22d2b6" x="406.792338" y="148.546966" style="stroke: #000000; stroke-width: 0.8"/>
      </g>
     </g>
     <g id="text_32">
      <!-- 0.3 -->
      <g transform="translate(383.889213 152.346185) scale(0.1 -0.1)">
       <use xlink:href="#DejaVuSans-30"/>
       <use xlink:href="#DejaVuSans-2e" transform="translate(63.623047 0)"/>
       <use xlink:href="#DejaVuSans-33" transform="translate(95.410156 0)"/>
      </g>
     </g>
    </g>
    <g id="ytick_12">
     <g id="line2d_32">
      <g>
       <use xlink:href="#m5e4f22d2b6" x="406.792338" y="115.354181" style="stroke: #000000; stroke-width: 0.8"/>
      </g>
     </g>
     <g id="text_33">
      <!-- 0.4 -->
      <g transform="translate(383.889213 119.1534) scale(0.1 -0.1)">
       <use xlink:href="#DejaVuSans-30"/>
       <use xlink:href="#DejaVuSans-2e" transform="translate(63.623047 0)"/>
       <use xlink:href="#DejaVuSans-34" transform="translate(95.410156 0)"/>
      </g>
     </g>
    </g>
    <g id="ytick_13">
     <g id="line2d_33">
      <g>
       <use xlink:href="#m5e4f22d2b6" x="406.792338" y="82.161396" style="stroke: #000000; stroke-width: 0.8"/>
      </g>
     </g>
     <g id="text_34">
      <!-- 0.5 -->
      <g transform="translate(383.889213 85.960615) scale(0.1 -0.1)">
       <use xlink:href="#DejaVuSans-30"/>
       <use xlink:href="#DejaVuSans-2e" transform="translate(63.623047 0)"/>
       <use xlink:href="#DejaVuSans-35" transform="translate(95.410156 0)"/>
      </g>
     </g>
    </g>
    <g id="ytick_14">
     <g id="line2d_34">
      <g>
       <use xlink:href="#m5e4f22d2b6" x="406.792338" y="48.968612" style="stroke: #000000; stroke-width: 0.8"/>
      </g>
     </g>
     <g id="text_35">
      <!-- 0.6 -->
      <g transform="translate(383.889213 52.767831) scale(0.1 -0.1)">
       <use xlink:href="#DejaVuSans-30"/>
       <use xlink:href="#DejaVuSans-2e" transform="translate(63.623047 0)"/>
       <use xlink:href="#DejaVuSans-36" transform="translate(95.410156 0)"/>
      </g>
     </g>
    </g>
    <g id="text_36">
     <!-- [counts] -->
     <g transform="translate(377.809525 161.193197) rotate(-90) scale(0.1 -0.1)">
      <use xlink:href="#DejaVuSans-5b"/>
      <use xlink:href="#DejaVuSans-63" transform="translate(39.013672 0)"/>
      <use xlink:href="#DejaVuSans-6f" transform="translate(93.994141 0)"/>
      <use xlink:href="#DejaVuSans-75" transform="translate(155.175781 0)"/>
      <use xlink:href="#DejaVuSans-6e" transform="translate(218.554688 0)"/>
      <use xlink:href="#DejaVuSans-74" transform="translate(281.933594 0)"/>
      <use xlink:href="#DejaVuSans-73" transform="translate(321.142578 0)"/>
      <use xlink:href="#DejaVuSans-5d" transform="translate(373.242188 0)"/>
     </g>
    </g>
   </g>
   <g id="line2d_35">
    <path d="M 524.083166 247.793392 
L 524.083166 247.793392 
L 529.326724 247.793392 
L 529.326724 246.897187 
L 534.570283 246.897187 
L 534.570283 242.748089 
L 539.813841 242.748089 
L 539.813841 220.641694 
L 545.0574 220.641694 
L 545.0574 126.739306 
L 550.300958 126.739306 
L 550.300958 109.97695 
L 555.544517 109.97695 
L 555.544517 217.455187 
L 560.788076 217.455187 
L 560.788076 242.515739 
L 566.031634 242.515739 
L 566.031634 246.963572 
L 571.275193 246.963572 
L 571.275193 247.594235 
L 576.518751 247.594235 
" clip-path="url(#p566efa4437)" style="fill: none; stroke: #1f77b4; stroke-opacity: 0.8; stroke-width: 4; stroke-linecap: square"/>
   </g>
   <g id="line2d_36">
    <path d="M 502.317005 247.693814 
L 502.317005 247.693814 
L 513.148972 247.693814 
L 513.148972 245.370319 
L 523.980939 245.370319 
L 523.980939 234.117965 
L 534.812906 234.117965 
L 534.812906 184.229209 
L 545.644873 184.229209 
L 545.644873 65.498619 
L 556.47684 65.498619 
L 556.47684 193.689153 
L 567.308807 193.689153 
L 567.308807 237.171701 
L 578.140773 237.171701 
L 578.140773 245.967789 
L 588.97274 245.967789 
L 588.97274 247.660621 
L 599.804707 247.660621 
L 599.804707 247.926163 
L 610.636674 247.926163 
" clip-path="url(#p566efa4437)" style="fill: none; stroke: #ff7f0e; stroke-opacity: 0.8; stroke-width: 4; stroke-linecap: square"/>
   </g>
   <g id="line2d_37">
    <path d="M 420.980143 248.058934 
L 420.980143 248.058934 
L 449.355754 248.058934 
L 449.355754 247.461464 
L 477.731364 247.461464 
L 477.731364 242.482546 
L 506.106975 242.482546 
L 506.106975 202.651205 
L 534.482585 202.651205 
L 534.482585 33.069268 
L 562.858196 33.069268 
L 562.858196 191.100116 
L 591.233806 191.100116 
L 591.233806 241.088449 
L 619.609417 241.088449 
L 619.609417 247.361886 
L 647.985027 247.361886 
L 647.985027 247.959356 
L 676.360638 247.959356 
L 676.360638 248.092127 
L 704.736249 248.092127 
" clip-path="url(#p566efa4437)" style="fill: none; stroke: #2ca02c; stroke-opacity: 0.8; stroke-width: 4; stroke-linecap: square"/>
   </g>
   <g id="patch_9">
    <path d="M 406.792338 258.84327 
L 406.792338 22.318125 
" style="fill: none; stroke: #000000; stroke-width: 0.8; stroke-linejoin: miter; stroke-linecap: square"/>
   </g>
   <g id="patch_10">
    <path d="M 718.924054 258.84327 
L 718.924054 22.318125 
" style="fill: none; stroke: #000000; stroke-width: 0.8; stroke-linejoin: miter; stroke-linecap: square"/>
   </g>
   <g id="patch_11">
    <path d="M 406.792338 258.84327 
L 718.924054 258.84327 
" style="fill: none; stroke: #000000; stroke-width: 0.8; stroke-linejoin: miter; stroke-linecap: square"/>
   </g>
   <g id="patch_12">
    <path d="M 406.792338 22.318125 
L 718.924054 22.318125 
" style="fill: none; stroke: #000000; stroke-width: 0.8; stroke-linejoin: miter; stroke-linecap: square"/>
   </g>
   <g id="text_37">
    <!-- laplace distribution -->
    <g transform="translate(505.272258 16.318125) scale(0.12 -0.12)">
     <defs>
      <path id="DejaVuSans-70" d="M 1159 525 
L 1159 -1331 
L 581 -1331 
L 581 3500 
L 1159 3500 
L 1159 2969 
Q 1341 3281 1617 3432 
Q 1894 3584 2278 3584 
Q 2916 3584 3314 3078 
Q 3713 2572 3713 1747 
Q 3713 922 3314 415 
Q 2916 -91 2278 -91 
Q 1894 -91 1617 61 
Q 1341 213 1159 525 
z
M 3116 1747 
Q 3116 2381 2855 2742 
Q 2594 3103 2138 3103 
Q 1681 3103 1420 2742 
Q 1159 2381 1159 1747 
Q 1159 1113 1420 752 
Q 1681 391 2138 391 
Q 2594 391 2855 752 
Q 3116 1113 3116 1747 
z
" transform="scale(0.015625)"/>
     </defs>
     <use xlink:href="#DejaVuSans-6c"/>
     <use xlink:href="#DejaVuSans-61" transform="translate(27.783203 0)"/>
     <use xlink:href="#DejaVuSans-70" transform="translate(89.0625 0)"/>
     <use xlink:href="#DejaVuSans-6c" transform="translate(152.539062 0)"/>
     <use xlink:href="#DejaVuSans-61" transform="translate(180.322266 0)"/>
     <use xlink:href="#DejaVuSans-63" transform="translate(241.601562 0)"/>
     <use xlink:href="#DejaVuSans-65" transform="translate(296.582031 0)"/>
     <use xlink:href="#DejaVuSans-20" transform="translate(358.105469 0)"/>
     <use xlink:href="#DejaVuSans-64" transform="translate(389.892578 0)"/>
     <use xlink:href="#DejaVuSans-69" transform="translate(453.369141 0)"/>
     <use xlink:href="#DejaVuSans-73" transform="translate(481.152344 0)"/>
     <use xlink:href="#DejaVuSans-74" transform="translate(533.251953 0)"/>
     <use xlink:href="#DejaVuSans-72" transform="translate(572.460938 0)"/>
     <use xlink:href="#DejaVuSans-69" transform="translate(613.574219 0)"/>
     <use xlink:href="#DejaVuSans-62" transform="translate(641.357422 0)"/>
     <use xlink:href="#DejaVuSans-75" transform="translate(704.833984 0)"/>
     <use xlink:href="#DejaVuSans-74" transform="translate(768.212891 0)"/>
     <use xlink:href="#DejaVuSans-69" transform="translate(807.421875 0)"/>
     <use xlink:href="#DejaVuSans-6f" transform="translate(835.205078 0)"/>
     <use xlink:href="#DejaVuSans-6e" transform="translate(896.386719 0)"/>
    </g>
   </g>
   <g id="legend_2">
    <g id="patch_13">
     <path d="M 601.224054 74.3525 
L 711.924054 74.3525 
Q 713.924054 74.3525 713.924054 72.3525 
L 713.924054 29.318125 
Q 713.924054 27.318125 711.924054 27.318125 
L 601.224054 27.318125 
Q 599.224054 27.318125 599.224054 29.318125 
L 599.224054 72.3525 
Q 599.224054 74.3525 601.224054 74.3525 
z
" style="fill: #ffffff; opacity: 0.8; stroke: #cccccc; stroke-linejoin: miter"/>
    </g>
    <g id="line2d_38">
     <path d="M 603.224054 35.416562 
L 603.224054 35.416562 
L 613.224054 35.416562 
L 613.224054 35.416562 
L 623.224054 35.416562 
" style="fill: none; stroke: #1f77b4; stroke-opacity: 0.8; stroke-width: 4; stroke-linecap: square"/>
    </g>
    <g id="text_38">
     <!-- loc: 0,scale: 0.5 -->
     <g transform="translate(631.224054 38.916562) scale(0.1 -0.1)">
      <use xlink:href="#DejaVuSans-6c"/>
      <use xlink:href="#DejaVuSans-6f" transform="translate(27.783203 0)"/>
      <use xlink:href="#DejaVuSans-63" transform="translate(88.964844 0)"/>
      <use xlink:href="#DejaVuSans-3a" transform="translate(143.945312 0)"/>
      <use xlink:href="#DejaVuSans-20" transform="translate(177.636719 0)"/>
      <use xlink:href="#DejaVuSans-30" transform="translate(209.423828 0)"/>
      <use xlink:href="#DejaVuSans-2c" transform="translate(273.046875 0)"/>
      <use xlink:href="#DejaVuSans-73" transform="translate(304.833984 0)"/>
      <use xlink:href="#DejaVuSans-63" transform="translate(356.933594 0)"/>
      <use xlink:href="#DejaVuSans-61" transform="translate(411.914062 0)"/>
      <use xlink:href="#DejaVuSans-6c" transform="translate(473.193359 0)"/>
      <use xlink:href="#DejaVuSans-65" transform="translate(500.976562 0)"/>
      <use xlink:href="#DejaVuSans-3a" transform="translate(562.5 0)"/>
      <use xlink:href="#DejaVuSans-20" transform="translate(596.191406 0)"/>
      <use xlink:href="#DejaVuSans-30" transform="translate(627.978516 0)"/>
      <use xlink:href="#DejaVuSans-2e" transform="translate(691.601562 0)"/>
      <use xlink:href="#DejaVuSans-35" transform="translate(723.388672 0)"/>
     </g>
    </g>
    <g id="line2d_39">
     <path d="M 603.224054 50.094687 
L 603.224054 50.094687 
L 613.224054 50.094687 
L 613.224054 50.094687 
L 623.224054 50.094687 
" style="fill: none; stroke: #ff7f0e; stroke-opacity: 0.8; stroke-width: 4; stroke-linecap: square"/>
    </g>
    <g id="text_39">
     <!-- loc: 0,scale: 1 -->
     <g transform="translate(631.224054 53.594687) scale(0.1 -0.1)">
      <use xlink:href="#DejaVuSans-6c"/>
      <use xlink:href="#DejaVuSans-6f" transform="translate(27.783203 0)"/>
      <use xlink:href="#DejaVuSans-63" transform="translate(88.964844 0)"/>
      <use xlink:href="#DejaVuSans-3a" transform="translate(143.945312 0)"/>
      <use xlink:href="#DejaVuSans-20" transform="translate(177.636719 0)"/>
      <use xlink:href="#DejaVuSans-30" transform="translate(209.423828 0)"/>
      <use xlink:href="#DejaVuSans-2c" transform="translate(273.046875 0)"/>
      <use xlink:href="#DejaVuSans-73" transform="translate(304.833984 0)"/>
      <use xlink:href="#DejaVuSans-63" transform="translate(356.933594 0)"/>
      <use xlink:href="#DejaVuSans-61" transform="translate(411.914062 0)"/>
      <use xlink:href="#DejaVuSans-6c" transform="translate(473.193359 0)"/>
      <use xlink:href="#DejaVuSans-65" transform="translate(500.976562 0)"/>
      <use xlink:href="#DejaVuSans-3a" transform="translate(562.5 0)"/>
      <use xlink:href="#DejaVuSans-20" transform="translate(596.191406 0)"/>
      <use xlink:href="#DejaVuSans-31" transform="translate(627.978516 0)"/>
     </g>
    </g>
    <g id="line2d_40">
     <path d="M 603.224054 64.772812 
L 603.224054 64.772812 
L 613.224054 64.772812 
L 613.224054 64.772812 
L 623.224054 64.772812 
" style="fill: none; stroke: #2ca02c; stroke-opacity: 0.8; stroke-width: 4; stroke-linecap: square"/>
    </g>
    <g id="text_40">
     <!-- loc: 0,scale: 2 -->
     <g transform="translate(631.224054 68.272812) scale(0.1 -0.1)">
      <use xlink:href="#DejaVuSans-6c"/>
      <use xlink:href="#DejaVuSans-6f" transform="translate(27.783203 0)"/>
      <use xlink:href="#DejaVuSans-63" transform="translate(88.964844 0)"/>
      <use xlink:href="#DejaVuSans-3a" transform="translate(143.945312 0)"/>
      <use xlink:href="#DejaVuSans-20" transform="translate(177.636719 0)"/>
      <use xlink:href="#DejaVuSans-30" transform="translate(209.423828 0)"/>
      <use xlink:href="#DejaVuSans-2c" transform="translate(273.046875 0)"/>
      <use xlink:href="#DejaVuSans-73" transform="translate(304.833984 0)"/>
      <use xlink:href="#DejaVuSans-63" transform="translate(356.933594 0)"/>
      <use xlink:href="#DejaVuSans-61" transform="translate(411.914062 0)"/>
      <use xlink:href="#DejaVuSans-6c" transform="translate(473.193359 0)"/>
      <use xlink:href="#DejaVuSans-65" transform="translate(500.976562 0)"/>
      <use xlink:href="#DejaVuSans-3a" transform="translate(562.5 0)"/>
      <use xlink:href="#DejaVuSans-20" transform="translate(596.191406 0)"/>
      <use xlink:href="#DejaVuSans-32" transform="translate(627.978516 0)"/>
     </g>
    </g>
   </g>
  </g>
  <g id="axes_3">
   <g id="patch_14">
    <path d="M 769.067804 258.84327 
L 1081.19952 258.84327 
L 1081.19952 22.318125 
L 769.067804 22.318125 
z
" style="fill: #ffffff"/>
   </g>
   <g id="matplotlib.axis_5">
    <g id="xtick_15">
     <g id="line2d_41">
      <g>
       <use xlink:href="#m131525fc54" x="789.52617" y="258.84327" style="stroke: #000000; stroke-width: 0.8"/>
      </g>
     </g>
     <g id="text_41">
      <!-- −3 -->
      <g transform="translate(782.155076 273.441707) scale(0.1 -0.1)">
       <use xlink:href="#DejaVuSans-2212"/>
       <use xlink:href="#DejaVuSans-33" transform="translate(83.789062 0)"/>
      </g>
     </g>
    </g>
    <g id="xtick_16">
     <g id="line2d_42">
      <g>
       <use xlink:href="#m131525fc54" x="834.72974" y="258.84327" style="stroke: #000000; stroke-width: 0.8"/>
      </g>
     </g>
     <g id="text_42">
      <!-- −2 -->
      <g transform="translate(827.358646 273.441707) scale(0.1 -0.1)">
       <use xlink:href="#DejaVuSans-2212"/>
       <use xlink:href="#DejaVuSans-32" transform="translate(83.789062 0)"/>
      </g>
     </g>
    </g>
    <g id="xtick_17">
     <g id="line2d_43">
      <g>
       <use xlink:href="#m131525fc54" x="879.933309" y="258.84327" style="stroke: #000000; stroke-width: 0.8"/>
      </g>
     </g>
     <g id="text_43">
      <!-- −1 -->
      <g transform="translate(872.562216 273.441707) scale(0.1 -0.1)">
       <use xlink:href="#DejaVuSans-2212"/>
       <use xlink:href="#DejaVuSans-31" transform="translate(83.789062 0)"/>
      </g>
     </g>
    </g>
    <g id="xtick_18">
     <g id="line2d_44">
      <g>
       <use xlink:href="#m131525fc54" x="925.136879" y="258.84327" style="stroke: #000000; stroke-width: 0.8"/>
      </g>
     </g>
     <g id="text_44">
      <!-- 0 -->
      <g transform="translate(921.955629 273.441707) scale(0.1 -0.1)">
       <use xlink:href="#DejaVuSans-30"/>
      </g>
     </g>
    </g>
    <g id="xtick_19">
     <g id="line2d_45">
      <g>
       <use xlink:href="#m131525fc54" x="970.340449" y="258.84327" style="stroke: #000000; stroke-width: 0.8"/>
      </g>
     </g>
     <g id="text_45">
      <!-- 1 -->
      <g transform="translate(967.159199 273.441707) scale(0.1 -0.1)">
       <use xlink:href="#DejaVuSans-31"/>
      </g>
     </g>
    </g>
    <g id="xtick_20">
     <g id="line2d_46">
      <g>
       <use xlink:href="#m131525fc54" x="1015.544019" y="258.84327" style="stroke: #000000; stroke-width: 0.8"/>
      </g>
     </g>
     <g id="text_46">
      <!-- 2 -->
      <g transform="translate(1012.362769 273.441707) scale(0.1 -0.1)">
       <use xlink:href="#DejaVuSans-32"/>
      </g>
     </g>
    </g>
    <g id="xtick_21">
     <g id="line2d_47">
      <g>
       <use xlink:href="#m131525fc54" x="1060.747589" y="258.84327" style="stroke: #000000; stroke-width: 0.8"/>
      </g>
     </g>
     <g id="text_47">
      <!-- 3 -->
      <g transform="translate(1057.566339 273.441707) scale(0.1 -0.1)">
       <use xlink:href="#DejaVuSans-33"/>
      </g>
     </g>
    </g>
    <g id="text_48">
     <!-- event [dimensionless] -->
     <g transform="translate(869.825849 287.119832) scale(0.1 -0.1)">
      <use xlink:href="#DejaVuSans-65"/>
      <use xlink:href="#DejaVuSans-76" transform="translate(61.523438 0)"/>
      <use xlink:href="#DejaVuSans-65" transform="translate(120.703125 0)"/>
      <use xlink:href="#DejaVuSans-6e" transform="translate(182.226562 0)"/>
      <use xlink:href="#DejaVuSans-74" transform="translate(245.605469 0)"/>
      <use xlink:href="#DejaVuSans-20" transform="translate(284.814453 0)"/>
      <use xlink:href="#DejaVuSans-5b" transform="translate(316.601562 0)"/>
      <use xlink:href="#DejaVuSans-64" transform="translate(355.615234 0)"/>
      <use xlink:href="#DejaVuSans-69" transform="translate(419.091797 0)"/>
      <use xlink:href="#DejaVuSans-6d" transform="translate(446.875 0)"/>
      <use xlink:href="#DejaVuSans-65" transform="translate(544.287109 0)"/>
      <use xlink:href="#DejaVuSans-6e" transform="translate(605.810547 0)"/>
      <use xlink:href="#DejaVuSans-73" transform="translate(669.189453 0)"/>
      <use xlink:href="#DejaVuSans-69" transform="translate(721.289062 0)"/>
      <use xlink:href="#DejaVuSans-6f" transform="translate(749.072266 0)"/>
      <use xlink:href="#DejaVuSans-6e" transform="translate(810.253906 0)"/>
      <use xlink:href="#DejaVuSans-6c" transform="translate(873.632812 0)"/>
      <use xlink:href="#DejaVuSans-65" transform="translate(901.416016 0)"/>
      <use xlink:href="#DejaVuSans-73" transform="translate(962.939453 0)"/>
      <use xlink:href="#DejaVuSans-73" transform="translate(1015.039062 0)"/>
      <use xlink:href="#DejaVuSans-5d" transform="translate(1067.138672 0)"/>
     </g>
    </g>
   </g>
   <g id="matplotlib.axis_6">
    <g id="ytick_15">
     <g id="line2d_48">
      <g>
       <use xlink:href="#m5e4f22d2b6" x="769.067804" y="248.255601" style="stroke: #000000; stroke-width: 0.8"/>
      </g>
     </g>
     <g id="text_49">
      <!-- 0.00 -->
      <g transform="translate(739.802179 252.05482) scale(0.1 -0.1)">
       <use xlink:href="#DejaVuSans-30"/>
       <use xlink:href="#DejaVuSans-2e" transform="translate(63.623047 0)"/>
       <use xlink:href="#DejaVuSans-30" transform="translate(95.410156 0)"/>
       <use xlink:href="#DejaVuSans-30" transform="translate(159.033203 0)"/>
      </g>
     </g>
    </g>
    <g id="ytick_16">
     <g id="line2d_49">
      <g>
       <use xlink:href="#m5e4f22d2b6" x="769.067804" y="221.009927" style="stroke: #000000; stroke-width: 0.8"/>
      </g>
     </g>
     <g id="text_50">
      <!-- 0.05 -->
      <g transform="translate(739.802179 224.809146) scale(0.1 -0.1)">
       <use xlink:href="#DejaVuSans-30"/>
       <use xlink:href="#DejaVuSans-2e" transform="translate(63.623047 0)"/>
       <use xlink:href="#DejaVuSans-30" transform="translate(95.410156 0)"/>
       <use xlink:href="#DejaVuSans-35" transform="translate(159.033203 0)"/>
      </g>
     </g>
    </g>
    <g id="ytick_17">
     <g id="line2d_50">
      <g>
       <use xlink:href="#m5e4f22d2b6" x="769.067804" y="193.764253" style="stroke: #000000; stroke-width: 0.8"/>
      </g>
     </g>
     <g id="text_51">
      <!-- 0.10 -->
      <g transform="translate(739.802179 197.563472) scale(0.1 -0.1)">
       <use xlink:href="#DejaVuSans-30"/>
       <use xlink:href="#DejaVuSans-2e" transform="translate(63.623047 0)"/>
       <use xlink:href="#DejaVuSans-31" transform="translate(95.410156 0)"/>
       <use xlink:href="#DejaVuSans-30" transform="translate(159.033203 0)"/>
      </g>
     </g>
    </g>
    <g id="ytick_18">
     <g id="line2d_51">
      <g>
       <use xlink:href="#m5e4f22d2b6" x="769.067804" y="166.518579" style="stroke: #000000; stroke-width: 0.8"/>
      </g>
     </g>
     <g id="text_52">
      <!-- 0.15 -->
      <g transform="translate(739.802179 170.317798) scale(0.1 -0.1)">
       <use xlink:href="#DejaVuSans-30"/>
       <use xlink:href="#DejaVuSans-2e" transform="translate(63.623047 0)"/>
       <use xlink:href="#DejaVuSans-31" transform="translate(95.410156 0)"/>
       <use xlink:href="#DejaVuSans-35" transform="translate(159.033203 0)"/>
      </g>
     </g>
    </g>
    <g id="ytick_19">
     <g id="line2d_52">
      <g>
       <use xlink:href="#m5e4f22d2b6" x="769.067804" y="139.272905" style="stroke: #000000; stroke-width: 0.8"/>
      </g>
     </g>
     <g id="text_53">
      <!-- 0.20 -->
      <g transform="translate(739.802179 143.072124) scale(0.1 -0.1)">
       <use xlink:href="#DejaVuSans-30"/>
       <use xlink:href="#DejaVuSans-2e" transform="translate(63.623047 0)"/>
       <use xlink:href="#DejaVuSans-32" transform="translate(95.410156 0)"/>
       <use xlink:href="#DejaVuSans-30" transform="translate(159.033203 0)"/>
      </g>
     </g>
    </g>
    <g id="ytick_20">
     <g id="line2d_53">
      <g>
       <use xlink:href="#m5e4f22d2b6" x="769.067804" y="112.027231" style="stroke: #000000; stroke-width: 0.8"/>
      </g>
     </g>
     <g id="text_54">
      <!-- 0.25 -->
      <g transform="translate(739.802179 115.82645) scale(0.1 -0.1)">
       <use xlink:href="#DejaVuSans-30"/>
       <use xlink:href="#DejaVuSans-2e" transform="translate(63.623047 0)"/>
       <use xlink:href="#DejaVuSans-32" transform="translate(95.410156 0)"/>
       <use xlink:href="#DejaVuSans-35" transform="translate(159.033203 0)"/>
      </g>
     </g>
    </g>
    <g id="ytick_21">
     <g id="line2d_54">
      <g>
       <use xlink:href="#m5e4f22d2b6" x="769.067804" y="84.781557" style="stroke: #000000; stroke-width: 0.8"/>
      </g>
     </g>
     <g id="text_55">
      <!-- 0.30 -->
      <g transform="translate(739.802179 88.580776) scale(0.1 -0.1)">
       <use xlink:href="#DejaVuSans-30"/>
       <use xlink:href="#DejaVuSans-2e" transform="translate(63.623047 0)"/>
       <use xlink:href="#DejaVuSans-33" transform="translate(95.410156 0)"/>
       <use xlink:href="#DejaVuSans-30" transform="translate(159.033203 0)"/>
      </g>
     </g>
    </g>
    <g id="ytick_22">
     <g id="line2d_55">
      <g>
       <use xlink:href="#m5e4f22d2b6" x="769.067804" y="57.535883" style="stroke: #000000; stroke-width: 0.8"/>
      </g>
     </g>
     <g id="text_56">
      <!-- 0.35 -->
      <g transform="translate(739.802179 61.335102) scale(0.1 -0.1)">
       <use xlink:href="#DejaVuSans-30"/>
       <use xlink:href="#DejaVuSans-2e" transform="translate(63.623047 0)"/>
       <use xlink:href="#DejaVuSans-33" transform="translate(95.410156 0)"/>
       <use xlink:href="#DejaVuSans-35" transform="translate(159.033203 0)"/>
      </g>
     </g>
    </g>
    <g id="ytick_23">
     <g id="line2d_56">
      <g>
       <use xlink:href="#m5e4f22d2b6" x="769.067804" y="30.290209" style="stroke: #000000; stroke-width: 0.8"/>
      </g>
     </g>
     <g id="text_57">
      <!-- 0.40 -->
      <g transform="translate(739.802179 34.089428) scale(0.1 -0.1)">
       <use xlink:href="#DejaVuSans-30"/>
       <use xlink:href="#DejaVuSans-2e" transform="translate(63.623047 0)"/>
       <use xlink:href="#DejaVuSans-34" transform="translate(95.410156 0)"/>
       <use xlink:href="#DejaVuSans-30" transform="translate(159.033203 0)"/>
      </g>
     </g>
    </g>
    <g id="text_58">
     <!-- [counts] -->
     <g transform="translate(733.722491 161.193197) rotate(-90) scale(0.1 -0.1)">
      <use xlink:href="#DejaVuSans-5b"/>
      <use xlink:href="#DejaVuSans-63" transform="translate(39.013672 0)"/>
      <use xlink:href="#DejaVuSans-6f" transform="translate(93.994141 0)"/>
      <use xlink:href="#DejaVuSans-75" transform="translate(155.175781 0)"/>
      <use xlink:href="#DejaVuSans-6e" transform="translate(218.554688 0)"/>
      <use xlink:href="#DejaVuSans-74" transform="translate(281.933594 0)"/>
      <use xlink:href="#DejaVuSans-73" transform="translate(321.142578 0)"/>
      <use xlink:href="#DejaVuSans-5d" transform="translate(373.242188 0)"/>
     </g>
    </g>
   </g>
   <g id="line2d_57">
    <path d="M 783.255609 231.199809 
L 783.255609 231.199809 
L 811.63122 231.199809 
L 811.63122 222.808142 
L 840.00683 222.808142 
L 840.00683 204.281083 
L 868.382441 204.281083 
L 868.382441 172.567119 
L 896.758051 172.567119 
L 896.758051 134.968089 
L 925.133662 134.968089 
L 925.133662 142.978317 
L 953.509272 142.978317 
L 953.509272 167.880863 
L 981.884883 167.880863 
L 981.884883 206.242772 
L 1010.260494 206.242772 
L 1010.260494 223.353055 
L 1038.636104 223.353055 
L 1038.636104 231.363283 
L 1067.011715 231.363283 
" clip-path="url(#p4ca4207616)" style="fill: none; stroke: #1f77b4; stroke-opacity: 0.8; stroke-width: 4; stroke-linecap: square"/>
   </g>
   <g id="line2d_58">
    <path d="M 783.307431 244.495698 
L 783.307431 244.495698 
L 811.585281 244.495698 
L 811.585281 239.809442 
L 839.863131 239.809442 
L 839.863131 221.772806 
L 868.140982 221.772806 
L 868.140982 169.624586 
L 896.418832 169.624586 
L 896.418832 99.766678 
L 924.696683 99.766678 
L 924.696683 91.592976 
L 952.974533 91.592976 
L 952.974533 165.265278 
L 981.252384 165.265278 
L 981.252384 222.208737 
L 1009.530234 222.208737 
L 1009.530234 238.447158 
L 1037.808085 238.447158 
L 1037.808085 244.659172 
L 1066.085935 244.659172 
" clip-path="url(#p4ca4207616)" style="fill: none; stroke: #ff7f0e; stroke-opacity: 0.8; stroke-width: 4; stroke-linecap: square"/>
   </g>
   <g id="line2d_59">
    <path d="M 789.633184 248.092127 
L 789.633184 248.092127 
L 814.718393 248.092127 
L 814.718393 247.928653 
L 839.803602 247.928653 
L 839.803602 243.841802 
L 864.888812 243.841802 
L 864.888812 214.688931 
L 889.974021 214.688931 
L 889.974021 100.856505 
L 915.05923 100.856505 
L 915.05923 33.069268 
L 940.144439 33.069268 
L 940.144439 130.336324 
L 965.229648 130.336324 
L 965.229648 225.96864 
L 990.314857 225.96864 
L 990.314857 244.98612 
L 1015.400066 244.98612 
L 1015.400066 247.874162 
L 1040.485275 247.874162 
" clip-path="url(#p4ca4207616)" style="fill: none; stroke: #2ca02c; stroke-opacity: 0.8; stroke-width: 4; stroke-linecap: square"/>
   </g>
   <g id="patch_15">
    <path d="M 769.067804 258.84327 
L 769.067804 22.318125 
" style="fill: none; stroke: #000000; stroke-width: 0.8; stroke-linejoin: miter; stroke-linecap: square"/>
   </g>
   <g id="patch_16">
    <path d="M 1081.19952 258.84327 
L 1081.19952 22.318125 
" style="fill: none; stroke: #000000; stroke-width: 0.8; stroke-linejoin: miter; stroke-linecap: square"/>
   </g>
   <g id="patch_17">
    <path d="M 769.067804 258.84327 
L 1081.19952 258.84327 
" style="fill: none; stroke: #000000; stroke-width: 0.8; stroke-linejoin: miter; stroke-linecap: square"/>
   </g>
   <g id="patch_18">
    <path d="M 769.067804 22.318125 
L 1081.19952 22.318125 
" style="fill: none; stroke: #000000; stroke-width: 0.8; stroke-linejoin: miter; stroke-linecap: square"/>
   </g>
   <g id="text_59">
    <!-- vonmises distribution -->
    <g transform="translate(860.555849 16.318125) scale(0.12 -0.12)">
     <use xlink:href="#DejaVuSans-76"/>
     <use xlink:href="#DejaVuSans-6f" transform="translate(59.179688 0)"/>
     <use xlink:href="#DejaVuSans-6e" transform="translate(120.361328 0)"/>
     <use xlink:href="#DejaVuSans-6d" transform="translate(183.740234 0)"/>
     <use xlink:href="#DejaVuSans-69" transform="translate(281.152344 0)"/>
     <use xlink:href="#DejaVuSans-73" transform="translate(308.935547 0)"/>
     <use xlink:href="#DejaVuSans-65" transform="translate(361.035156 0)"/>
     <use xlink:href="#DejaVuSans-73" transform="translate(422.558594 0)"/>
     <use xlink:href="#DejaVuSans-20" transform="translate(474.658203 0)"/>
     <use xlink:href="#DejaVuSans-64" transform="translate(506.445312 0)"/>
     <use xlink:href="#DejaVuSans-69" transform="translate(569.921875 0)"/>
     <use xlink:href="#DejaVuSans-73" transform="translate(597.705078 0)"/>
     <use xlink:href="#DejaVuSans-74" transform="translate(649.804688 0)"/>
     <use xlink:href="#DejaVuSans-72" transform="translate(689.013672 0)"/>
     <use xlink:href="#DejaVuSans-69" transform="translate(730.126953 0)"/>
     <use xlink:href="#DejaVuSans-62" transform="translate(757.910156 0)"/>
     <use xlink:href="#DejaVuSans-75" transform="translate(821.386719 0)"/>
     <use xlink:href="#DejaVuSans-74" transform="translate(884.765625 0)"/>
     <use xlink:href="#DejaVuSans-69" transform="translate(923.974609 0)"/>
     <use xlink:href="#DejaVuSans-6f" transform="translate(951.757812 0)"/>
     <use xlink:href="#DejaVuSans-6e" transform="translate(1012.939453 0)"/>
    </g>
   </g>
   <g id="legend_3">
    <g id="patch_19">
     <path d="M 966.55577 74.3525 
L 1074.19952 74.3525 
Q 1076.19952 74.3525 1076.19952 72.3525 
L 1076.19952 29.318125 
Q 1076.19952 27.318125 1074.19952 27.318125 
L 966.55577 27.318125 
Q 964.55577 27.318125 964.55577 29.318125 
L 964.55577 72.3525 
Q 964.55577 74.3525 966.55577 74.3525 
z
" style="fill: #ffffff; opacity: 0.8; stroke: #cccccc; stroke-linejoin: miter"/>
    </g>
    <g id="line2d_60">
     <path d="M 968.55577 35.416562 
L 968.55577 35.416562 
L 978.55577 35.416562 
L 978.55577 35.416562 
L 988.55577 35.416562 
" style="fill: none; stroke: #1f77b4; stroke-opacity: 0.8; stroke-width: 4; stroke-linecap: square"/>
    </g>
    <g id="text_60">
     <!-- mu: 0,kappa: 1 -->
     <g transform="translate(996.55577 38.916562) scale(0.1 -0.1)">
      <defs>
       <path id="DejaVuSans-6b" d="M 581 4863 
L 1159 4863 
L 1159 1991 
L 2875 3500 
L 3609 3500 
L 1753 1863 
L 3688 0 
L 2938 0 
L 1159 1709 
L 1159 0 
L 581 0 
L 581 4863 
z
" transform="scale(0.015625)"/>
      </defs>
      <use xlink:href="#DejaVuSans-6d"/>
      <use xlink:href="#DejaVuSans-75" transform="translate(97.412109 0)"/>
      <use xlink:href="#DejaVuSans-3a" transform="translate(160.791016 0)"/>
      <use xlink:href="#DejaVuSans-20" transform="translate(194.482422 0)"/>
      <use xlink:href="#DejaVuSans-30" transform="translate(226.269531 0)"/>
      <use xlink:href="#DejaVuSans-2c" transform="translate(289.892578 0)"/>
      <use xlink:href="#DejaVuSans-6b" transform="translate(321.679688 0)"/>
      <use xlink:href="#DejaVuSans-61" transform="translate(377.839844 0)"/>
      <use xlink:href="#DejaVuSans-70" transform="translate(439.119141 0)"/>
      <use xlink:href="#DejaVuSans-70" transform="translate(502.595703 0)"/>
      <use xlink:href="#DejaVuSans-61" transform="translate(566.072266 0)"/>
      <use xlink:href="#DejaVuSans-3a" transform="translate(627.351562 0)"/>
      <use xlink:href="#DejaVuSans-20" transform="translate(661.042969 0)"/>
      <use xlink:href="#DejaVuSans-31" transform="translate(692.830078 0)"/>
     </g>
    </g>
    <g id="line2d_61">
     <path d="M 968.55577 50.094687 
L 968.55577 50.094687 
L 978.55577 50.094687 
L 978.55577 50.094687 
L 988.55577 50.094687 
" style="fill: none; stroke: #ff7f0e; stroke-opacity: 0.8; stroke-width: 4; stroke-linecap: square"/>
    </g>
    <g id="text_61">
     <!-- mu: 0,kappa: 2 -->
     <g transform="translate(996.55577 53.594687) scale(0.1 -0.1)">
      <use xlink:href="#DejaVuSans-6d"/>
      <use xlink:href="#DejaVuSans-75" transform="translate(97.412109 0)"/>
      <use xlink:href="#DejaVuSans-3a" transform="translate(160.791016 0)"/>
      <use xlink:href="#DejaVuSans-20" transform="translate(194.482422 0)"/>
      <use xlink:href="#DejaVuSans-30" transform="translate(226.269531 0)"/>
      <use xlink:href="#DejaVuSans-2c" transform="translate(289.892578 0)"/>
      <use xlink:href="#DejaVuSans-6b" transform="translate(321.679688 0)"/>
      <use xlink:href="#DejaVuSans-61" transform="translate(377.839844 0)"/>
      <use xlink:href="#DejaVuSans-70" transform="translate(439.119141 0)"/>
      <use xlink:href="#DejaVuSans-70" transform="translate(502.595703 0)"/>
      <use xlink:href="#DejaVuSans-61" transform="translate(566.072266 0)"/>
      <use xlink:href="#DejaVuSans-3a" transform="translate(627.351562 0)"/>
      <use xlink:href="#DejaVuSans-20" transform="translate(661.042969 0)"/>
      <use xlink:href="#DejaVuSans-32" transform="translate(692.830078 0)"/>
     </g>
    </g>
    <g id="line2d_62">
     <path d="M 968.55577 64.772812 
L 968.55577 64.772812 
L 978.55577 64.772812 
L 978.55577 64.772812 
L 988.55577 64.772812 
" style="fill: none; stroke: #2ca02c; stroke-opacity: 0.8; stroke-width: 4; stroke-linecap: square"/>
    </g>
    <g id="text_62">
     <!-- mu: 0,kappa: 4 -->
     <g transform="translate(996.55577 68.272812) scale(0.1 -0.1)">
      <use xlink:href="#DejaVuSans-6d"/>
      <use xlink:href="#DejaVuSans-75" transform="translate(97.412109 0)"/>
      <use xlink:href="#DejaVuSans-3a" transform="translate(160.791016 0)"/>
      <use xlink:href="#DejaVuSans-20" transform="translate(194.482422 0)"/>
      <use xlink:href="#DejaVuSans-30" transform="translate(226.269531 0)"/>
      <use xlink:href="#DejaVuSans-2c" transform="translate(289.892578 0)"/>
      <use xlink:href="#DejaVuSans-6b" transform="translate(321.679688 0)"/>
      <use xlink:href="#DejaVuSans-61" transform="translate(377.839844 0)"/>
      <use xlink:href="#DejaVuSans-70" transform="translate(439.119141 0)"/>
      <use xlink:href="#DejaVuSans-70" transform="translate(502.595703 0)"/>
      <use xlink:href="#DejaVuSans-61" transform="translate(566.072266 0)"/>
      <use xlink:href="#DejaVuSans-3a" transform="translate(627.351562 0)"/>
      <use xlink:href="#DejaVuSans-20" transform="translate(661.042969 0)"/>
      <use xlink:href="#DejaVuSans-34" transform="translate(692.830078 0)"/>
     </g>
    </g>
   </g>
  </g>
 </g>
 <defs>
  <clipPath id="pc89f4438d2">
   <rect x="50.14375" y="22.318125" width="312.131716" height="236.525145"/>
  </clipPath>
  <clipPath id="p566efa4437">
   <rect x="406.792338" y="22.318125" width="312.131716" height="236.525145"/>
  </clipPath>
  <clipPath id="p4ca4207616">
   <rect x="769.067804" y="22.318125" width="312.131716" height="236.525145"/>
  </clipPath>
 </defs>
</svg>
