<?xml version="1.0" encoding="UTF-8" standalone="no"?>
<!DOCTYPE svg PUBLIC "-//W3C//DTD SVG 1.1//EN"
 "http://www.w3.org/Graphics/SVG/1.1/DTD/svg11.dtd">
<!-- Generated by graphviz version 2.43.0 (0)
 -->
<!-- Title: %3 Pages: 1 -->
<svg width="442pt" height="175pt"
 viewBox="0.00 0.00 442.00 174.53" xmlns="http://www.w3.org/2000/svg" xmlns:xlink="http://www.w3.org/1999/xlink">
<g id="graph0" class="graph" transform="scale(1 1) rotate(0) translate(4 170.53)">
<title>%3</title>
<polygon fill="white" stroke="transparent" points="-4,4 -4,-170.53 438,-170.53 438,4 -4,4"/>
<!-- 4685ac77888540df869a607d607c2a8e -->
<g id="node1" class="node">
<title>4685ac77888540df869a607d607c2a8e</title>
<polygon fill="none" stroke="black" points="434,-92.53 0,-92.53 0,-69.53 434,-69.53 434,-92.53"/>
<text text-anchor="middle" x="217" y="-77.33" font-family="Times,serif" font-size="14.00">&lt;__main__.DataGen object at 0x7f7821397450&gt;(iteration)</text>
</g>
<!-- 7879cfb644bc4a1f8ad80539477a4517 -->
<g id="node3" class="node">
<title>7879cfb644bc4a1f8ad80539477a4517</title>
<ellipse fill="lightgrey" stroke="lightgrey" cx="217" cy="-16.26" rx="84.71" ry="16.03"/>
<text text-anchor="middle" x="217" y="-12.56" font-family="Times,serif" font-size="14.00">GraphicalView</text>
</g>
<!-- 4685ac77888540df869a607d607c2a8e&#45;&gt;7879cfb644bc4a1f8ad80539477a4517 -->
<g id="edge2" class="edge">
<title>4685ac77888540df869a607d607c2a8e&#45;&gt;7879cfb644bc4a1f8ad80539477a4517</title>
<path fill="none" stroke="black" d="M217,-69.38C217,-62.06 217,-52.02 217,-42.7"/>
<polygon fill="black" stroke="black" points="220.5,-42.68 217,-32.68 213.5,-42.68 220.5,-42.68"/>
</g>
<!-- 9e14bd421df641d6a8ae3810b51fa85b -->
<g id="node2" class="node">
<title>9e14bd421df641d6a8ae3810b51fa85b</title>
<polygon fill="none" stroke="black" points="294.5,-166.53 139.5,-166.53 139.5,-143.53 294.5,-143.53 294.5,-166.53"/>
<text text-anchor="middle" x="217" y="-151.33" font-family="Times,serif" font-size="14.00">Widget &lt;Play: int&gt;</text>
</g>
<!-- 9e14bd421df641d6a8ae3810b51fa85b&#45;&gt;4685ac77888540df869a607d607c2a8e -->
<g id="edge1" class="edge">
<title>9e14bd421df641d6a8ae3810b51fa85b&#45;&gt;4685ac77888540df869a607d607c2a8e</title>
<path fill="none" stroke="black" d="M217,-143.4C217,-132.77 217,-116.12 217,-102.85"/>
<polygon fill="black" stroke="black" points="220.5,-102.69 217,-92.69 213.5,-102.69 220.5,-102.69"/>
<text text-anchor="middle" x="248" y="-114.33" font-family="Times,serif" font-size="14.00">iteration</text>
</g>
</g>
</svg>
