<?xml version="1.0" encoding="UTF-8" standalone="no"?>
<!DOCTYPE svg PUBLIC "-//W3C//DTD SVG 1.1//EN"
 "http://www.w3.org/Graphics/SVG/1.1/DTD/svg11.dtd">
<!-- Generated by graphviz version 2.43.0 (0)
 -->
<!-- Title: %3 Pages: 1 -->
<svg width="612pt" height="249pt"
 viewBox="0.00 0.00 612.00 248.53" xmlns="http://www.w3.org/2000/svg" xmlns:xlink="http://www.w3.org/1999/xlink">
<g id="graph0" class="graph" transform="scale(1 1) rotate(0) translate(4 244.53)">
<title>%3</title>
<polygon fill="white" stroke="transparent" points="-4,4 -4,-244.53 608,-244.53 608,4 -4,4"/>
<!-- a2c3bc9995c745dd8c89c341a590c8ba -->
<g id="node1" class="node">
<title>a2c3bc9995c745dd8c89c341a590c8ba</title>
<polygon fill="none" stroke="black" points="528,-92.53 369,-92.53 369,-69.53 528,-69.53 528,-92.53"/>
<text text-anchor="middle" x="448.5" y="-77.33" font-family="Times,serif" font-size="14.00">_preprocess_scatter</text>
</g>
<!-- fd2dae4876e14cf2a4d999d20c0a1951 -->
<g id="node5" class="node">
<title>fd2dae4876e14cf2a4d999d20c0a1951</title>
<ellipse fill="lightgrey" stroke="lightgrey" cx="448.5" cy="-16.26" rx="84.71" ry="16.03"/>
<text text-anchor="middle" x="448.5" y="-12.56" font-family="Times,serif" font-size="14.00">GraphicalView</text>
</g>
<!-- a2c3bc9995c745dd8c89c341a590c8ba&#45;&gt;fd2dae4876e14cf2a4d999d20c0a1951 -->
<g id="edge3" class="edge">
<title>a2c3bc9995c745dd8c89c341a590c8ba&#45;&gt;fd2dae4876e14cf2a4d999d20c0a1951</title>
<path fill="none" stroke="black" d="M448.5,-69.38C448.5,-62.06 448.5,-52.02 448.5,-42.7"/>
<polygon fill="black" stroke="black" points="452,-42.68 448.5,-32.68 445,-42.68 452,-42.68"/>
</g>
<!-- 6e39b0daba3b4312a39d491d7578626f -->
<g id="node2" class="node">
<title>6e39b0daba3b4312a39d491d7578626f</title>
<polygon fill="none" stroke="black" points="431,-166.53 0,-166.53 0,-143.53 431,-143.53 431,-166.53"/>
<text text-anchor="middle" x="215.5" y="-151.33" font-family="Times,serif" font-size="14.00">&lt;__main__.DataGen object at 0x7f90e6d27ca0&gt;(iteration)</text>
</g>
<!-- 6e39b0daba3b4312a39d491d7578626f&#45;&gt;a2c3bc9995c745dd8c89c341a590c8ba -->
<g id="edge1" class="edge">
<title>6e39b0daba3b4312a39d491d7578626f&#45;&gt;a2c3bc9995c745dd8c89c341a590c8ba</title>
<path fill="none" stroke="black" d="M249.88,-143.4C290.95,-130.71 359.73,-109.46 404.61,-95.59"/>
<polygon fill="black" stroke="black" points="405.84,-98.87 414.36,-92.58 403.77,-92.19 405.84,-98.87"/>
<text text-anchor="middle" x="373.5" y="-114.33" font-family="Times,serif" font-size="14.00">arg_0</text>
</g>
<!-- 69e49a908497440f8c64153407445741 -->
<g id="node3" class="node">
<title>69e49a908497440f8c64153407445741</title>
<polygon fill="none" stroke="black" points="604,-166.53 449,-166.53 449,-143.53 604,-143.53 604,-166.53"/>
<text text-anchor="middle" x="526.5" y="-151.33" font-family="Times,serif" font-size="14.00">Input &lt;NoneType&gt;</text>
</g>
<!-- 69e49a908497440f8c64153407445741&#45;&gt;a2c3bc9995c745dd8c89c341a590c8ba -->
<g id="edge2" class="edge">
<title>69e49a908497440f8c64153407445741&#45;&gt;a2c3bc9995c745dd8c89c341a590c8ba</title>
<path fill="none" stroke="black" d="M514.99,-143.4C502.55,-131.92 482.51,-113.42 467.68,-99.73"/>
<polygon fill="black" stroke="black" points="469.78,-96.91 460.06,-92.69 465.03,-102.05 469.78,-96.91"/>
<text text-anchor="middle" x="513.5" y="-114.33" font-family="Times,serif" font-size="14.00">name</text>
</g>
<!-- 7546b53329164eaf9c1dee26e7b016f6 -->
<g id="node4" class="node">
<title>7546b53329164eaf9c1dee26e7b016f6</title>
<polygon fill="none" stroke="black" points="293,-240.53 138,-240.53 138,-217.53 293,-217.53 293,-240.53"/>
<text text-anchor="middle" x="215.5" y="-225.33" font-family="Times,serif" font-size="14.00">Widget &lt;Play: int&gt;</text>
</g>
<!-- 7546b53329164eaf9c1dee26e7b016f6&#45;&gt;6e39b0daba3b4312a39d491d7578626f -->
<g id="edge4" class="edge">
<title>7546b53329164eaf9c1dee26e7b016f6&#45;&gt;6e39b0daba3b4312a39d491d7578626f</title>
<path fill="none" stroke="black" d="M215.5,-217.4C215.5,-206.77 215.5,-190.12 215.5,-176.85"/>
<polygon fill="black" stroke="black" points="219,-176.69 215.5,-166.69 212,-176.69 219,-176.69"/>
<text text-anchor="middle" x="246.5" y="-188.33" font-family="Times,serif" font-size="14.00">iteration</text>
</g>
</g>
</svg>
