<?xml version="1.0" encoding="UTF-8" standalone="no"?>
<!DOCTYPE svg PUBLIC "-//W3C//DTD SVG 1.1//EN"
 "http://www.w3.org/Graphics/SVG/1.1/DTD/svg11.dtd">
<!-- Generated by graphviz version 2.43.0 (0)
 -->
<!-- Title: %3 Pages: 1 -->
<svg width="620pt" height="249pt"
 viewBox="0.00 0.00 620.00 248.53" xmlns="http://www.w3.org/2000/svg" xmlns:xlink="http://www.w3.org/1999/xlink">
<g id="graph0" class="graph" transform="scale(1 1) rotate(0) translate(4 244.53)">
<title>%3</title>
<polygon fill="white" stroke="transparent" points="-4,4 -4,-244.53 616,-244.53 616,4 -4,4"/>
<!-- bf950e152c3d4b578371356620c053b4 -->
<g id="node1" class="node">
<title>bf950e152c3d4b578371356620c053b4</title>
<polygon fill="none" stroke="black" points="532,-92.53 373,-92.53 373,-69.53 532,-69.53 532,-92.53"/>
<text text-anchor="middle" x="452.5" y="-77.33" font-family="Times,serif" font-size="14.00">_preprocess_scatter</text>
</g>
<!-- f10e7bae20d94902b4174694ee66d069 -->
<g id="node5" class="node">
<title>f10e7bae20d94902b4174694ee66d069</title>
<ellipse fill="lightgrey" stroke="lightgrey" cx="452.5" cy="-16.26" rx="84.71" ry="16.03"/>
<text text-anchor="middle" x="452.5" y="-12.56" font-family="Times,serif" font-size="14.00">GraphicalView</text>
</g>
<!-- bf950e152c3d4b578371356620c053b4&#45;&gt;f10e7bae20d94902b4174694ee66d069 -->
<g id="edge3" class="edge">
<title>bf950e152c3d4b578371356620c053b4&#45;&gt;f10e7bae20d94902b4174694ee66d069</title>
<path fill="none" stroke="black" d="M452.5,-69.38C452.5,-62.06 452.5,-52.02 452.5,-42.7"/>
<polygon fill="black" stroke="black" points="456,-42.68 452.5,-32.68 449,-42.68 456,-42.68"/>
</g>
<!-- 8f5e1999bece4a438f6909840d8c7f62 -->
<g id="node2" class="node">
<title>8f5e1999bece4a438f6909840d8c7f62</title>
<polygon fill="none" stroke="black" points="433,-166.53 0,-166.53 0,-143.53 433,-143.53 433,-166.53"/>
<text text-anchor="middle" x="216.5" y="-151.33" font-family="Times,serif" font-size="14.00">&lt;__main__.DataGen object at 0x7febd5565e10&gt;(iteration)</text>
</g>
<!-- 8f5e1999bece4a438f6909840d8c7f62&#45;&gt;bf950e152c3d4b578371356620c053b4 -->
<g id="edge1" class="edge">
<title>8f5e1999bece4a438f6909840d8c7f62&#45;&gt;bf950e152c3d4b578371356620c053b4</title>
<path fill="none" stroke="black" d="M251.07,-143.48C292.7,-130.78 362.69,-109.43 408.23,-95.53"/>
<polygon fill="black" stroke="black" points="409.29,-98.87 417.84,-92.6 407.25,-92.17 409.29,-98.87"/>
<text text-anchor="middle" x="376.5" y="-114.33" font-family="Times,serif" font-size="14.00">arg_0</text>
</g>
<!-- 0c813f132ef94554844ac7a9e96984ca -->
<g id="node3" class="node">
<title>0c813f132ef94554844ac7a9e96984ca</title>
<polygon fill="none" stroke="black" points="612,-166.53 451,-166.53 451,-143.53 612,-143.53 612,-166.53"/>
<text text-anchor="middle" x="531.5" y="-151.33" font-family="Times,serif" font-size="14.00">Input &lt;str=&#39;None&#39;&gt;</text>
</g>
<!-- 0c813f132ef94554844ac7a9e96984ca&#45;&gt;bf950e152c3d4b578371356620c053b4 -->
<g id="edge2" class="edge">
<title>0c813f132ef94554844ac7a9e96984ca&#45;&gt;bf950e152c3d4b578371356620c053b4</title>
<path fill="none" stroke="black" d="M519.84,-143.4C507.24,-131.92 486.94,-113.42 471.92,-99.73"/>
<polygon fill="black" stroke="black" points="473.95,-96.84 464.2,-92.69 469.24,-102.02 473.95,-96.84"/>
<text text-anchor="middle" x="518.5" y="-114.33" font-family="Times,serif" font-size="14.00">name</text>
</g>
<!-- 41928f24aeb94bc98542db750d1944cf -->
<g id="node4" class="node">
<title>41928f24aeb94bc98542db750d1944cf</title>
<polygon fill="none" stroke="black" points="294,-240.53 139,-240.53 139,-217.53 294,-217.53 294,-240.53"/>
<text text-anchor="middle" x="216.5" y="-225.33" font-family="Times,serif" font-size="14.00">Widget &lt;Play: int&gt;</text>
</g>
<!-- 41928f24aeb94bc98542db750d1944cf&#45;&gt;8f5e1999bece4a438f6909840d8c7f62 -->
<g id="edge4" class="edge">
<title>41928f24aeb94bc98542db750d1944cf&#45;&gt;8f5e1999bece4a438f6909840d8c7f62</title>
<path fill="none" stroke="black" d="M216.5,-217.4C216.5,-206.77 216.5,-190.12 216.5,-176.85"/>
<polygon fill="black" stroke="black" points="220,-176.69 216.5,-166.69 213,-176.69 220,-176.69"/>
<text text-anchor="middle" x="247.5" y="-188.33" font-family="Times,serif" font-size="14.00">iteration</text>
</g>
</g>
</svg>
