<?xml version="1.0" encoding="UTF-8" standalone="no"?>
<!DOCTYPE svg PUBLIC "-//W3C//DTD SVG 1.1//EN"
 "http://www.w3.org/Graphics/SVG/1.1/DTD/svg11.dtd">
<!-- Generated by graphviz version 2.43.0 (0)
 -->
<!-- Title: %3 Pages: 1 -->
<svg width="486pt" height="249pt"
 viewBox="0.00 0.00 486.00 248.53" xmlns="http://www.w3.org/2000/svg" xmlns:xlink="http://www.w3.org/1999/xlink">
<g id="graph0" class="graph" transform="scale(1 1) rotate(0) translate(4 244.53)">
<title>%3</title>
<polygon fill="white" stroke="transparent" points="-4,4 -4,-244.53 482,-244.53 482,4 -4,4"/>
<!-- 30a2fd73f261408a9a8a78de068aaecf -->
<g id="node1" class="node">
<title>30a2fd73f261408a9a8a78de068aaecf</title>
<polygon fill="none" stroke="black" points="363,-92.53 230,-92.53 230,-69.53 363,-69.53 363,-92.53"/>
<text text-anchor="middle" x="296.5" y="-77.33" font-family="Times,serif" font-size="14.00">sum(arg_0, dim)</text>
</g>
<!-- c5d5425f39544e8d9a3071d09c27fc1c -->
<g id="node6" class="node">
<title>c5d5425f39544e8d9a3071d09c27fc1c</title>
<ellipse fill="lightgrey" stroke="lightgrey" cx="296.5" cy="-16.26" rx="84.71" ry="16.03"/>
<text text-anchor="middle" x="296.5" y="-12.56" font-family="Times,serif" font-size="14.00">GraphicalView</text>
</g>
<!-- 30a2fd73f261408a9a8a78de068aaecf&#45;&gt;c5d5425f39544e8d9a3071d09c27fc1c -->
<g id="edge3" class="edge">
<title>30a2fd73f261408a9a8a78de068aaecf&#45;&gt;c5d5425f39544e8d9a3071d09c27fc1c</title>
<path fill="none" stroke="black" d="M296.5,-69.38C296.5,-62.06 296.5,-52.02 296.5,-42.7"/>
<polygon fill="black" stroke="black" points="300,-42.68 296.5,-32.68 293,-42.68 300,-42.68"/>
</g>
<!-- 94003754373d4c178be9fb103d78a228 -->
<g id="node2" class="node">
<title>94003754373d4c178be9fb103d78a228</title>
<polygon fill="none" stroke="black" points="304.5,-166.53 80.5,-166.53 80.5,-143.53 304.5,-143.53 304.5,-166.53"/>
<text text-anchor="middle" x="192.5" y="-151.33" font-family="Times,serif" font-size="14.00">slice_dims(data_array, slices)</text>
</g>
<!-- 94003754373d4c178be9fb103d78a228&#45;&gt;30a2fd73f261408a9a8a78de068aaecf -->
<g id="edge1" class="edge">
<title>94003754373d4c178be9fb103d78a228&#45;&gt;30a2fd73f261408a9a8a78de068aaecf</title>
<path fill="none" stroke="black" d="M207.85,-143.4C224.97,-131.55 252.9,-112.21 272.83,-98.41"/>
<polygon fill="black" stroke="black" points="274.86,-101.26 281.09,-92.69 270.88,-95.51 274.86,-101.26"/>
<text text-anchor="middle" x="274.5" y="-114.33" font-family="Times,serif" font-size="14.00">arg_0</text>
</g>
<!-- 56af8961195b4f508999c1a2a75c85f3 -->
<g id="node3" class="node">
<title>56af8961195b4f508999c1a2a75c85f3</title>
<polygon fill="none" stroke="black" points="478,-166.53 323,-166.53 323,-143.53 478,-143.53 478,-166.53"/>
<text text-anchor="middle" x="400.5" y="-151.33" font-family="Times,serif" font-size="14.00">Input &lt;str=&#39;time&#39;&gt;</text>
</g>
<!-- 56af8961195b4f508999c1a2a75c85f3&#45;&gt;30a2fd73f261408a9a8a78de068aaecf -->
<g id="edge2" class="edge">
<title>56af8961195b4f508999c1a2a75c85f3&#45;&gt;30a2fd73f261408a9a8a78de068aaecf</title>
<path fill="none" stroke="black" d="M385.15,-143.4C368.03,-131.55 340.1,-112.21 320.17,-98.41"/>
<polygon fill="black" stroke="black" points="322.12,-95.51 311.91,-92.69 318.14,-101.26 322.12,-95.51"/>
<text text-anchor="middle" x="371.5" y="-114.33" font-family="Times,serif" font-size="14.00">dim</text>
</g>
<!-- c060c820f55640aebaecb4fc176c95ff -->
<g id="node4" class="node">
<title>c060c820f55640aebaecb4fc176c95ff</title>
<polygon fill="none" stroke="black" points="157,-240.53 0,-240.53 0,-217.53 157,-217.53 157,-240.53"/>
<text text-anchor="middle" x="78.5" y="-225.33" font-family="Times,serif" font-size="14.00">Input &lt;DataArray&gt;</text>
</g>
<!-- c060c820f55640aebaecb4fc176c95ff&#45;&gt;94003754373d4c178be9fb103d78a228 -->
<g id="edge4" class="edge">
<title>c060c820f55640aebaecb4fc176c95ff&#45;&gt;94003754373d4c178be9fb103d78a228</title>
<path fill="none" stroke="black" d="M95.32,-217.4C114.26,-205.44 145.25,-185.87 167.14,-172.04"/>
<polygon fill="black" stroke="black" points="169.02,-174.99 175.61,-166.69 165.29,-169.08 169.02,-174.99"/>
<text text-anchor="middle" x="185" y="-188.33" font-family="Times,serif" font-size="14.00">data_array</text>
</g>
<!-- e175a362a3af4af4911c2f3351cfd446 -->
<g id="node5" class="node">
<title>e175a362a3af4af4911c2f3351cfd446</title>
<polygon fill="none" stroke="black" points="438,-240.53 175,-240.53 175,-217.53 438,-217.53 438,-240.53"/>
<text text-anchor="middle" x="306.5" y="-225.33" font-family="Times,serif" font-size="14.00">Widget &lt;RangeSliceWidget: dict&gt;</text>
</g>
<!-- e175a362a3af4af4911c2f3351cfd446&#45;&gt;94003754373d4c178be9fb103d78a228 -->
<g id="edge5" class="edge">
<title>e175a362a3af4af4911c2f3351cfd446&#45;&gt;94003754373d4c178be9fb103d78a228</title>
<path fill="none" stroke="black" d="M289.68,-217.4C270.74,-205.44 239.75,-185.87 217.86,-172.04"/>
<polygon fill="black" stroke="black" points="219.71,-169.08 209.39,-166.69 215.98,-174.99 219.71,-169.08"/>
<text text-anchor="middle" x="280.5" y="-188.33" font-family="Times,serif" font-size="14.00">slices</text>
</g>
</g>
</svg>
