<?xml version="1.0" encoding="UTF-8" standalone="no"?>
<!DOCTYPE svg PUBLIC "-//W3C//DTD SVG 1.1//EN"
 "http://www.w3.org/Graphics/SVG/1.1/DTD/svg11.dtd">
<!-- Generated by graphviz version 2.43.0 (0)
 -->
<!-- Title: %3 Pages: 1 -->
<svg width="440pt" height="175pt"
 viewBox="0.00 0.00 440.00 174.53" xmlns="http://www.w3.org/2000/svg" xmlns:xlink="http://www.w3.org/1999/xlink">
<g id="graph0" class="graph" transform="scale(1 1) rotate(0) translate(4 170.53)">
<title>%3</title>
<polygon fill="white" stroke="transparent" points="-4,4 -4,-170.53 436,-170.53 436,4 -4,4"/>
<!-- a9dd8dbeb56841909d70772662094508 -->
<g id="node1" class="node">
<title>a9dd8dbeb56841909d70772662094508</title>
<polygon fill="none" stroke="black" points="432,-92.53 0,-92.53 0,-69.53 432,-69.53 432,-92.53"/>
<text text-anchor="middle" x="216" y="-77.33" font-family="Times,serif" font-size="14.00">&lt;__main__.DataGen object at 0x7fed6301c590&gt;(iteration)</text>
</g>
<!-- 33f179f37f6043b589a476b942c45165 -->
<g id="node3" class="node">
<title>33f179f37f6043b589a476b942c45165</title>
<ellipse fill="lightgrey" stroke="lightgrey" cx="216" cy="-16.26" rx="84.71" ry="16.03"/>
<text text-anchor="middle" x="216" y="-12.56" font-family="Times,serif" font-size="14.00">GraphicalView</text>
</g>
<!-- a9dd8dbeb56841909d70772662094508&#45;&gt;33f179f37f6043b589a476b942c45165 -->
<g id="edge2" class="edge">
<title>a9dd8dbeb56841909d70772662094508&#45;&gt;33f179f37f6043b589a476b942c45165</title>
<path fill="none" stroke="black" d="M216,-69.38C216,-62.06 216,-52.02 216,-42.7"/>
<polygon fill="black" stroke="black" points="219.5,-42.68 216,-32.68 212.5,-42.68 219.5,-42.68"/>
</g>
<!-- ab457f1c31b644589edfa0e6e1638a26 -->
<g id="node2" class="node">
<title>ab457f1c31b644589edfa0e6e1638a26</title>
<polygon fill="none" stroke="black" points="293.5,-166.53 138.5,-166.53 138.5,-143.53 293.5,-143.53 293.5,-166.53"/>
<text text-anchor="middle" x="216" y="-151.33" font-family="Times,serif" font-size="14.00">Widget &lt;Play: int&gt;</text>
</g>
<!-- ab457f1c31b644589edfa0e6e1638a26&#45;&gt;a9dd8dbeb56841909d70772662094508 -->
<g id="edge1" class="edge">
<title>ab457f1c31b644589edfa0e6e1638a26&#45;&gt;a9dd8dbeb56841909d70772662094508</title>
<path fill="none" stroke="black" d="M216,-143.4C216,-132.77 216,-116.12 216,-102.85"/>
<polygon fill="black" stroke="black" points="219.5,-102.69 216,-92.69 212.5,-102.69 219.5,-102.69"/>
<text text-anchor="middle" x="247" y="-114.33" font-family="Times,serif" font-size="14.00">iteration</text>
</g>
</g>
</svg>
