<?xml version="1.0" encoding="UTF-8" standalone="no"?>
<!DOCTYPE svg PUBLIC "-//W3C//DTD SVG 1.1//EN"
 "http://www.w3.org/Graphics/SVG/1.1/DTD/svg11.dtd">
<!-- Generated by graphviz version 2.43.0 (0)
 -->
<!-- Title: %3 Pages: 1 -->
<svg width="451pt" height="184pt"
 viewBox="0.00 0.00 451.00 184.05" xmlns="http://www.w3.org/2000/svg" xmlns:xlink="http://www.w3.org/1999/xlink">
<g id="graph0" class="graph" transform="scale(1 1) rotate(0) translate(4 180.05)">
<title>%3</title>
<polygon fill="white" stroke="transparent" points="-4,4 -4,-180.05 447,-180.05 447,4 -4,4"/>
<!-- 6fe78d05718143b297a0ad08bc2f44fa -->
<g id="node1" class="node">
<title>6fe78d05718143b297a0ad08bc2f44fa</title>
<polygon fill="none" stroke="black" points="300,-176.05 143,-176.05 143,-153.05 300,-153.05 300,-176.05"/>
<text text-anchor="middle" x="221.5" y="-160.85" font-family="Times,serif" font-size="14.00">Input &lt;DataArray&gt;</text>
</g>
<!-- 083a30002334403ea77cf90e426adc68 -->
<g id="node2" class="node">
<title>083a30002334403ea77cf90e426adc68</title>
<polygon fill="none" stroke="black" points="119,-97.29 0,-97.29 0,-74.29 119,-74.29 119,-97.29"/>
<text text-anchor="middle" x="59.5" y="-82.09" font-family="Times,serif" font-size="14.00">Output node 0</text>
</g>
<!-- 6fe78d05718143b297a0ad08bc2f44fa&#45;&gt;083a30002334403ea77cf90e426adc68 -->
<g id="edge3" class="edge">
<title>6fe78d05718143b297a0ad08bc2f44fa&#45;&gt;083a30002334403ea77cf90e426adc68</title>
<path fill="none" stroke="black" d="M199.31,-153.04C171.28,-139.76 122.85,-116.81 90.99,-101.71"/>
<polygon fill="black" stroke="black" points="92.21,-98.42 81.68,-97.3 89.22,-104.74 92.21,-98.42"/>
<text text-anchor="middle" x="179.5" y="-123.85" font-family="Times,serif" font-size="14.00">arg_0</text>
</g>
<!-- e32ff6b28c2c400dbe879457c84ec078 -->
<g id="node4" class="node">
<title>e32ff6b28c2c400dbe879457c84ec078</title>
<polygon fill="none" stroke="black" points="443,-97.29 324,-97.29 324,-74.29 443,-74.29 443,-97.29"/>
<text text-anchor="middle" x="383.5" y="-82.09" font-family="Times,serif" font-size="14.00">Output node 1</text>
</g>
<!-- 6fe78d05718143b297a0ad08bc2f44fa&#45;&gt;e32ff6b28c2c400dbe879457c84ec078 -->
<g id="edge1" class="edge">
<title>6fe78d05718143b297a0ad08bc2f44fa&#45;&gt;e32ff6b28c2c400dbe879457c84ec078</title>
<path fill="none" stroke="black" d="M243.69,-153.04C271.72,-139.76 320.15,-116.81 352.01,-101.71"/>
<polygon fill="black" stroke="black" points="353.78,-104.74 361.32,-97.3 350.79,-98.42 353.78,-104.74"/>
<text text-anchor="middle" x="331.5" y="-123.85" font-family="Times,serif" font-size="14.00">arg_0</text>
</g>
<!-- b4d956455b804ce1a4a5e723c1662d10 -->
<g id="node7" class="node">
<title>b4d956455b804ce1a4a5e723c1662d10</title>
<ellipse fill="lightgrey" stroke="lightgrey" cx="221.5" cy="-85.79" rx="84.71" ry="16.03"/>
<text text-anchor="middle" x="221.5" y="-82.09" font-family="Times,serif" font-size="14.00">GraphicalView</text>
</g>
<!-- 6fe78d05718143b297a0ad08bc2f44fa&#45;&gt;b4d956455b804ce1a4a5e723c1662d10 -->
<g id="edge2" class="edge">
<title>6fe78d05718143b297a0ad08bc2f44fa&#45;&gt;b4d956455b804ce1a4a5e723c1662d10</title>
<path fill="none" stroke="black" d="M221.5,-152.88C221.5,-142.48 221.5,-126.26 221.5,-112.5"/>
<polygon fill="black" stroke="black" points="225,-112.14 221.5,-102.14 218,-112.14 225,-112.14"/>
</g>
<!-- f302227b73c94d548e2901c0f15e2d07 -->
<g id="node6" class="node">
<title>f302227b73c94d548e2901c0f15e2d07</title>
<ellipse fill="lightgrey" stroke="lightgrey" cx="220.5" cy="-16.26" rx="84.71" ry="16.03"/>
<text text-anchor="middle" x="220.5" y="-12.56" font-family="Times,serif" font-size="14.00">GraphicalView</text>
</g>
<!-- 083a30002334403ea77cf90e426adc68&#45;&gt;f302227b73c94d548e2901c0f15e2d07 -->
<g id="edge5" class="edge">
<title>083a30002334403ea77cf90e426adc68&#45;&gt;f302227b73c94d548e2901c0f15e2d07</title>
<path fill="none" stroke="black" d="M84.66,-74.24C109.55,-63.8 148.14,-47.61 177.84,-35.16"/>
<polygon fill="black" stroke="black" points="179.27,-38.35 187.14,-31.26 176.57,-31.9 179.27,-38.35"/>
</g>
<!-- ab6e802511fe40a9940baab645b294f1 -->
<g id="node3" class="node">
<title>ab6e802511fe40a9940baab645b294f1</title>
<polygon fill="none" stroke="black" points="113,-176.05 6,-176.05 6,-153.05 113,-153.05 113,-176.05"/>
<text text-anchor="middle" x="59.5" y="-160.85" font-family="Times,serif" font-size="14.00">Draw node 0</text>
</g>
<!-- ab6e802511fe40a9940baab645b294f1&#45;&gt;083a30002334403ea77cf90e426adc68 -->
<g id="edge4" class="edge">
<title>ab6e802511fe40a9940baab645b294f1&#45;&gt;083a30002334403ea77cf90e426adc68</title>
<path fill="none" stroke="black" d="M59.5,-152.88C59.5,-141.19 59.5,-122.17 59.5,-107.52"/>
<polygon fill="black" stroke="black" points="63,-107.37 59.5,-97.37 56,-107.37 63,-107.37"/>
<text text-anchor="middle" x="79.5" y="-123.85" font-family="Times,serif" font-size="14.00">arg_1</text>
</g>
<!-- e32ff6b28c2c400dbe879457c84ec078&#45;&gt;f302227b73c94d548e2901c0f15e2d07 -->
<g id="edge7" class="edge">
<title>e32ff6b28c2c400dbe879457c84ec078&#45;&gt;f302227b73c94d548e2901c0f15e2d07</title>
<path fill="none" stroke="black" d="M358.03,-74.24C332.82,-63.8 293.75,-47.61 263.69,-35.16"/>
<polygon fill="black" stroke="black" points="264.85,-31.85 254.27,-31.26 262.17,-38.32 264.85,-31.85"/>
</g>
<!-- dfcb8f84f6e3461bb55625bad9cebb72 -->
<g id="node5" class="node">
<title>dfcb8f84f6e3461bb55625bad9cebb72</title>
<polygon fill="none" stroke="black" points="437,-176.05 330,-176.05 330,-153.05 437,-153.05 437,-176.05"/>
<text text-anchor="middle" x="383.5" y="-160.85" font-family="Times,serif" font-size="14.00">Draw node 1</text>
</g>
<!-- dfcb8f84f6e3461bb55625bad9cebb72&#45;&gt;e32ff6b28c2c400dbe879457c84ec078 -->
<g id="edge6" class="edge">
<title>dfcb8f84f6e3461bb55625bad9cebb72&#45;&gt;e32ff6b28c2c400dbe879457c84ec078</title>
<path fill="none" stroke="black" d="M383.5,-152.88C383.5,-141.19 383.5,-122.17 383.5,-107.52"/>
<polygon fill="black" stroke="black" points="387,-107.37 383.5,-97.37 380,-107.37 387,-107.37"/>
<text text-anchor="middle" x="403.5" y="-123.85" font-family="Times,serif" font-size="14.00">arg_1</text>
</g>
</g>
</svg>
