<?xml version="1.0" encoding="utf-8" standalone="no"?>
<!DOCTYPE svg PUBLIC "-//W3C//DTD SVG 1.1//EN"
  "http://www.w3.org/Graphics/SVG/1.1/DTD/svg11.dtd">
<svg xmlns:xlink="http://www.w3.org/1999/xlink" width="872.39952pt" height="296.39952pt" viewBox="0 0 872.39952 296.39952" xmlns="http://www.w3.org/2000/svg" version="1.1">
 <metadata>
  <rdf:RDF xmlns:dc="http://purl.org/dc/elements/1.1/" xmlns:cc="http://creativecommons.org/ns#" xmlns:rdf="http://www.w3.org/1999/02/22-rdf-syntax-ns#">
   <cc:Work>
    <dc:type rdf:resource="http://purl.org/dc/dcmitype/StillImage"/>
    <dc:date>2026-02-18T13:46:46.998532</dc:date>
    <dc:format>image/svg+xml</dc:format>
    <dc:creator>
     <cc:Agent>
      <dc:title>Matplotlib v3.10.7, https://matplotlib.org/</dc:title>
     </cc:Agent>
    </dc:creator>
   </cc:Work>
  </rdf:RDF>
 </metadata>
 <defs>
  <style type="text/css">*{stroke-linejoin: round; stroke-linecap: butt}</style>
 </defs>
 <g id="figure_1">
  <g id="patch_1">
   <path d="M 0 296.39952 
L 872.39952 296.39952 
L 872.39952 0 
L 0 0 
z
" style="fill: #ffffff"/>
  </g>
  <g id="axes_1">
   <g id="patch_2">
    <path d="M 43.78125 258.84327 
L 414.59976 258.84327 
L 414.59976 22.318125 
L 43.78125 22.318125 
z
" style="fill: #ffffff"/>
   </g>
   <g id="matplotlib.axis_1">
    <g id="xtick_1">
     <g id="line2d_1">
      <defs>
       <path id="m7d5d3d722c" d="M 0 0 
L 0 3.5 
" style="stroke: #000000; stroke-width: 0.8"/>
      </defs>
      <g>
       <use xlink:href="#m7d5d3d722c" x="60.636637" y="258.84327" style="stroke: #000000; stroke-width: 0.8"/>
      </g>
     </g>
     <g id="text_1">
      <!-- 0 -->
      <g transform="translate(57.455387 273.441707) scale(0.1 -0.1)">
       <defs>
        <path id="DejaVuSans-30" d="M 2034 4250 
Q 1547 4250 1301 3770 
Q 1056 3291 1056 2328 
Q 1056 1369 1301 889 
Q 1547 409 2034 409 
Q 2525 409 2770 889 
Q 3016 1369 3016 2328 
Q 3016 3291 2770 3770 
Q 2525 4250 2034 4250 
z
M 2034 4750 
Q 2819 4750 3233 4129 
Q 3647 3509 3647 2328 
Q 3647 1150 3233 529 
Q 2819 -91 2034 -91 
Q 1250 -91 836 529 
Q 422 1150 422 2328 
Q 422 3509 836 4129 
Q 1250 4750 2034 4750 
z
" transform="scale(0.015625)"/>
       </defs>
       <use xlink:href="#DejaVuSans-30"/>
      </g>
     </g>
    </g>
    <g id="xtick_2">
     <g id="line2d_2">
      <g>
       <use xlink:href="#m7d5d3d722c" x="116.82126" y="258.84327" style="stroke: #000000; stroke-width: 0.8"/>
      </g>
     </g>
     <g id="text_2">
      <!-- 1 -->
      <g transform="translate(113.64001 273.441707) scale(0.1 -0.1)">
       <defs>
        <path id="DejaVuSans-31" d="M 794 531 
L 1825 531 
L 1825 4091 
L 703 3866 
L 703 4441 
L 1819 4666 
L 2450 4666 
L 2450 531 
L 3481 531 
L 3481 0 
L 794 0 
L 794 531 
z
" transform="scale(0.015625)"/>
       </defs>
       <use xlink:href="#DejaVuSans-31"/>
      </g>
     </g>
    </g>
    <g id="xtick_3">
     <g id="line2d_3">
      <g>
       <use xlink:href="#m7d5d3d722c" x="173.005882" y="258.84327" style="stroke: #000000; stroke-width: 0.8"/>
      </g>
     </g>
     <g id="text_3">
      <!-- 2 -->
      <g transform="translate(169.824632 273.441707) scale(0.1 -0.1)">
       <defs>
        <path id="DejaVuSans-32" d="M 1228 531 
L 3431 531 
L 3431 0 
L 469 0 
L 469 531 
Q 828 903 1448 1529 
Q 2069 2156 2228 2338 
Q 2531 2678 2651 2914 
Q 2772 3150 2772 3378 
Q 2772 3750 2511 3984 
Q 2250 4219 1831 4219 
Q 1534 4219 1204 4116 
Q 875 4013 500 3803 
L 500 4441 
Q 881 4594 1212 4672 
Q 1544 4750 1819 4750 
Q 2544 4750 2975 4387 
Q 3406 4025 3406 3419 
Q 3406 3131 3298 2873 
Q 3191 2616 2906 2266 
Q 2828 2175 2409 1742 
Q 1991 1309 1228 531 
z
" transform="scale(0.015625)"/>
       </defs>
       <use xlink:href="#DejaVuSans-32"/>
      </g>
     </g>
    </g>
    <g id="xtick_4">
     <g id="line2d_4">
      <g>
       <use xlink:href="#m7d5d3d722c" x="229.190505" y="258.84327" style="stroke: #000000; stroke-width: 0.8"/>
      </g>
     </g>
     <g id="text_4">
      <!-- 3 -->
      <g transform="translate(226.009255 273.441707) scale(0.1 -0.1)">
       <defs>
        <path id="DejaVuSans-33" d="M 2597 2516 
Q 3050 2419 3304 2112 
Q 3559 1806 3559 1356 
Q 3559 666 3084 287 
Q 2609 -91 1734 -91 
Q 1441 -91 1130 -33 
Q 819 25 488 141 
L 488 750 
Q 750 597 1062 519 
Q 1375 441 1716 441 
Q 2309 441 2620 675 
Q 2931 909 2931 1356 
Q 2931 1769 2642 2001 
Q 2353 2234 1838 2234 
L 1294 2234 
L 1294 2753 
L 1863 2753 
Q 2328 2753 2575 2939 
Q 2822 3125 2822 3475 
Q 2822 3834 2567 4026 
Q 2313 4219 1838 4219 
Q 1578 4219 1281 4162 
Q 984 4106 628 3988 
L 628 4550 
Q 988 4650 1302 4700 
Q 1616 4750 1894 4750 
Q 2613 4750 3031 4423 
Q 3450 4097 3450 3541 
Q 3450 3153 3228 2886 
Q 3006 2619 2597 2516 
z
" transform="scale(0.015625)"/>
       </defs>
       <use xlink:href="#DejaVuSans-33"/>
      </g>
     </g>
    </g>
    <g id="xtick_5">
     <g id="line2d_5">
      <g>
       <use xlink:href="#m7d5d3d722c" x="285.375128" y="258.84327" style="stroke: #000000; stroke-width: 0.8"/>
      </g>
     </g>
     <g id="text_5">
      <!-- 4 -->
      <g transform="translate(282.193878 273.441707) scale(0.1 -0.1)">
       <defs>
        <path id="DejaVuSans-34" d="M 2419 4116 
L 825 1625 
L 2419 1625 
L 2419 4116 
z
M 2253 4666 
L 3047 4666 
L 3047 1625 
L 3713 1625 
L 3713 1100 
L 3047 1100 
L 3047 0 
L 2419 0 
L 2419 1100 
L 313 1100 
L 313 1709 
L 2253 4666 
z
" transform="scale(0.015625)"/>
       </defs>
       <use xlink:href="#DejaVuSans-34"/>
      </g>
     </g>
    </g>
    <g id="xtick_6">
     <g id="line2d_6">
      <g>
       <use xlink:href="#m7d5d3d722c" x="341.55975" y="258.84327" style="stroke: #000000; stroke-width: 0.8"/>
      </g>
     </g>
     <g id="text_6">
      <!-- 5 -->
      <g transform="translate(338.3785 273.441707) scale(0.1 -0.1)">
       <defs>
        <path id="DejaVuSans-35" d="M 691 4666 
L 3169 4666 
L 3169 4134 
L 1269 4134 
L 1269 2991 
Q 1406 3038 1543 3061 
Q 1681 3084 1819 3084 
Q 2600 3084 3056 2656 
Q 3513 2228 3513 1497 
Q 3513 744 3044 326 
Q 2575 -91 1722 -91 
Q 1428 -91 1123 -41 
Q 819 9 494 109 
L 494 744 
Q 775 591 1075 516 
Q 1375 441 1709 441 
Q 2250 441 2565 725 
Q 2881 1009 2881 1497 
Q 2881 1984 2565 2268 
Q 2250 2553 1709 2553 
Q 1456 2553 1204 2497 
Q 953 2441 691 2322 
L 691 4666 
z
" transform="scale(0.015625)"/>
       </defs>
       <use xlink:href="#DejaVuSans-35"/>
      </g>
     </g>
    </g>
    <g id="xtick_7">
     <g id="line2d_7">
      <g>
       <use xlink:href="#m7d5d3d722c" x="397.744373" y="258.84327" style="stroke: #000000; stroke-width: 0.8"/>
      </g>
     </g>
     <g id="text_7">
      <!-- 6 -->
      <g transform="translate(394.563123 273.441707) scale(0.1 -0.1)">
       <defs>
        <path id="DejaVuSans-36" d="M 2113 2584 
Q 1688 2584 1439 2293 
Q 1191 2003 1191 1497 
Q 1191 994 1439 701 
Q 1688 409 2113 409 
Q 2538 409 2786 701 
Q 3034 994 3034 1497 
Q 3034 2003 2786 2293 
Q 2538 2584 2113 2584 
z
M 3366 4563 
L 3366 3988 
Q 3128 4100 2886 4159 
Q 2644 4219 2406 4219 
Q 1781 4219 1451 3797 
Q 1122 3375 1075 2522 
Q 1259 2794 1537 2939 
Q 1816 3084 2150 3084 
Q 2853 3084 3261 2657 
Q 3669 2231 3669 1497 
Q 3669 778 3244 343 
Q 2819 -91 2113 -91 
Q 1303 -91 875 529 
Q 447 1150 447 2328 
Q 447 3434 972 4092 
Q 1497 4750 2381 4750 
Q 2619 4750 2861 4703 
Q 3103 4656 3366 4563 
z
" transform="scale(0.015625)"/>
       </defs>
       <use xlink:href="#DejaVuSans-36"/>
      </g>
     </g>
    </g>
    <g id="text_8">
     <!-- event [dimensionless] -->
     <g transform="translate(173.882692 287.119832) scale(0.1 -0.1)">
      <defs>
       <path id="DejaVuSans-65" d="M 3597 1894 
L 3597 1613 
L 953 1613 
Q 991 1019 1311 708 
Q 1631 397 2203 397 
Q 2534 397 2845 478 
Q 3156 559 3463 722 
L 3463 178 
Q 3153 47 2828 -22 
Q 2503 -91 2169 -91 
Q 1331 -91 842 396 
Q 353 884 353 1716 
Q 353 2575 817 3079 
Q 1281 3584 2069 3584 
Q 2775 3584 3186 3129 
Q 3597 2675 3597 1894 
z
M 3022 2063 
Q 3016 2534 2758 2815 
Q 2500 3097 2075 3097 
Q 1594 3097 1305 2825 
Q 1016 2553 972 2059 
L 3022 2063 
z
" transform="scale(0.015625)"/>
       <path id="DejaVuSans-76" d="M 191 3500 
L 800 3500 
L 1894 563 
L 2988 3500 
L 3597 3500 
L 2284 0 
L 1503 0 
L 191 3500 
z
" transform="scale(0.015625)"/>
       <path id="DejaVuSans-6e" d="M 3513 2113 
L 3513 0 
L 2938 0 
L 2938 2094 
Q 2938 2591 2744 2837 
Q 2550 3084 2163 3084 
Q 1697 3084 1428 2787 
Q 1159 2491 1159 1978 
L 1159 0 
L 581 0 
L 581 3500 
L 1159 3500 
L 1159 2956 
Q 1366 3272 1645 3428 
Q 1925 3584 2291 3584 
Q 2894 3584 3203 3211 
Q 3513 2838 3513 2113 
z
" transform="scale(0.015625)"/>
       <path id="DejaVuSans-74" d="M 1172 4494 
L 1172 3500 
L 2356 3500 
L 2356 3053 
L 1172 3053 
L 1172 1153 
Q 1172 725 1289 603 
Q 1406 481 1766 481 
L 2356 481 
L 2356 0 
L 1766 0 
Q 1100 0 847 248 
Q 594 497 594 1153 
L 594 3053 
L 172 3053 
L 172 3500 
L 594 3500 
L 594 4494 
L 1172 4494 
z
" transform="scale(0.015625)"/>
       <path id="DejaVuSans-20" transform="scale(0.015625)"/>
       <path id="DejaVuSans-5b" d="M 550 4863 
L 1875 4863 
L 1875 4416 
L 1125 4416 
L 1125 -397 
L 1875 -397 
L 1875 -844 
L 550 -844 
L 550 4863 
z
" transform="scale(0.015625)"/>
       <path id="DejaVuSans-64" d="M 2906 2969 
L 2906 4863 
L 3481 4863 
L 3481 0 
L 2906 0 
L 2906 525 
Q 2725 213 2448 61 
Q 2172 -91 1784 -91 
Q 1150 -91 751 415 
Q 353 922 353 1747 
Q 353 2572 751 3078 
Q 1150 3584 1784 3584 
Q 2172 3584 2448 3432 
Q 2725 3281 2906 2969 
z
M 947 1747 
Q 947 1113 1208 752 
Q 1469 391 1925 391 
Q 2381 391 2643 752 
Q 2906 1113 2906 1747 
Q 2906 2381 2643 2742 
Q 2381 3103 1925 3103 
Q 1469 3103 1208 2742 
Q 947 2381 947 1747 
z
" transform="scale(0.015625)"/>
       <path id="DejaVuSans-69" d="M 603 3500 
L 1178 3500 
L 1178 0 
L 603 0 
L 603 3500 
z
M 603 4863 
L 1178 4863 
L 1178 4134 
L 603 4134 
L 603 4863 
z
" transform="scale(0.015625)"/>
       <path id="DejaVuSans-6d" d="M 3328 2828 
Q 3544 3216 3844 3400 
Q 4144 3584 4550 3584 
Q 5097 3584 5394 3201 
Q 5691 2819 5691 2113 
L 5691 0 
L 5113 0 
L 5113 2094 
Q 5113 2597 4934 2840 
Q 4756 3084 4391 3084 
Q 3944 3084 3684 2787 
Q 3425 2491 3425 1978 
L 3425 0 
L 2847 0 
L 2847 2094 
Q 2847 2600 2669 2842 
Q 2491 3084 2119 3084 
Q 1678 3084 1418 2786 
Q 1159 2488 1159 1978 
L 1159 0 
L 581 0 
L 581 3500 
L 1159 3500 
L 1159 2956 
Q 1356 3278 1631 3431 
Q 1906 3584 2284 3584 
Q 2666 3584 2933 3390 
Q 3200 3197 3328 2828 
z
" transform="scale(0.015625)"/>
       <path id="DejaVuSans-73" d="M 2834 3397 
L 2834 2853 
Q 2591 2978 2328 3040 
Q 2066 3103 1784 3103 
Q 1356 3103 1142 2972 
Q 928 2841 928 2578 
Q 928 2378 1081 2264 
Q 1234 2150 1697 2047 
L 1894 2003 
Q 2506 1872 2764 1633 
Q 3022 1394 3022 966 
Q 3022 478 2636 193 
Q 2250 -91 1575 -91 
Q 1294 -91 989 -36 
Q 684 19 347 128 
L 347 722 
Q 666 556 975 473 
Q 1284 391 1588 391 
Q 1994 391 2212 530 
Q 2431 669 2431 922 
Q 2431 1156 2273 1281 
Q 2116 1406 1581 1522 
L 1381 1569 
Q 847 1681 609 1914 
Q 372 2147 372 2553 
Q 372 3047 722 3315 
Q 1072 3584 1716 3584 
Q 2034 3584 2315 3537 
Q 2597 3491 2834 3397 
z
" transform="scale(0.015625)"/>
       <path id="DejaVuSans-6f" d="M 1959 3097 
Q 1497 3097 1228 2736 
Q 959 2375 959 1747 
Q 959 1119 1226 758 
Q 1494 397 1959 397 
Q 2419 397 2687 759 
Q 2956 1122 2956 1747 
Q 2956 2369 2687 2733 
Q 2419 3097 1959 3097 
z
M 1959 3584 
Q 2709 3584 3137 3096 
Q 3566 2609 3566 1747 
Q 3566 888 3137 398 
Q 2709 -91 1959 -91 
Q 1206 -91 779 398 
Q 353 888 353 1747 
Q 353 2609 779 3096 
Q 1206 3584 1959 3584 
z
" transform="scale(0.015625)"/>
       <path id="DejaVuSans-6c" d="M 603 4863 
L 1178 4863 
L 1178 0 
L 603 0 
L 603 4863 
z
" transform="scale(0.015625)"/>
       <path id="DejaVuSans-5d" d="M 1947 4863 
L 1947 -844 
L 622 -844 
L 622 -397 
L 1369 -397 
L 1369 4416 
L 622 4416 
L 622 4863 
L 1947 4863 
z
" transform="scale(0.015625)"/>
      </defs>
      <use xlink:href="#DejaVuSans-65"/>
      <use xlink:href="#DejaVuSans-76" transform="translate(61.523438 0)"/>
      <use xlink:href="#DejaVuSans-65" transform="translate(120.703125 0)"/>
      <use xlink:href="#DejaVuSans-6e" transform="translate(182.226562 0)"/>
      <use xlink:href="#DejaVuSans-74" transform="translate(245.605469 0)"/>
      <use xlink:href="#DejaVuSans-20" transform="translate(284.814453 0)"/>
      <use xlink:href="#DejaVuSans-5b" transform="translate(316.601562 0)"/>
      <use xlink:href="#DejaVuSans-64" transform="translate(355.615234 0)"/>
      <use xlink:href="#DejaVuSans-69" transform="translate(419.091797 0)"/>
      <use xlink:href="#DejaVuSans-6d" transform="translate(446.875 0)"/>
      <use xlink:href="#DejaVuSans-65" transform="translate(544.287109 0)"/>
      <use xlink:href="#DejaVuSans-6e" transform="translate(605.810547 0)"/>
      <use xlink:href="#DejaVuSans-73" transform="translate(669.189453 0)"/>
      <use xlink:href="#DejaVuSans-69" transform="translate(721.289062 0)"/>
      <use xlink:href="#DejaVuSans-6f" transform="translate(749.072266 0)"/>
      <use xlink:href="#DejaVuSans-6e" transform="translate(810.253906 0)"/>
      <use xlink:href="#DejaVuSans-6c" transform="translate(873.632812 0)"/>
      <use xlink:href="#DejaVuSans-65" transform="translate(901.416016 0)"/>
      <use xlink:href="#DejaVuSans-73" transform="translate(962.939453 0)"/>
      <use xlink:href="#DejaVuSans-73" transform="translate(1015.039062 0)"/>
      <use xlink:href="#DejaVuSans-5d" transform="translate(1067.138672 0)"/>
     </g>
    </g>
   </g>
   <g id="matplotlib.axis_2">
    <g id="ytick_1">
     <g id="line2d_8">
      <defs>
       <path id="m4bafd90dbd" d="M 0 0 
L -3.5 0 
" style="stroke: #000000; stroke-width: 0.8"/>
      </defs>
      <g>
       <use xlink:href="#m4bafd90dbd" x="43.78125" y="248.092127" style="stroke: #000000; stroke-width: 0.8"/>
      </g>
     </g>
     <g id="text_9">
      <!-- 0.0 -->
      <g transform="translate(20.878125 251.891346) scale(0.1 -0.1)">
       <defs>
        <path id="DejaVuSans-2e" d="M 684 794 
L 1344 794 
L 1344 0 
L 684 0 
L 684 794 
z
" transform="scale(0.015625)"/>
       </defs>
       <use xlink:href="#DejaVuSans-30"/>
       <use xlink:href="#DejaVuSans-2e" transform="translate(63.623047 0)"/>
       <use xlink:href="#DejaVuSans-30" transform="translate(95.410156 0)"/>
      </g>
     </g>
    </g>
    <g id="ytick_2">
     <g id="line2d_9">
      <g>
       <use xlink:href="#m4bafd90dbd" x="43.78125" y="205.190519" style="stroke: #000000; stroke-width: 0.8"/>
      </g>
     </g>
     <g id="text_10">
      <!-- 0.1 -->
      <g transform="translate(20.878125 208.989738) scale(0.1 -0.1)">
       <use xlink:href="#DejaVuSans-30"/>
       <use xlink:href="#DejaVuSans-2e" transform="translate(63.623047 0)"/>
       <use xlink:href="#DejaVuSans-31" transform="translate(95.410156 0)"/>
      </g>
     </g>
    </g>
    <g id="ytick_3">
     <g id="line2d_10">
      <g>
       <use xlink:href="#m4bafd90dbd" x="43.78125" y="162.288911" style="stroke: #000000; stroke-width: 0.8"/>
      </g>
     </g>
     <g id="text_11">
      <!-- 0.2 -->
      <g transform="translate(20.878125 166.08813) scale(0.1 -0.1)">
       <use xlink:href="#DejaVuSans-30"/>
       <use xlink:href="#DejaVuSans-2e" transform="translate(63.623047 0)"/>
       <use xlink:href="#DejaVuSans-32" transform="translate(95.410156 0)"/>
      </g>
     </g>
    </g>
    <g id="ytick_4">
     <g id="line2d_11">
      <g>
       <use xlink:href="#m4bafd90dbd" x="43.78125" y="119.387303" style="stroke: #000000; stroke-width: 0.8"/>
      </g>
     </g>
     <g id="text_12">
      <!-- 0.3 -->
      <g transform="translate(20.878125 123.186522) scale(0.1 -0.1)">
       <use xlink:href="#DejaVuSans-30"/>
       <use xlink:href="#DejaVuSans-2e" transform="translate(63.623047 0)"/>
       <use xlink:href="#DejaVuSans-33" transform="translate(95.410156 0)"/>
      </g>
     </g>
    </g>
    <g id="ytick_5">
     <g id="line2d_12">
      <g>
       <use xlink:href="#m4bafd90dbd" x="43.78125" y="76.485695" style="stroke: #000000; stroke-width: 0.8"/>
      </g>
     </g>
     <g id="text_13">
      <!-- 0.4 -->
      <g transform="translate(20.878125 80.284914) scale(0.1 -0.1)">
       <use xlink:href="#DejaVuSans-30"/>
       <use xlink:href="#DejaVuSans-2e" transform="translate(63.623047 0)"/>
       <use xlink:href="#DejaVuSans-34" transform="translate(95.410156 0)"/>
      </g>
     </g>
    </g>
    <g id="ytick_6">
     <g id="line2d_13">
      <g>
       <use xlink:href="#m4bafd90dbd" x="43.78125" y="33.584087" style="stroke: #000000; stroke-width: 0.8"/>
      </g>
     </g>
     <g id="text_14">
      <!-- 0.5 -->
      <g transform="translate(20.878125 37.383306) scale(0.1 -0.1)">
       <use xlink:href="#DejaVuSans-30"/>
       <use xlink:href="#DejaVuSans-2e" transform="translate(63.623047 0)"/>
       <use xlink:href="#DejaVuSans-35" transform="translate(95.410156 0)"/>
      </g>
     </g>
    </g>
    <g id="text_15">
     <!-- [counts] -->
     <g transform="translate(14.798438 161.193197) rotate(-90) scale(0.1 -0.1)">
      <defs>
       <path id="DejaVuSans-63" d="M 3122 3366 
L 3122 2828 
Q 2878 2963 2633 3030 
Q 2388 3097 2138 3097 
Q 1578 3097 1268 2742 
Q 959 2388 959 1747 
Q 959 1106 1268 751 
Q 1578 397 2138 397 
Q 2388 397 2633 464 
Q 2878 531 3122 666 
L 3122 134 
Q 2881 22 2623 -34 
Q 2366 -91 2075 -91 
Q 1284 -91 818 406 
Q 353 903 353 1747 
Q 353 2603 823 3093 
Q 1294 3584 2113 3584 
Q 2378 3584 2631 3529 
Q 2884 3475 3122 3366 
z
" transform="scale(0.015625)"/>
       <path id="DejaVuSans-75" d="M 544 1381 
L 544 3500 
L 1119 3500 
L 1119 1403 
Q 1119 906 1312 657 
Q 1506 409 1894 409 
Q 2359 409 2629 706 
Q 2900 1003 2900 1516 
L 2900 3500 
L 3475 3500 
L 3475 0 
L 2900 0 
L 2900 538 
Q 2691 219 2414 64 
Q 2138 -91 1772 -91 
Q 1169 -91 856 284 
Q 544 659 544 1381 
z
M 1991 3584 
L 1991 3584 
z
" transform="scale(0.015625)"/>
      </defs>
      <use xlink:href="#DejaVuSans-5b"/>
      <use xlink:href="#DejaVuSans-63" transform="translate(39.013672 0)"/>
      <use xlink:href="#DejaVuSans-6f" transform="translate(93.994141 0)"/>
      <use xlink:href="#DejaVuSans-75" transform="translate(155.175781 0)"/>
      <use xlink:href="#DejaVuSans-6e" transform="translate(218.554688 0)"/>
      <use xlink:href="#DejaVuSans-74" transform="translate(281.933594 0)"/>
      <use xlink:href="#DejaVuSans-73" transform="translate(321.142578 0)"/>
      <use xlink:href="#DejaVuSans-5d" transform="translate(373.242188 0)"/>
     </g>
    </g>
   </g>
   <g id="line2d_14">
    <path d="M 60.636637 248.092127 
L 60.636637 248.092127 
L 60.636637 248.092127 
L 60.636637 248.092127 
L 60.636637 248.092127 
L 60.636637 248.092127 
L 60.636637 248.092127 
L 60.636637 248.092127 
L 60.636637 248.092127 
L 60.636637 34.098907 
L 116.82126 34.098907 
L 116.82126 248.092127 
L 116.82126 248.092127 
L 116.82126 248.092127 
L 116.82126 248.092127 
L 116.82126 248.092127 
L 116.82126 248.092127 
L 116.82126 248.092127 
L 116.82126 248.092127 
L 116.82126 33.069268 
L 173.005882 33.069268 
" clip-path="url(#p22cc1abad6)" style="fill: none; stroke: #1f77b4; stroke-opacity: 0.8; stroke-width: 4; stroke-linecap: square"/>
   </g>
   <g id="line2d_15">
    <path d="M 60.636637 248.092127 
L 60.636637 248.092127 
L 60.636637 248.092127 
L 60.636637 248.092127 
L 60.636637 248.092127 
L 60.636637 248.092127 
L 60.636637 248.092127 
L 60.636637 136.676651 
L 116.82126 136.676651 
L 116.82126 248.092127 
L 116.82126 248.092127 
L 116.82126 248.092127 
L 116.82126 248.092127 
L 116.82126 36.243987 
L 173.005882 36.243987 
L 173.005882 248.092127 
L 173.005882 248.092127 
L 173.005882 248.092127 
L 173.005882 248.092127 
L 173.005882 142.339663 
L 229.190505 142.339663 
" clip-path="url(#p22cc1abad6)" style="fill: none; stroke: #ff7f0e; stroke-opacity: 0.8; stroke-width: 4; stroke-linecap: square"/>
   </g>
   <g id="line2d_16">
    <path d="M 60.636637 248.092127 
L 60.636637 248.092127 
L 60.636637 248.092127 
L 60.636637 248.092127 
L 60.636637 248.092127 
L 60.636637 196.910509 
L 116.82126 196.910509 
L 116.82126 248.092127 
L 116.82126 248.092127 
L 116.82126 87.425605 
L 173.005882 87.425605 
L 173.005882 248.092127 
L 173.005882 248.092127 
L 173.005882 248.092127 
L 173.005882 248.092127 
L 173.005882 88.669752 
L 229.190505 88.669752 
L 229.190505 248.092127 
L 229.190505 248.092127 
L 229.190505 190.346563 
L 285.375128 190.346563 
" clip-path="url(#p22cc1abad6)" style="fill: none; stroke: #2ca02c; stroke-opacity: 0.8; stroke-width: 4; stroke-linecap: square"/>
   </g>
   <g id="line2d_17">
    <path d="M 60.636637 248.092127 
L 60.636637 248.092127 
L 60.636637 248.092127 
L 60.636637 220.678 
L 116.82126 220.678 
L 116.82126 248.092127 
L 116.82126 248.092127 
L 116.82126 138.993338 
L 173.005882 138.993338 
L 173.005882 248.092127 
L 173.005882 248.092127 
L 173.005882 88.712653 
L 229.190505 88.712653 
L 229.190505 248.092127 
L 229.190505 248.092127 
L 229.190505 142.082254 
L 285.375128 142.082254 
L 285.375128 248.092127 
L 285.375128 248.092127 
L 285.375128 220.978311 
L 341.55975 220.978311 
" clip-path="url(#p22cc1abad6)" style="fill: none; stroke: #d62728; stroke-opacity: 0.8; stroke-width: 4; stroke-linecap: square"/>
   </g>
   <g id="line2d_18">
    <path d="M 60.636637 248.092127 
L 60.636637 248.092127 
L 60.636637 248.092127 
L 60.636637 234.149104 
L 116.82126 234.149104 
L 116.82126 248.092127 
L 116.82126 248.092127 
L 116.82126 182.838781 
L 173.005882 182.838781 
L 173.005882 112.351439 
L 229.190505 112.351439 
L 229.190505 248.092127 
L 229.190505 248.092127 
L 229.190505 115.354552 
L 285.375128 115.354552 
L 285.375128 248.092127 
L 285.375128 248.092127 
L 285.375128 180.350488 
L 341.55975 180.350488 
L 341.55975 234.492317 
L 397.744373 234.492317 
" clip-path="url(#p22cc1abad6)" style="fill: none; stroke: #9467bd; stroke-opacity: 0.8; stroke-width: 4; stroke-linecap: square"/>
   </g>
   <g id="patch_3">
    <path d="M 43.78125 258.84327 
L 43.78125 22.318125 
" style="fill: none; stroke: #000000; stroke-width: 0.8; stroke-linejoin: miter; stroke-linecap: square"/>
   </g>
   <g id="patch_4">
    <path d="M 414.59976 258.84327 
L 414.59976 22.318125 
" style="fill: none; stroke: #000000; stroke-width: 0.8; stroke-linejoin: miter; stroke-linecap: square"/>
   </g>
   <g id="patch_5">
    <path d="M 43.78125 258.84327 
L 414.59976 258.84327 
" style="fill: none; stroke: #000000; stroke-width: 0.8; stroke-linejoin: miter; stroke-linecap: square"/>
   </g>
   <g id="patch_6">
    <path d="M 43.78125 22.318125 
L 414.59976 22.318125 
" style="fill: none; stroke: #000000; stroke-width: 0.8; stroke-linejoin: miter; stroke-linecap: square"/>
   </g>
   <g id="text_16">
    <!-- binomial distribution -->
    <g transform="translate(167.28738 16.318125) scale(0.12 -0.12)">
     <defs>
      <path id="DejaVuSans-62" d="M 3116 1747 
Q 3116 2381 2855 2742 
Q 2594 3103 2138 3103 
Q 1681 3103 1420 2742 
Q 1159 2381 1159 1747 
Q 1159 1113 1420 752 
Q 1681 391 2138 391 
Q 2594 391 2855 752 
Q 3116 1113 3116 1747 
z
M 1159 2969 
Q 1341 3281 1617 3432 
Q 1894 3584 2278 3584 
Q 2916 3584 3314 3078 
Q 3713 2572 3713 1747 
Q 3713 922 3314 415 
Q 2916 -91 2278 -91 
Q 1894 -91 1617 61 
Q 1341 213 1159 525 
L 1159 0 
L 581 0 
L 581 4863 
L 1159 4863 
L 1159 2969 
z
" transform="scale(0.015625)"/>
      <path id="DejaVuSans-61" d="M 2194 1759 
Q 1497 1759 1228 1600 
Q 959 1441 959 1056 
Q 959 750 1161 570 
Q 1363 391 1709 391 
Q 2188 391 2477 730 
Q 2766 1069 2766 1631 
L 2766 1759 
L 2194 1759 
z
M 3341 1997 
L 3341 0 
L 2766 0 
L 2766 531 
Q 2569 213 2275 61 
Q 1981 -91 1556 -91 
Q 1019 -91 701 211 
Q 384 513 384 1019 
Q 384 1609 779 1909 
Q 1175 2209 1959 2209 
L 2766 2209 
L 2766 2266 
Q 2766 2663 2505 2880 
Q 2244 3097 1772 3097 
Q 1472 3097 1187 3025 
Q 903 2953 641 2809 
L 641 3341 
Q 956 3463 1253 3523 
Q 1550 3584 1831 3584 
Q 2591 3584 2966 3190 
Q 3341 2797 3341 1997 
z
" transform="scale(0.015625)"/>
      <path id="DejaVuSans-72" d="M 2631 2963 
Q 2534 3019 2420 3045 
Q 2306 3072 2169 3072 
Q 1681 3072 1420 2755 
Q 1159 2438 1159 1844 
L 1159 0 
L 581 0 
L 581 3500 
L 1159 3500 
L 1159 2956 
Q 1341 3275 1631 3429 
Q 1922 3584 2338 3584 
Q 2397 3584 2469 3576 
Q 2541 3569 2628 3553 
L 2631 2963 
z
" transform="scale(0.015625)"/>
     </defs>
     <use xlink:href="#DejaVuSans-62"/>
     <use xlink:href="#DejaVuSans-69" transform="translate(63.476562 0)"/>
     <use xlink:href="#DejaVuSans-6e" transform="translate(91.259766 0)"/>
     <use xlink:href="#DejaVuSans-6f" transform="translate(154.638672 0)"/>
     <use xlink:href="#DejaVuSans-6d" transform="translate(215.820312 0)"/>
     <use xlink:href="#DejaVuSans-69" transform="translate(313.232422 0)"/>
     <use xlink:href="#DejaVuSans-61" transform="translate(341.015625 0)"/>
     <use xlink:href="#DejaVuSans-6c" transform="translate(402.294922 0)"/>
     <use xlink:href="#DejaVuSans-20" transform="translate(430.078125 0)"/>
     <use xlink:href="#DejaVuSans-64" transform="translate(461.865234 0)"/>
     <use xlink:href="#DejaVuSans-69" transform="translate(525.341797 0)"/>
     <use xlink:href="#DejaVuSans-73" transform="translate(553.125 0)"/>
     <use xlink:href="#DejaVuSans-74" transform="translate(605.224609 0)"/>
     <use xlink:href="#DejaVuSans-72" transform="translate(644.433594 0)"/>
     <use xlink:href="#DejaVuSans-69" transform="translate(685.546875 0)"/>
     <use xlink:href="#DejaVuSans-62" transform="translate(713.330078 0)"/>
     <use xlink:href="#DejaVuSans-75" transform="translate(776.806641 0)"/>
     <use xlink:href="#DejaVuSans-74" transform="translate(840.185547 0)"/>
     <use xlink:href="#DejaVuSans-69" transform="translate(879.394531 0)"/>
     <use xlink:href="#DejaVuSans-6f" transform="translate(907.177734 0)"/>
     <use xlink:href="#DejaVuSans-6e" transform="translate(968.359375 0)"/>
    </g>
   </g>
   <g id="legend_1">
    <g id="patch_7">
     <path d="M 324.376322 103.70875 
L 407.59976 103.70875 
Q 409.59976 103.70875 409.59976 101.70875 
L 409.59976 29.318125 
Q 409.59976 27.318125 407.59976 27.318125 
L 324.376322 27.318125 
Q 322.376322 27.318125 322.376322 29.318125 
L 322.376322 101.70875 
Q 322.376322 103.70875 324.376322 103.70875 
z
" style="fill: #ffffff; opacity: 0.8; stroke: #cccccc; stroke-linejoin: miter"/>
    </g>
    <g id="line2d_19">
     <path d="M 326.376322 35.416562 
L 326.376322 35.416562 
L 336.376322 35.416562 
L 336.376322 35.416562 
L 346.376322 35.416562 
" style="fill: none; stroke: #1f77b4; stroke-opacity: 0.8; stroke-width: 4; stroke-linecap: square"/>
    </g>
    <g id="text_17">
     <!-- n: 1,p: 0.5 -->
     <g transform="translate(354.376322 38.916562) scale(0.1 -0.1)">
      <defs>
       <path id="DejaVuSans-3a" d="M 750 794 
L 1409 794 
L 1409 0 
L 750 0 
L 750 794 
z
M 750 3309 
L 1409 3309 
L 1409 2516 
L 750 2516 
L 750 3309 
z
" transform="scale(0.015625)"/>
       <path id="DejaVuSans-2c" d="M 750 794 
L 1409 794 
L 1409 256 
L 897 -744 
L 494 -744 
L 750 256 
L 750 794 
z
" transform="scale(0.015625)"/>
       <path id="DejaVuSans-70" d="M 1159 525 
L 1159 -1331 
L 581 -1331 
L 581 3500 
L 1159 3500 
L 1159 2969 
Q 1341 3281 1617 3432 
Q 1894 3584 2278 3584 
Q 2916 3584 3314 3078 
Q 3713 2572 3713 1747 
Q 3713 922 3314 415 
Q 2916 -91 2278 -91 
Q 1894 -91 1617 61 
Q 1341 213 1159 525 
z
M 3116 1747 
Q 3116 2381 2855 2742 
Q 2594 3103 2138 3103 
Q 1681 3103 1420 2742 
Q 1159 2381 1159 1747 
Q 1159 1113 1420 752 
Q 1681 391 2138 391 
Q 2594 391 2855 752 
Q 3116 1113 3116 1747 
z
" transform="scale(0.015625)"/>
      </defs>
      <use xlink:href="#DejaVuSans-6e"/>
      <use xlink:href="#DejaVuSans-3a" transform="translate(63.378906 0)"/>
      <use xlink:href="#DejaVuSans-20" transform="translate(97.070312 0)"/>
      <use xlink:href="#DejaVuSans-31" transform="translate(128.857422 0)"/>
      <use xlink:href="#DejaVuSans-2c" transform="translate(192.480469 0)"/>
      <use xlink:href="#DejaVuSans-70" transform="translate(224.267578 0)"/>
      <use xlink:href="#DejaVuSans-3a" transform="translate(287.744141 0)"/>
      <use xlink:href="#DejaVuSans-20" transform="translate(321.435547 0)"/>
      <use xlink:href="#DejaVuSans-30" transform="translate(353.222656 0)"/>
      <use xlink:href="#DejaVuSans-2e" transform="translate(416.845703 0)"/>
      <use xlink:href="#DejaVuSans-35" transform="translate(448.632812 0)"/>
     </g>
    </g>
    <g id="line2d_20">
     <path d="M 326.376322 50.094687 
L 326.376322 50.094687 
L 336.376322 50.094687 
L 336.376322 50.094687 
L 346.376322 50.094687 
" style="fill: none; stroke: #ff7f0e; stroke-opacity: 0.8; stroke-width: 4; stroke-linecap: square"/>
    </g>
    <g id="text_18">
     <!-- n: 2,p: 0.5 -->
     <g transform="translate(354.376322 53.594687) scale(0.1 -0.1)">
      <use xlink:href="#DejaVuSans-6e"/>
      <use xlink:href="#DejaVuSans-3a" transform="translate(63.378906 0)"/>
      <use xlink:href="#DejaVuSans-20" transform="translate(97.070312 0)"/>
      <use xlink:href="#DejaVuSans-32" transform="translate(128.857422 0)"/>
      <use xlink:href="#DejaVuSans-2c" transform="translate(192.480469 0)"/>
      <use xlink:href="#DejaVuSans-70" transform="translate(224.267578 0)"/>
      <use xlink:href="#DejaVuSans-3a" transform="translate(287.744141 0)"/>
      <use xlink:href="#DejaVuSans-20" transform="translate(321.435547 0)"/>
      <use xlink:href="#DejaVuSans-30" transform="translate(353.222656 0)"/>
      <use xlink:href="#DejaVuSans-2e" transform="translate(416.845703 0)"/>
      <use xlink:href="#DejaVuSans-35" transform="translate(448.632812 0)"/>
     </g>
    </g>
    <g id="line2d_21">
     <path d="M 326.376322 64.772812 
L 326.376322 64.772812 
L 336.376322 64.772812 
L 336.376322 64.772812 
L 346.376322 64.772812 
" style="fill: none; stroke: #2ca02c; stroke-opacity: 0.8; stroke-width: 4; stroke-linecap: square"/>
    </g>
    <g id="text_19">
     <!-- n: 3,p: 0.5 -->
     <g transform="translate(354.376322 68.272812) scale(0.1 -0.1)">
      <use xlink:href="#DejaVuSans-6e"/>
      <use xlink:href="#DejaVuSans-3a" transform="translate(63.378906 0)"/>
      <use xlink:href="#DejaVuSans-20" transform="translate(97.070312 0)"/>
      <use xlink:href="#DejaVuSans-33" transform="translate(128.857422 0)"/>
      <use xlink:href="#DejaVuSans-2c" transform="translate(192.480469 0)"/>
      <use xlink:href="#DejaVuSans-70" transform="translate(224.267578 0)"/>
      <use xlink:href="#DejaVuSans-3a" transform="translate(287.744141 0)"/>
      <use xlink:href="#DejaVuSans-20" transform="translate(321.435547 0)"/>
      <use xlink:href="#DejaVuSans-30" transform="translate(353.222656 0)"/>
      <use xlink:href="#DejaVuSans-2e" transform="translate(416.845703 0)"/>
      <use xlink:href="#DejaVuSans-35" transform="translate(448.632812 0)"/>
     </g>
    </g>
    <g id="line2d_22">
     <path d="M 326.376322 79.450937 
L 326.376322 79.450937 
L 336.376322 79.450937 
L 336.376322 79.450937 
L 346.376322 79.450937 
" style="fill: none; stroke: #d62728; stroke-opacity: 0.8; stroke-width: 4; stroke-linecap: square"/>
    </g>
    <g id="text_20">
     <!-- n: 4,p: 0.5 -->
     <g transform="translate(354.376322 82.950937) scale(0.1 -0.1)">
      <use xlink:href="#DejaVuSans-6e"/>
      <use xlink:href="#DejaVuSans-3a" transform="translate(63.378906 0)"/>
      <use xlink:href="#DejaVuSans-20" transform="translate(97.070312 0)"/>
      <use xlink:href="#DejaVuSans-34" transform="translate(128.857422 0)"/>
      <use xlink:href="#DejaVuSans-2c" transform="translate(192.480469 0)"/>
      <use xlink:href="#DejaVuSans-70" transform="translate(224.267578 0)"/>
      <use xlink:href="#DejaVuSans-3a" transform="translate(287.744141 0)"/>
      <use xlink:href="#DejaVuSans-20" transform="translate(321.435547 0)"/>
      <use xlink:href="#DejaVuSans-30" transform="translate(353.222656 0)"/>
      <use xlink:href="#DejaVuSans-2e" transform="translate(416.845703 0)"/>
      <use xlink:href="#DejaVuSans-35" transform="translate(448.632812 0)"/>
     </g>
    </g>
    <g id="line2d_23">
     <path d="M 326.376322 94.129062 
L 326.376322 94.129062 
L 336.376322 94.129062 
L 336.376322 94.129062 
L 346.376322 94.129062 
" style="fill: none; stroke: #9467bd; stroke-opacity: 0.8; stroke-width: 4; stroke-linecap: square"/>
    </g>
    <g id="text_21">
     <!-- n: 5,p: 0.5 -->
     <g transform="translate(354.376322 97.629062) scale(0.1 -0.1)">
      <use xlink:href="#DejaVuSans-6e"/>
      <use xlink:href="#DejaVuSans-3a" transform="translate(63.378906 0)"/>
      <use xlink:href="#DejaVuSans-20" transform="translate(97.070312 0)"/>
      <use xlink:href="#DejaVuSans-35" transform="translate(128.857422 0)"/>
      <use xlink:href="#DejaVuSans-2c" transform="translate(192.480469 0)"/>
      <use xlink:href="#DejaVuSans-70" transform="translate(224.267578 0)"/>
      <use xlink:href="#DejaVuSans-3a" transform="translate(287.744141 0)"/>
      <use xlink:href="#DejaVuSans-20" transform="translate(321.435547 0)"/>
      <use xlink:href="#DejaVuSans-30" transform="translate(353.222656 0)"/>
      <use xlink:href="#DejaVuSans-2e" transform="translate(416.845703 0)"/>
      <use xlink:href="#DejaVuSans-35" transform="translate(448.632812 0)"/>
     </g>
    </g>
   </g>
  </g>
  <g id="axes_2">
   <g id="patch_8">
    <path d="M 494.38101 258.84327 
L 865.19952 258.84327 
L 865.19952 22.318125 
L 494.38101 22.318125 
z
" style="fill: #ffffff"/>
   </g>
   <g id="matplotlib.axis_3">
    <g id="xtick_8">
     <g id="line2d_24">
      <g>
       <use xlink:href="#m7d5d3d722c" x="501.604747" y="258.84327" style="stroke: #000000; stroke-width: 0.8"/>
      </g>
     </g>
     <g id="text_22">
      <!-- 0 -->
      <g transform="translate(498.423497 273.441707) scale(0.1 -0.1)">
       <use xlink:href="#DejaVuSans-30"/>
      </g>
     </g>
    </g>
    <g id="xtick_9">
     <g id="line2d_25">
      <g>
       <use xlink:href="#m7d5d3d722c" x="549.762995" y="258.84327" style="stroke: #000000; stroke-width: 0.8"/>
      </g>
     </g>
     <g id="text_23">
      <!-- 5 -->
      <g transform="translate(546.581745 273.441707) scale(0.1 -0.1)">
       <use xlink:href="#DejaVuSans-35"/>
      </g>
     </g>
    </g>
    <g id="xtick_10">
     <g id="line2d_26">
      <g>
       <use xlink:href="#m7d5d3d722c" x="597.921243" y="258.84327" style="stroke: #000000; stroke-width: 0.8"/>
      </g>
     </g>
     <g id="text_24">
      <!-- 10 -->
      <g transform="translate(591.558743 273.441707) scale(0.1 -0.1)">
       <use xlink:href="#DejaVuSans-31"/>
       <use xlink:href="#DejaVuSans-30" transform="translate(63.623047 0)"/>
      </g>
     </g>
    </g>
    <g id="xtick_11">
     <g id="line2d_27">
      <g>
       <use xlink:href="#m7d5d3d722c" x="646.079491" y="258.84327" style="stroke: #000000; stroke-width: 0.8"/>
      </g>
     </g>
     <g id="text_25">
      <!-- 15 -->
      <g transform="translate(639.716991 273.441707) scale(0.1 -0.1)">
       <use xlink:href="#DejaVuSans-31"/>
       <use xlink:href="#DejaVuSans-35" transform="translate(63.623047 0)"/>
      </g>
     </g>
    </g>
    <g id="xtick_12">
     <g id="line2d_28">
      <g>
       <use xlink:href="#m7d5d3d722c" x="694.237739" y="258.84327" style="stroke: #000000; stroke-width: 0.8"/>
      </g>
     </g>
     <g id="text_26">
      <!-- 20 -->
      <g transform="translate(687.875239 273.441707) scale(0.1 -0.1)">
       <use xlink:href="#DejaVuSans-32"/>
       <use xlink:href="#DejaVuSans-30" transform="translate(63.623047 0)"/>
      </g>
     </g>
    </g>
    <g id="xtick_13">
     <g id="line2d_29">
      <g>
       <use xlink:href="#m7d5d3d722c" x="742.395987" y="258.84327" style="stroke: #000000; stroke-width: 0.8"/>
      </g>
     </g>
     <g id="text_27">
      <!-- 25 -->
      <g transform="translate(736.033487 273.441707) scale(0.1 -0.1)">
       <use xlink:href="#DejaVuSans-32"/>
       <use xlink:href="#DejaVuSans-35" transform="translate(63.623047 0)"/>
      </g>
     </g>
    </g>
    <g id="xtick_14">
     <g id="line2d_30">
      <g>
       <use xlink:href="#m7d5d3d722c" x="790.554236" y="258.84327" style="stroke: #000000; stroke-width: 0.8"/>
      </g>
     </g>
     <g id="text_28">
      <!-- 30 -->
      <g transform="translate(784.191736 273.441707) scale(0.1 -0.1)">
       <use xlink:href="#DejaVuSans-33"/>
       <use xlink:href="#DejaVuSans-30" transform="translate(63.623047 0)"/>
      </g>
     </g>
    </g>
    <g id="xtick_15">
     <g id="line2d_31">
      <g>
       <use xlink:href="#m7d5d3d722c" x="838.712484" y="258.84327" style="stroke: #000000; stroke-width: 0.8"/>
      </g>
     </g>
     <g id="text_29">
      <!-- 35 -->
      <g transform="translate(832.349984 273.441707) scale(0.1 -0.1)">
       <use xlink:href="#DejaVuSans-33"/>
       <use xlink:href="#DejaVuSans-35" transform="translate(63.623047 0)"/>
      </g>
     </g>
    </g>
    <g id="text_30">
     <!-- event [dimensionless] -->
     <g transform="translate(624.482453 287.119832) scale(0.1 -0.1)">
      <use xlink:href="#DejaVuSans-65"/>
      <use xlink:href="#DejaVuSans-76" transform="translate(61.523438 0)"/>
      <use xlink:href="#DejaVuSans-65" transform="translate(120.703125 0)"/>
      <use xlink:href="#DejaVuSans-6e" transform="translate(182.226562 0)"/>
      <use xlink:href="#DejaVuSans-74" transform="translate(245.605469 0)"/>
      <use xlink:href="#DejaVuSans-20" transform="translate(284.814453 0)"/>
      <use xlink:href="#DejaVuSans-5b" transform="translate(316.601562 0)"/>
      <use xlink:href="#DejaVuSans-64" transform="translate(355.615234 0)"/>
      <use xlink:href="#DejaVuSans-69" transform="translate(419.091797 0)"/>
      <use xlink:href="#DejaVuSans-6d" transform="translate(446.875 0)"/>
      <use xlink:href="#DejaVuSans-65" transform="translate(544.287109 0)"/>
      <use xlink:href="#DejaVuSans-6e" transform="translate(605.810547 0)"/>
      <use xlink:href="#DejaVuSans-73" transform="translate(669.189453 0)"/>
      <use xlink:href="#DejaVuSans-69" transform="translate(721.289062 0)"/>
      <use xlink:href="#DejaVuSans-6f" transform="translate(749.072266 0)"/>
      <use xlink:href="#DejaVuSans-6e" transform="translate(810.253906 0)"/>
      <use xlink:href="#DejaVuSans-6c" transform="translate(873.632812 0)"/>
      <use xlink:href="#DejaVuSans-65" transform="translate(901.416016 0)"/>
      <use xlink:href="#DejaVuSans-73" transform="translate(962.939453 0)"/>
      <use xlink:href="#DejaVuSans-73" transform="translate(1015.039062 0)"/>
      <use xlink:href="#DejaVuSans-5d" transform="translate(1067.138672 0)"/>
     </g>
    </g>
   </g>
   <g id="matplotlib.axis_4">
    <g id="ytick_7">
     <g id="line2d_32">
      <g>
       <use xlink:href="#m4bafd90dbd" x="494.38101" y="248.092127" style="stroke: #000000; stroke-width: 0.8"/>
      </g>
     </g>
     <g id="text_31">
      <!-- 0.0 -->
      <g transform="translate(471.477885 251.891346) scale(0.1 -0.1)">
       <use xlink:href="#DejaVuSans-30"/>
       <use xlink:href="#DejaVuSans-2e" transform="translate(63.623047 0)"/>
       <use xlink:href="#DejaVuSans-30" transform="translate(95.410156 0)"/>
      </g>
     </g>
    </g>
    <g id="ytick_8">
     <g id="line2d_33">
      <g>
       <use xlink:href="#m4bafd90dbd" x="494.38101" y="198.769301" style="stroke: #000000; stroke-width: 0.8"/>
      </g>
     </g>
     <g id="text_32">
      <!-- 0.2 -->
      <g transform="translate(471.477885 202.56852) scale(0.1 -0.1)">
       <use xlink:href="#DejaVuSans-30"/>
       <use xlink:href="#DejaVuSans-2e" transform="translate(63.623047 0)"/>
       <use xlink:href="#DejaVuSans-32" transform="translate(95.410156 0)"/>
      </g>
     </g>
    </g>
    <g id="ytick_9">
     <g id="line2d_34">
      <g>
       <use xlink:href="#m4bafd90dbd" x="494.38101" y="149.446475" style="stroke: #000000; stroke-width: 0.8"/>
      </g>
     </g>
     <g id="text_33">
      <!-- 0.4 -->
      <g transform="translate(471.477885 153.245694) scale(0.1 -0.1)">
       <use xlink:href="#DejaVuSans-30"/>
       <use xlink:href="#DejaVuSans-2e" transform="translate(63.623047 0)"/>
       <use xlink:href="#DejaVuSans-34" transform="translate(95.410156 0)"/>
      </g>
     </g>
    </g>
    <g id="ytick_10">
     <g id="line2d_35">
      <g>
       <use xlink:href="#m4bafd90dbd" x="494.38101" y="100.12365" style="stroke: #000000; stroke-width: 0.8"/>
      </g>
     </g>
     <g id="text_34">
      <!-- 0.6 -->
      <g transform="translate(471.477885 103.922868) scale(0.1 -0.1)">
       <use xlink:href="#DejaVuSans-30"/>
       <use xlink:href="#DejaVuSans-2e" transform="translate(63.623047 0)"/>
       <use xlink:href="#DejaVuSans-36" transform="translate(95.410156 0)"/>
      </g>
     </g>
    </g>
    <g id="ytick_11">
     <g id="line2d_36">
      <g>
       <use xlink:href="#m4bafd90dbd" x="494.38101" y="50.800824" style="stroke: #000000; stroke-width: 0.8"/>
      </g>
     </g>
     <g id="text_35">
      <!-- 0.8 -->
      <g transform="translate(471.477885 54.600043) scale(0.1 -0.1)">
       <defs>
        <path id="DejaVuSans-38" d="M 2034 2216 
Q 1584 2216 1326 1975 
Q 1069 1734 1069 1313 
Q 1069 891 1326 650 
Q 1584 409 2034 409 
Q 2484 409 2743 651 
Q 3003 894 3003 1313 
Q 3003 1734 2745 1975 
Q 2488 2216 2034 2216 
z
M 1403 2484 
Q 997 2584 770 2862 
Q 544 3141 544 3541 
Q 544 4100 942 4425 
Q 1341 4750 2034 4750 
Q 2731 4750 3128 4425 
Q 3525 4100 3525 3541 
Q 3525 3141 3298 2862 
Q 3072 2584 2669 2484 
Q 3125 2378 3379 2068 
Q 3634 1759 3634 1313 
Q 3634 634 3220 271 
Q 2806 -91 2034 -91 
Q 1263 -91 848 271 
Q 434 634 434 1313 
Q 434 1759 690 2068 
Q 947 2378 1403 2484 
z
M 1172 3481 
Q 1172 3119 1398 2916 
Q 1625 2713 2034 2713 
Q 2441 2713 2670 2916 
Q 2900 3119 2900 3481 
Q 2900 3844 2670 4047 
Q 2441 4250 2034 4250 
Q 1625 4250 1398 4047 
Q 1172 3844 1172 3481 
z
" transform="scale(0.015625)"/>
       </defs>
       <use xlink:href="#DejaVuSans-30"/>
       <use xlink:href="#DejaVuSans-2e" transform="translate(63.623047 0)"/>
       <use xlink:href="#DejaVuSans-38" transform="translate(95.410156 0)"/>
      </g>
     </g>
    </g>
    <g id="text_36">
     <!-- [counts] -->
     <g transform="translate(465.398198 161.193197) rotate(-90) scale(0.1 -0.1)">
      <use xlink:href="#DejaVuSans-5b"/>
      <use xlink:href="#DejaVuSans-63" transform="translate(39.013672 0)"/>
      <use xlink:href="#DejaVuSans-6f" transform="translate(93.994141 0)"/>
      <use xlink:href="#DejaVuSans-75" transform="translate(155.175781 0)"/>
      <use xlink:href="#DejaVuSans-6e" transform="translate(218.554688 0)"/>
      <use xlink:href="#DejaVuSans-74" transform="translate(281.933594 0)"/>
      <use xlink:href="#DejaVuSans-73" transform="translate(321.142578 0)"/>
      <use xlink:href="#DejaVuSans-5d" transform="translate(373.242188 0)"/>
     </g>
    </g>
   </g>
   <g id="line2d_37">
    <path d="M 511.236397 248.092127 
L 511.236397 248.092127 
L 511.236397 248.092127 
L 511.236397 33.069268 
L 520.868046 33.069268 
L 520.868046 248.092127 
L 520.868046 248.092127 
L 520.868046 221.655092 
L 530.499696 221.655092 
L 530.499696 243.94901 
L 540.131346 243.94901 
L 540.131346 248.092127 
L 540.131346 248.092127 
L 540.131346 247.327623 
L 549.762995 247.327623 
L 549.762995 248.092127 
L 549.762995 248.092127 
L 549.762995 247.870174 
L 559.394645 247.870174 
L 559.394645 248.067466 
L 569.026294 248.067466 
" clip-path="url(#p3b7ca00a5c)" style="fill: none; stroke: #1f77b4; stroke-opacity: 0.8; stroke-width: 4; stroke-linecap: square"/>
   </g>
   <g id="line2d_38">
    <path d="M 511.236397 69.469513 
L 511.236397 69.469513 
L 520.868046 69.469513 
L 520.868046 204.416765 
L 530.499696 204.416765 
L 530.499696 233.344602 
L 540.131346 233.344602 
L 540.131346 240.175814 
L 559.394645 240.175814 
L 559.394645 247.154993 
L 569.026294 247.154993 
L 569.026294 247.771529 
L 578.657944 247.771529 
L 578.657944 247.820852 
L 597.921243 247.820852 
L 597.921243 248.018143 
L 607.552893 248.018143 
L 607.552893 248.067466 
L 617.184543 248.067466 
L 617.184543 248.067466 
L 636.447842 248.067466 
" clip-path="url(#p3b7ca00a5c)" style="fill: none; stroke: #ff7f0e; stroke-opacity: 0.8; stroke-width: 4; stroke-linecap: square"/>
   </g>
   <g id="line2d_39">
    <path d="M 511.236397 39.283944 
L 511.236397 39.283944 
L 540.131346 39.283944 
L 540.131346 217.388668 
L 578.657944 217.388668 
L 578.657944 243.25849 
L 607.552893 243.25849 
L 607.552893 246.439812 
L 646.079491 246.439812 
L 646.079491 247.771529 
L 674.97444 247.771529 
L 674.97444 247.870174 
L 713.501039 247.870174 
L 713.501039 248.042804 
L 742.395987 248.042804 
L 742.395987 248.092127 
L 780.922586 248.092127 
L 780.922586 248.092127 
L 809.817535 248.092127 
L 809.817535 248.067466 
L 848.344133 248.067466 
" clip-path="url(#p3b7ca00a5c)" style="fill: none; stroke: #2ca02c; stroke-opacity: 0.8; stroke-width: 4; stroke-linecap: square"/>
   </g>
   <g id="patch_9">
    <path d="M 494.38101 258.84327 
L 494.38101 22.318125 
" style="fill: none; stroke: #000000; stroke-width: 0.8; stroke-linejoin: miter; stroke-linecap: square"/>
   </g>
   <g id="patch_10">
    <path d="M 865.19952 258.84327 
L 865.19952 22.318125 
" style="fill: none; stroke: #000000; stroke-width: 0.8; stroke-linejoin: miter; stroke-linecap: square"/>
   </g>
   <g id="patch_11">
    <path d="M 494.38101 258.84327 
L 865.19952 258.84327 
" style="fill: none; stroke: #000000; stroke-width: 0.8; stroke-linejoin: miter; stroke-linecap: square"/>
   </g>
   <g id="patch_12">
    <path d="M 494.38101 22.318125 
L 865.19952 22.318125 
" style="fill: none; stroke: #000000; stroke-width: 0.8; stroke-linejoin: miter; stroke-linecap: square"/>
   </g>
   <g id="text_37">
    <!-- logseries distribution -->
    <g transform="translate(616.776202 16.318125) scale(0.12 -0.12)">
     <defs>
      <path id="DejaVuSans-67" d="M 2906 1791 
Q 2906 2416 2648 2759 
Q 2391 3103 1925 3103 
Q 1463 3103 1205 2759 
Q 947 2416 947 1791 
Q 947 1169 1205 825 
Q 1463 481 1925 481 
Q 2391 481 2648 825 
Q 2906 1169 2906 1791 
z
M 3481 434 
Q 3481 -459 3084 -895 
Q 2688 -1331 1869 -1331 
Q 1566 -1331 1297 -1286 
Q 1028 -1241 775 -1147 
L 775 -588 
Q 1028 -725 1275 -790 
Q 1522 -856 1778 -856 
Q 2344 -856 2625 -561 
Q 2906 -266 2906 331 
L 2906 616 
Q 2728 306 2450 153 
Q 2172 0 1784 0 
Q 1141 0 747 490 
Q 353 981 353 1791 
Q 353 2603 747 3093 
Q 1141 3584 1784 3584 
Q 2172 3584 2450 3431 
Q 2728 3278 2906 2969 
L 2906 3500 
L 3481 3500 
L 3481 434 
z
" transform="scale(0.015625)"/>
     </defs>
     <use xlink:href="#DejaVuSans-6c"/>
     <use xlink:href="#DejaVuSans-6f" transform="translate(27.783203 0)"/>
     <use xlink:href="#DejaVuSans-67" transform="translate(88.964844 0)"/>
     <use xlink:href="#DejaVuSans-73" transform="translate(152.441406 0)"/>
     <use xlink:href="#DejaVuSans-65" transform="translate(204.541016 0)"/>
     <use xlink:href="#DejaVuSans-72" transform="translate(266.064453 0)"/>
     <use xlink:href="#DejaVuSans-69" transform="translate(307.177734 0)"/>
     <use xlink:href="#DejaVuSans-65" transform="translate(334.960938 0)"/>
     <use xlink:href="#DejaVuSans-73" transform="translate(396.484375 0)"/>
     <use xlink:href="#DejaVuSans-20" transform="translate(448.583984 0)"/>
     <use xlink:href="#DejaVuSans-64" transform="translate(480.371094 0)"/>
     <use xlink:href="#DejaVuSans-69" transform="translate(543.847656 0)"/>
     <use xlink:href="#DejaVuSans-73" transform="translate(571.630859 0)"/>
     <use xlink:href="#DejaVuSans-74" transform="translate(623.730469 0)"/>
     <use xlink:href="#DejaVuSans-72" transform="translate(662.939453 0)"/>
     <use xlink:href="#DejaVuSans-69" transform="translate(704.052734 0)"/>
     <use xlink:href="#DejaVuSans-62" transform="translate(731.835938 0)"/>
     <use xlink:href="#DejaVuSans-75" transform="translate(795.3125 0)"/>
     <use xlink:href="#DejaVuSans-74" transform="translate(858.691406 0)"/>
     <use xlink:href="#DejaVuSans-69" transform="translate(897.900391 0)"/>
     <use xlink:href="#DejaVuSans-6f" transform="translate(925.683594 0)"/>
     <use xlink:href="#DejaVuSans-6e" transform="translate(986.865234 0)"/>
    </g>
   </g>
   <g id="legend_2">
    <g id="patch_13">
     <path d="M 791.038583 74.3525 
L 858.19952 74.3525 
Q 860.19952 74.3525 860.19952 72.3525 
L 860.19952 29.318125 
Q 860.19952 27.318125 858.19952 27.318125 
L 791.038583 27.318125 
Q 789.038583 27.318125 789.038583 29.318125 
L 789.038583 72.3525 
Q 789.038583 74.3525 791.038583 74.3525 
z
" style="fill: #ffffff; opacity: 0.8; stroke: #cccccc; stroke-linejoin: miter"/>
    </g>
    <g id="line2d_40">
     <path d="M 793.038583 35.416562 
L 793.038583 35.416562 
L 803.038583 35.416562 
L 803.038583 35.416562 
L 813.038583 35.416562 
" style="fill: none; stroke: #1f77b4; stroke-opacity: 0.8; stroke-width: 4; stroke-linecap: square"/>
    </g>
    <g id="text_38">
     <!-- p: 0.25 -->
     <g transform="translate(821.038583 38.916562) scale(0.1 -0.1)">
      <use xlink:href="#DejaVuSans-70"/>
      <use xlink:href="#DejaVuSans-3a" transform="translate(63.476562 0)"/>
      <use xlink:href="#DejaVuSans-20" transform="translate(97.167969 0)"/>
      <use xlink:href="#DejaVuSans-30" transform="translate(128.955078 0)"/>
      <use xlink:href="#DejaVuSans-2e" transform="translate(192.578125 0)"/>
      <use xlink:href="#DejaVuSans-32" transform="translate(224.365234 0)"/>
      <use xlink:href="#DejaVuSans-35" transform="translate(287.988281 0)"/>
     </g>
    </g>
    <g id="line2d_41">
     <path d="M 793.038583 50.094687 
L 793.038583 50.094687 
L 803.038583 50.094687 
L 803.038583 50.094687 
L 813.038583 50.094687 
" style="fill: none; stroke: #ff7f0e; stroke-opacity: 0.8; stroke-width: 4; stroke-linecap: square"/>
    </g>
    <g id="text_39">
     <!-- p: 0.5 -->
     <g transform="translate(821.038583 53.594687) scale(0.1 -0.1)">
      <use xlink:href="#DejaVuSans-70"/>
      <use xlink:href="#DejaVuSans-3a" transform="translate(63.476562 0)"/>
      <use xlink:href="#DejaVuSans-20" transform="translate(97.167969 0)"/>
      <use xlink:href="#DejaVuSans-30" transform="translate(128.955078 0)"/>
      <use xlink:href="#DejaVuSans-2e" transform="translate(192.578125 0)"/>
      <use xlink:href="#DejaVuSans-35" transform="translate(224.365234 0)"/>
     </g>
    </g>
    <g id="line2d_42">
     <path d="M 793.038583 64.772812 
L 793.038583 64.772812 
L 803.038583 64.772812 
L 803.038583 64.772812 
L 813.038583 64.772812 
" style="fill: none; stroke: #2ca02c; stroke-opacity: 0.8; stroke-width: 4; stroke-linecap: square"/>
    </g>
    <g id="text_40">
     <!-- p: 0.75 -->
     <g transform="translate(821.038583 68.272812) scale(0.1 -0.1)">
      <defs>
       <path id="DejaVuSans-37" d="M 525 4666 
L 3525 4666 
L 3525 4397 
L 1831 0 
L 1172 0 
L 2766 4134 
L 525 4134 
L 525 4666 
z
" transform="scale(0.015625)"/>
      </defs>
      <use xlink:href="#DejaVuSans-70"/>
      <use xlink:href="#DejaVuSans-3a" transform="translate(63.476562 0)"/>
      <use xlink:href="#DejaVuSans-20" transform="translate(97.167969 0)"/>
      <use xlink:href="#DejaVuSans-30" transform="translate(128.955078 0)"/>
      <use xlink:href="#DejaVuSans-2e" transform="translate(192.578125 0)"/>
      <use xlink:href="#DejaVuSans-37" transform="translate(224.365234 0)"/>
      <use xlink:href="#DejaVuSans-35" transform="translate(287.988281 0)"/>
     </g>
    </g>
   </g>
  </g>
 </g>
 <defs>
  <clipPath id="p22cc1abad6">
   <rect x="43.78125" y="22.318125" width="370.81851" height="236.525145"/>
  </clipPath>
  <clipPath id="p3b7ca00a5c">
   <rect x="494.38101" y="22.318125" width="370.81851" height="236.525145"/>
  </clipPath>
 </defs>
</svg>
