<?xml version="1.0" encoding="UTF-8" standalone="no"?>
<!DOCTYPE svg PUBLIC "-//W3C//DTD SVG 1.1//EN"
 "http://www.w3.org/Graphics/SVG/1.1/DTD/svg11.dtd">
<!-- Generated by graphviz version 2.43.0 (0)
 -->
<!-- Title: %3 Pages: 1 -->
<svg width="467pt" height="258pt"
 viewBox="0.00 0.00 467.35 258.05" xmlns="http://www.w3.org/2000/svg" xmlns:xlink="http://www.w3.org/1999/xlink">
<g id="graph0" class="graph" transform="scale(1 1) rotate(0) translate(4 254.05)">
<title>%3</title>
<polygon fill="white" stroke="transparent" points="-4,4 -4,-254.05 463.35,-254.05 463.35,4 -4,4"/>
<!-- 6f4f9db301604b64bae1331d2ceb9ed5 -->
<g id="node1" class="node">
<title>6f4f9db301604b64bae1331d2ceb9ed5</title>
<polygon fill="none" stroke="black" points="441,-97.29 308,-97.29 308,-74.29 441,-74.29 441,-97.29"/>
<text text-anchor="middle" x="374.5" y="-82.09" font-family="Times,serif" font-size="14.00">sum(arg_0, dim)</text>
</g>
<!-- 404321b788374e2caffd0c41f426d75e -->
<g id="node6" class="node">
<title>404321b788374e2caffd0c41f426d75e</title>
<ellipse fill="lightgrey" stroke="lightgrey" cx="374.5" cy="-16.26" rx="84.71" ry="16.03"/>
<text text-anchor="middle" x="374.5" y="-12.56" font-family="Times,serif" font-size="14.00">GraphicalView</text>
</g>
<!-- 6f4f9db301604b64bae1331d2ceb9ed5&#45;&gt;404321b788374e2caffd0c41f426d75e -->
<g id="edge4" class="edge">
<title>6f4f9db301604b64bae1331d2ceb9ed5&#45;&gt;404321b788374e2caffd0c41f426d75e</title>
<path fill="none" stroke="black" d="M374.5,-74.24C374.5,-65.89 374.5,-53.88 374.5,-43.03"/>
<polygon fill="black" stroke="black" points="378,-42.76 374.5,-32.76 371,-42.76 378,-42.76"/>
</g>
<!-- ab2f9fbd365043ee8c806d7f3f863b39 -->
<g id="node2" class="node">
<title>ab2f9fbd365043ee8c806d7f3f863b39</title>
<polygon fill="none" stroke="black" points="306,-176.05 73,-176.05 73,-153.05 306,-153.05 306,-176.05"/>
<text text-anchor="middle" x="189.5" y="-160.85" font-family="Times,serif" font-size="14.00">add_mask(arg_0, trunc_range)</text>
</g>
<!-- ab2f9fbd365043ee8c806d7f3f863b39&#45;&gt;6f4f9db301604b64bae1331d2ceb9ed5 -->
<g id="edge2" class="edge">
<title>ab2f9fbd365043ee8c806d7f3f863b39&#45;&gt;6f4f9db301604b64bae1331d2ceb9ed5</title>
<path fill="none" stroke="black" d="M214.84,-153.04C247.13,-139.64 303.11,-116.41 339.48,-101.32"/>
<polygon fill="black" stroke="black" points="341.28,-104.36 349.17,-97.3 338.6,-97.9 341.28,-104.36"/>
<text text-anchor="middle" x="313.5" y="-123.85" font-family="Times,serif" font-size="14.00">arg_0</text>
</g>
<!-- 5b03c654755340488fd0f81b5c6767f7 -->
<g id="node7" class="node">
<title>5b03c654755340488fd0f81b5c6767f7</title>
<ellipse fill="lightgrey" stroke="lightgrey" cx="189.5" cy="-85.79" rx="84.71" ry="16.03"/>
<text text-anchor="middle" x="189.5" y="-82.09" font-family="Times,serif" font-size="14.00">GraphicalView</text>
</g>
<!-- ab2f9fbd365043ee8c806d7f3f863b39&#45;&gt;5b03c654755340488fd0f81b5c6767f7 -->
<g id="edge1" class="edge">
<title>ab2f9fbd365043ee8c806d7f3f863b39&#45;&gt;5b03c654755340488fd0f81b5c6767f7</title>
<path fill="none" stroke="black" d="M189.5,-152.88C189.5,-142.48 189.5,-126.26 189.5,-112.5"/>
<polygon fill="black" stroke="black" points="193,-112.14 189.5,-102.14 186,-112.14 193,-112.14"/>
</g>
<!-- 3555d536c61a49ea8632ffa071a25255 -->
<g id="node3" class="node">
<title>3555d536c61a49ea8632ffa071a25255</title>
<polygon fill="none" stroke="black" points="455,-176.05 324,-176.05 324,-153.05 455,-153.05 455,-176.05"/>
<text text-anchor="middle" x="389.5" y="-160.85" font-family="Times,serif" font-size="14.00">Input &lt;str=&#39;y&#39;&gt;</text>
</g>
<!-- 3555d536c61a49ea8632ffa071a25255&#45;&gt;6f4f9db301604b64bae1331d2ceb9ed5 -->
<g id="edge3" class="edge">
<title>3555d536c61a49ea8632ffa071a25255&#45;&gt;6f4f9db301604b64bae1331d2ceb9ed5</title>
<path fill="none" stroke="black" d="M387.41,-152.88C385.13,-141.19 381.41,-122.17 378.55,-107.52"/>
<polygon fill="black" stroke="black" points="381.92,-106.52 376.57,-97.37 375.05,-107.86 381.92,-106.52"/>
<text text-anchor="middle" x="398.5" y="-123.85" font-family="Times,serif" font-size="14.00">dim</text>
</g>
<!-- 508345c0f1064ffca176491bdf5069c6 -->
<g id="node4" class="node">
<title>508345c0f1064ffca176491bdf5069c6</title>
<polygon fill="none" stroke="black" points="157,-250.05 0,-250.05 0,-227.05 157,-227.05 157,-250.05"/>
<text text-anchor="middle" x="78.5" y="-234.85" font-family="Times,serif" font-size="14.00">Input &lt;DataArray&gt;</text>
</g>
<!-- 508345c0f1064ffca176491bdf5069c6&#45;&gt;ab2f9fbd365043ee8c806d7f3f863b39 -->
<g id="edge5" class="edge">
<title>508345c0f1064ffca176491bdf5069c6&#45;&gt;ab2f9fbd365043ee8c806d7f3f863b39</title>
<path fill="none" stroke="black" d="M94.88,-226.93C113.24,-215.02 143.23,-195.57 164.52,-181.76"/>
<polygon fill="black" stroke="black" points="166.57,-184.6 173.05,-176.22 162.76,-178.73 166.57,-184.6"/>
<text text-anchor="middle" x="164.5" y="-197.85" font-family="Times,serif" font-size="14.00">arg_0</text>
</g>
<!-- af97312a5a724ddd94fb14cc700e459b -->
<g id="node5" class="node">
<title>af97312a5a724ddd94fb14cc700e459b</title>
<polygon fill="none" stroke="black" points="425.5,-250.05 175.5,-250.05 175.5,-227.05 425.5,-227.05 425.5,-250.05"/>
<text text-anchor="middle" x="300.5" y="-234.85" font-family="Times,serif" font-size="14.00">Widget &lt;IntRangeSlider: tuple&gt;</text>
</g>
<!-- af97312a5a724ddd94fb14cc700e459b&#45;&gt;ab2f9fbd365043ee8c806d7f3f863b39 -->
<g id="edge6" class="edge">
<title>af97312a5a724ddd94fb14cc700e459b&#45;&gt;ab2f9fbd365043ee8c806d7f3f863b39</title>
<path fill="none" stroke="black" d="M284.12,-226.93C265.76,-215.02 235.77,-195.57 214.48,-181.76"/>
<polygon fill="black" stroke="black" points="216.24,-178.73 205.95,-176.22 212.43,-184.6 216.24,-178.73"/>
<text text-anchor="middle" x="299" y="-197.85" font-family="Times,serif" font-size="14.00">trunc_range</text>
</g>
</g>
</svg>
