<?xml version="1.0" encoding="utf-8" standalone="no"?>
<!DOCTYPE svg PUBLIC "-//W3C//DTD SVG 1.1//EN"
  "http://www.w3.org/Graphics/SVG/1.1/DTD/svg11.dtd">
<svg xmlns:xlink="http://www.w3.org/1999/xlink" width="306.099812pt" height="294.190125pt" viewBox="0 0 306.099812 294.190125" xmlns="http://www.w3.org/2000/svg" version="1.1">
 <metadata>
  <rdf:RDF xmlns:dc="http://purl.org/dc/elements/1.1/" xmlns:cc="http://creativecommons.org/ns#" xmlns:rdf="http://www.w3.org/1999/02/22-rdf-syntax-ns#">
   <cc:Work>
    <dc:type rdf:resource="http://purl.org/dc/dcmitype/StillImage"/>
    <dc:date>2026-04-25T08:30:05.419724</dc:date>
    <dc:format>image/svg+xml</dc:format>
    <dc:creator>
     <cc:Agent>
      <dc:title>Matplotlib v3.10.8, https://matplotlib.org/</dc:title>
     </cc:Agent>
    </dc:creator>
   </cc:Work>
  </rdf:RDF>
 </metadata>
 <defs>
  <style type="text/css">*{stroke-linejoin: round; stroke-linecap: butt}</style>
 </defs>
 <g id="figure_1">
  <g id="patch_1">
   <path d="M 0 294.190125 
L 306.099812 294.190125 
L 306.099812 0 
L 0 0 
z
" style="fill: #ffffff"/>
  </g>
  <g id="axes_1">
   <g id="patch_2">
    <path d="M 33.315678 51.51236 
C 32.787812 81.753814 35.166363 111.976166 40.418536 141.762721 
C 45.670709 171.549277 53.772256 200.76251 64.611475 228.99964 
L 298.899812 139.064774 
C 293.820427 125.832524 290.023948 112.142862 287.562718 98.184534 
C 285.101488 84.226206 283.986872 70.063659 284.234236 55.89216 
z
" style="fill: #ffffff"/>
   </g>
   <g id="matplotlib.axis_1">
    <g id="xtick_1">
     <g id="line2d_1">
      <path d="M 284.200529 59.754543 
L 33.24375 59.754543 
" clip-path="url(#p813fc6930a)" style="fill: none; stroke: #b0b0b0; stroke-width: 0.8; stroke-linecap: square"/>
     </g>
     <g id="text_1">
      <!-- 180° -->
      <g transform="translate(7.2 62.513918) scale(0.1 -0.1)">
       <defs>
        <path id="DejaVuSans-31" d="M 794 531 
L 1825 531 
L 1825 4091 
L 703 3866 
L 703 4441 
L 1819 4666 
L 2450 4666 
L 2450 531 
L 3481 531 
L 3481 0 
L 794 0 
L 794 531 
z
" transform="scale(0.015625)"/>
        <path id="DejaVuSans-38" d="M 2034 2216 
Q 1584 2216 1326 1975 
Q 1069 1734 1069 1313 
Q 1069 891 1326 650 
Q 1584 409 2034 409 
Q 2484 409 2743 651 
Q 3003 894 3003 1313 
Q 3003 1734 2745 1975 
Q 2488 2216 2034 2216 
z
M 1403 2484 
Q 997 2584 770 2862 
Q 544 3141 544 3541 
Q 544 4100 942 4425 
Q 1341 4750 2034 4750 
Q 2731 4750 3128 4425 
Q 3525 4100 3525 3541 
Q 3525 3141 3298 2862 
Q 3072 2584 2669 2484 
Q 3125 2378 3379 2068 
Q 3634 1759 3634 1313 
Q 3634 634 3220 271 
Q 2806 -91 2034 -91 
Q 1263 -91 848 271 
Q 434 634 434 1313 
Q 434 1759 690 2068 
Q 947 2378 1403 2484 
z
M 1172 3481 
Q 1172 3119 1398 2916 
Q 1625 2713 2034 2713 
Q 2441 2713 2670 2916 
Q 2900 3119 2900 3481 
Q 2900 3844 2670 4047 
Q 2441 4250 2034 4250 
Q 1625 4250 1398 4047 
Q 1172 3844 1172 3481 
z
" transform="scale(0.015625)"/>
        <path id="DejaVuSans-30" d="M 2034 4250 
Q 1547 4250 1301 3770 
Q 1056 3291 1056 2328 
Q 1056 1369 1301 889 
Q 1547 409 2034 409 
Q 2525 409 2770 889 
Q 3016 1369 3016 2328 
Q 3016 3291 2770 3770 
Q 2525 4250 2034 4250 
z
M 2034 4750 
Q 2819 4750 3233 4129 
Q 3647 3509 3647 2328 
Q 3647 1150 3233 529 
Q 2819 -91 2034 -91 
Q 1250 -91 836 529 
Q 422 1150 422 2328 
Q 422 3509 836 4129 
Q 1250 4750 2034 4750 
z
" transform="scale(0.015625)"/>
        <path id="DejaVuSans-b0" d="M 1600 4347 
Q 1350 4347 1178 4173 
Q 1006 4000 1006 3750 
Q 1006 3503 1178 3333 
Q 1350 3163 1600 3163 
Q 1850 3163 2022 3333 
Q 2194 3503 2194 3750 
Q 2194 3997 2020 4172 
Q 1847 4347 1600 4347 
z
M 1600 4750 
Q 1800 4750 1984 4673 
Q 2169 4597 2303 4453 
Q 2447 4313 2519 4134 
Q 2591 3956 2591 3750 
Q 2591 3338 2302 3052 
Q 2013 2766 1594 2766 
Q 1172 2766 890 3047 
Q 609 3328 609 3750 
Q 609 4169 896 4459 
Q 1184 4750 1600 4750 
z
" transform="scale(0.015625)"/>
       </defs>
       <use xlink:href="#DejaVuSans-31"/>
       <use xlink:href="#DejaVuSans-38" transform="translate(63.623047 0)"/>
       <use xlink:href="#DejaVuSans-30" transform="translate(127.246094 0)"/>
       <use xlink:href="#DejaVuSans-b0" transform="translate(190.869141 0)"/>
      </g>
     </g>
    </g>
    <g id="xtick_2">
     <g id="line2d_2">
      <path d="M 284.503826 71.336987 
L 33.890975 84.47105 
" clip-path="url(#p813fc6930a)" style="fill: none; stroke: #b0b0b0; stroke-width: 0.8; stroke-linecap: square"/>
     </g>
     <g id="text_2">
      <!-- 183° -->
      <g transform="translate(7.866411 87.963128) scale(0.1 -0.1)">
       <defs>
        <path id="DejaVuSans-33" d="M 2597 2516 
Q 3050 2419 3304 2112 
Q 3559 1806 3559 1356 
Q 3559 666 3084 287 
Q 2609 -91 1734 -91 
Q 1441 -91 1130 -33 
Q 819 25 488 141 
L 488 750 
Q 750 597 1062 519 
Q 1375 441 1716 441 
Q 2309 441 2620 675 
Q 2931 909 2931 1356 
Q 2931 1769 2642 2001 
Q 2353 2234 1838 2234 
L 1294 2234 
L 1294 2753 
L 1863 2753 
Q 2328 2753 2575 2939 
Q 2822 3125 2822 3475 
Q 2822 3834 2567 4026 
Q 2313 4219 1838 4219 
Q 1578 4219 1281 4162 
Q 984 4106 628 3988 
L 628 4550 
Q 988 4650 1302 4700 
Q 1616 4750 1894 4750 
Q 2613 4750 3031 4423 
Q 3450 4097 3450 3541 
Q 3450 3153 3228 2886 
Q 3006 2619 2597 2516 
z
" transform="scale(0.015625)"/>
       </defs>
       <use xlink:href="#DejaVuSans-31"/>
       <use xlink:href="#DejaVuSans-38" transform="translate(63.623047 0)"/>
       <use xlink:href="#DejaVuSans-33" transform="translate(127.246094 0)"/>
       <use xlink:href="#DejaVuSans-b0" transform="translate(190.869141 0)"/>
      </g>
     </g>
    </g>
    <g id="xtick_3">
     <g id="line2d_3">
      <path d="M 285.412886 82.887685 
L 35.830874 109.119811 
" clip-path="url(#p813fc6930a)" style="fill: none; stroke: #b0b0b0; stroke-width: 0.8; stroke-linecap: square"/>
     </g>
     <g id="text_3">
      <!-- 186° -->
      <g transform="translate(9.863818 113.342585) scale(0.1 -0.1)">
       <defs>
        <path id="DejaVuSans-36" d="M 2113 2584 
Q 1688 2584 1439 2293 
Q 1191 2003 1191 1497 
Q 1191 994 1439 701 
Q 1688 409 2113 409 
Q 2538 409 2786 701 
Q 3034 994 3034 1497 
Q 3034 2003 2786 2293 
Q 2538 2584 2113 2584 
z
M 3366 4563 
L 3366 3988 
Q 3128 4100 2886 4159 
Q 2644 4219 2406 4219 
Q 1781 4219 1451 3797 
Q 1122 3375 1075 2522 
Q 1259 2794 1537 2939 
Q 1816 3084 2150 3084 
Q 2853 3084 3261 2657 
Q 3669 2231 3669 1497 
Q 3669 778 3244 343 
Q 2819 -91 2113 -91 
Q 1303 -91 875 529 
Q 447 1150 447 2328 
Q 447 3434 972 4092 
Q 1497 4750 2381 4750 
Q 2619 4750 2861 4703 
Q 3103 4656 3366 4563 
z
" transform="scale(0.015625)"/>
       </defs>
       <use xlink:href="#DejaVuSans-31"/>
       <use xlink:href="#DejaVuSans-38" transform="translate(63.623047 0)"/>
       <use xlink:href="#DejaVuSans-36" transform="translate(127.246094 0)"/>
       <use xlink:href="#DejaVuSans-b0" transform="translate(190.869141 0)"/>
      </g>
     </g>
    </g>
    <g id="xtick_4">
     <g id="line2d_4">
      <path d="M 286.925217 94.374976 
L 39.058132 133.633265 
" clip-path="url(#p813fc6930a)" style="fill: none; stroke: #b0b0b0; stroke-width: 0.8; stroke-linecap: square"/>
     </g>
     <g id="text_4">
      <!-- 189° -->
      <g transform="translate(13.186745 138.582723) scale(0.1 -0.1)">
       <defs>
        <path id="DejaVuSans-39" d="M 703 97 
L 703 672 
Q 941 559 1184 500 
Q 1428 441 1663 441 
Q 2288 441 2617 861 
Q 2947 1281 2994 2138 
Q 2813 1869 2534 1725 
Q 2256 1581 1919 1581 
Q 1219 1581 811 2004 
Q 403 2428 403 3163 
Q 403 3881 828 4315 
Q 1253 4750 1959 4750 
Q 2769 4750 3195 4129 
Q 3622 3509 3622 2328 
Q 3622 1225 3098 567 
Q 2575 -91 1691 -91 
Q 1453 -91 1209 -44 
Q 966 3 703 97 
z
M 1959 2075 
Q 2384 2075 2632 2365 
Q 2881 2656 2881 3163 
Q 2881 3666 2632 3958 
Q 2384 4250 1959 4250 
Q 1534 4250 1286 3958 
Q 1038 3666 1038 3163 
Q 1038 2656 1286 2365 
Q 1534 2075 1959 2075 
z
" transform="scale(0.015625)"/>
       </defs>
       <use xlink:href="#DejaVuSans-31"/>
       <use xlink:href="#DejaVuSans-38" transform="translate(63.623047 0)"/>
       <use xlink:href="#DejaVuSans-39" transform="translate(127.246094 0)"/>
       <use xlink:href="#DejaVuSans-b0" transform="translate(190.869141 0)"/>
      </g>
     </g>
    </g>
    <g id="xtick_5">
     <g id="line2d_5">
      <path d="M 289.036673 105.767375 
L 43.563901 157.944223 
" clip-path="url(#p813fc6930a)" style="fill: none; stroke: #b0b0b0; stroke-width: 0.8; stroke-linecap: square"/>
     </g>
     <g id="text_5">
      <!-- 192° -->
      <g transform="translate(17.826085 163.614362) scale(0.1 -0.1)">
       <defs>
        <path id="DejaVuSans-32" d="M 1228 531 
L 3431 531 
L 3431 0 
L 469 0 
L 469 531 
Q 828 903 1448 1529 
Q 2069 2156 2228 2338 
Q 2531 2678 2651 2914 
Q 2772 3150 2772 3378 
Q 2772 3750 2511 3984 
Q 2250 4219 1831 4219 
Q 1534 4219 1204 4116 
Q 875 4013 500 3803 
L 500 4441 
Q 881 4594 1212 4672 
Q 1544 4750 1819 4750 
Q 2544 4750 2975 4387 
Q 3406 4025 3406 3419 
Q 3406 3131 3298 2873 
Q 3191 2616 2906 2266 
Q 2828 2175 2409 1742 
Q 1991 1309 1228 531 
z
" transform="scale(0.015625)"/>
       </defs>
       <use xlink:href="#DejaVuSans-31"/>
       <use xlink:href="#DejaVuSans-39" transform="translate(63.623047 0)"/>
       <use xlink:href="#DejaVuSans-32" transform="translate(127.246094 0)"/>
       <use xlink:href="#DejaVuSans-b0" transform="translate(190.869141 0)"/>
      </g>
     </g>
    </g>
    <g id="xtick_6">
     <g id="line2d_6">
      <path d="M 291.741468 117.033656 
L 49.335833 181.98605 
" clip-path="url(#p813fc6930a)" style="fill: none; stroke: #b0b0b0; stroke-width: 0.8; stroke-linecap: square"/>
     </g>
     <g id="text_6">
      <!-- 195° -->
      <g transform="translate(23.769122 188.368891) scale(0.1 -0.1)">
       <defs>
        <path id="DejaVuSans-35" d="M 691 4666 
L 3169 4666 
L 3169 4134 
L 1269 4134 
L 1269 2991 
Q 1406 3038 1543 3061 
Q 1681 3084 1819 3084 
Q 2600 3084 3056 2656 
Q 3513 2228 3513 1497 
Q 3513 744 3044 326 
Q 2575 -91 1722 -91 
Q 1428 -91 1123 -41 
Q 819 9 494 109 
L 494 744 
Q 775 591 1075 516 
Q 1375 441 1709 441 
Q 2250 441 2565 725 
Q 2881 1009 2881 1497 
Q 2881 1984 2565 2268 
Q 2250 2553 1709 2553 
Q 1456 2553 1204 2497 
Q 953 2441 691 2322 
L 691 4666 
z
" transform="scale(0.015625)"/>
       </defs>
       <use xlink:href="#DejaVuSans-31"/>
       <use xlink:href="#DejaVuSans-39" transform="translate(63.623047 0)"/>
       <use xlink:href="#DejaVuSans-35" transform="translate(127.246094 0)"/>
       <use xlink:href="#DejaVuSans-b0" transform="translate(190.869141 0)"/>
      </g>
     </g>
    </g>
    <g id="xtick_7">
     <g id="line2d_7">
      <path d="M 295.032187 128.142939 
L 56.358107 205.692848 
" clip-path="url(#p813fc6930a)" style="fill: none; stroke: #b0b0b0; stroke-width: 0.8; stroke-linecap: square"/>
     </g>
     <g id="text_7">
      <!-- 198° -->
      <g transform="translate(30.999566 212.778461) scale(0.1 -0.1)">
       <use xlink:href="#DejaVuSans-31"/>
       <use xlink:href="#DejaVuSans-39" transform="translate(63.623047 0)"/>
       <use xlink:href="#DejaVuSans-38" transform="translate(127.246094 0)"/>
       <use xlink:href="#DejaVuSans-b0" transform="translate(190.869141 0)"/>
      </g>
     </g>
    </g>
    <g id="xtick_8">
     <g id="line2d_8">
      <path d="M 298.899812 139.064774 
L 64.611475 228.99964 
" clip-path="url(#p813fc6930a)" style="fill: none; stroke: #b0b0b0; stroke-width: 0.8; stroke-linecap: square"/>
     </g>
     <g id="text_8">
      <!-- 201° -->
      <g transform="translate(39.497599 236.776166) scale(0.1 -0.1)">
       <use xlink:href="#DejaVuSans-32"/>
       <use xlink:href="#DejaVuSans-30" transform="translate(63.623047 0)"/>
       <use xlink:href="#DejaVuSans-31" transform="translate(127.246094 0)"/>
       <use xlink:href="#DejaVuSans-b0" transform="translate(190.869141 0)"/>
      </g>
     </g>
    </g>
    <g id="text_9">
     <!-- theta [rad] -->
     <g transform="translate(138.829749 284.910437) scale(0.1 -0.1)">
      <defs>
       <path id="DejaVuSans-74" d="M 1172 4494 
L 1172 3500 
L 2356 3500 
L 2356 3053 
L 1172 3053 
L 1172 1153 
Q 1172 725 1289 603 
Q 1406 481 1766 481 
L 2356 481 
L 2356 0 
L 1766 0 
Q 1100 0 847 248 
Q 594 497 594 1153 
L 594 3053 
L 172 3053 
L 172 3500 
L 594 3500 
L 594 4494 
L 1172 4494 
z
" transform="scale(0.015625)"/>
       <path id="DejaVuSans-68" d="M 3513 2113 
L 3513 0 
L 2938 0 
L 2938 2094 
Q 2938 2591 2744 2837 
Q 2550 3084 2163 3084 
Q 1697 3084 1428 2787 
Q 1159 2491 1159 1978 
L 1159 0 
L 581 0 
L 581 4863 
L 1159 4863 
L 1159 2956 
Q 1366 3272 1645 3428 
Q 1925 3584 2291 3584 
Q 2894 3584 3203 3211 
Q 3513 2838 3513 2113 
z
" transform="scale(0.015625)"/>
       <path id="DejaVuSans-65" d="M 3597 1894 
L 3597 1613 
L 953 1613 
Q 991 1019 1311 708 
Q 1631 397 2203 397 
Q 2534 397 2845 478 
Q 3156 559 3463 722 
L 3463 178 
Q 3153 47 2828 -22 
Q 2503 -91 2169 -91 
Q 1331 -91 842 396 
Q 353 884 353 1716 
Q 353 2575 817 3079 
Q 1281 3584 2069 3584 
Q 2775 3584 3186 3129 
Q 3597 2675 3597 1894 
z
M 3022 2063 
Q 3016 2534 2758 2815 
Q 2500 3097 2075 3097 
Q 1594 3097 1305 2825 
Q 1016 2553 972 2059 
L 3022 2063 
z
" transform="scale(0.015625)"/>
       <path id="DejaVuSans-61" d="M 2194 1759 
Q 1497 1759 1228 1600 
Q 959 1441 959 1056 
Q 959 750 1161 570 
Q 1363 391 1709 391 
Q 2188 391 2477 730 
Q 2766 1069 2766 1631 
L 2766 1759 
L 2194 1759 
z
M 3341 1997 
L 3341 0 
L 2766 0 
L 2766 531 
Q 2569 213 2275 61 
Q 1981 -91 1556 -91 
Q 1019 -91 701 211 
Q 384 513 384 1019 
Q 384 1609 779 1909 
Q 1175 2209 1959 2209 
L 2766 2209 
L 2766 2266 
Q 2766 2663 2505 2880 
Q 2244 3097 1772 3097 
Q 1472 3097 1187 3025 
Q 903 2953 641 2809 
L 641 3341 
Q 956 3463 1253 3523 
Q 1550 3584 1831 3584 
Q 2591 3584 2966 3190 
Q 3341 2797 3341 1997 
z
" transform="scale(0.015625)"/>
       <path id="DejaVuSans-20" transform="scale(0.015625)"/>
       <path id="DejaVuSans-5b" d="M 550 4863 
L 1875 4863 
L 1875 4416 
L 1125 4416 
L 1125 -397 
L 1875 -397 
L 1875 -844 
L 550 -844 
L 550 4863 
z
" transform="scale(0.015625)"/>
       <path id="DejaVuSans-72" d="M 2631 2963 
Q 2534 3019 2420 3045 
Q 2306 3072 2169 3072 
Q 1681 3072 1420 2755 
Q 1159 2438 1159 1844 
L 1159 0 
L 581 0 
L 581 3500 
L 1159 3500 
L 1159 2956 
Q 1341 3275 1631 3429 
Q 1922 3584 2338 3584 
Q 2397 3584 2469 3576 
Q 2541 3569 2628 3553 
L 2631 2963 
z
" transform="scale(0.015625)"/>
       <path id="DejaVuSans-64" d="M 2906 2969 
L 2906 4863 
L 3481 4863 
L 3481 0 
L 2906 0 
L 2906 525 
Q 2725 213 2448 61 
Q 2172 -91 1784 -91 
Q 1150 -91 751 415 
Q 353 922 353 1747 
Q 353 2572 751 3078 
Q 1150 3584 1784 3584 
Q 2172 3584 2448 3432 
Q 2725 3281 2906 2969 
z
M 947 1747 
Q 947 1113 1208 752 
Q 1469 391 1925 391 
Q 2381 391 2643 752 
Q 2906 1113 2906 1747 
Q 2906 2381 2643 2742 
Q 2381 3103 1925 3103 
Q 1469 3103 1208 2742 
Q 947 2381 947 1747 
z
" transform="scale(0.015625)"/>
       <path id="DejaVuSans-5d" d="M 1947 4863 
L 1947 -844 
L 622 -844 
L 622 -397 
L 1369 -397 
L 1369 4416 
L 622 4416 
L 622 4863 
L 1947 4863 
z
" transform="scale(0.015625)"/>
      </defs>
      <use xlink:href="#DejaVuSans-74"/>
      <use xlink:href="#DejaVuSans-68" transform="translate(39.208984 0)"/>
      <use xlink:href="#DejaVuSans-65" transform="translate(102.587891 0)"/>
      <use xlink:href="#DejaVuSans-74" transform="translate(164.111328 0)"/>
      <use xlink:href="#DejaVuSans-61" transform="translate(203.320312 0)"/>
      <use xlink:href="#DejaVuSans-20" transform="translate(264.599609 0)"/>
      <use xlink:href="#DejaVuSans-5b" transform="translate(296.386719 0)"/>
      <use xlink:href="#DejaVuSans-72" transform="translate(335.400391 0)"/>
      <use xlink:href="#DejaVuSans-61" transform="translate(376.513672 0)"/>
      <use xlink:href="#DejaVuSans-64" transform="translate(437.792969 0)"/>
      <use xlink:href="#DejaVuSans-5d" transform="translate(501.269531 0)"/>
     </g>
    </g>
   </g>
   <g id="matplotlib.axis_2">
    <g id="ytick_1">
     <g id="line2d_9">
      <path d="M 259.644704 55.462948 
C 259.369851 71.209271 260.608331 86.945648 263.343068 102.455112 
C 266.077804 117.964575 270.296172 133.175517 275.940009 147.878216 
" clip-path="url(#p813fc6930a)" style="fill: none; stroke: #b0b0b0; stroke-width: 0.8; stroke-linecap: square"/>
     </g>
     <g id="text_10">
      <!-- 35 -->
      <g transform="translate(253.404371 46.384326) scale(0.1 -0.1)">
       <use xlink:href="#DejaVuSans-33"/>
       <use xlink:href="#DejaVuSans-35" transform="translate(63.623047 0)"/>
      </g>
     </g>
    </g>
    <g id="ytick_2">
     <g id="line2d_10">
      <path d="M 224.521086 54.849863 
C 224.206969 72.845661 225.622374 90.830092 228.747788 108.555193 
C 231.873201 126.280294 236.694193 143.664228 243.144292 160.467312 
" clip-path="url(#p813fc6930a)" style="fill: none; stroke: #b0b0b0; stroke-width: 0.8; stroke-linecap: square"/>
     </g>
     <g id="text_11">
      <!-- 40 -->
      <g transform="translate(218.280753 45.771241) scale(0.1 -0.1)">
       <defs>
        <path id="DejaVuSans-34" d="M 2419 4116 
L 825 1625 
L 2419 1625 
L 2419 4116 
z
M 2253 4666 
L 3047 4666 
L 3047 1625 
L 3713 1625 
L 3713 1100 
L 3047 1100 
L 3047 0 
L 2419 0 
L 2419 1100 
L 313 1100 
L 313 1709 
L 2253 4666 
z
" transform="scale(0.015625)"/>
       </defs>
       <use xlink:href="#DejaVuSans-34"/>
       <use xlink:href="#DejaVuSans-30" transform="translate(63.623047 0)"/>
      </g>
     </g>
    </g>
    <g id="ytick_3">
     <g id="line2d_11">
      <path d="M 189.397469 54.236778 
C 189.044086 74.482051 190.636417 94.714535 194.152508 114.655274 
C 197.668598 134.596013 203.092214 154.152939 210.348576 173.056408 
" clip-path="url(#p813fc6930a)" style="fill: none; stroke: #b0b0b0; stroke-width: 0.8; stroke-linecap: square"/>
     </g>
     <g id="text_12">
      <!-- 45 -->
      <g transform="translate(183.157136 45.158156) scale(0.1 -0.1)">
       <use xlink:href="#DejaVuSans-34"/>
       <use xlink:href="#DejaVuSans-35" transform="translate(63.623047 0)"/>
      </g>
     </g>
    </g>
    <g id="ytick_4">
     <g id="line2d_12">
      <path d="M 154.273851 53.623693 
C 153.881204 76.11844 155.650461 98.598979 159.557228 120.755355 
C 163.463995 142.911732 169.490234 164.641649 177.552859 185.645505 
" clip-path="url(#p813fc6930a)" style="fill: none; stroke: #b0b0b0; stroke-width: 0.8; stroke-linecap: square"/>
     </g>
     <g id="text_13">
      <!-- 50 -->
      <g transform="translate(148.033518 44.545071) scale(0.1 -0.1)">
       <use xlink:href="#DejaVuSans-35"/>
       <use xlink:href="#DejaVuSans-30" transform="translate(63.623047 0)"/>
      </g>
     </g>
    </g>
    <g id="ytick_5">
     <g id="line2d_13">
      <path d="M 119.150234 53.010608 
C 118.718322 77.75483 120.664504 102.483422 124.961948 126.855437 
C 129.259392 151.227451 135.888255 175.13036 144.757142 198.234601 
" clip-path="url(#p813fc6930a)" style="fill: none; stroke: #b0b0b0; stroke-width: 0.8; stroke-linecap: square"/>
     </g>
     <g id="text_14">
      <!-- 55 -->
      <g transform="translate(112.909901 43.931986) scale(0.1 -0.1)">
       <use xlink:href="#DejaVuSans-35"/>
       <use xlink:href="#DejaVuSans-35" transform="translate(63.623047 0)"/>
      </g>
     </g>
    </g>
    <g id="ytick_6">
     <g id="line2d_14">
      <path d="M 84.026616 52.397523 
C 83.55544 79.39122 85.678548 106.367866 90.366668 132.955518 
C 95.054788 159.54317 102.286276 185.619071 111.961425 210.823697 
" clip-path="url(#p813fc6930a)" style="fill: none; stroke: #b0b0b0; stroke-width: 0.8; stroke-linecap: square"/>
     </g>
     <g id="text_15">
      <!-- 60 -->
      <g transform="translate(77.786283 43.318901) scale(0.1 -0.1)">
       <use xlink:href="#DejaVuSans-36"/>
       <use xlink:href="#DejaVuSans-30" transform="translate(63.623047 0)"/>
      </g>
     </g>
    </g>
    <g id="ytick_7">
     <g id="line2d_15">
      <path d="M 48.902999 51.784438 
C 48.392557 81.02761 50.692591 110.25231 55.771388 139.055599 
C 60.850185 167.858889 68.684296 196.107781 79.165709 223.412793 
" clip-path="url(#p813fc6930a)" style="fill: none; stroke: #b0b0b0; stroke-width: 0.8; stroke-linecap: square"/>
     </g>
     <g id="text_16">
      <!-- 65 -->
      <g transform="translate(42.662666 42.705816) scale(0.1 -0.1)">
       <use xlink:href="#DejaVuSans-36"/>
       <use xlink:href="#DejaVuSans-35" transform="translate(63.623047 0)"/>
      </g>
     </g>
    </g>
    <g id="text_17">
     <!-- [m] -->
     <g transform="translate(26.708124 149.027875) rotate(-90) scale(0.1 -0.1)">
      <defs>
       <path id="DejaVuSans-6d" d="M 3328 2828 
Q 3544 3216 3844 3400 
Q 4144 3584 4550 3584 
Q 5097 3584 5394 3201 
Q 5691 2819 5691 2113 
L 5691 0 
L 5113 0 
L 5113 2094 
Q 5113 2597 4934 2840 
Q 4756 3084 4391 3084 
Q 3944 3084 3684 2787 
Q 3425 2491 3425 1978 
L 3425 0 
L 2847 0 
L 2847 2094 
Q 2847 2600 2669 2842 
Q 2491 3084 2119 3084 
Q 1678 3084 1418 2786 
Q 1159 2488 1159 1978 
L 1159 0 
L 581 0 
L 581 3500 
L 1159 3500 
L 1159 2956 
Q 1356 3278 1631 3431 
Q 1906 3584 2284 3584 
Q 2666 3584 2933 3390 
Q 3200 3197 3328 2828 
z
" transform="scale(0.015625)"/>
      </defs>
      <use xlink:href="#DejaVuSans-5b"/>
      <use xlink:href="#DejaVuSans-6d" transform="translate(39.013672 0)"/>
      <use xlink:href="#DejaVuSans-5d" transform="translate(136.425781 0)"/>
     </g>
    </g>
   </g>
   <g id="line2d_16">
    <defs>
     <path id="m57c1817ce9" d="M 0 3 
C 0.795609 3 1.55874 2.683901 2.12132 2.12132 
C 2.683901 1.55874 3 0.795609 3 0 
C 3 -0.795609 2.683901 -1.55874 2.12132 -2.12132 
C 1.55874 -2.683901 0.795609 -3 0 -3 
C -0.795609 -3 -1.55874 -2.683901 -2.12132 -2.12132 
C -2.683901 -1.55874 -3 -0.795609 -3 0 
C -3 0.795609 -2.683901 1.55874 -2.12132 2.12132 
C -1.55874 2.683901 -0.795609 3 0 3 
z
" style="stroke: #1f77b4"/>
    </defs>
    <g clip-path="url(#p813fc6930a)">
     <use xlink:href="#m57c1817ce9" x="120.165607" y="59.754543" style="fill: #1f77b4; stroke: #1f77b4"/>
     <use xlink:href="#m57c1817ce9" x="230.435323" y="61.714151" style="fill: #1f77b4; stroke: #1f77b4"/>
     <use xlink:href="#m57c1817ce9" x="120.046669" y="65.246837" style="fill: #1f77b4; stroke: #1f77b4"/>
     <use xlink:href="#m57c1817ce9" x="190.912704" y="66.478945" style="fill: #1f77b4; stroke: #1f77b4"/>
     <use xlink:href="#m57c1817ce9" x="195.505725" y="68.59056" style="fill: #1f77b4; stroke: #1f77b4"/>
     <use xlink:href="#m57c1817ce9" x="231.582137" y="69.515699" style="fill: #1f77b4; stroke: #1f77b4"/>
     <use xlink:href="#m57c1817ce9" x="153.392374" y="74.814194" style="fill: #1f77b4; stroke: #1f77b4"/>
     <use xlink:href="#m57c1817ce9" x="154.122341" y="77.291573" style="fill: #1f77b4; stroke: #1f77b4"/>
     <use xlink:href="#m57c1817ce9" x="236.388627" y="75.10849" style="fill: #1f77b4; stroke: #1f77b4"/>
     <use xlink:href="#m57c1817ce9" x="273.271544" y="74.664748" style="fill: #1f77b4; stroke: #1f77b4"/>
     <use xlink:href="#m57c1817ce9" x="162.332484" y="84.24324" style="fill: #1f77b4; stroke: #1f77b4"/>
     <use xlink:href="#m57c1817ce9" x="177.642036" y="85.499561" style="fill: #1f77b4; stroke: #1f77b4"/>
     <use xlink:href="#m57c1817ce9" x="150.826482" y="90.148923" style="fill: #1f77b4; stroke: #1f77b4"/>
     <use xlink:href="#m57c1817ce9" x="119.335692" y="95.620474" style="fill: #1f77b4; stroke: #1f77b4"/>
     <use xlink:href="#m57c1817ce9" x="188.470702" y="91.479112" style="fill: #1f77b4; stroke: #1f77b4"/>
     <use xlink:href="#m57c1817ce9" x="144.253444" y="98.5049" style="fill: #1f77b4; stroke: #1f77b4"/>
     <use xlink:href="#m57c1817ce9" x="133.711397" y="102.316883" style="fill: #1f77b4; stroke: #1f77b4"/>
     <use xlink:href="#m57c1817ce9" x="213.139874" y="95.335998" style="fill: #1f77b4; stroke: #1f77b4"/>
     <use xlink:href="#m57c1817ce9" x="79.143733" y="114.728389" style="fill: #1f77b4; stroke: #1f77b4"/>
     <use xlink:href="#m57c1817ce9" x="166.429283" y="105.932161" style="fill: #1f77b4; stroke: #1f77b4"/>
     <use xlink:href="#m57c1817ce9" x="136.687075" y="112.661386" style="fill: #1f77b4; stroke: #1f77b4"/>
     <use xlink:href="#m57c1817ce9" x="129.399811" y="116.444037" style="fill: #1f77b4; stroke: #1f77b4"/>
     <use xlink:href="#m57c1817ce9" x="119.474816" y="120.755571" style="fill: #1f77b4; stroke: #1f77b4"/>
     <use xlink:href="#m57c1817ce9" x="144.934862" y="119.368205" style="fill: #1f77b4; stroke: #1f77b4"/>
     <use xlink:href="#m57c1817ce9" x="135.665045" y="123.610731" style="fill: #1f77b4; stroke: #1f77b4"/>
     <use xlink:href="#m57c1817ce9" x="181.725779" y="118.036337" style="fill: #1f77b4; stroke: #1f77b4"/>
     <use xlink:href="#m57c1817ce9" x="84.126197" y="138.707596" style="fill: #1f77b4; stroke: #1f77b4"/>
     <use xlink:href="#m57c1817ce9" x="169.054048" y="125.279339" style="fill: #1f77b4; stroke: #1f77b4"/>
     <use xlink:href="#m57c1817ce9" x="206.979258" y="120.10384" style="fill: #1f77b4; stroke: #1f77b4"/>
     <use xlink:href="#m57c1817ce9" x="164.329605" y="131.259169" style="fill: #1f77b4; stroke: #1f77b4"/>
     <use xlink:href="#m57c1817ce9" x="170.574604" y="132.444921" style="fill: #1f77b4; stroke: #1f77b4"/>
     <use xlink:href="#m57c1817ce9" x="153.504789" y="138.779384" style="fill: #1f77b4; stroke: #1f77b4"/>
     <use xlink:href="#m57c1817ce9" x="196.396027" y="131.467134" style="fill: #1f77b4; stroke: #1f77b4"/>
     <use xlink:href="#m57c1817ce9" x="109.91071" y="154.50602" style="fill: #1f77b4; stroke: #1f77b4"/>
     <use xlink:href="#m57c1817ce9" x="94.289178" y="161.350444" style="fill: #1f77b4; stroke: #1f77b4"/>
     <use xlink:href="#m57c1817ce9" x="192.637705" y="139.421625" style="fill: #1f77b4; stroke: #1f77b4"/>
     <use xlink:href="#m57c1817ce9" x="221.617588" y="134.199907" style="fill: #1f77b4; stroke: #1f77b4"/>
     <use xlink:href="#m57c1817ce9" x="197.691111" y="142.822223" style="fill: #1f77b4; stroke: #1f77b4"/>
     <use xlink:href="#m57c1817ce9" x="178.367674" y="150.541893" style="fill: #1f77b4; stroke: #1f77b4"/>
     <use xlink:href="#m57c1817ce9" x="62.323241" y="186.153235" style="fill: #1f77b4; stroke: #1f77b4"/>
     <use xlink:href="#m57c1817ce9" x="134.148266" y="168.535008" style="fill: #1f77b4; stroke: #1f77b4"/>
     <use xlink:href="#m57c1817ce9" x="183.353799" y="156.618713" style="fill: #1f77b4; stroke: #1f77b4"/>
     <use xlink:href="#m57c1817ce9" x="161.431789" y="165.888623" style="fill: #1f77b4; stroke: #1f77b4"/>
     <use xlink:href="#m57c1817ce9" x="182.53668" y="161.903927" style="fill: #1f77b4; stroke: #1f77b4"/>
     <use xlink:href="#m57c1817ce9" x="171.991908" y="167.858535" style="fill: #1f77b4; stroke: #1f77b4"/>
     <use xlink:href="#m57c1817ce9" x="167.613135" y="171.944041" style="fill: #1f77b4; stroke: #1f77b4"/>
     <use xlink:href="#m57c1817ce9" x="180.574666" y="170.216603" style="fill: #1f77b4; stroke: #1f77b4"/>
     <use xlink:href="#m57c1817ce9" x="194.968251" y="167.79742" style="fill: #1f77b4; stroke: #1f77b4"/>
     <use xlink:href="#m57c1817ce9" x="214.261725" y="163.416643" style="fill: #1f77b4; stroke: #1f77b4"/>
     <use xlink:href="#m57c1817ce9" x="181.664736" y="177.624589" style="fill: #1f77b4; stroke: #1f77b4"/>
    </g>
   </g>
   <g id="patch_3">
    <path d="M 33.315678 51.51236 
C 32.787812 81.753814 35.166363 111.976166 40.418536 141.762721 
C 45.670709 171.549277 53.772256 200.76251 64.611475 228.99964 
" style="fill: none; stroke: #000000; stroke-width: 0.8; stroke-linejoin: miter; stroke-linecap: square"/>
   </g>
   <g id="patch_4">
    <path d="M 284.234236 55.89216 
L 33.315678 51.51236 
" style="fill: none; stroke: #000000; stroke-width: 0.8; stroke-linejoin: miter; stroke-linecap: square"/>
   </g>
   <g id="patch_5">
    <path d="M 298.899812 139.064774 
L 64.611475 228.99964 
" style="fill: none; stroke: #000000; stroke-width: 0.8; stroke-linejoin: miter; stroke-linecap: square"/>
   </g>
   <g id="patch_6">
    <path d="M 284.234236 55.89216 
C 283.986872 70.063659 285.101488 84.226206 287.562718 98.184534 
C 290.023948 112.142862 293.820427 125.832524 298.899812 139.064774 
" style="fill: none; stroke: #000000; stroke-width: 0.8; stroke-linejoin: miter; stroke-linecap: square"/>
   </g>
  </g>
 </g>
 <defs>
  <clipPath id="p813fc6930a">
   <path d="M 33.315678 51.51236 
C 32.787812 81.753814 35.166363 111.976166 40.418536 141.762721 
C 45.670709 171.549277 53.772256 200.76251 64.611475 228.99964 
L 298.899812 139.064774 
C 293.820427 125.832524 290.023948 112.142862 287.562718 98.184534 
C 285.101488 84.226206 283.986872 70.063659 284.234236 55.89216 
z
"/>
  </clipPath>
 </defs>
</svg>
