<?xml version="1.0" encoding="UTF-8" standalone="no"?>
<!DOCTYPE svg PUBLIC "-//W3C//DTD SVG 1.1//EN"
 "http://www.w3.org/Graphics/SVG/1.1/DTD/svg11.dtd">
<!-- Generated by graphviz version 2.43.0 (0)
 -->
<!-- Title: %3 Pages: 1 -->
<svg width="417pt" height="184pt"
 viewBox="0.00 0.00 417.00 184.05" xmlns="http://www.w3.org/2000/svg" xmlns:xlink="http://www.w3.org/1999/xlink">
<g id="graph0" class="graph" transform="scale(1 1) rotate(0) translate(4 180.05)">
<title>%3</title>
<polygon fill="white" stroke="transparent" points="-4,4 -4,-180.05 413,-180.05 413,4 -4,4"/>
<!-- d124100ba50c4443b55760a9d8a23d89 -->
<g id="node1" class="node">
<title>d124100ba50c4443b55760a9d8a23d89</title>
<polygon fill="none" stroke="black" points="283,-176.05 126,-176.05 126,-153.05 283,-153.05 283,-176.05"/>
<text text-anchor="middle" x="204.5" y="-160.85" font-family="Times,serif" font-size="14.00">Input &lt;DataArray&gt;</text>
</g>
<!-- 50eb0e720b74429a8c49df74eb0889b9 -->
<g id="node2" class="node">
<title>50eb0e720b74429a8c49df74eb0889b9</title>
<polygon fill="none" stroke="black" points="119,-97.29 0,-97.29 0,-74.29 119,-74.29 119,-97.29"/>
<text text-anchor="middle" x="59.5" y="-82.09" font-family="Times,serif" font-size="14.00">Output node 0</text>
</g>
<!-- d124100ba50c4443b55760a9d8a23d89&#45;&gt;50eb0e720b74429a8c49df74eb0889b9 -->
<g id="edge3" class="edge">
<title>d124100ba50c4443b55760a9d8a23d89&#45;&gt;50eb0e720b74429a8c49df74eb0889b9</title>
<path fill="none" stroke="black" d="M184.64,-153.04C159.83,-139.91 117.19,-117.33 88.67,-102.23"/>
<polygon fill="black" stroke="black" points="90.06,-99.01 79.58,-97.42 86.78,-105.19 90.06,-99.01"/>
<text text-anchor="middle" x="168.5" y="-123.85" font-family="Times,serif" font-size="14.00">arg_0</text>
</g>
<!-- 5a145ae624f34c22a7860008b7471d3b -->
<g id="node4" class="node">
<title>5a145ae624f34c22a7860008b7471d3b</title>
<polygon fill="none" stroke="black" points="409,-97.29 290,-97.29 290,-74.29 409,-74.29 409,-97.29"/>
<text text-anchor="middle" x="349.5" y="-82.09" font-family="Times,serif" font-size="14.00">Output node 1</text>
</g>
<!-- d124100ba50c4443b55760a9d8a23d89&#45;&gt;5a145ae624f34c22a7860008b7471d3b -->
<g id="edge2" class="edge">
<title>d124100ba50c4443b55760a9d8a23d89&#45;&gt;5a145ae624f34c22a7860008b7471d3b</title>
<path fill="none" stroke="black" d="M224.36,-153.04C249.17,-139.91 291.81,-117.33 320.33,-102.23"/>
<polygon fill="black" stroke="black" points="322.22,-105.19 329.42,-97.42 318.94,-99.01 322.22,-105.19"/>
<text text-anchor="middle" x="305.5" y="-123.85" font-family="Times,serif" font-size="14.00">arg_0</text>
</g>
<!-- 1954f145439a497799719fd3a1bcd7a8 -->
<g id="node7" class="node">
<title>1954f145439a497799719fd3a1bcd7a8</title>
<ellipse fill="lightgrey" stroke="lightgrey" cx="204.5" cy="-85.79" rx="67.35" ry="16.03"/>
<text text-anchor="middle" x="204.5" y="-82.09" font-family="Times,serif" font-size="14.00">ImageView</text>
</g>
<!-- d124100ba50c4443b55760a9d8a23d89&#45;&gt;1954f145439a497799719fd3a1bcd7a8 -->
<g id="edge1" class="edge">
<title>d124100ba50c4443b55760a9d8a23d89&#45;&gt;1954f145439a497799719fd3a1bcd7a8</title>
<path fill="none" stroke="black" d="M204.5,-152.88C204.5,-142.48 204.5,-126.26 204.5,-112.5"/>
<polygon fill="black" stroke="black" points="208,-112.14 204.5,-102.14 201,-112.14 208,-112.14"/>
</g>
<!-- b30fc5f177f04870887a1699a8b8ddc9 -->
<g id="node6" class="node">
<title>b30fc5f177f04870887a1699a8b8ddc9</title>
<ellipse fill="lightgrey" stroke="lightgrey" cx="203.5" cy="-16.26" rx="57.97" ry="16.03"/>
<text text-anchor="middle" x="203.5" y="-12.56" font-family="Times,serif" font-size="14.00">LineView</text>
</g>
<!-- 50eb0e720b74429a8c49df74eb0889b9&#45;&gt;b30fc5f177f04870887a1699a8b8ddc9 -->
<g id="edge5" class="edge">
<title>50eb0e720b74429a8c49df74eb0889b9&#45;&gt;b30fc5f177f04870887a1699a8b8ddc9</title>
<path fill="none" stroke="black" d="M82,-74.24C104.4,-63.73 139.2,-47.42 165.82,-34.93"/>
<polygon fill="black" stroke="black" points="167.65,-37.94 175.22,-30.52 164.68,-31.6 167.65,-37.94"/>
</g>
<!-- 8cb5468bd50447259580236c120c70e8 -->
<g id="node3" class="node">
<title>8cb5468bd50447259580236c120c70e8</title>
<polygon fill="none" stroke="black" points="108,-176.05 1,-176.05 1,-153.05 108,-153.05 108,-176.05"/>
<text text-anchor="middle" x="54.5" y="-160.85" font-family="Times,serif" font-size="14.00">Draw node 0</text>
</g>
<!-- 8cb5468bd50447259580236c120c70e8&#45;&gt;50eb0e720b74429a8c49df74eb0889b9 -->
<g id="edge4" class="edge">
<title>8cb5468bd50447259580236c120c70e8&#45;&gt;50eb0e720b74429a8c49df74eb0889b9</title>
<path fill="none" stroke="black" d="M55.2,-152.88C55.96,-141.19 57.2,-122.17 58.15,-107.52"/>
<polygon fill="black" stroke="black" points="61.65,-107.58 58.81,-97.37 54.67,-107.12 61.65,-107.58"/>
<text text-anchor="middle" x="77.5" y="-123.85" font-family="Times,serif" font-size="14.00">arg_1</text>
</g>
<!-- 5a145ae624f34c22a7860008b7471d3b&#45;&gt;b30fc5f177f04870887a1699a8b8ddc9 -->
<g id="edge7" class="edge">
<title>5a145ae624f34c22a7860008b7471d3b&#45;&gt;b30fc5f177f04870887a1699a8b8ddc9</title>
<path fill="none" stroke="black" d="M326.69,-74.24C303.87,-63.69 268.38,-47.27 241.35,-34.77"/>
<polygon fill="black" stroke="black" points="242.72,-31.55 232.17,-30.52 239.78,-37.9 242.72,-31.55"/>
</g>
<!-- 15d088027e164d50a3c6bba7106a1baf -->
<g id="node5" class="node">
<title>15d088027e164d50a3c6bba7106a1baf</title>
<polygon fill="none" stroke="black" points="408,-176.05 301,-176.05 301,-153.05 408,-153.05 408,-176.05"/>
<text text-anchor="middle" x="354.5" y="-160.85" font-family="Times,serif" font-size="14.00">Draw node 1</text>
</g>
<!-- 15d088027e164d50a3c6bba7106a1baf&#45;&gt;5a145ae624f34c22a7860008b7471d3b -->
<g id="edge6" class="edge">
<title>15d088027e164d50a3c6bba7106a1baf&#45;&gt;5a145ae624f34c22a7860008b7471d3b</title>
<path fill="none" stroke="black" d="M353.8,-152.88C353.04,-141.19 351.8,-122.17 350.85,-107.52"/>
<polygon fill="black" stroke="black" points="354.33,-107.12 350.19,-97.37 347.35,-107.58 354.33,-107.12"/>
<text text-anchor="middle" x="372.5" y="-123.85" font-family="Times,serif" font-size="14.00">arg_1</text>
</g>
</g>
</svg>
