<?xml version="1.0" encoding="UTF-8" standalone="no"?>
<!DOCTYPE svg PUBLIC "-//W3C//DTD SVG 1.1//EN"
 "http://www.w3.org/Graphics/SVG/1.1/DTD/svg11.dtd">
<!-- Generated by graphviz version 2.43.0 (0)
 -->
<!-- Title: %3 Pages: 1 -->
<svg width="434pt" height="175pt"
 viewBox="0.00 0.00 434.00 174.53" xmlns="http://www.w3.org/2000/svg" xmlns:xlink="http://www.w3.org/1999/xlink">
<g id="graph0" class="graph" transform="scale(1 1) rotate(0) translate(4 170.53)">
<title>%3</title>
<polygon fill="white" stroke="transparent" points="-4,4 -4,-170.53 430,-170.53 430,4 -4,4"/>
<!-- 2f7a8b7aeff342858c3e380d8d055e12 -->
<g id="node1" class="node">
<title>2f7a8b7aeff342858c3e380d8d055e12</title>
<polygon fill="none" stroke="black" points="426,-92.53 0,-92.53 0,-69.53 426,-69.53 426,-92.53"/>
<text text-anchor="middle" x="213" y="-77.33" font-family="Times,serif" font-size="14.00">&lt;__main__.DataGen object at 0x7fecf3e9dc60&gt;(iteration)</text>
</g>
<!-- 016b4a15e1124b7995a198338cabc0dd -->
<g id="node3" class="node">
<title>016b4a15e1124b7995a198338cabc0dd</title>
<ellipse fill="lightgrey" stroke="lightgrey" cx="213" cy="-16.26" rx="84.71" ry="16.03"/>
<text text-anchor="middle" x="213" y="-12.56" font-family="Times,serif" font-size="14.00">GraphicalView</text>
</g>
<!-- 2f7a8b7aeff342858c3e380d8d055e12&#45;&gt;016b4a15e1124b7995a198338cabc0dd -->
<g id="edge2" class="edge">
<title>2f7a8b7aeff342858c3e380d8d055e12&#45;&gt;016b4a15e1124b7995a198338cabc0dd</title>
<path fill="none" stroke="black" d="M213,-69.38C213,-62.06 213,-52.02 213,-42.7"/>
<polygon fill="black" stroke="black" points="216.5,-42.68 213,-32.68 209.5,-42.68 216.5,-42.68"/>
</g>
<!-- ad463ae631744cc3ada07b4ec21994a5 -->
<g id="node2" class="node">
<title>ad463ae631744cc3ada07b4ec21994a5</title>
<polygon fill="none" stroke="black" points="290.5,-166.53 135.5,-166.53 135.5,-143.53 290.5,-143.53 290.5,-166.53"/>
<text text-anchor="middle" x="213" y="-151.33" font-family="Times,serif" font-size="14.00">Widget &lt;Play: int&gt;</text>
</g>
<!-- ad463ae631744cc3ada07b4ec21994a5&#45;&gt;2f7a8b7aeff342858c3e380d8d055e12 -->
<g id="edge1" class="edge">
<title>ad463ae631744cc3ada07b4ec21994a5&#45;&gt;2f7a8b7aeff342858c3e380d8d055e12</title>
<path fill="none" stroke="black" d="M213,-143.4C213,-132.77 213,-116.12 213,-102.85"/>
<polygon fill="black" stroke="black" points="216.5,-102.69 213,-92.69 209.5,-102.69 216.5,-102.69"/>
<text text-anchor="middle" x="244" y="-114.33" font-family="Times,serif" font-size="14.00">iteration</text>
</g>
</g>
</svg>
