<?xml version="1.0" encoding="UTF-8" standalone="no"?>
<!DOCTYPE svg PUBLIC "-//W3C//DTD SVG 1.1//EN"
 "http://www.w3.org/Graphics/SVG/1.1/DTD/svg11.dtd">
<!-- Generated by graphviz version 2.43.0 (0)
 -->
<!-- Title: %3 Pages: 1 -->
<svg width="439pt" height="175pt"
 viewBox="0.00 0.00 439.00 174.53" xmlns="http://www.w3.org/2000/svg" xmlns:xlink="http://www.w3.org/1999/xlink">
<g id="graph0" class="graph" transform="scale(1 1) rotate(0) translate(4 170.53)">
<title>%3</title>
<polygon fill="white" stroke="transparent" points="-4,4 -4,-170.53 435,-170.53 435,4 -4,4"/>
<!-- 866dc28a9ebb4e23b944b5475af5e963 -->
<g id="node1" class="node">
<title>866dc28a9ebb4e23b944b5475af5e963</title>
<polygon fill="none" stroke="black" points="431,-92.53 0,-92.53 0,-69.53 431,-69.53 431,-92.53"/>
<text text-anchor="middle" x="215.5" y="-77.33" font-family="Times,serif" font-size="14.00">&lt;__main__.DataGen object at 0x7f1eeac23b90&gt;(iteration)</text>
</g>
<!-- 81e761e5faa74ac79397757e760d3ac3 -->
<g id="node3" class="node">
<title>81e761e5faa74ac79397757e760d3ac3</title>
<ellipse fill="lightgrey" stroke="lightgrey" cx="215.5" cy="-16.26" rx="84.71" ry="16.03"/>
<text text-anchor="middle" x="215.5" y="-12.56" font-family="Times,serif" font-size="14.00">GraphicalView</text>
</g>
<!-- 866dc28a9ebb4e23b944b5475af5e963&#45;&gt;81e761e5faa74ac79397757e760d3ac3 -->
<g id="edge2" class="edge">
<title>866dc28a9ebb4e23b944b5475af5e963&#45;&gt;81e761e5faa74ac79397757e760d3ac3</title>
<path fill="none" stroke="black" d="M215.5,-69.38C215.5,-62.06 215.5,-52.02 215.5,-42.7"/>
<polygon fill="black" stroke="black" points="219,-42.68 215.5,-32.68 212,-42.68 219,-42.68"/>
</g>
<!-- 8831a1aae317484cb82260ff5eafe1bc -->
<g id="node2" class="node">
<title>8831a1aae317484cb82260ff5eafe1bc</title>
<polygon fill="none" stroke="black" points="293,-166.53 138,-166.53 138,-143.53 293,-143.53 293,-166.53"/>
<text text-anchor="middle" x="215.5" y="-151.33" font-family="Times,serif" font-size="14.00">Widget &lt;Play: int&gt;</text>
</g>
<!-- 8831a1aae317484cb82260ff5eafe1bc&#45;&gt;866dc28a9ebb4e23b944b5475af5e963 -->
<g id="edge1" class="edge">
<title>8831a1aae317484cb82260ff5eafe1bc&#45;&gt;866dc28a9ebb4e23b944b5475af5e963</title>
<path fill="none" stroke="black" d="M215.5,-143.4C215.5,-132.77 215.5,-116.12 215.5,-102.85"/>
<polygon fill="black" stroke="black" points="219,-102.69 215.5,-92.69 212,-102.69 219,-102.69"/>
<text text-anchor="middle" x="246.5" y="-114.33" font-family="Times,serif" font-size="14.00">iteration</text>
</g>
</g>
</svg>
