<?xml version="1.0" encoding="UTF-8" standalone="no"?>
<!DOCTYPE svg PUBLIC "-//W3C//DTD SVG 1.1//EN"
 "http://www.w3.org/Graphics/SVG/1.1/DTD/svg11.dtd">
<!-- Generated by graphviz version 2.43.0 (0)
 -->
<!-- Title: %3 Pages: 1 -->
<svg width="445pt" height="175pt"
 viewBox="0.00 0.00 444.50 174.53" xmlns="http://www.w3.org/2000/svg" xmlns:xlink="http://www.w3.org/1999/xlink">
<g id="graph0" class="graph" transform="scale(1 1) rotate(0) translate(4 170.53)">
<title>%3</title>
<polygon fill="white" stroke="transparent" points="-4,4 -4,-170.53 440.5,-170.53 440.5,4 -4,4"/>
<!-- a167cde1701b4134b53b8f50399fd124 -->
<g id="node1" class="node">
<title>a167cde1701b4134b53b8f50399fd124</title>
<polygon fill="none" stroke="black" points="157,-92.53 0,-92.53 0,-69.53 157,-69.53 157,-92.53"/>
<text text-anchor="middle" x="78.5" y="-77.33" font-family="Times,serif" font-size="14.00">Input &lt;DataArray&gt;</text>
</g>
<!-- 005bc05fc45040d388e7e0a47e848b43 -->
<g id="node5" class="node">
<title>005bc05fc45040d388e7e0a47e848b43</title>
<ellipse fill="lightgrey" stroke="lightgrey" cx="90.5" cy="-16.26" rx="84.71" ry="16.03"/>
<text text-anchor="middle" x="90.5" y="-12.56" font-family="Times,serif" font-size="14.00">GraphicalView</text>
</g>
<!-- a167cde1701b4134b53b8f50399fd124&#45;&gt;005bc05fc45040d388e7e0a47e848b43 -->
<g id="edge1" class="edge">
<title>a167cde1701b4134b53b8f50399fd124&#45;&gt;005bc05fc45040d388e7e0a47e848b43</title>
<path fill="none" stroke="black" d="M80.54,-69.38C81.93,-62.06 83.85,-52.02 85.64,-42.7"/>
<polygon fill="black" stroke="black" points="89.11,-43.16 87.55,-32.68 82.24,-41.84 89.11,-43.16"/>
</g>
<!-- dc4c27d36f2442798d92d01f1517235f -->
<g id="node2" class="node">
<title>dc4c27d36f2442798d92d01f1517235f</title>
<polygon fill="none" stroke="black" points="275.5,-92.53 175.5,-92.53 175.5,-69.53 275.5,-69.53 275.5,-92.53"/>
<text text-anchor="middle" x="225.5" y="-77.33" font-family="Times,serif" font-size="14.00">move(da, x)</text>
</g>
<!-- dc4c27d36f2442798d92d01f1517235f&#45;&gt;005bc05fc45040d388e7e0a47e848b43 -->
<g id="edge4" class="edge">
<title>dc4c27d36f2442798d92d01f1517235f&#45;&gt;005bc05fc45040d388e7e0a47e848b43</title>
<path fill="none" stroke="black" d="M202.9,-69.52C183.16,-60.34 154.03,-46.8 130.37,-35.8"/>
<polygon fill="black" stroke="black" points="131.82,-32.61 121.27,-31.57 128.86,-38.96 131.82,-32.61"/>
</g>
<!-- 16c897bda4e341a48d248c379cc71b42 -->
<g id="node3" class="node">
<title>16c897bda4e341a48d248c379cc71b42</title>
<polygon fill="none" stroke="black" points="202,-166.53 45,-166.53 45,-143.53 202,-143.53 202,-166.53"/>
<text text-anchor="middle" x="123.5" y="-151.33" font-family="Times,serif" font-size="14.00">Input &lt;DataArray&gt;</text>
</g>
<!-- 16c897bda4e341a48d248c379cc71b42&#45;&gt;dc4c27d36f2442798d92d01f1517235f -->
<g id="edge2" class="edge">
<title>16c897bda4e341a48d248c379cc71b42&#45;&gt;dc4c27d36f2442798d92d01f1517235f</title>
<path fill="none" stroke="black" d="M138.55,-143.4C155.27,-131.6 182.49,-112.39 202.02,-98.6"/>
<polygon fill="black" stroke="black" points="204.24,-101.32 210.39,-92.69 200.2,-95.6 204.24,-101.32"/>
<text text-anchor="middle" x="193.5" y="-114.33" font-family="Times,serif" font-size="14.00">da</text>
</g>
<!-- f8a28e02f14e4f2c9fe56de9622fa416 -->
<g id="node4" class="node">
<title>f8a28e02f14e4f2c9fe56de9622fa416</title>
<polygon fill="none" stroke="black" points="436.5,-166.53 220.5,-166.53 220.5,-143.53 436.5,-143.53 436.5,-166.53"/>
<text text-anchor="middle" x="328.5" y="-151.33" font-family="Times,serif" font-size="14.00">Widget &lt;FloatSlider: float&gt;</text>
</g>
<!-- f8a28e02f14e4f2c9fe56de9622fa416&#45;&gt;dc4c27d36f2442798d92d01f1517235f -->
<g id="edge3" class="edge">
<title>f8a28e02f14e4f2c9fe56de9622fa416&#45;&gt;dc4c27d36f2442798d92d01f1517235f</title>
<path fill="none" stroke="black" d="M313.3,-143.4C296.41,-131.6 268.93,-112.39 249.21,-98.6"/>
<polygon fill="black" stroke="black" points="250.96,-95.56 240.76,-92.69 246.95,-101.29 250.96,-95.56"/>
<text text-anchor="middle" x="291" y="-114.33" font-family="Times,serif" font-size="14.00">x</text>
</g>
</g>
</svg>
