<?xml version="1.0" encoding="utf-8" standalone="no"?>
<!DOCTYPE svg PUBLIC "-//W3C//DTD SVG 1.1//EN"
  "http://www.w3.org/Graphics/SVG/1.1/DTD/svg11.dtd">
<svg xmlns:xlink="http://www.w3.org/1999/xlink" width="326.237pt" height="331.86825pt" viewBox="0 0 326.237 331.86825" xmlns="http://www.w3.org/2000/svg" version="1.1">
 <metadata>
  <rdf:RDF xmlns:dc="http://purl.org/dc/elements/1.1/" xmlns:cc="http://creativecommons.org/ns#" xmlns:rdf="http://www.w3.org/1999/02/22-rdf-syntax-ns#">
   <cc:Work>
    <dc:type rdf:resource="http://purl.org/dc/dcmitype/StillImage"/>
    <dc:date>2026-02-18T13:46:22.033479</dc:date>
    <dc:format>image/svg+xml</dc:format>
    <dc:creator>
     <cc:Agent>
      <dc:title>Matplotlib v3.10.7, https://matplotlib.org/</dc:title>
     </cc:Agent>
    </dc:creator>
   </cc:Work>
  </rdf:RDF>
 </metadata>
 <defs>
  <style type="text/css">*{stroke-linejoin: round; stroke-linecap: butt}</style>
 </defs>
 <g id="figure_1">
  <g id="patch_1">
   <path d="M 0 331.86825 
L 326.237 331.86825 
L 326.237 0 
L 0 0 
z
" style="fill: #ffffff"/>
  </g>
  <g id="axes_1">
   <g id="patch_2">
    <path d="M 299.35575 159.095062 
C 299.35575 141.622309 295.913998 124.319455 289.227465 108.176736 
C 282.540932 92.034016 272.739653 77.365365 260.38455 65.010263 
C 248.029447 52.65516 233.360796 42.853881 217.218077 36.167347 
C 201.075357 29.480814 183.772504 26.039062 166.29975 26.039062 
C 148.826996 26.039062 131.524143 29.480814 115.381423 36.167347 
C 99.238704 42.853881 84.570053 52.65516 72.21495 65.010263 
C 59.859847 77.365365 50.058568 92.034016 43.372035 108.176736 
C 36.685502 124.319455 33.24375 141.622309 33.24375 159.095062 
C 33.24375 176.567816 36.685502 193.87067 43.372035 210.013389 
C 50.058568 226.156109 59.859847 240.82476 72.21495 253.179862 
C 84.570053 265.534965 99.238704 275.336244 115.381423 282.022778 
C 131.524143 288.709311 148.826996 292.151062 166.29975 292.151062 
C 183.772504 292.151062 201.075357 288.709311 217.218077 282.022778 
C 233.360796 275.336244 248.029447 265.534965 260.38455 253.179862 
C 272.739653 240.82476 282.540932 226.156109 289.227465 210.013389 
C 295.913998 193.87067 299.35575 176.567816 299.35575 159.095062 
M 166.29975 159.095062 
C 166.29975 159.095062 166.29975 159.095062 166.29975 159.095062 
C 166.29975 159.095062 166.29975 159.095062 166.29975 159.095062 
C 166.29975 159.095062 166.29975 159.095062 166.29975 159.095062 
C 166.29975 159.095062 166.29975 159.095062 166.29975 159.095062 
C 166.29975 159.095062 166.29975 159.095062 166.29975 159.095062 
C 166.29975 159.095062 166.29975 159.095062 166.29975 159.095062 
C 166.29975 159.095062 166.29975 159.095062 166.29975 159.095062 
C 166.29975 159.095062 166.29975 159.095062 166.29975 159.095062 
C 166.29975 159.095062 166.29975 159.095062 166.29975 159.095062 
C 166.29975 159.095062 166.29975 159.095062 166.29975 159.095062 
C 166.29975 159.095062 166.29975 159.095062 166.29975 159.095062 
C 166.29975 159.095062 166.29975 159.095062 166.29975 159.095062 
C 166.29975 159.095062 166.29975 159.095062 166.29975 159.095062 
C 166.29975 159.095062 166.29975 159.095062 166.29975 159.095062 
C 166.29975 159.095062 166.29975 159.095062 166.29975 159.095062 
C 166.29975 159.095062 166.29975 159.095062 166.29975 159.095062 
z
" style="fill: #ffffff"/>
   </g>
   <g id="matplotlib.axis_1">
    <g id="xtick_1">
     <g id="line2d_1">
      <path d="M 166.29975 159.095062 
L 299.35575 159.095062 
" clip-path="url(#p14df50127b)" style="fill: none; stroke: #b0b0b0; stroke-width: 0.8; stroke-linecap: square"/>
     </g>
     <g id="text_1">
      <!-- 0° -->
      <g transform="translate(307.6745 161.854437) scale(0.1 -0.1)">
       <defs>
        <path id="DejaVuSans-30" d="M 2034 4250 
Q 1547 4250 1301 3770 
Q 1056 3291 1056 2328 
Q 1056 1369 1301 889 
Q 1547 409 2034 409 
Q 2525 409 2770 889 
Q 3016 1369 3016 2328 
Q 3016 3291 2770 3770 
Q 2525 4250 2034 4250 
z
M 2034 4750 
Q 2819 4750 3233 4129 
Q 3647 3509 3647 2328 
Q 3647 1150 3233 529 
Q 2819 -91 2034 -91 
Q 1250 -91 836 529 
Q 422 1150 422 2328 
Q 422 3509 836 4129 
Q 1250 4750 2034 4750 
z
" transform="scale(0.015625)"/>
        <path id="DejaVuSans-b0" d="M 1600 4347 
Q 1350 4347 1178 4173 
Q 1006 4000 1006 3750 
Q 1006 3503 1178 3333 
Q 1350 3163 1600 3163 
Q 1850 3163 2022 3333 
Q 2194 3503 2194 3750 
Q 2194 3997 2020 4172 
Q 1847 4347 1600 4347 
z
M 1600 4750 
Q 1800 4750 1984 4673 
Q 2169 4597 2303 4453 
Q 2447 4313 2519 4134 
Q 2591 3956 2591 3750 
Q 2591 3338 2302 3052 
Q 2013 2766 1594 2766 
Q 1172 2766 890 3047 
Q 609 3328 609 3750 
Q 609 4169 896 4459 
Q 1184 4750 1600 4750 
z
" transform="scale(0.015625)"/>
       </defs>
       <use xlink:href="#DejaVuSans-30"/>
       <use xlink:href="#DejaVuSans-b0" transform="translate(63.623047 0)"/>
      </g>
     </g>
    </g>
    <g id="xtick_2">
     <g id="line2d_2">
      <path d="M 166.29975 159.095062 
L 260.38455 65.010263 
" clip-path="url(#p14df50127b)" style="fill: none; stroke: #b0b0b0; stroke-width: 0.8; stroke-linecap: square"/>
     </g>
     <g id="text_2">
      <!-- 45° -->
      <g transform="translate(261.421545 57.870143) scale(0.1 -0.1)">
       <defs>
        <path id="DejaVuSans-34" d="M 2419 4116 
L 825 1625 
L 2419 1625 
L 2419 4116 
z
M 2253 4666 
L 3047 4666 
L 3047 1625 
L 3713 1625 
L 3713 1100 
L 3047 1100 
L 3047 0 
L 2419 0 
L 2419 1100 
L 313 1100 
L 313 1709 
L 2253 4666 
z
" transform="scale(0.015625)"/>
        <path id="DejaVuSans-35" d="M 691 4666 
L 3169 4666 
L 3169 4134 
L 1269 4134 
L 1269 2991 
Q 1406 3038 1543 3061 
Q 1681 3084 1819 3084 
Q 2600 3084 3056 2656 
Q 3513 2228 3513 1497 
Q 3513 744 3044 326 
Q 2575 -91 1722 -91 
Q 1428 -91 1123 -41 
Q 819 9 494 109 
L 494 744 
Q 775 591 1075 516 
Q 1375 441 1709 441 
Q 2250 441 2565 725 
Q 2881 1009 2881 1497 
Q 2881 1984 2565 2268 
Q 2250 2553 1709 2553 
Q 1456 2553 1204 2497 
Q 953 2441 691 2322 
L 691 4666 
z
" transform="scale(0.015625)"/>
       </defs>
       <use xlink:href="#DejaVuSans-34"/>
       <use xlink:href="#DejaVuSans-35" transform="translate(63.623047 0)"/>
       <use xlink:href="#DejaVuSans-b0" transform="translate(127.246094 0)"/>
      </g>
     </g>
    </g>
    <g id="xtick_3">
     <g id="line2d_3">
      <path d="M 166.29975 159.095062 
L 166.29975 26.039062 
" clip-path="url(#p14df50127b)" style="fill: none; stroke: #b0b0b0; stroke-width: 0.8; stroke-linecap: square"/>
     </g>
     <g id="text_3">
      <!-- 90° -->
      <g transform="translate(157.43725 14.798437) scale(0.1 -0.1)">
       <defs>
        <path id="DejaVuSans-39" d="M 703 97 
L 703 672 
Q 941 559 1184 500 
Q 1428 441 1663 441 
Q 2288 441 2617 861 
Q 2947 1281 2994 2138 
Q 2813 1869 2534 1725 
Q 2256 1581 1919 1581 
Q 1219 1581 811 2004 
Q 403 2428 403 3163 
Q 403 3881 828 4315 
Q 1253 4750 1959 4750 
Q 2769 4750 3195 4129 
Q 3622 3509 3622 2328 
Q 3622 1225 3098 567 
Q 2575 -91 1691 -91 
Q 1453 -91 1209 -44 
Q 966 3 703 97 
z
M 1959 2075 
Q 2384 2075 2632 2365 
Q 2881 2656 2881 3163 
Q 2881 3666 2632 3958 
Q 2384 4250 1959 4250 
Q 1534 4250 1286 3958 
Q 1038 3666 1038 3163 
Q 1038 2656 1286 2365 
Q 1534 2075 1959 2075 
z
" transform="scale(0.015625)"/>
       </defs>
       <use xlink:href="#DejaVuSans-39"/>
       <use xlink:href="#DejaVuSans-30" transform="translate(63.623047 0)"/>
       <use xlink:href="#DejaVuSans-b0" transform="translate(127.246094 0)"/>
      </g>
     </g>
    </g>
    <g id="xtick_4">
     <g id="line2d_4">
      <path d="M 166.29975 159.095062 
L 72.21495 65.010263 
" clip-path="url(#p14df50127b)" style="fill: none; stroke: #b0b0b0; stroke-width: 0.8; stroke-linecap: square"/>
     </g>
     <g id="text_4">
      <!-- 135° -->
      <g transform="translate(50.271705 57.870143) scale(0.1 -0.1)">
       <defs>
        <path id="DejaVuSans-31" d="M 794 531 
L 1825 531 
L 1825 4091 
L 703 3866 
L 703 4441 
L 1819 4666 
L 2450 4666 
L 2450 531 
L 3481 531 
L 3481 0 
L 794 0 
L 794 531 
z
" transform="scale(0.015625)"/>
        <path id="DejaVuSans-33" d="M 2597 2516 
Q 3050 2419 3304 2112 
Q 3559 1806 3559 1356 
Q 3559 666 3084 287 
Q 2609 -91 1734 -91 
Q 1441 -91 1130 -33 
Q 819 25 488 141 
L 488 750 
Q 750 597 1062 519 
Q 1375 441 1716 441 
Q 2309 441 2620 675 
Q 2931 909 2931 1356 
Q 2931 1769 2642 2001 
Q 2353 2234 1838 2234 
L 1294 2234 
L 1294 2753 
L 1863 2753 
Q 2328 2753 2575 2939 
Q 2822 3125 2822 3475 
Q 2822 3834 2567 4026 
Q 2313 4219 1838 4219 
Q 1578 4219 1281 4162 
Q 984 4106 628 3988 
L 628 4550 
Q 988 4650 1302 4700 
Q 1616 4750 1894 4750 
Q 2613 4750 3031 4423 
Q 3450 4097 3450 3541 
Q 3450 3153 3228 2886 
Q 3006 2619 2597 2516 
z
" transform="scale(0.015625)"/>
       </defs>
       <use xlink:href="#DejaVuSans-31"/>
       <use xlink:href="#DejaVuSans-33" transform="translate(63.623047 0)"/>
       <use xlink:href="#DejaVuSans-35" transform="translate(127.246094 0)"/>
       <use xlink:href="#DejaVuSans-b0" transform="translate(190.869141 0)"/>
      </g>
     </g>
    </g>
    <g id="xtick_5">
     <g id="line2d_5">
      <path d="M 166.29975 159.095062 
L 33.24375 159.095062 
" clip-path="url(#p14df50127b)" style="fill: none; stroke: #b0b0b0; stroke-width: 0.8; stroke-linecap: square"/>
     </g>
     <g id="text_5">
      <!-- 180° -->
      <g transform="translate(7.2 161.854437) scale(0.1 -0.1)">
       <defs>
        <path id="DejaVuSans-38" d="M 2034 2216 
Q 1584 2216 1326 1975 
Q 1069 1734 1069 1313 
Q 1069 891 1326 650 
Q 1584 409 2034 409 
Q 2484 409 2743 651 
Q 3003 894 3003 1313 
Q 3003 1734 2745 1975 
Q 2488 2216 2034 2216 
z
M 1403 2484 
Q 997 2584 770 2862 
Q 544 3141 544 3541 
Q 544 4100 942 4425 
Q 1341 4750 2034 4750 
Q 2731 4750 3128 4425 
Q 3525 4100 3525 3541 
Q 3525 3141 3298 2862 
Q 3072 2584 2669 2484 
Q 3125 2378 3379 2068 
Q 3634 1759 3634 1313 
Q 3634 634 3220 271 
Q 2806 -91 2034 -91 
Q 1263 -91 848 271 
Q 434 634 434 1313 
Q 434 1759 690 2068 
Q 947 2378 1403 2484 
z
M 1172 3481 
Q 1172 3119 1398 2916 
Q 1625 2713 2034 2713 
Q 2441 2713 2670 2916 
Q 2900 3119 2900 3481 
Q 2900 3844 2670 4047 
Q 2441 4250 2034 4250 
Q 1625 4250 1398 4047 
Q 1172 3844 1172 3481 
z
" transform="scale(0.015625)"/>
       </defs>
       <use xlink:href="#DejaVuSans-31"/>
       <use xlink:href="#DejaVuSans-38" transform="translate(63.623047 0)"/>
       <use xlink:href="#DejaVuSans-30" transform="translate(127.246094 0)"/>
       <use xlink:href="#DejaVuSans-b0" transform="translate(190.869141 0)"/>
      </g>
     </g>
    </g>
    <g id="xtick_6">
     <g id="line2d_6">
      <path d="M 166.29975 159.095062 
L 72.21495 253.179862 
" clip-path="url(#p14df50127b)" style="fill: none; stroke: #b0b0b0; stroke-width: 0.8; stroke-linecap: square"/>
     </g>
     <g id="text_6">
      <!-- 225° -->
      <g transform="translate(50.271705 265.838732) scale(0.1 -0.1)">
       <defs>
        <path id="DejaVuSans-32" d="M 1228 531 
L 3431 531 
L 3431 0 
L 469 0 
L 469 531 
Q 828 903 1448 1529 
Q 2069 2156 2228 2338 
Q 2531 2678 2651 2914 
Q 2772 3150 2772 3378 
Q 2772 3750 2511 3984 
Q 2250 4219 1831 4219 
Q 1534 4219 1204 4116 
Q 875 4013 500 3803 
L 500 4441 
Q 881 4594 1212 4672 
Q 1544 4750 1819 4750 
Q 2544 4750 2975 4387 
Q 3406 4025 3406 3419 
Q 3406 3131 3298 2873 
Q 3191 2616 2906 2266 
Q 2828 2175 2409 1742 
Q 1991 1309 1228 531 
z
" transform="scale(0.015625)"/>
       </defs>
       <use xlink:href="#DejaVuSans-32"/>
       <use xlink:href="#DejaVuSans-32" transform="translate(63.623047 0)"/>
       <use xlink:href="#DejaVuSans-35" transform="translate(127.246094 0)"/>
       <use xlink:href="#DejaVuSans-b0" transform="translate(190.869141 0)"/>
      </g>
     </g>
    </g>
    <g id="xtick_7">
     <g id="line2d_7">
      <path d="M 166.29975 159.095062 
L 166.29975 292.151062 
" clip-path="url(#p14df50127b)" style="fill: none; stroke: #b0b0b0; stroke-width: 0.8; stroke-linecap: square"/>
     </g>
     <g id="text_7">
      <!-- 270° -->
      <g transform="translate(154.256 308.910437) scale(0.1 -0.1)">
       <defs>
        <path id="DejaVuSans-37" d="M 525 4666 
L 3525 4666 
L 3525 4397 
L 1831 0 
L 1172 0 
L 2766 4134 
L 525 4134 
L 525 4666 
z
" transform="scale(0.015625)"/>
       </defs>
       <use xlink:href="#DejaVuSans-32"/>
       <use xlink:href="#DejaVuSans-37" transform="translate(63.623047 0)"/>
       <use xlink:href="#DejaVuSans-30" transform="translate(127.246094 0)"/>
       <use xlink:href="#DejaVuSans-b0" transform="translate(190.869141 0)"/>
      </g>
     </g>
    </g>
    <g id="xtick_8">
     <g id="line2d_8">
      <path d="M 166.29975 159.095062 
L 260.38455 253.179862 
" clip-path="url(#p14df50127b)" style="fill: none; stroke: #b0b0b0; stroke-width: 0.8; stroke-linecap: square"/>
     </g>
     <g id="text_8">
      <!-- 315° -->
      <g transform="translate(258.240295 265.838732) scale(0.1 -0.1)">
       <use xlink:href="#DejaVuSans-33"/>
       <use xlink:href="#DejaVuSans-31" transform="translate(63.623047 0)"/>
       <use xlink:href="#DejaVuSans-35" transform="translate(127.246094 0)"/>
       <use xlink:href="#DejaVuSans-b0" transform="translate(190.869141 0)"/>
      </g>
     </g>
    </g>
    <g id="text_9">
     <!-- theta [rad] -->
     <g transform="translate(139.285688 322.588562) scale(0.1 -0.1)">
      <defs>
       <path id="DejaVuSans-74" d="M 1172 4494 
L 1172 3500 
L 2356 3500 
L 2356 3053 
L 1172 3053 
L 1172 1153 
Q 1172 725 1289 603 
Q 1406 481 1766 481 
L 2356 481 
L 2356 0 
L 1766 0 
Q 1100 0 847 248 
Q 594 497 594 1153 
L 594 3053 
L 172 3053 
L 172 3500 
L 594 3500 
L 594 4494 
L 1172 4494 
z
" transform="scale(0.015625)"/>
       <path id="DejaVuSans-68" d="M 3513 2113 
L 3513 0 
L 2938 0 
L 2938 2094 
Q 2938 2591 2744 2837 
Q 2550 3084 2163 3084 
Q 1697 3084 1428 2787 
Q 1159 2491 1159 1978 
L 1159 0 
L 581 0 
L 581 4863 
L 1159 4863 
L 1159 2956 
Q 1366 3272 1645 3428 
Q 1925 3584 2291 3584 
Q 2894 3584 3203 3211 
Q 3513 2838 3513 2113 
z
" transform="scale(0.015625)"/>
       <path id="DejaVuSans-65" d="M 3597 1894 
L 3597 1613 
L 953 1613 
Q 991 1019 1311 708 
Q 1631 397 2203 397 
Q 2534 397 2845 478 
Q 3156 559 3463 722 
L 3463 178 
Q 3153 47 2828 -22 
Q 2503 -91 2169 -91 
Q 1331 -91 842 396 
Q 353 884 353 1716 
Q 353 2575 817 3079 
Q 1281 3584 2069 3584 
Q 2775 3584 3186 3129 
Q 3597 2675 3597 1894 
z
M 3022 2063 
Q 3016 2534 2758 2815 
Q 2500 3097 2075 3097 
Q 1594 3097 1305 2825 
Q 1016 2553 972 2059 
L 3022 2063 
z
" transform="scale(0.015625)"/>
       <path id="DejaVuSans-61" d="M 2194 1759 
Q 1497 1759 1228 1600 
Q 959 1441 959 1056 
Q 959 750 1161 570 
Q 1363 391 1709 391 
Q 2188 391 2477 730 
Q 2766 1069 2766 1631 
L 2766 1759 
L 2194 1759 
z
M 3341 1997 
L 3341 0 
L 2766 0 
L 2766 531 
Q 2569 213 2275 61 
Q 1981 -91 1556 -91 
Q 1019 -91 701 211 
Q 384 513 384 1019 
Q 384 1609 779 1909 
Q 1175 2209 1959 2209 
L 2766 2209 
L 2766 2266 
Q 2766 2663 2505 2880 
Q 2244 3097 1772 3097 
Q 1472 3097 1187 3025 
Q 903 2953 641 2809 
L 641 3341 
Q 956 3463 1253 3523 
Q 1550 3584 1831 3584 
Q 2591 3584 2966 3190 
Q 3341 2797 3341 1997 
z
" transform="scale(0.015625)"/>
       <path id="DejaVuSans-20" transform="scale(0.015625)"/>
       <path id="DejaVuSans-5b" d="M 550 4863 
L 1875 4863 
L 1875 4416 
L 1125 4416 
L 1125 -397 
L 1875 -397 
L 1875 -844 
L 550 -844 
L 550 4863 
z
" transform="scale(0.015625)"/>
       <path id="DejaVuSans-72" d="M 2631 2963 
Q 2534 3019 2420 3045 
Q 2306 3072 2169 3072 
Q 1681 3072 1420 2755 
Q 1159 2438 1159 1844 
L 1159 0 
L 581 0 
L 581 3500 
L 1159 3500 
L 1159 2956 
Q 1341 3275 1631 3429 
Q 1922 3584 2338 3584 
Q 2397 3584 2469 3576 
Q 2541 3569 2628 3553 
L 2631 2963 
z
" transform="scale(0.015625)"/>
       <path id="DejaVuSans-64" d="M 2906 2969 
L 2906 4863 
L 3481 4863 
L 3481 0 
L 2906 0 
L 2906 525 
Q 2725 213 2448 61 
Q 2172 -91 1784 -91 
Q 1150 -91 751 415 
Q 353 922 353 1747 
Q 353 2572 751 3078 
Q 1150 3584 1784 3584 
Q 2172 3584 2448 3432 
Q 2725 3281 2906 2969 
z
M 947 1747 
Q 947 1113 1208 752 
Q 1469 391 1925 391 
Q 2381 391 2643 752 
Q 2906 1113 2906 1747 
Q 2906 2381 2643 2742 
Q 2381 3103 1925 3103 
Q 1469 3103 1208 2742 
Q 947 2381 947 1747 
z
" transform="scale(0.015625)"/>
       <path id="DejaVuSans-5d" d="M 1947 4863 
L 1947 -844 
L 622 -844 
L 622 -397 
L 1369 -397 
L 1369 4416 
L 622 4416 
L 622 4863 
L 1947 4863 
z
" transform="scale(0.015625)"/>
      </defs>
      <use xlink:href="#DejaVuSans-74"/>
      <use xlink:href="#DejaVuSans-68" transform="translate(39.208984 0)"/>
      <use xlink:href="#DejaVuSans-65" transform="translate(102.587891 0)"/>
      <use xlink:href="#DejaVuSans-74" transform="translate(164.111328 0)"/>
      <use xlink:href="#DejaVuSans-61" transform="translate(203.320312 0)"/>
      <use xlink:href="#DejaVuSans-20" transform="translate(264.599609 0)"/>
      <use xlink:href="#DejaVuSans-5b" transform="translate(296.386719 0)"/>
      <use xlink:href="#DejaVuSans-72" transform="translate(335.400391 0)"/>
      <use xlink:href="#DejaVuSans-61" transform="translate(376.513672 0)"/>
      <use xlink:href="#DejaVuSans-64" transform="translate(437.792969 0)"/>
      <use xlink:href="#DejaVuSans-5d" transform="translate(501.269531 0)"/>
     </g>
    </g>
   </g>
   <g id="matplotlib.axis_2">
    <g id="ytick_1">
     <g id="line2d_9">
      <path d="M 172.34775 159.095062 
C 172.34775 158.300846 172.191307 157.514353 171.887373 156.780593 
C 171.58344 156.046833 171.137927 155.380076 170.576332 154.818481 
C 170.014736 154.256885 169.347979 153.811372 168.614219 153.507439 
C 167.880459 153.203506 167.093966 153.047062 166.29975 153.047062 
C 165.505534 153.047062 164.719041 153.203506 163.985281 153.507439 
C 163.251521 153.811372 162.584764 154.256885 162.023168 154.818481 
C 161.461573 155.380076 161.01606 156.046833 160.712127 156.780593 
C 160.408193 157.514353 160.25175 158.300846 160.25175 159.095062 
C 160.25175 159.889279 160.408193 160.675772 160.712127 161.409532 
C 161.01606 162.143292 161.461573 162.810049 162.023168 163.371644 
C 162.584764 163.93324 163.251521 164.378753 163.985281 164.682686 
C 164.719041 164.986619 165.505534 165.143062 166.29975 165.143062 
C 167.093966 165.143062 167.880459 164.986619 168.614219 164.682686 
C 169.347979 164.378753 170.014736 163.93324 170.576332 163.371644 
C 171.137927 162.810049 171.58344 162.143292 171.887373 161.409532 
C 172.191307 160.675772 172.34775 159.889279 172.34775 159.095062 
" clip-path="url(#p14df50127b)" style="fill: none; stroke: #b0b0b0; stroke-width: 0.8; stroke-linecap: square"/>
     </g>
     <g id="text_10">
      <!-- 0 -->
      <g transform="translate(171.887373 154.700906) scale(0.1 -0.1)">
       <use xlink:href="#DejaVuSans-30"/>
      </g>
     </g>
    </g>
    <g id="ytick_2">
     <g id="line2d_10">
      <path d="M 196.53975 159.095062 
C 196.53975 155.123982 195.757534 151.191515 194.237867 147.522716 
C 192.7182 143.853916 190.490637 140.520131 187.682659 137.712153 
C 184.874681 134.904176 181.540897 132.676612 177.872097 131.156945 
C 174.203297 129.637279 170.27083 128.855062 166.29975 128.855062 
C 162.32867 128.855062 158.396203 129.637279 154.727403 131.156945 
C 151.058603 132.676612 147.724819 134.904176 144.916841 137.712153 
C 142.108863 140.520131 139.8813 143.853916 138.361633 147.522716 
C 136.841966 151.191515 136.05975 155.123982 136.05975 159.095062 
C 136.05975 163.066143 136.841966 166.99861 138.361633 170.667409 
C 139.8813 174.336209 142.108863 177.669994 144.916841 180.477972 
C 147.724819 183.285949 151.058603 185.513513 154.727403 187.03318 
C 158.396203 188.552846 162.32867 189.335062 166.29975 189.335062 
C 170.27083 189.335062 174.203297 188.552846 177.872097 187.03318 
C 181.540897 185.513513 184.874681 183.285949 187.682659 180.477972 
C 190.490637 177.669994 192.7182 174.336209 194.237867 170.667409 
C 195.757534 166.99861 196.53975 163.066143 196.53975 159.095062 
" clip-path="url(#p14df50127b)" style="fill: none; stroke: #b0b0b0; stroke-width: 0.8; stroke-linecap: square"/>
     </g>
     <g id="text_11">
      <!-- 2 -->
      <g transform="translate(194.237867 145.443028) scale(0.1 -0.1)">
       <use xlink:href="#DejaVuSans-32"/>
      </g>
     </g>
    </g>
    <g id="ytick_3">
     <g id="line2d_11">
      <path d="M 220.73175 159.095062 
C 220.73175 151.947118 219.323761 144.868678 216.588361 138.264838 
C 213.852961 131.660998 209.843347 125.660186 204.788986 120.605826 
C 199.734626 115.551466 193.733814 111.541852 187.129975 108.806452 
C 180.526135 106.071052 173.447695 104.663062 166.29975 104.663062 
C 159.151805 104.663062 152.073365 106.071052 145.469525 108.806452 
C 138.865686 111.541852 132.864874 115.551466 127.810514 120.605826 
C 122.756153 125.660186 118.746539 131.660998 116.011139 138.264838 
C 113.275739 144.868678 111.86775 151.947118 111.86775 159.095062 
C 111.86775 166.243007 113.275739 173.321447 116.011139 179.925287 
C 118.746539 186.529127 122.756153 192.529939 127.810514 197.584299 
C 132.864874 202.638659 138.865686 206.648273 145.469525 209.383673 
C 152.073365 212.119073 159.151805 213.527062 166.29975 213.527062 
C 173.447695 213.527062 180.526135 212.119073 187.129975 209.383673 
C 193.733814 206.648273 199.734626 202.638659 204.788986 197.584299 
C 209.843347 192.529939 213.852961 186.529127 216.588361 179.925287 
C 219.323761 173.321447 220.73175 166.243007 220.73175 159.095062 
" clip-path="url(#p14df50127b)" style="fill: none; stroke: #b0b0b0; stroke-width: 0.8; stroke-linecap: square"/>
     </g>
     <g id="text_12">
      <!-- 4 -->
      <g transform="translate(216.588361 136.18515) scale(0.1 -0.1)">
       <use xlink:href="#DejaVuSans-34"/>
      </g>
     </g>
    </g>
    <g id="ytick_4">
     <g id="line2d_12">
      <path d="M 244.92375 159.095062 
C 244.92375 148.770253 242.889988 138.54584 238.938854 129.00696 
C 234.987721 119.468081 229.196056 110.800241 221.895314 103.499499 
C 214.594571 96.198756 205.926732 90.407092 196.387852 86.455958 
C 186.848972 82.504825 176.624559 80.471062 166.29975 80.471062 
C 155.974941 80.471062 145.750528 82.504825 136.211648 86.455958 
C 126.672768 90.407092 118.004929 96.198756 110.704186 103.499499 
C 103.403444 110.800241 97.611779 119.468081 93.660646 129.00696 
C 89.709512 138.54584 87.67575 148.770253 87.67575 159.095062 
C 87.67575 169.419872 89.709512 179.644285 93.660646 189.183165 
C 97.611779 198.722044 103.403444 207.389884 110.704186 214.690626 
C 118.004929 221.991369 126.672768 227.783033 136.211648 231.734167 
C 145.750528 235.6853 155.974941 237.719062 166.29975 237.719062 
C 176.624559 237.719062 186.848972 235.6853 196.387852 231.734167 
C 205.926732 227.783033 214.594571 221.991369 221.895314 214.690626 
C 229.196056 207.389884 234.987721 198.722044 238.938854 189.183165 
C 242.889988 179.644285 244.92375 169.419872 244.92375 159.095062 
" clip-path="url(#p14df50127b)" style="fill: none; stroke: #b0b0b0; stroke-width: 0.8; stroke-linecap: square"/>
     </g>
     <g id="text_13">
      <!-- 6 -->
      <g transform="translate(238.938854 126.927273) scale(0.1 -0.1)">
       <defs>
        <path id="DejaVuSans-36" d="M 2113 2584 
Q 1688 2584 1439 2293 
Q 1191 2003 1191 1497 
Q 1191 994 1439 701 
Q 1688 409 2113 409 
Q 2538 409 2786 701 
Q 3034 994 3034 1497 
Q 3034 2003 2786 2293 
Q 2538 2584 2113 2584 
z
M 3366 4563 
L 3366 3988 
Q 3128 4100 2886 4159 
Q 2644 4219 2406 4219 
Q 1781 4219 1451 3797 
Q 1122 3375 1075 2522 
Q 1259 2794 1537 2939 
Q 1816 3084 2150 3084 
Q 2853 3084 3261 2657 
Q 3669 2231 3669 1497 
Q 3669 778 3244 343 
Q 2819 -91 2113 -91 
Q 1303 -91 875 529 
Q 447 1150 447 2328 
Q 447 3434 972 4092 
Q 1497 4750 2381 4750 
Q 2619 4750 2861 4703 
Q 3103 4656 3366 4563 
z
" transform="scale(0.015625)"/>
       </defs>
       <use xlink:href="#DejaVuSans-36"/>
      </g>
     </g>
    </g>
    <g id="ytick_5">
     <g id="line2d_13">
      <path d="M 269.11575 159.095062 
C 269.11575 145.593389 266.456215 132.223002 261.289348 119.749083 
C 256.122481 107.275163 248.548766 95.940297 239.001641 86.393172 
C 229.454516 76.846047 218.11965 69.272331 205.64573 64.105464 
C 193.17181 58.938598 179.801423 56.279062 166.29975 56.279062 
C 152.798077 56.279062 139.42769 58.938598 126.95377 64.105464 
C 114.47985 69.272331 103.144984 76.846047 93.597859 86.393172 
C 84.050734 95.940297 76.477019 107.275163 71.310152 119.749083 
C 66.143285 132.223002 63.48375 145.593389 63.48375 159.095062 
C 63.48375 172.596736 66.143285 185.967123 71.310152 198.441042 
C 76.477019 210.914962 84.050734 222.249828 93.597859 231.796953 
C 103.144984 241.344078 114.47985 248.917794 126.95377 254.084661 
C 139.42769 259.251527 152.798077 261.911062 166.29975 261.911062 
C 179.801423 261.911062 193.17181 259.251527 205.64573 254.084661 
C 218.11965 248.917794 229.454516 241.344078 239.001641 231.796953 
C 248.548766 222.249828 256.122481 210.914962 261.289348 198.441042 
C 266.456215 185.967123 269.11575 172.596736 269.11575 159.095062 
" clip-path="url(#p14df50127b)" style="fill: none; stroke: #b0b0b0; stroke-width: 0.8; stroke-linecap: square"/>
     </g>
     <g id="text_14">
      <!-- 8 -->
      <g transform="translate(261.289348 117.669395) scale(0.1 -0.1)">
       <use xlink:href="#DejaVuSans-38"/>
      </g>
     </g>
    </g>
    <g id="ytick_6">
     <g id="line2d_14">
      <path d="M 293.30775 159.095062 
C 293.30775 142.416525 290.022442 125.900165 283.639842 110.491205 
C 277.257242 95.082245 267.901475 81.080352 256.107968 69.286844 
C 244.314461 57.493337 230.312567 48.137571 214.903607 41.754971 
C 199.494648 35.372371 182.978288 32.087062 166.29975 32.087062 
C 149.621212 32.087062 133.104852 35.372371 117.695893 41.754971 
C 102.286933 48.137571 88.285039 57.493337 76.491532 69.286844 
C 64.698025 81.080352 55.342258 95.082245 48.959658 110.491205 
C 42.577058 125.900165 39.29175 142.416525 39.29175 159.095062 
C 39.29175 175.7736 42.577058 192.28996 48.959658 207.69892 
C 55.342258 223.10788 64.698025 237.109773 76.491532 248.903281 
C 88.285039 260.696788 102.286933 270.052554 117.695893 276.435154 
C 133.104852 282.817754 149.621212 286.103062 166.29975 286.103062 
C 182.978288 286.103062 199.494648 282.817754 214.903607 276.435154 
C 230.312567 270.052554 244.314461 260.696788 256.107968 248.903281 
C 267.901475 237.109773 277.257242 223.10788 283.639842 207.69892 
C 290.022442 192.28996 293.30775 175.7736 293.30775 159.095062 
" clip-path="url(#p14df50127b)" style="fill: none; stroke: #b0b0b0; stroke-width: 0.8; stroke-linecap: square"/>
     </g>
     <g id="text_15">
      <!-- 10 -->
      <g transform="translate(283.639842 108.411518) scale(0.1 -0.1)">
       <use xlink:href="#DejaVuSans-31"/>
       <use xlink:href="#DejaVuSans-30" transform="translate(63.623047 0)"/>
      </g>
     </g>
    </g>
    <g id="text_16">
     <!-- [m] -->
     <g transform="translate(27.164063 167.866937) rotate(-90) scale(0.1 -0.1)">
      <defs>
       <path id="DejaVuSans-6d" d="M 3328 2828 
Q 3544 3216 3844 3400 
Q 4144 3584 4550 3584 
Q 5097 3584 5394 3201 
Q 5691 2819 5691 2113 
L 5691 0 
L 5113 0 
L 5113 2094 
Q 5113 2597 4934 2840 
Q 4756 3084 4391 3084 
Q 3944 3084 3684 2787 
Q 3425 2491 3425 1978 
L 3425 0 
L 2847 0 
L 2847 2094 
Q 2847 2600 2669 2842 
Q 2491 3084 2119 3084 
Q 1678 3084 1418 2786 
Q 1159 2488 1159 1978 
L 1159 0 
L 581 0 
L 581 3500 
L 1159 3500 
L 1159 2956 
Q 1356 3278 1631 3431 
Q 1906 3584 2284 3584 
Q 2666 3584 2933 3390 
Q 3200 3197 3328 2828 
z
" transform="scale(0.015625)"/>
      </defs>
      <use xlink:href="#DejaVuSans-5b"/>
      <use xlink:href="#DejaVuSans-6d" transform="translate(39.013672 0)"/>
      <use xlink:href="#DejaVuSans-5d" transform="translate(136.425781 0)"/>
     </g>
    </g>
   </g>
   <g id="line2d_15">
    <defs>
     <path id="m5068b818c3" d="M 0 3 
C 0.795609 3 1.55874 2.683901 2.12132 2.12132 
C 2.683901 1.55874 3 0.795609 3 0 
C 3 -0.795609 2.683901 -1.55874 2.12132 -2.12132 
C 1.55874 -2.683901 0.795609 -3 0 -3 
C -0.795609 -3 -1.55874 -2.683901 -2.12132 -2.12132 
C -2.683901 -1.55874 -3 -0.795609 -3 0 
C -3 0.795609 -2.683901 1.55874 -2.12132 2.12132 
C -1.55874 2.683901 -0.795609 3 0 3 
z
" style="stroke: #1f77b4"/>
    </defs>
    <g clip-path="url(#p14df50127b)">
     <use xlink:href="#m5068b818c3" x="166.29975" y="159.095062" style="fill: #1f77b4; stroke: #1f77b4"/>
     <use xlink:href="#m5068b818c3" x="167.108931" y="159.029752" style="fill: #1f77b4; stroke: #1f77b4"/>
     <use xlink:href="#m5068b818c3" x="167.902357" y="158.834669" style="fill: #1f77b4; stroke: #1f77b4"/>
     <use xlink:href="#m5068b818c3" x="168.664446" y="158.512343" style="fill: #1f77b4; stroke: #1f77b4"/>
     <use xlink:href="#m5068b818c3" x="169.379952" y="158.066969" style="fill: #1f77b4; stroke: #1f77b4"/>
     <use xlink:href="#m5068b818c3" x="170.034135" y="157.504359" style="fill: #1f77b4; stroke: #1f77b4"/>
     <use xlink:href="#m5068b818c3" x="170.612921" y="156.831889" style="fill: #1f77b4; stroke: #1f77b4"/>
     <use xlink:href="#m5068b818c3" x="171.103055" y="156.058425" style="fill: #1f77b4; stroke: #1f77b4"/>
     <use xlink:href="#m5068b818c3" x="171.492251" y="155.194239" style="fill: #1f77b4; stroke: #1f77b4"/>
     <use xlink:href="#m5068b818c3" x="171.769331" y="154.250908" style="fill: #1f77b4; stroke: #1f77b4"/>
     <use xlink:href="#m5068b818c3" x="171.92435" y="153.241196" style="fill: #1f77b4; stroke: #1f77b4"/>
     <use xlink:href="#m5068b818c3" x="171.948719" y="152.178933" style="fill: #1f77b4; stroke: #1f77b4"/>
     <use xlink:href="#m5068b818c3" x="171.835303" y="151.078876" style="fill: #1f77b4; stroke: #1f77b4"/>
     <use xlink:href="#m5068b818c3" x="171.578518" y="149.956563" style="fill: #1f77b4; stroke: #1f77b4"/>
     <use xlink:href="#m5068b818c3" x="171.174406" y="148.828157" style="fill: #1f77b4; stroke: #1f77b4"/>
     <use xlink:href="#m5068b818c3" x="170.620698" y="147.710285" style="fill: #1f77b4; stroke: #1f77b4"/>
     <use xlink:href="#m5068b818c3" x="169.916857" y="146.619868" style="fill: #1f77b4; stroke: #1f77b4"/>
     <use xlink:href="#m5068b818c3" x="169.064115" y="145.573949" style="fill: #1f77b4; stroke: #1f77b4"/>
     <use xlink:href="#m5068b818c3" x="168.065479" y="144.589519" style="fill: #1f77b4; stroke: #1f77b4"/>
     <use xlink:href="#m5068b818c3" x="166.925733" y="143.683341" style="fill: #1f77b4; stroke: #1f77b4"/>
     <use xlink:href="#m5068b818c3" x="165.651416" y="142.87177" style="fill: #1f77b4; stroke: #1f77b4"/>
     <use xlink:href="#m5068b818c3" x="164.250785" y="142.170587" style="fill: #1f77b4; stroke: #1f77b4"/>
     <use xlink:href="#m5068b818c3" x="162.733765" y="141.594818" style="fill: #1f77b4; stroke: #1f77b4"/>
     <use xlink:href="#m5068b818c3" x="161.111871" y="141.158578" style="fill: #1f77b4; stroke: #1f77b4"/>
     <use xlink:href="#m5068b818c3" x="159.398131" y="140.874908" style="fill: #1f77b4; stroke: #1f77b4"/>
     <use xlink:href="#m5068b818c3" x="157.606982" y="140.755622" style="fill: #1f77b4; stroke: #1f77b4"/>
     <use xlink:href="#m5068b818c3" x="155.754152" y="140.811173" style="fill: #1f77b4; stroke: #1f77b4"/>
     <use xlink:href="#m5068b818c3" x="153.856538" y="141.050512" style="fill: #1f77b4; stroke: #1f77b4"/>
     <use xlink:href="#m5068b818c3" x="151.932057" y="141.480981" style="fill: #1f77b4; stroke: #1f77b4"/>
     <use xlink:href="#m5068b818c3" x="149.999499" y="142.1082" style="fill: #1f77b4; stroke: #1f77b4"/>
     <use xlink:href="#m5068b818c3" x="148.078363" y="142.935977" style="fill: #1f77b4; stroke: #1f77b4"/>
     <use xlink:href="#m5068b818c3" x="146.188685" y="143.966236" style="fill: #1f77b4; stroke: #1f77b4"/>
     <use xlink:href="#m5068b818c3" x="144.350856" y="145.198953" style="fill: #1f77b4; stroke: #1f77b4"/>
     <use xlink:href="#m5068b818c3" x="142.585445" y="146.632116" style="fill: #1f77b4; stroke: #1f77b4"/>
     <use xlink:href="#m5068b818c3" x="140.912999" y="148.261697" style="fill: #1f77b4; stroke: #1f77b4"/>
     <use xlink:href="#m5068b818c3" x="139.353861" y="150.081647" style="fill: #1f77b4; stroke: #1f77b4"/>
     <use xlink:href="#m5068b818c3" x="137.927969" y="152.083902" style="fill: #1f77b4; stroke: #1f77b4"/>
     <use xlink:href="#m5068b818c3" x="136.654666" y="154.258413" style="fill: #1f77b4; stroke: #1f77b4"/>
     <use xlink:href="#m5068b818c3" x="135.55251" y="156.593195" style="fill: #1f77b4; stroke: #1f77b4"/>
     <use xlink:href="#m5068b818c3" x="134.639086" y="159.074386" style="fill: #1f77b4; stroke: #1f77b4"/>
     <use xlink:href="#m5068b818c3" x="133.930822" y="161.686332" style="fill: #1f77b4; stroke: #1f77b4"/>
     <use xlink:href="#m5068b818c3" x="133.44282" y="164.411682" style="fill: #1f77b4; stroke: #1f77b4"/>
     <use xlink:href="#m5068b818c3" x="133.188683" y="167.23151" style="fill: #1f77b4; stroke: #1f77b4"/>
     <use xlink:href="#m5068b818c3" x="133.180365" y="170.125439" style="fill: #1f77b4; stroke: #1f77b4"/>
     <use xlink:href="#m5068b818c3" x="133.428025" y="173.071789" style="fill: #1f77b4; stroke: #1f77b4"/>
     <use xlink:href="#m5068b818c3" x="133.939891" y="176.047738" style="fill: #1f77b4; stroke: #1f77b4"/>
     <use xlink:href="#m5068b818c3" x="134.722152" y="179.029493" style="fill: #1f77b4; stroke: #1f77b4"/>
     <use xlink:href="#m5068b818c3" x="135.778847" y="181.992471" style="fill: #1f77b4; stroke: #1f77b4"/>
     <use xlink:href="#m5068b818c3" x="137.111787" y="184.911498" style="fill: #1f77b4; stroke: #1f77b4"/>
     <use xlink:href="#m5068b818c3" x="138.720482" y="187.761005" style="fill: #1f77b4; stroke: #1f77b4"/>
     <use xlink:href="#m5068b818c3" x="140.602095" y="190.515241" style="fill: #1f77b4; stroke: #1f77b4"/>
     <use xlink:href="#m5068b818c3" x="142.751407" y="193.148485" style="fill: #1f77b4; stroke: #1f77b4"/>
     <use xlink:href="#m5068b818c3" x="145.160811" y="195.635264" style="fill: #1f77b4; stroke: #1f77b4"/>
     <use xlink:href="#m5068b818c3" x="147.820316" y="197.950572" style="fill: #1f77b4; stroke: #1f77b4"/>
     <use xlink:href="#m5068b818c3" x="150.717576" y="200.070093" style="fill: #1f77b4; stroke: #1f77b4"/>
     <use xlink:href="#m5068b818c3" x="153.837941" y="201.970415" style="fill: #1f77b4; stroke: #1f77b4"/>
     <use xlink:href="#m5068b818c3" x="157.164522" y="203.629245" style="fill: #1f77b4; stroke: #1f77b4"/>
     <use xlink:href="#m5068b818c3" x="160.67828" y="205.025622" style="fill: #1f77b4; stroke: #1f77b4"/>
     <use xlink:href="#m5068b818c3" x="164.358133" y="206.140114" style="fill: #1f77b4; stroke: #1f77b4"/>
     <use xlink:href="#m5068b818c3" x="168.181082" y="206.955013" style="fill: #1f77b4; stroke: #1f77b4"/>
     <use xlink:href="#m5068b818c3" x="172.122354" y="207.45452" style="fill: #1f77b4; stroke: #1f77b4"/>
     <use xlink:href="#m5068b818c3" x="176.155564" y="207.624914" style="fill: #1f77b4; stroke: #1f77b4"/>
     <use xlink:href="#m5068b818c3" x="180.252889" y="207.454707" style="fill: #1f77b4; stroke: #1f77b4"/>
     <use xlink:href="#m5068b818c3" x="184.385262" y="206.93479" style="fill: #1f77b4; stroke: #1f77b4"/>
     <use xlink:href="#m5068b818c3" x="188.522572" y="206.058552" style="fill: #1f77b4; stroke: #1f77b4"/>
     <use xlink:href="#m5068b818c3" x="192.633888" y="204.821995" style="fill: #1f77b4; stroke: #1f77b4"/>
     <use xlink:href="#m5068b818c3" x="196.687679" y="203.223817" style="fill: #1f77b4; stroke: #1f77b4"/>
     <use xlink:href="#m5068b818c3" x="200.652055" y="201.265485" style="fill: #1f77b4; stroke: #1f77b4"/>
     <use xlink:href="#m5068b818c3" x="204.495008" y="198.951278" style="fill: #1f77b4; stroke: #1f77b4"/>
     <use xlink:href="#m5068b818c3" x="208.184659" y="196.288319" style="fill: #1f77b4; stroke: #1f77b4"/>
     <use xlink:href="#m5068b818c3" x="211.689514" y="193.286578" style="fill: #1f77b4; stroke: #1f77b4"/>
     <use xlink:href="#m5068b818c3" x="214.978713" y="189.958851" style="fill: #1f77b4; stroke: #1f77b4"/>
     <use xlink:href="#m5068b818c3" x="218.022284" y="186.320729" style="fill: #1f77b4; stroke: #1f77b4"/>
     <use xlink:href="#m5068b818c3" x="220.791396" y="182.390526" style="fill: #1f77b4; stroke: #1f77b4"/>
     <use xlink:href="#m5068b818c3" x="223.258601" y="178.1892" style="fill: #1f77b4; stroke: #1f77b4"/>
     <use xlink:href="#m5068b818c3" x="225.398076" y="173.740245" style="fill: #1f77b4; stroke: #1f77b4"/>
     <use xlink:href="#m5068b818c3" x="227.185854" y="169.069566" style="fill: #1f77b4; stroke: #1f77b4"/>
     <use xlink:href="#m5068b818c3" x="228.600044" y="164.205322" style="fill: #1f77b4; stroke: #1f77b4"/>
     <use xlink:href="#m5068b818c3" x="229.621038" y="159.177767" style="fill: #1f77b4; stroke: #1f77b4"/>
     <use xlink:href="#m5068b818c3" x="230.231711" y="154.019056" style="fill: #1f77b4; stroke: #1f77b4"/>
     <use xlink:href="#m5068b818c3" x="230.417595" y="148.76304" style="fill: #1f77b4; stroke: #1f77b4"/>
     <use xlink:href="#m5068b818c3" x="230.167042" y="143.445047" style="fill: #1f77b4; stroke: #1f77b4"/>
     <use xlink:href="#m5068b818c3" x="229.47137" y="138.101641" style="fill: #1f77b4; stroke: #1f77b4"/>
     <use xlink:href="#m5068b818c3" x="228.324982" y="132.770374" style="fill: #1f77b4; stroke: #1f77b4"/>
     <use xlink:href="#m5068b818c3" x="226.725473" y="127.489523" style="fill: #1f77b4; stroke: #1f77b4"/>
     <use xlink:href="#m5068b818c3" x="224.673703" y="122.297816" style="fill: #1f77b4; stroke: #1f77b4"/>
     <use xlink:href="#m5068b818c3" x="222.173858" y="117.234157" style="fill: #1f77b4; stroke: #1f77b4"/>
     <use xlink:href="#m5068b818c3" x="219.23348" y="112.337332" style="fill: #1f77b4; stroke: #1f77b4"/>
     <use xlink:href="#m5068b818c3" x="215.863473" y="107.645726" style="fill: #1f77b4; stroke: #1f77b4"/>
     <use xlink:href="#m5068b818c3" x="212.078091" y="103.197028" style="fill: #1f77b4; stroke: #1f77b4"/>
     <use xlink:href="#m5068b818c3" x="207.894886" y="99.027938" style="fill: #1f77b4; stroke: #1f77b4"/>
     <use xlink:href="#m5068b818c3" x="203.334646" y="95.173882" style="fill: #1f77b4; stroke: #1f77b4"/>
     <use xlink:href="#m5068b818c3" x="198.421299" y="91.668725" style="fill: #1f77b4; stroke: #1f77b4"/>
     <use xlink:href="#m5068b818c3" x="193.181796" y="88.544494" style="fill: #1f77b4; stroke: #1f77b4"/>
     <use xlink:href="#m5068b818c3" x="187.645964" y="85.831112" style="fill: #1f77b4; stroke: #1f77b4"/>
     <use xlink:href="#m5068b818c3" x="181.846346" y="83.556139" style="fill: #1f77b4; stroke: #1f77b4"/>
     <use xlink:href="#m5068b818c3" x="175.818006" y="81.74453" style="fill: #1f77b4; stroke: #1f77b4"/>
     <use xlink:href="#m5068b818c3" x="169.598319" y="80.418408" style="fill: #1f77b4; stroke: #1f77b4"/>
     <use xlink:href="#m5068b818c3" x="163.226743" y="79.59685" style="fill: #1f77b4; stroke: #1f77b4"/>
     <use xlink:href="#m5068b818c3" x="156.744565" y="79.2957" style="fill: #1f77b4; stroke: #1f77b4"/>
     <use xlink:href="#m5068b818c3" x="150.194636" y="79.527394" style="fill: #1f77b4; stroke: #1f77b4"/>
     <use xlink:href="#m5068b818c3" x="143.621088" y="80.300814" style="fill: #1f77b4; stroke: #1f77b4"/>
     <use xlink:href="#m5068b818c3" x="137.069034" y="81.621161" style="fill: #1f77b4; stroke: #1f77b4"/>
     <use xlink:href="#m5068b818c3" x="130.584263" y="83.489857" style="fill: #1f77b4; stroke: #1f77b4"/>
     <use xlink:href="#m5068b818c3" x="124.212918" y="85.90447" style="fill: #1f77b4; stroke: #1f77b4"/>
     <use xlink:href="#m5068b818c3" x="118.001175" y="88.858668" style="fill: #1f77b4; stroke: #1f77b4"/>
     <use xlink:href="#m5068b818c3" x="111.994909" y="92.342199" style="fill: #1f77b4; stroke: #1f77b4"/>
     <use xlink:href="#m5068b818c3" x="106.239357" y="96.340899" style="fill: #1f77b4; stroke: #1f77b4"/>
     <use xlink:href="#m5068b818c3" x="100.778794" y="100.836729" style="fill: #1f77b4; stroke: #1f77b4"/>
     <use xlink:href="#m5068b818c3" x="95.656188" y="105.807843" style="fill: #1f77b4; stroke: #1f77b4"/>
     <use xlink:href="#m5068b818c3" x="90.912882" y="111.228683" style="fill: #1f77b4; stroke: #1f77b4"/>
     <use xlink:href="#m5068b818c3" x="86.588271" y="117.070095" style="fill: #1f77b4; stroke: #1f77b4"/>
     <use xlink:href="#m5068b818c3" x="82.719488" y="123.299488" style="fill: #1f77b4; stroke: #1f77b4"/>
     <use xlink:href="#m5068b818c3" x="79.341105" y="129.881004" style="fill: #1f77b4; stroke: #1f77b4"/>
     <use xlink:href="#m5068b818c3" x="76.484851" y="136.775726" style="fill: #1f77b4; stroke: #1f77b4"/>
     <use xlink:href="#m5068b818c3" x="74.179337" y="143.941901" style="fill: #1f77b4; stroke: #1f77b4"/>
     <use xlink:href="#m5068b818c3" x="72.449809" y="151.335199" style="fill: #1f77b4; stroke: #1f77b4"/>
     <use xlink:href="#m5068b818c3" x="71.317919" y="158.908977" style="fill: #1f77b4; stroke: #1f77b4"/>
     <use xlink:href="#m5068b818c3" x="70.80151" y="166.614581" style="fill: #1f77b4; stroke: #1f77b4"/>
     <use xlink:href="#m5068b818c3" x="70.91444" y="174.401657" style="fill: #1f77b4; stroke: #1f77b4"/>
     <use xlink:href="#m5068b818c3" x="71.666419" y="182.218474" style="fill: #1f77b4; stroke: #1f77b4"/>
     <use xlink:href="#m5068b818c3" x="73.062881" y="190.012278" style="fill: #1f77b4; stroke: #1f77b4"/>
     <use xlink:href="#m5068b818c3" x="75.104881" y="197.729636" style="fill: #1f77b4; stroke: #1f77b4"/>
     <use xlink:href="#m5068b818c3" x="77.789023" y="205.31681" style="fill: #1f77b4; stroke: #1f77b4"/>
     <use xlink:href="#m5068b818c3" x="81.107416" y="212.720127" style="fill: #1f77b4; stroke: #1f77b4"/>
     <use xlink:href="#m5068b818c3" x="85.047666" y="219.886353" style="fill: #1f77b4; stroke: #1f77b4"/>
     <use xlink:href="#m5068b818c3" x="89.5929" y="226.763076" style="fill: #1f77b4; stroke: #1f77b4"/>
     <use xlink:href="#m5068b818c3" x="94.721811" y="233.299081" style="fill: #1f77b4; stroke: #1f77b4"/>
     <use xlink:href="#m5068b818c3" x="100.40875" y="239.444728" style="fill: #1f77b4; stroke: #1f77b4"/>
     <use xlink:href="#m5068b818c3" x="106.623843" y="245.15232" style="fill: #1f77b4; stroke: #1f77b4"/>
     <use xlink:href="#m5068b818c3" x="113.333133" y="250.376463" style="fill: #1f77b4; stroke: #1f77b4"/>
     <use xlink:href="#m5068b818c3" x="120.498768" y="255.074413" style="fill: #1f77b4; stroke: #1f77b4"/>
     <use xlink:href="#m5068b818c3" x="128.079202" y="259.206414" style="fill: #1f77b4; stroke: #1f77b4"/>
     <use xlink:href="#m5068b818c3" x="136.029438" y="262.736012" style="fill: #1f77b4; stroke: #1f77b4"/>
     <use xlink:href="#m5068b818c3" x="144.301288" y="265.630359" style="fill: #1f77b4; stroke: #1f77b4"/>
     <use xlink:href="#m5068b818c3" x="152.84367" y="267.860485" style="fill: #1f77b4; stroke: #1f77b4"/>
     <use xlink:href="#m5068b818c3" x="161.602915" y="269.401555" style="fill: #1f77b4; stroke: #1f77b4"/>
     <use xlink:href="#m5068b818c3" x="170.523111" y="270.2331" style="fill: #1f77b4; stroke: #1f77b4"/>
     <use xlink:href="#m5068b818c3" x="179.546453" y="270.339212" style="fill: #1f77b4; stroke: #1f77b4"/>
     <use xlink:href="#m5068b818c3" x="188.613626" y="269.708717" style="fill: #1f77b4; stroke: #1f77b4"/>
     <use xlink:href="#m5068b818c3" x="197.664186" y="268.335319" style="fill: #1f77b4; stroke: #1f77b4"/>
     <use xlink:href="#m5068b818c3" x="206.636968" y="266.217704" style="fill: #1f77b4; stroke: #1f77b4"/>
     <use xlink:href="#m5068b818c3" x="215.470497" y="263.359616" style="fill: #1f77b4; stroke: #1f77b4"/>
     <use xlink:href="#m5068b818c3" x="224.10341" y="259.769898" style="fill: #1f77b4; stroke: #1f77b4"/>
     <use xlink:href="#m5068b818c3" x="232.474876" y="255.462497" style="fill: #1f77b4; stroke: #1f77b4"/>
     <use xlink:href="#m5068b818c3" x="240.525026" y="250.456434" style="fill: #1f77b4; stroke: #1f77b4"/>
     <use xlink:href="#m5068b818c3" x="248.195377" y="244.77574" style="fill: #1f77b4; stroke: #1f77b4"/>
     <use xlink:href="#m5068b818c3" x="255.429248" y="238.449351" style="fill: #1f77b4; stroke: #1f77b4"/>
     <use xlink:href="#m5068b818c3" x="262.172178" y="231.510976" style="fill: #1f77b4; stroke: #1f77b4"/>
     <use xlink:href="#m5068b818c3" x="268.372325" y="223.998923" style="fill: #1f77b4; stroke: #1f77b4"/>
    </g>
   </g>
   <g id="patch_3">
    <path d="M 299.35575 159.095062 
C 299.35575 141.622309 295.913998 124.319455 289.227465 108.176736 
C 282.540932 92.034016 272.739653 77.365365 260.38455 65.010263 
C 248.029447 52.65516 233.360796 42.853881 217.218077 36.167347 
C 201.075357 29.480814 183.772504 26.039062 166.29975 26.039062 
C 148.826996 26.039062 131.524143 29.480814 115.381423 36.167347 
C 99.238704 42.853881 84.570053 52.65516 72.21495 65.010263 
C 59.859847 77.365365 50.058568 92.034016 43.372035 108.176736 
C 36.685502 124.319455 33.24375 141.622309 33.24375 159.095062 
C 33.24375 176.567816 36.685502 193.87067 43.372035 210.013389 
C 50.058568 226.156109 59.859847 240.82476 72.21495 253.179862 
C 84.570053 265.534965 99.238704 275.336244 115.381423 282.022778 
C 131.524143 288.709311 148.826996 292.151062 166.29975 292.151062 
C 183.772504 292.151062 201.075357 288.709311 217.218077 282.022778 
C 233.360796 275.336244 248.029447 265.534965 260.38455 253.179862 
C 272.739653 240.82476 282.540932 226.156109 289.227465 210.013389 
C 295.913998 193.87067 299.35575 176.567816 299.35575 159.095062 
" style="fill: none; stroke: #000000; stroke-width: 0.8; stroke-linejoin: miter; stroke-linecap: square"/>
   </g>
  </g>
 </g>
 <defs>
  <clipPath id="p14df50127b">
   <path d="M 299.35575 159.095062 
C 299.35575 141.622309 295.913998 124.319455 289.227465 108.176736 
C 282.540932 92.034016 272.739653 77.365365 260.38455 65.010263 
C 248.029447 52.65516 233.360796 42.853881 217.218077 36.167347 
C 201.075357 29.480814 183.772504 26.039062 166.29975 26.039062 
C 148.826996 26.039062 131.524143 29.480814 115.381423 36.167347 
C 99.238704 42.853881 84.570053 52.65516 72.21495 65.010263 
C 59.859847 77.365365 50.058568 92.034016 43.372035 108.176736 
C 36.685502 124.319455 33.24375 141.622309 33.24375 159.095062 
C 33.24375 176.567816 36.685502 193.87067 43.372035 210.013389 
C 50.058568 226.156109 59.859847 240.82476 72.21495 253.179862 
C 84.570053 265.534965 99.238704 275.336244 115.381423 282.022778 
C 131.524143 288.709311 148.826996 292.151062 166.29975 292.151062 
C 183.772504 292.151062 201.075357 288.709311 217.218077 282.022778 
C 233.360796 275.336244 248.029447 265.534965 260.38455 253.179862 
C 272.739653 240.82476 282.540932 226.156109 289.227465 210.013389 
C 295.913998 193.87067 299.35575 176.567816 299.35575 159.095062 
M 166.29975 159.095062 
C 166.29975 159.095062 166.29975 159.095062 166.29975 159.095062 
C 166.29975 159.095062 166.29975 159.095062 166.29975 159.095062 
C 166.29975 159.095062 166.29975 159.095062 166.29975 159.095062 
C 166.29975 159.095062 166.29975 159.095062 166.29975 159.095062 
C 166.29975 159.095062 166.29975 159.095062 166.29975 159.095062 
C 166.29975 159.095062 166.29975 159.095062 166.29975 159.095062 
C 166.29975 159.095062 166.29975 159.095062 166.29975 159.095062 
C 166.29975 159.095062 166.29975 159.095062 166.29975 159.095062 
C 166.29975 159.095062 166.29975 159.095062 166.29975 159.095062 
C 166.29975 159.095062 166.29975 159.095062 166.29975 159.095062 
C 166.29975 159.095062 166.29975 159.095062 166.29975 159.095062 
C 166.29975 159.095062 166.29975 159.095062 166.29975 159.095062 
C 166.29975 159.095062 166.29975 159.095062 166.29975 159.095062 
C 166.29975 159.095062 166.29975 159.095062 166.29975 159.095062 
C 166.29975 159.095062 166.29975 159.095062 166.29975 159.095062 
C 166.29975 159.095062 166.29975 159.095062 166.29975 159.095062 
z
"/>
  </clipPath>
 </defs>
</svg>
