<?xml version="1.0" encoding="UTF-8" standalone="no"?>
<!DOCTYPE svg PUBLIC "-//W3C//DTD SVG 1.1//EN"
 "http://www.w3.org/Graphics/SVG/1.1/DTD/svg11.dtd">
<!-- Generated by graphviz version 2.43.0 (0)
 -->
<!-- Title: %3 Pages: 1 -->
<svg width="467pt" height="258pt"
 viewBox="0.00 0.00 467.35 258.05" xmlns="http://www.w3.org/2000/svg" xmlns:xlink="http://www.w3.org/1999/xlink">
<g id="graph0" class="graph" transform="scale(1 1) rotate(0) translate(4 254.05)">
<title>%3</title>
<polygon fill="white" stroke="transparent" points="-4,4 -4,-254.05 463.35,-254.05 463.35,4 -4,4"/>
<!-- a551f2d9745f419c9a2d1ffbded1e98c -->
<g id="node1" class="node">
<title>a551f2d9745f419c9a2d1ffbded1e98c</title>
<polygon fill="none" stroke="black" points="441,-97.29 308,-97.29 308,-74.29 441,-74.29 441,-97.29"/>
<text text-anchor="middle" x="374.5" y="-82.09" font-family="Times,serif" font-size="14.00">sum(arg_0, dim)</text>
</g>
<!-- 954aab9024a741129c7c463dacd1fc6d -->
<g id="node6" class="node">
<title>954aab9024a741129c7c463dacd1fc6d</title>
<ellipse fill="lightgrey" stroke="lightgrey" cx="374.5" cy="-16.26" rx="84.71" ry="16.03"/>
<text text-anchor="middle" x="374.5" y="-12.56" font-family="Times,serif" font-size="14.00">GraphicalView</text>
</g>
<!-- a551f2d9745f419c9a2d1ffbded1e98c&#45;&gt;954aab9024a741129c7c463dacd1fc6d -->
<g id="edge4" class="edge">
<title>a551f2d9745f419c9a2d1ffbded1e98c&#45;&gt;954aab9024a741129c7c463dacd1fc6d</title>
<path fill="none" stroke="black" d="M374.5,-74.24C374.5,-65.89 374.5,-53.88 374.5,-43.03"/>
<polygon fill="black" stroke="black" points="378,-42.76 374.5,-32.76 371,-42.76 378,-42.76"/>
</g>
<!-- 15e1e23fb0d249d59ad3c51a9c8ca53f -->
<g id="node2" class="node">
<title>15e1e23fb0d249d59ad3c51a9c8ca53f</title>
<polygon fill="none" stroke="black" points="306,-176.05 73,-176.05 73,-153.05 306,-153.05 306,-176.05"/>
<text text-anchor="middle" x="189.5" y="-160.85" font-family="Times,serif" font-size="14.00">add_mask(arg_0, trunc_range)</text>
</g>
<!-- 15e1e23fb0d249d59ad3c51a9c8ca53f&#45;&gt;a551f2d9745f419c9a2d1ffbded1e98c -->
<g id="edge1" class="edge">
<title>15e1e23fb0d249d59ad3c51a9c8ca53f&#45;&gt;a551f2d9745f419c9a2d1ffbded1e98c</title>
<path fill="none" stroke="black" d="M214.84,-153.04C247.13,-139.64 303.11,-116.41 339.48,-101.32"/>
<polygon fill="black" stroke="black" points="341.28,-104.36 349.17,-97.3 338.6,-97.9 341.28,-104.36"/>
<text text-anchor="middle" x="313.5" y="-123.85" font-family="Times,serif" font-size="14.00">arg_0</text>
</g>
<!-- 0ff434601cfe450fa061a84552d6dc52 -->
<g id="node7" class="node">
<title>0ff434601cfe450fa061a84552d6dc52</title>
<ellipse fill="lightgrey" stroke="lightgrey" cx="189.5" cy="-85.79" rx="84.71" ry="16.03"/>
<text text-anchor="middle" x="189.5" y="-82.09" font-family="Times,serif" font-size="14.00">GraphicalView</text>
</g>
<!-- 15e1e23fb0d249d59ad3c51a9c8ca53f&#45;&gt;0ff434601cfe450fa061a84552d6dc52 -->
<g id="edge2" class="edge">
<title>15e1e23fb0d249d59ad3c51a9c8ca53f&#45;&gt;0ff434601cfe450fa061a84552d6dc52</title>
<path fill="none" stroke="black" d="M189.5,-152.88C189.5,-142.48 189.5,-126.26 189.5,-112.5"/>
<polygon fill="black" stroke="black" points="193,-112.14 189.5,-102.14 186,-112.14 193,-112.14"/>
</g>
<!-- 0d0401cc8dd943afbecb4a94d3436a0a -->
<g id="node3" class="node">
<title>0d0401cc8dd943afbecb4a94d3436a0a</title>
<polygon fill="none" stroke="black" points="455,-176.05 324,-176.05 324,-153.05 455,-153.05 455,-176.05"/>
<text text-anchor="middle" x="389.5" y="-160.85" font-family="Times,serif" font-size="14.00">Input &lt;str=&#39;y&#39;&gt;</text>
</g>
<!-- 0d0401cc8dd943afbecb4a94d3436a0a&#45;&gt;a551f2d9745f419c9a2d1ffbded1e98c -->
<g id="edge3" class="edge">
<title>0d0401cc8dd943afbecb4a94d3436a0a&#45;&gt;a551f2d9745f419c9a2d1ffbded1e98c</title>
<path fill="none" stroke="black" d="M387.41,-152.88C385.13,-141.19 381.41,-122.17 378.55,-107.52"/>
<polygon fill="black" stroke="black" points="381.92,-106.52 376.57,-97.37 375.05,-107.86 381.92,-106.52"/>
<text text-anchor="middle" x="398.5" y="-123.85" font-family="Times,serif" font-size="14.00">dim</text>
</g>
<!-- 396b5376f68a459b9d516f00c9cdc748 -->
<g id="node4" class="node">
<title>396b5376f68a459b9d516f00c9cdc748</title>
<polygon fill="none" stroke="black" points="157,-250.05 0,-250.05 0,-227.05 157,-227.05 157,-250.05"/>
<text text-anchor="middle" x="78.5" y="-234.85" font-family="Times,serif" font-size="14.00">Input &lt;DataArray&gt;</text>
</g>
<!-- 396b5376f68a459b9d516f00c9cdc748&#45;&gt;15e1e23fb0d249d59ad3c51a9c8ca53f -->
<g id="edge5" class="edge">
<title>396b5376f68a459b9d516f00c9cdc748&#45;&gt;15e1e23fb0d249d59ad3c51a9c8ca53f</title>
<path fill="none" stroke="black" d="M94.88,-226.93C113.24,-215.02 143.23,-195.57 164.52,-181.76"/>
<polygon fill="black" stroke="black" points="166.57,-184.6 173.05,-176.22 162.76,-178.73 166.57,-184.6"/>
<text text-anchor="middle" x="164.5" y="-197.85" font-family="Times,serif" font-size="14.00">arg_0</text>
</g>
<!-- e2a5aadd884846c8a22b6ff8c6f6a09c -->
<g id="node5" class="node">
<title>e2a5aadd884846c8a22b6ff8c6f6a09c</title>
<polygon fill="none" stroke="black" points="425.5,-250.05 175.5,-250.05 175.5,-227.05 425.5,-227.05 425.5,-250.05"/>
<text text-anchor="middle" x="300.5" y="-234.85" font-family="Times,serif" font-size="14.00">Widget &lt;IntRangeSlider: tuple&gt;</text>
</g>
<!-- e2a5aadd884846c8a22b6ff8c6f6a09c&#45;&gt;15e1e23fb0d249d59ad3c51a9c8ca53f -->
<g id="edge6" class="edge">
<title>e2a5aadd884846c8a22b6ff8c6f6a09c&#45;&gt;15e1e23fb0d249d59ad3c51a9c8ca53f</title>
<path fill="none" stroke="black" d="M284.12,-226.93C265.76,-215.02 235.77,-195.57 214.48,-181.76"/>
<polygon fill="black" stroke="black" points="216.24,-178.73 205.95,-176.22 212.43,-184.6 216.24,-178.73"/>
<text text-anchor="middle" x="299" y="-197.85" font-family="Times,serif" font-size="14.00">trunc_range</text>
</g>
</g>
</svg>
