<?xml version="1.0" encoding="utf-8" standalone="no"?>
<!DOCTYPE svg PUBLIC "-//W3C//DTD SVG 1.1//EN"
  "http://www.w3.org/Graphics/SVG/1.1/DTD/svg11.dtd">
<svg xmlns:xlink="http://www.w3.org/1999/xlink" width="337.325pt" height="342.95625pt" viewBox="0 0 337.325 342.95625" xmlns="http://www.w3.org/2000/svg" version="1.1">
 <metadata>
  <rdf:RDF xmlns:dc="http://purl.org/dc/elements/1.1/" xmlns:cc="http://creativecommons.org/ns#" xmlns:rdf="http://www.w3.org/1999/02/22-rdf-syntax-ns#">
   <cc:Work>
    <dc:type rdf:resource="http://purl.org/dc/dcmitype/StillImage"/>
    <dc:date>2024-06-18T09:50:28.703552</dc:date>
    <dc:format>image/svg+xml</dc:format>
    <dc:creator>
     <cc:Agent>
      <dc:title>Matplotlib v3.9.0, https://matplotlib.org/</dc:title>
     </cc:Agent>
    </dc:creator>
   </cc:Work>
  </rdf:RDF>
 </metadata>
 <defs>
  <style type="text/css">*{stroke-linejoin: round; stroke-linecap: butt}</style>
 </defs>
 <g id="figure_1">
  <g id="patch_1">
   <path d="M 0 342.95625 
L 337.325 342.95625 
L 337.325 0 
L 0 0 
z
" style="fill: #ffffff"/>
  </g>
  <g id="axes_1">
   <g id="patch_2">
    <path d="M 310.44375 164.639062 
C 310.44375 146.438277 306.858592 128.414472 299.893453 111.599139 
C 292.928314 94.783806 282.718649 79.503961 269.84875 66.634063 
C 256.978851 53.764164 241.699007 43.554498 224.883674 36.589359 
C 208.068341 29.62422 190.044535 26.039062 171.84375 26.039062 
C 153.642965 26.039062 135.619159 29.62422 118.803826 36.589359 
C 101.988493 43.554498 86.708649 53.764164 73.83875 66.634063 
C 60.968851 79.503961 50.759186 94.783806 43.794047 111.599139 
C 36.828908 128.414472 33.24375 146.438277 33.24375 164.639062 
C 33.24375 182.839848 36.828908 200.863653 43.794047 217.678986 
C 50.759186 234.494319 60.968851 249.774164 73.83875 262.644062 
C 86.708649 275.513961 101.988493 285.723627 118.803826 292.688766 
C 135.619159 299.653905 153.642965 303.239062 171.84375 303.239062 
C 190.044535 303.239062 208.068341 299.653905 224.883674 292.688766 
C 241.699007 285.723627 256.978851 275.513961 269.84875 262.644062 
C 282.718649 249.774164 292.928314 234.494319 299.893453 217.678986 
C 306.858592 200.863653 310.44375 182.839848 310.44375 164.639063 
M 171.84375 164.639062 
C 171.84375 164.639062 171.84375 164.639062 171.84375 164.639062 
C 171.84375 164.639062 171.84375 164.639062 171.84375 164.639062 
C 171.84375 164.639062 171.84375 164.639062 171.84375 164.639062 
C 171.84375 164.639062 171.84375 164.639062 171.84375 164.639062 
C 171.84375 164.639062 171.84375 164.639062 171.84375 164.639062 
C 171.84375 164.639062 171.84375 164.639062 171.84375 164.639062 
C 171.84375 164.639062 171.84375 164.639062 171.84375 164.639062 
C 171.84375 164.639062 171.84375 164.639062 171.84375 164.639062 
C 171.84375 164.639062 171.84375 164.639062 171.84375 164.639062 
C 171.84375 164.639062 171.84375 164.639062 171.84375 164.639062 
C 171.84375 164.639062 171.84375 164.639062 171.84375 164.639062 
C 171.84375 164.639062 171.84375 164.639062 171.84375 164.639062 
C 171.84375 164.639062 171.84375 164.639062 171.84375 164.639062 
C 171.84375 164.639062 171.84375 164.639062 171.84375 164.639062 
C 171.84375 164.639062 171.84375 164.639062 171.84375 164.639062 
C 171.84375 164.639062 171.84375 164.639062 171.84375 164.639062 
z
" style="fill: #ffffff"/>
   </g>
   <g id="matplotlib.axis_1">
    <g id="xtick_1">
     <g id="line2d_1">
      <path d="M 171.84375 164.639063 
L 310.44375 164.639063 
" clip-path="url(#p38f4aed357)" style="fill: none; stroke: #b0b0b0; stroke-width: 0.8; stroke-linecap: square"/>
     </g>
     <g id="text_1">
      <!-- 0° -->
      <g transform="translate(318.7625 167.398438) scale(0.1 -0.1)">
       <defs>
        <path id="DejaVuSans-30" d="M 2034 4250 
Q 1547 4250 1301 3770 
Q 1056 3291 1056 2328 
Q 1056 1369 1301 889 
Q 1547 409 2034 409 
Q 2525 409 2770 889 
Q 3016 1369 3016 2328 
Q 3016 3291 2770 3770 
Q 2525 4250 2034 4250 
z
M 2034 4750 
Q 2819 4750 3233 4129 
Q 3647 3509 3647 2328 
Q 3647 1150 3233 529 
Q 2819 -91 2034 -91 
Q 1250 -91 836 529 
Q 422 1150 422 2328 
Q 422 3509 836 4129 
Q 1250 4750 2034 4750 
z
" transform="scale(0.015625)"/>
        <path id="DejaVuSans-b0" d="M 1600 4347 
Q 1350 4347 1178 4173 
Q 1006 4000 1006 3750 
Q 1006 3503 1178 3333 
Q 1350 3163 1600 3163 
Q 1850 3163 2022 3333 
Q 2194 3503 2194 3750 
Q 2194 3997 2020 4172 
Q 1847 4347 1600 4347 
z
M 1600 4750 
Q 1800 4750 1984 4673 
Q 2169 4597 2303 4453 
Q 2447 4313 2519 4134 
Q 2591 3956 2591 3750 
Q 2591 3338 2302 3052 
Q 2013 2766 1594 2766 
Q 1172 2766 890 3047 
Q 609 3328 609 3750 
Q 609 4169 896 4459 
Q 1184 4750 1600 4750 
z
" transform="scale(0.015625)"/>
       </defs>
       <use xlink:href="#DejaVuSans-30"/>
       <use xlink:href="#DejaVuSans-b0" x="63.623047"/>
      </g>
     </g>
    </g>
    <g id="xtick_2">
     <g id="line2d_2">
      <path d="M 171.84375 164.639063 
L 269.84875 66.634063 
" clip-path="url(#p38f4aed357)" style="fill: none; stroke: #b0b0b0; stroke-width: 0.8; stroke-linecap: square"/>
     </g>
     <g id="text_2">
      <!-- 45° -->
      <g transform="translate(270.885745 59.493943) scale(0.1 -0.1)">
       <defs>
        <path id="DejaVuSans-34" d="M 2419 4116 
L 825 1625 
L 2419 1625 
L 2419 4116 
z
M 2253 4666 
L 3047 4666 
L 3047 1625 
L 3713 1625 
L 3713 1100 
L 3047 1100 
L 3047 0 
L 2419 0 
L 2419 1100 
L 313 1100 
L 313 1709 
L 2253 4666 
z
" transform="scale(0.015625)"/>
        <path id="DejaVuSans-35" d="M 691 4666 
L 3169 4666 
L 3169 4134 
L 1269 4134 
L 1269 2991 
Q 1406 3038 1543 3061 
Q 1681 3084 1819 3084 
Q 2600 3084 3056 2656 
Q 3513 2228 3513 1497 
Q 3513 744 3044 326 
Q 2575 -91 1722 -91 
Q 1428 -91 1123 -41 
Q 819 9 494 109 
L 494 744 
Q 775 591 1075 516 
Q 1375 441 1709 441 
Q 2250 441 2565 725 
Q 2881 1009 2881 1497 
Q 2881 1984 2565 2268 
Q 2250 2553 1709 2553 
Q 1456 2553 1204 2497 
Q 953 2441 691 2322 
L 691 4666 
z
" transform="scale(0.015625)"/>
       </defs>
       <use xlink:href="#DejaVuSans-34"/>
       <use xlink:href="#DejaVuSans-35" x="63.623047"/>
       <use xlink:href="#DejaVuSans-b0" x="127.246094"/>
      </g>
     </g>
    </g>
    <g id="xtick_3">
     <g id="line2d_3">
      <path d="M 171.84375 164.639063 
L 171.84375 26.039063 
" clip-path="url(#p38f4aed357)" style="fill: none; stroke: #b0b0b0; stroke-width: 0.8; stroke-linecap: square"/>
     </g>
     <g id="text_3">
      <!-- 90° -->
      <g transform="translate(162.98125 14.798438) scale(0.1 -0.1)">
       <defs>
        <path id="DejaVuSans-39" d="M 703 97 
L 703 672 
Q 941 559 1184 500 
Q 1428 441 1663 441 
Q 2288 441 2617 861 
Q 2947 1281 2994 2138 
Q 2813 1869 2534 1725 
Q 2256 1581 1919 1581 
Q 1219 1581 811 2004 
Q 403 2428 403 3163 
Q 403 3881 828 4315 
Q 1253 4750 1959 4750 
Q 2769 4750 3195 4129 
Q 3622 3509 3622 2328 
Q 3622 1225 3098 567 
Q 2575 -91 1691 -91 
Q 1453 -91 1209 -44 
Q 966 3 703 97 
z
M 1959 2075 
Q 2384 2075 2632 2365 
Q 2881 2656 2881 3163 
Q 2881 3666 2632 3958 
Q 2384 4250 1959 4250 
Q 1534 4250 1286 3958 
Q 1038 3666 1038 3163 
Q 1038 2656 1286 2365 
Q 1534 2075 1959 2075 
z
" transform="scale(0.015625)"/>
       </defs>
       <use xlink:href="#DejaVuSans-39"/>
       <use xlink:href="#DejaVuSans-30" x="63.623047"/>
       <use xlink:href="#DejaVuSans-b0" x="127.246094"/>
      </g>
     </g>
    </g>
    <g id="xtick_4">
     <g id="line2d_4">
      <path d="M 171.84375 164.639063 
L 73.83875 66.634063 
" clip-path="url(#p38f4aed357)" style="fill: none; stroke: #b0b0b0; stroke-width: 0.8; stroke-linecap: square"/>
     </g>
     <g id="text_4">
      <!-- 135° -->
      <g transform="translate(51.895505 59.493943) scale(0.1 -0.1)">
       <defs>
        <path id="DejaVuSans-31" d="M 794 531 
L 1825 531 
L 1825 4091 
L 703 3866 
L 703 4441 
L 1819 4666 
L 2450 4666 
L 2450 531 
L 3481 531 
L 3481 0 
L 794 0 
L 794 531 
z
" transform="scale(0.015625)"/>
        <path id="DejaVuSans-33" d="M 2597 2516 
Q 3050 2419 3304 2112 
Q 3559 1806 3559 1356 
Q 3559 666 3084 287 
Q 2609 -91 1734 -91 
Q 1441 -91 1130 -33 
Q 819 25 488 141 
L 488 750 
Q 750 597 1062 519 
Q 1375 441 1716 441 
Q 2309 441 2620 675 
Q 2931 909 2931 1356 
Q 2931 1769 2642 2001 
Q 2353 2234 1838 2234 
L 1294 2234 
L 1294 2753 
L 1863 2753 
Q 2328 2753 2575 2939 
Q 2822 3125 2822 3475 
Q 2822 3834 2567 4026 
Q 2313 4219 1838 4219 
Q 1578 4219 1281 4162 
Q 984 4106 628 3988 
L 628 4550 
Q 988 4650 1302 4700 
Q 1616 4750 1894 4750 
Q 2613 4750 3031 4423 
Q 3450 4097 3450 3541 
Q 3450 3153 3228 2886 
Q 3006 2619 2597 2516 
z
" transform="scale(0.015625)"/>
       </defs>
       <use xlink:href="#DejaVuSans-31"/>
       <use xlink:href="#DejaVuSans-33" x="63.623047"/>
       <use xlink:href="#DejaVuSans-35" x="127.246094"/>
       <use xlink:href="#DejaVuSans-b0" x="190.869141"/>
      </g>
     </g>
    </g>
    <g id="xtick_5">
     <g id="line2d_5">
      <path d="M 171.84375 164.639063 
L 33.24375 164.639062 
" clip-path="url(#p38f4aed357)" style="fill: none; stroke: #b0b0b0; stroke-width: 0.8; stroke-linecap: square"/>
     </g>
     <g id="text_5">
      <!-- 180° -->
      <g transform="translate(7.2 167.398438) scale(0.1 -0.1)">
       <defs>
        <path id="DejaVuSans-38" d="M 2034 2216 
Q 1584 2216 1326 1975 
Q 1069 1734 1069 1313 
Q 1069 891 1326 650 
Q 1584 409 2034 409 
Q 2484 409 2743 651 
Q 3003 894 3003 1313 
Q 3003 1734 2745 1975 
Q 2488 2216 2034 2216 
z
M 1403 2484 
Q 997 2584 770 2862 
Q 544 3141 544 3541 
Q 544 4100 942 4425 
Q 1341 4750 2034 4750 
Q 2731 4750 3128 4425 
Q 3525 4100 3525 3541 
Q 3525 3141 3298 2862 
Q 3072 2584 2669 2484 
Q 3125 2378 3379 2068 
Q 3634 1759 3634 1313 
Q 3634 634 3220 271 
Q 2806 -91 2034 -91 
Q 1263 -91 848 271 
Q 434 634 434 1313 
Q 434 1759 690 2068 
Q 947 2378 1403 2484 
z
M 1172 3481 
Q 1172 3119 1398 2916 
Q 1625 2713 2034 2713 
Q 2441 2713 2670 2916 
Q 2900 3119 2900 3481 
Q 2900 3844 2670 4047 
Q 2441 4250 2034 4250 
Q 1625 4250 1398 4047 
Q 1172 3844 1172 3481 
z
" transform="scale(0.015625)"/>
       </defs>
       <use xlink:href="#DejaVuSans-31"/>
       <use xlink:href="#DejaVuSans-38" x="63.623047"/>
       <use xlink:href="#DejaVuSans-30" x="127.246094"/>
       <use xlink:href="#DejaVuSans-b0" x="190.869141"/>
      </g>
     </g>
    </g>
    <g id="xtick_6">
     <g id="line2d_6">
      <path d="M 171.84375 164.639063 
L 73.83875 262.644062 
" clip-path="url(#p38f4aed357)" style="fill: none; stroke: #b0b0b0; stroke-width: 0.8; stroke-linecap: square"/>
     </g>
     <g id="text_6">
      <!-- 225° -->
      <g transform="translate(51.895505 275.302932) scale(0.1 -0.1)">
       <defs>
        <path id="DejaVuSans-32" d="M 1228 531 
L 3431 531 
L 3431 0 
L 469 0 
L 469 531 
Q 828 903 1448 1529 
Q 2069 2156 2228 2338 
Q 2531 2678 2651 2914 
Q 2772 3150 2772 3378 
Q 2772 3750 2511 3984 
Q 2250 4219 1831 4219 
Q 1534 4219 1204 4116 
Q 875 4013 500 3803 
L 500 4441 
Q 881 4594 1212 4672 
Q 1544 4750 1819 4750 
Q 2544 4750 2975 4387 
Q 3406 4025 3406 3419 
Q 3406 3131 3298 2873 
Q 3191 2616 2906 2266 
Q 2828 2175 2409 1742 
Q 1991 1309 1228 531 
z
" transform="scale(0.015625)"/>
       </defs>
       <use xlink:href="#DejaVuSans-32"/>
       <use xlink:href="#DejaVuSans-32" x="63.623047"/>
       <use xlink:href="#DejaVuSans-35" x="127.246094"/>
       <use xlink:href="#DejaVuSans-b0" x="190.869141"/>
      </g>
     </g>
    </g>
    <g id="xtick_7">
     <g id="line2d_7">
      <path d="M 171.84375 164.639063 
L 171.84375 303.239063 
" clip-path="url(#p38f4aed357)" style="fill: none; stroke: #b0b0b0; stroke-width: 0.8; stroke-linecap: square"/>
     </g>
     <g id="text_7">
      <!-- 270° -->
      <g transform="translate(159.8 319.998438) scale(0.1 -0.1)">
       <defs>
        <path id="DejaVuSans-37" d="M 525 4666 
L 3525 4666 
L 3525 4397 
L 1831 0 
L 1172 0 
L 2766 4134 
L 525 4134 
L 525 4666 
z
" transform="scale(0.015625)"/>
       </defs>
       <use xlink:href="#DejaVuSans-32"/>
       <use xlink:href="#DejaVuSans-37" x="63.623047"/>
       <use xlink:href="#DejaVuSans-30" x="127.246094"/>
       <use xlink:href="#DejaVuSans-b0" x="190.869141"/>
      </g>
     </g>
    </g>
    <g id="xtick_8">
     <g id="line2d_8">
      <path d="M 171.84375 164.639063 
L 269.84875 262.644062 
" clip-path="url(#p38f4aed357)" style="fill: none; stroke: #b0b0b0; stroke-width: 0.8; stroke-linecap: square"/>
     </g>
     <g id="text_8">
      <!-- 315° -->
      <g transform="translate(267.704495 275.302932) scale(0.1 -0.1)">
       <use xlink:href="#DejaVuSans-33"/>
       <use xlink:href="#DejaVuSans-31" x="63.623047"/>
       <use xlink:href="#DejaVuSans-35" x="127.246094"/>
       <use xlink:href="#DejaVuSans-b0" x="190.869141"/>
      </g>
     </g>
    </g>
    <g id="text_9">
     <!-- theta [rad] -->
     <g transform="translate(144.829688 333.676563) scale(0.1 -0.1)">
      <defs>
       <path id="DejaVuSans-74" d="M 1172 4494 
L 1172 3500 
L 2356 3500 
L 2356 3053 
L 1172 3053 
L 1172 1153 
Q 1172 725 1289 603 
Q 1406 481 1766 481 
L 2356 481 
L 2356 0 
L 1766 0 
Q 1100 0 847 248 
Q 594 497 594 1153 
L 594 3053 
L 172 3053 
L 172 3500 
L 594 3500 
L 594 4494 
L 1172 4494 
z
" transform="scale(0.015625)"/>
       <path id="DejaVuSans-68" d="M 3513 2113 
L 3513 0 
L 2938 0 
L 2938 2094 
Q 2938 2591 2744 2837 
Q 2550 3084 2163 3084 
Q 1697 3084 1428 2787 
Q 1159 2491 1159 1978 
L 1159 0 
L 581 0 
L 581 4863 
L 1159 4863 
L 1159 2956 
Q 1366 3272 1645 3428 
Q 1925 3584 2291 3584 
Q 2894 3584 3203 3211 
Q 3513 2838 3513 2113 
z
" transform="scale(0.015625)"/>
       <path id="DejaVuSans-65" d="M 3597 1894 
L 3597 1613 
L 953 1613 
Q 991 1019 1311 708 
Q 1631 397 2203 397 
Q 2534 397 2845 478 
Q 3156 559 3463 722 
L 3463 178 
Q 3153 47 2828 -22 
Q 2503 -91 2169 -91 
Q 1331 -91 842 396 
Q 353 884 353 1716 
Q 353 2575 817 3079 
Q 1281 3584 2069 3584 
Q 2775 3584 3186 3129 
Q 3597 2675 3597 1894 
z
M 3022 2063 
Q 3016 2534 2758 2815 
Q 2500 3097 2075 3097 
Q 1594 3097 1305 2825 
Q 1016 2553 972 2059 
L 3022 2063 
z
" transform="scale(0.015625)"/>
       <path id="DejaVuSans-61" d="M 2194 1759 
Q 1497 1759 1228 1600 
Q 959 1441 959 1056 
Q 959 750 1161 570 
Q 1363 391 1709 391 
Q 2188 391 2477 730 
Q 2766 1069 2766 1631 
L 2766 1759 
L 2194 1759 
z
M 3341 1997 
L 3341 0 
L 2766 0 
L 2766 531 
Q 2569 213 2275 61 
Q 1981 -91 1556 -91 
Q 1019 -91 701 211 
Q 384 513 384 1019 
Q 384 1609 779 1909 
Q 1175 2209 1959 2209 
L 2766 2209 
L 2766 2266 
Q 2766 2663 2505 2880 
Q 2244 3097 1772 3097 
Q 1472 3097 1187 3025 
Q 903 2953 641 2809 
L 641 3341 
Q 956 3463 1253 3523 
Q 1550 3584 1831 3584 
Q 2591 3584 2966 3190 
Q 3341 2797 3341 1997 
z
" transform="scale(0.015625)"/>
       <path id="DejaVuSans-20" transform="scale(0.015625)"/>
       <path id="DejaVuSans-5b" d="M 550 4863 
L 1875 4863 
L 1875 4416 
L 1125 4416 
L 1125 -397 
L 1875 -397 
L 1875 -844 
L 550 -844 
L 550 4863 
z
" transform="scale(0.015625)"/>
       <path id="DejaVuSans-72" d="M 2631 2963 
Q 2534 3019 2420 3045 
Q 2306 3072 2169 3072 
Q 1681 3072 1420 2755 
Q 1159 2438 1159 1844 
L 1159 0 
L 581 0 
L 581 3500 
L 1159 3500 
L 1159 2956 
Q 1341 3275 1631 3429 
Q 1922 3584 2338 3584 
Q 2397 3584 2469 3576 
Q 2541 3569 2628 3553 
L 2631 2963 
z
" transform="scale(0.015625)"/>
       <path id="DejaVuSans-64" d="M 2906 2969 
L 2906 4863 
L 3481 4863 
L 3481 0 
L 2906 0 
L 2906 525 
Q 2725 213 2448 61 
Q 2172 -91 1784 -91 
Q 1150 -91 751 415 
Q 353 922 353 1747 
Q 353 2572 751 3078 
Q 1150 3584 1784 3584 
Q 2172 3584 2448 3432 
Q 2725 3281 2906 2969 
z
M 947 1747 
Q 947 1113 1208 752 
Q 1469 391 1925 391 
Q 2381 391 2643 752 
Q 2906 1113 2906 1747 
Q 2906 2381 2643 2742 
Q 2381 3103 1925 3103 
Q 1469 3103 1208 2742 
Q 947 2381 947 1747 
z
" transform="scale(0.015625)"/>
       <path id="DejaVuSans-5d" d="M 1947 4863 
L 1947 -844 
L 622 -844 
L 622 -397 
L 1369 -397 
L 1369 4416 
L 622 4416 
L 622 4863 
L 1947 4863 
z
" transform="scale(0.015625)"/>
      </defs>
      <use xlink:href="#DejaVuSans-74"/>
      <use xlink:href="#DejaVuSans-68" x="39.208984"/>
      <use xlink:href="#DejaVuSans-65" x="102.587891"/>
      <use xlink:href="#DejaVuSans-74" x="164.111328"/>
      <use xlink:href="#DejaVuSans-61" x="203.320312"/>
      <use xlink:href="#DejaVuSans-20" x="264.599609"/>
      <use xlink:href="#DejaVuSans-5b" x="296.386719"/>
      <use xlink:href="#DejaVuSans-72" x="335.400391"/>
      <use xlink:href="#DejaVuSans-61" x="376.513672"/>
      <use xlink:href="#DejaVuSans-64" x="437.792969"/>
      <use xlink:href="#DejaVuSans-5d" x="501.269531"/>
     </g>
    </g>
   </g>
   <g id="matplotlib.axis_2">
    <g id="ytick_1">
     <g id="line2d_9">
      <path d="M 178.14375 164.639063 
C 178.14375 163.811754 177.980788 162.99249 177.664191 162.228157 
C 177.347594 161.463824 176.883518 160.769285 176.298523 160.18429 
C 175.713527 159.599294 175.018989 159.135219 174.254656 158.818621 
C 173.490322 158.502024 172.671058 158.339063 171.84375 158.339063 
C 171.016442 158.339063 170.197178 158.502024 169.432844 158.818621 
C 168.668511 159.135219 167.973973 159.599294 167.388977 160.18429 
C 166.803982 160.769285 166.339906 161.463824 166.023309 162.228157 
C 165.706712 162.99249 165.54375 163.811754 165.54375 164.639063 
C 165.54375 165.466371 165.706712 166.285635 166.023309 167.049968 
C 166.339906 167.814301 166.803982 168.50884 167.388977 169.093835 
C 167.973973 169.678831 168.668511 170.142906 169.432844 170.459504 
C 170.197178 170.776101 171.016442 170.939063 171.84375 170.939063 
C 172.671058 170.939063 173.490322 170.776101 174.254656 170.459504 
C 175.018989 170.142906 175.713527 169.678831 176.298523 169.093835 
C 176.883518 168.50884 177.347594 167.814301 177.664191 167.049968 
C 177.980788 166.285635 178.14375 165.466371 178.14375 164.639063 
" clip-path="url(#p38f4aed357)" style="fill: none; stroke: #b0b0b0; stroke-width: 0.8; stroke-linecap: square"/>
     </g>
     <g id="text_10">
      <!-- 0 -->
      <g transform="translate(177.664191 160.148469) scale(0.1 -0.1)">
       <use xlink:href="#DejaVuSans-30"/>
      </g>
     </g>
    </g>
    <g id="ytick_2">
     <g id="line2d_10">
      <path d="M 203.34375 164.639063 
C 203.34375 160.50252 202.528941 156.406201 200.945955 152.584534 
C 199.362969 148.762868 197.042591 145.290176 194.117614 142.365199 
C 191.192637 139.440222 187.719945 137.119843 183.898278 135.536857 
C 180.076612 133.953871 175.980292 133.139063 171.84375 133.139063 
C 167.707208 133.139063 163.610888 133.953871 159.789222 135.536857 
C 155.967555 137.119843 152.494863 139.440222 149.569886 142.365199 
C 146.644909 145.290176 144.324531 148.762868 142.741545 152.584534 
C 141.158559 156.406201 140.34375 160.50252 140.34375 164.639063 
C 140.34375 168.775605 141.158559 172.871924 142.741545 176.693591 
C 144.324531 180.515257 146.644909 183.987949 149.569886 186.912926 
C 152.494863 189.837903 155.967555 192.158282 159.789222 193.741268 
C 163.610888 195.324254 167.707208 196.139063 171.84375 196.139063 
C 175.980292 196.139063 180.076612 195.324254 183.898278 193.741268 
C 187.719945 192.158282 191.192637 189.837903 194.117614 186.912926 
C 197.042591 183.987949 199.362969 180.515257 200.945955 176.693591 
C 202.528941 172.871924 203.34375 168.775605 203.34375 164.639063 
" clip-path="url(#p38f4aed357)" style="fill: none; stroke: #b0b0b0; stroke-width: 0.8; stroke-linecap: square"/>
     </g>
     <g id="text_11">
      <!-- 2 -->
      <g transform="translate(200.945955 150.504847) scale(0.1 -0.1)">
       <use xlink:href="#DejaVuSans-32"/>
      </g>
     </g>
    </g>
    <g id="ytick_3">
     <g id="line2d_11">
      <path d="M 228.54375 164.639063 
C 228.54375 157.193287 227.077095 149.819912 224.227719 142.940912 
C 221.378344 136.061912 217.201663 129.811067 211.936704 124.546108 
C 206.671746 119.281149 200.4209 115.104468 193.541901 112.255093 
C 186.662901 109.405718 179.289526 107.939063 171.84375 107.939063 
C 164.397974 107.939063 157.024599 109.405718 150.145599 112.255093 
C 143.2666 115.104468 137.015754 119.281149 131.750796 124.546108 
C 126.485837 129.811067 122.309156 136.061912 119.459781 142.940912 
C 116.610405 149.819912 115.14375 157.193287 115.14375 164.639063 
C 115.14375 172.084838 116.610405 179.458213 119.459781 186.337213 
C 122.309156 193.216213 126.485837 199.467058 131.750796 204.732017 
C 137.015754 209.996976 143.2666 214.173657 150.145599 217.023032 
C 157.024599 219.872407 164.397974 221.339063 171.84375 221.339063 
C 179.289526 221.339063 186.662901 219.872407 193.541901 217.023032 
C 200.4209 214.173657 206.671746 209.996976 211.936704 204.732017 
C 217.201663 199.467058 221.378344 193.216213 224.227719 186.337213 
C 227.077095 179.458213 228.54375 172.084838 228.54375 164.639063 
" clip-path="url(#p38f4aed357)" style="fill: none; stroke: #b0b0b0; stroke-width: 0.8; stroke-linecap: square"/>
     </g>
     <g id="text_12">
      <!-- 4 -->
      <g transform="translate(224.227719 140.861224) scale(0.1 -0.1)">
       <use xlink:href="#DejaVuSans-34"/>
      </g>
     </g>
    </g>
    <g id="ytick_4">
     <g id="line2d_12">
      <path d="M 253.74375 164.639063 
C 253.74375 153.884053 251.625248 143.233622 247.509484 133.297289 
C 243.39372 123.360956 237.360735 114.331957 229.755795 106.727017 
C 222.150855 99.122077 213.121856 93.089093 203.185523 88.973329 
C 193.24919 84.857565 182.598759 82.739063 171.84375 82.739063 
C 161.088741 82.739063 150.43831 84.857565 140.501977 88.973329 
C 130.565644 93.089093 121.536645 99.122077 113.931705 106.727017 
C 106.326765 114.331957 100.29378 123.360956 96.178016 133.297289 
C 92.062252 143.233622 89.94375 153.884053 89.94375 164.639063 
C 89.94375 175.394072 92.062252 186.044503 96.178016 195.980836 
C 100.29378 205.917169 106.326765 214.946168 113.931705 222.551108 
C 121.536645 230.156048 130.565644 236.189032 140.501977 240.304796 
C 150.43831 244.42056 161.088741 246.539062 171.84375 246.539062 
C 182.598759 246.539062 193.24919 244.42056 203.185523 240.304796 
C 213.121856 236.189032 222.150855 230.156048 229.755795 222.551108 
C 237.360735 214.946168 243.39372 205.917169 247.509484 195.980836 
C 251.625248 186.044503 253.74375 175.394072 253.74375 164.639063 
" clip-path="url(#p38f4aed357)" style="fill: none; stroke: #b0b0b0; stroke-width: 0.8; stroke-linecap: square"/>
     </g>
     <g id="text_13">
      <!-- 6 -->
      <g transform="translate(247.509484 131.217602) scale(0.1 -0.1)">
       <defs>
        <path id="DejaVuSans-36" d="M 2113 2584 
Q 1688 2584 1439 2293 
Q 1191 2003 1191 1497 
Q 1191 994 1439 701 
Q 1688 409 2113 409 
Q 2538 409 2786 701 
Q 3034 994 3034 1497 
Q 3034 2003 2786 2293 
Q 2538 2584 2113 2584 
z
M 3366 4563 
L 3366 3988 
Q 3128 4100 2886 4159 
Q 2644 4219 2406 4219 
Q 1781 4219 1451 3797 
Q 1122 3375 1075 2522 
Q 1259 2794 1537 2939 
Q 1816 3084 2150 3084 
Q 2853 3084 3261 2657 
Q 3669 2231 3669 1497 
Q 3669 778 3244 343 
Q 2819 -91 2113 -91 
Q 1303 -91 875 529 
Q 447 1150 447 2328 
Q 447 3434 972 4092 
Q 1497 4750 2381 4750 
Q 2619 4750 2861 4703 
Q 3103 4656 3366 4563 
z
" transform="scale(0.015625)"/>
       </defs>
       <use xlink:href="#DejaVuSans-36"/>
      </g>
     </g>
    </g>
    <g id="ytick_5">
     <g id="line2d_13">
      <path d="M 278.94375 164.639063 
C 278.94375 150.574819 276.173401 136.647333 270.791248 123.653667 
C 265.409095 110.660001 257.519808 98.852848 247.574886 88.907926 
C 237.629965 78.963005 225.822812 71.073717 212.829146 65.691565 
C 199.835479 60.309412 185.907993 57.539063 171.84375 57.539063 
C 157.779507 57.539063 143.852021 60.309412 130.858354 65.691565 
C 117.864688 71.073717 106.057535 78.963005 96.112614 88.907926 
C 86.167692 98.852848 78.278405 110.660001 72.896252 123.653667 
C 67.514099 136.647333 64.74375 150.574819 64.74375 164.639063 
C 64.74375 178.703306 67.514099 192.630792 72.896252 205.624458 
C 78.278405 218.618124 86.167692 230.425277 96.112614 240.370199 
C 106.057535 250.31512 117.864688 258.204408 130.858354 263.58656 
C 143.852021 268.968713 157.779507 271.739063 171.84375 271.739063 
C 185.907993 271.739063 199.835479 268.968713 212.829146 263.58656 
C 225.822812 258.204408 237.629965 250.31512 247.574886 240.370199 
C 257.519808 230.425277 265.409095 218.618124 270.791248 205.624458 
C 276.173401 192.630792 278.94375 178.703306 278.94375 164.639063 
" clip-path="url(#p38f4aed357)" style="fill: none; stroke: #b0b0b0; stroke-width: 0.8; stroke-linecap: square"/>
     </g>
     <g id="text_14">
      <!-- 8 -->
      <g transform="translate(270.791248 121.573979) scale(0.1 -0.1)">
       <use xlink:href="#DejaVuSans-38"/>
      </g>
     </g>
    </g>
    <g id="ytick_6">
     <g id="line2d_14">
      <path d="M 304.14375 164.639063 
C 304.14375 147.265586 300.721554 130.061044 294.073012 114.010044 
C 287.42447 97.959045 277.67888 83.373739 265.393977 71.088835 
C 253.109074 58.803932 238.523768 49.058342 222.472768 42.4098 
C 206.421768 35.761259 189.217227 32.339063 171.84375 32.339063 
C 154.470273 32.339063 137.265732 35.761259 121.214732 42.4098 
C 105.163732 49.058342 90.578426 58.803932 78.293523 71.088835 
C 66.00862 83.373739 56.26303 97.959045 49.614488 114.010044 
C 42.965946 130.061044 39.54375 147.265586 39.54375 164.639062 
C 39.54375 182.012539 42.965946 199.217081 49.614488 215.268081 
C 56.26303 231.31908 66.00862 245.904386 78.293523 258.18929 
C 90.578426 270.474193 105.163732 280.219783 121.214732 286.868325 
C 137.265732 293.516866 154.470273 296.939062 171.84375 296.939062 
C 189.217227 296.939062 206.421768 293.516866 222.472768 286.868325 
C 238.523768 280.219783 253.109074 270.474193 265.393977 258.18929 
C 277.67888 245.904386 287.42447 231.31908 294.073012 215.268081 
C 300.721554 199.217081 304.14375 182.012539 304.14375 164.639063 
" clip-path="url(#p38f4aed357)" style="fill: none; stroke: #b0b0b0; stroke-width: 0.8; stroke-linecap: square"/>
     </g>
     <g id="text_15">
      <!-- 10 -->
      <g transform="translate(294.073012 111.930357) scale(0.1 -0.1)">
       <use xlink:href="#DejaVuSans-31"/>
       <use xlink:href="#DejaVuSans-30" x="63.623047"/>
      </g>
     </g>
    </g>
    <g id="text_16">
     <!-- [m] -->
     <g transform="translate(27.164062 173.410938) rotate(-90) scale(0.1 -0.1)">
      <defs>
       <path id="DejaVuSans-6d" d="M 3328 2828 
Q 3544 3216 3844 3400 
Q 4144 3584 4550 3584 
Q 5097 3584 5394 3201 
Q 5691 2819 5691 2113 
L 5691 0 
L 5113 0 
L 5113 2094 
Q 5113 2597 4934 2840 
Q 4756 3084 4391 3084 
Q 3944 3084 3684 2787 
Q 3425 2491 3425 1978 
L 3425 0 
L 2847 0 
L 2847 2094 
Q 2847 2600 2669 2842 
Q 2491 3084 2119 3084 
Q 1678 3084 1418 2786 
Q 1159 2488 1159 1978 
L 1159 0 
L 581 0 
L 581 3500 
L 1159 3500 
L 1159 2956 
Q 1356 3278 1631 3431 
Q 1906 3584 2284 3584 
Q 2666 3584 2933 3390 
Q 3200 3197 3328 2828 
z
" transform="scale(0.015625)"/>
      </defs>
      <use xlink:href="#DejaVuSans-5b"/>
      <use xlink:href="#DejaVuSans-6d" x="39.013672"/>
      <use xlink:href="#DejaVuSans-5d" x="136.425781"/>
     </g>
    </g>
   </g>
   <g id="patch_3">
    <path d="M 310.44375 164.639063 
C 310.44375 146.438277 306.858592 128.414472 299.893453 111.599139 
C 292.928314 94.783806 282.718649 79.503961 269.84875 66.634063 
C 256.978851 53.764164 241.699007 43.554498 224.883674 36.589359 
C 208.068341 29.62422 190.044535 26.039063 171.84375 26.039063 
C 153.642965 26.039063 135.619159 29.62422 118.803826 36.589359 
C 101.988493 43.554498 86.708649 53.764164 73.83875 66.634063 
C 60.968851 79.503961 50.759186 94.783806 43.794047 111.599139 
C 36.828908 128.414472 33.24375 146.438277 33.24375 164.639062 
C 33.24375 182.839848 36.828908 200.863653 43.794047 217.678986 
C 50.759186 234.494319 60.968851 249.774164 73.83875 262.644062 
C 86.708649 275.513961 101.988493 285.723627 118.803826 292.688766 
C 135.619159 299.653905 153.642965 303.239063 171.84375 303.239063 
C 190.044535 303.239063 208.068341 299.653905 224.883674 292.688766 
C 241.699007 285.723627 256.978851 275.513961 269.84875 262.644062 
C 282.718649 249.774164 292.928314 234.494319 299.893453 217.678986 
C 306.858592 200.863653 310.44375 182.839848 310.44375 164.639063 
" style="fill: none; stroke: #000000; stroke-width: 0.8; stroke-linejoin: miter; stroke-linecap: square"/>
   </g>
   <g id="line2d_15">
    <defs>
     <path id="m298f7b7e46" d="M 0 3 
C 0.795609 3 1.55874 2.683901 2.12132 2.12132 
C 2.683901 1.55874 3 0.795609 3 0 
C 3 -0.795609 2.683901 -1.55874 2.12132 -2.12132 
C 1.55874 -2.683901 0.795609 -3 0 -3 
C -0.795609 -3 -1.55874 -2.683901 -2.12132 -2.12132 
C -2.683901 -1.55874 -3 -0.795609 -3 0 
C -3 0.795609 -2.683901 1.55874 -2.12132 2.12132 
C -1.55874 2.683901 -0.795609 3 0 3 
z
" style="stroke: #1f77b4"/>
    </defs>
    <g clip-path="url(#p38f4aed357)">
     <use xlink:href="#m298f7b7e46" x="178.14375" y="164.639063" style="fill: #1f77b4; stroke: #1f77b4"/>
     <use xlink:href="#m298f7b7e46" x="178.966226" y="164.064197" style="fill: #1f77b4; stroke: #1f77b4"/>
     <use xlink:href="#m298f7b7e46" x="179.731583" y="163.357436" style="fill: #1f77b4; stroke: #1f77b4"/>
     <use xlink:href="#m298f7b7e46" x="180.423984" y="162.524682" style="fill: #1f77b4; stroke: #1f77b4"/>
     <use xlink:href="#m298f7b7e46" x="181.028207" y="161.573524" style="fill: #1f77b4; stroke: #1f77b4"/>
     <use xlink:href="#m298f7b7e46" x="181.529812" y="160.513175" style="fill: #1f77b4; stroke: #1f77b4"/>
     <use xlink:href="#m298f7b7e46" x="181.915303" y="159.354394" style="fill: #1f77b4; stroke: #1f77b4"/>
     <use xlink:href="#m298f7b7e46" x="182.172285" y="158.109388" style="fill: #1f77b4; stroke: #1f77b4"/>
     <use xlink:href="#m298f7b7e46" x="182.289602" y="156.791704" style="fill: #1f77b4; stroke: #1f77b4"/>
     <use xlink:href="#m298f7b7e46" x="182.257477" y="155.416106" style="fill: #1f77b4; stroke: #1f77b4"/>
     <use xlink:href="#m298f7b7e46" x="182.067633" y="153.99844" style="fill: #1f77b4; stroke: #1f77b4"/>
     <use xlink:href="#m298f7b7e46" x="181.713397" y="152.555483" style="fill: #1f77b4; stroke: #1f77b4"/>
     <use xlink:href="#m298f7b7e46" x="181.1898" y="151.104789" style="fill: #1f77b4; stroke: #1f77b4"/>
     <use xlink:href="#m298f7b7e46" x="180.493654" y="149.664518" style="fill: #1f77b4; stroke: #1f77b4"/>
     <use xlink:href="#m298f7b7e46" x="179.623614" y="148.253265" style="fill: #1f77b4; stroke: #1f77b4"/>
     <use xlink:href="#m298f7b7e46" x="178.580227" y="146.889879" style="fill: #1f77b4; stroke: #1f77b4"/>
     <use xlink:href="#m298f7b7e46" x="177.365961" y="145.593274" style="fill: #1f77b4; stroke: #1f77b4"/>
     <use xlink:href="#m298f7b7e46" x="175.985216" y="144.382247" style="fill: #1f77b4; stroke: #1f77b4"/>
     <use xlink:href="#m298f7b7e46" x="174.444317" y="143.275285" style="fill: #1f77b4; stroke: #1f77b4"/>
     <use xlink:href="#m298f7b7e46" x="172.751493" y="142.290376" style="fill: #1f77b4; stroke: #1f77b4"/>
     <use xlink:href="#m298f7b7e46" x="170.916834" y="141.444825" style="fill: #1f77b4; stroke: #1f77b4"/>
     <use xlink:href="#m298f7b7e46" x="168.95223" y="140.755068" style="fill: #1f77b4; stroke: #1f77b4"/>
     <use xlink:href="#m298f7b7e46" x="166.871294" y="140.236496" style="fill: #1f77b4; stroke: #1f77b4"/>
     <use xlink:href="#m298f7b7e46" x="164.68927" y="139.903286" style="fill: #1f77b4; stroke: #1f77b4"/>
     <use xlink:href="#m298f7b7e46" x="162.42292" y="139.768235" style="fill: #1f77b4; stroke: #1f77b4"/>
     <use xlink:href="#m298f7b7e46" x="160.090403" y="139.842611" style="fill: #1f77b4; stroke: #1f77b4"/>
     <use xlink:href="#m298f7b7e46" x="157.711128" y="140.136013" style="fill: #1f77b4; stroke: #1f77b4"/>
     <use xlink:href="#m298f7b7e46" x="155.305607" y="140.65624" style="fill: #1f77b4; stroke: #1f77b4"/>
     <use xlink:href="#m298f7b7e46" x="152.895285" y="141.409183" style="fill: #1f77b4; stroke: #1f77b4"/>
     <use xlink:href="#m298f7b7e46" x="150.502365" y="142.39872" style="fill: #1f77b4; stroke: #1f77b4"/>
     <use xlink:href="#m298f7b7e46" x="148.14962" y="143.626641" style="fill: #1f77b4; stroke: #1f77b4"/>
     <use xlink:href="#m298f7b7e46" x="145.860199" y="145.092578" style="fill: #1f77b4; stroke: #1f77b4"/>
     <use xlink:href="#m298f7b7e46" x="143.657426" y="146.793961" style="fill: #1f77b4; stroke: #1f77b4"/>
     <use xlink:href="#m298f7b7e46" x="141.564594" y="148.725989" style="fill: #1f77b4; stroke: #1f77b4"/>
     <use xlink:href="#m298f7b7e46" x="139.604754" y="150.881618" style="fill: #1f77b4; stroke: #1f77b4"/>
     <use xlink:href="#m298f7b7e46" x="137.800506" y="153.251578" style="fill: #1f77b4; stroke: #1f77b4"/>
     <use xlink:href="#m298f7b7e46" x="136.173788" y="155.824394" style="fill: #1f77b4; stroke: #1f77b4"/>
     <use xlink:href="#m298f7b7e46" x="134.745665" y="158.586443" style="fill: #1f77b4; stroke: #1f77b4"/>
     <use xlink:href="#m298f7b7e46" x="133.536128" y="161.522016" style="fill: #1f77b4; stroke: #1f77b4"/>
     <use xlink:href="#m298f7b7e46" x="132.563893" y="164.613411" style="fill: #1f77b4; stroke: #1f77b4"/>
     <use xlink:href="#m298f7b7e46" x="131.846208" y="167.841034" style="fill: #1f77b4; stroke: #1f77b4"/>
     <use xlink:href="#m298f7b7e46" x="131.398672" y="171.18353" style="fill: #1f77b4; stroke: #1f77b4"/>
     <use xlink:href="#m298f7b7e46" x="131.235063" y="174.617915" style="fill: #1f77b4; stroke: #1f77b4"/>
     <use xlink:href="#m298f7b7e46" x="131.367177" y="178.119743" style="fill: #1f77b4; stroke: #1f77b4"/>
     <use xlink:href="#m298f7b7e46" x="131.804681" y="181.663271" style="fill: #1f77b4; stroke: #1f77b4"/>
     <use xlink:href="#m298f7b7e46" x="132.554986" y="185.221651" style="fill: #1f77b4; stroke: #1f77b4"/>
     <use xlink:href="#m298f7b7e46" x="133.623129" y="188.767126" style="fill: #1f77b4; stroke: #1f77b4"/>
     <use xlink:href="#m298f7b7e46" x="135.011676" y="192.271241" style="fill: #1f77b4; stroke: #1f77b4"/>
     <use xlink:href="#m298f7b7e46" x="136.720648" y="195.705064" style="fill: #1f77b4; stroke: #1f77b4"/>
     <use xlink:href="#m298f7b7e46" x="138.747456" y="199.039413" style="fill: #1f77b4; stroke: #1f77b4"/>
     <use xlink:href="#m298f7b7e46" x="141.086869" y="202.245089" style="fill: #1f77b4; stroke: #1f77b4"/>
     <use xlink:href="#m298f7b7e46" x="143.730992" y="205.293118" style="fill: #1f77b4; stroke: #1f77b4"/>
     <use xlink:href="#m298f7b7e46" x="146.669272" y="208.154987" style="fill: #1f77b4; stroke: #1f77b4"/>
     <use xlink:href="#m298f7b7e46" x="149.888526" y="210.802891" style="fill: #1f77b4; stroke: #1f77b4"/>
     <use xlink:href="#m298f7b7e46" x="153.372982" y="213.209966" style="fill: #1f77b4; stroke: #1f77b4"/>
     <use xlink:href="#m298f7b7e46" x="157.104357" y="215.350535" style="fill: #1f77b4; stroke: #1f77b4"/>
     <use xlink:href="#m298f7b7e46" x="161.061938" y="217.200333" style="fill: #1f77b4; stroke: #1f77b4"/>
     <use xlink:href="#m298f7b7e46" x="165.222702" y="218.736734" style="fill: #1f77b4; stroke: #1f77b4"/>
     <use xlink:href="#m298f7b7e46" x="169.561443" y="219.938965" style="fill: #1f77b4; stroke: #1f77b4"/>
     <use xlink:href="#m298f7b7e46" x="174.050927" y="220.788316" style="fill: #1f77b4; stroke: #1f77b4"/>
     <use xlink:href="#m298f7b7e46" x="178.66206" y="221.268323" style="fill: #1f77b4; stroke: #1f77b4"/>
     <use xlink:href="#m298f7b7e46" x="183.364079" y="221.364956" style="fill: #1f77b4; stroke: #1f77b4"/>
     <use xlink:href="#m298f7b7e46" x="188.124757" y="221.066773" style="fill: #1f77b4; stroke: #1f77b4"/>
     <use xlink:href="#m298f7b7e46" x="192.91062" y="220.365067" style="fill: #1f77b4; stroke: #1f77b4"/>
     <use xlink:href="#m298f7b7e46" x="197.687185" y="219.253993" style="fill: #1f77b4; stroke: #1f77b4"/>
     <use xlink:href="#m298f7b7e46" x="202.419203" y="217.730669" style="fill: #1f77b4; stroke: #1f77b4"/>
     <use xlink:href="#m298f7b7e46" x="207.070918" y="215.795266" style="fill: #1f77b4; stroke: #1f77b4"/>
     <use xlink:href="#m298f7b7e46" x="211.60633" y="213.451064" style="fill: #1f77b4; stroke: #1f77b4"/>
     <use xlink:href="#m298f7b7e46" x="215.989464" y="210.704496" style="fill: #1f77b4; stroke: #1f77b4"/>
     <use xlink:href="#m298f7b7e46" x="220.184651" y="207.565157" style="fill: #1f77b4; stroke: #1f77b4"/>
     <use xlink:href="#m298f7b7e46" x="224.156804" y="204.045801" style="fill: #1f77b4; stroke: #1f77b4"/>
     <use xlink:href="#m298f7b7e46" x="227.871693" y="200.162305" style="fill: #1f77b4; stroke: #1f77b4"/>
     <use xlink:href="#m298f7b7e46" x="231.296229" y="195.933611" style="fill: #1f77b4; stroke: #1f77b4"/>
     <use xlink:href="#m298f7b7e46" x="234.398729" y="191.381642" style="fill: #1f77b4; stroke: #1f77b4"/>
     <use xlink:href="#m298f7b7e46" x="237.149189" y="186.5312" style="fill: #1f77b4; stroke: #1f77b4"/>
     <use xlink:href="#m298f7b7e46" x="239.519542" y="181.409831" style="fill: #1f77b4; stroke: #1f77b4"/>
     <use xlink:href="#m298f7b7e46" x="241.483901" y="176.047674" style="fill: #1f77b4; stroke: #1f77b4"/>
     <use xlink:href="#m298f7b7e46" x="243.018802" y="170.477285" style="fill: #1f77b4; stroke: #1f77b4"/>
     <use xlink:href="#m298f7b7e46" x="244.10342" y="164.733442" style="fill: #1f77b4; stroke: #1f77b4"/>
     <use xlink:href="#m298f7b7e46" x="244.719779" y="158.852924" style="fill: #1f77b4; stroke: #1f77b4"/>
     <use xlink:href="#m298f7b7e46" x="244.852936" y="152.87428" style="fill: #1f77b4; stroke: #1f77b4"/>
     <use xlink:href="#m298f7b7e46" x="244.491152" y="146.837573" style="fill: #1f77b4; stroke: #1f77b4"/>
     <use xlink:href="#m298f7b7e46" x="243.626034" y="140.784114" style="fill: #1f77b4; stroke: #1f77b4"/>
     <use xlink:href="#m298f7b7e46" x="242.252664" y="134.75618" style="fill: #1f77b4; stroke: #1f77b4"/>
     <use xlink:href="#m298f7b7e46" x="240.369697" y="128.796718" style="fill: #1f77b4; stroke: #1f77b4"/>
     <use xlink:href="#m298f7b7e46" x="237.979436" y="122.949045" style="fill: #1f77b4; stroke: #1f77b4"/>
     <use xlink:href="#m298f7b7e46" x="235.08788" y="117.256533" style="fill: #1f77b4; stroke: #1f77b4"/>
     <use xlink:href="#m298f7b7e46" x="231.70475" y="111.762295" style="fill: #1f77b4; stroke: #1f77b4"/>
     <use xlink:href="#m298f7b7e46" x="227.843483" y="106.508864" style="fill: #1f77b4; stroke: #1f77b4"/>
     <use xlink:href="#m298f7b7e46" x="223.521196" y="101.537875" style="fill: #1f77b4; stroke: #1f77b4"/>
     <use xlink:href="#m298f7b7e46" x="218.758634" y="96.889742" style="fill: #1f77b4; stroke: #1f77b4"/>
     <use xlink:href="#m298f7b7e46" x="213.580076" y="92.603346" style="fill: #1f77b4; stroke: #1f77b4"/>
     <use xlink:href="#m298f7b7e46" x="208.013225" y="88.715724" style="fill: #1f77b4; stroke: #1f77b4"/>
     <use xlink:href="#m298f7b7e46" x="202.089062" y="85.261771" style="fill: #1f77b4; stroke: #1f77b4"/>
     <use xlink:href="#m298f7b7e46" x="195.841683" y="82.27395" style="fill: #1f77b4; stroke: #1f77b4"/>
     <use xlink:href="#m298f7b7e46" x="189.308101" y="79.782015" style="fill: #1f77b4; stroke: #1f77b4"/>
     <use xlink:href="#m298f7b7e46" x="182.528033" y="77.812754" style="fill: #1f77b4; stroke: #1f77b4"/>
     <use xlink:href="#m298f7b7e46" x="175.543659" y="76.389743" style="fill: #1f77b4; stroke: #1f77b4"/>
     <use xlink:href="#m298f7b7e46" x="168.399355" y="75.533126" style="fill: #1f77b4; stroke: #1f77b4"/>
     <use xlink:href="#m298f7b7e46" x="161.14142" y="75.25941" style="fill: #1f77b4; stroke: #1f77b4"/>
     <use xlink:href="#m298f7b7e46" x="153.817766" y="75.581292" style="fill: #1f77b4; stroke: #1f77b4"/>
     <use xlink:href="#m298f7b7e46" x="146.47761" y="76.5075" style="fill: #1f77b4; stroke: #1f77b4"/>
     <use xlink:href="#m298f7b7e46" x="139.171141" y="78.042672" style="fill: #1f77b4; stroke: #1f77b4"/>
     <use xlink:href="#m298f7b7e46" x="131.949175" y="80.187252" style="fill: #1f77b4; stroke: #1f77b4"/>
     <use xlink:href="#m298f7b7e46" x="124.862806" y="82.937425" style="fill: #1f77b4; stroke: #1f77b4"/>
     <use xlink:href="#m298f7b7e46" x="117.963048" y="86.285069" style="fill: #1f77b4; stroke: #1f77b4"/>
     <use xlink:href="#m298f7b7e46" x="111.300469" y="90.217754" style="fill: #1f77b4; stroke: #1f77b4"/>
     <use xlink:href="#m298f7b7e46" x="104.924826" y="94.718754" style="fill: #1f77b4; stroke: #1f77b4"/>
     <use xlink:href="#m298f7b7e46" x="98.884699" y="99.767104" style="fill: #1f77b4; stroke: #1f77b4"/>
     <use xlink:href="#m298f7b7e46" x="93.227133" y="105.33768" style="fill: #1f77b4; stroke: #1f77b4"/>
     <use xlink:href="#m298f7b7e46" x="87.997276" y="111.401313" style="fill: #1f77b4; stroke: #1f77b4"/>
     <use xlink:href="#m298f7b7e46" x="83.238038" y="117.924935" style="fill: #1f77b4; stroke: #1f77b4"/>
     <use xlink:href="#m298f7b7e46" x="78.989748" y="124.871751" style="fill: #1f77b4; stroke: #1f77b4"/>
     <use xlink:href="#m298f7b7e46" x="75.289834" y="132.20144" style="fill: #1f77b4; stroke: #1f77b4"/>
     <use xlink:href="#m298f7b7e46" x="72.172519" y="139.870391" style="fill: #1f77b4; stroke: #1f77b4"/>
     <use xlink:href="#m298f7b7e46" x="69.668527" y="147.831956" style="fill: #1f77b4; stroke: #1f77b4"/>
     <use xlink:href="#m298f7b7e46" x="67.804821" y="156.036735" style="fill: #1f77b4; stroke: #1f77b4"/>
     <use xlink:href="#m298f7b7e46" x="66.604355" y="164.43288" style="fill: #1f77b4; stroke: #1f77b4"/>
     <use xlink:href="#m298f7b7e46" x="66.085856" y="172.966425" style="fill: #1f77b4; stroke: #1f77b4"/>
     <use xlink:href="#m298f7b7e46" x="66.263634" y="181.581629" style="fill: #1f77b4; stroke: #1f77b4"/>
     <use xlink:href="#m298f7b7e46" x="67.147413" y="190.221344" style="fill: #1f77b4; stroke: #1f77b4"/>
     <use xlink:href="#m298f7b7e46" x="68.742202" y="198.827391" style="fill: #1f77b4; stroke: #1f77b4"/>
     <use xlink:href="#m298f7b7e46" x="71.048192" y="207.340954" style="fill: #1f77b4; stroke: #1f77b4"/>
     <use xlink:href="#m298f7b7e46" x="74.060684" y="215.702977" style="fill: #1f77b4; stroke: #1f77b4"/>
     <use xlink:href="#m298f7b7e46" x="77.770057" y="223.854576" style="fill: #1f77b4; stroke: #1f77b4"/>
     <use xlink:href="#m298f7b7e46" x="82.161763" y="231.73745" style="fill: #1f77b4; stroke: #1f77b4"/>
     <use xlink:href="#m298f7b7e46" x="87.21636" y="239.29429" style="fill: #1f77b4; stroke: #1f77b4"/>
     <use xlink:href="#m298f7b7e46" x="92.909581" y="246.469199" style="fill: #1f77b4; stroke: #1f77b4"/>
     <use xlink:href="#m298f7b7e46" x="99.212436" y="253.208091" style="fill: #1f77b4; stroke: #1f77b4"/>
     <use xlink:href="#m298f7b7e46" x="106.091347" y="259.459095" style="fill: #1f77b4; stroke: #1f77b4"/>
     <use xlink:href="#m298f7b7e46" x="113.508321" y="265.172945" style="fill: #1f77b4; stroke: #1f77b4"/>
     <use xlink:href="#m298f7b7e46" x="121.421152" y="270.303353" style="fill: #1f77b4; stroke: #1f77b4"/>
     <use xlink:href="#m298f7b7e46" x="129.783654" y="274.80737" style="fill: #1f77b4; stroke: #1f77b4"/>
     <use xlink:href="#m298f7b7e46" x="138.545932" y="278.645731" style="fill: #1f77b4; stroke: #1f77b4"/>
     <use xlink:href="#m298f7b7e46" x="147.654677" y="281.783167" style="fill: #1f77b4; stroke: #1f77b4"/>
     <use xlink:href="#m298f7b7e46" x="157.053483" y="284.18871" style="fill: #1f77b4; stroke: #1f77b4"/>
     <use xlink:href="#m298f7b7e46" x="166.683203" y="285.835956" style="fill: #1f77b4; stroke: #1f77b4"/>
     <use xlink:href="#m298f7b7e46" x="176.482318" y="286.703308" style="fill: #1f77b4; stroke: #1f77b4"/>
     <use xlink:href="#m298f7b7e46" x="186.387326" y="286.774189" style="fill: #1f77b4; stroke: #1f77b4"/>
     <use xlink:href="#m298f7b7e46" x="196.333162" y="286.037217" style="fill: #1f77b4; stroke: #1f77b4"/>
     <use xlink:href="#m298f7b7e46" x="206.253616" y="284.486353" style="fill: #1f77b4; stroke: #1f77b4"/>
     <use xlink:href="#m298f7b7e46" x="216.081782" y="282.121008" style="fill: #1f77b4; stroke: #1f77b4"/>
     <use xlink:href="#m298f7b7e46" x="225.7505" y="278.946116" style="fill: #1f77b4; stroke: #1f77b4"/>
     <use xlink:href="#m298f7b7e46" x="235.192822" y="274.97217" style="fill: #1f77b4; stroke: #1f77b4"/>
     <use xlink:href="#m298f7b7e46" x="244.342468" y="270.215219" style="fill: #1f77b4; stroke: #1f77b4"/>
     <use xlink:href="#m298f7b7e46" x="253.134291" y="264.696829" style="fill: #1f77b4; stroke: #1f77b4"/>
     <use xlink:href="#m298f7b7e46" x="261.504737" y="258.444" style="fill: #1f77b4; stroke: #1f77b4"/>
     <use xlink:href="#m298f7b7e46" x="269.392297" y="251.489048" style="fill: #1f77b4; stroke: #1f77b4"/>
     <use xlink:href="#m298f7b7e46" x="276.737957" y="243.869452" style="fill: #1f77b4; stroke: #1f77b4"/>
     <use xlink:href="#m298f7b7e46" x="283.485629" y="235.62766" style="fill: #1f77b4; stroke: #1f77b4"/>
    </g>
   </g>
  </g>
 </g>
 <defs>
  <clipPath id="p38f4aed357">
   <path d="M 310.44375 164.639062 
C 310.44375 146.438277 306.858592 128.414472 299.893453 111.599139 
C 292.928314 94.783806 282.718649 79.503961 269.84875 66.634063 
C 256.978851 53.764164 241.699007 43.554498 224.883674 36.589359 
C 208.068341 29.62422 190.044535 26.039062 171.84375 26.039062 
C 153.642965 26.039062 135.619159 29.62422 118.803826 36.589359 
C 101.988493 43.554498 86.708649 53.764164 73.83875 66.634063 
C 60.968851 79.503961 50.759186 94.783806 43.794047 111.599139 
C 36.828908 128.414472 33.24375 146.438277 33.24375 164.639062 
C 33.24375 182.839848 36.828908 200.863653 43.794047 217.678986 
C 50.759186 234.494319 60.968851 249.774164 73.83875 262.644062 
C 86.708649 275.513961 101.988493 285.723627 118.803826 292.688766 
C 135.619159 299.653905 153.642965 303.239062 171.84375 303.239062 
C 190.044535 303.239062 208.068341 299.653905 224.883674 292.688766 
C 241.699007 285.723627 256.978851 275.513961 269.84875 262.644062 
C 282.718649 249.774164 292.928314 234.494319 299.893453 217.678986 
C 306.858592 200.863653 310.44375 182.839848 310.44375 164.639063 
M 171.84375 164.639062 
C 171.84375 164.639062 171.84375 164.639062 171.84375 164.639062 
C 171.84375 164.639062 171.84375 164.639062 171.84375 164.639062 
C 171.84375 164.639062 171.84375 164.639062 171.84375 164.639062 
C 171.84375 164.639062 171.84375 164.639062 171.84375 164.639062 
C 171.84375 164.639062 171.84375 164.639062 171.84375 164.639062 
C 171.84375 164.639062 171.84375 164.639062 171.84375 164.639062 
C 171.84375 164.639062 171.84375 164.639062 171.84375 164.639062 
C 171.84375 164.639062 171.84375 164.639062 171.84375 164.639062 
C 171.84375 164.639062 171.84375 164.639062 171.84375 164.639062 
C 171.84375 164.639062 171.84375 164.639062 171.84375 164.639062 
C 171.84375 164.639062 171.84375 164.639062 171.84375 164.639062 
C 171.84375 164.639062 171.84375 164.639062 171.84375 164.639062 
C 171.84375 164.639062 171.84375 164.639062 171.84375 164.639062 
C 171.84375 164.639062 171.84375 164.639062 171.84375 164.639062 
C 171.84375 164.639062 171.84375 164.639062 171.84375 164.639062 
C 171.84375 164.639062 171.84375 164.639062 171.84375 164.639062 
z
"/>
  </clipPath>
 </defs>
</svg>
