<?xml version="1.0" encoding="UTF-8" standalone="no"?>
<!DOCTYPE svg PUBLIC "-//W3C//DTD SVG 1.1//EN"
 "http://www.w3.org/Graphics/SVG/1.1/DTD/svg11.dtd">
<!-- Generated by graphviz version 2.43.0 (0)
 -->
<!-- Title: %3 Pages: 1 -->
<svg width="612pt" height="249pt"
 viewBox="0.00 0.00 612.00 248.53" xmlns="http://www.w3.org/2000/svg" xmlns:xlink="http://www.w3.org/1999/xlink">
<g id="graph0" class="graph" transform="scale(1 1) rotate(0) translate(4 244.53)">
<title>%3</title>
<polygon fill="white" stroke="transparent" points="-4,4 -4,-244.53 608,-244.53 608,4 -4,4"/>
<!-- e6798370427b4d029652cac237e95122 -->
<g id="node1" class="node">
<title>e6798370427b4d029652cac237e95122</title>
<polygon fill="none" stroke="black" points="525,-92.53 366,-92.53 366,-69.53 525,-69.53 525,-92.53"/>
<text text-anchor="middle" x="445.5" y="-77.33" font-family="Times,serif" font-size="14.00">_preprocess_scatter</text>
</g>
<!-- c749a4726b2a4b608a5b5b3eab96d853 -->
<g id="node5" class="node">
<title>c749a4726b2a4b608a5b5b3eab96d853</title>
<ellipse fill="lightgrey" stroke="lightgrey" cx="445.5" cy="-16.26" rx="84.71" ry="16.03"/>
<text text-anchor="middle" x="445.5" y="-12.56" font-family="Times,serif" font-size="14.00">GraphicalView</text>
</g>
<!-- e6798370427b4d029652cac237e95122&#45;&gt;c749a4726b2a4b608a5b5b3eab96d853 -->
<g id="edge3" class="edge">
<title>e6798370427b4d029652cac237e95122&#45;&gt;c749a4726b2a4b608a5b5b3eab96d853</title>
<path fill="none" stroke="black" d="M445.5,-69.38C445.5,-62.06 445.5,-52.02 445.5,-42.7"/>
<polygon fill="black" stroke="black" points="449,-42.68 445.5,-32.68 442,-42.68 449,-42.68"/>
</g>
<!-- 956461e0e42d4feba0d6de520eeab0c0 -->
<g id="node2" class="node">
<title>956461e0e42d4feba0d6de520eeab0c0</title>
<polygon fill="none" stroke="black" points="425,-166.53 0,-166.53 0,-143.53 425,-143.53 425,-166.53"/>
<text text-anchor="middle" x="212.5" y="-151.33" font-family="Times,serif" font-size="14.00">&lt;__main__.DataGen object at 0x7f1ee990ff90&gt;(iteration)</text>
</g>
<!-- 956461e0e42d4feba0d6de520eeab0c0&#45;&gt;e6798370427b4d029652cac237e95122 -->
<g id="edge1" class="edge">
<title>956461e0e42d4feba0d6de520eeab0c0&#45;&gt;e6798370427b4d029652cac237e95122</title>
<path fill="none" stroke="black" d="M246.88,-143.4C287.95,-130.71 356.73,-109.46 401.61,-95.59"/>
<polygon fill="black" stroke="black" points="402.84,-98.87 411.36,-92.58 400.77,-92.19 402.84,-98.87"/>
<text text-anchor="middle" x="370.5" y="-114.33" font-family="Times,serif" font-size="14.00">arg_0</text>
</g>
<!-- 0e713755e63f42f5b49e040e08eded51 -->
<g id="node3" class="node">
<title>0e713755e63f42f5b49e040e08eded51</title>
<polygon fill="none" stroke="black" points="604,-166.53 443,-166.53 443,-143.53 604,-143.53 604,-166.53"/>
<text text-anchor="middle" x="523.5" y="-151.33" font-family="Times,serif" font-size="14.00">Input &lt;str=&#39;None&#39;&gt;</text>
</g>
<!-- 0e713755e63f42f5b49e040e08eded51&#45;&gt;e6798370427b4d029652cac237e95122 -->
<g id="edge2" class="edge">
<title>0e713755e63f42f5b49e040e08eded51&#45;&gt;e6798370427b4d029652cac237e95122</title>
<path fill="none" stroke="black" d="M511.99,-143.4C499.55,-131.92 479.51,-113.42 464.68,-99.73"/>
<polygon fill="black" stroke="black" points="466.78,-96.91 457.06,-92.69 462.03,-102.05 466.78,-96.91"/>
<text text-anchor="middle" x="510.5" y="-114.33" font-family="Times,serif" font-size="14.00">name</text>
</g>
<!-- b5afd5284449408dac03c6925ae8c19d -->
<g id="node4" class="node">
<title>b5afd5284449408dac03c6925ae8c19d</title>
<polygon fill="none" stroke="black" points="290,-240.53 135,-240.53 135,-217.53 290,-217.53 290,-240.53"/>
<text text-anchor="middle" x="212.5" y="-225.33" font-family="Times,serif" font-size="14.00">Widget &lt;Play: int&gt;</text>
</g>
<!-- b5afd5284449408dac03c6925ae8c19d&#45;&gt;956461e0e42d4feba0d6de520eeab0c0 -->
<g id="edge4" class="edge">
<title>b5afd5284449408dac03c6925ae8c19d&#45;&gt;956461e0e42d4feba0d6de520eeab0c0</title>
<path fill="none" stroke="black" d="M212.5,-217.4C212.5,-206.77 212.5,-190.12 212.5,-176.85"/>
<polygon fill="black" stroke="black" points="216,-176.69 212.5,-166.69 209,-176.69 216,-176.69"/>
<text text-anchor="middle" x="243.5" y="-188.33" font-family="Times,serif" font-size="14.00">iteration</text>
</g>
</g>
</svg>
