<?xml version="1.0" encoding="utf-8" standalone="no"?>
<!DOCTYPE svg PUBLIC "-//W3C//DTD SVG 1.1//EN"
  "http://www.w3.org/Graphics/SVG/1.1/DTD/svg11.dtd">
<svg xmlns:xlink="http://www.w3.org/1999/xlink" width="305.943642pt" height="296.454305pt" viewBox="0 0 305.943642 296.454305" xmlns="http://www.w3.org/2000/svg" version="1.1">
 <metadata>
  <rdf:RDF xmlns:dc="http://purl.org/dc/elements/1.1/" xmlns:cc="http://creativecommons.org/ns#" xmlns:rdf="http://www.w3.org/1999/02/22-rdf-syntax-ns#">
   <cc:Work>
    <dc:type rdf:resource="http://purl.org/dc/dcmitype/StillImage"/>
    <dc:date>2026-02-18T13:46:22.187948</dc:date>
    <dc:format>image/svg+xml</dc:format>
    <dc:creator>
     <cc:Agent>
      <dc:title>Matplotlib v3.10.7, https://matplotlib.org/</dc:title>
     </cc:Agent>
    </dc:creator>
   </cc:Work>
  </rdf:RDF>
 </metadata>
 <defs>
  <style type="text/css">*{stroke-linejoin: round; stroke-linecap: butt}</style>
 </defs>
 <g id="figure_1">
  <g id="patch_1">
   <path d="M 0 296.454305 
L 305.943642 296.454305 
L 305.943642 0 
L 0 0 
z
" style="fill: #ffffff"/>
  </g>
  <g id="axes_1">
   <g id="patch_2">
    <path d="M 33.340316 23.379775 
C 32.631642 63.979632 35.824902 104.553843 42.876067 144.542988 
C 49.927233 184.532133 60.803747 223.751579 75.355651 261.660585 
L 298.743642 175.90997 
C 289.683594 152.307737 282.911852 127.889622 278.521781 102.992291 
C 274.131709 78.09496 272.143579 52.833365 272.5848 27.555803 
z
" style="fill: #ffffff"/>
   </g>
   <g id="matplotlib.axis_1">
    <g id="xtick_1">
     <g id="line2d_1">
      <path d="M 272.524678 34.445098 
L 33.24375 34.445098 
" clip-path="url(#p619d6cb41a)" style="fill: none; stroke: #b0b0b0; stroke-width: 0.8; stroke-linecap: square"/>
     </g>
     <g id="text_1">
      <!-- 180° -->
      <g transform="translate(7.2 37.204473) scale(0.1 -0.1)">
       <defs>
        <path id="DejaVuSans-31" d="M 794 531 
L 1825 531 
L 1825 4091 
L 703 3866 
L 703 4441 
L 1819 4666 
L 2450 4666 
L 2450 531 
L 3481 531 
L 3481 0 
L 794 0 
L 794 531 
z
" transform="scale(0.015625)"/>
        <path id="DejaVuSans-38" d="M 2034 2216 
Q 1584 2216 1326 1975 
Q 1069 1734 1069 1313 
Q 1069 891 1326 650 
Q 1584 409 2034 409 
Q 2484 409 2743 651 
Q 3003 894 3003 1313 
Q 3003 1734 2745 1975 
Q 2488 2216 2034 2216 
z
M 1403 2484 
Q 997 2584 770 2862 
Q 544 3141 544 3541 
Q 544 4100 942 4425 
Q 1341 4750 2034 4750 
Q 2731 4750 3128 4425 
Q 3525 4100 3525 3541 
Q 3525 3141 3298 2862 
Q 3072 2584 2669 2484 
Q 3125 2378 3379 2068 
Q 3634 1759 3634 1313 
Q 3634 634 3220 271 
Q 2806 -91 2034 -91 
Q 1263 -91 848 271 
Q 434 634 434 1313 
Q 434 1759 690 2068 
Q 947 2378 1403 2484 
z
M 1172 3481 
Q 1172 3119 1398 2916 
Q 1625 2713 2034 2713 
Q 2441 2713 2670 2916 
Q 2900 3119 2900 3481 
Q 2900 3844 2670 4047 
Q 2441 4250 2034 4250 
Q 1625 4250 1398 4047 
Q 1172 3844 1172 3481 
z
" transform="scale(0.015625)"/>
        <path id="DejaVuSans-30" d="M 2034 4250 
Q 1547 4250 1301 3770 
Q 1056 3291 1056 2328 
Q 1056 1369 1301 889 
Q 1547 409 2034 409 
Q 2525 409 2770 889 
Q 3016 1369 3016 2328 
Q 3016 3291 2770 3770 
Q 2525 4250 2034 4250 
z
M 2034 4750 
Q 2819 4750 3233 4129 
Q 3647 3509 3647 2328 
Q 3647 1150 3233 529 
Q 2819 -91 2034 -91 
Q 1250 -91 836 529 
Q 422 1150 422 2328 
Q 422 3509 836 4129 
Q 1250 4750 2034 4750 
z
" transform="scale(0.015625)"/>
        <path id="DejaVuSans-b0" d="M 1600 4347 
Q 1350 4347 1178 4173 
Q 1006 4000 1006 3750 
Q 1006 3503 1178 3333 
Q 1350 3163 1600 3163 
Q 1850 3163 2022 3333 
Q 2194 3503 2194 3750 
Q 2194 3997 2020 4172 
Q 1847 4347 1600 4347 
z
M 1600 4750 
Q 1800 4750 1984 4673 
Q 2169 4597 2303 4453 
Q 2447 4313 2519 4134 
Q 2591 3956 2591 3750 
Q 2591 3338 2302 3052 
Q 2013 2766 1594 2766 
Q 1172 2766 890 3047 
Q 609 3328 609 3750 
Q 609 4169 896 4459 
Q 1184 4750 1600 4750 
z
" transform="scale(0.015625)"/>
       </defs>
       <use xlink:href="#DejaVuSans-31"/>
       <use xlink:href="#DejaVuSans-38" transform="translate(63.623047 0)"/>
       <use xlink:href="#DejaVuSans-30" transform="translate(127.246094 0)"/>
       <use xlink:href="#DejaVuSans-b0" transform="translate(190.869141 0)"/>
      </g>
     </g>
    </g>
    <g id="xtick_2">
     <g id="line2d_2">
      <path d="M 273.065666 55.104588 
L 34.112664 67.627585 
" clip-path="url(#p619d6cb41a)" style="fill: none; stroke: #b0b0b0; stroke-width: 0.8; stroke-linecap: square"/>
     </g>
     <g id="text_2">
      <!-- 183° -->
      <g transform="translate(8.088101 71.119663) scale(0.1 -0.1)">
       <defs>
        <path id="DejaVuSans-33" d="M 2597 2516 
Q 3050 2419 3304 2112 
Q 3559 1806 3559 1356 
Q 3559 666 3084 287 
Q 2609 -91 1734 -91 
Q 1441 -91 1130 -33 
Q 819 25 488 141 
L 488 750 
Q 750 597 1062 519 
Q 1375 441 1716 441 
Q 2309 441 2620 675 
Q 2931 909 2931 1356 
Q 2931 1769 2642 2001 
Q 2353 2234 1838 2234 
L 1294 2234 
L 1294 2753 
L 1863 2753 
Q 2328 2753 2575 2939 
Q 2822 3125 2822 3475 
Q 2822 3834 2567 4026 
Q 2313 4219 1838 4219 
Q 1578 4219 1281 4162 
Q 984 4106 628 3988 
L 628 4550 
Q 988 4650 1302 4700 
Q 1616 4750 1894 4750 
Q 2613 4750 3031 4423 
Q 3450 4097 3450 3541 
Q 3450 3153 3228 2886 
Q 3006 2619 2597 2516 
z
" transform="scale(0.015625)"/>
       </defs>
       <use xlink:href="#DejaVuSans-31"/>
       <use xlink:href="#DejaVuSans-38" transform="translate(63.623047 0)"/>
       <use xlink:href="#DejaVuSans-33" transform="translate(127.246094 0)"/>
       <use xlink:href="#DejaVuSans-b0" transform="translate(190.869141 0)"/>
      </g>
     </g>
    </g>
    <g id="xtick_3">
     <g id="line2d_3">
      <path d="M 274.687147 75.707453 
L 36.717024 100.719121 
" clip-path="url(#p619d6cb41a)" style="fill: none; stroke: #b0b0b0; stroke-width: 0.8; stroke-linecap: square"/>
     </g>
     <g id="text_3">
      <!-- 186° -->
      <g transform="translate(10.749968 104.941894) scale(0.1 -0.1)">
       <defs>
        <path id="DejaVuSans-36" d="M 2113 2584 
Q 1688 2584 1439 2293 
Q 1191 2003 1191 1497 
Q 1191 994 1439 701 
Q 1688 409 2113 409 
Q 2538 409 2786 701 
Q 3034 994 3034 1497 
Q 3034 2003 2786 2293 
Q 2538 2584 2113 2584 
z
M 3366 4563 
L 3366 3988 
Q 3128 4100 2886 4159 
Q 2644 4219 2406 4219 
Q 1781 4219 1451 3797 
Q 1122 3375 1075 2522 
Q 1259 2794 1537 2939 
Q 1816 3084 2150 3084 
Q 2853 3084 3261 2657 
Q 3669 2231 3669 1497 
Q 3669 778 3244 343 
Q 2819 -91 2113 -91 
Q 1303 -91 875 529 
Q 447 1150 447 2328 
Q 447 3434 972 4092 
Q 1497 4750 2381 4750 
Q 2619 4750 2861 4703 
Q 3103 4656 3366 4563 
z
" transform="scale(0.015625)"/>
       </defs>
       <use xlink:href="#DejaVuSans-31"/>
       <use xlink:href="#DejaVuSans-38" transform="translate(63.623047 0)"/>
       <use xlink:href="#DejaVuSans-36" transform="translate(127.246094 0)"/>
       <use xlink:href="#DejaVuSans-b0" transform="translate(190.869141 0)"/>
      </g>
     </g>
    </g>
    <g id="xtick_4">
     <g id="line2d_4">
      <path d="M 277.384676 96.19722 
L 41.049693 133.629004 
" clip-path="url(#p619d6cb41a)" style="fill: none; stroke: #b0b0b0; stroke-width: 0.8; stroke-linecap: square"/>
     </g>
     <g id="text_4">
      <!-- 189° -->
      <g transform="translate(15.178306 138.578462) scale(0.1 -0.1)">
       <defs>
        <path id="DejaVuSans-39" d="M 703 97 
L 703 672 
Q 941 559 1184 500 
Q 1428 441 1663 441 
Q 2288 441 2617 861 
Q 2947 1281 2994 2138 
Q 2813 1869 2534 1725 
Q 2256 1581 1919 1581 
Q 1219 1581 811 2004 
Q 403 2428 403 3163 
Q 403 3881 828 4315 
Q 1253 4750 1959 4750 
Q 2769 4750 3195 4129 
Q 3622 3509 3622 2328 
Q 3622 1225 3098 567 
Q 2575 -91 1691 -91 
Q 1453 -91 1209 -44 
Q 966 3 703 97 
z
M 1959 2075 
Q 2384 2075 2632 2365 
Q 2881 2656 2881 3163 
Q 2881 3666 2632 3958 
Q 2384 4250 1959 4250 
Q 1534 4250 1286 3958 
Q 1038 3666 1038 3163 
Q 1038 2656 1286 2365 
Q 1534 2075 1959 2075 
z
" transform="scale(0.015625)"/>
       </defs>
       <use xlink:href="#DejaVuSans-31"/>
       <use xlink:href="#DejaVuSans-38" transform="translate(63.623047 0)"/>
       <use xlink:href="#DejaVuSans-39" transform="translate(127.246094 0)"/>
       <use xlink:href="#DejaVuSans-b0" transform="translate(190.869141 0)"/>
      </g>
     </g>
    </g>
    <g id="xtick_5">
     <g id="line2d_5">
      <path d="M 281.150859 116.517729 
L 47.098794 166.267032 
" clip-path="url(#p619d6cb41a)" style="fill: none; stroke: #b0b0b0; stroke-width: 0.8; stroke-linecap: square"/>
     </g>
     <g id="text_5">
      <!-- 192° -->
      <g transform="translate(21.360977 171.93717) scale(0.1 -0.1)">
       <defs>
        <path id="DejaVuSans-32" d="M 1228 531 
L 3431 531 
L 3431 0 
L 469 0 
L 469 531 
Q 828 903 1448 1529 
Q 2069 2156 2228 2338 
Q 2531 2678 2651 2914 
Q 2772 3150 2772 3378 
Q 2772 3750 2511 3984 
Q 2250 4219 1831 4219 
Q 1534 4219 1204 4116 
Q 875 4013 500 3803 
L 500 4441 
Q 881 4594 1212 4672 
Q 1544 4750 1819 4750 
Q 2544 4750 2975 4387 
Q 3406 4025 3406 3419 
Q 3406 3131 3298 2873 
Q 3191 2616 2906 2266 
Q 2828 2175 2409 1742 
Q 1991 1309 1228 531 
z
" transform="scale(0.015625)"/>
       </defs>
       <use xlink:href="#DejaVuSans-31"/>
       <use xlink:href="#DejaVuSans-39" transform="translate(63.623047 0)"/>
       <use xlink:href="#DejaVuSans-32" transform="translate(127.246094 0)"/>
       <use xlink:href="#DejaVuSans-b0" transform="translate(190.869141 0)"/>
      </g>
     </g>
    </g>
    <g id="xtick_6">
     <g id="line2d_6">
      <path d="M 285.975375 136.613283 
L 54.847747 198.543744 
" clip-path="url(#p619d6cb41a)" style="fill: none; stroke: #b0b0b0; stroke-width: 0.8; stroke-linecap: square"/>
     </g>
     <g id="text_6">
      <!-- 195° -->
      <g transform="translate(29.281035 204.926586) scale(0.1 -0.1)">
       <defs>
        <path id="DejaVuSans-35" d="M 691 4666 
L 3169 4666 
L 3169 4134 
L 1269 4134 
L 1269 2991 
Q 1406 3038 1543 3061 
Q 1681 3084 1819 3084 
Q 2600 3084 3056 2656 
Q 3513 2228 3513 1497 
Q 3513 744 3044 326 
Q 2575 -91 1722 -91 
Q 1428 -91 1123 -41 
Q 819 9 494 109 
L 494 744 
Q 775 591 1075 516 
Q 1375 441 1709 441 
Q 2250 441 2565 725 
Q 2881 1009 2881 1497 
Q 2881 1984 2565 2268 
Q 2250 2553 1709 2553 
Q 1456 2553 1204 2497 
Q 953 2441 691 2322 
L 691 4666 
z
" transform="scale(0.015625)"/>
       </defs>
       <use xlink:href="#DejaVuSans-31"/>
       <use xlink:href="#DejaVuSans-39" transform="translate(63.623047 0)"/>
       <use xlink:href="#DejaVuSans-35" transform="translate(127.246094 0)"/>
       <use xlink:href="#DejaVuSans-b0" transform="translate(190.869141 0)"/>
      </g>
     </g>
    </g>
    <g id="xtick_7">
     <g id="line2d_7">
      <path d="M 291.844999 156.428801 
L 64.275313 230.370674 
" clip-path="url(#p619d6cb41a)" style="fill: none; stroke: #b0b0b0; stroke-width: 0.8; stroke-linecap: square"/>
     </g>
     <g id="text_7">
      <!-- 198° -->
      <g transform="translate(38.916772 237.456287) scale(0.1 -0.1)">
       <use xlink:href="#DejaVuSans-31"/>
       <use xlink:href="#DejaVuSans-39" transform="translate(63.623047 0)"/>
       <use xlink:href="#DejaVuSans-38" transform="translate(127.246094 0)"/>
       <use xlink:href="#DejaVuSans-b0" transform="translate(190.869141 0)"/>
      </g>
     </g>
    </g>
    <g id="xtick_8">
     <g id="line2d_8">
      <path d="M 298.743642 175.90997 
L 75.355651 261.660585 
" clip-path="url(#p619d6cb41a)" style="fill: none; stroke: #b0b0b0; stroke-width: 0.8; stroke-linecap: square"/>
     </g>
     <g id="text_8">
      <!-- 201° -->
      <g transform="translate(50.241775 269.437111) scale(0.1 -0.1)">
       <use xlink:href="#DejaVuSans-32"/>
       <use xlink:href="#DejaVuSans-30" transform="translate(63.623047 0)"/>
       <use xlink:href="#DejaVuSans-31" transform="translate(127.246094 0)"/>
       <use xlink:href="#DejaVuSans-b0" transform="translate(190.869141 0)"/>
      </g>
     </g>
    </g>
    <g id="text_9">
     <!-- theta [rad] -->
     <g transform="translate(138.67358 287.174618) scale(0.1 -0.1)">
      <defs>
       <path id="DejaVuSans-74" d="M 1172 4494 
L 1172 3500 
L 2356 3500 
L 2356 3053 
L 1172 3053 
L 1172 1153 
Q 1172 725 1289 603 
Q 1406 481 1766 481 
L 2356 481 
L 2356 0 
L 1766 0 
Q 1100 0 847 248 
Q 594 497 594 1153 
L 594 3053 
L 172 3053 
L 172 3500 
L 594 3500 
L 594 4494 
L 1172 4494 
z
" transform="scale(0.015625)"/>
       <path id="DejaVuSans-68" d="M 3513 2113 
L 3513 0 
L 2938 0 
L 2938 2094 
Q 2938 2591 2744 2837 
Q 2550 3084 2163 3084 
Q 1697 3084 1428 2787 
Q 1159 2491 1159 1978 
L 1159 0 
L 581 0 
L 581 4863 
L 1159 4863 
L 1159 2956 
Q 1366 3272 1645 3428 
Q 1925 3584 2291 3584 
Q 2894 3584 3203 3211 
Q 3513 2838 3513 2113 
z
" transform="scale(0.015625)"/>
       <path id="DejaVuSans-65" d="M 3597 1894 
L 3597 1613 
L 953 1613 
Q 991 1019 1311 708 
Q 1631 397 2203 397 
Q 2534 397 2845 478 
Q 3156 559 3463 722 
L 3463 178 
Q 3153 47 2828 -22 
Q 2503 -91 2169 -91 
Q 1331 -91 842 396 
Q 353 884 353 1716 
Q 353 2575 817 3079 
Q 1281 3584 2069 3584 
Q 2775 3584 3186 3129 
Q 3597 2675 3597 1894 
z
M 3022 2063 
Q 3016 2534 2758 2815 
Q 2500 3097 2075 3097 
Q 1594 3097 1305 2825 
Q 1016 2553 972 2059 
L 3022 2063 
z
" transform="scale(0.015625)"/>
       <path id="DejaVuSans-61" d="M 2194 1759 
Q 1497 1759 1228 1600 
Q 959 1441 959 1056 
Q 959 750 1161 570 
Q 1363 391 1709 391 
Q 2188 391 2477 730 
Q 2766 1069 2766 1631 
L 2766 1759 
L 2194 1759 
z
M 3341 1997 
L 3341 0 
L 2766 0 
L 2766 531 
Q 2569 213 2275 61 
Q 1981 -91 1556 -91 
Q 1019 -91 701 211 
Q 384 513 384 1019 
Q 384 1609 779 1909 
Q 1175 2209 1959 2209 
L 2766 2209 
L 2766 2266 
Q 2766 2663 2505 2880 
Q 2244 3097 1772 3097 
Q 1472 3097 1187 3025 
Q 903 2953 641 2809 
L 641 3341 
Q 956 3463 1253 3523 
Q 1550 3584 1831 3584 
Q 2591 3584 2966 3190 
Q 3341 2797 3341 1997 
z
" transform="scale(0.015625)"/>
       <path id="DejaVuSans-20" transform="scale(0.015625)"/>
       <path id="DejaVuSans-5b" d="M 550 4863 
L 1875 4863 
L 1875 4416 
L 1125 4416 
L 1125 -397 
L 1875 -397 
L 1875 -844 
L 550 -844 
L 550 4863 
z
" transform="scale(0.015625)"/>
       <path id="DejaVuSans-72" d="M 2631 2963 
Q 2534 3019 2420 3045 
Q 2306 3072 2169 3072 
Q 1681 3072 1420 2755 
Q 1159 2438 1159 1844 
L 1159 0 
L 581 0 
L 581 3500 
L 1159 3500 
L 1159 2956 
Q 1341 3275 1631 3429 
Q 1922 3584 2338 3584 
Q 2397 3584 2469 3576 
Q 2541 3569 2628 3553 
L 2631 2963 
z
" transform="scale(0.015625)"/>
       <path id="DejaVuSans-64" d="M 2906 2969 
L 2906 4863 
L 3481 4863 
L 3481 0 
L 2906 0 
L 2906 525 
Q 2725 213 2448 61 
Q 2172 -91 1784 -91 
Q 1150 -91 751 415 
Q 353 922 353 1747 
Q 353 2572 751 3078 
Q 1150 3584 1784 3584 
Q 2172 3584 2448 3432 
Q 2725 3281 2906 2969 
z
M 947 1747 
Q 947 1113 1208 752 
Q 1469 391 1925 391 
Q 2381 391 2643 752 
Q 2906 1113 2906 1747 
Q 2906 2381 2643 2742 
Q 2381 3103 1925 3103 
Q 1469 3103 1208 2742 
Q 947 2381 947 1747 
z
" transform="scale(0.015625)"/>
       <path id="DejaVuSans-5d" d="M 1947 4863 
L 1947 -844 
L 622 -844 
L 622 -397 
L 1369 -397 
L 1369 4416 
L 622 4416 
L 622 4863 
L 1947 4863 
z
" transform="scale(0.015625)"/>
      </defs>
      <use xlink:href="#DejaVuSans-74"/>
      <use xlink:href="#DejaVuSans-68" transform="translate(39.208984 0)"/>
      <use xlink:href="#DejaVuSans-65" transform="translate(102.587891 0)"/>
      <use xlink:href="#DejaVuSans-74" transform="translate(164.111328 0)"/>
      <use xlink:href="#DejaVuSans-61" transform="translate(203.320312 0)"/>
      <use xlink:href="#DejaVuSans-20" transform="translate(264.599609 0)"/>
      <use xlink:href="#DejaVuSans-5b" transform="translate(296.386719 0)"/>
      <use xlink:href="#DejaVuSans-72" transform="translate(335.400391 0)"/>
      <use xlink:href="#DejaVuSans-61" transform="translate(376.513672 0)"/>
      <use xlink:href="#DejaVuSans-64" transform="translate(437.792969 0)"/>
      <use xlink:href="#DejaVuSans-5d" transform="translate(501.269531 0)"/>
     </g>
    </g>
   </g>
   <g id="matplotlib.axis_2">
    <g id="ytick_1">
     <g id="line2d_9">
      <path d="M 263.643875 27.399738 
C 263.192659 53.249918 265.225827 79.083768 269.715347 104.545103 
C 274.204867 130.006438 281.130012 154.977701 290.395299 179.114599 
" clip-path="url(#p619d6cb41a)" style="fill: none; stroke: #b0b0b0; stroke-width: 0.8; stroke-linecap: square"/>
     </g>
     <g id="text_10">
      <!-- 40 -->
      <g transform="translate(257.403542 18.321117) scale(0.1 -0.1)">
       <defs>
        <path id="DejaVuSans-34" d="M 2419 4116 
L 825 1625 
L 2419 1625 
L 2419 4116 
z
M 2253 4666 
L 3047 4666 
L 3047 1625 
L 3713 1625 
L 3713 1100 
L 3047 1100 
L 3047 0 
L 2419 0 
L 2419 1100 
L 313 1100 
L 313 1709 
L 2253 4666 
z
" transform="scale(0.015625)"/>
       </defs>
       <use xlink:href="#DejaVuSans-34"/>
       <use xlink:href="#DejaVuSans-30" transform="translate(63.623047 0)"/>
      </g>
     </g>
    </g>
    <g id="ytick_2">
     <g id="line2d_10">
      <path d="M 213.190331 26.519069 
C 212.682712 55.60052 214.970026 84.663602 220.020736 113.307604 
C 225.071447 141.951606 232.862234 170.044276 243.285682 197.198286 
" clip-path="url(#p619d6cb41a)" style="fill: none; stroke: #b0b0b0; stroke-width: 0.8; stroke-linecap: square"/>
     </g>
     <g id="text_11">
      <!-- 45 -->
      <g transform="translate(206.949997 17.440447) scale(0.1 -0.1)">
       <use xlink:href="#DejaVuSans-34"/>
       <use xlink:href="#DejaVuSans-35" transform="translate(63.623047 0)"/>
      </g>
     </g>
    </g>
    <g id="ytick_3">
     <g id="line2d_11">
      <path d="M 162.736786 25.638399 
C 162.172765 57.951123 164.714225 90.243436 170.326126 122.070104 
C 175.938026 153.896773 184.594456 185.110852 196.176065 215.281974 
" clip-path="url(#p619d6cb41a)" style="fill: none; stroke: #b0b0b0; stroke-width: 0.8; stroke-linecap: square"/>
     </g>
     <g id="text_12">
      <!-- 50 -->
      <g transform="translate(156.496453 16.559777) scale(0.1 -0.1)">
       <use xlink:href="#DejaVuSans-35"/>
       <use xlink:href="#DejaVuSans-30" transform="translate(63.623047 0)"/>
      </g>
     </g>
    </g>
    <g id="ytick_4">
     <g id="line2d_12">
      <path d="M 112.283241 24.757729 
C 111.662818 60.301725 114.458424 95.823269 120.631515 130.832605 
C 126.804605 165.841941 136.326678 200.177427 149.066448 233.365661 
" clip-path="url(#p619d6cb41a)" style="fill: none; stroke: #b0b0b0; stroke-width: 0.8; stroke-linecap: square"/>
     </g>
     <g id="text_13">
      <!-- 55 -->
      <g transform="translate(106.042908 15.679107) scale(0.1 -0.1)">
       <use xlink:href="#DejaVuSans-35"/>
       <use xlink:href="#DejaVuSans-35" transform="translate(63.623047 0)"/>
      </g>
     </g>
    </g>
    <g id="ytick_5">
     <g id="line2d_13">
      <path d="M 61.829696 23.877059 
C 61.152872 62.652328 64.202624 101.403103 70.936904 139.595106 
C 77.671185 177.787108 88.058901 215.244002 101.956831 251.449349 
" clip-path="url(#p619d6cb41a)" style="fill: none; stroke: #b0b0b0; stroke-width: 0.8; stroke-linecap: square"/>
     </g>
     <g id="text_14">
      <!-- 60 -->
      <g transform="translate(55.589363 14.798438) scale(0.1 -0.1)">
       <use xlink:href="#DejaVuSans-36"/>
       <use xlink:href="#DejaVuSans-30" transform="translate(63.623047 0)"/>
      </g>
     </g>
    </g>
    <g id="text_15">
     <!-- [m] -->
     <g transform="translate(26.551955 151.292055) rotate(-90) scale(0.1 -0.1)">
      <defs>
       <path id="DejaVuSans-6d" d="M 3328 2828 
Q 3544 3216 3844 3400 
Q 4144 3584 4550 3584 
Q 5097 3584 5394 3201 
Q 5691 2819 5691 2113 
L 5691 0 
L 5113 0 
L 5113 2094 
Q 5113 2597 4934 2840 
Q 4756 3084 4391 3084 
Q 3944 3084 3684 2787 
Q 3425 2491 3425 1978 
L 3425 0 
L 2847 0 
L 2847 2094 
Q 2847 2600 2669 2842 
Q 2491 3084 2119 3084 
Q 1678 3084 1418 2786 
Q 1159 2488 1159 1978 
L 1159 0 
L 581 0 
L 581 3500 
L 1159 3500 
L 1159 2956 
Q 1356 3278 1631 3431 
Q 1906 3584 2284 3584 
Q 2666 3584 2933 3390 
Q 3200 3197 3328 2828 
z
" transform="scale(0.015625)"/>
      </defs>
      <use xlink:href="#DejaVuSans-5b"/>
      <use xlink:href="#DejaVuSans-6d" transform="translate(39.013672 0)"/>
      <use xlink:href="#DejaVuSans-5d" transform="translate(136.425781 0)"/>
     </g>
    </g>
   </g>
   <g id="line2d_14">
    <defs>
     <path id="m618602e812" d="M 0 3 
C 0.795609 3 1.55874 2.683901 2.12132 2.12132 
C 2.683901 1.55874 3 0.795609 3 0 
C 3 -0.795609 2.683901 -1.55874 2.12132 -2.12132 
C 1.55874 -2.683901 0.795609 -3 0 -3 
C -0.795609 -3 -1.55874 -2.683901 -2.12132 -2.12132 
C -2.683901 -1.55874 -3 -0.795609 -3 0 
C -3 0.795609 -2.683901 1.55874 -2.12132 2.12132 
C -1.55874 2.683901 -0.795609 3 0 3 
z
" style="stroke: #1f77b4"/>
    </defs>
    <g clip-path="url(#p619d6cb41a)">
     <use xlink:href="#m618602e812" x="147.310574" y="34.445098" style="fill: #1f77b4; stroke: #1f77b4"/>
     <use xlink:href="#m618602e812" x="174.277794" y="37.957147" style="fill: #1f77b4; stroke: #1f77b4"/>
     <use xlink:href="#m618602e812" x="195.158299" y="41.172037" style="fill: #1f77b4; stroke: #1f77b4"/>
     <use xlink:href="#m618602e812" x="237.664082" y="43.627814" style="fill: #1f77b4; stroke: #1f77b4"/>
     <use xlink:href="#m618602e812" x="130.755604" y="49.73737" style="fill: #1f77b4; stroke: #1f77b4"/>
     <use xlink:href="#m618602e812" x="164.008118" y="52.378429" style="fill: #1f77b4; stroke: #1f77b4"/>
     <use xlink:href="#m618602e812" x="172.979817" y="55.585394" style="fill: #1f77b4; stroke: #1f77b4"/>
     <use xlink:href="#m618602e812" x="59.298456" y="64.787807" style="fill: #1f77b4; stroke: #1f77b4"/>
     <use xlink:href="#m618602e812" x="117.830801" y="65.791898" style="fill: #1f77b4; stroke: #1f77b4"/>
     <use xlink:href="#m618602e812" x="157.532272" y="67.171489" style="fill: #1f77b4; stroke: #1f77b4"/>
     <use xlink:href="#m618602e812" x="158.174855" y="70.773615" style="fill: #1f77b4; stroke: #1f77b4"/>
     <use xlink:href="#m618602e812" x="164.503869" y="73.923732" style="fill: #1f77b4; stroke: #1f77b4"/>
     <use xlink:href="#m618602e812" x="207.423066" y="73.851578" style="fill: #1f77b4; stroke: #1f77b4"/>
     <use xlink:href="#m618602e812" x="183.370162" y="79.387489" style="fill: #1f77b4; stroke: #1f77b4"/>
     <use xlink:href="#m618602e812" x="200.567528" y="81.145947" style="fill: #1f77b4; stroke: #1f77b4"/>
     <use xlink:href="#m618602e812" x="71.533328" y="98.347312" style="fill: #1f77b4; stroke: #1f77b4"/>
     <use xlink:href="#m618602e812" x="126.531845" y="96.34736" style="fill: #1f77b4; stroke: #1f77b4"/>
     <use xlink:href="#m618602e812" x="152.109165" y="97.140455" style="fill: #1f77b4; stroke: #1f77b4"/>
     <use xlink:href="#m618602e812" x="140.885632" y="102.315134" style="fill: #1f77b4; stroke: #1f77b4"/>
     <use xlink:href="#m618602e812" x="227.235118" y="94.371431" style="fill: #1f77b4; stroke: #1f77b4"/>
     <use xlink:href="#m618602e812" x="217.08807" y="99.023028" style="fill: #1f77b4; stroke: #1f77b4"/>
     <use xlink:href="#m618602e812" x="126.951905" y="115.885283" style="fill: #1f77b4; stroke: #1f77b4"/>
     <use xlink:href="#m618602e812" x="225.024982" y="104.328715" style="fill: #1f77b4; stroke: #1f77b4"/>
     <use xlink:href="#m618602e812" x="207.652568" y="110.433724" style="fill: #1f77b4; stroke: #1f77b4"/>
     <use xlink:href="#m618602e812" x="174.617272" y="119.505243" style="fill: #1f77b4; stroke: #1f77b4"/>
     <use xlink:href="#m618602e812" x="177.224485" y="122.654645" style="fill: #1f77b4; stroke: #1f77b4"/>
     <use xlink:href="#m618602e812" x="202.309827" y="121.5633" style="fill: #1f77b4; stroke: #1f77b4"/>
     <use xlink:href="#m618602e812" x="193.846381" y="126.644774" style="fill: #1f77b4; stroke: #1f77b4"/>
     <use xlink:href="#m618602e812" x="108.145134" y="147.475079" style="fill: #1f77b4; stroke: #1f77b4"/>
     <use xlink:href="#m618602e812" x="123.637885" y="148.380037" style="fill: #1f77b4; stroke: #1f77b4"/>
     <use xlink:href="#m618602e812" x="67.940931" y="164.516796" style="fill: #1f77b4; stroke: #1f77b4"/>
     <use xlink:href="#m618602e812" x="210.238051" y="137.048837" style="fill: #1f77b4; stroke: #1f77b4"/>
     <use xlink:href="#m618602e812" x="272.142116" y="126.112911" style="fill: #1f77b4; stroke: #1f77b4"/>
     <use xlink:href="#m618602e812" x="240.368161" y="136.694494" style="fill: #1f77b4; stroke: #1f77b4"/>
     <use xlink:href="#m618602e812" x="124.739039" y="168.482923" style="fill: #1f77b4; stroke: #1f77b4"/>
     <use xlink:href="#m618602e812" x="156.711906" y="164.449731" style="fill: #1f77b4; stroke: #1f77b4"/>
     <use xlink:href="#m618602e812" x="151.783573" y="169.622143" style="fill: #1f77b4; stroke: #1f77b4"/>
     <use xlink:href="#m618602e812" x="169.076079" y="168.887774" style="fill: #1f77b4; stroke: #1f77b4"/>
     <use xlink:href="#m618602e812" x="157.247852" y="175.9852" style="fill: #1f77b4; stroke: #1f77b4"/>
     <use xlink:href="#m618602e812" x="204.889717" y="166.318491" style="fill: #1f77b4; stroke: #1f77b4"/>
     <use xlink:href="#m618602e812" x="241.558709" y="159.146454" style="fill: #1f77b4; stroke: #1f77b4"/>
     <use xlink:href="#m618602e812" x="177.918239" y="181.581376" style="fill: #1f77b4; stroke: #1f77b4"/>
     <use xlink:href="#m618602e812" x="229.881122" y="169.362388" style="fill: #1f77b4; stroke: #1f77b4"/>
     <use xlink:href="#m618602e812" x="118.683243" y="207.951761" style="fill: #1f77b4; stroke: #1f77b4"/>
     <use xlink:href="#m618602e812" x="151.520278" y="201.616961" style="fill: #1f77b4; stroke: #1f77b4"/>
     <use xlink:href="#m618602e812" x="214.8594" y="184.656507" style="fill: #1f77b4; stroke: #1f77b4"/>
     <use xlink:href="#m618602e812" x="77.279998" y="235.013474" style="fill: #1f77b4; stroke: #1f77b4"/>
     <use xlink:href="#m618602e812" x="197.333956" y="197.944786" style="fill: #1f77b4; stroke: #1f77b4"/>
     <use xlink:href="#m618602e812" x="181.636788" y="207.294141" style="fill: #1f77b4; stroke: #1f77b4"/>
     <use xlink:href="#m618602e812" x="247.937795" y="187.070351" style="fill: #1f77b4; stroke: #1f77b4"/>
    </g>
   </g>
   <g id="patch_3">
    <path d="M 33.340316 23.379775 
C 32.631642 63.979632 35.824902 104.553843 42.876067 144.542988 
C 49.927233 184.532133 60.803747 223.751579 75.355651 261.660585 
" style="fill: none; stroke: #000000; stroke-width: 0.8; stroke-linejoin: miter; stroke-linecap: square"/>
   </g>
   <g id="patch_4">
    <path d="M 272.5848 27.555803 
L 33.340316 23.379775 
" style="fill: none; stroke: #000000; stroke-width: 0.8; stroke-linejoin: miter; stroke-linecap: square"/>
   </g>
   <g id="patch_5">
    <path d="M 298.743642 175.90997 
L 75.355651 261.660585 
" style="fill: none; stroke: #000000; stroke-width: 0.8; stroke-linejoin: miter; stroke-linecap: square"/>
   </g>
   <g id="patch_6">
    <path d="M 272.5848 27.555803 
C 272.143579 52.833365 274.131709 78.09496 278.521781 102.992291 
C 282.911852 127.889622 289.683594 152.307737 298.743642 175.90997 
" style="fill: none; stroke: #000000; stroke-width: 0.8; stroke-linejoin: miter; stroke-linecap: square"/>
   </g>
  </g>
 </g>
 <defs>
  <clipPath id="p619d6cb41a">
   <path d="M 33.340316 23.379775 
C 32.631642 63.979632 35.824902 104.553843 42.876067 144.542988 
C 49.927233 184.532133 60.803747 223.751579 75.355651 261.660585 
L 298.743642 175.90997 
C 289.683594 152.307737 282.911852 127.889622 278.521781 102.992291 
C 274.131709 78.09496 272.143579 52.833365 272.5848 27.555803 
z
"/>
  </clipPath>
 </defs>
</svg>
