<?xml version="1.0" encoding="utf-8" standalone="no"?>
<!DOCTYPE svg PUBLIC "-//W3C//DTD SVG 1.1//EN"
  "http://www.w3.org/Graphics/SVG/1.1/DTD/svg11.dtd">
<svg xmlns:xlink="http://www.w3.org/1999/xlink" width="294.190125pt" height="320.714826pt" viewBox="0 0 294.190125 320.714826" xmlns="http://www.w3.org/2000/svg" version="1.1">
 <metadata>
  <rdf:RDF xmlns:dc="http://purl.org/dc/elements/1.1/" xmlns:cc="http://creativecommons.org/ns#" xmlns:rdf="http://www.w3.org/1999/02/22-rdf-syntax-ns#">
   <cc:Work>
    <dc:type rdf:resource="http://purl.org/dc/dcmitype/StillImage"/>
    <dc:date>2025-09-18T07:27:13.123504</dc:date>
    <dc:format>image/svg+xml</dc:format>
    <dc:creator>
     <cc:Agent>
      <dc:title>Matplotlib v3.10.5, https://matplotlib.org/</dc:title>
     </cc:Agent>
    </dc:creator>
   </cc:Work>
  </rdf:RDF>
 </metadata>
 <defs>
  <style type="text/css">*{stroke-linejoin: round; stroke-linecap: butt}</style>
 </defs>
 <g id="figure_1">
  <g id="patch_1">
   <path d="M -0 320.714826 
L 294.190125 320.714826 
L 294.190125 0 
L -0 0 
z
" style="fill: #ffffff"/>
  </g>
  <g id="axes_1">
   <g id="patch_2">
    <path d="M 35.807556 23.868487 
C 35.01611 69.210406 38.582343 114.523684 46.457084 159.183559 
C 54.331825 203.843435 66.478716 247.643711 82.730282 289.980487 
L 272.85214 216.999544 
C 261.274602 186.839028 252.621215 155.635922 247.011288 123.820442 
C 241.40136 92.004962 238.860794 59.724001 239.424616 27.422636 
z
" style="fill: #ffffff"/>
   </g>
   <g id="matplotlib.axis_1">
    <g id="xtick_1">
     <g id="line2d_1">
      <path d="M 239.347788 36.226239 
L 35.699712 36.226239 
" clip-path="url(#p9a4f9394f4)" style="fill: none; stroke: #b0b0b0; stroke-width: 0.8; stroke-linecap: square"/>
     </g>
     <g id="text_1">
      <!-- 180° -->
      <g transform="translate(9.655962 38.985614) scale(0.1 -0.1)">
       <defs>
        <path id="DejaVuSans-31" d="M 794 531 
L 1825 531 
L 1825 4091 
L 703 3866 
L 703 4441 
L 1819 4666 
L 2450 4666 
L 2450 531 
L 3481 531 
L 3481 0 
L 794 0 
L 794 531 
z
" transform="scale(0.015625)"/>
        <path id="DejaVuSans-38" d="M 2034 2216 
Q 1584 2216 1326 1975 
Q 1069 1734 1069 1313 
Q 1069 891 1326 650 
Q 1584 409 2034 409 
Q 2484 409 2743 651 
Q 3003 894 3003 1313 
Q 3003 1734 2745 1975 
Q 2488 2216 2034 2216 
z
M 1403 2484 
Q 997 2584 770 2862 
Q 544 3141 544 3541 
Q 544 4100 942 4425 
Q 1341 4750 2034 4750 
Q 2731 4750 3128 4425 
Q 3525 4100 3525 3541 
Q 3525 3141 3298 2862 
Q 3072 2584 2669 2484 
Q 3125 2378 3379 2068 
Q 3634 1759 3634 1313 
Q 3634 634 3220 271 
Q 2806 -91 2034 -91 
Q 1263 -91 848 271 
Q 434 634 434 1313 
Q 434 1759 690 2068 
Q 947 2378 1403 2484 
z
M 1172 3481 
Q 1172 3119 1398 2916 
Q 1625 2713 2034 2713 
Q 2441 2713 2670 2916 
Q 2900 3119 2900 3481 
Q 2900 3844 2670 4047 
Q 2441 4250 2034 4250 
Q 1625 4250 1398 4047 
Q 1172 3844 1172 3481 
z
" transform="scale(0.015625)"/>
        <path id="DejaVuSans-30" d="M 2034 4250 
Q 1547 4250 1301 3770 
Q 1056 3291 1056 2328 
Q 1056 1369 1301 889 
Q 1547 409 2034 409 
Q 2525 409 2770 889 
Q 3016 1369 3016 2328 
Q 3016 3291 2770 3770 
Q 2525 4250 2034 4250 
z
M 2034 4750 
Q 2819 4750 3233 4129 
Q 3647 3509 3647 2328 
Q 3647 1150 3233 529 
Q 2819 -91 2034 -91 
Q 1250 -91 836 529 
Q 422 1150 422 2328 
Q 422 3509 836 4129 
Q 1250 4750 2034 4750 
z
" transform="scale(0.015625)"/>
        <path id="DejaVuSans-b0" d="M 1600 4347 
Q 1350 4347 1178 4173 
Q 1006 4000 1006 3750 
Q 1006 3503 1178 3333 
Q 1350 3163 1600 3163 
Q 1850 3163 2022 3333 
Q 2194 3503 2194 3750 
Q 2194 3997 2020 4172 
Q 1847 4347 1600 4347 
z
M 1600 4750 
Q 1800 4750 1984 4673 
Q 2169 4597 2303 4453 
Q 2447 4313 2519 4134 
Q 2591 3956 2591 3750 
Q 2591 3338 2302 3052 
Q 2013 2766 1594 2766 
Q 1172 2766 890 3047 
Q 609 3328 609 3750 
Q 609 4169 896 4459 
Q 1184 4750 1600 4750 
z
" transform="scale(0.015625)"/>
       </defs>
       <use xlink:href="#DejaVuSans-31"/>
       <use xlink:href="#DejaVuSans-38" transform="translate(63.623047 0)"/>
       <use xlink:href="#DejaVuSans-30" transform="translate(127.246094 0)"/>
       <use xlink:href="#DejaVuSans-b0" transform="translate(190.869141 0)"/>
      </g>
     </g>
    </g>
    <g id="xtick_2">
     <g id="line2d_2">
      <path d="M 240.039099 62.626323 
L 36.670115 73.284439 
" clip-path="url(#p9a4f9394f4)" style="fill: none; stroke: #b0b0b0; stroke-width: 0.8; stroke-linecap: square"/>
     </g>
     <g id="text_2">
      <!-- 183° -->
      <g transform="translate(10.645552 76.776518) scale(0.1 -0.1)">
       <defs>
        <path id="DejaVuSans-33" d="M 2597 2516 
Q 3050 2419 3304 2112 
Q 3559 1806 3559 1356 
Q 3559 666 3084 287 
Q 2609 -91 1734 -91 
Q 1441 -91 1130 -33 
Q 819 25 488 141 
L 488 750 
Q 750 597 1062 519 
Q 1375 441 1716 441 
Q 2309 441 2620 675 
Q 2931 909 2931 1356 
Q 2931 1769 2642 2001 
Q 2353 2234 1838 2234 
L 1294 2234 
L 1294 2753 
L 1863 2753 
Q 2328 2753 2575 2939 
Q 2822 3125 2822 3475 
Q 2822 3834 2567 4026 
Q 2313 4219 1838 4219 
Q 1578 4219 1281 4162 
Q 984 4106 628 3988 
L 628 4550 
Q 988 4650 1302 4700 
Q 1616 4750 1894 4750 
Q 2613 4750 3031 4423 
Q 3450 4097 3450 3541 
Q 3450 3153 3228 2886 
Q 3006 2619 2597 2516 
z
" transform="scale(0.015625)"/>
       </defs>
       <use xlink:href="#DejaVuSans-31"/>
       <use xlink:href="#DejaVuSans-38" transform="translate(63.623047 0)"/>
       <use xlink:href="#DejaVuSans-33" transform="translate(127.246094 0)"/>
       <use xlink:href="#DejaVuSans-b0" transform="translate(190.869141 0)"/>
      </g>
     </g>
    </g>
    <g id="xtick_3">
     <g id="line2d_3">
      <path d="M 242.111135 88.954045 
L 39.578665 110.241066 
" clip-path="url(#p9a4f9394f4)" style="fill: none; stroke: #b0b0b0; stroke-width: 0.8; stroke-linecap: square"/>
     </g>
     <g id="text_3">
      <!-- 186° -->
      <g transform="translate(13.611608 114.463839) scale(0.1 -0.1)">
       <defs>
        <path id="DejaVuSans-36" d="M 2113 2584 
Q 1688 2584 1439 2293 
Q 1191 2003 1191 1497 
Q 1191 994 1439 701 
Q 1688 409 2113 409 
Q 2538 409 2786 701 
Q 3034 994 3034 1497 
Q 3034 2003 2786 2293 
Q 2538 2584 2113 2584 
z
M 3366 4563 
L 3366 3988 
Q 3128 4100 2886 4159 
Q 2644 4219 2406 4219 
Q 1781 4219 1451 3797 
Q 1122 3375 1075 2522 
Q 1259 2794 1537 2939 
Q 1816 3084 2150 3084 
Q 2853 3084 3261 2657 
Q 3669 2231 3669 1497 
Q 3669 778 3244 343 
Q 2819 -91 2113 -91 
Q 1303 -91 875 529 
Q 447 1150 447 2328 
Q 447 3434 972 4092 
Q 1497 4750 2381 4750 
Q 2619 4750 2861 4703 
Q 3103 4656 3366 4563 
z
" transform="scale(0.015625)"/>
       </defs>
       <use xlink:href="#DejaVuSans-31"/>
       <use xlink:href="#DejaVuSans-38" transform="translate(63.623047 0)"/>
       <use xlink:href="#DejaVuSans-36" transform="translate(127.246094 0)"/>
       <use xlink:href="#DejaVuSans-b0" transform="translate(190.869141 0)"/>
      </g>
     </g>
    </g>
    <g id="xtick_4">
     <g id="line2d_4">
      <path d="M 245.558219 115.137245 
L 44.417389 146.994822 
" clip-path="url(#p9a4f9394f4)" style="fill: none; stroke: #b0b0b0; stroke-width: 0.8; stroke-linecap: square"/>
     </g>
     <g id="text_4">
      <!-- 189° -->
      <g transform="translate(18.546002 151.94428) scale(0.1 -0.1)">
       <defs>
        <path id="DejaVuSans-39" d="M 703 97 
L 703 672 
Q 941 559 1184 500 
Q 1428 441 1663 441 
Q 2288 441 2617 861 
Q 2947 1281 2994 2138 
Q 2813 1869 2534 1725 
Q 2256 1581 1919 1581 
Q 1219 1581 811 2004 
Q 403 2428 403 3163 
Q 403 3881 828 4315 
Q 1253 4750 1959 4750 
Q 2769 4750 3195 4129 
Q 3622 3509 3622 2328 
Q 3622 1225 3098 567 
Q 2575 -91 1691 -91 
Q 1453 -91 1209 -44 
Q 966 3 703 97 
z
M 1959 2075 
Q 2384 2075 2632 2365 
Q 2881 2656 2881 3163 
Q 2881 3666 2632 3958 
Q 2384 4250 1959 4250 
Q 1534 4250 1286 3958 
Q 1038 3666 1038 3163 
Q 1038 2656 1286 2365 
Q 1534 2075 1959 2075 
z
" transform="scale(0.015625)"/>
       </defs>
       <use xlink:href="#DejaVuSans-31"/>
       <use xlink:href="#DejaVuSans-38" transform="translate(63.623047 0)"/>
       <use xlink:href="#DejaVuSans-39" transform="translate(127.246094 0)"/>
       <use xlink:href="#DejaVuSans-b0" transform="translate(190.869141 0)"/>
      </g>
     </g>
    </g>
    <g id="xtick_5">
     <g id="line2d_5">
      <path d="M 250.370901 141.104154 
L 51.173024 183.44497 
" clip-path="url(#p9a4f9394f4)" style="fill: none; stroke: #b0b0b0; stroke-width: 0.8; stroke-linecap: square"/>
     </g>
     <g id="text_5">
      <!-- 192° -->
      <g transform="translate(25.435208 189.115109) scale(0.1 -0.1)">
       <defs>
        <path id="DejaVuSans-32" d="M 1228 531 
L 3431 531 
L 3431 0 
L 469 0 
L 469 531 
Q 828 903 1448 1529 
Q 2069 2156 2228 2338 
Q 2531 2678 2651 2914 
Q 2772 3150 2772 3378 
Q 2772 3750 2511 3984 
Q 2250 4219 1831 4219 
Q 1534 4219 1204 4116 
Q 875 4013 500 3803 
L 500 4441 
Q 881 4594 1212 4672 
Q 1544 4750 1819 4750 
Q 2544 4750 2975 4387 
Q 3406 4025 3406 3419 
Q 3406 3131 3298 2873 
Q 3191 2616 2906 2266 
Q 2828 2175 2409 1742 
Q 1991 1309 1228 531 
z
" transform="scale(0.015625)"/>
       </defs>
       <use xlink:href="#DejaVuSans-31"/>
       <use xlink:href="#DejaVuSans-39" transform="translate(63.623047 0)"/>
       <use xlink:href="#DejaVuSans-32" transform="translate(127.246094 0)"/>
       <use xlink:href="#DejaVuSans-b0" transform="translate(190.869141 0)"/>
      </g>
     </g>
    </g>
    <g id="xtick_6">
     <g id="line2d_6">
      <path d="M 256.535991 166.783601 
L 59.827055 219.491602 
" clip-path="url(#p9a4f9394f4)" style="fill: none; stroke: #b0b0b0; stroke-width: 0.8; stroke-linecap: square"/>
     </g>
     <g id="text_6">
      <!-- 195° -->
      <g transform="translate(34.260343 225.874443) scale(0.1 -0.1)">
       <defs>
        <path id="DejaVuSans-35" d="M 691 4666 
L 3169 4666 
L 3169 4134 
L 1269 4134 
L 1269 2991 
Q 1406 3038 1543 3061 
Q 1681 3084 1819 3084 
Q 2600 3084 3056 2656 
Q 3513 2228 3513 1497 
Q 3513 744 3044 326 
Q 2575 -91 1722 -91 
Q 1428 -91 1123 -41 
Q 819 9 494 109 
L 494 744 
Q 775 591 1075 516 
Q 1375 441 1709 441 
Q 2250 441 2565 725 
Q 2881 1009 2881 1497 
Q 2881 1984 2565 2268 
Q 2250 2553 1709 2553 
Q 1456 2553 1204 2497 
Q 953 2441 691 2322 
L 691 4666 
z
" transform="scale(0.015625)"/>
       </defs>
       <use xlink:href="#DejaVuSans-31"/>
       <use xlink:href="#DejaVuSans-39" transform="translate(63.623047 0)"/>
       <use xlink:href="#DejaVuSans-35" transform="translate(127.246094 0)"/>
       <use xlink:href="#DejaVuSans-b0" transform="translate(190.869141 0)"/>
      </g>
     </g>
    </g>
    <g id="xtick_7">
     <g id="line2d_7">
      <path d="M 264.03659 192.105199 
L 70.35576 255.035915 
" clip-path="url(#p9a4f9394f4)" style="fill: none; stroke: #b0b0b0; stroke-width: 0.8; stroke-linecap: square"/>
     </g>
     <g id="text_7">
      <!-- 198° -->
      <g transform="translate(44.997219 262.121528) scale(0.1 -0.1)">
       <use xlink:href="#DejaVuSans-31"/>
       <use xlink:href="#DejaVuSans-39" transform="translate(63.623047 0)"/>
       <use xlink:href="#DejaVuSans-38" transform="translate(127.246094 0)"/>
       <use xlink:href="#DejaVuSans-b0" transform="translate(190.869141 0)"/>
      </g>
     </g>
    </g>
    <g id="xtick_8">
     <g id="line2d_8">
      <path d="M 272.85214 216.999544 
L 82.730282 289.980487 
" clip-path="url(#p9a4f9394f4)" style="fill: none; stroke: #b0b0b0; stroke-width: 0.8; stroke-linecap: square"/>
     </g>
     <g id="text_8">
      <!-- 201° -->
      <g transform="translate(57.616406 297.757013) scale(0.1 -0.1)">
       <use xlink:href="#DejaVuSans-32"/>
       <use xlink:href="#DejaVuSans-30" transform="translate(63.623047 0)"/>
       <use xlink:href="#DejaVuSans-31" transform="translate(127.246094 0)"/>
       <use xlink:href="#DejaVuSans-b0" transform="translate(190.869141 0)"/>
      </g>
     </g>
    </g>
    <g id="text_9">
     <!-- theta [rad] -->
     <g transform="translate(126.920062 311.435138) scale(0.1 -0.1)">
      <defs>
       <path id="DejaVuSans-74" d="M 1172 4494 
L 1172 3500 
L 2356 3500 
L 2356 3053 
L 1172 3053 
L 1172 1153 
Q 1172 725 1289 603 
Q 1406 481 1766 481 
L 2356 481 
L 2356 0 
L 1766 0 
Q 1100 0 847 248 
Q 594 497 594 1153 
L 594 3053 
L 172 3053 
L 172 3500 
L 594 3500 
L 594 4494 
L 1172 4494 
z
" transform="scale(0.015625)"/>
       <path id="DejaVuSans-68" d="M 3513 2113 
L 3513 0 
L 2938 0 
L 2938 2094 
Q 2938 2591 2744 2837 
Q 2550 3084 2163 3084 
Q 1697 3084 1428 2787 
Q 1159 2491 1159 1978 
L 1159 0 
L 581 0 
L 581 4863 
L 1159 4863 
L 1159 2956 
Q 1366 3272 1645 3428 
Q 1925 3584 2291 3584 
Q 2894 3584 3203 3211 
Q 3513 2838 3513 2113 
z
" transform="scale(0.015625)"/>
       <path id="DejaVuSans-65" d="M 3597 1894 
L 3597 1613 
L 953 1613 
Q 991 1019 1311 708 
Q 1631 397 2203 397 
Q 2534 397 2845 478 
Q 3156 559 3463 722 
L 3463 178 
Q 3153 47 2828 -22 
Q 2503 -91 2169 -91 
Q 1331 -91 842 396 
Q 353 884 353 1716 
Q 353 2575 817 3079 
Q 1281 3584 2069 3584 
Q 2775 3584 3186 3129 
Q 3597 2675 3597 1894 
z
M 3022 2063 
Q 3016 2534 2758 2815 
Q 2500 3097 2075 3097 
Q 1594 3097 1305 2825 
Q 1016 2553 972 2059 
L 3022 2063 
z
" transform="scale(0.015625)"/>
       <path id="DejaVuSans-61" d="M 2194 1759 
Q 1497 1759 1228 1600 
Q 959 1441 959 1056 
Q 959 750 1161 570 
Q 1363 391 1709 391 
Q 2188 391 2477 730 
Q 2766 1069 2766 1631 
L 2766 1759 
L 2194 1759 
z
M 3341 1997 
L 3341 0 
L 2766 0 
L 2766 531 
Q 2569 213 2275 61 
Q 1981 -91 1556 -91 
Q 1019 -91 701 211 
Q 384 513 384 1019 
Q 384 1609 779 1909 
Q 1175 2209 1959 2209 
L 2766 2209 
L 2766 2266 
Q 2766 2663 2505 2880 
Q 2244 3097 1772 3097 
Q 1472 3097 1187 3025 
Q 903 2953 641 2809 
L 641 3341 
Q 956 3463 1253 3523 
Q 1550 3584 1831 3584 
Q 2591 3584 2966 3190 
Q 3341 2797 3341 1997 
z
" transform="scale(0.015625)"/>
       <path id="DejaVuSans-20" transform="scale(0.015625)"/>
       <path id="DejaVuSans-5b" d="M 550 4863 
L 1875 4863 
L 1875 4416 
L 1125 4416 
L 1125 -397 
L 1875 -397 
L 1875 -844 
L 550 -844 
L 550 4863 
z
" transform="scale(0.015625)"/>
       <path id="DejaVuSans-72" d="M 2631 2963 
Q 2534 3019 2420 3045 
Q 2306 3072 2169 3072 
Q 1681 3072 1420 2755 
Q 1159 2438 1159 1844 
L 1159 0 
L 581 0 
L 581 3500 
L 1159 3500 
L 1159 2956 
Q 1341 3275 1631 3429 
Q 1922 3584 2338 3584 
Q 2397 3584 2469 3576 
Q 2541 3569 2628 3553 
L 2631 2963 
z
" transform="scale(0.015625)"/>
       <path id="DejaVuSans-64" d="M 2906 2969 
L 2906 4863 
L 3481 4863 
L 3481 0 
L 2906 0 
L 2906 525 
Q 2725 213 2448 61 
Q 2172 -91 1784 -91 
Q 1150 -91 751 415 
Q 353 922 353 1747 
Q 353 2572 751 3078 
Q 1150 3584 1784 3584 
Q 2172 3584 2448 3432 
Q 2725 3281 2906 2969 
z
M 947 1747 
Q 947 1113 1208 752 
Q 1469 391 1925 391 
Q 2381 391 2643 752 
Q 2906 1113 2906 1747 
Q 2906 2381 2643 2742 
Q 2381 3103 1925 3103 
Q 1469 3103 1208 2742 
Q 947 2381 947 1747 
z
" transform="scale(0.015625)"/>
       <path id="DejaVuSans-5d" d="M 1947 4863 
L 1947 -844 
L 622 -844 
L 622 -397 
L 1369 -397 
L 1369 4416 
L 622 4416 
L 622 4863 
L 1947 4863 
z
" transform="scale(0.015625)"/>
      </defs>
      <use xlink:href="#DejaVuSans-74"/>
      <use xlink:href="#DejaVuSans-68" transform="translate(39.208984 0)"/>
      <use xlink:href="#DejaVuSans-65" transform="translate(102.587891 0)"/>
      <use xlink:href="#DejaVuSans-74" transform="translate(164.111328 0)"/>
      <use xlink:href="#DejaVuSans-61" transform="translate(203.320312 0)"/>
      <use xlink:href="#DejaVuSans-20" transform="translate(264.599609 0)"/>
      <use xlink:href="#DejaVuSans-5b" transform="translate(296.386719 0)"/>
      <use xlink:href="#DejaVuSans-72" transform="translate(335.400391 0)"/>
      <use xlink:href="#DejaVuSans-61" transform="translate(376.513672 0)"/>
      <use xlink:href="#DejaVuSans-64" transform="translate(437.792969 0)"/>
      <use xlink:href="#DejaVuSans-5d" transform="translate(501.269531 0)"/>
     </g>
    </g>
   </g>
   <g id="matplotlib.axis_2">
    <g id="ytick_1">
     <g id="line2d_9">
      <path d="M 224.96105 27.170174 
C 224.381059 60.397851 226.994482 93.604538 232.765286 126.332397 
C 238.536091 159.060255 247.437632 191.158178 259.347181 222.183612 
" clip-path="url(#p9a4f9394f4)" style="fill: none; stroke: #b0b0b0; stroke-width: 0.8; stroke-linecap: square"/>
     </g>
     <g id="text_10">
      <!-- 44 -->
      <g transform="translate(218.720717 18.091552) scale(0.1 -0.1)">
       <defs>
        <path id="DejaVuSans-34" d="M 2419 4116 
L 825 1625 
L 2419 1625 
L 2419 4116 
z
M 2253 4666 
L 3047 4666 
L 3047 1625 
L 3713 1625 
L 3713 1100 
L 3047 1100 
L 3047 0 
L 2419 0 
L 2419 1100 
L 313 1100 
L 313 1709 
L 2253 4666 
z
" transform="scale(0.015625)"/>
       </defs>
       <use xlink:href="#DejaVuSans-34"/>
       <use xlink:href="#DejaVuSans-34" transform="translate(63.623047 0)"/>
      </g>
     </g>
    </g>
    <g id="ytick_2">
     <g id="line2d_10">
      <path d="M 201.378248 26.758534 
C 200.771893 61.49656 203.504108 96.212643 209.537222 130.428131 
C 215.570336 164.643619 224.876493 198.200538 237.327384 230.63622 
" clip-path="url(#p9a4f9394f4)" style="fill: none; stroke: #b0b0b0; stroke-width: 0.8; stroke-linecap: square"/>
     </g>
     <g id="text_11">
      <!-- 46 -->
      <g transform="translate(195.137915 17.679913) scale(0.1 -0.1)">
       <use xlink:href="#DejaVuSans-34"/>
       <use xlink:href="#DejaVuSans-36" transform="translate(63.623047 0)"/>
      </g>
     </g>
    </g>
    <g id="ytick_3">
     <g id="line2d_11">
      <path d="M 177.795446 26.346895 
C 177.162728 62.59527 180.013735 98.820747 186.309158 134.523865 
C 192.604581 170.226984 202.315354 205.242899 215.307588 239.088827 
" clip-path="url(#p9a4f9394f4)" style="fill: none; stroke: #b0b0b0; stroke-width: 0.8; stroke-linecap: square"/>
     </g>
     <g id="text_12">
      <!-- 48 -->
      <g transform="translate(171.555112 17.268274) scale(0.1 -0.1)">
       <use xlink:href="#DejaVuSans-34"/>
       <use xlink:href="#DejaVuSans-38" transform="translate(63.623047 0)"/>
      </g>
     </g>
    </g>
    <g id="ytick_4">
     <g id="line2d_12">
      <path d="M 154.212643 25.935256 
C 153.553562 63.693979 156.523361 101.428852 163.081094 138.6196 
C 169.638826 175.810348 179.754214 212.28526 193.287792 247.541435 
" clip-path="url(#p9a4f9394f4)" style="fill: none; stroke: #b0b0b0; stroke-width: 0.8; stroke-linecap: square"/>
     </g>
     <g id="text_13">
      <!-- 50 -->
      <g transform="translate(147.97231 16.856634) scale(0.1 -0.1)">
       <use xlink:href="#DejaVuSans-35"/>
       <use xlink:href="#DejaVuSans-30" transform="translate(63.623047 0)"/>
      </g>
     </g>
    </g>
    <g id="ytick_5">
     <g id="line2d_13">
      <path d="M 130.629841 25.523616 
C 129.944397 64.792689 133.032988 104.036956 139.853029 142.715334 
C 146.673071 181.393712 157.193075 219.327621 171.267996 255.994043 
" clip-path="url(#p9a4f9394f4)" style="fill: none; stroke: #b0b0b0; stroke-width: 0.8; stroke-linecap: square"/>
     </g>
     <g id="text_14">
      <!-- 52 -->
      <g transform="translate(124.389508 16.444995) scale(0.1 -0.1)">
       <use xlink:href="#DejaVuSans-35"/>
       <use xlink:href="#DejaVuSans-32" transform="translate(63.623047 0)"/>
      </g>
     </g>
    </g>
    <g id="ytick_6">
     <g id="line2d_14">
      <path d="M 107.047039 25.111977 
C 106.335232 65.891399 109.542614 106.645061 116.624965 146.811069 
C 123.707316 186.977077 134.631936 226.369982 149.248199 264.446651 
" clip-path="url(#p9a4f9394f4)" style="fill: none; stroke: #b0b0b0; stroke-width: 0.8; stroke-linecap: square"/>
     </g>
     <g id="text_15">
      <!-- 54 -->
      <g transform="translate(100.806706 16.033356) scale(0.1 -0.1)">
       <use xlink:href="#DejaVuSans-35"/>
       <use xlink:href="#DejaVuSans-34" transform="translate(63.623047 0)"/>
      </g>
     </g>
    </g>
    <g id="ytick_7">
     <g id="line2d_15">
      <path d="M 83.464237 24.700338 
C 82.726066 66.990108 86.052241 109.253165 93.396901 150.906803 
C 100.741561 192.560441 112.070796 233.412343 127.228403 272.899259 
" clip-path="url(#p9a4f9394f4)" style="fill: none; stroke: #b0b0b0; stroke-width: 0.8; stroke-linecap: square"/>
     </g>
     <g id="text_16">
      <!-- 56 -->
      <g transform="translate(77.223904 15.621716) scale(0.1 -0.1)">
       <use xlink:href="#DejaVuSans-35"/>
       <use xlink:href="#DejaVuSans-36" transform="translate(63.623047 0)"/>
      </g>
     </g>
    </g>
    <g id="ytick_8">
     <g id="line2d_16">
      <path d="M 59.881435 24.288698 
C 59.116901 68.088818 62.561867 111.86127 70.168837 155.002538 
C 77.775806 198.143806 89.509657 240.454703 105.208607 281.351867 
" clip-path="url(#p9a4f9394f4)" style="fill: none; stroke: #b0b0b0; stroke-width: 0.8; stroke-linecap: square"/>
     </g>
     <g id="text_17">
      <!-- 58 -->
      <g transform="translate(53.641101 15.210077) scale(0.1 -0.1)">
       <use xlink:href="#DejaVuSans-35"/>
       <use xlink:href="#DejaVuSans-38" transform="translate(63.623047 0)"/>
      </g>
     </g>
    </g>
    <g id="ytick_9">
     <g id="line2d_17">
      <path d="M 36.298632 23.877059 
C 35.507735 69.187527 39.071494 114.469374 46.940773 159.098272 
C 54.810052 203.72717 66.948517 247.497064 83.188811 289.804474 
" clip-path="url(#p9a4f9394f4)" style="fill: none; stroke: #b0b0b0; stroke-width: 0.8; stroke-linecap: square"/>
     </g>
     <g id="text_18">
      <!-- 60 -->
      <g transform="translate(30.058299 14.798437) scale(0.1 -0.1)">
       <use xlink:href="#DejaVuSans-36"/>
       <use xlink:href="#DejaVuSans-30" transform="translate(63.623047 0)"/>
      </g>
     </g>
    </g>
    <g id="text_19">
     <!-- [m] -->
     <g transform="translate(14.798438 165.696362) rotate(-90) scale(0.1 -0.1)">
      <defs>
       <path id="DejaVuSans-6d" d="M 3328 2828 
Q 3544 3216 3844 3400 
Q 4144 3584 4550 3584 
Q 5097 3584 5394 3201 
Q 5691 2819 5691 2113 
L 5691 0 
L 5113 0 
L 5113 2094 
Q 5113 2597 4934 2840 
Q 4756 3084 4391 3084 
Q 3944 3084 3684 2787 
Q 3425 2491 3425 1978 
L 3425 0 
L 2847 0 
L 2847 2094 
Q 2847 2600 2669 2842 
Q 2491 3084 2119 3084 
Q 1678 3084 1418 2786 
Q 1159 2488 1159 1978 
L 1159 0 
L 581 0 
L 581 3500 
L 1159 3500 
L 1159 2956 
Q 1356 3278 1631 3431 
Q 1906 3584 2284 3584 
Q 2666 3584 2933 3390 
Q 3200 3197 3328 2828 
z
" transform="scale(0.015625)"/>
      </defs>
      <use xlink:href="#DejaVuSans-5b"/>
      <use xlink:href="#DejaVuSans-6d" transform="translate(39.013672 0)"/>
      <use xlink:href="#DejaVuSans-5d" transform="translate(136.425781 0)"/>
     </g>
    </g>
   </g>
   <g id="line2d_18">
    <defs>
     <path id="mdebd3173dd" d="M 0 3 
C 0.795609 3 1.55874 2.683901 2.12132 2.12132 
C 2.683901 1.55874 3 0.795609 3 0 
C 3 -0.795609 2.683901 -1.55874 2.12132 -2.12132 
C 1.55874 -2.683901 0.795609 -3 0 -3 
C -0.795609 -3 -1.55874 -2.683901 -2.12132 -2.12132 
C -2.683901 -1.55874 -3 -0.795609 -3 0 
C -3 0.795609 -2.683901 1.55874 -2.12132 2.12132 
C -1.55874 2.683901 -0.795609 3 0 3 
z
" style="stroke: #1f77b4"/>
    </defs>
    <g clip-path="url(#p9a4f9394f4)">
     <use xlink:href="#mdebd3173dd" x="168.69933" y="36.226239" style="fill: #1f77b4; stroke: #1f77b4"/>
     <use xlink:href="#mdebd3173dd" x="159.859528" y="40.386057" style="fill: #1f77b4; stroke: #1f77b4"/>
     <use xlink:href="#mdebd3173dd" x="190.704334" y="44.106804" style="fill: #1f77b4; stroke: #1f77b4"/>
     <use xlink:href="#mdebd3173dd" x="189.748896" y="48.068508" style="fill: #1f77b4; stroke: #1f77b4"/>
     <use xlink:href="#mdebd3173dd" x="164.746524" y="52.730441" style="fill: #1f77b4; stroke: #1f77b4"/>
     <use xlink:href="#mdebd3173dd" x="105.508543" y="58.970523" style="fill: #1f77b4; stroke: #1f77b4"/>
     <use xlink:href="#mdebd3173dd" x="126.555055" y="62.624328" style="fill: #1f77b4; stroke: #1f77b4"/>
     <use xlink:href="#mdebd3173dd" x="68.647648" y="69.920829" style="fill: #1f77b4; stroke: #1f77b4"/>
     <use xlink:href="#mdebd3173dd" x="162.304972" y="69.400778" style="fill: #1f77b4; stroke: #1f77b4"/>
     <use xlink:href="#mdebd3173dd" x="131.479145" y="75.537432" style="fill: #1f77b4; stroke: #1f77b4"/>
     <use xlink:href="#mdebd3173dd" x="166.25903" y="77.437566" style="fill: #1f77b4; stroke: #1f77b4"/>
     <use xlink:href="#mdebd3173dd" x="81.482593" y="88.231707" style="fill: #1f77b4; stroke: #1f77b4"/>
     <use xlink:href="#mdebd3173dd" x="169.563912" y="85.433551" style="fill: #1f77b4; stroke: #1f77b4"/>
     <use xlink:href="#mdebd3173dd" x="144.1639" y="91.915819" style="fill: #1f77b4; stroke: #1f77b4"/>
     <use xlink:href="#mdebd3173dd" x="120.003567" y="98.644756" style="fill: #1f77b4; stroke: #1f77b4"/>
     <use xlink:href="#mdebd3173dd" x="164.171429" y="98.398515" style="fill: #1f77b4; stroke: #1f77b4"/>
     <use xlink:href="#mdebd3173dd" x="167.354269" y="102.213957" style="fill: #1f77b4; stroke: #1f77b4"/>
     <use xlink:href="#mdebd3173dd" x="193.007443" y="103.255601" style="fill: #1f77b4; stroke: #1f77b4"/>
     <use xlink:href="#mdebd3173dd" x="50.693797" y="125.590157" style="fill: #1f77b4; stroke: #1f77b4"/>
     <use xlink:href="#mdebd3173dd" x="199.827012" y="110.304695" style="fill: #1f77b4; stroke: #1f77b4"/>
     <use xlink:href="#mdebd3173dd" x="235.296052" y="109.167533" style="fill: #1f77b4; stroke: #1f77b4"/>
     <use xlink:href="#mdebd3173dd" x="108.65599" y="131.956188" style="fill: #1f77b4; stroke: #1f77b4"/>
     <use xlink:href="#mdebd3173dd" x="107.885782" y="136.710248" style="fill: #1f77b4; stroke: #1f77b4"/>
     <use xlink:href="#mdebd3173dd" x="153.791306" y="133.76914" style="fill: #1f77b4; stroke: #1f77b4"/>
     <use xlink:href="#mdebd3173dd" x="136.615744" y="141.05764" style="fill: #1f77b4; stroke: #1f77b4"/>
     <use xlink:href="#mdebd3173dd" x="166.973071" y="140.053094" style="fill: #1f77b4; stroke: #1f77b4"/>
     <use xlink:href="#mdebd3173dd" x="141.55873" y="149.062608" style="fill: #1f77b4; stroke: #1f77b4"/>
     <use xlink:href="#mdebd3173dd" x="70.439646" y="167.359787" style="fill: #1f77b4; stroke: #1f77b4"/>
     <use xlink:href="#mdebd3173dd" x="206.002002" y="144.940952" style="fill: #1f77b4; stroke: #1f77b4"/>
     <use xlink:href="#mdebd3173dd" x="82.598545" y="174.797278" style="fill: #1f77b4; stroke: #1f77b4"/>
     <use xlink:href="#mdebd3173dd" x="96.529943" y="176.698236" style="fill: #1f77b4; stroke: #1f77b4"/>
     <use xlink:href="#mdebd3173dd" x="203.338457" y="157.555457" style="fill: #1f77b4; stroke: #1f77b4"/>
     <use xlink:href="#mdebd3173dd" x="120.855681" y="180.741565" style="fill: #1f77b4; stroke: #1f77b4"/>
     <use xlink:href="#mdebd3173dd" x="148.091497" y="178.902474" style="fill: #1f77b4; stroke: #1f77b4"/>
     <use xlink:href="#mdebd3173dd" x="202.845378" y="169.86979" style="fill: #1f77b4; stroke: #1f77b4"/>
     <use xlink:href="#mdebd3173dd" x="81.724298" y="204.807022" style="fill: #1f77b4; stroke: #1f77b4"/>
     <use xlink:href="#mdebd3173dd" x="235.742968" y="169.449945" style="fill: #1f77b4; stroke: #1f77b4"/>
     <use xlink:href="#mdebd3173dd" x="107.83243" y="207.843092" style="fill: #1f77b4; stroke: #1f77b4"/>
     <use xlink:href="#mdebd3173dd" x="119.389015" y="209.505692" style="fill: #1f77b4; stroke: #1f77b4"/>
     <use xlink:href="#mdebd3173dd" x="243.484552" y="178.913326" style="fill: #1f77b4; stroke: #1f77b4"/>
     <use xlink:href="#mdebd3173dd" x="213.958774" y="191.423945" style="fill: #1f77b4; stroke: #1f77b4"/>
     <use xlink:href="#mdebd3173dd" x="202.622234" y="198.939403" style="fill: #1f77b4; stroke: #1f77b4"/>
     <use xlink:href="#mdebd3173dd" x="186.273659" y="208.195003" style="fill: #1f77b4; stroke: #1f77b4"/>
     <use xlink:href="#mdebd3173dd" x="143.38278" y="226.119562" style="fill: #1f77b4; stroke: #1f77b4"/>
     <use xlink:href="#mdebd3173dd" x="173.532117" y="221.062867" style="fill: #1f77b4; stroke: #1f77b4"/>
     <use xlink:href="#mdebd3173dd" x="253.515872" y="199.006041" style="fill: #1f77b4; stroke: #1f77b4"/>
     <use xlink:href="#mdebd3173dd" x="219.292382" y="214.527181" style="fill: #1f77b4; stroke: #1f77b4"/>
     <use xlink:href="#mdebd3173dd" x="254.58148" y="206.427839" style="fill: #1f77b4; stroke: #1f77b4"/>
     <use xlink:href="#mdebd3173dd" x="227.321863" y="220.046761" style="fill: #1f77b4; stroke: #1f77b4"/>
     <use xlink:href="#mdebd3173dd" x="138.393257" y="256.569976" style="fill: #1f77b4; stroke: #1f77b4"/>
    </g>
   </g>
   <g id="patch_3">
    <path d="M 35.807556 23.868487 
C 35.01611 69.210406 38.582343 114.523684 46.457084 159.183559 
C 54.331825 203.843435 66.478716 247.643711 82.730282 289.980487 
" style="fill: none; stroke: #000000; stroke-width: 0.8; stroke-linejoin: miter; stroke-linecap: square"/>
   </g>
   <g id="patch_4">
    <path d="M 239.424616 27.422636 
L 35.807556 23.868487 
" style="fill: none; stroke: #000000; stroke-width: 0.8; stroke-linejoin: miter; stroke-linecap: square"/>
   </g>
   <g id="patch_5">
    <path d="M 272.85214 216.999544 
L 82.730282 289.980487 
" style="fill: none; stroke: #000000; stroke-width: 0.8; stroke-linejoin: miter; stroke-linecap: square"/>
   </g>
   <g id="patch_6">
    <path d="M 239.424616 27.422636 
C 238.860794 59.724001 241.40136 92.004962 247.011288 123.820442 
C 252.621215 155.635922 261.274602 186.839028 272.85214 216.999544 
" style="fill: none; stroke: #000000; stroke-width: 0.8; stroke-linejoin: miter; stroke-linecap: square"/>
   </g>
  </g>
 </g>
 <defs>
  <clipPath id="p9a4f9394f4">
   <path d="M 35.807556 23.868487 
C 35.01611 69.210406 38.582343 114.523684 46.457084 159.183559 
C 54.331825 203.843435 66.478716 247.643711 82.730282 289.980487 
L 272.85214 216.999544 
C 261.274602 186.839028 252.621215 155.635922 247.011288 123.820442 
C 241.40136 92.004962 238.860794 59.724001 239.424616 27.422636 
z
"/>
  </clipPath>
 </defs>
</svg>
