<?xml version="1.0" encoding="utf-8" standalone="no"?>
<!DOCTYPE svg PUBLIC "-//W3C//DTD SVG 1.1//EN"
  "http://www.w3.org/Graphics/SVG/1.1/DTD/svg11.dtd">
<svg xmlns:xlink="http://www.w3.org/1999/xlink" width="305.980233pt" height="294.190125pt" viewBox="0 0 305.980233 294.190125" xmlns="http://www.w3.org/2000/svg" version="1.1">
 <metadata>
  <rdf:RDF xmlns:dc="http://purl.org/dc/elements/1.1/" xmlns:cc="http://creativecommons.org/ns#" xmlns:rdf="http://www.w3.org/1999/02/22-rdf-syntax-ns#">
   <cc:Work>
    <dc:type rdf:resource="http://purl.org/dc/dcmitype/StillImage"/>
    <dc:date>2025-06-02T11:36:55.537169</dc:date>
    <dc:format>image/svg+xml</dc:format>
    <dc:creator>
     <cc:Agent>
      <dc:title>Matplotlib v3.10.3, https://matplotlib.org/</dc:title>
     </cc:Agent>
    </dc:creator>
   </cc:Work>
  </rdf:RDF>
 </metadata>
 <defs>
  <style type="text/css">*{stroke-linejoin: round; stroke-linecap: butt}</style>
 </defs>
 <g id="figure_1">
  <g id="patch_1">
   <path d="M 0 294.190125 
L 305.980233 294.190125 
L 305.980233 0 
L 0 0 
z
" style="fill: #ffffff"/>
  </g>
  <g id="axes_1">
   <g id="patch_2">
    <path d="M 33.334543 28.237643 
C 32.668233 66.410497 35.670604 104.559238 42.300261 142.157888 
C 48.929917 179.756537 59.156249 216.631499 72.83826 252.274357 
L 298.780233 165.54336 
C 290.652866 144.370844 284.578236 122.466436 280.640098 100.132144 
C 276.701959 77.797852 274.918496 55.136795 275.314296 32.461415 
z
" style="fill: #ffffff"/>
   </g>
   <g id="matplotlib.axis_1">
    <g id="xtick_1">
     <g id="line2d_1">
      <path d="M 275.260363 38.641496 
L 33.24375 38.641496 
" clip-path="url(#peceaac1570)" style="fill: none; stroke: #b0b0b0; stroke-width: 0.8; stroke-linecap: square"/>
     </g>
     <g id="text_1">
      <!-- 180° -->
      <g transform="translate(7.2 41.400871) scale(0.1 -0.1)">
       <defs>
        <path id="DejaVuSans-31" d="M 794 531 
L 1825 531 
L 1825 4091 
L 703 3866 
L 703 4441 
L 1819 4666 
L 2450 4666 
L 2450 531 
L 3481 531 
L 3481 0 
L 794 0 
L 794 531 
z
" transform="scale(0.015625)"/>
        <path id="DejaVuSans-38" d="M 2034 2216 
Q 1584 2216 1326 1975 
Q 1069 1734 1069 1313 
Q 1069 891 1326 650 
Q 1584 409 2034 409 
Q 2484 409 2743 651 
Q 3003 894 3003 1313 
Q 3003 1734 2745 1975 
Q 2488 2216 2034 2216 
z
M 1403 2484 
Q 997 2584 770 2862 
Q 544 3141 544 3541 
Q 544 4100 942 4425 
Q 1341 4750 2034 4750 
Q 2731 4750 3128 4425 
Q 3525 4100 3525 3541 
Q 3525 3141 3298 2862 
Q 3072 2584 2669 2484 
Q 3125 2378 3379 2068 
Q 3634 1759 3634 1313 
Q 3634 634 3220 271 
Q 2806 -91 2034 -91 
Q 1263 -91 848 271 
Q 434 634 434 1313 
Q 434 1759 690 2068 
Q 947 2378 1403 2484 
z
M 1172 3481 
Q 1172 3119 1398 2916 
Q 1625 2713 2034 2713 
Q 2441 2713 2670 2916 
Q 2900 3119 2900 3481 
Q 2900 3844 2670 4047 
Q 2441 4250 2034 4250 
Q 1625 4250 1398 4047 
Q 1172 3844 1172 3481 
z
" transform="scale(0.015625)"/>
        <path id="DejaVuSans-30" d="M 2034 4250 
Q 1547 4250 1301 3770 
Q 1056 3291 1056 2328 
Q 1056 1369 1301 889 
Q 1547 409 2034 409 
Q 2525 409 2770 889 
Q 3016 1369 3016 2328 
Q 3016 3291 2770 3770 
Q 2525 4250 2034 4250 
z
M 2034 4750 
Q 2819 4750 3233 4129 
Q 3647 3509 3647 2328 
Q 3647 1150 3233 529 
Q 2819 -91 2034 -91 
Q 1250 -91 836 529 
Q 422 1150 422 2328 
Q 422 3509 836 4129 
Q 1250 4750 2034 4750 
z
" transform="scale(0.015625)"/>
        <path id="DejaVuSans-b0" d="M 1600 4347 
Q 1350 4347 1178 4173 
Q 1006 4000 1006 3750 
Q 1006 3503 1178 3333 
Q 1350 3163 1600 3163 
Q 1850 3163 2022 3333 
Q 2194 3503 2194 3750 
Q 2194 3997 2020 4172 
Q 1847 4347 1600 4347 
z
M 1600 4750 
Q 1800 4750 1984 4673 
Q 2169 4597 2303 4453 
Q 2447 4313 2519 4134 
Q 2591 3956 2591 3750 
Q 2591 3338 2302 3052 
Q 2013 2766 1594 2766 
Q 1172 2766 890 3047 
Q 609 3328 609 3750 
Q 609 4169 896 4459 
Q 1184 4750 1600 4750 
z
" transform="scale(0.015625)"/>
       </defs>
       <use xlink:href="#DejaVuSans-31"/>
       <use xlink:href="#DejaVuSans-38" transform="translate(63.623047 0)"/>
       <use xlink:href="#DejaVuSans-30" transform="translate(127.246094 0)"/>
       <use xlink:href="#DejaVuSans-b0" transform="translate(190.869141 0)"/>
      </g>
     </g>
    </g>
    <g id="xtick_2">
     <g id="line2d_2">
      <path d="M 275.745659 57.174209 
L 34.060722 69.84038 
" clip-path="url(#peceaac1570)" style="fill: none; stroke: #b0b0b0; stroke-width: 0.8; stroke-linecap: square"/>
     </g>
     <g id="text_2">
      <!-- 183° -->
      <g transform="translate(8.036158 73.332458) scale(0.1 -0.1)">
       <defs>
        <path id="DejaVuSans-33" d="M 2597 2516 
Q 3050 2419 3304 2112 
Q 3559 1806 3559 1356 
Q 3559 666 3084 287 
Q 2609 -91 1734 -91 
Q 1441 -91 1130 -33 
Q 819 25 488 141 
L 488 750 
Q 750 597 1062 519 
Q 1375 441 1716 441 
Q 2309 441 2620 675 
Q 2931 909 2931 1356 
Q 2931 1769 2642 2001 
Q 2353 2234 1838 2234 
L 1294 2234 
L 1294 2753 
L 1863 2753 
Q 2328 2753 2575 2939 
Q 2822 3125 2822 3475 
Q 2822 3834 2567 4026 
Q 2313 4219 1838 4219 
Q 1578 4219 1281 4162 
Q 984 4106 628 3988 
L 628 4550 
Q 988 4650 1302 4700 
Q 1616 4750 1894 4750 
Q 2613 4750 3031 4423 
Q 3450 4097 3450 3541 
Q 3450 3153 3228 2886 
Q 3006 2619 2597 2516 
z
" transform="scale(0.015625)"/>
       </defs>
       <use xlink:href="#DejaVuSans-31"/>
       <use xlink:href="#DejaVuSans-38" transform="translate(63.623047 0)"/>
       <use xlink:href="#DejaVuSans-33" transform="translate(127.246094 0)"/>
       <use xlink:href="#DejaVuSans-b0" transform="translate(190.869141 0)"/>
      </g>
     </g>
    </g>
    <g id="xtick_3">
     <g id="line2d_3">
      <path d="M 277.200218 75.656125 
L 36.509397 100.95375 
" clip-path="url(#peceaac1570)" style="fill: none; stroke: #b0b0b0; stroke-width: 0.8; stroke-linecap: square"/>
     </g>
     <g id="text_3">
      <!-- 186° -->
      <g transform="translate(10.54234 105.176523) scale(0.1 -0.1)">
       <defs>
        <path id="DejaVuSans-36" d="M 2113 2584 
Q 1688 2584 1439 2293 
Q 1191 2003 1191 1497 
Q 1191 994 1439 701 
Q 1688 409 2113 409 
Q 2538 409 2786 701 
Q 3034 994 3034 1497 
Q 3034 2003 2786 2293 
Q 2538 2584 2113 2584 
z
M 3366 4563 
L 3366 3988 
Q 3128 4100 2886 4159 
Q 2644 4219 2406 4219 
Q 1781 4219 1451 3797 
Q 1122 3375 1075 2522 
Q 1259 2794 1537 2939 
Q 1816 3084 2150 3084 
Q 2853 3084 3261 2657 
Q 3669 2231 3669 1497 
Q 3669 778 3244 343 
Q 2819 -91 2113 -91 
Q 1303 -91 875 529 
Q 447 1150 447 2328 
Q 447 3434 972 4092 
Q 1497 4750 2381 4750 
Q 2619 4750 2861 4703 
Q 3103 4656 3366 4563 
z
" transform="scale(0.015625)"/>
       </defs>
       <use xlink:href="#DejaVuSans-31"/>
       <use xlink:href="#DejaVuSans-38" transform="translate(63.623047 0)"/>
       <use xlink:href="#DejaVuSans-36" transform="translate(127.246094 0)"/>
       <use xlink:href="#DejaVuSans-b0" transform="translate(190.869141 0)"/>
      </g>
     </g>
    </g>
    <g id="xtick_4">
     <g id="line2d_4">
      <path d="M 279.620051 94.036587 
L 40.583064 131.896326 
" clip-path="url(#peceaac1570)" style="fill: none; stroke: #b0b0b0; stroke-width: 0.8; stroke-linecap: square"/>
     </g>
     <g id="text_4">
      <!-- 189° -->
      <g transform="translate(14.711678 136.845784) scale(0.1 -0.1)">
       <defs>
        <path id="DejaVuSans-39" d="M 703 97 
L 703 672 
Q 941 559 1184 500 
Q 1428 441 1663 441 
Q 2288 441 2617 861 
Q 2947 1281 2994 2138 
Q 2813 1869 2534 1725 
Q 2256 1581 1919 1581 
Q 1219 1581 811 2004 
Q 403 2428 403 3163 
Q 403 3881 828 4315 
Q 1253 4750 1959 4750 
Q 2769 4750 3195 4129 
Q 3622 3509 3622 2328 
Q 3622 1225 3098 567 
Q 2575 -91 1691 -91 
Q 1453 -91 1209 -44 
Q 966 3 703 97 
z
M 1959 2075 
Q 2384 2075 2632 2365 
Q 2881 2656 2881 3163 
Q 2881 3666 2632 3958 
Q 2384 4250 1959 4250 
Q 1534 4250 1286 3958 
Q 1038 3666 1038 3163 
Q 1038 2656 1286 2365 
Q 1534 2075 1959 2075 
z
" transform="scale(0.015625)"/>
       </defs>
       <use xlink:href="#DejaVuSans-31"/>
       <use xlink:href="#DejaVuSans-38" transform="translate(63.623047 0)"/>
       <use xlink:href="#DejaVuSans-39" transform="translate(127.246094 0)"/>
       <use xlink:href="#DejaVuSans-b0" transform="translate(190.869141 0)"/>
      </g>
     </g>
    </g>
    <g id="xtick_5">
     <g id="line2d_5">
      <path d="M 282.998528 112.265215 
L 46.270558 162.583298 
" clip-path="url(#peceaac1570)" style="fill: none; stroke: #b0b0b0; stroke-width: 0.8; stroke-linecap: square"/>
     </g>
     <g id="text_5">
      <!-- 192° -->
      <g transform="translate(20.532742 168.253437) scale(0.1 -0.1)">
       <defs>
        <path id="DejaVuSans-32" d="M 1228 531 
L 3431 531 
L 3431 0 
L 469 0 
L 469 531 
Q 828 903 1448 1529 
Q 2069 2156 2228 2338 
Q 2531 2678 2651 2914 
Q 2772 3150 2772 3378 
Q 2772 3750 2511 3984 
Q 2250 4219 1831 4219 
Q 1534 4219 1204 4116 
Q 875 4013 500 3803 
L 500 4441 
Q 881 4594 1212 4672 
Q 1544 4750 1819 4750 
Q 2544 4750 2975 4387 
Q 3406 4025 3406 3419 
Q 3406 3131 3298 2873 
Q 3191 2616 2906 2266 
Q 2828 2175 2409 1742 
Q 1991 1309 1228 531 
z
" transform="scale(0.015625)"/>
       </defs>
       <use xlink:href="#DejaVuSans-31"/>
       <use xlink:href="#DejaVuSans-39" transform="translate(63.623047 0)"/>
       <use xlink:href="#DejaVuSans-32" transform="translate(127.246094 0)"/>
       <use xlink:href="#DejaVuSans-b0" transform="translate(190.869141 0)"/>
      </g>
     </g>
    </g>
    <g id="xtick_6">
     <g id="line2d_6">
      <path d="M 287.326387 130.292045 
L 53.55629 192.930553 
" clip-path="url(#peceaac1570)" style="fill: none; stroke: #b0b0b0; stroke-width: 0.8; stroke-linecap: square"/>
     </g>
     <g id="text_6">
      <!-- 195° -->
      <g transform="translate(27.989578 199.313395) scale(0.1 -0.1)">
       <defs>
        <path id="DejaVuSans-35" d="M 691 4666 
L 3169 4666 
L 3169 4134 
L 1269 4134 
L 1269 2991 
Q 1406 3038 1543 3061 
Q 1681 3084 1819 3084 
Q 2600 3084 3056 2656 
Q 3513 2228 3513 1497 
Q 3513 744 3044 326 
Q 2575 -91 1722 -91 
Q 1428 -91 1123 -41 
Q 819 9 494 109 
L 494 744 
Q 775 591 1075 516 
Q 1375 441 1709 441 
Q 2250 441 2565 725 
Q 2881 1009 2881 1497 
Q 2881 1984 2565 2268 
Q 2250 2553 1709 2553 
Q 1456 2553 1204 2497 
Q 953 2441 691 2322 
L 691 4666 
z
" transform="scale(0.015625)"/>
       </defs>
       <use xlink:href="#DejaVuSans-31"/>
       <use xlink:href="#DejaVuSans-39" transform="translate(63.623047 0)"/>
       <use xlink:href="#DejaVuSans-35" transform="translate(127.246094 0)"/>
       <use xlink:href="#DejaVuSans-b0" transform="translate(190.869141 0)"/>
      </g>
     </g>
    </g>
    <g id="xtick_7">
     <g id="line2d_7">
      <path d="M 292.591766 148.067667 
L 62.420289 222.854913 
" clip-path="url(#peceaac1570)" style="fill: none; stroke: #b0b0b0; stroke-width: 0.8; stroke-linecap: square"/>
     </g>
     <g id="text_7">
      <!-- 198° -->
      <g transform="translate(37.061748 229.940526) scale(0.1 -0.1)">
       <use xlink:href="#DejaVuSans-31"/>
       <use xlink:href="#DejaVuSans-39" transform="translate(63.623047 0)"/>
       <use xlink:href="#DejaVuSans-38" transform="translate(127.246094 0)"/>
       <use xlink:href="#DejaVuSans-b0" transform="translate(190.869141 0)"/>
      </g>
     </g>
    </g>
    <g id="xtick_8">
     <g id="line2d_8">
      <path d="M 298.780233 165.54336 
L 72.83826 252.274357 
" clip-path="url(#peceaac1570)" style="fill: none; stroke: #b0b0b0; stroke-width: 0.8; stroke-linecap: square"/>
     </g>
     <g id="text_8">
      <!-- 201° -->
      <g transform="translate(47.724385 260.050884) scale(0.1 -0.1)">
       <use xlink:href="#DejaVuSans-32"/>
       <use xlink:href="#DejaVuSans-30" transform="translate(63.623047 0)"/>
       <use xlink:href="#DejaVuSans-31" transform="translate(127.246094 0)"/>
       <use xlink:href="#DejaVuSans-b0" transform="translate(190.869141 0)"/>
      </g>
     </g>
    </g>
    <g id="text_9">
     <!-- theta [rad] -->
     <g transform="translate(138.710171 284.910437) scale(0.1 -0.1)">
      <defs>
       <path id="DejaVuSans-74" d="M 1172 4494 
L 1172 3500 
L 2356 3500 
L 2356 3053 
L 1172 3053 
L 1172 1153 
Q 1172 725 1289 603 
Q 1406 481 1766 481 
L 2356 481 
L 2356 0 
L 1766 0 
Q 1100 0 847 248 
Q 594 497 594 1153 
L 594 3053 
L 172 3053 
L 172 3500 
L 594 3500 
L 594 4494 
L 1172 4494 
z
" transform="scale(0.015625)"/>
       <path id="DejaVuSans-68" d="M 3513 2113 
L 3513 0 
L 2938 0 
L 2938 2094 
Q 2938 2591 2744 2837 
Q 2550 3084 2163 3084 
Q 1697 3084 1428 2787 
Q 1159 2491 1159 1978 
L 1159 0 
L 581 0 
L 581 4863 
L 1159 4863 
L 1159 2956 
Q 1366 3272 1645 3428 
Q 1925 3584 2291 3584 
Q 2894 3584 3203 3211 
Q 3513 2838 3513 2113 
z
" transform="scale(0.015625)"/>
       <path id="DejaVuSans-65" d="M 3597 1894 
L 3597 1613 
L 953 1613 
Q 991 1019 1311 708 
Q 1631 397 2203 397 
Q 2534 397 2845 478 
Q 3156 559 3463 722 
L 3463 178 
Q 3153 47 2828 -22 
Q 2503 -91 2169 -91 
Q 1331 -91 842 396 
Q 353 884 353 1716 
Q 353 2575 817 3079 
Q 1281 3584 2069 3584 
Q 2775 3584 3186 3129 
Q 3597 2675 3597 1894 
z
M 3022 2063 
Q 3016 2534 2758 2815 
Q 2500 3097 2075 3097 
Q 1594 3097 1305 2825 
Q 1016 2553 972 2059 
L 3022 2063 
z
" transform="scale(0.015625)"/>
       <path id="DejaVuSans-61" d="M 2194 1759 
Q 1497 1759 1228 1600 
Q 959 1441 959 1056 
Q 959 750 1161 570 
Q 1363 391 1709 391 
Q 2188 391 2477 730 
Q 2766 1069 2766 1631 
L 2766 1759 
L 2194 1759 
z
M 3341 1997 
L 3341 0 
L 2766 0 
L 2766 531 
Q 2569 213 2275 61 
Q 1981 -91 1556 -91 
Q 1019 -91 701 211 
Q 384 513 384 1019 
Q 384 1609 779 1909 
Q 1175 2209 1959 2209 
L 2766 2209 
L 2766 2266 
Q 2766 2663 2505 2880 
Q 2244 3097 1772 3097 
Q 1472 3097 1187 3025 
Q 903 2953 641 2809 
L 641 3341 
Q 956 3463 1253 3523 
Q 1550 3584 1831 3584 
Q 2591 3584 2966 3190 
Q 3341 2797 3341 1997 
z
" transform="scale(0.015625)"/>
       <path id="DejaVuSans-20" transform="scale(0.015625)"/>
       <path id="DejaVuSans-5b" d="M 550 4863 
L 1875 4863 
L 1875 4416 
L 1125 4416 
L 1125 -397 
L 1875 -397 
L 1875 -844 
L 550 -844 
L 550 4863 
z
" transform="scale(0.015625)"/>
       <path id="DejaVuSans-72" d="M 2631 2963 
Q 2534 3019 2420 3045 
Q 2306 3072 2169 3072 
Q 1681 3072 1420 2755 
Q 1159 2438 1159 1844 
L 1159 0 
L 581 0 
L 581 3500 
L 1159 3500 
L 1159 2956 
Q 1341 3275 1631 3429 
Q 1922 3584 2338 3584 
Q 2397 3584 2469 3576 
Q 2541 3569 2628 3553 
L 2631 2963 
z
" transform="scale(0.015625)"/>
       <path id="DejaVuSans-64" d="M 2906 2969 
L 2906 4863 
L 3481 4863 
L 3481 0 
L 2906 0 
L 2906 525 
Q 2725 213 2448 61 
Q 2172 -91 1784 -91 
Q 1150 -91 751 415 
Q 353 922 353 1747 
Q 353 2572 751 3078 
Q 1150 3584 1784 3584 
Q 2172 3584 2448 3432 
Q 2725 3281 2906 2969 
z
M 947 1747 
Q 947 1113 1208 752 
Q 1469 391 1925 391 
Q 2381 391 2643 752 
Q 2906 1113 2906 1747 
Q 2906 2381 2643 2742 
Q 2381 3103 1925 3103 
Q 1469 3103 1208 2742 
Q 947 2381 947 1747 
z
" transform="scale(0.015625)"/>
       <path id="DejaVuSans-5d" d="M 1947 4863 
L 1947 -844 
L 622 -844 
L 622 -397 
L 1369 -397 
L 1369 4416 
L 622 4416 
L 622 4863 
L 1947 4863 
z
" transform="scale(0.015625)"/>
      </defs>
      <use xlink:href="#DejaVuSans-74"/>
      <use xlink:href="#DejaVuSans-68" transform="translate(39.208984 0)"/>
      <use xlink:href="#DejaVuSans-65" transform="translate(102.587891 0)"/>
      <use xlink:href="#DejaVuSans-74" transform="translate(164.111328 0)"/>
      <use xlink:href="#DejaVuSans-61" transform="translate(203.320312 0)"/>
      <use xlink:href="#DejaVuSans-20" transform="translate(264.599609 0)"/>
      <use xlink:href="#DejaVuSans-5b" transform="translate(296.386719 0)"/>
      <use xlink:href="#DejaVuSans-72" transform="translate(335.400391 0)"/>
      <use xlink:href="#DejaVuSans-61" transform="translate(376.513672 0)"/>
      <use xlink:href="#DejaVuSans-64" transform="translate(437.792969 0)"/>
      <use xlink:href="#DejaVuSans-5d" transform="translate(501.269531 0)"/>
     </g>
    </g>
   </g>
   <g id="matplotlib.axis_2">
    <g id="ytick_1">
     <g id="line2d_9">
      <path d="M 248.553525 31.994304 
C 248.127809 56.383565 250.046073 80.757419 254.281869 104.779811 
C 258.517665 128.802202 265.051435 152.362218 273.793096 175.135023 
" clip-path="url(#peceaac1570)" style="fill: none; stroke: #b0b0b0; stroke-width: 0.8; stroke-linecap: square"/>
     </g>
     <g id="text_10">
      <!-- 40 -->
      <g transform="translate(242.313192 22.915683) scale(0.1 -0.1)">
       <defs>
        <path id="DejaVuSans-34" d="M 2419 4116 
L 825 1625 
L 2419 1625 
L 2419 4116 
z
M 2253 4666 
L 3047 4666 
L 3047 1625 
L 3713 1625 
L 3713 1100 
L 3047 1100 
L 3047 0 
L 2419 0 
L 2419 1100 
L 313 1100 
L 313 1709 
L 2253 4666 
z
" transform="scale(0.015625)"/>
       </defs>
       <use xlink:href="#DejaVuSans-34"/>
       <use xlink:href="#DejaVuSans-30" transform="translate(63.623047 0)"/>
      </g>
     </g>
    </g>
    <g id="ytick_2">
     <g id="line2d_10">
      <path d="M 200.951355 31.163405 
C 200.472424 58.601323 202.630471 86.021909 207.395741 113.0471 
C 212.161011 140.072291 219.511503 166.577309 229.345872 192.196714 
" clip-path="url(#peceaac1570)" style="fill: none; stroke: #b0b0b0; stroke-width: 0.8; stroke-linecap: square"/>
     </g>
     <g id="text_11">
      <!-- 45 -->
      <g transform="translate(194.711021 22.084784) scale(0.1 -0.1)">
       <use xlink:href="#DejaVuSans-34"/>
       <use xlink:href="#DejaVuSans-35" transform="translate(63.623047 0)"/>
      </g>
     </g>
    </g>
    <g id="ytick_3">
     <g id="line2d_11">
      <path d="M 153.349184 30.332506 
C 152.817039 60.819082 155.214869 91.2864 160.509613 121.314389 
C 165.804358 151.342379 173.971571 180.792399 184.898647 209.258405 
" clip-path="url(#peceaac1570)" style="fill: none; stroke: #b0b0b0; stroke-width: 0.8; stroke-linecap: square"/>
     </g>
     <g id="text_12">
      <!-- 50 -->
      <g transform="translate(147.108851 21.253885) scale(0.1 -0.1)">
       <use xlink:href="#DejaVuSans-35"/>
       <use xlink:href="#DejaVuSans-30" transform="translate(63.623047 0)"/>
      </g>
     </g>
    </g>
    <g id="ytick_4">
     <g id="line2d_12">
      <path d="M 105.747013 29.501607 
C 105.161653 63.036841 107.799266 96.55089 113.623485 129.581679 
C 119.447705 162.612467 128.431639 195.007489 140.451423 226.320096 
" clip-path="url(#peceaac1570)" style="fill: none; stroke: #b0b0b0; stroke-width: 0.8; stroke-linecap: square"/>
     </g>
     <g id="text_13">
      <!-- 55 -->
      <g transform="translate(99.50668 20.422986) scale(0.1 -0.1)">
       <use xlink:href="#DejaVuSans-35"/>
       <use xlink:href="#DejaVuSans-35" transform="translate(63.623047 0)"/>
      </g>
     </g>
    </g>
    <g id="ytick_5">
     <g id="line2d_13">
      <path d="M 58.144842 28.670708 
C 57.506268 65.254599 60.383664 101.815381 66.737358 137.848968 
C 73.091051 173.882556 82.891707 209.22258 96.004198 243.381787 
" clip-path="url(#peceaac1570)" style="fill: none; stroke: #b0b0b0; stroke-width: 0.8; stroke-linecap: square"/>
     </g>
     <g id="text_14">
      <!-- 60 -->
      <g transform="translate(51.904509 19.592087) scale(0.1 -0.1)">
       <use xlink:href="#DejaVuSans-36"/>
       <use xlink:href="#DejaVuSans-30" transform="translate(63.623047 0)"/>
      </g>
     </g>
    </g>
    <g id="text_15">
     <!-- [m] -->
     <g transform="translate(26.588546 149.027875) rotate(-90) scale(0.1 -0.1)">
      <defs>
       <path id="DejaVuSans-6d" d="M 3328 2828 
Q 3544 3216 3844 3400 
Q 4144 3584 4550 3584 
Q 5097 3584 5394 3201 
Q 5691 2819 5691 2113 
L 5691 0 
L 5113 0 
L 5113 2094 
Q 5113 2597 4934 2840 
Q 4756 3084 4391 3084 
Q 3944 3084 3684 2787 
Q 3425 2491 3425 1978 
L 3425 0 
L 2847 0 
L 2847 2094 
Q 2847 2600 2669 2842 
Q 2491 3084 2119 3084 
Q 1678 3084 1418 2786 
Q 1159 2488 1159 1978 
L 1159 0 
L 581 0 
L 581 3500 
L 1159 3500 
L 1159 2956 
Q 1356 3278 1631 3431 
Q 1906 3584 2284 3584 
Q 2666 3584 2933 3390 
Q 3200 3197 3328 2828 
z
" transform="scale(0.015625)"/>
      </defs>
      <use xlink:href="#DejaVuSans-5b"/>
      <use xlink:href="#DejaVuSans-6d" transform="translate(39.013672 0)"/>
      <use xlink:href="#DejaVuSans-5d" transform="translate(136.425781 0)"/>
     </g>
    </g>
   </g>
   <g id="line2d_14">
    <defs>
     <path id="mc3d6e60470" d="M 0 3 
C 0.795609 3 1.55874 2.683901 2.12132 2.12132 
C 2.683901 1.55874 3 0.795609 3 0 
C 3 -0.795609 2.683901 -1.55874 2.12132 -2.12132 
C 1.55874 -2.683901 0.795609 -3 0 -3 
C -0.795609 -3 -1.55874 -2.683901 -2.12132 -2.12132 
C -2.683901 -1.55874 -3 -0.795609 -3 0 
C -3 0.795609 -2.683901 1.55874 -2.12132 2.12132 
C -1.55874 2.683901 -0.795609 3 0 3 
z
" style="stroke: #1f77b4"/>
    </defs>
    <g clip-path="url(#peceaac1570)">
     <use xlink:href="#mc3d6e60470" x="112.818419" y="38.641496" style="fill: #1f77b4; stroke: #1f77b4"/>
     <use xlink:href="#mc3d6e60470" x="170.73365" y="41.908788" style="fill: #1f77b4; stroke: #1f77b4"/>
     <use xlink:href="#mc3d6e60470" x="83.36048" y="46.421352" style="fill: #1f77b4; stroke: #1f77b4"/>
     <use xlink:href="#mc3d6e60470" x="161.569941" y="48.640569" style="fill: #1f77b4; stroke: #1f77b4"/>
     <use xlink:href="#mc3d6e60470" x="114.139186" y="53.327087" style="fill: #1f77b4; stroke: #1f77b4"/>
     <use xlink:href="#mc3d6e60470" x="214.035843" y="53.44156" style="fill: #1f77b4; stroke: #1f77b4"/>
     <use xlink:href="#mc3d6e60470" x="166.719734" y="58.428533" style="fill: #1f77b4; stroke: #1f77b4"/>
     <use xlink:href="#mc3d6e60470" x="139.719461" y="63.078983" style="fill: #1f77b4; stroke: #1f77b4"/>
     <use xlink:href="#mc3d6e60470" x="105.616768" y="68.52278" style="fill: #1f77b4; stroke: #1f77b4"/>
     <use xlink:href="#mc3d6e60470" x="127.839223" y="70.840897" style="fill: #1f77b4; stroke: #1f77b4"/>
     <use xlink:href="#mc3d6e60470" x="87.287732" y="77.323835" style="fill: #1f77b4; stroke: #1f77b4"/>
     <use xlink:href="#mc3d6e60470" x="126.813893" y="78.103534" style="fill: #1f77b4; stroke: #1f77b4"/>
     <use xlink:href="#mc3d6e60470" x="230.366913" y="72.833887" style="fill: #1f77b4; stroke: #1f77b4"/>
     <use xlink:href="#mc3d6e60470" x="133.40054" y="84.704729" style="fill: #1f77b4; stroke: #1f77b4"/>
     <use xlink:href="#mc3d6e60470" x="159.555727" y="85.653594" style="fill: #1f77b4; stroke: #1f77b4"/>
     <use xlink:href="#mc3d6e60470" x="128.155979" y="92.404549" style="fill: #1f77b4; stroke: #1f77b4"/>
     <use xlink:href="#mc3d6e60470" x="48.041255" y="105.190288" style="fill: #1f77b4; stroke: #1f77b4"/>
     <use xlink:href="#mc3d6e60470" x="120.205257" y="100.606966" style="fill: #1f77b4; stroke: #1f77b4"/>
     <use xlink:href="#mc3d6e60470" x="86.490054" y="108.638229" style="fill: #1f77b4; stroke: #1f77b4"/>
     <use xlink:href="#mc3d6e60470" x="127.313638" y="107.014025" style="fill: #1f77b4; stroke: #1f77b4"/>
     <use xlink:href="#mc3d6e60470" x="201.710714" y="99.98841" style="fill: #1f77b4; stroke: #1f77b4"/>
     <use xlink:href="#mc3d6e60470" x="172.060237" y="107.569986" style="fill: #1f77b4; stroke: #1f77b4"/>
     <use xlink:href="#mc3d6e60470" x="196.660462" y="107.018111" style="fill: #1f77b4; stroke: #1f77b4"/>
     <use xlink:href="#mc3d6e60470" x="86.399809" y="128.410559" style="fill: #1f77b4; stroke: #1f77b4"/>
     <use xlink:href="#mc3d6e60470" x="185.297342" y="115.313739" style="fill: #1f77b4; stroke: #1f77b4"/>
     <use xlink:href="#mc3d6e60470" x="115.043584" y="131.221411" style="fill: #1f77b4; stroke: #1f77b4"/>
     <use xlink:href="#mc3d6e60470" x="124.542276" y="133.229275" style="fill: #1f77b4; stroke: #1f77b4"/>
     <use xlink:href="#mc3d6e60470" x="233.491805" y="115.738941" style="fill: #1f77b4; stroke: #1f77b4"/>
     <use xlink:href="#mc3d6e60470" x="187.198402" y="128.028593" style="fill: #1f77b4; stroke: #1f77b4"/>
     <use xlink:href="#mc3d6e60470" x="123.039062" y="144.75857" style="fill: #1f77b4; stroke: #1f77b4"/>
     <use xlink:href="#mc3d6e60470" x="108.92867" y="151.592051" style="fill: #1f77b4; stroke: #1f77b4"/>
     <use xlink:href="#mc3d6e60470" x="211.791534" y="132.387665" style="fill: #1f77b4; stroke: #1f77b4"/>
     <use xlink:href="#mc3d6e60470" x="150.822552" y="149.661836" style="fill: #1f77b4; stroke: #1f77b4"/>
     <use xlink:href="#mc3d6e60470" x="177.320157" y="146.913863" style="fill: #1f77b4; stroke: #1f77b4"/>
     <use xlink:href="#mc3d6e60470" x="274.917013" y="126.212593" style="fill: #1f77b4; stroke: #1f77b4"/>
     <use xlink:href="#mc3d6e60470" x="189.638412" y="150.611144" style="fill: #1f77b4; stroke: #1f77b4"/>
     <use xlink:href="#mc3d6e60470" x="220.063434" y="145.974551" style="fill: #1f77b4; stroke: #1f77b4"/>
     <use xlink:href="#mc3d6e60470" x="152.751147" y="167.261586" style="fill: #1f77b4; stroke: #1f77b4"/>
     <use xlink:href="#mc3d6e60470" x="217.260868" y="153.008764" style="fill: #1f77b4; stroke: #1f77b4"/>
     <use xlink:href="#mc3d6e60470" x="180.548136" y="166.64759" style="fill: #1f77b4; stroke: #1f77b4"/>
     <use xlink:href="#mc3d6e60470" x="175.55771" y="171.573893" style="fill: #1f77b4; stroke: #1f77b4"/>
     <use xlink:href="#mc3d6e60470" x="153.788275" y="181.637072" style="fill: #1f77b4; stroke: #1f77b4"/>
     <use xlink:href="#mc3d6e60470" x="150.966751" y="186.20963" style="fill: #1f77b4; stroke: #1f77b4"/>
     <use xlink:href="#mc3d6e60470" x="196.324812" y="175.604471" style="fill: #1f77b4; stroke: #1f77b4"/>
     <use xlink:href="#mc3d6e60470" x="216.478091" y="172.473385" style="fill: #1f77b4; stroke: #1f77b4"/>
     <use xlink:href="#mc3d6e60470" x="117.936352" y="208.449462" style="fill: #1f77b4; stroke: #1f77b4"/>
     <use xlink:href="#mc3d6e60470" x="175.022791" y="193.09753" style="fill: #1f77b4; stroke: #1f77b4"/>
     <use xlink:href="#mc3d6e60470" x="241.727454" y="173.509381" style="fill: #1f77b4; stroke: #1f77b4"/>
     <use xlink:href="#mc3d6e60470" x="193.90885" y="193.632648" style="fill: #1f77b4; stroke: #1f77b4"/>
     <use xlink:href="#mc3d6e60470" x="196.912274" y="196.04356" style="fill: #1f77b4; stroke: #1f77b4"/>
    </g>
   </g>
   <g id="patch_3">
    <path d="M 33.334543 28.237643 
C 32.668233 66.410497 35.670604 104.559238 42.300261 142.157888 
C 48.929917 179.756537 59.156249 216.631499 72.83826 252.274357 
" style="fill: none; stroke: #000000; stroke-width: 0.8; stroke-linejoin: miter; stroke-linecap: square"/>
   </g>
   <g id="patch_4">
    <path d="M 275.314296 32.461415 
L 33.334543 28.237643 
" style="fill: none; stroke: #000000; stroke-width: 0.8; stroke-linejoin: miter; stroke-linecap: square"/>
   </g>
   <g id="patch_5">
    <path d="M 298.780233 165.54336 
L 72.83826 252.274357 
" style="fill: none; stroke: #000000; stroke-width: 0.8; stroke-linejoin: miter; stroke-linecap: square"/>
   </g>
   <g id="patch_6">
    <path d="M 275.314296 32.461415 
C 274.918496 55.136795 276.701959 77.797852 280.640098 100.132144 
C 284.578236 122.466436 290.652866 144.370844 298.780233 165.54336 
" style="fill: none; stroke: #000000; stroke-width: 0.8; stroke-linejoin: miter; stroke-linecap: square"/>
   </g>
  </g>
 </g>
 <defs>
  <clipPath id="peceaac1570">
   <path d="M 33.334543 28.237643 
C 32.668233 66.410497 35.670604 104.559238 42.300261 142.157888 
C 48.929917 179.756537 59.156249 216.631499 72.83826 252.274357 
L 298.780233 165.54336 
C 290.652866 144.370844 284.578236 122.466436 280.640098 100.132144 
C 276.701959 77.797852 274.918496 55.136795 275.314296 32.461415 
z
"/>
  </clipPath>
 </defs>
</svg>
