<?xml version="1.0" encoding="UTF-8" standalone="no"?>
<!DOCTYPE svg PUBLIC "-//W3C//DTD SVG 1.1//EN"
 "http://www.w3.org/Graphics/SVG/1.1/DTD/svg11.dtd">
<!-- Generated by graphviz version 2.43.0 (0)
 -->
<!-- Title: %3 Pages: 1 -->
<svg width="614pt" height="249pt"
 viewBox="0.00 0.00 614.00 248.53" xmlns="http://www.w3.org/2000/svg" xmlns:xlink="http://www.w3.org/1999/xlink">
<g id="graph0" class="graph" transform="scale(1 1) rotate(0) translate(4 244.53)">
<title>%3</title>
<polygon fill="white" stroke="transparent" points="-4,4 -4,-244.53 610,-244.53 610,4 -4,4"/>
<!-- 41517553f11847a5bdf46fe688c5ff05 -->
<g id="node1" class="node">
<title>41517553f11847a5bdf46fe688c5ff05</title>
<polygon fill="none" stroke="black" points="530,-92.53 371,-92.53 371,-69.53 530,-69.53 530,-92.53"/>
<text text-anchor="middle" x="450.5" y="-77.33" font-family="Times,serif" font-size="14.00">_preprocess_scatter</text>
</g>
<!-- 5430fd448cfd4cdb957cffacd28e29a6 -->
<g id="node5" class="node">
<title>5430fd448cfd4cdb957cffacd28e29a6</title>
<ellipse fill="lightgrey" stroke="lightgrey" cx="450.5" cy="-16.26" rx="84.71" ry="16.03"/>
<text text-anchor="middle" x="450.5" y="-12.56" font-family="Times,serif" font-size="14.00">GraphicalView</text>
</g>
<!-- 41517553f11847a5bdf46fe688c5ff05&#45;&gt;5430fd448cfd4cdb957cffacd28e29a6 -->
<g id="edge3" class="edge">
<title>41517553f11847a5bdf46fe688c5ff05&#45;&gt;5430fd448cfd4cdb957cffacd28e29a6</title>
<path fill="none" stroke="black" d="M450.5,-69.38C450.5,-62.06 450.5,-52.02 450.5,-42.7"/>
<polygon fill="black" stroke="black" points="454,-42.68 450.5,-32.68 447,-42.68 454,-42.68"/>
</g>
<!-- ce53fbb0262449b9a44bb22bbe2099fa -->
<g id="node2" class="node">
<title>ce53fbb0262449b9a44bb22bbe2099fa</title>
<polygon fill="none" stroke="black" points="433,-166.53 0,-166.53 0,-143.53 433,-143.53 433,-166.53"/>
<text text-anchor="middle" x="216.5" y="-151.33" font-family="Times,serif" font-size="14.00">&lt;__main__.DataGen object at 0x7fbe85ab1390&gt;(iteration)</text>
</g>
<!-- ce53fbb0262449b9a44bb22bbe2099fa&#45;&gt;41517553f11847a5bdf46fe688c5ff05 -->
<g id="edge1" class="edge">
<title>ce53fbb0262449b9a44bb22bbe2099fa&#45;&gt;41517553f11847a5bdf46fe688c5ff05</title>
<path fill="none" stroke="black" d="M251.03,-143.4C292.28,-130.71 361.35,-109.46 406.42,-95.59"/>
<polygon fill="black" stroke="black" points="407.68,-98.86 416.21,-92.58 405.62,-92.17 407.68,-98.86"/>
<text text-anchor="middle" x="374.5" y="-114.33" font-family="Times,serif" font-size="14.00">arg_0</text>
</g>
<!-- 80036bb57a374efd818951dd19070dd4 -->
<g id="node3" class="node">
<title>80036bb57a374efd818951dd19070dd4</title>
<polygon fill="none" stroke="black" points="606,-166.53 451,-166.53 451,-143.53 606,-143.53 606,-166.53"/>
<text text-anchor="middle" x="528.5" y="-151.33" font-family="Times,serif" font-size="14.00">Input &lt;NoneType&gt;</text>
</g>
<!-- 80036bb57a374efd818951dd19070dd4&#45;&gt;41517553f11847a5bdf46fe688c5ff05 -->
<g id="edge2" class="edge">
<title>80036bb57a374efd818951dd19070dd4&#45;&gt;41517553f11847a5bdf46fe688c5ff05</title>
<path fill="none" stroke="black" d="M516.99,-143.4C504.55,-131.92 484.51,-113.42 469.68,-99.73"/>
<polygon fill="black" stroke="black" points="471.78,-96.91 462.06,-92.69 467.03,-102.05 471.78,-96.91"/>
<text text-anchor="middle" x="515.5" y="-114.33" font-family="Times,serif" font-size="14.00">name</text>
</g>
<!-- 2858dbede76d4565a330a32a5d77fb48 -->
<g id="node4" class="node">
<title>2858dbede76d4565a330a32a5d77fb48</title>
<polygon fill="none" stroke="black" points="294,-240.53 139,-240.53 139,-217.53 294,-217.53 294,-240.53"/>
<text text-anchor="middle" x="216.5" y="-225.33" font-family="Times,serif" font-size="14.00">Widget &lt;Play: int&gt;</text>
</g>
<!-- 2858dbede76d4565a330a32a5d77fb48&#45;&gt;ce53fbb0262449b9a44bb22bbe2099fa -->
<g id="edge4" class="edge">
<title>2858dbede76d4565a330a32a5d77fb48&#45;&gt;ce53fbb0262449b9a44bb22bbe2099fa</title>
<path fill="none" stroke="black" d="M216.5,-217.4C216.5,-206.77 216.5,-190.12 216.5,-176.85"/>
<polygon fill="black" stroke="black" points="220,-176.69 216.5,-166.69 213,-176.69 220,-176.69"/>
<text text-anchor="middle" x="247.5" y="-188.33" font-family="Times,serif" font-size="14.00">iteration</text>
</g>
</g>
</svg>
