<?xml version="1.0" encoding="UTF-8" standalone="no"?>
<!DOCTYPE svg PUBLIC "-//W3C//DTD SVG 1.1//EN"
 "http://www.w3.org/Graphics/SVG/1.1/DTD/svg11.dtd">
<!-- Generated by graphviz version 2.43.0 (0)
 -->
<!-- Title: %3 Pages: 1 -->
<svg width="467pt" height="258pt"
 viewBox="0.00 0.00 467.35 258.05" xmlns="http://www.w3.org/2000/svg" xmlns:xlink="http://www.w3.org/1999/xlink">
<g id="graph0" class="graph" transform="scale(1 1) rotate(0) translate(4 254.05)">
<title>%3</title>
<polygon fill="white" stroke="transparent" points="-4,4 -4,-254.05 463.35,-254.05 463.35,4 -4,4"/>
<!-- 54928181e6d649e7bad9cb6be15f3711 -->
<g id="node1" class="node">
<title>54928181e6d649e7bad9cb6be15f3711</title>
<polygon fill="none" stroke="black" points="441,-97.29 308,-97.29 308,-74.29 441,-74.29 441,-97.29"/>
<text text-anchor="middle" x="374.5" y="-82.09" font-family="Times,serif" font-size="14.00">sum(arg_0, dim)</text>
</g>
<!-- 360037139ff04a7f8a3affbef46c2bf4 -->
<g id="node6" class="node">
<title>360037139ff04a7f8a3affbef46c2bf4</title>
<ellipse fill="lightgrey" stroke="lightgrey" cx="374.5" cy="-16.26" rx="84.71" ry="16.03"/>
<text text-anchor="middle" x="374.5" y="-12.56" font-family="Times,serif" font-size="14.00">GraphicalView</text>
</g>
<!-- 54928181e6d649e7bad9cb6be15f3711&#45;&gt;360037139ff04a7f8a3affbef46c2bf4 -->
<g id="edge4" class="edge">
<title>54928181e6d649e7bad9cb6be15f3711&#45;&gt;360037139ff04a7f8a3affbef46c2bf4</title>
<path fill="none" stroke="black" d="M374.5,-74.24C374.5,-65.89 374.5,-53.88 374.5,-43.03"/>
<polygon fill="black" stroke="black" points="378,-42.76 374.5,-32.76 371,-42.76 378,-42.76"/>
</g>
<!-- 4e4477dd30134f3b8148d4a0a7dbf16b -->
<g id="node2" class="node">
<title>4e4477dd30134f3b8148d4a0a7dbf16b</title>
<polygon fill="none" stroke="black" points="306,-176.05 73,-176.05 73,-153.05 306,-153.05 306,-176.05"/>
<text text-anchor="middle" x="189.5" y="-160.85" font-family="Times,serif" font-size="14.00">add_mask(arg_0, trunc_range)</text>
</g>
<!-- 4e4477dd30134f3b8148d4a0a7dbf16b&#45;&gt;54928181e6d649e7bad9cb6be15f3711 -->
<g id="edge2" class="edge">
<title>4e4477dd30134f3b8148d4a0a7dbf16b&#45;&gt;54928181e6d649e7bad9cb6be15f3711</title>
<path fill="none" stroke="black" d="M214.84,-153.04C247.13,-139.64 303.11,-116.41 339.48,-101.32"/>
<polygon fill="black" stroke="black" points="341.28,-104.36 349.17,-97.3 338.6,-97.9 341.28,-104.36"/>
<text text-anchor="middle" x="313.5" y="-123.85" font-family="Times,serif" font-size="14.00">arg_0</text>
</g>
<!-- f56c76e724364c219d59b9c49535f7b7 -->
<g id="node7" class="node">
<title>f56c76e724364c219d59b9c49535f7b7</title>
<ellipse fill="lightgrey" stroke="lightgrey" cx="189.5" cy="-85.79" rx="84.71" ry="16.03"/>
<text text-anchor="middle" x="189.5" y="-82.09" font-family="Times,serif" font-size="14.00">GraphicalView</text>
</g>
<!-- 4e4477dd30134f3b8148d4a0a7dbf16b&#45;&gt;f56c76e724364c219d59b9c49535f7b7 -->
<g id="edge1" class="edge">
<title>4e4477dd30134f3b8148d4a0a7dbf16b&#45;&gt;f56c76e724364c219d59b9c49535f7b7</title>
<path fill="none" stroke="black" d="M189.5,-152.88C189.5,-142.48 189.5,-126.26 189.5,-112.5"/>
<polygon fill="black" stroke="black" points="193,-112.14 189.5,-102.14 186,-112.14 193,-112.14"/>
</g>
<!-- e55631dba6c244c89fe62ad1d4ced98a -->
<g id="node3" class="node">
<title>e55631dba6c244c89fe62ad1d4ced98a</title>
<polygon fill="none" stroke="black" points="455,-176.05 324,-176.05 324,-153.05 455,-153.05 455,-176.05"/>
<text text-anchor="middle" x="389.5" y="-160.85" font-family="Times,serif" font-size="14.00">Input &lt;str=&#39;y&#39;&gt;</text>
</g>
<!-- e55631dba6c244c89fe62ad1d4ced98a&#45;&gt;54928181e6d649e7bad9cb6be15f3711 -->
<g id="edge3" class="edge">
<title>e55631dba6c244c89fe62ad1d4ced98a&#45;&gt;54928181e6d649e7bad9cb6be15f3711</title>
<path fill="none" stroke="black" d="M387.41,-152.88C385.13,-141.19 381.41,-122.17 378.55,-107.52"/>
<polygon fill="black" stroke="black" points="381.92,-106.52 376.57,-97.37 375.05,-107.86 381.92,-106.52"/>
<text text-anchor="middle" x="398.5" y="-123.85" font-family="Times,serif" font-size="14.00">dim</text>
</g>
<!-- 06da9999f4134f308d395251fe4ec236 -->
<g id="node4" class="node">
<title>06da9999f4134f308d395251fe4ec236</title>
<polygon fill="none" stroke="black" points="157,-250.05 0,-250.05 0,-227.05 157,-227.05 157,-250.05"/>
<text text-anchor="middle" x="78.5" y="-234.85" font-family="Times,serif" font-size="14.00">Input &lt;DataArray&gt;</text>
</g>
<!-- 06da9999f4134f308d395251fe4ec236&#45;&gt;4e4477dd30134f3b8148d4a0a7dbf16b -->
<g id="edge5" class="edge">
<title>06da9999f4134f308d395251fe4ec236&#45;&gt;4e4477dd30134f3b8148d4a0a7dbf16b</title>
<path fill="none" stroke="black" d="M94.88,-226.93C113.24,-215.02 143.23,-195.57 164.52,-181.76"/>
<polygon fill="black" stroke="black" points="166.57,-184.6 173.05,-176.22 162.76,-178.73 166.57,-184.6"/>
<text text-anchor="middle" x="164.5" y="-197.85" font-family="Times,serif" font-size="14.00">arg_0</text>
</g>
<!-- 1458f8c158c5463ba1ea429236354165 -->
<g id="node5" class="node">
<title>1458f8c158c5463ba1ea429236354165</title>
<polygon fill="none" stroke="black" points="425.5,-250.05 175.5,-250.05 175.5,-227.05 425.5,-227.05 425.5,-250.05"/>
<text text-anchor="middle" x="300.5" y="-234.85" font-family="Times,serif" font-size="14.00">Widget &lt;IntRangeSlider: tuple&gt;</text>
</g>
<!-- 1458f8c158c5463ba1ea429236354165&#45;&gt;4e4477dd30134f3b8148d4a0a7dbf16b -->
<g id="edge6" class="edge">
<title>1458f8c158c5463ba1ea429236354165&#45;&gt;4e4477dd30134f3b8148d4a0a7dbf16b</title>
<path fill="none" stroke="black" d="M284.12,-226.93C265.76,-215.02 235.77,-195.57 214.48,-181.76"/>
<polygon fill="black" stroke="black" points="216.24,-178.73 205.95,-176.22 212.43,-184.6 216.24,-178.73"/>
<text text-anchor="middle" x="299" y="-197.85" font-family="Times,serif" font-size="14.00">trunc_range</text>
</g>
</g>
</svg>
