<?xml version="1.0" encoding="UTF-8" standalone="no"?>
<!DOCTYPE svg PUBLIC "-//W3C//DTD SVG 1.1//EN"
 "http://www.w3.org/Graphics/SVG/1.1/DTD/svg11.dtd">
<!-- Generated by graphviz version 2.43.0 (0)
 -->
<!-- Title: %3 Pages: 1 -->
<svg width="438pt" height="175pt"
 viewBox="0.00 0.00 438.00 174.53" xmlns="http://www.w3.org/2000/svg" xmlns:xlink="http://www.w3.org/1999/xlink">
<g id="graph0" class="graph" transform="scale(1 1) rotate(0) translate(4 170.53)">
<title>%3</title>
<polygon fill="white" stroke="transparent" points="-4,4 -4,-170.53 434,-170.53 434,4 -4,4"/>
<!-- 7a2f6b95836f4c3ca737cf372955fea1 -->
<g id="node1" class="node">
<title>7a2f6b95836f4c3ca737cf372955fea1</title>
<polygon fill="none" stroke="black" points="430,-92.53 0,-92.53 0,-69.53 430,-69.53 430,-92.53"/>
<text text-anchor="middle" x="215" y="-77.33" font-family="Times,serif" font-size="14.00">&lt;__main__.DataGen object at 0x7fbe94df49d0&gt;(iteration)</text>
</g>
<!-- 3a60753f007f4f20ae254d77214765a2 -->
<g id="node3" class="node">
<title>3a60753f007f4f20ae254d77214765a2</title>
<ellipse fill="lightgrey" stroke="lightgrey" cx="215" cy="-16.26" rx="84.71" ry="16.03"/>
<text text-anchor="middle" x="215" y="-12.56" font-family="Times,serif" font-size="14.00">GraphicalView</text>
</g>
<!-- 7a2f6b95836f4c3ca737cf372955fea1&#45;&gt;3a60753f007f4f20ae254d77214765a2 -->
<g id="edge2" class="edge">
<title>7a2f6b95836f4c3ca737cf372955fea1&#45;&gt;3a60753f007f4f20ae254d77214765a2</title>
<path fill="none" stroke="black" d="M215,-69.38C215,-62.06 215,-52.02 215,-42.7"/>
<polygon fill="black" stroke="black" points="218.5,-42.68 215,-32.68 211.5,-42.68 218.5,-42.68"/>
</g>
<!-- 50cdb41e6900429ebfbb65127a5dc6d9 -->
<g id="node2" class="node">
<title>50cdb41e6900429ebfbb65127a5dc6d9</title>
<polygon fill="none" stroke="black" points="292.5,-166.53 137.5,-166.53 137.5,-143.53 292.5,-143.53 292.5,-166.53"/>
<text text-anchor="middle" x="215" y="-151.33" font-family="Times,serif" font-size="14.00">Widget &lt;Play: int&gt;</text>
</g>
<!-- 50cdb41e6900429ebfbb65127a5dc6d9&#45;&gt;7a2f6b95836f4c3ca737cf372955fea1 -->
<g id="edge1" class="edge">
<title>50cdb41e6900429ebfbb65127a5dc6d9&#45;&gt;7a2f6b95836f4c3ca737cf372955fea1</title>
<path fill="none" stroke="black" d="M215,-143.4C215,-132.77 215,-116.12 215,-102.85"/>
<polygon fill="black" stroke="black" points="218.5,-102.69 215,-92.69 211.5,-102.69 218.5,-102.69"/>
<text text-anchor="middle" x="246" y="-114.33" font-family="Times,serif" font-size="14.00">iteration</text>
</g>
</g>
</svg>
