<?xml version="1.0" encoding="UTF-8" standalone="no"?>
<!DOCTYPE svg PUBLIC "-//W3C//DTD SVG 1.1//EN"
 "http://www.w3.org/Graphics/SVG/1.1/DTD/svg11.dtd">
<!-- Generated by graphviz version 2.43.0 (0)
 -->
<!-- Title: %3 Pages: 1 -->
<svg width="436pt" height="175pt"
 viewBox="0.00 0.00 436.00 174.53" xmlns="http://www.w3.org/2000/svg" xmlns:xlink="http://www.w3.org/1999/xlink">
<g id="graph0" class="graph" transform="scale(1 1) rotate(0) translate(4 170.53)">
<title>%3</title>
<polygon fill="white" stroke="transparent" points="-4,4 -4,-170.53 432,-170.53 432,4 -4,4"/>
<!-- b6141efdda8d461b89e502d8eb7d0e43 -->
<g id="node1" class="node">
<title>b6141efdda8d461b89e502d8eb7d0e43</title>
<polygon fill="none" stroke="black" points="428,-92.53 0,-92.53 0,-69.53 428,-69.53 428,-92.53"/>
<text text-anchor="middle" x="214" y="-77.33" font-family="Times,serif" font-size="14.00">&lt;__main__.DataGen object at 0x7f8de5f27c50&gt;(iteration)</text>
</g>
<!-- 80a21672b6e1416997b445c824c7e111 -->
<g id="node3" class="node">
<title>80a21672b6e1416997b445c824c7e111</title>
<ellipse fill="lightgrey" stroke="lightgrey" cx="214" cy="-16.26" rx="84.71" ry="16.03"/>
<text text-anchor="middle" x="214" y="-12.56" font-family="Times,serif" font-size="14.00">GraphicalView</text>
</g>
<!-- b6141efdda8d461b89e502d8eb7d0e43&#45;&gt;80a21672b6e1416997b445c824c7e111 -->
<g id="edge2" class="edge">
<title>b6141efdda8d461b89e502d8eb7d0e43&#45;&gt;80a21672b6e1416997b445c824c7e111</title>
<path fill="none" stroke="black" d="M214,-69.38C214,-62.06 214,-52.02 214,-42.7"/>
<polygon fill="black" stroke="black" points="217.5,-42.68 214,-32.68 210.5,-42.68 217.5,-42.68"/>
</g>
<!-- ba0bf98395564240bfc5a84148c99142 -->
<g id="node2" class="node">
<title>ba0bf98395564240bfc5a84148c99142</title>
<polygon fill="none" stroke="black" points="291.5,-166.53 136.5,-166.53 136.5,-143.53 291.5,-143.53 291.5,-166.53"/>
<text text-anchor="middle" x="214" y="-151.33" font-family="Times,serif" font-size="14.00">Widget &lt;Play: int&gt;</text>
</g>
<!-- ba0bf98395564240bfc5a84148c99142&#45;&gt;b6141efdda8d461b89e502d8eb7d0e43 -->
<g id="edge1" class="edge">
<title>ba0bf98395564240bfc5a84148c99142&#45;&gt;b6141efdda8d461b89e502d8eb7d0e43</title>
<path fill="none" stroke="black" d="M214,-143.4C214,-132.77 214,-116.12 214,-102.85"/>
<polygon fill="black" stroke="black" points="217.5,-102.69 214,-92.69 210.5,-102.69 217.5,-102.69"/>
<text text-anchor="middle" x="245" y="-114.33" font-family="Times,serif" font-size="14.00">iteration</text>
</g>
</g>
</svg>
