<?xml version="1.0" encoding="UTF-8" standalone="no"?>
<!DOCTYPE svg PUBLIC "-//W3C//DTD SVG 1.1//EN"
 "http://www.w3.org/Graphics/SVG/1.1/DTD/svg11.dtd">
<!-- Generated by graphviz version 2.43.0 (0)
 -->
<!-- Title: %3 Pages: 1 -->
<svg width="509pt" height="332pt"
 viewBox="0.00 0.00 508.50 332.05" xmlns="http://www.w3.org/2000/svg" xmlns:xlink="http://www.w3.org/1999/xlink">
<g id="graph0" class="graph" transform="scale(1 1) rotate(0) translate(4 328.05)">
<title>%3</title>
<polygon fill="white" stroke="transparent" points="-4,4 -4,-328.05 504.5,-328.05 504.5,4 -4,4"/>
<!-- 5874fa44ed13417da09b8a7d31794c59 -->
<g id="node1" class="node">
<title>5874fa44ed13417da09b8a7d31794c59</title>
<polygon fill="none" stroke="black" points="462.5,-171.29 329.5,-171.29 329.5,-148.29 462.5,-148.29 462.5,-171.29"/>
<text text-anchor="middle" x="396" y="-156.09" font-family="Times,serif" font-size="14.00">sum(arg_0, dim)</text>
</g>
<!-- e7b15fe0ad27465a843e30d56525299e -->
<g id="node2" class="node">
<title>e7b15fe0ad27465a843e30d56525299e</title>
<polygon fill="none" stroke="black" points="367.5,-92.53 144.5,-92.53 144.5,-69.53 367.5,-69.53 367.5,-92.53"/>
<text text-anchor="middle" x="256" y="-77.33" font-family="Times,serif" font-size="14.00">gaussian_filter(arg_0, sigma)</text>
</g>
<!-- 5874fa44ed13417da09b8a7d31794c59&#45;&gt;e7b15fe0ad27465a843e30d56525299e -->
<g id="edge2" class="edge">
<title>5874fa44ed13417da09b8a7d31794c59&#45;&gt;e7b15fe0ad27465a843e30d56525299e</title>
<path fill="none" stroke="black" d="M376.83,-148.28C352.87,-135.14 311.7,-112.57 284.16,-97.47"/>
<polygon fill="black" stroke="black" points="285.84,-94.4 275.39,-92.66 282.48,-100.54 285.84,-94.4"/>
<text text-anchor="middle" x="355" y="-114.33" font-family="Times,serif" font-size="14.00">arg_0</text>
</g>
<!-- 54eb01bede604355b61cc503a36abfe2 -->
<g id="node8" class="node">
<title>54eb01bede604355b61cc503a36abfe2</title>
<ellipse fill="lightgrey" stroke="lightgrey" cx="326" cy="-16.26" rx="84.71" ry="16.03"/>
<text text-anchor="middle" x="326" y="-12.56" font-family="Times,serif" font-size="14.00">GraphicalView</text>
</g>
<!-- 5874fa44ed13417da09b8a7d31794c59&#45;&gt;54eb01bede604355b61cc503a36abfe2 -->
<g id="edge1" class="edge">
<title>5874fa44ed13417da09b8a7d31794c59&#45;&gt;54eb01bede604355b61cc503a36abfe2</title>
<path fill="none" stroke="black" d="M395.46,-148.26C394.19,-130.89 389.95,-95.56 376,-69.53 370.04,-58.4 361.05,-47.95 352.32,-39.36"/>
<polygon fill="black" stroke="black" points="354.5,-36.61 344.81,-32.33 349.72,-41.72 354.5,-36.61"/>
</g>
<!-- e7b15fe0ad27465a843e30d56525299e&#45;&gt;54eb01bede604355b61cc503a36abfe2 -->
<g id="edge4" class="edge">
<title>e7b15fe0ad27465a843e30d56525299e&#45;&gt;54eb01bede604355b61cc503a36abfe2</title>
<path fill="none" stroke="black" d="M267.87,-69.38C277.07,-61.14 290.11,-49.45 301.51,-39.22"/>
<polygon fill="black" stroke="black" points="303.96,-41.72 309.07,-32.44 299.29,-36.51 303.96,-41.72"/>
</g>
<!-- 00b08a74cd434317bd7a294661adec4e -->
<g id="node3" class="node">
<title>00b08a74cd434317bd7a294661adec4e</title>
<polygon fill="none" stroke="black" points="124,-171.29 0,-171.29 0,-148.29 124,-148.29 124,-171.29"/>
<text text-anchor="middle" x="62" y="-156.09" font-family="Times,serif" font-size="14.00">Input &lt;int=5&gt;</text>
</g>
<!-- 00b08a74cd434317bd7a294661adec4e&#45;&gt;e7b15fe0ad27465a843e30d56525299e -->
<g id="edge3" class="edge">
<title>00b08a74cd434317bd7a294661adec4e&#45;&gt;e7b15fe0ad27465a843e30d56525299e</title>
<path fill="none" stroke="black" d="M88.57,-148.28C122.58,-134.82 181.64,-111.45 219.76,-96.37"/>
<polygon fill="black" stroke="black" points="221.43,-99.47 229.44,-92.54 218.86,-92.96 221.43,-99.47"/>
<text text-anchor="middle" x="204.5" y="-114.33" font-family="Times,serif" font-size="14.00">sigma</text>
</g>
<!-- 02c6c58fa4a54a1981d4d72f79d343f9 -->
<g id="node4" class="node">
<title>02c6c58fa4a54a1981d4d72f79d343f9</title>
<polygon fill="none" stroke="black" points="303,-250.05 151,-250.05 151,-227.05 303,-227.05 303,-250.05"/>
<text text-anchor="middle" x="227" y="-234.85" font-family="Times,serif" font-size="14.00">&lt;lambda&gt;(da, ind)</text>
</g>
<!-- 02c6c58fa4a54a1981d4d72f79d343f9&#45;&gt;5874fa44ed13417da09b8a7d31794c59 -->
<g id="edge6" class="edge">
<title>02c6c58fa4a54a1981d4d72f79d343f9&#45;&gt;5874fa44ed13417da09b8a7d31794c59</title>
<path fill="none" stroke="black" d="M250.14,-227.04C279.52,-213.7 330.35,-190.61 363.58,-175.52"/>
<polygon fill="black" stroke="black" points="365.21,-178.62 372.86,-171.3 362.31,-172.25 365.21,-178.62"/>
<text text-anchor="middle" x="342" y="-197.85" font-family="Times,serif" font-size="14.00">arg_0</text>
</g>
<!-- 6ab340d3f2f1469ba066f31f1c7b336f -->
<g id="node9" class="node">
<title>6ab340d3f2f1469ba066f31f1c7b336f</title>
<ellipse fill="lightgrey" stroke="lightgrey" cx="227" cy="-159.79" rx="84.71" ry="16.03"/>
<text text-anchor="middle" x="227" y="-156.09" font-family="Times,serif" font-size="14.00">GraphicalView</text>
</g>
<!-- 02c6c58fa4a54a1981d4d72f79d343f9&#45;&gt;6ab340d3f2f1469ba066f31f1c7b336f -->
<g id="edge5" class="edge">
<title>02c6c58fa4a54a1981d4d72f79d343f9&#45;&gt;6ab340d3f2f1469ba066f31f1c7b336f</title>
<path fill="none" stroke="black" d="M227,-226.88C227,-216.48 227,-200.26 227,-186.5"/>
<polygon fill="black" stroke="black" points="230.5,-186.14 227,-176.14 223.5,-186.14 230.5,-186.14"/>
</g>
<!-- 93d116af5abb4e87b3125ed7f1c1ef55 -->
<g id="node5" class="node">
<title>93d116af5abb4e87b3125ed7f1c1ef55</title>
<polygon fill="none" stroke="black" points="500.5,-250.05 321.5,-250.05 321.5,-227.05 500.5,-227.05 500.5,-250.05"/>
<text text-anchor="middle" x="411" y="-234.85" font-family="Times,serif" font-size="14.00">Input &lt;str=&#39;latitude&#39;&gt;</text>
</g>
<!-- 93d116af5abb4e87b3125ed7f1c1ef55&#45;&gt;5874fa44ed13417da09b8a7d31794c59 -->
<g id="edge7" class="edge">
<title>93d116af5abb4e87b3125ed7f1c1ef55&#45;&gt;5874fa44ed13417da09b8a7d31794c59</title>
<path fill="none" stroke="black" d="M408.91,-226.88C406.63,-215.19 402.91,-196.17 400.05,-181.52"/>
<polygon fill="black" stroke="black" points="403.42,-180.52 398.07,-171.37 396.55,-181.86 403.42,-180.52"/>
<text text-anchor="middle" x="420" y="-197.85" font-family="Times,serif" font-size="14.00">dim</text>
</g>
<!-- 8811090934cd4992a21de426b215d7c6 -->
<g id="node6" class="node">
<title>8811090934cd4992a21de426b215d7c6</title>
<polygon fill="none" stroke="black" points="210.5,-324.05 53.5,-324.05 53.5,-301.05 210.5,-301.05 210.5,-324.05"/>
<text text-anchor="middle" x="132" y="-308.85" font-family="Times,serif" font-size="14.00">Input &lt;DataArray&gt;</text>
</g>
<!-- 8811090934cd4992a21de426b215d7c6&#45;&gt;02c6c58fa4a54a1981d4d72f79d343f9 -->
<g id="edge8" class="edge">
<title>8811090934cd4992a21de426b215d7c6&#45;&gt;02c6c58fa4a54a1981d4d72f79d343f9</title>
<path fill="none" stroke="black" d="M146.02,-300.93C161.45,-289.23 186.49,-270.26 204.64,-256.5"/>
<polygon fill="black" stroke="black" points="207.07,-259.05 212.92,-250.22 202.84,-253.47 207.07,-259.05"/>
<text text-anchor="middle" x="198" y="-271.85" font-family="Times,serif" font-size="14.00">da</text>
</g>
<!-- 3e943fabb7844ca491156e20ec3f9b20 -->
<g id="node7" class="node">
<title>3e943fabb7844ca491156e20ec3f9b20</title>
<polygon fill="none" stroke="black" points="417,-324.05 229,-324.05 229,-301.05 417,-301.05 417,-324.05"/>
<text text-anchor="middle" x="323" y="-308.85" font-family="Times,serif" font-size="14.00">Widget &lt;IntSlider: int&gt;</text>
</g>
<!-- 3e943fabb7844ca491156e20ec3f9b20&#45;&gt;02c6c58fa4a54a1981d4d72f79d343f9 -->
<g id="edge9" class="edge">
<title>3e943fabb7844ca491156e20ec3f9b20&#45;&gt;02c6c58fa4a54a1981d4d72f79d343f9</title>
<path fill="none" stroke="black" d="M308.83,-300.93C293.24,-289.23 267.94,-270.26 249.6,-256.5"/>
<polygon fill="black" stroke="black" points="251.32,-253.42 241.22,-250.22 247.12,-259.02 251.32,-253.42"/>
<text text-anchor="middle" x="295.5" y="-271.85" font-family="Times,serif" font-size="14.00">ind</text>
</g>
</g>
</svg>
