<?xml version="1.0" encoding="UTF-8" standalone="no"?>
<!DOCTYPE svg PUBLIC "-//W3C//DTD SVG 1.1//EN"
 "http://www.w3.org/Graphics/SVG/1.1/DTD/svg11.dtd">
<!-- Generated by graphviz version 2.43.0 (0)
 -->
<!-- Title: %3 Pages: 1 -->
<svg width="618pt" height="249pt"
 viewBox="0.00 0.00 617.50 248.53" xmlns="http://www.w3.org/2000/svg" xmlns:xlink="http://www.w3.org/1999/xlink">
<g id="graph0" class="graph" transform="scale(1 1) rotate(0) translate(4 244.53)">
<title>%3</title>
<polygon fill="white" stroke="transparent" points="-4,4 -4,-244.53 613.5,-244.53 613.5,4 -4,4"/>
<!-- 71f15e6ef0df465094d028d6c22e16d4 -->
<g id="node1" class="node">
<title>71f15e6ef0df465094d028d6c22e16d4</title>
<polygon fill="none" stroke="black" points="451.5,-92.53 292.5,-92.53 292.5,-69.53 451.5,-69.53 451.5,-92.53"/>
<text text-anchor="middle" x="372" y="-77.33" font-family="Times,serif" font-size="14.00">_preprocess_scatter</text>
</g>
<!-- 3bc99063728542e08c66f095a82bb286 -->
<g id="node5" class="node">
<title>3bc99063728542e08c66f095a82bb286</title>
<ellipse fill="lightgrey" stroke="lightgrey" cx="372" cy="-16.26" rx="84.71" ry="16.03"/>
<text text-anchor="middle" x="372" y="-12.56" font-family="Times,serif" font-size="14.00">GraphicalView</text>
</g>
<!-- 71f15e6ef0df465094d028d6c22e16d4&#45;&gt;3bc99063728542e08c66f095a82bb286 -->
<g id="edge3" class="edge">
<title>71f15e6ef0df465094d028d6c22e16d4&#45;&gt;3bc99063728542e08c66f095a82bb286</title>
<path fill="none" stroke="black" d="M372,-69.38C372,-62.06 372,-52.02 372,-42.7"/>
<polygon fill="black" stroke="black" points="375.5,-42.68 372,-32.68 368.5,-42.68 375.5,-42.68"/>
</g>
<!-- 8c0bf95091a64033b1316b7ab890e753 -->
<g id="node2" class="node">
<title>8c0bf95091a64033b1316b7ab890e753</title>
<polygon fill="none" stroke="black" points="430,-166.53 0,-166.53 0,-143.53 430,-143.53 430,-166.53"/>
<text text-anchor="middle" x="215" y="-151.33" font-family="Times,serif" font-size="14.00">&lt;__main__.DataGen object at 0x7fed53f28610&gt;(iteration)</text>
</g>
<!-- 8c0bf95091a64033b1316b7ab890e753&#45;&gt;71f15e6ef0df465094d028d6c22e16d4 -->
<g id="edge1" class="edge">
<title>8c0bf95091a64033b1316b7ab890e753&#45;&gt;71f15e6ef0df465094d028d6c22e16d4</title>
<path fill="none" stroke="black" d="M238.17,-143.4C265.03,-131.08 309.48,-110.7 339.72,-96.83"/>
<polygon fill="black" stroke="black" points="341.36,-99.93 348.99,-92.58 338.45,-93.56 341.36,-99.93"/>
<text text-anchor="middle" x="328" y="-114.33" font-family="Times,serif" font-size="14.00">arg_0</text>
</g>
<!-- 7aa60a0e149a4cff840d786226c8573a -->
<g id="node3" class="node">
<title>7aa60a0e149a4cff840d786226c8573a</title>
<polygon fill="none" stroke="black" points="609.5,-166.53 448.5,-166.53 448.5,-143.53 609.5,-143.53 609.5,-166.53"/>
<text text-anchor="middle" x="529" y="-151.33" font-family="Times,serif" font-size="14.00">Input &lt;str=&#39;None&#39;&gt;</text>
</g>
<!-- 7aa60a0e149a4cff840d786226c8573a&#45;&gt;71f15e6ef0df465094d028d6c22e16d4 -->
<g id="edge2" class="edge">
<title>7aa60a0e149a4cff840d786226c8573a&#45;&gt;71f15e6ef0df465094d028d6c22e16d4</title>
<path fill="none" stroke="black" d="M505.83,-143.4C478.97,-131.08 434.52,-110.7 404.28,-96.83"/>
<polygon fill="black" stroke="black" points="405.55,-93.56 395.01,-92.58 402.64,-99.93 405.55,-93.56"/>
<text text-anchor="middle" x="485" y="-114.33" font-family="Times,serif" font-size="14.00">name</text>
</g>
<!-- daf43d19d58e4034a4e5de2b6372641b -->
<g id="node4" class="node">
<title>daf43d19d58e4034a4e5de2b6372641b</title>
<polygon fill="none" stroke="black" points="292.5,-240.53 137.5,-240.53 137.5,-217.53 292.5,-217.53 292.5,-240.53"/>
<text text-anchor="middle" x="215" y="-225.33" font-family="Times,serif" font-size="14.00">Widget &lt;Play: int&gt;</text>
</g>
<!-- daf43d19d58e4034a4e5de2b6372641b&#45;&gt;8c0bf95091a64033b1316b7ab890e753 -->
<g id="edge4" class="edge">
<title>daf43d19d58e4034a4e5de2b6372641b&#45;&gt;8c0bf95091a64033b1316b7ab890e753</title>
<path fill="none" stroke="black" d="M215,-217.4C215,-206.77 215,-190.12 215,-176.85"/>
<polygon fill="black" stroke="black" points="218.5,-176.69 215,-166.69 211.5,-176.69 218.5,-176.69"/>
<text text-anchor="middle" x="246" y="-188.33" font-family="Times,serif" font-size="14.00">iteration</text>
</g>
</g>
</svg>
