<?xml version="1.0" encoding="UTF-8" standalone="no"?>
<!DOCTYPE svg PUBLIC "-//W3C//DTD SVG 1.1//EN"
 "http://www.w3.org/Graphics/SVG/1.1/DTD/svg11.dtd">
<!-- Generated by graphviz version 2.43.0 (0)
 -->
<!-- Title: %3 Pages: 1 -->
<svg width="610pt" height="249pt"
 viewBox="0.00 0.00 610.00 248.53" xmlns="http://www.w3.org/2000/svg" xmlns:xlink="http://www.w3.org/1999/xlink">
<g id="graph0" class="graph" transform="scale(1 1) rotate(0) translate(4 244.53)">
<title>%3</title>
<polygon fill="white" stroke="transparent" points="-4,4 -4,-244.53 606,-244.53 606,4 -4,4"/>
<!-- 3de0943812214057905084890250f0b4 -->
<g id="node1" class="node">
<title>3de0943812214057905084890250f0b4</title>
<polygon fill="none" stroke="black" points="526,-92.53 367,-92.53 367,-69.53 526,-69.53 526,-92.53"/>
<text text-anchor="middle" x="446.5" y="-77.33" font-family="Times,serif" font-size="14.00">_preprocess_scatter</text>
</g>
<!-- d67d5991ddce4639a03ebbc5bfec8cf6 -->
<g id="node5" class="node">
<title>d67d5991ddce4639a03ebbc5bfec8cf6</title>
<ellipse fill="lightgrey" stroke="lightgrey" cx="446.5" cy="-16.26" rx="84.71" ry="16.03"/>
<text text-anchor="middle" x="446.5" y="-12.56" font-family="Times,serif" font-size="14.00">GraphicalView</text>
</g>
<!-- 3de0943812214057905084890250f0b4&#45;&gt;d67d5991ddce4639a03ebbc5bfec8cf6 -->
<g id="edge3" class="edge">
<title>3de0943812214057905084890250f0b4&#45;&gt;d67d5991ddce4639a03ebbc5bfec8cf6</title>
<path fill="none" stroke="black" d="M446.5,-69.38C446.5,-62.06 446.5,-52.02 446.5,-42.7"/>
<polygon fill="black" stroke="black" points="450,-42.68 446.5,-32.68 443,-42.68 450,-42.68"/>
</g>
<!-- 6c31910023224ea9a31567781f0390d7 -->
<g id="node2" class="node">
<title>6c31910023224ea9a31567781f0390d7</title>
<polygon fill="none" stroke="black" points="429,-166.53 0,-166.53 0,-143.53 429,-143.53 429,-166.53"/>
<text text-anchor="middle" x="214.5" y="-151.33" font-family="Times,serif" font-size="14.00">&lt;__main__.DataGen object at 0x7f8de4f1e690&gt;(iteration)</text>
</g>
<!-- 6c31910023224ea9a31567781f0390d7&#45;&gt;3de0943812214057905084890250f0b4 -->
<g id="edge1" class="edge">
<title>6c31910023224ea9a31567781f0390d7&#45;&gt;3de0943812214057905084890250f0b4</title>
<path fill="none" stroke="black" d="M248.73,-143.4C289.63,-130.71 358.11,-109.46 402.8,-95.59"/>
<polygon fill="black" stroke="black" points="403.99,-98.88 412.51,-92.58 401.92,-92.2 403.99,-98.88"/>
<text text-anchor="middle" x="371.5" y="-114.33" font-family="Times,serif" font-size="14.00">arg_0</text>
</g>
<!-- 48e88aa4a2a342949d494bcb3ab23b29 -->
<g id="node3" class="node">
<title>48e88aa4a2a342949d494bcb3ab23b29</title>
<polygon fill="none" stroke="black" points="602,-166.53 447,-166.53 447,-143.53 602,-143.53 602,-166.53"/>
<text text-anchor="middle" x="524.5" y="-151.33" font-family="Times,serif" font-size="14.00">Input &lt;NoneType&gt;</text>
</g>
<!-- 48e88aa4a2a342949d494bcb3ab23b29&#45;&gt;3de0943812214057905084890250f0b4 -->
<g id="edge2" class="edge">
<title>48e88aa4a2a342949d494bcb3ab23b29&#45;&gt;3de0943812214057905084890250f0b4</title>
<path fill="none" stroke="black" d="M512.99,-143.4C500.55,-131.92 480.51,-113.42 465.68,-99.73"/>
<polygon fill="black" stroke="black" points="467.78,-96.91 458.06,-92.69 463.03,-102.05 467.78,-96.91"/>
<text text-anchor="middle" x="511.5" y="-114.33" font-family="Times,serif" font-size="14.00">name</text>
</g>
<!-- 6ecb40bd623a47f5a55ba9c30891b650 -->
<g id="node4" class="node">
<title>6ecb40bd623a47f5a55ba9c30891b650</title>
<polygon fill="none" stroke="black" points="292,-240.53 137,-240.53 137,-217.53 292,-217.53 292,-240.53"/>
<text text-anchor="middle" x="214.5" y="-225.33" font-family="Times,serif" font-size="14.00">Widget &lt;Play: int&gt;</text>
</g>
<!-- 6ecb40bd623a47f5a55ba9c30891b650&#45;&gt;6c31910023224ea9a31567781f0390d7 -->
<g id="edge4" class="edge">
<title>6ecb40bd623a47f5a55ba9c30891b650&#45;&gt;6c31910023224ea9a31567781f0390d7</title>
<path fill="none" stroke="black" d="M214.5,-217.4C214.5,-206.77 214.5,-190.12 214.5,-176.85"/>
<polygon fill="black" stroke="black" points="218,-176.69 214.5,-166.69 211,-176.69 218,-176.69"/>
<text text-anchor="middle" x="245.5" y="-188.33" font-family="Times,serif" font-size="14.00">iteration</text>
</g>
</g>
</svg>
