<?xml version="1.0" encoding="UTF-8" standalone="no"?>
<!DOCTYPE svg PUBLIC "-//W3C//DTD SVG 1.1//EN"
 "http://www.w3.org/Graphics/SVG/1.1/DTD/svg11.dtd">
<!-- Generated by graphviz version 2.43.0 (0)
 -->
<!-- Title: %3 Pages: 1 -->
<svg width="463pt" height="258pt"
 viewBox="0.00 0.00 463.00 258.05" xmlns="http://www.w3.org/2000/svg" xmlns:xlink="http://www.w3.org/1999/xlink">
<g id="graph0" class="graph" transform="scale(1 1) rotate(0) translate(4 254.05)">
<title>%3</title>
<polygon fill="white" stroke="transparent" points="-4,4 -4,-254.05 459,-254.05 459,4 -4,4"/>
<!-- 1b5f93d1db90406286955fc9ca961db1 -->
<g id="node1" class="node">
<title>1b5f93d1db90406286955fc9ca961db1</title>
<polygon fill="none" stroke="black" points="432,-97.29 299,-97.29 299,-74.29 432,-74.29 432,-97.29"/>
<text text-anchor="middle" x="365.5" y="-82.09" font-family="Times,serif" font-size="14.00">sum(arg_0, dim)</text>
</g>
<!-- 688836fc3f094d6abf93b0ffe0b916fd -->
<g id="node6" class="node">
<title>688836fc3f094d6abf93b0ffe0b916fd</title>
<ellipse fill="lightgrey" stroke="lightgrey" cx="365.5" cy="-16.26" rx="57.97" ry="16.03"/>
<text text-anchor="middle" x="365.5" y="-12.56" font-family="Times,serif" font-size="14.00">LineView</text>
</g>
<!-- 1b5f93d1db90406286955fc9ca961db1&#45;&gt;688836fc3f094d6abf93b0ffe0b916fd -->
<g id="edge4" class="edge">
<title>1b5f93d1db90406286955fc9ca961db1&#45;&gt;688836fc3f094d6abf93b0ffe0b916fd</title>
<path fill="none" stroke="black" d="M365.5,-74.24C365.5,-65.89 365.5,-53.88 365.5,-43.03"/>
<polygon fill="black" stroke="black" points="369,-42.76 365.5,-32.76 362,-42.76 369,-42.76"/>
</g>
<!-- 25ef49df59fe4e91b52beab2035f3315 -->
<g id="node2" class="node">
<title>25ef49df59fe4e91b52beab2035f3315</title>
<polygon fill="none" stroke="black" points="306,-176.05 73,-176.05 73,-153.05 306,-153.05 306,-176.05"/>
<text text-anchor="middle" x="189.5" y="-160.85" font-family="Times,serif" font-size="14.00">add_mask(arg_0, trunc_range)</text>
</g>
<!-- 25ef49df59fe4e91b52beab2035f3315&#45;&gt;1b5f93d1db90406286955fc9ca961db1 -->
<g id="edge1" class="edge">
<title>25ef49df59fe4e91b52beab2035f3315&#45;&gt;1b5f93d1db90406286955fc9ca961db1</title>
<path fill="none" stroke="black" d="M213.6,-153.04C244.32,-139.64 297.59,-116.41 332.18,-101.32"/>
<polygon fill="black" stroke="black" points="333.64,-104.51 341.41,-97.3 330.84,-98.09 333.64,-104.51"/>
<text text-anchor="middle" x="308.5" y="-123.85" font-family="Times,serif" font-size="14.00">arg_0</text>
</g>
<!-- b18362dd2a9145458c3448b609d17947 -->
<g id="node7" class="node">
<title>b18362dd2a9145458c3448b609d17947</title>
<ellipse fill="lightgrey" stroke="lightgrey" cx="189.5" cy="-85.79" rx="67.35" ry="16.03"/>
<text text-anchor="middle" x="189.5" y="-82.09" font-family="Times,serif" font-size="14.00">ImageView</text>
</g>
<!-- 25ef49df59fe4e91b52beab2035f3315&#45;&gt;b18362dd2a9145458c3448b609d17947 -->
<g id="edge2" class="edge">
<title>25ef49df59fe4e91b52beab2035f3315&#45;&gt;b18362dd2a9145458c3448b609d17947</title>
<path fill="none" stroke="black" d="M189.5,-152.88C189.5,-142.48 189.5,-126.26 189.5,-112.5"/>
<polygon fill="black" stroke="black" points="193,-112.14 189.5,-102.14 186,-112.14 193,-112.14"/>
</g>
<!-- 41b86e7e12364a87a2f3e9593501b298 -->
<g id="node3" class="node">
<title>41b86e7e12364a87a2f3e9593501b298</title>
<polygon fill="none" stroke="black" points="455,-176.05 324,-176.05 324,-153.05 455,-153.05 455,-176.05"/>
<text text-anchor="middle" x="389.5" y="-160.85" font-family="Times,serif" font-size="14.00">Input &lt;str=&#39;y&#39;&gt;</text>
</g>
<!-- 41b86e7e12364a87a2f3e9593501b298&#45;&gt;1b5f93d1db90406286955fc9ca961db1 -->
<g id="edge3" class="edge">
<title>41b86e7e12364a87a2f3e9593501b298&#45;&gt;1b5f93d1db90406286955fc9ca961db1</title>
<path fill="none" stroke="black" d="M386.16,-152.88C382.47,-141.08 376.44,-121.79 371.85,-107.09"/>
<polygon fill="black" stroke="black" points="375.13,-105.87 368.81,-97.37 368.45,-107.96 375.13,-105.87"/>
<text text-anchor="middle" x="394.5" y="-123.85" font-family="Times,serif" font-size="14.00">dim</text>
</g>
<!-- 35ca1c1064224883a6c8717cc60cc9da -->
<g id="node4" class="node">
<title>35ca1c1064224883a6c8717cc60cc9da</title>
<polygon fill="none" stroke="black" points="157,-250.05 0,-250.05 0,-227.05 157,-227.05 157,-250.05"/>
<text text-anchor="middle" x="78.5" y="-234.85" font-family="Times,serif" font-size="14.00">Input &lt;DataArray&gt;</text>
</g>
<!-- 35ca1c1064224883a6c8717cc60cc9da&#45;&gt;25ef49df59fe4e91b52beab2035f3315 -->
<g id="edge5" class="edge">
<title>35ca1c1064224883a6c8717cc60cc9da&#45;&gt;25ef49df59fe4e91b52beab2035f3315</title>
<path fill="none" stroke="black" d="M94.88,-226.93C113.24,-215.02 143.23,-195.57 164.52,-181.76"/>
<polygon fill="black" stroke="black" points="166.57,-184.6 173.05,-176.22 162.76,-178.73 166.57,-184.6"/>
<text text-anchor="middle" x="164.5" y="-197.85" font-family="Times,serif" font-size="14.00">arg_0</text>
</g>
<!-- 2a382602cbcd402fa83ee1c9b5263b0a -->
<g id="node5" class="node">
<title>2a382602cbcd402fa83ee1c9b5263b0a</title>
<polygon fill="none" stroke="black" points="425.5,-250.05 175.5,-250.05 175.5,-227.05 425.5,-227.05 425.5,-250.05"/>
<text text-anchor="middle" x="300.5" y="-234.85" font-family="Times,serif" font-size="14.00">Widget &lt;IntRangeSlider: tuple&gt;</text>
</g>
<!-- 2a382602cbcd402fa83ee1c9b5263b0a&#45;&gt;25ef49df59fe4e91b52beab2035f3315 -->
<g id="edge6" class="edge">
<title>2a382602cbcd402fa83ee1c9b5263b0a&#45;&gt;25ef49df59fe4e91b52beab2035f3315</title>
<path fill="none" stroke="black" d="M284.12,-226.93C265.76,-215.02 235.77,-195.57 214.48,-181.76"/>
<polygon fill="black" stroke="black" points="216.24,-178.73 205.95,-176.22 212.43,-184.6 216.24,-178.73"/>
<text text-anchor="middle" x="299" y="-197.85" font-family="Times,serif" font-size="14.00">trunc_range</text>
</g>
</g>
</svg>
