<?xml version="1.0" encoding="UTF-8" standalone="no"?>
<!DOCTYPE svg PUBLIC "-//W3C//DTD SVG 1.1//EN"
 "http://www.w3.org/Graphics/SVG/1.1/DTD/svg11.dtd">
<!-- Generated by graphviz version 2.43.0 (0)
 -->
<!-- Title: %3 Pages: 1 -->
<svg width="402pt" height="175pt"
 viewBox="0.00 0.00 401.50 174.53" xmlns="http://www.w3.org/2000/svg" xmlns:xlink="http://www.w3.org/1999/xlink">
<g id="graph0" class="graph" transform="scale(1 1) rotate(0) translate(4 170.53)">
<title>%3</title>
<polygon fill="white" stroke="transparent" points="-4,4 -4,-170.53 397.5,-170.53 397.5,4 -4,4"/>
<!-- dc0401d3c4294ceebd73efecc651fec1 -->
<g id="node1" class="node">
<title>dc0401d3c4294ceebd73efecc651fec1</title>
<polygon fill="none" stroke="black" points="293.5,-92.53 69.5,-92.53 69.5,-69.53 293.5,-69.53 293.5,-92.53"/>
<text text-anchor="middle" x="181.5" y="-77.33" font-family="Times,serif" font-size="14.00">slice_dims(data_array, slices)</text>
</g>
<!-- 4066328b28264eeb8f60b394bbb30a5d -->
<g id="node4" class="node">
<title>4066328b28264eeb8f60b394bbb30a5d</title>
<ellipse fill="lightgrey" stroke="lightgrey" cx="181.5" cy="-16.26" rx="86.03" ry="16.03"/>
<text text-anchor="middle" x="181.5" y="-12.56" font-family="Times,serif" font-size="14.00">Scatter3dView</text>
</g>
<!-- dc0401d3c4294ceebd73efecc651fec1&#45;&gt;4066328b28264eeb8f60b394bbb30a5d -->
<g id="edge3" class="edge">
<title>dc0401d3c4294ceebd73efecc651fec1&#45;&gt;4066328b28264eeb8f60b394bbb30a5d</title>
<path fill="none" stroke="black" d="M181.5,-69.38C181.5,-62.06 181.5,-52.02 181.5,-42.7"/>
<polygon fill="black" stroke="black" points="185,-42.68 181.5,-32.68 178,-42.68 185,-42.68"/>
</g>
<!-- 66bd80dfdcfe4bde8a906acfa008419a -->
<g id="node2" class="node">
<title>66bd80dfdcfe4bde8a906acfa008419a</title>
<polygon fill="none" stroke="black" points="157,-166.53 0,-166.53 0,-143.53 157,-143.53 157,-166.53"/>
<text text-anchor="middle" x="78.5" y="-151.33" font-family="Times,serif" font-size="14.00">Input &lt;DataArray&gt;</text>
</g>
<!-- 66bd80dfdcfe4bde8a906acfa008419a&#45;&gt;dc0401d3c4294ceebd73efecc651fec1 -->
<g id="edge1" class="edge">
<title>66bd80dfdcfe4bde8a906acfa008419a&#45;&gt;dc0401d3c4294ceebd73efecc651fec1</title>
<path fill="none" stroke="black" d="M93.7,-143.4C110.59,-131.6 138.07,-112.39 157.79,-98.6"/>
<polygon fill="black" stroke="black" points="160.05,-101.29 166.24,-92.69 156.04,-95.56 160.05,-101.29"/>
<text text-anchor="middle" x="178" y="-114.33" font-family="Times,serif" font-size="14.00">data_array</text>
</g>
<!-- 6f20cf50b347415da5cb31c6c4e795c1 -->
<g id="node3" class="node">
<title>6f20cf50b347415da5cb31c6c4e795c1</title>
<polygon fill="none" stroke="black" points="393.5,-166.53 175.5,-166.53 175.5,-143.53 393.5,-143.53 393.5,-166.53"/>
<text text-anchor="middle" x="284.5" y="-151.33" font-family="Times,serif" font-size="14.00">Widget &lt;SliceWidget: dict&gt;</text>
</g>
<!-- 6f20cf50b347415da5cb31c6c4e795c1&#45;&gt;dc0401d3c4294ceebd73efecc651fec1 -->
<g id="edge2" class="edge">
<title>6f20cf50b347415da5cb31c6c4e795c1&#45;&gt;dc0401d3c4294ceebd73efecc651fec1</title>
<path fill="none" stroke="black" d="M269.3,-143.4C252.41,-131.6 224.93,-112.39 205.21,-98.6"/>
<polygon fill="black" stroke="black" points="206.96,-95.56 196.76,-92.69 202.95,-101.29 206.96,-95.56"/>
<text text-anchor="middle" x="261.5" y="-114.33" font-family="Times,serif" font-size="14.00">slices</text>
</g>
</g>
</svg>
