<?xml version="1.0" encoding="UTF-8" standalone="no"?>
<!DOCTYPE svg PUBLIC "-//W3C//DTD SVG 1.1//EN"
 "http://www.w3.org/Graphics/SVG/1.1/DTD/svg11.dtd">
<!-- Generated by graphviz version 2.43.0 (0)
 -->
<!-- Title: %3 Pages: 1 -->
<svg width="441pt" height="175pt"
 viewBox="0.00 0.00 441.00 174.53" xmlns="http://www.w3.org/2000/svg" xmlns:xlink="http://www.w3.org/1999/xlink">
<g id="graph0" class="graph" transform="scale(1 1) rotate(0) translate(4 170.53)">
<title>%3</title>
<polygon fill="white" stroke="transparent" points="-4,4 -4,-170.53 437,-170.53 437,4 -4,4"/>
<!-- 1b0c0fdb059b46b982555c66169af7b8 -->
<g id="node1" class="node">
<title>1b0c0fdb059b46b982555c66169af7b8</title>
<polygon fill="none" stroke="black" points="433,-92.53 0,-92.53 0,-69.53 433,-69.53 433,-92.53"/>
<text text-anchor="middle" x="216.5" y="-77.33" font-family="Times,serif" font-size="14.00">&lt;__main__.DataGen object at 0x7febd6752ad0&gt;(iteration)</text>
</g>
<!-- f6d488258ffa49b79ca4862c7a227c71 -->
<g id="node3" class="node">
<title>f6d488258ffa49b79ca4862c7a227c71</title>
<ellipse fill="lightgrey" stroke="lightgrey" cx="216.5" cy="-16.26" rx="84.71" ry="16.03"/>
<text text-anchor="middle" x="216.5" y="-12.56" font-family="Times,serif" font-size="14.00">GraphicalView</text>
</g>
<!-- 1b0c0fdb059b46b982555c66169af7b8&#45;&gt;f6d488258ffa49b79ca4862c7a227c71 -->
<g id="edge2" class="edge">
<title>1b0c0fdb059b46b982555c66169af7b8&#45;&gt;f6d488258ffa49b79ca4862c7a227c71</title>
<path fill="none" stroke="black" d="M216.5,-69.38C216.5,-62.06 216.5,-52.02 216.5,-42.7"/>
<polygon fill="black" stroke="black" points="220,-42.68 216.5,-32.68 213,-42.68 220,-42.68"/>
</g>
<!-- ca4b3edef447431fbdd14c2ff4ab1973 -->
<g id="node2" class="node">
<title>ca4b3edef447431fbdd14c2ff4ab1973</title>
<polygon fill="none" stroke="black" points="294,-166.53 139,-166.53 139,-143.53 294,-143.53 294,-166.53"/>
<text text-anchor="middle" x="216.5" y="-151.33" font-family="Times,serif" font-size="14.00">Widget &lt;Play: int&gt;</text>
</g>
<!-- ca4b3edef447431fbdd14c2ff4ab1973&#45;&gt;1b0c0fdb059b46b982555c66169af7b8 -->
<g id="edge1" class="edge">
<title>ca4b3edef447431fbdd14c2ff4ab1973&#45;&gt;1b0c0fdb059b46b982555c66169af7b8</title>
<path fill="none" stroke="black" d="M216.5,-143.4C216.5,-132.77 216.5,-116.12 216.5,-102.85"/>
<polygon fill="black" stroke="black" points="220,-102.69 216.5,-92.69 213,-102.69 220,-102.69"/>
<text text-anchor="middle" x="247.5" y="-114.33" font-family="Times,serif" font-size="14.00">iteration</text>
</g>
</g>
</svg>
