<?xml version="1.0" encoding="UTF-8" standalone="no"?>
<!DOCTYPE svg PUBLIC "-//W3C//DTD SVG 1.1//EN"
 "http://www.w3.org/Graphics/SVG/1.1/DTD/svg11.dtd">
<!-- Generated by graphviz version 2.43.0 (0)
 -->
<!-- Title: %3 Pages: 1 -->
<svg width="415pt" height="249pt"
 viewBox="0.00 0.00 415.00 248.53" xmlns="http://www.w3.org/2000/svg" xmlns:xlink="http://www.w3.org/1999/xlink">
<g id="graph0" class="graph" transform="scale(1 1) rotate(0) translate(4 244.53)">
<title>%3</title>
<polygon fill="white" stroke="transparent" points="-4,4 -4,-244.53 411,-244.53 411,4 -4,4"/>
<!-- 4ea0324363134470ba92675dcd656c0b -->
<g id="node1" class="node">
<title>4ea0324363134470ba92675dcd656c0b</title>
<polygon fill="none" stroke="black" points="282.5,-92.53 124.5,-92.53 124.5,-69.53 282.5,-69.53 282.5,-92.53"/>
<text text-anchor="middle" x="203.5" y="-77.33" font-family="Times,serif" font-size="14.00">apply_masks(arg_0)</text>
</g>
<!-- ca58b3e34e32442a9ddfcee71ec088fe -->
<g id="node7" class="node">
<title>ca58b3e34e32442a9ddfcee71ec088fe</title>
<ellipse fill="lightgrey" stroke="lightgrey" cx="203.5" cy="-16.26" rx="84.71" ry="16.03"/>
<text text-anchor="middle" x="203.5" y="-12.56" font-family="Times,serif" font-size="14.00">GraphicalView</text>
</g>
<!-- 4ea0324363134470ba92675dcd656c0b&#45;&gt;ca58b3e34e32442a9ddfcee71ec088fe -->
<g id="edge6" class="edge">
<title>4ea0324363134470ba92675dcd656c0b&#45;&gt;ca58b3e34e32442a9ddfcee71ec088fe</title>
<path fill="none" stroke="black" d="M203.5,-69.38C203.5,-62.06 203.5,-52.02 203.5,-42.7"/>
<polygon fill="black" stroke="black" points="207,-42.68 203.5,-32.68 200,-42.68 207,-42.68"/>
</g>
<!-- a7ff8db8347d431795dd1d32cf8961e1 -->
<g id="node2" class="node">
<title>a7ff8db8347d431795dd1d32cf8961e1</title>
<polygon fill="none" stroke="black" points="282,-240.53 125,-240.53 125,-217.53 282,-217.53 282,-240.53"/>
<text text-anchor="middle" x="203.5" y="-225.33" font-family="Times,serif" font-size="14.00">Input &lt;DataArray&gt;</text>
</g>
<!-- a7ff8db8347d431795dd1d32cf8961e1&#45;&gt;4ea0324363134470ba92675dcd656c0b -->
<g id="edge2" class="edge">
<title>a7ff8db8347d431795dd1d32cf8961e1&#45;&gt;4ea0324363134470ba92675dcd656c0b</title>
<path fill="none" stroke="black" d="M203.5,-217.05C203.5,-192.84 203.5,-134.48 203.5,-103"/>
<polygon fill="black" stroke="black" points="207,-102.73 203.5,-92.73 200,-102.73 207,-102.73"/>
<text text-anchor="middle" x="223.5" y="-151.33" font-family="Times,serif" font-size="14.00">arg_0</text>
</g>
<!-- d33d68bb6484463093c1a0e3641f4a4f -->
<g id="node3" class="node">
<title>d33d68bb6484463093c1a0e3641f4a4f</title>
<polygon fill="none" stroke="black" points="381,-166.53 262,-166.53 262,-143.53 381,-143.53 381,-166.53"/>
<text text-anchor="middle" x="321.5" y="-151.33" font-family="Times,serif" font-size="14.00">Output node 0</text>
</g>
<!-- a7ff8db8347d431795dd1d32cf8961e1&#45;&gt;d33d68bb6484463093c1a0e3641f4a4f -->
<g id="edge3" class="edge">
<title>a7ff8db8347d431795dd1d32cf8961e1&#45;&gt;d33d68bb6484463093c1a0e3641f4a4f</title>
<path fill="none" stroke="black" d="M220.91,-217.4C240.52,-205.44 272.6,-185.87 295.25,-172.04"/>
<polygon fill="black" stroke="black" points="297.3,-174.89 304.02,-166.69 293.66,-168.92 297.3,-174.89"/>
<text text-anchor="middle" x="292.5" y="-188.33" font-family="Times,serif" font-size="14.00">arg_0</text>
</g>
<!-- b5d667a985854782976b26085f88e516 -->
<g id="node4" class="node">
<title>b5d667a985854782976b26085f88e516</title>
<polygon fill="none" stroke="black" points="167,-166.53 48,-166.53 48,-143.53 167,-143.53 167,-166.53"/>
<text text-anchor="middle" x="107.5" y="-151.33" font-family="Times,serif" font-size="14.00">Output node 1</text>
</g>
<!-- a7ff8db8347d431795dd1d32cf8961e1&#45;&gt;b5d667a985854782976b26085f88e516 -->
<g id="edge1" class="edge">
<title>a7ff8db8347d431795dd1d32cf8961e1&#45;&gt;b5d667a985854782976b26085f88e516</title>
<path fill="none" stroke="black" d="M179.67,-217.49C169.9,-212.66 158.74,-206.47 149.5,-199.53 139.81,-192.24 130.31,-182.68 122.81,-174.37"/>
<polygon fill="black" stroke="black" points="125.25,-171.85 116.03,-166.62 119.98,-176.45 125.25,-171.85"/>
<text text-anchor="middle" x="169.5" y="-188.33" font-family="Times,serif" font-size="14.00">arg_0</text>
</g>
<!-- d33d68bb6484463093c1a0e3641f4a4f&#45;&gt;4ea0324363134470ba92675dcd656c0b -->
<g id="edge4" class="edge">
<title>d33d68bb6484463093c1a0e3641f4a4f&#45;&gt;4ea0324363134470ba92675dcd656c0b</title>
<path fill="none" stroke="black" d="M304.09,-143.4C284.48,-131.44 252.4,-111.87 229.75,-98.04"/>
<polygon fill="black" stroke="black" points="231.34,-94.92 220.98,-92.69 227.7,-100.89 231.34,-94.92"/>
<text text-anchor="middle" x="292.5" y="-114.33" font-family="Times,serif" font-size="14.00">arg_1</text>
</g>
<!-- b5d667a985854782976b26085f88e516&#45;&gt;4ea0324363134470ba92675dcd656c0b -->
<g id="edge5" class="edge">
<title>b5d667a985854782976b26085f88e516&#45;&gt;4ea0324363134470ba92675dcd656c0b</title>
<path fill="none" stroke="black" d="M116.03,-143.44C124,-134.01 136.57,-120.24 149.5,-110.53 156,-105.65 163.44,-101.13 170.69,-97.21"/>
<polygon fill="black" stroke="black" points="172.4,-100.26 179.67,-92.56 169.18,-94.05 172.4,-100.26"/>
<text text-anchor="middle" x="169.5" y="-114.33" font-family="Times,serif" font-size="14.00">arg_2</text>
</g>
<!-- b7dbdc334325469687aabf95f459ab39 -->
<g id="node5" class="node">
<title>b7dbdc334325469687aabf95f459ab39</title>
<polygon fill="none" stroke="black" points="107,-240.53 0,-240.53 0,-217.53 107,-217.53 107,-240.53"/>
<text text-anchor="middle" x="53.5" y="-225.33" font-family="Times,serif" font-size="14.00">Draw node 1</text>
</g>
<!-- b7dbdc334325469687aabf95f459ab39&#45;&gt;b5d667a985854782976b26085f88e516 -->
<g id="edge7" class="edge">
<title>b7dbdc334325469687aabf95f459ab39&#45;&gt;b5d667a985854782976b26085f88e516</title>
<path fill="none" stroke="black" d="M55.98,-217.2C58.5,-207.87 63.11,-194.39 70.5,-184.53 73.7,-180.26 77.7,-176.3 81.88,-172.78"/>
<polygon fill="black" stroke="black" points="84.17,-175.43 89.97,-166.57 79.9,-169.88 84.17,-175.43"/>
<text text-anchor="middle" x="90.5" y="-188.33" font-family="Times,serif" font-size="14.00">arg_1</text>
</g>
<!-- 1e20bee6bc9b462cb4238134a2d73449 -->
<g id="node6" class="node">
<title>1e20bee6bc9b462cb4238134a2d73449</title>
<polygon fill="none" stroke="black" points="407,-240.53 300,-240.53 300,-217.53 407,-217.53 407,-240.53"/>
<text text-anchor="middle" x="353.5" y="-225.33" font-family="Times,serif" font-size="14.00">Draw node 0</text>
</g>
<!-- 1e20bee6bc9b462cb4238134a2d73449&#45;&gt;d33d68bb6484463093c1a0e3641f4a4f -->
<g id="edge8" class="edge">
<title>1e20bee6bc9b462cb4238134a2d73449&#45;&gt;d33d68bb6484463093c1a0e3641f4a4f</title>
<path fill="none" stroke="black" d="M348.78,-217.4C343.96,-206.56 336.36,-189.45 330.4,-176.05"/>
<polygon fill="black" stroke="black" points="333.5,-174.41 326.24,-166.69 327.1,-177.25 333.5,-174.41"/>
<text text-anchor="middle" x="359.5" y="-188.33" font-family="Times,serif" font-size="14.00">arg_1</text>
</g>
</g>
</svg>
