<?xml version="1.0" encoding="UTF-8" standalone="no"?>
<!DOCTYPE svg PUBLIC "-//W3C//DTD SVG 1.1//EN"
 "http://www.w3.org/Graphics/SVG/1.1/DTD/svg11.dtd">
<!-- Generated by graphviz version 2.43.0 (0)
 -->
<!-- Title: %3 Pages: 1 -->
<svg width="663pt" height="323pt"
 viewBox="0.00 0.00 663.00 322.53" xmlns="http://www.w3.org/2000/svg" xmlns:xlink="http://www.w3.org/1999/xlink">
<g id="graph0" class="graph" transform="scale(1 1) rotate(0) translate(4 318.53)">
<title>%3</title>
<polygon fill="white" stroke="transparent" points="-4,4 -4,-318.53 659,-318.53 659,4 -4,4"/>
<!-- 5c93c0c986444171ae8af944ec219b73 -->
<g id="node1" class="node">
<title>5c93c0c986444171ae8af944ec219b73</title>
<polygon fill="none" stroke="black" points="559,-92.53 302,-92.53 302,-69.53 559,-69.53 559,-92.53"/>
<text text-anchor="middle" x="430.5" y="-77.33" font-family="Times,serif" font-size="14.00">_maybe_reduce_dim(da, dims, op)</text>
</g>
<!-- f9e312889afb4f44b66fe723cf1f3ad4 -->
<g id="node9" class="node">
<title>f9e312889afb4f44b66fe723cf1f3ad4</title>
<ellipse fill="lightgrey" stroke="lightgrey" cx="430.5" cy="-16.26" rx="84.71" ry="16.03"/>
<text text-anchor="middle" x="430.5" y="-12.56" font-family="Times,serif" font-size="14.00">GraphicalView</text>
</g>
<!-- 5c93c0c986444171ae8af944ec219b73&#45;&gt;f9e312889afb4f44b66fe723cf1f3ad4 -->
<g id="edge4" class="edge">
<title>5c93c0c986444171ae8af944ec219b73&#45;&gt;f9e312889afb4f44b66fe723cf1f3ad4</title>
<path fill="none" stroke="black" d="M430.5,-69.38C430.5,-62.06 430.5,-52.02 430.5,-42.7"/>
<polygon fill="black" stroke="black" points="434,-42.68 430.5,-32.68 427,-42.68 434,-42.68"/>
</g>
<!-- 402c1999ff254d21a0752fa6e84922f0 -->
<g id="node2" class="node">
<title>402c1999ff254d21a0752fa6e84922f0</title>
<polygon fill="none" stroke="black" points="359,-166.53 170,-166.53 170,-143.53 359,-143.53 359,-166.53"/>
<text text-anchor="middle" x="264.5" y="-151.33" font-family="Times,serif" font-size="14.00">slice_dims(arg_0, arg_1)</text>
</g>
<!-- 402c1999ff254d21a0752fa6e84922f0&#45;&gt;5c93c0c986444171ae8af944ec219b73 -->
<g id="edge1" class="edge">
<title>402c1999ff254d21a0752fa6e84922f0&#45;&gt;5c93c0c986444171ae8af944ec219b73</title>
<path fill="none" stroke="black" d="M288.99,-143.4C317.52,-131.03 364.8,-110.52 396.78,-96.65"/>
<polygon fill="black" stroke="black" points="398.39,-99.77 406.18,-92.58 395.61,-93.35 398.39,-99.77"/>
<text text-anchor="middle" x="371.5" y="-114.33" font-family="Times,serif" font-size="14.00">da</text>
</g>
<!-- 65f1d0f72619435aa485fba7b96c7bf2 -->
<g id="node3" class="node">
<title>65f1d0f72619435aa485fba7b96c7bf2</title>
<polygon fill="none" stroke="black" points="483.5,-166.53 377.5,-166.53 377.5,-143.53 483.5,-143.53 483.5,-166.53"/>
<text text-anchor="middle" x="430.5" y="-151.33" font-family="Times,serif" font-size="14.00">Input &lt;list&gt;</text>
</g>
<!-- 65f1d0f72619435aa485fba7b96c7bf2&#45;&gt;5c93c0c986444171ae8af944ec219b73 -->
<g id="edge2" class="edge">
<title>65f1d0f72619435aa485fba7b96c7bf2&#45;&gt;5c93c0c986444171ae8af944ec219b73</title>
<path fill="none" stroke="black" d="M430.5,-143.4C430.5,-132.77 430.5,-116.12 430.5,-102.85"/>
<polygon fill="black" stroke="black" points="434,-102.69 430.5,-92.69 427,-102.69 434,-102.69"/>
<text text-anchor="middle" x="448" y="-114.33" font-family="Times,serif" font-size="14.00">dims</text>
</g>
<!-- e0bb37f02a5f4314be2330e1ea0a1fde -->
<g id="node4" class="node">
<title>e0bb37f02a5f4314be2330e1ea0a1fde</title>
<polygon fill="none" stroke="black" points="655,-166.53 502,-166.53 502,-143.53 655,-143.53 655,-166.53"/>
<text text-anchor="middle" x="578.5" y="-151.33" font-family="Times,serif" font-size="14.00">Input &lt;str=&#39;sum&#39;&gt;</text>
</g>
<!-- e0bb37f02a5f4314be2330e1ea0a1fde&#45;&gt;5c93c0c986444171ae8af944ec219b73 -->
<g id="edge3" class="edge">
<title>e0bb37f02a5f4314be2330e1ea0a1fde&#45;&gt;5c93c0c986444171ae8af944ec219b73</title>
<path fill="none" stroke="black" d="M556.66,-143.4C531.52,-131.17 490.04,-110.99 461.55,-97.13"/>
<polygon fill="black" stroke="black" points="462.95,-93.92 452.43,-92.69 459.89,-100.22 462.95,-93.92"/>
<text text-anchor="middle" x="526.5" y="-114.33" font-family="Times,serif" font-size="14.00">op</text>
</g>
<!-- 05ac738729fb4949a0834bacc7238fcf -->
<g id="node5" class="node">
<title>05ac738729fb4949a0834bacc7238fcf</title>
<polygon fill="none" stroke="black" points="223.5,-240.53 91.5,-240.53 91.5,-217.53 223.5,-217.53 223.5,-240.53"/>
<text text-anchor="middle" x="157.5" y="-225.33" font-family="Times,serif" font-size="14.00">Preprocess data</text>
</g>
<!-- 05ac738729fb4949a0834bacc7238fcf&#45;&gt;402c1999ff254d21a0752fa6e84922f0 -->
<g id="edge5" class="edge">
<title>05ac738729fb4949a0834bacc7238fcf&#45;&gt;402c1999ff254d21a0752fa6e84922f0</title>
<path fill="none" stroke="black" d="M173.29,-217.4C190.91,-205.55 219.64,-186.21 240.15,-172.41"/>
<polygon fill="black" stroke="black" points="242.3,-175.18 248.65,-166.69 238.4,-169.37 242.3,-175.18"/>
<text text-anchor="middle" x="241.5" y="-188.33" font-family="Times,serif" font-size="14.00">arg_0</text>
</g>
<!-- ff82f629868b478fbf50c56dd10833c0 -->
<g id="node6" class="node">
<title>ff82f629868b478fbf50c56dd10833c0</title>
<polygon fill="none" stroke="black" points="501,-240.53 242,-240.53 242,-217.53 501,-217.53 501,-240.53"/>
<text text-anchor="middle" x="371.5" y="-225.33" font-family="Times,serif" font-size="14.00">Widget &lt;_BaseSliceWidget: dict&gt;</text>
</g>
<!-- ff82f629868b478fbf50c56dd10833c0&#45;&gt;402c1999ff254d21a0752fa6e84922f0 -->
<g id="edge6" class="edge">
<title>ff82f629868b478fbf50c56dd10833c0&#45;&gt;402c1999ff254d21a0752fa6e84922f0</title>
<path fill="none" stroke="black" d="M355.71,-217.4C338.09,-205.55 309.36,-186.21 288.85,-172.41"/>
<polygon fill="black" stroke="black" points="290.6,-169.37 280.35,-166.69 286.7,-175.18 290.6,-169.37"/>
<text text-anchor="middle" x="348.5" y="-188.33" font-family="Times,serif" font-size="14.00">arg_1</text>
</g>
<!-- e6ace636322340a096f76d470273c271 -->
<g id="node7" class="node">
<title>e6ace636322340a096f76d470273c271</title>
<polygon fill="none" stroke="black" points="157,-314.53 0,-314.53 0,-291.53 157,-291.53 157,-314.53"/>
<text text-anchor="middle" x="78.5" y="-299.33" font-family="Times,serif" font-size="14.00">Input &lt;DataArray&gt;</text>
</g>
<!-- e6ace636322340a096f76d470273c271&#45;&gt;05ac738729fb4949a0834bacc7238fcf -->
<g id="edge7" class="edge">
<title>e6ace636322340a096f76d470273c271&#45;&gt;05ac738729fb4949a0834bacc7238fcf</title>
<path fill="none" stroke="black" d="M90.16,-291.4C102.76,-279.92 123.06,-261.42 138.08,-247.73"/>
<polygon fill="black" stroke="black" points="140.76,-250.02 145.8,-240.69 136.05,-244.84 140.76,-250.02"/>
<text text-anchor="middle" x="145.5" y="-262.33" font-family="Times,serif" font-size="14.00">arg_0</text>
</g>
<!-- 8a7ea393f3964c808f38a11fe198293b -->
<g id="node8" class="node">
<title>8a7ea393f3964c808f38a11fe198293b</title>
<polygon fill="none" stroke="black" points="298,-314.53 175,-314.53 175,-291.53 298,-291.53 298,-314.53"/>
<text text-anchor="middle" x="236.5" y="-299.33" font-family="Times,serif" font-size="14.00">Input &lt;str=&#39;&#39;&gt;</text>
</g>
<!-- 8a7ea393f3964c808f38a11fe198293b&#45;&gt;05ac738729fb4949a0834bacc7238fcf -->
<g id="edge8" class="edge">
<title>8a7ea393f3964c808f38a11fe198293b&#45;&gt;05ac738729fb4949a0834bacc7238fcf</title>
<path fill="none" stroke="black" d="M224.84,-291.4C212.24,-279.92 191.94,-261.42 176.92,-247.73"/>
<polygon fill="black" stroke="black" points="178.95,-244.84 169.2,-240.69 174.24,-250.02 178.95,-244.84"/>
<text text-anchor="middle" x="224.5" y="-262.33" font-family="Times,serif" font-size="14.00">name</text>
</g>
</g>
</svg>
