<?xml version="1.0" encoding="utf-8" standalone="no"?>
<!DOCTYPE svg PUBLIC "-//W3C//DTD SVG 1.1//EN"
  "http://www.w3.org/Graphics/SVG/1.1/DTD/svg11.dtd">
<svg xmlns:xlink="http://www.w3.org/1999/xlink" width="390.982812pt" height="266.51625pt" viewBox="0 0 390.982812 266.51625" xmlns="http://www.w3.org/2000/svg" version="1.1">
 <metadata>
  <rdf:RDF xmlns:dc="http://purl.org/dc/elements/1.1/" xmlns:cc="http://creativecommons.org/ns#" xmlns:rdf="http://www.w3.org/1999/02/22-rdf-syntax-ns#">
   <cc:Work>
    <dc:type rdf:resource="http://purl.org/dc/dcmitype/StillImage"/>
    <dc:date>2026-02-04T20:38:39.570763</dc:date>
    <dc:format>image/svg+xml</dc:format>
    <dc:creator>
     <cc:Agent>
      <dc:title>Matplotlib v3.10.7, https://matplotlib.org/</dc:title>
     </cc:Agent>
    </dc:creator>
   </cc:Work>
  </rdf:RDF>
 </metadata>
 <defs>
  <style type="text/css">*{stroke-linejoin: round; stroke-linecap: butt}</style>
 </defs>
 <g id="figure_1">
  <g id="patch_1">
   <path d="M 0 266.51625 
L 390.982812 266.51625 
L 390.982812 0 
L 0 0 
z
" style="fill: #ffffff"/>
  </g>
  <g id="axes_1">
   <g id="patch_2">
    <path d="M 48.982813 228.96 
L 383.782813 228.96 
L 383.782813 7.2 
L 48.982813 7.2 
z
" style="fill: #ffffff"/>
   </g>
   <g id="matplotlib.axis_1">
    <g id="xtick_1">
     <g id="line2d_1">
      <defs>
       <path id="mb878e93b10" d="M 0 0 
L 0 3.5 
" style="stroke: #000000; stroke-width: 0.8"/>
      </defs>
      <g>
       <use xlink:href="#mb878e93b10" x="64.200994" y="228.96" style="stroke: #000000; stroke-width: 0.8"/>
      </g>
     </g>
     <g id="text_1">
      <!-- 2000-01 -->
      <g transform="translate(43.309588 243.558438) scale(0.1 -0.1)">
       <defs>
        <path id="DejaVuSans-32" d="M 1228 531 
L 3431 531 
L 3431 0 
L 469 0 
L 469 531 
Q 828 903 1448 1529 
Q 2069 2156 2228 2338 
Q 2531 2678 2651 2914 
Q 2772 3150 2772 3378 
Q 2772 3750 2511 3984 
Q 2250 4219 1831 4219 
Q 1534 4219 1204 4116 
Q 875 4013 500 3803 
L 500 4441 
Q 881 4594 1212 4672 
Q 1544 4750 1819 4750 
Q 2544 4750 2975 4387 
Q 3406 4025 3406 3419 
Q 3406 3131 3298 2873 
Q 3191 2616 2906 2266 
Q 2828 2175 2409 1742 
Q 1991 1309 1228 531 
z
" transform="scale(0.015625)"/>
        <path id="DejaVuSans-30" d="M 2034 4250 
Q 1547 4250 1301 3770 
Q 1056 3291 1056 2328 
Q 1056 1369 1301 889 
Q 1547 409 2034 409 
Q 2525 409 2770 889 
Q 3016 1369 3016 2328 
Q 3016 3291 2770 3770 
Q 2525 4250 2034 4250 
z
M 2034 4750 
Q 2819 4750 3233 4129 
Q 3647 3509 3647 2328 
Q 3647 1150 3233 529 
Q 2819 -91 2034 -91 
Q 1250 -91 836 529 
Q 422 1150 422 2328 
Q 422 3509 836 4129 
Q 1250 4750 2034 4750 
z
" transform="scale(0.015625)"/>
        <path id="DejaVuSans-2d" d="M 313 2009 
L 1997 2009 
L 1997 1497 
L 313 1497 
L 313 2009 
z
" transform="scale(0.015625)"/>
        <path id="DejaVuSans-31" d="M 794 531 
L 1825 531 
L 1825 4091 
L 703 3866 
L 703 4441 
L 1819 4666 
L 2450 4666 
L 2450 531 
L 3481 531 
L 3481 0 
L 794 0 
L 794 531 
z
" transform="scale(0.015625)"/>
       </defs>
       <use xlink:href="#DejaVuSans-32"/>
       <use xlink:href="#DejaVuSans-30" transform="translate(63.623047 0)"/>
       <use xlink:href="#DejaVuSans-30" transform="translate(127.246094 0)"/>
       <use xlink:href="#DejaVuSans-30" transform="translate(190.869141 0)"/>
       <use xlink:href="#DejaVuSans-2d" transform="translate(254.492188 0)"/>
       <use xlink:href="#DejaVuSans-30" transform="translate(290.576172 0)"/>
       <use xlink:href="#DejaVuSans-31" transform="translate(354.199219 0)"/>
      </g>
     </g>
    </g>
    <g id="xtick_2">
     <g id="line2d_2">
      <g>
       <use xlink:href="#mb878e93b10" x="111.614425" y="228.96" style="stroke: #000000; stroke-width: 0.8"/>
      </g>
     </g>
     <g id="text_2">
      <!-- 2000-02 -->
      <g transform="translate(90.723019 243.558438) scale(0.1 -0.1)">
       <use xlink:href="#DejaVuSans-32"/>
       <use xlink:href="#DejaVuSans-30" transform="translate(63.623047 0)"/>
       <use xlink:href="#DejaVuSans-30" transform="translate(127.246094 0)"/>
       <use xlink:href="#DejaVuSans-30" transform="translate(190.869141 0)"/>
       <use xlink:href="#DejaVuSans-2d" transform="translate(254.492188 0)"/>
       <use xlink:href="#DejaVuSans-30" transform="translate(290.576172 0)"/>
       <use xlink:href="#DejaVuSans-32" transform="translate(354.199219 0)"/>
      </g>
     </g>
    </g>
    <g id="xtick_3">
     <g id="line2d_3">
      <g>
       <use xlink:href="#mb878e93b10" x="155.968925" y="228.96" style="stroke: #000000; stroke-width: 0.8"/>
      </g>
     </g>
     <g id="text_3">
      <!-- 2000-03 -->
      <g transform="translate(135.077519 243.558438) scale(0.1 -0.1)">
       <defs>
        <path id="DejaVuSans-33" d="M 2597 2516 
Q 3050 2419 3304 2112 
Q 3559 1806 3559 1356 
Q 3559 666 3084 287 
Q 2609 -91 1734 -91 
Q 1441 -91 1130 -33 
Q 819 25 488 141 
L 488 750 
Q 750 597 1062 519 
Q 1375 441 1716 441 
Q 2309 441 2620 675 
Q 2931 909 2931 1356 
Q 2931 1769 2642 2001 
Q 2353 2234 1838 2234 
L 1294 2234 
L 1294 2753 
L 1863 2753 
Q 2328 2753 2575 2939 
Q 2822 3125 2822 3475 
Q 2822 3834 2567 4026 
Q 2313 4219 1838 4219 
Q 1578 4219 1281 4162 
Q 984 4106 628 3988 
L 628 4550 
Q 988 4650 1302 4700 
Q 1616 4750 1894 4750 
Q 2613 4750 3031 4423 
Q 3450 4097 3450 3541 
Q 3450 3153 3228 2886 
Q 3006 2619 2597 2516 
z
" transform="scale(0.015625)"/>
       </defs>
       <use xlink:href="#DejaVuSans-32"/>
       <use xlink:href="#DejaVuSans-30" transform="translate(63.623047 0)"/>
       <use xlink:href="#DejaVuSans-30" transform="translate(127.246094 0)"/>
       <use xlink:href="#DejaVuSans-30" transform="translate(190.869141 0)"/>
       <use xlink:href="#DejaVuSans-2d" transform="translate(254.492188 0)"/>
       <use xlink:href="#DejaVuSans-30" transform="translate(290.576172 0)"/>
       <use xlink:href="#DejaVuSans-33" transform="translate(354.199219 0)"/>
      </g>
     </g>
    </g>
    <g id="xtick_4">
     <g id="line2d_4">
      <g>
       <use xlink:href="#mb878e93b10" x="203.382356" y="228.96" style="stroke: #000000; stroke-width: 0.8"/>
      </g>
     </g>
     <g id="text_4">
      <!-- 2000-04 -->
      <g transform="translate(182.490949 243.558438) scale(0.1 -0.1)">
       <defs>
        <path id="DejaVuSans-34" d="M 2419 4116 
L 825 1625 
L 2419 1625 
L 2419 4116 
z
M 2253 4666 
L 3047 4666 
L 3047 1625 
L 3713 1625 
L 3713 1100 
L 3047 1100 
L 3047 0 
L 2419 0 
L 2419 1100 
L 313 1100 
L 313 1709 
L 2253 4666 
z
" transform="scale(0.015625)"/>
       </defs>
       <use xlink:href="#DejaVuSans-32"/>
       <use xlink:href="#DejaVuSans-30" transform="translate(63.623047 0)"/>
       <use xlink:href="#DejaVuSans-30" transform="translate(127.246094 0)"/>
       <use xlink:href="#DejaVuSans-30" transform="translate(190.869141 0)"/>
       <use xlink:href="#DejaVuSans-2d" transform="translate(254.492188 0)"/>
       <use xlink:href="#DejaVuSans-30" transform="translate(290.576172 0)"/>
       <use xlink:href="#DejaVuSans-34" transform="translate(354.199219 0)"/>
      </g>
     </g>
    </g>
    <g id="xtick_5">
     <g id="line2d_5">
      <g>
       <use xlink:href="#mb878e93b10" x="249.266321" y="228.96" style="stroke: #000000; stroke-width: 0.8"/>
      </g>
     </g>
     <g id="text_5">
      <!-- 2000-05 -->
      <g transform="translate(228.374915 243.558438) scale(0.1 -0.1)">
       <defs>
        <path id="DejaVuSans-35" d="M 691 4666 
L 3169 4666 
L 3169 4134 
L 1269 4134 
L 1269 2991 
Q 1406 3038 1543 3061 
Q 1681 3084 1819 3084 
Q 2600 3084 3056 2656 
Q 3513 2228 3513 1497 
Q 3513 744 3044 326 
Q 2575 -91 1722 -91 
Q 1428 -91 1123 -41 
Q 819 9 494 109 
L 494 744 
Q 775 591 1075 516 
Q 1375 441 1709 441 
Q 2250 441 2565 725 
Q 2881 1009 2881 1497 
Q 2881 1984 2565 2268 
Q 2250 2553 1709 2553 
Q 1456 2553 1204 2497 
Q 953 2441 691 2322 
L 691 4666 
z
" transform="scale(0.015625)"/>
       </defs>
       <use xlink:href="#DejaVuSans-32"/>
       <use xlink:href="#DejaVuSans-30" transform="translate(63.623047 0)"/>
       <use xlink:href="#DejaVuSans-30" transform="translate(127.246094 0)"/>
       <use xlink:href="#DejaVuSans-30" transform="translate(190.869141 0)"/>
       <use xlink:href="#DejaVuSans-2d" transform="translate(254.492188 0)"/>
       <use xlink:href="#DejaVuSans-30" transform="translate(290.576172 0)"/>
       <use xlink:href="#DejaVuSans-35" transform="translate(354.199219 0)"/>
      </g>
     </g>
    </g>
    <g id="xtick_6">
     <g id="line2d_6">
      <g>
       <use xlink:href="#mb878e93b10" x="296.679752" y="228.96" style="stroke: #000000; stroke-width: 0.8"/>
      </g>
     </g>
     <g id="text_6">
      <!-- 2000-06 -->
      <g transform="translate(275.788345 243.558438) scale(0.1 -0.1)">
       <defs>
        <path id="DejaVuSans-36" d="M 2113 2584 
Q 1688 2584 1439 2293 
Q 1191 2003 1191 1497 
Q 1191 994 1439 701 
Q 1688 409 2113 409 
Q 2538 409 2786 701 
Q 3034 994 3034 1497 
Q 3034 2003 2786 2293 
Q 2538 2584 2113 2584 
z
M 3366 4563 
L 3366 3988 
Q 3128 4100 2886 4159 
Q 2644 4219 2406 4219 
Q 1781 4219 1451 3797 
Q 1122 3375 1075 2522 
Q 1259 2794 1537 2939 
Q 1816 3084 2150 3084 
Q 2853 3084 3261 2657 
Q 3669 2231 3669 1497 
Q 3669 778 3244 343 
Q 2819 -91 2113 -91 
Q 1303 -91 875 529 
Q 447 1150 447 2328 
Q 447 3434 972 4092 
Q 1497 4750 2381 4750 
Q 2619 4750 2861 4703 
Q 3103 4656 3366 4563 
z
" transform="scale(0.015625)"/>
       </defs>
       <use xlink:href="#DejaVuSans-32"/>
       <use xlink:href="#DejaVuSans-30" transform="translate(63.623047 0)"/>
       <use xlink:href="#DejaVuSans-30" transform="translate(127.246094 0)"/>
       <use xlink:href="#DejaVuSans-30" transform="translate(190.869141 0)"/>
       <use xlink:href="#DejaVuSans-2d" transform="translate(254.492188 0)"/>
       <use xlink:href="#DejaVuSans-30" transform="translate(290.576172 0)"/>
       <use xlink:href="#DejaVuSans-36" transform="translate(354.199219 0)"/>
      </g>
     </g>
    </g>
    <g id="xtick_7">
     <g id="line2d_7">
      <g>
       <use xlink:href="#mb878e93b10" x="342.563717" y="228.96" style="stroke: #000000; stroke-width: 0.8"/>
      </g>
     </g>
     <g id="text_7">
      <!-- 2000-07 -->
      <g transform="translate(321.672311 243.558438) scale(0.1 -0.1)">
       <defs>
        <path id="DejaVuSans-37" d="M 525 4666 
L 3525 4666 
L 3525 4397 
L 1831 0 
L 1172 0 
L 2766 4134 
L 525 4134 
L 525 4666 
z
" transform="scale(0.015625)"/>
       </defs>
       <use xlink:href="#DejaVuSans-32"/>
       <use xlink:href="#DejaVuSans-30" transform="translate(63.623047 0)"/>
       <use xlink:href="#DejaVuSans-30" transform="translate(127.246094 0)"/>
       <use xlink:href="#DejaVuSans-30" transform="translate(190.869141 0)"/>
       <use xlink:href="#DejaVuSans-2d" transform="translate(254.492188 0)"/>
       <use xlink:href="#DejaVuSans-30" transform="translate(290.576172 0)"/>
       <use xlink:href="#DejaVuSans-37" transform="translate(354.199219 0)"/>
      </g>
     </g>
    </g>
    <g id="text_8">
     <!-- row [datetime] -->
     <g transform="translate(179.229688 257.236562) scale(0.1 -0.1)">
      <defs>
       <path id="DejaVuSans-72" d="M 2631 2963 
Q 2534 3019 2420 3045 
Q 2306 3072 2169 3072 
Q 1681 3072 1420 2755 
Q 1159 2438 1159 1844 
L 1159 0 
L 581 0 
L 581 3500 
L 1159 3500 
L 1159 2956 
Q 1341 3275 1631 3429 
Q 1922 3584 2338 3584 
Q 2397 3584 2469 3576 
Q 2541 3569 2628 3553 
L 2631 2963 
z
" transform="scale(0.015625)"/>
       <path id="DejaVuSans-6f" d="M 1959 3097 
Q 1497 3097 1228 2736 
Q 959 2375 959 1747 
Q 959 1119 1226 758 
Q 1494 397 1959 397 
Q 2419 397 2687 759 
Q 2956 1122 2956 1747 
Q 2956 2369 2687 2733 
Q 2419 3097 1959 3097 
z
M 1959 3584 
Q 2709 3584 3137 3096 
Q 3566 2609 3566 1747 
Q 3566 888 3137 398 
Q 2709 -91 1959 -91 
Q 1206 -91 779 398 
Q 353 888 353 1747 
Q 353 2609 779 3096 
Q 1206 3584 1959 3584 
z
" transform="scale(0.015625)"/>
       <path id="DejaVuSans-77" d="M 269 3500 
L 844 3500 
L 1563 769 
L 2278 3500 
L 2956 3500 
L 3675 769 
L 4391 3500 
L 4966 3500 
L 4050 0 
L 3372 0 
L 2619 2869 
L 1863 0 
L 1184 0 
L 269 3500 
z
" transform="scale(0.015625)"/>
       <path id="DejaVuSans-20" transform="scale(0.015625)"/>
       <path id="DejaVuSans-5b" d="M 550 4863 
L 1875 4863 
L 1875 4416 
L 1125 4416 
L 1125 -397 
L 1875 -397 
L 1875 -844 
L 550 -844 
L 550 4863 
z
" transform="scale(0.015625)"/>
       <path id="DejaVuSans-64" d="M 2906 2969 
L 2906 4863 
L 3481 4863 
L 3481 0 
L 2906 0 
L 2906 525 
Q 2725 213 2448 61 
Q 2172 -91 1784 -91 
Q 1150 -91 751 415 
Q 353 922 353 1747 
Q 353 2572 751 3078 
Q 1150 3584 1784 3584 
Q 2172 3584 2448 3432 
Q 2725 3281 2906 2969 
z
M 947 1747 
Q 947 1113 1208 752 
Q 1469 391 1925 391 
Q 2381 391 2643 752 
Q 2906 1113 2906 1747 
Q 2906 2381 2643 2742 
Q 2381 3103 1925 3103 
Q 1469 3103 1208 2742 
Q 947 2381 947 1747 
z
" transform="scale(0.015625)"/>
       <path id="DejaVuSans-61" d="M 2194 1759 
Q 1497 1759 1228 1600 
Q 959 1441 959 1056 
Q 959 750 1161 570 
Q 1363 391 1709 391 
Q 2188 391 2477 730 
Q 2766 1069 2766 1631 
L 2766 1759 
L 2194 1759 
z
M 3341 1997 
L 3341 0 
L 2766 0 
L 2766 531 
Q 2569 213 2275 61 
Q 1981 -91 1556 -91 
Q 1019 -91 701 211 
Q 384 513 384 1019 
Q 384 1609 779 1909 
Q 1175 2209 1959 2209 
L 2766 2209 
L 2766 2266 
Q 2766 2663 2505 2880 
Q 2244 3097 1772 3097 
Q 1472 3097 1187 3025 
Q 903 2953 641 2809 
L 641 3341 
Q 956 3463 1253 3523 
Q 1550 3584 1831 3584 
Q 2591 3584 2966 3190 
Q 3341 2797 3341 1997 
z
" transform="scale(0.015625)"/>
       <path id="DejaVuSans-74" d="M 1172 4494 
L 1172 3500 
L 2356 3500 
L 2356 3053 
L 1172 3053 
L 1172 1153 
Q 1172 725 1289 603 
Q 1406 481 1766 481 
L 2356 481 
L 2356 0 
L 1766 0 
Q 1100 0 847 248 
Q 594 497 594 1153 
L 594 3053 
L 172 3053 
L 172 3500 
L 594 3500 
L 594 4494 
L 1172 4494 
z
" transform="scale(0.015625)"/>
       <path id="DejaVuSans-65" d="M 3597 1894 
L 3597 1613 
L 953 1613 
Q 991 1019 1311 708 
Q 1631 397 2203 397 
Q 2534 397 2845 478 
Q 3156 559 3463 722 
L 3463 178 
Q 3153 47 2828 -22 
Q 2503 -91 2169 -91 
Q 1331 -91 842 396 
Q 353 884 353 1716 
Q 353 2575 817 3079 
Q 1281 3584 2069 3584 
Q 2775 3584 3186 3129 
Q 3597 2675 3597 1894 
z
M 3022 2063 
Q 3016 2534 2758 2815 
Q 2500 3097 2075 3097 
Q 1594 3097 1305 2825 
Q 1016 2553 972 2059 
L 3022 2063 
z
" transform="scale(0.015625)"/>
       <path id="DejaVuSans-69" d="M 603 3500 
L 1178 3500 
L 1178 0 
L 603 0 
L 603 3500 
z
M 603 4863 
L 1178 4863 
L 1178 4134 
L 603 4134 
L 603 4863 
z
" transform="scale(0.015625)"/>
       <path id="DejaVuSans-6d" d="M 3328 2828 
Q 3544 3216 3844 3400 
Q 4144 3584 4550 3584 
Q 5097 3584 5394 3201 
Q 5691 2819 5691 2113 
L 5691 0 
L 5113 0 
L 5113 2094 
Q 5113 2597 4934 2840 
Q 4756 3084 4391 3084 
Q 3944 3084 3684 2787 
Q 3425 2491 3425 1978 
L 3425 0 
L 2847 0 
L 2847 2094 
Q 2847 2600 2669 2842 
Q 2491 3084 2119 3084 
Q 1678 3084 1418 2786 
Q 1159 2488 1159 1978 
L 1159 0 
L 581 0 
L 581 3500 
L 1159 3500 
L 1159 2956 
Q 1356 3278 1631 3431 
Q 1906 3584 2284 3584 
Q 2666 3584 2933 3390 
Q 3200 3197 3328 2828 
z
" transform="scale(0.015625)"/>
       <path id="DejaVuSans-5d" d="M 1947 4863 
L 1947 -844 
L 622 -844 
L 622 -397 
L 1369 -397 
L 1369 4416 
L 622 4416 
L 622 4863 
L 1947 4863 
z
" transform="scale(0.015625)"/>
      </defs>
      <use xlink:href="#DejaVuSans-72"/>
      <use xlink:href="#DejaVuSans-6f" transform="translate(38.863281 0)"/>
      <use xlink:href="#DejaVuSans-77" transform="translate(100.044922 0)"/>
      <use xlink:href="#DejaVuSans-20" transform="translate(181.832031 0)"/>
      <use xlink:href="#DejaVuSans-5b" transform="translate(213.619141 0)"/>
      <use xlink:href="#DejaVuSans-64" transform="translate(252.632812 0)"/>
      <use xlink:href="#DejaVuSans-61" transform="translate(316.109375 0)"/>
      <use xlink:href="#DejaVuSans-74" transform="translate(377.388672 0)"/>
      <use xlink:href="#DejaVuSans-65" transform="translate(416.597656 0)"/>
      <use xlink:href="#DejaVuSans-74" transform="translate(478.121094 0)"/>
      <use xlink:href="#DejaVuSans-69" transform="translate(517.330078 0)"/>
      <use xlink:href="#DejaVuSans-6d" transform="translate(545.113281 0)"/>
      <use xlink:href="#DejaVuSans-65" transform="translate(642.525391 0)"/>
      <use xlink:href="#DejaVuSans-5d" transform="translate(704.048828 0)"/>
     </g>
    </g>
   </g>
   <g id="matplotlib.axis_2">
    <g id="ytick_1">
     <g id="line2d_8">
      <defs>
       <path id="m7b9b106b6d" d="M 0 0 
L -3.5 0 
" style="stroke: #000000; stroke-width: 0.8"/>
      </defs>
      <g>
       <use xlink:href="#m7b9b106b6d" x="48.982813" y="192.156754" style="stroke: #000000; stroke-width: 0.8"/>
      </g>
     </g>
     <g id="text_9">
      <!-- −10 -->
      <g transform="translate(20.878125 195.955973) scale(0.1 -0.1)">
       <defs>
        <path id="DejaVuSans-2212" d="M 678 2272 
L 4684 2272 
L 4684 1741 
L 678 1741 
L 678 2272 
z
" transform="scale(0.015625)"/>
       </defs>
       <use xlink:href="#DejaVuSans-2212"/>
       <use xlink:href="#DejaVuSans-31" transform="translate(83.789062 0)"/>
       <use xlink:href="#DejaVuSans-30" transform="translate(147.412109 0)"/>
      </g>
     </g>
    </g>
    <g id="ytick_2">
     <g id="line2d_9">
      <g>
       <use xlink:href="#m7b9b106b6d" x="48.982813" y="147.617454" style="stroke: #000000; stroke-width: 0.8"/>
      </g>
     </g>
     <g id="text_10">
      <!-- 0 -->
      <g transform="translate(35.620312 151.416673) scale(0.1 -0.1)">
       <use xlink:href="#DejaVuSans-30"/>
      </g>
     </g>
    </g>
    <g id="ytick_3">
     <g id="line2d_10">
      <g>
       <use xlink:href="#m7b9b106b6d" x="48.982813" y="103.078155" style="stroke: #000000; stroke-width: 0.8"/>
      </g>
     </g>
     <g id="text_11">
      <!-- 10 -->
      <g transform="translate(29.257812 106.877374) scale(0.1 -0.1)">
       <use xlink:href="#DejaVuSans-31"/>
       <use xlink:href="#DejaVuSans-30" transform="translate(63.623047 0)"/>
      </g>
     </g>
    </g>
    <g id="ytick_4">
     <g id="line2d_11">
      <g>
       <use xlink:href="#m7b9b106b6d" x="48.982813" y="58.538856" style="stroke: #000000; stroke-width: 0.8"/>
      </g>
     </g>
     <g id="text_12">
      <!-- 20 -->
      <g transform="translate(29.257812 62.338075) scale(0.1 -0.1)">
       <use xlink:href="#DejaVuSans-32"/>
       <use xlink:href="#DejaVuSans-30" transform="translate(63.623047 0)"/>
      </g>
     </g>
    </g>
    <g id="ytick_5">
     <g id="line2d_12">
      <g>
       <use xlink:href="#m7b9b106b6d" x="48.982813" y="13.999557" style="stroke: #000000; stroke-width: 0.8"/>
      </g>
     </g>
     <g id="text_13">
      <!-- 30 -->
      <g transform="translate(29.257812 17.798775) scale(0.1 -0.1)">
       <use xlink:href="#DejaVuSans-33"/>
       <use xlink:href="#DejaVuSans-30" transform="translate(63.623047 0)"/>
      </g>
     </g>
    </g>
    <g id="text_14">
     <!-- [dimensionless] -->
     <g transform="translate(14.798437 157.557344) rotate(-90) scale(0.1 -0.1)">
      <defs>
       <path id="DejaVuSans-6e" d="M 3513 2113 
L 3513 0 
L 2938 0 
L 2938 2094 
Q 2938 2591 2744 2837 
Q 2550 3084 2163 3084 
Q 1697 3084 1428 2787 
Q 1159 2491 1159 1978 
L 1159 0 
L 581 0 
L 581 3500 
L 1159 3500 
L 1159 2956 
Q 1366 3272 1645 3428 
Q 1925 3584 2291 3584 
Q 2894 3584 3203 3211 
Q 3513 2838 3513 2113 
z
" transform="scale(0.015625)"/>
       <path id="DejaVuSans-73" d="M 2834 3397 
L 2834 2853 
Q 2591 2978 2328 3040 
Q 2066 3103 1784 3103 
Q 1356 3103 1142 2972 
Q 928 2841 928 2578 
Q 928 2378 1081 2264 
Q 1234 2150 1697 2047 
L 1894 2003 
Q 2506 1872 2764 1633 
Q 3022 1394 3022 966 
Q 3022 478 2636 193 
Q 2250 -91 1575 -91 
Q 1294 -91 989 -36 
Q 684 19 347 128 
L 347 722 
Q 666 556 975 473 
Q 1284 391 1588 391 
Q 1994 391 2212 530 
Q 2431 669 2431 922 
Q 2431 1156 2273 1281 
Q 2116 1406 1581 1522 
L 1381 1569 
Q 847 1681 609 1914 
Q 372 2147 372 2553 
Q 372 3047 722 3315 
Q 1072 3584 1716 3584 
Q 2034 3584 2315 3537 
Q 2597 3491 2834 3397 
z
" transform="scale(0.015625)"/>
       <path id="DejaVuSans-6c" d="M 603 4863 
L 1178 4863 
L 1178 0 
L 603 0 
L 603 4863 
z
" transform="scale(0.015625)"/>
      </defs>
      <use xlink:href="#DejaVuSans-5b"/>
      <use xlink:href="#DejaVuSans-64" transform="translate(39.013672 0)"/>
      <use xlink:href="#DejaVuSans-69" transform="translate(102.490234 0)"/>
      <use xlink:href="#DejaVuSans-6d" transform="translate(130.273438 0)"/>
      <use xlink:href="#DejaVuSans-65" transform="translate(227.685547 0)"/>
      <use xlink:href="#DejaVuSans-6e" transform="translate(289.208984 0)"/>
      <use xlink:href="#DejaVuSans-73" transform="translate(352.587891 0)"/>
      <use xlink:href="#DejaVuSans-69" transform="translate(404.6875 0)"/>
      <use xlink:href="#DejaVuSans-6f" transform="translate(432.470703 0)"/>
      <use xlink:href="#DejaVuSans-6e" transform="translate(493.652344 0)"/>
      <use xlink:href="#DejaVuSans-6c" transform="translate(557.03125 0)"/>
      <use xlink:href="#DejaVuSans-65" transform="translate(584.814453 0)"/>
      <use xlink:href="#DejaVuSans-73" transform="translate(646.337891 0)"/>
      <use xlink:href="#DejaVuSans-73" transform="translate(698.4375 0)"/>
      <use xlink:href="#DejaVuSans-5d" transform="translate(750.537109 0)"/>
     </g>
    </g>
   </g>
   <g id="line2d_13">
    <path d="M 64.200994 146.587884 
L 65.73046 140.570137 
L 67.259925 140.022851 
L 68.789391 135.404624 
L 70.318856 133.367512 
L 71.848322 129.568471 
L 73.377787 123.908257 
L 74.907253 122.260081 
L 76.436718 121.694649 
L 77.966184 118.963514 
L 79.495649 127.43068 
L 81.025115 131.964263 
L 82.55458 127.263936 
L 84.084046 132.835078 
L 85.613511 132.477554 
L 87.142977 131.141986 
L 88.672442 132.80942 
L 90.201908 137.796691 
L 91.731373 137.183781 
L 93.260839 130.377353 
L 94.790305 125.424796 
L 96.31977 131.839955 
L 97.849236 126.235119 
L 99.378701 123.513981 
L 100.908167 128.062829 
L 102.437632 131.685353 
L 103.967098 127.730193 
L 105.496563 123.021305 
L 107.026029 128.868485 
L 108.555494 118.478487 
L 110.08496 118.52383 
L 111.614425 115.915741 
L 114.673356 118.132708 
L 116.202822 118.424639 
L 117.732287 119.117868 
L 119.261753 113.824635 
L 120.791218 112.177036 
L 122.320684 109.056997 
L 123.850149 106.716886 
L 125.379615 103.059698 
L 126.90908 102.288953 
L 129.968011 110.39995 
L 131.497477 105.625423 
L 133.026942 104.404579 
L 134.556408 115.001552 
L 136.085873 110.870522 
L 137.615339 107.275749 
L 139.144804 112.782534 
L 140.67427 112.68474 
L 142.203735 125.019212 
L 143.733201 119.777814 
L 145.262666 117.888771 
L 146.792132 117.713789 
L 148.321597 110.948922 
L 149.851063 113.264895 
L 151.380528 109.965823 
L 152.909994 110.101702 
L 154.439459 108.283348 
L 155.968925 110.21823 
L 157.49839 112.41546 
L 159.027856 119.690802 
L 160.557321 113.522328 
L 162.086787 112.353463 
L 163.616252 123.008443 
L 165.145718 120.062609 
L 166.675183 125.726396 
L 168.204649 115.812911 
L 169.734114 122.243812 
L 171.26358 121.593207 
L 172.793045 125.841144 
L 174.322511 124.529684 
L 175.851977 119.15486 
L 177.381442 119.635778 
L 178.910908 120.87108 
L 180.440373 122.389826 
L 181.969839 122.787838 
L 183.499304 121.396073 
L 185.02877 116.192173 
L 186.558235 113.863062 
L 188.087701 119.455903 
L 189.617166 124.571204 
L 191.146632 126.555216 
L 192.676097 131.37454 
L 194.205563 133.239781 
L 195.735028 140.189831 
L 197.264494 145.095101 
L 198.793959 144.712343 
L 200.323425 147.226471 
L 201.85289 143.027729 
L 203.382356 147.335863 
L 204.911821 150.713393 
L 206.441287 146.596808 
L 207.970752 145.561347 
L 211.029683 148.654479 
L 212.559149 149.579775 
L 214.088614 151.081947 
L 215.61808 154.159405 
L 217.147545 158.794247 
L 218.677011 156.443514 
L 220.206476 146.241402 
L 221.735942 144.28801 
L 223.265407 142.760868 
L 224.794873 145.080446 
L 226.324338 146.474026 
L 227.853804 145.873212 
L 229.383269 141.322377 
L 230.912735 147.112461 
L 232.4422 144.844555 
L 233.971666 148.127415 
L 235.501131 142.689352 
L 237.030597 144.021273 
L 238.560062 140.846706 
L 240.089528 139.422778 
L 241.618993 149.537549 
L 243.148459 152.144896 
L 244.677924 152.625284 
L 246.20739 145.018488 
L 247.736855 145.412965 
L 249.266321 148.252603 
L 252.325252 137.228845 
L 253.854717 133.499701 
L 255.384183 133.836614 
L 256.913648 139.247433 
L 258.443114 134.763713 
L 259.97258 135.866518 
L 261.502045 136.364593 
L 263.031511 134.74274 
L 264.560976 136.783478 
L 266.090442 129.082305 
L 267.619907 129.510308 
L 269.149373 138.358162 
L 270.678838 135.408432 
L 272.208304 141.229424 
L 273.737769 148.63138 
L 275.267235 151.042001 
L 276.7967 150.066014 
L 278.326166 153.009098 
L 279.855631 161.339806 
L 281.385097 162.104785 
L 282.914562 158.377868 
L 284.444028 150.15301 
L 285.973493 154.560521 
L 287.502959 154.704579 
L 289.032424 152.701195 
L 290.56189 145.870905 
L 292.091355 147.491922 
L 293.620821 155.793251 
L 295.150286 158.61615 
L 296.679752 158.547425 
L 298.209217 157.847126 
L 299.738683 157.867032 
L 301.268148 150.525437 
L 302.797614 153.091218 
L 304.327079 146.934378 
L 305.856545 147.72586 
L 307.38601 142.026345 
L 308.915476 145.996961 
L 310.444941 145.969654 
L 311.974407 147.108182 
L 313.503872 145.742715 
L 315.033338 147.310798 
L 316.562803 146.551517 
L 318.092269 140.457434 
L 319.621734 143.519239 
L 321.1512 140.212042 
L 324.210131 142.475718 
L 325.739596 147.235198 
L 327.269062 149.129171 
L 328.798527 146.541987 
L 330.327993 147.594448 
L 331.857458 161.809327 
L 333.386924 158.306468 
L 334.916389 159.14681 
L 336.445855 156.100622 
L 337.97532 153.316297 
L 339.504786 149.449619 
L 341.034252 148.93964 
L 342.563717 150.534416 
L 344.093183 145.061036 
L 345.622648 137.068255 
L 348.681579 136.927482 
L 350.211045 135.783068 
L 351.74051 136.184388 
L 353.269976 148.67528 
L 356.328907 150.404354 
L 357.858372 149.666862 
L 359.387838 143.963104 
L 360.917303 136.156053 
L 362.446769 132.236031 
L 363.976234 133.289742 
L 365.5057 134.629456 
L 367.035165 133.789809 
L 368.564631 130.848215 
L 368.564631 130.848215 
" clip-path="url(#pb12203f53e)" style="fill: none; stroke: #1f77b4; stroke-width: 1.5; stroke-linecap: square"/>
   </g>
   <g id="line2d_14">
    <path d="M 64.200994 143.471331 
L 65.73046 143.112872 
L 67.259925 140.043199 
L 68.789391 131.834635 
L 71.848322 131.010145 
L 73.377787 131.166304 
L 74.907253 132.448677 
L 76.436718 125.216255 
L 77.966184 120.096905 
L 79.495649 119.499758 
L 81.025115 118.654817 
L 82.55458 109.649035 
L 84.084046 112.314555 
L 85.613511 113.895733 
L 87.142977 116.711881 
L 88.672442 111.570184 
L 90.201908 111.614398 
L 91.731373 110.629828 
L 93.260839 114.166941 
L 94.790305 119.152138 
L 96.31977 115.211209 
L 97.849236 115.22093 
L 99.378701 110.473793 
L 100.908167 107.484888 
L 102.437632 103.779634 
L 103.967098 106.804619 
L 105.496563 108.953397 
L 107.026029 118.255618 
L 108.555494 115.978007 
L 110.08496 118.942331 
L 111.614425 112.668053 
L 113.143891 109.43467 
L 114.673356 111.652429 
L 116.202822 109.799591 
L 117.732287 106.689502 
L 119.261753 101.699484 
L 120.791218 100.646358 
L 122.320684 98.470691 
L 123.850149 102.997835 
L 125.379615 101.360725 
L 126.90908 103.607377 
L 128.438546 102.031759 
L 129.968011 101.560195 
L 133.026942 104.054555 
L 134.556408 104.77213 
L 136.085873 100.63664 
L 137.615339 102.535639 
L 139.144804 110.036979 
L 140.67427 116.603186 
L 142.203735 117.606962 
L 143.733201 122.166609 
L 145.262666 119.541318 
L 146.792132 127.422415 
L 148.321597 130.634644 
L 149.851063 125.531704 
L 151.380528 125.726668 
L 152.909994 127.933504 
L 155.968925 115.573183 
L 157.49839 115.677907 
L 159.027856 108.950668 
L 160.557321 112.005755 
L 162.086787 112.852328 
L 163.616252 118.605261 
L 165.145718 113.566906 
L 166.675183 112.259016 
L 168.204649 110.597881 
L 169.734114 108.261576 
L 171.26358 106.619724 
L 172.793045 112.149408 
L 174.322511 112.928308 
L 175.851977 117.240663 
L 177.381442 119.395635 
L 178.910908 114.432023 
L 180.440373 113.124279 
L 181.969839 109.964212 
L 183.499304 115.298142 
L 185.02877 115.386603 
L 186.558235 113.821698 
L 188.087701 122.154449 
L 189.617166 125.074994 
L 191.146632 124.194657 
L 192.676097 123.487814 
L 195.735028 131.129064 
L 197.264494 127.42362 
L 198.793959 122.571998 
L 200.323425 123.789109 
L 201.85289 123.082139 
L 203.382356 128.872582 
L 204.911821 127.614482 
L 206.441287 125.595516 
L 207.970752 121.01017 
L 209.500218 124.07201 
L 211.029683 125.239621 
L 212.559149 134.151395 
L 214.088614 137.088935 
L 215.61808 138.132798 
L 217.147545 136.128728 
L 218.677011 136.047955 
L 221.735942 140.206514 
L 223.265407 137.453358 
L 224.794873 128.838608 
L 226.324338 125.764685 
L 227.853804 133.632224 
L 229.383269 138.695453 
L 230.912735 137.934338 
L 232.4422 137.950882 
L 235.501131 131.608947 
L 237.030597 129.507389 
L 238.560062 130.523998 
L 240.089528 133.451433 
L 241.618993 126.834895 
L 243.148459 130.316799 
L 244.677924 123.138154 
L 246.20739 121.663251 
L 247.736855 122.273403 
L 249.266321 114.654166 
L 250.795786 120.100863 
L 252.325252 119.959312 
L 253.854717 118.328204 
L 255.384183 117.858256 
L 256.913648 114.636051 
L 258.443114 113.791491 
L 259.97258 113.773075 
L 261.502045 114.855713 
L 263.031511 109.337698 
L 264.560976 111.067687 
L 266.090442 116.942467 
L 267.619907 120.314591 
L 269.149373 120.446107 
L 270.678838 123.549976 
L 272.208304 122.969459 
L 273.737769 118.925215 
L 275.267235 116.986215 
L 276.7967 126.079651 
L 278.326166 121.17608 
L 279.855631 121.712107 
L 281.385097 114.01429 
L 282.914562 110.966223 
L 284.444028 115.242398 
L 285.973493 114.8341 
L 287.502959 117.387199 
L 289.032424 123.992243 
L 290.56189 117.854729 
L 292.091355 121.272054 
L 293.620821 127.32411 
L 295.150286 129.544639 
L 296.679752 123.885687 
L 298.209217 120.487057 
L 299.738683 115.406211 
L 301.268148 119.871459 
L 302.797614 119.263071 
L 304.327079 118.368164 
L 305.856545 120.508039 
L 307.38601 120.375346 
L 308.915476 119.299699 
L 310.444941 127.602664 
L 311.974407 122.603176 
L 313.503872 119.055332 
L 315.033338 119.252219 
L 316.562803 118.740773 
L 318.092269 112.800274 
L 319.621734 113.766451 
L 321.1512 118.2404 
L 322.680665 114.265189 
L 324.210131 118.378453 
L 325.739596 117.21357 
L 327.269062 116.993036 
L 328.798527 120.883963 
L 330.327993 119.839876 
L 331.857458 120.289518 
L 333.386924 121.940797 
L 334.916389 130.538782 
L 336.445855 127.591286 
L 337.97532 121.758327 
L 339.504786 129.857562 
L 341.034252 122.921236 
L 342.563717 124.586557 
L 344.093183 120.270404 
L 345.622648 116.790986 
L 347.152114 121.919332 
L 348.681579 121.687484 
L 350.211045 119.787874 
L 351.74051 120.79592 
L 353.269976 125.228607 
L 354.799441 125.71519 
L 356.328907 131.007087 
L 357.858372 131.260605 
L 359.387838 134.706071 
L 360.917303 133.159904 
L 362.446769 126.478532 
L 363.976234 124.345844 
L 365.5057 123.494514 
L 367.035165 118.049567 
L 368.564631 104.805009 
L 368.564631 104.805009 
" clip-path="url(#pb12203f53e)" style="fill: none; stroke: #ff7f0e; stroke-width: 1.5; stroke-linecap: square"/>
   </g>
   <g id="line2d_15">
    <path d="M 64.200994 149.675143 
L 65.73046 149.208936 
L 67.259925 151.661036 
L 68.789391 140.228198 
L 70.318856 138.152837 
L 71.848322 127.548473 
L 73.377787 124.278022 
L 74.907253 126.974501 
L 76.436718 126.775251 
L 77.966184 116.730651 
L 81.025115 110.389085 
L 82.55458 115.634442 
L 84.084046 115.000411 
L 85.613511 112.669755 
L 87.142977 108.722119 
L 88.672442 114.274341 
L 90.201908 114.004403 
L 91.731373 114.154708 
L 93.260839 113.50789 
L 94.790305 116.478536 
L 96.31977 115.899661 
L 97.849236 112.577803 
L 99.378701 107.113326 
L 100.908167 105.637651 
L 103.967098 100.971433 
L 105.496563 97.518648 
L 107.026029 97.457264 
L 108.555494 86.291788 
L 110.08496 87.12773 
L 111.614425 83.61559 
L 113.143891 90.836497 
L 114.673356 92.000354 
L 116.202822 96.727365 
L 117.732287 93.077614 
L 119.261753 89.084532 
L 120.791218 90.983144 
L 122.320684 87.980453 
L 125.379615 82.908129 
L 126.90908 84.776605 
L 128.438546 88.726355 
L 129.968011 87.138744 
L 131.497477 92.294917 
L 133.026942 85.501905 
L 134.556408 93.034614 
L 136.085873 95.007721 
L 137.615339 91.071438 
L 139.144804 98.716964 
L 140.67427 99.139451 
L 142.203735 92.175375 
L 143.733201 87.126662 
L 145.262666 80.953975 
L 146.792132 89.001072 
L 148.321597 84.864154 
L 149.851063 85.160801 
L 151.380528 91.616541 
L 152.909994 89.311495 
L 154.439459 90.485236 
L 155.968925 87.629952 
L 157.49839 84.518443 
L 159.027856 82.939211 
L 160.557321 84.334539 
L 162.086787 86.622604 
L 163.616252 85.366302 
L 165.145718 87.647461 
L 166.675183 95.173064 
L 168.204649 94.769046 
L 169.734114 98.864552 
L 171.26358 93.785825 
L 172.793045 88.049501 
L 174.322511 89.019889 
L 175.851977 88.716455 
L 177.381442 89.262995 
L 178.910908 84.384444 
L 180.440373 82.464058 
L 183.499304 87.777865 
L 185.02877 91.995986 
L 186.558235 87.380014 
L 188.087701 80.974656 
L 189.617166 84.261958 
L 191.146632 81.875665 
L 192.676097 85.362659 
L 194.205563 85.210923 
L 195.735028 92.881346 
L 197.264494 97.833557 
L 198.793959 85.911049 
L 200.323425 94.6634 
L 201.85289 95.170479 
L 203.382356 95.50654 
L 204.911821 92.678123 
L 206.441287 87.711649 
L 207.970752 89.238275 
L 209.500218 91.979512 
L 211.029683 83.982447 
L 212.559149 85.726221 
L 214.088614 85.311305 
L 215.61808 83.574485 
L 217.147545 86.82639 
L 218.677011 85.163759 
L 220.206476 80.60433 
L 221.735942 78.213441 
L 223.265407 78.079316 
L 224.794873 73.151033 
L 226.324338 69.388984 
L 227.853804 65.229053 
L 229.383269 66.316798 
L 232.4422 71.238074 
L 233.971666 70.360984 
L 235.501131 72.908377 
L 237.030597 64.810111 
L 238.560062 60.595015 
L 240.089528 58.228843 
L 241.618993 55.489458 
L 243.148459 49.069622 
L 246.20739 48.859035 
L 247.736855 47.059937 
L 249.266321 44.174141 
L 250.795786 42.747939 
L 252.325252 45.612055 
L 253.854717 51.897334 
L 256.913648 46.85804 
L 258.443114 45.32985 
L 259.97258 44.935741 
L 261.502045 51.397482 
L 263.031511 43.470427 
L 264.560976 49.253982 
L 266.090442 46.028378 
L 267.619907 50.357273 
L 269.149373 46.50521 
L 270.678838 39.549547 
L 272.208304 37.616248 
L 273.737769 42.370226 
L 275.267235 50.976433 
L 276.7967 50.423493 
L 278.326166 55.170738 
L 279.855631 56.140324 
L 281.385097 47.231505 
L 282.914562 40.987843 
L 284.444028 44.458382 
L 285.973493 41.427302 
L 287.502959 39.789119 
L 289.032424 43.305137 
L 290.56189 40.685063 
L 292.091355 37.536648 
L 293.620821 34.086412 
L 295.150286 31.741253 
L 296.679752 26.964906 
L 298.209217 24.228285 
L 299.738683 31.78215 
L 301.268148 32.342248 
L 302.797614 32.327992 
L 304.327079 37.247126 
L 305.856545 43.165882 
L 307.38601 41.414836 
L 308.915476 42.904947 
L 310.444941 47.307706 
L 311.974407 38.000774 
L 313.503872 38.31715 
L 315.033338 37.202398 
L 316.562803 42.061707 
L 318.092269 42.94584 
L 319.621734 41.932393 
L 321.1512 42.981722 
L 322.680665 39.953999 
L 324.210131 37.930935 
L 325.739596 36.752504 
L 327.269062 33.048826 
L 328.798527 30.325841 
L 330.327993 21.694533 
L 331.857458 25.345807 
L 333.386924 34.966859 
L 334.916389 33.293767 
L 336.445855 32.834547 
L 337.97532 32.727407 
L 339.504786 37.302118 
L 341.034252 43.250399 
L 342.563717 31.860775 
L 344.093183 25.306716 
L 345.622648 22.410505 
L 347.152114 15.434971 
L 348.681579 14.079097 
L 350.211045 15.015823 
L 351.74051 20.68603 
L 353.269976 21.739298 
L 354.799441 23.693699 
L 356.328907 18.726727 
L 357.858372 19.29566 
L 359.387838 14.271113 
L 360.917303 15.925848 
L 362.446769 15.86023 
L 363.976234 26.788624 
L 365.5057 33.597301 
L 367.035165 28.306804 
L 368.564631 27.912172 
L 368.564631 27.912172 
" clip-path="url(#pb12203f53e)" style="fill: none; stroke: #2ca02c; stroke-width: 1.5; stroke-linecap: square"/>
   </g>
   <g id="line2d_16">
    <path d="M 64.200994 146.460406 
L 65.73046 146.026132 
L 67.259925 151.105494 
L 68.789391 152.418639 
L 70.318856 151.068017 
L 71.848322 156.208561 
L 73.377787 151.567991 
L 74.907253 147.625345 
L 76.436718 144.936464 
L 77.966184 146.006271 
L 79.495649 148.003058 
L 81.025115 145.414385 
L 84.084046 125.846039 
L 85.613511 126.412569 
L 87.142977 128.531771 
L 88.672442 129.591944 
L 90.201908 124.307071 
L 91.731373 128.333323 
L 93.260839 132.681824 
L 94.790305 134.773744 
L 96.31977 131.701519 
L 97.849236 134.581466 
L 99.378701 130.04458 
L 100.908167 137.291151 
L 102.437632 143.114268 
L 103.967098 138.30706 
L 105.496563 134.830556 
L 107.026029 134.152359 
L 108.555494 140.419821 
L 110.08496 142.863687 
L 111.614425 147.274015 
L 113.143891 148.683646 
L 114.673356 147.940931 
L 116.202822 145.653851 
L 117.732287 145.179509 
L 119.261753 145.39618 
L 120.791218 142.234167 
L 122.320684 142.310955 
L 123.850149 139.674404 
L 125.379615 136.3928 
L 126.90908 143.179423 
L 128.438546 142.930393 
L 129.968011 143.504906 
L 131.497477 141.892891 
L 134.556408 147.604743 
L 136.085873 144.23558 
L 137.615339 148.93651 
L 139.144804 145.279264 
L 140.67427 145.097483 
L 142.203735 148.491637 
L 143.733201 143.329012 
L 145.262666 143.760859 
L 146.792132 146.820376 
L 148.321597 152.193919 
L 149.851063 161.604126 
L 151.380528 152.535596 
L 152.909994 149.958807 
L 154.439459 152.417158 
L 155.968925 163.676907 
L 157.49839 164.385028 
L 159.027856 160.591769 
L 160.557321 166.914263 
L 162.086787 159.907971 
L 163.616252 155.989725 
L 166.675183 163.146124 
L 168.204649 170.704799 
L 169.734114 181.842435 
L 171.26358 174.112567 
L 172.793045 178.173004 
L 174.322511 187.81707 
L 175.851977 189.88782 
L 177.381442 188.897416 
L 178.910908 197.881614 
L 180.440373 202.179966 
L 181.969839 211.168499 
L 183.499304 216.282259 
L 185.02877 216.21998 
L 186.558235 214.597992 
L 188.087701 209.874137 
L 189.617166 211.835969 
L 191.146632 214.355291 
L 192.676097 210.084449 
L 194.205563 206.18125 
L 195.735028 205.471768 
L 197.264494 199.193234 
L 198.793959 194.293143 
L 200.323425 199.726664 
L 201.85289 200.640978 
L 203.382356 195.376308 
L 204.911821 196.439331 
L 206.441287 193.366487 
L 207.970752 204.576522 
L 209.500218 207.178762 
L 212.559149 206.170197 
L 214.088614 204.326039 
L 215.61808 204.780754 
L 217.147545 208.852944 
L 218.677011 206.907062 
L 221.735942 204.837439 
L 223.265407 210.843528 
L 224.794873 220.899776 
L 226.324338 223.976527 
L 227.853804 219.134699 
L 229.383269 222.41291 
L 230.912735 218.575069 
L 232.4422 217.282806 
L 233.971666 213.348195 
L 235.501131 211.887062 
L 237.030597 214.392586 
L 238.560062 213.068388 
L 240.089528 215.668433 
L 241.618993 221.429683 
L 243.148459 222.558706 
L 244.677924 212.295748 
L 246.20739 212.512776 
L 247.736855 210.964066 
L 249.266321 205.53744 
L 250.795786 205.868474 
L 252.325252 209.525401 
L 253.854717 204.756685 
L 255.384183 205.019737 
L 256.913648 207.186703 
L 258.443114 208.695769 
L 259.97258 214.326485 
L 261.502045 214.701045 
L 263.031511 217.107575 
L 264.560976 218.593402 
L 266.090442 215.898866 
L 267.619907 218.855725 
L 269.149373 220.549921 
L 270.678838 216.849622 
L 272.208304 212.029361 
L 273.737769 206.812648 
L 275.267235 207.598657 
L 276.7967 210.481725 
L 278.326166 211.553037 
L 279.855631 212.160168 
L 281.385097 209.901227 
L 282.914562 202.115143 
L 284.444028 201.847417 
L 285.973493 201.715094 
L 287.502959 199.731038 
L 289.032424 199.211748 
L 290.56189 200.695396 
L 292.091355 199.235941 
L 293.620821 193.372097 
L 295.150286 191.662593 
L 296.679752 192.314729 
L 298.209217 190.571493 
L 299.738683 186.194635 
L 301.268148 180.533455 
L 302.797614 180.869467 
L 304.327079 176.048667 
L 305.856545 172.918841 
L 307.38601 167.170916 
L 308.915476 163.356062 
L 310.444941 163.862879 
L 311.974407 163.478493 
L 313.503872 165.932372 
L 315.033338 164.460462 
L 316.562803 171.883114 
L 318.092269 168.906336 
L 319.621734 163.49687 
L 321.1512 162.744147 
L 324.210131 152.340095 
L 325.739596 140.73129 
L 327.269062 136.801064 
L 328.798527 145.34604 
L 330.327993 140.713862 
L 331.857458 134.279496 
L 333.386924 142.606018 
L 334.916389 141.749937 
L 336.445855 144.416142 
L 337.97532 138.841663 
L 339.504786 144.251127 
L 342.563717 142.723372 
L 344.093183 139.532496 
L 345.622648 133.558387 
L 347.152114 132.524139 
L 348.681579 139.638049 
L 350.211045 138.781576 
L 351.74051 137.146499 
L 353.269976 139.241686 
L 354.799441 132.434175 
L 356.328907 135.030735 
L 357.858372 134.103752 
L 359.387838 129.005963 
L 360.917303 129.923661 
L 362.446769 131.049348 
L 363.976234 138.276111 
L 367.035165 145.024523 
L 368.564631 137.752716 
L 368.564631 137.752716 
" clip-path="url(#pb12203f53e)" style="fill: none; stroke: #d62728; stroke-width: 1.5; stroke-linecap: square"/>
   </g>
   <g id="patch_3">
    <path d="M 48.982813 228.96 
L 48.982813 7.2 
" style="fill: none; stroke: #000000; stroke-width: 0.8; stroke-linejoin: miter; stroke-linecap: square"/>
   </g>
   <g id="patch_4">
    <path d="M 383.782813 228.96 
L 383.782813 7.2 
" style="fill: none; stroke: #000000; stroke-width: 0.8; stroke-linejoin: miter; stroke-linecap: square"/>
   </g>
   <g id="patch_5">
    <path d="M 48.982812 228.96 
L 383.782812 228.96 
" style="fill: none; stroke: #000000; stroke-width: 0.8; stroke-linejoin: miter; stroke-linecap: square"/>
   </g>
   <g id="patch_6">
    <path d="M 48.982812 7.2 
L 383.782812 7.2 
" style="fill: none; stroke: #000000; stroke-width: 0.8; stroke-linejoin: miter; stroke-linecap: square"/>
   </g>
   <g id="legend_1">
    <g id="patch_7">
     <path d="M 55.982813 73.9125 
L 95.682813 73.9125 
Q 97.682813 73.9125 97.682813 71.9125 
L 97.682813 14.2 
Q 97.682813 12.2 95.682813 12.2 
L 55.982813 12.2 
Q 53.982813 12.2 53.982813 14.2 
L 53.982813 71.9125 
Q 53.982813 73.9125 55.982813 73.9125 
z
" style="fill: #ffffff; opacity: 0.8; stroke: #cccccc; stroke-linejoin: miter"/>
    </g>
    <g id="line2d_17">
     <path d="M 57.982813 20.298437 
L 67.982812 20.298437 
L 77.982812 20.298437 
" style="fill: none; stroke: #1f77b4; stroke-width: 1.5; stroke-linecap: square"/>
    </g>
    <g id="text_15">
     <!-- A -->
     <g transform="translate(85.982812 23.798437) scale(0.1 -0.1)">
      <defs>
       <path id="DejaVuSans-41" d="M 2188 4044 
L 1331 1722 
L 3047 1722 
L 2188 4044 
z
M 1831 4666 
L 2547 4666 
L 4325 0 
L 3669 0 
L 3244 1197 
L 1141 1197 
L 716 0 
L 50 0 
L 1831 4666 
z
" transform="scale(0.015625)"/>
      </defs>
      <use xlink:href="#DejaVuSans-41"/>
     </g>
    </g>
    <g id="line2d_18">
     <path d="M 57.982813 34.976562 
L 67.982812 34.976562 
L 77.982812 34.976562 
" style="fill: none; stroke: #ff7f0e; stroke-width: 1.5; stroke-linecap: square"/>
    </g>
    <g id="text_16">
     <!-- B -->
     <g transform="translate(85.982812 38.476562) scale(0.1 -0.1)">
      <defs>
       <path id="DejaVuSans-42" d="M 1259 2228 
L 1259 519 
L 2272 519 
Q 2781 519 3026 730 
Q 3272 941 3272 1375 
Q 3272 1813 3026 2020 
Q 2781 2228 2272 2228 
L 1259 2228 
z
M 1259 4147 
L 1259 2741 
L 2194 2741 
Q 2656 2741 2882 2914 
Q 3109 3088 3109 3444 
Q 3109 3797 2882 3972 
Q 2656 4147 2194 4147 
L 1259 4147 
z
M 628 4666 
L 2241 4666 
Q 2963 4666 3353 4366 
Q 3744 4066 3744 3513 
Q 3744 3084 3544 2831 
Q 3344 2578 2956 2516 
Q 3422 2416 3680 2098 
Q 3938 1781 3938 1306 
Q 3938 681 3513 340 
Q 3088 0 2303 0 
L 628 0 
L 628 4666 
z
" transform="scale(0.015625)"/>
      </defs>
      <use xlink:href="#DejaVuSans-42"/>
     </g>
    </g>
    <g id="line2d_19">
     <path d="M 57.982813 49.654687 
L 67.982812 49.654687 
L 77.982812 49.654687 
" style="fill: none; stroke: #2ca02c; stroke-width: 1.5; stroke-linecap: square"/>
    </g>
    <g id="text_17">
     <!-- C -->
     <g transform="translate(85.982812 53.154687) scale(0.1 -0.1)">
      <defs>
       <path id="DejaVuSans-43" d="M 4122 4306 
L 4122 3641 
Q 3803 3938 3442 4084 
Q 3081 4231 2675 4231 
Q 1875 4231 1450 3742 
Q 1025 3253 1025 2328 
Q 1025 1406 1450 917 
Q 1875 428 2675 428 
Q 3081 428 3442 575 
Q 3803 722 4122 1019 
L 4122 359 
Q 3791 134 3420 21 
Q 3050 -91 2638 -91 
Q 1578 -91 968 557 
Q 359 1206 359 2328 
Q 359 3453 968 4101 
Q 1578 4750 2638 4750 
Q 3056 4750 3426 4639 
Q 3797 4528 4122 4306 
z
" transform="scale(0.015625)"/>
      </defs>
      <use xlink:href="#DejaVuSans-43"/>
     </g>
    </g>
    <g id="line2d_20">
     <path d="M 57.982813 64.332812 
L 67.982812 64.332812 
L 77.982812 64.332812 
" style="fill: none; stroke: #d62728; stroke-width: 1.5; stroke-linecap: square"/>
    </g>
    <g id="text_18">
     <!-- D -->
     <g transform="translate(85.982812 67.832812) scale(0.1 -0.1)">
      <defs>
       <path id="DejaVuSans-44" d="M 1259 4147 
L 1259 519 
L 2022 519 
Q 2988 519 3436 956 
Q 3884 1394 3884 2338 
Q 3884 3275 3436 3711 
Q 2988 4147 2022 4147 
L 1259 4147 
z
M 628 4666 
L 1925 4666 
Q 3281 4666 3915 4102 
Q 4550 3538 4550 2338 
Q 4550 1131 3912 565 
Q 3275 0 1925 0 
L 628 0 
L 628 4666 
z
" transform="scale(0.015625)"/>
      </defs>
      <use xlink:href="#DejaVuSans-44"/>
     </g>
    </g>
   </g>
  </g>
 </g>
 <defs>
  <clipPath id="pb12203f53e">
   <rect x="48.982813" y="7.2" width="334.8" height="221.76"/>
  </clipPath>
 </defs>
</svg>
