<?xml version="1.0" encoding="utf-8" standalone="no"?>
<!DOCTYPE svg PUBLIC "-//W3C//DTD SVG 1.1//EN"
  "http://www.w3.org/Graphics/SVG/1.1/DTD/svg11.dtd">
<svg xmlns:xlink="http://www.w3.org/1999/xlink" width="390.982812pt" height="269.31062pt" viewBox="0 0 390.982812 269.31062" xmlns="http://www.w3.org/2000/svg" version="1.1">
 <metadata>
  <rdf:RDF xmlns:dc="http://purl.org/dc/elements/1.1/" xmlns:cc="http://creativecommons.org/ns#" xmlns:rdf="http://www.w3.org/1999/02/22-rdf-syntax-ns#">
   <cc:Work>
    <dc:type rdf:resource="http://purl.org/dc/dcmitype/StillImage"/>
    <dc:date>2025-06-23T08:20:54.021812</dc:date>
    <dc:format>image/svg+xml</dc:format>
    <dc:creator>
     <cc:Agent>
      <dc:title>Matplotlib v3.10.3, https://matplotlib.org/</dc:title>
     </cc:Agent>
    </dc:creator>
   </cc:Work>
  </rdf:RDF>
 </metadata>
 <defs>
  <style type="text/css">*{stroke-linejoin: round; stroke-linecap: butt}</style>
 </defs>
 <g id="figure_1">
  <g id="patch_1">
   <path d="M 0 269.31062 
L 390.982812 269.31062 
L 390.982812 0 
L 0 0 
z
" style="fill: #ffffff"/>
  </g>
  <g id="axes_1">
   <g id="patch_2">
    <path d="M 48.982813 231.75437 
L 383.782813 231.75437 
L 383.782813 9.99437 
L 48.982813 9.99437 
z
" style="fill: #ffffff"/>
   </g>
   <g id="matplotlib.axis_1">
    <g id="xtick_1">
     <g id="line2d_1">
      <defs>
       <path id="mf35a9ca6cf" d="M 0 0 
L 0 3.5 
" style="stroke: #000000; stroke-width: 0.8"/>
      </defs>
      <g>
       <use xlink:href="#mf35a9ca6cf" x="64.200994" y="231.75437" style="stroke: #000000; stroke-width: 0.8"/>
      </g>
     </g>
     <g id="text_1">
      <!-- 2000-01 -->
      <g transform="translate(43.309588 246.352808) scale(0.1 -0.1)">
       <defs>
        <path id="DejaVuSans-32" d="M 1228 531 
L 3431 531 
L 3431 0 
L 469 0 
L 469 531 
Q 828 903 1448 1529 
Q 2069 2156 2228 2338 
Q 2531 2678 2651 2914 
Q 2772 3150 2772 3378 
Q 2772 3750 2511 3984 
Q 2250 4219 1831 4219 
Q 1534 4219 1204 4116 
Q 875 4013 500 3803 
L 500 4441 
Q 881 4594 1212 4672 
Q 1544 4750 1819 4750 
Q 2544 4750 2975 4387 
Q 3406 4025 3406 3419 
Q 3406 3131 3298 2873 
Q 3191 2616 2906 2266 
Q 2828 2175 2409 1742 
Q 1991 1309 1228 531 
z
" transform="scale(0.015625)"/>
        <path id="DejaVuSans-30" d="M 2034 4250 
Q 1547 4250 1301 3770 
Q 1056 3291 1056 2328 
Q 1056 1369 1301 889 
Q 1547 409 2034 409 
Q 2525 409 2770 889 
Q 3016 1369 3016 2328 
Q 3016 3291 2770 3770 
Q 2525 4250 2034 4250 
z
M 2034 4750 
Q 2819 4750 3233 4129 
Q 3647 3509 3647 2328 
Q 3647 1150 3233 529 
Q 2819 -91 2034 -91 
Q 1250 -91 836 529 
Q 422 1150 422 2328 
Q 422 3509 836 4129 
Q 1250 4750 2034 4750 
z
" transform="scale(0.015625)"/>
        <path id="DejaVuSans-2d" d="M 313 2009 
L 1997 2009 
L 1997 1497 
L 313 1497 
L 313 2009 
z
" transform="scale(0.015625)"/>
        <path id="DejaVuSans-31" d="M 794 531 
L 1825 531 
L 1825 4091 
L 703 3866 
L 703 4441 
L 1819 4666 
L 2450 4666 
L 2450 531 
L 3481 531 
L 3481 0 
L 794 0 
L 794 531 
z
" transform="scale(0.015625)"/>
       </defs>
       <use xlink:href="#DejaVuSans-32"/>
       <use xlink:href="#DejaVuSans-30" transform="translate(63.623047 0)"/>
       <use xlink:href="#DejaVuSans-30" transform="translate(127.246094 0)"/>
       <use xlink:href="#DejaVuSans-30" transform="translate(190.869141 0)"/>
       <use xlink:href="#DejaVuSans-2d" transform="translate(254.492188 0)"/>
       <use xlink:href="#DejaVuSans-30" transform="translate(290.576172 0)"/>
       <use xlink:href="#DejaVuSans-31" transform="translate(354.199219 0)"/>
      </g>
     </g>
    </g>
    <g id="xtick_2">
     <g id="line2d_2">
      <g>
       <use xlink:href="#mf35a9ca6cf" x="111.614425" y="231.75437" style="stroke: #000000; stroke-width: 0.8"/>
      </g>
     </g>
     <g id="text_2">
      <!-- 2000-02 -->
      <g transform="translate(90.723019 246.352808) scale(0.1 -0.1)">
       <use xlink:href="#DejaVuSans-32"/>
       <use xlink:href="#DejaVuSans-30" transform="translate(63.623047 0)"/>
       <use xlink:href="#DejaVuSans-30" transform="translate(127.246094 0)"/>
       <use xlink:href="#DejaVuSans-30" transform="translate(190.869141 0)"/>
       <use xlink:href="#DejaVuSans-2d" transform="translate(254.492188 0)"/>
       <use xlink:href="#DejaVuSans-30" transform="translate(290.576172 0)"/>
       <use xlink:href="#DejaVuSans-32" transform="translate(354.199219 0)"/>
      </g>
     </g>
    </g>
    <g id="xtick_3">
     <g id="line2d_3">
      <g>
       <use xlink:href="#mf35a9ca6cf" x="155.968925" y="231.75437" style="stroke: #000000; stroke-width: 0.8"/>
      </g>
     </g>
     <g id="text_3">
      <!-- 2000-03 -->
      <g transform="translate(135.077519 246.352808) scale(0.1 -0.1)">
       <defs>
        <path id="DejaVuSans-33" d="M 2597 2516 
Q 3050 2419 3304 2112 
Q 3559 1806 3559 1356 
Q 3559 666 3084 287 
Q 2609 -91 1734 -91 
Q 1441 -91 1130 -33 
Q 819 25 488 141 
L 488 750 
Q 750 597 1062 519 
Q 1375 441 1716 441 
Q 2309 441 2620 675 
Q 2931 909 2931 1356 
Q 2931 1769 2642 2001 
Q 2353 2234 1838 2234 
L 1294 2234 
L 1294 2753 
L 1863 2753 
Q 2328 2753 2575 2939 
Q 2822 3125 2822 3475 
Q 2822 3834 2567 4026 
Q 2313 4219 1838 4219 
Q 1578 4219 1281 4162 
Q 984 4106 628 3988 
L 628 4550 
Q 988 4650 1302 4700 
Q 1616 4750 1894 4750 
Q 2613 4750 3031 4423 
Q 3450 4097 3450 3541 
Q 3450 3153 3228 2886 
Q 3006 2619 2597 2516 
z
" transform="scale(0.015625)"/>
       </defs>
       <use xlink:href="#DejaVuSans-32"/>
       <use xlink:href="#DejaVuSans-30" transform="translate(63.623047 0)"/>
       <use xlink:href="#DejaVuSans-30" transform="translate(127.246094 0)"/>
       <use xlink:href="#DejaVuSans-30" transform="translate(190.869141 0)"/>
       <use xlink:href="#DejaVuSans-2d" transform="translate(254.492188 0)"/>
       <use xlink:href="#DejaVuSans-30" transform="translate(290.576172 0)"/>
       <use xlink:href="#DejaVuSans-33" transform="translate(354.199219 0)"/>
      </g>
     </g>
    </g>
    <g id="xtick_4">
     <g id="line2d_4">
      <g>
       <use xlink:href="#mf35a9ca6cf" x="203.382356" y="231.75437" style="stroke: #000000; stroke-width: 0.8"/>
      </g>
     </g>
     <g id="text_4">
      <!-- 2000-04 -->
      <g transform="translate(182.490949 246.352808) scale(0.1 -0.1)">
       <defs>
        <path id="DejaVuSans-34" d="M 2419 4116 
L 825 1625 
L 2419 1625 
L 2419 4116 
z
M 2253 4666 
L 3047 4666 
L 3047 1625 
L 3713 1625 
L 3713 1100 
L 3047 1100 
L 3047 0 
L 2419 0 
L 2419 1100 
L 313 1100 
L 313 1709 
L 2253 4666 
z
" transform="scale(0.015625)"/>
       </defs>
       <use xlink:href="#DejaVuSans-32"/>
       <use xlink:href="#DejaVuSans-30" transform="translate(63.623047 0)"/>
       <use xlink:href="#DejaVuSans-30" transform="translate(127.246094 0)"/>
       <use xlink:href="#DejaVuSans-30" transform="translate(190.869141 0)"/>
       <use xlink:href="#DejaVuSans-2d" transform="translate(254.492188 0)"/>
       <use xlink:href="#DejaVuSans-30" transform="translate(290.576172 0)"/>
       <use xlink:href="#DejaVuSans-34" transform="translate(354.199219 0)"/>
      </g>
     </g>
    </g>
    <g id="xtick_5">
     <g id="line2d_5">
      <g>
       <use xlink:href="#mf35a9ca6cf" x="249.266321" y="231.75437" style="stroke: #000000; stroke-width: 0.8"/>
      </g>
     </g>
     <g id="text_5">
      <!-- 2000-05 -->
      <g transform="translate(228.374915 246.352808) scale(0.1 -0.1)">
       <defs>
        <path id="DejaVuSans-35" d="M 691 4666 
L 3169 4666 
L 3169 4134 
L 1269 4134 
L 1269 2991 
Q 1406 3038 1543 3061 
Q 1681 3084 1819 3084 
Q 2600 3084 3056 2656 
Q 3513 2228 3513 1497 
Q 3513 744 3044 326 
Q 2575 -91 1722 -91 
Q 1428 -91 1123 -41 
Q 819 9 494 109 
L 494 744 
Q 775 591 1075 516 
Q 1375 441 1709 441 
Q 2250 441 2565 725 
Q 2881 1009 2881 1497 
Q 2881 1984 2565 2268 
Q 2250 2553 1709 2553 
Q 1456 2553 1204 2497 
Q 953 2441 691 2322 
L 691 4666 
z
" transform="scale(0.015625)"/>
       </defs>
       <use xlink:href="#DejaVuSans-32"/>
       <use xlink:href="#DejaVuSans-30" transform="translate(63.623047 0)"/>
       <use xlink:href="#DejaVuSans-30" transform="translate(127.246094 0)"/>
       <use xlink:href="#DejaVuSans-30" transform="translate(190.869141 0)"/>
       <use xlink:href="#DejaVuSans-2d" transform="translate(254.492188 0)"/>
       <use xlink:href="#DejaVuSans-30" transform="translate(290.576172 0)"/>
       <use xlink:href="#DejaVuSans-35" transform="translate(354.199219 0)"/>
      </g>
     </g>
    </g>
    <g id="xtick_6">
     <g id="line2d_6">
      <g>
       <use xlink:href="#mf35a9ca6cf" x="296.679752" y="231.75437" style="stroke: #000000; stroke-width: 0.8"/>
      </g>
     </g>
     <g id="text_6">
      <!-- 2000-06 -->
      <g transform="translate(275.788345 246.352808) scale(0.1 -0.1)">
       <defs>
        <path id="DejaVuSans-36" d="M 2113 2584 
Q 1688 2584 1439 2293 
Q 1191 2003 1191 1497 
Q 1191 994 1439 701 
Q 1688 409 2113 409 
Q 2538 409 2786 701 
Q 3034 994 3034 1497 
Q 3034 2003 2786 2293 
Q 2538 2584 2113 2584 
z
M 3366 4563 
L 3366 3988 
Q 3128 4100 2886 4159 
Q 2644 4219 2406 4219 
Q 1781 4219 1451 3797 
Q 1122 3375 1075 2522 
Q 1259 2794 1537 2939 
Q 1816 3084 2150 3084 
Q 2853 3084 3261 2657 
Q 3669 2231 3669 1497 
Q 3669 778 3244 343 
Q 2819 -91 2113 -91 
Q 1303 -91 875 529 
Q 447 1150 447 2328 
Q 447 3434 972 4092 
Q 1497 4750 2381 4750 
Q 2619 4750 2861 4703 
Q 3103 4656 3366 4563 
z
" transform="scale(0.015625)"/>
       </defs>
       <use xlink:href="#DejaVuSans-32"/>
       <use xlink:href="#DejaVuSans-30" transform="translate(63.623047 0)"/>
       <use xlink:href="#DejaVuSans-30" transform="translate(127.246094 0)"/>
       <use xlink:href="#DejaVuSans-30" transform="translate(190.869141 0)"/>
       <use xlink:href="#DejaVuSans-2d" transform="translate(254.492188 0)"/>
       <use xlink:href="#DejaVuSans-30" transform="translate(290.576172 0)"/>
       <use xlink:href="#DejaVuSans-36" transform="translate(354.199219 0)"/>
      </g>
     </g>
    </g>
    <g id="xtick_7">
     <g id="line2d_7">
      <g>
       <use xlink:href="#mf35a9ca6cf" x="342.563717" y="231.75437" style="stroke: #000000; stroke-width: 0.8"/>
      </g>
     </g>
     <g id="text_7">
      <!-- 2000-07 -->
      <g transform="translate(321.672311 246.352808) scale(0.1 -0.1)">
       <defs>
        <path id="DejaVuSans-37" d="M 525 4666 
L 3525 4666 
L 3525 4397 
L 1831 0 
L 1172 0 
L 2766 4134 
L 525 4134 
L 525 4666 
z
" transform="scale(0.015625)"/>
       </defs>
       <use xlink:href="#DejaVuSans-32"/>
       <use xlink:href="#DejaVuSans-30" transform="translate(63.623047 0)"/>
       <use xlink:href="#DejaVuSans-30" transform="translate(127.246094 0)"/>
       <use xlink:href="#DejaVuSans-30" transform="translate(190.869141 0)"/>
       <use xlink:href="#DejaVuSans-2d" transform="translate(254.492188 0)"/>
       <use xlink:href="#DejaVuSans-30" transform="translate(290.576172 0)"/>
       <use xlink:href="#DejaVuSans-37" transform="translate(354.199219 0)"/>
      </g>
     </g>
    </g>
    <g id="text_8">
     <!-- row [datetime] -->
     <g transform="translate(179.229688 260.030933) scale(0.1 -0.1)">
      <defs>
       <path id="DejaVuSans-72" d="M 2631 2963 
Q 2534 3019 2420 3045 
Q 2306 3072 2169 3072 
Q 1681 3072 1420 2755 
Q 1159 2438 1159 1844 
L 1159 0 
L 581 0 
L 581 3500 
L 1159 3500 
L 1159 2956 
Q 1341 3275 1631 3429 
Q 1922 3584 2338 3584 
Q 2397 3584 2469 3576 
Q 2541 3569 2628 3553 
L 2631 2963 
z
" transform="scale(0.015625)"/>
       <path id="DejaVuSans-6f" d="M 1959 3097 
Q 1497 3097 1228 2736 
Q 959 2375 959 1747 
Q 959 1119 1226 758 
Q 1494 397 1959 397 
Q 2419 397 2687 759 
Q 2956 1122 2956 1747 
Q 2956 2369 2687 2733 
Q 2419 3097 1959 3097 
z
M 1959 3584 
Q 2709 3584 3137 3096 
Q 3566 2609 3566 1747 
Q 3566 888 3137 398 
Q 2709 -91 1959 -91 
Q 1206 -91 779 398 
Q 353 888 353 1747 
Q 353 2609 779 3096 
Q 1206 3584 1959 3584 
z
" transform="scale(0.015625)"/>
       <path id="DejaVuSans-77" d="M 269 3500 
L 844 3500 
L 1563 769 
L 2278 3500 
L 2956 3500 
L 3675 769 
L 4391 3500 
L 4966 3500 
L 4050 0 
L 3372 0 
L 2619 2869 
L 1863 0 
L 1184 0 
L 269 3500 
z
" transform="scale(0.015625)"/>
       <path id="DejaVuSans-20" transform="scale(0.015625)"/>
       <path id="DejaVuSans-5b" d="M 550 4863 
L 1875 4863 
L 1875 4416 
L 1125 4416 
L 1125 -397 
L 1875 -397 
L 1875 -844 
L 550 -844 
L 550 4863 
z
" transform="scale(0.015625)"/>
       <path id="DejaVuSans-64" d="M 2906 2969 
L 2906 4863 
L 3481 4863 
L 3481 0 
L 2906 0 
L 2906 525 
Q 2725 213 2448 61 
Q 2172 -91 1784 -91 
Q 1150 -91 751 415 
Q 353 922 353 1747 
Q 353 2572 751 3078 
Q 1150 3584 1784 3584 
Q 2172 3584 2448 3432 
Q 2725 3281 2906 2969 
z
M 947 1747 
Q 947 1113 1208 752 
Q 1469 391 1925 391 
Q 2381 391 2643 752 
Q 2906 1113 2906 1747 
Q 2906 2381 2643 2742 
Q 2381 3103 1925 3103 
Q 1469 3103 1208 2742 
Q 947 2381 947 1747 
z
" transform="scale(0.015625)"/>
       <path id="DejaVuSans-61" d="M 2194 1759 
Q 1497 1759 1228 1600 
Q 959 1441 959 1056 
Q 959 750 1161 570 
Q 1363 391 1709 391 
Q 2188 391 2477 730 
Q 2766 1069 2766 1631 
L 2766 1759 
L 2194 1759 
z
M 3341 1997 
L 3341 0 
L 2766 0 
L 2766 531 
Q 2569 213 2275 61 
Q 1981 -91 1556 -91 
Q 1019 -91 701 211 
Q 384 513 384 1019 
Q 384 1609 779 1909 
Q 1175 2209 1959 2209 
L 2766 2209 
L 2766 2266 
Q 2766 2663 2505 2880 
Q 2244 3097 1772 3097 
Q 1472 3097 1187 3025 
Q 903 2953 641 2809 
L 641 3341 
Q 956 3463 1253 3523 
Q 1550 3584 1831 3584 
Q 2591 3584 2966 3190 
Q 3341 2797 3341 1997 
z
" transform="scale(0.015625)"/>
       <path id="DejaVuSans-74" d="M 1172 4494 
L 1172 3500 
L 2356 3500 
L 2356 3053 
L 1172 3053 
L 1172 1153 
Q 1172 725 1289 603 
Q 1406 481 1766 481 
L 2356 481 
L 2356 0 
L 1766 0 
Q 1100 0 847 248 
Q 594 497 594 1153 
L 594 3053 
L 172 3053 
L 172 3500 
L 594 3500 
L 594 4494 
L 1172 4494 
z
" transform="scale(0.015625)"/>
       <path id="DejaVuSans-65" d="M 3597 1894 
L 3597 1613 
L 953 1613 
Q 991 1019 1311 708 
Q 1631 397 2203 397 
Q 2534 397 2845 478 
Q 3156 559 3463 722 
L 3463 178 
Q 3153 47 2828 -22 
Q 2503 -91 2169 -91 
Q 1331 -91 842 396 
Q 353 884 353 1716 
Q 353 2575 817 3079 
Q 1281 3584 2069 3584 
Q 2775 3584 3186 3129 
Q 3597 2675 3597 1894 
z
M 3022 2063 
Q 3016 2534 2758 2815 
Q 2500 3097 2075 3097 
Q 1594 3097 1305 2825 
Q 1016 2553 972 2059 
L 3022 2063 
z
" transform="scale(0.015625)"/>
       <path id="DejaVuSans-69" d="M 603 3500 
L 1178 3500 
L 1178 0 
L 603 0 
L 603 3500 
z
M 603 4863 
L 1178 4863 
L 1178 4134 
L 603 4134 
L 603 4863 
z
" transform="scale(0.015625)"/>
       <path id="DejaVuSans-6d" d="M 3328 2828 
Q 3544 3216 3844 3400 
Q 4144 3584 4550 3584 
Q 5097 3584 5394 3201 
Q 5691 2819 5691 2113 
L 5691 0 
L 5113 0 
L 5113 2094 
Q 5113 2597 4934 2840 
Q 4756 3084 4391 3084 
Q 3944 3084 3684 2787 
Q 3425 2491 3425 1978 
L 3425 0 
L 2847 0 
L 2847 2094 
Q 2847 2600 2669 2842 
Q 2491 3084 2119 3084 
Q 1678 3084 1418 2786 
Q 1159 2488 1159 1978 
L 1159 0 
L 581 0 
L 581 3500 
L 1159 3500 
L 1159 2956 
Q 1356 3278 1631 3431 
Q 1906 3584 2284 3584 
Q 2666 3584 2933 3390 
Q 3200 3197 3328 2828 
z
" transform="scale(0.015625)"/>
       <path id="DejaVuSans-5d" d="M 1947 4863 
L 1947 -844 
L 622 -844 
L 622 -397 
L 1369 -397 
L 1369 4416 
L 622 4416 
L 622 4863 
L 1947 4863 
z
" transform="scale(0.015625)"/>
      </defs>
      <use xlink:href="#DejaVuSans-72"/>
      <use xlink:href="#DejaVuSans-6f" transform="translate(38.863281 0)"/>
      <use xlink:href="#DejaVuSans-77" transform="translate(100.044922 0)"/>
      <use xlink:href="#DejaVuSans-20" transform="translate(181.832031 0)"/>
      <use xlink:href="#DejaVuSans-5b" transform="translate(213.619141 0)"/>
      <use xlink:href="#DejaVuSans-64" transform="translate(252.632812 0)"/>
      <use xlink:href="#DejaVuSans-61" transform="translate(316.109375 0)"/>
      <use xlink:href="#DejaVuSans-74" transform="translate(377.388672 0)"/>
      <use xlink:href="#DejaVuSans-65" transform="translate(416.597656 0)"/>
      <use xlink:href="#DejaVuSans-74" transform="translate(478.121094 0)"/>
      <use xlink:href="#DejaVuSans-69" transform="translate(517.330078 0)"/>
      <use xlink:href="#DejaVuSans-6d" transform="translate(545.113281 0)"/>
      <use xlink:href="#DejaVuSans-65" transform="translate(642.525391 0)"/>
      <use xlink:href="#DejaVuSans-5d" transform="translate(704.048828 0)"/>
     </g>
    </g>
   </g>
   <g id="matplotlib.axis_2">
    <g id="ytick_1">
     <g id="line2d_8">
      <defs>
       <path id="m379b63a779" d="M 0 0 
L -3.5 0 
" style="stroke: #000000; stroke-width: 0.8"/>
      </defs>
      <g>
       <use xlink:href="#m379b63a779" x="48.982813" y="225.611467" style="stroke: #000000; stroke-width: 0.8"/>
      </g>
     </g>
     <g id="text_9">
      <!-- −30 -->
      <g transform="translate(20.878125 229.410686) scale(0.1 -0.1)">
       <defs>
        <path id="DejaVuSans-2212" d="M 678 2272 
L 4684 2272 
L 4684 1741 
L 678 1741 
L 678 2272 
z
" transform="scale(0.015625)"/>
       </defs>
       <use xlink:href="#DejaVuSans-2212"/>
       <use xlink:href="#DejaVuSans-33" transform="translate(83.789062 0)"/>
       <use xlink:href="#DejaVuSans-30" transform="translate(147.412109 0)"/>
      </g>
     </g>
    </g>
    <g id="ytick_2">
     <g id="line2d_9">
      <g>
       <use xlink:href="#m379b63a779" x="48.982813" y="182.689017" style="stroke: #000000; stroke-width: 0.8"/>
      </g>
     </g>
     <g id="text_10">
      <!-- −20 -->
      <g transform="translate(20.878125 186.488236) scale(0.1 -0.1)">
       <use xlink:href="#DejaVuSans-2212"/>
       <use xlink:href="#DejaVuSans-32" transform="translate(83.789062 0)"/>
       <use xlink:href="#DejaVuSans-30" transform="translate(147.412109 0)"/>
      </g>
     </g>
    </g>
    <g id="ytick_3">
     <g id="line2d_10">
      <g>
       <use xlink:href="#m379b63a779" x="48.982813" y="139.766568" style="stroke: #000000; stroke-width: 0.8"/>
      </g>
     </g>
     <g id="text_11">
      <!-- −10 -->
      <g transform="translate(20.878125 143.565787) scale(0.1 -0.1)">
       <use xlink:href="#DejaVuSans-2212"/>
       <use xlink:href="#DejaVuSans-31" transform="translate(83.789062 0)"/>
       <use xlink:href="#DejaVuSans-30" transform="translate(147.412109 0)"/>
      </g>
     </g>
    </g>
    <g id="ytick_4">
     <g id="line2d_11">
      <g>
       <use xlink:href="#m379b63a779" x="48.982813" y="96.844118" style="stroke: #000000; stroke-width: 0.8"/>
      </g>
     </g>
     <g id="text_12">
      <!-- 0 -->
      <g transform="translate(35.620312 100.643337) scale(0.1 -0.1)">
       <use xlink:href="#DejaVuSans-30"/>
      </g>
     </g>
    </g>
    <g id="ytick_5">
     <g id="line2d_12">
      <g>
       <use xlink:href="#m379b63a779" x="48.982813" y="53.921668" style="stroke: #000000; stroke-width: 0.8"/>
      </g>
     </g>
     <g id="text_13">
      <!-- 10 -->
      <g transform="translate(29.257812 57.720887) scale(0.1 -0.1)">
       <use xlink:href="#DejaVuSans-31"/>
       <use xlink:href="#DejaVuSans-30" transform="translate(63.623047 0)"/>
      </g>
     </g>
    </g>
    <g id="ytick_6">
     <g id="line2d_13">
      <g>
       <use xlink:href="#m379b63a779" x="48.982813" y="10.999219" style="stroke: #000000; stroke-width: 0.8"/>
      </g>
     </g>
     <g id="text_14">
      <!-- 20 -->
      <g transform="translate(29.257812 14.798438) scale(0.1 -0.1)">
       <use xlink:href="#DejaVuSans-32"/>
       <use xlink:href="#DejaVuSans-30" transform="translate(63.623047 0)"/>
      </g>
     </g>
    </g>
    <g id="text_15">
     <!-- [dimensionless] -->
     <g transform="translate(14.798437 160.351714) rotate(-90) scale(0.1 -0.1)">
      <defs>
       <path id="DejaVuSans-6e" d="M 3513 2113 
L 3513 0 
L 2938 0 
L 2938 2094 
Q 2938 2591 2744 2837 
Q 2550 3084 2163 3084 
Q 1697 3084 1428 2787 
Q 1159 2491 1159 1978 
L 1159 0 
L 581 0 
L 581 3500 
L 1159 3500 
L 1159 2956 
Q 1366 3272 1645 3428 
Q 1925 3584 2291 3584 
Q 2894 3584 3203 3211 
Q 3513 2838 3513 2113 
z
" transform="scale(0.015625)"/>
       <path id="DejaVuSans-73" d="M 2834 3397 
L 2834 2853 
Q 2591 2978 2328 3040 
Q 2066 3103 1784 3103 
Q 1356 3103 1142 2972 
Q 928 2841 928 2578 
Q 928 2378 1081 2264 
Q 1234 2150 1697 2047 
L 1894 2003 
Q 2506 1872 2764 1633 
Q 3022 1394 3022 966 
Q 3022 478 2636 193 
Q 2250 -91 1575 -91 
Q 1294 -91 989 -36 
Q 684 19 347 128 
L 347 722 
Q 666 556 975 473 
Q 1284 391 1588 391 
Q 1994 391 2212 530 
Q 2431 669 2431 922 
Q 2431 1156 2273 1281 
Q 2116 1406 1581 1522 
L 1381 1569 
Q 847 1681 609 1914 
Q 372 2147 372 2553 
Q 372 3047 722 3315 
Q 1072 3584 1716 3584 
Q 2034 3584 2315 3537 
Q 2597 3491 2834 3397 
z
" transform="scale(0.015625)"/>
       <path id="DejaVuSans-6c" d="M 603 4863 
L 1178 4863 
L 1178 0 
L 603 0 
L 603 4863 
z
" transform="scale(0.015625)"/>
      </defs>
      <use xlink:href="#DejaVuSans-5b"/>
      <use xlink:href="#DejaVuSans-64" transform="translate(39.013672 0)"/>
      <use xlink:href="#DejaVuSans-69" transform="translate(102.490234 0)"/>
      <use xlink:href="#DejaVuSans-6d" transform="translate(130.273438 0)"/>
      <use xlink:href="#DejaVuSans-65" transform="translate(227.685547 0)"/>
      <use xlink:href="#DejaVuSans-6e" transform="translate(289.208984 0)"/>
      <use xlink:href="#DejaVuSans-73" transform="translate(352.587891 0)"/>
      <use xlink:href="#DejaVuSans-69" transform="translate(404.6875 0)"/>
      <use xlink:href="#DejaVuSans-6f" transform="translate(432.470703 0)"/>
      <use xlink:href="#DejaVuSans-6e" transform="translate(493.652344 0)"/>
      <use xlink:href="#DejaVuSans-6c" transform="translate(557.03125 0)"/>
      <use xlink:href="#DejaVuSans-65" transform="translate(584.814453 0)"/>
      <use xlink:href="#DejaVuSans-73" transform="translate(646.337891 0)"/>
      <use xlink:href="#DejaVuSans-73" transform="translate(698.4375 0)"/>
      <use xlink:href="#DejaVuSans-5d" transform="translate(750.537109 0)"/>
     </g>
    </g>
   </g>
   <g id="line2d_14">
    <path d="M 64.200994 102.244767 
L 65.73046 94.738002 
L 67.259925 96.289841 
L 68.789391 101.317079 
L 70.318856 108.14235 
L 71.848322 112.667184 
L 73.377787 114.984711 
L 74.907253 113.84902 
L 76.436718 114.482335 
L 77.966184 113.485646 
L 79.495649 115.191113 
L 81.025115 122.147396 
L 82.55458 117.988138 
L 84.084046 119.745276 
L 85.613511 127.592116 
L 87.142977 129.484869 
L 88.672442 134.727451 
L 90.201908 129.254519 
L 91.731373 134.784881 
L 93.260839 136.731125 
L 94.790305 129.202114 
L 96.31977 131.829342 
L 97.849236 129.831555 
L 99.378701 134.590096 
L 100.908167 138.048033 
L 102.437632 139.019983 
L 103.967098 138.4384 
L 105.496563 131.828464 
L 108.555494 141.388376 
L 110.08496 136.103306 
L 113.143891 127.289235 
L 114.673356 130.426585 
L 116.202822 129.550734 
L 117.732287 122.625853 
L 119.261753 124.318106 
L 120.791218 121.52441 
L 122.320684 119.431975 
L 123.850149 123.791294 
L 125.379615 131.78301 
L 126.90908 133.64504 
L 128.438546 127.770022 
L 129.968011 133.697749 
L 131.497477 129.108047 
L 133.026942 132.35343 
L 134.556408 136.434465 
L 136.085873 138.631369 
L 137.615339 138.291586 
L 139.144804 146.375204 
L 140.67427 148.421108 
L 142.203735 151.571943 
L 145.262666 145.443889 
L 146.792132 149.8585 
L 148.321597 157.019861 
L 149.851063 154.870233 
L 151.380528 154.463424 
L 152.909994 157.498325 
L 154.439459 150.646549 
L 155.968925 152.395217 
L 157.49839 151.878796 
L 159.027856 146.886389 
L 160.557321 144.131186 
L 162.086787 146.218378 
L 163.616252 146.870174 
L 165.145718 149.385176 
L 169.734114 160.181783 
L 171.26358 156.483214 
L 172.793045 155.56514 
L 174.322511 154.034249 
L 175.851977 150.313282 
L 177.381442 152.150556 
L 178.910908 151.649414 
L 180.440373 149.035611 
L 181.969839 146.172081 
L 183.499304 145.639388 
L 185.02877 142.257925 
L 186.558235 148.18601 
L 188.087701 151.030365 
L 189.617166 154.286288 
L 191.146632 160.727988 
L 192.676097 164.516929 
L 194.205563 166.543023 
L 195.735028 166.021032 
L 197.264494 162.506929 
L 198.793959 161.673174 
L 200.323425 166.574404 
L 201.85289 163.055011 
L 203.382356 162.677913 
L 204.911821 165.294958 
L 206.441287 170.268258 
L 207.970752 168.409737 
L 209.500218 169.904059 
L 211.029683 171.201836 
L 212.559149 177.013276 
L 214.088614 177.688367 
L 215.61808 176.534355 
L 217.147545 177.54061 
L 218.677011 178.209263 
L 220.206476 184.880885 
L 221.735942 185.06026 
L 223.265407 181.891228 
L 224.794873 178.130432 
L 226.324338 183.745625 
L 227.853804 182.225876 
L 229.383269 182.38892 
L 230.912735 181.002062 
L 233.971666 191.02973 
L 235.501131 197.165641 
L 237.030597 200.814775 
L 238.560062 207.343246 
L 240.089528 204.88353 
L 241.618993 209.652461 
L 243.148459 216.181825 
L 244.677924 216.627438 
L 246.20739 214.74281 
L 247.736855 219.282503 
L 250.795786 224.911889 
L 252.325252 224.157345 
L 253.854717 219.764315 
L 255.384183 211.756818 
L 256.913648 215.06204 
L 258.443114 216.015389 
L 259.97258 208.860264 
L 261.502045 207.863259 
L 263.031511 202.019235 
L 264.560976 194.814784 
L 266.090442 197.990823 
L 269.149373 206.146002 
L 270.678838 206.491912 
L 272.208304 218.271464 
L 273.737769 217.112943 
L 275.267235 213.013165 
L 276.7967 206.330068 
L 278.326166 209.840386 
L 279.855631 205.626003 
L 281.385097 207.953184 
L 282.914562 209.400006 
L 284.444028 209.051256 
L 285.973493 214.714837 
L 287.502959 213.831236 
L 290.56189 218.175338 
L 292.091355 212.460813 
L 293.620821 217.647 
L 295.150286 223.416022 
L 296.679752 222.698184 
L 298.209217 225.057519 
L 299.738683 222.598866 
L 301.268148 223.527603 
L 302.797614 225.229781 
L 304.327079 224.303985 
L 305.856545 222.029869 
L 307.38601 220.655569 
L 308.915476 217.813364 
L 310.444941 217.972353 
L 311.974407 215.284704 
L 313.503872 213.74351 
L 315.033338 214.210632 
L 316.562803 211.369015 
L 318.092269 211.550912 
L 319.621734 206.354119 
L 321.1512 209.486857 
L 322.680665 204.165261 
L 324.210131 202.439278 
L 325.739596 202.059811 
L 328.798527 195.583907 
L 330.327993 195.215843 
L 331.857458 194.258827 
L 333.386924 195.437955 
L 334.916389 194.407008 
L 336.445855 195.51995 
L 337.97532 198.191979 
L 339.504786 191.023881 
L 341.034252 191.200679 
L 342.563717 190.903542 
L 344.093183 192.884258 
L 345.622648 198.009372 
L 347.152114 197.521766 
L 348.681579 191.558843 
L 350.211045 194.048161 
L 351.74051 197.192641 
L 353.269976 201.168776 
L 354.799441 199.246585 
L 356.328907 199.952825 
L 357.858372 201.477829 
L 359.387838 201.594915 
L 360.917303 198.228246 
L 362.446769 195.331984 
L 363.976234 196.261603 
L 365.5057 192.623165 
L 367.035165 186.973704 
L 368.564631 182.683546 
L 368.564631 182.683546 
" clip-path="url(#p2fc9c1ee02)" style="fill: none; stroke: #1f77b4; stroke-width: 1.5; stroke-linecap: square"/>
   </g>
   <g id="line2d_15">
    <path d="M 64.200994 94.065418 
L 65.73046 86.893844 
L 67.259925 83.638763 
L 68.789391 79.843981 
L 70.318856 77.602242 
L 71.848322 77.60983 
L 73.377787 76.390492 
L 74.907253 73.812708 
L 76.436718 82.997187 
L 77.966184 83.205674 
L 79.495649 67.209065 
L 81.025115 67.392353 
L 82.55458 62.955222 
L 84.084046 67.143247 
L 85.613511 72.836694 
L 87.142977 77.643937 
L 88.672442 75.860862 
L 90.201908 78.637076 
L 91.731373 84.971469 
L 93.260839 83.454693 
L 94.790305 84.522287 
L 96.31977 83.237419 
L 97.849236 80.864993 
L 99.378701 82.165487 
L 100.908167 91.466416 
L 102.437632 96.18888 
L 103.967098 93.547217 
L 105.496563 95.708974 
L 107.026029 94.007542 
L 108.555494 98.368958 
L 110.08496 98.289635 
L 111.614425 97.930978 
L 113.143891 100.642176 
L 114.673356 103.89951 
L 116.202822 103.975401 
L 117.732287 98.234639 
L 119.261753 102.867341 
L 120.791218 102.540019 
L 122.320684 93.794968 
L 123.850149 89.224582 
L 125.379615 82.725484 
L 126.90908 79.474935 
L 128.438546 80.556536 
L 129.968011 76.383655 
L 131.497477 82.322422 
L 133.026942 75.440253 
L 134.556408 83.724963 
L 136.085873 78.855804 
L 137.615339 80.265396 
L 139.144804 79.597283 
L 140.67427 80.86456 
L 142.203735 83.088482 
L 143.733201 87.985263 
L 145.262666 83.324412 
L 146.792132 83.7722 
L 148.321597 80.473556 
L 149.851063 80.460343 
L 151.380528 75.878094 
L 152.909994 77.217111 
L 154.439459 73.067619 
L 155.968925 75.522054 
L 157.49839 80.160212 
L 159.027856 83.948263 
L 160.557321 85.816094 
L 162.086787 91.79016 
L 163.616252 92.57289 
L 166.675183 95.548176 
L 168.204649 95.928071 
L 169.734114 99.321099 
L 171.26358 100.12782 
L 172.793045 106.68118 
L 174.322511 100.061486 
L 175.851977 96.541452 
L 177.381442 96.572814 
L 178.910908 95.475094 
L 180.440373 98.194236 
L 181.969839 93.581751 
L 183.499304 86.283928 
L 185.02877 86.894071 
L 186.558235 89.211582 
L 188.087701 87.782947 
L 189.617166 97.153356 
L 191.146632 94.546434 
L 192.676097 98.676911 
L 194.205563 101.938249 
L 195.735028 105.924973 
L 197.264494 113.079825 
L 198.793959 111.88102 
L 200.323425 113.267671 
L 201.85289 105.52175 
L 203.382356 100.721061 
L 204.911821 102.841367 
L 206.441287 103.239425 
L 207.970752 102.13787 
L 209.500218 105.225961 
L 211.029683 103.630083 
L 214.088614 97.099821 
L 215.61808 95.509728 
L 217.147545 90.831407 
L 218.677011 90.397086 
L 220.206476 87.593647 
L 221.735942 83.500873 
L 223.265407 78.007173 
L 224.794873 81.11174 
L 226.324338 82.194304 
L 227.853804 80.621758 
L 229.383269 77.848943 
L 230.912735 82.012749 
L 232.4422 83.084491 
L 233.971666 81.328764 
L 235.501131 83.28846 
L 237.030597 77.766123 
L 238.560062 75.134485 
L 240.089528 77.131644 
L 241.618993 82.114669 
L 243.148459 71.176557 
L 244.677924 61.122985 
L 246.20739 61.721211 
L 247.736855 66.893676 
L 249.266321 65.558463 
L 250.795786 58.376924 
L 252.325252 65.364955 
L 253.854717 66.497006 
L 255.384183 74.545154 
L 256.913648 72.524938 
L 258.443114 68.84131 
L 259.97258 64.556816 
L 261.502045 68.464661 
L 263.031511 66.781375 
L 264.560976 64.697303 
L 266.090442 62.127598 
L 267.619907 62.630233 
L 269.149373 64.790233 
L 270.678838 59.515909 
L 272.208304 61.524304 
L 273.737769 59.752165 
L 275.267235 63.738413 
L 276.7967 58.574535 
L 279.855631 56.241907 
L 281.385097 56.918426 
L 282.914562 54.583874 
L 284.444028 54.047252 
L 285.973493 55.62476 
L 287.502959 62.26309 
L 289.032424 59.751398 
L 290.56189 61.043812 
L 292.091355 71.702762 
L 293.620821 71.270021 
L 295.150286 69.359457 
L 296.679752 69.637649 
L 298.209217 73.038283 
L 299.738683 67.873742 
L 301.268148 65.165185 
L 302.797614 60.268608 
L 304.327079 54.570143 
L 305.856545 64.442023 
L 307.38601 65.633643 
L 308.915476 62.330059 
L 310.444941 70.679693 
L 311.974407 71.90679 
L 313.503872 68.663251 
L 315.033338 69.449134 
L 316.562803 59.850316 
L 318.092269 61.789827 
L 321.1512 59.401208 
L 322.680665 58.664063 
L 324.210131 62.601757 
L 325.739596 58.50277 
L 327.269062 55.54752 
L 330.327993 60.74855 
L 331.857458 57.679721 
L 333.386924 50.886984 
L 334.916389 56.062119 
L 336.445855 53.511396 
L 337.97532 60.557248 
L 339.504786 63.537394 
L 341.034252 57.692465 
L 342.563717 53.78012 
L 344.093183 53.653318 
L 347.152114 50.910361 
L 348.681579 42.903731 
L 350.211045 50.144748 
L 351.74051 49.146891 
L 353.269976 55.235895 
L 354.799441 66.038488 
L 356.328907 74.780763 
L 357.858372 78.619289 
L 359.387838 73.726575 
L 360.917303 80.477517 
L 362.446769 80.734179 
L 363.976234 79.381534 
L 365.5057 81.673852 
L 367.035165 79.92161 
L 368.564631 81.695582 
L 368.564631 81.695582 
" clip-path="url(#p2fc9c1ee02)" style="fill: none; stroke: #ff7f0e; stroke-width: 1.5; stroke-linecap: square"/>
   </g>
   <g id="line2d_16">
    <path d="M 64.200994 104.186294 
L 65.73046 110.606411 
L 67.259925 112.617468 
L 68.789391 108.93828 
L 70.318856 106.173222 
L 71.848322 108.539627 
L 73.377787 100.853745 
L 74.907253 96.899515 
L 76.436718 97.973888 
L 77.966184 96.422089 
L 79.495649 105.641506 
L 81.025115 111.609953 
L 82.55458 104.223455 
L 84.084046 102.12132 
L 85.613511 102.940549 
L 87.142977 100.434892 
L 88.672442 98.286037 
L 90.201908 93.18979 
L 91.731373 94.174107 
L 93.260839 104.395401 
L 94.790305 102.220147 
L 96.31977 102.464925 
L 97.849236 103.701157 
L 99.378701 102.567345 
L 100.908167 97.74236 
L 102.437632 100.279432 
L 103.967098 97.564534 
L 105.496563 102.948189 
L 107.026029 99.299429 
L 108.555494 100.053833 
L 110.08496 102.447787 
L 111.614425 94.82303 
L 113.143891 90.468117 
L 116.202822 75.301868 
L 117.732287 69.83102 
L 119.261753 67.310004 
L 120.791218 68.139111 
L 122.320684 66.357685 
L 123.850149 73.714924 
L 125.379615 70.453586 
L 126.90908 61.383709 
L 128.438546 55.958472 
L 129.968011 60.344501 
L 131.497477 60.873296 
L 133.026942 57.804482 
L 134.556408 62.001005 
L 136.085873 65.458773 
L 137.615339 67.16814 
L 139.144804 66.916867 
L 140.67427 70.050369 
L 142.203735 62.497797 
L 143.733201 58.38303 
L 145.262666 62.685873 
L 146.792132 67.636567 
L 148.321597 67.053813 
L 149.851063 67.847347 
L 151.380528 73.417001 
L 152.909994 80.724389 
L 154.439459 81.840747 
L 155.968925 80.230588 
L 157.49839 83.471745 
L 159.027856 76.819077 
L 160.557321 80.863103 
L 162.086787 82.619095 
L 163.616252 80.418359 
L 165.145718 77.125666 
L 166.675183 79.72338 
L 168.204649 80.182048 
L 169.734114 84.493745 
L 171.26358 82.701166 
L 172.793045 81.753849 
L 174.322511 79.258986 
L 175.851977 83.262034 
L 177.381442 80.220668 
L 178.910908 80.570562 
L 180.440373 81.546206 
L 181.969839 74.489132 
L 183.499304 71.39879 
L 185.02877 72.854976 
L 186.558235 70.746535 
L 188.087701 71.473362 
L 189.617166 69.276753 
L 191.146632 65.236803 
L 192.676097 54.066745 
L 194.205563 52.510569 
L 195.735028 54.054702 
L 197.264494 59.575653 
L 198.793959 58.504158 
L 200.323425 58.905372 
L 201.85289 57.634171 
L 203.382356 57.688253 
L 204.911821 51.928843 
L 206.441287 50.625418 
L 207.970752 48.883097 
L 209.500218 53.743037 
L 211.029683 55.157547 
L 212.559149 53.74377 
L 214.088614 50.967487 
L 215.61808 52.968569 
L 217.147545 51.25226 
L 218.677011 52.848126 
L 220.206476 47.964561 
L 221.735942 40.532489 
L 223.265407 46.30162 
L 224.794873 44.003313 
L 226.324338 46.209426 
L 227.853804 47.536299 
L 229.383269 44.873552 
L 230.912735 45.411559 
L 232.4422 44.258759 
L 233.971666 39.07265 
L 235.501131 40.580643 
L 237.030597 39.924531 
L 238.560062 43.586882 
L 240.089528 40.819555 
L 241.618993 51.421375 
L 243.148459 47.336689 
L 244.677924 47.371308 
L 246.20739 52.938878 
L 247.736855 52.694774 
L 249.266321 57.758306 
L 250.795786 57.575514 
L 252.325252 61.628345 
L 253.854717 63.437155 
L 255.384183 68.514511 
L 256.913648 74.424291 
L 259.97258 78.051896 
L 261.502045 81.702105 
L 263.031511 82.863785 
L 264.560976 80.407488 
L 266.090442 75.932762 
L 267.619907 72.985587 
L 269.149373 71.775304 
L 270.678838 71.962673 
L 272.208304 73.732537 
L 273.737769 59.286197 
L 275.267235 56.150681 
L 276.7967 55.026283 
L 278.326166 53.750934 
L 279.855631 55.717032 
L 281.385097 59.382913 
L 282.914562 55.048798 
L 284.444028 48.382378 
L 285.973493 45.480459 
L 287.502959 46.165918 
L 289.032424 47.119698 
L 293.620821 27.084583 
L 295.150286 30.623137 
L 296.679752 36.533307 
L 298.209217 40.167375 
L 299.738683 43.028864 
L 301.268148 36.927757 
L 302.797614 31.762259 
L 304.327079 34.616618 
L 305.856545 33.235548 
L 307.38601 30.41482 
L 308.915476 28.737322 
L 310.444941 27.916304 
L 311.974407 28.189359 
L 313.503872 26.990075 
L 315.033338 28.876181 
L 318.092269 31.172408 
L 319.621734 32.176103 
L 321.1512 31.01202 
L 322.680665 32.258419 
L 324.210131 30.935241 
L 325.739596 32.227958 
L 327.269062 28.149233 
L 328.798527 31.27816 
L 330.327993 31.366743 
L 331.857458 29.275719 
L 333.386924 31.782282 
L 334.916389 27.993048 
L 336.445855 26.299394 
L 337.97532 29.650494 
L 339.504786 30.772398 
L 341.034252 35.289445 
L 342.563717 33.654842 
L 344.093183 35.080408 
L 345.622648 33.467607 
L 347.152114 34.234082 
L 348.681579 36.767912 
L 350.211045 36.977012 
L 351.74051 32.455707 
L 353.269976 33.728661 
L 354.799441 36.96631 
L 356.328907 31.950104 
L 357.858372 20.600825 
L 359.387838 14.881185 
L 360.917303 20.450762 
L 363.976234 23.786389 
L 365.5057 31.931338 
L 367.035165 33.693462 
L 368.564631 37.606421 
L 368.564631 37.606421 
" clip-path="url(#p2fc9c1ee02)" style="fill: none; stroke: #2ca02c; stroke-width: 1.5; stroke-linecap: square"/>
   </g>
   <g id="line2d_17">
    <path d="M 64.200994 96.942099 
L 65.73046 99.599658 
L 68.789391 116.36603 
L 70.318856 112.691202 
L 71.848322 105.371471 
L 73.377787 107.416326 
L 74.907253 104.542765 
L 76.436718 101.431076 
L 77.966184 100.907821 
L 79.495649 99.123562 
L 81.025115 97.030431 
L 82.55458 93.746935 
L 84.084046 93.893744 
L 85.613511 94.203656 
L 87.142977 93.696551 
L 88.672442 94.1813 
L 90.201908 89.227943 
L 91.731373 90.557618 
L 93.260839 87.774217 
L 94.790305 91.631432 
L 96.31977 89.102941 
L 97.849236 95.631998 
L 99.378701 98.693189 
L 100.908167 90.889861 
L 102.437632 85.241973 
L 103.967098 95.242237 
L 105.496563 97.580606 
L 107.026029 94.428346 
L 108.555494 92.178915 
L 110.08496 91.115011 
L 111.614425 88.954021 
L 113.143891 90.663577 
L 114.673356 87.719191 
L 116.202822 93.479125 
L 117.732287 93.991793 
L 119.261753 93.532617 
L 120.791218 90.348188 
L 122.320684 97.697219 
L 123.850149 90.30397 
L 125.379615 91.19483 
L 126.90908 99.322433 
L 128.438546 99.743184 
L 129.968011 101.079564 
L 131.497477 101.544476 
L 133.026942 98.026567 
L 134.556408 91.291509 
L 136.085873 92.31391 
L 137.615339 87.366421 
L 139.144804 93.138581 
L 140.67427 97.893094 
L 142.203735 95.208581 
L 143.733201 97.949517 
L 145.262666 98.109395 
L 146.792132 103.502653 
L 148.321597 111.336268 
L 149.851063 111.464053 
L 151.380528 112.779964 
L 152.909994 114.326292 
L 154.439459 113.794493 
L 155.968925 107.405971 
L 157.49839 108.408399 
L 159.027856 106.477867 
L 160.557321 102.430554 
L 162.086787 102.16744 
L 163.616252 108.628612 
L 165.145718 100.113129 
L 166.675183 108.676953 
L 168.204649 113.960008 
L 169.734114 111.392513 
L 171.26358 110.191282 
L 172.793045 106.580494 
L 174.322511 105.675019 
L 175.851977 98.486678 
L 177.381442 103.781479 
L 178.910908 107.999581 
L 180.440373 109.954173 
L 181.969839 104.867433 
L 183.499304 97.706874 
L 185.02877 102.974375 
L 186.558235 104.16921 
L 188.087701 97.03719 
L 189.617166 95.11699 
L 191.146632 95.11788 
L 192.676097 99.188629 
L 195.735028 106.56334 
L 197.264494 103.284922 
L 198.793959 109.980372 
L 200.323425 110.871419 
L 201.85289 105.999275 
L 203.382356 99.45858 
L 204.911821 99.343781 
L 206.441287 97.915578 
L 207.970752 104.948896 
L 209.500218 103.480234 
L 211.029683 105.056925 
L 212.559149 110.213438 
L 214.088614 111.370743 
L 215.61808 109.18717 
L 217.147545 117.719054 
L 218.677011 120.325676 
L 220.206476 116.326379 
L 223.265407 111.845964 
L 224.794873 112.507019 
L 226.324338 111.159578 
L 227.853804 110.311109 
L 229.383269 107.518698 
L 230.912735 110.82661 
L 232.4422 108.790649 
L 233.971666 114.912738 
L 235.501131 117.408286 
L 237.030597 118.190184 
L 238.560062 120.171176 
L 240.089528 124.012027 
L 241.618993 121.221252 
L 243.148459 127.240706 
L 244.677924 134.272538 
L 246.20739 132.848765 
L 249.266321 128.486401 
L 250.795786 135.858553 
L 252.325252 134.935584 
L 255.384183 139.703132 
L 256.913648 140.857839 
L 258.443114 137.780914 
L 259.97258 126.902492 
L 261.502045 129.9858 
L 263.031511 136.047213 
L 264.560976 131.125208 
L 266.090442 129.284925 
L 267.619907 126.477874 
L 269.149373 124.162504 
L 270.678838 121.246876 
L 272.208304 118.892215 
L 273.737769 117.393327 
L 275.267235 112.766792 
L 276.7967 109.412781 
L 278.326166 107.06 
L 279.855631 107.182158 
L 281.385097 112.625329 
L 282.914562 108.109345 
L 284.444028 109.090768 
L 285.973493 98.884582 
L 287.502959 91.554227 
L 289.032424 96.509551 
L 290.56189 100.799742 
L 292.091355 106.105025 
L 293.620821 102.503675 
L 295.150286 101.550807 
L 296.679752 97.090327 
L 298.209217 101.773827 
L 299.738683 99.286957 
L 301.268148 102.263201 
L 302.797614 103.754685 
L 304.327079 99.445798 
L 305.856545 103.045983 
L 307.38601 101.806275 
L 308.915476 110.03931 
L 310.444941 110.537646 
L 311.974407 112.160547 
L 313.503872 116.337722 
L 315.033338 114.332318 
L 316.562803 108.351339 
L 318.092269 106.613536 
L 319.621734 112.520438 
L 321.1512 105.05019 
L 324.210131 111.212268 
L 325.739596 120.082937 
L 327.269062 119.500624 
L 328.798527 123.119224 
L 330.327993 120.424988 
L 331.857458 119.79711 
L 333.386924 115.168216 
L 334.916389 117.430927 
L 336.445855 112.42261 
L 337.97532 117.87042 
L 339.504786 116.771479 
L 341.034252 115.423868 
L 342.563717 115.945064 
L 344.093183 118.291654 
L 345.622648 122.384583 
L 347.152114 119.840554 
L 348.681579 114.676587 
L 350.211045 114.03619 
L 351.74051 118.517652 
L 353.269976 124.6707 
L 354.799441 124.694108 
L 356.328907 124.832249 
L 357.858372 120.604939 
L 359.387838 121.986378 
L 360.917303 124.666431 
L 362.446769 124.043753 
L 363.976234 120.976146 
L 365.5057 124.518605 
L 367.035165 129.275847 
L 368.564631 134.768296 
L 368.564631 134.768296 
" clip-path="url(#p2fc9c1ee02)" style="fill: none; stroke: #d62728; stroke-width: 1.5; stroke-linecap: square"/>
   </g>
   <g id="patch_3">
    <path d="M 48.982813 231.75437 
L 48.982813 9.99437 
" style="fill: none; stroke: #000000; stroke-width: 0.8; stroke-linejoin: miter; stroke-linecap: square"/>
   </g>
   <g id="patch_4">
    <path d="M 383.782813 231.75437 
L 383.782813 9.99437 
" style="fill: none; stroke: #000000; stroke-width: 0.8; stroke-linejoin: miter; stroke-linecap: square"/>
   </g>
   <g id="patch_5">
    <path d="M 48.982812 231.75437 
L 383.782812 231.75437 
" style="fill: none; stroke: #000000; stroke-width: 0.8; stroke-linejoin: miter; stroke-linecap: square"/>
   </g>
   <g id="patch_6">
    <path d="M 48.982812 9.99437 
L 383.782812 9.99437 
" style="fill: none; stroke: #000000; stroke-width: 0.8; stroke-linejoin: miter; stroke-linecap: square"/>
   </g>
   <g id="legend_1">
    <g id="patch_7">
     <path d="M 55.982813 226.75437 
L 95.682813 226.75437 
Q 97.682813 226.75437 97.682813 224.75437 
L 97.682813 167.04187 
Q 97.682813 165.04187 95.682813 165.04187 
L 55.982813 165.04187 
Q 53.982813 165.04187 53.982813 167.04187 
L 53.982813 224.75437 
Q 53.982813 226.75437 55.982813 226.75437 
z
" style="fill: #ffffff; opacity: 0.8; stroke: #cccccc; stroke-linejoin: miter"/>
    </g>
    <g id="line2d_18">
     <path d="M 57.982813 173.140308 
L 67.982812 173.140308 
L 77.982812 173.140308 
" style="fill: none; stroke: #1f77b4; stroke-width: 1.5; stroke-linecap: square"/>
    </g>
    <g id="text_16">
     <!-- A -->
     <g transform="translate(85.982812 176.640308) scale(0.1 -0.1)">
      <defs>
       <path id="DejaVuSans-41" d="M 2188 4044 
L 1331 1722 
L 3047 1722 
L 2188 4044 
z
M 1831 4666 
L 2547 4666 
L 4325 0 
L 3669 0 
L 3244 1197 
L 1141 1197 
L 716 0 
L 50 0 
L 1831 4666 
z
" transform="scale(0.015625)"/>
      </defs>
      <use xlink:href="#DejaVuSans-41"/>
     </g>
    </g>
    <g id="line2d_19">
     <path d="M 57.982813 187.818433 
L 67.982812 187.818433 
L 77.982812 187.818433 
" style="fill: none; stroke: #ff7f0e; stroke-width: 1.5; stroke-linecap: square"/>
    </g>
    <g id="text_17">
     <!-- B -->
     <g transform="translate(85.982812 191.318433) scale(0.1 -0.1)">
      <defs>
       <path id="DejaVuSans-42" d="M 1259 2228 
L 1259 519 
L 2272 519 
Q 2781 519 3026 730 
Q 3272 941 3272 1375 
Q 3272 1813 3026 2020 
Q 2781 2228 2272 2228 
L 1259 2228 
z
M 1259 4147 
L 1259 2741 
L 2194 2741 
Q 2656 2741 2882 2914 
Q 3109 3088 3109 3444 
Q 3109 3797 2882 3972 
Q 2656 4147 2194 4147 
L 1259 4147 
z
M 628 4666 
L 2241 4666 
Q 2963 4666 3353 4366 
Q 3744 4066 3744 3513 
Q 3744 3084 3544 2831 
Q 3344 2578 2956 2516 
Q 3422 2416 3680 2098 
Q 3938 1781 3938 1306 
Q 3938 681 3513 340 
Q 3088 0 2303 0 
L 628 0 
L 628 4666 
z
" transform="scale(0.015625)"/>
      </defs>
      <use xlink:href="#DejaVuSans-42"/>
     </g>
    </g>
    <g id="line2d_20">
     <path d="M 57.982813 202.496558 
L 67.982812 202.496558 
L 77.982812 202.496558 
" style="fill: none; stroke: #2ca02c; stroke-width: 1.5; stroke-linecap: square"/>
    </g>
    <g id="text_18">
     <!-- C -->
     <g transform="translate(85.982812 205.996558) scale(0.1 -0.1)">
      <defs>
       <path id="DejaVuSans-43" d="M 4122 4306 
L 4122 3641 
Q 3803 3938 3442 4084 
Q 3081 4231 2675 4231 
Q 1875 4231 1450 3742 
Q 1025 3253 1025 2328 
Q 1025 1406 1450 917 
Q 1875 428 2675 428 
Q 3081 428 3442 575 
Q 3803 722 4122 1019 
L 4122 359 
Q 3791 134 3420 21 
Q 3050 -91 2638 -91 
Q 1578 -91 968 557 
Q 359 1206 359 2328 
Q 359 3453 968 4101 
Q 1578 4750 2638 4750 
Q 3056 4750 3426 4639 
Q 3797 4528 4122 4306 
z
" transform="scale(0.015625)"/>
      </defs>
      <use xlink:href="#DejaVuSans-43"/>
     </g>
    </g>
    <g id="line2d_21">
     <path d="M 57.982813 217.174683 
L 67.982812 217.174683 
L 77.982812 217.174683 
" style="fill: none; stroke: #d62728; stroke-width: 1.5; stroke-linecap: square"/>
    </g>
    <g id="text_19">
     <!-- D -->
     <g transform="translate(85.982812 220.674683) scale(0.1 -0.1)">
      <defs>
       <path id="DejaVuSans-44" d="M 1259 4147 
L 1259 519 
L 2022 519 
Q 2988 519 3436 956 
Q 3884 1394 3884 2338 
Q 3884 3275 3436 3711 
Q 2988 4147 2022 4147 
L 1259 4147 
z
M 628 4666 
L 1925 4666 
Q 3281 4666 3915 4102 
Q 4550 3538 4550 2338 
Q 4550 1131 3912 565 
Q 3275 0 1925 0 
L 628 0 
L 628 4666 
z
" transform="scale(0.015625)"/>
      </defs>
      <use xlink:href="#DejaVuSans-44"/>
     </g>
    </g>
   </g>
  </g>
 </g>
 <defs>
  <clipPath id="p2fc9c1ee02">
   <rect x="48.982813" y="9.99437" width="334.8" height="221.76"/>
  </clipPath>
 </defs>
</svg>
