<?xml version="1.0" encoding="utf-8" standalone="no"?>
<!DOCTYPE svg PUBLIC "-//W3C//DTD SVG 1.1//EN"
  "http://www.w3.org/Graphics/SVG/1.1/DTD/svg11.dtd">
<svg xmlns:xlink="http://www.w3.org/1999/xlink" width="390.982812pt" height="266.51625pt" viewBox="0 0 390.982812 266.51625" xmlns="http://www.w3.org/2000/svg" version="1.1">
 <metadata>
  <rdf:RDF xmlns:dc="http://purl.org/dc/elements/1.1/" xmlns:cc="http://creativecommons.org/ns#" xmlns:rdf="http://www.w3.org/1999/02/22-rdf-syntax-ns#">
   <cc:Work>
    <dc:type rdf:resource="http://purl.org/dc/dcmitype/StillImage"/>
    <dc:date>2026-06-24T12:41:13.436741</dc:date>
    <dc:format>image/svg+xml</dc:format>
    <dc:creator>
     <cc:Agent>
      <dc:title>Matplotlib v3.10.9, https://matplotlib.org/</dc:title>
     </cc:Agent>
    </dc:creator>
   </cc:Work>
  </rdf:RDF>
 </metadata>
 <defs>
  <style type="text/css">*{stroke-linejoin: round; stroke-linecap: butt}</style>
 </defs>
 <g id="figure_1">
  <g id="patch_1">
   <path d="M 0 266.51625 
L 390.982812 266.51625 
L 390.982812 0 
L 0 0 
z
" style="fill: #ffffff"/>
  </g>
  <g id="axes_1">
   <g id="patch_2">
    <path d="M 48.982813 228.96 
L 383.782813 228.96 
L 383.782813 7.2 
L 48.982813 7.2 
z
" style="fill: #ffffff"/>
   </g>
   <g id="matplotlib.axis_1">
    <g id="xtick_1">
     <g id="line2d_1">
      <defs>
       <path id="m6c783ce16b" d="M 0 0 
L 0 3.5 
" style="stroke: #000000; stroke-width: 0.8"/>
      </defs>
      <g>
       <use xlink:href="#m6c783ce16b" x="64.200994" y="228.96" style="stroke: #000000; stroke-width: 0.8"/>
      </g>
     </g>
     <g id="text_1">
      <!-- 2000-01 -->
      <g transform="translate(43.309588 243.558437) scale(0.1 -0.1)">
       <defs>
        <path id="DejaVuSans-32" d="M 1228 531 
L 3431 531 
L 3431 0 
L 469 0 
L 469 531 
Q 828 903 1448 1529 
Q 2069 2156 2228 2338 
Q 2531 2678 2651 2914 
Q 2772 3150 2772 3378 
Q 2772 3750 2511 3984 
Q 2250 4219 1831 4219 
Q 1534 4219 1204 4116 
Q 875 4013 500 3803 
L 500 4441 
Q 881 4594 1212 4672 
Q 1544 4750 1819 4750 
Q 2544 4750 2975 4387 
Q 3406 4025 3406 3419 
Q 3406 3131 3298 2873 
Q 3191 2616 2906 2266 
Q 2828 2175 2409 1742 
Q 1991 1309 1228 531 
z
" transform="scale(0.015625)"/>
        <path id="DejaVuSans-30" d="M 2034 4250 
Q 1547 4250 1301 3770 
Q 1056 3291 1056 2328 
Q 1056 1369 1301 889 
Q 1547 409 2034 409 
Q 2525 409 2770 889 
Q 3016 1369 3016 2328 
Q 3016 3291 2770 3770 
Q 2525 4250 2034 4250 
z
M 2034 4750 
Q 2819 4750 3233 4129 
Q 3647 3509 3647 2328 
Q 3647 1150 3233 529 
Q 2819 -91 2034 -91 
Q 1250 -91 836 529 
Q 422 1150 422 2328 
Q 422 3509 836 4129 
Q 1250 4750 2034 4750 
z
" transform="scale(0.015625)"/>
        <path id="DejaVuSans-2d" d="M 313 2009 
L 1997 2009 
L 1997 1497 
L 313 1497 
L 313 2009 
z
" transform="scale(0.015625)"/>
        <path id="DejaVuSans-31" d="M 794 531 
L 1825 531 
L 1825 4091 
L 703 3866 
L 703 4441 
L 1819 4666 
L 2450 4666 
L 2450 531 
L 3481 531 
L 3481 0 
L 794 0 
L 794 531 
z
" transform="scale(0.015625)"/>
       </defs>
       <use xlink:href="#DejaVuSans-32"/>
       <use xlink:href="#DejaVuSans-30" transform="translate(63.623047 0)"/>
       <use xlink:href="#DejaVuSans-30" transform="translate(127.246094 0)"/>
       <use xlink:href="#DejaVuSans-30" transform="translate(190.869141 0)"/>
       <use xlink:href="#DejaVuSans-2d" transform="translate(254.492188 0)"/>
       <use xlink:href="#DejaVuSans-30" transform="translate(290.576172 0)"/>
       <use xlink:href="#DejaVuSans-31" transform="translate(354.199219 0)"/>
      </g>
     </g>
    </g>
    <g id="xtick_2">
     <g id="line2d_2">
      <g>
       <use xlink:href="#m6c783ce16b" x="111.614425" y="228.96" style="stroke: #000000; stroke-width: 0.8"/>
      </g>
     </g>
     <g id="text_2">
      <!-- 2000-02 -->
      <g transform="translate(90.723019 243.558437) scale(0.1 -0.1)">
       <use xlink:href="#DejaVuSans-32"/>
       <use xlink:href="#DejaVuSans-30" transform="translate(63.623047 0)"/>
       <use xlink:href="#DejaVuSans-30" transform="translate(127.246094 0)"/>
       <use xlink:href="#DejaVuSans-30" transform="translate(190.869141 0)"/>
       <use xlink:href="#DejaVuSans-2d" transform="translate(254.492188 0)"/>
       <use xlink:href="#DejaVuSans-30" transform="translate(290.576172 0)"/>
       <use xlink:href="#DejaVuSans-32" transform="translate(354.199219 0)"/>
      </g>
     </g>
    </g>
    <g id="xtick_3">
     <g id="line2d_3">
      <g>
       <use xlink:href="#m6c783ce16b" x="155.968925" y="228.96" style="stroke: #000000; stroke-width: 0.8"/>
      </g>
     </g>
     <g id="text_3">
      <!-- 2000-03 -->
      <g transform="translate(135.077519 243.558437) scale(0.1 -0.1)">
       <defs>
        <path id="DejaVuSans-33" d="M 2597 2516 
Q 3050 2419 3304 2112 
Q 3559 1806 3559 1356 
Q 3559 666 3084 287 
Q 2609 -91 1734 -91 
Q 1441 -91 1130 -33 
Q 819 25 488 141 
L 488 750 
Q 750 597 1062 519 
Q 1375 441 1716 441 
Q 2309 441 2620 675 
Q 2931 909 2931 1356 
Q 2931 1769 2642 2001 
Q 2353 2234 1838 2234 
L 1294 2234 
L 1294 2753 
L 1863 2753 
Q 2328 2753 2575 2939 
Q 2822 3125 2822 3475 
Q 2822 3834 2567 4026 
Q 2313 4219 1838 4219 
Q 1578 4219 1281 4162 
Q 984 4106 628 3988 
L 628 4550 
Q 988 4650 1302 4700 
Q 1616 4750 1894 4750 
Q 2613 4750 3031 4423 
Q 3450 4097 3450 3541 
Q 3450 3153 3228 2886 
Q 3006 2619 2597 2516 
z
" transform="scale(0.015625)"/>
       </defs>
       <use xlink:href="#DejaVuSans-32"/>
       <use xlink:href="#DejaVuSans-30" transform="translate(63.623047 0)"/>
       <use xlink:href="#DejaVuSans-30" transform="translate(127.246094 0)"/>
       <use xlink:href="#DejaVuSans-30" transform="translate(190.869141 0)"/>
       <use xlink:href="#DejaVuSans-2d" transform="translate(254.492188 0)"/>
       <use xlink:href="#DejaVuSans-30" transform="translate(290.576172 0)"/>
       <use xlink:href="#DejaVuSans-33" transform="translate(354.199219 0)"/>
      </g>
     </g>
    </g>
    <g id="xtick_4">
     <g id="line2d_4">
      <g>
       <use xlink:href="#m6c783ce16b" x="203.382356" y="228.96" style="stroke: #000000; stroke-width: 0.8"/>
      </g>
     </g>
     <g id="text_4">
      <!-- 2000-04 -->
      <g transform="translate(182.490949 243.558437) scale(0.1 -0.1)">
       <defs>
        <path id="DejaVuSans-34" d="M 2419 4116 
L 825 1625 
L 2419 1625 
L 2419 4116 
z
M 2253 4666 
L 3047 4666 
L 3047 1625 
L 3713 1625 
L 3713 1100 
L 3047 1100 
L 3047 0 
L 2419 0 
L 2419 1100 
L 313 1100 
L 313 1709 
L 2253 4666 
z
" transform="scale(0.015625)"/>
       </defs>
       <use xlink:href="#DejaVuSans-32"/>
       <use xlink:href="#DejaVuSans-30" transform="translate(63.623047 0)"/>
       <use xlink:href="#DejaVuSans-30" transform="translate(127.246094 0)"/>
       <use xlink:href="#DejaVuSans-30" transform="translate(190.869141 0)"/>
       <use xlink:href="#DejaVuSans-2d" transform="translate(254.492188 0)"/>
       <use xlink:href="#DejaVuSans-30" transform="translate(290.576172 0)"/>
       <use xlink:href="#DejaVuSans-34" transform="translate(354.199219 0)"/>
      </g>
     </g>
    </g>
    <g id="xtick_5">
     <g id="line2d_5">
      <g>
       <use xlink:href="#m6c783ce16b" x="249.266321" y="228.96" style="stroke: #000000; stroke-width: 0.8"/>
      </g>
     </g>
     <g id="text_5">
      <!-- 2000-05 -->
      <g transform="translate(228.374915 243.558437) scale(0.1 -0.1)">
       <defs>
        <path id="DejaVuSans-35" d="M 691 4666 
L 3169 4666 
L 3169 4134 
L 1269 4134 
L 1269 2991 
Q 1406 3038 1543 3061 
Q 1681 3084 1819 3084 
Q 2600 3084 3056 2656 
Q 3513 2228 3513 1497 
Q 3513 744 3044 326 
Q 2575 -91 1722 -91 
Q 1428 -91 1123 -41 
Q 819 9 494 109 
L 494 744 
Q 775 591 1075 516 
Q 1375 441 1709 441 
Q 2250 441 2565 725 
Q 2881 1009 2881 1497 
Q 2881 1984 2565 2268 
Q 2250 2553 1709 2553 
Q 1456 2553 1204 2497 
Q 953 2441 691 2322 
L 691 4666 
z
" transform="scale(0.015625)"/>
       </defs>
       <use xlink:href="#DejaVuSans-32"/>
       <use xlink:href="#DejaVuSans-30" transform="translate(63.623047 0)"/>
       <use xlink:href="#DejaVuSans-30" transform="translate(127.246094 0)"/>
       <use xlink:href="#DejaVuSans-30" transform="translate(190.869141 0)"/>
       <use xlink:href="#DejaVuSans-2d" transform="translate(254.492188 0)"/>
       <use xlink:href="#DejaVuSans-30" transform="translate(290.576172 0)"/>
       <use xlink:href="#DejaVuSans-35" transform="translate(354.199219 0)"/>
      </g>
     </g>
    </g>
    <g id="xtick_6">
     <g id="line2d_6">
      <g>
       <use xlink:href="#m6c783ce16b" x="296.679752" y="228.96" style="stroke: #000000; stroke-width: 0.8"/>
      </g>
     </g>
     <g id="text_6">
      <!-- 2000-06 -->
      <g transform="translate(275.788345 243.558437) scale(0.1 -0.1)">
       <defs>
        <path id="DejaVuSans-36" d="M 2113 2584 
Q 1688 2584 1439 2293 
Q 1191 2003 1191 1497 
Q 1191 994 1439 701 
Q 1688 409 2113 409 
Q 2538 409 2786 701 
Q 3034 994 3034 1497 
Q 3034 2003 2786 2293 
Q 2538 2584 2113 2584 
z
M 3366 4563 
L 3366 3988 
Q 3128 4100 2886 4159 
Q 2644 4219 2406 4219 
Q 1781 4219 1451 3797 
Q 1122 3375 1075 2522 
Q 1259 2794 1537 2939 
Q 1816 3084 2150 3084 
Q 2853 3084 3261 2657 
Q 3669 2231 3669 1497 
Q 3669 778 3244 343 
Q 2819 -91 2113 -91 
Q 1303 -91 875 529 
Q 447 1150 447 2328 
Q 447 3434 972 4092 
Q 1497 4750 2381 4750 
Q 2619 4750 2861 4703 
Q 3103 4656 3366 4563 
z
" transform="scale(0.015625)"/>
       </defs>
       <use xlink:href="#DejaVuSans-32"/>
       <use xlink:href="#DejaVuSans-30" transform="translate(63.623047 0)"/>
       <use xlink:href="#DejaVuSans-30" transform="translate(127.246094 0)"/>
       <use xlink:href="#DejaVuSans-30" transform="translate(190.869141 0)"/>
       <use xlink:href="#DejaVuSans-2d" transform="translate(254.492188 0)"/>
       <use xlink:href="#DejaVuSans-30" transform="translate(290.576172 0)"/>
       <use xlink:href="#DejaVuSans-36" transform="translate(354.199219 0)"/>
      </g>
     </g>
    </g>
    <g id="xtick_7">
     <g id="line2d_7">
      <g>
       <use xlink:href="#m6c783ce16b" x="342.563717" y="228.96" style="stroke: #000000; stroke-width: 0.8"/>
      </g>
     </g>
     <g id="text_7">
      <!-- 2000-07 -->
      <g transform="translate(321.672311 243.558437) scale(0.1 -0.1)">
       <defs>
        <path id="DejaVuSans-37" d="M 525 4666 
L 3525 4666 
L 3525 4397 
L 1831 0 
L 1172 0 
L 2766 4134 
L 525 4134 
L 525 4666 
z
" transform="scale(0.015625)"/>
       </defs>
       <use xlink:href="#DejaVuSans-32"/>
       <use xlink:href="#DejaVuSans-30" transform="translate(63.623047 0)"/>
       <use xlink:href="#DejaVuSans-30" transform="translate(127.246094 0)"/>
       <use xlink:href="#DejaVuSans-30" transform="translate(190.869141 0)"/>
       <use xlink:href="#DejaVuSans-2d" transform="translate(254.492188 0)"/>
       <use xlink:href="#DejaVuSans-30" transform="translate(290.576172 0)"/>
       <use xlink:href="#DejaVuSans-37" transform="translate(354.199219 0)"/>
      </g>
     </g>
    </g>
    <g id="text_8">
     <!-- row [datetime] -->
     <g transform="translate(179.229688 257.236562) scale(0.1 -0.1)">
      <defs>
       <path id="DejaVuSans-72" d="M 2631 2963 
Q 2534 3019 2420 3045 
Q 2306 3072 2169 3072 
Q 1681 3072 1420 2755 
Q 1159 2438 1159 1844 
L 1159 0 
L 581 0 
L 581 3500 
L 1159 3500 
L 1159 2956 
Q 1341 3275 1631 3429 
Q 1922 3584 2338 3584 
Q 2397 3584 2469 3576 
Q 2541 3569 2628 3553 
L 2631 2963 
z
" transform="scale(0.015625)"/>
       <path id="DejaVuSans-6f" d="M 1959 3097 
Q 1497 3097 1228 2736 
Q 959 2375 959 1747 
Q 959 1119 1226 758 
Q 1494 397 1959 397 
Q 2419 397 2687 759 
Q 2956 1122 2956 1747 
Q 2956 2369 2687 2733 
Q 2419 3097 1959 3097 
z
M 1959 3584 
Q 2709 3584 3137 3096 
Q 3566 2609 3566 1747 
Q 3566 888 3137 398 
Q 2709 -91 1959 -91 
Q 1206 -91 779 398 
Q 353 888 353 1747 
Q 353 2609 779 3096 
Q 1206 3584 1959 3584 
z
" transform="scale(0.015625)"/>
       <path id="DejaVuSans-77" d="M 269 3500 
L 844 3500 
L 1563 769 
L 2278 3500 
L 2956 3500 
L 3675 769 
L 4391 3500 
L 4966 3500 
L 4050 0 
L 3372 0 
L 2619 2869 
L 1863 0 
L 1184 0 
L 269 3500 
z
" transform="scale(0.015625)"/>
       <path id="DejaVuSans-20" transform="scale(0.015625)"/>
       <path id="DejaVuSans-5b" d="M 550 4863 
L 1875 4863 
L 1875 4416 
L 1125 4416 
L 1125 -397 
L 1875 -397 
L 1875 -844 
L 550 -844 
L 550 4863 
z
" transform="scale(0.015625)"/>
       <path id="DejaVuSans-64" d="M 2906 2969 
L 2906 4863 
L 3481 4863 
L 3481 0 
L 2906 0 
L 2906 525 
Q 2725 213 2448 61 
Q 2172 -91 1784 -91 
Q 1150 -91 751 415 
Q 353 922 353 1747 
Q 353 2572 751 3078 
Q 1150 3584 1784 3584 
Q 2172 3584 2448 3432 
Q 2725 3281 2906 2969 
z
M 947 1747 
Q 947 1113 1208 752 
Q 1469 391 1925 391 
Q 2381 391 2643 752 
Q 2906 1113 2906 1747 
Q 2906 2381 2643 2742 
Q 2381 3103 1925 3103 
Q 1469 3103 1208 2742 
Q 947 2381 947 1747 
z
" transform="scale(0.015625)"/>
       <path id="DejaVuSans-61" d="M 2194 1759 
Q 1497 1759 1228 1600 
Q 959 1441 959 1056 
Q 959 750 1161 570 
Q 1363 391 1709 391 
Q 2188 391 2477 730 
Q 2766 1069 2766 1631 
L 2766 1759 
L 2194 1759 
z
M 3341 1997 
L 3341 0 
L 2766 0 
L 2766 531 
Q 2569 213 2275 61 
Q 1981 -91 1556 -91 
Q 1019 -91 701 211 
Q 384 513 384 1019 
Q 384 1609 779 1909 
Q 1175 2209 1959 2209 
L 2766 2209 
L 2766 2266 
Q 2766 2663 2505 2880 
Q 2244 3097 1772 3097 
Q 1472 3097 1187 3025 
Q 903 2953 641 2809 
L 641 3341 
Q 956 3463 1253 3523 
Q 1550 3584 1831 3584 
Q 2591 3584 2966 3190 
Q 3341 2797 3341 1997 
z
" transform="scale(0.015625)"/>
       <path id="DejaVuSans-74" d="M 1172 4494 
L 1172 3500 
L 2356 3500 
L 2356 3053 
L 1172 3053 
L 1172 1153 
Q 1172 725 1289 603 
Q 1406 481 1766 481 
L 2356 481 
L 2356 0 
L 1766 0 
Q 1100 0 847 248 
Q 594 497 594 1153 
L 594 3053 
L 172 3053 
L 172 3500 
L 594 3500 
L 594 4494 
L 1172 4494 
z
" transform="scale(0.015625)"/>
       <path id="DejaVuSans-65" d="M 3597 1894 
L 3597 1613 
L 953 1613 
Q 991 1019 1311 708 
Q 1631 397 2203 397 
Q 2534 397 2845 478 
Q 3156 559 3463 722 
L 3463 178 
Q 3153 47 2828 -22 
Q 2503 -91 2169 -91 
Q 1331 -91 842 396 
Q 353 884 353 1716 
Q 353 2575 817 3079 
Q 1281 3584 2069 3584 
Q 2775 3584 3186 3129 
Q 3597 2675 3597 1894 
z
M 3022 2063 
Q 3016 2534 2758 2815 
Q 2500 3097 2075 3097 
Q 1594 3097 1305 2825 
Q 1016 2553 972 2059 
L 3022 2063 
z
" transform="scale(0.015625)"/>
       <path id="DejaVuSans-69" d="M 603 3500 
L 1178 3500 
L 1178 0 
L 603 0 
L 603 3500 
z
M 603 4863 
L 1178 4863 
L 1178 4134 
L 603 4134 
L 603 4863 
z
" transform="scale(0.015625)"/>
       <path id="DejaVuSans-6d" d="M 3328 2828 
Q 3544 3216 3844 3400 
Q 4144 3584 4550 3584 
Q 5097 3584 5394 3201 
Q 5691 2819 5691 2113 
L 5691 0 
L 5113 0 
L 5113 2094 
Q 5113 2597 4934 2840 
Q 4756 3084 4391 3084 
Q 3944 3084 3684 2787 
Q 3425 2491 3425 1978 
L 3425 0 
L 2847 0 
L 2847 2094 
Q 2847 2600 2669 2842 
Q 2491 3084 2119 3084 
Q 1678 3084 1418 2786 
Q 1159 2488 1159 1978 
L 1159 0 
L 581 0 
L 581 3500 
L 1159 3500 
L 1159 2956 
Q 1356 3278 1631 3431 
Q 1906 3584 2284 3584 
Q 2666 3584 2933 3390 
Q 3200 3197 3328 2828 
z
" transform="scale(0.015625)"/>
       <path id="DejaVuSans-5d" d="M 1947 4863 
L 1947 -844 
L 622 -844 
L 622 -397 
L 1369 -397 
L 1369 4416 
L 622 4416 
L 622 4863 
L 1947 4863 
z
" transform="scale(0.015625)"/>
      </defs>
      <use xlink:href="#DejaVuSans-72"/>
      <use xlink:href="#DejaVuSans-6f" transform="translate(38.863281 0)"/>
      <use xlink:href="#DejaVuSans-77" transform="translate(100.044922 0)"/>
      <use xlink:href="#DejaVuSans-20" transform="translate(181.832031 0)"/>
      <use xlink:href="#DejaVuSans-5b" transform="translate(213.619141 0)"/>
      <use xlink:href="#DejaVuSans-64" transform="translate(252.632812 0)"/>
      <use xlink:href="#DejaVuSans-61" transform="translate(316.109375 0)"/>
      <use xlink:href="#DejaVuSans-74" transform="translate(377.388672 0)"/>
      <use xlink:href="#DejaVuSans-65" transform="translate(416.597656 0)"/>
      <use xlink:href="#DejaVuSans-74" transform="translate(478.121094 0)"/>
      <use xlink:href="#DejaVuSans-69" transform="translate(517.330078 0)"/>
      <use xlink:href="#DejaVuSans-6d" transform="translate(545.113281 0)"/>
      <use xlink:href="#DejaVuSans-65" transform="translate(642.525391 0)"/>
      <use xlink:href="#DejaVuSans-5d" transform="translate(704.048828 0)"/>
     </g>
    </g>
   </g>
   <g id="matplotlib.axis_2">
    <g id="ytick_1">
     <g id="line2d_8">
      <defs>
       <path id="m418a0e7b77" d="M 0 0 
L -3.5 0 
" style="stroke: #000000; stroke-width: 0.8"/>
      </defs>
      <g>
       <use xlink:href="#m418a0e7b77" x="48.982813" y="214.533143" style="stroke: #000000; stroke-width: 0.8"/>
      </g>
     </g>
     <g id="text_9">
      <!-- −20 -->
      <g transform="translate(20.878125 218.332362) scale(0.1 -0.1)">
       <defs>
        <path id="DejaVuSans-2212" d="M 678 2272 
L 4684 2272 
L 4684 1741 
L 678 1741 
L 678 2272 
z
" transform="scale(0.015625)"/>
       </defs>
       <use xlink:href="#DejaVuSans-2212"/>
       <use xlink:href="#DejaVuSans-32" transform="translate(83.789062 0)"/>
       <use xlink:href="#DejaVuSans-30" transform="translate(147.412109 0)"/>
      </g>
     </g>
    </g>
    <g id="ytick_2">
     <g id="line2d_9">
      <g>
       <use xlink:href="#m418a0e7b77" x="48.982813" y="185.460535" style="stroke: #000000; stroke-width: 0.8"/>
      </g>
     </g>
     <g id="text_10">
      <!-- −15 -->
      <g transform="translate(20.878125 189.259754) scale(0.1 -0.1)">
       <use xlink:href="#DejaVuSans-2212"/>
       <use xlink:href="#DejaVuSans-31" transform="translate(83.789062 0)"/>
       <use xlink:href="#DejaVuSans-35" transform="translate(147.412109 0)"/>
      </g>
     </g>
    </g>
    <g id="ytick_3">
     <g id="line2d_10">
      <g>
       <use xlink:href="#m418a0e7b77" x="48.982813" y="156.387927" style="stroke: #000000; stroke-width: 0.8"/>
      </g>
     </g>
     <g id="text_11">
      <!-- −10 -->
      <g transform="translate(20.878125 160.187146) scale(0.1 -0.1)">
       <use xlink:href="#DejaVuSans-2212"/>
       <use xlink:href="#DejaVuSans-31" transform="translate(83.789062 0)"/>
       <use xlink:href="#DejaVuSans-30" transform="translate(147.412109 0)"/>
      </g>
     </g>
    </g>
    <g id="ytick_4">
     <g id="line2d_11">
      <g>
       <use xlink:href="#m418a0e7b77" x="48.982813" y="127.315319" style="stroke: #000000; stroke-width: 0.8"/>
      </g>
     </g>
     <g id="text_12">
      <!-- −5 -->
      <g transform="translate(27.240625 131.114538) scale(0.1 -0.1)">
       <use xlink:href="#DejaVuSans-2212"/>
       <use xlink:href="#DejaVuSans-35" transform="translate(83.789062 0)"/>
      </g>
     </g>
    </g>
    <g id="ytick_5">
     <g id="line2d_12">
      <g>
       <use xlink:href="#m418a0e7b77" x="48.982813" y="98.242711" style="stroke: #000000; stroke-width: 0.8"/>
      </g>
     </g>
     <g id="text_13">
      <!-- 0 -->
      <g transform="translate(35.620312 102.04193) scale(0.1 -0.1)">
       <use xlink:href="#DejaVuSans-30"/>
      </g>
     </g>
    </g>
    <g id="ytick_6">
     <g id="line2d_13">
      <g>
       <use xlink:href="#m418a0e7b77" x="48.982813" y="69.170103" style="stroke: #000000; stroke-width: 0.8"/>
      </g>
     </g>
     <g id="text_14">
      <!-- 5 -->
      <g transform="translate(35.620312 72.969322) scale(0.1 -0.1)">
       <use xlink:href="#DejaVuSans-35"/>
      </g>
     </g>
    </g>
    <g id="ytick_7">
     <g id="line2d_14">
      <g>
       <use xlink:href="#m418a0e7b77" x="48.982813" y="40.097495" style="stroke: #000000; stroke-width: 0.8"/>
      </g>
     </g>
     <g id="text_15">
      <!-- 10 -->
      <g transform="translate(29.257812 43.896714) scale(0.1 -0.1)">
       <use xlink:href="#DejaVuSans-31"/>
       <use xlink:href="#DejaVuSans-30" transform="translate(63.623047 0)"/>
      </g>
     </g>
    </g>
    <g id="ytick_8">
     <g id="line2d_15">
      <g>
       <use xlink:href="#m418a0e7b77" x="48.982813" y="11.024887" style="stroke: #000000; stroke-width: 0.8"/>
      </g>
     </g>
     <g id="text_16">
      <!-- 15 -->
      <g transform="translate(29.257812 14.824106) scale(0.1 -0.1)">
       <use xlink:href="#DejaVuSans-31"/>
       <use xlink:href="#DejaVuSans-35" transform="translate(63.623047 0)"/>
      </g>
     </g>
    </g>
    <g id="text_17">
     <!-- [dimensionless] -->
     <g transform="translate(14.798437 157.557344) rotate(-90) scale(0.1 -0.1)">
      <defs>
       <path id="DejaVuSans-6e" d="M 3513 2113 
L 3513 0 
L 2938 0 
L 2938 2094 
Q 2938 2591 2744 2837 
Q 2550 3084 2163 3084 
Q 1697 3084 1428 2787 
Q 1159 2491 1159 1978 
L 1159 0 
L 581 0 
L 581 3500 
L 1159 3500 
L 1159 2956 
Q 1366 3272 1645 3428 
Q 1925 3584 2291 3584 
Q 2894 3584 3203 3211 
Q 3513 2838 3513 2113 
z
" transform="scale(0.015625)"/>
       <path id="DejaVuSans-73" d="M 2834 3397 
L 2834 2853 
Q 2591 2978 2328 3040 
Q 2066 3103 1784 3103 
Q 1356 3103 1142 2972 
Q 928 2841 928 2578 
Q 928 2378 1081 2264 
Q 1234 2150 1697 2047 
L 1894 2003 
Q 2506 1872 2764 1633 
Q 3022 1394 3022 966 
Q 3022 478 2636 193 
Q 2250 -91 1575 -91 
Q 1294 -91 989 -36 
Q 684 19 347 128 
L 347 722 
Q 666 556 975 473 
Q 1284 391 1588 391 
Q 1994 391 2212 530 
Q 2431 669 2431 922 
Q 2431 1156 2273 1281 
Q 2116 1406 1581 1522 
L 1381 1569 
Q 847 1681 609 1914 
Q 372 2147 372 2553 
Q 372 3047 722 3315 
Q 1072 3584 1716 3584 
Q 2034 3584 2315 3537 
Q 2597 3491 2834 3397 
z
" transform="scale(0.015625)"/>
       <path id="DejaVuSans-6c" d="M 603 4863 
L 1178 4863 
L 1178 0 
L 603 0 
L 603 4863 
z
" transform="scale(0.015625)"/>
      </defs>
      <use xlink:href="#DejaVuSans-5b"/>
      <use xlink:href="#DejaVuSans-64" transform="translate(39.013672 0)"/>
      <use xlink:href="#DejaVuSans-69" transform="translate(102.490234 0)"/>
      <use xlink:href="#DejaVuSans-6d" transform="translate(130.273438 0)"/>
      <use xlink:href="#DejaVuSans-65" transform="translate(227.685547 0)"/>
      <use xlink:href="#DejaVuSans-6e" transform="translate(289.208984 0)"/>
      <use xlink:href="#DejaVuSans-73" transform="translate(352.587891 0)"/>
      <use xlink:href="#DejaVuSans-69" transform="translate(404.6875 0)"/>
      <use xlink:href="#DejaVuSans-6f" transform="translate(432.470703 0)"/>
      <use xlink:href="#DejaVuSans-6e" transform="translate(493.652344 0)"/>
      <use xlink:href="#DejaVuSans-6c" transform="translate(557.03125 0)"/>
      <use xlink:href="#DejaVuSans-65" transform="translate(584.814453 0)"/>
      <use xlink:href="#DejaVuSans-73" transform="translate(646.337891 0)"/>
      <use xlink:href="#DejaVuSans-73" transform="translate(698.4375 0)"/>
      <use xlink:href="#DejaVuSans-5d" transform="translate(750.537109 0)"/>
     </g>
    </g>
   </g>
   <g id="line2d_16">
    <path d="M 64.200994 100.555589 
L 65.73046 108.789444 
L 67.259925 111.045451 
L 68.789391 105.78645 
L 70.318856 112.4408 
L 71.848322 109.936211 
L 73.377787 111.692085 
L 74.907253 120.490452 
L 76.436718 123.559301 
L 77.966184 124.864746 
L 79.495649 125.029795 
L 81.025115 132.002077 
L 82.55458 133.373531 
L 84.084046 142.110076 
L 85.613511 142.010751 
L 87.142977 139.912624 
L 88.672442 128.535433 
L 91.731373 122.663642 
L 93.260839 127.186953 
L 94.790305 120.775307 
L 96.31977 130.244962 
L 97.849236 121.436724 
L 99.378701 115.686934 
L 100.908167 116.283836 
L 102.437632 124.234805 
L 103.967098 125.978895 
L 105.496563 120.763458 
L 107.026029 120.501754 
L 108.555494 127.79537 
L 110.08496 123.508883 
L 111.614425 128.576812 
L 113.143891 126.465651 
L 114.673356 131.557921 
L 116.202822 124.770398 
L 117.732287 131.706474 
L 119.261753 136.633067 
L 120.791218 139.110713 
L 122.320684 145.480757 
L 123.850149 144.679777 
L 125.379615 145.290522 
L 126.90908 137.169456 
L 128.438546 138.431747 
L 129.968011 141.72614 
L 131.497477 137.328031 
L 133.026942 136.663797 
L 134.556408 146.726532 
L 136.085873 148.483424 
L 137.615339 144.335757 
L 139.144804 153.254559 
L 140.67427 156.501994 
L 143.733201 161.451525 
L 145.262666 166.297021 
L 146.792132 170.486718 
L 148.321597 164.43394 
L 149.851063 166.175415 
L 151.380528 176.295172 
L 152.909994 179.159569 
L 154.439459 178.735184 
L 155.968925 185.911678 
L 157.49839 182.413991 
L 160.557321 199.036701 
L 162.086787 197.346223 
L 163.616252 196.988423 
L 165.145718 195.980432 
L 166.675183 202.318966 
L 168.204649 209.987304 
L 169.734114 210.014916 
L 171.26358 201.595774 
L 172.793045 203.261299 
L 174.322511 202.71971 
L 175.851977 207.901156 
L 177.381442 211.231618 
L 178.910908 212.373187 
L 180.440373 214.555742 
L 181.969839 210.575253 
L 183.499304 197.985159 
L 185.02877 202.244293 
L 186.558235 201.605923 
L 188.087701 199.670929 
L 191.146632 222.789031 
L 192.676097 216.460285 
L 194.205563 210.606594 
L 195.735028 205.893859 
L 197.264494 212.649487 
L 198.793959 218.032636 
L 200.323425 222.845504 
L 201.85289 216.011948 
L 203.382356 215.470164 
L 204.911821 208.317367 
L 206.441287 212.360145 
L 207.970752 215.891607 
L 209.500218 216.001811 
L 211.029683 210.329552 
L 212.559149 207.835938 
L 214.088614 206.642527 
L 215.61808 204.982866 
L 217.147545 206.563068 
L 220.206476 189.501606 
L 221.735942 194.693534 
L 223.265407 191.000574 
L 224.794873 185.460246 
L 226.324338 198.94498 
L 227.853804 196.610759 
L 229.383269 196.520321 
L 230.912735 194.132797 
L 232.4422 189.384266 
L 233.971666 183.207129 
L 235.501131 190.273132 
L 237.030597 190.092915 
L 238.560062 200.703623 
L 240.089528 202.484128 
L 241.618993 199.951126 
L 243.148459 191.12818 
L 244.677924 184.511298 
L 246.20739 178.988612 
L 247.736855 174.085874 
L 249.266321 168.296324 
L 250.795786 179.635292 
L 252.325252 175.167985 
L 253.854717 186.040034 
L 255.384183 185.242618 
L 256.913648 181.6986 
L 258.443114 175.099588 
L 259.97258 174.301462 
L 261.502045 171.806037 
L 263.031511 162.525995 
L 264.560976 155.443949 
L 266.090442 163.165453 
L 267.619907 165.088606 
L 269.149373 159.917859 
L 270.678838 167.596872 
L 272.208304 169.010405 
L 273.737769 165.769037 
L 275.267235 182.099733 
L 276.7967 193.180151 
L 278.326166 191.590206 
L 279.855631 196.385406 
L 281.385097 191.439227 
L 282.914562 189.891164 
L 284.444028 186.865769 
L 285.973493 185.453671 
L 287.502959 190.108365 
L 289.032424 184.028563 
L 290.56189 172.541812 
L 292.091355 165.338601 
L 295.150286 149.648886 
L 296.679752 146.467691 
L 299.738683 138.370469 
L 301.268148 122.500266 
L 302.797614 131.106795 
L 304.327079 133.713681 
L 305.856545 126.87323 
L 307.38601 122.732325 
L 308.915476 110.796334 
L 310.444941 106.722218 
L 311.974407 115.774183 
L 313.503872 116.93728 
L 315.033338 115.537801 
L 316.562803 117.687252 
L 318.092269 121.527948 
L 319.621734 115.129136 
L 321.1512 123.904095 
L 322.680665 124.897987 
L 324.210131 127.599621 
L 325.739596 129.18735 
L 327.269062 146.079706 
L 328.798527 143.767351 
L 330.327993 138.86064 
L 331.857458 135.558403 
L 333.386924 132.584322 
L 334.916389 134.050135 
L 336.445855 132.616324 
L 337.97532 130.207818 
L 339.504786 135.887829 
L 341.034252 132.221131 
L 342.563717 130.396716 
L 344.093183 144.161285 
L 345.622648 136.743082 
L 347.152114 126.821751 
L 348.681579 123.623856 
L 350.211045 137.51803 
L 351.74051 140.134662 
L 353.269976 133.385745 
L 354.799441 132.430086 
L 356.328907 120.195527 
L 357.858372 125.027602 
L 359.387838 132.536957 
L 360.917303 128.686658 
L 362.446769 118.498932 
L 363.976234 119.685029 
L 365.5057 114.782827 
L 367.035165 118.582888 
L 368.564631 116.629413 
L 368.564631 116.629413 
" clip-path="url(#pe5bce20c4a)" style="fill: none; stroke: #1f77b4; stroke-width: 1.5; stroke-linecap: square"/>
   </g>
   <g id="line2d_17">
    <path d="M 64.200994 98.705353 
L 67.259925 88.148775 
L 68.789391 82.928767 
L 70.318856 75.848164 
L 71.848322 81.487331 
L 73.377787 83.084063 
L 74.907253 77.893141 
L 76.436718 88.137713 
L 77.966184 85.105366 
L 79.495649 84.957389 
L 81.025115 90.123269 
L 82.55458 98.451146 
L 84.084046 89.526746 
L 85.613511 96.950711 
L 87.142977 92.677958 
L 88.672442 100.513082 
L 90.201908 96.070686 
L 91.731373 92.755945 
L 93.260839 91.674027 
L 94.790305 88.362355 
L 96.31977 76.432056 
L 97.849236 81.634171 
L 99.378701 84.575561 
L 102.437632 79.774514 
L 103.967098 77.91663 
L 105.496563 78.412588 
L 107.026029 75.358402 
L 108.555494 93.4948 
L 110.08496 95.917182 
L 111.614425 100.278692 
L 113.143891 105.178163 
L 114.673356 101.751844 
L 116.202822 102.20727 
L 117.732287 107.411044 
L 119.261753 105.216181 
L 120.791218 107.215745 
L 122.320684 100.141402 
L 123.850149 102.583961 
L 125.379615 98.265773 
L 126.90908 92.331239 
L 128.438546 84.092431 
L 129.968011 89.987264 
L 131.497477 84.876563 
L 133.026942 93.192152 
L 134.556408 93.745504 
L 136.085873 92.633145 
L 137.615339 85.583951 
L 139.144804 88.163486 
L 140.67427 86.520498 
L 142.203735 91.673525 
L 143.733201 99.464454 
L 145.262666 106.41601 
L 146.792132 105.754246 
L 148.321597 104.232656 
L 149.851063 105.311178 
L 151.380528 114.611893 
L 152.909994 112.395666 
L 154.439459 102.163454 
L 155.968925 107.072764 
L 157.49839 113.301373 
L 159.027856 114.914071 
L 160.557321 121.186718 
L 162.086787 124.2012 
L 163.616252 119.763528 
L 165.145718 120.771254 
L 166.675183 126.570224 
L 168.204649 119.408179 
L 169.734114 114.904485 
L 171.26358 107.227647 
L 172.793045 105.316993 
L 174.322511 96.119866 
L 175.851977 112.534672 
L 177.381442 118.000082 
L 178.910908 118.661365 
L 180.440373 131.181663 
L 181.969839 129.886898 
L 183.499304 124.498987 
L 185.02877 124.158136 
L 186.558235 128.644994 
L 188.087701 125.597102 
L 189.617166 125.560598 
L 191.146632 130.283791 
L 192.676097 132.861401 
L 194.205563 136.597539 
L 195.735028 129.015137 
L 197.264494 127.086049 
L 198.793959 120.243976 
L 201.85289 129.57192 
L 203.382356 144.100827 
L 204.911821 136.434184 
L 207.970752 141.971832 
L 209.500218 138.881505 
L 211.029683 138.784579 
L 212.559149 143.299255 
L 214.088614 141.809953 
L 217.147545 133.686668 
L 218.677011 133.832595 
L 220.206476 124.296149 
L 221.735942 132.975054 
L 223.265407 139.321936 
L 224.794873 147.509539 
L 226.324338 154.506575 
L 227.853804 158.901003 
L 229.383269 171.454021 
L 230.912735 165.244789 
L 232.4422 172.491895 
L 233.971666 173.078954 
L 235.501131 167.499744 
L 237.030597 168.589746 
L 238.560062 162.021589 
L 240.089528 160.54389 
L 241.618993 152.513949 
L 243.148459 154.716309 
L 244.677924 154.235836 
L 246.20739 156.923087 
L 247.736855 158.299314 
L 249.266321 147.707783 
L 250.795786 143.9723 
L 252.325252 144.747383 
L 253.854717 135.446608 
L 255.384183 132.259154 
L 256.913648 130.290727 
L 258.443114 136.318222 
L 259.97258 151.157855 
L 261.502045 154.657238 
L 263.031511 157.744549 
L 264.560976 147.292003 
L 266.090442 144.304128 
L 267.619907 145.156793 
L 269.149373 150.607171 
L 270.678838 148.162915 
L 272.208304 145.31968 
L 273.737769 141.822884 
L 275.267235 138.785028 
L 276.7967 144.938778 
L 278.326166 148.306021 
L 279.855631 152.049667 
L 281.385097 150.343623 
L 282.914562 142.87444 
L 284.444028 138.708518 
L 285.973493 143.663989 
L 287.502959 155.335946 
L 289.032424 160.54578 
L 290.56189 169.243576 
L 292.091355 166.045958 
L 293.620821 168.807318 
L 295.150286 170.660657 
L 296.679752 169.092207 
L 298.209217 175.303497 
L 299.738683 176.620028 
L 301.268148 176.021613 
L 302.797614 176.948407 
L 304.327079 182.341965 
L 305.856545 180.485138 
L 307.38601 172.401698 
L 308.915476 178.819736 
L 310.444941 179.738621 
L 311.974407 177.711638 
L 313.503872 180.063085 
L 315.033338 176.925266 
L 316.562803 182.001959 
L 318.092269 175.478524 
L 319.621734 166.282233 
L 321.1512 164.837195 
L 322.680665 162.631151 
L 324.210131 166.495481 
L 325.739596 158.536813 
L 327.269062 155.828873 
L 328.798527 151.462264 
L 330.327993 148.805808 
L 331.857458 152.815068 
L 333.386924 160.61635 
L 334.916389 167.513768 
L 336.445855 159.492406 
L 337.97532 157.081294 
L 339.504786 145.703612 
L 341.034252 150.026676 
L 344.093183 159.465698 
L 345.622648 152.276791 
L 347.152114 148.212395 
L 348.681579 143.510272 
L 350.211045 147.428256 
L 351.74051 148.888743 
L 353.269976 149.156726 
L 354.799441 149.243829 
L 356.328907 154.000401 
L 357.858372 164.667706 
L 359.387838 161.594367 
L 360.917303 161.096115 
L 362.446769 162.09735 
L 363.976234 165.966538 
L 365.5057 166.686083 
L 368.564631 159.087956 
L 368.564631 159.087956 
" clip-path="url(#pe5bce20c4a)" style="fill: none; stroke: #ff7f0e; stroke-width: 1.5; stroke-linecap: square"/>
   </g>
   <g id="line2d_18">
    <path d="M 64.200994 102.219398 
L 65.73046 96.934609 
L 67.259925 89.096566 
L 68.789391 77.961907 
L 70.318856 82.796095 
L 71.848322 77.05945 
L 73.377787 74.732676 
L 74.907253 80.341889 
L 76.436718 72.059571 
L 77.966184 70.035323 
L 79.495649 66.450351 
L 82.55458 63.737785 
L 84.084046 64.708025 
L 85.613511 56.353275 
L 87.142977 59.503533 
L 88.672442 55.308867 
L 90.201908 50.202172 
L 91.731373 48.858515 
L 93.260839 43.152276 
L 94.790305 42.5267 
L 96.31977 49.220178 
L 97.849236 50.590694 
L 99.378701 47.767293 
L 100.908167 55.773271 
L 102.437632 40.272415 
L 103.967098 36.159563 
L 105.496563 48.243548 
L 107.026029 49.360668 
L 108.555494 52.382064 
L 110.08496 43.867142 
L 111.614425 51.044042 
L 114.673356 54.697366 
L 116.202822 51.459496 
L 117.732287 54.097976 
L 119.261753 51.628599 
L 120.791218 50.258186 
L 122.320684 56.524971 
L 123.850149 59.92748 
L 125.379615 56.390294 
L 128.438546 44.947344 
L 129.968011 45.668638 
L 131.497477 43.98455 
L 133.026942 37.095758 
L 134.556408 29.53374 
L 136.085873 19.774772 
L 137.615339 22.963224 
L 139.144804 21.249908 
L 140.67427 13.645486 
L 142.203735 23.609658 
L 143.733201 27.543601 
L 145.262666 38.267653 
L 146.792132 39.652588 
L 148.321597 40.85706 
L 149.851063 42.378114 
L 151.380528 44.99537 
L 152.909994 49.296711 
L 154.439459 46.29226 
L 155.968925 50.992309 
L 159.027856 62.379224 
L 160.557321 61.329642 
L 162.086787 59.96847 
L 163.616252 61.781688 
L 165.145718 65.258937 
L 166.675183 73.664289 
L 168.204649 65.10259 
L 169.734114 67.018083 
L 171.26358 58.11271 
L 172.793045 57.309694 
L 174.322511 58.679983 
L 175.851977 59.284947 
L 177.381442 60.077925 
L 178.910908 55.667331 
L 180.440373 56.748079 
L 181.969839 51.427665 
L 183.499304 59.092063 
L 185.02877 53.497869 
L 186.558235 51.908417 
L 188.087701 47.97189 
L 191.146632 43.020295 
L 192.676097 58.646773 
L 194.205563 66.866042 
L 195.735028 75.98582 
L 197.264494 74.627702 
L 198.793959 84.200487 
L 200.323425 72.583344 
L 201.85289 77.867995 
L 203.382356 80.276285 
L 204.911821 93.650876 
L 206.441287 95.401806 
L 207.970752 89.921467 
L 209.500218 83.837619 
L 211.029683 87.338699 
L 212.559149 90.456257 
L 214.088614 88.376163 
L 215.61808 83.243899 
L 217.147545 82.881514 
L 218.677011 80.981157 
L 220.206476 77.334706 
L 221.735942 79.040848 
L 223.265407 76.096274 
L 224.794873 82.215145 
L 226.324338 89.85237 
L 227.853804 78.329211 
L 229.383269 71.686469 
L 230.912735 70.283606 
L 232.4422 74.818696 
L 233.971666 83.608309 
L 235.501131 71.800141 
L 237.030597 64.268331 
L 238.560062 67.752105 
L 240.089528 67.002581 
L 241.618993 71.129398 
L 243.148459 66.870617 
L 244.677924 73.576121 
L 246.20739 71.338441 
L 247.736855 59.921484 
L 249.266321 61.867902 
L 252.325252 77.498455 
L 253.854717 86.596451 
L 255.384183 85.624223 
L 256.913648 82.460994 
L 258.443114 92.091543 
L 259.97258 99.430488 
L 261.502045 100.713991 
L 263.031511 98.945048 
L 264.560976 99.35289 
L 266.090442 96.964584 
L 267.619907 97.971029 
L 269.149373 98.672889 
L 270.678838 108.71341 
L 272.208304 100.404519 
L 273.737769 100.22544 
L 275.267235 94.660463 
L 276.7967 102.235059 
L 278.326166 100.484027 
L 279.855631 99.019278 
L 282.914562 105.546122 
L 284.444028 103.548273 
L 285.973493 105.119269 
L 287.502959 98.961014 
L 289.032424 103.9492 
L 290.56189 112.05226 
L 292.091355 113.224361 
L 293.620821 109.341889 
L 295.150286 111.329687 
L 296.679752 106.197022 
L 298.209217 107.872382 
L 299.738683 97.537602 
L 301.268148 95.294948 
L 302.797614 102.970092 
L 305.856545 116.339778 
L 307.38601 116.360615 
L 308.915476 121.0546 
L 310.444941 127.817905 
L 311.974407 122.02198 
L 313.503872 126.203232 
L 315.033338 123.97658 
L 316.562803 126.509303 
L 318.092269 120.49901 
L 319.621734 119.407623 
L 321.1512 126.08462 
L 322.680665 121.802739 
L 324.210131 125.414211 
L 325.739596 132.438105 
L 327.269062 136.15808 
L 328.798527 142.555212 
L 330.327993 140.612385 
L 331.857458 134.927068 
L 333.386924 123.233489 
L 334.916389 126.495495 
L 336.445855 129.377944 
L 337.97532 117.722446 
L 339.504786 119.683059 
L 341.034252 122.314016 
L 342.563717 118.995115 
L 344.093183 115.235717 
L 345.622648 98.040519 
L 347.152114 97.369466 
L 348.681579 93.236176 
L 350.211045 93.895416 
L 351.74051 99.701095 
L 353.269976 99.022512 
L 354.799441 93.013969 
L 356.328907 97.086408 
L 357.858372 88.373946 
L 359.387838 88.768007 
L 360.917303 89.95398 
L 362.446769 89.454076 
L 363.976234 93.634867 
L 365.5057 95.120635 
L 367.035165 90.180265 
L 368.564631 90.117089 
L 368.564631 90.117089 
" clip-path="url(#pe5bce20c4a)" style="fill: none; stroke: #2ca02c; stroke-width: 1.5; stroke-linecap: square"/>
   </g>
   <g id="line2d_19">
    <path d="M 64.200994 94.803796 
L 65.73046 105.999974 
L 68.789391 104.083562 
L 70.318856 101.465846 
L 71.848322 106.041868 
L 73.377787 107.671119 
L 74.907253 110.813278 
L 76.436718 101.980035 
L 77.966184 102.946771 
L 79.495649 99.240289 
L 81.025115 94.578542 
L 82.55458 97.030205 
L 85.613511 103.264808 
L 87.142977 117.011743 
L 88.672442 121.603994 
L 90.201908 117.769881 
L 91.731373 120.172444 
L 93.260839 123.701325 
L 94.790305 117.298327 
L 96.31977 119.799631 
L 97.849236 121.211892 
L 99.378701 119.158236 
L 100.908167 113.579261 
L 102.437632 118.673987 
L 103.967098 123.122648 
L 105.496563 127.068266 
L 107.026029 129.337147 
L 108.555494 132.730625 
L 110.08496 125.306584 
L 111.614425 129.082465 
L 113.143891 127.787364 
L 114.673356 122.111008 
L 116.202822 121.273367 
L 119.261753 112.270012 
L 120.791218 113.268507 
L 122.320684 115.773734 
L 123.850149 124.523046 
L 125.379615 121.541026 
L 126.90908 121.25993 
L 129.968011 133.802687 
L 131.497477 131.77835 
L 133.026942 128.05072 
L 134.556408 123.802352 
L 136.085873 121.356188 
L 137.615339 125.779561 
L 140.67427 138.675155 
L 142.203735 139.366288 
L 143.733201 136.313249 
L 145.262666 142.198888 
L 146.792132 145.99192 
L 148.321597 146.218551 
L 149.851063 144.821047 
L 151.380528 141.919873 
L 152.909994 127.89226 
L 154.439459 125.118878 
L 155.968925 130.382071 
L 157.49839 123.995561 
L 159.027856 127.443378 
L 160.557321 124.735447 
L 162.086787 123.698169 
L 163.616252 120.098468 
L 165.145718 118.891904 
L 166.675183 123.988996 
L 168.204649 111.080546 
L 169.734114 108.004664 
L 171.26358 110.193695 
L 172.793045 111.39842 
L 174.322511 104.3847 
L 175.851977 106.973204 
L 177.381442 113.365766 
L 178.910908 112.707194 
L 180.440373 99.896756 
L 181.969839 93.982668 
L 183.499304 81.505626 
L 185.02877 93.145494 
L 186.558235 93.26664 
L 188.087701 92.073502 
L 189.617166 90.155759 
L 191.146632 96.279968 
L 192.676097 97.780715 
L 194.205563 94.404192 
L 195.735028 85.963299 
L 197.264494 92.241694 
L 198.793959 96.038404 
L 200.323425 89.846288 
L 201.85289 78.608415 
L 203.382356 76.365608 
L 204.911821 77.544881 
L 206.441287 67.590372 
L 207.970752 63.965589 
L 209.500218 58.882254 
L 211.029683 76.689284 
L 212.559149 75.687418 
L 214.088614 73.38867 
L 215.61808 83.377359 
L 217.147545 79.66315 
L 218.677011 74.867914 
L 221.735942 68.354376 
L 223.265407 68.125243 
L 226.324338 53.185281 
L 227.853804 55.516875 
L 229.383269 72.074442 
L 232.4422 66.596285 
L 233.971666 66.715168 
L 235.501131 67.310068 
L 237.030597 58.690104 
L 238.560062 52.593499 
L 240.089528 56.081283 
L 241.618993 40.35302 
L 243.148459 33.127742 
L 244.677924 32.427643 
L 246.20739 37.127855 
L 247.736855 35.195116 
L 249.266321 36.427495 
L 250.795786 34.192485 
L 252.325252 37.422544 
L 253.854717 38.970727 
L 255.384183 43.587944 
L 256.913648 41.710861 
L 258.443114 41.227892 
L 259.97258 47.6134 
L 261.502045 45.179319 
L 263.031511 42.370534 
L 264.560976 48.706909 
L 266.090442 56.162364 
L 267.619907 56.288391 
L 269.149373 52.577697 
L 270.678838 42.081195 
L 272.208304 51.844094 
L 273.737769 54.013001 
L 275.267235 54.109753 
L 276.7967 56.94646 
L 278.326166 59.143071 
L 279.855631 58.729512 
L 281.385097 60.91921 
L 282.914562 54.117559 
L 284.444028 62.785774 
L 285.973493 64.579366 
L 287.502959 70.067336 
L 289.032424 59.913276 
L 290.56189 60.29119 
L 292.091355 66.952549 
L 293.620821 66.357552 
L 295.150286 72.195403 
L 296.679752 73.833814 
L 298.209217 70.944619 
L 299.738683 77.117289 
L 301.268148 73.122738 
L 302.797614 76.216965 
L 304.327079 83.776234 
L 305.856545 90.320343 
L 307.38601 90.669408 
L 308.915476 90.17825 
L 310.444941 96.815684 
L 311.974407 97.473564 
L 313.503872 104.757125 
L 315.033338 109.225441 
L 316.562803 107.473407 
L 318.092269 103.490492 
L 319.621734 109.15217 
L 321.1512 108.669251 
L 322.680665 109.104766 
L 324.210131 106.034431 
L 325.739596 99.560072 
L 327.269062 93.740808 
L 328.798527 97.104453 
L 330.327993 97.075646 
L 331.857458 96.187886 
L 333.386924 95.588876 
L 334.916389 91.354227 
L 336.445855 82.778861 
L 337.97532 80.675294 
L 339.504786 87.316062 
L 341.034252 83.281096 
L 342.563717 87.468125 
L 344.093183 93.264852 
L 345.622648 86.457065 
L 347.152114 84.139666 
L 348.681579 89.767631 
L 350.211045 97.682031 
L 351.74051 102.344359 
L 353.269976 101.678119 
L 354.799441 104.86461 
L 356.328907 105.730599 
L 357.858372 94.223133 
L 359.387838 92.470385 
L 360.917303 93.008719 
L 362.446769 99.985324 
L 363.976234 87.380342 
L 365.5057 86.96628 
L 367.035165 107.289618 
L 368.564631 101.502136 
L 368.564631 101.502136 
" clip-path="url(#pe5bce20c4a)" style="fill: none; stroke: #d62728; stroke-width: 1.5; stroke-linecap: square"/>
   </g>
   <g id="patch_3">
    <path d="M 48.982813 228.96 
L 48.982813 7.2 
" style="fill: none; stroke: #000000; stroke-width: 0.8; stroke-linejoin: miter; stroke-linecap: square"/>
   </g>
   <g id="patch_4">
    <path d="M 383.782813 228.96 
L 383.782813 7.2 
" style="fill: none; stroke: #000000; stroke-width: 0.8; stroke-linejoin: miter; stroke-linecap: square"/>
   </g>
   <g id="patch_5">
    <path d="M 48.982812 228.96 
L 383.782812 228.96 
" style="fill: none; stroke: #000000; stroke-width: 0.8; stroke-linejoin: miter; stroke-linecap: square"/>
   </g>
   <g id="patch_6">
    <path d="M 48.982812 7.2 
L 383.782812 7.2 
" style="fill: none; stroke: #000000; stroke-width: 0.8; stroke-linejoin: miter; stroke-linecap: square"/>
   </g>
   <g id="legend_1">
    <g id="patch_7">
     <path d="M 337.082813 73.9125 
L 376.782813 73.9125 
Q 378.782813 73.9125 378.782813 71.9125 
L 378.782813 14.2 
Q 378.782813 12.2 376.782813 12.2 
L 337.082813 12.2 
Q 335.082813 12.2 335.082813 14.2 
L 335.082813 71.9125 
Q 335.082813 73.9125 337.082813 73.9125 
z
" style="fill: #ffffff; opacity: 0.8; stroke: #cccccc; stroke-linejoin: miter"/>
    </g>
    <g id="line2d_20">
     <path d="M 339.082813 20.298437 
L 349.082813 20.298437 
L 359.082813 20.298437 
" style="fill: none; stroke: #1f77b4; stroke-width: 1.5; stroke-linecap: square"/>
    </g>
    <g id="text_18">
     <!-- A -->
     <g transform="translate(367.082813 23.798437) scale(0.1 -0.1)">
      <defs>
       <path id="DejaVuSans-41" d="M 2188 4044 
L 1331 1722 
L 3047 1722 
L 2188 4044 
z
M 1831 4666 
L 2547 4666 
L 4325 0 
L 3669 0 
L 3244 1197 
L 1141 1197 
L 716 0 
L 50 0 
L 1831 4666 
z
" transform="scale(0.015625)"/>
      </defs>
      <use xlink:href="#DejaVuSans-41"/>
     </g>
    </g>
    <g id="line2d_21">
     <path d="M 339.082813 34.976562 
L 349.082813 34.976562 
L 359.082813 34.976562 
" style="fill: none; stroke: #ff7f0e; stroke-width: 1.5; stroke-linecap: square"/>
    </g>
    <g id="text_19">
     <!-- B -->
     <g transform="translate(367.082813 38.476562) scale(0.1 -0.1)">
      <defs>
       <path id="DejaVuSans-42" d="M 1259 2228 
L 1259 519 
L 2272 519 
Q 2781 519 3026 730 
Q 3272 941 3272 1375 
Q 3272 1813 3026 2020 
Q 2781 2228 2272 2228 
L 1259 2228 
z
M 1259 4147 
L 1259 2741 
L 2194 2741 
Q 2656 2741 2882 2914 
Q 3109 3088 3109 3444 
Q 3109 3797 2882 3972 
Q 2656 4147 2194 4147 
L 1259 4147 
z
M 628 4666 
L 2241 4666 
Q 2963 4666 3353 4366 
Q 3744 4066 3744 3513 
Q 3744 3084 3544 2831 
Q 3344 2578 2956 2516 
Q 3422 2416 3680 2098 
Q 3938 1781 3938 1306 
Q 3938 681 3513 340 
Q 3088 0 2303 0 
L 628 0 
L 628 4666 
z
" transform="scale(0.015625)"/>
      </defs>
      <use xlink:href="#DejaVuSans-42"/>
     </g>
    </g>
    <g id="line2d_22">
     <path d="M 339.082813 49.654687 
L 349.082813 49.654687 
L 359.082813 49.654687 
" style="fill: none; stroke: #2ca02c; stroke-width: 1.5; stroke-linecap: square"/>
    </g>
    <g id="text_20">
     <!-- C -->
     <g transform="translate(367.082813 53.154687) scale(0.1 -0.1)">
      <defs>
       <path id="DejaVuSans-43" d="M 4122 4306 
L 4122 3641 
Q 3803 3938 3442 4084 
Q 3081 4231 2675 4231 
Q 1875 4231 1450 3742 
Q 1025 3253 1025 2328 
Q 1025 1406 1450 917 
Q 1875 428 2675 428 
Q 3081 428 3442 575 
Q 3803 722 4122 1019 
L 4122 359 
Q 3791 134 3420 21 
Q 3050 -91 2638 -91 
Q 1578 -91 968 557 
Q 359 1206 359 2328 
Q 359 3453 968 4101 
Q 1578 4750 2638 4750 
Q 3056 4750 3426 4639 
Q 3797 4528 4122 4306 
z
" transform="scale(0.015625)"/>
      </defs>
      <use xlink:href="#DejaVuSans-43"/>
     </g>
    </g>
    <g id="line2d_23">
     <path d="M 339.082813 64.332812 
L 349.082813 64.332812 
L 359.082813 64.332812 
" style="fill: none; stroke: #d62728; stroke-width: 1.5; stroke-linecap: square"/>
    </g>
    <g id="text_21">
     <!-- D -->
     <g transform="translate(367.082813 67.832812) scale(0.1 -0.1)">
      <defs>
       <path id="DejaVuSans-44" d="M 1259 4147 
L 1259 519 
L 2022 519 
Q 2988 519 3436 956 
Q 3884 1394 3884 2338 
Q 3884 3275 3436 3711 
Q 2988 4147 2022 4147 
L 1259 4147 
z
M 628 4666 
L 1925 4666 
Q 3281 4666 3915 4102 
Q 4550 3538 4550 2338 
Q 4550 1131 3912 565 
Q 3275 0 1925 0 
L 628 0 
L 628 4666 
z
" transform="scale(0.015625)"/>
      </defs>
      <use xlink:href="#DejaVuSans-44"/>
     </g>
    </g>
   </g>
  </g>
 </g>
 <defs>
  <clipPath id="pe5bce20c4a">
   <rect x="48.982813" y="7.2" width="334.8" height="221.76"/>
  </clipPath>
 </defs>
</svg>
