<?xml version="1.0" encoding="utf-8" standalone="no"?>
<!DOCTYPE svg PUBLIC "-//W3C//DTD SVG 1.1//EN"
  "http://www.w3.org/Graphics/SVG/1.1/DTD/svg11.dtd">
<svg xmlns:xlink="http://www.w3.org/1999/xlink" width="390.982812pt" height="266.51625pt" viewBox="0 0 390.982812 266.51625" xmlns="http://www.w3.org/2000/svg" version="1.1">
 <metadata>
  <rdf:RDF xmlns:dc="http://purl.org/dc/elements/1.1/" xmlns:cc="http://creativecommons.org/ns#" xmlns:rdf="http://www.w3.org/1999/02/22-rdf-syntax-ns#">
   <cc:Work>
    <dc:type rdf:resource="http://purl.org/dc/dcmitype/StillImage"/>
    <dc:date>2026-03-05T14:55:24.848170</dc:date>
    <dc:format>image/svg+xml</dc:format>
    <dc:creator>
     <cc:Agent>
      <dc:title>Matplotlib v3.10.7, https://matplotlib.org/</dc:title>
     </cc:Agent>
    </dc:creator>
   </cc:Work>
  </rdf:RDF>
 </metadata>
 <defs>
  <style type="text/css">*{stroke-linejoin: round; stroke-linecap: butt}</style>
 </defs>
 <g id="figure_1">
  <g id="patch_1">
   <path d="M 0 266.51625 
L 390.982812 266.51625 
L 390.982812 0 
L 0 0 
z
" style="fill: #ffffff"/>
  </g>
  <g id="axes_1">
   <g id="patch_2">
    <path d="M 48.982813 228.96 
L 383.782813 228.96 
L 383.782813 7.2 
L 48.982813 7.2 
z
" style="fill: #ffffff"/>
   </g>
   <g id="matplotlib.axis_1">
    <g id="xtick_1">
     <g id="line2d_1">
      <defs>
       <path id="mabcef273c3" d="M 0 0 
L 0 3.5 
" style="stroke: #000000; stroke-width: 0.8"/>
      </defs>
      <g>
       <use xlink:href="#mabcef273c3" x="64.200994" y="228.96" style="stroke: #000000; stroke-width: 0.8"/>
      </g>
     </g>
     <g id="text_1">
      <!-- 2000-01 -->
      <g transform="translate(43.309588 243.558437) scale(0.1 -0.1)">
       <defs>
        <path id="DejaVuSans-32" d="M 1228 531 
L 3431 531 
L 3431 0 
L 469 0 
L 469 531 
Q 828 903 1448 1529 
Q 2069 2156 2228 2338 
Q 2531 2678 2651 2914 
Q 2772 3150 2772 3378 
Q 2772 3750 2511 3984 
Q 2250 4219 1831 4219 
Q 1534 4219 1204 4116 
Q 875 4013 500 3803 
L 500 4441 
Q 881 4594 1212 4672 
Q 1544 4750 1819 4750 
Q 2544 4750 2975 4387 
Q 3406 4025 3406 3419 
Q 3406 3131 3298 2873 
Q 3191 2616 2906 2266 
Q 2828 2175 2409 1742 
Q 1991 1309 1228 531 
z
" transform="scale(0.015625)"/>
        <path id="DejaVuSans-30" d="M 2034 4250 
Q 1547 4250 1301 3770 
Q 1056 3291 1056 2328 
Q 1056 1369 1301 889 
Q 1547 409 2034 409 
Q 2525 409 2770 889 
Q 3016 1369 3016 2328 
Q 3016 3291 2770 3770 
Q 2525 4250 2034 4250 
z
M 2034 4750 
Q 2819 4750 3233 4129 
Q 3647 3509 3647 2328 
Q 3647 1150 3233 529 
Q 2819 -91 2034 -91 
Q 1250 -91 836 529 
Q 422 1150 422 2328 
Q 422 3509 836 4129 
Q 1250 4750 2034 4750 
z
" transform="scale(0.015625)"/>
        <path id="DejaVuSans-2d" d="M 313 2009 
L 1997 2009 
L 1997 1497 
L 313 1497 
L 313 2009 
z
" transform="scale(0.015625)"/>
        <path id="DejaVuSans-31" d="M 794 531 
L 1825 531 
L 1825 4091 
L 703 3866 
L 703 4441 
L 1819 4666 
L 2450 4666 
L 2450 531 
L 3481 531 
L 3481 0 
L 794 0 
L 794 531 
z
" transform="scale(0.015625)"/>
       </defs>
       <use xlink:href="#DejaVuSans-32"/>
       <use xlink:href="#DejaVuSans-30" transform="translate(63.623047 0)"/>
       <use xlink:href="#DejaVuSans-30" transform="translate(127.246094 0)"/>
       <use xlink:href="#DejaVuSans-30" transform="translate(190.869141 0)"/>
       <use xlink:href="#DejaVuSans-2d" transform="translate(254.492188 0)"/>
       <use xlink:href="#DejaVuSans-30" transform="translate(290.576172 0)"/>
       <use xlink:href="#DejaVuSans-31" transform="translate(354.199219 0)"/>
      </g>
     </g>
    </g>
    <g id="xtick_2">
     <g id="line2d_2">
      <g>
       <use xlink:href="#mabcef273c3" x="111.614425" y="228.96" style="stroke: #000000; stroke-width: 0.8"/>
      </g>
     </g>
     <g id="text_2">
      <!-- 2000-02 -->
      <g transform="translate(90.723019 243.558437) scale(0.1 -0.1)">
       <use xlink:href="#DejaVuSans-32"/>
       <use xlink:href="#DejaVuSans-30" transform="translate(63.623047 0)"/>
       <use xlink:href="#DejaVuSans-30" transform="translate(127.246094 0)"/>
       <use xlink:href="#DejaVuSans-30" transform="translate(190.869141 0)"/>
       <use xlink:href="#DejaVuSans-2d" transform="translate(254.492188 0)"/>
       <use xlink:href="#DejaVuSans-30" transform="translate(290.576172 0)"/>
       <use xlink:href="#DejaVuSans-32" transform="translate(354.199219 0)"/>
      </g>
     </g>
    </g>
    <g id="xtick_3">
     <g id="line2d_3">
      <g>
       <use xlink:href="#mabcef273c3" x="155.968925" y="228.96" style="stroke: #000000; stroke-width: 0.8"/>
      </g>
     </g>
     <g id="text_3">
      <!-- 2000-03 -->
      <g transform="translate(135.077519 243.558437) scale(0.1 -0.1)">
       <defs>
        <path id="DejaVuSans-33" d="M 2597 2516 
Q 3050 2419 3304 2112 
Q 3559 1806 3559 1356 
Q 3559 666 3084 287 
Q 2609 -91 1734 -91 
Q 1441 -91 1130 -33 
Q 819 25 488 141 
L 488 750 
Q 750 597 1062 519 
Q 1375 441 1716 441 
Q 2309 441 2620 675 
Q 2931 909 2931 1356 
Q 2931 1769 2642 2001 
Q 2353 2234 1838 2234 
L 1294 2234 
L 1294 2753 
L 1863 2753 
Q 2328 2753 2575 2939 
Q 2822 3125 2822 3475 
Q 2822 3834 2567 4026 
Q 2313 4219 1838 4219 
Q 1578 4219 1281 4162 
Q 984 4106 628 3988 
L 628 4550 
Q 988 4650 1302 4700 
Q 1616 4750 1894 4750 
Q 2613 4750 3031 4423 
Q 3450 4097 3450 3541 
Q 3450 3153 3228 2886 
Q 3006 2619 2597 2516 
z
" transform="scale(0.015625)"/>
       </defs>
       <use xlink:href="#DejaVuSans-32"/>
       <use xlink:href="#DejaVuSans-30" transform="translate(63.623047 0)"/>
       <use xlink:href="#DejaVuSans-30" transform="translate(127.246094 0)"/>
       <use xlink:href="#DejaVuSans-30" transform="translate(190.869141 0)"/>
       <use xlink:href="#DejaVuSans-2d" transform="translate(254.492188 0)"/>
       <use xlink:href="#DejaVuSans-30" transform="translate(290.576172 0)"/>
       <use xlink:href="#DejaVuSans-33" transform="translate(354.199219 0)"/>
      </g>
     </g>
    </g>
    <g id="xtick_4">
     <g id="line2d_4">
      <g>
       <use xlink:href="#mabcef273c3" x="203.382356" y="228.96" style="stroke: #000000; stroke-width: 0.8"/>
      </g>
     </g>
     <g id="text_4">
      <!-- 2000-04 -->
      <g transform="translate(182.490949 243.558437) scale(0.1 -0.1)">
       <defs>
        <path id="DejaVuSans-34" d="M 2419 4116 
L 825 1625 
L 2419 1625 
L 2419 4116 
z
M 2253 4666 
L 3047 4666 
L 3047 1625 
L 3713 1625 
L 3713 1100 
L 3047 1100 
L 3047 0 
L 2419 0 
L 2419 1100 
L 313 1100 
L 313 1709 
L 2253 4666 
z
" transform="scale(0.015625)"/>
       </defs>
       <use xlink:href="#DejaVuSans-32"/>
       <use xlink:href="#DejaVuSans-30" transform="translate(63.623047 0)"/>
       <use xlink:href="#DejaVuSans-30" transform="translate(127.246094 0)"/>
       <use xlink:href="#DejaVuSans-30" transform="translate(190.869141 0)"/>
       <use xlink:href="#DejaVuSans-2d" transform="translate(254.492188 0)"/>
       <use xlink:href="#DejaVuSans-30" transform="translate(290.576172 0)"/>
       <use xlink:href="#DejaVuSans-34" transform="translate(354.199219 0)"/>
      </g>
     </g>
    </g>
    <g id="xtick_5">
     <g id="line2d_5">
      <g>
       <use xlink:href="#mabcef273c3" x="249.266321" y="228.96" style="stroke: #000000; stroke-width: 0.8"/>
      </g>
     </g>
     <g id="text_5">
      <!-- 2000-05 -->
      <g transform="translate(228.374915 243.558437) scale(0.1 -0.1)">
       <defs>
        <path id="DejaVuSans-35" d="M 691 4666 
L 3169 4666 
L 3169 4134 
L 1269 4134 
L 1269 2991 
Q 1406 3038 1543 3061 
Q 1681 3084 1819 3084 
Q 2600 3084 3056 2656 
Q 3513 2228 3513 1497 
Q 3513 744 3044 326 
Q 2575 -91 1722 -91 
Q 1428 -91 1123 -41 
Q 819 9 494 109 
L 494 744 
Q 775 591 1075 516 
Q 1375 441 1709 441 
Q 2250 441 2565 725 
Q 2881 1009 2881 1497 
Q 2881 1984 2565 2268 
Q 2250 2553 1709 2553 
Q 1456 2553 1204 2497 
Q 953 2441 691 2322 
L 691 4666 
z
" transform="scale(0.015625)"/>
       </defs>
       <use xlink:href="#DejaVuSans-32"/>
       <use xlink:href="#DejaVuSans-30" transform="translate(63.623047 0)"/>
       <use xlink:href="#DejaVuSans-30" transform="translate(127.246094 0)"/>
       <use xlink:href="#DejaVuSans-30" transform="translate(190.869141 0)"/>
       <use xlink:href="#DejaVuSans-2d" transform="translate(254.492188 0)"/>
       <use xlink:href="#DejaVuSans-30" transform="translate(290.576172 0)"/>
       <use xlink:href="#DejaVuSans-35" transform="translate(354.199219 0)"/>
      </g>
     </g>
    </g>
    <g id="xtick_6">
     <g id="line2d_6">
      <g>
       <use xlink:href="#mabcef273c3" x="296.679752" y="228.96" style="stroke: #000000; stroke-width: 0.8"/>
      </g>
     </g>
     <g id="text_6">
      <!-- 2000-06 -->
      <g transform="translate(275.788345 243.558437) scale(0.1 -0.1)">
       <defs>
        <path id="DejaVuSans-36" d="M 2113 2584 
Q 1688 2584 1439 2293 
Q 1191 2003 1191 1497 
Q 1191 994 1439 701 
Q 1688 409 2113 409 
Q 2538 409 2786 701 
Q 3034 994 3034 1497 
Q 3034 2003 2786 2293 
Q 2538 2584 2113 2584 
z
M 3366 4563 
L 3366 3988 
Q 3128 4100 2886 4159 
Q 2644 4219 2406 4219 
Q 1781 4219 1451 3797 
Q 1122 3375 1075 2522 
Q 1259 2794 1537 2939 
Q 1816 3084 2150 3084 
Q 2853 3084 3261 2657 
Q 3669 2231 3669 1497 
Q 3669 778 3244 343 
Q 2819 -91 2113 -91 
Q 1303 -91 875 529 
Q 447 1150 447 2328 
Q 447 3434 972 4092 
Q 1497 4750 2381 4750 
Q 2619 4750 2861 4703 
Q 3103 4656 3366 4563 
z
" transform="scale(0.015625)"/>
       </defs>
       <use xlink:href="#DejaVuSans-32"/>
       <use xlink:href="#DejaVuSans-30" transform="translate(63.623047 0)"/>
       <use xlink:href="#DejaVuSans-30" transform="translate(127.246094 0)"/>
       <use xlink:href="#DejaVuSans-30" transform="translate(190.869141 0)"/>
       <use xlink:href="#DejaVuSans-2d" transform="translate(254.492188 0)"/>
       <use xlink:href="#DejaVuSans-30" transform="translate(290.576172 0)"/>
       <use xlink:href="#DejaVuSans-36" transform="translate(354.199219 0)"/>
      </g>
     </g>
    </g>
    <g id="xtick_7">
     <g id="line2d_7">
      <g>
       <use xlink:href="#mabcef273c3" x="342.563717" y="228.96" style="stroke: #000000; stroke-width: 0.8"/>
      </g>
     </g>
     <g id="text_7">
      <!-- 2000-07 -->
      <g transform="translate(321.672311 243.558437) scale(0.1 -0.1)">
       <defs>
        <path id="DejaVuSans-37" d="M 525 4666 
L 3525 4666 
L 3525 4397 
L 1831 0 
L 1172 0 
L 2766 4134 
L 525 4134 
L 525 4666 
z
" transform="scale(0.015625)"/>
       </defs>
       <use xlink:href="#DejaVuSans-32"/>
       <use xlink:href="#DejaVuSans-30" transform="translate(63.623047 0)"/>
       <use xlink:href="#DejaVuSans-30" transform="translate(127.246094 0)"/>
       <use xlink:href="#DejaVuSans-30" transform="translate(190.869141 0)"/>
       <use xlink:href="#DejaVuSans-2d" transform="translate(254.492188 0)"/>
       <use xlink:href="#DejaVuSans-30" transform="translate(290.576172 0)"/>
       <use xlink:href="#DejaVuSans-37" transform="translate(354.199219 0)"/>
      </g>
     </g>
    </g>
    <g id="text_8">
     <!-- row [datetime] -->
     <g transform="translate(179.229688 257.236562) scale(0.1 -0.1)">
      <defs>
       <path id="DejaVuSans-72" d="M 2631 2963 
Q 2534 3019 2420 3045 
Q 2306 3072 2169 3072 
Q 1681 3072 1420 2755 
Q 1159 2438 1159 1844 
L 1159 0 
L 581 0 
L 581 3500 
L 1159 3500 
L 1159 2956 
Q 1341 3275 1631 3429 
Q 1922 3584 2338 3584 
Q 2397 3584 2469 3576 
Q 2541 3569 2628 3553 
L 2631 2963 
z
" transform="scale(0.015625)"/>
       <path id="DejaVuSans-6f" d="M 1959 3097 
Q 1497 3097 1228 2736 
Q 959 2375 959 1747 
Q 959 1119 1226 758 
Q 1494 397 1959 397 
Q 2419 397 2687 759 
Q 2956 1122 2956 1747 
Q 2956 2369 2687 2733 
Q 2419 3097 1959 3097 
z
M 1959 3584 
Q 2709 3584 3137 3096 
Q 3566 2609 3566 1747 
Q 3566 888 3137 398 
Q 2709 -91 1959 -91 
Q 1206 -91 779 398 
Q 353 888 353 1747 
Q 353 2609 779 3096 
Q 1206 3584 1959 3584 
z
" transform="scale(0.015625)"/>
       <path id="DejaVuSans-77" d="M 269 3500 
L 844 3500 
L 1563 769 
L 2278 3500 
L 2956 3500 
L 3675 769 
L 4391 3500 
L 4966 3500 
L 4050 0 
L 3372 0 
L 2619 2869 
L 1863 0 
L 1184 0 
L 269 3500 
z
" transform="scale(0.015625)"/>
       <path id="DejaVuSans-20" transform="scale(0.015625)"/>
       <path id="DejaVuSans-5b" d="M 550 4863 
L 1875 4863 
L 1875 4416 
L 1125 4416 
L 1125 -397 
L 1875 -397 
L 1875 -844 
L 550 -844 
L 550 4863 
z
" transform="scale(0.015625)"/>
       <path id="DejaVuSans-64" d="M 2906 2969 
L 2906 4863 
L 3481 4863 
L 3481 0 
L 2906 0 
L 2906 525 
Q 2725 213 2448 61 
Q 2172 -91 1784 -91 
Q 1150 -91 751 415 
Q 353 922 353 1747 
Q 353 2572 751 3078 
Q 1150 3584 1784 3584 
Q 2172 3584 2448 3432 
Q 2725 3281 2906 2969 
z
M 947 1747 
Q 947 1113 1208 752 
Q 1469 391 1925 391 
Q 2381 391 2643 752 
Q 2906 1113 2906 1747 
Q 2906 2381 2643 2742 
Q 2381 3103 1925 3103 
Q 1469 3103 1208 2742 
Q 947 2381 947 1747 
z
" transform="scale(0.015625)"/>
       <path id="DejaVuSans-61" d="M 2194 1759 
Q 1497 1759 1228 1600 
Q 959 1441 959 1056 
Q 959 750 1161 570 
Q 1363 391 1709 391 
Q 2188 391 2477 730 
Q 2766 1069 2766 1631 
L 2766 1759 
L 2194 1759 
z
M 3341 1997 
L 3341 0 
L 2766 0 
L 2766 531 
Q 2569 213 2275 61 
Q 1981 -91 1556 -91 
Q 1019 -91 701 211 
Q 384 513 384 1019 
Q 384 1609 779 1909 
Q 1175 2209 1959 2209 
L 2766 2209 
L 2766 2266 
Q 2766 2663 2505 2880 
Q 2244 3097 1772 3097 
Q 1472 3097 1187 3025 
Q 903 2953 641 2809 
L 641 3341 
Q 956 3463 1253 3523 
Q 1550 3584 1831 3584 
Q 2591 3584 2966 3190 
Q 3341 2797 3341 1997 
z
" transform="scale(0.015625)"/>
       <path id="DejaVuSans-74" d="M 1172 4494 
L 1172 3500 
L 2356 3500 
L 2356 3053 
L 1172 3053 
L 1172 1153 
Q 1172 725 1289 603 
Q 1406 481 1766 481 
L 2356 481 
L 2356 0 
L 1766 0 
Q 1100 0 847 248 
Q 594 497 594 1153 
L 594 3053 
L 172 3053 
L 172 3500 
L 594 3500 
L 594 4494 
L 1172 4494 
z
" transform="scale(0.015625)"/>
       <path id="DejaVuSans-65" d="M 3597 1894 
L 3597 1613 
L 953 1613 
Q 991 1019 1311 708 
Q 1631 397 2203 397 
Q 2534 397 2845 478 
Q 3156 559 3463 722 
L 3463 178 
Q 3153 47 2828 -22 
Q 2503 -91 2169 -91 
Q 1331 -91 842 396 
Q 353 884 353 1716 
Q 353 2575 817 3079 
Q 1281 3584 2069 3584 
Q 2775 3584 3186 3129 
Q 3597 2675 3597 1894 
z
M 3022 2063 
Q 3016 2534 2758 2815 
Q 2500 3097 2075 3097 
Q 1594 3097 1305 2825 
Q 1016 2553 972 2059 
L 3022 2063 
z
" transform="scale(0.015625)"/>
       <path id="DejaVuSans-69" d="M 603 3500 
L 1178 3500 
L 1178 0 
L 603 0 
L 603 3500 
z
M 603 4863 
L 1178 4863 
L 1178 4134 
L 603 4134 
L 603 4863 
z
" transform="scale(0.015625)"/>
       <path id="DejaVuSans-6d" d="M 3328 2828 
Q 3544 3216 3844 3400 
Q 4144 3584 4550 3584 
Q 5097 3584 5394 3201 
Q 5691 2819 5691 2113 
L 5691 0 
L 5113 0 
L 5113 2094 
Q 5113 2597 4934 2840 
Q 4756 3084 4391 3084 
Q 3944 3084 3684 2787 
Q 3425 2491 3425 1978 
L 3425 0 
L 2847 0 
L 2847 2094 
Q 2847 2600 2669 2842 
Q 2491 3084 2119 3084 
Q 1678 3084 1418 2786 
Q 1159 2488 1159 1978 
L 1159 0 
L 581 0 
L 581 3500 
L 1159 3500 
L 1159 2956 
Q 1356 3278 1631 3431 
Q 1906 3584 2284 3584 
Q 2666 3584 2933 3390 
Q 3200 3197 3328 2828 
z
" transform="scale(0.015625)"/>
       <path id="DejaVuSans-5d" d="M 1947 4863 
L 1947 -844 
L 622 -844 
L 622 -397 
L 1369 -397 
L 1369 4416 
L 622 4416 
L 622 4863 
L 1947 4863 
z
" transform="scale(0.015625)"/>
      </defs>
      <use xlink:href="#DejaVuSans-72"/>
      <use xlink:href="#DejaVuSans-6f" transform="translate(38.863281 0)"/>
      <use xlink:href="#DejaVuSans-77" transform="translate(100.044922 0)"/>
      <use xlink:href="#DejaVuSans-20" transform="translate(181.832031 0)"/>
      <use xlink:href="#DejaVuSans-5b" transform="translate(213.619141 0)"/>
      <use xlink:href="#DejaVuSans-64" transform="translate(252.632812 0)"/>
      <use xlink:href="#DejaVuSans-61" transform="translate(316.109375 0)"/>
      <use xlink:href="#DejaVuSans-74" transform="translate(377.388672 0)"/>
      <use xlink:href="#DejaVuSans-65" transform="translate(416.597656 0)"/>
      <use xlink:href="#DejaVuSans-74" transform="translate(478.121094 0)"/>
      <use xlink:href="#DejaVuSans-69" transform="translate(517.330078 0)"/>
      <use xlink:href="#DejaVuSans-6d" transform="translate(545.113281 0)"/>
      <use xlink:href="#DejaVuSans-65" transform="translate(642.525391 0)"/>
      <use xlink:href="#DejaVuSans-5d" transform="translate(704.048828 0)"/>
     </g>
    </g>
   </g>
   <g id="matplotlib.axis_2">
    <g id="ytick_1">
     <g id="line2d_8">
      <defs>
       <path id="m3ee6b29e41" d="M 0 0 
L -3.5 0 
" style="stroke: #000000; stroke-width: 0.8"/>
      </defs>
      <g>
       <use xlink:href="#m3ee6b29e41" x="48.982813" y="210.916478" style="stroke: #000000; stroke-width: 0.8"/>
      </g>
     </g>
     <g id="text_9">
      <!-- −20 -->
      <g transform="translate(20.878125 214.715697) scale(0.1 -0.1)">
       <defs>
        <path id="DejaVuSans-2212" d="M 678 2272 
L 4684 2272 
L 4684 1741 
L 678 1741 
L 678 2272 
z
" transform="scale(0.015625)"/>
       </defs>
       <use xlink:href="#DejaVuSans-2212"/>
       <use xlink:href="#DejaVuSans-32" transform="translate(83.789062 0)"/>
       <use xlink:href="#DejaVuSans-30" transform="translate(147.412109 0)"/>
      </g>
     </g>
    </g>
    <g id="ytick_2">
     <g id="line2d_9">
      <g>
       <use xlink:href="#m3ee6b29e41" x="48.982813" y="183.866504" style="stroke: #000000; stroke-width: 0.8"/>
      </g>
     </g>
     <g id="text_10">
      <!-- −15 -->
      <g transform="translate(20.878125 187.665723) scale(0.1 -0.1)">
       <use xlink:href="#DejaVuSans-2212"/>
       <use xlink:href="#DejaVuSans-31" transform="translate(83.789062 0)"/>
       <use xlink:href="#DejaVuSans-35" transform="translate(147.412109 0)"/>
      </g>
     </g>
    </g>
    <g id="ytick_3">
     <g id="line2d_10">
      <g>
       <use xlink:href="#m3ee6b29e41" x="48.982813" y="156.816531" style="stroke: #000000; stroke-width: 0.8"/>
      </g>
     </g>
     <g id="text_11">
      <!-- −10 -->
      <g transform="translate(20.878125 160.615749) scale(0.1 -0.1)">
       <use xlink:href="#DejaVuSans-2212"/>
       <use xlink:href="#DejaVuSans-31" transform="translate(83.789062 0)"/>
       <use xlink:href="#DejaVuSans-30" transform="translate(147.412109 0)"/>
      </g>
     </g>
    </g>
    <g id="ytick_4">
     <g id="line2d_11">
      <g>
       <use xlink:href="#m3ee6b29e41" x="48.982813" y="129.766557" style="stroke: #000000; stroke-width: 0.8"/>
      </g>
     </g>
     <g id="text_12">
      <!-- −5 -->
      <g transform="translate(27.240625 133.565776) scale(0.1 -0.1)">
       <use xlink:href="#DejaVuSans-2212"/>
       <use xlink:href="#DejaVuSans-35" transform="translate(83.789062 0)"/>
      </g>
     </g>
    </g>
    <g id="ytick_5">
     <g id="line2d_12">
      <g>
       <use xlink:href="#m3ee6b29e41" x="48.982813" y="102.716583" style="stroke: #000000; stroke-width: 0.8"/>
      </g>
     </g>
     <g id="text_13">
      <!-- 0 -->
      <g transform="translate(35.620312 106.515802) scale(0.1 -0.1)">
       <use xlink:href="#DejaVuSans-30"/>
      </g>
     </g>
    </g>
    <g id="ytick_6">
     <g id="line2d_13">
      <g>
       <use xlink:href="#m3ee6b29e41" x="48.982813" y="75.66661" style="stroke: #000000; stroke-width: 0.8"/>
      </g>
     </g>
     <g id="text_14">
      <!-- 5 -->
      <g transform="translate(35.620312 79.465828) scale(0.1 -0.1)">
       <use xlink:href="#DejaVuSans-35"/>
      </g>
     </g>
    </g>
    <g id="ytick_7">
     <g id="line2d_14">
      <g>
       <use xlink:href="#m3ee6b29e41" x="48.982813" y="48.616636" style="stroke: #000000; stroke-width: 0.8"/>
      </g>
     </g>
     <g id="text_15">
      <!-- 10 -->
      <g transform="translate(29.257812 52.415855) scale(0.1 -0.1)">
       <use xlink:href="#DejaVuSans-31"/>
       <use xlink:href="#DejaVuSans-30" transform="translate(63.623047 0)"/>
      </g>
     </g>
    </g>
    <g id="ytick_8">
     <g id="line2d_15">
      <g>
       <use xlink:href="#m3ee6b29e41" x="48.982813" y="21.566662" style="stroke: #000000; stroke-width: 0.8"/>
      </g>
     </g>
     <g id="text_16">
      <!-- 15 -->
      <g transform="translate(29.257812 25.365881) scale(0.1 -0.1)">
       <use xlink:href="#DejaVuSans-31"/>
       <use xlink:href="#DejaVuSans-35" transform="translate(63.623047 0)"/>
      </g>
     </g>
    </g>
    <g id="text_17">
     <!-- [dimensionless] -->
     <g transform="translate(14.798437 157.557344) rotate(-90) scale(0.1 -0.1)">
      <defs>
       <path id="DejaVuSans-6e" d="M 3513 2113 
L 3513 0 
L 2938 0 
L 2938 2094 
Q 2938 2591 2744 2837 
Q 2550 3084 2163 3084 
Q 1697 3084 1428 2787 
Q 1159 2491 1159 1978 
L 1159 0 
L 581 0 
L 581 3500 
L 1159 3500 
L 1159 2956 
Q 1366 3272 1645 3428 
Q 1925 3584 2291 3584 
Q 2894 3584 3203 3211 
Q 3513 2838 3513 2113 
z
" transform="scale(0.015625)"/>
       <path id="DejaVuSans-73" d="M 2834 3397 
L 2834 2853 
Q 2591 2978 2328 3040 
Q 2066 3103 1784 3103 
Q 1356 3103 1142 2972 
Q 928 2841 928 2578 
Q 928 2378 1081 2264 
Q 1234 2150 1697 2047 
L 1894 2003 
Q 2506 1872 2764 1633 
Q 3022 1394 3022 966 
Q 3022 478 2636 193 
Q 2250 -91 1575 -91 
Q 1294 -91 989 -36 
Q 684 19 347 128 
L 347 722 
Q 666 556 975 473 
Q 1284 391 1588 391 
Q 1994 391 2212 530 
Q 2431 669 2431 922 
Q 2431 1156 2273 1281 
Q 2116 1406 1581 1522 
L 1381 1569 
Q 847 1681 609 1914 
Q 372 2147 372 2553 
Q 372 3047 722 3315 
Q 1072 3584 1716 3584 
Q 2034 3584 2315 3537 
Q 2597 3491 2834 3397 
z
" transform="scale(0.015625)"/>
       <path id="DejaVuSans-6c" d="M 603 4863 
L 1178 4863 
L 1178 0 
L 603 0 
L 603 4863 
z
" transform="scale(0.015625)"/>
      </defs>
      <use xlink:href="#DejaVuSans-5b"/>
      <use xlink:href="#DejaVuSans-64" transform="translate(39.013672 0)"/>
      <use xlink:href="#DejaVuSans-69" transform="translate(102.490234 0)"/>
      <use xlink:href="#DejaVuSans-6d" transform="translate(130.273438 0)"/>
      <use xlink:href="#DejaVuSans-65" transform="translate(227.685547 0)"/>
      <use xlink:href="#DejaVuSans-6e" transform="translate(289.208984 0)"/>
      <use xlink:href="#DejaVuSans-73" transform="translate(352.587891 0)"/>
      <use xlink:href="#DejaVuSans-69" transform="translate(404.6875 0)"/>
      <use xlink:href="#DejaVuSans-6f" transform="translate(432.470703 0)"/>
      <use xlink:href="#DejaVuSans-6e" transform="translate(493.652344 0)"/>
      <use xlink:href="#DejaVuSans-6c" transform="translate(557.03125 0)"/>
      <use xlink:href="#DejaVuSans-65" transform="translate(584.814453 0)"/>
      <use xlink:href="#DejaVuSans-73" transform="translate(646.337891 0)"/>
      <use xlink:href="#DejaVuSans-73" transform="translate(698.4375 0)"/>
      <use xlink:href="#DejaVuSans-5d" transform="translate(750.537109 0)"/>
     </g>
    </g>
   </g>
   <g id="line2d_16">
    <path d="M 64.200994 108.131486 
L 65.73046 101.039263 
L 67.259925 102.124051 
L 68.789391 100.712208 
L 70.318856 105.762545 
L 73.377787 107.927363 
L 74.907253 103.926999 
L 76.436718 106.781548 
L 77.966184 118.88139 
L 79.495649 119.518393 
L 81.025115 115.22205 
L 82.55458 109.899147 
L 84.084046 99.176422 
L 85.613511 97.784846 
L 87.142977 91.133221 
L 88.672442 91.743728 
L 90.201908 95.959909 
L 91.731373 87.136501 
L 93.260839 89.798073 
L 94.790305 82.673842 
L 96.31977 80.664414 
L 97.849236 85.267715 
L 99.378701 89.178267 
L 100.908167 83.482534 
L 102.437632 79.492346 
L 103.967098 80.836087 
L 105.496563 82.807863 
L 107.026029 81.337651 
L 108.555494 85.223985 
L 110.08496 72.902973 
L 111.614425 75.517042 
L 113.143891 66.142622 
L 114.673356 64.355944 
L 116.202822 57.998256 
L 117.732287 61.858265 
L 119.261753 73.70176 
L 120.791218 73.121841 
L 122.320684 74.274158 
L 123.850149 88.909195 
L 125.379615 84.420162 
L 126.90908 80.443294 
L 128.438546 75.8682 
L 129.968011 70.739219 
L 131.497477 71.367579 
L 133.026942 65.733856 
L 134.556408 62.931408 
L 136.085873 57.199547 
L 137.615339 47.492695 
L 139.144804 44.063505 
L 140.67427 47.121814 
L 142.203735 54.113641 
L 143.733201 56.702533 
L 145.262666 55.475229 
L 146.792132 55.732925 
L 148.321597 59.087448 
L 149.851063 56.633869 
L 151.380528 58.7604 
L 152.909994 52.03979 
L 154.439459 43.997031 
L 155.968925 44.02269 
L 157.49839 37.962962 
L 159.027856 36.297569 
L 162.086787 41.104976 
L 163.616252 37.342334 
L 165.145718 40.330703 
L 166.675183 37.854845 
L 168.204649 32.278457 
L 169.734114 30.284031 
L 171.26358 23.907361 
L 172.793045 27.489715 
L 174.322511 32.241676 
L 175.851977 33.478511 
L 177.381442 31.132392 
L 178.910908 35.713681 
L 180.440373 36.134565 
L 181.969839 31.006391 
L 183.499304 33.014039 
L 185.02877 41.123634 
L 186.558235 32.405334 
L 188.087701 38.702224 
L 189.617166 27.379585 
L 191.146632 25.656055 
L 192.676097 23.564984 
L 194.205563 14.936924 
L 195.735028 12.548495 
L 197.264494 15.474359 
L 198.793959 26.129962 
L 200.323425 28.377109 
L 201.85289 21.789069 
L 203.382356 24.867998 
L 204.911821 25.530541 
L 206.441287 27.200179 
L 207.970752 33.790667 
L 209.500218 35.387238 
L 211.029683 41.575314 
L 212.559149 46.790838 
L 214.088614 46.543291 
L 215.61808 43.997865 
L 217.147545 52.366025 
L 218.677011 51.188603 
L 220.206476 34.774559 
L 221.735942 35.935379 
L 223.265407 35.200208 
L 224.794873 37.241769 
L 226.324338 37.424552 
L 227.853804 32.38254 
L 229.383269 31.918119 
L 230.912735 24.469918 
L 232.4422 31.330737 
L 233.971666 27.656066 
L 235.501131 43.399797 
L 237.030597 50.126861 
L 238.560062 53.193756 
L 240.089528 53.798431 
L 241.618993 55.355809 
L 243.148459 55.196494 
L 244.677924 59.662002 
L 247.736855 66.72948 
L 249.266321 60.713399 
L 252.325252 70.661529 
L 253.854717 73.584111 
L 255.384183 75.532033 
L 256.913648 65.887288 
L 258.443114 65.697733 
L 259.97258 75.718927 
L 261.502045 73.872849 
L 263.031511 76.486349 
L 264.560976 73.718774 
L 266.090442 63.284138 
L 269.149373 54.758444 
L 270.678838 57.750234 
L 272.208304 62.598755 
L 273.737769 68.921004 
L 275.267235 66.890638 
L 276.7967 69.066788 
L 278.326166 80.103887 
L 279.855631 77.946655 
L 281.385097 83.553252 
L 282.914562 85.190021 
L 284.444028 88.027935 
L 285.973493 84.278229 
L 287.502959 80.07503 
L 289.032424 79.558282 
L 290.56189 76.130999 
L 292.091355 88.768314 
L 293.620821 90.780833 
L 295.150286 86.383866 
L 296.679752 90.680628 
L 298.209217 97.30013 
L 299.738683 99.601477 
L 302.797614 103.669535 
L 304.327079 105.62719 
L 305.856545 108.221047 
L 307.38601 108.417242 
L 308.915476 114.677765 
L 310.444941 107.366271 
L 311.974407 105.875602 
L 313.503872 97.978446 
L 315.033338 103.514648 
L 316.562803 102.554241 
L 318.092269 99.805037 
L 319.621734 105.633739 
L 321.1512 109.7093 
L 322.680665 98.071969 
L 324.210131 93.641006 
L 325.739596 92.095902 
L 327.269062 94.697306 
L 328.798527 86.152319 
L 330.327993 85.534206 
L 331.857458 84.573204 
L 333.386924 78.373978 
L 334.916389 75.644755 
L 336.445855 77.130664 
L 337.97532 81.694351 
L 339.504786 83.682028 
L 341.034252 86.689623 
L 342.563717 94.27752 
L 344.093183 96.826633 
L 345.622648 92.446193 
L 347.152114 85.957392 
L 348.681579 93.988293 
L 350.211045 88.30167 
L 351.74051 84.746593 
L 353.269976 86.7951 
L 354.799441 83.506781 
L 356.328907 79.532205 
L 357.858372 74.034892 
L 359.387838 75.445627 
L 360.917303 75.17663 
L 362.446769 78.345687 
L 363.976234 77.547414 
L 365.5057 78.631535 
L 367.035165 76.181195 
L 368.564631 71.619914 
L 368.564631 71.619914 
" clip-path="url(#pcb0f779544)" style="fill: none; stroke: #1f77b4; stroke-width: 1.5; stroke-linecap: square"/>
   </g>
   <g id="line2d_17">
    <path d="M 64.200994 98.388951 
L 65.73046 102.888283 
L 67.259925 103.566478 
L 68.789391 106.786102 
L 70.318856 103.702655 
L 71.848322 102.550773 
L 73.377787 115.994232 
L 74.907253 114.700128 
L 76.436718 119.126426 
L 77.966184 114.434191 
L 79.495649 112.170246 
L 81.025115 114.484549 
L 82.55458 112.238141 
L 84.084046 127.857522 
L 85.613511 136.377788 
L 87.142977 143.247671 
L 88.672442 145.744297 
L 90.201908 153.551066 
L 91.731373 162.756136 
L 93.260839 157.087017 
L 94.790305 152.434672 
L 96.31977 157.227174 
L 97.849236 164.872375 
L 99.378701 177.436875 
L 100.908167 173.992905 
L 102.437632 181.6925 
L 103.967098 180.702953 
L 105.496563 176.013833 
L 107.026029 173.267187 
L 108.555494 166.200784 
L 110.08496 163.685995 
L 111.614425 162.556592 
L 113.143891 168.959364 
L 114.673356 167.909325 
L 116.202822 163.213856 
L 117.732287 156.712922 
L 119.261753 161.019035 
L 120.791218 163.269322 
L 122.320684 168.720811 
L 123.850149 171.333622 
L 125.379615 181.62169 
L 126.90908 172.624318 
L 128.438546 179.53544 
L 129.968011 177.160921 
L 131.497477 181.986145 
L 133.026942 174.265542 
L 134.556408 178.847148 
L 136.085873 181.423068 
L 137.615339 181.185013 
L 139.144804 186.113513 
L 140.67427 193.540742 
L 142.203735 186.089011 
L 143.733201 181.019753 
L 145.262666 177.292498 
L 146.792132 172.947809 
L 148.321597 174.214082 
L 149.851063 173.491688 
L 151.380528 184.578223 
L 154.439459 185.135264 
L 155.968925 190.684461 
L 157.49839 194.880694 
L 159.027856 195.262263 
L 160.557321 194.360738 
L 162.086787 198.029949 
L 163.616252 204.342892 
L 165.145718 204.739089 
L 166.675183 199.973293 
L 168.204649 201.792872 
L 169.734114 194.465157 
L 171.26358 195.911598 
L 172.793045 199.677946 
L 174.322511 195.297961 
L 175.851977 204.322973 
L 177.381442 207.474236 
L 178.910908 202.420943 
L 180.440373 211.718961 
L 181.969839 198.526719 
L 183.499304 193.853109 
L 185.02877 198.539244 
L 186.558235 205.649559 
L 188.087701 198.946698 
L 189.617166 200.845601 
L 192.676097 190.845989 
L 194.205563 191.300196 
L 195.735028 195.018998 
L 197.264494 201.085084 
L 198.793959 199.586344 
L 200.323425 197.121428 
L 201.85289 200.89703 
L 203.382356 183.602929 
L 204.911821 186.813343 
L 206.441287 185.245799 
L 207.970752 183.898672 
L 209.500218 192.158811 
L 211.029683 185.976358 
L 212.559149 181.36157 
L 214.088614 187.21061 
L 215.61808 193.916497 
L 217.147545 193.851221 
L 218.677011 205.077138 
L 220.206476 198.592575 
L 221.735942 199.7746 
L 223.265407 204.108117 
L 224.794873 203.262027 
L 226.324338 206.175516 
L 227.853804 203.31552 
L 229.383269 202.439141 
L 230.912735 199.594511 
L 232.4422 197.633333 
L 233.971666 201.88146 
L 235.501131 203.975355 
L 237.030597 201.778036 
L 238.560062 193.905913 
L 240.089528 196.659526 
L 241.618993 202.774478 
L 243.148459 209.471011 
L 244.677924 204.84803 
L 246.20739 204.382069 
L 247.736855 192.620109 
L 249.266321 209.199584 
L 250.795786 206.166332 
L 252.325252 203.825965 
L 253.854717 199.321907 
L 255.384183 189.402595 
L 256.913648 190.475514 
L 258.443114 191.960662 
L 259.97258 198.251607 
L 261.502045 199.414435 
L 263.031511 193.470524 
L 264.560976 195.868035 
L 266.090442 195.912597 
L 267.619907 195.513611 
L 269.149373 202.466619 
L 270.678838 201.211815 
L 272.208304 207.335683 
L 273.737769 198.586085 
L 275.267235 194.138099 
L 276.7967 198.917161 
L 278.326166 206.435162 
L 279.855631 210.262621 
L 281.385097 208.661878 
L 282.914562 199.287213 
L 284.444028 205.285017 
L 285.973493 205.572583 
L 287.502959 198.294454 
L 289.032424 192.203514 
L 290.56189 193.322556 
L 292.091355 191.631724 
L 293.620821 189.748967 
L 295.150286 191.084757 
L 296.679752 188.364039 
L 298.209217 198.161627 
L 299.738683 201.169593 
L 301.268148 199.586394 
L 302.797614 197.47263 
L 304.327079 200.973368 
L 305.856545 201.673013 
L 307.38601 208.87215 
L 308.915476 205.210302 
L 310.444941 200.524789 
L 311.974407 204.361244 
L 313.503872 206.908643 
L 315.033338 200.733564 
L 316.562803 203.127372 
L 318.092269 201.978381 
L 319.621734 208.548758 
L 321.1512 215.865166 
L 322.680665 210.856417 
L 324.210131 215.345704 
L 325.739596 220.466319 
L 327.269062 222.742331 
L 328.798527 216.205098 
L 330.327993 219.108553 
L 331.857458 216.529782 
L 333.386924 210.45446 
L 334.916389 209.472855 
L 336.445855 208.752033 
L 337.97532 196.826842 
L 339.504786 198.600015 
L 341.034252 194.856571 
L 342.563717 194.453817 
L 344.093183 196.033634 
L 345.622648 202.22299 
L 347.152114 205.522005 
L 348.681579 204.769605 
L 350.211045 198.696715 
L 351.74051 191.603217 
L 353.269976 189.65663 
L 354.799441 186.005142 
L 356.328907 185.857743 
L 357.858372 197.60583 
L 359.387838 206.136596 
L 360.917303 209.621886 
L 362.446769 207.880515 
L 363.976234 207.936416 
L 365.5057 206.961338 
L 368.564631 198.434753 
L 368.564631 198.434753 
" clip-path="url(#pcb0f779544)" style="fill: none; stroke: #ff7f0e; stroke-width: 1.5; stroke-linecap: square"/>
   </g>
   <g id="line2d_18">
    <path d="M 64.200994 97.933864 
L 65.73046 104.851589 
L 67.259925 104.352148 
L 68.789391 99.474371 
L 70.318856 101.660531 
L 71.848322 107.774254 
L 73.377787 113.416761 
L 74.907253 112.837099 
L 76.436718 116.236303 
L 77.966184 109.953583 
L 79.495649 112.896578 
L 81.025115 117.137154 
L 82.55458 115.101086 
L 84.084046 108.92392 
L 85.613511 110.636689 
L 87.142977 110.120897 
L 90.201908 107.223245 
L 91.731373 102.923223 
L 93.260839 111.153237 
L 94.790305 108.234606 
L 96.31977 108.075195 
L 97.849236 111.519127 
L 99.378701 115.745535 
L 100.908167 115.605757 
L 102.437632 124.544281 
L 103.967098 116.323703 
L 107.026029 130.349856 
L 108.555494 131.542155 
L 110.08496 145.604707 
L 111.614425 150.635048 
L 113.143891 156.63716 
L 114.673356 156.627907 
L 116.202822 162.810993 
L 117.732287 166.591411 
L 119.261753 161.259603 
L 120.791218 162.242209 
L 122.320684 160.110357 
L 123.850149 163.30727 
L 125.379615 158.608991 
L 126.90908 146.722111 
L 128.438546 150.389106 
L 129.968011 152.634742 
L 131.497477 147.499701 
L 133.026942 146.365802 
L 134.556408 144.583637 
L 136.085873 148.3647 
L 137.615339 144.185852 
L 139.144804 145.223613 
L 140.67427 143.904247 
L 142.203735 144.581004 
L 143.733201 146.176554 
L 145.262666 158.228636 
L 146.792132 153.233376 
L 148.321597 156.448531 
L 149.851063 163.613108 
L 151.380528 163.256013 
L 152.909994 156.448411 
L 154.439459 148.141791 
L 155.968925 147.750404 
L 157.49839 144.242331 
L 159.027856 138.505963 
L 160.557321 127.549829 
L 162.086787 123.158041 
L 163.616252 123.809938 
L 165.145718 126.509583 
L 166.675183 130.039313 
L 168.204649 131.046642 
L 169.734114 129.644955 
L 171.26358 126.379953 
L 172.793045 128.492188 
L 174.322511 130.302933 
L 175.851977 141.324973 
L 177.381442 136.872505 
L 178.910908 135.166725 
L 180.440373 139.358095 
L 181.969839 141.696589 
L 183.499304 158.406938 
L 186.558235 149.509562 
L 188.087701 149.766602 
L 189.617166 142.968663 
L 191.146632 130.351035 
L 192.676097 121.436116 
L 194.205563 120.784719 
L 195.735028 130.069456 
L 197.264494 128.39717 
L 198.793959 131.937145 
L 200.323425 126.280889 
L 201.85289 119.203308 
L 203.382356 125.622739 
L 204.911821 135.279042 
L 206.441287 134.131047 
L 207.970752 132.487286 
L 209.500218 127.326157 
L 211.029683 123.246609 
L 212.559149 125.574741 
L 214.088614 129.093728 
L 215.61808 137.532475 
L 217.147545 143.01545 
L 220.206476 129.987935 
L 221.735942 142.284065 
L 223.265407 139.58782 
L 224.794873 133.948315 
L 226.324338 140.164489 
L 227.853804 140.576673 
L 229.383269 141.454888 
L 230.912735 149.011286 
L 232.4422 158.794422 
L 233.971666 148.128726 
L 235.501131 151.555556 
L 237.030597 159.321113 
L 238.560062 152.115302 
L 240.089528 148.013626 
L 241.618993 149.14617 
L 243.148459 148.202382 
L 244.677924 151.564388 
L 246.20739 145.040448 
L 247.736855 142.768929 
L 249.266321 148.731723 
L 250.795786 145.920573 
L 252.325252 144.300957 
L 253.854717 149.230313 
L 255.384183 145.870488 
L 256.913648 149.000816 
L 258.443114 138.436567 
L 259.97258 131.173389 
L 261.502045 118.854537 
L 263.031511 119.17231 
L 264.560976 127.44966 
L 266.090442 124.733009 
L 267.619907 115.158858 
L 269.149373 116.784586 
L 270.678838 116.259122 
L 272.208304 114.577261 
L 273.737769 109.244114 
L 275.267235 109.347748 
L 276.7967 123.087637 
L 278.326166 113.338042 
L 279.855631 113.356278 
L 281.385097 116.333862 
L 282.914562 106.41467 
L 284.444028 105.084085 
L 285.973493 105.305894 
L 287.502959 110.666857 
L 289.032424 114.680563 
L 290.56189 120.158598 
L 292.091355 126.587555 
L 293.620821 123.184915 
L 296.679752 113.725034 
L 298.209217 112.149962 
L 299.738683 117.621694 
L 301.268148 110.657855 
L 302.797614 109.026351 
L 304.327079 110.377899 
L 305.856545 109.862421 
L 307.38601 109.613256 
L 308.915476 112.541383 
L 310.444941 110.045038 
L 311.974407 107.316344 
L 313.503872 105.577897 
L 315.033338 104.129727 
L 316.562803 103.977674 
L 318.092269 107.142212 
L 319.621734 104.129194 
L 321.1512 104.097573 
L 322.680665 109.465228 
L 324.210131 110.911052 
L 325.739596 103.487173 
L 327.269062 97.398603 
L 328.798527 90.256952 
L 330.327993 87.355895 
L 331.857458 91.025168 
L 333.386924 86.779751 
L 334.916389 96.154312 
L 336.445855 102.424803 
L 337.97532 103.839274 
L 339.504786 115.048064 
L 341.034252 110.765833 
L 342.563717 114.531899 
L 344.093183 117.45292 
L 345.622648 114.342858 
L 347.152114 113.175199 
L 348.681579 118.100637 
L 350.211045 111.169057 
L 351.74051 114.955743 
L 353.269976 121.170221 
L 354.799441 124.692039 
L 356.328907 129.683467 
L 357.858372 122.215865 
L 359.387838 128.336038 
L 360.917303 133.144563 
L 362.446769 125.962855 
L 363.976234 126.913649 
L 365.5057 122.838445 
L 367.035165 122.551371 
L 368.564631 123.422793 
L 368.564631 123.422793 
" clip-path="url(#pcb0f779544)" style="fill: none; stroke: #2ca02c; stroke-width: 1.5; stroke-linecap: square"/>
   </g>
   <g id="line2d_19">
    <path d="M 64.200994 100.048557 
L 65.73046 106.952789 
L 67.259925 109.593993 
L 68.789391 102.75746 
L 70.318856 106.678519 
L 71.848322 111.854906 
L 73.377787 115.930971 
L 74.907253 119.162236 
L 76.436718 125.52732 
L 77.966184 128.67528 
L 79.495649 116.10695 
L 81.025115 119.865224 
L 82.55458 118.770448 
L 84.084046 123.274314 
L 85.613511 126.948133 
L 87.142977 122.314552 
L 88.672442 120.491829 
L 90.201908 118.076124 
L 91.731373 118.827607 
L 93.260839 115.033618 
L 94.790305 112.699942 
L 96.31977 115.875441 
L 97.849236 115.477783 
L 99.378701 115.789207 
L 100.908167 115.309652 
L 102.437632 104.860407 
L 103.967098 107.086806 
L 105.496563 107.884652 
L 107.026029 111.019242 
L 108.555494 113.817672 
L 110.08496 116.30343 
L 111.614425 114.747909 
L 113.143891 112.697623 
L 114.673356 117.498535 
L 116.202822 116.990936 
L 117.732287 120.76371 
L 119.261753 129.207797 
L 120.791218 136.920532 
L 122.320684 139.300347 
L 123.850149 145.270543 
L 125.379615 145.829208 
L 126.90908 142.46203 
L 128.438546 141.425241 
L 129.968011 131.157942 
L 131.497477 131.330699 
L 133.026942 138.032295 
L 134.556408 138.469125 
L 136.085873 136.231137 
L 137.615339 140.207741 
L 139.144804 138.364003 
L 140.67427 134.604464 
L 142.203735 136.694902 
L 143.733201 151.663062 
L 145.262666 144.303406 
L 146.792132 142.322921 
L 148.321597 142.591038 
L 149.851063 138.775667 
L 151.380528 141.941773 
L 152.909994 140.793071 
L 154.439459 131.477762 
L 155.968925 121.342117 
L 157.49839 113.98606 
L 159.027856 119.753955 
L 160.557321 130.174495 
L 162.086787 127.934577 
L 163.616252 126.540582 
L 165.145718 122.960069 
L 166.675183 124.449607 
L 168.204649 130.584902 
L 169.734114 133.032002 
L 171.26358 128.273689 
L 172.793045 126.438066 
L 174.322511 137.722924 
L 175.851977 137.004965 
L 177.381442 130.040018 
L 178.910908 136.556423 
L 180.440373 138.447277 
L 181.969839 137.235032 
L 183.499304 131.72807 
L 185.02877 121.283649 
L 186.558235 134.73349 
L 188.087701 134.439504 
L 189.617166 139.547119 
L 191.146632 141.987091 
L 192.676097 143.467222 
L 194.205563 146.022959 
L 195.735028 142.74611 
L 197.264494 133.381085 
L 198.793959 139.073297 
L 201.85289 141.088106 
L 203.382356 137.715353 
L 204.911821 139.576951 
L 206.441287 147.253924 
L 207.970752 149.287354 
L 209.500218 149.326534 
L 211.029683 147.407113 
L 212.559149 147.852572 
L 214.088614 162.524723 
L 217.147545 174.869624 
L 218.677011 170.307635 
L 220.206476 167.056815 
L 221.735942 165.139867 
L 223.265407 158.054837 
L 224.794873 157.343289 
L 226.324338 162.961035 
L 227.853804 160.765885 
L 229.383269 167.618135 
L 230.912735 165.622768 
L 232.4422 169.293516 
L 233.971666 168.019487 
L 235.501131 169.926146 
L 237.030597 171.576365 
L 238.560062 165.993595 
L 240.089528 178.397519 
L 241.618993 173.226341 
L 243.148459 169.854291 
L 244.677924 166.773823 
L 246.20739 146.392195 
L 247.736855 155.399416 
L 249.266321 171.78175 
L 250.795786 167.35526 
L 252.325252 158.330258 
L 253.854717 148.158351 
L 255.384183 150.118266 
L 256.913648 158.172934 
L 258.443114 160.872178 
L 259.97258 158.479906 
L 261.502045 154.264343 
L 263.031511 150.860069 
L 264.560976 156.902629 
L 266.090442 159.861013 
L 267.619907 171.576999 
L 269.149373 162.902863 
L 270.678838 162.950443 
L 272.208304 155.244413 
L 273.737769 150.313657 
L 275.267235 146.441272 
L 276.7967 147.37218 
L 278.326166 153.011807 
L 279.855631 145.040475 
L 281.385097 147.554823 
L 282.914562 156.474829 
L 284.444028 163.787219 
L 285.973493 170.060867 
L 287.502959 175.856084 
L 289.032424 164.104698 
L 290.56189 161.328387 
L 292.091355 153.672485 
L 293.620821 155.601015 
L 295.150286 156.5843 
L 296.679752 160.475234 
L 298.209217 151.64382 
L 299.738683 160.148985 
L 301.268148 166.527867 
L 302.797614 168.750932 
L 304.327079 165.774277 
L 305.856545 159.908669 
L 307.38601 165.46452 
L 308.915476 171.838154 
L 310.444941 174.078919 
L 311.974407 171.330469 
L 313.503872 166.68233 
L 315.033338 170.757363 
L 316.562803 162.384813 
L 318.092269 159.914984 
L 319.621734 164.94232 
L 321.1512 159.039815 
L 322.680665 161.199153 
L 324.210131 163.607738 
L 325.739596 164.352705 
L 327.269062 160.801552 
L 328.798527 153.979244 
L 330.327993 153.160518 
L 331.857458 143.521897 
L 333.386924 138.209102 
L 334.916389 136.209629 
L 337.97532 124.076237 
L 339.504786 119.90805 
L 341.034252 111.853509 
L 342.563717 107.743813 
L 344.093183 109.254782 
L 345.622648 103.565255 
L 347.152114 112.259271 
L 348.681579 110.640862 
L 350.211045 112.876164 
L 351.74051 109.383424 
L 353.269976 106.886429 
L 354.799441 112.559665 
L 356.328907 114.671023 
L 357.858372 108.029506 
L 359.387838 113.582118 
L 360.917303 109.379372 
L 362.446769 107.641902 
L 363.976234 105.320493 
L 365.5057 107.400345 
L 367.035165 113.39151 
L 368.564631 110.043986 
L 368.564631 110.043986 
" clip-path="url(#pcb0f779544)" style="fill: none; stroke: #d62728; stroke-width: 1.5; stroke-linecap: square"/>
   </g>
   <g id="patch_3">
    <path d="M 48.982813 228.96 
L 48.982813 7.2 
" style="fill: none; stroke: #000000; stroke-width: 0.8; stroke-linejoin: miter; stroke-linecap: square"/>
   </g>
   <g id="patch_4">
    <path d="M 383.782813 228.96 
L 383.782813 7.2 
" style="fill: none; stroke: #000000; stroke-width: 0.8; stroke-linejoin: miter; stroke-linecap: square"/>
   </g>
   <g id="patch_5">
    <path d="M 48.982812 228.96 
L 383.782812 228.96 
" style="fill: none; stroke: #000000; stroke-width: 0.8; stroke-linejoin: miter; stroke-linecap: square"/>
   </g>
   <g id="patch_6">
    <path d="M 48.982812 7.2 
L 383.782812 7.2 
" style="fill: none; stroke: #000000; stroke-width: 0.8; stroke-linejoin: miter; stroke-linecap: square"/>
   </g>
   <g id="legend_1">
    <g id="patch_7">
     <path d="M 55.982813 73.9125 
L 95.682813 73.9125 
Q 97.682813 73.9125 97.682813 71.9125 
L 97.682813 14.2 
Q 97.682813 12.2 95.682813 12.2 
L 55.982813 12.2 
Q 53.982813 12.2 53.982813 14.2 
L 53.982813 71.9125 
Q 53.982813 73.9125 55.982813 73.9125 
z
" style="fill: #ffffff; opacity: 0.8; stroke: #cccccc; stroke-linejoin: miter"/>
    </g>
    <g id="line2d_20">
     <path d="M 57.982813 20.298437 
L 67.982812 20.298437 
L 77.982812 20.298437 
" style="fill: none; stroke: #1f77b4; stroke-width: 1.5; stroke-linecap: square"/>
    </g>
    <g id="text_18">
     <!-- A -->
     <g transform="translate(85.982812 23.798437) scale(0.1 -0.1)">
      <defs>
       <path id="DejaVuSans-41" d="M 2188 4044 
L 1331 1722 
L 3047 1722 
L 2188 4044 
z
M 1831 4666 
L 2547 4666 
L 4325 0 
L 3669 0 
L 3244 1197 
L 1141 1197 
L 716 0 
L 50 0 
L 1831 4666 
z
" transform="scale(0.015625)"/>
      </defs>
      <use xlink:href="#DejaVuSans-41"/>
     </g>
    </g>
    <g id="line2d_21">
     <path d="M 57.982813 34.976562 
L 67.982812 34.976562 
L 77.982812 34.976562 
" style="fill: none; stroke: #ff7f0e; stroke-width: 1.5; stroke-linecap: square"/>
    </g>
    <g id="text_19">
     <!-- B -->
     <g transform="translate(85.982812 38.476562) scale(0.1 -0.1)">
      <defs>
       <path id="DejaVuSans-42" d="M 1259 2228 
L 1259 519 
L 2272 519 
Q 2781 519 3026 730 
Q 3272 941 3272 1375 
Q 3272 1813 3026 2020 
Q 2781 2228 2272 2228 
L 1259 2228 
z
M 1259 4147 
L 1259 2741 
L 2194 2741 
Q 2656 2741 2882 2914 
Q 3109 3088 3109 3444 
Q 3109 3797 2882 3972 
Q 2656 4147 2194 4147 
L 1259 4147 
z
M 628 4666 
L 2241 4666 
Q 2963 4666 3353 4366 
Q 3744 4066 3744 3513 
Q 3744 3084 3544 2831 
Q 3344 2578 2956 2516 
Q 3422 2416 3680 2098 
Q 3938 1781 3938 1306 
Q 3938 681 3513 340 
Q 3088 0 2303 0 
L 628 0 
L 628 4666 
z
" transform="scale(0.015625)"/>
      </defs>
      <use xlink:href="#DejaVuSans-42"/>
     </g>
    </g>
    <g id="line2d_22">
     <path d="M 57.982813 49.654687 
L 67.982812 49.654687 
L 77.982812 49.654687 
" style="fill: none; stroke: #2ca02c; stroke-width: 1.5; stroke-linecap: square"/>
    </g>
    <g id="text_20">
     <!-- C -->
     <g transform="translate(85.982812 53.154687) scale(0.1 -0.1)">
      <defs>
       <path id="DejaVuSans-43" d="M 4122 4306 
L 4122 3641 
Q 3803 3938 3442 4084 
Q 3081 4231 2675 4231 
Q 1875 4231 1450 3742 
Q 1025 3253 1025 2328 
Q 1025 1406 1450 917 
Q 1875 428 2675 428 
Q 3081 428 3442 575 
Q 3803 722 4122 1019 
L 4122 359 
Q 3791 134 3420 21 
Q 3050 -91 2638 -91 
Q 1578 -91 968 557 
Q 359 1206 359 2328 
Q 359 3453 968 4101 
Q 1578 4750 2638 4750 
Q 3056 4750 3426 4639 
Q 3797 4528 4122 4306 
z
" transform="scale(0.015625)"/>
      </defs>
      <use xlink:href="#DejaVuSans-43"/>
     </g>
    </g>
    <g id="line2d_23">
     <path d="M 57.982813 64.332812 
L 67.982812 64.332812 
L 77.982812 64.332812 
" style="fill: none; stroke: #d62728; stroke-width: 1.5; stroke-linecap: square"/>
    </g>
    <g id="text_21">
     <!-- D -->
     <g transform="translate(85.982812 67.832812) scale(0.1 -0.1)">
      <defs>
       <path id="DejaVuSans-44" d="M 1259 4147 
L 1259 519 
L 2022 519 
Q 2988 519 3436 956 
Q 3884 1394 3884 2338 
Q 3884 3275 3436 3711 
Q 2988 4147 2022 4147 
L 1259 4147 
z
M 628 4666 
L 1925 4666 
Q 3281 4666 3915 4102 
Q 4550 3538 4550 2338 
Q 4550 1131 3912 565 
Q 3275 0 1925 0 
L 628 0 
L 628 4666 
z
" transform="scale(0.015625)"/>
      </defs>
      <use xlink:href="#DejaVuSans-44"/>
     </g>
    </g>
   </g>
  </g>
 </g>
 <defs>
  <clipPath id="pcb0f779544">
   <rect x="48.982813" y="7.2" width="334.8" height="221.76"/>
  </clipPath>
 </defs>
</svg>
