<?xml version="1.0" encoding="utf-8" standalone="no"?>
<!DOCTYPE svg PUBLIC "-//W3C//DTD SVG 1.1//EN"
  "http://www.w3.org/Graphics/SVG/1.1/DTD/svg11.dtd">
<svg xmlns:xlink="http://www.w3.org/1999/xlink" width="390.982812pt" height="266.51625pt" viewBox="0 0 390.982812 266.51625" xmlns="http://www.w3.org/2000/svg" version="1.1">
 <metadata>
  <rdf:RDF xmlns:dc="http://purl.org/dc/elements/1.1/" xmlns:cc="http://creativecommons.org/ns#" xmlns:rdf="http://www.w3.org/1999/02/22-rdf-syntax-ns#">
   <cc:Work>
    <dc:type rdf:resource="http://purl.org/dc/dcmitype/StillImage"/>
    <dc:date>2025-09-18T07:27:51.554972</dc:date>
    <dc:format>image/svg+xml</dc:format>
    <dc:creator>
     <cc:Agent>
      <dc:title>Matplotlib v3.10.5, https://matplotlib.org/</dc:title>
     </cc:Agent>
    </dc:creator>
   </cc:Work>
  </rdf:RDF>
 </metadata>
 <defs>
  <style type="text/css">*{stroke-linejoin: round; stroke-linecap: butt}</style>
 </defs>
 <g id="figure_1">
  <g id="patch_1">
   <path d="M 0 266.51625 
L 390.982812 266.51625 
L 390.982812 0 
L 0 0 
z
" style="fill: #ffffff"/>
  </g>
  <g id="axes_1">
   <g id="patch_2">
    <path d="M 48.982813 228.96 
L 383.782813 228.96 
L 383.782813 7.2 
L 48.982813 7.2 
z
" style="fill: #ffffff"/>
   </g>
   <g id="matplotlib.axis_1">
    <g id="xtick_1">
     <g id="line2d_1">
      <defs>
       <path id="m4e547c8548" d="M 0 0 
L 0 3.5 
" style="stroke: #000000; stroke-width: 0.8"/>
      </defs>
      <g>
       <use xlink:href="#m4e547c8548" x="64.200994" y="228.96" style="stroke: #000000; stroke-width: 0.8"/>
      </g>
     </g>
     <g id="text_1">
      <!-- 2000-01 -->
      <g transform="translate(43.309588 243.558437) scale(0.1 -0.1)">
       <defs>
        <path id="DejaVuSans-32" d="M 1228 531 
L 3431 531 
L 3431 0 
L 469 0 
L 469 531 
Q 828 903 1448 1529 
Q 2069 2156 2228 2338 
Q 2531 2678 2651 2914 
Q 2772 3150 2772 3378 
Q 2772 3750 2511 3984 
Q 2250 4219 1831 4219 
Q 1534 4219 1204 4116 
Q 875 4013 500 3803 
L 500 4441 
Q 881 4594 1212 4672 
Q 1544 4750 1819 4750 
Q 2544 4750 2975 4387 
Q 3406 4025 3406 3419 
Q 3406 3131 3298 2873 
Q 3191 2616 2906 2266 
Q 2828 2175 2409 1742 
Q 1991 1309 1228 531 
z
" transform="scale(0.015625)"/>
        <path id="DejaVuSans-30" d="M 2034 4250 
Q 1547 4250 1301 3770 
Q 1056 3291 1056 2328 
Q 1056 1369 1301 889 
Q 1547 409 2034 409 
Q 2525 409 2770 889 
Q 3016 1369 3016 2328 
Q 3016 3291 2770 3770 
Q 2525 4250 2034 4250 
z
M 2034 4750 
Q 2819 4750 3233 4129 
Q 3647 3509 3647 2328 
Q 3647 1150 3233 529 
Q 2819 -91 2034 -91 
Q 1250 -91 836 529 
Q 422 1150 422 2328 
Q 422 3509 836 4129 
Q 1250 4750 2034 4750 
z
" transform="scale(0.015625)"/>
        <path id="DejaVuSans-2d" d="M 313 2009 
L 1997 2009 
L 1997 1497 
L 313 1497 
L 313 2009 
z
" transform="scale(0.015625)"/>
        <path id="DejaVuSans-31" d="M 794 531 
L 1825 531 
L 1825 4091 
L 703 3866 
L 703 4441 
L 1819 4666 
L 2450 4666 
L 2450 531 
L 3481 531 
L 3481 0 
L 794 0 
L 794 531 
z
" transform="scale(0.015625)"/>
       </defs>
       <use xlink:href="#DejaVuSans-32"/>
       <use xlink:href="#DejaVuSans-30" transform="translate(63.623047 0)"/>
       <use xlink:href="#DejaVuSans-30" transform="translate(127.246094 0)"/>
       <use xlink:href="#DejaVuSans-30" transform="translate(190.869141 0)"/>
       <use xlink:href="#DejaVuSans-2d" transform="translate(254.492188 0)"/>
       <use xlink:href="#DejaVuSans-30" transform="translate(290.576172 0)"/>
       <use xlink:href="#DejaVuSans-31" transform="translate(354.199219 0)"/>
      </g>
     </g>
    </g>
    <g id="xtick_2">
     <g id="line2d_2">
      <g>
       <use xlink:href="#m4e547c8548" x="111.614425" y="228.96" style="stroke: #000000; stroke-width: 0.8"/>
      </g>
     </g>
     <g id="text_2">
      <!-- 2000-02 -->
      <g transform="translate(90.723019 243.558437) scale(0.1 -0.1)">
       <use xlink:href="#DejaVuSans-32"/>
       <use xlink:href="#DejaVuSans-30" transform="translate(63.623047 0)"/>
       <use xlink:href="#DejaVuSans-30" transform="translate(127.246094 0)"/>
       <use xlink:href="#DejaVuSans-30" transform="translate(190.869141 0)"/>
       <use xlink:href="#DejaVuSans-2d" transform="translate(254.492188 0)"/>
       <use xlink:href="#DejaVuSans-30" transform="translate(290.576172 0)"/>
       <use xlink:href="#DejaVuSans-32" transform="translate(354.199219 0)"/>
      </g>
     </g>
    </g>
    <g id="xtick_3">
     <g id="line2d_3">
      <g>
       <use xlink:href="#m4e547c8548" x="155.968925" y="228.96" style="stroke: #000000; stroke-width: 0.8"/>
      </g>
     </g>
     <g id="text_3">
      <!-- 2000-03 -->
      <g transform="translate(135.077519 243.558437) scale(0.1 -0.1)">
       <defs>
        <path id="DejaVuSans-33" d="M 2597 2516 
Q 3050 2419 3304 2112 
Q 3559 1806 3559 1356 
Q 3559 666 3084 287 
Q 2609 -91 1734 -91 
Q 1441 -91 1130 -33 
Q 819 25 488 141 
L 488 750 
Q 750 597 1062 519 
Q 1375 441 1716 441 
Q 2309 441 2620 675 
Q 2931 909 2931 1356 
Q 2931 1769 2642 2001 
Q 2353 2234 1838 2234 
L 1294 2234 
L 1294 2753 
L 1863 2753 
Q 2328 2753 2575 2939 
Q 2822 3125 2822 3475 
Q 2822 3834 2567 4026 
Q 2313 4219 1838 4219 
Q 1578 4219 1281 4162 
Q 984 4106 628 3988 
L 628 4550 
Q 988 4650 1302 4700 
Q 1616 4750 1894 4750 
Q 2613 4750 3031 4423 
Q 3450 4097 3450 3541 
Q 3450 3153 3228 2886 
Q 3006 2619 2597 2516 
z
" transform="scale(0.015625)"/>
       </defs>
       <use xlink:href="#DejaVuSans-32"/>
       <use xlink:href="#DejaVuSans-30" transform="translate(63.623047 0)"/>
       <use xlink:href="#DejaVuSans-30" transform="translate(127.246094 0)"/>
       <use xlink:href="#DejaVuSans-30" transform="translate(190.869141 0)"/>
       <use xlink:href="#DejaVuSans-2d" transform="translate(254.492188 0)"/>
       <use xlink:href="#DejaVuSans-30" transform="translate(290.576172 0)"/>
       <use xlink:href="#DejaVuSans-33" transform="translate(354.199219 0)"/>
      </g>
     </g>
    </g>
    <g id="xtick_4">
     <g id="line2d_4">
      <g>
       <use xlink:href="#m4e547c8548" x="203.382356" y="228.96" style="stroke: #000000; stroke-width: 0.8"/>
      </g>
     </g>
     <g id="text_4">
      <!-- 2000-04 -->
      <g transform="translate(182.490949 243.558437) scale(0.1 -0.1)">
       <defs>
        <path id="DejaVuSans-34" d="M 2419 4116 
L 825 1625 
L 2419 1625 
L 2419 4116 
z
M 2253 4666 
L 3047 4666 
L 3047 1625 
L 3713 1625 
L 3713 1100 
L 3047 1100 
L 3047 0 
L 2419 0 
L 2419 1100 
L 313 1100 
L 313 1709 
L 2253 4666 
z
" transform="scale(0.015625)"/>
       </defs>
       <use xlink:href="#DejaVuSans-32"/>
       <use xlink:href="#DejaVuSans-30" transform="translate(63.623047 0)"/>
       <use xlink:href="#DejaVuSans-30" transform="translate(127.246094 0)"/>
       <use xlink:href="#DejaVuSans-30" transform="translate(190.869141 0)"/>
       <use xlink:href="#DejaVuSans-2d" transform="translate(254.492188 0)"/>
       <use xlink:href="#DejaVuSans-30" transform="translate(290.576172 0)"/>
       <use xlink:href="#DejaVuSans-34" transform="translate(354.199219 0)"/>
      </g>
     </g>
    </g>
    <g id="xtick_5">
     <g id="line2d_5">
      <g>
       <use xlink:href="#m4e547c8548" x="249.266321" y="228.96" style="stroke: #000000; stroke-width: 0.8"/>
      </g>
     </g>
     <g id="text_5">
      <!-- 2000-05 -->
      <g transform="translate(228.374915 243.558437) scale(0.1 -0.1)">
       <defs>
        <path id="DejaVuSans-35" d="M 691 4666 
L 3169 4666 
L 3169 4134 
L 1269 4134 
L 1269 2991 
Q 1406 3038 1543 3061 
Q 1681 3084 1819 3084 
Q 2600 3084 3056 2656 
Q 3513 2228 3513 1497 
Q 3513 744 3044 326 
Q 2575 -91 1722 -91 
Q 1428 -91 1123 -41 
Q 819 9 494 109 
L 494 744 
Q 775 591 1075 516 
Q 1375 441 1709 441 
Q 2250 441 2565 725 
Q 2881 1009 2881 1497 
Q 2881 1984 2565 2268 
Q 2250 2553 1709 2553 
Q 1456 2553 1204 2497 
Q 953 2441 691 2322 
L 691 4666 
z
" transform="scale(0.015625)"/>
       </defs>
       <use xlink:href="#DejaVuSans-32"/>
       <use xlink:href="#DejaVuSans-30" transform="translate(63.623047 0)"/>
       <use xlink:href="#DejaVuSans-30" transform="translate(127.246094 0)"/>
       <use xlink:href="#DejaVuSans-30" transform="translate(190.869141 0)"/>
       <use xlink:href="#DejaVuSans-2d" transform="translate(254.492188 0)"/>
       <use xlink:href="#DejaVuSans-30" transform="translate(290.576172 0)"/>
       <use xlink:href="#DejaVuSans-35" transform="translate(354.199219 0)"/>
      </g>
     </g>
    </g>
    <g id="xtick_6">
     <g id="line2d_6">
      <g>
       <use xlink:href="#m4e547c8548" x="296.679752" y="228.96" style="stroke: #000000; stroke-width: 0.8"/>
      </g>
     </g>
     <g id="text_6">
      <!-- 2000-06 -->
      <g transform="translate(275.788345 243.558437) scale(0.1 -0.1)">
       <defs>
        <path id="DejaVuSans-36" d="M 2113 2584 
Q 1688 2584 1439 2293 
Q 1191 2003 1191 1497 
Q 1191 994 1439 701 
Q 1688 409 2113 409 
Q 2538 409 2786 701 
Q 3034 994 3034 1497 
Q 3034 2003 2786 2293 
Q 2538 2584 2113 2584 
z
M 3366 4563 
L 3366 3988 
Q 3128 4100 2886 4159 
Q 2644 4219 2406 4219 
Q 1781 4219 1451 3797 
Q 1122 3375 1075 2522 
Q 1259 2794 1537 2939 
Q 1816 3084 2150 3084 
Q 2853 3084 3261 2657 
Q 3669 2231 3669 1497 
Q 3669 778 3244 343 
Q 2819 -91 2113 -91 
Q 1303 -91 875 529 
Q 447 1150 447 2328 
Q 447 3434 972 4092 
Q 1497 4750 2381 4750 
Q 2619 4750 2861 4703 
Q 3103 4656 3366 4563 
z
" transform="scale(0.015625)"/>
       </defs>
       <use xlink:href="#DejaVuSans-32"/>
       <use xlink:href="#DejaVuSans-30" transform="translate(63.623047 0)"/>
       <use xlink:href="#DejaVuSans-30" transform="translate(127.246094 0)"/>
       <use xlink:href="#DejaVuSans-30" transform="translate(190.869141 0)"/>
       <use xlink:href="#DejaVuSans-2d" transform="translate(254.492188 0)"/>
       <use xlink:href="#DejaVuSans-30" transform="translate(290.576172 0)"/>
       <use xlink:href="#DejaVuSans-36" transform="translate(354.199219 0)"/>
      </g>
     </g>
    </g>
    <g id="xtick_7">
     <g id="line2d_7">
      <g>
       <use xlink:href="#m4e547c8548" x="342.563717" y="228.96" style="stroke: #000000; stroke-width: 0.8"/>
      </g>
     </g>
     <g id="text_7">
      <!-- 2000-07 -->
      <g transform="translate(321.672311 243.558437) scale(0.1 -0.1)">
       <defs>
        <path id="DejaVuSans-37" d="M 525 4666 
L 3525 4666 
L 3525 4397 
L 1831 0 
L 1172 0 
L 2766 4134 
L 525 4134 
L 525 4666 
z
" transform="scale(0.015625)"/>
       </defs>
       <use xlink:href="#DejaVuSans-32"/>
       <use xlink:href="#DejaVuSans-30" transform="translate(63.623047 0)"/>
       <use xlink:href="#DejaVuSans-30" transform="translate(127.246094 0)"/>
       <use xlink:href="#DejaVuSans-30" transform="translate(190.869141 0)"/>
       <use xlink:href="#DejaVuSans-2d" transform="translate(254.492188 0)"/>
       <use xlink:href="#DejaVuSans-30" transform="translate(290.576172 0)"/>
       <use xlink:href="#DejaVuSans-37" transform="translate(354.199219 0)"/>
      </g>
     </g>
    </g>
    <g id="text_8">
     <!-- row [datetime] -->
     <g transform="translate(179.229688 257.236562) scale(0.1 -0.1)">
      <defs>
       <path id="DejaVuSans-72" d="M 2631 2963 
Q 2534 3019 2420 3045 
Q 2306 3072 2169 3072 
Q 1681 3072 1420 2755 
Q 1159 2438 1159 1844 
L 1159 0 
L 581 0 
L 581 3500 
L 1159 3500 
L 1159 2956 
Q 1341 3275 1631 3429 
Q 1922 3584 2338 3584 
Q 2397 3584 2469 3576 
Q 2541 3569 2628 3553 
L 2631 2963 
z
" transform="scale(0.015625)"/>
       <path id="DejaVuSans-6f" d="M 1959 3097 
Q 1497 3097 1228 2736 
Q 959 2375 959 1747 
Q 959 1119 1226 758 
Q 1494 397 1959 397 
Q 2419 397 2687 759 
Q 2956 1122 2956 1747 
Q 2956 2369 2687 2733 
Q 2419 3097 1959 3097 
z
M 1959 3584 
Q 2709 3584 3137 3096 
Q 3566 2609 3566 1747 
Q 3566 888 3137 398 
Q 2709 -91 1959 -91 
Q 1206 -91 779 398 
Q 353 888 353 1747 
Q 353 2609 779 3096 
Q 1206 3584 1959 3584 
z
" transform="scale(0.015625)"/>
       <path id="DejaVuSans-77" d="M 269 3500 
L 844 3500 
L 1563 769 
L 2278 3500 
L 2956 3500 
L 3675 769 
L 4391 3500 
L 4966 3500 
L 4050 0 
L 3372 0 
L 2619 2869 
L 1863 0 
L 1184 0 
L 269 3500 
z
" transform="scale(0.015625)"/>
       <path id="DejaVuSans-20" transform="scale(0.015625)"/>
       <path id="DejaVuSans-5b" d="M 550 4863 
L 1875 4863 
L 1875 4416 
L 1125 4416 
L 1125 -397 
L 1875 -397 
L 1875 -844 
L 550 -844 
L 550 4863 
z
" transform="scale(0.015625)"/>
       <path id="DejaVuSans-64" d="M 2906 2969 
L 2906 4863 
L 3481 4863 
L 3481 0 
L 2906 0 
L 2906 525 
Q 2725 213 2448 61 
Q 2172 -91 1784 -91 
Q 1150 -91 751 415 
Q 353 922 353 1747 
Q 353 2572 751 3078 
Q 1150 3584 1784 3584 
Q 2172 3584 2448 3432 
Q 2725 3281 2906 2969 
z
M 947 1747 
Q 947 1113 1208 752 
Q 1469 391 1925 391 
Q 2381 391 2643 752 
Q 2906 1113 2906 1747 
Q 2906 2381 2643 2742 
Q 2381 3103 1925 3103 
Q 1469 3103 1208 2742 
Q 947 2381 947 1747 
z
" transform="scale(0.015625)"/>
       <path id="DejaVuSans-61" d="M 2194 1759 
Q 1497 1759 1228 1600 
Q 959 1441 959 1056 
Q 959 750 1161 570 
Q 1363 391 1709 391 
Q 2188 391 2477 730 
Q 2766 1069 2766 1631 
L 2766 1759 
L 2194 1759 
z
M 3341 1997 
L 3341 0 
L 2766 0 
L 2766 531 
Q 2569 213 2275 61 
Q 1981 -91 1556 -91 
Q 1019 -91 701 211 
Q 384 513 384 1019 
Q 384 1609 779 1909 
Q 1175 2209 1959 2209 
L 2766 2209 
L 2766 2266 
Q 2766 2663 2505 2880 
Q 2244 3097 1772 3097 
Q 1472 3097 1187 3025 
Q 903 2953 641 2809 
L 641 3341 
Q 956 3463 1253 3523 
Q 1550 3584 1831 3584 
Q 2591 3584 2966 3190 
Q 3341 2797 3341 1997 
z
" transform="scale(0.015625)"/>
       <path id="DejaVuSans-74" d="M 1172 4494 
L 1172 3500 
L 2356 3500 
L 2356 3053 
L 1172 3053 
L 1172 1153 
Q 1172 725 1289 603 
Q 1406 481 1766 481 
L 2356 481 
L 2356 0 
L 1766 0 
Q 1100 0 847 248 
Q 594 497 594 1153 
L 594 3053 
L 172 3053 
L 172 3500 
L 594 3500 
L 594 4494 
L 1172 4494 
z
" transform="scale(0.015625)"/>
       <path id="DejaVuSans-65" d="M 3597 1894 
L 3597 1613 
L 953 1613 
Q 991 1019 1311 708 
Q 1631 397 2203 397 
Q 2534 397 2845 478 
Q 3156 559 3463 722 
L 3463 178 
Q 3153 47 2828 -22 
Q 2503 -91 2169 -91 
Q 1331 -91 842 396 
Q 353 884 353 1716 
Q 353 2575 817 3079 
Q 1281 3584 2069 3584 
Q 2775 3584 3186 3129 
Q 3597 2675 3597 1894 
z
M 3022 2063 
Q 3016 2534 2758 2815 
Q 2500 3097 2075 3097 
Q 1594 3097 1305 2825 
Q 1016 2553 972 2059 
L 3022 2063 
z
" transform="scale(0.015625)"/>
       <path id="DejaVuSans-69" d="M 603 3500 
L 1178 3500 
L 1178 0 
L 603 0 
L 603 3500 
z
M 603 4863 
L 1178 4863 
L 1178 4134 
L 603 4134 
L 603 4863 
z
" transform="scale(0.015625)"/>
       <path id="DejaVuSans-6d" d="M 3328 2828 
Q 3544 3216 3844 3400 
Q 4144 3584 4550 3584 
Q 5097 3584 5394 3201 
Q 5691 2819 5691 2113 
L 5691 0 
L 5113 0 
L 5113 2094 
Q 5113 2597 4934 2840 
Q 4756 3084 4391 3084 
Q 3944 3084 3684 2787 
Q 3425 2491 3425 1978 
L 3425 0 
L 2847 0 
L 2847 2094 
Q 2847 2600 2669 2842 
Q 2491 3084 2119 3084 
Q 1678 3084 1418 2786 
Q 1159 2488 1159 1978 
L 1159 0 
L 581 0 
L 581 3500 
L 1159 3500 
L 1159 2956 
Q 1356 3278 1631 3431 
Q 1906 3584 2284 3584 
Q 2666 3584 2933 3390 
Q 3200 3197 3328 2828 
z
" transform="scale(0.015625)"/>
       <path id="DejaVuSans-5d" d="M 1947 4863 
L 1947 -844 
L 622 -844 
L 622 -397 
L 1369 -397 
L 1369 4416 
L 622 4416 
L 622 4863 
L 1947 4863 
z
" transform="scale(0.015625)"/>
      </defs>
      <use xlink:href="#DejaVuSans-72"/>
      <use xlink:href="#DejaVuSans-6f" transform="translate(38.863281 0)"/>
      <use xlink:href="#DejaVuSans-77" transform="translate(100.044922 0)"/>
      <use xlink:href="#DejaVuSans-20" transform="translate(181.832031 0)"/>
      <use xlink:href="#DejaVuSans-5b" transform="translate(213.619141 0)"/>
      <use xlink:href="#DejaVuSans-64" transform="translate(252.632812 0)"/>
      <use xlink:href="#DejaVuSans-61" transform="translate(316.109375 0)"/>
      <use xlink:href="#DejaVuSans-74" transform="translate(377.388672 0)"/>
      <use xlink:href="#DejaVuSans-65" transform="translate(416.597656 0)"/>
      <use xlink:href="#DejaVuSans-74" transform="translate(478.121094 0)"/>
      <use xlink:href="#DejaVuSans-69" transform="translate(517.330078 0)"/>
      <use xlink:href="#DejaVuSans-6d" transform="translate(545.113281 0)"/>
      <use xlink:href="#DejaVuSans-65" transform="translate(642.525391 0)"/>
      <use xlink:href="#DejaVuSans-5d" transform="translate(704.048828 0)"/>
     </g>
    </g>
   </g>
   <g id="matplotlib.axis_2">
    <g id="ytick_1">
     <g id="line2d_8">
      <defs>
       <path id="m9c6b9b939a" d="M 0 0 
L -3.5 0 
" style="stroke: #000000; stroke-width: 0.8"/>
      </defs>
      <g>
       <use xlink:href="#m9c6b9b939a" x="48.982813" y="225.765481" style="stroke: #000000; stroke-width: 0.8"/>
      </g>
     </g>
     <g id="text_9">
      <!-- −25 -->
      <g transform="translate(20.878125 229.5647) scale(0.1 -0.1)">
       <defs>
        <path id="DejaVuSans-2212" d="M 678 2272 
L 4684 2272 
L 4684 1741 
L 678 1741 
L 678 2272 
z
" transform="scale(0.015625)"/>
       </defs>
       <use xlink:href="#DejaVuSans-2212"/>
       <use xlink:href="#DejaVuSans-32" transform="translate(83.789062 0)"/>
       <use xlink:href="#DejaVuSans-35" transform="translate(147.412109 0)"/>
      </g>
     </g>
    </g>
    <g id="ytick_2">
     <g id="line2d_9">
      <g>
       <use xlink:href="#m9c6b9b939a" x="48.982813" y="188.893921" style="stroke: #000000; stroke-width: 0.8"/>
      </g>
     </g>
     <g id="text_10">
      <!-- −20 -->
      <g transform="translate(20.878125 192.69314) scale(0.1 -0.1)">
       <use xlink:href="#DejaVuSans-2212"/>
       <use xlink:href="#DejaVuSans-32" transform="translate(83.789062 0)"/>
       <use xlink:href="#DejaVuSans-30" transform="translate(147.412109 0)"/>
      </g>
     </g>
    </g>
    <g id="ytick_3">
     <g id="line2d_10">
      <g>
       <use xlink:href="#m9c6b9b939a" x="48.982813" y="152.02236" style="stroke: #000000; stroke-width: 0.8"/>
      </g>
     </g>
     <g id="text_11">
      <!-- −15 -->
      <g transform="translate(20.878125 155.821579) scale(0.1 -0.1)">
       <use xlink:href="#DejaVuSans-2212"/>
       <use xlink:href="#DejaVuSans-31" transform="translate(83.789062 0)"/>
       <use xlink:href="#DejaVuSans-35" transform="translate(147.412109 0)"/>
      </g>
     </g>
    </g>
    <g id="ytick_4">
     <g id="line2d_11">
      <g>
       <use xlink:href="#m9c6b9b939a" x="48.982813" y="115.1508" style="stroke: #000000; stroke-width: 0.8"/>
      </g>
     </g>
     <g id="text_12">
      <!-- −10 -->
      <g transform="translate(20.878125 118.950019) scale(0.1 -0.1)">
       <use xlink:href="#DejaVuSans-2212"/>
       <use xlink:href="#DejaVuSans-31" transform="translate(83.789062 0)"/>
       <use xlink:href="#DejaVuSans-30" transform="translate(147.412109 0)"/>
      </g>
     </g>
    </g>
    <g id="ytick_5">
     <g id="line2d_12">
      <g>
       <use xlink:href="#m9c6b9b939a" x="48.982813" y="78.27924" style="stroke: #000000; stroke-width: 0.8"/>
      </g>
     </g>
     <g id="text_13">
      <!-- −5 -->
      <g transform="translate(27.240625 82.078458) scale(0.1 -0.1)">
       <use xlink:href="#DejaVuSans-2212"/>
       <use xlink:href="#DejaVuSans-35" transform="translate(83.789062 0)"/>
      </g>
     </g>
    </g>
    <g id="ytick_6">
     <g id="line2d_13">
      <g>
       <use xlink:href="#m9c6b9b939a" x="48.982813" y="41.407679" style="stroke: #000000; stroke-width: 0.8"/>
      </g>
     </g>
     <g id="text_14">
      <!-- 0 -->
      <g transform="translate(35.620312 45.206898) scale(0.1 -0.1)">
       <use xlink:href="#DejaVuSans-30"/>
      </g>
     </g>
    </g>
    <g id="text_15">
     <!-- [dimensionless] -->
     <g transform="translate(14.798437 157.557344) rotate(-90) scale(0.1 -0.1)">
      <defs>
       <path id="DejaVuSans-6e" d="M 3513 2113 
L 3513 0 
L 2938 0 
L 2938 2094 
Q 2938 2591 2744 2837 
Q 2550 3084 2163 3084 
Q 1697 3084 1428 2787 
Q 1159 2491 1159 1978 
L 1159 0 
L 581 0 
L 581 3500 
L 1159 3500 
L 1159 2956 
Q 1366 3272 1645 3428 
Q 1925 3584 2291 3584 
Q 2894 3584 3203 3211 
Q 3513 2838 3513 2113 
z
" transform="scale(0.015625)"/>
       <path id="DejaVuSans-73" d="M 2834 3397 
L 2834 2853 
Q 2591 2978 2328 3040 
Q 2066 3103 1784 3103 
Q 1356 3103 1142 2972 
Q 928 2841 928 2578 
Q 928 2378 1081 2264 
Q 1234 2150 1697 2047 
L 1894 2003 
Q 2506 1872 2764 1633 
Q 3022 1394 3022 966 
Q 3022 478 2636 193 
Q 2250 -91 1575 -91 
Q 1294 -91 989 -36 
Q 684 19 347 128 
L 347 722 
Q 666 556 975 473 
Q 1284 391 1588 391 
Q 1994 391 2212 530 
Q 2431 669 2431 922 
Q 2431 1156 2273 1281 
Q 2116 1406 1581 1522 
L 1381 1569 
Q 847 1681 609 1914 
Q 372 2147 372 2553 
Q 372 3047 722 3315 
Q 1072 3584 1716 3584 
Q 2034 3584 2315 3537 
Q 2597 3491 2834 3397 
z
" transform="scale(0.015625)"/>
       <path id="DejaVuSans-6c" d="M 603 4863 
L 1178 4863 
L 1178 0 
L 603 0 
L 603 4863 
z
" transform="scale(0.015625)"/>
      </defs>
      <use xlink:href="#DejaVuSans-5b"/>
      <use xlink:href="#DejaVuSans-64" transform="translate(39.013672 0)"/>
      <use xlink:href="#DejaVuSans-69" transform="translate(102.490234 0)"/>
      <use xlink:href="#DejaVuSans-6d" transform="translate(130.273438 0)"/>
      <use xlink:href="#DejaVuSans-65" transform="translate(227.685547 0)"/>
      <use xlink:href="#DejaVuSans-6e" transform="translate(289.208984 0)"/>
      <use xlink:href="#DejaVuSans-73" transform="translate(352.587891 0)"/>
      <use xlink:href="#DejaVuSans-69" transform="translate(404.6875 0)"/>
      <use xlink:href="#DejaVuSans-6f" transform="translate(432.470703 0)"/>
      <use xlink:href="#DejaVuSans-6e" transform="translate(493.652344 0)"/>
      <use xlink:href="#DejaVuSans-6c" transform="translate(557.03125 0)"/>
      <use xlink:href="#DejaVuSans-65" transform="translate(584.814453 0)"/>
      <use xlink:href="#DejaVuSans-73" transform="translate(646.337891 0)"/>
      <use xlink:href="#DejaVuSans-73" transform="translate(698.4375 0)"/>
      <use xlink:href="#DejaVuSans-5d" transform="translate(750.537109 0)"/>
     </g>
    </g>
   </g>
   <g id="line2d_14">
    <path d="M 64.200994 41.438096 
L 65.73046 45.378344 
L 67.259925 67.23053 
L 68.789391 69.614347 
L 70.318856 73.974954 
L 71.848322 74.712516 
L 73.377787 71.020691 
L 74.907253 74.149185 
L 76.436718 91.426708 
L 77.966184 99.373502 
L 79.495649 95.130446 
L 81.025115 92.900643 
L 82.55458 90.421745 
L 84.084046 91.443536 
L 85.613511 93.167166 
L 87.142977 97.298772 
L 88.672442 91.849028 
L 90.201908 91.203772 
L 91.731373 96.709994 
L 93.260839 103.291145 
L 94.790305 107.958193 
L 96.31977 117.4865 
L 97.849236 118.178759 
L 99.378701 121.507224 
L 100.908167 117.062991 
L 102.437632 129.355289 
L 103.967098 133.538699 
L 105.496563 123.633976 
L 107.026029 127.644968 
L 108.555494 130.471803 
L 110.08496 136.542615 
L 111.614425 153.328895 
L 113.143891 152.184115 
L 114.673356 133.298244 
L 117.732287 166.377164 
L 119.261753 163.16411 
L 120.791218 153.83873 
L 122.320684 150.898464 
L 123.850149 145.05862 
L 125.379615 153.568035 
L 126.90908 164.330277 
L 128.438546 159.963094 
L 129.968011 141.201374 
L 131.497477 139.145697 
L 133.026942 149.497616 
L 134.556408 146.152083 
L 136.085873 143.427277 
L 137.615339 141.727088 
L 139.144804 137.013775 
L 140.67427 133.033142 
L 142.203735 131.177278 
L 143.733201 121.602866 
L 145.262666 110.754806 
L 146.792132 113.120315 
L 148.321597 111.634675 
L 149.851063 107.38439 
L 151.380528 97.41604 
L 152.909994 91.488302 
L 154.439459 88.273282 
L 155.968925 86.118113 
L 157.49839 78.601188 
L 160.557321 77.903269 
L 162.086787 74.557189 
L 163.616252 71.864174 
L 165.145718 63.487401 
L 166.675183 63.476683 
L 168.204649 80.091201 
L 169.734114 75.116977 
L 171.26358 86.197894 
L 172.793045 88.362594 
L 174.322511 92.389419 
L 175.851977 88.006222 
L 177.381442 86.682876 
L 178.910908 93.32186 
L 180.440373 79.003197 
L 181.969839 73.730472 
L 183.499304 76.940872 
L 185.02877 71.206256 
L 186.558235 59.807384 
L 188.087701 74.070667 
L 189.617166 65.600342 
L 191.146632 69.75078 
L 192.676097 75.530019 
L 195.735028 93.463124 
L 197.264494 98.913688 
L 198.793959 94.045141 
L 200.323425 98.849165 
L 201.85289 102.400667 
L 203.382356 104.367429 
L 204.911821 115.945151 
L 206.441287 110.057944 
L 207.970752 116.403264 
L 209.500218 126.344846 
L 211.029683 124.469729 
L 212.559149 132.565653 
L 214.088614 122.321991 
L 215.61808 120.738625 
L 217.147545 117.542577 
L 218.677011 122.27957 
L 220.206476 123.376509 
L 221.735942 134.239118 
L 223.265407 127.724003 
L 224.794873 121.904571 
L 226.324338 130.796451 
L 227.853804 130.320242 
L 229.383269 127.992952 
L 230.912735 122.152233 
L 232.4422 119.741629 
L 233.971666 127.880524 
L 235.501131 139.377785 
L 237.030597 143.389752 
L 238.560062 145.706834 
L 240.089528 150.03808 
L 241.618993 147.100799 
L 243.148459 139.019039 
L 244.677924 134.182784 
L 246.20739 140.424902 
L 247.736855 145.081807 
L 249.266321 124.315471 
L 250.795786 141.433209 
L 252.325252 139.663486 
L 253.854717 133.68753 
L 255.384183 125.761 
L 256.913648 132.317567 
L 258.443114 138.161792 
L 259.97258 118.927271 
L 261.502045 117.47132 
L 263.031511 114.071022 
L 264.560976 123.990735 
L 266.090442 113.574017 
L 267.619907 112.606615 
L 269.149373 110.130144 
L 270.678838 110.781866 
L 272.208304 111.224651 
L 273.737769 125.647513 
L 275.267235 110.413774 
L 276.7967 108.689644 
L 278.326166 102.631397 
L 279.855631 114.944985 
L 281.385097 121.194701 
L 282.914562 119.714137 
L 284.444028 111.891752 
L 285.973493 110.825449 
L 287.502959 117.6784 
L 289.032424 127.954372 
L 290.56189 124.936714 
L 292.091355 130.407448 
L 293.620821 144.421204 
L 295.150286 135.789468 
L 296.679752 138.980293 
L 298.209217 142.988408 
L 299.738683 146.292775 
L 301.268148 149.119826 
L 302.797614 159.628473 
L 304.327079 153.768832 
L 305.856545 161.271518 
L 307.38601 174.982724 
L 308.915476 168.983043 
L 310.444941 179.119373 
L 313.503872 177.424703 
L 315.033338 182.432108 
L 316.562803 184.808619 
L 318.092269 180.468895 
L 319.621734 194.295554 
L 321.1512 196.684923 
L 322.680665 194.474476 
L 324.210131 200.295764 
L 325.739596 204.3408 
L 327.269062 205.504164 
L 328.798527 191.166348 
L 330.327993 189.806696 
L 331.857458 205.323971 
L 333.386924 196.057858 
L 334.916389 198.559544 
L 336.445855 193.524826 
L 337.97532 189.227433 
L 339.504786 194.863461 
L 341.034252 192.33538 
L 342.563717 185.300683 
L 344.093183 184.236296 
L 345.622648 186.331284 
L 347.152114 188.673016 
L 348.681579 179.472284 
L 350.211045 176.337141 
L 351.74051 169.182161 
L 353.269976 168.188159 
L 354.799441 177.509377 
L 356.328907 183.328726 
L 357.858372 173.747628 
L 359.387838 176.727514 
L 360.917303 184.169512 
L 362.446769 185.641546 
L 363.976234 185.864613 
L 365.5057 193.69837 
L 367.035165 202.77668 
L 368.564631 196.106938 
L 368.564631 196.106938 
" clip-path="url(#pb89407d4a0)" style="fill: none; stroke: #1f77b4; stroke-width: 1.5; stroke-linecap: square"/>
   </g>
   <g id="line2d_15">
    <path d="M 64.200994 48.781192 
L 65.73046 60.307944 
L 67.259925 63.458134 
L 68.789391 69.648045 
L 70.318856 84.237116 
L 71.848322 96.809837 
L 73.377787 96.05291 
L 74.907253 101.127693 
L 76.436718 96.082235 
L 79.495649 83.431511 
L 81.025115 83.801953 
L 82.55458 79.688667 
L 84.084046 88.172742 
L 85.613511 105.563903 
L 87.142977 113.830593 
L 88.672442 121.222333 
L 90.201908 120.277343 
L 91.731373 120.439471 
L 93.260839 118.191877 
L 94.790305 121.282984 
L 96.31977 116.971449 
L 97.849236 118.505706 
L 99.378701 112.771554 
L 100.908167 123.625023 
L 102.437632 127.461175 
L 103.967098 121.181565 
L 105.496563 116.171145 
L 107.026029 111.863733 
L 108.555494 109.292643 
L 110.08496 109.975171 
L 111.614425 99.023613 
L 113.143891 109.486814 
L 114.673356 102.292731 
L 116.202822 100.655083 
L 117.732287 107.541583 
L 119.261753 107.799926 
L 120.791218 105.628146 
L 122.320684 108.479579 
L 123.850149 100.131734 
L 125.379615 94.040057 
L 126.90908 79.707013 
L 128.438546 79.514541 
L 129.968011 90.97507 
L 131.497477 96.766213 
L 133.026942 100.681767 
L 134.556408 97.036941 
L 136.085873 95.838426 
L 137.615339 92.698229 
L 139.144804 81.636833 
L 140.67427 83.133909 
L 142.203735 74.973721 
L 143.733201 80.25224 
L 145.262666 72.486258 
L 146.792132 78.74252 
L 148.321597 88.690631 
L 149.851063 92.019112 
L 151.380528 101.032929 
L 152.909994 101.201562 
L 154.439459 100.544108 
L 155.968925 98.566124 
L 157.49839 105.339267 
L 159.027856 101.811139 
L 160.557321 112.935034 
L 162.086787 109.399528 
L 163.616252 101.857957 
L 165.145718 97.081158 
L 166.675183 88.69727 
L 168.204649 82.438692 
L 169.734114 83.114121 
L 171.26358 73.320722 
L 172.793045 79.306143 
L 174.322511 67.964821 
L 175.851977 68.988942 
L 177.381442 92.733304 
L 178.910908 89.23192 
L 180.440373 96.021727 
L 181.969839 98.838683 
L 183.499304 93.623753 
L 185.02877 107.075977 
L 186.558235 89.099709 
L 188.087701 87.722088 
L 189.617166 88.781044 
L 191.146632 75.207693 
L 192.676097 66.367234 
L 194.205563 76.44766 
L 195.735028 84.252895 
L 197.264494 81.880818 
L 198.793959 87.073644 
L 200.323425 96.96573 
L 201.85289 99.614361 
L 203.382356 98.998573 
L 204.911821 107.403732 
L 206.441287 98.422709 
L 207.970752 95.878908 
L 209.500218 87.214066 
L 211.029683 96.414608 
L 212.559149 91.12722 
L 214.088614 89.369749 
L 215.61808 88.08168 
L 217.147545 90.949652 
L 218.677011 101.108192 
L 220.206476 99.333952 
L 221.735942 91.048116 
L 223.265407 97.662196 
L 224.794873 97.115142 
L 226.324338 97.559043 
L 227.853804 100.729851 
L 229.383269 106.087237 
L 230.912735 107.509234 
L 232.4422 99.49641 
L 233.971666 106.61129 
L 235.501131 104.135579 
L 237.030597 107.546517 
L 238.560062 96.278926 
L 240.089528 94.953548 
L 241.618993 93.923604 
L 243.148459 97.246873 
L 244.677924 97.354962 
L 246.20739 83.408628 
L 247.736855 89.080925 
L 249.266321 78.07949 
L 250.795786 73.165152 
L 252.325252 65.581806 
L 253.854717 53.554309 
L 255.384183 37.37822 
L 256.913648 41.471608 
L 258.443114 42.33971 
L 259.97258 52.730097 
L 261.502045 51.057637 
L 263.031511 51.480228 
L 264.560976 47.709693 
L 266.090442 50.93664 
L 267.619907 53.43586 
L 269.149373 40.478369 
L 270.678838 51.010711 
L 272.208304 51.138672 
L 273.737769 52.551988 
L 275.267235 53.034349 
L 276.7967 54.743644 
L 278.326166 50.532759 
L 279.855631 48.561079 
L 281.385097 49.746929 
L 282.914562 43.942813 
L 284.444028 44.843414 
L 285.973493 31.094239 
L 287.502959 25.992227 
L 289.032424 26.695404 
L 290.56189 34.967148 
L 292.091355 36.991891 
L 293.620821 39.672974 
L 295.150286 36.546421 
L 296.679752 42.821824 
L 298.209217 40.739524 
L 299.738683 40.86579 
L 301.268148 35.17941 
L 302.797614 46.959602 
L 304.327079 39.388595 
L 305.856545 40.192374 
L 307.38601 47.128505 
L 308.915476 49.181819 
L 310.444941 50.222022 
L 311.974407 47.617215 
L 313.503872 27.876715 
L 315.033338 31.397779 
L 316.562803 35.19947 
L 318.092269 34.098767 
L 319.621734 32.655346 
L 321.1512 41.211858 
L 322.680665 35.273397 
L 324.210131 21.258248 
L 325.739596 17.610794 
L 327.269062 15.816391 
L 328.798527 19.662673 
L 330.327993 32.97991 
L 331.857458 44.361072 
L 334.916389 46.360962 
L 336.445855 56.667694 
L 337.97532 49.927511 
L 339.504786 50.107983 
L 341.034252 51.641431 
L 342.563717 43.932786 
L 344.093183 37.981982 
L 345.622648 46.489394 
L 347.152114 42.959545 
L 348.681579 42.98191 
L 350.211045 49.369234 
L 351.74051 47.762061 
L 353.269976 47.79677 
L 354.799441 34.166728 
L 356.328907 36.312117 
L 357.858372 40.325826 
L 359.387838 48.948734 
L 360.917303 54.511898 
L 362.446769 56.25505 
L 363.976234 61.672291 
L 365.5057 55.607193 
L 367.035165 56.501388 
L 368.564631 63.21735 
L 368.564631 63.21735 
" clip-path="url(#pb89407d4a0)" style="fill: none; stroke: #ff7f0e; stroke-width: 1.5; stroke-linecap: square"/>
   </g>
   <g id="line2d_16">
    <path d="M 64.200994 34.826109 
L 67.259925 48.931291 
L 68.789391 49.126064 
L 70.318856 63.585477 
L 71.848322 65.916129 
L 73.377787 69.072059 
L 74.907253 60.081375 
L 76.436718 66.334015 
L 77.966184 67.944614 
L 79.495649 56.547436 
L 81.025115 43.428059 
L 82.55458 40.28046 
L 84.084046 29.825891 
L 85.613511 34.207751 
L 87.142977 34.445081 
L 88.672442 42.616794 
L 90.201908 42.771393 
L 91.731373 49.870424 
L 93.260839 65.372507 
L 94.790305 59.177526 
L 96.31977 62.322289 
L 97.849236 51.751696 
L 99.378701 52.743926 
L 100.908167 65.887698 
L 102.437632 75.093779 
L 103.967098 82.096777 
L 105.496563 77.712691 
L 107.026029 79.277726 
L 108.555494 75.387139 
L 111.614425 91.990535 
L 113.143891 98.2435 
L 114.673356 101.160803 
L 116.202822 101.536279 
L 117.732287 109.130924 
L 119.261753 100.621179 
L 120.791218 99.619675 
L 122.320684 105.734937 
L 123.850149 99.768491 
L 125.379615 104.159035 
L 126.90908 105.753413 
L 128.438546 111.129748 
L 129.968011 123.76206 
L 131.497477 124.410581 
L 133.026942 136.723601 
L 134.556408 143.561546 
L 136.085873 153.48612 
L 137.615339 152.045028 
L 139.144804 154.648331 
L 140.67427 154.907589 
L 142.203735 161.225012 
L 143.733201 162.331211 
L 145.262666 157.302415 
L 148.321597 173.176418 
L 152.909994 161.824723 
L 154.439459 159.695816 
L 155.968925 156.161602 
L 157.49839 157.758229 
L 159.027856 147.369999 
L 160.557321 139.752044 
L 162.086787 137.664038 
L 163.616252 138.017592 
L 165.145718 138.135995 
L 166.675183 154.97132 
L 168.204649 151.190138 
L 169.734114 154.138706 
L 171.26358 151.442973 
L 172.793045 133.526259 
L 174.322511 136.50232 
L 175.851977 133.044286 
L 177.381442 130.036444 
L 178.910908 119.991622 
L 180.440373 120.173831 
L 181.969839 119.461859 
L 183.499304 116.522627 
L 185.02877 118.715205 
L 186.558235 128.659476 
L 188.087701 122.74594 
L 189.617166 119.015513 
L 191.146632 110.981969 
L 192.676097 109.8173 
L 194.205563 106.839816 
L 195.735028 103.201579 
L 197.264494 112.093943 
L 198.793959 112.425068 
L 200.323425 116.174533 
L 201.85289 111.764387 
L 203.382356 112.495318 
L 204.911821 102.989631 
L 206.441287 97.856852 
L 207.970752 100.790768 
L 209.500218 99.739146 
L 211.029683 94.022055 
L 212.559149 96.918181 
L 214.088614 86.029148 
L 215.61808 83.904913 
L 217.147545 87.539192 
L 218.677011 82.24479 
L 220.206476 69.180515 
L 221.735942 63.749126 
L 223.265407 62.741177 
L 226.324338 56.728247 
L 227.853804 56.417628 
L 229.383269 40.030643 
L 230.912735 28.591906 
L 232.4422 25.921326 
L 233.971666 25.831498 
L 235.501131 40.708756 
L 237.030597 32.208319 
L 238.560062 47.134629 
L 240.089528 40.468273 
L 241.618993 47.109178 
L 243.148459 38.819668 
L 244.677924 53.682467 
L 247.736855 41.507809 
L 249.266321 41.77527 
L 250.795786 48.611405 
L 252.325252 37.00975 
L 253.854717 43.868927 
L 255.384183 38.399947 
L 256.913648 31.738571 
L 258.443114 42.993762 
L 259.97258 51.417425 
L 261.502045 44.141367 
L 264.560976 60.110187 
L 266.090442 62.250035 
L 267.619907 57.552117 
L 269.149373 61.786218 
L 270.678838 71.221865 
L 272.208304 79.180844 
L 273.737769 79.407978 
L 275.267235 84.327727 
L 276.7967 81.855758 
L 278.326166 93.22675 
L 279.855631 78.925189 
L 281.385097 79.138218 
L 282.914562 75.284557 
L 284.444028 85.377722 
L 287.502959 77.139353 
L 289.032424 74.848312 
L 290.56189 84.808959 
L 292.091355 91.247793 
L 293.620821 92.897029 
L 295.150286 89.811103 
L 296.679752 92.381636 
L 298.209217 88.059326 
L 299.738683 91.188101 
L 301.268148 83.876421 
L 302.797614 88.06916 
L 304.327079 77.995414 
L 305.856545 74.829648 
L 307.38601 70.536753 
L 308.915476 77.136915 
L 310.444941 68.074518 
L 311.974407 76.907501 
L 313.503872 87.770089 
L 315.033338 78.163437 
L 316.562803 77.60325 
L 318.092269 79.456371 
L 319.621734 77.688409 
L 321.1512 80.123005 
L 322.680665 87.844807 
L 324.210131 102.436597 
L 325.739596 100.45507 
L 327.269062 111.391184 
L 328.798527 119.548436 
L 330.327993 110.924254 
L 331.857458 108.742829 
L 333.386924 101.085324 
L 334.916389 96.761286 
L 336.445855 84.330101 
L 339.504786 92.007613 
L 341.034252 99.277323 
L 342.563717 102.421965 
L 344.093183 98.70819 
L 345.622648 106.906025 
L 347.152114 111.089908 
L 348.681579 110.25507 
L 350.211045 94.342643 
L 351.74051 110.633216 
L 353.269976 107.340887 
L 354.799441 105.54701 
L 356.328907 94.311706 
L 357.858372 92.120411 
L 359.387838 85.973558 
L 360.917303 102.066712 
L 362.446769 95.140653 
L 363.976234 81.062454 
L 365.5057 82.750999 
L 367.035165 80.457277 
L 368.564631 70.185874 
L 368.564631 70.185874 
" clip-path="url(#pb89407d4a0)" style="fill: none; stroke: #2ca02c; stroke-width: 1.5; stroke-linecap: square"/>
   </g>
   <g id="line2d_17">
    <path d="M 64.200994 27.554987 
L 65.73046 17.28 
L 67.259925 30.223232 
L 68.789391 20.869392 
L 70.318856 25.911082 
L 73.377787 36.986436 
L 74.907253 35.206399 
L 76.436718 38.17808 
L 77.966184 38.317798 
L 79.495649 43.934496 
L 82.55458 53.04848 
L 84.084046 57.001684 
L 85.613511 58.587223 
L 87.142977 63.756569 
L 88.672442 65.850851 
L 90.201908 74.68775 
L 91.731373 63.108544 
L 93.260839 57.994593 
L 94.790305 44.876992 
L 96.31977 43.093221 
L 97.849236 44.385461 
L 99.378701 41.033348 
L 100.908167 59.01737 
L 102.437632 69.070688 
L 103.967098 73.359457 
L 105.496563 74.060967 
L 107.026029 77.204649 
L 108.555494 68.384145 
L 110.08496 65.510867 
L 111.614425 75.551572 
L 113.143891 61.400037 
L 114.673356 65.476912 
L 116.202822 68.188616 
L 117.732287 62.355453 
L 119.261753 71.306124 
L 120.791218 72.108634 
L 122.320684 72.219109 
L 123.850149 86.778255 
L 125.379615 79.732051 
L 126.90908 81.670377 
L 128.438546 85.933555 
L 129.968011 73.760007 
L 131.497477 80.553433 
L 133.026942 75.133421 
L 134.556408 68.328579 
L 136.085873 72.507265 
L 137.615339 78.300557 
L 139.144804 68.653406 
L 140.67427 77.232494 
L 142.203735 73.374362 
L 143.733201 64.831777 
L 145.262666 77.839938 
L 146.792132 89.863145 
L 148.321597 90.93504 
L 149.851063 90.225681 
L 151.380528 84.480906 
L 152.909994 86.706222 
L 154.439459 98.177731 
L 155.968925 97.134278 
L 157.49839 86.969451 
L 159.027856 92.459778 
L 160.557321 104.559109 
L 162.086787 105.619678 
L 163.616252 114.477456 
L 165.145718 128.233766 
L 166.675183 123.202505 
L 168.204649 128.371864 
L 171.26358 108.320608 
L 172.793045 92.940114 
L 174.322511 94.323129 
L 175.851977 99.189364 
L 177.381442 96.610833 
L 178.910908 95.955904 
L 180.440373 89.952348 
L 181.969839 101.934397 
L 183.499304 110.309668 
L 185.02877 99.600196 
L 186.558235 95.872585 
L 188.087701 116.924722 
L 189.617166 114.456942 
L 191.146632 118.691326 
L 192.676097 118.718668 
L 194.205563 112.793751 
L 195.735028 128.371331 
L 197.264494 132.905699 
L 200.323425 121.748225 
L 201.85289 111.42621 
L 203.382356 114.054204 
L 204.911821 121.870705 
L 206.441287 126.404364 
L 207.970752 129.543076 
L 209.500218 144.60335 
L 211.029683 148.944644 
L 212.559149 140.44119 
L 214.088614 135.168558 
L 215.61808 149.24225 
L 217.147545 148.373842 
L 218.677011 145.895102 
L 220.206476 157.269162 
L 221.735942 173.578327 
L 223.265407 172.726734 
L 224.794873 181.088243 
L 226.324338 178.170452 
L 227.853804 171.045307 
L 229.383269 180.707736 
L 230.912735 178.575942 
L 232.4422 181.364447 
L 233.971666 174.009187 
L 235.501131 165.116324 
L 238.560062 172.372778 
L 240.089528 179.917447 
L 241.618993 190.152855 
L 243.148459 193.835365 
L 244.677924 200.044837 
L 246.20739 202.351782 
L 247.736855 206.292137 
L 249.266321 206.981118 
L 250.795786 218.88 
L 252.325252 210.047075 
L 253.854717 212.979088 
L 255.384183 196.001072 
L 256.913648 196.039873 
L 258.443114 195.307987 
L 259.97258 188.193001 
L 261.502045 182.48718 
L 263.031511 169.835997 
L 264.560976 155.554063 
L 266.090442 166.390747 
L 267.619907 169.741316 
L 269.149373 171.654422 
L 270.678838 157.92584 
L 272.208304 148.57431 
L 273.737769 131.902675 
L 275.267235 126.156107 
L 276.7967 125.881838 
L 278.326166 123.778305 
L 279.855631 129.694738 
L 282.914562 137.616781 
L 284.444028 122.010085 
L 285.973493 133.619038 
L 287.502959 130.901102 
L 289.032424 127.076711 
L 290.56189 121.17444 
L 292.091355 131.559391 
L 293.620821 129.435887 
L 295.150286 126.752096 
L 296.679752 122.232632 
L 298.209217 118.411007 
L 299.738683 126.525767 
L 301.268148 117.623011 
L 302.797614 123.738161 
L 304.327079 131.595835 
L 305.856545 128.778797 
L 307.38601 122.505292 
L 308.915476 124.871361 
L 310.444941 112.907625 
L 311.974407 97.621724 
L 313.503872 98.905099 
L 315.033338 110.16052 
L 316.562803 104.486378 
L 318.092269 114.512131 
L 319.621734 125.552906 
L 321.1512 127.557428 
L 322.680665 131.516028 
L 324.210131 129.531415 
L 325.739596 135.541695 
L 327.269062 143.457698 
L 328.798527 142.248071 
L 330.327993 142.412414 
L 331.857458 131.369781 
L 333.386924 137.1663 
L 334.916389 130.504709 
L 336.445855 126.187117 
L 337.97532 126.530476 
L 339.504786 119.272828 
L 341.034252 113.921165 
L 342.563717 112.928305 
L 344.093183 114.220695 
L 345.622648 106.53928 
L 347.152114 103.365967 
L 348.681579 113.219375 
L 350.211045 121.133965 
L 351.74051 117.345401 
L 353.269976 114.564747 
L 354.799441 116.890726 
L 356.328907 126.543493 
L 357.858372 113.192124 
L 359.387838 118.294391 
L 360.917303 133.289398 
L 362.446769 145.57525 
L 363.976234 150.806173 
L 365.5057 145.523705 
L 367.035165 151.27617 
L 368.564631 139.640962 
L 368.564631 139.640962 
" clip-path="url(#pb89407d4a0)" style="fill: none; stroke: #d62728; stroke-width: 1.5; stroke-linecap: square"/>
   </g>
   <g id="patch_3">
    <path d="M 48.982813 228.96 
L 48.982813 7.2 
" style="fill: none; stroke: #000000; stroke-width: 0.8; stroke-linejoin: miter; stroke-linecap: square"/>
   </g>
   <g id="patch_4">
    <path d="M 383.782813 228.96 
L 383.782813 7.2 
" style="fill: none; stroke: #000000; stroke-width: 0.8; stroke-linejoin: miter; stroke-linecap: square"/>
   </g>
   <g id="patch_5">
    <path d="M 48.982812 228.96 
L 383.782812 228.96 
" style="fill: none; stroke: #000000; stroke-width: 0.8; stroke-linejoin: miter; stroke-linecap: square"/>
   </g>
   <g id="patch_6">
    <path d="M 48.982812 7.2 
L 383.782812 7.2 
" style="fill: none; stroke: #000000; stroke-width: 0.8; stroke-linejoin: miter; stroke-linecap: square"/>
   </g>
   <g id="legend_1">
    <g id="patch_7">
     <path d="M 55.982813 223.96 
L 95.682813 223.96 
Q 97.682813 223.96 97.682813 221.96 
L 97.682813 164.2475 
Q 97.682813 162.2475 95.682813 162.2475 
L 55.982813 162.2475 
Q 53.982813 162.2475 53.982813 164.2475 
L 53.982813 221.96 
Q 53.982813 223.96 55.982813 223.96 
z
" style="fill: #ffffff; opacity: 0.8; stroke: #cccccc; stroke-linejoin: miter"/>
    </g>
    <g id="line2d_18">
     <path d="M 57.982813 170.345937 
L 67.982812 170.345937 
L 77.982812 170.345937 
" style="fill: none; stroke: #1f77b4; stroke-width: 1.5; stroke-linecap: square"/>
    </g>
    <g id="text_16">
     <!-- A -->
     <g transform="translate(85.982812 173.845937) scale(0.1 -0.1)">
      <defs>
       <path id="DejaVuSans-41" d="M 2188 4044 
L 1331 1722 
L 3047 1722 
L 2188 4044 
z
M 1831 4666 
L 2547 4666 
L 4325 0 
L 3669 0 
L 3244 1197 
L 1141 1197 
L 716 0 
L 50 0 
L 1831 4666 
z
" transform="scale(0.015625)"/>
      </defs>
      <use xlink:href="#DejaVuSans-41"/>
     </g>
    </g>
    <g id="line2d_19">
     <path d="M 57.982813 185.024062 
L 67.982812 185.024062 
L 77.982812 185.024062 
" style="fill: none; stroke: #ff7f0e; stroke-width: 1.5; stroke-linecap: square"/>
    </g>
    <g id="text_17">
     <!-- B -->
     <g transform="translate(85.982812 188.524062) scale(0.1 -0.1)">
      <defs>
       <path id="DejaVuSans-42" d="M 1259 2228 
L 1259 519 
L 2272 519 
Q 2781 519 3026 730 
Q 3272 941 3272 1375 
Q 3272 1813 3026 2020 
Q 2781 2228 2272 2228 
L 1259 2228 
z
M 1259 4147 
L 1259 2741 
L 2194 2741 
Q 2656 2741 2882 2914 
Q 3109 3088 3109 3444 
Q 3109 3797 2882 3972 
Q 2656 4147 2194 4147 
L 1259 4147 
z
M 628 4666 
L 2241 4666 
Q 2963 4666 3353 4366 
Q 3744 4066 3744 3513 
Q 3744 3084 3544 2831 
Q 3344 2578 2956 2516 
Q 3422 2416 3680 2098 
Q 3938 1781 3938 1306 
Q 3938 681 3513 340 
Q 3088 0 2303 0 
L 628 0 
L 628 4666 
z
" transform="scale(0.015625)"/>
      </defs>
      <use xlink:href="#DejaVuSans-42"/>
     </g>
    </g>
    <g id="line2d_20">
     <path d="M 57.982813 199.702187 
L 67.982812 199.702187 
L 77.982812 199.702187 
" style="fill: none; stroke: #2ca02c; stroke-width: 1.5; stroke-linecap: square"/>
    </g>
    <g id="text_18">
     <!-- C -->
     <g transform="translate(85.982812 203.202187) scale(0.1 -0.1)">
      <defs>
       <path id="DejaVuSans-43" d="M 4122 4306 
L 4122 3641 
Q 3803 3938 3442 4084 
Q 3081 4231 2675 4231 
Q 1875 4231 1450 3742 
Q 1025 3253 1025 2328 
Q 1025 1406 1450 917 
Q 1875 428 2675 428 
Q 3081 428 3442 575 
Q 3803 722 4122 1019 
L 4122 359 
Q 3791 134 3420 21 
Q 3050 -91 2638 -91 
Q 1578 -91 968 557 
Q 359 1206 359 2328 
Q 359 3453 968 4101 
Q 1578 4750 2638 4750 
Q 3056 4750 3426 4639 
Q 3797 4528 4122 4306 
z
" transform="scale(0.015625)"/>
      </defs>
      <use xlink:href="#DejaVuSans-43"/>
     </g>
    </g>
    <g id="line2d_21">
     <path d="M 57.982813 214.380312 
L 67.982812 214.380312 
L 77.982812 214.380312 
" style="fill: none; stroke: #d62728; stroke-width: 1.5; stroke-linecap: square"/>
    </g>
    <g id="text_19">
     <!-- D -->
     <g transform="translate(85.982812 217.880312) scale(0.1 -0.1)">
      <defs>
       <path id="DejaVuSans-44" d="M 1259 4147 
L 1259 519 
L 2022 519 
Q 2988 519 3436 956 
Q 3884 1394 3884 2338 
Q 3884 3275 3436 3711 
Q 2988 4147 2022 4147 
L 1259 4147 
z
M 628 4666 
L 1925 4666 
Q 3281 4666 3915 4102 
Q 4550 3538 4550 2338 
Q 4550 1131 3912 565 
Q 3275 0 1925 0 
L 628 0 
L 628 4666 
z
" transform="scale(0.015625)"/>
      </defs>
      <use xlink:href="#DejaVuSans-44"/>
     </g>
    </g>
   </g>
  </g>
 </g>
 <defs>
  <clipPath id="pb89407d4a0">
   <rect x="48.982813" y="7.2" width="334.8" height="221.76"/>
  </clipPath>
 </defs>
</svg>
