<?xml version="1.0" encoding="utf-8" standalone="no"?>
<!DOCTYPE svg PUBLIC "-//W3C//DTD SVG 1.1//EN"
  "http://www.w3.org/Graphics/SVG/1.1/DTD/svg11.dtd">
<svg xmlns:xlink="http://www.w3.org/1999/xlink" width="390.982812pt" height="266.51625pt" viewBox="0 0 390.982812 266.51625" xmlns="http://www.w3.org/2000/svg" version="1.1">
 <metadata>
  <rdf:RDF xmlns:dc="http://purl.org/dc/elements/1.1/" xmlns:cc="http://creativecommons.org/ns#" xmlns:rdf="http://www.w3.org/1999/02/22-rdf-syntax-ns#">
   <cc:Work>
    <dc:type rdf:resource="http://purl.org/dc/dcmitype/StillImage"/>
    <dc:date>2025-10-06T14:40:39.319500</dc:date>
    <dc:format>image/svg+xml</dc:format>
    <dc:creator>
     <cc:Agent>
      <dc:title>Matplotlib v3.10.5, https://matplotlib.org/</dc:title>
     </cc:Agent>
    </dc:creator>
   </cc:Work>
  </rdf:RDF>
 </metadata>
 <defs>
  <style type="text/css">*{stroke-linejoin: round; stroke-linecap: butt}</style>
 </defs>
 <g id="figure_1">
  <g id="patch_1">
   <path d="M 0 266.51625 
L 390.982812 266.51625 
L 390.982812 0 
L 0 0 
z
" style="fill: #ffffff"/>
  </g>
  <g id="axes_1">
   <g id="patch_2">
    <path d="M 48.982813 228.96 
L 383.782813 228.96 
L 383.782813 7.2 
L 48.982813 7.2 
z
" style="fill: #ffffff"/>
   </g>
   <g id="matplotlib.axis_1">
    <g id="xtick_1">
     <g id="line2d_1">
      <defs>
       <path id="md8d0891a72" d="M 0 0 
L 0 3.5 
" style="stroke: #000000; stroke-width: 0.8"/>
      </defs>
      <g>
       <use xlink:href="#md8d0891a72" x="64.200994" y="228.96" style="stroke: #000000; stroke-width: 0.8"/>
      </g>
     </g>
     <g id="text_1">
      <!-- 2000-01 -->
      <g transform="translate(43.309588 243.558437) scale(0.1 -0.1)">
       <defs>
        <path id="DejaVuSans-32" d="M 1228 531 
L 3431 531 
L 3431 0 
L 469 0 
L 469 531 
Q 828 903 1448 1529 
Q 2069 2156 2228 2338 
Q 2531 2678 2651 2914 
Q 2772 3150 2772 3378 
Q 2772 3750 2511 3984 
Q 2250 4219 1831 4219 
Q 1534 4219 1204 4116 
Q 875 4013 500 3803 
L 500 4441 
Q 881 4594 1212 4672 
Q 1544 4750 1819 4750 
Q 2544 4750 2975 4387 
Q 3406 4025 3406 3419 
Q 3406 3131 3298 2873 
Q 3191 2616 2906 2266 
Q 2828 2175 2409 1742 
Q 1991 1309 1228 531 
z
" transform="scale(0.015625)"/>
        <path id="DejaVuSans-30" d="M 2034 4250 
Q 1547 4250 1301 3770 
Q 1056 3291 1056 2328 
Q 1056 1369 1301 889 
Q 1547 409 2034 409 
Q 2525 409 2770 889 
Q 3016 1369 3016 2328 
Q 3016 3291 2770 3770 
Q 2525 4250 2034 4250 
z
M 2034 4750 
Q 2819 4750 3233 4129 
Q 3647 3509 3647 2328 
Q 3647 1150 3233 529 
Q 2819 -91 2034 -91 
Q 1250 -91 836 529 
Q 422 1150 422 2328 
Q 422 3509 836 4129 
Q 1250 4750 2034 4750 
z
" transform="scale(0.015625)"/>
        <path id="DejaVuSans-2d" d="M 313 2009 
L 1997 2009 
L 1997 1497 
L 313 1497 
L 313 2009 
z
" transform="scale(0.015625)"/>
        <path id="DejaVuSans-31" d="M 794 531 
L 1825 531 
L 1825 4091 
L 703 3866 
L 703 4441 
L 1819 4666 
L 2450 4666 
L 2450 531 
L 3481 531 
L 3481 0 
L 794 0 
L 794 531 
z
" transform="scale(0.015625)"/>
       </defs>
       <use xlink:href="#DejaVuSans-32"/>
       <use xlink:href="#DejaVuSans-30" transform="translate(63.623047 0)"/>
       <use xlink:href="#DejaVuSans-30" transform="translate(127.246094 0)"/>
       <use xlink:href="#DejaVuSans-30" transform="translate(190.869141 0)"/>
       <use xlink:href="#DejaVuSans-2d" transform="translate(254.492188 0)"/>
       <use xlink:href="#DejaVuSans-30" transform="translate(290.576172 0)"/>
       <use xlink:href="#DejaVuSans-31" transform="translate(354.199219 0)"/>
      </g>
     </g>
    </g>
    <g id="xtick_2">
     <g id="line2d_2">
      <g>
       <use xlink:href="#md8d0891a72" x="111.614425" y="228.96" style="stroke: #000000; stroke-width: 0.8"/>
      </g>
     </g>
     <g id="text_2">
      <!-- 2000-02 -->
      <g transform="translate(90.723019 243.558437) scale(0.1 -0.1)">
       <use xlink:href="#DejaVuSans-32"/>
       <use xlink:href="#DejaVuSans-30" transform="translate(63.623047 0)"/>
       <use xlink:href="#DejaVuSans-30" transform="translate(127.246094 0)"/>
       <use xlink:href="#DejaVuSans-30" transform="translate(190.869141 0)"/>
       <use xlink:href="#DejaVuSans-2d" transform="translate(254.492188 0)"/>
       <use xlink:href="#DejaVuSans-30" transform="translate(290.576172 0)"/>
       <use xlink:href="#DejaVuSans-32" transform="translate(354.199219 0)"/>
      </g>
     </g>
    </g>
    <g id="xtick_3">
     <g id="line2d_3">
      <g>
       <use xlink:href="#md8d0891a72" x="155.968925" y="228.96" style="stroke: #000000; stroke-width: 0.8"/>
      </g>
     </g>
     <g id="text_3">
      <!-- 2000-03 -->
      <g transform="translate(135.077519 243.558437) scale(0.1 -0.1)">
       <defs>
        <path id="DejaVuSans-33" d="M 2597 2516 
Q 3050 2419 3304 2112 
Q 3559 1806 3559 1356 
Q 3559 666 3084 287 
Q 2609 -91 1734 -91 
Q 1441 -91 1130 -33 
Q 819 25 488 141 
L 488 750 
Q 750 597 1062 519 
Q 1375 441 1716 441 
Q 2309 441 2620 675 
Q 2931 909 2931 1356 
Q 2931 1769 2642 2001 
Q 2353 2234 1838 2234 
L 1294 2234 
L 1294 2753 
L 1863 2753 
Q 2328 2753 2575 2939 
Q 2822 3125 2822 3475 
Q 2822 3834 2567 4026 
Q 2313 4219 1838 4219 
Q 1578 4219 1281 4162 
Q 984 4106 628 3988 
L 628 4550 
Q 988 4650 1302 4700 
Q 1616 4750 1894 4750 
Q 2613 4750 3031 4423 
Q 3450 4097 3450 3541 
Q 3450 3153 3228 2886 
Q 3006 2619 2597 2516 
z
" transform="scale(0.015625)"/>
       </defs>
       <use xlink:href="#DejaVuSans-32"/>
       <use xlink:href="#DejaVuSans-30" transform="translate(63.623047 0)"/>
       <use xlink:href="#DejaVuSans-30" transform="translate(127.246094 0)"/>
       <use xlink:href="#DejaVuSans-30" transform="translate(190.869141 0)"/>
       <use xlink:href="#DejaVuSans-2d" transform="translate(254.492188 0)"/>
       <use xlink:href="#DejaVuSans-30" transform="translate(290.576172 0)"/>
       <use xlink:href="#DejaVuSans-33" transform="translate(354.199219 0)"/>
      </g>
     </g>
    </g>
    <g id="xtick_4">
     <g id="line2d_4">
      <g>
       <use xlink:href="#md8d0891a72" x="203.382356" y="228.96" style="stroke: #000000; stroke-width: 0.8"/>
      </g>
     </g>
     <g id="text_4">
      <!-- 2000-04 -->
      <g transform="translate(182.490949 243.558437) scale(0.1 -0.1)">
       <defs>
        <path id="DejaVuSans-34" d="M 2419 4116 
L 825 1625 
L 2419 1625 
L 2419 4116 
z
M 2253 4666 
L 3047 4666 
L 3047 1625 
L 3713 1625 
L 3713 1100 
L 3047 1100 
L 3047 0 
L 2419 0 
L 2419 1100 
L 313 1100 
L 313 1709 
L 2253 4666 
z
" transform="scale(0.015625)"/>
       </defs>
       <use xlink:href="#DejaVuSans-32"/>
       <use xlink:href="#DejaVuSans-30" transform="translate(63.623047 0)"/>
       <use xlink:href="#DejaVuSans-30" transform="translate(127.246094 0)"/>
       <use xlink:href="#DejaVuSans-30" transform="translate(190.869141 0)"/>
       <use xlink:href="#DejaVuSans-2d" transform="translate(254.492188 0)"/>
       <use xlink:href="#DejaVuSans-30" transform="translate(290.576172 0)"/>
       <use xlink:href="#DejaVuSans-34" transform="translate(354.199219 0)"/>
      </g>
     </g>
    </g>
    <g id="xtick_5">
     <g id="line2d_5">
      <g>
       <use xlink:href="#md8d0891a72" x="249.266321" y="228.96" style="stroke: #000000; stroke-width: 0.8"/>
      </g>
     </g>
     <g id="text_5">
      <!-- 2000-05 -->
      <g transform="translate(228.374915 243.558437) scale(0.1 -0.1)">
       <defs>
        <path id="DejaVuSans-35" d="M 691 4666 
L 3169 4666 
L 3169 4134 
L 1269 4134 
L 1269 2991 
Q 1406 3038 1543 3061 
Q 1681 3084 1819 3084 
Q 2600 3084 3056 2656 
Q 3513 2228 3513 1497 
Q 3513 744 3044 326 
Q 2575 -91 1722 -91 
Q 1428 -91 1123 -41 
Q 819 9 494 109 
L 494 744 
Q 775 591 1075 516 
Q 1375 441 1709 441 
Q 2250 441 2565 725 
Q 2881 1009 2881 1497 
Q 2881 1984 2565 2268 
Q 2250 2553 1709 2553 
Q 1456 2553 1204 2497 
Q 953 2441 691 2322 
L 691 4666 
z
" transform="scale(0.015625)"/>
       </defs>
       <use xlink:href="#DejaVuSans-32"/>
       <use xlink:href="#DejaVuSans-30" transform="translate(63.623047 0)"/>
       <use xlink:href="#DejaVuSans-30" transform="translate(127.246094 0)"/>
       <use xlink:href="#DejaVuSans-30" transform="translate(190.869141 0)"/>
       <use xlink:href="#DejaVuSans-2d" transform="translate(254.492188 0)"/>
       <use xlink:href="#DejaVuSans-30" transform="translate(290.576172 0)"/>
       <use xlink:href="#DejaVuSans-35" transform="translate(354.199219 0)"/>
      </g>
     </g>
    </g>
    <g id="xtick_6">
     <g id="line2d_6">
      <g>
       <use xlink:href="#md8d0891a72" x="296.679752" y="228.96" style="stroke: #000000; stroke-width: 0.8"/>
      </g>
     </g>
     <g id="text_6">
      <!-- 2000-06 -->
      <g transform="translate(275.788345 243.558437) scale(0.1 -0.1)">
       <defs>
        <path id="DejaVuSans-36" d="M 2113 2584 
Q 1688 2584 1439 2293 
Q 1191 2003 1191 1497 
Q 1191 994 1439 701 
Q 1688 409 2113 409 
Q 2538 409 2786 701 
Q 3034 994 3034 1497 
Q 3034 2003 2786 2293 
Q 2538 2584 2113 2584 
z
M 3366 4563 
L 3366 3988 
Q 3128 4100 2886 4159 
Q 2644 4219 2406 4219 
Q 1781 4219 1451 3797 
Q 1122 3375 1075 2522 
Q 1259 2794 1537 2939 
Q 1816 3084 2150 3084 
Q 2853 3084 3261 2657 
Q 3669 2231 3669 1497 
Q 3669 778 3244 343 
Q 2819 -91 2113 -91 
Q 1303 -91 875 529 
Q 447 1150 447 2328 
Q 447 3434 972 4092 
Q 1497 4750 2381 4750 
Q 2619 4750 2861 4703 
Q 3103 4656 3366 4563 
z
" transform="scale(0.015625)"/>
       </defs>
       <use xlink:href="#DejaVuSans-32"/>
       <use xlink:href="#DejaVuSans-30" transform="translate(63.623047 0)"/>
       <use xlink:href="#DejaVuSans-30" transform="translate(127.246094 0)"/>
       <use xlink:href="#DejaVuSans-30" transform="translate(190.869141 0)"/>
       <use xlink:href="#DejaVuSans-2d" transform="translate(254.492188 0)"/>
       <use xlink:href="#DejaVuSans-30" transform="translate(290.576172 0)"/>
       <use xlink:href="#DejaVuSans-36" transform="translate(354.199219 0)"/>
      </g>
     </g>
    </g>
    <g id="xtick_7">
     <g id="line2d_7">
      <g>
       <use xlink:href="#md8d0891a72" x="342.563717" y="228.96" style="stroke: #000000; stroke-width: 0.8"/>
      </g>
     </g>
     <g id="text_7">
      <!-- 2000-07 -->
      <g transform="translate(321.672311 243.558437) scale(0.1 -0.1)">
       <defs>
        <path id="DejaVuSans-37" d="M 525 4666 
L 3525 4666 
L 3525 4397 
L 1831 0 
L 1172 0 
L 2766 4134 
L 525 4134 
L 525 4666 
z
" transform="scale(0.015625)"/>
       </defs>
       <use xlink:href="#DejaVuSans-32"/>
       <use xlink:href="#DejaVuSans-30" transform="translate(63.623047 0)"/>
       <use xlink:href="#DejaVuSans-30" transform="translate(127.246094 0)"/>
       <use xlink:href="#DejaVuSans-30" transform="translate(190.869141 0)"/>
       <use xlink:href="#DejaVuSans-2d" transform="translate(254.492188 0)"/>
       <use xlink:href="#DejaVuSans-30" transform="translate(290.576172 0)"/>
       <use xlink:href="#DejaVuSans-37" transform="translate(354.199219 0)"/>
      </g>
     </g>
    </g>
    <g id="text_8">
     <!-- row [datetime] -->
     <g transform="translate(179.229688 257.236562) scale(0.1 -0.1)">
      <defs>
       <path id="DejaVuSans-72" d="M 2631 2963 
Q 2534 3019 2420 3045 
Q 2306 3072 2169 3072 
Q 1681 3072 1420 2755 
Q 1159 2438 1159 1844 
L 1159 0 
L 581 0 
L 581 3500 
L 1159 3500 
L 1159 2956 
Q 1341 3275 1631 3429 
Q 1922 3584 2338 3584 
Q 2397 3584 2469 3576 
Q 2541 3569 2628 3553 
L 2631 2963 
z
" transform="scale(0.015625)"/>
       <path id="DejaVuSans-6f" d="M 1959 3097 
Q 1497 3097 1228 2736 
Q 959 2375 959 1747 
Q 959 1119 1226 758 
Q 1494 397 1959 397 
Q 2419 397 2687 759 
Q 2956 1122 2956 1747 
Q 2956 2369 2687 2733 
Q 2419 3097 1959 3097 
z
M 1959 3584 
Q 2709 3584 3137 3096 
Q 3566 2609 3566 1747 
Q 3566 888 3137 398 
Q 2709 -91 1959 -91 
Q 1206 -91 779 398 
Q 353 888 353 1747 
Q 353 2609 779 3096 
Q 1206 3584 1959 3584 
z
" transform="scale(0.015625)"/>
       <path id="DejaVuSans-77" d="M 269 3500 
L 844 3500 
L 1563 769 
L 2278 3500 
L 2956 3500 
L 3675 769 
L 4391 3500 
L 4966 3500 
L 4050 0 
L 3372 0 
L 2619 2869 
L 1863 0 
L 1184 0 
L 269 3500 
z
" transform="scale(0.015625)"/>
       <path id="DejaVuSans-20" transform="scale(0.015625)"/>
       <path id="DejaVuSans-5b" d="M 550 4863 
L 1875 4863 
L 1875 4416 
L 1125 4416 
L 1125 -397 
L 1875 -397 
L 1875 -844 
L 550 -844 
L 550 4863 
z
" transform="scale(0.015625)"/>
       <path id="DejaVuSans-64" d="M 2906 2969 
L 2906 4863 
L 3481 4863 
L 3481 0 
L 2906 0 
L 2906 525 
Q 2725 213 2448 61 
Q 2172 -91 1784 -91 
Q 1150 -91 751 415 
Q 353 922 353 1747 
Q 353 2572 751 3078 
Q 1150 3584 1784 3584 
Q 2172 3584 2448 3432 
Q 2725 3281 2906 2969 
z
M 947 1747 
Q 947 1113 1208 752 
Q 1469 391 1925 391 
Q 2381 391 2643 752 
Q 2906 1113 2906 1747 
Q 2906 2381 2643 2742 
Q 2381 3103 1925 3103 
Q 1469 3103 1208 2742 
Q 947 2381 947 1747 
z
" transform="scale(0.015625)"/>
       <path id="DejaVuSans-61" d="M 2194 1759 
Q 1497 1759 1228 1600 
Q 959 1441 959 1056 
Q 959 750 1161 570 
Q 1363 391 1709 391 
Q 2188 391 2477 730 
Q 2766 1069 2766 1631 
L 2766 1759 
L 2194 1759 
z
M 3341 1997 
L 3341 0 
L 2766 0 
L 2766 531 
Q 2569 213 2275 61 
Q 1981 -91 1556 -91 
Q 1019 -91 701 211 
Q 384 513 384 1019 
Q 384 1609 779 1909 
Q 1175 2209 1959 2209 
L 2766 2209 
L 2766 2266 
Q 2766 2663 2505 2880 
Q 2244 3097 1772 3097 
Q 1472 3097 1187 3025 
Q 903 2953 641 2809 
L 641 3341 
Q 956 3463 1253 3523 
Q 1550 3584 1831 3584 
Q 2591 3584 2966 3190 
Q 3341 2797 3341 1997 
z
" transform="scale(0.015625)"/>
       <path id="DejaVuSans-74" d="M 1172 4494 
L 1172 3500 
L 2356 3500 
L 2356 3053 
L 1172 3053 
L 1172 1153 
Q 1172 725 1289 603 
Q 1406 481 1766 481 
L 2356 481 
L 2356 0 
L 1766 0 
Q 1100 0 847 248 
Q 594 497 594 1153 
L 594 3053 
L 172 3053 
L 172 3500 
L 594 3500 
L 594 4494 
L 1172 4494 
z
" transform="scale(0.015625)"/>
       <path id="DejaVuSans-65" d="M 3597 1894 
L 3597 1613 
L 953 1613 
Q 991 1019 1311 708 
Q 1631 397 2203 397 
Q 2534 397 2845 478 
Q 3156 559 3463 722 
L 3463 178 
Q 3153 47 2828 -22 
Q 2503 -91 2169 -91 
Q 1331 -91 842 396 
Q 353 884 353 1716 
Q 353 2575 817 3079 
Q 1281 3584 2069 3584 
Q 2775 3584 3186 3129 
Q 3597 2675 3597 1894 
z
M 3022 2063 
Q 3016 2534 2758 2815 
Q 2500 3097 2075 3097 
Q 1594 3097 1305 2825 
Q 1016 2553 972 2059 
L 3022 2063 
z
" transform="scale(0.015625)"/>
       <path id="DejaVuSans-69" d="M 603 3500 
L 1178 3500 
L 1178 0 
L 603 0 
L 603 3500 
z
M 603 4863 
L 1178 4863 
L 1178 4134 
L 603 4134 
L 603 4863 
z
" transform="scale(0.015625)"/>
       <path id="DejaVuSans-6d" d="M 3328 2828 
Q 3544 3216 3844 3400 
Q 4144 3584 4550 3584 
Q 5097 3584 5394 3201 
Q 5691 2819 5691 2113 
L 5691 0 
L 5113 0 
L 5113 2094 
Q 5113 2597 4934 2840 
Q 4756 3084 4391 3084 
Q 3944 3084 3684 2787 
Q 3425 2491 3425 1978 
L 3425 0 
L 2847 0 
L 2847 2094 
Q 2847 2600 2669 2842 
Q 2491 3084 2119 3084 
Q 1678 3084 1418 2786 
Q 1159 2488 1159 1978 
L 1159 0 
L 581 0 
L 581 3500 
L 1159 3500 
L 1159 2956 
Q 1356 3278 1631 3431 
Q 1906 3584 2284 3584 
Q 2666 3584 2933 3390 
Q 3200 3197 3328 2828 
z
" transform="scale(0.015625)"/>
       <path id="DejaVuSans-5d" d="M 1947 4863 
L 1947 -844 
L 622 -844 
L 622 -397 
L 1369 -397 
L 1369 4416 
L 622 4416 
L 622 4863 
L 1947 4863 
z
" transform="scale(0.015625)"/>
      </defs>
      <use xlink:href="#DejaVuSans-72"/>
      <use xlink:href="#DejaVuSans-6f" transform="translate(38.863281 0)"/>
      <use xlink:href="#DejaVuSans-77" transform="translate(100.044922 0)"/>
      <use xlink:href="#DejaVuSans-20" transform="translate(181.832031 0)"/>
      <use xlink:href="#DejaVuSans-5b" transform="translate(213.619141 0)"/>
      <use xlink:href="#DejaVuSans-64" transform="translate(252.632812 0)"/>
      <use xlink:href="#DejaVuSans-61" transform="translate(316.109375 0)"/>
      <use xlink:href="#DejaVuSans-74" transform="translate(377.388672 0)"/>
      <use xlink:href="#DejaVuSans-65" transform="translate(416.597656 0)"/>
      <use xlink:href="#DejaVuSans-74" transform="translate(478.121094 0)"/>
      <use xlink:href="#DejaVuSans-69" transform="translate(517.330078 0)"/>
      <use xlink:href="#DejaVuSans-6d" transform="translate(545.113281 0)"/>
      <use xlink:href="#DejaVuSans-65" transform="translate(642.525391 0)"/>
      <use xlink:href="#DejaVuSans-5d" transform="translate(704.048828 0)"/>
     </g>
    </g>
   </g>
   <g id="matplotlib.axis_2">
    <g id="ytick_1">
     <g id="line2d_8">
      <defs>
       <path id="mca40adf3ea" d="M 0 0 
L -3.5 0 
" style="stroke: #000000; stroke-width: 0.8"/>
      </defs>
      <g>
       <use xlink:href="#mca40adf3ea" x="48.982813" y="227.510629" style="stroke: #000000; stroke-width: 0.8"/>
      </g>
     </g>
     <g id="text_9">
      <!-- −20 -->
      <g transform="translate(20.878125 231.309848) scale(0.1 -0.1)">
       <defs>
        <path id="DejaVuSans-2212" d="M 678 2272 
L 4684 2272 
L 4684 1741 
L 678 1741 
L 678 2272 
z
" transform="scale(0.015625)"/>
       </defs>
       <use xlink:href="#DejaVuSans-2212"/>
       <use xlink:href="#DejaVuSans-32" transform="translate(83.789062 0)"/>
       <use xlink:href="#DejaVuSans-30" transform="translate(147.412109 0)"/>
      </g>
     </g>
    </g>
    <g id="ytick_2">
     <g id="line2d_9">
      <g>
       <use xlink:href="#mca40adf3ea" x="48.982813" y="202.818682" style="stroke: #000000; stroke-width: 0.8"/>
      </g>
     </g>
     <g id="text_10">
      <!-- −15 -->
      <g transform="translate(20.878125 206.617901) scale(0.1 -0.1)">
       <use xlink:href="#DejaVuSans-2212"/>
       <use xlink:href="#DejaVuSans-31" transform="translate(83.789062 0)"/>
       <use xlink:href="#DejaVuSans-35" transform="translate(147.412109 0)"/>
      </g>
     </g>
    </g>
    <g id="ytick_3">
     <g id="line2d_10">
      <g>
       <use xlink:href="#mca40adf3ea" x="48.982813" y="178.126735" style="stroke: #000000; stroke-width: 0.8"/>
      </g>
     </g>
     <g id="text_11">
      <!-- −10 -->
      <g transform="translate(20.878125 181.925954) scale(0.1 -0.1)">
       <use xlink:href="#DejaVuSans-2212"/>
       <use xlink:href="#DejaVuSans-31" transform="translate(83.789062 0)"/>
       <use xlink:href="#DejaVuSans-30" transform="translate(147.412109 0)"/>
      </g>
     </g>
    </g>
    <g id="ytick_4">
     <g id="line2d_11">
      <g>
       <use xlink:href="#mca40adf3ea" x="48.982813" y="153.434788" style="stroke: #000000; stroke-width: 0.8"/>
      </g>
     </g>
     <g id="text_12">
      <!-- −5 -->
      <g transform="translate(27.240625 157.234007) scale(0.1 -0.1)">
       <use xlink:href="#DejaVuSans-2212"/>
       <use xlink:href="#DejaVuSans-35" transform="translate(83.789062 0)"/>
      </g>
     </g>
    </g>
    <g id="ytick_5">
     <g id="line2d_12">
      <g>
       <use xlink:href="#mca40adf3ea" x="48.982813" y="128.742842" style="stroke: #000000; stroke-width: 0.8"/>
      </g>
     </g>
     <g id="text_13">
      <!-- 0 -->
      <g transform="translate(35.620312 132.54206) scale(0.1 -0.1)">
       <use xlink:href="#DejaVuSans-30"/>
      </g>
     </g>
    </g>
    <g id="ytick_6">
     <g id="line2d_13">
      <g>
       <use xlink:href="#mca40adf3ea" x="48.982813" y="104.050895" style="stroke: #000000; stroke-width: 0.8"/>
      </g>
     </g>
     <g id="text_14">
      <!-- 5 -->
      <g transform="translate(35.620312 107.850113) scale(0.1 -0.1)">
       <use xlink:href="#DejaVuSans-35"/>
      </g>
     </g>
    </g>
    <g id="ytick_7">
     <g id="line2d_14">
      <g>
       <use xlink:href="#mca40adf3ea" x="48.982813" y="79.358948" style="stroke: #000000; stroke-width: 0.8"/>
      </g>
     </g>
     <g id="text_15">
      <!-- 10 -->
      <g transform="translate(29.257812 83.158167) scale(0.1 -0.1)">
       <use xlink:href="#DejaVuSans-31"/>
       <use xlink:href="#DejaVuSans-30" transform="translate(63.623047 0)"/>
      </g>
     </g>
    </g>
    <g id="ytick_8">
     <g id="line2d_15">
      <g>
       <use xlink:href="#mca40adf3ea" x="48.982813" y="54.667001" style="stroke: #000000; stroke-width: 0.8"/>
      </g>
     </g>
     <g id="text_16">
      <!-- 15 -->
      <g transform="translate(29.257812 58.46622) scale(0.1 -0.1)">
       <use xlink:href="#DejaVuSans-31"/>
       <use xlink:href="#DejaVuSans-35" transform="translate(63.623047 0)"/>
      </g>
     </g>
    </g>
    <g id="ytick_9">
     <g id="line2d_16">
      <g>
       <use xlink:href="#mca40adf3ea" x="48.982813" y="29.975054" style="stroke: #000000; stroke-width: 0.8"/>
      </g>
     </g>
     <g id="text_17">
      <!-- 20 -->
      <g transform="translate(29.257812 33.774273) scale(0.1 -0.1)">
       <use xlink:href="#DejaVuSans-32"/>
       <use xlink:href="#DejaVuSans-30" transform="translate(63.623047 0)"/>
      </g>
     </g>
    </g>
    <g id="text_18">
     <!-- [dimensionless] -->
     <g transform="translate(14.798437 157.557344) rotate(-90) scale(0.1 -0.1)">
      <defs>
       <path id="DejaVuSans-6e" d="M 3513 2113 
L 3513 0 
L 2938 0 
L 2938 2094 
Q 2938 2591 2744 2837 
Q 2550 3084 2163 3084 
Q 1697 3084 1428 2787 
Q 1159 2491 1159 1978 
L 1159 0 
L 581 0 
L 581 3500 
L 1159 3500 
L 1159 2956 
Q 1366 3272 1645 3428 
Q 1925 3584 2291 3584 
Q 2894 3584 3203 3211 
Q 3513 2838 3513 2113 
z
" transform="scale(0.015625)"/>
       <path id="DejaVuSans-73" d="M 2834 3397 
L 2834 2853 
Q 2591 2978 2328 3040 
Q 2066 3103 1784 3103 
Q 1356 3103 1142 2972 
Q 928 2841 928 2578 
Q 928 2378 1081 2264 
Q 1234 2150 1697 2047 
L 1894 2003 
Q 2506 1872 2764 1633 
Q 3022 1394 3022 966 
Q 3022 478 2636 193 
Q 2250 -91 1575 -91 
Q 1294 -91 989 -36 
Q 684 19 347 128 
L 347 722 
Q 666 556 975 473 
Q 1284 391 1588 391 
Q 1994 391 2212 530 
Q 2431 669 2431 922 
Q 2431 1156 2273 1281 
Q 2116 1406 1581 1522 
L 1381 1569 
Q 847 1681 609 1914 
Q 372 2147 372 2553 
Q 372 3047 722 3315 
Q 1072 3584 1716 3584 
Q 2034 3584 2315 3537 
Q 2597 3491 2834 3397 
z
" transform="scale(0.015625)"/>
       <path id="DejaVuSans-6c" d="M 603 4863 
L 1178 4863 
L 1178 0 
L 603 0 
L 603 4863 
z
" transform="scale(0.015625)"/>
      </defs>
      <use xlink:href="#DejaVuSans-5b"/>
      <use xlink:href="#DejaVuSans-64" transform="translate(39.013672 0)"/>
      <use xlink:href="#DejaVuSans-69" transform="translate(102.490234 0)"/>
      <use xlink:href="#DejaVuSans-6d" transform="translate(130.273438 0)"/>
      <use xlink:href="#DejaVuSans-65" transform="translate(227.685547 0)"/>
      <use xlink:href="#DejaVuSans-6e" transform="translate(289.208984 0)"/>
      <use xlink:href="#DejaVuSans-73" transform="translate(352.587891 0)"/>
      <use xlink:href="#DejaVuSans-69" transform="translate(404.6875 0)"/>
      <use xlink:href="#DejaVuSans-6f" transform="translate(432.470703 0)"/>
      <use xlink:href="#DejaVuSans-6e" transform="translate(493.652344 0)"/>
      <use xlink:href="#DejaVuSans-6c" transform="translate(557.03125 0)"/>
      <use xlink:href="#DejaVuSans-65" transform="translate(584.814453 0)"/>
      <use xlink:href="#DejaVuSans-73" transform="translate(646.337891 0)"/>
      <use xlink:href="#DejaVuSans-73" transform="translate(698.4375 0)"/>
      <use xlink:href="#DejaVuSans-5d" transform="translate(750.537109 0)"/>
     </g>
    </g>
   </g>
   <g id="line2d_17">
    <path d="M 64.200994 127.604373 
L 65.73046 120.048939 
L 67.259925 113.678377 
L 68.789391 110.235531 
L 70.318856 111.392348 
L 71.848322 114.898993 
L 73.377787 113.166418 
L 74.907253 118.244338 
L 76.436718 118.441007 
L 77.966184 124.829068 
L 79.495649 132.491044 
L 81.025115 130.867978 
L 82.55458 137.107624 
L 84.084046 137.86477 
L 85.613511 141.522913 
L 87.142977 145.820279 
L 88.672442 146.547116 
L 90.201908 141.315642 
L 91.731373 137.333999 
L 93.260839 135.599881 
L 94.790305 133.172383 
L 96.31977 135.345351 
L 97.849236 126.89116 
L 100.908167 132.149827 
L 102.437632 130.422666 
L 103.967098 129.317872 
L 105.496563 119.133107 
L 107.026029 129.009109 
L 108.555494 127.902279 
L 111.614425 128.001196 
L 113.143891 127.695904 
L 114.673356 129.002894 
L 116.202822 134.939237 
L 117.732287 132.661849 
L 119.261753 130.656905 
L 120.791218 137.978803 
L 122.320684 135.445046 
L 123.850149 137.611411 
L 125.379615 141.78583 
L 126.90908 138.130573 
L 128.438546 138.283378 
L 129.968011 134.593396 
L 131.497477 132.646316 
L 133.026942 128.282844 
L 136.085873 117.923828 
L 137.615339 128.341584 
L 139.144804 129.268395 
L 140.67427 126.770369 
L 142.203735 124.661312 
L 143.733201 121.538085 
L 145.262666 118.686574 
L 146.792132 127.425679 
L 148.321597 123.251799 
L 149.851063 122.665429 
L 151.380528 127.224433 
L 152.909994 133.136736 
L 154.439459 134.371571 
L 155.968925 136.380362 
L 157.49839 144.991053 
L 159.027856 145.798221 
L 160.557321 144.455552 
L 162.086787 143.790334 
L 163.616252 144.434055 
L 165.145718 140.719289 
L 166.675183 133.562215 
L 168.204649 127.981318 
L 169.734114 121.962573 
L 171.26358 117.31652 
L 172.793045 115.299258 
L 174.322511 116.455695 
L 175.851977 110.087814 
L 177.381442 109.849698 
L 178.910908 112.614897 
L 180.440373 110.397889 
L 181.969839 95.384071 
L 183.499304 92.387583 
L 185.02877 100.733884 
L 186.558235 97.495666 
L 188.087701 97.856813 
L 189.617166 104.587535 
L 191.146632 102.303656 
L 192.676097 101.123406 
L 194.205563 98.528796 
L 195.735028 110.684549 
L 197.264494 115.294064 
L 198.793959 113.984837 
L 200.323425 108.615097 
L 201.85289 107.494683 
L 203.382356 102.770972 
L 204.911821 99.431076 
L 206.441287 105.020833 
L 207.970752 96.795304 
L 209.500218 109.617993 
L 211.029683 106.232813 
L 212.559149 107.801649 
L 214.088614 115.661494 
L 215.61808 109.886793 
L 217.147545 107.780278 
L 218.677011 104.871313 
L 220.206476 103.758637 
L 221.735942 103.577813 
L 223.265407 95.916463 
L 224.794873 89.401782 
L 226.324338 96.596245 
L 227.853804 92.826853 
L 229.383269 95.114884 
L 230.912735 96.764204 
L 232.4422 87.9122 
L 233.971666 84.546641 
L 235.501131 73.845806 
L 237.030597 76.693457 
L 238.560062 72.801079 
L 240.089528 69.971954 
L 241.618993 69.044123 
L 244.677924 65.519776 
L 246.20739 57.341903 
L 247.736855 51.092673 
L 249.266321 47.857737 
L 250.795786 53.413284 
L 252.325252 46.199713 
L 253.854717 44.458261 
L 255.384183 43.478267 
L 256.913648 44.120377 
L 258.443114 40.856438 
L 259.97258 42.794866 
L 261.502045 42.724027 
L 263.031511 47.677829 
L 264.560976 53.354175 
L 266.090442 56.112844 
L 267.619907 55.926214 
L 269.149373 54.596412 
L 270.678838 56.144389 
L 272.208304 57.176199 
L 273.737769 60.142753 
L 275.267235 57.125332 
L 276.7967 51.67428 
L 278.326166 61.744638 
L 279.855631 65.431327 
L 281.385097 68.715033 
L 282.914562 71.247261 
L 284.444028 71.42763 
L 285.973493 71.44209 
L 287.502959 81.264781 
L 289.032424 79.32552 
L 290.56189 67.211559 
L 293.620821 66.448186 
L 296.679752 59.260698 
L 298.209217 51.381673 
L 299.738683 53.569185 
L 301.268148 42.71834 
L 302.797614 43.151177 
L 304.327079 45.189035 
L 305.856545 39.059405 
L 307.38601 40.293609 
L 308.915476 46.164807 
L 310.444941 49.915452 
L 311.974407 46.229821 
L 313.503872 56.372044 
L 315.033338 52.103669 
L 316.562803 54.849209 
L 318.092269 51.196233 
L 319.621734 46.231486 
L 321.1512 44.310696 
L 322.680665 45.395821 
L 324.210131 54.1573 
L 325.739596 52.767292 
L 327.269062 47.754267 
L 328.798527 41.384491 
L 330.327993 46.510179 
L 331.857458 45.47881 
L 333.386924 47.080526 
L 334.916389 48.085707 
L 336.445855 45.038605 
L 337.97532 46.553578 
L 339.504786 48.228773 
L 341.034252 44.695546 
L 342.563717 50.190177 
L 344.093183 44.300239 
L 345.622648 40.468957 
L 347.152114 41.061537 
L 350.211045 24.192546 
L 351.74051 20.617314 
L 353.269976 13.835577 
L 354.799441 26.19405 
L 356.328907 21.275924 
L 357.858372 25.548526 
L 359.387838 30.692972 
L 360.917303 33.219946 
L 362.446769 31.751659 
L 363.976234 31.88272 
L 365.5057 33.49714 
L 367.035165 36.696373 
L 368.564631 43.315481 
L 368.564631 43.315481 
" clip-path="url(#p5998e6d39a)" style="fill: none; stroke: #1f77b4; stroke-width: 1.5; stroke-linecap: square"/>
   </g>
   <g id="line2d_18">
    <path d="M 64.200994 135.430329 
L 65.73046 145.128838 
L 67.259925 147.716128 
L 68.789391 146.158457 
L 70.318856 150.886593 
L 71.848322 150.053306 
L 73.377787 150.25656 
L 74.907253 146.605922 
L 76.436718 142.403677 
L 77.966184 136.268646 
L 79.495649 136.332954 
L 81.025115 145.371644 
L 82.55458 137.315952 
L 84.084046 134.942781 
L 85.613511 143.643789 
L 87.142977 149.032115 
L 88.672442 139.717004 
L 90.201908 142.104348 
L 91.731373 147.056432 
L 93.260839 145.657118 
L 94.790305 138.971661 
L 96.31977 143.089157 
L 97.849236 144.231916 
L 99.378701 146.308084 
L 100.908167 144.695803 
L 102.437632 143.63153 
L 103.967098 141.229868 
L 105.496563 143.397719 
L 107.026029 142.774321 
L 108.555494 144.733352 
L 110.08496 149.20058 
L 111.614425 152.814414 
L 113.143891 154.301516 
L 114.673356 151.996362 
L 116.202822 159.068028 
L 117.732287 164.173569 
L 119.261753 175.493987 
L 120.791218 181.227328 
L 122.320684 185.448578 
L 123.850149 180.410601 
L 125.379615 180.982353 
L 126.90908 176.763072 
L 128.438546 181.837172 
L 129.968011 178.572445 
L 133.026942 182.531747 
L 134.556408 185.785981 
L 136.085873 185.535161 
L 137.615339 187.000495 
L 139.144804 192.907205 
L 140.67427 196.275091 
L 142.203735 200.492905 
L 143.733201 195.176123 
L 145.262666 195.780949 
L 146.792132 189.848445 
L 148.321597 193.434974 
L 149.851063 192.62369 
L 151.380528 195.997654 
L 152.909994 198.22798 
L 154.439459 202.872432 
L 155.968925 205.599663 
L 159.027856 187.939207 
L 160.557321 184.715213 
L 162.086787 180.244521 
L 163.616252 180.005079 
L 165.145718 182.894979 
L 166.675183 182.676313 
L 168.204649 182.271449 
L 169.734114 188.33115 
L 171.26358 196.869612 
L 172.793045 187.373268 
L 174.322511 193.235732 
L 175.851977 188.83968 
L 177.381442 201.766503 
L 180.440373 205.683426 
L 181.969839 201.009945 
L 183.499304 199.753839 
L 185.02877 194.289454 
L 186.558235 201.510096 
L 188.087701 204.592631 
L 189.617166 205.055529 
L 191.146632 207.318819 
L 192.676097 207.687297 
L 194.205563 200.166885 
L 195.735028 197.626522 
L 197.264494 194.378848 
L 198.793959 196.471633 
L 200.323425 178.740658 
L 201.85289 170.688686 
L 203.382356 174.128064 
L 204.911821 166.844998 
L 206.441287 169.875687 
L 207.970752 167.638466 
L 209.500218 177.092773 
L 211.029683 182.490471 
L 212.559149 175.281116 
L 214.088614 176.302997 
L 215.61808 168.956934 
L 217.147545 169.961101 
L 218.677011 171.849844 
L 221.735942 176.169469 
L 223.265407 180.871208 
L 224.794873 178.371054 
L 226.324338 182.452056 
L 227.853804 178.285038 
L 229.383269 172.62239 
L 230.912735 173.657104 
L 232.4422 174.313704 
L 233.971666 172.866614 
L 235.501131 161.851045 
L 237.030597 158.613511 
L 238.560062 162.348568 
L 240.089528 157.288935 
L 241.618993 163.807272 
L 243.148459 162.854486 
L 244.677924 165.66557 
L 246.20739 164.020489 
L 247.736855 168.732872 
L 249.266321 168.966319 
L 250.795786 176.073261 
L 252.325252 176.809491 
L 253.854717 184.45147 
L 255.384183 189.78178 
L 256.913648 183.496652 
L 258.443114 182.341611 
L 259.97258 182.703486 
L 261.502045 188.341239 
L 263.031511 184.977693 
L 264.560976 188.571245 
L 266.090442 193.668178 
L 267.619907 196.433792 
L 269.149373 204.887276 
L 270.678838 198.756052 
L 272.208304 198.852612 
L 273.737769 197.664161 
L 275.267235 202.593295 
L 276.7967 204.007397 
L 278.326166 207.029151 
L 279.855631 204.491533 
L 281.385097 203.111059 
L 282.914562 203.286844 
L 284.444028 208.610347 
L 285.973493 202.290464 
L 287.502959 204.39794 
L 289.032424 218.401395 
L 290.56189 203.25586 
L 292.091355 211.948204 
L 293.620821 212.081724 
L 295.150286 215.493055 
L 296.679752 215.809117 
L 298.209217 219.822887 
L 299.738683 224.48299 
L 301.268148 221.617203 
L 302.797614 212.768091 
L 304.327079 213.534542 
L 305.856545 212.837524 
L 307.38601 208.381533 
L 308.915476 206.231071 
L 310.444941 206.351677 
L 313.503872 193.42872 
L 315.033338 190.321614 
L 316.562803 186.510769 
L 318.092269 189.912368 
L 319.621734 199.750351 
L 321.1512 200.518622 
L 322.680665 196.463228 
L 324.210131 199.575249 
L 327.269062 207.174454 
L 328.798527 207.125647 
L 330.327993 210.81253 
L 331.857458 211.786485 
L 333.386924 211.100671 
L 334.916389 213.136007 
L 336.445855 218.686124 
L 337.97532 212.10629 
L 339.504786 217.424096 
L 341.034252 214.994221 
L 342.563717 208.271278 
L 344.093183 207.202544 
L 345.622648 213.643848 
L 347.152114 208.738782 
L 348.681579 211.22692 
L 351.74051 208.156698 
L 354.799441 194.800259 
L 356.328907 194.565605 
L 357.858372 200.868365 
L 359.387838 200.983671 
L 360.917303 196.464312 
L 362.446769 188.011437 
L 363.976234 182.123295 
L 365.5057 175.199019 
L 367.035165 179.681945 
L 368.564631 171.296225 
L 368.564631 171.296225 
" clip-path="url(#p5998e6d39a)" style="fill: none; stroke: #ff7f0e; stroke-width: 1.5; stroke-linecap: square"/>
   </g>
   <g id="line2d_19">
    <path d="M 64.200994 135.067223 
L 65.73046 132.506992 
L 67.259925 135.756751 
L 68.789391 140.676522 
L 70.318856 144.915003 
L 71.848322 147.960293 
L 73.377787 147.698139 
L 74.907253 149.393058 
L 76.436718 156.754734 
L 77.966184 152.164966 
L 79.495649 145.110245 
L 81.025115 140.606323 
L 82.55458 145.440235 
L 84.084046 140.907514 
L 85.613511 135.421949 
L 87.142977 130.875706 
L 88.672442 134.958776 
L 90.201908 142.903886 
L 91.731373 142.331271 
L 93.260839 136.856044 
L 94.790305 137.380541 
L 96.31977 151.703275 
L 97.849236 152.973561 
L 99.378701 154.569262 
L 100.908167 154.040019 
L 102.437632 149.108746 
L 103.967098 152.380727 
L 105.496563 158.552337 
L 107.026029 167.685159 
L 108.555494 157.38678 
L 110.08496 161.639442 
L 111.614425 161.598043 
L 113.143891 161.338244 
L 114.673356 158.003713 
L 116.202822 163.302725 
L 117.732287 161.971758 
L 119.261753 164.302657 
L 120.791218 164.766741 
L 122.320684 171.078618 
L 123.850149 169.255215 
L 125.379615 170.795198 
L 126.90908 171.1049 
L 128.438546 171.099696 
L 129.968011 173.815421 
L 131.497477 173.8459 
L 133.026942 175.500241 
L 134.556408 175.203041 
L 136.085873 169.133186 
L 137.615339 166.068329 
L 139.144804 162.087628 
L 140.67427 160.225562 
L 142.203735 151.845083 
L 143.733201 148.418597 
L 145.262666 150.513362 
L 146.792132 150.862011 
L 148.321597 161.187307 
L 149.851063 158.028659 
L 151.380528 162.934522 
L 152.909994 162.566125 
L 154.439459 163.819236 
L 155.968925 163.85669 
L 157.49839 159.932748 
L 159.027856 152.531095 
L 160.557321 161.029795 
L 162.086787 158.910063 
L 163.616252 158.589026 
L 165.145718 154.969841 
L 166.675183 164.736262 
L 168.204649 155.375424 
L 169.734114 156.544354 
L 171.26358 151.374342 
L 172.793045 147.998453 
L 174.322511 145.780867 
L 175.851977 149.02704 
L 177.381442 156.632037 
L 178.910908 158.976246 
L 180.440373 160.87798 
L 181.969839 158.831194 
L 183.499304 167.446654 
L 185.02877 171.763066 
L 186.558235 177.646055 
L 188.087701 174.912129 
L 189.617166 179.71653 
L 191.146632 175.603422 
L 192.676097 175.158996 
L 194.205563 171.728068 
L 195.735028 167.230579 
L 197.264494 171.15543 
L 198.793959 169.264616 
L 200.323425 161.877051 
L 201.85289 167.169704 
L 203.382356 158.557369 
L 204.911821 158.546468 
L 206.441287 154.915154 
L 207.970752 145.140274 
L 209.500218 140.510402 
L 211.029683 143.248986 
L 212.559149 135.730512 
L 214.088614 124.108389 
L 215.61808 121.900287 
L 217.147545 123.63165 
L 218.677011 129.128433 
L 220.206476 131.727782 
L 221.735942 133.755898 
L 223.265407 137.031762 
L 224.794873 145.343359 
L 226.324338 143.233408 
L 227.853804 142.428244 
L 229.383269 142.95889 
L 230.912735 144.023392 
L 232.4422 143.459161 
L 233.971666 147.518757 
L 235.501131 148.930182 
L 237.030597 147.559947 
L 238.560062 154.449115 
L 240.089528 151.417149 
L 241.618993 145.14125 
L 243.148459 133.645468 
L 244.677924 135.009998 
L 246.20739 138.132468 
L 247.736855 133.402429 
L 249.266321 135.100084 
L 250.795786 135.448992 
L 252.325252 139.680172 
L 253.854717 147.830791 
L 255.384183 151.613709 
L 256.913648 150.233061 
L 258.443114 151.97683 
L 259.97258 150.385205 
L 261.502045 152.620055 
L 263.031511 144.838385 
L 264.560976 146.863152 
L 266.090442 136.33991 
L 267.619907 134.773621 
L 269.149373 133.560351 
L 270.678838 136.920972 
L 272.208304 135.130301 
L 273.737769 138.822317 
L 275.267235 144.43967 
L 276.7967 150.832789 
L 278.326166 149.075977 
L 279.855631 143.350123 
L 281.385097 128.875762 
L 282.914562 129.151888 
L 284.444028 118.062788 
L 285.973493 117.108051 
L 287.502959 116.876469 
L 289.032424 101.03758 
L 290.56189 96.816655 
L 292.091355 98.998298 
L 293.620821 96.919403 
L 295.150286 94.030646 
L 296.679752 97.132863 
L 298.209217 94.398486 
L 299.738683 95.218277 
L 301.268148 103.378452 
L 302.797614 103.172669 
L 304.327079 106.850362 
L 305.856545 109.375194 
L 307.38601 99.090357 
L 308.915476 102.955185 
L 311.974407 97.557326 
L 313.503872 99.095873 
L 315.033338 101.012653 
L 316.562803 102.585497 
L 318.092269 89.350908 
L 319.621734 87.919606 
L 321.1512 82.467304 
L 322.680665 81.079243 
L 324.210131 79.477733 
L 325.739596 77.030114 
L 327.269062 73.988266 
L 328.798527 73.086512 
L 330.327993 76.910746 
L 331.857458 78.380204 
L 333.386924 76.468791 
L 334.916389 67.189254 
L 336.445855 80.317083 
L 337.97532 86.168198 
L 339.504786 82.659719 
L 341.034252 77.061555 
L 342.563717 72.684574 
L 344.093183 70.282419 
L 345.622648 69.916828 
L 347.152114 68.569463 
L 348.681579 73.060487 
L 350.211045 66.206913 
L 351.74051 71.51374 
L 353.269976 65.783896 
L 354.799441 66.696569 
L 356.328907 68.63376 
L 357.858372 63.887436 
L 359.387838 61.434224 
L 360.917303 60.367046 
L 362.446769 61.151358 
L 363.976234 58.876799 
L 365.5057 54.497109 
L 367.035165 55.529833 
L 368.564631 53.549833 
L 368.564631 53.549833 
" clip-path="url(#p5998e6d39a)" style="fill: none; stroke: #2ca02c; stroke-width: 1.5; stroke-linecap: square"/>
   </g>
   <g id="line2d_20">
    <path d="M 64.200994 134.441232 
L 65.73046 131.630919 
L 67.259925 122.307203 
L 68.789391 120.010029 
L 71.848322 129.87025 
L 73.377787 133.02766 
L 74.907253 135.413624 
L 76.436718 126.282477 
L 77.966184 121.920137 
L 79.495649 123.881319 
L 81.025115 131.131719 
L 82.55458 140.503795 
L 84.084046 141.523583 
L 85.613511 138.454468 
L 87.142977 134.802585 
L 88.672442 137.401609 
L 90.201908 135.140772 
L 91.731373 128.161316 
L 93.260839 128.768519 
L 94.790305 128.589037 
L 96.31977 127.768151 
L 97.849236 119.797301 
L 99.378701 128.098137 
L 100.908167 133.731596 
L 102.437632 142.30487 
L 103.967098 145.39792 
L 105.496563 146.689027 
L 107.026029 142.808984 
L 108.555494 136.88255 
L 110.08496 143.646126 
L 111.614425 146.474457 
L 113.143891 152.258408 
L 114.673356 144.321352 
L 116.202822 145.2253 
L 117.732287 144.904876 
L 119.261753 142.15406 
L 120.791218 139.732109 
L 122.320684 133.009636 
L 123.850149 128.695726 
L 125.379615 131.642318 
L 126.90908 137.648053 
L 128.438546 136.421305 
L 129.968011 142.295938 
L 131.497477 142.678623 
L 133.026942 141.442785 
L 134.556408 144.478219 
L 136.085873 145.638544 
L 137.615339 145.871208 
L 139.144804 154.095795 
L 140.67427 160.013097 
L 142.203735 162.094919 
L 143.733201 159.726398 
L 145.262666 158.989446 
L 146.792132 152.111217 
L 148.321597 146.414476 
L 149.851063 141.297857 
L 151.380528 130.199173 
L 152.909994 141.118727 
L 154.439459 138.419306 
L 155.968925 138.153284 
L 157.49839 139.77612 
L 159.027856 146.793228 
L 160.557321 151.285555 
L 162.086787 156.896606 
L 163.616252 160.995878 
L 165.145718 162.271304 
L 166.675183 164.211846 
L 168.204649 178.8877 
L 169.734114 178.152292 
L 171.26358 178.343963 
L 172.793045 172.530463 
L 174.322511 174.706871 
L 175.851977 171.797723 
L 177.381442 174.317736 
L 178.910908 177.373969 
L 180.440373 170.121188 
L 181.969839 166.089826 
L 183.499304 157.855316 
L 185.02877 148.341642 
L 186.558235 149.842976 
L 188.087701 147.258796 
L 191.146632 139.963658 
L 192.676097 138.966617 
L 194.205563 146.514727 
L 195.735028 147.731646 
L 197.264494 149.694533 
L 198.793959 147.226258 
L 200.323425 142.321488 
L 201.85289 147.15945 
L 203.382356 145.216896 
L 206.441287 146.920002 
L 207.970752 149.078627 
L 209.500218 151.653851 
L 211.029683 146.024648 
L 212.559149 145.104469 
L 214.088614 147.891675 
L 215.61808 142.720924 
L 217.147545 143.720997 
L 218.677011 136.614782 
L 220.206476 133.475236 
L 221.735942 136.041735 
L 223.265407 132.140949 
L 224.794873 133.998345 
L 226.324338 130.523545 
L 227.853804 135.983484 
L 229.383269 132.309601 
L 230.912735 133.536438 
L 232.4422 130.976735 
L 233.971666 131.570455 
L 235.501131 136.975125 
L 237.030597 129.525534 
L 238.560062 119.176485 
L 240.089528 109.658168 
L 241.618993 107.227401 
L 243.148459 107.992849 
L 244.677924 112.508302 
L 246.20739 115.34065 
L 247.736855 118.80564 
L 249.266321 116.30339 
L 250.795786 117.240874 
L 252.325252 116.724018 
L 253.854717 110.803809 
L 255.384183 105.797655 
L 256.913648 108.641376 
L 258.443114 102.736121 
L 259.97258 110.75005 
L 261.502045 107.941874 
L 263.031511 114.05161 
L 264.560976 121.016996 
L 266.090442 122.138857 
L 267.619907 120.055964 
L 269.149373 120.37166 
L 270.678838 125.635869 
L 272.208304 116.705535 
L 273.737769 116.482607 
L 275.267235 120.834325 
L 276.7967 129.950835 
L 278.326166 127.34674 
L 279.855631 119.980714 
L 281.385097 110.447418 
L 282.914562 109.735132 
L 284.444028 114.652533 
L 285.973493 123.438438 
L 287.502959 119.183422 
L 289.032424 130.85327 
L 290.56189 129.595775 
L 292.091355 120.567282 
L 293.620821 120.121513 
L 295.150286 122.307684 
L 296.679752 126.36828 
L 298.209217 121.296031 
L 299.738683 121.039754 
L 301.268148 120.647438 
L 302.797614 110.197309 
L 304.327079 112.787031 
L 305.856545 114.208637 
L 307.38601 116.85573 
L 308.915476 114.884792 
L 310.444941 101.357333 
L 311.974407 95.844151 
L 313.503872 91.960191 
L 315.033338 103.938938 
L 316.562803 112.15012 
L 318.092269 104.500661 
L 319.621734 95.996549 
L 321.1512 92.895042 
L 322.680665 98.926327 
L 324.210131 90.105836 
L 325.739596 90.199708 
L 327.269062 85.731791 
L 328.798527 92.809782 
L 330.327993 92.531095 
L 331.857458 90.353049 
L 333.386924 86.070891 
L 334.916389 80.42583 
L 336.445855 80.743671 
L 337.97532 80.902532 
L 339.504786 83.635097 
L 341.034252 74.792549 
L 344.093183 85.420651 
L 345.622648 81.708076 
L 347.152114 81.571861 
L 348.681579 77.548339 
L 350.211045 82.500091 
L 351.74051 75.913819 
L 353.269976 75.731547 
L 354.799441 77.761081 
L 356.328907 67.143919 
L 357.858372 61.147742 
L 359.387838 65.860991 
L 360.917303 72.425125 
L 363.976234 64.654557 
L 365.5057 66.934647 
L 367.035165 63.279648 
L 368.564631 60.349567 
L 368.564631 60.349567 
" clip-path="url(#p5998e6d39a)" style="fill: none; stroke: #d62728; stroke-width: 1.5; stroke-linecap: square"/>
   </g>
   <g id="patch_3">
    <path d="M 48.982813 228.96 
L 48.982813 7.2 
" style="fill: none; stroke: #000000; stroke-width: 0.8; stroke-linejoin: miter; stroke-linecap: square"/>
   </g>
   <g id="patch_4">
    <path d="M 383.782813 228.96 
L 383.782813 7.2 
" style="fill: none; stroke: #000000; stroke-width: 0.8; stroke-linejoin: miter; stroke-linecap: square"/>
   </g>
   <g id="patch_5">
    <path d="M 48.982812 228.96 
L 383.782812 228.96 
" style="fill: none; stroke: #000000; stroke-width: 0.8; stroke-linejoin: miter; stroke-linecap: square"/>
   </g>
   <g id="patch_6">
    <path d="M 48.982812 7.2 
L 383.782812 7.2 
" style="fill: none; stroke: #000000; stroke-width: 0.8; stroke-linejoin: miter; stroke-linecap: square"/>
   </g>
   <g id="legend_1">
    <g id="patch_7">
     <path d="M 55.982813 73.9125 
L 95.682813 73.9125 
Q 97.682813 73.9125 97.682813 71.9125 
L 97.682813 14.2 
Q 97.682813 12.2 95.682813 12.2 
L 55.982813 12.2 
Q 53.982813 12.2 53.982813 14.2 
L 53.982813 71.9125 
Q 53.982813 73.9125 55.982813 73.9125 
z
" style="fill: #ffffff; opacity: 0.8; stroke: #cccccc; stroke-linejoin: miter"/>
    </g>
    <g id="line2d_21">
     <path d="M 57.982813 20.298437 
L 67.982812 20.298437 
L 77.982812 20.298437 
" style="fill: none; stroke: #1f77b4; stroke-width: 1.5; stroke-linecap: square"/>
    </g>
    <g id="text_19">
     <!-- A -->
     <g transform="translate(85.982812 23.798437) scale(0.1 -0.1)">
      <defs>
       <path id="DejaVuSans-41" d="M 2188 4044 
L 1331 1722 
L 3047 1722 
L 2188 4044 
z
M 1831 4666 
L 2547 4666 
L 4325 0 
L 3669 0 
L 3244 1197 
L 1141 1197 
L 716 0 
L 50 0 
L 1831 4666 
z
" transform="scale(0.015625)"/>
      </defs>
      <use xlink:href="#DejaVuSans-41"/>
     </g>
    </g>
    <g id="line2d_22">
     <path d="M 57.982813 34.976562 
L 67.982812 34.976562 
L 77.982812 34.976562 
" style="fill: none; stroke: #ff7f0e; stroke-width: 1.5; stroke-linecap: square"/>
    </g>
    <g id="text_20">
     <!-- B -->
     <g transform="translate(85.982812 38.476562) scale(0.1 -0.1)">
      <defs>
       <path id="DejaVuSans-42" d="M 1259 2228 
L 1259 519 
L 2272 519 
Q 2781 519 3026 730 
Q 3272 941 3272 1375 
Q 3272 1813 3026 2020 
Q 2781 2228 2272 2228 
L 1259 2228 
z
M 1259 4147 
L 1259 2741 
L 2194 2741 
Q 2656 2741 2882 2914 
Q 3109 3088 3109 3444 
Q 3109 3797 2882 3972 
Q 2656 4147 2194 4147 
L 1259 4147 
z
M 628 4666 
L 2241 4666 
Q 2963 4666 3353 4366 
Q 3744 4066 3744 3513 
Q 3744 3084 3544 2831 
Q 3344 2578 2956 2516 
Q 3422 2416 3680 2098 
Q 3938 1781 3938 1306 
Q 3938 681 3513 340 
Q 3088 0 2303 0 
L 628 0 
L 628 4666 
z
" transform="scale(0.015625)"/>
      </defs>
      <use xlink:href="#DejaVuSans-42"/>
     </g>
    </g>
    <g id="line2d_23">
     <path d="M 57.982813 49.654687 
L 67.982812 49.654687 
L 77.982812 49.654687 
" style="fill: none; stroke: #2ca02c; stroke-width: 1.5; stroke-linecap: square"/>
    </g>
    <g id="text_21">
     <!-- C -->
     <g transform="translate(85.982812 53.154687) scale(0.1 -0.1)">
      <defs>
       <path id="DejaVuSans-43" d="M 4122 4306 
L 4122 3641 
Q 3803 3938 3442 4084 
Q 3081 4231 2675 4231 
Q 1875 4231 1450 3742 
Q 1025 3253 1025 2328 
Q 1025 1406 1450 917 
Q 1875 428 2675 428 
Q 3081 428 3442 575 
Q 3803 722 4122 1019 
L 4122 359 
Q 3791 134 3420 21 
Q 3050 -91 2638 -91 
Q 1578 -91 968 557 
Q 359 1206 359 2328 
Q 359 3453 968 4101 
Q 1578 4750 2638 4750 
Q 3056 4750 3426 4639 
Q 3797 4528 4122 4306 
z
" transform="scale(0.015625)"/>
      </defs>
      <use xlink:href="#DejaVuSans-43"/>
     </g>
    </g>
    <g id="line2d_24">
     <path d="M 57.982813 64.332812 
L 67.982812 64.332812 
L 77.982812 64.332812 
" style="fill: none; stroke: #d62728; stroke-width: 1.5; stroke-linecap: square"/>
    </g>
    <g id="text_22">
     <!-- D -->
     <g transform="translate(85.982812 67.832812) scale(0.1 -0.1)">
      <defs>
       <path id="DejaVuSans-44" d="M 1259 4147 
L 1259 519 
L 2022 519 
Q 2988 519 3436 956 
Q 3884 1394 3884 2338 
Q 3884 3275 3436 3711 
Q 2988 4147 2022 4147 
L 1259 4147 
z
M 628 4666 
L 1925 4666 
Q 3281 4666 3915 4102 
Q 4550 3538 4550 2338 
Q 4550 1131 3912 565 
Q 3275 0 1925 0 
L 628 0 
L 628 4666 
z
" transform="scale(0.015625)"/>
      </defs>
      <use xlink:href="#DejaVuSans-44"/>
     </g>
    </g>
   </g>
  </g>
 </g>
 <defs>
  <clipPath id="p5998e6d39a">
   <rect x="48.982813" y="7.2" width="334.8" height="221.76"/>
  </clipPath>
 </defs>
</svg>
