<?xml version="1.0" encoding="utf-8" standalone="no"?>
<!DOCTYPE svg PUBLIC "-//W3C//DTD SVG 1.1//EN"
  "http://www.w3.org/Graphics/SVG/1.1/DTD/svg11.dtd">
<svg xmlns:xlink="http://www.w3.org/1999/xlink" width="384.620312pt" height="266.51625pt" viewBox="0 0 384.620312 266.51625" xmlns="http://www.w3.org/2000/svg" version="1.1">
 <metadata>
  <rdf:RDF xmlns:dc="http://purl.org/dc/elements/1.1/" xmlns:cc="http://creativecommons.org/ns#" xmlns:rdf="http://www.w3.org/1999/02/22-rdf-syntax-ns#">
   <cc:Work>
    <dc:type rdf:resource="http://purl.org/dc/dcmitype/StillImage"/>
    <dc:date>2026-04-25T08:30:34.445275</dc:date>
    <dc:format>image/svg+xml</dc:format>
    <dc:creator>
     <cc:Agent>
      <dc:title>Matplotlib v3.10.8, https://matplotlib.org/</dc:title>
     </cc:Agent>
    </dc:creator>
   </cc:Work>
  </rdf:RDF>
 </metadata>
 <defs>
  <style type="text/css">*{stroke-linejoin: round; stroke-linecap: butt}</style>
 </defs>
 <g id="figure_1">
  <g id="patch_1">
   <path d="M 0 266.51625 
L 384.620312 266.51625 
L 384.620312 0 
L 0 0 
z
" style="fill: #ffffff"/>
  </g>
  <g id="axes_1">
   <g id="patch_2">
    <path d="M 42.620313 228.96 
L 377.420313 228.96 
L 377.420313 7.2 
L 42.620313 7.2 
z
" style="fill: #ffffff"/>
   </g>
   <g id="matplotlib.axis_1">
    <g id="xtick_1">
     <g id="line2d_1">
      <defs>
       <path id="m3cb533f019" d="M 0 0 
L 0 3.5 
" style="stroke: #000000; stroke-width: 0.8"/>
      </defs>
      <g>
       <use xlink:href="#m3cb533f019" x="57.838494" y="228.96" style="stroke: #000000; stroke-width: 0.8"/>
      </g>
     </g>
     <g id="text_1">
      <!-- 2000-01 -->
      <g transform="translate(36.947088 243.558437) scale(0.1 -0.1)">
       <defs>
        <path id="DejaVuSans-32" d="M 1228 531 
L 3431 531 
L 3431 0 
L 469 0 
L 469 531 
Q 828 903 1448 1529 
Q 2069 2156 2228 2338 
Q 2531 2678 2651 2914 
Q 2772 3150 2772 3378 
Q 2772 3750 2511 3984 
Q 2250 4219 1831 4219 
Q 1534 4219 1204 4116 
Q 875 4013 500 3803 
L 500 4441 
Q 881 4594 1212 4672 
Q 1544 4750 1819 4750 
Q 2544 4750 2975 4387 
Q 3406 4025 3406 3419 
Q 3406 3131 3298 2873 
Q 3191 2616 2906 2266 
Q 2828 2175 2409 1742 
Q 1991 1309 1228 531 
z
" transform="scale(0.015625)"/>
        <path id="DejaVuSans-30" d="M 2034 4250 
Q 1547 4250 1301 3770 
Q 1056 3291 1056 2328 
Q 1056 1369 1301 889 
Q 1547 409 2034 409 
Q 2525 409 2770 889 
Q 3016 1369 3016 2328 
Q 3016 3291 2770 3770 
Q 2525 4250 2034 4250 
z
M 2034 4750 
Q 2819 4750 3233 4129 
Q 3647 3509 3647 2328 
Q 3647 1150 3233 529 
Q 2819 -91 2034 -91 
Q 1250 -91 836 529 
Q 422 1150 422 2328 
Q 422 3509 836 4129 
Q 1250 4750 2034 4750 
z
" transform="scale(0.015625)"/>
        <path id="DejaVuSans-2d" d="M 313 2009 
L 1997 2009 
L 1997 1497 
L 313 1497 
L 313 2009 
z
" transform="scale(0.015625)"/>
        <path id="DejaVuSans-31" d="M 794 531 
L 1825 531 
L 1825 4091 
L 703 3866 
L 703 4441 
L 1819 4666 
L 2450 4666 
L 2450 531 
L 3481 531 
L 3481 0 
L 794 0 
L 794 531 
z
" transform="scale(0.015625)"/>
       </defs>
       <use xlink:href="#DejaVuSans-32"/>
       <use xlink:href="#DejaVuSans-30" transform="translate(63.623047 0)"/>
       <use xlink:href="#DejaVuSans-30" transform="translate(127.246094 0)"/>
       <use xlink:href="#DejaVuSans-30" transform="translate(190.869141 0)"/>
       <use xlink:href="#DejaVuSans-2d" transform="translate(254.492188 0)"/>
       <use xlink:href="#DejaVuSans-30" transform="translate(290.576172 0)"/>
       <use xlink:href="#DejaVuSans-31" transform="translate(354.199219 0)"/>
      </g>
     </g>
    </g>
    <g id="xtick_2">
     <g id="line2d_2">
      <g>
       <use xlink:href="#m3cb533f019" x="105.251925" y="228.96" style="stroke: #000000; stroke-width: 0.8"/>
      </g>
     </g>
     <g id="text_2">
      <!-- 2000-02 -->
      <g transform="translate(84.360519 243.558437) scale(0.1 -0.1)">
       <use xlink:href="#DejaVuSans-32"/>
       <use xlink:href="#DejaVuSans-30" transform="translate(63.623047 0)"/>
       <use xlink:href="#DejaVuSans-30" transform="translate(127.246094 0)"/>
       <use xlink:href="#DejaVuSans-30" transform="translate(190.869141 0)"/>
       <use xlink:href="#DejaVuSans-2d" transform="translate(254.492188 0)"/>
       <use xlink:href="#DejaVuSans-30" transform="translate(290.576172 0)"/>
       <use xlink:href="#DejaVuSans-32" transform="translate(354.199219 0)"/>
      </g>
     </g>
    </g>
    <g id="xtick_3">
     <g id="line2d_3">
      <g>
       <use xlink:href="#m3cb533f019" x="149.606425" y="228.96" style="stroke: #000000; stroke-width: 0.8"/>
      </g>
     </g>
     <g id="text_3">
      <!-- 2000-03 -->
      <g transform="translate(128.715019 243.558437) scale(0.1 -0.1)">
       <defs>
        <path id="DejaVuSans-33" d="M 2597 2516 
Q 3050 2419 3304 2112 
Q 3559 1806 3559 1356 
Q 3559 666 3084 287 
Q 2609 -91 1734 -91 
Q 1441 -91 1130 -33 
Q 819 25 488 141 
L 488 750 
Q 750 597 1062 519 
Q 1375 441 1716 441 
Q 2309 441 2620 675 
Q 2931 909 2931 1356 
Q 2931 1769 2642 2001 
Q 2353 2234 1838 2234 
L 1294 2234 
L 1294 2753 
L 1863 2753 
Q 2328 2753 2575 2939 
Q 2822 3125 2822 3475 
Q 2822 3834 2567 4026 
Q 2313 4219 1838 4219 
Q 1578 4219 1281 4162 
Q 984 4106 628 3988 
L 628 4550 
Q 988 4650 1302 4700 
Q 1616 4750 1894 4750 
Q 2613 4750 3031 4423 
Q 3450 4097 3450 3541 
Q 3450 3153 3228 2886 
Q 3006 2619 2597 2516 
z
" transform="scale(0.015625)"/>
       </defs>
       <use xlink:href="#DejaVuSans-32"/>
       <use xlink:href="#DejaVuSans-30" transform="translate(63.623047 0)"/>
       <use xlink:href="#DejaVuSans-30" transform="translate(127.246094 0)"/>
       <use xlink:href="#DejaVuSans-30" transform="translate(190.869141 0)"/>
       <use xlink:href="#DejaVuSans-2d" transform="translate(254.492188 0)"/>
       <use xlink:href="#DejaVuSans-30" transform="translate(290.576172 0)"/>
       <use xlink:href="#DejaVuSans-33" transform="translate(354.199219 0)"/>
      </g>
     </g>
    </g>
    <g id="xtick_4">
     <g id="line2d_4">
      <g>
       <use xlink:href="#m3cb533f019" x="197.019856" y="228.96" style="stroke: #000000; stroke-width: 0.8"/>
      </g>
     </g>
     <g id="text_4">
      <!-- 2000-04 -->
      <g transform="translate(176.128449 243.558437) scale(0.1 -0.1)">
       <defs>
        <path id="DejaVuSans-34" d="M 2419 4116 
L 825 1625 
L 2419 1625 
L 2419 4116 
z
M 2253 4666 
L 3047 4666 
L 3047 1625 
L 3713 1625 
L 3713 1100 
L 3047 1100 
L 3047 0 
L 2419 0 
L 2419 1100 
L 313 1100 
L 313 1709 
L 2253 4666 
z
" transform="scale(0.015625)"/>
       </defs>
       <use xlink:href="#DejaVuSans-32"/>
       <use xlink:href="#DejaVuSans-30" transform="translate(63.623047 0)"/>
       <use xlink:href="#DejaVuSans-30" transform="translate(127.246094 0)"/>
       <use xlink:href="#DejaVuSans-30" transform="translate(190.869141 0)"/>
       <use xlink:href="#DejaVuSans-2d" transform="translate(254.492188 0)"/>
       <use xlink:href="#DejaVuSans-30" transform="translate(290.576172 0)"/>
       <use xlink:href="#DejaVuSans-34" transform="translate(354.199219 0)"/>
      </g>
     </g>
    </g>
    <g id="xtick_5">
     <g id="line2d_5">
      <g>
       <use xlink:href="#m3cb533f019" x="242.903821" y="228.96" style="stroke: #000000; stroke-width: 0.8"/>
      </g>
     </g>
     <g id="text_5">
      <!-- 2000-05 -->
      <g transform="translate(222.012415 243.558437) scale(0.1 -0.1)">
       <defs>
        <path id="DejaVuSans-35" d="M 691 4666 
L 3169 4666 
L 3169 4134 
L 1269 4134 
L 1269 2991 
Q 1406 3038 1543 3061 
Q 1681 3084 1819 3084 
Q 2600 3084 3056 2656 
Q 3513 2228 3513 1497 
Q 3513 744 3044 326 
Q 2575 -91 1722 -91 
Q 1428 -91 1123 -41 
Q 819 9 494 109 
L 494 744 
Q 775 591 1075 516 
Q 1375 441 1709 441 
Q 2250 441 2565 725 
Q 2881 1009 2881 1497 
Q 2881 1984 2565 2268 
Q 2250 2553 1709 2553 
Q 1456 2553 1204 2497 
Q 953 2441 691 2322 
L 691 4666 
z
" transform="scale(0.015625)"/>
       </defs>
       <use xlink:href="#DejaVuSans-32"/>
       <use xlink:href="#DejaVuSans-30" transform="translate(63.623047 0)"/>
       <use xlink:href="#DejaVuSans-30" transform="translate(127.246094 0)"/>
       <use xlink:href="#DejaVuSans-30" transform="translate(190.869141 0)"/>
       <use xlink:href="#DejaVuSans-2d" transform="translate(254.492188 0)"/>
       <use xlink:href="#DejaVuSans-30" transform="translate(290.576172 0)"/>
       <use xlink:href="#DejaVuSans-35" transform="translate(354.199219 0)"/>
      </g>
     </g>
    </g>
    <g id="xtick_6">
     <g id="line2d_6">
      <g>
       <use xlink:href="#m3cb533f019" x="290.317252" y="228.96" style="stroke: #000000; stroke-width: 0.8"/>
      </g>
     </g>
     <g id="text_6">
      <!-- 2000-06 -->
      <g transform="translate(269.425845 243.558437) scale(0.1 -0.1)">
       <defs>
        <path id="DejaVuSans-36" d="M 2113 2584 
Q 1688 2584 1439 2293 
Q 1191 2003 1191 1497 
Q 1191 994 1439 701 
Q 1688 409 2113 409 
Q 2538 409 2786 701 
Q 3034 994 3034 1497 
Q 3034 2003 2786 2293 
Q 2538 2584 2113 2584 
z
M 3366 4563 
L 3366 3988 
Q 3128 4100 2886 4159 
Q 2644 4219 2406 4219 
Q 1781 4219 1451 3797 
Q 1122 3375 1075 2522 
Q 1259 2794 1537 2939 
Q 1816 3084 2150 3084 
Q 2853 3084 3261 2657 
Q 3669 2231 3669 1497 
Q 3669 778 3244 343 
Q 2819 -91 2113 -91 
Q 1303 -91 875 529 
Q 447 1150 447 2328 
Q 447 3434 972 4092 
Q 1497 4750 2381 4750 
Q 2619 4750 2861 4703 
Q 3103 4656 3366 4563 
z
" transform="scale(0.015625)"/>
       </defs>
       <use xlink:href="#DejaVuSans-32"/>
       <use xlink:href="#DejaVuSans-30" transform="translate(63.623047 0)"/>
       <use xlink:href="#DejaVuSans-30" transform="translate(127.246094 0)"/>
       <use xlink:href="#DejaVuSans-30" transform="translate(190.869141 0)"/>
       <use xlink:href="#DejaVuSans-2d" transform="translate(254.492188 0)"/>
       <use xlink:href="#DejaVuSans-30" transform="translate(290.576172 0)"/>
       <use xlink:href="#DejaVuSans-36" transform="translate(354.199219 0)"/>
      </g>
     </g>
    </g>
    <g id="xtick_7">
     <g id="line2d_7">
      <g>
       <use xlink:href="#m3cb533f019" x="336.201217" y="228.96" style="stroke: #000000; stroke-width: 0.8"/>
      </g>
     </g>
     <g id="text_7">
      <!-- 2000-07 -->
      <g transform="translate(315.309811 243.558437) scale(0.1 -0.1)">
       <defs>
        <path id="DejaVuSans-37" d="M 525 4666 
L 3525 4666 
L 3525 4397 
L 1831 0 
L 1172 0 
L 2766 4134 
L 525 4134 
L 525 4666 
z
" transform="scale(0.015625)"/>
       </defs>
       <use xlink:href="#DejaVuSans-32"/>
       <use xlink:href="#DejaVuSans-30" transform="translate(63.623047 0)"/>
       <use xlink:href="#DejaVuSans-30" transform="translate(127.246094 0)"/>
       <use xlink:href="#DejaVuSans-30" transform="translate(190.869141 0)"/>
       <use xlink:href="#DejaVuSans-2d" transform="translate(254.492188 0)"/>
       <use xlink:href="#DejaVuSans-30" transform="translate(290.576172 0)"/>
       <use xlink:href="#DejaVuSans-37" transform="translate(354.199219 0)"/>
      </g>
     </g>
    </g>
    <g id="text_8">
     <!-- row [datetime] -->
     <g transform="translate(172.867188 257.236562) scale(0.1 -0.1)">
      <defs>
       <path id="DejaVuSans-72" d="M 2631 2963 
Q 2534 3019 2420 3045 
Q 2306 3072 2169 3072 
Q 1681 3072 1420 2755 
Q 1159 2438 1159 1844 
L 1159 0 
L 581 0 
L 581 3500 
L 1159 3500 
L 1159 2956 
Q 1341 3275 1631 3429 
Q 1922 3584 2338 3584 
Q 2397 3584 2469 3576 
Q 2541 3569 2628 3553 
L 2631 2963 
z
" transform="scale(0.015625)"/>
       <path id="DejaVuSans-6f" d="M 1959 3097 
Q 1497 3097 1228 2736 
Q 959 2375 959 1747 
Q 959 1119 1226 758 
Q 1494 397 1959 397 
Q 2419 397 2687 759 
Q 2956 1122 2956 1747 
Q 2956 2369 2687 2733 
Q 2419 3097 1959 3097 
z
M 1959 3584 
Q 2709 3584 3137 3096 
Q 3566 2609 3566 1747 
Q 3566 888 3137 398 
Q 2709 -91 1959 -91 
Q 1206 -91 779 398 
Q 353 888 353 1747 
Q 353 2609 779 3096 
Q 1206 3584 1959 3584 
z
" transform="scale(0.015625)"/>
       <path id="DejaVuSans-77" d="M 269 3500 
L 844 3500 
L 1563 769 
L 2278 3500 
L 2956 3500 
L 3675 769 
L 4391 3500 
L 4966 3500 
L 4050 0 
L 3372 0 
L 2619 2869 
L 1863 0 
L 1184 0 
L 269 3500 
z
" transform="scale(0.015625)"/>
       <path id="DejaVuSans-20" transform="scale(0.015625)"/>
       <path id="DejaVuSans-5b" d="M 550 4863 
L 1875 4863 
L 1875 4416 
L 1125 4416 
L 1125 -397 
L 1875 -397 
L 1875 -844 
L 550 -844 
L 550 4863 
z
" transform="scale(0.015625)"/>
       <path id="DejaVuSans-64" d="M 2906 2969 
L 2906 4863 
L 3481 4863 
L 3481 0 
L 2906 0 
L 2906 525 
Q 2725 213 2448 61 
Q 2172 -91 1784 -91 
Q 1150 -91 751 415 
Q 353 922 353 1747 
Q 353 2572 751 3078 
Q 1150 3584 1784 3584 
Q 2172 3584 2448 3432 
Q 2725 3281 2906 2969 
z
M 947 1747 
Q 947 1113 1208 752 
Q 1469 391 1925 391 
Q 2381 391 2643 752 
Q 2906 1113 2906 1747 
Q 2906 2381 2643 2742 
Q 2381 3103 1925 3103 
Q 1469 3103 1208 2742 
Q 947 2381 947 1747 
z
" transform="scale(0.015625)"/>
       <path id="DejaVuSans-61" d="M 2194 1759 
Q 1497 1759 1228 1600 
Q 959 1441 959 1056 
Q 959 750 1161 570 
Q 1363 391 1709 391 
Q 2188 391 2477 730 
Q 2766 1069 2766 1631 
L 2766 1759 
L 2194 1759 
z
M 3341 1997 
L 3341 0 
L 2766 0 
L 2766 531 
Q 2569 213 2275 61 
Q 1981 -91 1556 -91 
Q 1019 -91 701 211 
Q 384 513 384 1019 
Q 384 1609 779 1909 
Q 1175 2209 1959 2209 
L 2766 2209 
L 2766 2266 
Q 2766 2663 2505 2880 
Q 2244 3097 1772 3097 
Q 1472 3097 1187 3025 
Q 903 2953 641 2809 
L 641 3341 
Q 956 3463 1253 3523 
Q 1550 3584 1831 3584 
Q 2591 3584 2966 3190 
Q 3341 2797 3341 1997 
z
" transform="scale(0.015625)"/>
       <path id="DejaVuSans-74" d="M 1172 4494 
L 1172 3500 
L 2356 3500 
L 2356 3053 
L 1172 3053 
L 1172 1153 
Q 1172 725 1289 603 
Q 1406 481 1766 481 
L 2356 481 
L 2356 0 
L 1766 0 
Q 1100 0 847 248 
Q 594 497 594 1153 
L 594 3053 
L 172 3053 
L 172 3500 
L 594 3500 
L 594 4494 
L 1172 4494 
z
" transform="scale(0.015625)"/>
       <path id="DejaVuSans-65" d="M 3597 1894 
L 3597 1613 
L 953 1613 
Q 991 1019 1311 708 
Q 1631 397 2203 397 
Q 2534 397 2845 478 
Q 3156 559 3463 722 
L 3463 178 
Q 3153 47 2828 -22 
Q 2503 -91 2169 -91 
Q 1331 -91 842 396 
Q 353 884 353 1716 
Q 353 2575 817 3079 
Q 1281 3584 2069 3584 
Q 2775 3584 3186 3129 
Q 3597 2675 3597 1894 
z
M 3022 2063 
Q 3016 2534 2758 2815 
Q 2500 3097 2075 3097 
Q 1594 3097 1305 2825 
Q 1016 2553 972 2059 
L 3022 2063 
z
" transform="scale(0.015625)"/>
       <path id="DejaVuSans-69" d="M 603 3500 
L 1178 3500 
L 1178 0 
L 603 0 
L 603 3500 
z
M 603 4863 
L 1178 4863 
L 1178 4134 
L 603 4134 
L 603 4863 
z
" transform="scale(0.015625)"/>
       <path id="DejaVuSans-6d" d="M 3328 2828 
Q 3544 3216 3844 3400 
Q 4144 3584 4550 3584 
Q 5097 3584 5394 3201 
Q 5691 2819 5691 2113 
L 5691 0 
L 5113 0 
L 5113 2094 
Q 5113 2597 4934 2840 
Q 4756 3084 4391 3084 
Q 3944 3084 3684 2787 
Q 3425 2491 3425 1978 
L 3425 0 
L 2847 0 
L 2847 2094 
Q 2847 2600 2669 2842 
Q 2491 3084 2119 3084 
Q 1678 3084 1418 2786 
Q 1159 2488 1159 1978 
L 1159 0 
L 581 0 
L 581 3500 
L 1159 3500 
L 1159 2956 
Q 1356 3278 1631 3431 
Q 1906 3584 2284 3584 
Q 2666 3584 2933 3390 
Q 3200 3197 3328 2828 
z
" transform="scale(0.015625)"/>
       <path id="DejaVuSans-5d" d="M 1947 4863 
L 1947 -844 
L 622 -844 
L 622 -397 
L 1369 -397 
L 1369 4416 
L 622 4416 
L 622 4863 
L 1947 4863 
z
" transform="scale(0.015625)"/>
      </defs>
      <use xlink:href="#DejaVuSans-72"/>
      <use xlink:href="#DejaVuSans-6f" transform="translate(38.863281 0)"/>
      <use xlink:href="#DejaVuSans-77" transform="translate(100.044922 0)"/>
      <use xlink:href="#DejaVuSans-20" transform="translate(181.832031 0)"/>
      <use xlink:href="#DejaVuSans-5b" transform="translate(213.619141 0)"/>
      <use xlink:href="#DejaVuSans-64" transform="translate(252.632812 0)"/>
      <use xlink:href="#DejaVuSans-61" transform="translate(316.109375 0)"/>
      <use xlink:href="#DejaVuSans-74" transform="translate(377.388672 0)"/>
      <use xlink:href="#DejaVuSans-65" transform="translate(416.597656 0)"/>
      <use xlink:href="#DejaVuSans-74" transform="translate(478.121094 0)"/>
      <use xlink:href="#DejaVuSans-69" transform="translate(517.330078 0)"/>
      <use xlink:href="#DejaVuSans-6d" transform="translate(545.113281 0)"/>
      <use xlink:href="#DejaVuSans-65" transform="translate(642.525391 0)"/>
      <use xlink:href="#DejaVuSans-5d" transform="translate(704.048828 0)"/>
     </g>
    </g>
   </g>
   <g id="matplotlib.axis_2">
    <g id="ytick_1">
     <g id="line2d_8">
      <defs>
       <path id="ma1cf5d24d6" d="M 0 0 
L -3.5 0 
" style="stroke: #000000; stroke-width: 0.8"/>
      </defs>
      <g>
       <use xlink:href="#ma1cf5d24d6" x="42.620313" y="199.293613" style="stroke: #000000; stroke-width: 0.8"/>
      </g>
     </g>
     <g id="text_9">
      <!-- −5 -->
      <g transform="translate(20.878125 203.092832) scale(0.1 -0.1)">
       <defs>
        <path id="DejaVuSans-2212" d="M 678 2272 
L 4684 2272 
L 4684 1741 
L 678 1741 
L 678 2272 
z
" transform="scale(0.015625)"/>
       </defs>
       <use xlink:href="#DejaVuSans-2212"/>
       <use xlink:href="#DejaVuSans-35" transform="translate(83.789062 0)"/>
      </g>
     </g>
    </g>
    <g id="ytick_2">
     <g id="line2d_9">
      <g>
       <use xlink:href="#ma1cf5d24d6" x="42.620313" y="166.893986" style="stroke: #000000; stroke-width: 0.8"/>
      </g>
     </g>
     <g id="text_10">
      <!-- 0 -->
      <g transform="translate(29.257813 170.693204) scale(0.1 -0.1)">
       <use xlink:href="#DejaVuSans-30"/>
      </g>
     </g>
    </g>
    <g id="ytick_3">
     <g id="line2d_10">
      <g>
       <use xlink:href="#ma1cf5d24d6" x="42.620313" y="134.494359" style="stroke: #000000; stroke-width: 0.8"/>
      </g>
     </g>
     <g id="text_11">
      <!-- 5 -->
      <g transform="translate(29.257813 138.293577) scale(0.1 -0.1)">
       <use xlink:href="#DejaVuSans-35"/>
      </g>
     </g>
    </g>
    <g id="ytick_4">
     <g id="line2d_11">
      <g>
       <use xlink:href="#ma1cf5d24d6" x="42.620313" y="102.094731" style="stroke: #000000; stroke-width: 0.8"/>
      </g>
     </g>
     <g id="text_12">
      <!-- 10 -->
      <g transform="translate(22.895313 105.89395) scale(0.1 -0.1)">
       <use xlink:href="#DejaVuSans-31"/>
       <use xlink:href="#DejaVuSans-30" transform="translate(63.623047 0)"/>
      </g>
     </g>
    </g>
    <g id="ytick_5">
     <g id="line2d_12">
      <g>
       <use xlink:href="#ma1cf5d24d6" x="42.620313" y="69.695104" style="stroke: #000000; stroke-width: 0.8"/>
      </g>
     </g>
     <g id="text_13">
      <!-- 15 -->
      <g transform="translate(22.895313 73.494323) scale(0.1 -0.1)">
       <use xlink:href="#DejaVuSans-31"/>
       <use xlink:href="#DejaVuSans-35" transform="translate(63.623047 0)"/>
      </g>
     </g>
    </g>
    <g id="ytick_6">
     <g id="line2d_13">
      <g>
       <use xlink:href="#ma1cf5d24d6" x="42.620313" y="37.295477" style="stroke: #000000; stroke-width: 0.8"/>
      </g>
     </g>
     <g id="text_14">
      <!-- 20 -->
      <g transform="translate(22.895313 41.094696) scale(0.1 -0.1)">
       <use xlink:href="#DejaVuSans-32"/>
       <use xlink:href="#DejaVuSans-30" transform="translate(63.623047 0)"/>
      </g>
     </g>
    </g>
    <g id="text_15">
     <!-- [dimensionless] -->
     <g transform="translate(14.798438 157.557344) rotate(-90) scale(0.1 -0.1)">
      <defs>
       <path id="DejaVuSans-6e" d="M 3513 2113 
L 3513 0 
L 2938 0 
L 2938 2094 
Q 2938 2591 2744 2837 
Q 2550 3084 2163 3084 
Q 1697 3084 1428 2787 
Q 1159 2491 1159 1978 
L 1159 0 
L 581 0 
L 581 3500 
L 1159 3500 
L 1159 2956 
Q 1366 3272 1645 3428 
Q 1925 3584 2291 3584 
Q 2894 3584 3203 3211 
Q 3513 2838 3513 2113 
z
" transform="scale(0.015625)"/>
       <path id="DejaVuSans-73" d="M 2834 3397 
L 2834 2853 
Q 2591 2978 2328 3040 
Q 2066 3103 1784 3103 
Q 1356 3103 1142 2972 
Q 928 2841 928 2578 
Q 928 2378 1081 2264 
Q 1234 2150 1697 2047 
L 1894 2003 
Q 2506 1872 2764 1633 
Q 3022 1394 3022 966 
Q 3022 478 2636 193 
Q 2250 -91 1575 -91 
Q 1294 -91 989 -36 
Q 684 19 347 128 
L 347 722 
Q 666 556 975 473 
Q 1284 391 1588 391 
Q 1994 391 2212 530 
Q 2431 669 2431 922 
Q 2431 1156 2273 1281 
Q 2116 1406 1581 1522 
L 1381 1569 
Q 847 1681 609 1914 
Q 372 2147 372 2553 
Q 372 3047 722 3315 
Q 1072 3584 1716 3584 
Q 2034 3584 2315 3537 
Q 2597 3491 2834 3397 
z
" transform="scale(0.015625)"/>
       <path id="DejaVuSans-6c" d="M 603 4863 
L 1178 4863 
L 1178 0 
L 603 0 
L 603 4863 
z
" transform="scale(0.015625)"/>
      </defs>
      <use xlink:href="#DejaVuSans-5b"/>
      <use xlink:href="#DejaVuSans-64" transform="translate(39.013672 0)"/>
      <use xlink:href="#DejaVuSans-69" transform="translate(102.490234 0)"/>
      <use xlink:href="#DejaVuSans-6d" transform="translate(130.273438 0)"/>
      <use xlink:href="#DejaVuSans-65" transform="translate(227.685547 0)"/>
      <use xlink:href="#DejaVuSans-6e" transform="translate(289.208984 0)"/>
      <use xlink:href="#DejaVuSans-73" transform="translate(352.587891 0)"/>
      <use xlink:href="#DejaVuSans-69" transform="translate(404.6875 0)"/>
      <use xlink:href="#DejaVuSans-6f" transform="translate(432.470703 0)"/>
      <use xlink:href="#DejaVuSans-6e" transform="translate(493.652344 0)"/>
      <use xlink:href="#DejaVuSans-6c" transform="translate(557.03125 0)"/>
      <use xlink:href="#DejaVuSans-65" transform="translate(584.814453 0)"/>
      <use xlink:href="#DejaVuSans-73" transform="translate(646.337891 0)"/>
      <use xlink:href="#DejaVuSans-73" transform="translate(698.4375 0)"/>
      <use xlink:href="#DejaVuSans-5d" transform="translate(750.537109 0)"/>
     </g>
    </g>
   </g>
   <g id="line2d_14">
    <path d="M 57.838494 169.757681 
L 59.36796 155.132562 
L 60.897425 156.51679 
L 62.426891 165.28856 
L 63.956356 164.491246 
L 65.485822 172.655674 
L 67.015287 164.771982 
L 68.544753 163.275903 
L 70.074218 152.790649 
L 71.603684 146.423563 
L 73.133149 136.529718 
L 74.662615 137.589147 
L 76.19208 140.764042 
L 77.721546 137.421691 
L 79.251011 135.123007 
L 80.780477 140.270395 
L 83.839408 157.303903 
L 85.368873 147.683852 
L 86.898339 136.862335 
L 88.427805 135.177808 
L 89.95727 127.348936 
L 91.486736 132.692916 
L 93.016201 124.736851 
L 94.545667 124.650792 
L 96.075132 126.324286 
L 97.604598 130.204328 
L 99.134063 124.942993 
L 100.663529 118.951232 
L 102.192994 122.748224 
L 103.72246 125.389968 
L 105.251925 123.592681 
L 106.781391 124.243337 
L 108.310856 121.621417 
L 109.840322 115.91953 
L 111.369787 110.696704 
L 112.899253 101.522029 
L 114.428718 104.03966 
L 115.958184 109.913106 
L 117.487649 109.510941 
L 119.017115 110.779794 
L 120.54658 107.875722 
L 123.605511 115.554771 
L 125.134977 126.374806 
L 126.664442 127.853599 
L 128.193908 132.605975 
L 129.723373 124.818094 
L 131.252839 113.277143 
L 132.782304 113.942871 
L 134.31177 115.245552 
L 135.841235 114.274366 
L 137.370701 111.105908 
L 138.900166 106.45874 
L 140.429632 100.017843 
L 141.959097 95.98267 
L 143.488563 89.617686 
L 145.018028 89.2141 
L 146.547494 86.022636 
L 148.076959 92.927784 
L 149.606425 103.400864 
L 151.13589 109.944509 
L 152.665356 92.544783 
L 154.194821 95.61161 
L 155.724287 85.595799 
L 157.253752 78.143736 
L 158.783218 76.788433 
L 160.312683 69.360449 
L 161.842149 62.902408 
L 163.371614 52.388315 
L 164.90108 61.992031 
L 166.430545 53.561669 
L 167.960011 64.257825 
L 169.489477 62.247083 
L 171.018942 59.239839 
L 172.548408 64.259664 
L 174.077873 68.576972 
L 175.607339 74.715926 
L 177.136804 78.461763 
L 178.66627 82.745863 
L 181.725201 66.738466 
L 183.254666 65.387289 
L 184.784132 72.0105 
L 186.313597 73.216048 
L 187.843063 60.703523 
L 189.372528 78.20136 
L 190.901994 91.190262 
L 192.431459 91.047483 
L 193.960925 91.402584 
L 195.49039 82.873964 
L 197.019856 91.464838 
L 198.549321 95.096357 
L 200.078787 99.357654 
L 201.608252 96.214667 
L 203.137718 105.761523 
L 204.667183 98.145686 
L 206.196649 99.953451 
L 207.726114 91.894733 
L 209.25558 94.992471 
L 210.785045 95.430438 
L 212.314511 98.742303 
L 213.843976 103.541864 
L 215.373442 89.346808 
L 216.902907 91.399721 
L 218.432373 85.810428 
L 219.961838 84.550636 
L 221.491304 83.015444 
L 223.020769 95.313688 
L 224.550235 100.071456 
L 226.0797 94.577063 
L 227.609166 98.347358 
L 229.138631 87.929899 
L 230.668097 94.458858 
L 232.197562 93.137151 
L 233.727028 93.518663 
L 235.256493 97.292092 
L 236.785959 92.674802 
L 238.315424 91.043444 
L 239.84489 104.804955 
L 241.374355 109.971697 
L 242.903821 108.47853 
L 244.433286 106.819083 
L 245.962752 89.711066 
L 247.492217 78.090944 
L 249.021683 62.004171 
L 250.551148 68.612956 
L 252.080614 61.198868 
L 253.61008 52.476233 
L 255.139545 52.634842 
L 256.669011 54.721367 
L 258.198476 50.933359 
L 259.727942 60.751191 
L 261.257407 55.114453 
L 262.786873 56.570573 
L 264.316338 60.634838 
L 265.845804 64.250652 
L 267.375269 75.12577 
L 268.904735 72.198052 
L 271.963666 62.777649 
L 273.493131 70.08806 
L 275.022597 61.946131 
L 276.552062 74.360816 
L 278.081528 78.150504 
L 279.610993 86.661559 
L 281.140459 91.220488 
L 282.669924 99.663866 
L 284.19939 104.162319 
L 285.728855 91.000645 
L 287.258321 97.171364 
L 288.787786 102.038526 
L 290.317252 98.627239 
L 291.846717 108.742144 
L 293.376183 101.242895 
L 294.905648 90.768645 
L 296.435114 97.629898 
L 297.964579 102.207741 
L 299.494045 103.408055 
L 301.02351 108.879777 
L 302.552976 110.412276 
L 304.082441 107.623335 
L 305.611907 112.248091 
L 307.141372 106.203981 
L 308.670838 108.876242 
L 310.200303 122.059018 
L 313.259234 119.188455 
L 314.7887 120.216516 
L 316.318165 120.556386 
L 317.847631 132.265461 
L 319.377096 146.215033 
L 320.906562 154.126817 
L 322.436027 156.546075 
L 323.965493 139.594265 
L 325.494958 140.010853 
L 327.024424 148.227493 
L 328.553889 152.406996 
L 330.083355 147.184495 
L 331.61282 149.629508 
L 333.142286 146.611565 
L 334.671752 158.237768 
L 336.201217 155.094727 
L 337.730683 162.441682 
L 339.260148 168.571248 
L 340.789614 165.105404 
L 342.319079 162.24542 
L 343.848545 166.908709 
L 345.37801 168.524318 
L 346.907476 171.541105 
L 348.436941 172.258827 
L 349.966407 177.998112 
L 351.495872 168.56247 
L 353.025338 172.138493 
L 354.554803 170.58331 
L 356.084269 172.845039 
L 357.613734 177.248255 
L 359.1432 179.105734 
L 360.672665 173.608139 
L 362.202131 163.264169 
L 362.202131 163.264169 
" clip-path="url(#p86eae00089)" style="fill: none; stroke: #1f77b4; stroke-width: 1.5; stroke-linecap: square"/>
   </g>
   <g id="line2d_15">
    <path d="M 57.838494 157.492921 
L 59.36796 163.638073 
L 60.897425 161.011312 
L 62.426891 155.153695 
L 63.956356 162.156061 
L 65.485822 172.384552 
L 67.015287 170.648826 
L 68.544753 179.225909 
L 70.074218 180.018152 
L 71.603684 185.931989 
L 73.133149 176.914846 
L 74.662615 178.8225 
L 76.19208 180.994554 
L 77.721546 177.680033 
L 79.251011 177.05083 
L 80.780477 184.826703 
L 82.309942 184.194647 
L 83.839408 180.340056 
L 85.368873 171.640443 
L 86.898339 166.398812 
L 88.427805 174.804724 
L 89.95727 181.583866 
L 91.486736 176.20747 
L 93.016201 176.706758 
L 96.075132 172.716716 
L 97.604598 171.156427 
L 99.134063 165.446795 
L 100.663529 154.912502 
L 102.192994 159.763484 
L 103.72246 149.835995 
L 105.251925 155.119874 
L 106.781391 145.936646 
L 108.310856 146.772072 
L 109.840322 152.578873 
L 111.369787 151.051743 
L 112.899253 144.629288 
L 114.428718 145.385045 
L 115.958184 146.561274 
L 117.487649 145.87994 
L 119.017115 149.320149 
L 120.54658 142.302542 
L 122.076046 151.400648 
L 123.605511 147.743143 
L 125.134977 137.898434 
L 126.664442 137.905217 
L 128.193908 146.539415 
L 129.723373 150.749602 
L 131.252839 140.730011 
L 132.782304 134.255488 
L 134.31177 137.771794 
L 135.841235 139.054552 
L 138.900166 129.661524 
L 140.429632 133.70266 
L 141.959097 131.258126 
L 143.488563 124.361562 
L 146.547494 136.229884 
L 148.076959 132.891739 
L 149.606425 114.075968 
L 151.13589 111.111517 
L 152.665356 111.159018 
L 154.194821 123.450834 
L 155.724287 118.608753 
L 157.253752 119.585621 
L 158.783218 123.291426 
L 160.312683 118.610227 
L 161.842149 111.847303 
L 163.371614 119.742685 
L 164.90108 108.023413 
L 166.430545 124.45219 
L 167.960011 120.953463 
L 169.489477 128.687305 
L 171.018942 130.837633 
L 172.548408 124.465605 
L 174.077873 121.452793 
L 175.607339 119.771065 
L 177.136804 116.522527 
L 178.66627 117.106174 
L 180.195735 114.565963 
L 181.725201 110.24788 
L 183.254666 110.304005 
L 184.784132 115.3172 
L 186.313597 119.17222 
L 187.843063 117.369142 
L 189.372528 116.871035 
L 190.901994 113.325832 
L 192.431459 110.53776 
L 193.960925 114.227142 
L 195.49039 110.069001 
L 197.019856 115.76799 
L 200.078787 120.637003 
L 201.608252 116.73435 
L 203.137718 122.277739 
L 204.667183 127.242796 
L 206.196649 132.938276 
L 207.726114 136.619068 
L 209.25558 138.207502 
L 210.785045 127.64555 
L 212.314511 125.65628 
L 213.843976 138.453493 
L 215.373442 142.011296 
L 216.902907 136.713884 
L 218.432373 141.074415 
L 219.961838 134.92961 
L 223.020769 124.895528 
L 224.550235 128.725956 
L 226.0797 120.016931 
L 227.609166 126.5383 
L 229.138631 131.802363 
L 230.668097 132.494097 
L 232.197562 142.850349 
L 233.727028 154.66161 
L 235.256493 148.116331 
L 236.785959 147.14969 
L 238.315424 152.487061 
L 239.84489 162.73436 
L 241.374355 151.590555 
L 242.903821 156.773421 
L 244.433286 158.594446 
L 245.962752 169.051078 
L 247.492217 157.532534 
L 249.021683 158.478233 
L 250.551148 158.803339 
L 252.080614 154.725281 
L 253.61008 145.170376 
L 255.139545 144.136753 
L 256.669011 139.227584 
L 258.198476 149.38402 
L 259.727942 152.975533 
L 261.257407 152.356224 
L 262.786873 147.887943 
L 264.316338 152.174689 
L 265.845804 153.413394 
L 267.375269 151.596147 
L 268.904735 155.540958 
L 270.4342 157.182005 
L 271.963666 153.713875 
L 273.493131 159.719249 
L 275.022597 156.327281 
L 276.552062 164.736786 
L 278.081528 165.47923 
L 279.610993 165.231928 
L 281.140459 168.541018 
L 282.669924 174.347758 
L 284.19939 171.944318 
L 285.728855 175.008936 
L 287.258321 174.374721 
L 288.787786 174.494461 
L 290.317252 174.865546 
L 291.846717 181.530522 
L 293.376183 183.042233 
L 294.905648 175.112142 
L 296.435114 172.393934 
L 297.964579 165.106997 
L 299.494045 164.649125 
L 301.02351 166.251468 
L 302.552976 170.661558 
L 304.082441 160.977748 
L 305.611907 153.557131 
L 307.141372 152.972905 
L 308.670838 159.384556 
L 310.200303 167.83412 
L 311.729769 172.193924 
L 313.259234 180.988613 
L 314.7887 177.468422 
L 316.318165 177.92715 
L 317.847631 177.790994 
L 319.377096 173.664155 
L 320.906562 164.806425 
L 322.436027 158.254014 
L 323.965493 145.071431 
L 325.494958 151.874898 
L 327.024424 152.657396 
L 328.553889 156.339792 
L 330.083355 147.990798 
L 331.61282 143.787051 
L 333.142286 149.08527 
L 334.671752 139.483299 
L 336.201217 133.638027 
L 337.730683 140.040036 
L 339.260148 144.59602 
L 340.789614 142.210394 
L 342.319079 141.0205 
L 343.848545 134.873874 
L 345.37801 136.979962 
L 346.907476 131.078063 
L 348.436941 134.05278 
L 349.966407 134.41986 
L 351.495872 134.304813 
L 353.025338 132.514561 
L 354.554803 132.883861 
L 356.084269 142.727907 
L 357.613734 142.845999 
L 359.1432 140.634895 
L 360.672665 140.202337 
L 362.202131 143.522411 
L 362.202131 143.522411 
" clip-path="url(#p86eae00089)" style="fill: none; stroke: #ff7f0e; stroke-width: 1.5; stroke-linecap: square"/>
   </g>
   <g id="line2d_16">
    <path d="M 57.838494 169.17316 
L 59.36796 179.24723 
L 60.897425 174.493021 
L 62.426891 175.361385 
L 63.956356 163.512686 
L 65.485822 163.317754 
L 67.015287 165.967706 
L 68.544753 165.282954 
L 70.074218 169.312972 
L 71.603684 159.435543 
L 73.133149 156.092277 
L 74.662615 151.522529 
L 76.19208 143.040989 
L 79.251011 170.14837 
L 80.780477 171.027305 
L 82.309942 177.4243 
L 83.839408 166.517902 
L 85.368873 162.35378 
L 86.898339 152.955382 
L 88.427805 152.527322 
L 89.95727 156.380146 
L 91.486736 155.202892 
L 93.016201 155.817145 
L 94.545667 156.12661 
L 96.075132 160.819433 
L 97.604598 162.141602 
L 99.134063 163.304816 
L 100.663529 158.640614 
L 102.192994 158.36302 
L 103.72246 159.693139 
L 105.251925 150.855532 
L 108.310856 149.281175 
L 109.840322 165.679702 
L 111.369787 161.236583 
L 112.899253 157.359038 
L 114.428718 161.285597 
L 115.958184 155.94097 
L 117.487649 154.393536 
L 119.017115 172.693735 
L 120.54658 168.928626 
L 122.076046 162.73535 
L 123.605511 154.028845 
L 125.134977 147.229394 
L 126.664442 151.019898 
L 128.193908 146.977881 
L 129.723373 151.177745 
L 131.252839 143.514485 
L 132.782304 152.881787 
L 134.31177 146.699305 
L 135.841235 144.940936 
L 137.370701 136.224156 
L 138.900166 141.211897 
L 140.429632 155.547169 
L 141.959097 145.271261 
L 143.488563 146.445142 
L 145.018028 146.266042 
L 146.547494 150.527849 
L 148.076959 162.951511 
L 149.606425 167.739996 
L 151.13589 166.86008 
L 152.665356 172.457895 
L 154.194821 175.876532 
L 155.724287 182.084171 
L 157.253752 179.721776 
L 158.783218 182.120094 
L 160.312683 179.698554 
L 161.842149 183.757399 
L 163.371614 178.724989 
L 164.90108 169.345526 
L 166.430545 175.425889 
L 167.960011 172.167636 
L 169.489477 157.394287 
L 171.018942 166.866269 
L 172.548408 165.170447 
L 174.077873 159.361082 
L 175.607339 164.021858 
L 177.136804 167.322963 
L 178.66627 176.886105 
L 180.195735 183.51108 
L 181.725201 187.353594 
L 183.254666 180.757944 
L 184.784132 185.345159 
L 186.313597 184.931952 
L 187.843063 190.290057 
L 189.372528 194.374536 
L 190.901994 204.757806 
L 192.431459 210.442703 
L 193.960925 218.487664 
L 195.49039 210.228143 
L 197.019856 205.177233 
L 198.549321 201.252748 
L 200.078787 196.437503 
L 201.608252 197.900284 
L 203.137718 199.181499 
L 204.667183 197.843512 
L 206.196649 202.534034 
L 207.726114 212.925731 
L 209.25558 213.848312 
L 210.785045 218.861189 
L 212.314511 212.416964 
L 213.843976 201.610094 
L 215.373442 185.041183 
L 216.902907 183.513586 
L 218.432373 191.32026 
L 219.961838 181.047811 
L 221.491304 172.148125 
L 223.020769 165.83979 
L 224.550235 165.73732 
L 226.0797 166.463486 
L 227.609166 165.269522 
L 229.138631 162.815322 
L 230.668097 168.932092 
L 232.197562 159.810819 
L 233.727028 154.857183 
L 235.256493 155.676291 
L 236.785959 156.143901 
L 238.315424 152.675484 
L 239.84489 147.919102 
L 241.374355 154.655715 
L 242.903821 162.782871 
L 244.433286 155.595939 
L 245.962752 152.132049 
L 247.492217 159.130895 
L 249.021683 157.902696 
L 250.551148 153.141591 
L 252.080614 151.998452 
L 253.61008 145.646999 
L 255.139545 143.551807 
L 256.669011 139.324108 
L 258.198476 134.682926 
L 259.727942 133.280222 
L 261.257407 133.988139 
L 262.786873 126.736088 
L 264.316338 128.653559 
L 265.845804 130.903987 
L 267.375269 144.699608 
L 268.904735 154.97581 
L 270.4342 144.382069 
L 271.963666 136.086713 
L 273.493131 144.45374 
L 275.022597 129.86837 
L 276.552062 120.795766 
L 278.081528 118.41802 
L 279.610993 107.36941 
L 281.140459 112.460683 
L 282.669924 112.194086 
L 284.19939 105.827981 
L 285.728855 110.982658 
L 287.258321 104.982705 
L 288.787786 95.704334 
L 290.317252 91.238551 
L 291.846717 76.539001 
L 293.376183 69.513995 
L 294.905648 70.089948 
L 296.435114 66.161254 
L 297.964579 69.899375 
L 299.494045 73.078933 
L 301.02351 71.197925 
L 302.552976 71.803595 
L 304.082441 66.248224 
L 305.611907 64.973113 
L 307.141372 67.031173 
L 308.670838 79.620304 
L 310.200303 81.734227 
L 311.729769 70.325469 
L 316.318165 45.764026 
L 317.847631 46.757442 
L 319.377096 44.386275 
L 320.906562 42.367321 
L 322.436027 42.296354 
L 323.965493 37.025655 
L 325.494958 20.620397 
L 327.024424 27.13617 
L 328.553889 20.909162 
L 330.083355 26.398953 
L 331.61282 25.315297 
L 333.142286 28.595405 
L 334.671752 17.360353 
L 336.201217 23.374742 
L 337.730683 35.105633 
L 339.260148 28.718007 
L 340.789614 26.357924 
L 342.319079 26.377805 
L 343.848545 17.279104 
L 345.37801 20.790155 
L 346.907476 35.469136 
L 348.436941 34.202488 
L 349.966407 33.458775 
L 351.495872 32.489182 
L 353.025338 36.390211 
L 354.554803 33.049206 
L 356.084269 34.529562 
L 357.613734 39.331799 
L 359.1432 45.743844 
L 360.672665 47.369904 
L 362.202131 37.977252 
L 362.202131 37.977252 
" clip-path="url(#p86eae00089)" style="fill: none; stroke: #2ca02c; stroke-width: 1.5; stroke-linecap: square"/>
   </g>
   <g id="line2d_17">
    <path d="M 57.838494 174.589899 
L 59.36796 166.5144 
L 60.897425 164.453291 
L 63.956356 171.418798 
L 65.485822 173.830188 
L 67.015287 180.736511 
L 68.544753 189.77991 
L 70.074218 184.508173 
L 71.603684 192.090599 
L 73.133149 189.634716 
L 74.662615 190.691109 
L 76.19208 191.969577 
L 77.721546 199.504689 
L 79.251011 197.465746 
L 80.780477 203.515505 
L 82.309942 201.40682 
L 83.839408 214.083725 
L 85.368873 221.263063 
L 86.898339 219.776248 
L 88.427805 221.559923 
L 89.95727 214.99687 
L 91.486736 219.102247 
L 93.016201 214.895133 
L 94.545667 221.821634 
L 96.075132 222.21367 
L 97.604598 210.666429 
L 99.134063 195.212969 
L 100.663529 193.063653 
L 102.192994 185.604227 
L 103.72246 190.327432 
L 106.781391 170.629364 
L 108.310856 168.722194 
L 109.840322 169.9414 
L 111.369787 166.555722 
L 112.899253 165.166058 
L 114.428718 175.706419 
L 115.958184 169.495782 
L 117.487649 173.608881 
L 119.017115 169.677376 
L 120.54658 163.475556 
L 122.076046 163.465965 
L 123.605511 167.37833 
L 125.134977 170.762272 
L 126.664442 173.724145 
L 128.193908 164.191687 
L 129.723373 165.205003 
L 131.252839 156.289503 
L 132.782304 151.070832 
L 134.31177 151.771861 
L 135.841235 148.951675 
L 137.370701 148.751608 
L 138.900166 145.946326 
L 140.429632 141.314827 
L 141.959097 145.607854 
L 143.488563 150.821258 
L 145.018028 157.860503 
L 146.547494 151.541925 
L 148.076959 153.608356 
L 149.606425 158.878262 
L 151.13589 145.378146 
L 152.665356 148.817227 
L 154.194821 151.301257 
L 155.724287 162.175799 
L 157.253752 167.864112 
L 158.783218 171.563625 
L 160.312683 170.38928 
L 161.842149 165.063704 
L 163.371614 162.788738 
L 164.90108 158.644939 
L 166.430545 152.848488 
L 167.960011 145.353384 
L 169.489477 149.035814 
L 171.018942 149.64781 
L 172.548408 153.297136 
L 174.077873 155.012676 
L 175.607339 146.028361 
L 177.136804 143.826561 
L 180.195735 123.426577 
L 181.725201 126.200514 
L 183.254666 126.678109 
L 184.784132 126.557733 
L 186.313597 139.088472 
L 187.843063 138.800806 
L 189.372528 140.034925 
L 190.901994 133.685446 
L 192.431459 138.210891 
L 193.960925 138.462107 
L 195.49039 128.790603 
L 197.019856 139.168269 
L 198.549321 143.216577 
L 200.078787 140.597261 
L 201.608252 136.715795 
L 203.137718 146.332281 
L 204.667183 141.315606 
L 206.196649 147.329867 
L 207.726114 142.802965 
L 210.785045 150.820765 
L 212.314511 148.738922 
L 213.843976 148.455103 
L 215.373442 156.687122 
L 216.902907 150.136334 
L 218.432373 157.322093 
L 219.961838 162.248762 
L 221.491304 162.563774 
L 223.020769 164.527142 
L 224.550235 166.105099 
L 226.0797 167.109439 
L 227.609166 173.009886 
L 229.138631 171.814652 
L 230.668097 165.643959 
L 232.197562 161.711686 
L 233.727028 158.545283 
L 235.256493 152.219137 
L 236.785959 154.196924 
L 238.315424 163.050433 
L 239.84489 163.775487 
L 241.374355 172.891763 
L 242.903821 167.025938 
L 244.433286 174.566747 
L 245.962752 177.126 
L 247.492217 179.129541 
L 249.021683 190.856678 
L 250.551148 186.684993 
L 252.080614 191.80358 
L 253.61008 187.599314 
L 255.139545 190.32601 
L 256.669011 188.390707 
L 258.198476 181.000182 
L 259.727942 179.320155 
L 261.257407 181.430663 
L 262.786873 176.851378 
L 264.316338 184.402169 
L 265.845804 175.339058 
L 267.375269 168.214472 
L 268.904735 167.92158 
L 270.4342 179.191095 
L 271.963666 177.608128 
L 273.493131 176.377291 
L 275.022597 176.055607 
L 276.552062 170.549582 
L 278.081528 180.643124 
L 279.610993 173.472497 
L 281.140459 179.676422 
L 282.669924 173.177327 
L 284.19939 167.840426 
L 285.728855 161.608164 
L 287.258321 153.507716 
L 288.787786 157.268326 
L 290.317252 146.057318 
L 291.846717 143.676144 
L 293.376183 137.272264 
L 294.905648 140.611716 
L 297.964579 136.761251 
L 299.494045 140.000833 
L 301.02351 133.572752 
L 302.552976 132.04066 
L 304.082441 125.316247 
L 305.611907 126.260468 
L 307.141372 129.739822 
L 308.670838 130.521106 
L 310.200303 127.485401 
L 311.729769 134.007373 
L 313.259234 128.244743 
L 314.7887 129.831982 
L 316.318165 128.098 
L 317.847631 125.928367 
L 319.377096 118.021404 
L 320.906562 119.638701 
L 322.436027 132.088855 
L 323.965493 126.800733 
L 325.494958 123.811219 
L 327.024424 124.504723 
L 328.553889 130.00382 
L 330.083355 124.332574 
L 331.61282 117.297881 
L 333.142286 108.180357 
L 334.671752 103.092974 
L 336.201217 110.320787 
L 337.730683 99.477278 
L 339.260148 98.412877 
L 340.789614 104.175075 
L 342.319079 111.41852 
L 343.848545 106.368214 
L 345.37801 91.418481 
L 346.907476 88.148289 
L 348.436941 97.090665 
L 349.966407 96.284192 
L 351.495872 99.848809 
L 353.025338 96.499601 
L 354.554803 90.631164 
L 356.084269 90.983893 
L 357.613734 98.986835 
L 359.1432 87.28707 
L 360.672665 92.643218 
L 362.202131 95.110488 
L 362.202131 95.110488 
" clip-path="url(#p86eae00089)" style="fill: none; stroke: #d62728; stroke-width: 1.5; stroke-linecap: square"/>
   </g>
   <g id="patch_3">
    <path d="M 42.620313 228.96 
L 42.620313 7.2 
" style="fill: none; stroke: #000000; stroke-width: 0.8; stroke-linejoin: miter; stroke-linecap: square"/>
   </g>
   <g id="patch_4">
    <path d="M 377.420313 228.96 
L 377.420313 7.2 
" style="fill: none; stroke: #000000; stroke-width: 0.8; stroke-linejoin: miter; stroke-linecap: square"/>
   </g>
   <g id="patch_5">
    <path d="M 42.620312 228.96 
L 377.420312 228.96 
" style="fill: none; stroke: #000000; stroke-width: 0.8; stroke-linejoin: miter; stroke-linecap: square"/>
   </g>
   <g id="patch_6">
    <path d="M 42.620312 7.2 
L 377.420312 7.2 
" style="fill: none; stroke: #000000; stroke-width: 0.8; stroke-linejoin: miter; stroke-linecap: square"/>
   </g>
   <g id="legend_1">
    <g id="patch_7">
     <path d="M 49.620313 73.9125 
L 89.320312 73.9125 
Q 91.320312 73.9125 91.320312 71.9125 
L 91.320312 14.2 
Q 91.320312 12.2 89.320312 12.2 
L 49.620313 12.2 
Q 47.620313 12.2 47.620313 14.2 
L 47.620313 71.9125 
Q 47.620313 73.9125 49.620313 73.9125 
z
" style="fill: #ffffff; opacity: 0.8; stroke: #cccccc; stroke-linejoin: miter"/>
    </g>
    <g id="line2d_18">
     <path d="M 51.620313 20.298437 
L 61.620313 20.298437 
L 71.620313 20.298437 
" style="fill: none; stroke: #1f77b4; stroke-width: 1.5; stroke-linecap: square"/>
    </g>
    <g id="text_16">
     <!-- A -->
     <g transform="translate(79.620313 23.798437) scale(0.1 -0.1)">
      <defs>
       <path id="DejaVuSans-41" d="M 2188 4044 
L 1331 1722 
L 3047 1722 
L 2188 4044 
z
M 1831 4666 
L 2547 4666 
L 4325 0 
L 3669 0 
L 3244 1197 
L 1141 1197 
L 716 0 
L 50 0 
L 1831 4666 
z
" transform="scale(0.015625)"/>
      </defs>
      <use xlink:href="#DejaVuSans-41"/>
     </g>
    </g>
    <g id="line2d_19">
     <path d="M 51.620313 34.976562 
L 61.620313 34.976562 
L 71.620313 34.976562 
" style="fill: none; stroke: #ff7f0e; stroke-width: 1.5; stroke-linecap: square"/>
    </g>
    <g id="text_17">
     <!-- B -->
     <g transform="translate(79.620313 38.476562) scale(0.1 -0.1)">
      <defs>
       <path id="DejaVuSans-42" d="M 1259 2228 
L 1259 519 
L 2272 519 
Q 2781 519 3026 730 
Q 3272 941 3272 1375 
Q 3272 1813 3026 2020 
Q 2781 2228 2272 2228 
L 1259 2228 
z
M 1259 4147 
L 1259 2741 
L 2194 2741 
Q 2656 2741 2882 2914 
Q 3109 3088 3109 3444 
Q 3109 3797 2882 3972 
Q 2656 4147 2194 4147 
L 1259 4147 
z
M 628 4666 
L 2241 4666 
Q 2963 4666 3353 4366 
Q 3744 4066 3744 3513 
Q 3744 3084 3544 2831 
Q 3344 2578 2956 2516 
Q 3422 2416 3680 2098 
Q 3938 1781 3938 1306 
Q 3938 681 3513 340 
Q 3088 0 2303 0 
L 628 0 
L 628 4666 
z
" transform="scale(0.015625)"/>
      </defs>
      <use xlink:href="#DejaVuSans-42"/>
     </g>
    </g>
    <g id="line2d_20">
     <path d="M 51.620313 49.654687 
L 61.620313 49.654687 
L 71.620313 49.654687 
" style="fill: none; stroke: #2ca02c; stroke-width: 1.5; stroke-linecap: square"/>
    </g>
    <g id="text_18">
     <!-- C -->
     <g transform="translate(79.620313 53.154687) scale(0.1 -0.1)">
      <defs>
       <path id="DejaVuSans-43" d="M 4122 4306 
L 4122 3641 
Q 3803 3938 3442 4084 
Q 3081 4231 2675 4231 
Q 1875 4231 1450 3742 
Q 1025 3253 1025 2328 
Q 1025 1406 1450 917 
Q 1875 428 2675 428 
Q 3081 428 3442 575 
Q 3803 722 4122 1019 
L 4122 359 
Q 3791 134 3420 21 
Q 3050 -91 2638 -91 
Q 1578 -91 968 557 
Q 359 1206 359 2328 
Q 359 3453 968 4101 
Q 1578 4750 2638 4750 
Q 3056 4750 3426 4639 
Q 3797 4528 4122 4306 
z
" transform="scale(0.015625)"/>
      </defs>
      <use xlink:href="#DejaVuSans-43"/>
     </g>
    </g>
    <g id="line2d_21">
     <path d="M 51.620313 64.332812 
L 61.620313 64.332812 
L 71.620313 64.332812 
" style="fill: none; stroke: #d62728; stroke-width: 1.5; stroke-linecap: square"/>
    </g>
    <g id="text_19">
     <!-- D -->
     <g transform="translate(79.620313 67.832812) scale(0.1 -0.1)">
      <defs>
       <path id="DejaVuSans-44" d="M 1259 4147 
L 1259 519 
L 2022 519 
Q 2988 519 3436 956 
Q 3884 1394 3884 2338 
Q 3884 3275 3436 3711 
Q 2988 4147 2022 4147 
L 1259 4147 
z
M 628 4666 
L 1925 4666 
Q 3281 4666 3915 4102 
Q 4550 3538 4550 2338 
Q 4550 1131 3912 565 
Q 3275 0 1925 0 
L 628 0 
L 628 4666 
z
" transform="scale(0.015625)"/>
      </defs>
      <use xlink:href="#DejaVuSans-44"/>
     </g>
    </g>
   </g>
  </g>
 </g>
 <defs>
  <clipPath id="p86eae00089">
   <rect x="42.620313" y="7.2" width="334.8" height="221.76"/>
  </clipPath>
 </defs>
</svg>
