<?xml version="1.0" encoding="utf-8" standalone="no"?>
<!DOCTYPE svg PUBLIC "-//W3C//DTD SVG 1.1//EN"
  "http://www.w3.org/Graphics/SVG/1.1/DTD/svg11.dtd">
<svg xmlns:xlink="http://www.w3.org/1999/xlink" width="390.982812pt" height="266.51625pt" viewBox="0 0 390.982812 266.51625" xmlns="http://www.w3.org/2000/svg" version="1.1">
 <metadata>
  <rdf:RDF xmlns:dc="http://purl.org/dc/elements/1.1/" xmlns:cc="http://creativecommons.org/ns#" xmlns:rdf="http://www.w3.org/1999/02/22-rdf-syntax-ns#">
   <cc:Work>
    <dc:type rdf:resource="http://purl.org/dc/dcmitype/StillImage"/>
    <dc:date>2025-05-19T09:22:53.403963</dc:date>
    <dc:format>image/svg+xml</dc:format>
    <dc:creator>
     <cc:Agent>
      <dc:title>Matplotlib v3.10.0, https://matplotlib.org/</dc:title>
     </cc:Agent>
    </dc:creator>
   </cc:Work>
  </rdf:RDF>
 </metadata>
 <defs>
  <style type="text/css">*{stroke-linejoin: round; stroke-linecap: butt}</style>
 </defs>
 <g id="figure_1">
  <g id="patch_1">
   <path d="M 0 266.51625 
L 390.982812 266.51625 
L 390.982812 0 
L 0 0 
z
" style="fill: #ffffff"/>
  </g>
  <g id="axes_1">
   <g id="patch_2">
    <path d="M 48.982813 228.96 
L 383.782813 228.96 
L 383.782813 7.2 
L 48.982813 7.2 
z
" style="fill: #ffffff"/>
   </g>
   <g id="matplotlib.axis_1">
    <g id="xtick_1">
     <g id="line2d_1">
      <defs>
       <path id="ma94e1da2d9" d="M 0 0 
L 0 3.5 
" style="stroke: #000000; stroke-width: 0.8"/>
      </defs>
      <g>
       <use xlink:href="#ma94e1da2d9" x="64.200994" y="228.96" style="stroke: #000000; stroke-width: 0.8"/>
      </g>
     </g>
     <g id="text_1">
      <!-- 2000-01 -->
      <g transform="translate(43.309588 243.558437) scale(0.1 -0.1)">
       <defs>
        <path id="DejaVuSans-32" d="M 1228 531 
L 3431 531 
L 3431 0 
L 469 0 
L 469 531 
Q 828 903 1448 1529 
Q 2069 2156 2228 2338 
Q 2531 2678 2651 2914 
Q 2772 3150 2772 3378 
Q 2772 3750 2511 3984 
Q 2250 4219 1831 4219 
Q 1534 4219 1204 4116 
Q 875 4013 500 3803 
L 500 4441 
Q 881 4594 1212 4672 
Q 1544 4750 1819 4750 
Q 2544 4750 2975 4387 
Q 3406 4025 3406 3419 
Q 3406 3131 3298 2873 
Q 3191 2616 2906 2266 
Q 2828 2175 2409 1742 
Q 1991 1309 1228 531 
z
" transform="scale(0.015625)"/>
        <path id="DejaVuSans-30" d="M 2034 4250 
Q 1547 4250 1301 3770 
Q 1056 3291 1056 2328 
Q 1056 1369 1301 889 
Q 1547 409 2034 409 
Q 2525 409 2770 889 
Q 3016 1369 3016 2328 
Q 3016 3291 2770 3770 
Q 2525 4250 2034 4250 
z
M 2034 4750 
Q 2819 4750 3233 4129 
Q 3647 3509 3647 2328 
Q 3647 1150 3233 529 
Q 2819 -91 2034 -91 
Q 1250 -91 836 529 
Q 422 1150 422 2328 
Q 422 3509 836 4129 
Q 1250 4750 2034 4750 
z
" transform="scale(0.015625)"/>
        <path id="DejaVuSans-2d" d="M 313 2009 
L 1997 2009 
L 1997 1497 
L 313 1497 
L 313 2009 
z
" transform="scale(0.015625)"/>
        <path id="DejaVuSans-31" d="M 794 531 
L 1825 531 
L 1825 4091 
L 703 3866 
L 703 4441 
L 1819 4666 
L 2450 4666 
L 2450 531 
L 3481 531 
L 3481 0 
L 794 0 
L 794 531 
z
" transform="scale(0.015625)"/>
       </defs>
       <use xlink:href="#DejaVuSans-32"/>
       <use xlink:href="#DejaVuSans-30" transform="translate(63.623047 0)"/>
       <use xlink:href="#DejaVuSans-30" transform="translate(127.246094 0)"/>
       <use xlink:href="#DejaVuSans-30" transform="translate(190.869141 0)"/>
       <use xlink:href="#DejaVuSans-2d" transform="translate(254.492188 0)"/>
       <use xlink:href="#DejaVuSans-30" transform="translate(290.576172 0)"/>
       <use xlink:href="#DejaVuSans-31" transform="translate(354.199219 0)"/>
      </g>
     </g>
    </g>
    <g id="xtick_2">
     <g id="line2d_2">
      <g>
       <use xlink:href="#ma94e1da2d9" x="111.614425" y="228.96" style="stroke: #000000; stroke-width: 0.8"/>
      </g>
     </g>
     <g id="text_2">
      <!-- 2000-02 -->
      <g transform="translate(90.723019 243.558437) scale(0.1 -0.1)">
       <use xlink:href="#DejaVuSans-32"/>
       <use xlink:href="#DejaVuSans-30" transform="translate(63.623047 0)"/>
       <use xlink:href="#DejaVuSans-30" transform="translate(127.246094 0)"/>
       <use xlink:href="#DejaVuSans-30" transform="translate(190.869141 0)"/>
       <use xlink:href="#DejaVuSans-2d" transform="translate(254.492188 0)"/>
       <use xlink:href="#DejaVuSans-30" transform="translate(290.576172 0)"/>
       <use xlink:href="#DejaVuSans-32" transform="translate(354.199219 0)"/>
      </g>
     </g>
    </g>
    <g id="xtick_3">
     <g id="line2d_3">
      <g>
       <use xlink:href="#ma94e1da2d9" x="155.968925" y="228.96" style="stroke: #000000; stroke-width: 0.8"/>
      </g>
     </g>
     <g id="text_3">
      <!-- 2000-03 -->
      <g transform="translate(135.077519 243.558437) scale(0.1 -0.1)">
       <defs>
        <path id="DejaVuSans-33" d="M 2597 2516 
Q 3050 2419 3304 2112 
Q 3559 1806 3559 1356 
Q 3559 666 3084 287 
Q 2609 -91 1734 -91 
Q 1441 -91 1130 -33 
Q 819 25 488 141 
L 488 750 
Q 750 597 1062 519 
Q 1375 441 1716 441 
Q 2309 441 2620 675 
Q 2931 909 2931 1356 
Q 2931 1769 2642 2001 
Q 2353 2234 1838 2234 
L 1294 2234 
L 1294 2753 
L 1863 2753 
Q 2328 2753 2575 2939 
Q 2822 3125 2822 3475 
Q 2822 3834 2567 4026 
Q 2313 4219 1838 4219 
Q 1578 4219 1281 4162 
Q 984 4106 628 3988 
L 628 4550 
Q 988 4650 1302 4700 
Q 1616 4750 1894 4750 
Q 2613 4750 3031 4423 
Q 3450 4097 3450 3541 
Q 3450 3153 3228 2886 
Q 3006 2619 2597 2516 
z
" transform="scale(0.015625)"/>
       </defs>
       <use xlink:href="#DejaVuSans-32"/>
       <use xlink:href="#DejaVuSans-30" transform="translate(63.623047 0)"/>
       <use xlink:href="#DejaVuSans-30" transform="translate(127.246094 0)"/>
       <use xlink:href="#DejaVuSans-30" transform="translate(190.869141 0)"/>
       <use xlink:href="#DejaVuSans-2d" transform="translate(254.492188 0)"/>
       <use xlink:href="#DejaVuSans-30" transform="translate(290.576172 0)"/>
       <use xlink:href="#DejaVuSans-33" transform="translate(354.199219 0)"/>
      </g>
     </g>
    </g>
    <g id="xtick_4">
     <g id="line2d_4">
      <g>
       <use xlink:href="#ma94e1da2d9" x="203.382356" y="228.96" style="stroke: #000000; stroke-width: 0.8"/>
      </g>
     </g>
     <g id="text_4">
      <!-- 2000-04 -->
      <g transform="translate(182.490949 243.558437) scale(0.1 -0.1)">
       <defs>
        <path id="DejaVuSans-34" d="M 2419 4116 
L 825 1625 
L 2419 1625 
L 2419 4116 
z
M 2253 4666 
L 3047 4666 
L 3047 1625 
L 3713 1625 
L 3713 1100 
L 3047 1100 
L 3047 0 
L 2419 0 
L 2419 1100 
L 313 1100 
L 313 1709 
L 2253 4666 
z
" transform="scale(0.015625)"/>
       </defs>
       <use xlink:href="#DejaVuSans-32"/>
       <use xlink:href="#DejaVuSans-30" transform="translate(63.623047 0)"/>
       <use xlink:href="#DejaVuSans-30" transform="translate(127.246094 0)"/>
       <use xlink:href="#DejaVuSans-30" transform="translate(190.869141 0)"/>
       <use xlink:href="#DejaVuSans-2d" transform="translate(254.492188 0)"/>
       <use xlink:href="#DejaVuSans-30" transform="translate(290.576172 0)"/>
       <use xlink:href="#DejaVuSans-34" transform="translate(354.199219 0)"/>
      </g>
     </g>
    </g>
    <g id="xtick_5">
     <g id="line2d_5">
      <g>
       <use xlink:href="#ma94e1da2d9" x="249.266321" y="228.96" style="stroke: #000000; stroke-width: 0.8"/>
      </g>
     </g>
     <g id="text_5">
      <!-- 2000-05 -->
      <g transform="translate(228.374915 243.558437) scale(0.1 -0.1)">
       <defs>
        <path id="DejaVuSans-35" d="M 691 4666 
L 3169 4666 
L 3169 4134 
L 1269 4134 
L 1269 2991 
Q 1406 3038 1543 3061 
Q 1681 3084 1819 3084 
Q 2600 3084 3056 2656 
Q 3513 2228 3513 1497 
Q 3513 744 3044 326 
Q 2575 -91 1722 -91 
Q 1428 -91 1123 -41 
Q 819 9 494 109 
L 494 744 
Q 775 591 1075 516 
Q 1375 441 1709 441 
Q 2250 441 2565 725 
Q 2881 1009 2881 1497 
Q 2881 1984 2565 2268 
Q 2250 2553 1709 2553 
Q 1456 2553 1204 2497 
Q 953 2441 691 2322 
L 691 4666 
z
" transform="scale(0.015625)"/>
       </defs>
       <use xlink:href="#DejaVuSans-32"/>
       <use xlink:href="#DejaVuSans-30" transform="translate(63.623047 0)"/>
       <use xlink:href="#DejaVuSans-30" transform="translate(127.246094 0)"/>
       <use xlink:href="#DejaVuSans-30" transform="translate(190.869141 0)"/>
       <use xlink:href="#DejaVuSans-2d" transform="translate(254.492188 0)"/>
       <use xlink:href="#DejaVuSans-30" transform="translate(290.576172 0)"/>
       <use xlink:href="#DejaVuSans-35" transform="translate(354.199219 0)"/>
      </g>
     </g>
    </g>
    <g id="xtick_6">
     <g id="line2d_6">
      <g>
       <use xlink:href="#ma94e1da2d9" x="296.679752" y="228.96" style="stroke: #000000; stroke-width: 0.8"/>
      </g>
     </g>
     <g id="text_6">
      <!-- 2000-06 -->
      <g transform="translate(275.788345 243.558437) scale(0.1 -0.1)">
       <defs>
        <path id="DejaVuSans-36" d="M 2113 2584 
Q 1688 2584 1439 2293 
Q 1191 2003 1191 1497 
Q 1191 994 1439 701 
Q 1688 409 2113 409 
Q 2538 409 2786 701 
Q 3034 994 3034 1497 
Q 3034 2003 2786 2293 
Q 2538 2584 2113 2584 
z
M 3366 4563 
L 3366 3988 
Q 3128 4100 2886 4159 
Q 2644 4219 2406 4219 
Q 1781 4219 1451 3797 
Q 1122 3375 1075 2522 
Q 1259 2794 1537 2939 
Q 1816 3084 2150 3084 
Q 2853 3084 3261 2657 
Q 3669 2231 3669 1497 
Q 3669 778 3244 343 
Q 2819 -91 2113 -91 
Q 1303 -91 875 529 
Q 447 1150 447 2328 
Q 447 3434 972 4092 
Q 1497 4750 2381 4750 
Q 2619 4750 2861 4703 
Q 3103 4656 3366 4563 
z
" transform="scale(0.015625)"/>
       </defs>
       <use xlink:href="#DejaVuSans-32"/>
       <use xlink:href="#DejaVuSans-30" transform="translate(63.623047 0)"/>
       <use xlink:href="#DejaVuSans-30" transform="translate(127.246094 0)"/>
       <use xlink:href="#DejaVuSans-30" transform="translate(190.869141 0)"/>
       <use xlink:href="#DejaVuSans-2d" transform="translate(254.492188 0)"/>
       <use xlink:href="#DejaVuSans-30" transform="translate(290.576172 0)"/>
       <use xlink:href="#DejaVuSans-36" transform="translate(354.199219 0)"/>
      </g>
     </g>
    </g>
    <g id="xtick_7">
     <g id="line2d_7">
      <g>
       <use xlink:href="#ma94e1da2d9" x="342.563717" y="228.96" style="stroke: #000000; stroke-width: 0.8"/>
      </g>
     </g>
     <g id="text_7">
      <!-- 2000-07 -->
      <g transform="translate(321.672311 243.558437) scale(0.1 -0.1)">
       <defs>
        <path id="DejaVuSans-37" d="M 525 4666 
L 3525 4666 
L 3525 4397 
L 1831 0 
L 1172 0 
L 2766 4134 
L 525 4134 
L 525 4666 
z
" transform="scale(0.015625)"/>
       </defs>
       <use xlink:href="#DejaVuSans-32"/>
       <use xlink:href="#DejaVuSans-30" transform="translate(63.623047 0)"/>
       <use xlink:href="#DejaVuSans-30" transform="translate(127.246094 0)"/>
       <use xlink:href="#DejaVuSans-30" transform="translate(190.869141 0)"/>
       <use xlink:href="#DejaVuSans-2d" transform="translate(254.492188 0)"/>
       <use xlink:href="#DejaVuSans-30" transform="translate(290.576172 0)"/>
       <use xlink:href="#DejaVuSans-37" transform="translate(354.199219 0)"/>
      </g>
     </g>
    </g>
    <g id="text_8">
     <!-- row [datetime] -->
     <g transform="translate(179.229688 257.236562) scale(0.1 -0.1)">
      <defs>
       <path id="DejaVuSans-72" d="M 2631 2963 
Q 2534 3019 2420 3045 
Q 2306 3072 2169 3072 
Q 1681 3072 1420 2755 
Q 1159 2438 1159 1844 
L 1159 0 
L 581 0 
L 581 3500 
L 1159 3500 
L 1159 2956 
Q 1341 3275 1631 3429 
Q 1922 3584 2338 3584 
Q 2397 3584 2469 3576 
Q 2541 3569 2628 3553 
L 2631 2963 
z
" transform="scale(0.015625)"/>
       <path id="DejaVuSans-6f" d="M 1959 3097 
Q 1497 3097 1228 2736 
Q 959 2375 959 1747 
Q 959 1119 1226 758 
Q 1494 397 1959 397 
Q 2419 397 2687 759 
Q 2956 1122 2956 1747 
Q 2956 2369 2687 2733 
Q 2419 3097 1959 3097 
z
M 1959 3584 
Q 2709 3584 3137 3096 
Q 3566 2609 3566 1747 
Q 3566 888 3137 398 
Q 2709 -91 1959 -91 
Q 1206 -91 779 398 
Q 353 888 353 1747 
Q 353 2609 779 3096 
Q 1206 3584 1959 3584 
z
" transform="scale(0.015625)"/>
       <path id="DejaVuSans-77" d="M 269 3500 
L 844 3500 
L 1563 769 
L 2278 3500 
L 2956 3500 
L 3675 769 
L 4391 3500 
L 4966 3500 
L 4050 0 
L 3372 0 
L 2619 2869 
L 1863 0 
L 1184 0 
L 269 3500 
z
" transform="scale(0.015625)"/>
       <path id="DejaVuSans-20" transform="scale(0.015625)"/>
       <path id="DejaVuSans-5b" d="M 550 4863 
L 1875 4863 
L 1875 4416 
L 1125 4416 
L 1125 -397 
L 1875 -397 
L 1875 -844 
L 550 -844 
L 550 4863 
z
" transform="scale(0.015625)"/>
       <path id="DejaVuSans-64" d="M 2906 2969 
L 2906 4863 
L 3481 4863 
L 3481 0 
L 2906 0 
L 2906 525 
Q 2725 213 2448 61 
Q 2172 -91 1784 -91 
Q 1150 -91 751 415 
Q 353 922 353 1747 
Q 353 2572 751 3078 
Q 1150 3584 1784 3584 
Q 2172 3584 2448 3432 
Q 2725 3281 2906 2969 
z
M 947 1747 
Q 947 1113 1208 752 
Q 1469 391 1925 391 
Q 2381 391 2643 752 
Q 2906 1113 2906 1747 
Q 2906 2381 2643 2742 
Q 2381 3103 1925 3103 
Q 1469 3103 1208 2742 
Q 947 2381 947 1747 
z
" transform="scale(0.015625)"/>
       <path id="DejaVuSans-61" d="M 2194 1759 
Q 1497 1759 1228 1600 
Q 959 1441 959 1056 
Q 959 750 1161 570 
Q 1363 391 1709 391 
Q 2188 391 2477 730 
Q 2766 1069 2766 1631 
L 2766 1759 
L 2194 1759 
z
M 3341 1997 
L 3341 0 
L 2766 0 
L 2766 531 
Q 2569 213 2275 61 
Q 1981 -91 1556 -91 
Q 1019 -91 701 211 
Q 384 513 384 1019 
Q 384 1609 779 1909 
Q 1175 2209 1959 2209 
L 2766 2209 
L 2766 2266 
Q 2766 2663 2505 2880 
Q 2244 3097 1772 3097 
Q 1472 3097 1187 3025 
Q 903 2953 641 2809 
L 641 3341 
Q 956 3463 1253 3523 
Q 1550 3584 1831 3584 
Q 2591 3584 2966 3190 
Q 3341 2797 3341 1997 
z
" transform="scale(0.015625)"/>
       <path id="DejaVuSans-74" d="M 1172 4494 
L 1172 3500 
L 2356 3500 
L 2356 3053 
L 1172 3053 
L 1172 1153 
Q 1172 725 1289 603 
Q 1406 481 1766 481 
L 2356 481 
L 2356 0 
L 1766 0 
Q 1100 0 847 248 
Q 594 497 594 1153 
L 594 3053 
L 172 3053 
L 172 3500 
L 594 3500 
L 594 4494 
L 1172 4494 
z
" transform="scale(0.015625)"/>
       <path id="DejaVuSans-65" d="M 3597 1894 
L 3597 1613 
L 953 1613 
Q 991 1019 1311 708 
Q 1631 397 2203 397 
Q 2534 397 2845 478 
Q 3156 559 3463 722 
L 3463 178 
Q 3153 47 2828 -22 
Q 2503 -91 2169 -91 
Q 1331 -91 842 396 
Q 353 884 353 1716 
Q 353 2575 817 3079 
Q 1281 3584 2069 3584 
Q 2775 3584 3186 3129 
Q 3597 2675 3597 1894 
z
M 3022 2063 
Q 3016 2534 2758 2815 
Q 2500 3097 2075 3097 
Q 1594 3097 1305 2825 
Q 1016 2553 972 2059 
L 3022 2063 
z
" transform="scale(0.015625)"/>
       <path id="DejaVuSans-69" d="M 603 3500 
L 1178 3500 
L 1178 0 
L 603 0 
L 603 3500 
z
M 603 4863 
L 1178 4863 
L 1178 4134 
L 603 4134 
L 603 4863 
z
" transform="scale(0.015625)"/>
       <path id="DejaVuSans-6d" d="M 3328 2828 
Q 3544 3216 3844 3400 
Q 4144 3584 4550 3584 
Q 5097 3584 5394 3201 
Q 5691 2819 5691 2113 
L 5691 0 
L 5113 0 
L 5113 2094 
Q 5113 2597 4934 2840 
Q 4756 3084 4391 3084 
Q 3944 3084 3684 2787 
Q 3425 2491 3425 1978 
L 3425 0 
L 2847 0 
L 2847 2094 
Q 2847 2600 2669 2842 
Q 2491 3084 2119 3084 
Q 1678 3084 1418 2786 
Q 1159 2488 1159 1978 
L 1159 0 
L 581 0 
L 581 3500 
L 1159 3500 
L 1159 2956 
Q 1356 3278 1631 3431 
Q 1906 3584 2284 3584 
Q 2666 3584 2933 3390 
Q 3200 3197 3328 2828 
z
" transform="scale(0.015625)"/>
       <path id="DejaVuSans-5d" d="M 1947 4863 
L 1947 -844 
L 622 -844 
L 622 -397 
L 1369 -397 
L 1369 4416 
L 622 4416 
L 622 4863 
L 1947 4863 
z
" transform="scale(0.015625)"/>
      </defs>
      <use xlink:href="#DejaVuSans-72"/>
      <use xlink:href="#DejaVuSans-6f" transform="translate(38.863281 0)"/>
      <use xlink:href="#DejaVuSans-77" transform="translate(100.044922 0)"/>
      <use xlink:href="#DejaVuSans-20" transform="translate(181.832031 0)"/>
      <use xlink:href="#DejaVuSans-5b" transform="translate(213.619141 0)"/>
      <use xlink:href="#DejaVuSans-64" transform="translate(252.632812 0)"/>
      <use xlink:href="#DejaVuSans-61" transform="translate(316.109375 0)"/>
      <use xlink:href="#DejaVuSans-74" transform="translate(377.388672 0)"/>
      <use xlink:href="#DejaVuSans-65" transform="translate(416.597656 0)"/>
      <use xlink:href="#DejaVuSans-74" transform="translate(478.121094 0)"/>
      <use xlink:href="#DejaVuSans-69" transform="translate(517.330078 0)"/>
      <use xlink:href="#DejaVuSans-6d" transform="translate(545.113281 0)"/>
      <use xlink:href="#DejaVuSans-65" transform="translate(642.525391 0)"/>
      <use xlink:href="#DejaVuSans-5d" transform="translate(704.048828 0)"/>
     </g>
    </g>
   </g>
   <g id="matplotlib.axis_2">
    <g id="ytick_1">
     <g id="line2d_8">
      <defs>
       <path id="m5c88d3949a" d="M 0 0 
L -3.5 0 
" style="stroke: #000000; stroke-width: 0.8"/>
      </defs>
      <g>
       <use xlink:href="#m5c88d3949a" x="48.982813" y="186.83502" style="stroke: #000000; stroke-width: 0.8"/>
      </g>
     </g>
     <g id="text_9">
      <!-- −20 -->
      <g transform="translate(20.878125 190.634239) scale(0.1 -0.1)">
       <defs>
        <path id="DejaVuSans-2212" d="M 678 2272 
L 4684 2272 
L 4684 1741 
L 678 1741 
L 678 2272 
z
" transform="scale(0.015625)"/>
       </defs>
       <use xlink:href="#DejaVuSans-2212"/>
       <use xlink:href="#DejaVuSans-32" transform="translate(83.789062 0)"/>
       <use xlink:href="#DejaVuSans-30" transform="translate(147.412109 0)"/>
      </g>
     </g>
    </g>
    <g id="ytick_2">
     <g id="line2d_9">
      <g>
       <use xlink:href="#m5c88d3949a" x="48.982813" y="140.058368" style="stroke: #000000; stroke-width: 0.8"/>
      </g>
     </g>
     <g id="text_10">
      <!-- −10 -->
      <g transform="translate(20.878125 143.857587) scale(0.1 -0.1)">
       <use xlink:href="#DejaVuSans-2212"/>
       <use xlink:href="#DejaVuSans-31" transform="translate(83.789062 0)"/>
       <use xlink:href="#DejaVuSans-30" transform="translate(147.412109 0)"/>
      </g>
     </g>
    </g>
    <g id="ytick_3">
     <g id="line2d_10">
      <g>
       <use xlink:href="#m5c88d3949a" x="48.982813" y="93.281716" style="stroke: #000000; stroke-width: 0.8"/>
      </g>
     </g>
     <g id="text_11">
      <!-- 0 -->
      <g transform="translate(35.620312 97.080934) scale(0.1 -0.1)">
       <use xlink:href="#DejaVuSans-30"/>
      </g>
     </g>
    </g>
    <g id="ytick_4">
     <g id="line2d_11">
      <g>
       <use xlink:href="#m5c88d3949a" x="48.982813" y="46.505063" style="stroke: #000000; stroke-width: 0.8"/>
      </g>
     </g>
     <g id="text_12">
      <!-- 10 -->
      <g transform="translate(29.257812 50.304282) scale(0.1 -0.1)">
       <use xlink:href="#DejaVuSans-31"/>
       <use xlink:href="#DejaVuSans-30" transform="translate(63.623047 0)"/>
      </g>
     </g>
    </g>
    <g id="text_13">
     <!-- [dimensionless] -->
     <g transform="translate(14.798437 157.557344) rotate(-90) scale(0.1 -0.1)">
      <defs>
       <path id="DejaVuSans-6e" d="M 3513 2113 
L 3513 0 
L 2938 0 
L 2938 2094 
Q 2938 2591 2744 2837 
Q 2550 3084 2163 3084 
Q 1697 3084 1428 2787 
Q 1159 2491 1159 1978 
L 1159 0 
L 581 0 
L 581 3500 
L 1159 3500 
L 1159 2956 
Q 1366 3272 1645 3428 
Q 1925 3584 2291 3584 
Q 2894 3584 3203 3211 
Q 3513 2838 3513 2113 
z
" transform="scale(0.015625)"/>
       <path id="DejaVuSans-73" d="M 2834 3397 
L 2834 2853 
Q 2591 2978 2328 3040 
Q 2066 3103 1784 3103 
Q 1356 3103 1142 2972 
Q 928 2841 928 2578 
Q 928 2378 1081 2264 
Q 1234 2150 1697 2047 
L 1894 2003 
Q 2506 1872 2764 1633 
Q 3022 1394 3022 966 
Q 3022 478 2636 193 
Q 2250 -91 1575 -91 
Q 1294 -91 989 -36 
Q 684 19 347 128 
L 347 722 
Q 666 556 975 473 
Q 1284 391 1588 391 
Q 1994 391 2212 530 
Q 2431 669 2431 922 
Q 2431 1156 2273 1281 
Q 2116 1406 1581 1522 
L 1381 1569 
Q 847 1681 609 1914 
Q 372 2147 372 2553 
Q 372 3047 722 3315 
Q 1072 3584 1716 3584 
Q 2034 3584 2315 3537 
Q 2597 3491 2834 3397 
z
" transform="scale(0.015625)"/>
       <path id="DejaVuSans-6c" d="M 603 4863 
L 1178 4863 
L 1178 0 
L 603 0 
L 603 4863 
z
" transform="scale(0.015625)"/>
      </defs>
      <use xlink:href="#DejaVuSans-5b"/>
      <use xlink:href="#DejaVuSans-64" transform="translate(39.013672 0)"/>
      <use xlink:href="#DejaVuSans-69" transform="translate(102.490234 0)"/>
      <use xlink:href="#DejaVuSans-6d" transform="translate(130.273438 0)"/>
      <use xlink:href="#DejaVuSans-65" transform="translate(227.685547 0)"/>
      <use xlink:href="#DejaVuSans-6e" transform="translate(289.208984 0)"/>
      <use xlink:href="#DejaVuSans-73" transform="translate(352.587891 0)"/>
      <use xlink:href="#DejaVuSans-69" transform="translate(404.6875 0)"/>
      <use xlink:href="#DejaVuSans-6f" transform="translate(432.470703 0)"/>
      <use xlink:href="#DejaVuSans-6e" transform="translate(493.652344 0)"/>
      <use xlink:href="#DejaVuSans-6c" transform="translate(557.03125 0)"/>
      <use xlink:href="#DejaVuSans-65" transform="translate(584.814453 0)"/>
      <use xlink:href="#DejaVuSans-73" transform="translate(646.337891 0)"/>
      <use xlink:href="#DejaVuSans-73" transform="translate(698.4375 0)"/>
      <use xlink:href="#DejaVuSans-5d" transform="translate(750.537109 0)"/>
     </g>
    </g>
   </g>
   <g id="line2d_12">
    <path d="M 64.200994 89.769873 
L 65.73046 86.815757 
L 67.259925 85.253824 
L 68.789391 86.20766 
L 70.318856 89.165945 
L 71.848322 78.879156 
L 73.377787 83.289685 
L 74.907253 80.535535 
L 76.436718 87.346743 
L 77.966184 89.450861 
L 79.495649 96.133907 
L 81.025115 105.53754 
L 82.55458 108.484352 
L 84.084046 110.282017 
L 85.613511 115.907299 
L 87.142977 110.457813 
L 88.672442 99.557818 
L 90.201908 98.364549 
L 91.731373 95.218845 
L 93.260839 87.194321 
L 94.790305 83.744269 
L 96.31977 82.004153 
L 97.849236 84.150878 
L 99.378701 80.598026 
L 100.908167 80.581929 
L 103.967098 75.821618 
L 105.496563 78.659294 
L 107.026029 81.197651 
L 108.555494 75.549745 
L 110.08496 73.510892 
L 111.614425 75.516696 
L 113.143891 74.358928 
L 114.673356 69.878265 
L 116.202822 70.320608 
L 117.732287 64.390405 
L 119.261753 65.85082 
L 120.791218 61.219723 
L 122.320684 58.369094 
L 123.850149 65.71695 
L 125.379615 66.538541 
L 126.90908 66.144558 
L 128.438546 71.077981 
L 129.968011 69.234551 
L 131.497477 73.450049 
L 133.026942 86.839538 
L 134.556408 91.999367 
L 136.085873 92.780347 
L 137.615339 89.860075 
L 139.144804 89.507867 
L 140.67427 91.031079 
L 142.203735 93.380233 
L 143.733201 85.418017 
L 145.262666 86.468604 
L 146.792132 86.065575 
L 148.321597 83.883715 
L 149.851063 87.832263 
L 151.380528 86.458176 
L 152.909994 83.790222 
L 154.439459 88.436831 
L 155.968925 89.37883 
L 157.49839 87.891432 
L 159.027856 101.908827 
L 160.557321 113.115238 
L 162.086787 112.105952 
L 163.616252 108.149085 
L 165.145718 101.720397 
L 166.675183 110.531265 
L 168.204649 113.868328 
L 169.734114 113.621105 
L 171.26358 115.04531 
L 172.793045 108.101457 
L 174.322511 117.428956 
L 175.851977 113.101685 
L 177.381442 119.185375 
L 178.910908 117.693949 
L 180.440373 117.272096 
L 181.969839 123.345975 
L 183.499304 126.419273 
L 185.02877 122.674834 
L 186.558235 129.382867 
L 188.087701 128.213662 
L 189.617166 128.824636 
L 191.146632 128.225523 
L 192.676097 128.488992 
L 194.205563 130.499929 
L 195.735028 130.03105 
L 197.264494 123.589955 
L 198.793959 127.311211 
L 200.323425 122.811239 
L 201.85289 126.136685 
L 203.382356 123.298601 
L 204.911821 116.773148 
L 206.441287 118.696619 
L 207.970752 122.471312 
L 209.500218 125.607642 
L 211.029683 124.252251 
L 212.559149 123.264969 
L 214.088614 125.847847 
L 215.61808 130.187018 
L 217.147545 138.949653 
L 218.677011 136.144456 
L 220.206476 132.102959 
L 221.735942 135.804948 
L 223.265407 140.204643 
L 224.794873 137.437689 
L 226.324338 135.144604 
L 227.853804 133.256637 
L 229.383269 134.316083 
L 230.912735 136.239791 
L 233.971666 121.177949 
L 235.501131 117.460139 
L 237.030597 115.579145 
L 238.560062 111.154054 
L 240.089528 111.44086 
L 241.618993 112.23713 
L 243.148459 114.285156 
L 244.677924 108.804693 
L 246.20739 109.251897 
L 247.736855 111.267752 
L 249.266321 108.864087 
L 250.795786 117.00441 
L 252.325252 112.583267 
L 253.854717 113.328166 
L 255.384183 118.886258 
L 256.913648 126.335875 
L 258.443114 129.986744 
L 259.97258 135.360108 
L 261.502045 138.784208 
L 263.031511 133.860066 
L 264.560976 136.99593 
L 266.090442 128.931063 
L 267.619907 135.035748 
L 269.149373 136.124671 
L 270.678838 134.294839 
L 272.208304 129.12461 
L 275.267235 131.429685 
L 276.7967 132.976874 
L 278.326166 140.096167 
L 279.855631 151.222062 
L 281.385097 149.002938 
L 282.914562 147.909515 
L 284.444028 151.664754 
L 285.973493 152.486161 
L 287.502959 147.665285 
L 289.032424 147.689802 
L 290.56189 147.594795 
L 292.091355 147.101428 
L 293.620821 146.152836 
L 295.150286 147.53659 
L 296.679752 146.850364 
L 298.209217 156.605011 
L 299.738683 155.095967 
L 301.268148 156.085338 
L 302.797614 157.865435 
L 304.327079 154.229607 
L 305.856545 156.861668 
L 307.38601 152.805661 
L 308.915476 149.339089 
L 310.444941 147.783198 
L 311.974407 147.768064 
L 313.503872 141.607166 
L 315.033338 142.02465 
L 316.562803 140.005875 
L 318.092269 139.587473 
L 319.621734 130.088583 
L 321.1512 125.038487 
L 322.680665 137.660343 
L 324.210131 134.882977 
L 325.739596 129.603373 
L 327.269062 122.573773 
L 328.798527 116.630781 
L 330.327993 119.542439 
L 331.857458 126.529656 
L 333.386924 120.259934 
L 334.916389 112.392576 
L 336.445855 115.799645 
L 337.97532 110.495149 
L 339.504786 111.697551 
L 341.034252 115.948928 
L 342.563717 116.091018 
L 344.093183 123.164626 
L 345.622648 122.622504 
L 347.152114 114.994981 
L 348.681579 115.534453 
L 350.211045 114.567141 
L 351.74051 109.985979 
L 353.269976 114.8302 
L 354.799441 121.731342 
L 356.328907 124.144253 
L 357.858372 122.367109 
L 359.387838 123.584014 
L 360.917303 123.577361 
L 362.446769 122.390334 
L 363.976234 124.278815 
L 365.5057 127.002694 
L 367.035165 132.769796 
L 368.564631 130.409419 
L 368.564631 130.409419 
" clip-path="url(#p391754e394)" style="fill: none; stroke: #1f77b4; stroke-width: 1.5; stroke-linecap: square"/>
   </g>
   <g id="line2d_13">
    <path d="M 64.200994 97.884317 
L 65.73046 96.609663 
L 67.259925 99.409043 
L 68.789391 100.02392 
L 70.318856 108.43493 
L 71.848322 114.845545 
L 73.377787 113.908081 
L 74.907253 112.451252 
L 76.436718 105.667874 
L 77.966184 96.631454 
L 79.495649 105.430362 
L 81.025115 108.547 
L 82.55458 106.870687 
L 84.084046 103.159376 
L 85.613511 108.897055 
L 87.142977 107.775732 
L 88.672442 104.902471 
L 90.201908 104.441999 
L 91.731373 111.249658 
L 93.260839 112.444298 
L 94.790305 115.441145 
L 96.31977 116.089862 
L 97.849236 111.933157 
L 99.378701 117.121552 
L 100.908167 114.19067 
L 102.437632 110.720918 
L 103.967098 107.820784 
L 105.496563 112.481269 
L 107.026029 115.901054 
L 108.555494 114.165868 
L 110.08496 111.897365 
L 111.614425 112.909444 
L 113.143891 117.0733 
L 114.673356 126.080693 
L 116.202822 133.120719 
L 117.732287 128.557621 
L 120.791218 121.297177 
L 122.320684 122.453159 
L 123.850149 118.869441 
L 125.379615 114.563863 
L 126.90908 112.270159 
L 128.438546 113.087804 
L 129.968011 120.777244 
L 131.497477 111.647832 
L 133.026942 108.652288 
L 134.556408 110.059118 
L 136.085873 116.216962 
L 137.615339 119.32315 
L 139.144804 122.777774 
L 140.67427 125.090475 
L 142.203735 131.140153 
L 143.733201 127.868725 
L 145.262666 126.605947 
L 146.792132 123.494308 
L 148.321597 127.447444 
L 149.851063 127.571762 
L 151.380528 129.637658 
L 152.909994 120.455966 
L 154.439459 123.551287 
L 155.968925 123.764506 
L 157.49839 125.749191 
L 159.027856 137.324974 
L 160.557321 133.43857 
L 162.086787 134.587445 
L 163.616252 134.51605 
L 165.145718 134.053932 
L 166.675183 139.419842 
L 168.204649 141.393356 
L 169.734114 140.957092 
L 171.26358 140.323714 
L 172.793045 133.146091 
L 174.322511 127.883268 
L 175.851977 127.365824 
L 177.381442 134.617624 
L 178.910908 136.712228 
L 180.440373 136.232057 
L 181.969839 139.857484 
L 183.499304 147.970084 
L 185.02877 147.007149 
L 186.558235 147.090883 
L 189.617166 142.820528 
L 191.146632 144.675317 
L 192.676097 148.669063 
L 194.205563 149.706876 
L 195.735028 146.810011 
L 197.264494 151.414881 
L 198.793959 150.51406 
L 200.323425 145.95687 
L 201.85289 149.64172 
L 203.382356 142.598602 
L 204.911821 147.540301 
L 206.441287 138.529991 
L 207.970752 135.737502 
L 209.500218 138.466746 
L 211.029683 140.505497 
L 212.559149 143.978668 
L 214.088614 143.322211 
L 215.61808 142.847467 
L 217.147545 142.73035 
L 218.677011 143.676454 
L 220.206476 141.191629 
L 221.735942 140.613069 
L 223.265407 141.772175 
L 224.794873 138.965241 
L 226.324338 139.665479 
L 227.853804 144.160919 
L 229.383269 146.064088 
L 230.912735 142.262334 
L 232.4422 138.841006 
L 233.971666 131.875967 
L 235.501131 130.884728 
L 238.560062 142.472201 
L 240.089528 143.931514 
L 241.618993 148.29574 
L 243.148459 143.676401 
L 244.677924 143.442525 
L 246.20739 149.365952 
L 247.736855 142.908168 
L 249.266321 147.185468 
L 250.795786 143.250354 
L 252.325252 145.533833 
L 253.854717 141.012887 
L 255.384183 147.870841 
L 256.913648 148.09811 
L 258.443114 150.410666 
L 259.97258 149.047429 
L 261.502045 154.463419 
L 263.031511 157.184017 
L 264.560976 149.640415 
L 266.090442 149.237371 
L 267.619907 144.179181 
L 269.149373 146.827952 
L 270.678838 148.623312 
L 272.208304 157.535357 
L 273.737769 154.753474 
L 275.267235 149.811252 
L 276.7967 149.124911 
L 278.326166 147.414216 
L 279.855631 149.295913 
L 281.385097 149.000479 
L 282.914562 147.378198 
L 284.444028 144.304569 
L 285.973493 143.417621 
L 287.502959 147.340045 
L 289.032424 150.121358 
L 290.56189 152.194707 
L 292.091355 150.959301 
L 293.620821 151.319065 
L 295.150286 159.753878 
L 296.679752 167.466338 
L 298.209217 171.21869 
L 299.738683 163.166721 
L 301.268148 170.457182 
L 304.327079 171.693849 
L 305.856545 182.22349 
L 307.38601 181.448392 
L 308.915476 180.43556 
L 310.444941 190.67032 
L 311.974407 195.31494 
L 313.503872 193.940028 
L 315.033338 189.704002 
L 316.562803 194.170724 
L 318.092269 188.069088 
L 319.621734 190.851709 
L 321.1512 197.29386 
L 322.680665 199.206541 
L 324.210131 195.626001 
L 325.739596 187.653898 
L 327.269062 190.349166 
L 330.327993 182.730028 
L 331.857458 185.640019 
L 333.386924 187.178657 
L 336.445855 192.025625 
L 337.97532 191.26977 
L 339.504786 187.083603 
L 341.034252 182.250915 
L 342.563717 191.950925 
L 344.093183 205.250881 
L 345.622648 207.083868 
L 347.152114 204.343895 
L 348.681579 205.806412 
L 350.211045 208.038414 
L 351.74051 208.135821 
L 353.269976 209.791365 
L 354.799441 218.834169 
L 356.328907 218.447456 
L 357.858372 216.898253 
L 359.387838 215.772971 
L 360.917303 222.657603 
L 362.446769 217.029602 
L 363.976234 221.917143 
L 365.5057 219.508699 
L 367.035165 219.171333 
L 368.564631 214.663812 
L 368.564631 214.663812 
" clip-path="url(#p391754e394)" style="fill: none; stroke: #ff7f0e; stroke-width: 1.5; stroke-linecap: square"/>
   </g>
   <g id="line2d_14">
    <path d="M 64.200994 97.467684 
L 65.73046 102.410748 
L 67.259925 102.756115 
L 68.789391 98.710435 
L 70.318856 97.704565 
L 71.848322 99.644338 
L 73.377787 96.316594 
L 74.907253 97.916481 
L 76.436718 100.99212 
L 77.966184 92.904946 
L 79.495649 94.195251 
L 81.025115 98.990744 
L 82.55458 91.576786 
L 84.084046 87.172934 
L 85.613511 78.490847 
L 87.142977 71.688515 
L 88.672442 67.56639 
L 90.201908 68.031297 
L 91.731373 64.535019 
L 93.260839 60.283541 
L 94.790305 63.933772 
L 96.31977 60.994048 
L 97.849236 65.684869 
L 99.378701 68.603592 
L 100.908167 72.006701 
L 102.437632 79.441654 
L 103.967098 77.494198 
L 105.496563 71.657754 
L 107.026029 76.490675 
L 108.555494 71.480463 
L 110.08496 83.973652 
L 111.614425 90.104798 
L 113.143891 90.794194 
L 114.673356 89.473235 
L 116.202822 93.939863 
L 117.732287 90.405731 
L 119.261753 96.195535 
L 120.791218 100.73292 
L 122.320684 104.552271 
L 123.850149 107.582187 
L 125.379615 100.184038 
L 126.90908 96.277786 
L 129.968011 109.089048 
L 131.497477 113.04286 
L 133.026942 112.476969 
L 134.556408 110.8855 
L 136.085873 118.142784 
L 137.615339 124.221914 
L 139.144804 121.44644 
L 140.67427 116.568204 
L 142.203735 119.555145 
L 143.733201 116.041396 
L 145.262666 115.869192 
L 146.792132 113.755832 
L 148.321597 110.473648 
L 149.851063 111.310549 
L 151.380528 102.079079 
L 152.909994 105.810307 
L 154.439459 102.00698 
L 155.968925 96.292905 
L 157.49839 100.625185 
L 159.027856 103.773081 
L 160.557321 98.574054 
L 162.086787 87.221784 
L 163.616252 87.539666 
L 165.145718 84.775643 
L 166.675183 89.0367 
L 168.204649 89.43229 
L 169.734114 97.302477 
L 171.26358 101.076602 
L 172.793045 98.023941 
L 174.322511 98.988361 
L 175.851977 96.423716 
L 177.381442 91.311445 
L 178.910908 92.908595 
L 180.440373 95.448493 
L 181.969839 102.136444 
L 183.499304 100.815247 
L 185.02877 90.291146 
L 186.558235 98.46075 
L 188.087701 101.844001 
L 189.617166 98.866838 
L 191.146632 94.38595 
L 192.676097 95.013696 
L 194.205563 85.389184 
L 195.735028 84.069542 
L 197.264494 84.731543 
L 198.793959 82.98825 
L 200.323425 86.214127 
L 201.85289 87.963051 
L 203.382356 80.973128 
L 204.911821 85.443863 
L 206.441287 86.276102 
L 207.970752 82.157175 
L 209.500218 79.559235 
L 212.559149 70.015106 
L 214.088614 75.410817 
L 215.61808 78.96975 
L 217.147545 74.697727 
L 218.677011 78.667871 
L 220.206476 73.979376 
L 221.735942 83.922184 
L 223.265407 84.794765 
L 224.794873 87.241195 
L 226.324338 79.886376 
L 227.853804 79.403834 
L 229.383269 78.403675 
L 230.912735 86.827966 
L 232.4422 85.690643 
L 233.971666 86.878458 
L 235.501131 90.203296 
L 237.030597 88.052674 
L 238.560062 81.413975 
L 240.089528 78.570413 
L 241.618993 73.71031 
L 243.148459 80.576123 
L 244.677924 71.307176 
L 246.20739 60.571227 
L 247.736855 52.370243 
L 249.266321 51.56567 
L 250.795786 58.08674 
L 252.325252 56.337893 
L 253.854717 56.692142 
L 255.384183 44.526006 
L 258.443114 33.277029 
L 259.97258 38.003928 
L 261.502045 37.292563 
L 263.031511 37.368123 
L 264.560976 33.715286 
L 266.090442 27.406375 
L 267.619907 28.607856 
L 269.149373 34.877186 
L 272.208304 39.140877 
L 273.737769 40.123358 
L 275.267235 43.963066 
L 276.7967 43.373245 
L 278.326166 41.500401 
L 279.855631 39.05439 
L 281.385097 42.353677 
L 282.914562 42.880112 
L 284.444028 38.193082 
L 285.973493 34.841907 
L 287.502959 34.715751 
L 289.032424 42.276048 
L 290.56189 40.998477 
L 292.091355 42.52554 
L 293.620821 45.788263 
L 295.150286 54.540687 
L 296.679752 56.595045 
L 298.209217 55.490652 
L 299.738683 55.16733 
L 301.268148 52.333856 
L 302.797614 52.465869 
L 304.327079 50.858254 
L 305.856545 50.501616 
L 307.38601 46.935622 
L 308.915476 47.627648 
L 310.444941 51.564585 
L 311.974407 48.556556 
L 313.503872 48.986911 
L 315.033338 48.082392 
L 316.562803 48.854133 
L 318.092269 51.458287 
L 319.621734 48.885091 
L 321.1512 48.78715 
L 322.680665 48.47069 
L 324.210131 46.616198 
L 325.739596 55.489501 
L 327.269062 59.729771 
L 328.798527 53.173661 
L 330.327993 39.78354 
L 331.857458 38.280473 
L 333.386924 47.322195 
L 334.916389 40.084572 
L 336.445855 40.099682 
L 337.97532 27.389706 
L 339.504786 30.904987 
L 341.034252 32.569037 
L 342.563717 24.65406 
L 344.093183 22.37899 
L 345.622648 18.881184 
L 347.152114 23.451613 
L 348.681579 18.067491 
L 350.211045 22.983142 
L 351.74051 17.002366 
L 353.269976 16.780184 
L 354.799441 22.965757 
L 356.328907 20.45931 
L 357.858372 12.772472 
L 359.387838 17.043938 
L 360.917303 25.034376 
L 362.446769 24.00155 
L 363.976234 36.519822 
L 365.5057 40.457889 
L 367.035165 34.99094 
L 368.564631 42.941415 
L 368.564631 42.941415 
" clip-path="url(#p391754e394)" style="fill: none; stroke: #2ca02c; stroke-width: 1.5; stroke-linecap: square"/>
   </g>
   <g id="line2d_15">
    <path d="M 64.200994 98.147886 
L 65.73046 98.189499 
L 67.259925 97.697947 
L 68.789391 99.151319 
L 70.318856 100.29346 
L 71.848322 89.890218 
L 73.377787 91.351901 
L 74.907253 90.940721 
L 76.436718 88.209818 
L 77.966184 78.904958 
L 79.495649 80.161706 
L 81.025115 78.399786 
L 82.55458 78.479699 
L 84.084046 82.826808 
L 85.613511 88.338728 
L 87.142977 88.276335 
L 88.672442 93.23467 
L 90.201908 99.879855 
L 91.731373 101.315 
L 93.260839 98.202487 
L 94.790305 100.346724 
L 96.31977 102.770794 
L 97.849236 102.208371 
L 99.378701 99.172085 
L 100.908167 97.01864 
L 102.437632 101.065255 
L 103.967098 98.40974 
L 105.496563 99.183595 
L 107.026029 95.330266 
L 108.555494 91.116676 
L 110.08496 91.232461 
L 111.614425 94.028388 
L 113.143891 91.68696 
L 114.673356 97.979717 
L 116.202822 107.197121 
L 117.732287 106.282053 
L 119.261753 104.762203 
L 120.791218 105.135899 
L 122.320684 103.891541 
L 123.850149 105.766341 
L 125.379615 107.426013 
L 126.90908 115.630401 
L 128.438546 110.535967 
L 129.968011 109.711341 
L 131.497477 100.835626 
L 133.026942 101.693565 
L 134.556408 105.190052 
L 136.085873 101.38828 
L 137.615339 99.537826 
L 139.144804 104.427823 
L 140.67427 107.161494 
L 142.203735 101.957684 
L 143.733201 95.378238 
L 145.262666 93.002638 
L 146.792132 88.486659 
L 148.321597 88.121261 
L 149.851063 91.7992 
L 151.380528 93.260637 
L 154.439459 81.9584 
L 155.968925 83.623003 
L 157.49839 82.261639 
L 159.027856 85.321192 
L 160.557321 85.578248 
L 162.086787 75.97743 
L 163.616252 77.303028 
L 165.145718 72.191757 
L 166.675183 69.918921 
L 168.204649 76.750757 
L 169.734114 77.123394 
L 171.26358 74.483748 
L 172.793045 68.984112 
L 174.322511 69.355062 
L 175.851977 76.702261 
L 177.381442 79.503268 
L 178.910908 77.511619 
L 180.440373 78.509704 
L 181.969839 75.585975 
L 185.02877 79.995307 
L 186.558235 74.905509 
L 188.087701 73.056873 
L 189.617166 69.670448 
L 191.146632 68.883026 
L 192.676097 69.313452 
L 194.205563 66.928558 
L 195.735028 68.621438 
L 197.264494 60.969824 
L 198.793959 63.172873 
L 200.323425 64.104601 
L 201.85289 66.441692 
L 203.382356 64.208176 
L 204.911821 66.259284 
L 206.441287 63.32495 
L 207.970752 54.857946 
L 209.500218 61.91605 
L 211.029683 68.338991 
L 212.559149 65.514557 
L 214.088614 67.457798 
L 215.61808 70.12783 
L 217.147545 79.044638 
L 218.677011 81.763382 
L 220.206476 88.801443 
L 221.735942 85.674708 
L 223.265407 97.801289 
L 224.794873 100.732713 
L 226.324338 105.206661 
L 227.853804 105.019318 
L 230.912735 93.229656 
L 232.4422 89.867281 
L 233.971666 93.609751 
L 235.501131 87.813024 
L 237.030597 83.893415 
L 240.089528 79.450383 
L 241.618993 76.381591 
L 243.148459 81.236849 
L 244.677924 79.805408 
L 246.20739 87.106487 
L 247.736855 92.998727 
L 249.266321 95.435098 
L 250.795786 97.019459 
L 252.325252 103.01298 
L 253.854717 106.009086 
L 255.384183 111.940976 
L 256.913648 109.42246 
L 258.443114 106.019697 
L 259.97258 101.122079 
L 261.502045 106.606296 
L 263.031511 109.647011 
L 264.560976 114.376673 
L 266.090442 112.274739 
L 267.619907 113.730416 
L 269.149373 112.72125 
L 270.678838 109.997396 
L 272.208304 113.743088 
L 273.737769 114.363251 
L 275.267235 113.181717 
L 276.7967 112.884274 
L 278.326166 114.171798 
L 279.855631 117.769616 
L 281.385097 116.822867 
L 282.914562 111.181336 
L 284.444028 109.251278 
L 285.973493 108.245651 
L 287.502959 113.95398 
L 289.032424 101.752406 
L 290.56189 98.800222 
L 292.091355 107.200502 
L 293.620821 101.571811 
L 295.150286 109.87592 
L 296.679752 115.515695 
L 298.209217 114.282063 
L 299.738683 118.754167 
L 301.268148 121.134929 
L 302.797614 124.950131 
L 304.327079 130.612855 
L 305.856545 134.075135 
L 307.38601 128.257001 
L 308.915476 134.049058 
L 310.444941 132.679142 
L 311.974407 138.171617 
L 313.503872 141.032005 
L 315.033338 136.495992 
L 316.562803 136.358228 
L 318.092269 143.256967 
L 319.621734 141.772657 
L 321.1512 138.721523 
L 322.680665 130.646712 
L 324.210131 135.468686 
L 325.739596 131.805859 
L 327.269062 132.043037 
L 328.798527 137.297619 
L 330.327993 138.745105 
L 331.857458 136.69003 
L 333.386924 137.083462 
L 334.916389 142.258841 
L 336.445855 142.074969 
L 337.97532 137.528962 
L 339.504786 128.098637 
L 341.034252 124.736919 
L 342.563717 122.643695 
L 345.622648 105.131809 
L 347.152114 103.364092 
L 348.681579 115.520727 
L 350.211045 112.090817 
L 351.74051 113.644939 
L 353.269976 112.113489 
L 354.799441 115.307511 
L 356.328907 119.317104 
L 357.858372 117.749977 
L 359.387838 118.384976 
L 360.917303 127.875264 
L 362.446769 129.254079 
L 363.976234 133.31146 
L 365.5057 130.318561 
L 367.035165 132.414707 
L 368.564631 138.861879 
L 368.564631 138.861879 
" clip-path="url(#p391754e394)" style="fill: none; stroke: #d62728; stroke-width: 1.5; stroke-linecap: square"/>
   </g>
   <g id="patch_3">
    <path d="M 48.982813 228.96 
L 48.982813 7.2 
" style="fill: none; stroke: #000000; stroke-width: 0.8; stroke-linejoin: miter; stroke-linecap: square"/>
   </g>
   <g id="patch_4">
    <path d="M 383.782813 228.96 
L 383.782813 7.2 
" style="fill: none; stroke: #000000; stroke-width: 0.8; stroke-linejoin: miter; stroke-linecap: square"/>
   </g>
   <g id="patch_5">
    <path d="M 48.982812 228.96 
L 383.782812 228.96 
" style="fill: none; stroke: #000000; stroke-width: 0.8; stroke-linejoin: miter; stroke-linecap: square"/>
   </g>
   <g id="patch_6">
    <path d="M 48.982812 7.2 
L 383.782812 7.2 
" style="fill: none; stroke: #000000; stroke-width: 0.8; stroke-linejoin: miter; stroke-linecap: square"/>
   </g>
   <g id="legend_1">
    <g id="patch_7">
     <path d="M 55.982813 223.96 
L 95.682813 223.96 
Q 97.682813 223.96 97.682813 221.96 
L 97.682813 164.2475 
Q 97.682813 162.2475 95.682813 162.2475 
L 55.982813 162.2475 
Q 53.982813 162.2475 53.982813 164.2475 
L 53.982813 221.96 
Q 53.982813 223.96 55.982813 223.96 
z
" style="fill: #ffffff; opacity: 0.8; stroke: #cccccc; stroke-linejoin: miter"/>
    </g>
    <g id="line2d_16">
     <path d="M 57.982813 170.345937 
L 67.982812 170.345937 
L 77.982812 170.345937 
" style="fill: none; stroke: #1f77b4; stroke-width: 1.5; stroke-linecap: square"/>
    </g>
    <g id="text_14">
     <!-- A -->
     <g transform="translate(85.982812 173.845937) scale(0.1 -0.1)">
      <defs>
       <path id="DejaVuSans-41" d="M 2188 4044 
L 1331 1722 
L 3047 1722 
L 2188 4044 
z
M 1831 4666 
L 2547 4666 
L 4325 0 
L 3669 0 
L 3244 1197 
L 1141 1197 
L 716 0 
L 50 0 
L 1831 4666 
z
" transform="scale(0.015625)"/>
      </defs>
      <use xlink:href="#DejaVuSans-41"/>
     </g>
    </g>
    <g id="line2d_17">
     <path d="M 57.982813 185.024062 
L 67.982812 185.024062 
L 77.982812 185.024062 
" style="fill: none; stroke: #ff7f0e; stroke-width: 1.5; stroke-linecap: square"/>
    </g>
    <g id="text_15">
     <!-- B -->
     <g transform="translate(85.982812 188.524062) scale(0.1 -0.1)">
      <defs>
       <path id="DejaVuSans-42" d="M 1259 2228 
L 1259 519 
L 2272 519 
Q 2781 519 3026 730 
Q 3272 941 3272 1375 
Q 3272 1813 3026 2020 
Q 2781 2228 2272 2228 
L 1259 2228 
z
M 1259 4147 
L 1259 2741 
L 2194 2741 
Q 2656 2741 2882 2914 
Q 3109 3088 3109 3444 
Q 3109 3797 2882 3972 
Q 2656 4147 2194 4147 
L 1259 4147 
z
M 628 4666 
L 2241 4666 
Q 2963 4666 3353 4366 
Q 3744 4066 3744 3513 
Q 3744 3084 3544 2831 
Q 3344 2578 2956 2516 
Q 3422 2416 3680 2098 
Q 3938 1781 3938 1306 
Q 3938 681 3513 340 
Q 3088 0 2303 0 
L 628 0 
L 628 4666 
z
" transform="scale(0.015625)"/>
      </defs>
      <use xlink:href="#DejaVuSans-42"/>
     </g>
    </g>
    <g id="line2d_18">
     <path d="M 57.982813 199.702187 
L 67.982812 199.702187 
L 77.982812 199.702187 
" style="fill: none; stroke: #2ca02c; stroke-width: 1.5; stroke-linecap: square"/>
    </g>
    <g id="text_16">
     <!-- C -->
     <g transform="translate(85.982812 203.202187) scale(0.1 -0.1)">
      <defs>
       <path id="DejaVuSans-43" d="M 4122 4306 
L 4122 3641 
Q 3803 3938 3442 4084 
Q 3081 4231 2675 4231 
Q 1875 4231 1450 3742 
Q 1025 3253 1025 2328 
Q 1025 1406 1450 917 
Q 1875 428 2675 428 
Q 3081 428 3442 575 
Q 3803 722 4122 1019 
L 4122 359 
Q 3791 134 3420 21 
Q 3050 -91 2638 -91 
Q 1578 -91 968 557 
Q 359 1206 359 2328 
Q 359 3453 968 4101 
Q 1578 4750 2638 4750 
Q 3056 4750 3426 4639 
Q 3797 4528 4122 4306 
z
" transform="scale(0.015625)"/>
      </defs>
      <use xlink:href="#DejaVuSans-43"/>
     </g>
    </g>
    <g id="line2d_19">
     <path d="M 57.982813 214.380312 
L 67.982812 214.380312 
L 77.982812 214.380312 
" style="fill: none; stroke: #d62728; stroke-width: 1.5; stroke-linecap: square"/>
    </g>
    <g id="text_17">
     <!-- D -->
     <g transform="translate(85.982812 217.880312) scale(0.1 -0.1)">
      <defs>
       <path id="DejaVuSans-44" d="M 1259 4147 
L 1259 519 
L 2022 519 
Q 2988 519 3436 956 
Q 3884 1394 3884 2338 
Q 3884 3275 3436 3711 
Q 2988 4147 2022 4147 
L 1259 4147 
z
M 628 4666 
L 1925 4666 
Q 3281 4666 3915 4102 
Q 4550 3538 4550 2338 
Q 4550 1131 3912 565 
Q 3275 0 1925 0 
L 628 0 
L 628 4666 
z
" transform="scale(0.015625)"/>
      </defs>
      <use xlink:href="#DejaVuSans-44"/>
     </g>
    </g>
   </g>
  </g>
 </g>
 <defs>
  <clipPath id="p391754e394">
   <rect x="48.982813" y="7.2" width="334.8" height="221.76"/>
  </clipPath>
 </defs>
</svg>
