<?xml version="1.0" encoding="utf-8" standalone="no"?>
<!DOCTYPE svg PUBLIC "-//W3C//DTD SVG 1.1//EN"
  "http://www.w3.org/Graphics/SVG/1.1/DTD/svg11.dtd">
<svg xmlns:xlink="http://www.w3.org/1999/xlink" width="390.982812pt" height="266.51625pt" viewBox="0 0 390.982812 266.51625" xmlns="http://www.w3.org/2000/svg" version="1.1">
 <metadata>
  <rdf:RDF xmlns:dc="http://purl.org/dc/elements/1.1/" xmlns:cc="http://creativecommons.org/ns#" xmlns:rdf="http://www.w3.org/1999/02/22-rdf-syntax-ns#">
   <cc:Work>
    <dc:type rdf:resource="http://purl.org/dc/dcmitype/StillImage"/>
    <dc:date>2025-04-16T14:27:45.419256</dc:date>
    <dc:format>image/svg+xml</dc:format>
    <dc:creator>
     <cc:Agent>
      <dc:title>Matplotlib v3.10.0, https://matplotlib.org/</dc:title>
     </cc:Agent>
    </dc:creator>
   </cc:Work>
  </rdf:RDF>
 </metadata>
 <defs>
  <style type="text/css">*{stroke-linejoin: round; stroke-linecap: butt}</style>
 </defs>
 <g id="figure_1">
  <g id="patch_1">
   <path d="M 0 266.51625 
L 390.982812 266.51625 
L 390.982812 0 
L 0 0 
z
" style="fill: #ffffff"/>
  </g>
  <g id="axes_1">
   <g id="patch_2">
    <path d="M 48.982813 228.96 
L 383.782813 228.96 
L 383.782813 7.2 
L 48.982813 7.2 
z
" style="fill: #ffffff"/>
   </g>
   <g id="matplotlib.axis_1">
    <g id="xtick_1">
     <g id="line2d_1">
      <defs>
       <path id="m7410549a6b" d="M 0 0 
L 0 3.5 
" style="stroke: #000000; stroke-width: 0.8"/>
      </defs>
      <g>
       <use xlink:href="#m7410549a6b" x="64.200994" y="228.96" style="stroke: #000000; stroke-width: 0.8"/>
      </g>
     </g>
     <g id="text_1">
      <!-- 2000-01 -->
      <g transform="translate(43.309588 243.558437) scale(0.1 -0.1)">
       <defs>
        <path id="DejaVuSans-32" d="M 1228 531 
L 3431 531 
L 3431 0 
L 469 0 
L 469 531 
Q 828 903 1448 1529 
Q 2069 2156 2228 2338 
Q 2531 2678 2651 2914 
Q 2772 3150 2772 3378 
Q 2772 3750 2511 3984 
Q 2250 4219 1831 4219 
Q 1534 4219 1204 4116 
Q 875 4013 500 3803 
L 500 4441 
Q 881 4594 1212 4672 
Q 1544 4750 1819 4750 
Q 2544 4750 2975 4387 
Q 3406 4025 3406 3419 
Q 3406 3131 3298 2873 
Q 3191 2616 2906 2266 
Q 2828 2175 2409 1742 
Q 1991 1309 1228 531 
z
" transform="scale(0.015625)"/>
        <path id="DejaVuSans-30" d="M 2034 4250 
Q 1547 4250 1301 3770 
Q 1056 3291 1056 2328 
Q 1056 1369 1301 889 
Q 1547 409 2034 409 
Q 2525 409 2770 889 
Q 3016 1369 3016 2328 
Q 3016 3291 2770 3770 
Q 2525 4250 2034 4250 
z
M 2034 4750 
Q 2819 4750 3233 4129 
Q 3647 3509 3647 2328 
Q 3647 1150 3233 529 
Q 2819 -91 2034 -91 
Q 1250 -91 836 529 
Q 422 1150 422 2328 
Q 422 3509 836 4129 
Q 1250 4750 2034 4750 
z
" transform="scale(0.015625)"/>
        <path id="DejaVuSans-2d" d="M 313 2009 
L 1997 2009 
L 1997 1497 
L 313 1497 
L 313 2009 
z
" transform="scale(0.015625)"/>
        <path id="DejaVuSans-31" d="M 794 531 
L 1825 531 
L 1825 4091 
L 703 3866 
L 703 4441 
L 1819 4666 
L 2450 4666 
L 2450 531 
L 3481 531 
L 3481 0 
L 794 0 
L 794 531 
z
" transform="scale(0.015625)"/>
       </defs>
       <use xlink:href="#DejaVuSans-32"/>
       <use xlink:href="#DejaVuSans-30" transform="translate(63.623047 0)"/>
       <use xlink:href="#DejaVuSans-30" transform="translate(127.246094 0)"/>
       <use xlink:href="#DejaVuSans-30" transform="translate(190.869141 0)"/>
       <use xlink:href="#DejaVuSans-2d" transform="translate(254.492188 0)"/>
       <use xlink:href="#DejaVuSans-30" transform="translate(290.576172 0)"/>
       <use xlink:href="#DejaVuSans-31" transform="translate(354.199219 0)"/>
      </g>
     </g>
    </g>
    <g id="xtick_2">
     <g id="line2d_2">
      <g>
       <use xlink:href="#m7410549a6b" x="111.614425" y="228.96" style="stroke: #000000; stroke-width: 0.8"/>
      </g>
     </g>
     <g id="text_2">
      <!-- 2000-02 -->
      <g transform="translate(90.723019 243.558437) scale(0.1 -0.1)">
       <use xlink:href="#DejaVuSans-32"/>
       <use xlink:href="#DejaVuSans-30" transform="translate(63.623047 0)"/>
       <use xlink:href="#DejaVuSans-30" transform="translate(127.246094 0)"/>
       <use xlink:href="#DejaVuSans-30" transform="translate(190.869141 0)"/>
       <use xlink:href="#DejaVuSans-2d" transform="translate(254.492188 0)"/>
       <use xlink:href="#DejaVuSans-30" transform="translate(290.576172 0)"/>
       <use xlink:href="#DejaVuSans-32" transform="translate(354.199219 0)"/>
      </g>
     </g>
    </g>
    <g id="xtick_3">
     <g id="line2d_3">
      <g>
       <use xlink:href="#m7410549a6b" x="155.968925" y="228.96" style="stroke: #000000; stroke-width: 0.8"/>
      </g>
     </g>
     <g id="text_3">
      <!-- 2000-03 -->
      <g transform="translate(135.077519 243.558437) scale(0.1 -0.1)">
       <defs>
        <path id="DejaVuSans-33" d="M 2597 2516 
Q 3050 2419 3304 2112 
Q 3559 1806 3559 1356 
Q 3559 666 3084 287 
Q 2609 -91 1734 -91 
Q 1441 -91 1130 -33 
Q 819 25 488 141 
L 488 750 
Q 750 597 1062 519 
Q 1375 441 1716 441 
Q 2309 441 2620 675 
Q 2931 909 2931 1356 
Q 2931 1769 2642 2001 
Q 2353 2234 1838 2234 
L 1294 2234 
L 1294 2753 
L 1863 2753 
Q 2328 2753 2575 2939 
Q 2822 3125 2822 3475 
Q 2822 3834 2567 4026 
Q 2313 4219 1838 4219 
Q 1578 4219 1281 4162 
Q 984 4106 628 3988 
L 628 4550 
Q 988 4650 1302 4700 
Q 1616 4750 1894 4750 
Q 2613 4750 3031 4423 
Q 3450 4097 3450 3541 
Q 3450 3153 3228 2886 
Q 3006 2619 2597 2516 
z
" transform="scale(0.015625)"/>
       </defs>
       <use xlink:href="#DejaVuSans-32"/>
       <use xlink:href="#DejaVuSans-30" transform="translate(63.623047 0)"/>
       <use xlink:href="#DejaVuSans-30" transform="translate(127.246094 0)"/>
       <use xlink:href="#DejaVuSans-30" transform="translate(190.869141 0)"/>
       <use xlink:href="#DejaVuSans-2d" transform="translate(254.492188 0)"/>
       <use xlink:href="#DejaVuSans-30" transform="translate(290.576172 0)"/>
       <use xlink:href="#DejaVuSans-33" transform="translate(354.199219 0)"/>
      </g>
     </g>
    </g>
    <g id="xtick_4">
     <g id="line2d_4">
      <g>
       <use xlink:href="#m7410549a6b" x="203.382356" y="228.96" style="stroke: #000000; stroke-width: 0.8"/>
      </g>
     </g>
     <g id="text_4">
      <!-- 2000-04 -->
      <g transform="translate(182.490949 243.558437) scale(0.1 -0.1)">
       <defs>
        <path id="DejaVuSans-34" d="M 2419 4116 
L 825 1625 
L 2419 1625 
L 2419 4116 
z
M 2253 4666 
L 3047 4666 
L 3047 1625 
L 3713 1625 
L 3713 1100 
L 3047 1100 
L 3047 0 
L 2419 0 
L 2419 1100 
L 313 1100 
L 313 1709 
L 2253 4666 
z
" transform="scale(0.015625)"/>
       </defs>
       <use xlink:href="#DejaVuSans-32"/>
       <use xlink:href="#DejaVuSans-30" transform="translate(63.623047 0)"/>
       <use xlink:href="#DejaVuSans-30" transform="translate(127.246094 0)"/>
       <use xlink:href="#DejaVuSans-30" transform="translate(190.869141 0)"/>
       <use xlink:href="#DejaVuSans-2d" transform="translate(254.492188 0)"/>
       <use xlink:href="#DejaVuSans-30" transform="translate(290.576172 0)"/>
       <use xlink:href="#DejaVuSans-34" transform="translate(354.199219 0)"/>
      </g>
     </g>
    </g>
    <g id="xtick_5">
     <g id="line2d_5">
      <g>
       <use xlink:href="#m7410549a6b" x="249.266321" y="228.96" style="stroke: #000000; stroke-width: 0.8"/>
      </g>
     </g>
     <g id="text_5">
      <!-- 2000-05 -->
      <g transform="translate(228.374915 243.558437) scale(0.1 -0.1)">
       <defs>
        <path id="DejaVuSans-35" d="M 691 4666 
L 3169 4666 
L 3169 4134 
L 1269 4134 
L 1269 2991 
Q 1406 3038 1543 3061 
Q 1681 3084 1819 3084 
Q 2600 3084 3056 2656 
Q 3513 2228 3513 1497 
Q 3513 744 3044 326 
Q 2575 -91 1722 -91 
Q 1428 -91 1123 -41 
Q 819 9 494 109 
L 494 744 
Q 775 591 1075 516 
Q 1375 441 1709 441 
Q 2250 441 2565 725 
Q 2881 1009 2881 1497 
Q 2881 1984 2565 2268 
Q 2250 2553 1709 2553 
Q 1456 2553 1204 2497 
Q 953 2441 691 2322 
L 691 4666 
z
" transform="scale(0.015625)"/>
       </defs>
       <use xlink:href="#DejaVuSans-32"/>
       <use xlink:href="#DejaVuSans-30" transform="translate(63.623047 0)"/>
       <use xlink:href="#DejaVuSans-30" transform="translate(127.246094 0)"/>
       <use xlink:href="#DejaVuSans-30" transform="translate(190.869141 0)"/>
       <use xlink:href="#DejaVuSans-2d" transform="translate(254.492188 0)"/>
       <use xlink:href="#DejaVuSans-30" transform="translate(290.576172 0)"/>
       <use xlink:href="#DejaVuSans-35" transform="translate(354.199219 0)"/>
      </g>
     </g>
    </g>
    <g id="xtick_6">
     <g id="line2d_6">
      <g>
       <use xlink:href="#m7410549a6b" x="296.679752" y="228.96" style="stroke: #000000; stroke-width: 0.8"/>
      </g>
     </g>
     <g id="text_6">
      <!-- 2000-06 -->
      <g transform="translate(275.788345 243.558437) scale(0.1 -0.1)">
       <defs>
        <path id="DejaVuSans-36" d="M 2113 2584 
Q 1688 2584 1439 2293 
Q 1191 2003 1191 1497 
Q 1191 994 1439 701 
Q 1688 409 2113 409 
Q 2538 409 2786 701 
Q 3034 994 3034 1497 
Q 3034 2003 2786 2293 
Q 2538 2584 2113 2584 
z
M 3366 4563 
L 3366 3988 
Q 3128 4100 2886 4159 
Q 2644 4219 2406 4219 
Q 1781 4219 1451 3797 
Q 1122 3375 1075 2522 
Q 1259 2794 1537 2939 
Q 1816 3084 2150 3084 
Q 2853 3084 3261 2657 
Q 3669 2231 3669 1497 
Q 3669 778 3244 343 
Q 2819 -91 2113 -91 
Q 1303 -91 875 529 
Q 447 1150 447 2328 
Q 447 3434 972 4092 
Q 1497 4750 2381 4750 
Q 2619 4750 2861 4703 
Q 3103 4656 3366 4563 
z
" transform="scale(0.015625)"/>
       </defs>
       <use xlink:href="#DejaVuSans-32"/>
       <use xlink:href="#DejaVuSans-30" transform="translate(63.623047 0)"/>
       <use xlink:href="#DejaVuSans-30" transform="translate(127.246094 0)"/>
       <use xlink:href="#DejaVuSans-30" transform="translate(190.869141 0)"/>
       <use xlink:href="#DejaVuSans-2d" transform="translate(254.492188 0)"/>
       <use xlink:href="#DejaVuSans-30" transform="translate(290.576172 0)"/>
       <use xlink:href="#DejaVuSans-36" transform="translate(354.199219 0)"/>
      </g>
     </g>
    </g>
    <g id="xtick_7">
     <g id="line2d_7">
      <g>
       <use xlink:href="#m7410549a6b" x="342.563717" y="228.96" style="stroke: #000000; stroke-width: 0.8"/>
      </g>
     </g>
     <g id="text_7">
      <!-- 2000-07 -->
      <g transform="translate(321.672311 243.558437) scale(0.1 -0.1)">
       <defs>
        <path id="DejaVuSans-37" d="M 525 4666 
L 3525 4666 
L 3525 4397 
L 1831 0 
L 1172 0 
L 2766 4134 
L 525 4134 
L 525 4666 
z
" transform="scale(0.015625)"/>
       </defs>
       <use xlink:href="#DejaVuSans-32"/>
       <use xlink:href="#DejaVuSans-30" transform="translate(63.623047 0)"/>
       <use xlink:href="#DejaVuSans-30" transform="translate(127.246094 0)"/>
       <use xlink:href="#DejaVuSans-30" transform="translate(190.869141 0)"/>
       <use xlink:href="#DejaVuSans-2d" transform="translate(254.492188 0)"/>
       <use xlink:href="#DejaVuSans-30" transform="translate(290.576172 0)"/>
       <use xlink:href="#DejaVuSans-37" transform="translate(354.199219 0)"/>
      </g>
     </g>
    </g>
    <g id="text_8">
     <!-- row [datetime] -->
     <g transform="translate(179.229688 257.236562) scale(0.1 -0.1)">
      <defs>
       <path id="DejaVuSans-72" d="M 2631 2963 
Q 2534 3019 2420 3045 
Q 2306 3072 2169 3072 
Q 1681 3072 1420 2755 
Q 1159 2438 1159 1844 
L 1159 0 
L 581 0 
L 581 3500 
L 1159 3500 
L 1159 2956 
Q 1341 3275 1631 3429 
Q 1922 3584 2338 3584 
Q 2397 3584 2469 3576 
Q 2541 3569 2628 3553 
L 2631 2963 
z
" transform="scale(0.015625)"/>
       <path id="DejaVuSans-6f" d="M 1959 3097 
Q 1497 3097 1228 2736 
Q 959 2375 959 1747 
Q 959 1119 1226 758 
Q 1494 397 1959 397 
Q 2419 397 2687 759 
Q 2956 1122 2956 1747 
Q 2956 2369 2687 2733 
Q 2419 3097 1959 3097 
z
M 1959 3584 
Q 2709 3584 3137 3096 
Q 3566 2609 3566 1747 
Q 3566 888 3137 398 
Q 2709 -91 1959 -91 
Q 1206 -91 779 398 
Q 353 888 353 1747 
Q 353 2609 779 3096 
Q 1206 3584 1959 3584 
z
" transform="scale(0.015625)"/>
       <path id="DejaVuSans-77" d="M 269 3500 
L 844 3500 
L 1563 769 
L 2278 3500 
L 2956 3500 
L 3675 769 
L 4391 3500 
L 4966 3500 
L 4050 0 
L 3372 0 
L 2619 2869 
L 1863 0 
L 1184 0 
L 269 3500 
z
" transform="scale(0.015625)"/>
       <path id="DejaVuSans-20" transform="scale(0.015625)"/>
       <path id="DejaVuSans-5b" d="M 550 4863 
L 1875 4863 
L 1875 4416 
L 1125 4416 
L 1125 -397 
L 1875 -397 
L 1875 -844 
L 550 -844 
L 550 4863 
z
" transform="scale(0.015625)"/>
       <path id="DejaVuSans-64" d="M 2906 2969 
L 2906 4863 
L 3481 4863 
L 3481 0 
L 2906 0 
L 2906 525 
Q 2725 213 2448 61 
Q 2172 -91 1784 -91 
Q 1150 -91 751 415 
Q 353 922 353 1747 
Q 353 2572 751 3078 
Q 1150 3584 1784 3584 
Q 2172 3584 2448 3432 
Q 2725 3281 2906 2969 
z
M 947 1747 
Q 947 1113 1208 752 
Q 1469 391 1925 391 
Q 2381 391 2643 752 
Q 2906 1113 2906 1747 
Q 2906 2381 2643 2742 
Q 2381 3103 1925 3103 
Q 1469 3103 1208 2742 
Q 947 2381 947 1747 
z
" transform="scale(0.015625)"/>
       <path id="DejaVuSans-61" d="M 2194 1759 
Q 1497 1759 1228 1600 
Q 959 1441 959 1056 
Q 959 750 1161 570 
Q 1363 391 1709 391 
Q 2188 391 2477 730 
Q 2766 1069 2766 1631 
L 2766 1759 
L 2194 1759 
z
M 3341 1997 
L 3341 0 
L 2766 0 
L 2766 531 
Q 2569 213 2275 61 
Q 1981 -91 1556 -91 
Q 1019 -91 701 211 
Q 384 513 384 1019 
Q 384 1609 779 1909 
Q 1175 2209 1959 2209 
L 2766 2209 
L 2766 2266 
Q 2766 2663 2505 2880 
Q 2244 3097 1772 3097 
Q 1472 3097 1187 3025 
Q 903 2953 641 2809 
L 641 3341 
Q 956 3463 1253 3523 
Q 1550 3584 1831 3584 
Q 2591 3584 2966 3190 
Q 3341 2797 3341 1997 
z
" transform="scale(0.015625)"/>
       <path id="DejaVuSans-74" d="M 1172 4494 
L 1172 3500 
L 2356 3500 
L 2356 3053 
L 1172 3053 
L 1172 1153 
Q 1172 725 1289 603 
Q 1406 481 1766 481 
L 2356 481 
L 2356 0 
L 1766 0 
Q 1100 0 847 248 
Q 594 497 594 1153 
L 594 3053 
L 172 3053 
L 172 3500 
L 594 3500 
L 594 4494 
L 1172 4494 
z
" transform="scale(0.015625)"/>
       <path id="DejaVuSans-65" d="M 3597 1894 
L 3597 1613 
L 953 1613 
Q 991 1019 1311 708 
Q 1631 397 2203 397 
Q 2534 397 2845 478 
Q 3156 559 3463 722 
L 3463 178 
Q 3153 47 2828 -22 
Q 2503 -91 2169 -91 
Q 1331 -91 842 396 
Q 353 884 353 1716 
Q 353 2575 817 3079 
Q 1281 3584 2069 3584 
Q 2775 3584 3186 3129 
Q 3597 2675 3597 1894 
z
M 3022 2063 
Q 3016 2534 2758 2815 
Q 2500 3097 2075 3097 
Q 1594 3097 1305 2825 
Q 1016 2553 972 2059 
L 3022 2063 
z
" transform="scale(0.015625)"/>
       <path id="DejaVuSans-69" d="M 603 3500 
L 1178 3500 
L 1178 0 
L 603 0 
L 603 3500 
z
M 603 4863 
L 1178 4863 
L 1178 4134 
L 603 4134 
L 603 4863 
z
" transform="scale(0.015625)"/>
       <path id="DejaVuSans-6d" d="M 3328 2828 
Q 3544 3216 3844 3400 
Q 4144 3584 4550 3584 
Q 5097 3584 5394 3201 
Q 5691 2819 5691 2113 
L 5691 0 
L 5113 0 
L 5113 2094 
Q 5113 2597 4934 2840 
Q 4756 3084 4391 3084 
Q 3944 3084 3684 2787 
Q 3425 2491 3425 1978 
L 3425 0 
L 2847 0 
L 2847 2094 
Q 2847 2600 2669 2842 
Q 2491 3084 2119 3084 
Q 1678 3084 1418 2786 
Q 1159 2488 1159 1978 
L 1159 0 
L 581 0 
L 581 3500 
L 1159 3500 
L 1159 2956 
Q 1356 3278 1631 3431 
Q 1906 3584 2284 3584 
Q 2666 3584 2933 3390 
Q 3200 3197 3328 2828 
z
" transform="scale(0.015625)"/>
       <path id="DejaVuSans-5d" d="M 1947 4863 
L 1947 -844 
L 622 -844 
L 622 -397 
L 1369 -397 
L 1369 4416 
L 622 4416 
L 622 4863 
L 1947 4863 
z
" transform="scale(0.015625)"/>
      </defs>
      <use xlink:href="#DejaVuSans-72"/>
      <use xlink:href="#DejaVuSans-6f" transform="translate(38.863281 0)"/>
      <use xlink:href="#DejaVuSans-77" transform="translate(100.044922 0)"/>
      <use xlink:href="#DejaVuSans-20" transform="translate(181.832031 0)"/>
      <use xlink:href="#DejaVuSans-5b" transform="translate(213.619141 0)"/>
      <use xlink:href="#DejaVuSans-64" transform="translate(252.632812 0)"/>
      <use xlink:href="#DejaVuSans-61" transform="translate(316.109375 0)"/>
      <use xlink:href="#DejaVuSans-74" transform="translate(377.388672 0)"/>
      <use xlink:href="#DejaVuSans-65" transform="translate(416.597656 0)"/>
      <use xlink:href="#DejaVuSans-74" transform="translate(478.121094 0)"/>
      <use xlink:href="#DejaVuSans-69" transform="translate(517.330078 0)"/>
      <use xlink:href="#DejaVuSans-6d" transform="translate(545.113281 0)"/>
      <use xlink:href="#DejaVuSans-65" transform="translate(642.525391 0)"/>
      <use xlink:href="#DejaVuSans-5d" transform="translate(704.048828 0)"/>
     </g>
    </g>
   </g>
   <g id="matplotlib.axis_2">
    <g id="ytick_1">
     <g id="line2d_8">
      <defs>
       <path id="mebf6a7016b" d="M 0 0 
L -3.5 0 
" style="stroke: #000000; stroke-width: 0.8"/>
      </defs>
      <g>
       <use xlink:href="#mebf6a7016b" x="48.982813" y="222.393207" style="stroke: #000000; stroke-width: 0.8"/>
      </g>
     </g>
     <g id="text_9">
      <!-- −25 -->
      <g transform="translate(20.878125 226.192425) scale(0.1 -0.1)">
       <defs>
        <path id="DejaVuSans-2212" d="M 678 2272 
L 4684 2272 
L 4684 1741 
L 678 1741 
L 678 2272 
z
" transform="scale(0.015625)"/>
       </defs>
       <use xlink:href="#DejaVuSans-2212"/>
       <use xlink:href="#DejaVuSans-32" transform="translate(83.789062 0)"/>
       <use xlink:href="#DejaVuSans-35" transform="translate(147.412109 0)"/>
      </g>
     </g>
    </g>
    <g id="ytick_2">
     <g id="line2d_9">
      <g>
       <use xlink:href="#mebf6a7016b" x="48.982813" y="195.270361" style="stroke: #000000; stroke-width: 0.8"/>
      </g>
     </g>
     <g id="text_10">
      <!-- −20 -->
      <g transform="translate(20.878125 199.06958) scale(0.1 -0.1)">
       <use xlink:href="#DejaVuSans-2212"/>
       <use xlink:href="#DejaVuSans-32" transform="translate(83.789062 0)"/>
       <use xlink:href="#DejaVuSans-30" transform="translate(147.412109 0)"/>
      </g>
     </g>
    </g>
    <g id="ytick_3">
     <g id="line2d_10">
      <g>
       <use xlink:href="#mebf6a7016b" x="48.982813" y="168.147516" style="stroke: #000000; stroke-width: 0.8"/>
      </g>
     </g>
     <g id="text_11">
      <!-- −15 -->
      <g transform="translate(20.878125 171.946734) scale(0.1 -0.1)">
       <use xlink:href="#DejaVuSans-2212"/>
       <use xlink:href="#DejaVuSans-31" transform="translate(83.789062 0)"/>
       <use xlink:href="#DejaVuSans-35" transform="translate(147.412109 0)"/>
      </g>
     </g>
    </g>
    <g id="ytick_4">
     <g id="line2d_11">
      <g>
       <use xlink:href="#mebf6a7016b" x="48.982813" y="141.02467" style="stroke: #000000; stroke-width: 0.8"/>
      </g>
     </g>
     <g id="text_12">
      <!-- −10 -->
      <g transform="translate(20.878125 144.823889) scale(0.1 -0.1)">
       <use xlink:href="#DejaVuSans-2212"/>
       <use xlink:href="#DejaVuSans-31" transform="translate(83.789062 0)"/>
       <use xlink:href="#DejaVuSans-30" transform="translate(147.412109 0)"/>
      </g>
     </g>
    </g>
    <g id="ytick_5">
     <g id="line2d_12">
      <g>
       <use xlink:href="#mebf6a7016b" x="48.982813" y="113.901825" style="stroke: #000000; stroke-width: 0.8"/>
      </g>
     </g>
     <g id="text_13">
      <!-- −5 -->
      <g transform="translate(27.240625 117.701043) scale(0.1 -0.1)">
       <use xlink:href="#DejaVuSans-2212"/>
       <use xlink:href="#DejaVuSans-35" transform="translate(83.789062 0)"/>
      </g>
     </g>
    </g>
    <g id="ytick_6">
     <g id="line2d_13">
      <g>
       <use xlink:href="#mebf6a7016b" x="48.982813" y="86.778979" style="stroke: #000000; stroke-width: 0.8"/>
      </g>
     </g>
     <g id="text_14">
      <!-- 0 -->
      <g transform="translate(35.620312 90.578198) scale(0.1 -0.1)">
       <use xlink:href="#DejaVuSans-30"/>
      </g>
     </g>
    </g>
    <g id="ytick_7">
     <g id="line2d_14">
      <g>
       <use xlink:href="#mebf6a7016b" x="48.982813" y="59.656133" style="stroke: #000000; stroke-width: 0.8"/>
      </g>
     </g>
     <g id="text_15">
      <!-- 5 -->
      <g transform="translate(35.620312 63.455352) scale(0.1 -0.1)">
       <use xlink:href="#DejaVuSans-35"/>
      </g>
     </g>
    </g>
    <g id="ytick_8">
     <g id="line2d_15">
      <g>
       <use xlink:href="#mebf6a7016b" x="48.982813" y="32.533288" style="stroke: #000000; stroke-width: 0.8"/>
      </g>
     </g>
     <g id="text_16">
      <!-- 10 -->
      <g transform="translate(29.257812 36.332507) scale(0.1 -0.1)">
       <use xlink:href="#DejaVuSans-31"/>
       <use xlink:href="#DejaVuSans-30" transform="translate(63.623047 0)"/>
      </g>
     </g>
    </g>
    <g id="text_17">
     <!-- [dimensionless] -->
     <g transform="translate(14.798437 157.557344) rotate(-90) scale(0.1 -0.1)">
      <defs>
       <path id="DejaVuSans-6e" d="M 3513 2113 
L 3513 0 
L 2938 0 
L 2938 2094 
Q 2938 2591 2744 2837 
Q 2550 3084 2163 3084 
Q 1697 3084 1428 2787 
Q 1159 2491 1159 1978 
L 1159 0 
L 581 0 
L 581 3500 
L 1159 3500 
L 1159 2956 
Q 1366 3272 1645 3428 
Q 1925 3584 2291 3584 
Q 2894 3584 3203 3211 
Q 3513 2838 3513 2113 
z
" transform="scale(0.015625)"/>
       <path id="DejaVuSans-73" d="M 2834 3397 
L 2834 2853 
Q 2591 2978 2328 3040 
Q 2066 3103 1784 3103 
Q 1356 3103 1142 2972 
Q 928 2841 928 2578 
Q 928 2378 1081 2264 
Q 1234 2150 1697 2047 
L 1894 2003 
Q 2506 1872 2764 1633 
Q 3022 1394 3022 966 
Q 3022 478 2636 193 
Q 2250 -91 1575 -91 
Q 1294 -91 989 -36 
Q 684 19 347 128 
L 347 722 
Q 666 556 975 473 
Q 1284 391 1588 391 
Q 1994 391 2212 530 
Q 2431 669 2431 922 
Q 2431 1156 2273 1281 
Q 2116 1406 1581 1522 
L 1381 1569 
Q 847 1681 609 1914 
Q 372 2147 372 2553 
Q 372 3047 722 3315 
Q 1072 3584 1716 3584 
Q 2034 3584 2315 3537 
Q 2597 3491 2834 3397 
z
" transform="scale(0.015625)"/>
       <path id="DejaVuSans-6c" d="M 603 4863 
L 1178 4863 
L 1178 0 
L 603 0 
L 603 4863 
z
" transform="scale(0.015625)"/>
      </defs>
      <use xlink:href="#DejaVuSans-5b"/>
      <use xlink:href="#DejaVuSans-64" transform="translate(39.013672 0)"/>
      <use xlink:href="#DejaVuSans-69" transform="translate(102.490234 0)"/>
      <use xlink:href="#DejaVuSans-6d" transform="translate(130.273438 0)"/>
      <use xlink:href="#DejaVuSans-65" transform="translate(227.685547 0)"/>
      <use xlink:href="#DejaVuSans-6e" transform="translate(289.208984 0)"/>
      <use xlink:href="#DejaVuSans-73" transform="translate(352.587891 0)"/>
      <use xlink:href="#DejaVuSans-69" transform="translate(404.6875 0)"/>
      <use xlink:href="#DejaVuSans-6f" transform="translate(432.470703 0)"/>
      <use xlink:href="#DejaVuSans-6e" transform="translate(493.652344 0)"/>
      <use xlink:href="#DejaVuSans-6c" transform="translate(557.03125 0)"/>
      <use xlink:href="#DejaVuSans-65" transform="translate(584.814453 0)"/>
      <use xlink:href="#DejaVuSans-73" transform="translate(646.337891 0)"/>
      <use xlink:href="#DejaVuSans-73" transform="translate(698.4375 0)"/>
      <use xlink:href="#DejaVuSans-5d" transform="translate(750.537109 0)"/>
     </g>
    </g>
   </g>
   <g id="patch_3">
    <path d="M 48.982813 228.96 
L 48.982813 7.2 
" style="fill: none; stroke: #000000; stroke-width: 0.8; stroke-linejoin: miter; stroke-linecap: square"/>
   </g>
   <g id="patch_4">
    <path d="M 383.782813 228.96 
L 383.782813 7.2 
" style="fill: none; stroke: #000000; stroke-width: 0.8; stroke-linejoin: miter; stroke-linecap: square"/>
   </g>
   <g id="patch_5">
    <path d="M 48.982812 228.96 
L 383.782812 228.96 
" style="fill: none; stroke: #000000; stroke-width: 0.8; stroke-linejoin: miter; stroke-linecap: square"/>
   </g>
   <g id="patch_6">
    <path d="M 48.982812 7.2 
L 383.782812 7.2 
" style="fill: none; stroke: #000000; stroke-width: 0.8; stroke-linejoin: miter; stroke-linecap: square"/>
   </g>
   <g id="legend_1">
    <g id="patch_7">
     <path d="M 337.082813 73.9125 
L 376.782813 73.9125 
Q 378.782813 73.9125 378.782813 71.9125 
L 378.782813 14.2 
Q 378.782813 12.2 376.782813 12.2 
L 337.082813 12.2 
Q 335.082813 12.2 335.082813 14.2 
L 335.082813 71.9125 
Q 335.082813 73.9125 337.082813 73.9125 
z
" style="fill: #ffffff; opacity: 0.8; stroke: #cccccc; stroke-linejoin: miter"/>
    </g>
    <g id="line2d_16">
     <path d="M 339.082813 20.298437 
L 349.082813 20.298437 
L 359.082813 20.298437 
" style="fill: none; stroke: #1f77b4; stroke-width: 1.5; stroke-linecap: square"/>
    </g>
    <g id="text_18">
     <!-- A -->
     <g transform="translate(367.082813 23.798437) scale(0.1 -0.1)">
      <defs>
       <path id="DejaVuSans-41" d="M 2188 4044 
L 1331 1722 
L 3047 1722 
L 2188 4044 
z
M 1831 4666 
L 2547 4666 
L 4325 0 
L 3669 0 
L 3244 1197 
L 1141 1197 
L 716 0 
L 50 0 
L 1831 4666 
z
" transform="scale(0.015625)"/>
      </defs>
      <use xlink:href="#DejaVuSans-41"/>
     </g>
    </g>
    <g id="line2d_17">
     <path d="M 339.082813 34.976562 
L 349.082813 34.976562 
L 359.082813 34.976562 
" style="fill: none; stroke: #ff7f0e; stroke-width: 1.5; stroke-linecap: square"/>
    </g>
    <g id="text_19">
     <!-- B -->
     <g transform="translate(367.082813 38.476562) scale(0.1 -0.1)">
      <defs>
       <path id="DejaVuSans-42" d="M 1259 2228 
L 1259 519 
L 2272 519 
Q 2781 519 3026 730 
Q 3272 941 3272 1375 
Q 3272 1813 3026 2020 
Q 2781 2228 2272 2228 
L 1259 2228 
z
M 1259 4147 
L 1259 2741 
L 2194 2741 
Q 2656 2741 2882 2914 
Q 3109 3088 3109 3444 
Q 3109 3797 2882 3972 
Q 2656 4147 2194 4147 
L 1259 4147 
z
M 628 4666 
L 2241 4666 
Q 2963 4666 3353 4366 
Q 3744 4066 3744 3513 
Q 3744 3084 3544 2831 
Q 3344 2578 2956 2516 
Q 3422 2416 3680 2098 
Q 3938 1781 3938 1306 
Q 3938 681 3513 340 
Q 3088 0 2303 0 
L 628 0 
L 628 4666 
z
" transform="scale(0.015625)"/>
      </defs>
      <use xlink:href="#DejaVuSans-42"/>
     </g>
    </g>
    <g id="line2d_18">
     <path d="M 339.082813 49.654687 
L 349.082813 49.654687 
L 359.082813 49.654687 
" style="fill: none; stroke: #2ca02c; stroke-width: 1.5; stroke-linecap: square"/>
    </g>
    <g id="text_20">
     <!-- C -->
     <g transform="translate(367.082813 53.154687) scale(0.1 -0.1)">
      <defs>
       <path id="DejaVuSans-43" d="M 4122 4306 
L 4122 3641 
Q 3803 3938 3442 4084 
Q 3081 4231 2675 4231 
Q 1875 4231 1450 3742 
Q 1025 3253 1025 2328 
Q 1025 1406 1450 917 
Q 1875 428 2675 428 
Q 3081 428 3442 575 
Q 3803 722 4122 1019 
L 4122 359 
Q 3791 134 3420 21 
Q 3050 -91 2638 -91 
Q 1578 -91 968 557 
Q 359 1206 359 2328 
Q 359 3453 968 4101 
Q 1578 4750 2638 4750 
Q 3056 4750 3426 4639 
Q 3797 4528 4122 4306 
z
" transform="scale(0.015625)"/>
      </defs>
      <use xlink:href="#DejaVuSans-43"/>
     </g>
    </g>
    <g id="line2d_19">
     <path d="M 339.082813 64.332812 
L 349.082813 64.332812 
L 359.082813 64.332812 
" style="fill: none; stroke: #d62728; stroke-width: 1.5; stroke-linecap: square"/>
    </g>
    <g id="text_21">
     <!-- D -->
     <g transform="translate(367.082813 67.832812) scale(0.1 -0.1)">
      <defs>
       <path id="DejaVuSans-44" d="M 1259 4147 
L 1259 519 
L 2022 519 
Q 2988 519 3436 956 
Q 3884 1394 3884 2338 
Q 3884 3275 3436 3711 
Q 2988 4147 2022 4147 
L 1259 4147 
z
M 628 4666 
L 1925 4666 
Q 3281 4666 3915 4102 
Q 4550 3538 4550 2338 
Q 4550 1131 3912 565 
Q 3275 0 1925 0 
L 628 0 
L 628 4666 
z
" transform="scale(0.015625)"/>
      </defs>
      <use xlink:href="#DejaVuSans-44"/>
     </g>
    </g>
   </g>
   <g id="line2d_20">
    <path d="M 64.200994 88.543624 
L 65.73046 88.006948 
L 67.259925 88.777047 
L 68.789391 96.17585 
L 70.318856 99.081318 
L 71.848322 103.41999 
L 73.377787 115.452939 
L 74.907253 122.486979 
L 76.436718 120.498784 
L 77.966184 125.116828 
L 79.495649 120.013005 
L 81.025115 117.812459 
L 82.55458 124.467382 
L 84.084046 127.779059 
L 85.613511 130.197136 
L 87.142977 139.893311 
L 88.672442 136.594051 
L 90.201908 133.807886 
L 91.731373 134.882456 
L 93.260839 134.884004 
L 94.790305 133.931714 
L 96.31977 130.91548 
L 97.849236 125.189177 
L 99.378701 127.868769 
L 100.908167 128.133539 
L 102.437632 125.839964 
L 103.967098 118.014527 
L 105.496563 120.078496 
L 107.026029 120.262213 
L 108.555494 123.58152 
L 110.08496 122.863728 
L 111.614425 125.429349 
L 113.143891 124.406907 
L 114.673356 127.128608 
L 116.202822 128.216189 
L 117.732287 134.378737 
L 119.261753 133.626645 
L 120.791218 132.310263 
L 122.320684 134.151219 
L 123.850149 126.602197 
L 125.379615 131.497739 
L 126.90908 129.466368 
L 128.438546 121.049815 
L 129.968011 121.176095 
L 131.497477 120.755185 
L 133.026942 118.273268 
L 134.556408 116.57727 
L 136.085873 124.945361 
L 137.615339 125.106904 
L 139.144804 122.680378 
L 140.67427 129.766069 
L 142.203735 129.200506 
L 143.733201 127.107529 
L 145.262666 134.535243 
L 146.792132 133.77005 
L 148.321597 135.036864 
L 149.851063 145.750207 
L 152.909994 138.087016 
L 154.439459 141.437568 
L 155.968925 142.081582 
L 157.49839 147.125556 
L 159.027856 139.013143 
L 160.557321 127.982448 
L 162.086787 124.714601 
L 163.616252 117.195948 
L 165.145718 119.957718 
L 166.675183 118.116826 
L 168.204649 119.233709 
L 169.734114 126.095911 
L 171.26358 131.353551 
L 172.793045 126.757203 
L 174.322511 119.805667 
L 175.851977 122.370184 
L 177.381442 134.198618 
L 178.910908 129.052213 
L 180.440373 131.796298 
L 181.969839 126.264216 
L 183.499304 122.614122 
L 185.02877 125.53769 
L 186.558235 120.124949 
L 188.087701 113.749141 
L 189.617166 114.367624 
L 191.146632 106.029085 
L 192.676097 115.546261 
L 194.205563 114.467786 
L 195.735028 103.631295 
L 197.264494 107.962653 
L 198.793959 107.885609 
L 200.323425 108.141286 
L 201.85289 110.363208 
L 203.382356 110.376403 
L 204.911821 113.610457 
L 206.441287 109.070984 
L 207.970752 113.450753 
L 209.500218 97.508862 
L 211.029683 103.998894 
L 212.559149 107.356771 
L 214.088614 105.100906 
L 215.61808 111.769171 
L 217.147545 121.449943 
L 218.677011 130.305727 
L 220.206476 129.355035 
L 221.735942 129.145738 
L 223.265407 128.023287 
L 224.794873 131.071388 
L 226.324338 130.623773 
L 227.853804 141.620979 
L 229.383269 137.35492 
L 230.912735 138.827033 
L 232.4422 131.547938 
L 233.971666 134.098544 
L 235.501131 145.110957 
L 237.030597 143.997987 
L 238.560062 148.542061 
L 240.089528 151.611407 
L 241.618993 151.764772 
L 243.148459 157.640146 
L 244.677924 156.615395 
L 246.20739 150.77864 
L 247.736855 153.611234 
L 249.266321 144.490181 
L 250.795786 139.994958 
L 252.325252 137.757588 
L 255.384183 135.879997 
L 256.913648 135.328728 
L 258.443114 123.684408 
L 259.97258 123.307104 
L 261.502045 121.102691 
L 263.031511 126.645868 
L 264.560976 128.37419 
L 266.090442 135.590344 
L 267.619907 135.341261 
L 269.149373 127.111658 
L 270.678838 132.67199 
L 272.208304 130.994855 
L 273.737769 136.171924 
L 275.267235 140.497328 
L 276.7967 140.105706 
L 278.326166 141.424207 
L 279.855631 142.101367 
L 281.385097 144.682823 
L 282.914562 140.086396 
L 284.444028 140.869134 
L 285.973493 144.588501 
L 287.502959 151.330193 
L 289.032424 150.580718 
L 290.56189 152.254848 
L 292.091355 150.834431 
L 293.620821 150.528575 
L 295.150286 147.316885 
L 296.679752 147.786411 
L 298.209217 148.610182 
L 299.738683 149.255585 
L 301.268148 149.02214 
L 302.797614 156.76842 
L 304.327079 167.464783 
L 305.856545 161.909229 
L 307.38601 174.785388 
L 308.915476 185.78612 
L 310.444941 182.139742 
L 311.974407 163.32224 
L 313.503872 171.676683 
L 315.033338 170.163361 
L 316.562803 177.105028 
L 318.092269 177.769202 
L 319.621734 184.649769 
L 321.1512 185.624951 
L 322.680665 187.282764 
L 324.210131 185.564687 
L 325.739596 180.316764 
L 327.269062 183.103433 
L 328.798527 183.842615 
L 330.327993 183.34666 
L 331.857458 177.433396 
L 333.386924 177.358206 
L 334.916389 185.901771 
L 336.445855 191.949952 
L 339.504786 199.334735 
L 341.034252 199.413323 
L 342.563717 201.177123 
L 344.093183 199.102151 
L 345.622648 208.895064 
L 347.152114 199.507004 
L 348.681579 208.548315 
L 350.211045 222.24795 
L 351.74051 219.24852 
L 353.269976 218.780277 
L 354.799441 214.792205 
L 356.328907 219.201472 
L 357.858372 215.254021 
L 359.387838 220.630972 
L 360.917303 216.677444 
L 362.446769 211.775277 
L 363.976234 212.202126 
L 365.5057 213.475642 
L 367.035165 212.852959 
L 368.564631 213.588213 
L 368.564631 213.588213 
" clip-path="url(#p52f1fe4e62)" style="fill: none; stroke: #1f77b4; stroke-width: 1.5; stroke-linecap: square"/>
   </g>
   <g id="line2d_21">
    <path d="M 64.200994 83.660172 
L 65.73046 84.834582 
L 67.259925 82.093873 
L 68.789391 83.539527 
L 70.318856 81.210052 
L 71.848322 83.952027 
L 73.377787 85.001502 
L 74.907253 77.922085 
L 76.436718 80.256507 
L 77.966184 75.929966 
L 79.495649 84.644453 
L 81.025115 74.608702 
L 82.55458 81.850432 
L 84.084046 82.179829 
L 85.613511 83.983972 
L 87.142977 87.040203 
L 88.672442 87.027059 
L 90.201908 84.50601 
L 91.731373 83.922239 
L 93.260839 77.009613 
L 94.790305 69.031567 
L 96.31977 66.85812 
L 97.849236 72.869596 
L 99.378701 72.563027 
L 100.908167 59.33705 
L 102.437632 68.6478 
L 103.967098 74.897842 
L 105.496563 74.318307 
L 107.026029 79.448465 
L 108.555494 72.388397 
L 110.08496 76.08015 
L 111.614425 77.639365 
L 113.143891 84.538894 
L 114.673356 82.865406 
L 116.202822 78.2398 
L 117.732287 72.667537 
L 119.261753 76.217332 
L 120.791218 80.845126 
L 123.850149 96.563382 
L 125.379615 93.615599 
L 126.90908 94.970771 
L 128.438546 95.785335 
L 129.968011 97.184203 
L 131.497477 101.012117 
L 133.026942 94.788845 
L 134.556408 99.229897 
L 136.085873 98.984143 
L 137.615339 102.626737 
L 139.144804 102.130076 
L 140.67427 90.204946 
L 142.203735 86.276744 
L 143.733201 87.371277 
L 145.262666 94.894545 
L 146.792132 101.075956 
L 148.321597 103.130781 
L 149.851063 111.940044 
L 151.380528 110.394809 
L 152.909994 106.719533 
L 154.439459 97.280845 
L 155.968925 101.023579 
L 157.49839 89.611534 
L 159.027856 76.097723 
L 160.557321 73.783283 
L 162.086787 83.507556 
L 163.616252 88.692233 
L 165.145718 87.447857 
L 166.675183 85.518376 
L 168.204649 93.242474 
L 169.734114 90.289469 
L 171.26358 82.969112 
L 172.793045 83.216539 
L 174.322511 80.463594 
L 175.851977 78.635608 
L 177.381442 80.764873 
L 178.910908 81.547122 
L 180.440373 74.700954 
L 181.969839 78.82585 
L 183.499304 67.91384 
L 185.02877 67.462807 
L 186.558235 74.774774 
L 188.087701 71.051753 
L 189.617166 68.292991 
L 191.146632 59.270443 
L 192.676097 56.15797 
L 194.205563 61.941015 
L 195.735028 58.641241 
L 197.264494 72.671578 
L 198.793959 71.765295 
L 200.323425 82.700007 
L 201.85289 75.423004 
L 203.382356 76.347135 
L 204.911821 75.3686 
L 206.441287 70.036123 
L 207.970752 73.312985 
L 209.500218 69.140056 
L 211.029683 64.579752 
L 212.559149 61.678033 
L 214.088614 55.740685 
L 215.61808 48.227281 
L 217.147545 54.522658 
L 218.677011 52.52007 
L 220.206476 45.312513 
L 221.735942 42.423428 
L 223.265407 39.027397 
L 224.794873 45.372079 
L 226.324338 48.10013 
L 227.853804 47.481619 
L 229.383269 41.81079 
L 230.912735 30.220258 
L 232.4422 37.512888 
L 233.971666 26.861264 
L 235.501131 23.10602 
L 237.030597 28.549944 
L 238.560062 32.334923 
L 240.089528 39.719176 
L 241.618993 38.024659 
L 243.148459 35.558951 
L 244.677924 39.446149 
L 246.20739 39.429663 
L 247.736855 30.410197 
L 249.266321 25.238767 
L 250.795786 32.438032 
L 252.325252 36.026617 
L 253.854717 35.325302 
L 255.384183 37.562756 
L 256.913648 36.641662 
L 258.443114 40.589817 
L 259.97258 46.910689 
L 261.502045 39.647077 
L 263.031511 36.06779 
L 264.560976 29.676285 
L 266.090442 30.311071 
L 267.619907 29.559199 
L 269.149373 29.800641 
L 270.678838 21.570359 
L 272.208304 23.595842 
L 273.737769 28.132052 
L 275.267235 27.658469 
L 276.7967 27.862367 
L 278.326166 33.794043 
L 279.855631 36.044678 
L 281.385097 31.444191 
L 282.914562 37.474254 
L 284.444028 29.111792 
L 285.973493 24.193853 
L 287.502959 19.972338 
L 289.032424 20.892289 
L 290.56189 28.795398 
L 292.091355 28.104651 
L 293.620821 21.635248 
L 295.150286 23.818499 
L 296.679752 26.320685 
L 298.209217 24.135692 
L 299.738683 23.718313 
L 301.268148 15.153933 
L 302.797614 12.394432 
L 304.327079 15.375243 
L 305.856545 12.436495 
L 307.38601 14.262722 
L 308.915476 28.279899 
L 310.444941 20.954504 
L 311.974407 28.692374 
L 313.503872 20.637469 
L 315.033338 26.346168 
L 316.562803 24.859317 
L 318.092269 32.631663 
L 319.621734 35.414047 
L 321.1512 48.949397 
L 322.680665 54.577436 
L 324.210131 55.408498 
L 325.739596 58.455462 
L 328.798527 61.141058 
L 330.327993 63.916784 
L 331.857458 71.627691 
L 333.386924 77.641028 
L 334.916389 79.835553 
L 336.445855 93.425361 
L 337.97532 97.09606 
L 339.504786 95.566715 
L 341.034252 98.442611 
L 342.563717 99.620963 
L 344.093183 98.46788 
L 345.622648 98.194399 
L 347.152114 103.207797 
L 348.681579 109.813988 
L 351.74051 109.438878 
L 353.269976 107.886242 
L 354.799441 97.763273 
L 356.328907 101.773279 
L 357.858372 105.061613 
L 359.387838 101.933359 
L 360.917303 100.797725 
L 362.446769 97.639331 
L 363.976234 97.878354 
L 365.5057 107.649917 
L 367.035165 115.375421 
L 368.564631 116.283076 
L 368.564631 116.283076 
" clip-path="url(#p52f1fe4e62)" style="fill: none; stroke: #ff7f0e; stroke-width: 1.5; stroke-linecap: square"/>
   </g>
   <g id="line2d_22">
    <path d="M 64.200994 87.307105 
L 65.73046 89.892474 
L 67.259925 88.310828 
L 68.789391 98.469366 
L 70.318856 102.387736 
L 71.848322 100.146173 
L 73.377787 92.632593 
L 74.907253 87.417167 
L 76.436718 88.638684 
L 79.495649 82.03554 
L 81.025115 80.763874 
L 82.55458 80.839377 
L 84.084046 84.876067 
L 85.613511 88.00373 
L 87.142977 80.809381 
L 88.672442 84.237225 
L 90.201908 95.643954 
L 91.731373 87.780744 
L 93.260839 85.150472 
L 94.790305 86.02142 
L 96.31977 92.807181 
L 97.849236 90.479494 
L 99.378701 91.856163 
L 100.908167 84.49539 
L 102.437632 82.355143 
L 103.967098 81.460985 
L 105.496563 83.70018 
L 107.026029 79.551161 
L 108.555494 80.413461 
L 110.08496 81.500198 
L 111.614425 85.450325 
L 113.143891 95.520841 
L 114.673356 93.014271 
L 116.202822 89.152431 
L 117.732287 83.703027 
L 119.261753 78.78467 
L 120.791218 85.144716 
L 122.320684 83.499869 
L 123.850149 87.549605 
L 125.379615 88.639624 
L 126.90908 96.775305 
L 128.438546 91.681716 
L 129.968011 104.441448 
L 131.497477 104.212176 
L 133.026942 102.344627 
L 134.556408 113.244753 
L 136.085873 113.359887 
L 137.615339 118.701074 
L 139.144804 124.532465 
L 140.67427 124.085989 
L 142.203735 118.676454 
L 143.733201 120.223796 
L 145.262666 120.332611 
L 146.792132 118.18358 
L 148.321597 120.255033 
L 149.851063 131.181511 
L 151.380528 131.232108 
L 152.909994 128.956327 
L 154.439459 125.355689 
L 155.968925 126.765966 
L 157.49839 128.861497 
L 159.027856 119.856267 
L 160.557321 121.895761 
L 162.086787 114.571733 
L 163.616252 117.930505 
L 165.145718 117.78044 
L 166.675183 122.226849 
L 168.204649 116.742806 
L 169.734114 108.819382 
L 171.26358 99.572294 
L 172.793045 92.759004 
L 174.322511 100.62883 
L 175.851977 95.991015 
L 177.381442 95.535124 
L 178.910908 100.568462 
L 180.440373 98.917961 
L 181.969839 102.299264 
L 183.499304 99.430857 
L 185.02877 94.53538 
L 186.558235 91.599391 
L 188.087701 88.414711 
L 191.146632 92.220445 
L 194.205563 79.99182 
L 195.735028 78.057141 
L 198.793959 92.401242 
L 200.323425 90.773046 
L 201.85289 83.282923 
L 203.382356 96.628527 
L 204.911821 88.40782 
L 207.970752 96.989332 
L 209.500218 97.821339 
L 211.029683 95.841538 
L 212.559149 92.8503 
L 214.088614 87.917928 
L 215.61808 93.596775 
L 217.147545 96.189317 
L 218.677011 99.906953 
L 220.206476 107.301604 
L 221.735942 94.608056 
L 223.265407 92.323626 
L 224.794873 101.678768 
L 226.324338 100.341821 
L 227.853804 106.196688 
L 229.383269 102.366484 
L 230.912735 103.173519 
L 232.4422 92.483882 
L 233.971666 90.580099 
L 235.501131 93.904364 
L 237.030597 98.018794 
L 238.560062 108.591898 
L 240.089528 106.202542 
L 241.618993 112.493029 
L 243.148459 104.635716 
L 244.677924 104.257825 
L 246.20739 102.277074 
L 247.736855 102.682498 
L 249.266321 102.63799 
L 250.795786 115.150823 
L 252.325252 119.781186 
L 253.854717 104.588838 
L 255.384183 102.261022 
L 256.913648 96.798673 
L 258.443114 97.039009 
L 259.97258 99.975522 
L 261.502045 96.193258 
L 263.031511 98.634129 
L 264.560976 89.191402 
L 266.090442 89.321784 
L 267.619907 89.73437 
L 269.149373 83.391328 
L 270.678838 91.403782 
L 272.208304 89.539381 
L 273.737769 89.886484 
L 275.267235 86.800194 
L 276.7967 89.459125 
L 278.326166 90.440395 
L 279.855631 93.536956 
L 281.385097 95.882184 
L 282.914562 102.418852 
L 284.444028 104.702843 
L 285.973493 101.154043 
L 287.502959 102.55998 
L 289.032424 96.282612 
L 290.56189 93.099756 
L 292.091355 107.051406 
L 293.620821 107.982966 
L 295.150286 103.074081 
L 296.679752 96.884294 
L 298.209217 108.362471 
L 299.738683 99.211757 
L 301.268148 88.33238 
L 302.797614 90.396443 
L 304.327079 86.013034 
L 305.856545 90.732044 
L 307.38601 89.327105 
L 308.915476 93.072748 
L 310.444941 85.976134 
L 311.974407 95.976629 
L 313.503872 97.11976 
L 315.033338 89.758774 
L 316.562803 99.080949 
L 318.092269 95.462896 
L 319.621734 88.821825 
L 321.1512 91.479945 
L 324.210131 100.694323 
L 325.739596 101.959145 
L 327.269062 103.521529 
L 328.798527 107.360993 
L 330.327993 106.782325 
L 331.857458 110.152489 
L 333.386924 111.054759 
L 334.916389 105.556648 
L 336.445855 105.445372 
L 337.97532 110.600619 
L 339.504786 98.785538 
L 341.034252 105.272032 
L 342.563717 97.415396 
L 344.093183 97.370912 
L 345.622648 104.711976 
L 347.152114 108.546323 
L 348.681579 108.447603 
L 350.211045 103.319164 
L 351.74051 106.956083 
L 353.269976 103.98277 
L 354.799441 110.505329 
L 356.328907 111.397513 
L 357.858372 109.966695 
L 359.387838 115.311841 
L 360.917303 110.217465 
L 362.446769 117.135198 
L 363.976234 115.671108 
L 365.5057 110.527326 
L 367.035165 111.388287 
L 368.564631 110.959115 
L 368.564631 110.959115 
" clip-path="url(#p52f1fe4e62)" style="fill: none; stroke: #2ca02c; stroke-width: 1.5; stroke-linecap: square"/>
   </g>
   <g id="line2d_23">
    <path d="M 64.200994 99.522153 
L 65.73046 90.352598 
L 67.259925 99.978986 
L 68.789391 107.490615 
L 70.318856 109.130228 
L 71.848322 104.565734 
L 73.377787 102.303218 
L 74.907253 101.958922 
L 76.436718 96.269557 
L 79.495649 94.412976 
L 81.025115 95.12233 
L 82.55458 97.7718 
L 84.084046 103.767258 
L 85.613511 100.22201 
L 87.142977 92.468305 
L 88.672442 91.67077 
L 90.201908 93.490817 
L 91.731373 97.010345 
L 93.260839 102.058487 
L 94.790305 101.843043 
L 96.31977 101.086762 
L 97.849236 97.352943 
L 99.378701 91.019529 
L 100.908167 94.466961 
L 102.437632 102.516261 
L 103.967098 100.941136 
L 105.496563 100.136497 
L 107.026029 102.080808 
L 108.555494 102.24832 
L 110.08496 115.340695 
L 111.614425 103.960838 
L 113.143891 103.393802 
L 114.673356 100.690477 
L 116.202822 97.415819 
L 119.261753 87.232216 
L 120.791218 85.673644 
L 122.320684 85.783453 
L 123.850149 82.049412 
L 125.379615 80.924994 
L 126.90908 78.105626 
L 128.438546 78.502583 
L 129.968011 86.363428 
L 131.497477 86.400554 
L 133.026942 95.590708 
L 134.556408 98.346607 
L 136.085873 97.175975 
L 137.615339 96.633017 
L 139.144804 103.908472 
L 140.67427 102.809225 
L 143.733201 108.478266 
L 145.262666 104.358996 
L 146.792132 97.791319 
L 148.321597 100.571413 
L 151.380528 115.249013 
L 152.909994 113.79287 
L 154.439459 114.700592 
L 155.968925 113.759219 
L 157.49839 122.031028 
L 159.027856 131.112346 
L 160.557321 129.418562 
L 162.086787 129.681873 
L 163.616252 128.768892 
L 165.145718 129.916052 
L 166.675183 140.88514 
L 168.204649 134.757595 
L 169.734114 127.71871 
L 171.26358 119.160392 
L 174.322511 129.278194 
L 175.851977 133.025274 
L 177.381442 133.375416 
L 178.910908 126.319596 
L 180.440373 132.659364 
L 181.969839 141.775194 
L 183.499304 147.661701 
L 185.02877 141.578086 
L 186.558235 138.729649 
L 188.087701 134.728733 
L 189.617166 139.723725 
L 191.146632 135.117416 
L 192.676097 142.837567 
L 195.735028 149.778897 
L 197.264494 156.947213 
L 198.793959 153.484668 
L 200.323425 153.870176 
L 201.85289 149.934238 
L 203.382356 142.099274 
L 204.911821 139.995655 
L 206.441287 144.726588 
L 207.970752 143.241426 
L 209.500218 144.762724 
L 211.029683 145.56053 
L 212.559149 142.921971 
L 214.088614 144.607254 
L 215.61808 147.800124 
L 217.147545 144.336171 
L 218.677011 145.615484 
L 220.206476 146.501607 
L 221.735942 152.474334 
L 223.265407 154.72382 
L 224.794873 154.539244 
L 226.324338 153.82871 
L 227.853804 150.697706 
L 229.383269 159.831482 
L 230.912735 160.241199 
L 232.4422 161.916848 
L 233.971666 164.069806 
L 235.501131 164.348158 
L 237.030597 159.824885 
L 238.560062 156.099947 
L 240.089528 155.125822 
L 241.618993 152.61685 
L 243.148459 152.398097 
L 244.677924 144.580163 
L 246.20739 141.169524 
L 249.266321 126.721166 
L 250.795786 125.498667 
L 252.325252 122.596516 
L 253.854717 126.676312 
L 255.384183 120.600507 
L 256.913648 122.863885 
L 258.443114 120.822597 
L 259.97258 119.43405 
L 261.502045 124.774657 
L 263.031511 128.453593 
L 264.560976 141.320728 
L 266.090442 146.039091 
L 267.619907 144.022738 
L 270.678838 148.303624 
L 272.208304 146.859892 
L 273.737769 142.280637 
L 275.267235 147.33934 
L 276.7967 142.770123 
L 278.326166 143.861517 
L 279.855631 146.224395 
L 281.385097 158.238694 
L 282.914562 153.352116 
L 284.444028 155.750648 
L 285.973493 156.999422 
L 287.502959 161.463142 
L 290.56189 152.25153 
L 292.091355 146.612481 
L 293.620821 147.809212 
L 295.150286 147.651238 
L 296.679752 142.637577 
L 298.209217 142.634647 
L 299.738683 142.902264 
L 301.268148 143.80992 
L 302.797614 143.895978 
L 304.327079 148.921371 
L 305.856545 166.685159 
L 307.38601 158.223 
L 308.915476 169.079829 
L 310.444941 174.899426 
L 311.974407 179.304222 
L 313.503872 172.405088 
L 315.033338 168.52902 
L 316.562803 170.290245 
L 318.092269 171.443402 
L 319.621734 165.647225 
L 321.1512 163.094086 
L 322.680665 165.167417 
L 324.210131 167.654334 
L 325.739596 171.788995 
L 327.269062 168.970489 
L 328.798527 170.984555 
L 330.327993 178.676554 
L 331.857458 184.536899 
L 333.386924 187.996705 
L 334.916389 184.502429 
L 336.445855 187.452516 
L 339.504786 197.631974 
L 341.034252 199.771777 
L 342.563717 205.891471 
L 344.093183 210.925703 
L 345.622648 208.060486 
L 347.152114 204.602726 
L 348.681579 210.918924 
L 350.211045 211.569045 
L 351.74051 216.382168 
L 353.269976 207.882684 
L 354.799441 208.590708 
L 356.328907 202.464574 
L 357.858372 199.321241 
L 359.387838 202.739946 
L 360.917303 195.47114 
L 362.446769 197.789006 
L 363.976234 192.406876 
L 365.5057 198.925431 
L 367.035165 197.120993 
L 368.564631 190.981243 
L 368.564631 190.981243 
" clip-path="url(#p52f1fe4e62)" style="fill: none; stroke: #d62728; stroke-width: 1.5; stroke-linecap: square"/>
   </g>
  </g>
 </g>
 <defs>
  <clipPath id="p52f1fe4e62">
   <rect x="48.982813" y="7.2" width="334.8" height="221.76"/>
  </clipPath>
 </defs>
</svg>
