<?xml version="1.0" encoding="utf-8" standalone="no"?>
<!DOCTYPE svg PUBLIC "-//W3C//DTD SVG 1.1//EN"
  "http://www.w3.org/Graphics/SVG/1.1/DTD/svg11.dtd">
<svg xmlns:xlink="http://www.w3.org/1999/xlink" width="382.603125pt" height="266.51625pt" viewBox="0 0 382.603125 266.51625" xmlns="http://www.w3.org/2000/svg" version="1.1">
 <metadata>
  <rdf:RDF xmlns:dc="http://purl.org/dc/elements/1.1/" xmlns:cc="http://creativecommons.org/ns#" xmlns:rdf="http://www.w3.org/1999/02/22-rdf-syntax-ns#">
   <cc:Work>
    <dc:type rdf:resource="http://purl.org/dc/dcmitype/StillImage"/>
    <dc:date>2026-03-11T13:38:46.934139</dc:date>
    <dc:format>image/svg+xml</dc:format>
    <dc:creator>
     <cc:Agent>
      <dc:title>Matplotlib v3.10.8, https://matplotlib.org/</dc:title>
     </cc:Agent>
    </dc:creator>
   </cc:Work>
  </rdf:RDF>
 </metadata>
 <defs>
  <style type="text/css">*{stroke-linejoin: round; stroke-linecap: butt}</style>
 </defs>
 <g id="figure_1">
  <g id="patch_1">
   <path d="M 0 266.51625 
L 382.603125 266.51625 
L 382.603125 0 
L 0 0 
z
" style="fill: #ffffff"/>
  </g>
  <g id="axes_1">
   <g id="patch_2">
    <path d="M 40.603125 228.96 
L 375.403125 228.96 
L 375.403125 7.2 
L 40.603125 7.2 
z
" style="fill: #ffffff"/>
   </g>
   <g id="matplotlib.axis_1">
    <g id="xtick_1">
     <g id="line2d_1">
      <defs>
       <path id="m6cf30a9d51" d="M 0 0 
L 0 3.5 
" style="stroke: #000000; stroke-width: 0.8"/>
      </defs>
      <g>
       <use xlink:href="#m6cf30a9d51" x="55.821307" y="228.96" style="stroke: #000000; stroke-width: 0.8"/>
      </g>
     </g>
     <g id="text_1">
      <!-- 2000-01 -->
      <g transform="translate(34.929901 243.558437) scale(0.1 -0.1)">
       <defs>
        <path id="DejaVuSans-32" d="M 1228 531 
L 3431 531 
L 3431 0 
L 469 0 
L 469 531 
Q 828 903 1448 1529 
Q 2069 2156 2228 2338 
Q 2531 2678 2651 2914 
Q 2772 3150 2772 3378 
Q 2772 3750 2511 3984 
Q 2250 4219 1831 4219 
Q 1534 4219 1204 4116 
Q 875 4013 500 3803 
L 500 4441 
Q 881 4594 1212 4672 
Q 1544 4750 1819 4750 
Q 2544 4750 2975 4387 
Q 3406 4025 3406 3419 
Q 3406 3131 3298 2873 
Q 3191 2616 2906 2266 
Q 2828 2175 2409 1742 
Q 1991 1309 1228 531 
z
" transform="scale(0.015625)"/>
        <path id="DejaVuSans-30" d="M 2034 4250 
Q 1547 4250 1301 3770 
Q 1056 3291 1056 2328 
Q 1056 1369 1301 889 
Q 1547 409 2034 409 
Q 2525 409 2770 889 
Q 3016 1369 3016 2328 
Q 3016 3291 2770 3770 
Q 2525 4250 2034 4250 
z
M 2034 4750 
Q 2819 4750 3233 4129 
Q 3647 3509 3647 2328 
Q 3647 1150 3233 529 
Q 2819 -91 2034 -91 
Q 1250 -91 836 529 
Q 422 1150 422 2328 
Q 422 3509 836 4129 
Q 1250 4750 2034 4750 
z
" transform="scale(0.015625)"/>
        <path id="DejaVuSans-2d" d="M 313 2009 
L 1997 2009 
L 1997 1497 
L 313 1497 
L 313 2009 
z
" transform="scale(0.015625)"/>
        <path id="DejaVuSans-31" d="M 794 531 
L 1825 531 
L 1825 4091 
L 703 3866 
L 703 4441 
L 1819 4666 
L 2450 4666 
L 2450 531 
L 3481 531 
L 3481 0 
L 794 0 
L 794 531 
z
" transform="scale(0.015625)"/>
       </defs>
       <use xlink:href="#DejaVuSans-32"/>
       <use xlink:href="#DejaVuSans-30" transform="translate(63.623047 0)"/>
       <use xlink:href="#DejaVuSans-30" transform="translate(127.246094 0)"/>
       <use xlink:href="#DejaVuSans-30" transform="translate(190.869141 0)"/>
       <use xlink:href="#DejaVuSans-2d" transform="translate(254.492188 0)"/>
       <use xlink:href="#DejaVuSans-30" transform="translate(290.576172 0)"/>
       <use xlink:href="#DejaVuSans-31" transform="translate(354.199219 0)"/>
      </g>
     </g>
    </g>
    <g id="xtick_2">
     <g id="line2d_2">
      <g>
       <use xlink:href="#m6cf30a9d51" x="103.234738" y="228.96" style="stroke: #000000; stroke-width: 0.8"/>
      </g>
     </g>
     <g id="text_2">
      <!-- 2000-02 -->
      <g transform="translate(82.343331 243.558437) scale(0.1 -0.1)">
       <use xlink:href="#DejaVuSans-32"/>
       <use xlink:href="#DejaVuSans-30" transform="translate(63.623047 0)"/>
       <use xlink:href="#DejaVuSans-30" transform="translate(127.246094 0)"/>
       <use xlink:href="#DejaVuSans-30" transform="translate(190.869141 0)"/>
       <use xlink:href="#DejaVuSans-2d" transform="translate(254.492188 0)"/>
       <use xlink:href="#DejaVuSans-30" transform="translate(290.576172 0)"/>
       <use xlink:href="#DejaVuSans-32" transform="translate(354.199219 0)"/>
      </g>
     </g>
    </g>
    <g id="xtick_3">
     <g id="line2d_3">
      <g>
       <use xlink:href="#m6cf30a9d51" x="147.589237" y="228.96" style="stroke: #000000; stroke-width: 0.8"/>
      </g>
     </g>
     <g id="text_3">
      <!-- 2000-03 -->
      <g transform="translate(126.697831 243.558437) scale(0.1 -0.1)">
       <defs>
        <path id="DejaVuSans-33" d="M 2597 2516 
Q 3050 2419 3304 2112 
Q 3559 1806 3559 1356 
Q 3559 666 3084 287 
Q 2609 -91 1734 -91 
Q 1441 -91 1130 -33 
Q 819 25 488 141 
L 488 750 
Q 750 597 1062 519 
Q 1375 441 1716 441 
Q 2309 441 2620 675 
Q 2931 909 2931 1356 
Q 2931 1769 2642 2001 
Q 2353 2234 1838 2234 
L 1294 2234 
L 1294 2753 
L 1863 2753 
Q 2328 2753 2575 2939 
Q 2822 3125 2822 3475 
Q 2822 3834 2567 4026 
Q 2313 4219 1838 4219 
Q 1578 4219 1281 4162 
Q 984 4106 628 3988 
L 628 4550 
Q 988 4650 1302 4700 
Q 1616 4750 1894 4750 
Q 2613 4750 3031 4423 
Q 3450 4097 3450 3541 
Q 3450 3153 3228 2886 
Q 3006 2619 2597 2516 
z
" transform="scale(0.015625)"/>
       </defs>
       <use xlink:href="#DejaVuSans-32"/>
       <use xlink:href="#DejaVuSans-30" transform="translate(63.623047 0)"/>
       <use xlink:href="#DejaVuSans-30" transform="translate(127.246094 0)"/>
       <use xlink:href="#DejaVuSans-30" transform="translate(190.869141 0)"/>
       <use xlink:href="#DejaVuSans-2d" transform="translate(254.492188 0)"/>
       <use xlink:href="#DejaVuSans-30" transform="translate(290.576172 0)"/>
       <use xlink:href="#DejaVuSans-33" transform="translate(354.199219 0)"/>
      </g>
     </g>
    </g>
    <g id="xtick_4">
     <g id="line2d_4">
      <g>
       <use xlink:href="#m6cf30a9d51" x="195.002668" y="228.96" style="stroke: #000000; stroke-width: 0.8"/>
      </g>
     </g>
     <g id="text_4">
      <!-- 2000-04 -->
      <g transform="translate(174.111262 243.558437) scale(0.1 -0.1)">
       <defs>
        <path id="DejaVuSans-34" d="M 2419 4116 
L 825 1625 
L 2419 1625 
L 2419 4116 
z
M 2253 4666 
L 3047 4666 
L 3047 1625 
L 3713 1625 
L 3713 1100 
L 3047 1100 
L 3047 0 
L 2419 0 
L 2419 1100 
L 313 1100 
L 313 1709 
L 2253 4666 
z
" transform="scale(0.015625)"/>
       </defs>
       <use xlink:href="#DejaVuSans-32"/>
       <use xlink:href="#DejaVuSans-30" transform="translate(63.623047 0)"/>
       <use xlink:href="#DejaVuSans-30" transform="translate(127.246094 0)"/>
       <use xlink:href="#DejaVuSans-30" transform="translate(190.869141 0)"/>
       <use xlink:href="#DejaVuSans-2d" transform="translate(254.492188 0)"/>
       <use xlink:href="#DejaVuSans-30" transform="translate(290.576172 0)"/>
       <use xlink:href="#DejaVuSans-34" transform="translate(354.199219 0)"/>
      </g>
     </g>
    </g>
    <g id="xtick_5">
     <g id="line2d_5">
      <g>
       <use xlink:href="#m6cf30a9d51" x="240.886633" y="228.96" style="stroke: #000000; stroke-width: 0.8"/>
      </g>
     </g>
     <g id="text_5">
      <!-- 2000-05 -->
      <g transform="translate(219.995227 243.558437) scale(0.1 -0.1)">
       <defs>
        <path id="DejaVuSans-35" d="M 691 4666 
L 3169 4666 
L 3169 4134 
L 1269 4134 
L 1269 2991 
Q 1406 3038 1543 3061 
Q 1681 3084 1819 3084 
Q 2600 3084 3056 2656 
Q 3513 2228 3513 1497 
Q 3513 744 3044 326 
Q 2575 -91 1722 -91 
Q 1428 -91 1123 -41 
Q 819 9 494 109 
L 494 744 
Q 775 591 1075 516 
Q 1375 441 1709 441 
Q 2250 441 2565 725 
Q 2881 1009 2881 1497 
Q 2881 1984 2565 2268 
Q 2250 2553 1709 2553 
Q 1456 2553 1204 2497 
Q 953 2441 691 2322 
L 691 4666 
z
" transform="scale(0.015625)"/>
       </defs>
       <use xlink:href="#DejaVuSans-32"/>
       <use xlink:href="#DejaVuSans-30" transform="translate(63.623047 0)"/>
       <use xlink:href="#DejaVuSans-30" transform="translate(127.246094 0)"/>
       <use xlink:href="#DejaVuSans-30" transform="translate(190.869141 0)"/>
       <use xlink:href="#DejaVuSans-2d" transform="translate(254.492188 0)"/>
       <use xlink:href="#DejaVuSans-30" transform="translate(290.576172 0)"/>
       <use xlink:href="#DejaVuSans-35" transform="translate(354.199219 0)"/>
      </g>
     </g>
    </g>
    <g id="xtick_6">
     <g id="line2d_6">
      <g>
       <use xlink:href="#m6cf30a9d51" x="288.300064" y="228.96" style="stroke: #000000; stroke-width: 0.8"/>
      </g>
     </g>
     <g id="text_6">
      <!-- 2000-06 -->
      <g transform="translate(267.408658 243.558437) scale(0.1 -0.1)">
       <defs>
        <path id="DejaVuSans-36" d="M 2113 2584 
Q 1688 2584 1439 2293 
Q 1191 2003 1191 1497 
Q 1191 994 1439 701 
Q 1688 409 2113 409 
Q 2538 409 2786 701 
Q 3034 994 3034 1497 
Q 3034 2003 2786 2293 
Q 2538 2584 2113 2584 
z
M 3366 4563 
L 3366 3988 
Q 3128 4100 2886 4159 
Q 2644 4219 2406 4219 
Q 1781 4219 1451 3797 
Q 1122 3375 1075 2522 
Q 1259 2794 1537 2939 
Q 1816 3084 2150 3084 
Q 2853 3084 3261 2657 
Q 3669 2231 3669 1497 
Q 3669 778 3244 343 
Q 2819 -91 2113 -91 
Q 1303 -91 875 529 
Q 447 1150 447 2328 
Q 447 3434 972 4092 
Q 1497 4750 2381 4750 
Q 2619 4750 2861 4703 
Q 3103 4656 3366 4563 
z
" transform="scale(0.015625)"/>
       </defs>
       <use xlink:href="#DejaVuSans-32"/>
       <use xlink:href="#DejaVuSans-30" transform="translate(63.623047 0)"/>
       <use xlink:href="#DejaVuSans-30" transform="translate(127.246094 0)"/>
       <use xlink:href="#DejaVuSans-30" transform="translate(190.869141 0)"/>
       <use xlink:href="#DejaVuSans-2d" transform="translate(254.492188 0)"/>
       <use xlink:href="#DejaVuSans-30" transform="translate(290.576172 0)"/>
       <use xlink:href="#DejaVuSans-36" transform="translate(354.199219 0)"/>
      </g>
     </g>
    </g>
    <g id="xtick_7">
     <g id="line2d_7">
      <g>
       <use xlink:href="#m6cf30a9d51" x="334.18403" y="228.96" style="stroke: #000000; stroke-width: 0.8"/>
      </g>
     </g>
     <g id="text_7">
      <!-- 2000-07 -->
      <g transform="translate(313.292623 243.558437) scale(0.1 -0.1)">
       <defs>
        <path id="DejaVuSans-37" d="M 525 4666 
L 3525 4666 
L 3525 4397 
L 1831 0 
L 1172 0 
L 2766 4134 
L 525 4134 
L 525 4666 
z
" transform="scale(0.015625)"/>
       </defs>
       <use xlink:href="#DejaVuSans-32"/>
       <use xlink:href="#DejaVuSans-30" transform="translate(63.623047 0)"/>
       <use xlink:href="#DejaVuSans-30" transform="translate(127.246094 0)"/>
       <use xlink:href="#DejaVuSans-30" transform="translate(190.869141 0)"/>
       <use xlink:href="#DejaVuSans-2d" transform="translate(254.492188 0)"/>
       <use xlink:href="#DejaVuSans-30" transform="translate(290.576172 0)"/>
       <use xlink:href="#DejaVuSans-37" transform="translate(354.199219 0)"/>
      </g>
     </g>
    </g>
    <g id="text_8">
     <!-- row [datetime] -->
     <g transform="translate(170.85 257.236562) scale(0.1 -0.1)">
      <defs>
       <path id="DejaVuSans-72" d="M 2631 2963 
Q 2534 3019 2420 3045 
Q 2306 3072 2169 3072 
Q 1681 3072 1420 2755 
Q 1159 2438 1159 1844 
L 1159 0 
L 581 0 
L 581 3500 
L 1159 3500 
L 1159 2956 
Q 1341 3275 1631 3429 
Q 1922 3584 2338 3584 
Q 2397 3584 2469 3576 
Q 2541 3569 2628 3553 
L 2631 2963 
z
" transform="scale(0.015625)"/>
       <path id="DejaVuSans-6f" d="M 1959 3097 
Q 1497 3097 1228 2736 
Q 959 2375 959 1747 
Q 959 1119 1226 758 
Q 1494 397 1959 397 
Q 2419 397 2687 759 
Q 2956 1122 2956 1747 
Q 2956 2369 2687 2733 
Q 2419 3097 1959 3097 
z
M 1959 3584 
Q 2709 3584 3137 3096 
Q 3566 2609 3566 1747 
Q 3566 888 3137 398 
Q 2709 -91 1959 -91 
Q 1206 -91 779 398 
Q 353 888 353 1747 
Q 353 2609 779 3096 
Q 1206 3584 1959 3584 
z
" transform="scale(0.015625)"/>
       <path id="DejaVuSans-77" d="M 269 3500 
L 844 3500 
L 1563 769 
L 2278 3500 
L 2956 3500 
L 3675 769 
L 4391 3500 
L 4966 3500 
L 4050 0 
L 3372 0 
L 2619 2869 
L 1863 0 
L 1184 0 
L 269 3500 
z
" transform="scale(0.015625)"/>
       <path id="DejaVuSans-20" transform="scale(0.015625)"/>
       <path id="DejaVuSans-5b" d="M 550 4863 
L 1875 4863 
L 1875 4416 
L 1125 4416 
L 1125 -397 
L 1875 -397 
L 1875 -844 
L 550 -844 
L 550 4863 
z
" transform="scale(0.015625)"/>
       <path id="DejaVuSans-64" d="M 2906 2969 
L 2906 4863 
L 3481 4863 
L 3481 0 
L 2906 0 
L 2906 525 
Q 2725 213 2448 61 
Q 2172 -91 1784 -91 
Q 1150 -91 751 415 
Q 353 922 353 1747 
Q 353 2572 751 3078 
Q 1150 3584 1784 3584 
Q 2172 3584 2448 3432 
Q 2725 3281 2906 2969 
z
M 947 1747 
Q 947 1113 1208 752 
Q 1469 391 1925 391 
Q 2381 391 2643 752 
Q 2906 1113 2906 1747 
Q 2906 2381 2643 2742 
Q 2381 3103 1925 3103 
Q 1469 3103 1208 2742 
Q 947 2381 947 1747 
z
" transform="scale(0.015625)"/>
       <path id="DejaVuSans-61" d="M 2194 1759 
Q 1497 1759 1228 1600 
Q 959 1441 959 1056 
Q 959 750 1161 570 
Q 1363 391 1709 391 
Q 2188 391 2477 730 
Q 2766 1069 2766 1631 
L 2766 1759 
L 2194 1759 
z
M 3341 1997 
L 3341 0 
L 2766 0 
L 2766 531 
Q 2569 213 2275 61 
Q 1981 -91 1556 -91 
Q 1019 -91 701 211 
Q 384 513 384 1019 
Q 384 1609 779 1909 
Q 1175 2209 1959 2209 
L 2766 2209 
L 2766 2266 
Q 2766 2663 2505 2880 
Q 2244 3097 1772 3097 
Q 1472 3097 1187 3025 
Q 903 2953 641 2809 
L 641 3341 
Q 956 3463 1253 3523 
Q 1550 3584 1831 3584 
Q 2591 3584 2966 3190 
Q 3341 2797 3341 1997 
z
" transform="scale(0.015625)"/>
       <path id="DejaVuSans-74" d="M 1172 4494 
L 1172 3500 
L 2356 3500 
L 2356 3053 
L 1172 3053 
L 1172 1153 
Q 1172 725 1289 603 
Q 1406 481 1766 481 
L 2356 481 
L 2356 0 
L 1766 0 
Q 1100 0 847 248 
Q 594 497 594 1153 
L 594 3053 
L 172 3053 
L 172 3500 
L 594 3500 
L 594 4494 
L 1172 4494 
z
" transform="scale(0.015625)"/>
       <path id="DejaVuSans-65" d="M 3597 1894 
L 3597 1613 
L 953 1613 
Q 991 1019 1311 708 
Q 1631 397 2203 397 
Q 2534 397 2845 478 
Q 3156 559 3463 722 
L 3463 178 
Q 3153 47 2828 -22 
Q 2503 -91 2169 -91 
Q 1331 -91 842 396 
Q 353 884 353 1716 
Q 353 2575 817 3079 
Q 1281 3584 2069 3584 
Q 2775 3584 3186 3129 
Q 3597 2675 3597 1894 
z
M 3022 2063 
Q 3016 2534 2758 2815 
Q 2500 3097 2075 3097 
Q 1594 3097 1305 2825 
Q 1016 2553 972 2059 
L 3022 2063 
z
" transform="scale(0.015625)"/>
       <path id="DejaVuSans-69" d="M 603 3500 
L 1178 3500 
L 1178 0 
L 603 0 
L 603 3500 
z
M 603 4863 
L 1178 4863 
L 1178 4134 
L 603 4134 
L 603 4863 
z
" transform="scale(0.015625)"/>
       <path id="DejaVuSans-6d" d="M 3328 2828 
Q 3544 3216 3844 3400 
Q 4144 3584 4550 3584 
Q 5097 3584 5394 3201 
Q 5691 2819 5691 2113 
L 5691 0 
L 5113 0 
L 5113 2094 
Q 5113 2597 4934 2840 
Q 4756 3084 4391 3084 
Q 3944 3084 3684 2787 
Q 3425 2491 3425 1978 
L 3425 0 
L 2847 0 
L 2847 2094 
Q 2847 2600 2669 2842 
Q 2491 3084 2119 3084 
Q 1678 3084 1418 2786 
Q 1159 2488 1159 1978 
L 1159 0 
L 581 0 
L 581 3500 
L 1159 3500 
L 1159 2956 
Q 1356 3278 1631 3431 
Q 1906 3584 2284 3584 
Q 2666 3584 2933 3390 
Q 3200 3197 3328 2828 
z
" transform="scale(0.015625)"/>
       <path id="DejaVuSans-5d" d="M 1947 4863 
L 1947 -844 
L 622 -844 
L 622 -397 
L 1369 -397 
L 1369 4416 
L 622 4416 
L 622 4863 
L 1947 4863 
z
" transform="scale(0.015625)"/>
      </defs>
      <use xlink:href="#DejaVuSans-72"/>
      <use xlink:href="#DejaVuSans-6f" transform="translate(38.863281 0)"/>
      <use xlink:href="#DejaVuSans-77" transform="translate(100.044922 0)"/>
      <use xlink:href="#DejaVuSans-20" transform="translate(181.832031 0)"/>
      <use xlink:href="#DejaVuSans-5b" transform="translate(213.619141 0)"/>
      <use xlink:href="#DejaVuSans-64" transform="translate(252.632812 0)"/>
      <use xlink:href="#DejaVuSans-61" transform="translate(316.109375 0)"/>
      <use xlink:href="#DejaVuSans-74" transform="translate(377.388672 0)"/>
      <use xlink:href="#DejaVuSans-65" transform="translate(416.597656 0)"/>
      <use xlink:href="#DejaVuSans-74" transform="translate(478.121094 0)"/>
      <use xlink:href="#DejaVuSans-69" transform="translate(517.330078 0)"/>
      <use xlink:href="#DejaVuSans-6d" transform="translate(545.113281 0)"/>
      <use xlink:href="#DejaVuSans-65" transform="translate(642.525391 0)"/>
      <use xlink:href="#DejaVuSans-5d" transform="translate(704.048828 0)"/>
     </g>
    </g>
   </g>
   <g id="matplotlib.axis_2">
    <g id="ytick_1">
     <g id="line2d_8">
      <defs>
       <path id="m08cd219a64" d="M 0 0 
L -3.5 0 
" style="stroke: #000000; stroke-width: 0.8"/>
      </defs>
      <g>
       <use xlink:href="#m08cd219a64" x="40.603125" y="206.867118" style="stroke: #000000; stroke-width: 0.8"/>
      </g>
     </g>
     <g id="text_9">
      <!-- 0 -->
      <g transform="translate(27.240625 210.666336) scale(0.1 -0.1)">
       <use xlink:href="#DejaVuSans-30"/>
      </g>
     </g>
    </g>
    <g id="ytick_2">
     <g id="line2d_9">
      <g>
       <use xlink:href="#m08cd219a64" x="40.603125" y="171.790835" style="stroke: #000000; stroke-width: 0.8"/>
      </g>
     </g>
     <g id="text_10">
      <!-- 5 -->
      <g transform="translate(27.240625 175.590054) scale(0.1 -0.1)">
       <use xlink:href="#DejaVuSans-35"/>
      </g>
     </g>
    </g>
    <g id="ytick_3">
     <g id="line2d_10">
      <g>
       <use xlink:href="#m08cd219a64" x="40.603125" y="136.714553" style="stroke: #000000; stroke-width: 0.8"/>
      </g>
     </g>
     <g id="text_11">
      <!-- 10 -->
      <g transform="translate(20.878125 140.513772) scale(0.1 -0.1)">
       <use xlink:href="#DejaVuSans-31"/>
       <use xlink:href="#DejaVuSans-30" transform="translate(63.623047 0)"/>
      </g>
     </g>
    </g>
    <g id="ytick_4">
     <g id="line2d_11">
      <g>
       <use xlink:href="#m08cd219a64" x="40.603125" y="101.638271" style="stroke: #000000; stroke-width: 0.8"/>
      </g>
     </g>
     <g id="text_12">
      <!-- 15 -->
      <g transform="translate(20.878125 105.43749) scale(0.1 -0.1)">
       <use xlink:href="#DejaVuSans-31"/>
       <use xlink:href="#DejaVuSans-35" transform="translate(63.623047 0)"/>
      </g>
     </g>
    </g>
    <g id="ytick_5">
     <g id="line2d_12">
      <g>
       <use xlink:href="#m08cd219a64" x="40.603125" y="66.561989" style="stroke: #000000; stroke-width: 0.8"/>
      </g>
     </g>
     <g id="text_13">
      <!-- 20 -->
      <g transform="translate(20.878125 70.361208) scale(0.1 -0.1)">
       <use xlink:href="#DejaVuSans-32"/>
       <use xlink:href="#DejaVuSans-30" transform="translate(63.623047 0)"/>
      </g>
     </g>
    </g>
    <g id="ytick_6">
     <g id="line2d_13">
      <g>
       <use xlink:href="#m08cd219a64" x="40.603125" y="31.485707" style="stroke: #000000; stroke-width: 0.8"/>
      </g>
     </g>
     <g id="text_14">
      <!-- 25 -->
      <g transform="translate(20.878125 35.284926) scale(0.1 -0.1)">
       <use xlink:href="#DejaVuSans-32"/>
       <use xlink:href="#DejaVuSans-35" transform="translate(63.623047 0)"/>
      </g>
     </g>
    </g>
    <g id="text_15">
     <!-- [dimensionless] -->
     <g transform="translate(14.798438 157.557344) rotate(-90) scale(0.1 -0.1)">
      <defs>
       <path id="DejaVuSans-6e" d="M 3513 2113 
L 3513 0 
L 2938 0 
L 2938 2094 
Q 2938 2591 2744 2837 
Q 2550 3084 2163 3084 
Q 1697 3084 1428 2787 
Q 1159 2491 1159 1978 
L 1159 0 
L 581 0 
L 581 3500 
L 1159 3500 
L 1159 2956 
Q 1366 3272 1645 3428 
Q 1925 3584 2291 3584 
Q 2894 3584 3203 3211 
Q 3513 2838 3513 2113 
z
" transform="scale(0.015625)"/>
       <path id="DejaVuSans-73" d="M 2834 3397 
L 2834 2853 
Q 2591 2978 2328 3040 
Q 2066 3103 1784 3103 
Q 1356 3103 1142 2972 
Q 928 2841 928 2578 
Q 928 2378 1081 2264 
Q 1234 2150 1697 2047 
L 1894 2003 
Q 2506 1872 2764 1633 
Q 3022 1394 3022 966 
Q 3022 478 2636 193 
Q 2250 -91 1575 -91 
Q 1294 -91 989 -36 
Q 684 19 347 128 
L 347 722 
Q 666 556 975 473 
Q 1284 391 1588 391 
Q 1994 391 2212 530 
Q 2431 669 2431 922 
Q 2431 1156 2273 1281 
Q 2116 1406 1581 1522 
L 1381 1569 
Q 847 1681 609 1914 
Q 372 2147 372 2553 
Q 372 3047 722 3315 
Q 1072 3584 1716 3584 
Q 2034 3584 2315 3537 
Q 2597 3491 2834 3397 
z
" transform="scale(0.015625)"/>
       <path id="DejaVuSans-6c" d="M 603 4863 
L 1178 4863 
L 1178 0 
L 603 0 
L 603 4863 
z
" transform="scale(0.015625)"/>
      </defs>
      <use xlink:href="#DejaVuSans-5b"/>
      <use xlink:href="#DejaVuSans-64" transform="translate(39.013672 0)"/>
      <use xlink:href="#DejaVuSans-69" transform="translate(102.490234 0)"/>
      <use xlink:href="#DejaVuSans-6d" transform="translate(130.273438 0)"/>
      <use xlink:href="#DejaVuSans-65" transform="translate(227.685547 0)"/>
      <use xlink:href="#DejaVuSans-6e" transform="translate(289.208984 0)"/>
      <use xlink:href="#DejaVuSans-73" transform="translate(352.587891 0)"/>
      <use xlink:href="#DejaVuSans-69" transform="translate(404.6875 0)"/>
      <use xlink:href="#DejaVuSans-6f" transform="translate(432.470703 0)"/>
      <use xlink:href="#DejaVuSans-6e" transform="translate(493.652344 0)"/>
      <use xlink:href="#DejaVuSans-6c" transform="translate(557.03125 0)"/>
      <use xlink:href="#DejaVuSans-65" transform="translate(584.814453 0)"/>
      <use xlink:href="#DejaVuSans-73" transform="translate(646.337891 0)"/>
      <use xlink:href="#DejaVuSans-73" transform="translate(698.4375 0)"/>
      <use xlink:href="#DejaVuSans-5d" transform="translate(750.537109 0)"/>
     </g>
    </g>
   </g>
   <g id="line2d_14">
    <path d="M 55.821307 205.925811 
L 57.350772 205.44537 
L 58.880238 202.458815 
L 60.409703 202.319636 
L 61.939169 215.154488 
L 63.468634 210.435153 
L 64.9981 215.311414 
L 66.527565 216.938703 
L 68.057031 195.319183 
L 69.586496 191.59121 
L 71.115962 186.371502 
L 72.645427 195.547523 
L 74.174893 188.05544 
L 75.704358 186.694241 
L 77.233824 188.596514 
L 78.763289 195.798775 
L 80.292755 189.939521 
L 81.82222 190.812655 
L 83.351686 184.804052 
L 84.881151 185.56837 
L 86.410617 179.907794 
L 87.940083 164.305812 
L 89.469548 167.956176 
L 90.999014 169.736698 
L 92.528479 167.775233 
L 94.057945 150.419723 
L 95.58741 150.396836 
L 97.116876 146.256672 
L 98.646341 148.284958 
L 100.175807 165.39512 
L 101.705272 170.734811 
L 104.764203 158.732541 
L 106.293669 163.401354 
L 107.823134 174.467941 
L 109.3526 184.619259 
L 110.882065 184.148189 
L 112.411531 176.980683 
L 113.940996 181.159475 
L 115.470462 186.393505 
L 116.999927 182.61093 
L 118.529393 181.41779 
L 120.058858 190.398704 
L 121.588324 186.574767 
L 123.117789 203.645821 
L 124.647255 200.746082 
L 126.17672 184.82298 
L 127.706186 180.312192 
L 129.235651 177.435371 
L 130.765117 169.050968 
L 132.294582 170.209582 
L 133.824048 165.333352 
L 135.353513 163.797643 
L 136.882979 163.269456 
L 138.412444 176.178787 
L 139.94191 168.394604 
L 141.471375 161.605986 
L 143.000841 157.856234 
L 144.530306 150.040487 
L 146.059772 148.308464 
L 147.589237 140.53881 
L 149.118703 139.510157 
L 150.648168 140.578445 
L 152.177634 139.738143 
L 153.707099 131.83596 
L 156.76603 137.578731 
L 158.295496 141.075844 
L 159.824961 133.331727 
L 161.354427 133.94052 
L 162.883892 132.984366 
L 164.413358 136.846714 
L 165.942823 141.324223 
L 167.472289 149.935204 
L 169.001755 142.004538 
L 170.53122 162.157134 
L 172.060686 153.616263 
L 173.590151 153.158261 
L 175.119617 154.271568 
L 176.649082 158.329886 
L 178.178548 163.271083 
L 179.708013 149.220762 
L 181.237479 138.392245 
L 182.766944 137.61543 
L 184.29641 136.043081 
L 185.825875 130.438211 
L 187.355341 130.642898 
L 188.884806 133.629095 
L 190.414272 119.967386 
L 191.943737 122.89471 
L 193.473203 123.688965 
L 195.002668 115.981814 
L 196.532134 117.075019 
L 198.061599 120.023833 
L 199.591065 112.575222 
L 201.12053 105.692892 
L 202.649996 106.452528 
L 204.179461 106.448443 
L 205.708927 107.111468 
L 207.238392 109.153976 
L 208.767858 111.983704 
L 210.297323 105.813089 
L 211.826789 104.468862 
L 213.356254 109.888999 
L 214.88572 112.494388 
L 216.415185 106.687154 
L 217.944651 115.150672 
L 219.474116 108.13789 
L 221.003582 105.27611 
L 222.533047 99.730013 
L 224.062513 99.240442 
L 225.591978 105.634416 
L 227.121444 99.54779 
L 228.650909 96.090051 
L 230.180375 88.246297 
L 231.70984 93.708082 
L 233.239306 86.451627 
L 234.768771 88.070151 
L 236.298237 83.466317 
L 237.827702 77.603459 
L 239.357168 75.477017 
L 240.886633 75.10075 
L 242.416099 77.284919 
L 243.945564 85.964301 
L 245.47503 104.370826 
L 247.004495 111.153569 
L 248.533961 97.794668 
L 250.063427 96.681224 
L 251.592892 103.318299 
L 253.122358 107.187366 
L 254.651823 112.281702 
L 256.181289 120.060214 
L 257.710754 114.622083 
L 259.24022 121.914286 
L 260.769685 128.057759 
L 263.828616 104.022933 
L 265.358082 94.410729 
L 266.887547 96.924653 
L 268.417013 100.71124 
L 269.946478 106.673573 
L 271.475944 102.46326 
L 273.005409 104.82353 
L 274.534875 93.980506 
L 276.06434 80.988543 
L 277.593806 81.604258 
L 279.123271 94.764824 
L 280.652737 95.515321 
L 282.182202 87.227078 
L 283.711668 78.049464 
L 285.241133 80.528235 
L 286.770599 76.506527 
L 288.300064 86.098055 
L 289.82953 83.7026 
L 291.358995 68.689127 
L 292.888461 74.342823 
L 294.417926 81.83292 
L 295.947392 76.62443 
L 297.476857 78.705593 
L 300.535788 86.052098 
L 302.065254 83.59159 
L 303.594719 66.727082 
L 305.124185 61.349876 
L 306.65365 64.238714 
L 308.183116 58.701665 
L 311.242047 67.476276 
L 312.771512 58.442048 
L 314.300978 66.696965 
L 315.830443 66.66154 
L 317.359909 62.953517 
L 318.889374 62.50594 
L 320.41884 67.261157 
L 321.948305 66.80709 
L 323.477771 62.361452 
L 325.007236 55.020025 
L 326.536702 50.877408 
L 328.066167 56.853723 
L 329.595633 57.967128 
L 331.125099 54.958995 
L 332.654564 58.587329 
L 334.18403 63.000242 
L 335.713495 64.179 
L 337.242961 70.211288 
L 338.772426 81.227744 
L 340.301892 86.905637 
L 341.831357 102.486706 
L 343.360823 96.577445 
L 344.890288 95.160142 
L 346.419754 83.899017 
L 347.949219 71.370245 
L 349.478685 64.781297 
L 351.00815 57.470342 
L 352.537616 56.146269 
L 354.067081 59.551754 
L 355.596547 55.835179 
L 357.126012 59.507535 
L 358.655478 53.251713 
L 360.184943 58.771953 
L 360.184943 58.771953 
" clip-path="url(#p9cc7ffdf14)" style="fill: none; stroke: #1f77b4; stroke-width: 1.5; stroke-linecap: square"/>
   </g>
   <g id="line2d_15">
    <path d="M 55.821307 202.082946 
L 57.350772 188.899813 
L 58.880238 205.874905 
L 60.409703 201.047791 
L 61.939169 207.820476 
L 63.468634 199.31718 
L 64.9981 175.026018 
L 66.527565 174.080368 
L 68.057031 175.311342 
L 69.586496 161.111902 
L 71.115962 168.160828 
L 72.645427 167.471752 
L 74.174893 163.223978 
L 75.704358 176.724203 
L 77.233824 179.896143 
L 78.763289 186.16231 
L 80.292755 183.966023 
L 81.82222 183.26783 
L 83.351686 189.16343 
L 84.881151 179.339836 
L 86.410617 179.183818 
L 87.940083 189.494765 
L 89.469548 194.252412 
L 90.999014 186.463257 
L 92.528479 176.914851 
L 94.057945 180.748324 
L 95.58741 185.634872 
L 97.116876 189.086681 
L 98.646341 196.454355 
L 100.175807 202.253296 
L 101.705272 209.772254 
L 103.234738 206.495522 
L 104.764203 199.091596 
L 106.293669 197.327673 
L 107.823134 195.354123 
L 109.3526 189.904037 
L 110.882065 177.336187 
L 112.411531 186.139289 
L 113.940996 180.547596 
L 115.470462 190.684156 
L 116.999927 184.682997 
L 118.529393 180.620625 
L 120.058858 179.152016 
L 123.117789 161.936732 
L 124.647255 169.280877 
L 126.17672 168.770619 
L 127.706186 165.376707 
L 129.235651 164.6783 
L 130.765117 163.671795 
L 132.294582 164.879437 
L 133.824048 167.618366 
L 135.353513 162.300198 
L 136.882979 162.709787 
L 138.412444 157.906299 
L 139.94191 162.265626 
L 141.471375 158.025633 
L 143.000841 159.730232 
L 146.059772 188.599602 
L 147.589237 183.976173 
L 149.118703 174.674879 
L 150.648168 181.243902 
L 152.177634 185.742605 
L 153.707099 184.138952 
L 155.236565 177.497338 
L 156.76603 190.040497 
L 158.295496 183.728069 
L 159.824961 176.322588 
L 161.354427 172.841218 
L 162.883892 181.867401 
L 164.413358 187.241074 
L 165.942823 187.618008 
L 167.472289 183.905669 
L 169.001755 178.074069 
L 170.53122 177.905353 
L 172.060686 186.745953 
L 173.590151 181.581269 
L 175.119617 192.195943 
L 176.649082 177.685475 
L 178.178548 186.413153 
L 179.708013 190.216267 
L 181.237479 194.693924 
L 182.766944 201.18798 
L 184.29641 198.491936 
L 185.825875 202.406803 
L 187.355341 204.653116 
L 188.884806 203.142394 
L 190.414272 214.90174 
L 191.943737 217.748717 
L 193.473203 216.317036 
L 195.002668 221.459706 
L 196.532134 211.175591 
L 198.061599 213.165363 
L 199.591065 199.574695 
L 201.12053 197.41267 
L 202.649996 206.069495 
L 204.179461 215.558528 
L 205.708927 213.965634 
L 207.238392 215.437448 
L 208.767858 203.68553 
L 210.297323 189.35606 
L 213.356254 179.271821 
L 214.88572 179.495819 
L 216.415185 170.272733 
L 217.944651 165.94908 
L 219.474116 167.051832 
L 221.003582 156.652308 
L 222.533047 156.372129 
L 224.062513 151.545535 
L 225.591978 157.841114 
L 227.121444 153.55387 
L 228.650909 156.130702 
L 230.180375 164.893721 
L 231.70984 166.024188 
L 233.239306 161.120632 
L 234.768771 161.396537 
L 236.298237 172.086376 
L 237.827702 171.880271 
L 239.357168 171.910173 
L 240.886633 167.718705 
L 242.416099 167.587165 
L 243.945564 152.817269 
L 245.47503 147.500935 
L 247.004495 146.240375 
L 248.533961 151.257313 
L 250.063427 153.076031 
L 251.592892 152.627734 
L 253.122358 156.98281 
L 254.651823 151.320296 
L 256.181289 150.505642 
L 257.710754 136.465666 
L 259.24022 130.721278 
L 260.769685 143.755995 
L 262.299151 144.467757 
L 263.828616 143.233532 
L 265.358082 130.395098 
L 266.887547 137.397986 
L 268.417013 142.983183 
L 269.946478 140.382791 
L 271.475944 141.462725 
L 273.005409 144.800427 
L 274.534875 145.33051 
L 276.06434 136.769356 
L 277.593806 125.733202 
L 279.123271 129.897101 
L 280.652737 133.429438 
L 282.182202 130.682496 
L 283.711668 129.274002 
L 285.241133 131.00121 
L 286.770599 131.45306 
L 288.300064 133.562148 
L 289.82953 137.140632 
L 291.358995 134.11264 
L 292.888461 139.65214 
L 294.417926 134.597014 
L 295.947392 146.825767 
L 297.476857 152.312126 
L 299.006323 147.361572 
L 300.535788 145.099915 
L 302.065254 161.704022 
L 303.594719 150.879231 
L 305.124185 136.316028 
L 306.65365 123.154641 
L 308.183116 121.571661 
L 309.712581 118.965864 
L 311.242047 118.019223 
L 312.771512 112.963753 
L 314.300978 105.672195 
L 315.830443 106.465697 
L 317.359909 96.619125 
L 318.889374 106.900744 
L 320.41884 103.543763 
L 321.948305 105.667062 
L 323.477771 98.851053 
L 325.007236 97.932187 
L 326.536702 96.137025 
L 328.066167 112.371279 
L 329.595633 106.063888 
L 331.125099 104.229543 
L 332.654564 101.818336 
L 334.18403 98.129673 
L 335.713495 91.777301 
L 337.242961 90.249941 
L 338.772426 86.747468 
L 340.301892 84.208646 
L 341.831357 72.33092 
L 343.360823 71.453818 
L 344.890288 72.37614 
L 346.419754 78.835425 
L 349.478685 87.133641 
L 351.00815 83.057504 
L 352.537616 78.251577 
L 354.067081 79.125998 
L 357.126012 92.335555 
L 358.655478 87.086902 
L 360.184943 91.83078 
L 360.184943 91.83078 
" clip-path="url(#p9cc7ffdf14)" style="fill: none; stroke: #ff7f0e; stroke-width: 1.5; stroke-linecap: square"/>
   </g>
   <g id="line2d_16">
    <path d="M 55.821307 190.433506 
L 57.350772 190.079915 
L 58.880238 197.618829 
L 60.409703 206.499559 
L 61.939169 202.327281 
L 63.468634 201.438273 
L 64.9981 202.591055 
L 66.527565 215.753192 
L 68.057031 217.19937 
L 69.586496 213.213615 
L 71.115962 206.250624 
L 72.645427 215.170675 
L 74.174893 207.598267 
L 75.704358 202.906161 
L 77.233824 212.527644 
L 78.763289 216.84738 
L 80.292755 218.431027 
L 81.82222 203.285384 
L 83.351686 197.144862 
L 84.881151 200.952933 
L 86.410617 195.322498 
L 87.940083 184.312443 
L 89.469548 183.337041 
L 90.999014 180.820635 
L 92.528479 174.366901 
L 94.057945 180.161914 
L 95.58741 158.571742 
L 97.116876 153.815617 
L 98.646341 140.696325 
L 100.175807 139.030727 
L 101.705272 146.722933 
L 103.234738 153.410455 
L 106.293669 152.99988 
L 107.823134 150.6181 
L 109.3526 147.93586 
L 110.882065 143.189924 
L 112.411531 144.019291 
L 113.940996 145.502465 
L 115.470462 148.864994 
L 116.999927 139.84125 
L 118.529393 139.76505 
L 120.058858 129.18112 
L 121.588324 136.073975 
L 123.117789 138.037466 
L 124.647255 135.234472 
L 126.17672 127.391298 
L 127.706186 112.719498 
L 129.235651 104.453012 
L 130.765117 114.292691 
L 132.294582 108.913843 
L 133.824048 105.625123 
L 136.882979 115.592451 
L 138.412444 116.188144 
L 139.94191 100.072458 
L 141.471375 99.641227 
L 143.000841 95.116172 
L 144.530306 88.558531 
L 146.059772 89.154042 
L 147.589237 91.478037 
L 149.118703 96.697239 
L 150.648168 87.903639 
L 152.177634 76.440671 
L 153.707099 74.460721 
L 155.236565 77.079493 
L 156.76603 82.864704 
L 158.295496 81.73165 
L 159.824961 81.974535 
L 161.354427 79.859684 
L 164.413358 49.148583 
L 165.942823 49.982911 
L 167.472289 57.27386 
L 169.001755 58.265148 
L 170.53122 68.277539 
L 173.590151 83.836744 
L 175.119617 89.972681 
L 176.649082 85.123602 
L 178.178548 77.465001 
L 179.708013 83.146648 
L 181.237479 86.841003 
L 182.766944 72.404688 
L 184.29641 72.409888 
L 185.825875 76.941653 
L 187.355341 77.31255 
L 188.884806 71.318196 
L 190.414272 82.476554 
L 191.943737 72.145064 
L 193.473203 60.976241 
L 195.002668 55.629343 
L 196.532134 63.652425 
L 198.061599 67.514025 
L 199.591065 57.849594 
L 201.12053 51.450776 
L 202.649996 57.010347 
L 204.179461 58.09281 
L 205.708927 63.146892 
L 207.238392 51.832433 
L 208.767858 59.211651 
L 210.297323 63.850939 
L 211.826789 67.813574 
L 213.356254 65.384126 
L 214.88572 71.780044 
L 216.415185 75.188913 
L 217.944651 73.448678 
L 219.474116 79.456626 
L 221.003582 80.693828 
L 222.533047 93.483739 
L 224.062513 102.945973 
L 225.591978 108.429924 
L 227.121444 107.463014 
L 228.650909 104.09197 
L 230.180375 115.037485 
L 231.70984 114.556571 
L 233.239306 110.824118 
L 234.768771 115.229947 
L 236.298237 115.430855 
L 237.827702 112.162796 
L 239.357168 116.706047 
L 240.886633 117.262501 
L 242.416099 114.4007 
L 243.945564 119.863897 
L 245.47503 116.66311 
L 247.004495 121.928811 
L 248.533961 117.301838 
L 250.063427 129.360122 
L 251.592892 133.034224 
L 253.122358 126.014179 
L 254.651823 126.634548 
L 256.181289 134.940403 
L 257.710754 132.696022 
L 259.24022 141.845802 
L 260.769685 153.702362 
L 262.299151 163.314674 
L 263.828616 165.20981 
L 265.358082 169.728424 
L 266.887547 177.80948 
L 268.417013 183.043559 
L 269.946478 174.850569 
L 271.475944 167.702755 
L 273.005409 179.623571 
L 274.534875 178.41356 
L 276.06434 178.818636 
L 277.593806 177.130988 
L 279.123271 176.764594 
L 280.652737 181.991605 
L 282.182202 171.273897 
L 283.711668 174.701545 
L 285.241133 161.226285 
L 286.770599 154.87188 
L 288.300064 149.758355 
L 289.82953 155.287918 
L 291.358995 140.188618 
L 292.888461 145.012345 
L 294.417926 145.785186 
L 295.947392 148.127889 
L 297.476857 148.656149 
L 299.006323 154.526871 
L 300.535788 149.48588 
L 302.065254 149.769555 
L 303.594719 165.567992 
L 305.124185 170.923684 
L 306.65365 172.335049 
L 308.183116 154.460232 
L 309.712581 156.388736 
L 311.242047 160.481435 
L 312.771512 168.628211 
L 314.300978 172.016488 
L 315.830443 178.05582 
L 317.359909 179.259357 
L 318.889374 176.376165 
L 320.41884 168.865065 
L 321.948305 170.016878 
L 323.477771 175.639934 
L 325.007236 188.456726 
L 326.536702 188.283824 
L 328.066167 185.294756 
L 329.595633 188.222742 
L 331.125099 185.53889 
L 332.654564 199.329041 
L 334.18403 201.983463 
L 335.713495 191.770272 
L 337.242961 197.580555 
L 338.772426 186.31901 
L 340.301892 189.85162 
L 341.831357 198.76469 
L 343.360823 214.637598 
L 344.890288 206.454257 
L 346.419754 202.412471 
L 347.949219 199.880332 
L 349.478685 197.67502 
L 351.00815 201.411985 
L 352.537616 204.028162 
L 354.067081 201.445743 
L 355.596547 200.956641 
L 357.126012 206.265662 
L 358.655478 205.330122 
L 360.184943 210.455305 
L 360.184943 210.455305 
" clip-path="url(#p9cc7ffdf14)" style="fill: none; stroke: #2ca02c; stroke-width: 1.5; stroke-linecap: square"/>
   </g>
   <g id="line2d_17">
    <path d="M 55.821307 202.46299 
L 57.350772 197.499582 
L 58.880238 198.934404 
L 60.409703 211.853961 
L 61.939169 204.587146 
L 63.468634 204.237469 
L 64.9981 200.478063 
L 66.527565 194.127936 
L 68.057031 185.983089 
L 69.586496 186.891808 
L 71.115962 175.67231 
L 72.645427 169.811392 
L 74.174893 157.899302 
L 75.704358 158.010153 
L 77.233824 142.337808 
L 80.292755 144.312391 
L 81.82222 155.752974 
L 83.351686 149.600201 
L 86.410617 155.202998 
L 87.940083 146.437789 
L 89.469548 139.141995 
L 90.999014 154.971319 
L 92.528479 160.483281 
L 94.057945 177.846109 
L 95.58741 163.867852 
L 97.116876 155.483494 
L 98.646341 162.482123 
L 100.175807 164.0528 
L 101.705272 164.316012 
L 103.234738 167.087779 
L 104.764203 171.761587 
L 106.293669 168.943456 
L 107.823134 171.84952 
L 109.3526 185.647631 
L 110.882065 195.257435 
L 112.411531 192.236445 
L 113.940996 191.486887 
L 115.470462 193.434404 
L 116.999927 204.59613 
L 118.529393 191.74994 
L 120.058858 190.973289 
L 121.588324 178.214643 
L 123.117789 170.435053 
L 126.17672 162.704939 
L 127.706186 155.527514 
L 129.235651 162.011318 
L 130.765117 173.508865 
L 132.294582 165.58852 
L 135.353513 160.360982 
L 136.882979 168.995307 
L 138.412444 168.624603 
L 139.94191 179.11801 
L 141.471375 181.972346 
L 144.530306 188.247199 
L 146.059772 176.02895 
L 147.589237 174.013798 
L 149.118703 172.566762 
L 150.648168 165.986009 
L 152.177634 168.675402 
L 153.707099 167.617314 
L 155.236565 164.253498 
L 156.76603 164.120944 
L 158.295496 170.347802 
L 159.824961 178.959345 
L 161.354427 180.315279 
L 162.883892 183.047552 
L 164.413358 187.006695 
L 165.942823 175.958833 
L 167.472289 171.919278 
L 169.001755 167.376427 
L 170.53122 168.387734 
L 172.060686 171.610933 
L 173.590151 156.447981 
L 175.119617 169.567497 
L 176.649082 173.781479 
L 178.178548 152.801704 
L 179.708013 152.97822 
L 181.237479 150.766212 
L 182.766944 150.594671 
L 184.29641 140.765529 
L 185.825875 144.489104 
L 187.355341 131.841205 
L 188.884806 134.610077 
L 190.414272 136.514178 
L 191.943737 136.513183 
L 193.473203 149.257578 
L 195.002668 139.745776 
L 196.532134 143.531955 
L 198.061599 145.099343 
L 199.591065 142.189201 
L 201.12053 153.817767 
L 202.649996 149.898672 
L 204.179461 154.181302 
L 205.708927 154.583833 
L 207.238392 154.703484 
L 208.767858 161.217954 
L 210.297323 144.067036 
L 211.826789 143.315384 
L 213.356254 147.676266 
L 214.88572 145.81771 
L 216.415185 141.931706 
L 217.944651 150.918261 
L 219.474116 141.09766 
L 221.003582 133.926109 
L 222.533047 129.023959 
L 224.062513 137.270912 
L 225.591978 119.028213 
L 227.121444 132.594986 
L 228.650909 125.616955 
L 230.180375 117.80922 
L 231.70984 121.596555 
L 233.239306 113.651821 
L 234.768771 102.402165 
L 236.298237 110.605285 
L 237.827702 120.062985 
L 239.357168 123.59367 
L 240.886633 117.647642 
L 242.416099 111.221326 
L 243.945564 117.051881 
L 245.47503 121.233507 
L 247.004495 119.828001 
L 248.533961 116.768523 
L 250.063427 119.011137 
L 251.592892 125.612646 
L 253.122358 123.424215 
L 256.181289 117.491317 
L 257.710754 119.502208 
L 259.24022 128.016506 
L 260.769685 127.852702 
L 262.299151 131.400649 
L 263.828616 140.157464 
L 265.358082 132.622818 
L 266.887547 135.423805 
L 268.417013 136.985174 
L 269.946478 144.78031 
L 271.475944 131.630885 
L 273.005409 141.857938 
L 274.534875 137.075438 
L 276.06434 136.918974 
L 277.593806 126.275687 
L 279.123271 117.294971 
L 280.652737 112.311948 
L 282.182202 109.666605 
L 283.711668 94.298024 
L 285.241133 80.252443 
L 286.770599 77.776461 
L 288.300064 87.631962 
L 289.82953 89.919692 
L 291.358995 77.212467 
L 292.888461 62.470451 
L 294.417926 74.328654 
L 295.947392 68.382701 
L 297.476857 73.949323 
L 299.006323 80.036881 
L 300.535788 81.370423 
L 302.065254 82.884803 
L 303.594719 72.486676 
L 305.124185 52.861128 
L 306.65365 43.127172 
L 308.183116 42.960931 
L 309.712581 48.238113 
L 311.242047 40.911664 
L 312.771512 50.271727 
L 314.300978 53.832416 
L 315.830443 53.047254 
L 317.359909 58.590511 
L 318.889374 61.950122 
L 320.41884 52.906713 
L 321.948305 62.943536 
L 323.477771 63.708309 
L 325.007236 55.529714 
L 326.536702 55.165242 
L 328.066167 54.529806 
L 329.595633 49.461095 
L 331.125099 48.52227 
L 332.654564 49.262795 
L 335.713495 39.544499 
L 337.242961 41.548881 
L 338.772426 43.26896 
L 340.301892 37.549277 
L 341.831357 44.693652 
L 343.360823 43.332676 
L 344.890288 53.233132 
L 346.419754 54.681505 
L 347.949219 49.99888 
L 349.478685 53.486733 
L 351.00815 44.709053 
L 352.537616 50.225942 
L 354.067081 40.397365 
L 355.596547 39.247552 
L 357.126012 25.798849 
L 358.655478 23.34225 
L 360.184943 16.945427 
L 360.184943 16.945427 
" clip-path="url(#p9cc7ffdf14)" style="fill: none; stroke: #d62728; stroke-width: 1.5; stroke-linecap: square"/>
   </g>
   <g id="patch_3">
    <path d="M 40.603125 228.96 
L 40.603125 7.2 
" style="fill: none; stroke: #000000; stroke-width: 0.8; stroke-linejoin: miter; stroke-linecap: square"/>
   </g>
   <g id="patch_4">
    <path d="M 375.403125 228.96 
L 375.403125 7.2 
" style="fill: none; stroke: #000000; stroke-width: 0.8; stroke-linejoin: miter; stroke-linecap: square"/>
   </g>
   <g id="patch_5">
    <path d="M 40.603125 228.96 
L 375.403125 228.96 
" style="fill: none; stroke: #000000; stroke-width: 0.8; stroke-linejoin: miter; stroke-linecap: square"/>
   </g>
   <g id="patch_6">
    <path d="M 40.603125 7.2 
L 375.403125 7.2 
" style="fill: none; stroke: #000000; stroke-width: 0.8; stroke-linejoin: miter; stroke-linecap: square"/>
   </g>
   <g id="legend_1">
    <g id="patch_7">
     <path d="M 47.603125 73.9125 
L 87.303125 73.9125 
Q 89.303125 73.9125 89.303125 71.9125 
L 89.303125 14.2 
Q 89.303125 12.2 87.303125 12.2 
L 47.603125 12.2 
Q 45.603125 12.2 45.603125 14.2 
L 45.603125 71.9125 
Q 45.603125 73.9125 47.603125 73.9125 
z
" style="fill: #ffffff; opacity: 0.8; stroke: #cccccc; stroke-linejoin: miter"/>
    </g>
    <g id="line2d_18">
     <path d="M 49.603125 20.298437 
L 59.603125 20.298437 
L 69.603125 20.298437 
" style="fill: none; stroke: #1f77b4; stroke-width: 1.5; stroke-linecap: square"/>
    </g>
    <g id="text_16">
     <!-- A -->
     <g transform="translate(77.603125 23.798437) scale(0.1 -0.1)">
      <defs>
       <path id="DejaVuSans-41" d="M 2188 4044 
L 1331 1722 
L 3047 1722 
L 2188 4044 
z
M 1831 4666 
L 2547 4666 
L 4325 0 
L 3669 0 
L 3244 1197 
L 1141 1197 
L 716 0 
L 50 0 
L 1831 4666 
z
" transform="scale(0.015625)"/>
      </defs>
      <use xlink:href="#DejaVuSans-41"/>
     </g>
    </g>
    <g id="line2d_19">
     <path d="M 49.603125 34.976562 
L 59.603125 34.976562 
L 69.603125 34.976562 
" style="fill: none; stroke: #ff7f0e; stroke-width: 1.5; stroke-linecap: square"/>
    </g>
    <g id="text_17">
     <!-- B -->
     <g transform="translate(77.603125 38.476562) scale(0.1 -0.1)">
      <defs>
       <path id="DejaVuSans-42" d="M 1259 2228 
L 1259 519 
L 2272 519 
Q 2781 519 3026 730 
Q 3272 941 3272 1375 
Q 3272 1813 3026 2020 
Q 2781 2228 2272 2228 
L 1259 2228 
z
M 1259 4147 
L 1259 2741 
L 2194 2741 
Q 2656 2741 2882 2914 
Q 3109 3088 3109 3444 
Q 3109 3797 2882 3972 
Q 2656 4147 2194 4147 
L 1259 4147 
z
M 628 4666 
L 2241 4666 
Q 2963 4666 3353 4366 
Q 3744 4066 3744 3513 
Q 3744 3084 3544 2831 
Q 3344 2578 2956 2516 
Q 3422 2416 3680 2098 
Q 3938 1781 3938 1306 
Q 3938 681 3513 340 
Q 3088 0 2303 0 
L 628 0 
L 628 4666 
z
" transform="scale(0.015625)"/>
      </defs>
      <use xlink:href="#DejaVuSans-42"/>
     </g>
    </g>
    <g id="line2d_20">
     <path d="M 49.603125 49.654687 
L 59.603125 49.654687 
L 69.603125 49.654687 
" style="fill: none; stroke: #2ca02c; stroke-width: 1.5; stroke-linecap: square"/>
    </g>
    <g id="text_18">
     <!-- C -->
     <g transform="translate(77.603125 53.154687) scale(0.1 -0.1)">
      <defs>
       <path id="DejaVuSans-43" d="M 4122 4306 
L 4122 3641 
Q 3803 3938 3442 4084 
Q 3081 4231 2675 4231 
Q 1875 4231 1450 3742 
Q 1025 3253 1025 2328 
Q 1025 1406 1450 917 
Q 1875 428 2675 428 
Q 3081 428 3442 575 
Q 3803 722 4122 1019 
L 4122 359 
Q 3791 134 3420 21 
Q 3050 -91 2638 -91 
Q 1578 -91 968 557 
Q 359 1206 359 2328 
Q 359 3453 968 4101 
Q 1578 4750 2638 4750 
Q 3056 4750 3426 4639 
Q 3797 4528 4122 4306 
z
" transform="scale(0.015625)"/>
      </defs>
      <use xlink:href="#DejaVuSans-43"/>
     </g>
    </g>
    <g id="line2d_21">
     <path d="M 49.603125 64.332812 
L 59.603125 64.332812 
L 69.603125 64.332812 
" style="fill: none; stroke: #d62728; stroke-width: 1.5; stroke-linecap: square"/>
    </g>
    <g id="text_19">
     <!-- D -->
     <g transform="translate(77.603125 67.832812) scale(0.1 -0.1)">
      <defs>
       <path id="DejaVuSans-44" d="M 1259 4147 
L 1259 519 
L 2022 519 
Q 2988 519 3436 956 
Q 3884 1394 3884 2338 
Q 3884 3275 3436 3711 
Q 2988 4147 2022 4147 
L 1259 4147 
z
M 628 4666 
L 1925 4666 
Q 3281 4666 3915 4102 
Q 4550 3538 4550 2338 
Q 4550 1131 3912 565 
Q 3275 0 1925 0 
L 628 0 
L 628 4666 
z
" transform="scale(0.015625)"/>
      </defs>
      <use xlink:href="#DejaVuSans-44"/>
     </g>
    </g>
   </g>
  </g>
 </g>
 <defs>
  <clipPath id="p9cc7ffdf14">
   <rect x="40.603125" y="7.2" width="334.8" height="221.76"/>
  </clipPath>
 </defs>
</svg>
