<?xml version="1.0" encoding="utf-8" standalone="no"?>
<!DOCTYPE svg PUBLIC "-//W3C//DTD SVG 1.1//EN"
  "http://www.w3.org/Graphics/SVG/1.1/DTD/svg11.dtd">
<svg xmlns:xlink="http://www.w3.org/1999/xlink" width="389.288281pt" height="268.963125pt" viewBox="0 0 389.288281 268.963125" xmlns="http://www.w3.org/2000/svg" version="1.1">
 <metadata>
  <rdf:RDF xmlns:dc="http://purl.org/dc/elements/1.1/" xmlns:cc="http://creativecommons.org/ns#" xmlns:rdf="http://www.w3.org/1999/02/22-rdf-syntax-ns#">
   <cc:Work>
    <dc:type rdf:resource="http://purl.org/dc/dcmitype/StillImage"/>
    <dc:date>2026-07-03T13:55:34.953473</dc:date>
    <dc:format>image/svg+xml</dc:format>
    <dc:creator>
     <cc:Agent>
      <dc:title>Matplotlib v3.11.0, https://matplotlib.org/</dc:title>
     </cc:Agent>
    </dc:creator>
   </cc:Work>
  </rdf:RDF>
 </metadata>
 <defs>
  <style type="text/css">*{stroke-linejoin: round; stroke-linecap: butt}</style>
 </defs>
 <g id="figure_1">
  <g id="patch_1">
   <path d="M 0 268.963125 
L 389.288281 268.963125 
L 389.288281 0 
L 0 0 
z
" style="fill: #ffffff"/>
  </g>
  <g id="axes_1">
   <g id="patch_2">
    <path d="M 47.288281 228.96 
L 382.088281 228.96 
L 382.088281 7.2 
L 47.288281 7.2 
z
" style="fill: #ffffff"/>
   </g>
   <g id="matplotlib.axis_1">
    <g id="xtick_1">
     <g id="line2d_1">
      <defs>
       <path id="m3044207141" d="M 0 0 
L 0 3.5 
" style="stroke: #000000; stroke-width: 0.8"/>
      </defs>
      <g>
       <use xlink:href="#m3044207141" x="132.585909" y="228.96" style="stroke: #000000; stroke-width: 0.8"/>
      </g>
     </g>
     <g id="text_1">
      <!-- $\mathdefault{10^{-1}}$ -->
      <g transform="translate(120.835909 245.26) scale(0.1 -0.1)">
       <defs>
        <path id="DejaVuSans-14" d="M 794 531 
L 1825 531 
L 1825 4091 
L 703 3866 
L 703 4441 
L 1819 4666 
L 2450 4666 
L 2450 531 
L 3481 531 
L 3481 0 
L 794 0 
L 794 531 
z
" transform="scale(0.015625)"/>
        <path id="DejaVuSans-13" d="M 2034 4250 
Q 1547 4250 1301 3770 
Q 1056 3291 1056 2328 
Q 1056 1369 1301 889 
Q 1547 409 2034 409 
Q 2525 409 2770 889 
Q 3016 1369 3016 2328 
Q 3016 3291 2770 3770 
Q 2525 4250 2034 4250 
z
M 2034 4750 
Q 2819 4750 3233 4129 
Q 3647 3509 3647 2328 
Q 3647 1150 3233 529 
Q 2819 -91 2034 -91 
Q 1250 -91 836 529 
Q 422 1150 422 2328 
Q 422 3509 836 4129 
Q 1250 4750 2034 4750 
z
" transform="scale(0.015625)"/>
        <path id="DejaVuSans-c9c" d="M 678 2272 
L 4684 2272 
L 4684 1741 
L 678 1741 
L 678 2272 
z
" transform="scale(0.015625)"/>
       </defs>
       <use xlink:href="#DejaVuSans-14" transform="translate(0 0.665625)"/>
       <use xlink:href="#DejaVuSans-13" transform="translate(63.623047 0.665625)"/>
       <use xlink:href="#DejaVuSans-c9c" transform="translate(128.203125 41.965625) scale(0.7)"/>
       <use xlink:href="#DejaVuSans-14" transform="translate(186.855469 41.965625) scale(0.7)"/>
      </g>
     </g>
    </g>
    <g id="xtick_2">
     <g id="line2d_2">
      <g>
       <use xlink:href="#m3044207141" x="312.661842" y="228.96" style="stroke: #000000; stroke-width: 0.8"/>
      </g>
     </g>
     <g id="text_2">
      <!-- $\mathdefault{10^{0}}$ -->
      <g transform="translate(303.861842 245.36) scale(0.1 -0.1)">
       <use xlink:href="#DejaVuSans-14" transform="translate(0 0.746875)"/>
       <use xlink:href="#DejaVuSans-13" transform="translate(63.623047 0.746875)"/>
       <use xlink:href="#DejaVuSans-13" transform="translate(128.203125 42.046875) scale(0.7)"/>
      </g>
     </g>
    </g>
    <g id="xtick_3">
     <g id="line2d_3">
      <defs>
       <path id="meca718adb2" d="M 0 0 
L 0 2 
" style="stroke: #000000; stroke-width: 0.6"/>
      </defs>
      <g>
       <use xlink:href="#meca718adb2" x="60.92649" y="228.96" style="stroke: #000000; stroke-width: 0.6"/>
      </g>
     </g>
    </g>
    <g id="xtick_4">
     <g id="line2d_4">
      <g>
       <use xlink:href="#meca718adb2" x="78.377651" y="228.96" style="stroke: #000000; stroke-width: 0.6"/>
      </g>
     </g>
    </g>
    <g id="xtick_5">
     <g id="line2d_5">
      <g>
       <use xlink:href="#meca718adb2" x="92.636288" y="228.96" style="stroke: #000000; stroke-width: 0.6"/>
      </g>
     </g>
    </g>
    <g id="xtick_6">
     <g id="line2d_6">
      <g>
       <use xlink:href="#meca718adb2" x="104.691794" y="228.96" style="stroke: #000000; stroke-width: 0.6"/>
      </g>
     </g>
    </g>
    <g id="xtick_7">
     <g id="line2d_7">
      <g>
       <use xlink:href="#meca718adb2" x="115.134748" y="228.96" style="stroke: #000000; stroke-width: 0.6"/>
      </g>
     </g>
    </g>
    <g id="xtick_8">
     <g id="line2d_8">
      <g>
       <use xlink:href="#meca718adb2" x="124.346086" y="228.96" style="stroke: #000000; stroke-width: 0.6"/>
      </g>
     </g>
    </g>
    <g id="xtick_9">
     <g id="line2d_9">
      <g>
       <use xlink:href="#meca718adb2" x="186.794166" y="228.96" style="stroke: #000000; stroke-width: 0.6"/>
      </g>
     </g>
    </g>
    <g id="xtick_10">
     <g id="line2d_10">
      <g>
       <use xlink:href="#meca718adb2" x="218.503964" y="228.96" style="stroke: #000000; stroke-width: 0.6"/>
      </g>
     </g>
    </g>
    <g id="xtick_11">
     <g id="line2d_11">
      <g>
       <use xlink:href="#meca718adb2" x="241.002424" y="228.96" style="stroke: #000000; stroke-width: 0.6"/>
      </g>
     </g>
    </g>
    <g id="xtick_12">
     <g id="line2d_12">
      <g>
       <use xlink:href="#meca718adb2" x="258.453585" y="228.96" style="stroke: #000000; stroke-width: 0.6"/>
      </g>
     </g>
    </g>
    <g id="xtick_13">
     <g id="line2d_13">
      <g>
       <use xlink:href="#meca718adb2" x="272.712221" y="228.96" style="stroke: #000000; stroke-width: 0.6"/>
      </g>
     </g>
    </g>
    <g id="xtick_14">
     <g id="line2d_14">
      <g>
       <use xlink:href="#meca718adb2" x="284.767727" y="228.96" style="stroke: #000000; stroke-width: 0.6"/>
      </g>
     </g>
    </g>
    <g id="xtick_15">
     <g id="line2d_15">
      <g>
       <use xlink:href="#meca718adb2" x="295.210681" y="228.96" style="stroke: #000000; stroke-width: 0.6"/>
      </g>
     </g>
    </g>
    <g id="xtick_16">
     <g id="line2d_16">
      <g>
       <use xlink:href="#meca718adb2" x="304.422019" y="228.96" style="stroke: #000000; stroke-width: 0.6"/>
      </g>
     </g>
    </g>
    <g id="xtick_17">
     <g id="line2d_17">
      <g>
       <use xlink:href="#meca718adb2" x="366.870099" y="228.96" style="stroke: #000000; stroke-width: 0.6"/>
      </g>
     </g>
    </g>
    <g id="text_3">
     <!-- x [m] -->
     <g transform="translate(201.367969 259.360781) scale(0.1 -0.1)">
      <defs>
       <path id="DejaVuSans-5b" d="M 3513 3500 
L 2247 1797 
L 3578 0 
L 2900 0 
L 1881 1375 
L 863 0 
L 184 0 
L 1544 1831 
L 300 3500 
L 978 3500 
L 1906 2253 
L 2834 3500 
L 3513 3500 
z
" transform="scale(0.015625)"/>
       <path id="DejaVuSans-3" transform="scale(0.015625)"/>
       <path id="DejaVuSans-3e" d="M 550 4863 
L 1875 4863 
L 1875 4416 
L 1125 4416 
L 1125 -397 
L 1875 -397 
L 1875 -844 
L 550 -844 
L 550 4863 
z
" transform="scale(0.015625)"/>
       <path id="DejaVuSans-50" d="M 3328 2828 
Q 3544 3216 3844 3400 
Q 4144 3584 4550 3584 
Q 5097 3584 5394 3201 
Q 5691 2819 5691 2113 
L 5691 0 
L 5113 0 
L 5113 2094 
Q 5113 2597 4934 2840 
Q 4756 3084 4391 3084 
Q 3944 3084 3684 2787 
Q 3425 2491 3425 1978 
L 3425 0 
L 2847 0 
L 2847 2094 
Q 2847 2600 2669 2842 
Q 2491 3084 2119 3084 
Q 1678 3084 1418 2786 
Q 1159 2488 1159 1978 
L 1159 0 
L 581 0 
L 581 3500 
L 1159 3500 
L 1159 2956 
Q 1356 3278 1631 3431 
Q 1906 3584 2284 3584 
Q 2666 3584 2933 3390 
Q 3200 3197 3328 2828 
z
" transform="scale(0.015625)"/>
       <path id="DejaVuSans-40" d="M 1947 4863 
L 1947 -844 
L 622 -844 
L 622 -397 
L 1369 -397 
L 1369 4416 
L 622 4416 
L 622 4863 
L 1947 4863 
z
" transform="scale(0.015625)"/>
      </defs>
      <use xlink:href="#DejaVuSans-5b"/>
      <use xlink:href="#DejaVuSans-3" transform="translate(59.1875 0)"/>
      <use xlink:href="#DejaVuSans-3e" transform="translate(90.96875 0)"/>
      <use xlink:href="#DejaVuSans-50" transform="translate(129.984375 0)"/>
      <use xlink:href="#DejaVuSans-40" transform="translate(227.390625 0)"/>
     </g>
    </g>
   </g>
   <g id="matplotlib.axis_2">
    <g id="ytick_1">
     <g id="line2d_18">
      <defs>
       <path id="mc3f3aaf9ae" d="M 0 0 
L -3.5 0 
" style="stroke: #000000; stroke-width: 0.8"/>
      </defs>
      <g>
       <use xlink:href="#mc3f3aaf9ae" x="47.288281" y="227.721581" style="stroke: #000000; stroke-width: 0.8"/>
      </g>
     </g>
     <g id="text_4">
      <!-- 100 -->
      <g transform="translate(21.200781 231.520409) scale(0.1 -0.1)">
       <use xlink:href="#DejaVuSans-14"/>
       <use xlink:href="#DejaVuSans-13" transform="translate(63.625 0)"/>
       <use xlink:href="#DejaVuSans-13" transform="translate(127.25 0)"/>
      </g>
     </g>
    </g>
    <g id="ytick_2">
     <g id="line2d_19">
      <g>
       <use xlink:href="#mc3f3aaf9ae" x="47.288281" y="191.641619" style="stroke: #000000; stroke-width: 0.8"/>
      </g>
     </g>
     <g id="text_5">
      <!-- 101 -->
      <g transform="translate(21.200781 195.440447) scale(0.1 -0.1)">
       <use xlink:href="#DejaVuSans-14"/>
       <use xlink:href="#DejaVuSans-13" transform="translate(63.625 0)"/>
       <use xlink:href="#DejaVuSans-14" transform="translate(127.25 0)"/>
      </g>
     </g>
    </g>
    <g id="ytick_3">
     <g id="line2d_20">
      <g>
       <use xlink:href="#mc3f3aaf9ae" x="47.288281" y="155.561656" style="stroke: #000000; stroke-width: 0.8"/>
      </g>
     </g>
     <g id="text_6">
      <!-- 102 -->
      <g transform="translate(21.200781 159.360484) scale(0.1 -0.1)">
       <defs>
        <path id="DejaVuSans-15" d="M 1228 531 
L 3431 531 
L 3431 0 
L 469 0 
L 469 531 
Q 828 903 1448 1529 
Q 2069 2156 2228 2338 
Q 2531 2678 2651 2914 
Q 2772 3150 2772 3378 
Q 2772 3750 2511 3984 
Q 2250 4219 1831 4219 
Q 1534 4219 1204 4116 
Q 875 4013 500 3803 
L 500 4441 
Q 881 4594 1212 4672 
Q 1544 4750 1819 4750 
Q 2544 4750 2975 4387 
Q 3406 4025 3406 3419 
Q 3406 3131 3298 2873 
Q 3191 2616 2906 2266 
Q 2828 2175 2409 1742 
Q 1991 1309 1228 531 
z
" transform="scale(0.015625)"/>
       </defs>
       <use xlink:href="#DejaVuSans-14"/>
       <use xlink:href="#DejaVuSans-13" transform="translate(63.625 0)"/>
       <use xlink:href="#DejaVuSans-15" transform="translate(127.25 0)"/>
      </g>
     </g>
    </g>
    <g id="ytick_4">
     <g id="line2d_21">
      <g>
       <use xlink:href="#mc3f3aaf9ae" x="47.288281" y="119.481694" style="stroke: #000000; stroke-width: 0.8"/>
      </g>
     </g>
     <g id="text_7">
      <!-- 103 -->
      <g transform="translate(21.200781 123.280522) scale(0.1 -0.1)">
       <defs>
        <path id="DejaVuSans-16" d="M 2597 2516 
Q 3050 2419 3304 2112 
Q 3559 1806 3559 1356 
Q 3559 666 3084 287 
Q 2609 -91 1734 -91 
Q 1441 -91 1130 -33 
Q 819 25 488 141 
L 488 750 
Q 750 597 1062 519 
Q 1375 441 1716 441 
Q 2309 441 2620 675 
Q 2931 909 2931 1356 
Q 2931 1769 2642 2001 
Q 2353 2234 1838 2234 
L 1294 2234 
L 1294 2753 
L 1863 2753 
Q 2328 2753 2575 2939 
Q 2822 3125 2822 3475 
Q 2822 3834 2567 4026 
Q 2313 4219 1838 4219 
Q 1578 4219 1281 4162 
Q 984 4106 628 3988 
L 628 4550 
Q 988 4650 1302 4700 
Q 1616 4750 1894 4750 
Q 2613 4750 3031 4423 
Q 3450 4097 3450 3541 
Q 3450 3153 3228 2886 
Q 3006 2619 2597 2516 
z
" transform="scale(0.015625)"/>
       </defs>
       <use xlink:href="#DejaVuSans-14"/>
       <use xlink:href="#DejaVuSans-13" transform="translate(63.625 0)"/>
       <use xlink:href="#DejaVuSans-16" transform="translate(127.25 0)"/>
      </g>
     </g>
    </g>
    <g id="ytick_5">
     <g id="line2d_22">
      <g>
       <use xlink:href="#mc3f3aaf9ae" x="47.288281" y="83.401732" style="stroke: #000000; stroke-width: 0.8"/>
      </g>
     </g>
     <g id="text_8">
      <!-- 104 -->
      <g transform="translate(21.200781 87.20056) scale(0.1 -0.1)">
       <defs>
        <path id="DejaVuSans-17" d="M 2419 4116 
L 825 1625 
L 2419 1625 
L 2419 4116 
z
M 2253 4666 
L 3047 4666 
L 3047 1625 
L 3713 1625 
L 3713 1100 
L 3047 1100 
L 3047 0 
L 2419 0 
L 2419 1100 
L 313 1100 
L 313 1709 
L 2253 4666 
z
" transform="scale(0.015625)"/>
       </defs>
       <use xlink:href="#DejaVuSans-14"/>
       <use xlink:href="#DejaVuSans-13" transform="translate(63.625 0)"/>
       <use xlink:href="#DejaVuSans-17" transform="translate(127.25 0)"/>
      </g>
     </g>
    </g>
    <g id="ytick_6">
     <g id="line2d_23">
      <g>
       <use xlink:href="#mc3f3aaf9ae" x="47.288281" y="47.321769" style="stroke: #000000; stroke-width: 0.8"/>
      </g>
     </g>
     <g id="text_9">
      <!-- 105 -->
      <g transform="translate(21.200781 51.120598) scale(0.1 -0.1)">
       <defs>
        <path id="DejaVuSans-18" d="M 691 4666 
L 3169 4666 
L 3169 4134 
L 1269 4134 
L 1269 2991 
Q 1406 3038 1543 3061 
Q 1681 3084 1819 3084 
Q 2600 3084 3056 2656 
Q 3513 2228 3513 1497 
Q 3513 744 3044 326 
Q 2575 -91 1722 -91 
Q 1428 -91 1123 -41 
Q 819 9 494 109 
L 494 744 
Q 775 591 1075 516 
Q 1375 441 1709 441 
Q 2250 441 2565 725 
Q 2881 1009 2881 1497 
Q 2881 1984 2565 2268 
Q 2250 2553 1709 2553 
Q 1456 2553 1204 2497 
Q 953 2441 691 2322 
L 691 4666 
z
" transform="scale(0.015625)"/>
       </defs>
       <use xlink:href="#DejaVuSans-14"/>
       <use xlink:href="#DejaVuSans-13" transform="translate(63.625 0)"/>
       <use xlink:href="#DejaVuSans-18" transform="translate(127.25 0)"/>
      </g>
     </g>
    </g>
    <g id="ytick_7">
     <g id="line2d_24">
      <g>
       <use xlink:href="#mc3f3aaf9ae" x="47.288281" y="11.241807" style="stroke: #000000; stroke-width: 0.8"/>
      </g>
     </g>
     <g id="text_10">
      <!-- 106 -->
      <g transform="translate(21.200781 15.040635) scale(0.1 -0.1)">
       <defs>
        <path id="DejaVuSans-19" d="M 2113 2584 
Q 1688 2584 1439 2293 
Q 1191 2003 1191 1497 
Q 1191 994 1439 701 
Q 1688 409 2113 409 
Q 2538 409 2786 701 
Q 3034 994 3034 1497 
Q 3034 2003 2786 2293 
Q 2538 2584 2113 2584 
z
M 3366 4563 
L 3366 3988 
Q 3128 4100 2886 4159 
Q 2644 4219 2406 4219 
Q 1781 4219 1451 3797 
Q 1122 3375 1075 2522 
Q 1259 2794 1537 2939 
Q 1816 3084 2150 3084 
Q 2853 3084 3261 2657 
Q 3669 2231 3669 1497 
Q 3669 778 3244 343 
Q 2819 -91 2113 -91 
Q 1303 -91 875 529 
Q 447 1150 447 2328 
Q 447 3434 972 4092 
Q 1497 4750 2381 4750 
Q 2619 4750 2861 4703 
Q 3103 4656 3366 4563 
z
" transform="scale(0.015625)"/>
       </defs>
       <use xlink:href="#DejaVuSans-14"/>
       <use xlink:href="#DejaVuSans-13" transform="translate(63.625 0)"/>
       <use xlink:href="#DejaVuSans-19" transform="translate(127.25 0)"/>
      </g>
     </g>
    </g>
    <g id="text_11">
     <!-- temp1 [K] -->
     <g transform="translate(14.798438 143.112031) rotate(-90) scale(0.1 -0.1)">
      <defs>
       <path id="DejaVuSans-57" d="M 1172 4494 
L 1172 3500 
L 2356 3500 
L 2356 3053 
L 1172 3053 
L 1172 1153 
Q 1172 725 1289 603 
Q 1406 481 1766 481 
L 2356 481 
L 2356 0 
L 1766 0 
Q 1100 0 847 248 
Q 594 497 594 1153 
L 594 3053 
L 172 3053 
L 172 3500 
L 594 3500 
L 594 4494 
L 1172 4494 
z
" transform="scale(0.015625)"/>
       <path id="DejaVuSans-48" d="M 3597 1894 
L 3597 1613 
L 953 1613 
Q 991 1019 1311 708 
Q 1631 397 2203 397 
Q 2534 397 2845 478 
Q 3156 559 3463 722 
L 3463 178 
Q 3153 47 2828 -22 
Q 2503 -91 2169 -91 
Q 1331 -91 842 396 
Q 353 884 353 1716 
Q 353 2575 817 3079 
Q 1281 3584 2069 3584 
Q 2775 3584 3186 3129 
Q 3597 2675 3597 1894 
z
M 3022 2063 
Q 3016 2534 2758 2815 
Q 2500 3097 2075 3097 
Q 1594 3097 1305 2825 
Q 1016 2553 972 2059 
L 3022 2063 
z
" transform="scale(0.015625)"/>
       <path id="DejaVuSans-53" d="M 1159 525 
L 1159 -1331 
L 581 -1331 
L 581 3500 
L 1159 3500 
L 1159 2969 
Q 1341 3281 1617 3432 
Q 1894 3584 2278 3584 
Q 2916 3584 3314 3078 
Q 3713 2572 3713 1747 
Q 3713 922 3314 415 
Q 2916 -91 2278 -91 
Q 1894 -91 1617 61 
Q 1341 213 1159 525 
z
M 3116 1747 
Q 3116 2381 2855 2742 
Q 2594 3103 2138 3103 
Q 1681 3103 1420 2742 
Q 1159 2381 1159 1747 
Q 1159 1113 1420 752 
Q 1681 391 2138 391 
Q 2594 391 2855 752 
Q 3116 1113 3116 1747 
z
" transform="scale(0.015625)"/>
       <path id="DejaVuSans-2e" d="M 628 4666 
L 1259 4666 
L 1259 2694 
L 3353 4666 
L 4166 4666 
L 1850 2491 
L 4331 0 
L 3500 0 
L 1259 2247 
L 1259 0 
L 628 0 
L 628 4666 
z
" transform="scale(0.015625)"/>
      </defs>
      <use xlink:href="#DejaVuSans-57"/>
      <use xlink:href="#DejaVuSans-48" transform="translate(39.203125 0)"/>
      <use xlink:href="#DejaVuSans-50" transform="translate(100.734375 0)"/>
      <use xlink:href="#DejaVuSans-53" transform="translate(198.140625 0)"/>
      <use xlink:href="#DejaVuSans-14" transform="translate(261.625 0)"/>
      <use xlink:href="#DejaVuSans-3" transform="translate(325.25 0)"/>
      <use xlink:href="#DejaVuSans-3e" transform="translate(357.03125 0)"/>
      <use xlink:href="#DejaVuSans-2e" transform="translate(396.046875 0)"/>
      <use xlink:href="#DejaVuSans-40" transform="translate(461.625 0)"/>
     </g>
    </g>
   </g>
   <g id="line2d_25">
    <defs>
     <path id="mb093db0c2f" d="M 0 3 
C 0.795609 3 1.55874 2.683901 2.12132 2.12132 
C 2.683901 1.55874 3 0.795609 3 0 
C 3 -0.795609 2.683901 -1.55874 2.12132 -2.12132 
C 1.55874 -2.683901 0.795609 -3 0 -3 
C -0.795609 -3 -1.55874 -2.683901 -2.12132 -2.12132 
C -2.683901 -1.55874 -3 -0.795609 -3 0 
C -3 0.795609 -2.683901 1.55874 -2.12132 2.12132 
C -1.55874 2.683901 -0.795609 3 0 3 
z
" style="stroke: #1f77b4"/>
    </defs>
    <g clip-path="url(#p2e4ce1ad14)">
     <use xlink:href="#mb093db0c2f" x="-1" y="214.302679" style="fill: #1f77b4; stroke: #1f77b4"/>
     <use xlink:href="#mb093db0c2f" x="62.506463" y="214.306058" style="fill: #1f77b4; stroke: #1f77b4"/>
     <use xlink:href="#mb093db0c2f" x="116.71472" y="218.88" style="fill: #1f77b4; stroke: #1f77b4"/>
     <use xlink:href="#mb093db0c2f" x="148.424518" y="216.080378" style="fill: #1f77b4; stroke: #1f77b4"/>
     <use xlink:href="#mb093db0c2f" x="170.922978" y="183.652306" style="fill: #1f77b4; stroke: #1f77b4"/>
     <use xlink:href="#mb093db0c2f" x="188.374139" y="176.38125" style="fill: #1f77b4; stroke: #1f77b4"/>
     <use xlink:href="#mb093db0c2f" x="202.632776" y="183.744412" style="fill: #1f77b4; stroke: #1f77b4"/>
     <use xlink:href="#mb093db0c2f" x="214.688281" y="175.629971" style="fill: #1f77b4; stroke: #1f77b4"/>
     <use xlink:href="#mb093db0c2f" x="225.131235" y="178.654581" style="fill: #1f77b4; stroke: #1f77b4"/>
     <use xlink:href="#mb093db0c2f" x="234.342573" y="160.849544" style="fill: #1f77b4; stroke: #1f77b4"/>
     <use xlink:href="#mb093db0c2f" x="242.582396" y="161.469327" style="fill: #1f77b4; stroke: #1f77b4"/>
     <use xlink:href="#mb093db0c2f" x="250.036223" y="187.124859" style="fill: #1f77b4; stroke: #1f77b4"/>
     <use xlink:href="#mb093db0c2f" x="256.841033" y="152.606921" style="fill: #1f77b4; stroke: #1f77b4"/>
     <use xlink:href="#mb093db0c2f" x="263.100852" y="178.64864" style="fill: #1f77b4; stroke: #1f77b4"/>
     <use xlink:href="#mb093db0c2f" x="268.896539" y="149.852837" style="fill: #1f77b4; stroke: #1f77b4"/>
     <use xlink:href="#mb093db0c2f" x="274.292194" y="166.159501" style="fill: #1f77b4; stroke: #1f77b4"/>
     <use xlink:href="#mb093db0c2f" x="279.339493" y="137.672057" style="fill: #1f77b4; stroke: #1f77b4"/>
     <use xlink:href="#mb093db0c2f" x="284.080701" y="145.597991" style="fill: #1f77b4; stroke: #1f77b4"/>
     <use xlink:href="#mb093db0c2f" x="288.550831" y="150.638669" style="fill: #1f77b4; stroke: #1f77b4"/>
     <use xlink:href="#mb093db0c2f" x="292.779211" y="142.520095" style="fill: #1f77b4; stroke: #1f77b4"/>
     <use xlink:href="#mb093db0c2f" x="296.790654" y="153.067232" style="fill: #1f77b4; stroke: #1f77b4"/>
     <use xlink:href="#mb093db0c2f" x="300.606336" y="145.92324" style="fill: #1f77b4; stroke: #1f77b4"/>
     <use xlink:href="#mb093db0c2f" x="304.24448" y="122.529644" style="fill: #1f77b4; stroke: #1f77b4"/>
     <use xlink:href="#mb093db0c2f" x="307.720874" y="119.693545" style="fill: #1f77b4; stroke: #1f77b4"/>
     <use xlink:href="#mb093db0c2f" x="311.04929" y="117.159418" style="fill: #1f77b4; stroke: #1f77b4"/>
     <use xlink:href="#mb093db0c2f" x="314.241815" y="121.837789" style="fill: #1f77b4; stroke: #1f77b4"/>
     <use xlink:href="#mb093db0c2f" x="317.309109" y="96.019935" style="fill: #1f77b4; stroke: #1f77b4"/>
     <use xlink:href="#mb093db0c2f" x="320.260629" y="92.929101" style="fill: #1f77b4; stroke: #1f77b4"/>
     <use xlink:href="#mb093db0c2f" x="323.104796" y="99.901645" style="fill: #1f77b4; stroke: #1f77b4"/>
     <use xlink:href="#mb093db0c2f" x="325.849147" y="97.485799" style="fill: #1f77b4; stroke: #1f77b4"/>
     <use xlink:href="#mb093db0c2f" x="328.500451" y="92.433585" style="fill: #1f77b4; stroke: #1f77b4"/>
     <use xlink:href="#mb093db0c2f" x="331.064812" y="99.558818" style="fill: #1f77b4; stroke: #1f77b4"/>
     <use xlink:href="#mb093db0c2f" x="333.54775" y="105.035182" style="fill: #1f77b4; stroke: #1f77b4"/>
     <use xlink:href="#mb093db0c2f" x="335.954278" y="80.196558" style="fill: #1f77b4; stroke: #1f77b4"/>
     <use xlink:href="#mb093db0c2f" x="338.288958" y="83.591437" style="fill: #1f77b4; stroke: #1f77b4"/>
     <use xlink:href="#mb093db0c2f" x="340.555957" y="87.671058" style="fill: #1f77b4; stroke: #1f77b4"/>
     <use xlink:href="#mb093db0c2f" x="342.759088" y="77.654022" style="fill: #1f77b4; stroke: #1f77b4"/>
     <use xlink:href="#mb093db0c2f" x="344.901852" y="59.408628" style="fill: #1f77b4; stroke: #1f77b4"/>
     <use xlink:href="#mb093db0c2f" x="346.987468" y="54.119431" style="fill: #1f77b4; stroke: #1f77b4"/>
     <use xlink:href="#mb093db0c2f" x="349.018907" y="71.22882" style="fill: #1f77b4; stroke: #1f77b4"/>
     <use xlink:href="#mb093db0c2f" x="350.998911" y="59.835654" style="fill: #1f77b4; stroke: #1f77b4"/>
     <use xlink:href="#mb093db0c2f" x="352.930021" y="65.161764" style="fill: #1f77b4; stroke: #1f77b4"/>
     <use xlink:href="#mb093db0c2f" x="354.814594" y="51.650848" style="fill: #1f77b4; stroke: #1f77b4"/>
     <use xlink:href="#mb093db0c2f" x="356.65482" y="57.219718" style="fill: #1f77b4; stroke: #1f77b4"/>
     <use xlink:href="#mb093db0c2f" x="358.452737" y="51.600315" style="fill: #1f77b4; stroke: #1f77b4"/>
     <use xlink:href="#mb093db0c2f" x="360.210249" y="29.92722" style="fill: #1f77b4; stroke: #1f77b4"/>
     <use xlink:href="#mb093db0c2f" x="361.929131" y="50.170818" style="fill: #1f77b4; stroke: #1f77b4"/>
     <use xlink:href="#mb093db0c2f" x="363.611045" y="32.200458" style="fill: #1f77b4; stroke: #1f77b4"/>
     <use xlink:href="#mb093db0c2f" x="365.257548" y="47.972128" style="fill: #1f77b4; stroke: #1f77b4"/>
     <use xlink:href="#mb093db0c2f" x="366.870099" y="17.28" style="fill: #1f77b4; stroke: #1f77b4"/>
    </g>
   </g>
   <g id="patch_3">
    <path d="M 47.288281 228.96 
L 47.288281 7.2 
" style="fill: none; stroke: #000000; stroke-width: 0.8; stroke-linejoin: miter; stroke-linecap: square"/>
   </g>
   <g id="patch_4">
    <path d="M 382.088281 228.96 
L 382.088281 7.2 
" style="fill: none; stroke: #000000; stroke-width: 0.8; stroke-linejoin: miter; stroke-linecap: square"/>
   </g>
   <g id="patch_5">
    <path d="M 47.288281 228.96 
L 382.088281 228.96 
" style="fill: none; stroke: #000000; stroke-width: 0.8; stroke-linejoin: miter; stroke-linecap: square"/>
   </g>
   <g id="patch_6">
    <path d="M 47.288281 7.2 
L 382.088281 7.2 
" style="fill: none; stroke: #000000; stroke-width: 0.8; stroke-linejoin: miter; stroke-linecap: square"/>
   </g>
  </g>
 </g>
 <defs>
  <clipPath id="p2e4ce1ad14">
   <rect x="47.288281" y="7.2" width="334.8" height="221.76"/>
  </clipPath>
 </defs>
</svg>
