<?xml version="1.0" encoding="utf-8" standalone="no"?>
<!DOCTYPE svg PUBLIC "-//W3C//DTD SVG 1.1//EN"
  "http://www.w3.org/Graphics/SVG/1.1/DTD/svg11.dtd">
<svg xmlns:xlink="http://www.w3.org/1999/xlink" width="388.965625pt" height="266.51625pt" viewBox="0 0 388.965625 266.51625" xmlns="http://www.w3.org/2000/svg" version="1.1">
 <metadata>
  <rdf:RDF xmlns:dc="http://purl.org/dc/elements/1.1/" xmlns:cc="http://creativecommons.org/ns#" xmlns:rdf="http://www.w3.org/1999/02/22-rdf-syntax-ns#">
   <cc:Work>
    <dc:type rdf:resource="http://purl.org/dc/dcmitype/StillImage"/>
    <dc:date>2026-02-18T13:47:05.932161</dc:date>
    <dc:format>image/svg+xml</dc:format>
    <dc:creator>
     <cc:Agent>
      <dc:title>Matplotlib v3.10.7, https://matplotlib.org/</dc:title>
     </cc:Agent>
    </dc:creator>
   </cc:Work>
  </rdf:RDF>
 </metadata>
 <defs>
  <style type="text/css">*{stroke-linejoin: round; stroke-linecap: butt}</style>
 </defs>
 <g id="figure_1">
  <g id="patch_1">
   <path d="M -0 266.51625 
L 388.965625 266.51625 
L 388.965625 0 
L -0 0 
z
" style="fill: #ffffff"/>
  </g>
  <g id="axes_1">
   <g id="patch_2">
    <path d="M 46.965625 228.96 
L 381.765625 228.96 
L 381.765625 7.2 
L 46.965625 7.2 
z
" style="fill: #ffffff"/>
   </g>
   <g id="matplotlib.axis_1">
    <g id="xtick_1">
     <g id="line2d_1">
      <defs>
       <path id="mcec2d873f1" d="M 0 0 
L 0 3.5 
" style="stroke: #000000; stroke-width: 0.8"/>
      </defs>
      <g>
       <use xlink:href="#mcec2d873f1" x="62.183807" y="228.96" style="stroke: #000000; stroke-width: 0.8"/>
      </g>
     </g>
     <g id="text_1">
      <!-- 0.00 -->
      <g transform="translate(51.050994 243.558437) scale(0.1 -0.1)">
       <defs>
        <path id="DejaVuSans-30" d="M 2034 4250 
Q 1547 4250 1301 3770 
Q 1056 3291 1056 2328 
Q 1056 1369 1301 889 
Q 1547 409 2034 409 
Q 2525 409 2770 889 
Q 3016 1369 3016 2328 
Q 3016 3291 2770 3770 
Q 2525 4250 2034 4250 
z
M 2034 4750 
Q 2819 4750 3233 4129 
Q 3647 3509 3647 2328 
Q 3647 1150 3233 529 
Q 2819 -91 2034 -91 
Q 1250 -91 836 529 
Q 422 1150 422 2328 
Q 422 3509 836 4129 
Q 1250 4750 2034 4750 
z
" transform="scale(0.015625)"/>
        <path id="DejaVuSans-2e" d="M 684 794 
L 1344 794 
L 1344 0 
L 684 0 
L 684 794 
z
" transform="scale(0.015625)"/>
       </defs>
       <use xlink:href="#DejaVuSans-30"/>
       <use xlink:href="#DejaVuSans-2e" transform="translate(63.623047 0)"/>
       <use xlink:href="#DejaVuSans-30" transform="translate(95.410156 0)"/>
       <use xlink:href="#DejaVuSans-30" transform="translate(159.033203 0)"/>
      </g>
     </g>
    </g>
    <g id="xtick_2">
     <g id="line2d_2">
      <g>
       <use xlink:href="#mcec2d873f1" x="100.229261" y="228.96" style="stroke: #000000; stroke-width: 0.8"/>
      </g>
     </g>
     <g id="text_2">
      <!-- 0.25 -->
      <g transform="translate(89.096449 243.558437) scale(0.1 -0.1)">
       <defs>
        <path id="DejaVuSans-32" d="M 1228 531 
L 3431 531 
L 3431 0 
L 469 0 
L 469 531 
Q 828 903 1448 1529 
Q 2069 2156 2228 2338 
Q 2531 2678 2651 2914 
Q 2772 3150 2772 3378 
Q 2772 3750 2511 3984 
Q 2250 4219 1831 4219 
Q 1534 4219 1204 4116 
Q 875 4013 500 3803 
L 500 4441 
Q 881 4594 1212 4672 
Q 1544 4750 1819 4750 
Q 2544 4750 2975 4387 
Q 3406 4025 3406 3419 
Q 3406 3131 3298 2873 
Q 3191 2616 2906 2266 
Q 2828 2175 2409 1742 
Q 1991 1309 1228 531 
z
" transform="scale(0.015625)"/>
        <path id="DejaVuSans-35" d="M 691 4666 
L 3169 4666 
L 3169 4134 
L 1269 4134 
L 1269 2991 
Q 1406 3038 1543 3061 
Q 1681 3084 1819 3084 
Q 2600 3084 3056 2656 
Q 3513 2228 3513 1497 
Q 3513 744 3044 326 
Q 2575 -91 1722 -91 
Q 1428 -91 1123 -41 
Q 819 9 494 109 
L 494 744 
Q 775 591 1075 516 
Q 1375 441 1709 441 
Q 2250 441 2565 725 
Q 2881 1009 2881 1497 
Q 2881 1984 2565 2268 
Q 2250 2553 1709 2553 
Q 1456 2553 1204 2497 
Q 953 2441 691 2322 
L 691 4666 
z
" transform="scale(0.015625)"/>
       </defs>
       <use xlink:href="#DejaVuSans-30"/>
       <use xlink:href="#DejaVuSans-2e" transform="translate(63.623047 0)"/>
       <use xlink:href="#DejaVuSans-32" transform="translate(95.410156 0)"/>
       <use xlink:href="#DejaVuSans-35" transform="translate(159.033203 0)"/>
      </g>
     </g>
    </g>
    <g id="xtick_3">
     <g id="line2d_3">
      <g>
       <use xlink:href="#mcec2d873f1" x="138.274716" y="228.96" style="stroke: #000000; stroke-width: 0.8"/>
      </g>
     </g>
     <g id="text_3">
      <!-- 0.50 -->
      <g transform="translate(127.141903 243.558437) scale(0.1 -0.1)">
       <use xlink:href="#DejaVuSans-30"/>
       <use xlink:href="#DejaVuSans-2e" transform="translate(63.623047 0)"/>
       <use xlink:href="#DejaVuSans-35" transform="translate(95.410156 0)"/>
       <use xlink:href="#DejaVuSans-30" transform="translate(159.033203 0)"/>
      </g>
     </g>
    </g>
    <g id="xtick_4">
     <g id="line2d_4">
      <g>
       <use xlink:href="#mcec2d873f1" x="176.32017" y="228.96" style="stroke: #000000; stroke-width: 0.8"/>
      </g>
     </g>
     <g id="text_4">
      <!-- 0.75 -->
      <g transform="translate(165.187358 243.558437) scale(0.1 -0.1)">
       <defs>
        <path id="DejaVuSans-37" d="M 525 4666 
L 3525 4666 
L 3525 4397 
L 1831 0 
L 1172 0 
L 2766 4134 
L 525 4134 
L 525 4666 
z
" transform="scale(0.015625)"/>
       </defs>
       <use xlink:href="#DejaVuSans-30"/>
       <use xlink:href="#DejaVuSans-2e" transform="translate(63.623047 0)"/>
       <use xlink:href="#DejaVuSans-37" transform="translate(95.410156 0)"/>
       <use xlink:href="#DejaVuSans-35" transform="translate(159.033203 0)"/>
      </g>
     </g>
    </g>
    <g id="xtick_5">
     <g id="line2d_5">
      <g>
       <use xlink:href="#mcec2d873f1" x="214.365625" y="228.96" style="stroke: #000000; stroke-width: 0.8"/>
      </g>
     </g>
     <g id="text_5">
      <!-- 1.00 -->
      <g transform="translate(203.232813 243.558437) scale(0.1 -0.1)">
       <defs>
        <path id="DejaVuSans-31" d="M 794 531 
L 1825 531 
L 1825 4091 
L 703 3866 
L 703 4441 
L 1819 4666 
L 2450 4666 
L 2450 531 
L 3481 531 
L 3481 0 
L 794 0 
L 794 531 
z
" transform="scale(0.015625)"/>
       </defs>
       <use xlink:href="#DejaVuSans-31"/>
       <use xlink:href="#DejaVuSans-2e" transform="translate(63.623047 0)"/>
       <use xlink:href="#DejaVuSans-30" transform="translate(95.410156 0)"/>
       <use xlink:href="#DejaVuSans-30" transform="translate(159.033203 0)"/>
      </g>
     </g>
    </g>
    <g id="xtick_6">
     <g id="line2d_6">
      <g>
       <use xlink:href="#mcec2d873f1" x="252.41108" y="228.96" style="stroke: #000000; stroke-width: 0.8"/>
      </g>
     </g>
     <g id="text_6">
      <!-- 1.25 -->
      <g transform="translate(241.278267 243.558437) scale(0.1 -0.1)">
       <use xlink:href="#DejaVuSans-31"/>
       <use xlink:href="#DejaVuSans-2e" transform="translate(63.623047 0)"/>
       <use xlink:href="#DejaVuSans-32" transform="translate(95.410156 0)"/>
       <use xlink:href="#DejaVuSans-35" transform="translate(159.033203 0)"/>
      </g>
     </g>
    </g>
    <g id="xtick_7">
     <g id="line2d_7">
      <g>
       <use xlink:href="#mcec2d873f1" x="290.456534" y="228.96" style="stroke: #000000; stroke-width: 0.8"/>
      </g>
     </g>
     <g id="text_7">
      <!-- 1.50 -->
      <g transform="translate(279.323722 243.558437) scale(0.1 -0.1)">
       <use xlink:href="#DejaVuSans-31"/>
       <use xlink:href="#DejaVuSans-2e" transform="translate(63.623047 0)"/>
       <use xlink:href="#DejaVuSans-35" transform="translate(95.410156 0)"/>
       <use xlink:href="#DejaVuSans-30" transform="translate(159.033203 0)"/>
      </g>
     </g>
    </g>
    <g id="xtick_8">
     <g id="line2d_8">
      <g>
       <use xlink:href="#mcec2d873f1" x="328.501989" y="228.96" style="stroke: #000000; stroke-width: 0.8"/>
      </g>
     </g>
     <g id="text_8">
      <!-- 1.75 -->
      <g transform="translate(317.369176 243.558437) scale(0.1 -0.1)">
       <use xlink:href="#DejaVuSans-31"/>
       <use xlink:href="#DejaVuSans-2e" transform="translate(63.623047 0)"/>
       <use xlink:href="#DejaVuSans-37" transform="translate(95.410156 0)"/>
       <use xlink:href="#DejaVuSans-35" transform="translate(159.033203 0)"/>
      </g>
     </g>
    </g>
    <g id="xtick_9">
     <g id="line2d_9">
      <g>
       <use xlink:href="#mcec2d873f1" x="366.547443" y="228.96" style="stroke: #000000; stroke-width: 0.8"/>
      </g>
     </g>
     <g id="text_9">
      <!-- 2.00 -->
      <g transform="translate(355.414631 243.558437) scale(0.1 -0.1)">
       <use xlink:href="#DejaVuSans-32"/>
       <use xlink:href="#DejaVuSans-2e" transform="translate(63.623047 0)"/>
       <use xlink:href="#DejaVuSans-30" transform="translate(95.410156 0)"/>
       <use xlink:href="#DejaVuSans-30" transform="translate(159.033203 0)"/>
      </g>
     </g>
    </g>
    <g id="text_10">
     <!-- x [m] -->
     <g transform="translate(201.045313 257.236562) scale(0.1 -0.1)">
      <defs>
       <path id="DejaVuSans-78" d="M 3513 3500 
L 2247 1797 
L 3578 0 
L 2900 0 
L 1881 1375 
L 863 0 
L 184 0 
L 1544 1831 
L 300 3500 
L 978 3500 
L 1906 2253 
L 2834 3500 
L 3513 3500 
z
" transform="scale(0.015625)"/>
       <path id="DejaVuSans-20" transform="scale(0.015625)"/>
       <path id="DejaVuSans-5b" d="M 550 4863 
L 1875 4863 
L 1875 4416 
L 1125 4416 
L 1125 -397 
L 1875 -397 
L 1875 -844 
L 550 -844 
L 550 4863 
z
" transform="scale(0.015625)"/>
       <path id="DejaVuSans-6d" d="M 3328 2828 
Q 3544 3216 3844 3400 
Q 4144 3584 4550 3584 
Q 5097 3584 5394 3201 
Q 5691 2819 5691 2113 
L 5691 0 
L 5113 0 
L 5113 2094 
Q 5113 2597 4934 2840 
Q 4756 3084 4391 3084 
Q 3944 3084 3684 2787 
Q 3425 2491 3425 1978 
L 3425 0 
L 2847 0 
L 2847 2094 
Q 2847 2600 2669 2842 
Q 2491 3084 2119 3084 
Q 1678 3084 1418 2786 
Q 1159 2488 1159 1978 
L 1159 0 
L 581 0 
L 581 3500 
L 1159 3500 
L 1159 2956 
Q 1356 3278 1631 3431 
Q 1906 3584 2284 3584 
Q 2666 3584 2933 3390 
Q 3200 3197 3328 2828 
z
" transform="scale(0.015625)"/>
       <path id="DejaVuSans-5d" d="M 1947 4863 
L 1947 -844 
L 622 -844 
L 622 -397 
L 1369 -397 
L 1369 4416 
L 622 4416 
L 622 4863 
L 1947 4863 
z
" transform="scale(0.015625)"/>
      </defs>
      <use xlink:href="#DejaVuSans-78"/>
      <use xlink:href="#DejaVuSans-20" transform="translate(59.179688 0)"/>
      <use xlink:href="#DejaVuSans-5b" transform="translate(90.966797 0)"/>
      <use xlink:href="#DejaVuSans-6d" transform="translate(129.980469 0)"/>
      <use xlink:href="#DejaVuSans-5d" transform="translate(227.392578 0)"/>
     </g>
    </g>
   </g>
   <g id="matplotlib.axis_2">
    <g id="ytick_1">
     <g id="line2d_10">
      <defs>
       <path id="mfd5c5b657b" d="M 0 0 
L -3.5 0 
" style="stroke: #000000; stroke-width: 0.8"/>
      </defs>
      <g>
       <use xlink:href="#mfd5c5b657b" x="46.965625" y="206.523477" style="stroke: #000000; stroke-width: 0.8"/>
      </g>
     </g>
     <g id="text_11">
      <!-- 99 -->
      <g transform="translate(27.240625 210.322695) scale(0.1 -0.1)">
       <defs>
        <path id="DejaVuSans-39" d="M 703 97 
L 703 672 
Q 941 559 1184 500 
Q 1428 441 1663 441 
Q 2288 441 2617 861 
Q 2947 1281 2994 2138 
Q 2813 1869 2534 1725 
Q 2256 1581 1919 1581 
Q 1219 1581 811 2004 
Q 403 2428 403 3163 
Q 403 3881 828 4315 
Q 1253 4750 1959 4750 
Q 2769 4750 3195 4129 
Q 3622 3509 3622 2328 
Q 3622 1225 3098 567 
Q 2575 -91 1691 -91 
Q 1453 -91 1209 -44 
Q 966 3 703 97 
z
M 1959 2075 
Q 2384 2075 2632 2365 
Q 2881 2656 2881 3163 
Q 2881 3666 2632 3958 
Q 2384 4250 1959 4250 
Q 1534 4250 1286 3958 
Q 1038 3666 1038 3163 
Q 1038 2656 1286 2365 
Q 1534 2075 1959 2075 
z
" transform="scale(0.015625)"/>
       </defs>
       <use xlink:href="#DejaVuSans-39"/>
       <use xlink:href="#DejaVuSans-39" transform="translate(63.623047 0)"/>
      </g>
     </g>
    </g>
    <g id="ytick_2">
     <g id="line2d_11">
      <g>
       <use xlink:href="#mfd5c5b657b" x="46.965625" y="166.32961" style="stroke: #000000; stroke-width: 0.8"/>
      </g>
     </g>
     <g id="text_12">
      <!-- 100 -->
      <g transform="translate(20.878125 170.128828) scale(0.1 -0.1)">
       <use xlink:href="#DejaVuSans-31"/>
       <use xlink:href="#DejaVuSans-30" transform="translate(63.623047 0)"/>
       <use xlink:href="#DejaVuSans-30" transform="translate(127.246094 0)"/>
      </g>
     </g>
    </g>
    <g id="ytick_3">
     <g id="line2d_12">
      <g>
       <use xlink:href="#mfd5c5b657b" x="46.965625" y="126.135743" style="stroke: #000000; stroke-width: 0.8"/>
      </g>
     </g>
     <g id="text_13">
      <!-- 101 -->
      <g transform="translate(20.878125 129.934961) scale(0.1 -0.1)">
       <use xlink:href="#DejaVuSans-31"/>
       <use xlink:href="#DejaVuSans-30" transform="translate(63.623047 0)"/>
       <use xlink:href="#DejaVuSans-31" transform="translate(127.246094 0)"/>
      </g>
     </g>
    </g>
    <g id="ytick_4">
     <g id="line2d_13">
      <g>
       <use xlink:href="#mfd5c5b657b" x="46.965625" y="85.941876" style="stroke: #000000; stroke-width: 0.8"/>
      </g>
     </g>
     <g id="text_14">
      <!-- 102 -->
      <g transform="translate(20.878125 89.741094) scale(0.1 -0.1)">
       <use xlink:href="#DejaVuSans-31"/>
       <use xlink:href="#DejaVuSans-30" transform="translate(63.623047 0)"/>
       <use xlink:href="#DejaVuSans-32" transform="translate(127.246094 0)"/>
      </g>
     </g>
    </g>
    <g id="ytick_5">
     <g id="line2d_14">
      <g>
       <use xlink:href="#mfd5c5b657b" x="46.965625" y="45.748009" style="stroke: #000000; stroke-width: 0.8"/>
      </g>
     </g>
     <g id="text_15">
      <!-- 103 -->
      <g transform="translate(20.878125 49.547228) scale(0.1 -0.1)">
       <defs>
        <path id="DejaVuSans-33" d="M 2597 2516 
Q 3050 2419 3304 2112 
Q 3559 1806 3559 1356 
Q 3559 666 3084 287 
Q 2609 -91 1734 -91 
Q 1441 -91 1130 -33 
Q 819 25 488 141 
L 488 750 
Q 750 597 1062 519 
Q 1375 441 1716 441 
Q 2309 441 2620 675 
Q 2931 909 2931 1356 
Q 2931 1769 2642 2001 
Q 2353 2234 1838 2234 
L 1294 2234 
L 1294 2753 
L 1863 2753 
Q 2328 2753 2575 2939 
Q 2822 3125 2822 3475 
Q 2822 3834 2567 4026 
Q 2313 4219 1838 4219 
Q 1578 4219 1281 4162 
Q 984 4106 628 3988 
L 628 4550 
Q 988 4650 1302 4700 
Q 1616 4750 1894 4750 
Q 2613 4750 3031 4423 
Q 3450 4097 3450 3541 
Q 3450 3153 3228 2886 
Q 3006 2619 2597 2516 
z
" transform="scale(0.015625)"/>
       </defs>
       <use xlink:href="#DejaVuSans-31"/>
       <use xlink:href="#DejaVuSans-30" transform="translate(63.623047 0)"/>
       <use xlink:href="#DejaVuSans-33" transform="translate(127.246094 0)"/>
      </g>
     </g>
    </g>
    <g id="text_16">
     <!-- [K] -->
     <g transform="translate(14.798438 125.260469) rotate(-90) scale(0.1 -0.1)">
      <defs>
       <path id="DejaVuSans-4b" d="M 628 4666 
L 1259 4666 
L 1259 2694 
L 3353 4666 
L 4166 4666 
L 1850 2491 
L 4331 0 
L 3500 0 
L 1259 2247 
L 1259 0 
L 628 0 
L 628 4666 
z
" transform="scale(0.015625)"/>
      </defs>
      <use xlink:href="#DejaVuSans-5b"/>
      <use xlink:href="#DejaVuSans-4b" transform="translate(39.013672 0)"/>
      <use xlink:href="#DejaVuSans-5d" transform="translate(104.589844 0)"/>
     </g>
    </g>
   </g>
   <g id="line2d_15">
    <defs>
     <path id="ma494aa30a9" d="M 0 3 
C 0.795609 3 1.55874 2.683901 2.12132 2.12132 
C 2.683901 1.55874 3 0.795609 3 0 
C 3 -0.795609 2.683901 -1.55874 2.12132 -2.12132 
C 1.55874 -2.683901 0.795609 -3 0 -3 
C -0.795609 -3 -1.55874 -2.683901 -2.12132 -2.12132 
C -2.683901 -1.55874 -3 -0.795609 -3 0 
C -3 0.795609 -2.683901 1.55874 -2.12132 2.12132 
C -1.55874 2.683901 -0.795609 3 0 3 
z
" style="stroke: #1f77b4"/>
    </defs>
    <g clip-path="url(#p9794332ee9)">
     <use xlink:href="#ma494aa30a9" x="62.183807" y="174.886952" style="fill: #1f77b4; stroke: #1f77b4"/>
     <use xlink:href="#ma494aa30a9" x="68.39531" y="194.441444" style="fill: #1f77b4; stroke: #1f77b4"/>
     <use xlink:href="#ma494aa30a9" x="74.606812" y="166.372488" style="fill: #1f77b4; stroke: #1f77b4"/>
     <use xlink:href="#ma494aa30a9" x="80.818315" y="196.786854" style="fill: #1f77b4; stroke: #1f77b4"/>
     <use xlink:href="#ma494aa30a9" x="87.029818" y="183.170236" style="fill: #1f77b4; stroke: #1f77b4"/>
     <use xlink:href="#ma494aa30a9" x="93.241321" y="188.178919" style="fill: #1f77b4; stroke: #1f77b4"/>
     <use xlink:href="#ma494aa30a9" x="99.452824" y="173.657502" style="fill: #1f77b4; stroke: #1f77b4"/>
     <use xlink:href="#ma494aa30a9" x="105.664326" y="157.290182" style="fill: #1f77b4; stroke: #1f77b4"/>
     <use xlink:href="#ma494aa30a9" x="111.875829" y="177.566282" style="fill: #1f77b4; stroke: #1f77b4"/>
     <use xlink:href="#ma494aa30a9" x="118.087332" y="182.284898" style="fill: #1f77b4; stroke: #1f77b4"/>
     <use xlink:href="#ma494aa30a9" x="124.298835" y="165.654484" style="fill: #1f77b4; stroke: #1f77b4"/>
     <use xlink:href="#ma494aa30a9" x="130.510337" y="171.475131" style="fill: #1f77b4; stroke: #1f77b4"/>
     <use xlink:href="#ma494aa30a9" x="136.72184" y="173.345573" style="fill: #1f77b4; stroke: #1f77b4"/>
     <use xlink:href="#ma494aa30a9" x="142.933343" y="151.206637" style="fill: #1f77b4; stroke: #1f77b4"/>
     <use xlink:href="#ma494aa30a9" x="149.144846" y="160.065838" style="fill: #1f77b4; stroke: #1f77b4"/>
     <use xlink:href="#ma494aa30a9" x="155.356349" y="142.600669" style="fill: #1f77b4; stroke: #1f77b4"/>
     <use xlink:href="#ma494aa30a9" x="161.567851" y="159.130595" style="fill: #1f77b4; stroke: #1f77b4"/>
     <use xlink:href="#ma494aa30a9" x="167.779354" y="126.821875" style="fill: #1f77b4; stroke: #1f77b4"/>
     <use xlink:href="#ma494aa30a9" x="173.990857" y="147.553005" style="fill: #1f77b4; stroke: #1f77b4"/>
     <use xlink:href="#ma494aa30a9" x="180.20236" y="155.527082" style="fill: #1f77b4; stroke: #1f77b4"/>
     <use xlink:href="#ma494aa30a9" x="186.413862" y="132.020207" style="fill: #1f77b4; stroke: #1f77b4"/>
     <use xlink:href="#ma494aa30a9" x="192.625365" y="117.579721" style="fill: #1f77b4; stroke: #1f77b4"/>
     <use xlink:href="#ma494aa30a9" x="198.836868" y="134.684338" style="fill: #1f77b4; stroke: #1f77b4"/>
     <use xlink:href="#ma494aa30a9" x="205.048371" y="111.555266" style="fill: #1f77b4; stroke: #1f77b4"/>
     <use xlink:href="#ma494aa30a9" x="211.259874" y="127.370355" style="fill: #1f77b4; stroke: #1f77b4"/>
     <use xlink:href="#ma494aa30a9" x="217.471376" y="127.910669" style="fill: #1f77b4; stroke: #1f77b4"/>
     <use xlink:href="#ma494aa30a9" x="223.682879" y="117.612626" style="fill: #1f77b4; stroke: #1f77b4"/>
     <use xlink:href="#ma494aa30a9" x="229.894382" y="100.083777" style="fill: #1f77b4; stroke: #1f77b4"/>
     <use xlink:href="#ma494aa30a9" x="236.105885" y="99.477989" style="fill: #1f77b4; stroke: #1f77b4"/>
     <use xlink:href="#ma494aa30a9" x="242.317388" y="116.667863" style="fill: #1f77b4; stroke: #1f77b4"/>
     <use xlink:href="#ma494aa30a9" x="248.52889" y="102.241954" style="fill: #1f77b4; stroke: #1f77b4"/>
     <use xlink:href="#ma494aa30a9" x="254.740393" y="110.243816" style="fill: #1f77b4; stroke: #1f77b4"/>
     <use xlink:href="#ma494aa30a9" x="260.951896" y="106.501206" style="fill: #1f77b4; stroke: #1f77b4"/>
     <use xlink:href="#ma494aa30a9" x="267.163399" y="93.731694" style="fill: #1f77b4; stroke: #1f77b4"/>
     <use xlink:href="#ma494aa30a9" x="273.374901" y="106.187989" style="fill: #1f77b4; stroke: #1f77b4"/>
     <use xlink:href="#ma494aa30a9" x="279.586404" y="90.872027" style="fill: #1f77b4; stroke: #1f77b4"/>
     <use xlink:href="#ma494aa30a9" x="285.797907" y="89.34933" style="fill: #1f77b4; stroke: #1f77b4"/>
     <use xlink:href="#ma494aa30a9" x="292.00941" y="78.008981" style="fill: #1f77b4; stroke: #1f77b4"/>
     <use xlink:href="#ma494aa30a9" x="298.220913" y="108.391628" style="fill: #1f77b4; stroke: #1f77b4"/>
     <use xlink:href="#ma494aa30a9" x="304.432415" y="81.248429" style="fill: #1f77b4; stroke: #1f77b4"/>
     <use xlink:href="#ma494aa30a9" x="310.643918" y="70.812763" style="fill: #1f77b4; stroke: #1f77b4"/>
     <use xlink:href="#ma494aa30a9" x="316.855421" y="66.723971" style="fill: #1f77b4; stroke: #1f77b4"/>
     <use xlink:href="#ma494aa30a9" x="323.066924" y="102.576715" style="fill: #1f77b4; stroke: #1f77b4"/>
     <use xlink:href="#ma494aa30a9" x="329.278426" y="65.993935" style="fill: #1f77b4; stroke: #1f77b4"/>
     <use xlink:href="#ma494aa30a9" x="335.489929" y="58.808098" style="fill: #1f77b4; stroke: #1f77b4"/>
     <use xlink:href="#ma494aa30a9" x="341.701432" y="57.311293" style="fill: #1f77b4; stroke: #1f77b4"/>
     <use xlink:href="#ma494aa30a9" x="347.912935" y="87.345022" style="fill: #1f77b4; stroke: #1f77b4"/>
     <use xlink:href="#ma494aa30a9" x="354.124438" y="51.769861" style="fill: #1f77b4; stroke: #1f77b4"/>
     <use xlink:href="#ma494aa30a9" x="360.33594" y="52.632773" style="fill: #1f77b4; stroke: #1f77b4"/>
     <use xlink:href="#ma494aa30a9" x="366.547443" y="52.887492" style="fill: #1f77b4; stroke: #1f77b4"/>
    </g>
   </g>
   <g id="LineCollection_1">
    <path d="M 62.183807 207.131081 
L 62.183807 142.642823 
" clip-path="url(#p9794332ee9)" style="fill: none; stroke: #1f77b4; stroke-width: 1.5"/>
    <path d="M 68.39531 218.88 
L 68.39531 170.002888 
" clip-path="url(#p9794332ee9)" style="fill: none; stroke: #1f77b4; stroke-width: 1.5"/>
    <path d="M 74.606812 199.717464 
L 74.606812 133.027512 
" clip-path="url(#p9794332ee9)" style="fill: none; stroke: #1f77b4; stroke-width: 1.5"/>
    <path d="M 80.818315 218.028239 
L 80.818315 175.545469 
" clip-path="url(#p9794332ee9)" style="fill: none; stroke: #1f77b4; stroke-width: 1.5"/>
    <path d="M 87.029818 209.158564 
L 87.029818 157.181908 
" clip-path="url(#p9794332ee9)" style="fill: none; stroke: #1f77b4; stroke-width: 1.5"/>
    <path d="M 93.241321 211.097874 
L 93.241321 165.259964 
" clip-path="url(#p9794332ee9)" style="fill: none; stroke: #1f77b4; stroke-width: 1.5"/>
    <path d="M 99.452824 201.364161 
L 99.452824 145.950843 
" clip-path="url(#p9794332ee9)" style="fill: none; stroke: #1f77b4; stroke-width: 1.5"/>
    <path d="M 105.664326 189.649668 
L 105.664326 124.930696 
" clip-path="url(#p9794332ee9)" style="fill: none; stroke: #1f77b4; stroke-width: 1.5"/>
    <path d="M 111.875829 201.860178 
L 111.875829 153.272386 
" clip-path="url(#p9794332ee9)" style="fill: none; stroke: #1f77b4; stroke-width: 1.5"/>
    <path d="M 118.087332 203.401436 
L 118.087332 161.168361 
" clip-path="url(#p9794332ee9)" style="fill: none; stroke: #1f77b4; stroke-width: 1.5"/>
    <path d="M 124.298835 192.685447 
L 124.298835 138.62352 
" clip-path="url(#p9794332ee9)" style="fill: none; stroke: #1f77b4; stroke-width: 1.5"/>
    <path d="M 130.510337 195.228874 
L 130.510337 147.721388 
" clip-path="url(#p9794332ee9)" style="fill: none; stroke: #1f77b4; stroke-width: 1.5"/>
    <path d="M 136.72184 195.190358 
L 136.72184 151.500788 
" clip-path="url(#p9794332ee9)" style="fill: none; stroke: #1f77b4; stroke-width: 1.5"/>
    <path d="M 142.933343 180.747521 
L 142.933343 121.665753 
" clip-path="url(#p9794332ee9)" style="fill: none; stroke: #1f77b4; stroke-width: 1.5"/>
    <path d="M 149.144846 185.465947 
L 149.144846 134.665729 
" clip-path="url(#p9794332ee9)" style="fill: none; stroke: #1f77b4; stroke-width: 1.5"/>
    <path d="M 155.356349 173.369263 
L 155.356349 111.832075 
" clip-path="url(#p9794332ee9)" style="fill: none; stroke: #1f77b4; stroke-width: 1.5"/>
    <path d="M 161.567851 182.901376 
L 161.567851 135.359815 
" clip-path="url(#p9794332ee9)" style="fill: none; stroke: #1f77b4; stroke-width: 1.5"/>
    <path d="M 167.779354 160.952516 
L 167.779354 92.691233 
" clip-path="url(#p9794332ee9)" style="fill: none; stroke: #1f77b4; stroke-width: 1.5"/>
    <path d="M 173.990857 173.988077 
L 173.990857 121.117933 
" clip-path="url(#p9794332ee9)" style="fill: none; stroke: #1f77b4; stroke-width: 1.5"/>
    <path d="M 180.20236 177.642756 
L 180.20236 133.411409 
" clip-path="url(#p9794332ee9)" style="fill: none; stroke: #1f77b4; stroke-width: 1.5"/>
    <path d="M 186.413862 162.220598 
L 186.413862 101.819816 
" clip-path="url(#p9794332ee9)" style="fill: none; stroke: #1f77b4; stroke-width: 1.5"/>
    <path d="M 192.625365 151.532888 
L 192.625365 83.626553 
" clip-path="url(#p9794332ee9)" style="fill: none; stroke: #1f77b4; stroke-width: 1.5"/>
    <path d="M 198.836868 162.245392 
L 198.836868 107.123284 
" clip-path="url(#p9794332ee9)" style="fill: none; stroke: #1f77b4; stroke-width: 1.5"/>
    <path d="M 205.048371 145.833242 
L 205.048371 77.277291 
" clip-path="url(#p9794332ee9)" style="fill: none; stroke: #1f77b4; stroke-width: 1.5"/>
    <path d="M 211.259874 155.79023 
L 211.259874 98.95048 
" clip-path="url(#p9794332ee9)" style="fill: none; stroke: #1f77b4; stroke-width: 1.5"/>
    <path d="M 217.471376 155.248832 
L 217.471376 100.572506 
" clip-path="url(#p9794332ee9)" style="fill: none; stroke: #1f77b4; stroke-width: 1.5"/>
    <path d="M 223.682879 147.693828 
L 223.682879 87.531424 
" clip-path="url(#p9794332ee9)" style="fill: none; stroke: #1f77b4; stroke-width: 1.5"/>
    <path d="M 229.894382 134.835745 
L 229.894382 65.331809 
" clip-path="url(#p9794332ee9)" style="fill: none; stroke: #1f77b4; stroke-width: 1.5"/>
    <path d="M 236.105885 133.689365 
L 236.105885 65.266613 
" clip-path="url(#p9794332ee9)" style="fill: none; stroke: #1f77b4; stroke-width: 1.5"/>
    <path d="M 242.317388 144.515645 
L 242.317388 88.82008 
" clip-path="url(#p9794332ee9)" style="fill: none; stroke: #1f77b4; stroke-width: 1.5"/>
    <path d="M 248.52889 134.116082 
L 248.52889 70.367827 
" clip-path="url(#p9794332ee9)" style="fill: none; stroke: #1f77b4; stroke-width: 1.5"/>
    <path d="M 254.740393 138.628523 
L 254.740393 81.859109 
" clip-path="url(#p9794332ee9)" style="fill: none; stroke: #1f77b4; stroke-width: 1.5"/>
    <path d="M 260.951896 135.336099 
L 260.951896 77.666313 
" clip-path="url(#p9794332ee9)" style="fill: none; stroke: #1f77b4; stroke-width: 1.5"/>
    <path d="M 267.163399 125.959377 
L 267.163399 61.50401 
" clip-path="url(#p9794332ee9)" style="fill: none; stroke: #1f77b4; stroke-width: 1.5"/>
    <path d="M 273.374901 133.369503 
L 273.374901 79.006474 
" clip-path="url(#p9794332ee9)" style="fill: none; stroke: #1f77b4; stroke-width: 1.5"/>
    <path d="M 279.586404 122.450232 
L 279.586404 59.293821 
" clip-path="url(#p9794332ee9)" style="fill: none; stroke: #1f77b4; stroke-width: 1.5"/>
    <path d="M 285.797907 120.627583 
L 285.797907 58.071078 
" clip-path="url(#p9794332ee9)" style="fill: none; stroke: #1f77b4; stroke-width: 1.5"/>
    <path d="M 292.00941 112.020447 
L 292.00941 43.997515 
" clip-path="url(#p9794332ee9)" style="fill: none; stroke: #1f77b4; stroke-width: 1.5"/>
    <path d="M 298.220913 130.678984 
L 298.220913 86.104271 
" clip-path="url(#p9794332ee9)" style="fill: none; stroke: #1f77b4; stroke-width: 1.5"/>
    <path d="M 304.432415 112.756615 
L 304.432415 49.740243 
" clip-path="url(#p9794332ee9)" style="fill: none; stroke: #1f77b4; stroke-width: 1.5"/>
    <path d="M 310.643918 104.769134 
L 310.643918 36.856391 
" clip-path="url(#p9794332ee9)" style="fill: none; stroke: #1f77b4; stroke-width: 1.5"/>
    <path d="M 316.855421 101.158719 
L 316.855421 32.289224 
" clip-path="url(#p9794332ee9)" style="fill: none; stroke: #1f77b4; stroke-width: 1.5"/>
    <path d="M 323.066924 122.967059 
L 323.066924 82.186372 
" clip-path="url(#p9794332ee9)" style="fill: none; stroke: #1f77b4; stroke-width: 1.5"/>
    <path d="M 329.278426 99.182974 
L 329.278426 32.804896 
" clip-path="url(#p9794332ee9)" style="fill: none; stroke: #1f77b4; stroke-width: 1.5"/>
    <path d="M 335.489929 93.398126 
L 335.489929 24.21807 
" clip-path="url(#p9794332ee9)" style="fill: none; stroke: #1f77b4; stroke-width: 1.5"/>
    <path d="M 341.701432 91.620122 
L 341.701432 23.002465 
" clip-path="url(#p9794332ee9)" style="fill: none; stroke: #1f77b4; stroke-width: 1.5"/>
    <path d="M 347.912935 110.237255 
L 347.912935 64.452788 
" clip-path="url(#p9794332ee9)" style="fill: none; stroke: #1f77b4; stroke-width: 1.5"/>
    <path d="M 354.124438 86.259721 
L 354.124438 17.28 
" clip-path="url(#p9794332ee9)" style="fill: none; stroke: #1f77b4; stroke-width: 1.5"/>
    <path d="M 360.33594 86.140281 
L 360.33594 19.125266 
" clip-path="url(#p9794332ee9)" style="fill: none; stroke: #1f77b4; stroke-width: 1.5"/>
    <path d="M 366.547443 85.570492 
L 366.547443 20.204491 
" clip-path="url(#p9794332ee9)" style="fill: none; stroke: #1f77b4; stroke-width: 1.5"/>
   </g>
   <g id="patch_3">
    <path d="M 46.965625 228.96 
L 46.965625 7.2 
" style="fill: none; stroke: #000000; stroke-width: 0.8; stroke-linejoin: miter; stroke-linecap: square"/>
   </g>
   <g id="patch_4">
    <path d="M 381.765625 228.96 
L 381.765625 7.2 
" style="fill: none; stroke: #000000; stroke-width: 0.8; stroke-linejoin: miter; stroke-linecap: square"/>
   </g>
   <g id="patch_5">
    <path d="M 46.965625 228.96 
L 381.765625 228.96 
" style="fill: none; stroke: #000000; stroke-width: 0.8; stroke-linejoin: miter; stroke-linecap: square"/>
   </g>
   <g id="patch_6">
    <path d="M 46.965625 7.2 
L 381.765625 7.2 
" style="fill: none; stroke: #000000; stroke-width: 0.8; stroke-linejoin: miter; stroke-linecap: square"/>
   </g>
  </g>
 </g>
 <defs>
  <clipPath id="p9794332ee9">
   <rect x="46.965625" y="7.2" width="334.8" height="221.76"/>
  </clipPath>
 </defs>
</svg>
