<?xml version="1.0" encoding="utf-8" standalone="no"?>
<!DOCTYPE svg PUBLIC "-//W3C//DTD SVG 1.1//EN"
  "http://www.w3.org/Graphics/SVG/1.1/DTD/svg11.dtd">
<svg xmlns:xlink="http://www.w3.org/1999/xlink" width="390.982812pt" height="266.51625pt" viewBox="0 0 390.982812 266.51625" xmlns="http://www.w3.org/2000/svg" version="1.1">
 <metadata>
  <rdf:RDF xmlns:dc="http://purl.org/dc/elements/1.1/" xmlns:cc="http://creativecommons.org/ns#" xmlns:rdf="http://www.w3.org/1999/02/22-rdf-syntax-ns#">
   <cc:Work>
    <dc:type rdf:resource="http://purl.org/dc/dcmitype/StillImage"/>
    <dc:date>2025-04-24T16:23:53.483996</dc:date>
    <dc:format>image/svg+xml</dc:format>
    <dc:creator>
     <cc:Agent>
      <dc:title>Matplotlib v3.10.0, https://matplotlib.org/</dc:title>
     </cc:Agent>
    </dc:creator>
   </cc:Work>
  </rdf:RDF>
 </metadata>
 <defs>
  <style type="text/css">*{stroke-linejoin: round; stroke-linecap: butt}</style>
 </defs>
 <g id="figure_1">
  <g id="patch_1">
   <path d="M 0 266.51625 
L 390.982812 266.51625 
L 390.982812 0 
L 0 0 
z
" style="fill: #ffffff"/>
  </g>
  <g id="axes_1">
   <g id="patch_2">
    <path d="M 48.982813 228.96 
L 383.782813 228.96 
L 383.782813 7.2 
L 48.982813 7.2 
z
" style="fill: #ffffff"/>
   </g>
   <g id="matplotlib.axis_1">
    <g id="xtick_1">
     <g id="line2d_1">
      <defs>
       <path id="md0fa2e3b5f" d="M 0 0 
L 0 3.5 
" style="stroke: #000000; stroke-width: 0.8"/>
      </defs>
      <g>
       <use xlink:href="#md0fa2e3b5f" x="64.200994" y="228.96" style="stroke: #000000; stroke-width: 0.8"/>
      </g>
     </g>
     <g id="text_1">
      <!-- 2000-01 -->
      <g transform="translate(43.309588 243.558437) scale(0.1 -0.1)">
       <defs>
        <path id="DejaVuSans-32" d="M 1228 531 
L 3431 531 
L 3431 0 
L 469 0 
L 469 531 
Q 828 903 1448 1529 
Q 2069 2156 2228 2338 
Q 2531 2678 2651 2914 
Q 2772 3150 2772 3378 
Q 2772 3750 2511 3984 
Q 2250 4219 1831 4219 
Q 1534 4219 1204 4116 
Q 875 4013 500 3803 
L 500 4441 
Q 881 4594 1212 4672 
Q 1544 4750 1819 4750 
Q 2544 4750 2975 4387 
Q 3406 4025 3406 3419 
Q 3406 3131 3298 2873 
Q 3191 2616 2906 2266 
Q 2828 2175 2409 1742 
Q 1991 1309 1228 531 
z
" transform="scale(0.015625)"/>
        <path id="DejaVuSans-30" d="M 2034 4250 
Q 1547 4250 1301 3770 
Q 1056 3291 1056 2328 
Q 1056 1369 1301 889 
Q 1547 409 2034 409 
Q 2525 409 2770 889 
Q 3016 1369 3016 2328 
Q 3016 3291 2770 3770 
Q 2525 4250 2034 4250 
z
M 2034 4750 
Q 2819 4750 3233 4129 
Q 3647 3509 3647 2328 
Q 3647 1150 3233 529 
Q 2819 -91 2034 -91 
Q 1250 -91 836 529 
Q 422 1150 422 2328 
Q 422 3509 836 4129 
Q 1250 4750 2034 4750 
z
" transform="scale(0.015625)"/>
        <path id="DejaVuSans-2d" d="M 313 2009 
L 1997 2009 
L 1997 1497 
L 313 1497 
L 313 2009 
z
" transform="scale(0.015625)"/>
        <path id="DejaVuSans-31" d="M 794 531 
L 1825 531 
L 1825 4091 
L 703 3866 
L 703 4441 
L 1819 4666 
L 2450 4666 
L 2450 531 
L 3481 531 
L 3481 0 
L 794 0 
L 794 531 
z
" transform="scale(0.015625)"/>
       </defs>
       <use xlink:href="#DejaVuSans-32"/>
       <use xlink:href="#DejaVuSans-30" transform="translate(63.623047 0)"/>
       <use xlink:href="#DejaVuSans-30" transform="translate(127.246094 0)"/>
       <use xlink:href="#DejaVuSans-30" transform="translate(190.869141 0)"/>
       <use xlink:href="#DejaVuSans-2d" transform="translate(254.492188 0)"/>
       <use xlink:href="#DejaVuSans-30" transform="translate(290.576172 0)"/>
       <use xlink:href="#DejaVuSans-31" transform="translate(354.199219 0)"/>
      </g>
     </g>
    </g>
    <g id="xtick_2">
     <g id="line2d_2">
      <g>
       <use xlink:href="#md0fa2e3b5f" x="111.614425" y="228.96" style="stroke: #000000; stroke-width: 0.8"/>
      </g>
     </g>
     <g id="text_2">
      <!-- 2000-02 -->
      <g transform="translate(90.723019 243.558437) scale(0.1 -0.1)">
       <use xlink:href="#DejaVuSans-32"/>
       <use xlink:href="#DejaVuSans-30" transform="translate(63.623047 0)"/>
       <use xlink:href="#DejaVuSans-30" transform="translate(127.246094 0)"/>
       <use xlink:href="#DejaVuSans-30" transform="translate(190.869141 0)"/>
       <use xlink:href="#DejaVuSans-2d" transform="translate(254.492188 0)"/>
       <use xlink:href="#DejaVuSans-30" transform="translate(290.576172 0)"/>
       <use xlink:href="#DejaVuSans-32" transform="translate(354.199219 0)"/>
      </g>
     </g>
    </g>
    <g id="xtick_3">
     <g id="line2d_3">
      <g>
       <use xlink:href="#md0fa2e3b5f" x="155.968925" y="228.96" style="stroke: #000000; stroke-width: 0.8"/>
      </g>
     </g>
     <g id="text_3">
      <!-- 2000-03 -->
      <g transform="translate(135.077519 243.558437) scale(0.1 -0.1)">
       <defs>
        <path id="DejaVuSans-33" d="M 2597 2516 
Q 3050 2419 3304 2112 
Q 3559 1806 3559 1356 
Q 3559 666 3084 287 
Q 2609 -91 1734 -91 
Q 1441 -91 1130 -33 
Q 819 25 488 141 
L 488 750 
Q 750 597 1062 519 
Q 1375 441 1716 441 
Q 2309 441 2620 675 
Q 2931 909 2931 1356 
Q 2931 1769 2642 2001 
Q 2353 2234 1838 2234 
L 1294 2234 
L 1294 2753 
L 1863 2753 
Q 2328 2753 2575 2939 
Q 2822 3125 2822 3475 
Q 2822 3834 2567 4026 
Q 2313 4219 1838 4219 
Q 1578 4219 1281 4162 
Q 984 4106 628 3988 
L 628 4550 
Q 988 4650 1302 4700 
Q 1616 4750 1894 4750 
Q 2613 4750 3031 4423 
Q 3450 4097 3450 3541 
Q 3450 3153 3228 2886 
Q 3006 2619 2597 2516 
z
" transform="scale(0.015625)"/>
       </defs>
       <use xlink:href="#DejaVuSans-32"/>
       <use xlink:href="#DejaVuSans-30" transform="translate(63.623047 0)"/>
       <use xlink:href="#DejaVuSans-30" transform="translate(127.246094 0)"/>
       <use xlink:href="#DejaVuSans-30" transform="translate(190.869141 0)"/>
       <use xlink:href="#DejaVuSans-2d" transform="translate(254.492188 0)"/>
       <use xlink:href="#DejaVuSans-30" transform="translate(290.576172 0)"/>
       <use xlink:href="#DejaVuSans-33" transform="translate(354.199219 0)"/>
      </g>
     </g>
    </g>
    <g id="xtick_4">
     <g id="line2d_4">
      <g>
       <use xlink:href="#md0fa2e3b5f" x="203.382356" y="228.96" style="stroke: #000000; stroke-width: 0.8"/>
      </g>
     </g>
     <g id="text_4">
      <!-- 2000-04 -->
      <g transform="translate(182.490949 243.558437) scale(0.1 -0.1)">
       <defs>
        <path id="DejaVuSans-34" d="M 2419 4116 
L 825 1625 
L 2419 1625 
L 2419 4116 
z
M 2253 4666 
L 3047 4666 
L 3047 1625 
L 3713 1625 
L 3713 1100 
L 3047 1100 
L 3047 0 
L 2419 0 
L 2419 1100 
L 313 1100 
L 313 1709 
L 2253 4666 
z
" transform="scale(0.015625)"/>
       </defs>
       <use xlink:href="#DejaVuSans-32"/>
       <use xlink:href="#DejaVuSans-30" transform="translate(63.623047 0)"/>
       <use xlink:href="#DejaVuSans-30" transform="translate(127.246094 0)"/>
       <use xlink:href="#DejaVuSans-30" transform="translate(190.869141 0)"/>
       <use xlink:href="#DejaVuSans-2d" transform="translate(254.492188 0)"/>
       <use xlink:href="#DejaVuSans-30" transform="translate(290.576172 0)"/>
       <use xlink:href="#DejaVuSans-34" transform="translate(354.199219 0)"/>
      </g>
     </g>
    </g>
    <g id="xtick_5">
     <g id="line2d_5">
      <g>
       <use xlink:href="#md0fa2e3b5f" x="249.266321" y="228.96" style="stroke: #000000; stroke-width: 0.8"/>
      </g>
     </g>
     <g id="text_5">
      <!-- 2000-05 -->
      <g transform="translate(228.374915 243.558437) scale(0.1 -0.1)">
       <defs>
        <path id="DejaVuSans-35" d="M 691 4666 
L 3169 4666 
L 3169 4134 
L 1269 4134 
L 1269 2991 
Q 1406 3038 1543 3061 
Q 1681 3084 1819 3084 
Q 2600 3084 3056 2656 
Q 3513 2228 3513 1497 
Q 3513 744 3044 326 
Q 2575 -91 1722 -91 
Q 1428 -91 1123 -41 
Q 819 9 494 109 
L 494 744 
Q 775 591 1075 516 
Q 1375 441 1709 441 
Q 2250 441 2565 725 
Q 2881 1009 2881 1497 
Q 2881 1984 2565 2268 
Q 2250 2553 1709 2553 
Q 1456 2553 1204 2497 
Q 953 2441 691 2322 
L 691 4666 
z
" transform="scale(0.015625)"/>
       </defs>
       <use xlink:href="#DejaVuSans-32"/>
       <use xlink:href="#DejaVuSans-30" transform="translate(63.623047 0)"/>
       <use xlink:href="#DejaVuSans-30" transform="translate(127.246094 0)"/>
       <use xlink:href="#DejaVuSans-30" transform="translate(190.869141 0)"/>
       <use xlink:href="#DejaVuSans-2d" transform="translate(254.492188 0)"/>
       <use xlink:href="#DejaVuSans-30" transform="translate(290.576172 0)"/>
       <use xlink:href="#DejaVuSans-35" transform="translate(354.199219 0)"/>
      </g>
     </g>
    </g>
    <g id="xtick_6">
     <g id="line2d_6">
      <g>
       <use xlink:href="#md0fa2e3b5f" x="296.679752" y="228.96" style="stroke: #000000; stroke-width: 0.8"/>
      </g>
     </g>
     <g id="text_6">
      <!-- 2000-06 -->
      <g transform="translate(275.788345 243.558437) scale(0.1 -0.1)">
       <defs>
        <path id="DejaVuSans-36" d="M 2113 2584 
Q 1688 2584 1439 2293 
Q 1191 2003 1191 1497 
Q 1191 994 1439 701 
Q 1688 409 2113 409 
Q 2538 409 2786 701 
Q 3034 994 3034 1497 
Q 3034 2003 2786 2293 
Q 2538 2584 2113 2584 
z
M 3366 4563 
L 3366 3988 
Q 3128 4100 2886 4159 
Q 2644 4219 2406 4219 
Q 1781 4219 1451 3797 
Q 1122 3375 1075 2522 
Q 1259 2794 1537 2939 
Q 1816 3084 2150 3084 
Q 2853 3084 3261 2657 
Q 3669 2231 3669 1497 
Q 3669 778 3244 343 
Q 2819 -91 2113 -91 
Q 1303 -91 875 529 
Q 447 1150 447 2328 
Q 447 3434 972 4092 
Q 1497 4750 2381 4750 
Q 2619 4750 2861 4703 
Q 3103 4656 3366 4563 
z
" transform="scale(0.015625)"/>
       </defs>
       <use xlink:href="#DejaVuSans-32"/>
       <use xlink:href="#DejaVuSans-30" transform="translate(63.623047 0)"/>
       <use xlink:href="#DejaVuSans-30" transform="translate(127.246094 0)"/>
       <use xlink:href="#DejaVuSans-30" transform="translate(190.869141 0)"/>
       <use xlink:href="#DejaVuSans-2d" transform="translate(254.492188 0)"/>
       <use xlink:href="#DejaVuSans-30" transform="translate(290.576172 0)"/>
       <use xlink:href="#DejaVuSans-36" transform="translate(354.199219 0)"/>
      </g>
     </g>
    </g>
    <g id="xtick_7">
     <g id="line2d_7">
      <g>
       <use xlink:href="#md0fa2e3b5f" x="342.563717" y="228.96" style="stroke: #000000; stroke-width: 0.8"/>
      </g>
     </g>
     <g id="text_7">
      <!-- 2000-07 -->
      <g transform="translate(321.672311 243.558437) scale(0.1 -0.1)">
       <defs>
        <path id="DejaVuSans-37" d="M 525 4666 
L 3525 4666 
L 3525 4397 
L 1831 0 
L 1172 0 
L 2766 4134 
L 525 4134 
L 525 4666 
z
" transform="scale(0.015625)"/>
       </defs>
       <use xlink:href="#DejaVuSans-32"/>
       <use xlink:href="#DejaVuSans-30" transform="translate(63.623047 0)"/>
       <use xlink:href="#DejaVuSans-30" transform="translate(127.246094 0)"/>
       <use xlink:href="#DejaVuSans-30" transform="translate(190.869141 0)"/>
       <use xlink:href="#DejaVuSans-2d" transform="translate(254.492188 0)"/>
       <use xlink:href="#DejaVuSans-30" transform="translate(290.576172 0)"/>
       <use xlink:href="#DejaVuSans-37" transform="translate(354.199219 0)"/>
      </g>
     </g>
    </g>
    <g id="text_8">
     <!-- row [datetime] -->
     <g transform="translate(179.229688 257.236562) scale(0.1 -0.1)">
      <defs>
       <path id="DejaVuSans-72" d="M 2631 2963 
Q 2534 3019 2420 3045 
Q 2306 3072 2169 3072 
Q 1681 3072 1420 2755 
Q 1159 2438 1159 1844 
L 1159 0 
L 581 0 
L 581 3500 
L 1159 3500 
L 1159 2956 
Q 1341 3275 1631 3429 
Q 1922 3584 2338 3584 
Q 2397 3584 2469 3576 
Q 2541 3569 2628 3553 
L 2631 2963 
z
" transform="scale(0.015625)"/>
       <path id="DejaVuSans-6f" d="M 1959 3097 
Q 1497 3097 1228 2736 
Q 959 2375 959 1747 
Q 959 1119 1226 758 
Q 1494 397 1959 397 
Q 2419 397 2687 759 
Q 2956 1122 2956 1747 
Q 2956 2369 2687 2733 
Q 2419 3097 1959 3097 
z
M 1959 3584 
Q 2709 3584 3137 3096 
Q 3566 2609 3566 1747 
Q 3566 888 3137 398 
Q 2709 -91 1959 -91 
Q 1206 -91 779 398 
Q 353 888 353 1747 
Q 353 2609 779 3096 
Q 1206 3584 1959 3584 
z
" transform="scale(0.015625)"/>
       <path id="DejaVuSans-77" d="M 269 3500 
L 844 3500 
L 1563 769 
L 2278 3500 
L 2956 3500 
L 3675 769 
L 4391 3500 
L 4966 3500 
L 4050 0 
L 3372 0 
L 2619 2869 
L 1863 0 
L 1184 0 
L 269 3500 
z
" transform="scale(0.015625)"/>
       <path id="DejaVuSans-20" transform="scale(0.015625)"/>
       <path id="DejaVuSans-5b" d="M 550 4863 
L 1875 4863 
L 1875 4416 
L 1125 4416 
L 1125 -397 
L 1875 -397 
L 1875 -844 
L 550 -844 
L 550 4863 
z
" transform="scale(0.015625)"/>
       <path id="DejaVuSans-64" d="M 2906 2969 
L 2906 4863 
L 3481 4863 
L 3481 0 
L 2906 0 
L 2906 525 
Q 2725 213 2448 61 
Q 2172 -91 1784 -91 
Q 1150 -91 751 415 
Q 353 922 353 1747 
Q 353 2572 751 3078 
Q 1150 3584 1784 3584 
Q 2172 3584 2448 3432 
Q 2725 3281 2906 2969 
z
M 947 1747 
Q 947 1113 1208 752 
Q 1469 391 1925 391 
Q 2381 391 2643 752 
Q 2906 1113 2906 1747 
Q 2906 2381 2643 2742 
Q 2381 3103 1925 3103 
Q 1469 3103 1208 2742 
Q 947 2381 947 1747 
z
" transform="scale(0.015625)"/>
       <path id="DejaVuSans-61" d="M 2194 1759 
Q 1497 1759 1228 1600 
Q 959 1441 959 1056 
Q 959 750 1161 570 
Q 1363 391 1709 391 
Q 2188 391 2477 730 
Q 2766 1069 2766 1631 
L 2766 1759 
L 2194 1759 
z
M 3341 1997 
L 3341 0 
L 2766 0 
L 2766 531 
Q 2569 213 2275 61 
Q 1981 -91 1556 -91 
Q 1019 -91 701 211 
Q 384 513 384 1019 
Q 384 1609 779 1909 
Q 1175 2209 1959 2209 
L 2766 2209 
L 2766 2266 
Q 2766 2663 2505 2880 
Q 2244 3097 1772 3097 
Q 1472 3097 1187 3025 
Q 903 2953 641 2809 
L 641 3341 
Q 956 3463 1253 3523 
Q 1550 3584 1831 3584 
Q 2591 3584 2966 3190 
Q 3341 2797 3341 1997 
z
" transform="scale(0.015625)"/>
       <path id="DejaVuSans-74" d="M 1172 4494 
L 1172 3500 
L 2356 3500 
L 2356 3053 
L 1172 3053 
L 1172 1153 
Q 1172 725 1289 603 
Q 1406 481 1766 481 
L 2356 481 
L 2356 0 
L 1766 0 
Q 1100 0 847 248 
Q 594 497 594 1153 
L 594 3053 
L 172 3053 
L 172 3500 
L 594 3500 
L 594 4494 
L 1172 4494 
z
" transform="scale(0.015625)"/>
       <path id="DejaVuSans-65" d="M 3597 1894 
L 3597 1613 
L 953 1613 
Q 991 1019 1311 708 
Q 1631 397 2203 397 
Q 2534 397 2845 478 
Q 3156 559 3463 722 
L 3463 178 
Q 3153 47 2828 -22 
Q 2503 -91 2169 -91 
Q 1331 -91 842 396 
Q 353 884 353 1716 
Q 353 2575 817 3079 
Q 1281 3584 2069 3584 
Q 2775 3584 3186 3129 
Q 3597 2675 3597 1894 
z
M 3022 2063 
Q 3016 2534 2758 2815 
Q 2500 3097 2075 3097 
Q 1594 3097 1305 2825 
Q 1016 2553 972 2059 
L 3022 2063 
z
" transform="scale(0.015625)"/>
       <path id="DejaVuSans-69" d="M 603 3500 
L 1178 3500 
L 1178 0 
L 603 0 
L 603 3500 
z
M 603 4863 
L 1178 4863 
L 1178 4134 
L 603 4134 
L 603 4863 
z
" transform="scale(0.015625)"/>
       <path id="DejaVuSans-6d" d="M 3328 2828 
Q 3544 3216 3844 3400 
Q 4144 3584 4550 3584 
Q 5097 3584 5394 3201 
Q 5691 2819 5691 2113 
L 5691 0 
L 5113 0 
L 5113 2094 
Q 5113 2597 4934 2840 
Q 4756 3084 4391 3084 
Q 3944 3084 3684 2787 
Q 3425 2491 3425 1978 
L 3425 0 
L 2847 0 
L 2847 2094 
Q 2847 2600 2669 2842 
Q 2491 3084 2119 3084 
Q 1678 3084 1418 2786 
Q 1159 2488 1159 1978 
L 1159 0 
L 581 0 
L 581 3500 
L 1159 3500 
L 1159 2956 
Q 1356 3278 1631 3431 
Q 1906 3584 2284 3584 
Q 2666 3584 2933 3390 
Q 3200 3197 3328 2828 
z
" transform="scale(0.015625)"/>
       <path id="DejaVuSans-5d" d="M 1947 4863 
L 1947 -844 
L 622 -844 
L 622 -397 
L 1369 -397 
L 1369 4416 
L 622 4416 
L 622 4863 
L 1947 4863 
z
" transform="scale(0.015625)"/>
      </defs>
      <use xlink:href="#DejaVuSans-72"/>
      <use xlink:href="#DejaVuSans-6f" transform="translate(38.863281 0)"/>
      <use xlink:href="#DejaVuSans-77" transform="translate(100.044922 0)"/>
      <use xlink:href="#DejaVuSans-20" transform="translate(181.832031 0)"/>
      <use xlink:href="#DejaVuSans-5b" transform="translate(213.619141 0)"/>
      <use xlink:href="#DejaVuSans-64" transform="translate(252.632812 0)"/>
      <use xlink:href="#DejaVuSans-61" transform="translate(316.109375 0)"/>
      <use xlink:href="#DejaVuSans-74" transform="translate(377.388672 0)"/>
      <use xlink:href="#DejaVuSans-65" transform="translate(416.597656 0)"/>
      <use xlink:href="#DejaVuSans-74" transform="translate(478.121094 0)"/>
      <use xlink:href="#DejaVuSans-69" transform="translate(517.330078 0)"/>
      <use xlink:href="#DejaVuSans-6d" transform="translate(545.113281 0)"/>
      <use xlink:href="#DejaVuSans-65" transform="translate(642.525391 0)"/>
      <use xlink:href="#DejaVuSans-5d" transform="translate(704.048828 0)"/>
     </g>
    </g>
   </g>
   <g id="matplotlib.axis_2">
    <g id="ytick_1">
     <g id="line2d_8">
      <defs>
       <path id="m4bfb6b934d" d="M 0 0 
L -3.5 0 
" style="stroke: #000000; stroke-width: 0.8"/>
      </defs>
      <g>
       <use xlink:href="#m4bfb6b934d" x="48.982813" y="215.57826" style="stroke: #000000; stroke-width: 0.8"/>
      </g>
     </g>
     <g id="text_9">
      <!-- −10 -->
      <g transform="translate(20.878125 219.377479) scale(0.1 -0.1)">
       <defs>
        <path id="DejaVuSans-2212" d="M 678 2272 
L 4684 2272 
L 4684 1741 
L 678 1741 
L 678 2272 
z
" transform="scale(0.015625)"/>
       </defs>
       <use xlink:href="#DejaVuSans-2212"/>
       <use xlink:href="#DejaVuSans-31" transform="translate(83.789062 0)"/>
       <use xlink:href="#DejaVuSans-30" transform="translate(147.412109 0)"/>
      </g>
     </g>
    </g>
    <g id="ytick_2">
     <g id="line2d_9">
      <g>
       <use xlink:href="#m4bfb6b934d" x="48.982813" y="173.283168" style="stroke: #000000; stroke-width: 0.8"/>
      </g>
     </g>
     <g id="text_10">
      <!-- −5 -->
      <g transform="translate(27.240625 177.082387) scale(0.1 -0.1)">
       <use xlink:href="#DejaVuSans-2212"/>
       <use xlink:href="#DejaVuSans-35" transform="translate(83.789062 0)"/>
      </g>
     </g>
    </g>
    <g id="ytick_3">
     <g id="line2d_10">
      <g>
       <use xlink:href="#m4bfb6b934d" x="48.982813" y="130.988076" style="stroke: #000000; stroke-width: 0.8"/>
      </g>
     </g>
     <g id="text_11">
      <!-- 0 -->
      <g transform="translate(35.620312 134.787295) scale(0.1 -0.1)">
       <use xlink:href="#DejaVuSans-30"/>
      </g>
     </g>
    </g>
    <g id="ytick_4">
     <g id="line2d_11">
      <g>
       <use xlink:href="#m4bfb6b934d" x="48.982813" y="88.692985" style="stroke: #000000; stroke-width: 0.8"/>
      </g>
     </g>
     <g id="text_12">
      <!-- 5 -->
      <g transform="translate(35.620312 92.492203) scale(0.1 -0.1)">
       <use xlink:href="#DejaVuSans-35"/>
      </g>
     </g>
    </g>
    <g id="ytick_5">
     <g id="line2d_12">
      <g>
       <use xlink:href="#m4bfb6b934d" x="48.982813" y="46.397893" style="stroke: #000000; stroke-width: 0.8"/>
      </g>
     </g>
     <g id="text_13">
      <!-- 10 -->
      <g transform="translate(29.257812 50.197112) scale(0.1 -0.1)">
       <use xlink:href="#DejaVuSans-31"/>
       <use xlink:href="#DejaVuSans-30" transform="translate(63.623047 0)"/>
      </g>
     </g>
    </g>
    <g id="text_14">
     <!-- [dimensionless] -->
     <g transform="translate(14.798437 157.557344) rotate(-90) scale(0.1 -0.1)">
      <defs>
       <path id="DejaVuSans-6e" d="M 3513 2113 
L 3513 0 
L 2938 0 
L 2938 2094 
Q 2938 2591 2744 2837 
Q 2550 3084 2163 3084 
Q 1697 3084 1428 2787 
Q 1159 2491 1159 1978 
L 1159 0 
L 581 0 
L 581 3500 
L 1159 3500 
L 1159 2956 
Q 1366 3272 1645 3428 
Q 1925 3584 2291 3584 
Q 2894 3584 3203 3211 
Q 3513 2838 3513 2113 
z
" transform="scale(0.015625)"/>
       <path id="DejaVuSans-73" d="M 2834 3397 
L 2834 2853 
Q 2591 2978 2328 3040 
Q 2066 3103 1784 3103 
Q 1356 3103 1142 2972 
Q 928 2841 928 2578 
Q 928 2378 1081 2264 
Q 1234 2150 1697 2047 
L 1894 2003 
Q 2506 1872 2764 1633 
Q 3022 1394 3022 966 
Q 3022 478 2636 193 
Q 2250 -91 1575 -91 
Q 1294 -91 989 -36 
Q 684 19 347 128 
L 347 722 
Q 666 556 975 473 
Q 1284 391 1588 391 
Q 1994 391 2212 530 
Q 2431 669 2431 922 
Q 2431 1156 2273 1281 
Q 2116 1406 1581 1522 
L 1381 1569 
Q 847 1681 609 1914 
Q 372 2147 372 2553 
Q 372 3047 722 3315 
Q 1072 3584 1716 3584 
Q 2034 3584 2315 3537 
Q 2597 3491 2834 3397 
z
" transform="scale(0.015625)"/>
       <path id="DejaVuSans-6c" d="M 603 4863 
L 1178 4863 
L 1178 0 
L 603 0 
L 603 4863 
z
" transform="scale(0.015625)"/>
      </defs>
      <use xlink:href="#DejaVuSans-5b"/>
      <use xlink:href="#DejaVuSans-64" transform="translate(39.013672 0)"/>
      <use xlink:href="#DejaVuSans-69" transform="translate(102.490234 0)"/>
      <use xlink:href="#DejaVuSans-6d" transform="translate(130.273438 0)"/>
      <use xlink:href="#DejaVuSans-65" transform="translate(227.685547 0)"/>
      <use xlink:href="#DejaVuSans-6e" transform="translate(289.208984 0)"/>
      <use xlink:href="#DejaVuSans-73" transform="translate(352.587891 0)"/>
      <use xlink:href="#DejaVuSans-69" transform="translate(404.6875 0)"/>
      <use xlink:href="#DejaVuSans-6f" transform="translate(432.470703 0)"/>
      <use xlink:href="#DejaVuSans-6e" transform="translate(493.652344 0)"/>
      <use xlink:href="#DejaVuSans-6c" transform="translate(557.03125 0)"/>
      <use xlink:href="#DejaVuSans-65" transform="translate(584.814453 0)"/>
      <use xlink:href="#DejaVuSans-73" transform="translate(646.337891 0)"/>
      <use xlink:href="#DejaVuSans-73" transform="translate(698.4375 0)"/>
      <use xlink:href="#DejaVuSans-5d" transform="translate(750.537109 0)"/>
     </g>
    </g>
   </g>
   <g id="line2d_13">
    <path d="M 64.200994 131.087497 
L 65.73046 133.002223 
L 67.259925 139.087985 
L 68.789391 138.66567 
L 70.318856 137.602686 
L 73.377787 141.739095 
L 76.436718 162.259545 
L 77.966184 156.48599 
L 79.495649 169.409545 
L 81.025115 171.524609 
L 82.55458 175.388411 
L 84.084046 173.806108 
L 85.613511 164.645463 
L 87.142977 162.817848 
L 88.672442 174.507061 
L 91.731373 165.638733 
L 93.260839 169.908759 
L 94.790305 169.364491 
L 96.31977 170.432091 
L 97.849236 174.448163 
L 99.378701 188.205253 
L 100.908167 191.627242 
L 102.437632 193.766724 
L 103.967098 193.927477 
L 105.496563 177.296054 
L 107.026029 170.453128 
L 108.555494 168.304286 
L 110.08496 172.248029 
L 111.614425 177.796469 
L 113.143891 178.680732 
L 114.673356 166.893327 
L 116.202822 157.237658 
L 117.732287 165.950875 
L 119.261753 166.998378 
L 120.791218 158.29932 
L 122.320684 170.450906 
L 123.850149 165.781885 
L 125.379615 160.362209 
L 126.90908 151.336573 
L 128.438546 143.03826 
L 129.968011 157.91355 
L 131.497477 169.410982 
L 133.026942 173.127116 
L 134.556408 179.845083 
L 136.085873 179.637918 
L 137.615339 178.868868 
L 139.144804 181.571027 
L 140.67427 158.555597 
L 142.203735 183.039247 
L 143.733201 182.618103 
L 145.262666 172.813884 
L 146.792132 180.586738 
L 148.321597 167.746955 
L 149.851063 159.24719 
L 151.380528 160.043006 
L 152.909994 157.948736 
L 154.439459 162.069165 
L 155.968925 170.339339 
L 157.49839 169.170375 
L 159.027856 180.850649 
L 160.557321 175.631305 
L 162.086787 185.969642 
L 163.616252 182.345847 
L 165.145718 180.453724 
L 166.675183 161.718433 
L 168.204649 149.083274 
L 169.734114 151.746013 
L 171.26358 144.953837 
L 172.793045 169.525006 
L 174.322511 172.803477 
L 175.851977 164.250339 
L 177.381442 146.609406 
L 178.910908 134.453424 
L 180.440373 131.206868 
L 181.969839 127.420869 
L 183.499304 134.690259 
L 185.02877 140.75751 
L 186.558235 144.598904 
L 188.087701 133.661894 
L 189.617166 134.575608 
L 191.146632 156.401388 
L 192.676097 162.98243 
L 194.205563 164.463602 
L 195.735028 169.117796 
L 197.264494 160.675341 
L 198.793959 166.608023 
L 200.323425 168.991218 
L 201.85289 165.659279 
L 203.382356 176.058249 
L 204.911821 168.003846 
L 206.441287 168.075078 
L 207.970752 176.320041 
L 209.500218 163.953098 
L 211.029683 166.28504 
L 212.559149 168.39992 
L 214.088614 169.143051 
L 217.147545 179.866683 
L 218.677011 194.496844 
L 220.206476 194.965341 
L 221.735942 198.232471 
L 223.265407 203.590992 
L 224.794873 200.421217 
L 226.324338 206.534225 
L 227.853804 210.217904 
L 229.383269 205.182184 
L 230.912735 203.818362 
L 232.4422 197.329991 
L 233.971666 195.989638 
L 235.501131 188.521944 
L 237.030597 175.476458 
L 238.560062 177.566842 
L 240.089528 194.903458 
L 241.618993 188.060574 
L 243.148459 200.855461 
L 244.677924 194.778608 
L 246.20739 194.629586 
L 249.266321 208.519159 
L 250.795786 202.164972 
L 252.325252 210.169665 
L 253.854717 224.124803 
L 255.384183 219.785839 
L 256.913648 222.658053 
L 258.443114 219.933633 
L 259.97258 223.011257 
L 261.502045 223.667727 
L 263.031511 218.814315 
L 264.560976 223.874634 
L 266.090442 215.96301 
L 267.619907 209.609066 
L 269.149373 192.81151 
L 270.678838 188.679963 
L 272.208304 183.59095 
L 273.737769 185.403781 
L 275.267235 173.240027 
L 276.7967 172.687808 
L 278.326166 152.066705 
L 279.855631 155.255715 
L 281.385097 157.378685 
L 282.914562 172.048303 
L 284.444028 172.43324 
L 285.973493 177.828267 
L 287.502959 174.126981 
L 289.032424 169.371863 
L 290.56189 174.3191 
L 292.091355 188.420726 
L 293.620821 188.694471 
L 295.150286 207.536321 
L 296.679752 212.150069 
L 298.209217 201.446689 
L 299.738683 195.094339 
L 301.268148 189.403189 
L 302.797614 194.738477 
L 304.327079 190.11521 
L 305.856545 192.36706 
L 307.38601 185.557235 
L 308.915476 179.430962 
L 310.444941 177.61554 
L 311.974407 193.159933 
L 313.503872 185.559375 
L 315.033338 180.928452 
L 316.562803 180.365591 
L 319.621734 186.628785 
L 321.1512 187.704012 
L 322.680665 192.798044 
L 324.210131 196.796894 
L 325.739596 196.255055 
L 327.269062 200.59585 
L 328.798527 212.0896 
L 330.327993 210.915863 
L 331.857458 210.276448 
L 333.386924 203.331925 
L 334.916389 195.534651 
L 336.445855 184.083117 
L 337.97532 181.649534 
L 339.504786 187.765351 
L 341.034252 192.857547 
L 342.563717 189.619402 
L 344.093183 182.166279 
L 345.622648 198.759957 
L 347.152114 174.626536 
L 348.681579 173.99536 
L 350.211045 182.111036 
L 351.74051 171.192714 
L 353.269976 178.745687 
L 354.799441 175.795848 
L 356.328907 175.985039 
L 357.858372 173.074067 
L 359.387838 177.938481 
L 360.917303 169.714288 
L 362.446769 181.262004 
L 363.976234 184.65358 
L 365.5057 184.026382 
L 367.035165 174.272821 
L 368.564631 172.580094 
L 368.564631 172.580094 
" clip-path="url(#p8871b4fad5)" style="fill: none; stroke: #1f77b4; stroke-width: 1.5; stroke-linecap: square"/>
   </g>
   <g id="line2d_14">
    <path d="M 64.200994 128.713237 
L 65.73046 135.086425 
L 67.259925 149.521241 
L 68.789391 133.5249 
L 70.318856 121.536694 
L 71.848322 113.780176 
L 73.377787 126.88756 
L 74.907253 128.590777 
L 76.436718 132.910122 
L 77.966184 130.843884 
L 79.495649 141.385687 
L 81.025115 146.758235 
L 82.55458 140.733786 
L 84.084046 139.143152 
L 85.613511 138.447642 
L 87.142977 117.785543 
L 88.672442 125.251449 
L 90.201908 113.178967 
L 91.731373 119.404782 
L 93.260839 105.861911 
L 94.790305 105.588209 
L 96.31977 101.079149 
L 97.849236 125.480844 
L 99.378701 131.104964 
L 102.437632 127.351177 
L 103.967098 129.000422 
L 105.496563 129.285826 
L 107.026029 131.377904 
L 108.555494 125.353894 
L 110.08496 124.31306 
L 111.614425 128.084068 
L 113.143891 128.639807 
L 114.673356 138.152806 
L 116.202822 129.367428 
L 117.732287 137.301417 
L 119.261753 141.863541 
L 120.791218 152.06542 
L 123.850149 165.169114 
L 125.379615 175.299532 
L 126.90908 192.176425 
L 128.438546 178.351019 
L 129.968011 180.919913 
L 131.497477 184.767155 
L 133.026942 183.066098 
L 134.556408 177.969885 
L 136.085873 193.069229 
L 137.615339 192.875478 
L 139.144804 194.788121 
L 140.67427 185.74854 
L 142.203735 187.072194 
L 143.733201 207.419565 
L 145.262666 210.005297 
L 146.792132 206.368523 
L 148.321597 201.01309 
L 149.851063 201.303573 
L 151.380528 208.364848 
L 152.909994 209.444549 
L 154.439459 213.478308 
L 155.968925 205.712161 
L 157.49839 196.361858 
L 159.027856 196.291477 
L 160.557321 187.96071 
L 162.086787 192.404763 
L 163.616252 198.666382 
L 165.145718 193.250309 
L 166.675183 188.695989 
L 168.204649 176.418322 
L 169.734114 177.268942 
L 171.26358 172.551392 
L 172.793045 176.477707 
L 174.322511 168.434086 
L 175.851977 175.461667 
L 177.381442 178.102421 
L 178.910908 191.150774 
L 180.440373 193.909854 
L 181.969839 187.414748 
L 183.499304 170.188063 
L 185.02877 174.32814 
L 186.558235 165.512243 
L 188.087701 165.166163 
L 189.617166 165.421733 
L 191.146632 169.531917 
L 192.676097 164.372625 
L 194.205563 161.569571 
L 195.735028 165.446678 
L 197.264494 158.934931 
L 198.793959 150.605383 
L 200.323425 140.678925 
L 201.85289 143.518091 
L 203.382356 132.9193 
L 204.911821 126.763572 
L 206.441287 124.350114 
L 209.500218 116.474199 
L 211.029683 126.593236 
L 212.559149 116.094305 
L 214.088614 120.272005 
L 215.61808 125.074185 
L 217.147545 112.78132 
L 218.677011 113.764812 
L 220.206476 107.068124 
L 221.735942 120.776249 
L 223.265407 101.946843 
L 226.324338 82.435859 
L 227.853804 94.1405 
L 229.383269 84.039628 
L 230.912735 83.622813 
L 232.4422 80.147611 
L 233.971666 85.246129 
L 235.501131 92.632285 
L 237.030597 92.628024 
L 238.560062 83.322779 
L 240.089528 97.755015 
L 241.618993 103.33221 
L 243.148459 89.126938 
L 244.677924 91.052738 
L 246.20739 85.684568 
L 247.736855 84.457605 
L 249.266321 83.5153 
L 250.795786 87.091726 
L 253.854717 74.646206 
L 255.384183 69.969452 
L 256.913648 63.656009 
L 258.443114 60.825597 
L 259.97258 57.046095 
L 261.502045 48.81244 
L 263.031511 60.302358 
L 264.560976 57.935254 
L 266.090442 53.368626 
L 267.619907 55.558916 
L 269.149373 52.445555 
L 270.678838 65.884607 
L 272.208304 75.608001 
L 273.737769 91.844282 
L 275.267235 110.315742 
L 276.7967 107.29999 
L 278.326166 114.589132 
L 279.855631 113.746425 
L 281.385097 95.712546 
L 282.914562 91.555787 
L 284.444028 83.914488 
L 285.973493 80.899999 
L 287.502959 81.749279 
L 289.032424 88.823207 
L 290.56189 94.884585 
L 292.091355 102.032533 
L 293.620821 108.481411 
L 295.150286 107.906466 
L 296.679752 111.933592 
L 298.209217 105.719944 
L 299.738683 104.792889 
L 301.268148 110.717942 
L 302.797614 114.939924 
L 304.327079 123.860383 
L 305.856545 128.712594 
L 307.38601 120.408139 
L 308.915476 108.077785 
L 310.444941 111.95533 
L 311.974407 104.230241 
L 313.503872 100.908391 
L 315.033338 96.411508 
L 316.562803 93.520078 
L 318.092269 87.59805 
L 319.621734 89.947671 
L 321.1512 86.724311 
L 322.680665 77.907102 
L 324.210131 87.109196 
L 325.739596 80.723385 
L 327.269062 93.345122 
L 328.798527 109.537911 
L 330.327993 104.637497 
L 331.857458 96.492654 
L 333.386924 111.413738 
L 334.916389 107.790509 
L 336.445855 111.136836 
L 337.97532 128.62126 
L 339.504786 127.202179 
L 341.034252 119.786173 
L 342.563717 120.34818 
L 344.093183 129.989939 
L 345.622648 135.468556 
L 347.152114 156.850879 
L 348.681579 150.277528 
L 350.211045 154.404742 
L 351.74051 166.35747 
L 353.269976 166.065926 
L 354.799441 164.44213 
L 356.328907 173.905864 
L 357.858372 182.22162 
L 359.387838 180.716756 
L 360.917303 176.47393 
L 362.446769 179.463978 
L 363.976234 161.804796 
L 365.5057 162.95327 
L 367.035165 156.912192 
L 368.564631 158.935033 
L 368.564631 158.935033 
" clip-path="url(#p8871b4fad5)" style="fill: none; stroke: #ff7f0e; stroke-width: 1.5; stroke-linecap: square"/>
   </g>
   <g id="line2d_15">
    <path d="M 64.200994 126.742538 
L 65.73046 123.008673 
L 67.259925 107.484866 
L 68.789391 108.595015 
L 71.848322 94.573087 
L 73.377787 86.732813 
L 74.907253 82.280455 
L 76.436718 89.569342 
L 77.966184 93.312747 
L 79.495649 97.792721 
L 81.025115 94.925574 
L 82.55458 90.98743 
L 84.084046 82.511024 
L 85.613511 93.336348 
L 87.142977 98.833715 
L 88.672442 102.867677 
L 90.201908 99.747975 
L 91.731373 97.10363 
L 93.260839 88.909745 
L 94.790305 82.796451 
L 96.31977 87.829208 
L 97.849236 82.369509 
L 99.378701 81.967428 
L 100.908167 83.146631 
L 102.437632 81.258025 
L 103.967098 82.146262 
L 105.496563 91.476464 
L 107.026029 88.884816 
L 108.555494 93.87858 
L 110.08496 106.870768 
L 111.614425 104.230655 
L 114.673356 113.936232 
L 116.202822 107.411744 
L 117.732287 107.872005 
L 119.261753 100.027417 
L 120.791218 109.479559 
L 122.320684 105.662711 
L 123.850149 104.772068 
L 125.379615 106.497898 
L 128.438546 114.774685 
L 129.968011 127.996497 
L 131.497477 130.749728 
L 133.026942 132.480343 
L 134.556408 135.098607 
L 136.085873 139.123187 
L 137.615339 121.881237 
L 139.144804 110.362098 
L 140.67427 110.485185 
L 142.203735 115.889133 
L 143.733201 116.398482 
L 145.262666 114.520072 
L 148.321597 108.526069 
L 149.851063 119.517628 
L 151.380528 115.929015 
L 152.909994 114.31908 
L 154.439459 108.962389 
L 155.968925 113.053147 
L 157.49839 104.480078 
L 159.027856 108.581859 
L 160.557321 110.330204 
L 162.086787 103.941719 
L 163.616252 107.136718 
L 165.145718 94.930375 
L 166.675183 95.887703 
L 168.204649 100.111453 
L 169.734114 90.495901 
L 171.26358 94.937464 
L 172.793045 91.726337 
L 174.322511 90.929594 
L 175.851977 100.685931 
L 177.381442 105.728147 
L 178.910908 104.20212 
L 180.440373 99.013715 
L 181.969839 101.953809 
L 183.499304 110.257701 
L 186.558235 123.50403 
L 188.087701 106.990195 
L 189.617166 102.666034 
L 191.146632 95.304693 
L 192.676097 92.879713 
L 194.205563 103.501843 
L 195.735028 93.727979 
L 197.264494 80.246405 
L 198.793959 74.323703 
L 200.323425 79.909472 
L 201.85289 67.951382 
L 203.382356 74.249251 
L 204.911821 66.320579 
L 207.970752 89.142425 
L 209.500218 93.224604 
L 211.029683 98.316208 
L 212.559149 91.576855 
L 214.088614 88.16554 
L 215.61808 95.500934 
L 217.147545 97.192783 
L 218.677011 98.47573 
L 220.206476 115.040517 
L 221.735942 116.947673 
L 223.265407 113.369577 
L 224.794873 107.670398 
L 226.324338 97.187612 
L 227.853804 111.442915 
L 229.383269 109.808643 
L 232.4422 109.465448 
L 233.971666 115.768284 
L 235.501131 108.791955 
L 237.030597 126.467601 
L 238.560062 119.317564 
L 240.089528 109.827926 
L 241.618993 115.409787 
L 243.148459 117.487164 
L 244.677924 128.07092 
L 246.20739 110.457136 
L 247.736855 101.977829 
L 249.266321 105.878794 
L 250.795786 116.011476 
L 252.325252 114.036356 
L 253.854717 113.579941 
L 255.384183 118.728545 
L 256.913648 116.205148 
L 258.443114 115.591644 
L 259.97258 100.194164 
L 261.502045 87.476305 
L 263.031511 90.668035 
L 264.560976 75.075091 
L 266.090442 77.250456 
L 267.619907 89.644436 
L 269.149373 91.70844 
L 270.678838 90.742608 
L 272.208304 88.752694 
L 273.737769 98.251937 
L 275.267235 88.942585 
L 276.7967 90.407795 
L 278.326166 101.115121 
L 279.855631 106.449076 
L 281.385097 106.981847 
L 282.914562 113.540339 
L 284.444028 118.62605 
L 285.973493 120.378897 
L 287.502959 124.261579 
L 289.032424 129.319072 
L 290.56189 129.088473 
L 292.091355 130.116686 
L 293.620821 127.456037 
L 295.150286 131.589982 
L 296.679752 106.054433 
L 298.209217 98.444549 
L 299.738683 100.316851 
L 301.268148 106.36261 
L 302.797614 87.145452 
L 304.327079 85.904117 
L 305.856545 85.927645 
L 307.38601 87.940538 
L 308.915476 70.125241 
L 310.444941 56.676703 
L 311.974407 63.855702 
L 315.033338 81.397345 
L 316.562803 84.721491 
L 318.092269 76.162012 
L 319.621734 92.587224 
L 321.1512 86.681315 
L 322.680665 84.904764 
L 324.210131 81.430449 
L 325.739596 84.666322 
L 327.269062 84.120247 
L 328.798527 78.250454 
L 330.327993 94.806387 
L 331.857458 94.990098 
L 333.386924 94.736383 
L 334.916389 100.826264 
L 336.445855 98.142266 
L 337.97532 106.362744 
L 339.504786 94.684349 
L 341.034252 94.32503 
L 342.563717 105.977319 
L 344.093183 98.803314 
L 345.622648 106.743145 
L 347.152114 106.114535 
L 348.681579 103.879819 
L 350.211045 122.696961 
L 351.74051 118.662332 
L 353.269976 124.057845 
L 354.799441 116.065554 
L 356.328907 106.629171 
L 357.858372 117.392711 
L 359.387838 118.681987 
L 360.917303 122.704493 
L 362.446769 139.014624 
L 363.976234 132.52253 
L 365.5057 138.076053 
L 367.035165 118.689422 
L 368.564631 114.306438 
L 368.564631 114.306438 
" clip-path="url(#p8871b4fad5)" style="fill: none; stroke: #2ca02c; stroke-width: 1.5; stroke-linecap: square"/>
   </g>
   <g id="line2d_16">
    <path d="M 64.200994 126.161251 
L 65.73046 122.821692 
L 67.259925 132.275125 
L 68.789391 134.015982 
L 70.318856 121.437199 
L 71.848322 125.293204 
L 73.377787 118.699509 
L 74.907253 126.916695 
L 76.436718 134.314267 
L 77.966184 123.955001 
L 79.495649 125.22711 
L 81.025115 125.145404 
L 82.55458 134.331104 
L 84.084046 124.780775 
L 85.613511 137.072976 
L 87.142977 153.241519 
L 88.672442 139.8205 
L 90.201908 148.247209 
L 91.731373 159.277465 
L 93.260839 143.768438 
L 94.790305 146.201386 
L 96.31977 157.239561 
L 97.849236 153.880845 
L 99.378701 150.166335 
L 102.437632 156.695185 
L 103.967098 152.715278 
L 105.496563 130.842168 
L 107.026029 128.225352 
L 108.555494 114.580178 
L 110.08496 105.038415 
L 111.614425 126.479936 
L 113.143891 129.508937 
L 114.673356 128.464019 
L 116.202822 135.518029 
L 117.732287 133.409801 
L 119.261753 141.297175 
L 120.791218 133.987798 
L 122.320684 135.836755 
L 123.850149 134.344861 
L 125.379615 131.251258 
L 126.90908 116.127057 
L 128.438546 110.560979 
L 131.497477 129.749966 
L 133.026942 134.26872 
L 134.556408 125.546874 
L 136.085873 114.609321 
L 137.615339 101.647709 
L 139.144804 90.25355 
L 140.67427 88.690639 
L 142.203735 113.45313 
L 143.733201 106.133978 
L 145.262666 119.4094 
L 146.792132 116.015366 
L 148.321597 100.45197 
L 149.851063 100.84208 
L 151.380528 105.943456 
L 152.909994 104.62234 
L 154.439459 102.37824 
L 155.968925 102.26123 
L 157.49839 105.905287 
L 159.027856 106.704993 
L 160.557321 106.157007 
L 162.086787 104.695053 
L 163.616252 114.688293 
L 165.145718 121.676387 
L 166.675183 127.052278 
L 168.204649 114.786541 
L 169.734114 112.006183 
L 171.26358 103.768992 
L 172.793045 104.08745 
L 174.322511 111.603467 
L 175.851977 105.074737 
L 177.381442 109.605597 
L 178.910908 105.97371 
L 180.440373 104.956729 
L 181.969839 91.865389 
L 185.02877 81.815193 
L 186.558235 76.628645 
L 188.087701 90.842814 
L 189.617166 97.167675 
L 191.146632 97.22978 
L 192.676097 107.915579 
L 194.205563 97.005125 
L 195.735028 107.610933 
L 197.264494 111.255866 
L 198.793959 104.292761 
L 200.323425 100.292911 
L 201.85289 94.697425 
L 203.382356 87.586729 
L 204.911821 85.769415 
L 206.441287 82.019933 
L 207.970752 77.352044 
L 209.500218 78.868352 
L 211.029683 88.358178 
L 212.559149 90.873805 
L 214.088614 78.09177 
L 215.61808 80.179554 
L 217.147545 62.631463 
L 218.677011 64.498192 
L 220.206476 50.276574 
L 221.735942 47.02353 
L 223.265407 45.384241 
L 224.794873 42.01038 
L 226.324338 61.655339 
L 227.853804 74.302856 
L 229.383269 80.551121 
L 230.912735 73.581521 
L 232.4422 83.802172 
L 233.971666 87.444875 
L 235.501131 82.041664 
L 237.030597 79.357181 
L 240.089528 62.666367 
L 241.618993 72.739909 
L 243.148459 79.293426 
L 244.677924 94.6186 
L 246.20739 82.661156 
L 247.736855 76.584767 
L 249.266321 69.659167 
L 250.795786 74.388689 
L 252.325252 66.323777 
L 253.854717 71.311101 
L 255.384183 73.304775 
L 256.913648 65.677119 
L 258.443114 62.833625 
L 259.97258 67.529757 
L 261.502045 71.675856 
L 263.031511 55.57613 
L 264.560976 60.842546 
L 266.090442 59.997116 
L 267.619907 57.542588 
L 269.149373 53.06231 
L 270.678838 59.230801 
L 272.208304 62.938858 
L 273.737769 53.267011 
L 275.267235 44.318931 
L 276.7967 39.706284 
L 278.326166 41.115401 
L 279.855631 51.127396 
L 281.385097 45.742287 
L 282.914562 47.384566 
L 284.444028 52.68372 
L 285.973493 60.206208 
L 287.502959 69.524032 
L 289.032424 66.628534 
L 290.56189 59.46274 
L 292.091355 65.931416 
L 293.620821 65.076478 
L 295.150286 82.320851 
L 296.679752 108.607443 
L 298.209217 99.738023 
L 299.738683 93.749175 
L 301.268148 84.627474 
L 302.797614 83.279533 
L 304.327079 78.927191 
L 305.856545 85.459132 
L 307.38601 83.899485 
L 308.915476 61.968425 
L 310.444941 52.088142 
L 311.974407 46.40354 
L 313.503872 45.73871 
L 315.033338 57.712916 
L 318.092269 70.617239 
L 319.621734 68.157649 
L 321.1512 63.244683 
L 322.680665 56.495297 
L 324.210131 59.373065 
L 325.739596 57.120368 
L 327.269062 46.893665 
L 328.798527 47.514352 
L 330.327993 47.345392 
L 331.857458 27.173777 
L 333.386924 24.584401 
L 334.916389 29.312898 
L 336.445855 25.209468 
L 337.97532 16.185306 
L 339.504786 14.441784 
L 341.034252 15.764966 
L 342.563717 16.397607 
L 344.093183 19.74002 
L 345.622648 25.177033 
L 347.152114 20.427417 
L 348.681579 43.933999 
L 350.211045 49.054206 
L 351.74051 52.272054 
L 353.269976 47.281294 
L 354.799441 26.377866 
L 356.328907 30.359603 
L 357.858372 28.386479 
L 359.387838 31.322036 
L 360.917303 43.098202 
L 362.446769 39.465088 
L 363.976234 36.790426 
L 365.5057 23.208403 
L 367.035165 24.25589 
L 368.564631 29.60426 
L 368.564631 29.60426 
" clip-path="url(#p8871b4fad5)" style="fill: none; stroke: #d62728; stroke-width: 1.5; stroke-linecap: square"/>
   </g>
   <g id="patch_3">
    <path d="M 48.982813 228.96 
L 48.982813 7.2 
" style="fill: none; stroke: #000000; stroke-width: 0.8; stroke-linejoin: miter; stroke-linecap: square"/>
   </g>
   <g id="patch_4">
    <path d="M 383.782813 228.96 
L 383.782813 7.2 
" style="fill: none; stroke: #000000; stroke-width: 0.8; stroke-linejoin: miter; stroke-linecap: square"/>
   </g>
   <g id="patch_5">
    <path d="M 48.982812 228.96 
L 383.782812 228.96 
" style="fill: none; stroke: #000000; stroke-width: 0.8; stroke-linejoin: miter; stroke-linecap: square"/>
   </g>
   <g id="patch_6">
    <path d="M 48.982812 7.2 
L 383.782812 7.2 
" style="fill: none; stroke: #000000; stroke-width: 0.8; stroke-linejoin: miter; stroke-linecap: square"/>
   </g>
   <g id="legend_1">
    <g id="patch_7">
     <path d="M 55.982813 73.9125 
L 95.682813 73.9125 
Q 97.682813 73.9125 97.682813 71.9125 
L 97.682813 14.2 
Q 97.682813 12.2 95.682813 12.2 
L 55.982813 12.2 
Q 53.982813 12.2 53.982813 14.2 
L 53.982813 71.9125 
Q 53.982813 73.9125 55.982813 73.9125 
z
" style="fill: #ffffff; opacity: 0.8; stroke: #cccccc; stroke-linejoin: miter"/>
    </g>
    <g id="line2d_17">
     <path d="M 57.982813 20.298437 
L 67.982812 20.298437 
L 77.982812 20.298437 
" style="fill: none; stroke: #1f77b4; stroke-width: 1.5; stroke-linecap: square"/>
    </g>
    <g id="text_15">
     <!-- A -->
     <g transform="translate(85.982812 23.798437) scale(0.1 -0.1)">
      <defs>
       <path id="DejaVuSans-41" d="M 2188 4044 
L 1331 1722 
L 3047 1722 
L 2188 4044 
z
M 1831 4666 
L 2547 4666 
L 4325 0 
L 3669 0 
L 3244 1197 
L 1141 1197 
L 716 0 
L 50 0 
L 1831 4666 
z
" transform="scale(0.015625)"/>
      </defs>
      <use xlink:href="#DejaVuSans-41"/>
     </g>
    </g>
    <g id="line2d_18">
     <path d="M 57.982813 34.976562 
L 67.982812 34.976562 
L 77.982812 34.976562 
" style="fill: none; stroke: #ff7f0e; stroke-width: 1.5; stroke-linecap: square"/>
    </g>
    <g id="text_16">
     <!-- B -->
     <g transform="translate(85.982812 38.476562) scale(0.1 -0.1)">
      <defs>
       <path id="DejaVuSans-42" d="M 1259 2228 
L 1259 519 
L 2272 519 
Q 2781 519 3026 730 
Q 3272 941 3272 1375 
Q 3272 1813 3026 2020 
Q 2781 2228 2272 2228 
L 1259 2228 
z
M 1259 4147 
L 1259 2741 
L 2194 2741 
Q 2656 2741 2882 2914 
Q 3109 3088 3109 3444 
Q 3109 3797 2882 3972 
Q 2656 4147 2194 4147 
L 1259 4147 
z
M 628 4666 
L 2241 4666 
Q 2963 4666 3353 4366 
Q 3744 4066 3744 3513 
Q 3744 3084 3544 2831 
Q 3344 2578 2956 2516 
Q 3422 2416 3680 2098 
Q 3938 1781 3938 1306 
Q 3938 681 3513 340 
Q 3088 0 2303 0 
L 628 0 
L 628 4666 
z
" transform="scale(0.015625)"/>
      </defs>
      <use xlink:href="#DejaVuSans-42"/>
     </g>
    </g>
    <g id="line2d_19">
     <path d="M 57.982813 49.654687 
L 67.982812 49.654687 
L 77.982812 49.654687 
" style="fill: none; stroke: #2ca02c; stroke-width: 1.5; stroke-linecap: square"/>
    </g>
    <g id="text_17">
     <!-- C -->
     <g transform="translate(85.982812 53.154687) scale(0.1 -0.1)">
      <defs>
       <path id="DejaVuSans-43" d="M 4122 4306 
L 4122 3641 
Q 3803 3938 3442 4084 
Q 3081 4231 2675 4231 
Q 1875 4231 1450 3742 
Q 1025 3253 1025 2328 
Q 1025 1406 1450 917 
Q 1875 428 2675 428 
Q 3081 428 3442 575 
Q 3803 722 4122 1019 
L 4122 359 
Q 3791 134 3420 21 
Q 3050 -91 2638 -91 
Q 1578 -91 968 557 
Q 359 1206 359 2328 
Q 359 3453 968 4101 
Q 1578 4750 2638 4750 
Q 3056 4750 3426 4639 
Q 3797 4528 4122 4306 
z
" transform="scale(0.015625)"/>
      </defs>
      <use xlink:href="#DejaVuSans-43"/>
     </g>
    </g>
    <g id="line2d_20">
     <path d="M 57.982813 64.332812 
L 67.982812 64.332812 
L 77.982812 64.332812 
" style="fill: none; stroke: #d62728; stroke-width: 1.5; stroke-linecap: square"/>
    </g>
    <g id="text_18">
     <!-- D -->
     <g transform="translate(85.982812 67.832812) scale(0.1 -0.1)">
      <defs>
       <path id="DejaVuSans-44" d="M 1259 4147 
L 1259 519 
L 2022 519 
Q 2988 519 3436 956 
Q 3884 1394 3884 2338 
Q 3884 3275 3436 3711 
Q 2988 4147 2022 4147 
L 1259 4147 
z
M 628 4666 
L 1925 4666 
Q 3281 4666 3915 4102 
Q 4550 3538 4550 2338 
Q 4550 1131 3912 565 
Q 3275 0 1925 0 
L 628 0 
L 628 4666 
z
" transform="scale(0.015625)"/>
      </defs>
      <use xlink:href="#DejaVuSans-44"/>
     </g>
    </g>
   </g>
  </g>
 </g>
 <defs>
  <clipPath id="p8871b4fad5">
   <rect x="48.982813" y="7.2" width="334.8" height="221.76"/>
  </clipPath>
 </defs>
</svg>
