<?xml version="1.0" encoding="utf-8" standalone="no"?>
<!DOCTYPE svg PUBLIC "-//W3C//DTD SVG 1.1//EN"
  "http://www.w3.org/Graphics/SVG/1.1/DTD/svg11.dtd">
<svg xmlns:xlink="http://www.w3.org/1999/xlink" width="390.982812pt" height="266.51625pt" viewBox="0 0 390.982812 266.51625" xmlns="http://www.w3.org/2000/svg" version="1.1">
 <metadata>
  <rdf:RDF xmlns:dc="http://purl.org/dc/elements/1.1/" xmlns:cc="http://creativecommons.org/ns#" xmlns:rdf="http://www.w3.org/1999/02/22-rdf-syntax-ns#">
   <cc:Work>
    <dc:type rdf:resource="http://purl.org/dc/dcmitype/StillImage"/>
    <dc:date>2025-06-02T11:37:31.862267</dc:date>
    <dc:format>image/svg+xml</dc:format>
    <dc:creator>
     <cc:Agent>
      <dc:title>Matplotlib v3.10.3, https://matplotlib.org/</dc:title>
     </cc:Agent>
    </dc:creator>
   </cc:Work>
  </rdf:RDF>
 </metadata>
 <defs>
  <style type="text/css">*{stroke-linejoin: round; stroke-linecap: butt}</style>
 </defs>
 <g id="figure_1">
  <g id="patch_1">
   <path d="M 0 266.51625 
L 390.982812 266.51625 
L 390.982812 0 
L 0 0 
z
" style="fill: #ffffff"/>
  </g>
  <g id="axes_1">
   <g id="patch_2">
    <path d="M 48.982813 228.96 
L 383.782813 228.96 
L 383.782813 7.2 
L 48.982813 7.2 
z
" style="fill: #ffffff"/>
   </g>
   <g id="matplotlib.axis_1">
    <g id="xtick_1">
     <g id="line2d_1">
      <defs>
       <path id="mef0b9abc0b" d="M 0 0 
L 0 3.5 
" style="stroke: #000000; stroke-width: 0.8"/>
      </defs>
      <g>
       <use xlink:href="#mef0b9abc0b" x="64.200994" y="228.96" style="stroke: #000000; stroke-width: 0.8"/>
      </g>
     </g>
     <g id="text_1">
      <!-- 2000-01 -->
      <g transform="translate(43.309588 243.558437) scale(0.1 -0.1)">
       <defs>
        <path id="DejaVuSans-32" d="M 1228 531 
L 3431 531 
L 3431 0 
L 469 0 
L 469 531 
Q 828 903 1448 1529 
Q 2069 2156 2228 2338 
Q 2531 2678 2651 2914 
Q 2772 3150 2772 3378 
Q 2772 3750 2511 3984 
Q 2250 4219 1831 4219 
Q 1534 4219 1204 4116 
Q 875 4013 500 3803 
L 500 4441 
Q 881 4594 1212 4672 
Q 1544 4750 1819 4750 
Q 2544 4750 2975 4387 
Q 3406 4025 3406 3419 
Q 3406 3131 3298 2873 
Q 3191 2616 2906 2266 
Q 2828 2175 2409 1742 
Q 1991 1309 1228 531 
z
" transform="scale(0.015625)"/>
        <path id="DejaVuSans-30" d="M 2034 4250 
Q 1547 4250 1301 3770 
Q 1056 3291 1056 2328 
Q 1056 1369 1301 889 
Q 1547 409 2034 409 
Q 2525 409 2770 889 
Q 3016 1369 3016 2328 
Q 3016 3291 2770 3770 
Q 2525 4250 2034 4250 
z
M 2034 4750 
Q 2819 4750 3233 4129 
Q 3647 3509 3647 2328 
Q 3647 1150 3233 529 
Q 2819 -91 2034 -91 
Q 1250 -91 836 529 
Q 422 1150 422 2328 
Q 422 3509 836 4129 
Q 1250 4750 2034 4750 
z
" transform="scale(0.015625)"/>
        <path id="DejaVuSans-2d" d="M 313 2009 
L 1997 2009 
L 1997 1497 
L 313 1497 
L 313 2009 
z
" transform="scale(0.015625)"/>
        <path id="DejaVuSans-31" d="M 794 531 
L 1825 531 
L 1825 4091 
L 703 3866 
L 703 4441 
L 1819 4666 
L 2450 4666 
L 2450 531 
L 3481 531 
L 3481 0 
L 794 0 
L 794 531 
z
" transform="scale(0.015625)"/>
       </defs>
       <use xlink:href="#DejaVuSans-32"/>
       <use xlink:href="#DejaVuSans-30" transform="translate(63.623047 0)"/>
       <use xlink:href="#DejaVuSans-30" transform="translate(127.246094 0)"/>
       <use xlink:href="#DejaVuSans-30" transform="translate(190.869141 0)"/>
       <use xlink:href="#DejaVuSans-2d" transform="translate(254.492188 0)"/>
       <use xlink:href="#DejaVuSans-30" transform="translate(290.576172 0)"/>
       <use xlink:href="#DejaVuSans-31" transform="translate(354.199219 0)"/>
      </g>
     </g>
    </g>
    <g id="xtick_2">
     <g id="line2d_2">
      <g>
       <use xlink:href="#mef0b9abc0b" x="111.614425" y="228.96" style="stroke: #000000; stroke-width: 0.8"/>
      </g>
     </g>
     <g id="text_2">
      <!-- 2000-02 -->
      <g transform="translate(90.723019 243.558437) scale(0.1 -0.1)">
       <use xlink:href="#DejaVuSans-32"/>
       <use xlink:href="#DejaVuSans-30" transform="translate(63.623047 0)"/>
       <use xlink:href="#DejaVuSans-30" transform="translate(127.246094 0)"/>
       <use xlink:href="#DejaVuSans-30" transform="translate(190.869141 0)"/>
       <use xlink:href="#DejaVuSans-2d" transform="translate(254.492188 0)"/>
       <use xlink:href="#DejaVuSans-30" transform="translate(290.576172 0)"/>
       <use xlink:href="#DejaVuSans-32" transform="translate(354.199219 0)"/>
      </g>
     </g>
    </g>
    <g id="xtick_3">
     <g id="line2d_3">
      <g>
       <use xlink:href="#mef0b9abc0b" x="155.968925" y="228.96" style="stroke: #000000; stroke-width: 0.8"/>
      </g>
     </g>
     <g id="text_3">
      <!-- 2000-03 -->
      <g transform="translate(135.077519 243.558437) scale(0.1 -0.1)">
       <defs>
        <path id="DejaVuSans-33" d="M 2597 2516 
Q 3050 2419 3304 2112 
Q 3559 1806 3559 1356 
Q 3559 666 3084 287 
Q 2609 -91 1734 -91 
Q 1441 -91 1130 -33 
Q 819 25 488 141 
L 488 750 
Q 750 597 1062 519 
Q 1375 441 1716 441 
Q 2309 441 2620 675 
Q 2931 909 2931 1356 
Q 2931 1769 2642 2001 
Q 2353 2234 1838 2234 
L 1294 2234 
L 1294 2753 
L 1863 2753 
Q 2328 2753 2575 2939 
Q 2822 3125 2822 3475 
Q 2822 3834 2567 4026 
Q 2313 4219 1838 4219 
Q 1578 4219 1281 4162 
Q 984 4106 628 3988 
L 628 4550 
Q 988 4650 1302 4700 
Q 1616 4750 1894 4750 
Q 2613 4750 3031 4423 
Q 3450 4097 3450 3541 
Q 3450 3153 3228 2886 
Q 3006 2619 2597 2516 
z
" transform="scale(0.015625)"/>
       </defs>
       <use xlink:href="#DejaVuSans-32"/>
       <use xlink:href="#DejaVuSans-30" transform="translate(63.623047 0)"/>
       <use xlink:href="#DejaVuSans-30" transform="translate(127.246094 0)"/>
       <use xlink:href="#DejaVuSans-30" transform="translate(190.869141 0)"/>
       <use xlink:href="#DejaVuSans-2d" transform="translate(254.492188 0)"/>
       <use xlink:href="#DejaVuSans-30" transform="translate(290.576172 0)"/>
       <use xlink:href="#DejaVuSans-33" transform="translate(354.199219 0)"/>
      </g>
     </g>
    </g>
    <g id="xtick_4">
     <g id="line2d_4">
      <g>
       <use xlink:href="#mef0b9abc0b" x="203.382356" y="228.96" style="stroke: #000000; stroke-width: 0.8"/>
      </g>
     </g>
     <g id="text_4">
      <!-- 2000-04 -->
      <g transform="translate(182.490949 243.558437) scale(0.1 -0.1)">
       <defs>
        <path id="DejaVuSans-34" d="M 2419 4116 
L 825 1625 
L 2419 1625 
L 2419 4116 
z
M 2253 4666 
L 3047 4666 
L 3047 1625 
L 3713 1625 
L 3713 1100 
L 3047 1100 
L 3047 0 
L 2419 0 
L 2419 1100 
L 313 1100 
L 313 1709 
L 2253 4666 
z
" transform="scale(0.015625)"/>
       </defs>
       <use xlink:href="#DejaVuSans-32"/>
       <use xlink:href="#DejaVuSans-30" transform="translate(63.623047 0)"/>
       <use xlink:href="#DejaVuSans-30" transform="translate(127.246094 0)"/>
       <use xlink:href="#DejaVuSans-30" transform="translate(190.869141 0)"/>
       <use xlink:href="#DejaVuSans-2d" transform="translate(254.492188 0)"/>
       <use xlink:href="#DejaVuSans-30" transform="translate(290.576172 0)"/>
       <use xlink:href="#DejaVuSans-34" transform="translate(354.199219 0)"/>
      </g>
     </g>
    </g>
    <g id="xtick_5">
     <g id="line2d_5">
      <g>
       <use xlink:href="#mef0b9abc0b" x="249.266321" y="228.96" style="stroke: #000000; stroke-width: 0.8"/>
      </g>
     </g>
     <g id="text_5">
      <!-- 2000-05 -->
      <g transform="translate(228.374915 243.558437) scale(0.1 -0.1)">
       <defs>
        <path id="DejaVuSans-35" d="M 691 4666 
L 3169 4666 
L 3169 4134 
L 1269 4134 
L 1269 2991 
Q 1406 3038 1543 3061 
Q 1681 3084 1819 3084 
Q 2600 3084 3056 2656 
Q 3513 2228 3513 1497 
Q 3513 744 3044 326 
Q 2575 -91 1722 -91 
Q 1428 -91 1123 -41 
Q 819 9 494 109 
L 494 744 
Q 775 591 1075 516 
Q 1375 441 1709 441 
Q 2250 441 2565 725 
Q 2881 1009 2881 1497 
Q 2881 1984 2565 2268 
Q 2250 2553 1709 2553 
Q 1456 2553 1204 2497 
Q 953 2441 691 2322 
L 691 4666 
z
" transform="scale(0.015625)"/>
       </defs>
       <use xlink:href="#DejaVuSans-32"/>
       <use xlink:href="#DejaVuSans-30" transform="translate(63.623047 0)"/>
       <use xlink:href="#DejaVuSans-30" transform="translate(127.246094 0)"/>
       <use xlink:href="#DejaVuSans-30" transform="translate(190.869141 0)"/>
       <use xlink:href="#DejaVuSans-2d" transform="translate(254.492188 0)"/>
       <use xlink:href="#DejaVuSans-30" transform="translate(290.576172 0)"/>
       <use xlink:href="#DejaVuSans-35" transform="translate(354.199219 0)"/>
      </g>
     </g>
    </g>
    <g id="xtick_6">
     <g id="line2d_6">
      <g>
       <use xlink:href="#mef0b9abc0b" x="296.679752" y="228.96" style="stroke: #000000; stroke-width: 0.8"/>
      </g>
     </g>
     <g id="text_6">
      <!-- 2000-06 -->
      <g transform="translate(275.788345 243.558437) scale(0.1 -0.1)">
       <defs>
        <path id="DejaVuSans-36" d="M 2113 2584 
Q 1688 2584 1439 2293 
Q 1191 2003 1191 1497 
Q 1191 994 1439 701 
Q 1688 409 2113 409 
Q 2538 409 2786 701 
Q 3034 994 3034 1497 
Q 3034 2003 2786 2293 
Q 2538 2584 2113 2584 
z
M 3366 4563 
L 3366 3988 
Q 3128 4100 2886 4159 
Q 2644 4219 2406 4219 
Q 1781 4219 1451 3797 
Q 1122 3375 1075 2522 
Q 1259 2794 1537 2939 
Q 1816 3084 2150 3084 
Q 2853 3084 3261 2657 
Q 3669 2231 3669 1497 
Q 3669 778 3244 343 
Q 2819 -91 2113 -91 
Q 1303 -91 875 529 
Q 447 1150 447 2328 
Q 447 3434 972 4092 
Q 1497 4750 2381 4750 
Q 2619 4750 2861 4703 
Q 3103 4656 3366 4563 
z
" transform="scale(0.015625)"/>
       </defs>
       <use xlink:href="#DejaVuSans-32"/>
       <use xlink:href="#DejaVuSans-30" transform="translate(63.623047 0)"/>
       <use xlink:href="#DejaVuSans-30" transform="translate(127.246094 0)"/>
       <use xlink:href="#DejaVuSans-30" transform="translate(190.869141 0)"/>
       <use xlink:href="#DejaVuSans-2d" transform="translate(254.492188 0)"/>
       <use xlink:href="#DejaVuSans-30" transform="translate(290.576172 0)"/>
       <use xlink:href="#DejaVuSans-36" transform="translate(354.199219 0)"/>
      </g>
     </g>
    </g>
    <g id="xtick_7">
     <g id="line2d_7">
      <g>
       <use xlink:href="#mef0b9abc0b" x="342.563717" y="228.96" style="stroke: #000000; stroke-width: 0.8"/>
      </g>
     </g>
     <g id="text_7">
      <!-- 2000-07 -->
      <g transform="translate(321.672311 243.558437) scale(0.1 -0.1)">
       <defs>
        <path id="DejaVuSans-37" d="M 525 4666 
L 3525 4666 
L 3525 4397 
L 1831 0 
L 1172 0 
L 2766 4134 
L 525 4134 
L 525 4666 
z
" transform="scale(0.015625)"/>
       </defs>
       <use xlink:href="#DejaVuSans-32"/>
       <use xlink:href="#DejaVuSans-30" transform="translate(63.623047 0)"/>
       <use xlink:href="#DejaVuSans-30" transform="translate(127.246094 0)"/>
       <use xlink:href="#DejaVuSans-30" transform="translate(190.869141 0)"/>
       <use xlink:href="#DejaVuSans-2d" transform="translate(254.492188 0)"/>
       <use xlink:href="#DejaVuSans-30" transform="translate(290.576172 0)"/>
       <use xlink:href="#DejaVuSans-37" transform="translate(354.199219 0)"/>
      </g>
     </g>
    </g>
    <g id="text_8">
     <!-- row [datetime] -->
     <g transform="translate(179.229688 257.236562) scale(0.1 -0.1)">
      <defs>
       <path id="DejaVuSans-72" d="M 2631 2963 
Q 2534 3019 2420 3045 
Q 2306 3072 2169 3072 
Q 1681 3072 1420 2755 
Q 1159 2438 1159 1844 
L 1159 0 
L 581 0 
L 581 3500 
L 1159 3500 
L 1159 2956 
Q 1341 3275 1631 3429 
Q 1922 3584 2338 3584 
Q 2397 3584 2469 3576 
Q 2541 3569 2628 3553 
L 2631 2963 
z
" transform="scale(0.015625)"/>
       <path id="DejaVuSans-6f" d="M 1959 3097 
Q 1497 3097 1228 2736 
Q 959 2375 959 1747 
Q 959 1119 1226 758 
Q 1494 397 1959 397 
Q 2419 397 2687 759 
Q 2956 1122 2956 1747 
Q 2956 2369 2687 2733 
Q 2419 3097 1959 3097 
z
M 1959 3584 
Q 2709 3584 3137 3096 
Q 3566 2609 3566 1747 
Q 3566 888 3137 398 
Q 2709 -91 1959 -91 
Q 1206 -91 779 398 
Q 353 888 353 1747 
Q 353 2609 779 3096 
Q 1206 3584 1959 3584 
z
" transform="scale(0.015625)"/>
       <path id="DejaVuSans-77" d="M 269 3500 
L 844 3500 
L 1563 769 
L 2278 3500 
L 2956 3500 
L 3675 769 
L 4391 3500 
L 4966 3500 
L 4050 0 
L 3372 0 
L 2619 2869 
L 1863 0 
L 1184 0 
L 269 3500 
z
" transform="scale(0.015625)"/>
       <path id="DejaVuSans-20" transform="scale(0.015625)"/>
       <path id="DejaVuSans-5b" d="M 550 4863 
L 1875 4863 
L 1875 4416 
L 1125 4416 
L 1125 -397 
L 1875 -397 
L 1875 -844 
L 550 -844 
L 550 4863 
z
" transform="scale(0.015625)"/>
       <path id="DejaVuSans-64" d="M 2906 2969 
L 2906 4863 
L 3481 4863 
L 3481 0 
L 2906 0 
L 2906 525 
Q 2725 213 2448 61 
Q 2172 -91 1784 -91 
Q 1150 -91 751 415 
Q 353 922 353 1747 
Q 353 2572 751 3078 
Q 1150 3584 1784 3584 
Q 2172 3584 2448 3432 
Q 2725 3281 2906 2969 
z
M 947 1747 
Q 947 1113 1208 752 
Q 1469 391 1925 391 
Q 2381 391 2643 752 
Q 2906 1113 2906 1747 
Q 2906 2381 2643 2742 
Q 2381 3103 1925 3103 
Q 1469 3103 1208 2742 
Q 947 2381 947 1747 
z
" transform="scale(0.015625)"/>
       <path id="DejaVuSans-61" d="M 2194 1759 
Q 1497 1759 1228 1600 
Q 959 1441 959 1056 
Q 959 750 1161 570 
Q 1363 391 1709 391 
Q 2188 391 2477 730 
Q 2766 1069 2766 1631 
L 2766 1759 
L 2194 1759 
z
M 3341 1997 
L 3341 0 
L 2766 0 
L 2766 531 
Q 2569 213 2275 61 
Q 1981 -91 1556 -91 
Q 1019 -91 701 211 
Q 384 513 384 1019 
Q 384 1609 779 1909 
Q 1175 2209 1959 2209 
L 2766 2209 
L 2766 2266 
Q 2766 2663 2505 2880 
Q 2244 3097 1772 3097 
Q 1472 3097 1187 3025 
Q 903 2953 641 2809 
L 641 3341 
Q 956 3463 1253 3523 
Q 1550 3584 1831 3584 
Q 2591 3584 2966 3190 
Q 3341 2797 3341 1997 
z
" transform="scale(0.015625)"/>
       <path id="DejaVuSans-74" d="M 1172 4494 
L 1172 3500 
L 2356 3500 
L 2356 3053 
L 1172 3053 
L 1172 1153 
Q 1172 725 1289 603 
Q 1406 481 1766 481 
L 2356 481 
L 2356 0 
L 1766 0 
Q 1100 0 847 248 
Q 594 497 594 1153 
L 594 3053 
L 172 3053 
L 172 3500 
L 594 3500 
L 594 4494 
L 1172 4494 
z
" transform="scale(0.015625)"/>
       <path id="DejaVuSans-65" d="M 3597 1894 
L 3597 1613 
L 953 1613 
Q 991 1019 1311 708 
Q 1631 397 2203 397 
Q 2534 397 2845 478 
Q 3156 559 3463 722 
L 3463 178 
Q 3153 47 2828 -22 
Q 2503 -91 2169 -91 
Q 1331 -91 842 396 
Q 353 884 353 1716 
Q 353 2575 817 3079 
Q 1281 3584 2069 3584 
Q 2775 3584 3186 3129 
Q 3597 2675 3597 1894 
z
M 3022 2063 
Q 3016 2534 2758 2815 
Q 2500 3097 2075 3097 
Q 1594 3097 1305 2825 
Q 1016 2553 972 2059 
L 3022 2063 
z
" transform="scale(0.015625)"/>
       <path id="DejaVuSans-69" d="M 603 3500 
L 1178 3500 
L 1178 0 
L 603 0 
L 603 3500 
z
M 603 4863 
L 1178 4863 
L 1178 4134 
L 603 4134 
L 603 4863 
z
" transform="scale(0.015625)"/>
       <path id="DejaVuSans-6d" d="M 3328 2828 
Q 3544 3216 3844 3400 
Q 4144 3584 4550 3584 
Q 5097 3584 5394 3201 
Q 5691 2819 5691 2113 
L 5691 0 
L 5113 0 
L 5113 2094 
Q 5113 2597 4934 2840 
Q 4756 3084 4391 3084 
Q 3944 3084 3684 2787 
Q 3425 2491 3425 1978 
L 3425 0 
L 2847 0 
L 2847 2094 
Q 2847 2600 2669 2842 
Q 2491 3084 2119 3084 
Q 1678 3084 1418 2786 
Q 1159 2488 1159 1978 
L 1159 0 
L 581 0 
L 581 3500 
L 1159 3500 
L 1159 2956 
Q 1356 3278 1631 3431 
Q 1906 3584 2284 3584 
Q 2666 3584 2933 3390 
Q 3200 3197 3328 2828 
z
" transform="scale(0.015625)"/>
       <path id="DejaVuSans-5d" d="M 1947 4863 
L 1947 -844 
L 622 -844 
L 622 -397 
L 1369 -397 
L 1369 4416 
L 622 4416 
L 622 4863 
L 1947 4863 
z
" transform="scale(0.015625)"/>
      </defs>
      <use xlink:href="#DejaVuSans-72"/>
      <use xlink:href="#DejaVuSans-6f" transform="translate(38.863281 0)"/>
      <use xlink:href="#DejaVuSans-77" transform="translate(100.044922 0)"/>
      <use xlink:href="#DejaVuSans-20" transform="translate(181.832031 0)"/>
      <use xlink:href="#DejaVuSans-5b" transform="translate(213.619141 0)"/>
      <use xlink:href="#DejaVuSans-64" transform="translate(252.632812 0)"/>
      <use xlink:href="#DejaVuSans-61" transform="translate(316.109375 0)"/>
      <use xlink:href="#DejaVuSans-74" transform="translate(377.388672 0)"/>
      <use xlink:href="#DejaVuSans-65" transform="translate(416.597656 0)"/>
      <use xlink:href="#DejaVuSans-74" transform="translate(478.121094 0)"/>
      <use xlink:href="#DejaVuSans-69" transform="translate(517.330078 0)"/>
      <use xlink:href="#DejaVuSans-6d" transform="translate(545.113281 0)"/>
      <use xlink:href="#DejaVuSans-65" transform="translate(642.525391 0)"/>
      <use xlink:href="#DejaVuSans-5d" transform="translate(704.048828 0)"/>
     </g>
    </g>
   </g>
   <g id="matplotlib.axis_2">
    <g id="ytick_1">
     <g id="line2d_8">
      <defs>
       <path id="m69fb6d2cde" d="M 0 0 
L -3.5 0 
" style="stroke: #000000; stroke-width: 0.8"/>
      </defs>
      <g>
       <use xlink:href="#m69fb6d2cde" x="48.982813" y="214.499744" style="stroke: #000000; stroke-width: 0.8"/>
      </g>
     </g>
     <g id="text_9">
      <!-- −20 -->
      <g transform="translate(20.878125 218.298962) scale(0.1 -0.1)">
       <defs>
        <path id="DejaVuSans-2212" d="M 678 2272 
L 4684 2272 
L 4684 1741 
L 678 1741 
L 678 2272 
z
" transform="scale(0.015625)"/>
       </defs>
       <use xlink:href="#DejaVuSans-2212"/>
       <use xlink:href="#DejaVuSans-32" transform="translate(83.789062 0)"/>
       <use xlink:href="#DejaVuSans-30" transform="translate(147.412109 0)"/>
      </g>
     </g>
    </g>
    <g id="ytick_2">
     <g id="line2d_9">
      <g>
       <use xlink:href="#m69fb6d2cde" x="48.982813" y="188.004548" style="stroke: #000000; stroke-width: 0.8"/>
      </g>
     </g>
     <g id="text_10">
      <!-- −15 -->
      <g transform="translate(20.878125 191.803767) scale(0.1 -0.1)">
       <use xlink:href="#DejaVuSans-2212"/>
       <use xlink:href="#DejaVuSans-31" transform="translate(83.789062 0)"/>
       <use xlink:href="#DejaVuSans-35" transform="translate(147.412109 0)"/>
      </g>
     </g>
    </g>
    <g id="ytick_3">
     <g id="line2d_10">
      <g>
       <use xlink:href="#m69fb6d2cde" x="48.982813" y="161.509353" style="stroke: #000000; stroke-width: 0.8"/>
      </g>
     </g>
     <g id="text_11">
      <!-- −10 -->
      <g transform="translate(20.878125 165.308572) scale(0.1 -0.1)">
       <use xlink:href="#DejaVuSans-2212"/>
       <use xlink:href="#DejaVuSans-31" transform="translate(83.789062 0)"/>
       <use xlink:href="#DejaVuSans-30" transform="translate(147.412109 0)"/>
      </g>
     </g>
    </g>
    <g id="ytick_4">
     <g id="line2d_11">
      <g>
       <use xlink:href="#m69fb6d2cde" x="48.982813" y="135.014157" style="stroke: #000000; stroke-width: 0.8"/>
      </g>
     </g>
     <g id="text_12">
      <!-- −5 -->
      <g transform="translate(27.240625 138.813376) scale(0.1 -0.1)">
       <use xlink:href="#DejaVuSans-2212"/>
       <use xlink:href="#DejaVuSans-35" transform="translate(83.789062 0)"/>
      </g>
     </g>
    </g>
    <g id="ytick_5">
     <g id="line2d_12">
      <g>
       <use xlink:href="#m69fb6d2cde" x="48.982813" y="108.518962" style="stroke: #000000; stroke-width: 0.8"/>
      </g>
     </g>
     <g id="text_13">
      <!-- 0 -->
      <g transform="translate(35.620312 112.318181) scale(0.1 -0.1)">
       <use xlink:href="#DejaVuSans-30"/>
      </g>
     </g>
    </g>
    <g id="ytick_6">
     <g id="line2d_13">
      <g>
       <use xlink:href="#m69fb6d2cde" x="48.982813" y="82.023767" style="stroke: #000000; stroke-width: 0.8"/>
      </g>
     </g>
     <g id="text_14">
      <!-- 5 -->
      <g transform="translate(35.620312 85.822985) scale(0.1 -0.1)">
       <use xlink:href="#DejaVuSans-35"/>
      </g>
     </g>
    </g>
    <g id="ytick_7">
     <g id="line2d_14">
      <g>
       <use xlink:href="#m69fb6d2cde" x="48.982813" y="55.528571" style="stroke: #000000; stroke-width: 0.8"/>
      </g>
     </g>
     <g id="text_15">
      <!-- 10 -->
      <g transform="translate(29.257812 59.32779) scale(0.1 -0.1)">
       <use xlink:href="#DejaVuSans-31"/>
       <use xlink:href="#DejaVuSans-30" transform="translate(63.623047 0)"/>
      </g>
     </g>
    </g>
    <g id="ytick_8">
     <g id="line2d_15">
      <g>
       <use xlink:href="#m69fb6d2cde" x="48.982813" y="29.033376" style="stroke: #000000; stroke-width: 0.8"/>
      </g>
     </g>
     <g id="text_16">
      <!-- 15 -->
      <g transform="translate(29.257812 32.832595) scale(0.1 -0.1)">
       <use xlink:href="#DejaVuSans-31"/>
       <use xlink:href="#DejaVuSans-35" transform="translate(63.623047 0)"/>
      </g>
     </g>
    </g>
    <g id="text_17">
     <!-- [dimensionless] -->
     <g transform="translate(14.798437 157.557344) rotate(-90) scale(0.1 -0.1)">
      <defs>
       <path id="DejaVuSans-6e" d="M 3513 2113 
L 3513 0 
L 2938 0 
L 2938 2094 
Q 2938 2591 2744 2837 
Q 2550 3084 2163 3084 
Q 1697 3084 1428 2787 
Q 1159 2491 1159 1978 
L 1159 0 
L 581 0 
L 581 3500 
L 1159 3500 
L 1159 2956 
Q 1366 3272 1645 3428 
Q 1925 3584 2291 3584 
Q 2894 3584 3203 3211 
Q 3513 2838 3513 2113 
z
" transform="scale(0.015625)"/>
       <path id="DejaVuSans-73" d="M 2834 3397 
L 2834 2853 
Q 2591 2978 2328 3040 
Q 2066 3103 1784 3103 
Q 1356 3103 1142 2972 
Q 928 2841 928 2578 
Q 928 2378 1081 2264 
Q 1234 2150 1697 2047 
L 1894 2003 
Q 2506 1872 2764 1633 
Q 3022 1394 3022 966 
Q 3022 478 2636 193 
Q 2250 -91 1575 -91 
Q 1294 -91 989 -36 
Q 684 19 347 128 
L 347 722 
Q 666 556 975 473 
Q 1284 391 1588 391 
Q 1994 391 2212 530 
Q 2431 669 2431 922 
Q 2431 1156 2273 1281 
Q 2116 1406 1581 1522 
L 1381 1569 
Q 847 1681 609 1914 
Q 372 2147 372 2553 
Q 372 3047 722 3315 
Q 1072 3584 1716 3584 
Q 2034 3584 2315 3537 
Q 2597 3491 2834 3397 
z
" transform="scale(0.015625)"/>
       <path id="DejaVuSans-6c" d="M 603 4863 
L 1178 4863 
L 1178 0 
L 603 0 
L 603 4863 
z
" transform="scale(0.015625)"/>
      </defs>
      <use xlink:href="#DejaVuSans-5b"/>
      <use xlink:href="#DejaVuSans-64" transform="translate(39.013672 0)"/>
      <use xlink:href="#DejaVuSans-69" transform="translate(102.490234 0)"/>
      <use xlink:href="#DejaVuSans-6d" transform="translate(130.273438 0)"/>
      <use xlink:href="#DejaVuSans-65" transform="translate(227.685547 0)"/>
      <use xlink:href="#DejaVuSans-6e" transform="translate(289.208984 0)"/>
      <use xlink:href="#DejaVuSans-73" transform="translate(352.587891 0)"/>
      <use xlink:href="#DejaVuSans-69" transform="translate(404.6875 0)"/>
      <use xlink:href="#DejaVuSans-6f" transform="translate(432.470703 0)"/>
      <use xlink:href="#DejaVuSans-6e" transform="translate(493.652344 0)"/>
      <use xlink:href="#DejaVuSans-6c" transform="translate(557.03125 0)"/>
      <use xlink:href="#DejaVuSans-65" transform="translate(584.814453 0)"/>
      <use xlink:href="#DejaVuSans-73" transform="translate(646.337891 0)"/>
      <use xlink:href="#DejaVuSans-73" transform="translate(698.4375 0)"/>
      <use xlink:href="#DejaVuSans-5d" transform="translate(750.537109 0)"/>
     </g>
    </g>
   </g>
   <g id="line2d_16">
    <path d="M 64.200994 114.370681 
L 65.73046 109.253137 
L 67.259925 108.120229 
L 68.789391 104.296238 
L 70.318856 102.593003 
L 71.848322 104.375049 
L 73.377787 107.725095 
L 74.907253 112.3403 
L 76.436718 110.189273 
L 77.966184 110.583939 
L 79.495649 103.702511 
L 81.025115 90.682172 
L 82.55458 95.453268 
L 84.084046 96.23314 
L 85.613511 94.984577 
L 87.142977 96.190882 
L 88.672442 92.053692 
L 90.201908 83.804028 
L 91.731373 78.865349 
L 93.260839 88.725874 
L 94.790305 89.845424 
L 96.31977 92.513475 
L 97.849236 90.832764 
L 99.378701 93.310316 
L 100.908167 89.672171 
L 102.437632 83.590604 
L 103.967098 82.704553 
L 105.496563 82.308484 
L 107.026029 84.979129 
L 108.555494 86.625157 
L 110.08496 84.832462 
L 111.614425 76.149921 
L 113.143891 78.763243 
L 114.673356 81.081426 
L 116.202822 83.789013 
L 117.732287 80.67442 
L 119.261753 76.859634 
L 120.791218 74.462706 
L 122.320684 81.290774 
L 123.850149 74.862029 
L 125.379615 73.050137 
L 126.90908 68.676461 
L 129.968011 77.008832 
L 131.497477 77.814878 
L 133.026942 76.49969 
L 134.556408 80.581831 
L 136.085873 82.73968 
L 139.144804 75.31012 
L 140.67427 76.243553 
L 142.203735 77.480668 
L 143.733201 78.45822 
L 145.262666 80.072672 
L 146.792132 92.878024 
L 148.321597 92.780052 
L 149.851063 92.001715 
L 151.380528 102.850253 
L 152.909994 105.995073 
L 154.439459 108.575424 
L 155.968925 95.75091 
L 157.49839 89.253834 
L 159.027856 85.97501 
L 160.557321 80.918411 
L 162.086787 76.956326 
L 163.616252 73.403266 
L 165.145718 71.353715 
L 166.675183 70.042664 
L 168.204649 66.141096 
L 169.734114 73.274361 
L 171.26358 68.458002 
L 172.793045 66.074179 
L 174.322511 65.17577 
L 175.851977 64.809837 
L 177.381442 62.482615 
L 178.910908 62.183017 
L 180.440373 61.527961 
L 181.969839 71.757399 
L 183.499304 79.806089 
L 185.02877 75.475749 
L 186.558235 78.192864 
L 188.087701 84.478294 
L 189.617166 81.174705 
L 191.146632 84.451989 
L 192.676097 78.022386 
L 194.205563 82.856707 
L 195.735028 84.848965 
L 197.264494 85.351982 
L 198.793959 89.388204 
L 200.323425 95.510363 
L 201.85289 99.42915 
L 203.382356 93.025595 
L 204.911821 90.271274 
L 206.441287 91.194912 
L 207.970752 87.259122 
L 209.500218 87.521014 
L 211.029683 96.924376 
L 212.559149 95.450877 
L 214.088614 100.312466 
L 215.61808 102.8429 
L 218.677011 110.495709 
L 220.206476 116.496043 
L 221.735942 115.097883 
L 223.265407 109.022279 
L 224.794873 114.234918 
L 226.324338 112.130529 
L 227.853804 99.403566 
L 229.383269 98.094039 
L 230.912735 100.618701 
L 232.4422 99.737188 
L 233.971666 100.30629 
L 235.501131 87.22147 
L 237.030597 89.839566 
L 240.089528 102.209659 
L 241.618993 99.379209 
L 244.677924 91.441837 
L 246.20739 85.327465 
L 247.736855 80.102815 
L 249.266321 70.236661 
L 250.795786 70.138596 
L 252.325252 64.096546 
L 253.854717 60.475435 
L 255.384183 60.250788 
L 256.913648 57.778335 
L 258.443114 54.956241 
L 259.97258 55.183237 
L 261.502045 54.048147 
L 263.031511 58.551543 
L 264.560976 65.392118 
L 266.090442 65.070422 
L 267.619907 55.43966 
L 269.149373 51.399764 
L 270.678838 49.897483 
L 272.208304 40.565149 
L 273.737769 33.886116 
L 275.267235 40.134545 
L 276.7967 28.253945 
L 278.326166 34.052996 
L 279.855631 32.243467 
L 281.385097 39.632984 
L 282.914562 37.094089 
L 284.444028 35.680869 
L 285.973493 37.536981 
L 287.502959 38.896087 
L 290.56189 46.314968 
L 292.091355 51.113239 
L 293.620821 55.092474 
L 295.150286 46.665726 
L 296.679752 41.639526 
L 298.209217 36.038922 
L 299.738683 36.11884 
L 301.268148 36.423264 
L 302.797614 34.221589 
L 304.327079 43.9066 
L 305.856545 33.589415 
L 307.38601 41.892004 
L 308.915476 40.360034 
L 310.444941 35.261901 
L 311.974407 39.399479 
L 313.503872 38.060026 
L 315.033338 35.457058 
L 316.562803 36.847677 
L 318.092269 39.123568 
L 319.621734 39.201767 
L 321.1512 47.640849 
L 322.680665 42.631749 
L 324.210131 40.146987 
L 325.739596 46.950915 
L 327.269062 56.681969 
L 328.798527 53.785379 
L 330.327993 64.44671 
L 331.857458 64.362934 
L 333.386924 64.407333 
L 334.916389 63.695793 
L 336.445855 61.65784 
L 337.97532 62.597731 
L 339.504786 52.223008 
L 341.034252 61.0355 
L 342.563717 57.8761 
L 344.093183 54.233437 
L 345.622648 55.511732 
L 347.152114 47.922007 
L 350.211045 53.05599 
L 351.74051 42.14472 
L 353.269976 49.633582 
L 354.799441 58.143843 
L 356.328907 60.91425 
L 357.858372 62.617636 
L 359.387838 65.966328 
L 360.917303 74.456752 
L 362.446769 75.121308 
L 363.976234 77.13766 
L 365.5057 73.668804 
L 367.035165 79.230751 
L 368.564631 73.69625 
L 368.564631 73.69625 
" clip-path="url(#pca8a90eae6)" style="fill: none; stroke: #1f77b4; stroke-width: 1.5; stroke-linecap: square"/>
   </g>
   <g id="line2d_17">
    <path d="M 64.200994 108.069149 
L 65.73046 92.001358 
L 67.259925 93.37578 
L 68.789391 87.542151 
L 70.318856 89.483881 
L 71.848322 98.436664 
L 73.377787 100.461518 
L 74.907253 94.316356 
L 77.966184 89.141596 
L 79.495649 80.805558 
L 81.025115 82.175771 
L 82.55458 86.20038 
L 84.084046 85.426826 
L 85.613511 89.943503 
L 87.142977 90.222291 
L 88.672442 84.786832 
L 90.201908 94.635458 
L 91.731373 92.717203 
L 93.260839 88.17372 
L 94.790305 89.591047 
L 96.31977 89.744428 
L 97.849236 87.385836 
L 99.378701 94.523481 
L 100.908167 93.553509 
L 102.437632 97.471875 
L 103.967098 104.878706 
L 105.496563 108.18231 
L 107.026029 108.67497 
L 108.555494 101.240109 
L 110.08496 109.413854 
L 111.614425 107.433362 
L 113.143891 107.433604 
L 114.673356 111.705263 
L 116.202822 117.873638 
L 117.732287 118.793158 
L 119.261753 120.33291 
L 120.791218 122.409246 
L 122.320684 122.926667 
L 123.850149 131.060518 
L 125.379615 129.761763 
L 126.90908 127.987474 
L 128.438546 133.616201 
L 129.968011 132.760216 
L 131.497477 137.714474 
L 133.026942 137.329298 
L 134.556408 142.114529 
L 136.085873 138.8204 
L 137.615339 140.404564 
L 139.144804 143.886381 
L 140.67427 142.402815 
L 142.203735 143.539534 
L 143.733201 142.83708 
L 145.262666 149.751112 
L 146.792132 160.433894 
L 148.321597 159.750127 
L 149.851063 157.044873 
L 151.380528 155.365375 
L 152.909994 157.510687 
L 154.439459 150.528249 
L 155.968925 148.301023 
L 157.49839 150.915119 
L 159.027856 154.050185 
L 160.557321 146.416746 
L 162.086787 148.451722 
L 163.616252 149.581032 
L 165.145718 146.259265 
L 166.675183 143.736662 
L 168.204649 145.364958 
L 169.734114 142.283763 
L 171.26358 137.747729 
L 172.793045 132.702719 
L 174.322511 131.562919 
L 175.851977 131.955828 
L 177.381442 142.176519 
L 178.910908 144.633003 
L 180.440373 141.578114 
L 181.969839 140.556032 
L 183.499304 137.197904 
L 185.02877 139.820134 
L 186.558235 138.446299 
L 188.087701 139.649253 
L 189.617166 141.028013 
L 191.146632 145.985992 
L 192.676097 147.853713 
L 194.205563 146.294035 
L 195.735028 144.045532 
L 197.264494 143.196598 
L 198.793959 133.082074 
L 200.323425 131.665429 
L 201.85289 123.442965 
L 203.382356 126.385252 
L 204.911821 123.560315 
L 206.441287 129.116824 
L 207.970752 126.613348 
L 209.500218 135.514199 
L 211.029683 131.001785 
L 212.559149 124.664776 
L 214.088614 116.734969 
L 215.61808 116.320374 
L 217.147545 119.297709 
L 218.677011 120.704879 
L 220.206476 124.002858 
L 221.735942 125.855653 
L 223.265407 126.398011 
L 224.794873 126.648123 
L 226.324338 132.809682 
L 227.853804 141.748766 
L 229.383269 144.51282 
L 230.912735 145.246486 
L 232.4422 142.274182 
L 233.971666 140.395238 
L 235.501131 146.371421 
L 237.030597 143.448127 
L 238.560062 143.584011 
L 240.089528 148.272728 
L 241.618993 151.449469 
L 243.148459 155.333603 
L 244.677924 154.377024 
L 246.20739 149.583292 
L 247.736855 148.603696 
L 249.266321 153.839458 
L 252.325252 147.052861 
L 253.854717 151.801444 
L 255.384183 162.167384 
L 256.913648 163.188521 
L 258.443114 163.661187 
L 259.97258 165.45773 
L 261.502045 169.589875 
L 263.031511 175.879366 
L 264.560976 175.042886 
L 266.090442 178.46811 
L 267.619907 179.989596 
L 269.149373 181.754727 
L 270.678838 187.262024 
L 272.208304 188.556219 
L 273.737769 187.240598 
L 275.267235 188.195081 
L 276.7967 184.885901 
L 278.326166 181.018236 
L 279.855631 180.526099 
L 281.385097 184.22942 
L 282.914562 186.58099 
L 284.444028 179.82973 
L 285.973493 178.54558 
L 287.502959 177.089472 
L 289.032424 169.761819 
L 290.56189 175.48698 
L 292.091355 171.649772 
L 293.620821 167.26873 
L 295.150286 159.503428 
L 296.679752 164.052306 
L 298.209217 162.051082 
L 299.738683 171.655091 
L 301.268148 173.254339 
L 302.797614 178.600849 
L 304.327079 186.477243 
L 305.856545 186.573116 
L 307.38601 183.415351 
L 308.915476 185.099598 
L 310.444941 190.175531 
L 311.974407 200.520997 
L 313.503872 204.333195 
L 315.033338 215.712533 
L 316.562803 207.83798 
L 318.092269 207.166191 
L 319.621734 198.714262 
L 321.1512 203.699415 
L 322.680665 215.892447 
L 324.210131 209.955565 
L 325.739596 209.199129 
L 327.269062 212.508064 
L 328.798527 216.12305 
L 330.327993 214.469848 
L 331.857458 210.27413 
L 333.386924 214.24758 
L 334.916389 213.963801 
L 336.445855 220.341345 
L 337.97532 221.905027 
L 339.504786 211.728868 
L 341.034252 206.704803 
L 342.563717 208.379091 
L 344.093183 208.41283 
L 345.622648 212.911301 
L 347.152114 203.737558 
L 348.681579 207.577299 
L 350.211045 215.36573 
L 351.74051 216.113705 
L 353.269976 207.867907 
L 356.328907 199.723123 
L 357.858372 198.67532 
L 359.387838 200.080085 
L 360.917303 200.600413 
L 362.446769 198.249155 
L 363.976234 187.003968 
L 365.5057 180.800937 
L 367.035165 186.846111 
L 368.564631 184.977645 
L 368.564631 184.977645 
" clip-path="url(#pca8a90eae6)" style="fill: none; stroke: #ff7f0e; stroke-width: 1.5; stroke-linecap: square"/>
   </g>
   <g id="line2d_18">
    <path d="M 64.200994 109.929528 
L 65.73046 108.370712 
L 67.259925 108.795931 
L 68.789391 104.303857 
L 70.318856 100.245256 
L 71.848322 103.793173 
L 73.377787 113.022631 
L 74.907253 110.577553 
L 76.436718 114.828114 
L 77.966184 117.196208 
L 79.495649 117.670251 
L 81.025115 117.170233 
L 82.55458 119.032409 
L 84.084046 124.573649 
L 85.613511 128.069146 
L 87.142977 132.931787 
L 88.672442 141.322221 
L 90.201908 138.92227 
L 91.731373 133.823411 
L 93.260839 121.431547 
L 94.790305 117.195137 
L 96.31977 118.490235 
L 97.849236 116.164579 
L 99.378701 110.195941 
L 100.908167 113.985703 
L 102.437632 106.629665 
L 103.967098 111.955291 
L 105.496563 113.522056 
L 107.026029 115.612689 
L 108.555494 109.53494 
L 111.614425 104.693281 
L 113.143891 105.122322 
L 114.673356 97.375687 
L 116.202822 94.673932 
L 117.732287 93.140017 
L 119.261753 96.08011 
L 120.791218 103.773824 
L 122.320684 97.580936 
L 123.850149 95.726783 
L 125.379615 101.60429 
L 126.90908 111.870027 
L 128.438546 112.966006 
L 129.968011 98.041399 
L 131.497477 99.132699 
L 133.026942 97.744489 
L 134.556408 98.307843 
L 136.085873 102.974984 
L 137.615339 105.365433 
L 139.144804 114.570221 
L 140.67427 113.379799 
L 142.203735 112.859956 
L 143.733201 101.179006 
L 145.262666 101.814301 
L 146.792132 101.97894 
L 148.321597 112.879272 
L 149.851063 119.593326 
L 151.380528 119.28508 
L 152.909994 117.350731 
L 154.439459 116.662639 
L 155.968925 126.229542 
L 157.49839 129.914746 
L 159.027856 137.290413 
L 160.557321 137.239535 
L 162.086787 147.063362 
L 163.616252 158.938467 
L 165.145718 155.420103 
L 166.675183 147.949148 
L 168.204649 141.709273 
L 169.734114 131.89172 
L 171.26358 135.655328 
L 172.793045 133.398051 
L 174.322511 135.291372 
L 175.851977 135.909239 
L 177.381442 137.49883 
L 178.910908 141.843248 
L 180.440373 142.896954 
L 181.969839 151.182769 
L 183.499304 151.591431 
L 185.02877 147.580548 
L 186.558235 142.112642 
L 188.087701 139.663356 
L 189.617166 135.362996 
L 191.146632 134.849077 
L 192.676097 137.29052 
L 194.205563 141.874103 
L 195.735028 150.023652 
L 197.264494 148.382939 
L 198.793959 154.441619 
L 200.323425 150.05503 
L 201.85289 146.679721 
L 203.382356 145.177782 
L 204.911821 130.242644 
L 206.441287 132.286792 
L 207.970752 140.445997 
L 209.500218 144.637499 
L 211.029683 145.5339 
L 212.559149 146.783611 
L 214.088614 147.226475 
L 215.61808 147.329073 
L 217.147545 146.329403 
L 218.677011 155.626916 
L 220.206476 151.957894 
L 221.735942 151.978996 
L 223.265407 158.001745 
L 224.794873 156.465515 
L 226.324338 155.656195 
L 227.853804 164.177882 
L 229.383269 157.731365 
L 230.912735 157.105689 
L 232.4422 151.192337 
L 233.971666 147.575451 
L 235.501131 145.626051 
L 237.030597 144.711087 
L 238.560062 133.117915 
L 240.089528 135.894576 
L 241.618993 135.468645 
L 243.148459 138.921242 
L 244.677924 150.740243 
L 246.20739 150.930339 
L 247.736855 148.99516 
L 249.266321 143.532964 
L 250.795786 147.071868 
L 252.325252 151.169505 
L 253.854717 156.304228 
L 255.384183 154.704448 
L 256.913648 147.263666 
L 258.443114 142.577266 
L 259.97258 147.641051 
L 261.502045 148.983897 
L 263.031511 151.84303 
L 264.560976 165.335746 
L 266.090442 162.905227 
L 267.619907 161.816349 
L 269.149373 157.144892 
L 270.678838 153.172131 
L 272.208304 152.93083 
L 273.737769 151.939912 
L 275.267235 161.298208 
L 276.7967 161.893822 
L 278.326166 162.923184 
L 279.855631 163.669169 
L 281.385097 170.566291 
L 282.914562 170.67032 
L 284.444028 163.730711 
L 285.973493 169.856896 
L 287.502959 172.464227 
L 289.032424 181.868079 
L 290.56189 186.761309 
L 292.091355 182.979287 
L 293.620821 195.21824 
L 295.150286 189.373436 
L 296.679752 199.252197 
L 298.209217 199.700223 
L 299.738683 191.842651 
L 301.268148 197.295522 
L 302.797614 204.126079 
L 304.327079 205.950631 
L 305.856545 215.2369 
L 307.38601 211.482395 
L 308.915476 209.568901 
L 310.444941 209.537787 
L 311.974407 210.655078 
L 313.503872 201.158558 
L 315.033338 197.408678 
L 316.562803 202.891085 
L 318.092269 204.39172 
L 319.621734 187.110939 
L 321.1512 190.692566 
L 322.680665 205.634489 
L 324.210131 212.917924 
L 325.739596 205.977901 
L 327.269062 203.899349 
L 328.798527 189.596118 
L 330.327993 192.849022 
L 331.857458 189.976709 
L 333.386924 199.124737 
L 334.916389 198.953559 
L 336.445855 196.896308 
L 337.97532 194.364133 
L 339.504786 197.682962 
L 341.034252 188.886353 
L 342.563717 200.07047 
L 344.093183 203.481643 
L 345.622648 204.019166 
L 347.152114 194.264459 
L 348.681579 197.578526 
L 350.211045 198.713416 
L 351.74051 203.437532 
L 353.269976 212.09096 
L 354.799441 213.328128 
L 356.328907 217.460854 
L 357.858372 220.924424 
L 359.387838 211.23686 
L 362.446769 197.909404 
L 363.976234 196.688964 
L 365.5057 196.66025 
L 367.035165 194.560415 
L 368.564631 200.806207 
L 368.564631 200.806207 
" clip-path="url(#pca8a90eae6)" style="fill: none; stroke: #2ca02c; stroke-width: 1.5; stroke-linecap: square"/>
   </g>
   <g id="line2d_19">
    <path d="M 64.200994 110.869732 
L 65.73046 105.313054 
L 67.259925 106.709739 
L 68.789391 104.172559 
L 70.318856 111.912869 
L 71.848322 109.74105 
L 73.377787 104.963321 
L 74.907253 99.559563 
L 76.436718 100.394562 
L 77.966184 103.888568 
L 79.495649 104.117563 
L 81.025115 101.376447 
L 82.55458 107.612442 
L 84.084046 114.706069 
L 85.613511 120.402918 
L 87.142977 115.764599 
L 88.672442 124.518492 
L 90.201908 120.592282 
L 91.731373 122.489093 
L 93.260839 117.70857 
L 94.790305 111.780509 
L 96.31977 111.481223 
L 97.849236 106.441002 
L 99.378701 95.541943 
L 100.908167 91.169901 
L 102.437632 97.89328 
L 103.967098 101.270542 
L 105.496563 95.418311 
L 107.026029 100.75768 
L 108.555494 100.972201 
L 110.08496 110.894656 
L 111.614425 108.959383 
L 113.143891 121.587908 
L 114.673356 113.616643 
L 116.202822 112.601183 
L 117.732287 118.91983 
L 119.261753 110.812648 
L 120.791218 107.111266 
L 122.320684 111.349458 
L 125.379615 99.451181 
L 126.90908 102.106582 
L 128.438546 93.334902 
L 129.968011 91.242804 
L 131.497477 82.734144 
L 133.026942 88.47916 
L 134.556408 82.602134 
L 136.085873 80.778507 
L 137.615339 80.017319 
L 139.144804 73.12942 
L 140.67427 71.39501 
L 142.203735 76.554887 
L 143.733201 77.999343 
L 145.262666 67.819477 
L 146.792132 67.426001 
L 148.321597 66.568088 
L 149.851063 80.492435 
L 151.380528 76.743982 
L 152.909994 73.635465 
L 154.439459 79.056832 
L 155.968925 77.372795 
L 157.49839 80.338418 
L 159.027856 83.774698 
L 160.557321 77.815101 
L 162.086787 78.078456 
L 163.616252 78.022187 
L 165.145718 76.205138 
L 166.675183 80.231797 
L 168.204649 72.985513 
L 169.734114 77.009049 
L 171.26358 80.641263 
L 172.793045 82.549383 
L 174.322511 85.112316 
L 175.851977 79.612674 
L 177.381442 85.925221 
L 178.910908 83.184617 
L 180.440373 75.630045 
L 181.969839 71.765592 
L 183.499304 68.283256 
L 185.02877 64.194696 
L 188.087701 65.900134 
L 189.617166 71.525963 
L 191.146632 75.680852 
L 192.676097 82.795897 
L 194.205563 79.935396 
L 195.735028 83.527581 
L 197.264494 88.710739 
L 198.793959 83.80529 
L 200.323425 84.85524 
L 201.85289 77.26108 
L 204.911821 85.526615 
L 206.441287 86.116962 
L 207.970752 77.523903 
L 209.500218 75.532766 
L 211.029683 75.247495 
L 212.559149 79.819076 
L 214.088614 79.689687 
L 215.61808 79.926465 
L 217.147545 78.247913 
L 218.677011 75.470525 
L 220.206476 72.923859 
L 221.735942 75.668425 
L 223.265407 85.658639 
L 224.794873 77.190122 
L 226.324338 78.491757 
L 227.853804 71.014833 
L 229.383269 68.621325 
L 230.912735 75.379777 
L 232.4422 73.367526 
L 233.971666 69.590058 
L 235.501131 63.811395 
L 237.030597 56.980456 
L 238.560062 60.62894 
L 240.089528 57.023803 
L 241.618993 55.893099 
L 243.148459 53.096178 
L 244.677924 54.823353 
L 246.20739 55.857103 
L 247.736855 49.834508 
L 249.266321 56.340392 
L 250.795786 56.746755 
L 252.325252 58.712486 
L 253.854717 55.645507 
L 255.384183 43.890847 
L 256.913648 48.344443 
L 258.443114 52.01281 
L 259.97258 57.474666 
L 261.502045 58.083385 
L 263.031511 57.044491 
L 264.560976 57.99776 
L 266.090442 60.351402 
L 267.619907 56.907753 
L 269.149373 61.363397 
L 270.678838 61.515443 
L 275.267235 50.12153 
L 276.7967 60.031651 
L 278.326166 50.84749 
L 279.855631 48.86223 
L 281.385097 57.249374 
L 282.914562 62.692151 
L 284.444028 65.915968 
L 285.973493 61.829224 
L 287.502959 53.95755 
L 289.032424 56.787198 
L 290.56189 49.868662 
L 292.091355 51.538624 
L 293.620821 46.650073 
L 295.150286 50.244686 
L 296.679752 55.529438 
L 298.209217 50.030767 
L 299.738683 46.62302 
L 301.268148 36.190381 
L 302.797614 36.134344 
L 304.327079 34.974014 
L 305.856545 25.857452 
L 307.38601 30.175775 
L 308.915476 36.818707 
L 310.444941 39.263919 
L 311.974407 40.460282 
L 313.503872 45.895376 
L 315.033338 47.295252 
L 316.562803 53.14675 
L 318.092269 47.968948 
L 319.621734 48.424521 
L 321.1512 49.490365 
L 322.680665 53.328322 
L 324.210131 45.308905 
L 325.739596 46.103621 
L 327.269062 36.924989 
L 328.798527 43.856215 
L 330.327993 40.485953 
L 331.857458 45.271184 
L 333.386924 41.269277 
L 334.916389 33.088955 
L 336.445855 27.979391 
L 337.97532 29.690836 
L 339.504786 28.256866 
L 341.034252 31.495936 
L 342.563717 26.202103 
L 344.093183 19.945856 
L 345.622648 12.786595 
L 347.152114 18.119988 
L 348.681579 24.05457 
L 350.211045 25.770434 
L 351.74051 24.938574 
L 353.269976 19.265417 
L 354.799441 18.599251 
L 356.328907 15.881054 
L 357.858372 25.221697 
L 359.387838 32.950057 
L 360.917303 42.562483 
L 362.446769 42.047518 
L 363.976234 51.307751 
L 365.5057 45.510115 
L 367.035165 43.451953 
L 368.564631 45.17049 
L 368.564631 45.17049 
" clip-path="url(#pca8a90eae6)" style="fill: none; stroke: #d62728; stroke-width: 1.5; stroke-linecap: square"/>
   </g>
   <g id="patch_3">
    <path d="M 48.982813 228.96 
L 48.982813 7.2 
" style="fill: none; stroke: #000000; stroke-width: 0.8; stroke-linejoin: miter; stroke-linecap: square"/>
   </g>
   <g id="patch_4">
    <path d="M 383.782813 228.96 
L 383.782813 7.2 
" style="fill: none; stroke: #000000; stroke-width: 0.8; stroke-linejoin: miter; stroke-linecap: square"/>
   </g>
   <g id="patch_5">
    <path d="M 48.982812 228.96 
L 383.782812 228.96 
" style="fill: none; stroke: #000000; stroke-width: 0.8; stroke-linejoin: miter; stroke-linecap: square"/>
   </g>
   <g id="patch_6">
    <path d="M 48.982812 7.2 
L 383.782812 7.2 
" style="fill: none; stroke: #000000; stroke-width: 0.8; stroke-linejoin: miter; stroke-linecap: square"/>
   </g>
   <g id="legend_1">
    <g id="patch_7">
     <path d="M 55.982813 73.9125 
L 95.682813 73.9125 
Q 97.682813 73.9125 97.682813 71.9125 
L 97.682813 14.2 
Q 97.682813 12.2 95.682813 12.2 
L 55.982813 12.2 
Q 53.982813 12.2 53.982813 14.2 
L 53.982813 71.9125 
Q 53.982813 73.9125 55.982813 73.9125 
z
" style="fill: #ffffff; opacity: 0.8; stroke: #cccccc; stroke-linejoin: miter"/>
    </g>
    <g id="line2d_20">
     <path d="M 57.982813 20.298437 
L 67.982812 20.298437 
L 77.982812 20.298437 
" style="fill: none; stroke: #1f77b4; stroke-width: 1.5; stroke-linecap: square"/>
    </g>
    <g id="text_18">
     <!-- A -->
     <g transform="translate(85.982812 23.798437) scale(0.1 -0.1)">
      <defs>
       <path id="DejaVuSans-41" d="M 2188 4044 
L 1331 1722 
L 3047 1722 
L 2188 4044 
z
M 1831 4666 
L 2547 4666 
L 4325 0 
L 3669 0 
L 3244 1197 
L 1141 1197 
L 716 0 
L 50 0 
L 1831 4666 
z
" transform="scale(0.015625)"/>
      </defs>
      <use xlink:href="#DejaVuSans-41"/>
     </g>
    </g>
    <g id="line2d_21">
     <path d="M 57.982813 34.976562 
L 67.982812 34.976562 
L 77.982812 34.976562 
" style="fill: none; stroke: #ff7f0e; stroke-width: 1.5; stroke-linecap: square"/>
    </g>
    <g id="text_19">
     <!-- B -->
     <g transform="translate(85.982812 38.476562) scale(0.1 -0.1)">
      <defs>
       <path id="DejaVuSans-42" d="M 1259 2228 
L 1259 519 
L 2272 519 
Q 2781 519 3026 730 
Q 3272 941 3272 1375 
Q 3272 1813 3026 2020 
Q 2781 2228 2272 2228 
L 1259 2228 
z
M 1259 4147 
L 1259 2741 
L 2194 2741 
Q 2656 2741 2882 2914 
Q 3109 3088 3109 3444 
Q 3109 3797 2882 3972 
Q 2656 4147 2194 4147 
L 1259 4147 
z
M 628 4666 
L 2241 4666 
Q 2963 4666 3353 4366 
Q 3744 4066 3744 3513 
Q 3744 3084 3544 2831 
Q 3344 2578 2956 2516 
Q 3422 2416 3680 2098 
Q 3938 1781 3938 1306 
Q 3938 681 3513 340 
Q 3088 0 2303 0 
L 628 0 
L 628 4666 
z
" transform="scale(0.015625)"/>
      </defs>
      <use xlink:href="#DejaVuSans-42"/>
     </g>
    </g>
    <g id="line2d_22">
     <path d="M 57.982813 49.654687 
L 67.982812 49.654687 
L 77.982812 49.654687 
" style="fill: none; stroke: #2ca02c; stroke-width: 1.5; stroke-linecap: square"/>
    </g>
    <g id="text_20">
     <!-- C -->
     <g transform="translate(85.982812 53.154687) scale(0.1 -0.1)">
      <defs>
       <path id="DejaVuSans-43" d="M 4122 4306 
L 4122 3641 
Q 3803 3938 3442 4084 
Q 3081 4231 2675 4231 
Q 1875 4231 1450 3742 
Q 1025 3253 1025 2328 
Q 1025 1406 1450 917 
Q 1875 428 2675 428 
Q 3081 428 3442 575 
Q 3803 722 4122 1019 
L 4122 359 
Q 3791 134 3420 21 
Q 3050 -91 2638 -91 
Q 1578 -91 968 557 
Q 359 1206 359 2328 
Q 359 3453 968 4101 
Q 1578 4750 2638 4750 
Q 3056 4750 3426 4639 
Q 3797 4528 4122 4306 
z
" transform="scale(0.015625)"/>
      </defs>
      <use xlink:href="#DejaVuSans-43"/>
     </g>
    </g>
    <g id="line2d_23">
     <path d="M 57.982813 64.332812 
L 67.982812 64.332812 
L 77.982812 64.332812 
" style="fill: none; stroke: #d62728; stroke-width: 1.5; stroke-linecap: square"/>
    </g>
    <g id="text_21">
     <!-- D -->
     <g transform="translate(85.982812 67.832812) scale(0.1 -0.1)">
      <defs>
       <path id="DejaVuSans-44" d="M 1259 4147 
L 1259 519 
L 2022 519 
Q 2988 519 3436 956 
Q 3884 1394 3884 2338 
Q 3884 3275 3436 3711 
Q 2988 4147 2022 4147 
L 1259 4147 
z
M 628 4666 
L 1925 4666 
Q 3281 4666 3915 4102 
Q 4550 3538 4550 2338 
Q 4550 1131 3912 565 
Q 3275 0 1925 0 
L 628 0 
L 628 4666 
z
" transform="scale(0.015625)"/>
      </defs>
      <use xlink:href="#DejaVuSans-44"/>
     </g>
    </g>
   </g>
  </g>
 </g>
 <defs>
  <clipPath id="pca8a90eae6">
   <rect x="48.982813" y="7.2" width="334.8" height="221.76"/>
  </clipPath>
 </defs>
</svg>
