<?xml version="1.0" encoding="utf-8" standalone="no"?>
<!DOCTYPE svg PUBLIC "-//W3C//DTD SVG 1.1//EN"
  "http://www.w3.org/Graphics/SVG/1.1/DTD/svg11.dtd">
<svg xmlns:xlink="http://www.w3.org/1999/xlink" width="390.982812pt" height="266.997402pt" viewBox="0 0 390.982812 266.997402" xmlns="http://www.w3.org/2000/svg" version="1.1">
 <metadata>
  <rdf:RDF xmlns:dc="http://purl.org/dc/elements/1.1/" xmlns:cc="http://creativecommons.org/ns#" xmlns:rdf="http://www.w3.org/1999/02/22-rdf-syntax-ns#">
   <cc:Work>
    <dc:type rdf:resource="http://purl.org/dc/dcmitype/StillImage"/>
    <dc:date>2025-07-18T07:29:45.359384</dc:date>
    <dc:format>image/svg+xml</dc:format>
    <dc:creator>
     <cc:Agent>
      <dc:title>Matplotlib v3.10.3, https://matplotlib.org/</dc:title>
     </cc:Agent>
    </dc:creator>
   </cc:Work>
  </rdf:RDF>
 </metadata>
 <defs>
  <style type="text/css">*{stroke-linejoin: round; stroke-linecap: butt}</style>
 </defs>
 <g id="figure_1">
  <g id="patch_1">
   <path d="M 0 266.997402 
L 390.982812 266.997402 
L 390.982812 0 
L 0 0 
z
" style="fill: #ffffff"/>
  </g>
  <g id="axes_1">
   <g id="patch_2">
    <path d="M 48.982813 229.441152 
L 383.782813 229.441152 
L 383.782813 7.681152 
L 48.982813 7.681152 
z
" style="fill: #ffffff"/>
   </g>
   <g id="matplotlib.axis_1">
    <g id="xtick_1">
     <g id="line2d_1">
      <defs>
       <path id="m507d7a3c2d" d="M 0 0 
L 0 3.5 
" style="stroke: #000000; stroke-width: 0.8"/>
      </defs>
      <g>
       <use xlink:href="#m507d7a3c2d" x="64.200994" y="229.441152" style="stroke: #000000; stroke-width: 0.8"/>
      </g>
     </g>
     <g id="text_1">
      <!-- 2000-01 -->
      <g transform="translate(43.309588 244.03959) scale(0.1 -0.1)">
       <defs>
        <path id="DejaVuSans-32" d="M 1228 531 
L 3431 531 
L 3431 0 
L 469 0 
L 469 531 
Q 828 903 1448 1529 
Q 2069 2156 2228 2338 
Q 2531 2678 2651 2914 
Q 2772 3150 2772 3378 
Q 2772 3750 2511 3984 
Q 2250 4219 1831 4219 
Q 1534 4219 1204 4116 
Q 875 4013 500 3803 
L 500 4441 
Q 881 4594 1212 4672 
Q 1544 4750 1819 4750 
Q 2544 4750 2975 4387 
Q 3406 4025 3406 3419 
Q 3406 3131 3298 2873 
Q 3191 2616 2906 2266 
Q 2828 2175 2409 1742 
Q 1991 1309 1228 531 
z
" transform="scale(0.015625)"/>
        <path id="DejaVuSans-30" d="M 2034 4250 
Q 1547 4250 1301 3770 
Q 1056 3291 1056 2328 
Q 1056 1369 1301 889 
Q 1547 409 2034 409 
Q 2525 409 2770 889 
Q 3016 1369 3016 2328 
Q 3016 3291 2770 3770 
Q 2525 4250 2034 4250 
z
M 2034 4750 
Q 2819 4750 3233 4129 
Q 3647 3509 3647 2328 
Q 3647 1150 3233 529 
Q 2819 -91 2034 -91 
Q 1250 -91 836 529 
Q 422 1150 422 2328 
Q 422 3509 836 4129 
Q 1250 4750 2034 4750 
z
" transform="scale(0.015625)"/>
        <path id="DejaVuSans-2d" d="M 313 2009 
L 1997 2009 
L 1997 1497 
L 313 1497 
L 313 2009 
z
" transform="scale(0.015625)"/>
        <path id="DejaVuSans-31" d="M 794 531 
L 1825 531 
L 1825 4091 
L 703 3866 
L 703 4441 
L 1819 4666 
L 2450 4666 
L 2450 531 
L 3481 531 
L 3481 0 
L 794 0 
L 794 531 
z
" transform="scale(0.015625)"/>
       </defs>
       <use xlink:href="#DejaVuSans-32"/>
       <use xlink:href="#DejaVuSans-30" transform="translate(63.623047 0)"/>
       <use xlink:href="#DejaVuSans-30" transform="translate(127.246094 0)"/>
       <use xlink:href="#DejaVuSans-30" transform="translate(190.869141 0)"/>
       <use xlink:href="#DejaVuSans-2d" transform="translate(254.492188 0)"/>
       <use xlink:href="#DejaVuSans-30" transform="translate(290.576172 0)"/>
       <use xlink:href="#DejaVuSans-31" transform="translate(354.199219 0)"/>
      </g>
     </g>
    </g>
    <g id="xtick_2">
     <g id="line2d_2">
      <g>
       <use xlink:href="#m507d7a3c2d" x="111.614425" y="229.441152" style="stroke: #000000; stroke-width: 0.8"/>
      </g>
     </g>
     <g id="text_2">
      <!-- 2000-02 -->
      <g transform="translate(90.723019 244.03959) scale(0.1 -0.1)">
       <use xlink:href="#DejaVuSans-32"/>
       <use xlink:href="#DejaVuSans-30" transform="translate(63.623047 0)"/>
       <use xlink:href="#DejaVuSans-30" transform="translate(127.246094 0)"/>
       <use xlink:href="#DejaVuSans-30" transform="translate(190.869141 0)"/>
       <use xlink:href="#DejaVuSans-2d" transform="translate(254.492188 0)"/>
       <use xlink:href="#DejaVuSans-30" transform="translate(290.576172 0)"/>
       <use xlink:href="#DejaVuSans-32" transform="translate(354.199219 0)"/>
      </g>
     </g>
    </g>
    <g id="xtick_3">
     <g id="line2d_3">
      <g>
       <use xlink:href="#m507d7a3c2d" x="155.968925" y="229.441152" style="stroke: #000000; stroke-width: 0.8"/>
      </g>
     </g>
     <g id="text_3">
      <!-- 2000-03 -->
      <g transform="translate(135.077519 244.03959) scale(0.1 -0.1)">
       <defs>
        <path id="DejaVuSans-33" d="M 2597 2516 
Q 3050 2419 3304 2112 
Q 3559 1806 3559 1356 
Q 3559 666 3084 287 
Q 2609 -91 1734 -91 
Q 1441 -91 1130 -33 
Q 819 25 488 141 
L 488 750 
Q 750 597 1062 519 
Q 1375 441 1716 441 
Q 2309 441 2620 675 
Q 2931 909 2931 1356 
Q 2931 1769 2642 2001 
Q 2353 2234 1838 2234 
L 1294 2234 
L 1294 2753 
L 1863 2753 
Q 2328 2753 2575 2939 
Q 2822 3125 2822 3475 
Q 2822 3834 2567 4026 
Q 2313 4219 1838 4219 
Q 1578 4219 1281 4162 
Q 984 4106 628 3988 
L 628 4550 
Q 988 4650 1302 4700 
Q 1616 4750 1894 4750 
Q 2613 4750 3031 4423 
Q 3450 4097 3450 3541 
Q 3450 3153 3228 2886 
Q 3006 2619 2597 2516 
z
" transform="scale(0.015625)"/>
       </defs>
       <use xlink:href="#DejaVuSans-32"/>
       <use xlink:href="#DejaVuSans-30" transform="translate(63.623047 0)"/>
       <use xlink:href="#DejaVuSans-30" transform="translate(127.246094 0)"/>
       <use xlink:href="#DejaVuSans-30" transform="translate(190.869141 0)"/>
       <use xlink:href="#DejaVuSans-2d" transform="translate(254.492188 0)"/>
       <use xlink:href="#DejaVuSans-30" transform="translate(290.576172 0)"/>
       <use xlink:href="#DejaVuSans-33" transform="translate(354.199219 0)"/>
      </g>
     </g>
    </g>
    <g id="xtick_4">
     <g id="line2d_4">
      <g>
       <use xlink:href="#m507d7a3c2d" x="203.382356" y="229.441152" style="stroke: #000000; stroke-width: 0.8"/>
      </g>
     </g>
     <g id="text_4">
      <!-- 2000-04 -->
      <g transform="translate(182.490949 244.03959) scale(0.1 -0.1)">
       <defs>
        <path id="DejaVuSans-34" d="M 2419 4116 
L 825 1625 
L 2419 1625 
L 2419 4116 
z
M 2253 4666 
L 3047 4666 
L 3047 1625 
L 3713 1625 
L 3713 1100 
L 3047 1100 
L 3047 0 
L 2419 0 
L 2419 1100 
L 313 1100 
L 313 1709 
L 2253 4666 
z
" transform="scale(0.015625)"/>
       </defs>
       <use xlink:href="#DejaVuSans-32"/>
       <use xlink:href="#DejaVuSans-30" transform="translate(63.623047 0)"/>
       <use xlink:href="#DejaVuSans-30" transform="translate(127.246094 0)"/>
       <use xlink:href="#DejaVuSans-30" transform="translate(190.869141 0)"/>
       <use xlink:href="#DejaVuSans-2d" transform="translate(254.492188 0)"/>
       <use xlink:href="#DejaVuSans-30" transform="translate(290.576172 0)"/>
       <use xlink:href="#DejaVuSans-34" transform="translate(354.199219 0)"/>
      </g>
     </g>
    </g>
    <g id="xtick_5">
     <g id="line2d_5">
      <g>
       <use xlink:href="#m507d7a3c2d" x="249.266321" y="229.441152" style="stroke: #000000; stroke-width: 0.8"/>
      </g>
     </g>
     <g id="text_5">
      <!-- 2000-05 -->
      <g transform="translate(228.374915 244.03959) scale(0.1 -0.1)">
       <defs>
        <path id="DejaVuSans-35" d="M 691 4666 
L 3169 4666 
L 3169 4134 
L 1269 4134 
L 1269 2991 
Q 1406 3038 1543 3061 
Q 1681 3084 1819 3084 
Q 2600 3084 3056 2656 
Q 3513 2228 3513 1497 
Q 3513 744 3044 326 
Q 2575 -91 1722 -91 
Q 1428 -91 1123 -41 
Q 819 9 494 109 
L 494 744 
Q 775 591 1075 516 
Q 1375 441 1709 441 
Q 2250 441 2565 725 
Q 2881 1009 2881 1497 
Q 2881 1984 2565 2268 
Q 2250 2553 1709 2553 
Q 1456 2553 1204 2497 
Q 953 2441 691 2322 
L 691 4666 
z
" transform="scale(0.015625)"/>
       </defs>
       <use xlink:href="#DejaVuSans-32"/>
       <use xlink:href="#DejaVuSans-30" transform="translate(63.623047 0)"/>
       <use xlink:href="#DejaVuSans-30" transform="translate(127.246094 0)"/>
       <use xlink:href="#DejaVuSans-30" transform="translate(190.869141 0)"/>
       <use xlink:href="#DejaVuSans-2d" transform="translate(254.492188 0)"/>
       <use xlink:href="#DejaVuSans-30" transform="translate(290.576172 0)"/>
       <use xlink:href="#DejaVuSans-35" transform="translate(354.199219 0)"/>
      </g>
     </g>
    </g>
    <g id="xtick_6">
     <g id="line2d_6">
      <g>
       <use xlink:href="#m507d7a3c2d" x="296.679752" y="229.441152" style="stroke: #000000; stroke-width: 0.8"/>
      </g>
     </g>
     <g id="text_6">
      <!-- 2000-06 -->
      <g transform="translate(275.788345 244.03959) scale(0.1 -0.1)">
       <defs>
        <path id="DejaVuSans-36" d="M 2113 2584 
Q 1688 2584 1439 2293 
Q 1191 2003 1191 1497 
Q 1191 994 1439 701 
Q 1688 409 2113 409 
Q 2538 409 2786 701 
Q 3034 994 3034 1497 
Q 3034 2003 2786 2293 
Q 2538 2584 2113 2584 
z
M 3366 4563 
L 3366 3988 
Q 3128 4100 2886 4159 
Q 2644 4219 2406 4219 
Q 1781 4219 1451 3797 
Q 1122 3375 1075 2522 
Q 1259 2794 1537 2939 
Q 1816 3084 2150 3084 
Q 2853 3084 3261 2657 
Q 3669 2231 3669 1497 
Q 3669 778 3244 343 
Q 2819 -91 2113 -91 
Q 1303 -91 875 529 
Q 447 1150 447 2328 
Q 447 3434 972 4092 
Q 1497 4750 2381 4750 
Q 2619 4750 2861 4703 
Q 3103 4656 3366 4563 
z
" transform="scale(0.015625)"/>
       </defs>
       <use xlink:href="#DejaVuSans-32"/>
       <use xlink:href="#DejaVuSans-30" transform="translate(63.623047 0)"/>
       <use xlink:href="#DejaVuSans-30" transform="translate(127.246094 0)"/>
       <use xlink:href="#DejaVuSans-30" transform="translate(190.869141 0)"/>
       <use xlink:href="#DejaVuSans-2d" transform="translate(254.492188 0)"/>
       <use xlink:href="#DejaVuSans-30" transform="translate(290.576172 0)"/>
       <use xlink:href="#DejaVuSans-36" transform="translate(354.199219 0)"/>
      </g>
     </g>
    </g>
    <g id="xtick_7">
     <g id="line2d_7">
      <g>
       <use xlink:href="#m507d7a3c2d" x="342.563717" y="229.441152" style="stroke: #000000; stroke-width: 0.8"/>
      </g>
     </g>
     <g id="text_7">
      <!-- 2000-07 -->
      <g transform="translate(321.672311 244.03959) scale(0.1 -0.1)">
       <defs>
        <path id="DejaVuSans-37" d="M 525 4666 
L 3525 4666 
L 3525 4397 
L 1831 0 
L 1172 0 
L 2766 4134 
L 525 4134 
L 525 4666 
z
" transform="scale(0.015625)"/>
       </defs>
       <use xlink:href="#DejaVuSans-32"/>
       <use xlink:href="#DejaVuSans-30" transform="translate(63.623047 0)"/>
       <use xlink:href="#DejaVuSans-30" transform="translate(127.246094 0)"/>
       <use xlink:href="#DejaVuSans-30" transform="translate(190.869141 0)"/>
       <use xlink:href="#DejaVuSans-2d" transform="translate(254.492188 0)"/>
       <use xlink:href="#DejaVuSans-30" transform="translate(290.576172 0)"/>
       <use xlink:href="#DejaVuSans-37" transform="translate(354.199219 0)"/>
      </g>
     </g>
    </g>
    <g id="text_8">
     <!-- row [datetime] -->
     <g transform="translate(179.229688 257.717715) scale(0.1 -0.1)">
      <defs>
       <path id="DejaVuSans-72" d="M 2631 2963 
Q 2534 3019 2420 3045 
Q 2306 3072 2169 3072 
Q 1681 3072 1420 2755 
Q 1159 2438 1159 1844 
L 1159 0 
L 581 0 
L 581 3500 
L 1159 3500 
L 1159 2956 
Q 1341 3275 1631 3429 
Q 1922 3584 2338 3584 
Q 2397 3584 2469 3576 
Q 2541 3569 2628 3553 
L 2631 2963 
z
" transform="scale(0.015625)"/>
       <path id="DejaVuSans-6f" d="M 1959 3097 
Q 1497 3097 1228 2736 
Q 959 2375 959 1747 
Q 959 1119 1226 758 
Q 1494 397 1959 397 
Q 2419 397 2687 759 
Q 2956 1122 2956 1747 
Q 2956 2369 2687 2733 
Q 2419 3097 1959 3097 
z
M 1959 3584 
Q 2709 3584 3137 3096 
Q 3566 2609 3566 1747 
Q 3566 888 3137 398 
Q 2709 -91 1959 -91 
Q 1206 -91 779 398 
Q 353 888 353 1747 
Q 353 2609 779 3096 
Q 1206 3584 1959 3584 
z
" transform="scale(0.015625)"/>
       <path id="DejaVuSans-77" d="M 269 3500 
L 844 3500 
L 1563 769 
L 2278 3500 
L 2956 3500 
L 3675 769 
L 4391 3500 
L 4966 3500 
L 4050 0 
L 3372 0 
L 2619 2869 
L 1863 0 
L 1184 0 
L 269 3500 
z
" transform="scale(0.015625)"/>
       <path id="DejaVuSans-20" transform="scale(0.015625)"/>
       <path id="DejaVuSans-5b" d="M 550 4863 
L 1875 4863 
L 1875 4416 
L 1125 4416 
L 1125 -397 
L 1875 -397 
L 1875 -844 
L 550 -844 
L 550 4863 
z
" transform="scale(0.015625)"/>
       <path id="DejaVuSans-64" d="M 2906 2969 
L 2906 4863 
L 3481 4863 
L 3481 0 
L 2906 0 
L 2906 525 
Q 2725 213 2448 61 
Q 2172 -91 1784 -91 
Q 1150 -91 751 415 
Q 353 922 353 1747 
Q 353 2572 751 3078 
Q 1150 3584 1784 3584 
Q 2172 3584 2448 3432 
Q 2725 3281 2906 2969 
z
M 947 1747 
Q 947 1113 1208 752 
Q 1469 391 1925 391 
Q 2381 391 2643 752 
Q 2906 1113 2906 1747 
Q 2906 2381 2643 2742 
Q 2381 3103 1925 3103 
Q 1469 3103 1208 2742 
Q 947 2381 947 1747 
z
" transform="scale(0.015625)"/>
       <path id="DejaVuSans-61" d="M 2194 1759 
Q 1497 1759 1228 1600 
Q 959 1441 959 1056 
Q 959 750 1161 570 
Q 1363 391 1709 391 
Q 2188 391 2477 730 
Q 2766 1069 2766 1631 
L 2766 1759 
L 2194 1759 
z
M 3341 1997 
L 3341 0 
L 2766 0 
L 2766 531 
Q 2569 213 2275 61 
Q 1981 -91 1556 -91 
Q 1019 -91 701 211 
Q 384 513 384 1019 
Q 384 1609 779 1909 
Q 1175 2209 1959 2209 
L 2766 2209 
L 2766 2266 
Q 2766 2663 2505 2880 
Q 2244 3097 1772 3097 
Q 1472 3097 1187 3025 
Q 903 2953 641 2809 
L 641 3341 
Q 956 3463 1253 3523 
Q 1550 3584 1831 3584 
Q 2591 3584 2966 3190 
Q 3341 2797 3341 1997 
z
" transform="scale(0.015625)"/>
       <path id="DejaVuSans-74" d="M 1172 4494 
L 1172 3500 
L 2356 3500 
L 2356 3053 
L 1172 3053 
L 1172 1153 
Q 1172 725 1289 603 
Q 1406 481 1766 481 
L 2356 481 
L 2356 0 
L 1766 0 
Q 1100 0 847 248 
Q 594 497 594 1153 
L 594 3053 
L 172 3053 
L 172 3500 
L 594 3500 
L 594 4494 
L 1172 4494 
z
" transform="scale(0.015625)"/>
       <path id="DejaVuSans-65" d="M 3597 1894 
L 3597 1613 
L 953 1613 
Q 991 1019 1311 708 
Q 1631 397 2203 397 
Q 2534 397 2845 478 
Q 3156 559 3463 722 
L 3463 178 
Q 3153 47 2828 -22 
Q 2503 -91 2169 -91 
Q 1331 -91 842 396 
Q 353 884 353 1716 
Q 353 2575 817 3079 
Q 1281 3584 2069 3584 
Q 2775 3584 3186 3129 
Q 3597 2675 3597 1894 
z
M 3022 2063 
Q 3016 2534 2758 2815 
Q 2500 3097 2075 3097 
Q 1594 3097 1305 2825 
Q 1016 2553 972 2059 
L 3022 2063 
z
" transform="scale(0.015625)"/>
       <path id="DejaVuSans-69" d="M 603 3500 
L 1178 3500 
L 1178 0 
L 603 0 
L 603 3500 
z
M 603 4863 
L 1178 4863 
L 1178 4134 
L 603 4134 
L 603 4863 
z
" transform="scale(0.015625)"/>
       <path id="DejaVuSans-6d" d="M 3328 2828 
Q 3544 3216 3844 3400 
Q 4144 3584 4550 3584 
Q 5097 3584 5394 3201 
Q 5691 2819 5691 2113 
L 5691 0 
L 5113 0 
L 5113 2094 
Q 5113 2597 4934 2840 
Q 4756 3084 4391 3084 
Q 3944 3084 3684 2787 
Q 3425 2491 3425 1978 
L 3425 0 
L 2847 0 
L 2847 2094 
Q 2847 2600 2669 2842 
Q 2491 3084 2119 3084 
Q 1678 3084 1418 2786 
Q 1159 2488 1159 1978 
L 1159 0 
L 581 0 
L 581 3500 
L 1159 3500 
L 1159 2956 
Q 1356 3278 1631 3431 
Q 1906 3584 2284 3584 
Q 2666 3584 2933 3390 
Q 3200 3197 3328 2828 
z
" transform="scale(0.015625)"/>
       <path id="DejaVuSans-5d" d="M 1947 4863 
L 1947 -844 
L 622 -844 
L 622 -397 
L 1369 -397 
L 1369 4416 
L 622 4416 
L 622 4863 
L 1947 4863 
z
" transform="scale(0.015625)"/>
      </defs>
      <use xlink:href="#DejaVuSans-72"/>
      <use xlink:href="#DejaVuSans-6f" transform="translate(38.863281 0)"/>
      <use xlink:href="#DejaVuSans-77" transform="translate(100.044922 0)"/>
      <use xlink:href="#DejaVuSans-20" transform="translate(181.832031 0)"/>
      <use xlink:href="#DejaVuSans-5b" transform="translate(213.619141 0)"/>
      <use xlink:href="#DejaVuSans-64" transform="translate(252.632812 0)"/>
      <use xlink:href="#DejaVuSans-61" transform="translate(316.109375 0)"/>
      <use xlink:href="#DejaVuSans-74" transform="translate(377.388672 0)"/>
      <use xlink:href="#DejaVuSans-65" transform="translate(416.597656 0)"/>
      <use xlink:href="#DejaVuSans-74" transform="translate(478.121094 0)"/>
      <use xlink:href="#DejaVuSans-69" transform="translate(517.330078 0)"/>
      <use xlink:href="#DejaVuSans-6d" transform="translate(545.113281 0)"/>
      <use xlink:href="#DejaVuSans-65" transform="translate(642.525391 0)"/>
      <use xlink:href="#DejaVuSans-5d" transform="translate(704.048828 0)"/>
     </g>
    </g>
   </g>
   <g id="matplotlib.axis_2">
    <g id="ytick_1">
     <g id="line2d_8">
      <defs>
       <path id="m78cd77d859" d="M 0 0 
L -3.5 0 
" style="stroke: #000000; stroke-width: 0.8"/>
      </defs>
      <g>
       <use xlink:href="#m78cd77d859" x="48.982813" y="208.465916" style="stroke: #000000; stroke-width: 0.8"/>
      </g>
     </g>
     <g id="text_9">
      <!-- −25 -->
      <g transform="translate(20.878125 212.265134) scale(0.1 -0.1)">
       <defs>
        <path id="DejaVuSans-2212" d="M 678 2272 
L 4684 2272 
L 4684 1741 
L 678 1741 
L 678 2272 
z
" transform="scale(0.015625)"/>
       </defs>
       <use xlink:href="#DejaVuSans-2212"/>
       <use xlink:href="#DejaVuSans-32" transform="translate(83.789062 0)"/>
       <use xlink:href="#DejaVuSans-35" transform="translate(147.412109 0)"/>
      </g>
     </g>
    </g>
    <g id="ytick_2">
     <g id="line2d_9">
      <g>
       <use xlink:href="#m78cd77d859" x="48.982813" y="180.256388" style="stroke: #000000; stroke-width: 0.8"/>
      </g>
     </g>
     <g id="text_10">
      <!-- −20 -->
      <g transform="translate(20.878125 184.055606) scale(0.1 -0.1)">
       <use xlink:href="#DejaVuSans-2212"/>
       <use xlink:href="#DejaVuSans-32" transform="translate(83.789062 0)"/>
       <use xlink:href="#DejaVuSans-30" transform="translate(147.412109 0)"/>
      </g>
     </g>
    </g>
    <g id="ytick_3">
     <g id="line2d_10">
      <g>
       <use xlink:href="#m78cd77d859" x="48.982813" y="152.046859" style="stroke: #000000; stroke-width: 0.8"/>
      </g>
     </g>
     <g id="text_11">
      <!-- −15 -->
      <g transform="translate(20.878125 155.846078) scale(0.1 -0.1)">
       <use xlink:href="#DejaVuSans-2212"/>
       <use xlink:href="#DejaVuSans-31" transform="translate(83.789062 0)"/>
       <use xlink:href="#DejaVuSans-35" transform="translate(147.412109 0)"/>
      </g>
     </g>
    </g>
    <g id="ytick_4">
     <g id="line2d_11">
      <g>
       <use xlink:href="#m78cd77d859" x="48.982813" y="123.837331" style="stroke: #000000; stroke-width: 0.8"/>
      </g>
     </g>
     <g id="text_12">
      <!-- −10 -->
      <g transform="translate(20.878125 127.63655) scale(0.1 -0.1)">
       <use xlink:href="#DejaVuSans-2212"/>
       <use xlink:href="#DejaVuSans-31" transform="translate(83.789062 0)"/>
       <use xlink:href="#DejaVuSans-30" transform="translate(147.412109 0)"/>
      </g>
     </g>
    </g>
    <g id="ytick_5">
     <g id="line2d_12">
      <g>
       <use xlink:href="#m78cd77d859" x="48.982813" y="95.627803" style="stroke: #000000; stroke-width: 0.8"/>
      </g>
     </g>
     <g id="text_13">
      <!-- −5 -->
      <g transform="translate(27.240625 99.427022) scale(0.1 -0.1)">
       <use xlink:href="#DejaVuSans-2212"/>
       <use xlink:href="#DejaVuSans-35" transform="translate(83.789062 0)"/>
      </g>
     </g>
    </g>
    <g id="ytick_6">
     <g id="line2d_13">
      <g>
       <use xlink:href="#m78cd77d859" x="48.982813" y="67.418275" style="stroke: #000000; stroke-width: 0.8"/>
      </g>
     </g>
     <g id="text_14">
      <!-- 0 -->
      <g transform="translate(35.620312 71.217494) scale(0.1 -0.1)">
       <use xlink:href="#DejaVuSans-30"/>
      </g>
     </g>
    </g>
    <g id="ytick_7">
     <g id="line2d_14">
      <g>
       <use xlink:href="#m78cd77d859" x="48.982813" y="39.208747" style="stroke: #000000; stroke-width: 0.8"/>
      </g>
     </g>
     <g id="text_15">
      <!-- 5 -->
      <g transform="translate(35.620312 43.007966) scale(0.1 -0.1)">
       <use xlink:href="#DejaVuSans-35"/>
      </g>
     </g>
    </g>
    <g id="ytick_8">
     <g id="line2d_15">
      <g>
       <use xlink:href="#m78cd77d859" x="48.982813" y="10.999219" style="stroke: #000000; stroke-width: 0.8"/>
      </g>
     </g>
     <g id="text_16">
      <!-- 10 -->
      <g transform="translate(29.257812 14.798437) scale(0.1 -0.1)">
       <use xlink:href="#DejaVuSans-31"/>
       <use xlink:href="#DejaVuSans-30" transform="translate(63.623047 0)"/>
      </g>
     </g>
    </g>
    <g id="text_17">
     <!-- [dimensionless] -->
     <g transform="translate(14.798437 158.038496) rotate(-90) scale(0.1 -0.1)">
      <defs>
       <path id="DejaVuSans-6e" d="M 3513 2113 
L 3513 0 
L 2938 0 
L 2938 2094 
Q 2938 2591 2744 2837 
Q 2550 3084 2163 3084 
Q 1697 3084 1428 2787 
Q 1159 2491 1159 1978 
L 1159 0 
L 581 0 
L 581 3500 
L 1159 3500 
L 1159 2956 
Q 1366 3272 1645 3428 
Q 1925 3584 2291 3584 
Q 2894 3584 3203 3211 
Q 3513 2838 3513 2113 
z
" transform="scale(0.015625)"/>
       <path id="DejaVuSans-73" d="M 2834 3397 
L 2834 2853 
Q 2591 2978 2328 3040 
Q 2066 3103 1784 3103 
Q 1356 3103 1142 2972 
Q 928 2841 928 2578 
Q 928 2378 1081 2264 
Q 1234 2150 1697 2047 
L 1894 2003 
Q 2506 1872 2764 1633 
Q 3022 1394 3022 966 
Q 3022 478 2636 193 
Q 2250 -91 1575 -91 
Q 1294 -91 989 -36 
Q 684 19 347 128 
L 347 722 
Q 666 556 975 473 
Q 1284 391 1588 391 
Q 1994 391 2212 530 
Q 2431 669 2431 922 
Q 2431 1156 2273 1281 
Q 2116 1406 1581 1522 
L 1381 1569 
Q 847 1681 609 1914 
Q 372 2147 372 2553 
Q 372 3047 722 3315 
Q 1072 3584 1716 3584 
Q 2034 3584 2315 3537 
Q 2597 3491 2834 3397 
z
" transform="scale(0.015625)"/>
       <path id="DejaVuSans-6c" d="M 603 4863 
L 1178 4863 
L 1178 0 
L 603 0 
L 603 4863 
z
" transform="scale(0.015625)"/>
      </defs>
      <use xlink:href="#DejaVuSans-5b"/>
      <use xlink:href="#DejaVuSans-64" transform="translate(39.013672 0)"/>
      <use xlink:href="#DejaVuSans-69" transform="translate(102.490234 0)"/>
      <use xlink:href="#DejaVuSans-6d" transform="translate(130.273438 0)"/>
      <use xlink:href="#DejaVuSans-65" transform="translate(227.685547 0)"/>
      <use xlink:href="#DejaVuSans-6e" transform="translate(289.208984 0)"/>
      <use xlink:href="#DejaVuSans-73" transform="translate(352.587891 0)"/>
      <use xlink:href="#DejaVuSans-69" transform="translate(404.6875 0)"/>
      <use xlink:href="#DejaVuSans-6f" transform="translate(432.470703 0)"/>
      <use xlink:href="#DejaVuSans-6e" transform="translate(493.652344 0)"/>
      <use xlink:href="#DejaVuSans-6c" transform="translate(557.03125 0)"/>
      <use xlink:href="#DejaVuSans-65" transform="translate(584.814453 0)"/>
      <use xlink:href="#DejaVuSans-73" transform="translate(646.337891 0)"/>
      <use xlink:href="#DejaVuSans-73" transform="translate(698.4375 0)"/>
      <use xlink:href="#DejaVuSans-5d" transform="translate(750.537109 0)"/>
     </g>
    </g>
   </g>
   <g id="line2d_16">
    <path d="M 64.200994 72.6428 
L 65.73046 74.306463 
L 67.259925 73.177958 
L 68.789391 72.286245 
L 70.318856 80.158749 
L 71.848322 76.814193 
L 73.377787 77.237302 
L 74.907253 73.639601 
L 76.436718 74.117845 
L 79.495649 79.440865 
L 81.025115 81.46495 
L 82.55458 90.883723 
L 84.084046 84.041742 
L 85.613511 72.908404 
L 87.142977 77.225217 
L 88.672442 73.724914 
L 90.201908 69.144242 
L 91.731373 59.784726 
L 93.260839 60.607148 
L 94.790305 66.13002 
L 96.31977 67.910445 
L 97.849236 65.633511 
L 99.378701 59.432808 
L 100.908167 62.994374 
L 102.437632 61.448588 
L 103.967098 69.038793 
L 105.496563 72.741529 
L 107.026029 83.800652 
L 108.555494 95.675976 
L 110.08496 98.372267 
L 111.614425 89.657555 
L 113.143891 103.715016 
L 114.673356 97.912703 
L 116.202822 96.415033 
L 117.732287 85.394882 
L 119.261753 92.282617 
L 120.791218 103.302428 
L 122.320684 96.677295 
L 123.850149 93.666397 
L 125.379615 93.013704 
L 126.90908 75.719202 
L 128.438546 71.577506 
L 129.968011 69.787425 
L 131.497477 67.648535 
L 133.026942 75.285866 
L 134.556408 69.09587 
L 136.085873 66.172451 
L 137.615339 66.671987 
L 139.144804 73.806723 
L 140.67427 80.03938 
L 142.203735 74.466639 
L 143.733201 64.699267 
L 145.262666 58.575121 
L 146.792132 56.124466 
L 148.321597 67.61085 
L 149.851063 59.414677 
L 151.380528 64.383013 
L 152.909994 64.179815 
L 154.439459 55.929676 
L 155.968925 61.451384 
L 157.49839 56.496575 
L 159.027856 50.18267 
L 160.557321 48.679602 
L 162.086787 44.214383 
L 165.145718 44.492878 
L 168.204649 58.69612 
L 169.734114 58.6012 
L 171.26358 68.378694 
L 172.793045 65.23447 
L 174.322511 64.634509 
L 175.851977 63.274744 
L 177.381442 64.632684 
L 178.910908 69.793018 
L 180.440373 65.925335 
L 181.969839 67.770555 
L 183.499304 62.867394 
L 185.02877 66.28707 
L 186.558235 63.398941 
L 188.087701 63.001357 
L 191.146632 48.913117 
L 192.676097 44.668451 
L 194.205563 35.008649 
L 195.735028 33.285077 
L 197.264494 42.728213 
L 198.793959 44.841007 
L 200.323425 36.943016 
L 201.85289 41.079628 
L 203.382356 39.969896 
L 204.911821 40.441272 
L 206.441287 33.382417 
L 209.500218 27.471296 
L 211.029683 34.107614 
L 212.559149 41.994375 
L 214.088614 36.899251 
L 215.61808 28.152454 
L 217.147545 31.713373 
L 218.677011 34.055739 
L 220.206476 41.699385 
L 221.735942 48.308715 
L 223.265407 52.356597 
L 224.794873 46.216886 
L 226.324338 43.69747 
L 227.853804 45.298525 
L 229.383269 42.525143 
L 230.912735 38.429963 
L 232.4422 42.690029 
L 233.971666 43.118005 
L 235.501131 36.809756 
L 237.030597 39.368906 
L 238.560062 45.46372 
L 240.089528 45.134109 
L 241.618993 50.345874 
L 243.148459 47.928901 
L 244.677924 44.308707 
L 246.20739 35.937315 
L 247.736855 29.140297 
L 249.266321 25.013375 
L 250.795786 20.288324 
L 252.325252 29.655129 
L 253.854717 25.211459 
L 255.384183 21.563162 
L 256.913648 25.974876 
L 258.443114 12.904528 
L 259.97258 19.699586 
L 261.502045 27.426286 
L 263.031511 37.897487 
L 264.560976 36.562289 
L 266.090442 31.609161 
L 267.619907 23.7102 
L 269.149373 19.651254 
L 270.678838 29.837625 
L 272.208304 29.27979 
L 273.737769 25.733326 
L 275.267235 25.885657 
L 276.7967 28.118685 
L 278.326166 34.506644 
L 279.855631 42.53522 
L 281.385097 39.295346 
L 282.914562 41.666819 
L 284.444028 41.904478 
L 285.973493 45.35484 
L 287.502959 42.095013 
L 289.032424 30.601333 
L 290.56189 25.76478 
L 292.091355 29.03768 
L 293.620821 31.315267 
L 295.150286 37.254062 
L 296.679752 35.405637 
L 298.209217 41.385062 
L 299.738683 42.238371 
L 301.268148 41.679887 
L 302.797614 40.612768 
L 304.327079 26.411668 
L 305.856545 33.753504 
L 307.38601 31.789566 
L 308.915476 40.211154 
L 310.444941 43.489501 
L 311.974407 49.241835 
L 313.503872 42.570543 
L 315.033338 46.81603 
L 316.562803 39.180438 
L 318.092269 38.891811 
L 319.621734 33.240005 
L 321.1512 45.251837 
L 322.680665 39.343449 
L 324.210131 42.940389 
L 325.739596 43.667248 
L 327.269062 46.659682 
L 328.798527 47.848399 
L 330.327993 53.864534 
L 331.857458 54.317641 
L 333.386924 60.803388 
L 334.916389 61.870116 
L 336.445855 61.270688 
L 337.97532 55.118083 
L 339.504786 56.903968 
L 341.034252 59.300271 
L 342.563717 67.721662 
L 344.093183 78.914897 
L 345.622648 78.441312 
L 347.152114 77.17475 
L 348.681579 75.154284 
L 350.211045 75.16844 
L 351.74051 70.85106 
L 353.269976 79.395139 
L 354.799441 77.74998 
L 356.328907 83.160135 
L 357.858372 80.617535 
L 360.917303 90.586778 
L 362.446769 103.472406 
L 363.976234 110.636872 
L 365.5057 114.099991 
L 367.035165 111.91174 
L 368.564631 117.372038 
L 368.564631 117.372038 
" clip-path="url(#p12e7a5c489)" style="fill: none; stroke: #1f77b4; stroke-width: 1.5; stroke-linecap: square"/>
   </g>
   <g id="line2d_17">
    <path d="M 64.200994 73.350792 
L 65.73046 82.761364 
L 67.259925 82.651891 
L 68.789391 84.0191 
L 70.318856 85.218656 
L 71.848322 89.00679 
L 73.377787 98.56473 
L 74.907253 109.210652 
L 76.436718 104.401361 
L 77.966184 105.676486 
L 79.495649 107.710901 
L 81.025115 101.767308 
L 82.55458 105.167516 
L 84.084046 104.08869 
L 85.613511 118.319099 
L 87.142977 105.801464 
L 88.672442 104.04466 
L 90.201908 110.841738 
L 91.731373 109.7577 
L 93.260839 109.584878 
L 96.31977 105.483995 
L 97.849236 110.255001 
L 99.378701 108.692104 
L 100.908167 105.193223 
L 102.437632 103.793907 
L 103.967098 97.406542 
L 107.026029 91.753548 
L 108.555494 99.848982 
L 110.08496 104.410939 
L 111.614425 116.695953 
L 113.143891 117.969049 
L 114.673356 120.184953 
L 116.202822 133.347225 
L 117.732287 135.317544 
L 119.261753 136.593182 
L 120.791218 142.825453 
L 122.320684 142.888961 
L 123.850149 140.700576 
L 125.379615 147.052179 
L 126.90908 141.969799 
L 128.438546 150.712144 
L 129.968011 150.968326 
L 131.497477 146.40015 
L 133.026942 147.067415 
L 134.556408 144.07107 
L 136.085873 146.460844 
L 137.615339 146.353122 
L 139.144804 156.787706 
L 140.67427 152.395822 
L 142.203735 150.214994 
L 143.733201 159.261579 
L 145.262666 164.683921 
L 146.792132 162.09847 
L 148.321597 159.291189 
L 149.851063 147.638539 
L 151.380528 151.551824 
L 152.909994 142.541439 
L 154.439459 141.364294 
L 155.968925 141.629668 
L 157.49839 147.461569 
L 159.027856 151.422842 
L 160.557321 149.029996 
L 162.086787 149.985886 
L 163.616252 147.802763 
L 165.145718 144.876659 
L 166.675183 149.807511 
L 168.204649 145.961465 
L 169.734114 142.669903 
L 171.26358 144.295735 
L 172.793045 147.821568 
L 174.322511 145.249603 
L 175.851977 143.86154 
L 177.381442 149.203019 
L 178.910908 146.902905 
L 180.440373 155.780434 
L 181.969839 156.674127 
L 183.499304 164.017953 
L 185.02877 155.173871 
L 186.558235 155.131354 
L 188.087701 161.102902 
L 189.617166 158.447194 
L 191.146632 159.36089 
L 192.676097 165.461319 
L 194.205563 163.981691 
L 195.735028 171.718339 
L 197.264494 178.253515 
L 198.793959 182.313687 
L 200.323425 172.795865 
L 201.85289 166.221753 
L 203.382356 163.460925 
L 204.911821 166.734799 
L 206.441287 160.623316 
L 207.970752 158.853143 
L 209.500218 148.221041 
L 211.029683 151.925466 
L 212.559149 152.81643 
L 214.088614 155.47626 
L 215.61808 159.3809 
L 218.677011 147.21384 
L 220.206476 148.138703 
L 221.735942 149.425056 
L 223.265407 137.482088 
L 224.794873 139.829815 
L 226.324338 141.781335 
L 227.853804 138.555359 
L 229.383269 134.085336 
L 230.912735 134.002394 
L 232.4422 138.055888 
L 233.971666 146.132973 
L 235.501131 152.644804 
L 237.030597 151.069135 
L 238.560062 146.287328 
L 240.089528 151.250035 
L 241.618993 150.438841 
L 243.148459 151.143453 
L 244.677924 137.003312 
L 246.20739 134.182634 
L 247.736855 133.374255 
L 250.795786 151.085893 
L 252.325252 146.001228 
L 253.854717 148.257131 
L 255.384183 151.288982 
L 256.913648 157.393567 
L 258.443114 165.426371 
L 259.97258 151.857439 
L 263.031511 159.080944 
L 264.560976 141.625397 
L 266.090442 142.062883 
L 267.619907 136.777876 
L 269.149373 141.024878 
L 270.678838 136.692896 
L 272.208304 143.133021 
L 273.737769 136.961167 
L 275.267235 134.691783 
L 276.7967 126.308172 
L 278.326166 130.746562 
L 279.855631 127.382626 
L 281.385097 128.747286 
L 282.914562 138.902206 
L 284.444028 134.4795 
L 285.973493 133.299323 
L 287.502959 129.627021 
L 289.032424 127.373544 
L 290.56189 127.209199 
L 292.091355 126.517275 
L 293.620821 127.449949 
L 295.150286 127.880924 
L 296.679752 120.442707 
L 298.209217 118.770595 
L 299.738683 125.182689 
L 301.268148 124.740286 
L 302.797614 125.095917 
L 304.327079 124.433548 
L 305.856545 124.033953 
L 307.38601 118.780994 
L 308.915476 123.451701 
L 310.444941 121.849036 
L 311.974407 126.786745 
L 313.503872 145.99099 
L 315.033338 150.850382 
L 316.562803 158.361115 
L 318.092269 152.576949 
L 319.621734 153.592068 
L 321.1512 157.855591 
L 322.680665 164.021855 
L 324.210131 163.626934 
L 325.739596 173.118155 
L 327.269062 170.390898 
L 328.798527 165.363054 
L 330.327993 172.200044 
L 331.857458 185.177271 
L 333.386924 175.266635 
L 334.916389 187.653291 
L 336.445855 190.592346 
L 337.97532 185.926213 
L 341.034252 190.968557 
L 342.563717 196.665755 
L 344.093183 199.897564 
L 345.622648 201.96486 
L 347.152114 199.323676 
L 348.681579 204.442554 
L 350.211045 200.369744 
L 351.74051 189.054628 
L 353.269976 194.2689 
L 354.799441 184.221635 
L 356.328907 189.266388 
L 357.858372 193.212984 
L 359.387838 193.046623 
L 360.917303 201.54331 
L 362.446769 203.662374 
L 363.976234 217.412182 
L 365.5057 215.964377 
L 367.035165 214.781859 
L 368.564631 222.008278 
L 368.564631 222.008278 
" clip-path="url(#p12e7a5c489)" style="fill: none; stroke: #ff7f0e; stroke-width: 1.5; stroke-linecap: square"/>
   </g>
   <g id="line2d_18">
    <path d="M 64.200994 63.256193 
L 65.73046 62.721738 
L 67.259925 56.692621 
L 68.789391 62.346021 
L 70.318856 61.597328 
L 71.848322 63.080485 
L 73.377787 58.335969 
L 74.907253 57.350595 
L 76.436718 54.256257 
L 77.966184 67.749754 
L 79.495649 60.877088 
L 81.025115 56.246783 
L 82.55458 58.610733 
L 84.084046 56.751504 
L 85.613511 52.788218 
L 87.142977 45.191544 
L 88.672442 36.929199 
L 90.201908 34.960478 
L 91.731373 43.085948 
L 93.260839 46.563151 
L 94.790305 42.556409 
L 96.31977 39.982771 
L 97.849236 39.65747 
L 99.378701 41.427253 
L 100.908167 45.822176 
L 102.437632 60.173228 
L 103.967098 65.272472 
L 105.496563 61.670091 
L 107.026029 54.815878 
L 108.555494 60.288307 
L 110.08496 55.4455 
L 111.614425 64.216828 
L 113.143891 57.282696 
L 114.673356 62.325068 
L 116.202822 54.40095 
L 117.732287 49.276181 
L 119.261753 45.816226 
L 120.791218 43.753329 
L 122.320684 42.760876 
L 123.850149 33.902825 
L 125.379615 37.733756 
L 126.90908 43.398357 
L 128.438546 43.409376 
L 129.968011 33.584502 
L 131.497477 36.471838 
L 133.026942 34.3835 
L 134.556408 28.032236 
L 136.085873 31.235502 
L 137.615339 28.242919 
L 139.144804 24.17384 
L 140.67427 22.282463 
L 142.203735 24.223763 
L 143.733201 19.481256 
L 145.262666 19.044366 
L 146.792132 25.410146 
L 148.321597 36.312796 
L 149.851063 33.03633 
L 151.380528 31.305214 
L 152.909994 36.481171 
L 154.439459 28.664302 
L 155.968925 32.278382 
L 157.49839 34.022622 
L 159.027856 34.229913 
L 160.557321 43.758788 
L 162.086787 47.433077 
L 163.616252 49.312857 
L 165.145718 52.672878 
L 166.675183 57.443268 
L 168.204649 51.823023 
L 169.734114 54.653704 
L 171.26358 58.061945 
L 172.793045 54.694645 
L 174.322511 54.757442 
L 175.851977 54.419714 
L 177.381442 52.548003 
L 178.910908 49.017089 
L 180.440373 42.829632 
L 181.969839 44.448724 
L 183.499304 47.308188 
L 185.02877 43.118999 
L 186.558235 46.491885 
L 188.087701 46.204805 
L 189.617166 61.667746 
L 191.146632 61.169214 
L 192.676097 60.054306 
L 194.205563 53.382059 
L 195.735028 55.156532 
L 197.264494 59.612187 
L 198.793959 65.705152 
L 200.323425 68.342142 
L 201.85289 68.622623 
L 203.382356 73.083992 
L 204.911821 72.134011 
L 206.441287 75.673821 
L 207.970752 73.761797 
L 209.500218 75.007866 
L 211.029683 85.67523 
L 212.559149 82.671622 
L 214.088614 86.427423 
L 215.61808 79.659766 
L 217.147545 74.538159 
L 218.677011 76.574847 
L 220.206476 65.292053 
L 221.735942 64.282069 
L 223.265407 72.285473 
L 224.794873 74.90299 
L 226.324338 81.926374 
L 227.853804 85.119386 
L 229.383269 80.976455 
L 230.912735 76.205427 
L 232.4422 83.461571 
L 233.971666 87.43611 
L 235.501131 91.831263 
L 237.030597 88.213484 
L 238.560062 76.704733 
L 240.089528 80.110585 
L 241.618993 82.458006 
L 243.148459 81.416098 
L 244.677924 77.644955 
L 246.20739 74.580194 
L 247.736855 82.628745 
L 249.266321 82.808637 
L 250.795786 76.961314 
L 252.325252 65.899312 
L 253.854717 70.653125 
L 255.384183 61.62976 
L 256.913648 63.275228 
L 258.443114 70.010906 
L 259.97258 74.16837 
L 261.502045 79.266167 
L 263.031511 78.170294 
L 264.560976 74.560848 
L 266.090442 80.499876 
L 269.149373 81.134416 
L 270.678838 83.648158 
L 272.208304 77.517757 
L 273.737769 80.021707 
L 275.267235 83.413979 
L 276.7967 89.397322 
L 278.326166 82.943946 
L 279.855631 82.086763 
L 281.385097 76.805402 
L 282.914562 76.038484 
L 284.444028 74.438784 
L 285.973493 77.004834 
L 287.502959 77.00559 
L 289.032424 69.733259 
L 290.56189 70.718295 
L 292.091355 61.409337 
L 293.620821 67.629753 
L 295.150286 64.707622 
L 296.679752 66.44508 
L 298.209217 66.814173 
L 299.738683 60.187711 
L 301.268148 61.674644 
L 302.797614 58.900125 
L 304.327079 57.794817 
L 305.856545 62.901272 
L 307.38601 65.523098 
L 308.915476 64.58286 
L 310.444941 62.142416 
L 311.974407 64.243374 
L 313.503872 63.63628 
L 315.033338 70.825547 
L 316.562803 73.101875 
L 318.092269 72.403469 
L 319.621734 63.557281 
L 321.1512 65.606462 
L 322.680665 66.645187 
L 324.210131 69.320463 
L 325.739596 68.908175 
L 327.269062 65.097543 
L 328.798527 65.943175 
L 330.327993 54.095234 
L 331.857458 59.901859 
L 333.386924 67.132691 
L 334.916389 68.836315 
L 336.445855 72.031651 
L 337.97532 68.65781 
L 339.504786 75.137465 
L 341.034252 74.635626 
L 342.563717 78.030779 
L 344.093183 75.185505 
L 345.622648 69.229391 
L 347.152114 58.898867 
L 348.681579 58.776414 
L 350.211045 59.438984 
L 351.74051 56.828901 
L 353.269976 51.564862 
L 354.799441 49.585882 
L 356.328907 56.607973 
L 357.858372 52.259552 
L 359.387838 55.481726 
L 360.917303 48.542058 
L 362.446769 38.871932 
L 363.976234 49.610481 
L 365.5057 44.488596 
L 367.035165 55.801376 
L 368.564631 57.89568 
L 368.564631 57.89568 
" clip-path="url(#p12e7a5c489)" style="fill: none; stroke: #2ca02c; stroke-width: 1.5; stroke-linecap: square"/>
   </g>
   <g id="line2d_19">
    <path d="M 64.200994 77.325143 
L 65.73046 71.287151 
L 67.259925 80.868775 
L 68.789391 74.022619 
L 70.318856 81.240879 
L 71.848322 85.724659 
L 73.377787 85.81239 
L 74.907253 84.205437 
L 76.436718 79.172908 
L 77.966184 89.673212 
L 79.495649 86.552156 
L 81.025115 76.679314 
L 82.55458 69.666102 
L 84.084046 78.526412 
L 85.613511 83.173728 
L 87.142977 82.070772 
L 88.672442 92.087656 
L 90.201908 93.5083 
L 91.731373 89.794064 
L 93.260839 95.545322 
L 94.790305 92.227179 
L 96.31977 92.345043 
L 97.849236 88.225267 
L 99.378701 97.619116 
L 102.437632 106.701658 
L 103.967098 113.537908 
L 105.496563 116.911122 
L 107.026029 110.964345 
L 108.555494 109.405385 
L 110.08496 107.648442 
L 111.614425 112.517526 
L 113.143891 114.040668 
L 114.673356 118.879225 
L 116.202822 108.634919 
L 117.732287 106.667436 
L 119.261753 106.14151 
L 120.791218 108.234026 
L 122.320684 107.893067 
L 123.850149 112.460203 
L 125.379615 110.117258 
L 126.90908 110.117233 
L 128.438546 108.997478 
L 129.968011 111.29582 
L 131.497477 106.876653 
L 133.026942 118.400189 
L 134.556408 106.743041 
L 136.085873 105.852202 
L 137.615339 99.324381 
L 139.144804 103.229247 
L 140.67427 105.509223 
L 142.203735 108.691644 
L 143.733201 104.778409 
L 145.262666 114.339461 
L 146.792132 115.299399 
L 148.321597 115.822648 
L 149.851063 111.929474 
L 151.380528 116.49411 
L 152.909994 116.243299 
L 154.439459 124.993413 
L 155.968925 134.925203 
L 157.49839 134.942255 
L 159.027856 142.781487 
L 160.557321 136.80009 
L 162.086787 131.734762 
L 163.616252 139.524405 
L 165.145718 139.807071 
L 166.675183 134.036554 
L 168.204649 135.939095 
L 169.734114 138.249181 
L 171.26358 142.020301 
L 172.793045 138.844307 
L 174.322511 134.883041 
L 175.851977 129.581984 
L 177.381442 122.95157 
L 178.910908 121.98004 
L 180.440373 117.206185 
L 181.969839 123.665143 
L 183.499304 114.592459 
L 185.02877 115.930227 
L 186.558235 110.924931 
L 189.617166 119.747146 
L 191.146632 120.615004 
L 192.676097 120.635364 
L 194.205563 123.079366 
L 195.735028 125.25746 
L 197.264494 124.106714 
L 198.793959 126.515306 
L 200.323425 137.400851 
L 203.382356 152.738087 
L 204.911821 149.202394 
L 206.441287 151.621036 
L 207.970752 152.871881 
L 209.500218 151.732093 
L 211.029683 154.39778 
L 212.559149 155.970105 
L 214.088614 155.418633 
L 215.61808 155.238289 
L 217.147545 157.346391 
L 218.677011 145.554715 
L 220.206476 143.89663 
L 221.735942 146.217629 
L 223.265407 154.436499 
L 224.794873 163.723125 
L 226.324338 166.803999 
L 227.853804 163.420114 
L 229.383269 161.48489 
L 230.912735 172.241971 
L 232.4422 170.837201 
L 233.971666 171.136665 
L 235.501131 170.802244 
L 237.030597 177.187402 
L 238.560062 178.928068 
L 240.089528 180.346607 
L 241.618993 178.239656 
L 243.148459 179.448046 
L 244.677924 179.220874 
L 246.20739 182.911869 
L 247.736855 180.325743 
L 249.266321 180.581142 
L 250.795786 188.219967 
L 252.325252 182.928962 
L 253.854717 179.492575 
L 255.384183 182.034817 
L 256.913648 179.248815 
L 259.97258 169.347227 
L 261.502045 163.383305 
L 263.031511 156.509666 
L 264.560976 146.038386 
L 266.090442 148.291396 
L 267.619907 144.80043 
L 269.149373 145.39018 
L 270.678838 139.114067 
L 272.208304 135.973913 
L 273.737769 143.793695 
L 275.267235 141.899336 
L 276.7967 138.299498 
L 278.326166 144.223535 
L 279.855631 148.474681 
L 281.385097 153.360483 
L 282.914562 147.756468 
L 284.444028 149.236321 
L 285.973493 143.9194 
L 287.502959 142.28774 
L 289.032424 157.982082 
L 290.56189 158.302798 
L 292.091355 166.235943 
L 293.620821 160.455839 
L 295.150286 153.973886 
L 296.679752 146.093496 
L 298.209217 149.67569 
L 299.738683 142.01137 
L 301.268148 137.550487 
L 302.797614 142.428094 
L 304.327079 138.865872 
L 305.856545 143.946234 
L 307.38601 143.984692 
L 308.915476 148.155614 
L 310.444941 154.987516 
L 311.974407 144.536158 
L 315.033338 157.063881 
L 316.562803 153.543522 
L 318.092269 166.444319 
L 319.621734 159.76794 
L 321.1512 162.183092 
L 322.680665 160.324768 
L 324.210131 164.986289 
L 325.739596 160.919857 
L 327.269062 157.669028 
L 328.798527 157.680134 
L 330.327993 158.704995 
L 331.857458 157.194343 
L 333.386924 147.737294 
L 334.916389 141.81597 
L 336.445855 139.27437 
L 337.97532 135.842985 
L 339.504786 142.993041 
L 341.034252 139.425708 
L 342.563717 143.590166 
L 344.093183 147.119384 
L 345.622648 147.429999 
L 347.152114 153.174076 
L 348.681579 149.92313 
L 350.211045 157.066934 
L 351.74051 142.548565 
L 353.269976 142.722958 
L 354.799441 131.46893 
L 356.328907 122.845883 
L 357.858372 127.011286 
L 359.387838 124.310774 
L 362.446769 111.865299 
L 363.976234 119.773283 
L 365.5057 123.129277 
L 367.035165 126.859324 
L 368.564631 126.989932 
L 368.564631 126.989932 
" clip-path="url(#p12e7a5c489)" style="fill: none; stroke: #d62728; stroke-width: 1.5; stroke-linecap: square"/>
   </g>
   <g id="patch_3">
    <path d="M 48.982813 229.441152 
L 48.982813 7.681152 
" style="fill: none; stroke: #000000; stroke-width: 0.8; stroke-linejoin: miter; stroke-linecap: square"/>
   </g>
   <g id="patch_4">
    <path d="M 383.782813 229.441152 
L 383.782813 7.681152 
" style="fill: none; stroke: #000000; stroke-width: 0.8; stroke-linejoin: miter; stroke-linecap: square"/>
   </g>
   <g id="patch_5">
    <path d="M 48.982812 229.441152 
L 383.782812 229.441152 
" style="fill: none; stroke: #000000; stroke-width: 0.8; stroke-linejoin: miter; stroke-linecap: square"/>
   </g>
   <g id="patch_6">
    <path d="M 48.982812 7.681152 
L 383.782812 7.681152 
" style="fill: none; stroke: #000000; stroke-width: 0.8; stroke-linejoin: miter; stroke-linecap: square"/>
   </g>
   <g id="legend_1">
    <g id="patch_7">
     <path d="M 55.982813 224.441152 
L 95.682813 224.441152 
Q 97.682813 224.441152 97.682813 222.441152 
L 97.682813 164.728652 
Q 97.682813 162.728652 95.682813 162.728652 
L 55.982813 162.728652 
Q 53.982813 162.728652 53.982813 164.728652 
L 53.982813 222.441152 
Q 53.982813 224.441152 55.982813 224.441152 
z
" style="fill: #ffffff; opacity: 0.8; stroke: #cccccc; stroke-linejoin: miter"/>
    </g>
    <g id="line2d_20">
     <path d="M 57.982813 170.82709 
L 67.982812 170.82709 
L 77.982812 170.82709 
" style="fill: none; stroke: #1f77b4; stroke-width: 1.5; stroke-linecap: square"/>
    </g>
    <g id="text_18">
     <!-- A -->
     <g transform="translate(85.982812 174.32709) scale(0.1 -0.1)">
      <defs>
       <path id="DejaVuSans-41" d="M 2188 4044 
L 1331 1722 
L 3047 1722 
L 2188 4044 
z
M 1831 4666 
L 2547 4666 
L 4325 0 
L 3669 0 
L 3244 1197 
L 1141 1197 
L 716 0 
L 50 0 
L 1831 4666 
z
" transform="scale(0.015625)"/>
      </defs>
      <use xlink:href="#DejaVuSans-41"/>
     </g>
    </g>
    <g id="line2d_21">
     <path d="M 57.982813 185.505215 
L 67.982812 185.505215 
L 77.982812 185.505215 
" style="fill: none; stroke: #ff7f0e; stroke-width: 1.5; stroke-linecap: square"/>
    </g>
    <g id="text_19">
     <!-- B -->
     <g transform="translate(85.982812 189.005215) scale(0.1 -0.1)">
      <defs>
       <path id="DejaVuSans-42" d="M 1259 2228 
L 1259 519 
L 2272 519 
Q 2781 519 3026 730 
Q 3272 941 3272 1375 
Q 3272 1813 3026 2020 
Q 2781 2228 2272 2228 
L 1259 2228 
z
M 1259 4147 
L 1259 2741 
L 2194 2741 
Q 2656 2741 2882 2914 
Q 3109 3088 3109 3444 
Q 3109 3797 2882 3972 
Q 2656 4147 2194 4147 
L 1259 4147 
z
M 628 4666 
L 2241 4666 
Q 2963 4666 3353 4366 
Q 3744 4066 3744 3513 
Q 3744 3084 3544 2831 
Q 3344 2578 2956 2516 
Q 3422 2416 3680 2098 
Q 3938 1781 3938 1306 
Q 3938 681 3513 340 
Q 3088 0 2303 0 
L 628 0 
L 628 4666 
z
" transform="scale(0.015625)"/>
      </defs>
      <use xlink:href="#DejaVuSans-42"/>
     </g>
    </g>
    <g id="line2d_22">
     <path d="M 57.982813 200.18334 
L 67.982812 200.18334 
L 77.982812 200.18334 
" style="fill: none; stroke: #2ca02c; stroke-width: 1.5; stroke-linecap: square"/>
    </g>
    <g id="text_20">
     <!-- C -->
     <g transform="translate(85.982812 203.68334) scale(0.1 -0.1)">
      <defs>
       <path id="DejaVuSans-43" d="M 4122 4306 
L 4122 3641 
Q 3803 3938 3442 4084 
Q 3081 4231 2675 4231 
Q 1875 4231 1450 3742 
Q 1025 3253 1025 2328 
Q 1025 1406 1450 917 
Q 1875 428 2675 428 
Q 3081 428 3442 575 
Q 3803 722 4122 1019 
L 4122 359 
Q 3791 134 3420 21 
Q 3050 -91 2638 -91 
Q 1578 -91 968 557 
Q 359 1206 359 2328 
Q 359 3453 968 4101 
Q 1578 4750 2638 4750 
Q 3056 4750 3426 4639 
Q 3797 4528 4122 4306 
z
" transform="scale(0.015625)"/>
      </defs>
      <use xlink:href="#DejaVuSans-43"/>
     </g>
    </g>
    <g id="line2d_23">
     <path d="M 57.982813 214.861465 
L 67.982812 214.861465 
L 77.982812 214.861465 
" style="fill: none; stroke: #d62728; stroke-width: 1.5; stroke-linecap: square"/>
    </g>
    <g id="text_21">
     <!-- D -->
     <g transform="translate(85.982812 218.361465) scale(0.1 -0.1)">
      <defs>
       <path id="DejaVuSans-44" d="M 1259 4147 
L 1259 519 
L 2022 519 
Q 2988 519 3436 956 
Q 3884 1394 3884 2338 
Q 3884 3275 3436 3711 
Q 2988 4147 2022 4147 
L 1259 4147 
z
M 628 4666 
L 1925 4666 
Q 3281 4666 3915 4102 
Q 4550 3538 4550 2338 
Q 4550 1131 3912 565 
Q 3275 0 1925 0 
L 628 0 
L 628 4666 
z
" transform="scale(0.015625)"/>
      </defs>
      <use xlink:href="#DejaVuSans-44"/>
     </g>
    </g>
   </g>
  </g>
 </g>
 <defs>
  <clipPath id="p12e7a5c489">
   <rect x="48.982813" y="7.681152" width="334.8" height="221.76"/>
  </clipPath>
 </defs>
</svg>
