<?xml version="1.0" encoding="utf-8" standalone="no"?>
<!DOCTYPE svg PUBLIC "-//W3C//DTD SVG 1.1//EN"
  "http://www.w3.org/Graphics/SVG/1.1/DTD/svg11.dtd">
<svg xmlns:xlink="http://www.w3.org/1999/xlink" width="390.982812pt" height="266.51625pt" viewBox="0 0 390.982812 266.51625" xmlns="http://www.w3.org/2000/svg" version="1.1">
 <metadata>
  <rdf:RDF xmlns:dc="http://purl.org/dc/elements/1.1/" xmlns:cc="http://creativecommons.org/ns#" xmlns:rdf="http://www.w3.org/1999/02/22-rdf-syntax-ns#">
   <cc:Work>
    <dc:type rdf:resource="http://purl.org/dc/dcmitype/StillImage"/>
    <dc:date>2025-11-17T14:15:36.766831</dc:date>
    <dc:format>image/svg+xml</dc:format>
    <dc:creator>
     <cc:Agent>
      <dc:title>Matplotlib v3.10.7, https://matplotlib.org/</dc:title>
     </cc:Agent>
    </dc:creator>
   </cc:Work>
  </rdf:RDF>
 </metadata>
 <defs>
  <style type="text/css">*{stroke-linejoin: round; stroke-linecap: butt}</style>
 </defs>
 <g id="figure_1">
  <g id="patch_1">
   <path d="M 0 266.51625 
L 390.982812 266.51625 
L 390.982812 0 
L 0 0 
z
" style="fill: #ffffff"/>
  </g>
  <g id="axes_1">
   <g id="patch_2">
    <path d="M 48.982813 228.96 
L 383.782813 228.96 
L 383.782813 7.2 
L 48.982813 7.2 
z
" style="fill: #ffffff"/>
   </g>
   <g id="matplotlib.axis_1">
    <g id="xtick_1">
     <g id="line2d_1">
      <defs>
       <path id="ma452019ed6" d="M 0 0 
L 0 3.5 
" style="stroke: #000000; stroke-width: 0.8"/>
      </defs>
      <g>
       <use xlink:href="#ma452019ed6" x="64.200994" y="228.96" style="stroke: #000000; stroke-width: 0.8"/>
      </g>
     </g>
     <g id="text_1">
      <!-- 2000-01 -->
      <g transform="translate(43.309588 243.558437) scale(0.1 -0.1)">
       <defs>
        <path id="DejaVuSans-32" d="M 1228 531 
L 3431 531 
L 3431 0 
L 469 0 
L 469 531 
Q 828 903 1448 1529 
Q 2069 2156 2228 2338 
Q 2531 2678 2651 2914 
Q 2772 3150 2772 3378 
Q 2772 3750 2511 3984 
Q 2250 4219 1831 4219 
Q 1534 4219 1204 4116 
Q 875 4013 500 3803 
L 500 4441 
Q 881 4594 1212 4672 
Q 1544 4750 1819 4750 
Q 2544 4750 2975 4387 
Q 3406 4025 3406 3419 
Q 3406 3131 3298 2873 
Q 3191 2616 2906 2266 
Q 2828 2175 2409 1742 
Q 1991 1309 1228 531 
z
" transform="scale(0.015625)"/>
        <path id="DejaVuSans-30" d="M 2034 4250 
Q 1547 4250 1301 3770 
Q 1056 3291 1056 2328 
Q 1056 1369 1301 889 
Q 1547 409 2034 409 
Q 2525 409 2770 889 
Q 3016 1369 3016 2328 
Q 3016 3291 2770 3770 
Q 2525 4250 2034 4250 
z
M 2034 4750 
Q 2819 4750 3233 4129 
Q 3647 3509 3647 2328 
Q 3647 1150 3233 529 
Q 2819 -91 2034 -91 
Q 1250 -91 836 529 
Q 422 1150 422 2328 
Q 422 3509 836 4129 
Q 1250 4750 2034 4750 
z
" transform="scale(0.015625)"/>
        <path id="DejaVuSans-2d" d="M 313 2009 
L 1997 2009 
L 1997 1497 
L 313 1497 
L 313 2009 
z
" transform="scale(0.015625)"/>
        <path id="DejaVuSans-31" d="M 794 531 
L 1825 531 
L 1825 4091 
L 703 3866 
L 703 4441 
L 1819 4666 
L 2450 4666 
L 2450 531 
L 3481 531 
L 3481 0 
L 794 0 
L 794 531 
z
" transform="scale(0.015625)"/>
       </defs>
       <use xlink:href="#DejaVuSans-32"/>
       <use xlink:href="#DejaVuSans-30" transform="translate(63.623047 0)"/>
       <use xlink:href="#DejaVuSans-30" transform="translate(127.246094 0)"/>
       <use xlink:href="#DejaVuSans-30" transform="translate(190.869141 0)"/>
       <use xlink:href="#DejaVuSans-2d" transform="translate(254.492188 0)"/>
       <use xlink:href="#DejaVuSans-30" transform="translate(290.576172 0)"/>
       <use xlink:href="#DejaVuSans-31" transform="translate(354.199219 0)"/>
      </g>
     </g>
    </g>
    <g id="xtick_2">
     <g id="line2d_2">
      <g>
       <use xlink:href="#ma452019ed6" x="111.614425" y="228.96" style="stroke: #000000; stroke-width: 0.8"/>
      </g>
     </g>
     <g id="text_2">
      <!-- 2000-02 -->
      <g transform="translate(90.723019 243.558437) scale(0.1 -0.1)">
       <use xlink:href="#DejaVuSans-32"/>
       <use xlink:href="#DejaVuSans-30" transform="translate(63.623047 0)"/>
       <use xlink:href="#DejaVuSans-30" transform="translate(127.246094 0)"/>
       <use xlink:href="#DejaVuSans-30" transform="translate(190.869141 0)"/>
       <use xlink:href="#DejaVuSans-2d" transform="translate(254.492188 0)"/>
       <use xlink:href="#DejaVuSans-30" transform="translate(290.576172 0)"/>
       <use xlink:href="#DejaVuSans-32" transform="translate(354.199219 0)"/>
      </g>
     </g>
    </g>
    <g id="xtick_3">
     <g id="line2d_3">
      <g>
       <use xlink:href="#ma452019ed6" x="155.968925" y="228.96" style="stroke: #000000; stroke-width: 0.8"/>
      </g>
     </g>
     <g id="text_3">
      <!-- 2000-03 -->
      <g transform="translate(135.077519 243.558437) scale(0.1 -0.1)">
       <defs>
        <path id="DejaVuSans-33" d="M 2597 2516 
Q 3050 2419 3304 2112 
Q 3559 1806 3559 1356 
Q 3559 666 3084 287 
Q 2609 -91 1734 -91 
Q 1441 -91 1130 -33 
Q 819 25 488 141 
L 488 750 
Q 750 597 1062 519 
Q 1375 441 1716 441 
Q 2309 441 2620 675 
Q 2931 909 2931 1356 
Q 2931 1769 2642 2001 
Q 2353 2234 1838 2234 
L 1294 2234 
L 1294 2753 
L 1863 2753 
Q 2328 2753 2575 2939 
Q 2822 3125 2822 3475 
Q 2822 3834 2567 4026 
Q 2313 4219 1838 4219 
Q 1578 4219 1281 4162 
Q 984 4106 628 3988 
L 628 4550 
Q 988 4650 1302 4700 
Q 1616 4750 1894 4750 
Q 2613 4750 3031 4423 
Q 3450 4097 3450 3541 
Q 3450 3153 3228 2886 
Q 3006 2619 2597 2516 
z
" transform="scale(0.015625)"/>
       </defs>
       <use xlink:href="#DejaVuSans-32"/>
       <use xlink:href="#DejaVuSans-30" transform="translate(63.623047 0)"/>
       <use xlink:href="#DejaVuSans-30" transform="translate(127.246094 0)"/>
       <use xlink:href="#DejaVuSans-30" transform="translate(190.869141 0)"/>
       <use xlink:href="#DejaVuSans-2d" transform="translate(254.492188 0)"/>
       <use xlink:href="#DejaVuSans-30" transform="translate(290.576172 0)"/>
       <use xlink:href="#DejaVuSans-33" transform="translate(354.199219 0)"/>
      </g>
     </g>
    </g>
    <g id="xtick_4">
     <g id="line2d_4">
      <g>
       <use xlink:href="#ma452019ed6" x="203.382356" y="228.96" style="stroke: #000000; stroke-width: 0.8"/>
      </g>
     </g>
     <g id="text_4">
      <!-- 2000-04 -->
      <g transform="translate(182.490949 243.558437) scale(0.1 -0.1)">
       <defs>
        <path id="DejaVuSans-34" d="M 2419 4116 
L 825 1625 
L 2419 1625 
L 2419 4116 
z
M 2253 4666 
L 3047 4666 
L 3047 1625 
L 3713 1625 
L 3713 1100 
L 3047 1100 
L 3047 0 
L 2419 0 
L 2419 1100 
L 313 1100 
L 313 1709 
L 2253 4666 
z
" transform="scale(0.015625)"/>
       </defs>
       <use xlink:href="#DejaVuSans-32"/>
       <use xlink:href="#DejaVuSans-30" transform="translate(63.623047 0)"/>
       <use xlink:href="#DejaVuSans-30" transform="translate(127.246094 0)"/>
       <use xlink:href="#DejaVuSans-30" transform="translate(190.869141 0)"/>
       <use xlink:href="#DejaVuSans-2d" transform="translate(254.492188 0)"/>
       <use xlink:href="#DejaVuSans-30" transform="translate(290.576172 0)"/>
       <use xlink:href="#DejaVuSans-34" transform="translate(354.199219 0)"/>
      </g>
     </g>
    </g>
    <g id="xtick_5">
     <g id="line2d_5">
      <g>
       <use xlink:href="#ma452019ed6" x="249.266321" y="228.96" style="stroke: #000000; stroke-width: 0.8"/>
      </g>
     </g>
     <g id="text_5">
      <!-- 2000-05 -->
      <g transform="translate(228.374915 243.558437) scale(0.1 -0.1)">
       <defs>
        <path id="DejaVuSans-35" d="M 691 4666 
L 3169 4666 
L 3169 4134 
L 1269 4134 
L 1269 2991 
Q 1406 3038 1543 3061 
Q 1681 3084 1819 3084 
Q 2600 3084 3056 2656 
Q 3513 2228 3513 1497 
Q 3513 744 3044 326 
Q 2575 -91 1722 -91 
Q 1428 -91 1123 -41 
Q 819 9 494 109 
L 494 744 
Q 775 591 1075 516 
Q 1375 441 1709 441 
Q 2250 441 2565 725 
Q 2881 1009 2881 1497 
Q 2881 1984 2565 2268 
Q 2250 2553 1709 2553 
Q 1456 2553 1204 2497 
Q 953 2441 691 2322 
L 691 4666 
z
" transform="scale(0.015625)"/>
       </defs>
       <use xlink:href="#DejaVuSans-32"/>
       <use xlink:href="#DejaVuSans-30" transform="translate(63.623047 0)"/>
       <use xlink:href="#DejaVuSans-30" transform="translate(127.246094 0)"/>
       <use xlink:href="#DejaVuSans-30" transform="translate(190.869141 0)"/>
       <use xlink:href="#DejaVuSans-2d" transform="translate(254.492188 0)"/>
       <use xlink:href="#DejaVuSans-30" transform="translate(290.576172 0)"/>
       <use xlink:href="#DejaVuSans-35" transform="translate(354.199219 0)"/>
      </g>
     </g>
    </g>
    <g id="xtick_6">
     <g id="line2d_6">
      <g>
       <use xlink:href="#ma452019ed6" x="296.679752" y="228.96" style="stroke: #000000; stroke-width: 0.8"/>
      </g>
     </g>
     <g id="text_6">
      <!-- 2000-06 -->
      <g transform="translate(275.788345 243.558437) scale(0.1 -0.1)">
       <defs>
        <path id="DejaVuSans-36" d="M 2113 2584 
Q 1688 2584 1439 2293 
Q 1191 2003 1191 1497 
Q 1191 994 1439 701 
Q 1688 409 2113 409 
Q 2538 409 2786 701 
Q 3034 994 3034 1497 
Q 3034 2003 2786 2293 
Q 2538 2584 2113 2584 
z
M 3366 4563 
L 3366 3988 
Q 3128 4100 2886 4159 
Q 2644 4219 2406 4219 
Q 1781 4219 1451 3797 
Q 1122 3375 1075 2522 
Q 1259 2794 1537 2939 
Q 1816 3084 2150 3084 
Q 2853 3084 3261 2657 
Q 3669 2231 3669 1497 
Q 3669 778 3244 343 
Q 2819 -91 2113 -91 
Q 1303 -91 875 529 
Q 447 1150 447 2328 
Q 447 3434 972 4092 
Q 1497 4750 2381 4750 
Q 2619 4750 2861 4703 
Q 3103 4656 3366 4563 
z
" transform="scale(0.015625)"/>
       </defs>
       <use xlink:href="#DejaVuSans-32"/>
       <use xlink:href="#DejaVuSans-30" transform="translate(63.623047 0)"/>
       <use xlink:href="#DejaVuSans-30" transform="translate(127.246094 0)"/>
       <use xlink:href="#DejaVuSans-30" transform="translate(190.869141 0)"/>
       <use xlink:href="#DejaVuSans-2d" transform="translate(254.492188 0)"/>
       <use xlink:href="#DejaVuSans-30" transform="translate(290.576172 0)"/>
       <use xlink:href="#DejaVuSans-36" transform="translate(354.199219 0)"/>
      </g>
     </g>
    </g>
    <g id="xtick_7">
     <g id="line2d_7">
      <g>
       <use xlink:href="#ma452019ed6" x="342.563717" y="228.96" style="stroke: #000000; stroke-width: 0.8"/>
      </g>
     </g>
     <g id="text_7">
      <!-- 2000-07 -->
      <g transform="translate(321.672311 243.558437) scale(0.1 -0.1)">
       <defs>
        <path id="DejaVuSans-37" d="M 525 4666 
L 3525 4666 
L 3525 4397 
L 1831 0 
L 1172 0 
L 2766 4134 
L 525 4134 
L 525 4666 
z
" transform="scale(0.015625)"/>
       </defs>
       <use xlink:href="#DejaVuSans-32"/>
       <use xlink:href="#DejaVuSans-30" transform="translate(63.623047 0)"/>
       <use xlink:href="#DejaVuSans-30" transform="translate(127.246094 0)"/>
       <use xlink:href="#DejaVuSans-30" transform="translate(190.869141 0)"/>
       <use xlink:href="#DejaVuSans-2d" transform="translate(254.492188 0)"/>
       <use xlink:href="#DejaVuSans-30" transform="translate(290.576172 0)"/>
       <use xlink:href="#DejaVuSans-37" transform="translate(354.199219 0)"/>
      </g>
     </g>
    </g>
    <g id="text_8">
     <!-- row [datetime] -->
     <g transform="translate(179.229688 257.236562) scale(0.1 -0.1)">
      <defs>
       <path id="DejaVuSans-72" d="M 2631 2963 
Q 2534 3019 2420 3045 
Q 2306 3072 2169 3072 
Q 1681 3072 1420 2755 
Q 1159 2438 1159 1844 
L 1159 0 
L 581 0 
L 581 3500 
L 1159 3500 
L 1159 2956 
Q 1341 3275 1631 3429 
Q 1922 3584 2338 3584 
Q 2397 3584 2469 3576 
Q 2541 3569 2628 3553 
L 2631 2963 
z
" transform="scale(0.015625)"/>
       <path id="DejaVuSans-6f" d="M 1959 3097 
Q 1497 3097 1228 2736 
Q 959 2375 959 1747 
Q 959 1119 1226 758 
Q 1494 397 1959 397 
Q 2419 397 2687 759 
Q 2956 1122 2956 1747 
Q 2956 2369 2687 2733 
Q 2419 3097 1959 3097 
z
M 1959 3584 
Q 2709 3584 3137 3096 
Q 3566 2609 3566 1747 
Q 3566 888 3137 398 
Q 2709 -91 1959 -91 
Q 1206 -91 779 398 
Q 353 888 353 1747 
Q 353 2609 779 3096 
Q 1206 3584 1959 3584 
z
" transform="scale(0.015625)"/>
       <path id="DejaVuSans-77" d="M 269 3500 
L 844 3500 
L 1563 769 
L 2278 3500 
L 2956 3500 
L 3675 769 
L 4391 3500 
L 4966 3500 
L 4050 0 
L 3372 0 
L 2619 2869 
L 1863 0 
L 1184 0 
L 269 3500 
z
" transform="scale(0.015625)"/>
       <path id="DejaVuSans-20" transform="scale(0.015625)"/>
       <path id="DejaVuSans-5b" d="M 550 4863 
L 1875 4863 
L 1875 4416 
L 1125 4416 
L 1125 -397 
L 1875 -397 
L 1875 -844 
L 550 -844 
L 550 4863 
z
" transform="scale(0.015625)"/>
       <path id="DejaVuSans-64" d="M 2906 2969 
L 2906 4863 
L 3481 4863 
L 3481 0 
L 2906 0 
L 2906 525 
Q 2725 213 2448 61 
Q 2172 -91 1784 -91 
Q 1150 -91 751 415 
Q 353 922 353 1747 
Q 353 2572 751 3078 
Q 1150 3584 1784 3584 
Q 2172 3584 2448 3432 
Q 2725 3281 2906 2969 
z
M 947 1747 
Q 947 1113 1208 752 
Q 1469 391 1925 391 
Q 2381 391 2643 752 
Q 2906 1113 2906 1747 
Q 2906 2381 2643 2742 
Q 2381 3103 1925 3103 
Q 1469 3103 1208 2742 
Q 947 2381 947 1747 
z
" transform="scale(0.015625)"/>
       <path id="DejaVuSans-61" d="M 2194 1759 
Q 1497 1759 1228 1600 
Q 959 1441 959 1056 
Q 959 750 1161 570 
Q 1363 391 1709 391 
Q 2188 391 2477 730 
Q 2766 1069 2766 1631 
L 2766 1759 
L 2194 1759 
z
M 3341 1997 
L 3341 0 
L 2766 0 
L 2766 531 
Q 2569 213 2275 61 
Q 1981 -91 1556 -91 
Q 1019 -91 701 211 
Q 384 513 384 1019 
Q 384 1609 779 1909 
Q 1175 2209 1959 2209 
L 2766 2209 
L 2766 2266 
Q 2766 2663 2505 2880 
Q 2244 3097 1772 3097 
Q 1472 3097 1187 3025 
Q 903 2953 641 2809 
L 641 3341 
Q 956 3463 1253 3523 
Q 1550 3584 1831 3584 
Q 2591 3584 2966 3190 
Q 3341 2797 3341 1997 
z
" transform="scale(0.015625)"/>
       <path id="DejaVuSans-74" d="M 1172 4494 
L 1172 3500 
L 2356 3500 
L 2356 3053 
L 1172 3053 
L 1172 1153 
Q 1172 725 1289 603 
Q 1406 481 1766 481 
L 2356 481 
L 2356 0 
L 1766 0 
Q 1100 0 847 248 
Q 594 497 594 1153 
L 594 3053 
L 172 3053 
L 172 3500 
L 594 3500 
L 594 4494 
L 1172 4494 
z
" transform="scale(0.015625)"/>
       <path id="DejaVuSans-65" d="M 3597 1894 
L 3597 1613 
L 953 1613 
Q 991 1019 1311 708 
Q 1631 397 2203 397 
Q 2534 397 2845 478 
Q 3156 559 3463 722 
L 3463 178 
Q 3153 47 2828 -22 
Q 2503 -91 2169 -91 
Q 1331 -91 842 396 
Q 353 884 353 1716 
Q 353 2575 817 3079 
Q 1281 3584 2069 3584 
Q 2775 3584 3186 3129 
Q 3597 2675 3597 1894 
z
M 3022 2063 
Q 3016 2534 2758 2815 
Q 2500 3097 2075 3097 
Q 1594 3097 1305 2825 
Q 1016 2553 972 2059 
L 3022 2063 
z
" transform="scale(0.015625)"/>
       <path id="DejaVuSans-69" d="M 603 3500 
L 1178 3500 
L 1178 0 
L 603 0 
L 603 3500 
z
M 603 4863 
L 1178 4863 
L 1178 4134 
L 603 4134 
L 603 4863 
z
" transform="scale(0.015625)"/>
       <path id="DejaVuSans-6d" d="M 3328 2828 
Q 3544 3216 3844 3400 
Q 4144 3584 4550 3584 
Q 5097 3584 5394 3201 
Q 5691 2819 5691 2113 
L 5691 0 
L 5113 0 
L 5113 2094 
Q 5113 2597 4934 2840 
Q 4756 3084 4391 3084 
Q 3944 3084 3684 2787 
Q 3425 2491 3425 1978 
L 3425 0 
L 2847 0 
L 2847 2094 
Q 2847 2600 2669 2842 
Q 2491 3084 2119 3084 
Q 1678 3084 1418 2786 
Q 1159 2488 1159 1978 
L 1159 0 
L 581 0 
L 581 3500 
L 1159 3500 
L 1159 2956 
Q 1356 3278 1631 3431 
Q 1906 3584 2284 3584 
Q 2666 3584 2933 3390 
Q 3200 3197 3328 2828 
z
" transform="scale(0.015625)"/>
       <path id="DejaVuSans-5d" d="M 1947 4863 
L 1947 -844 
L 622 -844 
L 622 -397 
L 1369 -397 
L 1369 4416 
L 622 4416 
L 622 4863 
L 1947 4863 
z
" transform="scale(0.015625)"/>
      </defs>
      <use xlink:href="#DejaVuSans-72"/>
      <use xlink:href="#DejaVuSans-6f" transform="translate(38.863281 0)"/>
      <use xlink:href="#DejaVuSans-77" transform="translate(100.044922 0)"/>
      <use xlink:href="#DejaVuSans-20" transform="translate(181.832031 0)"/>
      <use xlink:href="#DejaVuSans-5b" transform="translate(213.619141 0)"/>
      <use xlink:href="#DejaVuSans-64" transform="translate(252.632812 0)"/>
      <use xlink:href="#DejaVuSans-61" transform="translate(316.109375 0)"/>
      <use xlink:href="#DejaVuSans-74" transform="translate(377.388672 0)"/>
      <use xlink:href="#DejaVuSans-65" transform="translate(416.597656 0)"/>
      <use xlink:href="#DejaVuSans-74" transform="translate(478.121094 0)"/>
      <use xlink:href="#DejaVuSans-69" transform="translate(517.330078 0)"/>
      <use xlink:href="#DejaVuSans-6d" transform="translate(545.113281 0)"/>
      <use xlink:href="#DejaVuSans-65" transform="translate(642.525391 0)"/>
      <use xlink:href="#DejaVuSans-5d" transform="translate(704.048828 0)"/>
     </g>
    </g>
   </g>
   <g id="matplotlib.axis_2">
    <g id="ytick_1">
     <g id="line2d_8">
      <defs>
       <path id="mb9678453d8" d="M 0 0 
L -3.5 0 
" style="stroke: #000000; stroke-width: 0.8"/>
      </defs>
      <g>
       <use xlink:href="#mb9678453d8" x="48.982813" y="206.934125" style="stroke: #000000; stroke-width: 0.8"/>
      </g>
     </g>
     <g id="text_9">
      <!-- −15 -->
      <g transform="translate(20.878125 210.733343) scale(0.1 -0.1)">
       <defs>
        <path id="DejaVuSans-2212" d="M 678 2272 
L 4684 2272 
L 4684 1741 
L 678 1741 
L 678 2272 
z
" transform="scale(0.015625)"/>
       </defs>
       <use xlink:href="#DejaVuSans-2212"/>
       <use xlink:href="#DejaVuSans-31" transform="translate(83.789062 0)"/>
       <use xlink:href="#DejaVuSans-35" transform="translate(147.412109 0)"/>
      </g>
     </g>
    </g>
    <g id="ytick_2">
     <g id="line2d_9">
      <g>
       <use xlink:href="#mb9678453d8" x="48.982813" y="181.387253" style="stroke: #000000; stroke-width: 0.8"/>
      </g>
     </g>
     <g id="text_10">
      <!-- −10 -->
      <g transform="translate(20.878125 185.186472) scale(0.1 -0.1)">
       <use xlink:href="#DejaVuSans-2212"/>
       <use xlink:href="#DejaVuSans-31" transform="translate(83.789062 0)"/>
       <use xlink:href="#DejaVuSans-30" transform="translate(147.412109 0)"/>
      </g>
     </g>
    </g>
    <g id="ytick_3">
     <g id="line2d_10">
      <g>
       <use xlink:href="#mb9678453d8" x="48.982813" y="155.840382" style="stroke: #000000; stroke-width: 0.8"/>
      </g>
     </g>
     <g id="text_11">
      <!-- −5 -->
      <g transform="translate(27.240625 159.639601) scale(0.1 -0.1)">
       <use xlink:href="#DejaVuSans-2212"/>
       <use xlink:href="#DejaVuSans-35" transform="translate(83.789062 0)"/>
      </g>
     </g>
    </g>
    <g id="ytick_4">
     <g id="line2d_11">
      <g>
       <use xlink:href="#mb9678453d8" x="48.982813" y="130.293511" style="stroke: #000000; stroke-width: 0.8"/>
      </g>
     </g>
     <g id="text_12">
      <!-- 0 -->
      <g transform="translate(35.620312 134.09273) scale(0.1 -0.1)">
       <use xlink:href="#DejaVuSans-30"/>
      </g>
     </g>
    </g>
    <g id="ytick_5">
     <g id="line2d_12">
      <g>
       <use xlink:href="#mb9678453d8" x="48.982813" y="104.74664" style="stroke: #000000; stroke-width: 0.8"/>
      </g>
     </g>
     <g id="text_13">
      <!-- 5 -->
      <g transform="translate(35.620312 108.545859) scale(0.1 -0.1)">
       <use xlink:href="#DejaVuSans-35"/>
      </g>
     </g>
    </g>
    <g id="ytick_6">
     <g id="line2d_13">
      <g>
       <use xlink:href="#mb9678453d8" x="48.982813" y="79.199769" style="stroke: #000000; stroke-width: 0.8"/>
      </g>
     </g>
     <g id="text_14">
      <!-- 10 -->
      <g transform="translate(29.257812 82.998987) scale(0.1 -0.1)">
       <use xlink:href="#DejaVuSans-31"/>
       <use xlink:href="#DejaVuSans-30" transform="translate(63.623047 0)"/>
      </g>
     </g>
    </g>
    <g id="ytick_7">
     <g id="line2d_14">
      <g>
       <use xlink:href="#mb9678453d8" x="48.982813" y="53.652897" style="stroke: #000000; stroke-width: 0.8"/>
      </g>
     </g>
     <g id="text_15">
      <!-- 15 -->
      <g transform="translate(29.257812 57.452116) scale(0.1 -0.1)">
       <use xlink:href="#DejaVuSans-31"/>
       <use xlink:href="#DejaVuSans-35" transform="translate(63.623047 0)"/>
      </g>
     </g>
    </g>
    <g id="ytick_8">
     <g id="line2d_15">
      <g>
       <use xlink:href="#mb9678453d8" x="48.982813" y="28.106026" style="stroke: #000000; stroke-width: 0.8"/>
      </g>
     </g>
     <g id="text_16">
      <!-- 20 -->
      <g transform="translate(29.257812 31.905245) scale(0.1 -0.1)">
       <use xlink:href="#DejaVuSans-32"/>
       <use xlink:href="#DejaVuSans-30" transform="translate(63.623047 0)"/>
      </g>
     </g>
    </g>
    <g id="text_17">
     <!-- [dimensionless] -->
     <g transform="translate(14.798437 157.557344) rotate(-90) scale(0.1 -0.1)">
      <defs>
       <path id="DejaVuSans-6e" d="M 3513 2113 
L 3513 0 
L 2938 0 
L 2938 2094 
Q 2938 2591 2744 2837 
Q 2550 3084 2163 3084 
Q 1697 3084 1428 2787 
Q 1159 2491 1159 1978 
L 1159 0 
L 581 0 
L 581 3500 
L 1159 3500 
L 1159 2956 
Q 1366 3272 1645 3428 
Q 1925 3584 2291 3584 
Q 2894 3584 3203 3211 
Q 3513 2838 3513 2113 
z
" transform="scale(0.015625)"/>
       <path id="DejaVuSans-73" d="M 2834 3397 
L 2834 2853 
Q 2591 2978 2328 3040 
Q 2066 3103 1784 3103 
Q 1356 3103 1142 2972 
Q 928 2841 928 2578 
Q 928 2378 1081 2264 
Q 1234 2150 1697 2047 
L 1894 2003 
Q 2506 1872 2764 1633 
Q 3022 1394 3022 966 
Q 3022 478 2636 193 
Q 2250 -91 1575 -91 
Q 1294 -91 989 -36 
Q 684 19 347 128 
L 347 722 
Q 666 556 975 473 
Q 1284 391 1588 391 
Q 1994 391 2212 530 
Q 2431 669 2431 922 
Q 2431 1156 2273 1281 
Q 2116 1406 1581 1522 
L 1381 1569 
Q 847 1681 609 1914 
Q 372 2147 372 2553 
Q 372 3047 722 3315 
Q 1072 3584 1716 3584 
Q 2034 3584 2315 3537 
Q 2597 3491 2834 3397 
z
" transform="scale(0.015625)"/>
       <path id="DejaVuSans-6c" d="M 603 4863 
L 1178 4863 
L 1178 0 
L 603 0 
L 603 4863 
z
" transform="scale(0.015625)"/>
      </defs>
      <use xlink:href="#DejaVuSans-5b"/>
      <use xlink:href="#DejaVuSans-64" transform="translate(39.013672 0)"/>
      <use xlink:href="#DejaVuSans-69" transform="translate(102.490234 0)"/>
      <use xlink:href="#DejaVuSans-6d" transform="translate(130.273438 0)"/>
      <use xlink:href="#DejaVuSans-65" transform="translate(227.685547 0)"/>
      <use xlink:href="#DejaVuSans-6e" transform="translate(289.208984 0)"/>
      <use xlink:href="#DejaVuSans-73" transform="translate(352.587891 0)"/>
      <use xlink:href="#DejaVuSans-69" transform="translate(404.6875 0)"/>
      <use xlink:href="#DejaVuSans-6f" transform="translate(432.470703 0)"/>
      <use xlink:href="#DejaVuSans-6e" transform="translate(493.652344 0)"/>
      <use xlink:href="#DejaVuSans-6c" transform="translate(557.03125 0)"/>
      <use xlink:href="#DejaVuSans-65" transform="translate(584.814453 0)"/>
      <use xlink:href="#DejaVuSans-73" transform="translate(646.337891 0)"/>
      <use xlink:href="#DejaVuSans-73" transform="translate(698.4375 0)"/>
      <use xlink:href="#DejaVuSans-5d" transform="translate(750.537109 0)"/>
     </g>
    </g>
   </g>
   <g id="line2d_16">
    <path d="M 64.200994 134.261523 
L 65.73046 130.988754 
L 67.259925 131.564651 
L 68.789391 127.318418 
L 70.318856 132.68362 
L 71.848322 120.106712 
L 73.377787 117.393246 
L 74.907253 122.964576 
L 76.436718 122.723084 
L 77.966184 122.356728 
L 79.495649 118.280816 
L 81.025115 114.81524 
L 82.55458 116.87469 
L 84.084046 116.805717 
L 85.613511 111.669783 
L 87.142977 110.251128 
L 88.672442 103.646766 
L 90.201908 100.226752 
L 91.731373 96.100171 
L 93.260839 95.588124 
L 94.790305 95.882508 
L 96.31977 97.83619 
L 97.849236 91.594123 
L 99.378701 97.095397 
L 100.908167 96.73429 
L 102.437632 104.881281 
L 103.967098 111.899878 
L 105.496563 107.740799 
L 107.026029 113.585941 
L 108.555494 105.395134 
L 110.08496 106.957859 
L 111.614425 117.724429 
L 113.143891 120.537777 
L 114.673356 111.72239 
L 116.202822 105.518026 
L 117.732287 105.25377 
L 119.261753 113.069352 
L 120.791218 115.594537 
L 122.320684 120.000207 
L 123.850149 123.762318 
L 125.379615 121.591218 
L 126.90908 123.014486 
L 128.438546 126.059863 
L 129.968011 136.274546 
L 131.497477 128.408637 
L 133.026942 126.238928 
L 134.556408 119.706753 
L 136.085873 106.181857 
L 137.615339 95.832873 
L 139.144804 90.028318 
L 140.67427 85.147973 
L 142.203735 92.094234 
L 143.733201 97.849784 
L 145.262666 96.230919 
L 146.792132 96.607201 
L 148.321597 104.192654 
L 149.851063 103.850641 
L 151.380528 101.361542 
L 152.909994 104.140101 
L 154.439459 100.737748 
L 155.968925 104.548727 
L 157.49839 106.564387 
L 159.027856 117.901888 
L 160.557321 116.667815 
L 162.086787 120.005155 
L 163.616252 126.513792 
L 165.145718 127.659186 
L 166.675183 135.177715 
L 168.204649 129.95911 
L 169.734114 136.566654 
L 171.26358 135.154466 
L 172.793045 138.216472 
L 174.322511 136.185247 
L 175.851977 137.525738 
L 177.381442 136.223785 
L 178.910908 138.887974 
L 180.440373 139.849006 
L 183.499304 152.746833 
L 185.02877 158.003945 
L 186.558235 158.976098 
L 188.087701 164.848624 
L 191.146632 153.324862 
L 192.676097 146.563207 
L 194.205563 144.713545 
L 195.735028 152.071905 
L 197.264494 145.065909 
L 198.793959 143.659252 
L 200.323425 146.070916 
L 201.85289 147.768246 
L 203.382356 145.269054 
L 204.911821 138.856597 
L 206.441287 141.58841 
L 207.970752 135.997823 
L 209.500218 140.580776 
L 211.029683 142.766886 
L 212.559149 145.742942 
L 214.088614 153.103582 
L 215.61808 151.885853 
L 217.147545 149.054071 
L 218.677011 156.093385 
L 220.206476 166.641598 
L 221.735942 154.897139 
L 223.265407 160.024945 
L 224.794873 159.657952 
L 226.324338 150.454206 
L 227.853804 154.289828 
L 229.383269 155.456692 
L 230.912735 162.720436 
L 232.4422 162.977496 
L 233.971666 160.299776 
L 235.501131 156.103322 
L 237.030597 153.127889 
L 238.560062 143.436873 
L 240.089528 143.680185 
L 241.618993 146.694355 
L 243.148459 153.879762 
L 244.677924 154.661019 
L 246.20739 158.701192 
L 247.736855 160.692361 
L 249.266321 164.441205 
L 250.795786 171.244598 
L 252.325252 172.490672 
L 253.854717 165.868414 
L 255.384183 158.566897 
L 256.913648 161.530327 
L 258.443114 167.687833 
L 259.97258 160.530697 
L 261.502045 156.699504 
L 263.031511 160.266473 
L 264.560976 167.986237 
L 266.090442 168.074768 
L 267.619907 161.615438 
L 269.149373 165.691794 
L 270.678838 166.208339 
L 272.208304 167.29375 
L 273.737769 167.909758 
L 275.267235 162.944738 
L 276.7967 171.923374 
L 278.326166 173.780424 
L 279.855631 179.437233 
L 281.385097 186.373979 
L 284.444028 177.438094 
L 285.973493 179.310368 
L 287.502959 180.778589 
L 289.032424 174.4671 
L 290.56189 166.690465 
L 292.091355 172.986113 
L 293.620821 169.578935 
L 295.150286 168.117315 
L 296.679752 162.403566 
L 298.209217 161.290557 
L 299.738683 165.168899 
L 301.268148 163.200273 
L 302.797614 162.257358 
L 304.327079 163.449834 
L 305.856545 160.175862 
L 307.38601 162.328067 
L 308.915476 170.264947 
L 310.444941 177.117305 
L 311.974407 172.221933 
L 313.503872 170.236235 
L 315.033338 169.757739 
L 316.562803 164.446127 
L 318.092269 161.542043 
L 319.621734 165.693807 
L 321.1512 164.089675 
L 322.680665 150.808219 
L 324.210131 156.856609 
L 325.739596 160.155574 
L 327.269062 159.617485 
L 328.798527 162.576351 
L 330.327993 168.877773 
L 331.857458 168.708413 
L 333.386924 166.384824 
L 334.916389 163.557657 
L 336.445855 162.31237 
L 337.97532 168.421112 
L 339.504786 171.231575 
L 341.034252 182.154983 
L 342.563717 184.416756 
L 344.093183 177.761215 
L 345.622648 179.998757 
L 347.152114 174.90008 
L 348.681579 163.841186 
L 350.211045 165.812031 
L 351.74051 168.10024 
L 354.799441 169.380482 
L 356.328907 177.299931 
L 357.858372 181.132144 
L 359.387838 173.918325 
L 360.917303 165.77801 
L 362.446769 159.372594 
L 363.976234 157.206509 
L 367.035165 164.897223 
L 368.564631 161.39294 
L 368.564631 161.39294 
" clip-path="url(#pf0b77e2553)" style="fill: none; stroke: #1f77b4; stroke-width: 1.5; stroke-linecap: square"/>
   </g>
   <g id="line2d_17">
    <path d="M 64.200994 125.593647 
L 65.73046 122.419079 
L 67.259925 130.396399 
L 68.789391 129.494365 
L 70.318856 130.065762 
L 73.377787 148.233169 
L 74.907253 145.291701 
L 76.436718 140.830774 
L 79.495649 149.136509 
L 81.025115 141.630661 
L 82.55458 129.509715 
L 84.084046 133.238843 
L 85.613511 133.739725 
L 87.142977 132.36633 
L 88.672442 132.318253 
L 90.201908 144.041323 
L 91.731373 148.413325 
L 93.260839 155.901416 
L 94.790305 151.406949 
L 96.31977 156.629701 
L 97.849236 157.531648 
L 99.378701 161.896967 
L 100.908167 161.387021 
L 102.437632 169.7013 
L 103.967098 175.832073 
L 105.496563 174.454792 
L 107.026029 172.143255 
L 108.555494 167.087829 
L 110.08496 163.448116 
L 111.614425 170.71226 
L 113.143891 168.897568 
L 114.673356 173.34512 
L 116.202822 172.134471 
L 117.732287 167.19052 
L 119.261753 170.628921 
L 120.791218 170.837114 
L 122.320684 171.806038 
L 123.850149 169.148582 
L 125.379615 164.546013 
L 126.90908 160.679605 
L 128.438546 159.812093 
L 129.968011 168.127929 
L 131.497477 167.875543 
L 133.026942 171.46505 
L 136.085873 173.477865 
L 137.615339 171.490866 
L 139.144804 172.856083 
L 140.67427 178.791027 
L 142.203735 181.295522 
L 143.733201 173.53815 
L 145.262666 163.922813 
L 146.792132 170.518233 
L 148.321597 167.352286 
L 149.851063 164.986902 
L 151.380528 164.409806 
L 152.909994 165.287963 
L 154.439459 169.460881 
L 155.968925 159.543021 
L 157.49839 155.657951 
L 159.027856 155.257082 
L 160.557321 160.716176 
L 162.086787 154.968008 
L 163.616252 159.687551 
L 165.145718 154.944038 
L 166.675183 157.879714 
L 168.204649 147.236986 
L 169.734114 148.201517 
L 171.26358 153.147307 
L 172.793045 156.118303 
L 174.322511 158.24245 
L 175.851977 163.655951 
L 177.381442 161.888639 
L 180.440373 152.708614 
L 181.969839 151.379719 
L 183.499304 140.112906 
L 185.02877 141.19857 
L 186.558235 141.55445 
L 188.087701 139.880913 
L 189.617166 136.666714 
L 191.146632 143.300613 
L 192.676097 144.481322 
L 194.205563 141.446194 
L 195.735028 144.647932 
L 197.264494 141.174087 
L 198.793959 146.425775 
L 200.323425 138.871093 
L 201.85289 138.951658 
L 203.382356 151.721011 
L 204.911821 159.457987 
L 206.441287 154.494698 
L 207.970752 154.395361 
L 209.500218 157.583004 
L 211.029683 166.316932 
L 212.559149 164.121323 
L 214.088614 166.429615 
L 215.61808 166.715341 
L 217.147545 168.059563 
L 218.677011 167.016157 
L 220.206476 164.317228 
L 221.735942 164.050621 
L 223.265407 161.608579 
L 227.853804 169.715174 
L 229.383269 171.927862 
L 230.912735 180.501315 
L 232.4422 176.239239 
L 233.971666 172.667327 
L 237.030597 159.587116 
L 238.560062 169.08445 
L 240.089528 167.802404 
L 241.618993 170.718562 
L 243.148459 165.5582 
L 244.677924 173.230487 
L 246.20739 165.618007 
L 247.736855 157.340702 
L 249.266321 163.815818 
L 250.795786 169.463642 
L 252.325252 172.065367 
L 253.854717 167.931723 
L 255.384183 177.015134 
L 256.913648 172.11263 
L 258.443114 170.519235 
L 259.97258 166.550969 
L 261.502045 171.009697 
L 263.031511 165.047557 
L 264.560976 162.968702 
L 266.090442 165.951694 
L 267.619907 163.242388 
L 269.149373 162.728738 
L 270.678838 163.82832 
L 272.208304 163.234955 
L 273.737769 166.721354 
L 275.267235 167.60393 
L 276.7967 167.116602 
L 279.855631 178.999372 
L 281.385097 182.425176 
L 282.914562 189.20542 
L 284.444028 197.965441 
L 285.973493 192.81928 
L 287.502959 194.090022 
L 289.032424 195.114822 
L 290.56189 195.801419 
L 292.091355 195.785262 
L 293.620821 205.477955 
L 295.150286 211.381622 
L 296.679752 207.329699 
L 298.209217 215.558429 
L 299.738683 213.991085 
L 301.268148 216.286138 
L 302.797614 221.880405 
L 304.327079 223.886623 
L 305.856545 223.865783 
L 307.38601 218.564784 
L 308.915476 218.105856 
L 310.444941 215.652861 
L 313.503872 202.143807 
L 315.033338 203.185975 
L 316.562803 206.765853 
L 318.092269 206.614026 
L 319.621734 208.84334 
L 321.1512 202.109445 
L 322.680665 209.051685 
L 324.210131 209.616843 
L 325.739596 198.535517 
L 327.269062 197.041116 
L 328.798527 202.513482 
L 331.857458 211.348961 
L 333.386924 214.252991 
L 334.916389 217.824744 
L 336.445855 216.687335 
L 337.97532 211.05004 
L 339.504786 209.550949 
L 341.034252 217.240039 
L 342.563717 213.942109 
L 344.093183 211.105374 
L 345.622648 217.74579 
L 347.152114 212.080623 
L 348.681579 213.634263 
L 350.211045 212.636407 
L 351.74051 209.800101 
L 353.269976 205.15128 
L 354.799441 209.918891 
L 356.328907 209.08099 
L 357.858372 216.431453 
L 359.387838 222.373107 
L 360.917303 216.740679 
L 362.446769 213.140274 
L 363.976234 218.264248 
L 365.5057 218.332732 
L 367.035165 222.72494 
L 368.564631 218.396106 
L 368.564631 218.396106 
" clip-path="url(#pf0b77e2553)" style="fill: none; stroke: #ff7f0e; stroke-width: 1.5; stroke-linecap: square"/>
   </g>
   <g id="line2d_18">
    <path d="M 64.200994 126.133867 
L 65.73046 123.962814 
L 67.259925 129.734494 
L 68.789391 123.688918 
L 70.318856 124.646752 
L 71.848322 126.095894 
L 74.907253 116.752858 
L 76.436718 118.966983 
L 77.966184 118.998659 
L 79.495649 113.504574 
L 81.025115 106.896895 
L 82.55458 116.021764 
L 84.084046 118.023256 
L 85.613511 117.963749 
L 87.142977 118.50254 
L 88.672442 122.284189 
L 90.201908 112.806149 
L 91.731373 118.153555 
L 93.260839 123.995269 
L 94.790305 119.792339 
L 96.31977 125.653396 
L 97.849236 129.816528 
L 99.378701 126.342074 
L 100.908167 122.054169 
L 102.437632 126.044524 
L 105.496563 128.30863 
L 107.026029 120.913583 
L 108.555494 127.146929 
L 110.08496 134.059704 
L 111.614425 125.498641 
L 113.143891 117.613673 
L 114.673356 116.589855 
L 116.202822 114.637802 
L 117.732287 107.613307 
L 119.261753 103.942592 
L 120.791218 97.529528 
L 122.320684 96.246752 
L 123.850149 96.36783 
L 125.379615 99.886787 
L 126.90908 95.589906 
L 128.438546 94.826622 
L 129.968011 96.20534 
L 131.497477 94.293086 
L 133.026942 81.296449 
L 134.556408 81.764639 
L 136.085873 76.959989 
L 137.615339 74.735954 
L 139.144804 75.386538 
L 140.67427 75.782868 
L 142.203735 84.544292 
L 143.733201 81.191504 
L 145.262666 81.261937 
L 146.792132 74.291347 
L 148.321597 88.28586 
L 149.851063 96.87406 
L 151.380528 90.840846 
L 152.909994 80.453264 
L 154.439459 71.141399 
L 155.968925 75.918642 
L 157.49839 83.807237 
L 159.027856 86.457987 
L 160.557321 79.058623 
L 162.086787 82.236065 
L 163.616252 78.086669 
L 165.145718 76.619147 
L 166.675183 81.060787 
L 168.204649 86.523817 
L 169.734114 80.665815 
L 171.26358 79.922726 
L 172.793045 76.715453 
L 174.322511 80.613644 
L 175.851977 72.277954 
L 177.381442 65.369187 
L 178.910908 56.658654 
L 180.440373 58.225056 
L 181.969839 60.332008 
L 183.499304 65.625381 
L 185.02877 62.62363 
L 186.558235 53.864348 
L 188.087701 51.610949 
L 189.617166 53.574095 
L 191.146632 52.268875 
L 192.676097 49.863726 
L 194.205563 45.286885 
L 195.735028 47.540077 
L 197.264494 56.050542 
L 198.793959 55.352516 
L 200.323425 52.316818 
L 201.85289 41.634175 
L 203.382356 40.360412 
L 204.911821 52.797658 
L 206.441287 53.783274 
L 207.970752 59.428676 
L 209.500218 57.153956 
L 211.029683 58.234421 
L 212.559149 66.630052 
L 214.088614 68.191276 
L 215.61808 71.641037 
L 217.147545 70.342398 
L 218.677011 65.811496 
L 220.206476 61.653448 
L 221.735942 63.776527 
L 223.265407 67.968919 
L 224.794873 59.540085 
L 226.324338 58.457397 
L 227.853804 52.909763 
L 229.383269 45.92065 
L 230.912735 45.475775 
L 232.4422 45.874537 
L 233.971666 52.912322 
L 235.501131 43.990483 
L 237.030597 43.241506 
L 238.560062 37.400784 
L 240.089528 39.979908 
L 241.618993 36.428977 
L 243.148459 46.699012 
L 244.677924 45.298266 
L 246.20739 54.130694 
L 247.736855 47.650502 
L 249.266321 49.805607 
L 250.795786 55.821075 
L 252.325252 45.974007 
L 253.854717 48.516028 
L 255.384183 46.477907 
L 256.913648 47.677569 
L 258.443114 46.759748 
L 259.97258 42.775253 
L 261.502045 43.391458 
L 263.031511 37.851647 
L 264.560976 43.539071 
L 266.090442 35.222579 
L 267.619907 40.620722 
L 269.149373 43.128206 
L 270.678838 56.24134 
L 272.208304 63.181382 
L 273.737769 61.353732 
L 275.267235 60.206885 
L 276.7967 60.197772 
L 278.326166 62.899017 
L 279.855631 55.708225 
L 281.385097 60.384607 
L 282.914562 58.216689 
L 284.444028 52.779 
L 285.973493 45.488929 
L 287.502959 45.482586 
L 289.032424 45.978379 
L 290.56189 49.514589 
L 292.091355 51.921993 
L 293.620821 50.999952 
L 295.150286 45.834495 
L 296.679752 47.547403 
L 298.209217 49.443256 
L 299.738683 40.819274 
L 301.268148 41.357068 
L 302.797614 33.575989 
L 304.327079 29.880369 
L 305.856545 31.721381 
L 307.38601 33.808505 
L 308.915476 25.542987 
L 310.444941 30.226099 
L 311.974407 26.1367 
L 313.503872 30.740474 
L 315.033338 22.298362 
L 316.562803 16.157579 
L 318.092269 20.795028 
L 319.621734 23.246604 
L 321.1512 24.159995 
L 322.680665 25.659924 
L 324.210131 26.038394 
L 325.739596 27.927978 
L 327.269062 21.894778 
L 328.798527 23.897361 
L 330.327993 21.320709 
L 331.857458 20.708791 
L 333.386924 19.383078 
L 334.916389 20.159987 
L 336.445855 19.420022 
L 337.97532 31.857579 
L 339.504786 40.931878 
L 341.034252 54.417853 
L 342.563717 59.720594 
L 344.093183 62.932359 
L 345.622648 66.524402 
L 347.152114 60.540668 
L 348.681579 58.454412 
L 350.211045 66.724927 
L 351.74051 67.310618 
L 353.269976 61.00155 
L 354.799441 68.767785 
L 356.328907 62.525513 
L 357.858372 73.22016 
L 359.387838 69.829398 
L 360.917303 72.559912 
L 362.446769 71.156128 
L 363.976234 79.512509 
L 365.5057 81.282555 
L 367.035165 89.485932 
L 368.564631 95.877506 
L 368.564631 95.877506 
" clip-path="url(#pf0b77e2553)" style="fill: none; stroke: #2ca02c; stroke-width: 1.5; stroke-linecap: square"/>
   </g>
   <g id="line2d_19">
    <path d="M 64.200994 127.317729 
L 65.73046 131.79218 
L 67.259925 129.164429 
L 68.789391 130.01843 
L 70.318856 129.908251 
L 71.848322 125.392838 
L 73.377787 123.849503 
L 74.907253 127.384833 
L 76.436718 122.95642 
L 77.966184 124.234458 
L 79.495649 121.551424 
L 81.025115 116.174806 
L 82.55458 115.129766 
L 84.084046 113.762888 
L 85.613511 117.600648 
L 87.142977 122.04779 
L 88.672442 117.685336 
L 90.201908 124.828478 
L 91.731373 125.871884 
L 93.260839 127.955358 
L 94.790305 128.858724 
L 96.31977 125.246239 
L 97.849236 129.75355 
L 99.378701 131.170195 
L 100.908167 134.799294 
L 103.967098 127.22219 
L 105.496563 119.376806 
L 107.026029 117.097811 
L 108.555494 117.470468 
L 110.08496 123.201003 
L 111.614425 118.590347 
L 113.143891 120.265171 
L 114.673356 119.365308 
L 116.202822 112.176968 
L 117.732287 120.568843 
L 119.261753 124.999699 
L 120.791218 122.735916 
L 122.320684 123.097808 
L 123.850149 113.812993 
L 125.379615 114.180016 
L 128.438546 121.975442 
L 129.968011 127.94552 
L 131.497477 135.675846 
L 133.026942 136.541081 
L 134.556408 139.946352 
L 136.085873 138.899336 
L 137.615339 136.83216 
L 139.144804 130.203349 
L 140.67427 124.174159 
L 142.203735 122.289217 
L 143.733201 127.525609 
L 146.792132 128.074934 
L 148.321597 129.449379 
L 149.851063 132.620648 
L 151.380528 138.092563 
L 152.909994 140.22137 
L 154.439459 144.67309 
L 155.968925 143.374935 
L 157.49839 137.826136 
L 159.027856 136.877424 
L 160.557321 135.38647 
L 162.086787 136.802864 
L 163.616252 124.611482 
L 165.145718 123.476302 
L 166.675183 119.183819 
L 168.204649 119.123551 
L 169.734114 112.284426 
L 171.26358 109.470288 
L 172.793045 108.057661 
L 174.322511 101.99394 
L 175.851977 95.096919 
L 177.381442 91.064067 
L 178.910908 93.003505 
L 180.440373 95.158017 
L 181.969839 89.543012 
L 183.499304 93.273796 
L 185.02877 91.725657 
L 186.558235 93.10153 
L 188.087701 81.771752 
L 189.617166 80.364847 
L 191.146632 76.468552 
L 192.676097 78.07708 
L 194.205563 73.339905 
L 195.735028 65.638467 
L 197.264494 63.131145 
L 198.793959 57.02119 
L 200.323425 57.825609 
L 201.85289 64.223196 
L 203.382356 62.683273 
L 204.911821 52.239938 
L 206.441287 46.229884 
L 207.970752 44.634634 
L 209.500218 46.093606 
L 211.029683 49.138637 
L 212.559149 54.520881 
L 214.088614 51.000546 
L 215.61808 55.492803 
L 217.147545 41.073568 
L 218.677011 41.773552 
L 220.206476 30.472576 
L 221.735942 33.528971 
L 223.265407 34.235838 
L 224.794873 44.278966 
L 226.324338 43.251926 
L 227.853804 44.500764 
L 229.383269 52.394891 
L 230.912735 56.256577 
L 232.4422 57.852211 
L 233.971666 53.893305 
L 235.501131 54.984851 
L 237.030597 58.747977 
L 240.089528 63.107945 
L 241.618993 62.523145 
L 243.148459 49.496335 
L 244.677924 42.227539 
L 246.20739 43.676147 
L 247.736855 47.947148 
L 249.266321 50.749485 
L 250.795786 48.124797 
L 252.325252 39.813868 
L 253.854717 37.220014 
L 255.384183 32.969383 
L 256.913648 34.406905 
L 258.443114 34.597906 
L 259.97258 25.024426 
L 261.502045 23.757224 
L 263.031511 22.036068 
L 264.560976 21.496399 
L 266.090442 20.832356 
L 267.619907 26.570132 
L 269.149373 25.652522 
L 270.678838 30.292141 
L 272.208304 23.085689 
L 273.737769 17.006654 
L 275.267235 18.501524 
L 276.7967 17.33015 
L 278.326166 23.655435 
L 279.855631 20.88894 
L 281.385097 23.820252 
L 282.914562 22.748415 
L 284.444028 19.631872 
L 285.973493 20.048876 
L 287.502959 13.746338 
L 289.032424 21.702153 
L 290.56189 23.474668 
L 292.091355 29.633478 
L 293.620821 25.516382 
L 295.150286 31.389307 
L 296.679752 35.410977 
L 298.209217 40.831343 
L 299.738683 32.27399 
L 301.268148 28.343345 
L 302.797614 31.696211 
L 304.327079 33.909178 
L 307.38601 43.668098 
L 308.915476 46.861042 
L 310.444941 46.327897 
L 311.974407 40.634268 
L 313.503872 47.839074 
L 315.033338 43.874252 
L 316.562803 51.210859 
L 318.092269 61.415246 
L 319.621734 54.886775 
L 321.1512 56.877682 
L 322.680665 58.561193 
L 324.210131 64.246237 
L 325.739596 66.884629 
L 327.269062 68.080223 
L 328.798527 76.358447 
L 330.327993 72.646604 
L 331.857458 66.137987 
L 333.386924 67.412871 
L 334.916389 62.767911 
L 336.445855 66.737784 
L 337.97532 74.258585 
L 339.504786 77.432904 
L 341.034252 76.515657 
L 342.563717 76.646123 
L 344.093183 87.138038 
L 345.622648 92.08028 
L 347.152114 90.983449 
L 348.681579 92.851173 
L 350.211045 87.074743 
L 351.74051 82.670084 
L 353.269976 77.712386 
L 354.799441 74.447337 
L 356.328907 71.593121 
L 357.858372 70.147514 
L 359.387838 68.080584 
L 362.446769 72.371475 
L 363.976234 66.550599 
L 365.5057 56.929088 
L 367.035165 53.597627 
L 368.564631 54.344115 
L 368.564631 54.344115 
" clip-path="url(#pf0b77e2553)" style="fill: none; stroke: #d62728; stroke-width: 1.5; stroke-linecap: square"/>
   </g>
   <g id="patch_3">
    <path d="M 48.982813 228.96 
L 48.982813 7.2 
" style="fill: none; stroke: #000000; stroke-width: 0.8; stroke-linejoin: miter; stroke-linecap: square"/>
   </g>
   <g id="patch_4">
    <path d="M 383.782813 228.96 
L 383.782813 7.2 
" style="fill: none; stroke: #000000; stroke-width: 0.8; stroke-linejoin: miter; stroke-linecap: square"/>
   </g>
   <g id="patch_5">
    <path d="M 48.982812 228.96 
L 383.782812 228.96 
" style="fill: none; stroke: #000000; stroke-width: 0.8; stroke-linejoin: miter; stroke-linecap: square"/>
   </g>
   <g id="patch_6">
    <path d="M 48.982812 7.2 
L 383.782812 7.2 
" style="fill: none; stroke: #000000; stroke-width: 0.8; stroke-linejoin: miter; stroke-linecap: square"/>
   </g>
   <g id="legend_1">
    <g id="patch_7">
     <path d="M 55.982813 73.9125 
L 95.682813 73.9125 
Q 97.682813 73.9125 97.682813 71.9125 
L 97.682813 14.2 
Q 97.682813 12.2 95.682813 12.2 
L 55.982813 12.2 
Q 53.982813 12.2 53.982813 14.2 
L 53.982813 71.9125 
Q 53.982813 73.9125 55.982813 73.9125 
z
" style="fill: #ffffff; opacity: 0.8; stroke: #cccccc; stroke-linejoin: miter"/>
    </g>
    <g id="line2d_20">
     <path d="M 57.982813 20.298437 
L 67.982812 20.298437 
L 77.982812 20.298437 
" style="fill: none; stroke: #1f77b4; stroke-width: 1.5; stroke-linecap: square"/>
    </g>
    <g id="text_18">
     <!-- A -->
     <g transform="translate(85.982812 23.798437) scale(0.1 -0.1)">
      <defs>
       <path id="DejaVuSans-41" d="M 2188 4044 
L 1331 1722 
L 3047 1722 
L 2188 4044 
z
M 1831 4666 
L 2547 4666 
L 4325 0 
L 3669 0 
L 3244 1197 
L 1141 1197 
L 716 0 
L 50 0 
L 1831 4666 
z
" transform="scale(0.015625)"/>
      </defs>
      <use xlink:href="#DejaVuSans-41"/>
     </g>
    </g>
    <g id="line2d_21">
     <path d="M 57.982813 34.976562 
L 67.982812 34.976562 
L 77.982812 34.976562 
" style="fill: none; stroke: #ff7f0e; stroke-width: 1.5; stroke-linecap: square"/>
    </g>
    <g id="text_19">
     <!-- B -->
     <g transform="translate(85.982812 38.476562) scale(0.1 -0.1)">
      <defs>
       <path id="DejaVuSans-42" d="M 1259 2228 
L 1259 519 
L 2272 519 
Q 2781 519 3026 730 
Q 3272 941 3272 1375 
Q 3272 1813 3026 2020 
Q 2781 2228 2272 2228 
L 1259 2228 
z
M 1259 4147 
L 1259 2741 
L 2194 2741 
Q 2656 2741 2882 2914 
Q 3109 3088 3109 3444 
Q 3109 3797 2882 3972 
Q 2656 4147 2194 4147 
L 1259 4147 
z
M 628 4666 
L 2241 4666 
Q 2963 4666 3353 4366 
Q 3744 4066 3744 3513 
Q 3744 3084 3544 2831 
Q 3344 2578 2956 2516 
Q 3422 2416 3680 2098 
Q 3938 1781 3938 1306 
Q 3938 681 3513 340 
Q 3088 0 2303 0 
L 628 0 
L 628 4666 
z
" transform="scale(0.015625)"/>
      </defs>
      <use xlink:href="#DejaVuSans-42"/>
     </g>
    </g>
    <g id="line2d_22">
     <path d="M 57.982813 49.654687 
L 67.982812 49.654687 
L 77.982812 49.654687 
" style="fill: none; stroke: #2ca02c; stroke-width: 1.5; stroke-linecap: square"/>
    </g>
    <g id="text_20">
     <!-- C -->
     <g transform="translate(85.982812 53.154687) scale(0.1 -0.1)">
      <defs>
       <path id="DejaVuSans-43" d="M 4122 4306 
L 4122 3641 
Q 3803 3938 3442 4084 
Q 3081 4231 2675 4231 
Q 1875 4231 1450 3742 
Q 1025 3253 1025 2328 
Q 1025 1406 1450 917 
Q 1875 428 2675 428 
Q 3081 428 3442 575 
Q 3803 722 4122 1019 
L 4122 359 
Q 3791 134 3420 21 
Q 3050 -91 2638 -91 
Q 1578 -91 968 557 
Q 359 1206 359 2328 
Q 359 3453 968 4101 
Q 1578 4750 2638 4750 
Q 3056 4750 3426 4639 
Q 3797 4528 4122 4306 
z
" transform="scale(0.015625)"/>
      </defs>
      <use xlink:href="#DejaVuSans-43"/>
     </g>
    </g>
    <g id="line2d_23">
     <path d="M 57.982813 64.332812 
L 67.982812 64.332812 
L 77.982812 64.332812 
" style="fill: none; stroke: #d62728; stroke-width: 1.5; stroke-linecap: square"/>
    </g>
    <g id="text_21">
     <!-- D -->
     <g transform="translate(85.982812 67.832812) scale(0.1 -0.1)">
      <defs>
       <path id="DejaVuSans-44" d="M 1259 4147 
L 1259 519 
L 2022 519 
Q 2988 519 3436 956 
Q 3884 1394 3884 2338 
Q 3884 3275 3436 3711 
Q 2988 4147 2022 4147 
L 1259 4147 
z
M 628 4666 
L 1925 4666 
Q 3281 4666 3915 4102 
Q 4550 3538 4550 2338 
Q 4550 1131 3912 565 
Q 3275 0 1925 0 
L 628 0 
L 628 4666 
z
" transform="scale(0.015625)"/>
      </defs>
      <use xlink:href="#DejaVuSans-44"/>
     </g>
    </g>
   </g>
  </g>
 </g>
 <defs>
  <clipPath id="pf0b77e2553">
   <rect x="48.982813" y="7.2" width="334.8" height="221.76"/>
  </clipPath>
 </defs>
</svg>
