<?xml version="1.0" encoding="utf-8" standalone="no"?>
<!DOCTYPE svg PUBLIC "-//W3C//DTD SVG 1.1//EN"
  "http://www.w3.org/Graphics/SVG/1.1/DTD/svg11.dtd">
<svg xmlns:xlink="http://www.w3.org/1999/xlink" width="388.965625pt" height="267.076668pt" viewBox="0 0 388.965625 267.076668" xmlns="http://www.w3.org/2000/svg" version="1.1">
 <metadata>
  <rdf:RDF xmlns:dc="http://purl.org/dc/elements/1.1/" xmlns:cc="http://creativecommons.org/ns#" xmlns:rdf="http://www.w3.org/1999/02/22-rdf-syntax-ns#">
   <cc:Work>
    <dc:type rdf:resource="http://purl.org/dc/dcmitype/StillImage"/>
    <dc:date>2026-02-18T13:47:05.745597</dc:date>
    <dc:format>image/svg+xml</dc:format>
    <dc:creator>
     <cc:Agent>
      <dc:title>Matplotlib v3.10.7, https://matplotlib.org/</dc:title>
     </cc:Agent>
    </dc:creator>
   </cc:Work>
  </rdf:RDF>
 </metadata>
 <defs>
  <style type="text/css">*{stroke-linejoin: round; stroke-linecap: butt}</style>
 </defs>
 <g id="figure_1">
  <g id="patch_1">
   <path d="M -0 267.076668 
L 388.965625 267.076668 
L 388.965625 0 
L -0 0 
z
" style="fill: #ffffff"/>
  </g>
  <g id="axes_1">
   <g id="patch_2">
    <path d="M 46.965625 229.520418 
L 381.765625 229.520418 
L 381.765625 7.760418 
L 46.965625 7.760418 
z
" style="fill: #ffffff"/>
   </g>
   <g id="matplotlib.axis_1">
    <g id="xtick_1">
     <g id="line2d_1">
      <defs>
       <path id="m5e5018edd9" d="M 0 0 
L 0 3.5 
" style="stroke: #000000; stroke-width: 0.8"/>
      </defs>
      <g>
       <use xlink:href="#m5e5018edd9" x="62.183807" y="229.520418" style="stroke: #000000; stroke-width: 0.8"/>
      </g>
     </g>
     <g id="text_1">
      <!-- 0.00 -->
      <g transform="translate(51.050994 244.118855) scale(0.1 -0.1)">
       <defs>
        <path id="DejaVuSans-30" d="M 2034 4250 
Q 1547 4250 1301 3770 
Q 1056 3291 1056 2328 
Q 1056 1369 1301 889 
Q 1547 409 2034 409 
Q 2525 409 2770 889 
Q 3016 1369 3016 2328 
Q 3016 3291 2770 3770 
Q 2525 4250 2034 4250 
z
M 2034 4750 
Q 2819 4750 3233 4129 
Q 3647 3509 3647 2328 
Q 3647 1150 3233 529 
Q 2819 -91 2034 -91 
Q 1250 -91 836 529 
Q 422 1150 422 2328 
Q 422 3509 836 4129 
Q 1250 4750 2034 4750 
z
" transform="scale(0.015625)"/>
        <path id="DejaVuSans-2e" d="M 684 794 
L 1344 794 
L 1344 0 
L 684 0 
L 684 794 
z
" transform="scale(0.015625)"/>
       </defs>
       <use xlink:href="#DejaVuSans-30"/>
       <use xlink:href="#DejaVuSans-2e" transform="translate(63.623047 0)"/>
       <use xlink:href="#DejaVuSans-30" transform="translate(95.410156 0)"/>
       <use xlink:href="#DejaVuSans-30" transform="translate(159.033203 0)"/>
      </g>
     </g>
    </g>
    <g id="xtick_2">
     <g id="line2d_2">
      <g>
       <use xlink:href="#m5e5018edd9" x="100.229261" y="229.520418" style="stroke: #000000; stroke-width: 0.8"/>
      </g>
     </g>
     <g id="text_2">
      <!-- 0.25 -->
      <g transform="translate(89.096449 244.118855) scale(0.1 -0.1)">
       <defs>
        <path id="DejaVuSans-32" d="M 1228 531 
L 3431 531 
L 3431 0 
L 469 0 
L 469 531 
Q 828 903 1448 1529 
Q 2069 2156 2228 2338 
Q 2531 2678 2651 2914 
Q 2772 3150 2772 3378 
Q 2772 3750 2511 3984 
Q 2250 4219 1831 4219 
Q 1534 4219 1204 4116 
Q 875 4013 500 3803 
L 500 4441 
Q 881 4594 1212 4672 
Q 1544 4750 1819 4750 
Q 2544 4750 2975 4387 
Q 3406 4025 3406 3419 
Q 3406 3131 3298 2873 
Q 3191 2616 2906 2266 
Q 2828 2175 2409 1742 
Q 1991 1309 1228 531 
z
" transform="scale(0.015625)"/>
        <path id="DejaVuSans-35" d="M 691 4666 
L 3169 4666 
L 3169 4134 
L 1269 4134 
L 1269 2991 
Q 1406 3038 1543 3061 
Q 1681 3084 1819 3084 
Q 2600 3084 3056 2656 
Q 3513 2228 3513 1497 
Q 3513 744 3044 326 
Q 2575 -91 1722 -91 
Q 1428 -91 1123 -41 
Q 819 9 494 109 
L 494 744 
Q 775 591 1075 516 
Q 1375 441 1709 441 
Q 2250 441 2565 725 
Q 2881 1009 2881 1497 
Q 2881 1984 2565 2268 
Q 2250 2553 1709 2553 
Q 1456 2553 1204 2497 
Q 953 2441 691 2322 
L 691 4666 
z
" transform="scale(0.015625)"/>
       </defs>
       <use xlink:href="#DejaVuSans-30"/>
       <use xlink:href="#DejaVuSans-2e" transform="translate(63.623047 0)"/>
       <use xlink:href="#DejaVuSans-32" transform="translate(95.410156 0)"/>
       <use xlink:href="#DejaVuSans-35" transform="translate(159.033203 0)"/>
      </g>
     </g>
    </g>
    <g id="xtick_3">
     <g id="line2d_3">
      <g>
       <use xlink:href="#m5e5018edd9" x="138.274716" y="229.520418" style="stroke: #000000; stroke-width: 0.8"/>
      </g>
     </g>
     <g id="text_3">
      <!-- 0.50 -->
      <g transform="translate(127.141903 244.118855) scale(0.1 -0.1)">
       <use xlink:href="#DejaVuSans-30"/>
       <use xlink:href="#DejaVuSans-2e" transform="translate(63.623047 0)"/>
       <use xlink:href="#DejaVuSans-35" transform="translate(95.410156 0)"/>
       <use xlink:href="#DejaVuSans-30" transform="translate(159.033203 0)"/>
      </g>
     </g>
    </g>
    <g id="xtick_4">
     <g id="line2d_4">
      <g>
       <use xlink:href="#m5e5018edd9" x="176.32017" y="229.520418" style="stroke: #000000; stroke-width: 0.8"/>
      </g>
     </g>
     <g id="text_4">
      <!-- 0.75 -->
      <g transform="translate(165.187358 244.118855) scale(0.1 -0.1)">
       <defs>
        <path id="DejaVuSans-37" d="M 525 4666 
L 3525 4666 
L 3525 4397 
L 1831 0 
L 1172 0 
L 2766 4134 
L 525 4134 
L 525 4666 
z
" transform="scale(0.015625)"/>
       </defs>
       <use xlink:href="#DejaVuSans-30"/>
       <use xlink:href="#DejaVuSans-2e" transform="translate(63.623047 0)"/>
       <use xlink:href="#DejaVuSans-37" transform="translate(95.410156 0)"/>
       <use xlink:href="#DejaVuSans-35" transform="translate(159.033203 0)"/>
      </g>
     </g>
    </g>
    <g id="xtick_5">
     <g id="line2d_5">
      <g>
       <use xlink:href="#m5e5018edd9" x="214.365625" y="229.520418" style="stroke: #000000; stroke-width: 0.8"/>
      </g>
     </g>
     <g id="text_5">
      <!-- 1.00 -->
      <g transform="translate(203.232813 244.118855) scale(0.1 -0.1)">
       <defs>
        <path id="DejaVuSans-31" d="M 794 531 
L 1825 531 
L 1825 4091 
L 703 3866 
L 703 4441 
L 1819 4666 
L 2450 4666 
L 2450 531 
L 3481 531 
L 3481 0 
L 794 0 
L 794 531 
z
" transform="scale(0.015625)"/>
       </defs>
       <use xlink:href="#DejaVuSans-31"/>
       <use xlink:href="#DejaVuSans-2e" transform="translate(63.623047 0)"/>
       <use xlink:href="#DejaVuSans-30" transform="translate(95.410156 0)"/>
       <use xlink:href="#DejaVuSans-30" transform="translate(159.033203 0)"/>
      </g>
     </g>
    </g>
    <g id="xtick_6">
     <g id="line2d_6">
      <g>
       <use xlink:href="#m5e5018edd9" x="252.41108" y="229.520418" style="stroke: #000000; stroke-width: 0.8"/>
      </g>
     </g>
     <g id="text_6">
      <!-- 1.25 -->
      <g transform="translate(241.278267 244.118855) scale(0.1 -0.1)">
       <use xlink:href="#DejaVuSans-31"/>
       <use xlink:href="#DejaVuSans-2e" transform="translate(63.623047 0)"/>
       <use xlink:href="#DejaVuSans-32" transform="translate(95.410156 0)"/>
       <use xlink:href="#DejaVuSans-35" transform="translate(159.033203 0)"/>
      </g>
     </g>
    </g>
    <g id="xtick_7">
     <g id="line2d_7">
      <g>
       <use xlink:href="#m5e5018edd9" x="290.456534" y="229.520418" style="stroke: #000000; stroke-width: 0.8"/>
      </g>
     </g>
     <g id="text_7">
      <!-- 1.50 -->
      <g transform="translate(279.323722 244.118855) scale(0.1 -0.1)">
       <use xlink:href="#DejaVuSans-31"/>
       <use xlink:href="#DejaVuSans-2e" transform="translate(63.623047 0)"/>
       <use xlink:href="#DejaVuSans-35" transform="translate(95.410156 0)"/>
       <use xlink:href="#DejaVuSans-30" transform="translate(159.033203 0)"/>
      </g>
     </g>
    </g>
    <g id="xtick_8">
     <g id="line2d_8">
      <g>
       <use xlink:href="#m5e5018edd9" x="328.501989" y="229.520418" style="stroke: #000000; stroke-width: 0.8"/>
      </g>
     </g>
     <g id="text_8">
      <!-- 1.75 -->
      <g transform="translate(317.369176 244.118855) scale(0.1 -0.1)">
       <use xlink:href="#DejaVuSans-31"/>
       <use xlink:href="#DejaVuSans-2e" transform="translate(63.623047 0)"/>
       <use xlink:href="#DejaVuSans-37" transform="translate(95.410156 0)"/>
       <use xlink:href="#DejaVuSans-35" transform="translate(159.033203 0)"/>
      </g>
     </g>
    </g>
    <g id="xtick_9">
     <g id="line2d_9">
      <g>
       <use xlink:href="#m5e5018edd9" x="366.547443" y="229.520418" style="stroke: #000000; stroke-width: 0.8"/>
      </g>
     </g>
     <g id="text_9">
      <!-- 2.00 -->
      <g transform="translate(355.414631 244.118855) scale(0.1 -0.1)">
       <use xlink:href="#DejaVuSans-32"/>
       <use xlink:href="#DejaVuSans-2e" transform="translate(63.623047 0)"/>
       <use xlink:href="#DejaVuSans-30" transform="translate(95.410156 0)"/>
       <use xlink:href="#DejaVuSans-30" transform="translate(159.033203 0)"/>
      </g>
     </g>
    </g>
    <g id="text_10">
     <!-- x [m] -->
     <g transform="translate(201.045313 257.79698) scale(0.1 -0.1)">
      <defs>
       <path id="DejaVuSans-78" d="M 3513 3500 
L 2247 1797 
L 3578 0 
L 2900 0 
L 1881 1375 
L 863 0 
L 184 0 
L 1544 1831 
L 300 3500 
L 978 3500 
L 1906 2253 
L 2834 3500 
L 3513 3500 
z
" transform="scale(0.015625)"/>
       <path id="DejaVuSans-20" transform="scale(0.015625)"/>
       <path id="DejaVuSans-5b" d="M 550 4863 
L 1875 4863 
L 1875 4416 
L 1125 4416 
L 1125 -397 
L 1875 -397 
L 1875 -844 
L 550 -844 
L 550 4863 
z
" transform="scale(0.015625)"/>
       <path id="DejaVuSans-6d" d="M 3328 2828 
Q 3544 3216 3844 3400 
Q 4144 3584 4550 3584 
Q 5097 3584 5394 3201 
Q 5691 2819 5691 2113 
L 5691 0 
L 5113 0 
L 5113 2094 
Q 5113 2597 4934 2840 
Q 4756 3084 4391 3084 
Q 3944 3084 3684 2787 
Q 3425 2491 3425 1978 
L 3425 0 
L 2847 0 
L 2847 2094 
Q 2847 2600 2669 2842 
Q 2491 3084 2119 3084 
Q 1678 3084 1418 2786 
Q 1159 2488 1159 1978 
L 1159 0 
L 581 0 
L 581 3500 
L 1159 3500 
L 1159 2956 
Q 1356 3278 1631 3431 
Q 1906 3584 2284 3584 
Q 2666 3584 2933 3390 
Q 3200 3197 3328 2828 
z
" transform="scale(0.015625)"/>
       <path id="DejaVuSans-5d" d="M 1947 4863 
L 1947 -844 
L 622 -844 
L 622 -397 
L 1369 -397 
L 1369 4416 
L 622 4416 
L 622 4863 
L 1947 4863 
z
" transform="scale(0.015625)"/>
      </defs>
      <use xlink:href="#DejaVuSans-78"/>
      <use xlink:href="#DejaVuSans-20" transform="translate(59.179688 0)"/>
      <use xlink:href="#DejaVuSans-5b" transform="translate(90.966797 0)"/>
      <use xlink:href="#DejaVuSans-6d" transform="translate(129.980469 0)"/>
      <use xlink:href="#DejaVuSans-5d" transform="translate(227.392578 0)"/>
     </g>
    </g>
   </g>
   <g id="matplotlib.axis_2">
    <g id="ytick_1">
     <g id="line2d_10">
      <defs>
       <path id="m5c60c06973" d="M 0 0 
L -3.5 0 
" style="stroke: #000000; stroke-width: 0.8"/>
      </defs>
      <g>
       <use xlink:href="#m5c60c06973" x="46.965625" y="213.381644" style="stroke: #000000; stroke-width: 0.8"/>
      </g>
     </g>
     <g id="text_11">
      <!-- 99 -->
      <g transform="translate(27.240625 217.180863) scale(0.1 -0.1)">
       <defs>
        <path id="DejaVuSans-39" d="M 703 97 
L 703 672 
Q 941 559 1184 500 
Q 1428 441 1663 441 
Q 2288 441 2617 861 
Q 2947 1281 2994 2138 
Q 2813 1869 2534 1725 
Q 2256 1581 1919 1581 
Q 1219 1581 811 2004 
Q 403 2428 403 3163 
Q 403 3881 828 4315 
Q 1253 4750 1959 4750 
Q 2769 4750 3195 4129 
Q 3622 3509 3622 2328 
Q 3622 1225 3098 567 
Q 2575 -91 1691 -91 
Q 1453 -91 1209 -44 
Q 966 3 703 97 
z
M 1959 2075 
Q 2384 2075 2632 2365 
Q 2881 2656 2881 3163 
Q 2881 3666 2632 3958 
Q 2384 4250 1959 4250 
Q 1534 4250 1286 3958 
Q 1038 3666 1038 3163 
Q 1038 2656 1286 2365 
Q 1534 2075 1959 2075 
z
" transform="scale(0.015625)"/>
       </defs>
       <use xlink:href="#DejaVuSans-39"/>
       <use xlink:href="#DejaVuSans-39" transform="translate(63.623047 0)"/>
      </g>
     </g>
    </g>
    <g id="ytick_2">
     <g id="line2d_11">
      <g>
       <use xlink:href="#m5c60c06973" x="46.965625" y="184.469869" style="stroke: #000000; stroke-width: 0.8"/>
      </g>
     </g>
     <g id="text_12">
      <!-- 100 -->
      <g transform="translate(20.878125 188.269088) scale(0.1 -0.1)">
       <use xlink:href="#DejaVuSans-31"/>
       <use xlink:href="#DejaVuSans-30" transform="translate(63.623047 0)"/>
       <use xlink:href="#DejaVuSans-30" transform="translate(127.246094 0)"/>
      </g>
     </g>
    </g>
    <g id="ytick_3">
     <g id="line2d_12">
      <g>
       <use xlink:href="#m5c60c06973" x="46.965625" y="155.558094" style="stroke: #000000; stroke-width: 0.8"/>
      </g>
     </g>
     <g id="text_13">
      <!-- 101 -->
      <g transform="translate(20.878125 159.357313) scale(0.1 -0.1)">
       <use xlink:href="#DejaVuSans-31"/>
       <use xlink:href="#DejaVuSans-30" transform="translate(63.623047 0)"/>
       <use xlink:href="#DejaVuSans-31" transform="translate(127.246094 0)"/>
      </g>
     </g>
    </g>
    <g id="ytick_4">
     <g id="line2d_13">
      <g>
       <use xlink:href="#m5c60c06973" x="46.965625" y="126.646319" style="stroke: #000000; stroke-width: 0.8"/>
      </g>
     </g>
     <g id="text_14">
      <!-- 102 -->
      <g transform="translate(20.878125 130.445538) scale(0.1 -0.1)">
       <use xlink:href="#DejaVuSans-31"/>
       <use xlink:href="#DejaVuSans-30" transform="translate(63.623047 0)"/>
       <use xlink:href="#DejaVuSans-32" transform="translate(127.246094 0)"/>
      </g>
     </g>
    </g>
    <g id="ytick_5">
     <g id="line2d_14">
      <g>
       <use xlink:href="#m5c60c06973" x="46.965625" y="97.734544" style="stroke: #000000; stroke-width: 0.8"/>
      </g>
     </g>
     <g id="text_15">
      <!-- 103 -->
      <g transform="translate(20.878125 101.533763) scale(0.1 -0.1)">
       <defs>
        <path id="DejaVuSans-33" d="M 2597 2516 
Q 3050 2419 3304 2112 
Q 3559 1806 3559 1356 
Q 3559 666 3084 287 
Q 2609 -91 1734 -91 
Q 1441 -91 1130 -33 
Q 819 25 488 141 
L 488 750 
Q 750 597 1062 519 
Q 1375 441 1716 441 
Q 2309 441 2620 675 
Q 2931 909 2931 1356 
Q 2931 1769 2642 2001 
Q 2353 2234 1838 2234 
L 1294 2234 
L 1294 2753 
L 1863 2753 
Q 2328 2753 2575 2939 
Q 2822 3125 2822 3475 
Q 2822 3834 2567 4026 
Q 2313 4219 1838 4219 
Q 1578 4219 1281 4162 
Q 984 4106 628 3988 
L 628 4550 
Q 988 4650 1302 4700 
Q 1616 4750 1894 4750 
Q 2613 4750 3031 4423 
Q 3450 4097 3450 3541 
Q 3450 3153 3228 2886 
Q 3006 2619 2597 2516 
z
" transform="scale(0.015625)"/>
       </defs>
       <use xlink:href="#DejaVuSans-31"/>
       <use xlink:href="#DejaVuSans-30" transform="translate(63.623047 0)"/>
       <use xlink:href="#DejaVuSans-33" transform="translate(127.246094 0)"/>
      </g>
     </g>
    </g>
    <g id="ytick_6">
     <g id="line2d_15">
      <g>
       <use xlink:href="#m5c60c06973" x="46.965625" y="68.822769" style="stroke: #000000; stroke-width: 0.8"/>
      </g>
     </g>
     <g id="text_16">
      <!-- 104 -->
      <g transform="translate(20.878125 72.621988) scale(0.1 -0.1)">
       <defs>
        <path id="DejaVuSans-34" d="M 2419 4116 
L 825 1625 
L 2419 1625 
L 2419 4116 
z
M 2253 4666 
L 3047 4666 
L 3047 1625 
L 3713 1625 
L 3713 1100 
L 3047 1100 
L 3047 0 
L 2419 0 
L 2419 1100 
L 313 1100 
L 313 1709 
L 2253 4666 
z
" transform="scale(0.015625)"/>
       </defs>
       <use xlink:href="#DejaVuSans-31"/>
       <use xlink:href="#DejaVuSans-30" transform="translate(63.623047 0)"/>
       <use xlink:href="#DejaVuSans-34" transform="translate(127.246094 0)"/>
      </g>
     </g>
    </g>
    <g id="ytick_7">
     <g id="line2d_16">
      <g>
       <use xlink:href="#m5c60c06973" x="46.965625" y="39.910994" style="stroke: #000000; stroke-width: 0.8"/>
      </g>
     </g>
     <g id="text_17">
      <!-- 105 -->
      <g transform="translate(20.878125 43.710213) scale(0.1 -0.1)">
       <use xlink:href="#DejaVuSans-31"/>
       <use xlink:href="#DejaVuSans-30" transform="translate(63.623047 0)"/>
       <use xlink:href="#DejaVuSans-35" transform="translate(127.246094 0)"/>
      </g>
     </g>
    </g>
    <g id="ytick_8">
     <g id="line2d_17">
      <g>
       <use xlink:href="#m5c60c06973" x="46.965625" y="10.999219" style="stroke: #000000; stroke-width: 0.8"/>
      </g>
     </g>
     <g id="text_18">
      <!-- 106 -->
      <g transform="translate(20.878125 14.798437) scale(0.1 -0.1)">
       <defs>
        <path id="DejaVuSans-36" d="M 2113 2584 
Q 1688 2584 1439 2293 
Q 1191 2003 1191 1497 
Q 1191 994 1439 701 
Q 1688 409 2113 409 
Q 2538 409 2786 701 
Q 3034 994 3034 1497 
Q 3034 2003 2786 2293 
Q 2538 2584 2113 2584 
z
M 3366 4563 
L 3366 3988 
Q 3128 4100 2886 4159 
Q 2644 4219 2406 4219 
Q 1781 4219 1451 3797 
Q 1122 3375 1075 2522 
Q 1259 2794 1537 2939 
Q 1816 3084 2150 3084 
Q 2853 3084 3261 2657 
Q 3669 2231 3669 1497 
Q 3669 778 3244 343 
Q 2819 -91 2113 -91 
Q 1303 -91 875 529 
Q 447 1150 447 2328 
Q 447 3434 972 4092 
Q 1497 4750 2381 4750 
Q 2619 4750 2861 4703 
Q 3103 4656 3366 4563 
z
" transform="scale(0.015625)"/>
       </defs>
       <use xlink:href="#DejaVuSans-31"/>
       <use xlink:href="#DejaVuSans-30" transform="translate(63.623047 0)"/>
       <use xlink:href="#DejaVuSans-36" transform="translate(127.246094 0)"/>
      </g>
     </g>
    </g>
    <g id="text_19">
     <!-- [K] -->
     <g transform="translate(14.798438 125.820886) rotate(-90) scale(0.1 -0.1)">
      <defs>
       <path id="DejaVuSans-4b" d="M 628 4666 
L 1259 4666 
L 1259 2694 
L 3353 4666 
L 4166 4666 
L 1850 2491 
L 4331 0 
L 3500 0 
L 1259 2247 
L 1259 0 
L 628 0 
L 628 4666 
z
" transform="scale(0.015625)"/>
      </defs>
      <use xlink:href="#DejaVuSans-5b"/>
      <use xlink:href="#DejaVuSans-4b" transform="translate(39.013672 0)"/>
      <use xlink:href="#DejaVuSans-5d" transform="translate(104.589844 0)"/>
     </g>
    </g>
   </g>
   <g id="line2d_18">
    <defs>
     <path id="m4d56ff1105" d="M 0 3 
C 0.795609 3 1.55874 2.683901 2.12132 2.12132 
C 2.683901 1.55874 3 0.795609 3 0 
C 3 -0.795609 2.683901 -1.55874 2.12132 -2.12132 
C 1.55874 -2.683901 0.795609 -3 0 -3 
C -0.795609 -3 -1.55874 -2.683901 -2.12132 -2.12132 
C -2.683901 -1.55874 -3 -0.795609 -3 0 
C -3 0.795609 -2.683901 1.55874 -2.12132 2.12132 
C -1.55874 2.683901 -0.795609 3 0 3 
z
" style="stroke: #1f77b4"/>
    </defs>
    <g clip-path="url(#p9a6346d0fa)">
     <use xlink:href="#m4d56ff1105" x="62.183807" y="166.054176" style="fill: #1f77b4; stroke: #1f77b4"/>
     <use xlink:href="#m4d56ff1105" x="68.39531" y="173.719675" style="fill: #1f77b4; stroke: #1f77b4"/>
     <use xlink:href="#m4d56ff1105" x="74.606812" y="177.384889" style="fill: #1f77b4; stroke: #1f77b4"/>
     <use xlink:href="#m4d56ff1105" x="80.818315" y="175.141482" style="fill: #1f77b4; stroke: #1f77b4"/>
     <use xlink:href="#m4d56ff1105" x="87.029818" y="149.156058" style="fill: #1f77b4; stroke: #1f77b4"/>
     <use xlink:href="#m4d56ff1105" x="93.241321" y="143.329579" style="fill: #1f77b4; stroke: #1f77b4"/>
     <use xlink:href="#m4d56ff1105" x="99.452824" y="149.229865" style="fill: #1f77b4; stroke: #1f77b4"/>
     <use xlink:href="#m4d56ff1105" x="105.664326" y="142.727561" style="fill: #1f77b4; stroke: #1f77b4"/>
     <use xlink:href="#m4d56ff1105" x="111.875829" y="145.151257" style="fill: #1f77b4; stroke: #1f77b4"/>
     <use xlink:href="#m4d56ff1105" x="118.087332" y="130.883635" style="fill: #1f77b4; stroke: #1f77b4"/>
     <use xlink:href="#m4d56ff1105" x="124.298835" y="131.380283" style="fill: #1f77b4; stroke: #1f77b4"/>
     <use xlink:href="#m4d56ff1105" x="130.510337" y="151.938702" style="fill: #1f77b4; stroke: #1f77b4"/>
     <use xlink:href="#m4d56ff1105" x="136.72184" y="124.278616" style="fill: #1f77b4; stroke: #1f77b4"/>
     <use xlink:href="#m4d56ff1105" x="142.933343" y="145.146496" style="fill: #1f77b4; stroke: #1f77b4"/>
     <use xlink:href="#m4d56ff1105" x="149.144846" y="122.071699" style="fill: #1f77b4; stroke: #1f77b4"/>
     <use xlink:href="#m4d56ff1105" x="155.356349" y="135.138636" style="fill: #1f77b4; stroke: #1f77b4"/>
     <use xlink:href="#m4d56ff1105" x="161.567851" y="112.310936" style="fill: #1f77b4; stroke: #1f77b4"/>
     <use xlink:href="#m4d56ff1105" x="167.779354" y="118.662185" style="fill: #1f77b4; stroke: #1f77b4"/>
     <use xlink:href="#m4d56ff1105" x="173.990857" y="122.701406" style="fill: #1f77b4; stroke: #1f77b4"/>
     <use xlink:href="#m4d56ff1105" x="180.20236" y="116.19579" style="fill: #1f77b4; stroke: #1f77b4"/>
     <use xlink:href="#m4d56ff1105" x="186.413862" y="124.647475" style="fill: #1f77b4; stroke: #1f77b4"/>
     <use xlink:href="#m4d56ff1105" x="192.625365" y="118.922815" style="fill: #1f77b4; stroke: #1f77b4"/>
     <use xlink:href="#m4d56ff1105" x="198.836868" y="100.176942" style="fill: #1f77b4; stroke: #1f77b4"/>
     <use xlink:href="#m4d56ff1105" x="205.048371" y="97.904306" style="fill: #1f77b4; stroke: #1f77b4"/>
     <use xlink:href="#m4d56ff1105" x="211.259874" y="95.873646" style="fill: #1f77b4; stroke: #1f77b4"/>
     <use xlink:href="#m4d56ff1105" x="217.471376" y="99.622542" style="fill: #1f77b4; stroke: #1f77b4"/>
     <use xlink:href="#m4d56ff1105" x="223.682879" y="78.93405" style="fill: #1f77b4; stroke: #1f77b4"/>
     <use xlink:href="#m4d56ff1105" x="229.894382" y="76.457288" style="fill: #1f77b4; stroke: #1f77b4"/>
     <use xlink:href="#m4d56ff1105" x="236.105885" y="82.044562" style="fill: #1f77b4; stroke: #1f77b4"/>
     <use xlink:href="#m4d56ff1105" x="242.317388" y="80.108684" style="fill: #1f77b4; stroke: #1f77b4"/>
     <use xlink:href="#m4d56ff1105" x="248.52889" y="76.060218" style="fill: #1f77b4; stroke: #1f77b4"/>
     <use xlink:href="#m4d56ff1105" x="254.740393" y="81.769845" style="fill: #1f77b4; stroke: #1f77b4"/>
     <use xlink:href="#m4d56ff1105" x="260.951896" y="86.158193" style="fill: #1f77b4; stroke: #1f77b4"/>
     <use xlink:href="#m4d56ff1105" x="267.163399" y="66.254383" style="fill: #1f77b4; stroke: #1f77b4"/>
     <use xlink:href="#m4d56ff1105" x="273.374901" y="68.974785" style="fill: #1f77b4; stroke: #1f77b4"/>
     <use xlink:href="#m4d56ff1105" x="279.586404" y="72.243886" style="fill: #1f77b4; stroke: #1f77b4"/>
     <use xlink:href="#m4d56ff1105" x="285.797907" y="64.216986" style="fill: #1f77b4; stroke: #1f77b4"/>
     <use xlink:href="#m4d56ff1105" x="292.00941" y="49.596495" style="fill: #1f77b4; stroke: #1f77b4"/>
     <use xlink:href="#m4d56ff1105" x="298.220913" y="45.35813" style="fill: #1f77b4; stroke: #1f77b4"/>
     <use xlink:href="#m4d56ff1105" x="304.432415" y="59.068311" style="fill: #1f77b4; stroke: #1f77b4"/>
     <use xlink:href="#m4d56ff1105" x="310.643918" y="49.938682" style="fill: #1f77b4; stroke: #1f77b4"/>
     <use xlink:href="#m4d56ff1105" x="316.855421" y="54.206627" style="fill: #1f77b4; stroke: #1f77b4"/>
     <use xlink:href="#m4d56ff1105" x="323.066924" y="43.379993" style="fill: #1f77b4; stroke: #1f77b4"/>
     <use xlink:href="#m4d56ff1105" x="329.278426" y="47.842467" style="fill: #1f77b4; stroke: #1f77b4"/>
     <use xlink:href="#m4d56ff1105" x="335.489929" y="43.339499" style="fill: #1f77b4; stroke: #1f77b4"/>
     <use xlink:href="#m4d56ff1105" x="341.701432" y="25.972307" style="fill: #1f77b4; stroke: #1f77b4"/>
     <use xlink:href="#m4d56ff1105" x="347.912935" y="42.194008" style="fill: #1f77b4; stroke: #1f77b4"/>
     <use xlink:href="#m4d56ff1105" x="354.124438" y="27.79391" style="fill: #1f77b4; stroke: #1f77b4"/>
     <use xlink:href="#m4d56ff1105" x="360.33594" y="40.432142" style="fill: #1f77b4; stroke: #1f77b4"/>
     <use xlink:href="#m4d56ff1105" x="366.547443" y="15.837774" style="fill: #1f77b4; stroke: #1f77b4"/>
    </g>
   </g>
   <g id="line2d_19">
    <defs>
     <path id="mcb38814b14" d="M -0 3 
L 3 -3 
L -3 -3 
z
" style="stroke: #ff7f0e; stroke-linejoin: miter"/>
    </defs>
    <g clip-path="url(#p9a6346d0fa)">
     <use xlink:href="#mcb38814b14" x="62.183807" y="190.625235" style="fill: #ff7f0e; stroke: #ff7f0e; stroke-linejoin: miter"/>
     <use xlink:href="#mcb38814b14" x="68.39531" y="204.69094" style="fill: #ff7f0e; stroke: #ff7f0e; stroke-linejoin: miter"/>
     <use xlink:href="#mcb38814b14" x="74.606812" y="184.500712" style="fill: #ff7f0e; stroke: #ff7f0e; stroke-linejoin: miter"/>
     <use xlink:href="#mcb38814b14" x="80.818315" y="206.378012" style="fill: #ff7f0e; stroke: #ff7f0e; stroke-linejoin: miter"/>
     <use xlink:href="#mcb38814b14" x="87.029818" y="196.583469" style="fill: #ff7f0e; stroke: #ff7f0e; stroke-linejoin: miter"/>
     <use xlink:href="#mcb38814b14" x="93.241321" y="200.186255" style="fill: #ff7f0e; stroke: #ff7f0e; stroke-linejoin: miter"/>
     <use xlink:href="#mcb38814b14" x="99.452824" y="189.740882" style="fill: #ff7f0e; stroke: #ff7f0e; stroke-linejoin: miter"/>
     <use xlink:href="#mcb38814b14" x="105.664326" y="177.967735" style="fill: #ff7f0e; stroke: #ff7f0e; stroke-linejoin: miter"/>
     <use xlink:href="#mcb38814b14" x="111.875829" y="192.552499" style="fill: #ff7f0e; stroke: #ff7f0e; stroke-linejoin: miter"/>
     <use xlink:href="#mcb38814b14" x="118.087332" y="195.946638" style="fill: #ff7f0e; stroke: #ff7f0e; stroke-linejoin: miter"/>
     <use xlink:href="#mcb38814b14" x="124.298835" y="183.984246" style="fill: #ff7f0e; stroke: #ff7f0e; stroke-linejoin: miter"/>
     <use xlink:href="#mcb38814b14" x="130.510337" y="188.171084" style="fill: #ff7f0e; stroke: #ff7f0e; stroke-linejoin: miter"/>
     <use xlink:href="#mcb38814b14" x="136.72184" y="189.516508" style="fill: #ff7f0e; stroke: #ff7f0e; stroke-linejoin: miter"/>
     <use xlink:href="#mcb38814b14" x="142.933343" y="173.591792" style="fill: #ff7f0e; stroke: #ff7f0e; stroke-linejoin: miter"/>
     <use xlink:href="#mcb38814b14" x="149.144846" y="179.964287" style="fill: #ff7f0e; stroke: #ff7f0e; stroke-linejoin: miter"/>
     <use xlink:href="#mcb38814b14" x="155.356349" y="167.401449" style="fill: #ff7f0e; stroke: #ff7f0e; stroke-linejoin: miter"/>
     <use xlink:href="#mcb38814b14" x="161.567851" y="179.29156" style="fill: #ff7f0e; stroke: #ff7f0e; stroke-linejoin: miter"/>
     <use xlink:href="#mcb38814b14" x="167.779354" y="156.051634" style="fill: #ff7f0e; stroke: #ff7f0e; stroke-linejoin: miter"/>
     <use xlink:href="#mcb38814b14" x="173.990857" y="170.963705" style="fill: #ff7f0e; stroke: #ff7f0e; stroke-linejoin: miter"/>
     <use xlink:href="#mcb38814b14" x="180.20236" y="176.699523" style="fill: #ff7f0e; stroke: #ff7f0e; stroke-linejoin: miter"/>
     <use xlink:href="#mcb38814b14" x="186.413862" y="159.790837" style="fill: #ff7f0e; stroke: #ff7f0e; stroke-linejoin: miter"/>
     <use xlink:href="#mcb38814b14" x="192.625365" y="149.403678" style="fill: #ff7f0e; stroke: #ff7f0e; stroke-linejoin: miter"/>
     <use xlink:href="#mcb38814b14" x="198.836868" y="161.707168" style="fill: #ff7f0e; stroke: #ff7f0e; stroke-linejoin: miter"/>
     <use xlink:href="#mcb38814b14" x="205.048371" y="145.070239" style="fill: #ff7f0e; stroke: #ff7f0e; stroke-linejoin: miter"/>
     <use xlink:href="#mcb38814b14" x="211.259874" y="156.446161" style="fill: #ff7f0e; stroke: #ff7f0e; stroke-linejoin: miter"/>
     <use xlink:href="#mcb38814b14" x="217.471376" y="156.834813" style="fill: #ff7f0e; stroke: #ff7f0e; stroke-linejoin: miter"/>
     <use xlink:href="#mcb38814b14" x="223.682879" y="149.427347" style="fill: #ff7f0e; stroke: #ff7f0e; stroke-linejoin: miter"/>
     <use xlink:href="#mcb38814b14" x="229.894382" y="136.818704" style="fill: #ff7f0e; stroke: #ff7f0e; stroke-linejoin: miter"/>
     <use xlink:href="#mcb38814b14" x="236.105885" y="136.382955" style="fill: #ff7f0e; stroke: #ff7f0e; stroke-linejoin: miter"/>
     <use xlink:href="#mcb38814b14" x="242.317388" y="148.747771" style="fill: #ff7f0e; stroke: #ff7f0e; stroke-linejoin: miter"/>
     <use xlink:href="#mcb38814b14" x="248.52889" y="138.371098" style="fill: #ff7f0e; stroke: #ff7f0e; stroke-linejoin: miter"/>
     <use xlink:href="#mcb38814b14" x="254.740393" y="144.126902" style="fill: #ff7f0e; stroke: #ff7f0e; stroke-linejoin: miter"/>
     <use xlink:href="#mcb38814b14" x="260.951896" y="141.434812" style="fill: #ff7f0e; stroke: #ff7f0e; stroke-linejoin: miter"/>
     <use xlink:href="#mcb38814b14" x="267.163399" y="132.249598" style="fill: #ff7f0e; stroke: #ff7f0e; stroke-linejoin: miter"/>
     <use xlink:href="#mcb38814b14" x="273.374901" y="141.209512" style="fill: #ff7f0e; stroke: #ff7f0e; stroke-linejoin: miter"/>
     <use xlink:href="#mcb38814b14" x="279.586404" y="130.192617" style="fill: #ff7f0e; stroke: #ff7f0e; stroke-linejoin: miter"/>
     <use xlink:href="#mcb38814b14" x="285.797907" y="129.097329" style="fill: #ff7f0e; stroke: #ff7f0e; stroke-linejoin: miter"/>
     <use xlink:href="#mcb38814b14" x="292.00941" y="120.940123" style="fill: #ff7f0e; stroke: #ff7f0e; stroke-linejoin: miter"/>
     <use xlink:href="#mcb38814b14" x="298.220913" y="142.794608" style="fill: #ff7f0e; stroke: #ff7f0e; stroke-linejoin: miter"/>
     <use xlink:href="#mcb38814b14" x="304.432415" y="123.270285" style="fill: #ff7f0e; stroke: #ff7f0e; stroke-linejoin: miter"/>
     <use xlink:href="#mcb38814b14" x="310.643918" y="115.763825" style="fill: #ff7f0e; stroke: #ff7f0e; stroke-linejoin: miter"/>
     <use xlink:href="#mcb38814b14" x="316.855421" y="112.822724" style="fill: #ff7f0e; stroke: #ff7f0e; stroke-linejoin: miter"/>
     <use xlink:href="#mcb38814b14" x="323.066924" y="138.611894" style="fill: #ff7f0e; stroke: #ff7f0e; stroke-linejoin: miter"/>
     <use xlink:href="#mcb38814b14" x="329.278426" y="112.297603" style="fill: #ff7f0e; stroke: #ff7f0e; stroke-linejoin: miter"/>
     <use xlink:href="#mcb38814b14" x="335.489929" y="107.128772" style="fill: #ff7f0e; stroke: #ff7f0e; stroke-linejoin: miter"/>
     <use xlink:href="#mcb38814b14" x="341.701432" y="106.052108" style="fill: #ff7f0e; stroke: #ff7f0e; stroke-linejoin: miter"/>
     <use xlink:href="#mcb38814b14" x="347.912935" y="127.655613" style="fill: #ff7f0e; stroke: #ff7f0e; stroke-linejoin: miter"/>
     <use xlink:href="#mcb38814b14" x="354.124438" y="102.066111" style="fill: #ff7f0e; stroke: #ff7f0e; stroke-linejoin: miter"/>
     <use xlink:href="#mcb38814b14" x="360.33594" y="102.686811" style="fill: #ff7f0e; stroke: #ff7f0e; stroke-linejoin: miter"/>
     <use xlink:href="#mcb38814b14" x="366.547443" y="102.870032" style="fill: #ff7f0e; stroke: #ff7f0e; stroke-linejoin: miter"/>
    </g>
   </g>
   <g id="LineCollection_1">
    <path d="M 62.183807 213.818699 
L 62.183807 167.431771 
" clip-path="url(#p9a6346d0fa)" style="fill: none; stroke: #ff7f0e; stroke-width: 1.5"/>
    <path d="M 68.39531 222.269792 
L 68.39531 187.112088 
" clip-path="url(#p9a6346d0fa)" style="fill: none; stroke: #ff7f0e; stroke-width: 1.5"/>
    <path d="M 74.606812 208.486024 
L 74.606812 160.515399 
" clip-path="url(#p9a6346d0fa)" style="fill: none; stroke: #ff7f0e; stroke-width: 1.5"/>
    <path d="M 80.818315 221.657113 
L 80.818315 191.098911 
" clip-path="url(#p9a6346d0fa)" style="fill: none; stroke: #ff7f0e; stroke-width: 1.5"/>
    <path d="M 87.029818 215.277084 
L 87.029818 177.889853 
" clip-path="url(#p9a6346d0fa)" style="fill: none; stroke: #ff7f0e; stroke-width: 1.5"/>
    <path d="M 93.241321 216.672045 
L 93.241321 183.700464 
" clip-path="url(#p9a6346d0fa)" style="fill: none; stroke: #ff7f0e; stroke-width: 1.5"/>
    <path d="M 99.452824 209.670506 
L 99.452824 169.811257 
" clip-path="url(#p9a6346d0fa)" style="fill: none; stroke: #ff7f0e; stroke-width: 1.5"/>
    <path d="M 105.664326 201.244177 
L 105.664326 154.691294 
" clip-path="url(#p9a6346d0fa)" style="fill: none; stroke: #ff7f0e; stroke-width: 1.5"/>
    <path d="M 111.875829 210.027296 
L 111.875829 175.077702 
" clip-path="url(#p9a6346d0fa)" style="fill: none; stroke: #ff7f0e; stroke-width: 1.5"/>
    <path d="M 118.087332 211.135935 
L 118.087332 180.757341 
" clip-path="url(#p9a6346d0fa)" style="fill: none; stroke: #ff7f0e; stroke-width: 1.5"/>
    <path d="M 124.298835 203.427837 
L 124.298835 164.540654 
" clip-path="url(#p9a6346d0fa)" style="fill: none; stroke: #ff7f0e; stroke-width: 1.5"/>
    <path d="M 130.510337 205.257344 
L 130.510337 171.084824 
" clip-path="url(#p9a6346d0fa)" style="fill: none; stroke: #ff7f0e; stroke-width: 1.5"/>
    <path d="M 136.72184 205.22964 
L 136.72184 173.803377 
" clip-path="url(#p9a6346d0fa)" style="fill: none; stroke: #ff7f0e; stroke-width: 1.5"/>
    <path d="M 142.933343 194.84079 
L 142.933343 152.342794 
" clip-path="url(#p9a6346d0fa)" style="fill: none; stroke: #ff7f0e; stroke-width: 1.5"/>
    <path d="M 149.144846 198.234792 
L 149.144846 161.693782 
" clip-path="url(#p9a6346d0fa)" style="fill: none; stroke: #ff7f0e; stroke-width: 1.5"/>
    <path d="M 155.356349 189.533549 
L 155.356349 145.26935 
" clip-path="url(#p9a6346d0fa)" style="fill: none; stroke: #ff7f0e; stroke-width: 1.5"/>
    <path d="M 161.567851 196.390075 
L 161.567851 162.193044 
" clip-path="url(#p9a6346d0fa)" style="fill: none; stroke: #ff7f0e; stroke-width: 1.5"/>
    <path d="M 167.779354 180.602082 
L 167.779354 131.501186 
" clip-path="url(#p9a6346d0fa)" style="fill: none; stroke: #ff7f0e; stroke-width: 1.5"/>
    <path d="M 173.990857 189.978667 
L 173.990857 151.948743 
" clip-path="url(#p9a6346d0fa)" style="fill: none; stroke: #ff7f0e; stroke-width: 1.5"/>
    <path d="M 180.20236 192.607507 
L 180.20236 160.79154 
" clip-path="url(#p9a6346d0fa)" style="fill: none; stroke: #ff7f0e; stroke-width: 1.5"/>
    <path d="M 186.413862 181.514224 
L 186.413862 138.067451 
" clip-path="url(#p9a6346d0fa)" style="fill: none; stroke: #ff7f0e; stroke-width: 1.5"/>
    <path d="M 192.625365 173.826467 
L 192.625365 124.980889 
" clip-path="url(#p9a6346d0fa)" style="fill: none; stroke: #ff7f0e; stroke-width: 1.5"/>
    <path d="M 198.836868 181.532058 
L 198.836868 141.882278 
" clip-path="url(#p9a6346d0fa)" style="fill: none; stroke: #ff7f0e; stroke-width: 1.5"/>
    <path d="M 205.048371 169.726665 
L 205.048371 120.413813 
" clip-path="url(#p9a6346d0fa)" style="fill: none; stroke: #ff7f0e; stroke-width: 1.5"/>
    <path d="M 211.259874 176.888808 
L 211.259874 136.003513 
" clip-path="url(#p9a6346d0fa)" style="fill: none; stroke: #ff7f0e; stroke-width: 1.5"/>
    <path d="M 217.471376 176.499375 
L 217.471376 137.17025 
" clip-path="url(#p9a6346d0fa)" style="fill: none; stroke: #ff7f0e; stroke-width: 1.5"/>
    <path d="M 223.682879 171.065 
L 223.682879 127.789694 
" clip-path="url(#p9a6346d0fa)" style="fill: none; stroke: #ff7f0e; stroke-width: 1.5"/>
    <path d="M 229.894382 161.816077 
L 229.894382 111.82133 
" clip-path="url(#p9a6346d0fa)" style="fill: none; stroke: #ff7f0e; stroke-width: 1.5"/>
    <path d="M 236.105885 160.991476 
L 236.105885 111.774434 
" clip-path="url(#p9a6346d0fa)" style="fill: none; stroke: #ff7f0e; stroke-width: 1.5"/>
    <path d="M 242.317388 168.778907 
L 242.317388 128.716635 
" clip-path="url(#p9a6346d0fa)" style="fill: none; stroke: #ff7f0e; stroke-width: 1.5"/>
    <path d="M 248.52889 161.298417 
L 248.52889 115.443779 
" clip-path="url(#p9a6346d0fa)" style="fill: none; stroke: #ff7f0e; stroke-width: 1.5"/>
    <path d="M 254.740393 164.544252 
L 254.740393 123.709552 
" clip-path="url(#p9a6346d0fa)" style="fill: none; stroke: #ff7f0e; stroke-width: 1.5"/>
    <path d="M 260.951896 162.175985 
L 260.951896 120.69364 
" clip-path="url(#p9a6346d0fa)" style="fill: none; stroke: #ff7f0e; stroke-width: 1.5"/>
    <path d="M 267.163399 155.431233 
L 267.163399 109.067964 
" clip-path="url(#p9a6346d0fa)" style="fill: none; stroke: #ff7f0e; stroke-width: 1.5"/>
    <path d="M 273.374901 160.761397 
L 273.374901 121.657628 
" clip-path="url(#p9a6346d0fa)" style="fill: none; stroke: #ff7f0e; stroke-width: 1.5"/>
    <path d="M 279.586404 152.907077 
L 279.586404 107.478157 
" clip-path="url(#p9a6346d0fa)" style="fill: none; stroke: #ff7f0e; stroke-width: 1.5"/>
    <path d="M 285.797907 151.59603 
L 285.797907 106.598628 
" clip-path="url(#p9a6346d0fa)" style="fill: none; stroke: #ff7f0e; stroke-width: 1.5"/>
    <path d="M 292.00941 145.404847 
L 292.00941 96.475399 
" clip-path="url(#p9a6346d0fa)" style="fill: none; stroke: #ff7f0e; stroke-width: 1.5"/>
    <path d="M 298.220913 158.826085 
L 298.220913 126.763131 
" clip-path="url(#p9a6346d0fa)" style="fill: none; stroke: #ff7f0e; stroke-width: 1.5"/>
    <path d="M 304.432415 145.934379 
L 304.432415 100.60619 
" clip-path="url(#p9a6346d0fa)" style="fill: none; stroke: #ff7f0e; stroke-width: 1.5"/>
    <path d="M 310.643918 140.188919 
L 310.643918 91.338731 
" clip-path="url(#p9a6346d0fa)" style="fill: none; stroke: #ff7f0e; stroke-width: 1.5"/>
    <path d="M 316.855421 137.591918 
L 316.855421 88.05353 
" clip-path="url(#p9a6346d0fa)" style="fill: none; stroke: #ff7f0e; stroke-width: 1.5"/>
    <path d="M 323.066924 153.278834 
L 323.066924 123.944955 
" clip-path="url(#p9a6346d0fa)" style="fill: none; stroke: #ff7f0e; stroke-width: 1.5"/>
    <path d="M 329.278426 136.170748 
L 329.278426 88.424458 
" clip-path="url(#p9a6346d0fa)" style="fill: none; stroke: #ff7f0e; stroke-width: 1.5"/>
    <path d="M 335.489929 132.00966 
L 335.489929 82.247884 
" clip-path="url(#p9a6346d0fa)" style="fill: none; stroke: #ff7f0e; stroke-width: 1.5"/>
    <path d="M 341.701432 130.730727 
L 341.701432 81.373489 
" clip-path="url(#p9a6346d0fa)" style="fill: none; stroke: #ff7f0e; stroke-width: 1.5"/>
    <path d="M 347.912935 144.122183 
L 347.912935 111.189044 
" clip-path="url(#p9a6346d0fa)" style="fill: none; stroke: #ff7f0e; stroke-width: 1.5"/>
    <path d="M 354.124438 126.874948 
L 354.124438 77.257274 
" clip-path="url(#p9a6346d0fa)" style="fill: none; stroke: #ff7f0e; stroke-width: 1.5"/>
    <path d="M 360.33594 126.789033 
L 360.33594 78.584589 
" clip-path="url(#p9a6346d0fa)" style="fill: none; stroke: #ff7f0e; stroke-width: 1.5"/>
    <path d="M 366.547443 126.379179 
L 366.547443 79.360884 
" clip-path="url(#p9a6346d0fa)" style="fill: none; stroke: #ff7f0e; stroke-width: 1.5"/>
   </g>
   <g id="patch_3">
    <path d="M 46.965625 229.520418 
L 46.965625 7.760418 
" style="fill: none; stroke: #000000; stroke-width: 0.8; stroke-linejoin: miter; stroke-linecap: square"/>
   </g>
   <g id="patch_4">
    <path d="M 381.765625 229.520418 
L 381.765625 7.760418 
" style="fill: none; stroke: #000000; stroke-width: 0.8; stroke-linejoin: miter; stroke-linecap: square"/>
   </g>
   <g id="patch_5">
    <path d="M 46.965625 229.520418 
L 381.765625 229.520418 
" style="fill: none; stroke: #000000; stroke-width: 0.8; stroke-linejoin: miter; stroke-linecap: square"/>
   </g>
   <g id="patch_6">
    <path d="M 46.965625 7.760418 
L 381.765625 7.760418 
" style="fill: none; stroke: #000000; stroke-width: 0.8; stroke-linejoin: miter; stroke-linecap: square"/>
   </g>
   <g id="legend_1">
    <g id="patch_7">
     <path d="M 53.965625 45.116668 
L 118.490625 45.116668 
Q 120.490625 45.116668 120.490625 43.116668 
L 120.490625 14.760418 
Q 120.490625 12.760418 118.490625 12.760418 
L 53.965625 12.760418 
Q 51.965625 12.760418 51.965625 14.760418 
L 51.965625 43.116668 
Q 51.965625 45.116668 53.965625 45.116668 
z
" style="fill: #ffffff; opacity: 0.8; stroke: #cccccc; stroke-linejoin: miter"/>
    </g>
    <g id="line2d_20">
     <g>
      <use xlink:href="#m4d56ff1105" x="65.965625" y="20.858855" style="fill: #1f77b4; stroke: #1f77b4"/>
     </g>
    </g>
    <g id="text_20">
     <!-- temp1 -->
     <g transform="translate(83.965625 24.358855) scale(0.1 -0.1)">
      <defs>
       <path id="DejaVuSans-74" d="M 1172 4494 
L 1172 3500 
L 2356 3500 
L 2356 3053 
L 1172 3053 
L 1172 1153 
Q 1172 725 1289 603 
Q 1406 481 1766 481 
L 2356 481 
L 2356 0 
L 1766 0 
Q 1100 0 847 248 
Q 594 497 594 1153 
L 594 3053 
L 172 3053 
L 172 3500 
L 594 3500 
L 594 4494 
L 1172 4494 
z
" transform="scale(0.015625)"/>
       <path id="DejaVuSans-65" d="M 3597 1894 
L 3597 1613 
L 953 1613 
Q 991 1019 1311 708 
Q 1631 397 2203 397 
Q 2534 397 2845 478 
Q 3156 559 3463 722 
L 3463 178 
Q 3153 47 2828 -22 
Q 2503 -91 2169 -91 
Q 1331 -91 842 396 
Q 353 884 353 1716 
Q 353 2575 817 3079 
Q 1281 3584 2069 3584 
Q 2775 3584 3186 3129 
Q 3597 2675 3597 1894 
z
M 3022 2063 
Q 3016 2534 2758 2815 
Q 2500 3097 2075 3097 
Q 1594 3097 1305 2825 
Q 1016 2553 972 2059 
L 3022 2063 
z
" transform="scale(0.015625)"/>
       <path id="DejaVuSans-70" d="M 1159 525 
L 1159 -1331 
L 581 -1331 
L 581 3500 
L 1159 3500 
L 1159 2969 
Q 1341 3281 1617 3432 
Q 1894 3584 2278 3584 
Q 2916 3584 3314 3078 
Q 3713 2572 3713 1747 
Q 3713 922 3314 415 
Q 2916 -91 2278 -91 
Q 1894 -91 1617 61 
Q 1341 213 1159 525 
z
M 3116 1747 
Q 3116 2381 2855 2742 
Q 2594 3103 2138 3103 
Q 1681 3103 1420 2742 
Q 1159 2381 1159 1747 
Q 1159 1113 1420 752 
Q 1681 391 2138 391 
Q 2594 391 2855 752 
Q 3116 1113 3116 1747 
z
" transform="scale(0.015625)"/>
      </defs>
      <use xlink:href="#DejaVuSans-74"/>
      <use xlink:href="#DejaVuSans-65" transform="translate(39.208984 0)"/>
      <use xlink:href="#DejaVuSans-6d" transform="translate(100.732422 0)"/>
      <use xlink:href="#DejaVuSans-70" transform="translate(198.144531 0)"/>
      <use xlink:href="#DejaVuSans-31" transform="translate(261.621094 0)"/>
     </g>
    </g>
    <g id="line2d_21">
     <g>
      <use xlink:href="#mcb38814b14" x="65.965625" y="35.53698" style="fill: #ff7f0e; stroke: #ff7f0e; stroke-linejoin: miter"/>
     </g>
    </g>
    <g id="text_21">
     <!-- temp2 -->
     <g transform="translate(83.965625 39.03698) scale(0.1 -0.1)">
      <use xlink:href="#DejaVuSans-74"/>
      <use xlink:href="#DejaVuSans-65" transform="translate(39.208984 0)"/>
      <use xlink:href="#DejaVuSans-6d" transform="translate(100.732422 0)"/>
      <use xlink:href="#DejaVuSans-70" transform="translate(198.144531 0)"/>
      <use xlink:href="#DejaVuSans-32" transform="translate(261.621094 0)"/>
     </g>
    </g>
   </g>
  </g>
 </g>
 <defs>
  <clipPath id="p9a6346d0fa">
   <rect x="46.965625" y="7.760418" width="334.8" height="221.76"/>
  </clipPath>
 </defs>
</svg>
