<?xml version="1.0" encoding="utf-8" standalone="no"?>
<!DOCTYPE svg PUBLIC "-//W3C//DTD SVG 1.1//EN"
  "http://www.w3.org/Graphics/SVG/1.1/DTD/svg11.dtd">
<svg xmlns:xlink="http://www.w3.org/1999/xlink" width="390.982812pt" height="266.51625pt" viewBox="0 0 390.982812 266.51625" xmlns="http://www.w3.org/2000/svg" version="1.1">
 <metadata>
  <rdf:RDF xmlns:dc="http://purl.org/dc/elements/1.1/" xmlns:cc="http://creativecommons.org/ns#" xmlns:rdf="http://www.w3.org/1999/02/22-rdf-syntax-ns#">
   <cc:Work>
    <dc:type rdf:resource="http://purl.org/dc/dcmitype/StillImage"/>
    <dc:date>2026-02-18T13:47:00.322814</dc:date>
    <dc:format>image/svg+xml</dc:format>
    <dc:creator>
     <cc:Agent>
      <dc:title>Matplotlib v3.10.7, https://matplotlib.org/</dc:title>
     </cc:Agent>
    </dc:creator>
   </cc:Work>
  </rdf:RDF>
 </metadata>
 <defs>
  <style type="text/css">*{stroke-linejoin: round; stroke-linecap: butt}</style>
 </defs>
 <g id="figure_1">
  <g id="patch_1">
   <path d="M 0 266.51625 
L 390.982812 266.51625 
L 390.982812 0 
L 0 0 
z
" style="fill: #ffffff"/>
  </g>
  <g id="axes_1">
   <g id="patch_2">
    <path d="M 48.982813 228.96 
L 383.782813 228.96 
L 383.782813 7.2 
L 48.982813 7.2 
z
" style="fill: #ffffff"/>
   </g>
   <g id="matplotlib.axis_1">
    <g id="xtick_1">
     <g id="line2d_1">
      <defs>
       <path id="ma051e88444" d="M 0 0 
L 0 3.5 
" style="stroke: #000000; stroke-width: 0.8"/>
      </defs>
      <g>
       <use xlink:href="#ma051e88444" x="64.200994" y="228.96" style="stroke: #000000; stroke-width: 0.8"/>
      </g>
     </g>
     <g id="text_1">
      <!-- 2000-01 -->
      <g transform="translate(43.309588 243.558437) scale(0.1 -0.1)">
       <defs>
        <path id="DejaVuSans-32" d="M 1228 531 
L 3431 531 
L 3431 0 
L 469 0 
L 469 531 
Q 828 903 1448 1529 
Q 2069 2156 2228 2338 
Q 2531 2678 2651 2914 
Q 2772 3150 2772 3378 
Q 2772 3750 2511 3984 
Q 2250 4219 1831 4219 
Q 1534 4219 1204 4116 
Q 875 4013 500 3803 
L 500 4441 
Q 881 4594 1212 4672 
Q 1544 4750 1819 4750 
Q 2544 4750 2975 4387 
Q 3406 4025 3406 3419 
Q 3406 3131 3298 2873 
Q 3191 2616 2906 2266 
Q 2828 2175 2409 1742 
Q 1991 1309 1228 531 
z
" transform="scale(0.015625)"/>
        <path id="DejaVuSans-30" d="M 2034 4250 
Q 1547 4250 1301 3770 
Q 1056 3291 1056 2328 
Q 1056 1369 1301 889 
Q 1547 409 2034 409 
Q 2525 409 2770 889 
Q 3016 1369 3016 2328 
Q 3016 3291 2770 3770 
Q 2525 4250 2034 4250 
z
M 2034 4750 
Q 2819 4750 3233 4129 
Q 3647 3509 3647 2328 
Q 3647 1150 3233 529 
Q 2819 -91 2034 -91 
Q 1250 -91 836 529 
Q 422 1150 422 2328 
Q 422 3509 836 4129 
Q 1250 4750 2034 4750 
z
" transform="scale(0.015625)"/>
        <path id="DejaVuSans-2d" d="M 313 2009 
L 1997 2009 
L 1997 1497 
L 313 1497 
L 313 2009 
z
" transform="scale(0.015625)"/>
        <path id="DejaVuSans-31" d="M 794 531 
L 1825 531 
L 1825 4091 
L 703 3866 
L 703 4441 
L 1819 4666 
L 2450 4666 
L 2450 531 
L 3481 531 
L 3481 0 
L 794 0 
L 794 531 
z
" transform="scale(0.015625)"/>
       </defs>
       <use xlink:href="#DejaVuSans-32"/>
       <use xlink:href="#DejaVuSans-30" transform="translate(63.623047 0)"/>
       <use xlink:href="#DejaVuSans-30" transform="translate(127.246094 0)"/>
       <use xlink:href="#DejaVuSans-30" transform="translate(190.869141 0)"/>
       <use xlink:href="#DejaVuSans-2d" transform="translate(254.492188 0)"/>
       <use xlink:href="#DejaVuSans-30" transform="translate(290.576172 0)"/>
       <use xlink:href="#DejaVuSans-31" transform="translate(354.199219 0)"/>
      </g>
     </g>
    </g>
    <g id="xtick_2">
     <g id="line2d_2">
      <g>
       <use xlink:href="#ma051e88444" x="111.614425" y="228.96" style="stroke: #000000; stroke-width: 0.8"/>
      </g>
     </g>
     <g id="text_2">
      <!-- 2000-02 -->
      <g transform="translate(90.723019 243.558437) scale(0.1 -0.1)">
       <use xlink:href="#DejaVuSans-32"/>
       <use xlink:href="#DejaVuSans-30" transform="translate(63.623047 0)"/>
       <use xlink:href="#DejaVuSans-30" transform="translate(127.246094 0)"/>
       <use xlink:href="#DejaVuSans-30" transform="translate(190.869141 0)"/>
       <use xlink:href="#DejaVuSans-2d" transform="translate(254.492188 0)"/>
       <use xlink:href="#DejaVuSans-30" transform="translate(290.576172 0)"/>
       <use xlink:href="#DejaVuSans-32" transform="translate(354.199219 0)"/>
      </g>
     </g>
    </g>
    <g id="xtick_3">
     <g id="line2d_3">
      <g>
       <use xlink:href="#ma051e88444" x="155.968925" y="228.96" style="stroke: #000000; stroke-width: 0.8"/>
      </g>
     </g>
     <g id="text_3">
      <!-- 2000-03 -->
      <g transform="translate(135.077519 243.558437) scale(0.1 -0.1)">
       <defs>
        <path id="DejaVuSans-33" d="M 2597 2516 
Q 3050 2419 3304 2112 
Q 3559 1806 3559 1356 
Q 3559 666 3084 287 
Q 2609 -91 1734 -91 
Q 1441 -91 1130 -33 
Q 819 25 488 141 
L 488 750 
Q 750 597 1062 519 
Q 1375 441 1716 441 
Q 2309 441 2620 675 
Q 2931 909 2931 1356 
Q 2931 1769 2642 2001 
Q 2353 2234 1838 2234 
L 1294 2234 
L 1294 2753 
L 1863 2753 
Q 2328 2753 2575 2939 
Q 2822 3125 2822 3475 
Q 2822 3834 2567 4026 
Q 2313 4219 1838 4219 
Q 1578 4219 1281 4162 
Q 984 4106 628 3988 
L 628 4550 
Q 988 4650 1302 4700 
Q 1616 4750 1894 4750 
Q 2613 4750 3031 4423 
Q 3450 4097 3450 3541 
Q 3450 3153 3228 2886 
Q 3006 2619 2597 2516 
z
" transform="scale(0.015625)"/>
       </defs>
       <use xlink:href="#DejaVuSans-32"/>
       <use xlink:href="#DejaVuSans-30" transform="translate(63.623047 0)"/>
       <use xlink:href="#DejaVuSans-30" transform="translate(127.246094 0)"/>
       <use xlink:href="#DejaVuSans-30" transform="translate(190.869141 0)"/>
       <use xlink:href="#DejaVuSans-2d" transform="translate(254.492188 0)"/>
       <use xlink:href="#DejaVuSans-30" transform="translate(290.576172 0)"/>
       <use xlink:href="#DejaVuSans-33" transform="translate(354.199219 0)"/>
      </g>
     </g>
    </g>
    <g id="xtick_4">
     <g id="line2d_4">
      <g>
       <use xlink:href="#ma051e88444" x="203.382356" y="228.96" style="stroke: #000000; stroke-width: 0.8"/>
      </g>
     </g>
     <g id="text_4">
      <!-- 2000-04 -->
      <g transform="translate(182.490949 243.558437) scale(0.1 -0.1)">
       <defs>
        <path id="DejaVuSans-34" d="M 2419 4116 
L 825 1625 
L 2419 1625 
L 2419 4116 
z
M 2253 4666 
L 3047 4666 
L 3047 1625 
L 3713 1625 
L 3713 1100 
L 3047 1100 
L 3047 0 
L 2419 0 
L 2419 1100 
L 313 1100 
L 313 1709 
L 2253 4666 
z
" transform="scale(0.015625)"/>
       </defs>
       <use xlink:href="#DejaVuSans-32"/>
       <use xlink:href="#DejaVuSans-30" transform="translate(63.623047 0)"/>
       <use xlink:href="#DejaVuSans-30" transform="translate(127.246094 0)"/>
       <use xlink:href="#DejaVuSans-30" transform="translate(190.869141 0)"/>
       <use xlink:href="#DejaVuSans-2d" transform="translate(254.492188 0)"/>
       <use xlink:href="#DejaVuSans-30" transform="translate(290.576172 0)"/>
       <use xlink:href="#DejaVuSans-34" transform="translate(354.199219 0)"/>
      </g>
     </g>
    </g>
    <g id="xtick_5">
     <g id="line2d_5">
      <g>
       <use xlink:href="#ma051e88444" x="249.266321" y="228.96" style="stroke: #000000; stroke-width: 0.8"/>
      </g>
     </g>
     <g id="text_5">
      <!-- 2000-05 -->
      <g transform="translate(228.374915 243.558437) scale(0.1 -0.1)">
       <defs>
        <path id="DejaVuSans-35" d="M 691 4666 
L 3169 4666 
L 3169 4134 
L 1269 4134 
L 1269 2991 
Q 1406 3038 1543 3061 
Q 1681 3084 1819 3084 
Q 2600 3084 3056 2656 
Q 3513 2228 3513 1497 
Q 3513 744 3044 326 
Q 2575 -91 1722 -91 
Q 1428 -91 1123 -41 
Q 819 9 494 109 
L 494 744 
Q 775 591 1075 516 
Q 1375 441 1709 441 
Q 2250 441 2565 725 
Q 2881 1009 2881 1497 
Q 2881 1984 2565 2268 
Q 2250 2553 1709 2553 
Q 1456 2553 1204 2497 
Q 953 2441 691 2322 
L 691 4666 
z
" transform="scale(0.015625)"/>
       </defs>
       <use xlink:href="#DejaVuSans-32"/>
       <use xlink:href="#DejaVuSans-30" transform="translate(63.623047 0)"/>
       <use xlink:href="#DejaVuSans-30" transform="translate(127.246094 0)"/>
       <use xlink:href="#DejaVuSans-30" transform="translate(190.869141 0)"/>
       <use xlink:href="#DejaVuSans-2d" transform="translate(254.492188 0)"/>
       <use xlink:href="#DejaVuSans-30" transform="translate(290.576172 0)"/>
       <use xlink:href="#DejaVuSans-35" transform="translate(354.199219 0)"/>
      </g>
     </g>
    </g>
    <g id="xtick_6">
     <g id="line2d_6">
      <g>
       <use xlink:href="#ma051e88444" x="296.679752" y="228.96" style="stroke: #000000; stroke-width: 0.8"/>
      </g>
     </g>
     <g id="text_6">
      <!-- 2000-06 -->
      <g transform="translate(275.788345 243.558437) scale(0.1 -0.1)">
       <defs>
        <path id="DejaVuSans-36" d="M 2113 2584 
Q 1688 2584 1439 2293 
Q 1191 2003 1191 1497 
Q 1191 994 1439 701 
Q 1688 409 2113 409 
Q 2538 409 2786 701 
Q 3034 994 3034 1497 
Q 3034 2003 2786 2293 
Q 2538 2584 2113 2584 
z
M 3366 4563 
L 3366 3988 
Q 3128 4100 2886 4159 
Q 2644 4219 2406 4219 
Q 1781 4219 1451 3797 
Q 1122 3375 1075 2522 
Q 1259 2794 1537 2939 
Q 1816 3084 2150 3084 
Q 2853 3084 3261 2657 
Q 3669 2231 3669 1497 
Q 3669 778 3244 343 
Q 2819 -91 2113 -91 
Q 1303 -91 875 529 
Q 447 1150 447 2328 
Q 447 3434 972 4092 
Q 1497 4750 2381 4750 
Q 2619 4750 2861 4703 
Q 3103 4656 3366 4563 
z
" transform="scale(0.015625)"/>
       </defs>
       <use xlink:href="#DejaVuSans-32"/>
       <use xlink:href="#DejaVuSans-30" transform="translate(63.623047 0)"/>
       <use xlink:href="#DejaVuSans-30" transform="translate(127.246094 0)"/>
       <use xlink:href="#DejaVuSans-30" transform="translate(190.869141 0)"/>
       <use xlink:href="#DejaVuSans-2d" transform="translate(254.492188 0)"/>
       <use xlink:href="#DejaVuSans-30" transform="translate(290.576172 0)"/>
       <use xlink:href="#DejaVuSans-36" transform="translate(354.199219 0)"/>
      </g>
     </g>
    </g>
    <g id="xtick_7">
     <g id="line2d_7">
      <g>
       <use xlink:href="#ma051e88444" x="342.563717" y="228.96" style="stroke: #000000; stroke-width: 0.8"/>
      </g>
     </g>
     <g id="text_7">
      <!-- 2000-07 -->
      <g transform="translate(321.672311 243.558437) scale(0.1 -0.1)">
       <defs>
        <path id="DejaVuSans-37" d="M 525 4666 
L 3525 4666 
L 3525 4397 
L 1831 0 
L 1172 0 
L 2766 4134 
L 525 4134 
L 525 4666 
z
" transform="scale(0.015625)"/>
       </defs>
       <use xlink:href="#DejaVuSans-32"/>
       <use xlink:href="#DejaVuSans-30" transform="translate(63.623047 0)"/>
       <use xlink:href="#DejaVuSans-30" transform="translate(127.246094 0)"/>
       <use xlink:href="#DejaVuSans-30" transform="translate(190.869141 0)"/>
       <use xlink:href="#DejaVuSans-2d" transform="translate(254.492188 0)"/>
       <use xlink:href="#DejaVuSans-30" transform="translate(290.576172 0)"/>
       <use xlink:href="#DejaVuSans-37" transform="translate(354.199219 0)"/>
      </g>
     </g>
    </g>
    <g id="text_8">
     <!-- row [datetime] -->
     <g transform="translate(179.229688 257.236562) scale(0.1 -0.1)">
      <defs>
       <path id="DejaVuSans-72" d="M 2631 2963 
Q 2534 3019 2420 3045 
Q 2306 3072 2169 3072 
Q 1681 3072 1420 2755 
Q 1159 2438 1159 1844 
L 1159 0 
L 581 0 
L 581 3500 
L 1159 3500 
L 1159 2956 
Q 1341 3275 1631 3429 
Q 1922 3584 2338 3584 
Q 2397 3584 2469 3576 
Q 2541 3569 2628 3553 
L 2631 2963 
z
" transform="scale(0.015625)"/>
       <path id="DejaVuSans-6f" d="M 1959 3097 
Q 1497 3097 1228 2736 
Q 959 2375 959 1747 
Q 959 1119 1226 758 
Q 1494 397 1959 397 
Q 2419 397 2687 759 
Q 2956 1122 2956 1747 
Q 2956 2369 2687 2733 
Q 2419 3097 1959 3097 
z
M 1959 3584 
Q 2709 3584 3137 3096 
Q 3566 2609 3566 1747 
Q 3566 888 3137 398 
Q 2709 -91 1959 -91 
Q 1206 -91 779 398 
Q 353 888 353 1747 
Q 353 2609 779 3096 
Q 1206 3584 1959 3584 
z
" transform="scale(0.015625)"/>
       <path id="DejaVuSans-77" d="M 269 3500 
L 844 3500 
L 1563 769 
L 2278 3500 
L 2956 3500 
L 3675 769 
L 4391 3500 
L 4966 3500 
L 4050 0 
L 3372 0 
L 2619 2869 
L 1863 0 
L 1184 0 
L 269 3500 
z
" transform="scale(0.015625)"/>
       <path id="DejaVuSans-20" transform="scale(0.015625)"/>
       <path id="DejaVuSans-5b" d="M 550 4863 
L 1875 4863 
L 1875 4416 
L 1125 4416 
L 1125 -397 
L 1875 -397 
L 1875 -844 
L 550 -844 
L 550 4863 
z
" transform="scale(0.015625)"/>
       <path id="DejaVuSans-64" d="M 2906 2969 
L 2906 4863 
L 3481 4863 
L 3481 0 
L 2906 0 
L 2906 525 
Q 2725 213 2448 61 
Q 2172 -91 1784 -91 
Q 1150 -91 751 415 
Q 353 922 353 1747 
Q 353 2572 751 3078 
Q 1150 3584 1784 3584 
Q 2172 3584 2448 3432 
Q 2725 3281 2906 2969 
z
M 947 1747 
Q 947 1113 1208 752 
Q 1469 391 1925 391 
Q 2381 391 2643 752 
Q 2906 1113 2906 1747 
Q 2906 2381 2643 2742 
Q 2381 3103 1925 3103 
Q 1469 3103 1208 2742 
Q 947 2381 947 1747 
z
" transform="scale(0.015625)"/>
       <path id="DejaVuSans-61" d="M 2194 1759 
Q 1497 1759 1228 1600 
Q 959 1441 959 1056 
Q 959 750 1161 570 
Q 1363 391 1709 391 
Q 2188 391 2477 730 
Q 2766 1069 2766 1631 
L 2766 1759 
L 2194 1759 
z
M 3341 1997 
L 3341 0 
L 2766 0 
L 2766 531 
Q 2569 213 2275 61 
Q 1981 -91 1556 -91 
Q 1019 -91 701 211 
Q 384 513 384 1019 
Q 384 1609 779 1909 
Q 1175 2209 1959 2209 
L 2766 2209 
L 2766 2266 
Q 2766 2663 2505 2880 
Q 2244 3097 1772 3097 
Q 1472 3097 1187 3025 
Q 903 2953 641 2809 
L 641 3341 
Q 956 3463 1253 3523 
Q 1550 3584 1831 3584 
Q 2591 3584 2966 3190 
Q 3341 2797 3341 1997 
z
" transform="scale(0.015625)"/>
       <path id="DejaVuSans-74" d="M 1172 4494 
L 1172 3500 
L 2356 3500 
L 2356 3053 
L 1172 3053 
L 1172 1153 
Q 1172 725 1289 603 
Q 1406 481 1766 481 
L 2356 481 
L 2356 0 
L 1766 0 
Q 1100 0 847 248 
Q 594 497 594 1153 
L 594 3053 
L 172 3053 
L 172 3500 
L 594 3500 
L 594 4494 
L 1172 4494 
z
" transform="scale(0.015625)"/>
       <path id="DejaVuSans-65" d="M 3597 1894 
L 3597 1613 
L 953 1613 
Q 991 1019 1311 708 
Q 1631 397 2203 397 
Q 2534 397 2845 478 
Q 3156 559 3463 722 
L 3463 178 
Q 3153 47 2828 -22 
Q 2503 -91 2169 -91 
Q 1331 -91 842 396 
Q 353 884 353 1716 
Q 353 2575 817 3079 
Q 1281 3584 2069 3584 
Q 2775 3584 3186 3129 
Q 3597 2675 3597 1894 
z
M 3022 2063 
Q 3016 2534 2758 2815 
Q 2500 3097 2075 3097 
Q 1594 3097 1305 2825 
Q 1016 2553 972 2059 
L 3022 2063 
z
" transform="scale(0.015625)"/>
       <path id="DejaVuSans-69" d="M 603 3500 
L 1178 3500 
L 1178 0 
L 603 0 
L 603 3500 
z
M 603 4863 
L 1178 4863 
L 1178 4134 
L 603 4134 
L 603 4863 
z
" transform="scale(0.015625)"/>
       <path id="DejaVuSans-6d" d="M 3328 2828 
Q 3544 3216 3844 3400 
Q 4144 3584 4550 3584 
Q 5097 3584 5394 3201 
Q 5691 2819 5691 2113 
L 5691 0 
L 5113 0 
L 5113 2094 
Q 5113 2597 4934 2840 
Q 4756 3084 4391 3084 
Q 3944 3084 3684 2787 
Q 3425 2491 3425 1978 
L 3425 0 
L 2847 0 
L 2847 2094 
Q 2847 2600 2669 2842 
Q 2491 3084 2119 3084 
Q 1678 3084 1418 2786 
Q 1159 2488 1159 1978 
L 1159 0 
L 581 0 
L 581 3500 
L 1159 3500 
L 1159 2956 
Q 1356 3278 1631 3431 
Q 1906 3584 2284 3584 
Q 2666 3584 2933 3390 
Q 3200 3197 3328 2828 
z
" transform="scale(0.015625)"/>
       <path id="DejaVuSans-5d" d="M 1947 4863 
L 1947 -844 
L 622 -844 
L 622 -397 
L 1369 -397 
L 1369 4416 
L 622 4416 
L 622 4863 
L 1947 4863 
z
" transform="scale(0.015625)"/>
      </defs>
      <use xlink:href="#DejaVuSans-72"/>
      <use xlink:href="#DejaVuSans-6f" transform="translate(38.863281 0)"/>
      <use xlink:href="#DejaVuSans-77" transform="translate(100.044922 0)"/>
      <use xlink:href="#DejaVuSans-20" transform="translate(181.832031 0)"/>
      <use xlink:href="#DejaVuSans-5b" transform="translate(213.619141 0)"/>
      <use xlink:href="#DejaVuSans-64" transform="translate(252.632812 0)"/>
      <use xlink:href="#DejaVuSans-61" transform="translate(316.109375 0)"/>
      <use xlink:href="#DejaVuSans-74" transform="translate(377.388672 0)"/>
      <use xlink:href="#DejaVuSans-65" transform="translate(416.597656 0)"/>
      <use xlink:href="#DejaVuSans-74" transform="translate(478.121094 0)"/>
      <use xlink:href="#DejaVuSans-69" transform="translate(517.330078 0)"/>
      <use xlink:href="#DejaVuSans-6d" transform="translate(545.113281 0)"/>
      <use xlink:href="#DejaVuSans-65" transform="translate(642.525391 0)"/>
      <use xlink:href="#DejaVuSans-5d" transform="translate(704.048828 0)"/>
     </g>
    </g>
   </g>
   <g id="matplotlib.axis_2">
    <g id="ytick_1">
     <g id="line2d_8">
      <defs>
       <path id="ma221e70219" d="M 0 0 
L -3.5 0 
" style="stroke: #000000; stroke-width: 0.8"/>
      </defs>
      <g>
       <use xlink:href="#ma221e70219" x="48.982813" y="205.313244" style="stroke: #000000; stroke-width: 0.8"/>
      </g>
     </g>
     <g id="text_9">
      <!-- −15 -->
      <g transform="translate(20.878125 209.112463) scale(0.1 -0.1)">
       <defs>
        <path id="DejaVuSans-2212" d="M 678 2272 
L 4684 2272 
L 4684 1741 
L 678 1741 
L 678 2272 
z
" transform="scale(0.015625)"/>
       </defs>
       <use xlink:href="#DejaVuSans-2212"/>
       <use xlink:href="#DejaVuSans-31" transform="translate(83.789062 0)"/>
       <use xlink:href="#DejaVuSans-35" transform="translate(147.412109 0)"/>
      </g>
     </g>
    </g>
    <g id="ytick_2">
     <g id="line2d_9">
      <g>
       <use xlink:href="#ma221e70219" x="48.982813" y="180.290213" style="stroke: #000000; stroke-width: 0.8"/>
      </g>
     </g>
     <g id="text_10">
      <!-- −10 -->
      <g transform="translate(20.878125 184.089432) scale(0.1 -0.1)">
       <use xlink:href="#DejaVuSans-2212"/>
       <use xlink:href="#DejaVuSans-31" transform="translate(83.789062 0)"/>
       <use xlink:href="#DejaVuSans-30" transform="translate(147.412109 0)"/>
      </g>
     </g>
    </g>
    <g id="ytick_3">
     <g id="line2d_10">
      <g>
       <use xlink:href="#ma221e70219" x="48.982813" y="155.267182" style="stroke: #000000; stroke-width: 0.8"/>
      </g>
     </g>
     <g id="text_11">
      <!-- −5 -->
      <g transform="translate(27.240625 159.066401) scale(0.1 -0.1)">
       <use xlink:href="#DejaVuSans-2212"/>
       <use xlink:href="#DejaVuSans-35" transform="translate(83.789062 0)"/>
      </g>
     </g>
    </g>
    <g id="ytick_4">
     <g id="line2d_11">
      <g>
       <use xlink:href="#ma221e70219" x="48.982813" y="130.244151" style="stroke: #000000; stroke-width: 0.8"/>
      </g>
     </g>
     <g id="text_12">
      <!-- 0 -->
      <g transform="translate(35.620312 134.04337) scale(0.1 -0.1)">
       <use xlink:href="#DejaVuSans-30"/>
      </g>
     </g>
    </g>
    <g id="ytick_5">
     <g id="line2d_12">
      <g>
       <use xlink:href="#ma221e70219" x="48.982813" y="105.22112" style="stroke: #000000; stroke-width: 0.8"/>
      </g>
     </g>
     <g id="text_13">
      <!-- 5 -->
      <g transform="translate(35.620312 109.020339) scale(0.1 -0.1)">
       <use xlink:href="#DejaVuSans-35"/>
      </g>
     </g>
    </g>
    <g id="ytick_6">
     <g id="line2d_13">
      <g>
       <use xlink:href="#ma221e70219" x="48.982813" y="80.198089" style="stroke: #000000; stroke-width: 0.8"/>
      </g>
     </g>
     <g id="text_14">
      <!-- 10 -->
      <g transform="translate(29.257812 83.997308) scale(0.1 -0.1)">
       <use xlink:href="#DejaVuSans-31"/>
       <use xlink:href="#DejaVuSans-30" transform="translate(63.623047 0)"/>
      </g>
     </g>
    </g>
    <g id="ytick_7">
     <g id="line2d_14">
      <g>
       <use xlink:href="#ma221e70219" x="48.982813" y="55.175058" style="stroke: #000000; stroke-width: 0.8"/>
      </g>
     </g>
     <g id="text_15">
      <!-- 15 -->
      <g transform="translate(29.257812 58.974277) scale(0.1 -0.1)">
       <use xlink:href="#DejaVuSans-31"/>
       <use xlink:href="#DejaVuSans-35" transform="translate(63.623047 0)"/>
      </g>
     </g>
    </g>
    <g id="ytick_8">
     <g id="line2d_15">
      <g>
       <use xlink:href="#ma221e70219" x="48.982813" y="30.152027" style="stroke: #000000; stroke-width: 0.8"/>
      </g>
     </g>
     <g id="text_16">
      <!-- 20 -->
      <g transform="translate(29.257812 33.951246) scale(0.1 -0.1)">
       <use xlink:href="#DejaVuSans-32"/>
       <use xlink:href="#DejaVuSans-30" transform="translate(63.623047 0)"/>
      </g>
     </g>
    </g>
    <g id="text_17">
     <!-- [dimensionless] -->
     <g transform="translate(14.798437 157.557344) rotate(-90) scale(0.1 -0.1)">
      <defs>
       <path id="DejaVuSans-6e" d="M 3513 2113 
L 3513 0 
L 2938 0 
L 2938 2094 
Q 2938 2591 2744 2837 
Q 2550 3084 2163 3084 
Q 1697 3084 1428 2787 
Q 1159 2491 1159 1978 
L 1159 0 
L 581 0 
L 581 3500 
L 1159 3500 
L 1159 2956 
Q 1366 3272 1645 3428 
Q 1925 3584 2291 3584 
Q 2894 3584 3203 3211 
Q 3513 2838 3513 2113 
z
" transform="scale(0.015625)"/>
       <path id="DejaVuSans-73" d="M 2834 3397 
L 2834 2853 
Q 2591 2978 2328 3040 
Q 2066 3103 1784 3103 
Q 1356 3103 1142 2972 
Q 928 2841 928 2578 
Q 928 2378 1081 2264 
Q 1234 2150 1697 2047 
L 1894 2003 
Q 2506 1872 2764 1633 
Q 3022 1394 3022 966 
Q 3022 478 2636 193 
Q 2250 -91 1575 -91 
Q 1294 -91 989 -36 
Q 684 19 347 128 
L 347 722 
Q 666 556 975 473 
Q 1284 391 1588 391 
Q 1994 391 2212 530 
Q 2431 669 2431 922 
Q 2431 1156 2273 1281 
Q 2116 1406 1581 1522 
L 1381 1569 
Q 847 1681 609 1914 
Q 372 2147 372 2553 
Q 372 3047 722 3315 
Q 1072 3584 1716 3584 
Q 2034 3584 2315 3537 
Q 2597 3491 2834 3397 
z
" transform="scale(0.015625)"/>
       <path id="DejaVuSans-6c" d="M 603 4863 
L 1178 4863 
L 1178 0 
L 603 0 
L 603 4863 
z
" transform="scale(0.015625)"/>
      </defs>
      <use xlink:href="#DejaVuSans-5b"/>
      <use xlink:href="#DejaVuSans-64" transform="translate(39.013672 0)"/>
      <use xlink:href="#DejaVuSans-69" transform="translate(102.490234 0)"/>
      <use xlink:href="#DejaVuSans-6d" transform="translate(130.273438 0)"/>
      <use xlink:href="#DejaVuSans-65" transform="translate(227.685547 0)"/>
      <use xlink:href="#DejaVuSans-6e" transform="translate(289.208984 0)"/>
      <use xlink:href="#DejaVuSans-73" transform="translate(352.587891 0)"/>
      <use xlink:href="#DejaVuSans-69" transform="translate(404.6875 0)"/>
      <use xlink:href="#DejaVuSans-6f" transform="translate(432.470703 0)"/>
      <use xlink:href="#DejaVuSans-6e" transform="translate(493.652344 0)"/>
      <use xlink:href="#DejaVuSans-6c" transform="translate(557.03125 0)"/>
      <use xlink:href="#DejaVuSans-65" transform="translate(584.814453 0)"/>
      <use xlink:href="#DejaVuSans-73" transform="translate(646.337891 0)"/>
      <use xlink:href="#DejaVuSans-73" transform="translate(698.4375 0)"/>
      <use xlink:href="#DejaVuSans-5d" transform="translate(750.537109 0)"/>
     </g>
    </g>
   </g>
   <g id="line2d_16">
    <path d="M 64.200994 128.481604 
L 65.73046 130.598986 
L 67.259925 128.894494 
L 68.789391 134.870242 
L 70.318856 135.753697 
L 71.848322 139.07185 
L 73.377787 132.449425 
L 74.907253 139.87701 
L 76.436718 139.365795 
L 77.966184 140.668191 
L 79.495649 134.20701 
L 81.025115 132.000708 
L 82.55458 130.844384 
L 84.084046 124.470061 
L 85.613511 123.802305 
L 87.142977 122.388723 
L 88.672442 122.738147 
L 90.201908 118.028966 
L 91.731373 120.57569 
L 93.260839 125.501291 
L 94.790305 134.437881 
L 96.31977 130.238276 
L 97.849236 133.487922 
L 99.378701 129.932281 
L 100.908167 134.717156 
L 102.437632 142.047346 
L 103.967098 143.296583 
L 105.496563 141.873542 
L 107.026029 148.015311 
L 108.555494 143.894265 
L 110.08496 143.017411 
L 111.614425 137.316816 
L 113.143891 137.281194 
L 114.673356 135.695454 
L 116.202822 143.358431 
L 117.732287 152.454007 
L 119.261753 143.703131 
L 120.791218 146.316272 
L 122.320684 145.970714 
L 123.850149 148.555434 
L 125.379615 146.827013 
L 126.90908 144.137459 
L 128.438546 137.116279 
L 129.968011 140.984817 
L 131.497477 148.972581 
L 133.026942 153.165058 
L 136.085873 147.475017 
L 137.615339 139.073049 
L 139.144804 132.56738 
L 140.67427 128.408999 
L 142.203735 131.078781 
L 143.733201 132.578529 
L 146.792132 121.479033 
L 148.321597 127.190127 
L 149.851063 127.82905 
L 151.380528 126.947565 
L 152.909994 133.343082 
L 154.439459 135.926403 
L 155.968925 133.686454 
L 157.49839 139.871289 
L 159.027856 140.428927 
L 160.557321 133.130454 
L 162.086787 137.892339 
L 163.616252 141.811953 
L 165.145718 138.940277 
L 166.675183 145.559991 
L 168.204649 145.567865 
L 169.734114 140.247857 
L 171.26358 140.573031 
L 172.793045 141.176625 
L 174.322511 140.541917 
L 175.851977 143.380768 
L 177.381442 139.412196 
L 178.910908 138.425334 
L 180.440373 139.651963 
L 181.969839 149.571399 
L 183.499304 151.260669 
L 185.02877 153.449028 
L 186.558235 153.599563 
L 188.087701 158.846558 
L 189.617166 146.390812 
L 191.146632 143.58935 
L 192.676097 142.029708 
L 194.205563 138.039976 
L 197.264494 144.170257 
L 198.793959 143.381601 
L 200.323425 141.004891 
L 201.85289 145.846685 
L 203.382356 145.823907 
L 204.911821 139.701 
L 206.441287 141.95289 
L 207.970752 142.516784 
L 209.500218 146.616688 
L 211.029683 152.178536 
L 212.559149 155.974532 
L 214.088614 154.10388 
L 215.61808 148.489489 
L 217.147545 147.55742 
L 218.677011 140.83792 
L 220.206476 147.530527 
L 221.735942 144.173617 
L 226.324338 165.466773 
L 227.853804 158.565052 
L 229.383269 161.13034 
L 230.912735 149.515159 
L 232.4422 158.145201 
L 233.971666 155.503987 
L 235.501131 160.83924 
L 237.030597 157.367573 
L 238.560062 153.101322 
L 240.089528 154.34292 
L 241.618993 156.072941 
L 243.148459 149.603261 
L 244.677924 153.416954 
L 246.20739 156.865011 
L 247.736855 149.691522 
L 249.266321 153.339582 
L 250.795786 153.813233 
L 252.325252 164.995511 
L 253.854717 167.38833 
L 255.384183 169.19742 
L 256.913648 171.698654 
L 258.443114 178.353416 
L 261.502045 183.659769 
L 263.031511 183.428249 
L 264.560976 188.225625 
L 266.090442 185.807831 
L 267.619907 187.738083 
L 269.149373 198.311318 
L 270.678838 202.347308 
L 272.208304 202.834375 
L 273.737769 203.71733 
L 275.267235 202.468515 
L 276.7967 204.880417 
L 278.326166 215.591641 
L 279.855631 218.171964 
L 281.385097 218.180844 
L 282.914562 218.50595 
L 284.444028 215.023508 
L 285.973493 218.63299 
L 287.502959 218.022278 
L 289.032424 216.14273 
L 290.56189 223.038431 
L 292.091355 223.67757 
L 293.620821 220.129154 
L 295.150286 208.260091 
L 296.679752 198.96358 
L 298.209217 200.190275 
L 299.738683 201.083788 
L 301.268148 202.629428 
L 302.797614 194.492551 
L 304.327079 197.218393 
L 305.856545 199.197324 
L 307.38601 194.389595 
L 308.915476 204.493963 
L 310.444941 210.416418 
L 311.974407 207.022394 
L 313.503872 206.072853 
L 315.033338 209.842877 
L 316.562803 217.67441 
L 318.092269 219.64097 
L 319.621734 217.228323 
L 321.1512 221.176641 
L 322.680665 221.351137 
L 324.210131 214.673652 
L 325.739596 203.285103 
L 327.269062 208.022624 
L 328.798527 205.753286 
L 330.327993 212.042034 
L 331.857458 209.27804 
L 333.386924 211.389303 
L 334.916389 211.30144 
L 336.445855 208.613495 
L 337.97532 198.524795 
L 339.504786 190.103382 
L 341.034252 178.306897 
L 342.563717 173.490716 
L 344.093183 178.103223 
L 345.622648 170.965182 
L 347.152114 172.638858 
L 348.681579 179.911933 
L 350.211045 189.509913 
L 351.74051 186.266002 
L 353.269976 186.106479 
L 354.799441 181.505064 
L 356.328907 175.475711 
L 357.858372 175.704815 
L 359.387838 176.490669 
L 360.917303 179.364047 
L 365.5057 192.335332 
L 367.035165 190.197675 
L 368.564631 191.816193 
L 368.564631 191.816193 
" clip-path="url(#p5732d2a7b2)" style="fill: none; stroke: #1f77b4; stroke-width: 1.5; stroke-linecap: square"/>
   </g>
   <g id="line2d_17">
    <path d="M 64.200994 132.119303 
L 65.73046 140.398661 
L 67.259925 136.723192 
L 68.789391 133.544357 
L 70.318856 137.860671 
L 71.848322 131.823105 
L 73.377787 130.602581 
L 74.907253 121.958856 
L 76.436718 127.841728 
L 77.966184 127.10642 
L 79.495649 124.689907 
L 81.025115 126.370613 
L 82.55458 131.711499 
L 84.084046 129.776644 
L 85.613511 126.934352 
L 87.142977 126.429658 
L 88.672442 125.528382 
L 90.201908 122.691879 
L 91.731373 118.602884 
L 93.260839 109.14174 
L 94.790305 113.256388 
L 96.31977 109.731871 
L 97.849236 112.991246 
L 99.378701 114.709672 
L 100.908167 114.389211 
L 102.437632 121.106808 
L 103.967098 119.307926 
L 105.496563 126.877361 
L 107.026029 123.868975 
L 108.555494 123.36028 
L 110.08496 126.597184 
L 111.614425 120.899077 
L 113.143891 120.072103 
L 114.673356 119.019082 
L 116.202822 118.642148 
L 117.732287 125.349694 
L 119.261753 133.12121 
L 120.791218 138.84269 
L 122.320684 140.617755 
L 123.850149 141.542229 
L 125.379615 151.311101 
L 126.90908 149.874716 
L 128.438546 150.842298 
L 129.968011 145.231869 
L 131.497477 142.755706 
L 133.026942 142.800871 
L 134.556408 138.595236 
L 136.085873 137.905671 
L 137.615339 140.104985 
L 139.144804 135.811785 
L 140.67427 141.365962 
L 142.203735 139.033938 
L 143.733201 142.557392 
L 145.262666 146.606447 
L 146.792132 134.478386 
L 148.321597 130.641789 
L 149.851063 130.493452 
L 151.380528 129.616167 
L 152.909994 123.217426 
L 154.439459 124.430029 
L 155.968925 126.682351 
L 157.49839 133.444397 
L 159.027856 127.835955 
L 160.557321 126.394833 
L 162.086787 124.002552 
L 163.616252 121.906046 
L 165.145718 114.697047 
L 168.204649 96.689107 
L 169.734114 93.942579 
L 171.26358 89.437037 
L 172.793045 89.082177 
L 174.322511 69.242803 
L 175.851977 73.05449 
L 177.381442 64.840274 
L 178.910908 63.584768 
L 180.440373 61.352708 
L 181.969839 64.146248 
L 183.499304 67.956146 
L 185.02877 72.563989 
L 186.558235 69.250385 
L 188.087701 67.529344 
L 189.617166 67.156931 
L 191.146632 76.970114 
L 192.676097 81.072976 
L 194.205563 79.7164 
L 195.735028 78.514073 
L 197.264494 77.690092 
L 198.793959 86.682424 
L 200.323425 87.629369 
L 201.85289 88.280937 
L 203.382356 85.347124 
L 204.911821 83.394735 
L 206.441287 86.269435 
L 207.970752 90.623132 
L 209.500218 86.000773 
L 211.029683 86.64735 
L 212.559149 84.585018 
L 214.088614 80.807863 
L 215.61808 85.683006 
L 217.147545 83.654308 
L 218.677011 87.400406 
L 220.206476 87.927753 
L 221.735942 89.859291 
L 223.265407 85.428033 
L 224.794873 84.592867 
L 226.324338 82.132901 
L 227.853804 82.387663 
L 229.383269 78.020722 
L 230.912735 79.46069 
L 232.4422 78.887746 
L 233.971666 81.922298 
L 235.501131 86.213127 
L 237.030597 71.261774 
L 238.560062 69.49115 
L 240.089528 66.70477 
L 241.618993 74.491317 
L 243.148459 67.965653 
L 244.677924 63.822629 
L 246.20739 64.965284 
L 247.736855 61.393542 
L 249.266321 69.11287 
L 250.795786 66.371328 
L 252.325252 67.857476 
L 253.854717 73.26737 
L 256.913648 68.864172 
L 258.443114 72.120285 
L 259.97258 74.329126 
L 261.502045 72.231769 
L 263.031511 75.344269 
L 264.560976 74.299917 
L 266.090442 71.139192 
L 267.619907 63.638759 
L 269.149373 59.730835 
L 270.678838 60.947633 
L 272.208304 56.473832 
L 273.737769 57.06253 
L 275.267235 67.35672 
L 276.7967 66.044389 
L 278.326166 60.187716 
L 279.855631 57.435029 
L 281.385097 53.812201 
L 282.914562 47.709657 
L 284.444028 57.87286 
L 285.973493 55.827326 
L 287.502959 57.99641 
L 289.032424 46.586797 
L 290.56189 43.930295 
L 292.091355 39.788409 
L 293.620821 49.099807 
L 295.150286 51.491776 
L 296.679752 56.611847 
L 298.209217 49.209267 
L 299.738683 48.636547 
L 301.268148 53.886568 
L 302.797614 46.265402 
L 304.327079 58.066346 
L 305.856545 55.649987 
L 307.38601 59.259826 
L 308.915476 54.247444 
L 310.444941 54.547218 
L 311.974407 52.831726 
L 313.503872 53.734509 
L 315.033338 44.431504 
L 318.092269 49.494399 
L 319.621734 46.742694 
L 321.1512 47.622814 
L 322.680665 45.837367 
L 324.210131 46.815192 
L 325.739596 49.072039 
L 327.269062 45.358446 
L 328.798527 39.952559 
L 330.327993 30.455957 
L 331.857458 32.132305 
L 333.386924 29.611537 
L 334.916389 24.582161 
L 336.445855 15.776826 
L 337.97532 15.376394 
L 341.034252 14.062433 
L 342.563717 16.911384 
L 344.093183 18.503541 
L 345.622648 16.64827 
L 347.152114 21.208767 
L 348.681579 16.165247 
L 350.211045 19.678682 
L 351.74051 21.761469 
L 353.269976 20.857796 
L 354.799441 22.227427 
L 356.328907 33.572802 
L 357.858372 25.284227 
L 359.387838 21.424562 
L 360.917303 25.812776 
L 362.446769 22.056398 
L 363.976234 23.215411 
L 365.5057 28.780281 
L 367.035165 22.391729 
L 368.564631 25.341727 
L 368.564631 25.341727 
" clip-path="url(#p5732d2a7b2)" style="fill: none; stroke: #ff7f0e; stroke-width: 1.5; stroke-linecap: square"/>
   </g>
   <g id="line2d_18">
    <path d="M 64.200994 132.803014 
L 65.73046 130.138738 
L 67.259925 125.910824 
L 68.789391 132.223684 
L 70.318856 134.286261 
L 71.848322 139.412925 
L 73.377787 138.244327 
L 74.907253 139.902451 
L 76.436718 136.307222 
L 77.966184 139.561433 
L 79.495649 137.555096 
L 81.025115 141.720588 
L 82.55458 141.412147 
L 84.084046 145.275722 
L 85.613511 143.766912 
L 87.142977 140.274918 
L 88.672442 148.551195 
L 90.201908 143.809758 
L 94.790305 159.528518 
L 96.31977 161.766457 
L 97.849236 164.45315 
L 99.378701 157.485629 
L 100.908167 156.384903 
L 102.437632 142.153832 
L 103.967098 134.974705 
L 105.496563 139.127803 
L 107.026029 151.050533 
L 108.555494 153.941358 
L 110.08496 150.765436 
L 111.614425 146.784869 
L 113.143891 145.031532 
L 114.673356 139.669042 
L 116.202822 139.757345 
L 117.732287 134.817724 
L 119.261753 135.559935 
L 122.320684 136.303808 
L 123.850149 137.50476 
L 125.379615 137.010931 
L 126.90908 135.570016 
L 128.438546 127.069098 
L 129.968011 121.047133 
L 131.497477 124.476642 
L 133.026942 111.312738 
L 134.556408 111.672963 
L 136.085873 110.625828 
L 137.615339 106.515019 
L 139.144804 104.252323 
L 140.67427 103.390162 
L 143.733201 95.556166 
L 145.262666 91.169812 
L 146.792132 85.39057 
L 148.321597 83.926685 
L 149.851063 82.675197 
L 151.380528 85.185477 
L 152.909994 78.877371 
L 154.439459 80.985676 
L 155.968925 81.419684 
L 157.49839 79.596032 
L 159.027856 82.529017 
L 160.557321 90.341087 
L 162.086787 90.474005 
L 163.616252 89.966476 
L 165.145718 85.090783 
L 166.675183 96.333254 
L 168.204649 91.829623 
L 169.734114 98.227062 
L 171.26358 89.391517 
L 172.793045 85.411132 
L 174.322511 88.822571 
L 175.851977 90.450731 
L 177.381442 90.073234 
L 178.910908 90.419179 
L 180.440373 88.10034 
L 181.969839 79.527112 
L 183.499304 72.91547 
L 185.02877 71.687545 
L 186.558235 75.968683 
L 188.087701 77.344077 
L 189.617166 67.191233 
L 191.146632 72.971517 
L 192.676097 71.028636 
L 194.205563 68.681871 
L 195.735028 78.665925 
L 197.264494 82.342118 
L 198.793959 79.573776 
L 200.323425 79.716982 
L 201.85289 78.51241 
L 203.382356 76.116034 
L 204.911821 84.455927 
L 206.441287 88.430946 
L 207.970752 96.626023 
L 209.500218 97.793405 
L 211.029683 93.258329 
L 212.559149 98.229123 
L 214.088614 98.381826 
L 215.61808 110.099062 
L 217.147545 109.303618 
L 218.677011 111.030441 
L 220.206476 110.782863 
L 221.735942 114.042128 
L 223.265407 115.43163 
L 224.794873 113.365247 
L 226.324338 117.082329 
L 227.853804 112.682241 
L 229.383269 110.667382 
L 230.912735 124.679278 
L 232.4422 126.541876 
L 233.971666 131.559683 
L 235.501131 137.200626 
L 237.030597 143.704967 
L 240.089528 130.568426 
L 241.618993 129.381812 
L 243.148459 128.982352 
L 244.677924 126.895727 
L 246.20739 125.988296 
L 247.736855 125.597874 
L 249.266321 127.785066 
L 250.795786 127.73858 
L 252.325252 133.274868 
L 253.854717 131.683149 
L 255.384183 135.733041 
L 256.913648 125.653433 
L 258.443114 122.607205 
L 259.97258 121.608524 
L 261.502045 121.032506 
L 263.031511 126.323509 
L 264.560976 121.025526 
L 266.090442 122.172727 
L 267.619907 122.381204 
L 269.149373 123.235237 
L 270.678838 123.240679 
L 272.208304 124.424653 
L 273.737769 120.380012 
L 275.267235 119.264729 
L 276.7967 123.186938 
L 278.326166 119.878715 
L 279.855631 112.898089 
L 281.385097 109.482837 
L 282.914562 121.525778 
L 284.444028 119.83769 
L 285.973493 121.354268 
L 287.502959 119.570433 
L 289.032424 122.411608 
L 290.56189 118.853962 
L 292.091355 119.32716 
L 293.620821 130.783234 
L 295.150286 133.300631 
L 296.679752 128.170679 
L 298.209217 128.701158 
L 299.738683 134.433885 
L 301.268148 130.009192 
L 302.797614 130.720412 
L 304.327079 126.789162 
L 305.856545 132.905477 
L 307.38601 122.232204 
L 308.915476 120.985114 
L 310.444941 120.727855 
L 311.974407 123.353113 
L 313.503872 124.943945 
L 315.033338 127.481654 
L 316.562803 124.723691 
L 318.092269 123.163209 
L 319.621734 130.663536 
L 321.1512 135.827563 
L 322.680665 139.888278 
L 324.210131 144.78035 
L 325.739596 146.889709 
L 327.269062 146.538996 
L 328.798527 147.80646 
L 330.327993 151.938295 
L 331.857458 151.405199 
L 333.386924 145.955229 
L 334.916389 136.874948 
L 336.445855 131.710546 
L 337.97532 138.878319 
L 339.504786 140.293624 
L 341.034252 141.197411 
L 342.563717 138.002824 
L 344.093183 134.412603 
L 345.622648 143.652651 
L 347.152114 143.22854 
L 348.681579 143.297315 
L 350.211045 144.610097 
L 351.74051 143.30263 
L 353.269976 145.784402 
L 354.799441 140.85517 
L 356.328907 145.468108 
L 357.858372 158.5671 
L 359.387838 162.008197 
L 360.917303 170.587592 
L 362.446769 171.971661 
L 363.976234 173.683774 
L 365.5057 177.807897 
L 367.035165 178.45803 
L 368.564631 178.87229 
L 368.564631 178.87229 
" clip-path="url(#p5732d2a7b2)" style="fill: none; stroke: #2ca02c; stroke-width: 1.5; stroke-linecap: square"/>
   </g>
   <g id="line2d_19">
    <path d="M 64.200994 129.867833 
L 65.73046 119.982421 
L 67.259925 121.908419 
L 68.789391 122.280073 
L 70.318856 129.178167 
L 71.848322 125.053422 
L 73.377787 124.539955 
L 74.907253 118.846998 
L 76.436718 114.139455 
L 77.966184 104.283242 
L 79.495649 104.127961 
L 81.025115 111.072531 
L 82.55458 106.856654 
L 84.084046 106.776087 
L 85.613511 102.591002 
L 87.142977 99.918291 
L 88.672442 94.877989 
L 90.201908 106.443295 
L 91.731373 104.281787 
L 93.260839 104.003989 
L 94.790305 100.668737 
L 96.31977 96.641059 
L 97.849236 91.439723 
L 99.378701 83.756378 
L 100.908167 77.793964 
L 102.437632 76.66929 
L 103.967098 73.853759 
L 105.496563 70.430418 
L 107.026029 80.968676 
L 108.555494 84.703566 
L 110.08496 80.732428 
L 111.614425 80.119481 
L 113.143891 81.166926 
L 114.673356 91.027128 
L 116.202822 99.295686 
L 117.732287 90.716637 
L 119.261753 90.543791 
L 120.791218 88.920851 
L 122.320684 86.617315 
L 123.850149 87.409106 
L 125.379615 85.127532 
L 126.90908 84.979536 
L 128.438546 90.693601 
L 129.968011 85.885524 
L 131.497477 77.61867 
L 133.026942 77.660547 
L 134.556408 77.286882 
L 136.085873 76.685687 
L 137.615339 81.430824 
L 139.144804 78.725647 
L 140.67427 77.900901 
L 142.203735 68.558928 
L 143.733201 67.985006 
L 145.262666 63.137571 
L 146.792132 61.068886 
L 148.321597 56.483778 
L 149.851063 61.065716 
L 151.380528 58.839681 
L 152.909994 60.743949 
L 154.439459 59.349575 
L 155.968925 67.457773 
L 157.49839 64.525433 
L 159.027856 59.177905 
L 160.557321 65.13219 
L 162.086787 61.187015 
L 163.616252 60.698691 
L 165.145718 50.38755 
L 166.675183 50.152646 
L 168.204649 48.048351 
L 169.734114 44.294455 
L 171.26358 50.519356 
L 172.793045 57.522441 
L 174.322511 48.158323 
L 177.381442 59.586248 
L 178.910908 58.375381 
L 181.969839 67.665867 
L 183.499304 66.443059 
L 185.02877 58.410194 
L 186.558235 56.064781 
L 188.087701 57.919094 
L 189.617166 57.131214 
L 191.146632 61.320023 
L 192.676097 58.030484 
L 194.205563 58.353764 
L 195.735028 51.461771 
L 197.264494 51.546715 
L 198.793959 40.355337 
L 200.323425 41.777748 
L 201.85289 51.031148 
L 203.382356 50.23312 
L 204.911821 46.808914 
L 206.441287 51.71599 
L 207.970752 53.168782 
L 209.500218 47.986604 
L 211.029683 56.279591 
L 212.559149 57.330042 
L 214.088614 54.557926 
L 215.61808 52.275058 
L 217.147545 58.383466 
L 218.677011 62.836038 
L 220.206476 57.237424 
L 221.735942 54.023858 
L 223.265407 56.605683 
L 224.794873 53.483135 
L 226.324338 48.409474 
L 227.853804 51.79257 
L 229.383269 52.930883 
L 230.912735 51.107391 
L 235.501131 65.045221 
L 237.030597 57.293042 
L 238.560062 55.945481 
L 240.089528 64.126244 
L 241.618993 70.379834 
L 243.148459 67.440376 
L 244.677924 66.950398 
L 246.20739 72.088038 
L 247.736855 72.406864 
L 249.266321 74.437165 
L 250.795786 69.942378 
L 252.325252 70.048381 
L 253.854717 62.9717 
L 255.384183 66.794052 
L 256.913648 61.501874 
L 258.443114 65.504226 
L 259.97258 65.376325 
L 261.502045 58.957581 
L 263.031511 54.522338 
L 264.560976 54.848736 
L 266.090442 50.314614 
L 267.619907 54.156886 
L 269.149373 43.893015 
L 270.678838 46.348135 
L 272.208304 39.405584 
L 273.737769 35.161412 
L 275.267235 36.821627 
L 276.7967 32.427159 
L 278.326166 32.23575 
L 279.855631 37.83247 
L 281.385097 36.225635 
L 282.914562 50.266009 
L 284.444028 54.415132 
L 285.973493 51.661223 
L 287.502959 59.772115 
L 289.032424 60.669499 
L 290.56189 69.726157 
L 292.091355 68.587515 
L 293.620821 71.517783 
L 295.150286 76.550995 
L 296.679752 71.380164 
L 298.209217 65.499386 
L 301.268148 55.049776 
L 302.797614 50.315758 
L 304.327079 49.594553 
L 305.856545 55.223415 
L 307.38601 48.112073 
L 308.915476 46.557913 
L 310.444941 56.494122 
L 311.974407 60.582345 
L 313.503872 66.689434 
L 315.033338 67.09239 
L 316.562803 62.509902 
L 318.092269 63.654963 
L 319.621734 61.769724 
L 321.1512 66.236354 
L 322.680665 54.411943 
L 324.210131 51.851346 
L 325.739596 55.665173 
L 327.269062 53.134705 
L 328.798527 51.208618 
L 330.327993 52.316567 
L 331.857458 59.352493 
L 333.386924 60.175371 
L 334.916389 51.746843 
L 336.445855 45.811922 
L 337.97532 43.437928 
L 339.504786 46.691204 
L 341.034252 42.420203 
L 342.563717 45.936383 
L 344.093183 45.517534 
L 345.622648 49.310475 
L 347.152114 51.654493 
L 348.681579 55.714189 
L 350.211045 47.831714 
L 351.74051 52.372355 
L 353.269976 44.713132 
L 354.799441 39.436344 
L 356.328907 42.878584 
L 357.858372 52.157801 
L 359.387838 60.035445 
L 360.917303 53.14459 
L 362.446769 51.754945 
L 363.976234 51.742343 
L 365.5057 64.393908 
L 367.035165 69.927604 
L 368.564631 68.184954 
L 368.564631 68.184954 
" clip-path="url(#p5732d2a7b2)" style="fill: none; stroke: #d62728; stroke-width: 1.5; stroke-linecap: square"/>
   </g>
   <g id="patch_3">
    <path d="M 48.982813 228.96 
L 48.982813 7.2 
" style="fill: none; stroke: #000000; stroke-width: 0.8; stroke-linejoin: miter; stroke-linecap: square"/>
   </g>
   <g id="patch_4">
    <path d="M 383.782813 228.96 
L 383.782813 7.2 
" style="fill: none; stroke: #000000; stroke-width: 0.8; stroke-linejoin: miter; stroke-linecap: square"/>
   </g>
   <g id="patch_5">
    <path d="M 48.982812 228.96 
L 383.782812 228.96 
" style="fill: none; stroke: #000000; stroke-width: 0.8; stroke-linejoin: miter; stroke-linecap: square"/>
   </g>
   <g id="patch_6">
    <path d="M 48.982812 7.2 
L 383.782812 7.2 
" style="fill: none; stroke: #000000; stroke-width: 0.8; stroke-linejoin: miter; stroke-linecap: square"/>
   </g>
   <g id="legend_1">
    <g id="patch_7">
     <path d="M 55.982813 73.9125 
L 95.682813 73.9125 
Q 97.682813 73.9125 97.682813 71.9125 
L 97.682813 14.2 
Q 97.682813 12.2 95.682813 12.2 
L 55.982813 12.2 
Q 53.982813 12.2 53.982813 14.2 
L 53.982813 71.9125 
Q 53.982813 73.9125 55.982813 73.9125 
z
" style="fill: #ffffff; opacity: 0.8; stroke: #cccccc; stroke-linejoin: miter"/>
    </g>
    <g id="line2d_20">
     <path d="M 57.982813 20.298437 
L 67.982812 20.298437 
L 77.982812 20.298437 
" style="fill: none; stroke: #1f77b4; stroke-width: 1.5; stroke-linecap: square"/>
    </g>
    <g id="text_18">
     <!-- A -->
     <g transform="translate(85.982812 23.798437) scale(0.1 -0.1)">
      <defs>
       <path id="DejaVuSans-41" d="M 2188 4044 
L 1331 1722 
L 3047 1722 
L 2188 4044 
z
M 1831 4666 
L 2547 4666 
L 4325 0 
L 3669 0 
L 3244 1197 
L 1141 1197 
L 716 0 
L 50 0 
L 1831 4666 
z
" transform="scale(0.015625)"/>
      </defs>
      <use xlink:href="#DejaVuSans-41"/>
     </g>
    </g>
    <g id="line2d_21">
     <path d="M 57.982813 34.976562 
L 67.982812 34.976562 
L 77.982812 34.976562 
" style="fill: none; stroke: #ff7f0e; stroke-width: 1.5; stroke-linecap: square"/>
    </g>
    <g id="text_19">
     <!-- B -->
     <g transform="translate(85.982812 38.476562) scale(0.1 -0.1)">
      <defs>
       <path id="DejaVuSans-42" d="M 1259 2228 
L 1259 519 
L 2272 519 
Q 2781 519 3026 730 
Q 3272 941 3272 1375 
Q 3272 1813 3026 2020 
Q 2781 2228 2272 2228 
L 1259 2228 
z
M 1259 4147 
L 1259 2741 
L 2194 2741 
Q 2656 2741 2882 2914 
Q 3109 3088 3109 3444 
Q 3109 3797 2882 3972 
Q 2656 4147 2194 4147 
L 1259 4147 
z
M 628 4666 
L 2241 4666 
Q 2963 4666 3353 4366 
Q 3744 4066 3744 3513 
Q 3744 3084 3544 2831 
Q 3344 2578 2956 2516 
Q 3422 2416 3680 2098 
Q 3938 1781 3938 1306 
Q 3938 681 3513 340 
Q 3088 0 2303 0 
L 628 0 
L 628 4666 
z
" transform="scale(0.015625)"/>
      </defs>
      <use xlink:href="#DejaVuSans-42"/>
     </g>
    </g>
    <g id="line2d_22">
     <path d="M 57.982813 49.654687 
L 67.982812 49.654687 
L 77.982812 49.654687 
" style="fill: none; stroke: #2ca02c; stroke-width: 1.5; stroke-linecap: square"/>
    </g>
    <g id="text_20">
     <!-- C -->
     <g transform="translate(85.982812 53.154687) scale(0.1 -0.1)">
      <defs>
       <path id="DejaVuSans-43" d="M 4122 4306 
L 4122 3641 
Q 3803 3938 3442 4084 
Q 3081 4231 2675 4231 
Q 1875 4231 1450 3742 
Q 1025 3253 1025 2328 
Q 1025 1406 1450 917 
Q 1875 428 2675 428 
Q 3081 428 3442 575 
Q 3803 722 4122 1019 
L 4122 359 
Q 3791 134 3420 21 
Q 3050 -91 2638 -91 
Q 1578 -91 968 557 
Q 359 1206 359 2328 
Q 359 3453 968 4101 
Q 1578 4750 2638 4750 
Q 3056 4750 3426 4639 
Q 3797 4528 4122 4306 
z
" transform="scale(0.015625)"/>
      </defs>
      <use xlink:href="#DejaVuSans-43"/>
     </g>
    </g>
    <g id="line2d_23">
     <path d="M 57.982813 64.332812 
L 67.982812 64.332812 
L 77.982812 64.332812 
" style="fill: none; stroke: #d62728; stroke-width: 1.5; stroke-linecap: square"/>
    </g>
    <g id="text_21">
     <!-- D -->
     <g transform="translate(85.982812 67.832812) scale(0.1 -0.1)">
      <defs>
       <path id="DejaVuSans-44" d="M 1259 4147 
L 1259 519 
L 2022 519 
Q 2988 519 3436 956 
Q 3884 1394 3884 2338 
Q 3884 3275 3436 3711 
Q 2988 4147 2022 4147 
L 1259 4147 
z
M 628 4666 
L 1925 4666 
Q 3281 4666 3915 4102 
Q 4550 3538 4550 2338 
Q 4550 1131 3912 565 
Q 3275 0 1925 0 
L 628 0 
L 628 4666 
z
" transform="scale(0.015625)"/>
      </defs>
      <use xlink:href="#DejaVuSans-44"/>
     </g>
    </g>
   </g>
  </g>
 </g>
 <defs>
  <clipPath id="p5732d2a7b2">
   <rect x="48.982813" y="7.2" width="334.8" height="221.76"/>
  </clipPath>
 </defs>
</svg>
