<?xml version="1.0" encoding="utf-8" standalone="no"?>
<!DOCTYPE svg PUBLIC "-//W3C//DTD SVG 1.1//EN"
  "http://www.w3.org/Graphics/SVG/1.1/DTD/svg11.dtd">
<svg xmlns:xlink="http://www.w3.org/1999/xlink" width="384.620312pt" height="266.51625pt" viewBox="0 0 384.620312 266.51625" xmlns="http://www.w3.org/2000/svg" version="1.1">
 <metadata>
  <rdf:RDF xmlns:dc="http://purl.org/dc/elements/1.1/" xmlns:cc="http://creativecommons.org/ns#" xmlns:rdf="http://www.w3.org/1999/02/22-rdf-syntax-ns#">
   <cc:Work>
    <dc:type rdf:resource="http://purl.org/dc/dcmitype/StillImage"/>
    <dc:date>2026-02-18T13:47:20.404629</dc:date>
    <dc:format>image/svg+xml</dc:format>
    <dc:creator>
     <cc:Agent>
      <dc:title>Matplotlib v3.10.7, https://matplotlib.org/</dc:title>
     </cc:Agent>
    </dc:creator>
   </cc:Work>
  </rdf:RDF>
 </metadata>
 <defs>
  <style type="text/css">*{stroke-linejoin: round; stroke-linecap: butt}</style>
 </defs>
 <g id="figure_1">
  <g id="patch_1">
   <path d="M 0 266.51625 
L 384.620312 266.51625 
L 384.620312 0 
L 0 0 
z
" style="fill: #ffffff"/>
  </g>
  <g id="axes_1">
   <g id="patch_2">
    <path d="M 42.620313 228.96 
L 377.420313 228.96 
L 377.420313 7.2 
L 42.620313 7.2 
z
" style="fill: #ffffff"/>
   </g>
   <g id="matplotlib.axis_1">
    <g id="xtick_1">
     <g id="line2d_1">
      <defs>
       <path id="mddec785207" d="M 0 0 
L 0 3.5 
" style="stroke: #000000; stroke-width: 0.8"/>
      </defs>
      <g>
       <use xlink:href="#mddec785207" x="57.838494" y="228.96" style="stroke: #000000; stroke-width: 0.8"/>
      </g>
     </g>
     <g id="text_1">
      <!-- 0 -->
      <g transform="translate(54.657244 243.558437) scale(0.1 -0.1)">
       <defs>
        <path id="DejaVuSans-30" d="M 2034 4250 
Q 1547 4250 1301 3770 
Q 1056 3291 1056 2328 
Q 1056 1369 1301 889 
Q 1547 409 2034 409 
Q 2525 409 2770 889 
Q 3016 1369 3016 2328 
Q 3016 3291 2770 3770 
Q 2525 4250 2034 4250 
z
M 2034 4750 
Q 2819 4750 3233 4129 
Q 3647 3509 3647 2328 
Q 3647 1150 3233 529 
Q 2819 -91 2034 -91 
Q 1250 -91 836 529 
Q 422 1150 422 2328 
Q 422 3509 836 4129 
Q 1250 4750 2034 4750 
z
" transform="scale(0.015625)"/>
       </defs>
       <use xlink:href="#DejaVuSans-30"/>
      </g>
     </g>
    </g>
    <g id="xtick_2">
     <g id="line2d_2">
      <g>
       <use xlink:href="#mddec785207" x="119.953522" y="228.96" style="stroke: #000000; stroke-width: 0.8"/>
      </g>
     </g>
     <g id="text_2">
      <!-- 10 -->
      <g transform="translate(113.591022 243.558437) scale(0.1 -0.1)">
       <defs>
        <path id="DejaVuSans-31" d="M 794 531 
L 1825 531 
L 1825 4091 
L 703 3866 
L 703 4441 
L 1819 4666 
L 2450 4666 
L 2450 531 
L 3481 531 
L 3481 0 
L 794 0 
L 794 531 
z
" transform="scale(0.015625)"/>
       </defs>
       <use xlink:href="#DejaVuSans-31"/>
       <use xlink:href="#DejaVuSans-30" transform="translate(63.623047 0)"/>
      </g>
     </g>
    </g>
    <g id="xtick_3">
     <g id="line2d_3">
      <g>
       <use xlink:href="#mddec785207" x="182.06855" y="228.96" style="stroke: #000000; stroke-width: 0.8"/>
      </g>
     </g>
     <g id="text_3">
      <!-- 20 -->
      <g transform="translate(175.70605 243.558437) scale(0.1 -0.1)">
       <defs>
        <path id="DejaVuSans-32" d="M 1228 531 
L 3431 531 
L 3431 0 
L 469 0 
L 469 531 
Q 828 903 1448 1529 
Q 2069 2156 2228 2338 
Q 2531 2678 2651 2914 
Q 2772 3150 2772 3378 
Q 2772 3750 2511 3984 
Q 2250 4219 1831 4219 
Q 1534 4219 1204 4116 
Q 875 4013 500 3803 
L 500 4441 
Q 881 4594 1212 4672 
Q 1544 4750 1819 4750 
Q 2544 4750 2975 4387 
Q 3406 4025 3406 3419 
Q 3406 3131 3298 2873 
Q 3191 2616 2906 2266 
Q 2828 2175 2409 1742 
Q 1991 1309 1228 531 
z
" transform="scale(0.015625)"/>
       </defs>
       <use xlink:href="#DejaVuSans-32"/>
       <use xlink:href="#DejaVuSans-30" transform="translate(63.623047 0)"/>
      </g>
     </g>
    </g>
    <g id="xtick_4">
     <g id="line2d_4">
      <g>
       <use xlink:href="#mddec785207" x="244.183578" y="228.96" style="stroke: #000000; stroke-width: 0.8"/>
      </g>
     </g>
     <g id="text_4">
      <!-- 30 -->
      <g transform="translate(237.821078 243.558437) scale(0.1 -0.1)">
       <defs>
        <path id="DejaVuSans-33" d="M 2597 2516 
Q 3050 2419 3304 2112 
Q 3559 1806 3559 1356 
Q 3559 666 3084 287 
Q 2609 -91 1734 -91 
Q 1441 -91 1130 -33 
Q 819 25 488 141 
L 488 750 
Q 750 597 1062 519 
Q 1375 441 1716 441 
Q 2309 441 2620 675 
Q 2931 909 2931 1356 
Q 2931 1769 2642 2001 
Q 2353 2234 1838 2234 
L 1294 2234 
L 1294 2753 
L 1863 2753 
Q 2328 2753 2575 2939 
Q 2822 3125 2822 3475 
Q 2822 3834 2567 4026 
Q 2313 4219 1838 4219 
Q 1578 4219 1281 4162 
Q 984 4106 628 3988 
L 628 4550 
Q 988 4650 1302 4700 
Q 1616 4750 1894 4750 
Q 2613 4750 3031 4423 
Q 3450 4097 3450 3541 
Q 3450 3153 3228 2886 
Q 3006 2619 2597 2516 
z
" transform="scale(0.015625)"/>
       </defs>
       <use xlink:href="#DejaVuSans-33"/>
       <use xlink:href="#DejaVuSans-30" transform="translate(63.623047 0)"/>
      </g>
     </g>
    </g>
    <g id="xtick_5">
     <g id="line2d_5">
      <g>
       <use xlink:href="#mddec785207" x="306.298606" y="228.96" style="stroke: #000000; stroke-width: 0.8"/>
      </g>
     </g>
     <g id="text_5">
      <!-- 40 -->
      <g transform="translate(299.936106 243.558437) scale(0.1 -0.1)">
       <defs>
        <path id="DejaVuSans-34" d="M 2419 4116 
L 825 1625 
L 2419 1625 
L 2419 4116 
z
M 2253 4666 
L 3047 4666 
L 3047 1625 
L 3713 1625 
L 3713 1100 
L 3047 1100 
L 3047 0 
L 2419 0 
L 2419 1100 
L 313 1100 
L 313 1709 
L 2253 4666 
z
" transform="scale(0.015625)"/>
       </defs>
       <use xlink:href="#DejaVuSans-34"/>
       <use xlink:href="#DejaVuSans-30" transform="translate(63.623047 0)"/>
      </g>
     </g>
    </g>
    <g id="xtick_6">
     <g id="line2d_6">
      <g>
       <use xlink:href="#mddec785207" x="368.413633" y="228.96" style="stroke: #000000; stroke-width: 0.8"/>
      </g>
     </g>
     <g id="text_6">
      <!-- 50 -->
      <g transform="translate(362.051133 243.558437) scale(0.1 -0.1)">
       <defs>
        <path id="DejaVuSans-35" d="M 691 4666 
L 3169 4666 
L 3169 4134 
L 1269 4134 
L 1269 2991 
Q 1406 3038 1543 3061 
Q 1681 3084 1819 3084 
Q 2600 3084 3056 2656 
Q 3513 2228 3513 1497 
Q 3513 744 3044 326 
Q 2575 -91 1722 -91 
Q 1428 -91 1123 -41 
Q 819 9 494 109 
L 494 744 
Q 775 591 1075 516 
Q 1375 441 1709 441 
Q 2250 441 2565 725 
Q 2881 1009 2881 1497 
Q 2881 1984 2565 2268 
Q 2250 2553 1709 2553 
Q 1456 2553 1204 2497 
Q 953 2441 691 2322 
L 691 4666 
z
" transform="scale(0.015625)"/>
       </defs>
       <use xlink:href="#DejaVuSans-35"/>
       <use xlink:href="#DejaVuSans-30" transform="translate(63.623047 0)"/>
      </g>
     </g>
    </g>
    <g id="text_7">
     <!-- x [m] -->
     <g transform="translate(196.7 257.236562) scale(0.1 -0.1)">
      <defs>
       <path id="DejaVuSans-78" d="M 3513 3500 
L 2247 1797 
L 3578 0 
L 2900 0 
L 1881 1375 
L 863 0 
L 184 0 
L 1544 1831 
L 300 3500 
L 978 3500 
L 1906 2253 
L 2834 3500 
L 3513 3500 
z
" transform="scale(0.015625)"/>
       <path id="DejaVuSans-20" transform="scale(0.015625)"/>
       <path id="DejaVuSans-5b" d="M 550 4863 
L 1875 4863 
L 1875 4416 
L 1125 4416 
L 1125 -397 
L 1875 -397 
L 1875 -844 
L 550 -844 
L 550 4863 
z
" transform="scale(0.015625)"/>
       <path id="DejaVuSans-6d" d="M 3328 2828 
Q 3544 3216 3844 3400 
Q 4144 3584 4550 3584 
Q 5097 3584 5394 3201 
Q 5691 2819 5691 2113 
L 5691 0 
L 5113 0 
L 5113 2094 
Q 5113 2597 4934 2840 
Q 4756 3084 4391 3084 
Q 3944 3084 3684 2787 
Q 3425 2491 3425 1978 
L 3425 0 
L 2847 0 
L 2847 2094 
Q 2847 2600 2669 2842 
Q 2491 3084 2119 3084 
Q 1678 3084 1418 2786 
Q 1159 2488 1159 1978 
L 1159 0 
L 581 0 
L 581 3500 
L 1159 3500 
L 1159 2956 
Q 1356 3278 1631 3431 
Q 1906 3584 2284 3584 
Q 2666 3584 2933 3390 
Q 3200 3197 3328 2828 
z
" transform="scale(0.015625)"/>
       <path id="DejaVuSans-5d" d="M 1947 4863 
L 1947 -844 
L 622 -844 
L 622 -397 
L 1369 -397 
L 1369 4416 
L 622 4416 
L 622 4863 
L 1947 4863 
z
" transform="scale(0.015625)"/>
      </defs>
      <use xlink:href="#DejaVuSans-78"/>
      <use xlink:href="#DejaVuSans-20" transform="translate(59.179688 0)"/>
      <use xlink:href="#DejaVuSans-5b" transform="translate(90.966797 0)"/>
      <use xlink:href="#DejaVuSans-6d" transform="translate(129.980469 0)"/>
      <use xlink:href="#DejaVuSans-5d" transform="translate(227.392578 0)"/>
     </g>
    </g>
   </g>
   <g id="matplotlib.axis_2">
    <g id="ytick_1">
     <g id="line2d_7">
      <defs>
       <path id="mc64a4380f7" d="M 0 0 
L -3.5 0 
" style="stroke: #000000; stroke-width: 0.8"/>
      </defs>
      <g>
       <use xlink:href="#mc64a4380f7" x="42.620313" y="197.150899" style="stroke: #000000; stroke-width: 0.8"/>
      </g>
     </g>
     <g id="text_8">
      <!-- −4 -->
      <g transform="translate(20.878125 200.950118) scale(0.1 -0.1)">
       <defs>
        <path id="DejaVuSans-2212" d="M 678 2272 
L 4684 2272 
L 4684 1741 
L 678 1741 
L 678 2272 
z
" transform="scale(0.015625)"/>
       </defs>
       <use xlink:href="#DejaVuSans-2212"/>
       <use xlink:href="#DejaVuSans-34" transform="translate(83.789062 0)"/>
      </g>
     </g>
    </g>
    <g id="ytick_2">
     <g id="line2d_8">
      <g>
       <use xlink:href="#mc64a4380f7" x="42.620313" y="157.70154" style="stroke: #000000; stroke-width: 0.8"/>
      </g>
     </g>
     <g id="text_9">
      <!-- −2 -->
      <g transform="translate(20.878125 161.500759) scale(0.1 -0.1)">
       <use xlink:href="#DejaVuSans-2212"/>
       <use xlink:href="#DejaVuSans-32" transform="translate(83.789062 0)"/>
      </g>
     </g>
    </g>
    <g id="ytick_3">
     <g id="line2d_9">
      <g>
       <use xlink:href="#mc64a4380f7" x="42.620313" y="118.25218" style="stroke: #000000; stroke-width: 0.8"/>
      </g>
     </g>
     <g id="text_10">
      <!-- 0 -->
      <g transform="translate(29.257813 122.051399) scale(0.1 -0.1)">
       <use xlink:href="#DejaVuSans-30"/>
      </g>
     </g>
    </g>
    <g id="ytick_4">
     <g id="line2d_10">
      <g>
       <use xlink:href="#mc64a4380f7" x="42.620313" y="78.802821" style="stroke: #000000; stroke-width: 0.8"/>
      </g>
     </g>
     <g id="text_11">
      <!-- 2 -->
      <g transform="translate(29.257813 82.602039) scale(0.1 -0.1)">
       <use xlink:href="#DejaVuSans-32"/>
      </g>
     </g>
    </g>
    <g id="ytick_5">
     <g id="line2d_11">
      <g>
       <use xlink:href="#mc64a4380f7" x="42.620313" y="39.353461" style="stroke: #000000; stroke-width: 0.8"/>
      </g>
     </g>
     <g id="text_12">
      <!-- 4 -->
      <g transform="translate(29.257813 43.15268) scale(0.1 -0.1)">
       <use xlink:href="#DejaVuSans-34"/>
      </g>
     </g>
    </g>
    <g id="text_13">
     <!-- [m/s] -->
     <g transform="translate(14.798438 131.140937) rotate(-90) scale(0.1 -0.1)">
      <defs>
       <path id="DejaVuSans-2f" d="M 1625 4666 
L 2156 4666 
L 531 -594 
L 0 -594 
L 1625 4666 
z
" transform="scale(0.015625)"/>
       <path id="DejaVuSans-73" d="M 2834 3397 
L 2834 2853 
Q 2591 2978 2328 3040 
Q 2066 3103 1784 3103 
Q 1356 3103 1142 2972 
Q 928 2841 928 2578 
Q 928 2378 1081 2264 
Q 1234 2150 1697 2047 
L 1894 2003 
Q 2506 1872 2764 1633 
Q 3022 1394 3022 966 
Q 3022 478 2636 193 
Q 2250 -91 1575 -91 
Q 1294 -91 989 -36 
Q 684 19 347 128 
L 347 722 
Q 666 556 975 473 
Q 1284 391 1588 391 
Q 1994 391 2212 530 
Q 2431 669 2431 922 
Q 2431 1156 2273 1281 
Q 2116 1406 1581 1522 
L 1381 1569 
Q 847 1681 609 1914 
Q 372 2147 372 2553 
Q 372 3047 722 3315 
Q 1072 3584 1716 3584 
Q 2034 3584 2315 3537 
Q 2597 3491 2834 3397 
z
" transform="scale(0.015625)"/>
      </defs>
      <use xlink:href="#DejaVuSans-5b"/>
      <use xlink:href="#DejaVuSans-6d" transform="translate(39.013672 0)"/>
      <use xlink:href="#DejaVuSans-2f" transform="translate(136.425781 0)"/>
      <use xlink:href="#DejaVuSans-73" transform="translate(170.117188 0)"/>
      <use xlink:href="#DejaVuSans-5d" transform="translate(222.216797 0)"/>
     </g>
    </g>
   </g>
   <g id="line2d_12">
    <defs>
     <path id="maf7d8fef54" d="M 0 3 
C 0.795609 3 1.55874 2.683901 2.12132 2.12132 
C 2.683901 1.55874 3 0.795609 3 0 
C 3 -0.795609 2.683901 -1.55874 2.12132 -2.12132 
C 1.55874 -2.683901 0.795609 -3 0 -3 
C -0.795609 -3 -1.55874 -2.683901 -2.12132 -2.12132 
C -2.683901 -1.55874 -3 -0.795609 -3 0 
C -3 0.795609 -2.683901 1.55874 -2.12132 2.12132 
C -1.55874 2.683901 -0.795609 3 0 3 
z
" style="stroke: #1f77b4"/>
    </defs>
    <g clip-path="url(#p7f56a7baf7)">
     <use xlink:href="#maf7d8fef54" x="57.838494" y="118.25218" style="fill: #1f77b4; stroke: #1f77b4"/>
     <use xlink:href="#maf7d8fef54" x="64.049997" y="98.183548" style="fill: #1f77b4; stroke: #1f77b4"/>
     <use xlink:href="#maf7d8fef54" x="70.2615" y="78.914988" style="fill: #1f77b4; stroke: #1f77b4"/>
     <use xlink:href="#maf7d8fef54" x="76.473003" y="61.214678" style="fill: #1f77b4; stroke: #1f77b4"/>
     <use xlink:href="#maf7d8fef54" x="82.684505" y="45.788273" style="fill: #1f77b4; stroke: #1f77b4"/>
     <use xlink:href="#maf7d8fef54" x="88.896008" y="33.250776" style="fill: #1f77b4; stroke: #1f77b4"/>
     <use xlink:href="#maf7d8fef54" x="95.107511" y="24.102016" style="fill: #1f77b4; stroke: #1f77b4"/>
     <use xlink:href="#maf7d8fef54" x="101.319014" y="18.706727" style="fill: #1f77b4; stroke: #1f77b4"/>
     <use xlink:href="#maf7d8fef54" x="107.530517" y="17.28" style="fill: #1f77b4; stroke: #1f77b4"/>
     <use xlink:href="#maf7d8fef54" x="113.742019" y="19.878716" style="fill: #1f77b4; stroke: #1f77b4"/>
     <use xlink:href="#maf7d8fef54" x="119.953522" y="26.399271" style="fill: #1f77b4; stroke: #1f77b4"/>
     <use xlink:href="#maf7d8fef54" x="126.165025" y="36.581712" style="fill: #1f77b4; stroke: #1f77b4"/>
     <use xlink:href="#maf7d8fef54" x="132.376528" y="50.020096" style="fill: #1f77b4; stroke: #1f77b4"/>
     <use xlink:href="#maf7d8fef54" x="138.58803" y="66.178679" style="fill: #1f77b4; stroke: #1f77b4"/>
     <use xlink:href="#maf7d8fef54" x="144.799533" y="84.413268" style="fill: #1f77b4; stroke: #1f77b4"/>
     <use xlink:href="#maf7d8fef54" x="151.011036" y="103.996907" style="fill: #1f77b4; stroke: #1f77b4"/>
     <use xlink:href="#maf7d8fef54" x="157.222539" y="124.148859" style="fill: #1f77b4; stroke: #1f77b4"/>
     <use xlink:href="#maf7d8fef54" x="163.434042" y="144.065729" style="fill: #1f77b4; stroke: #1f77b4"/>
     <use xlink:href="#maf7d8fef54" x="169.645544" y="162.953495" style="fill: #1f77b4; stroke: #1f77b4"/>
     <use xlink:href="#maf7d8fef54" x="175.857047" y="180.05916" style="fill: #1f77b4; stroke: #1f77b4"/>
     <use xlink:href="#maf7d8fef54" x="182.06855" y="194.700776" style="fill: #1f77b4; stroke: #1f77b4"/>
     <use xlink:href="#maf7d8fef54" x="188.280053" y="206.294627" style="fill: #1f77b4; stroke: #1f77b4"/>
     <use xlink:href="#maf7d8fef54" x="194.491556" y="214.378504" style="fill: #1f77b4; stroke: #1f77b4"/>
     <use xlink:href="#maf7d8fef54" x="200.703058" y="218.630128" style="fill: #1f77b4; stroke: #1f77b4"/>
     <use xlink:href="#maf7d8fef54" x="206.914561" y="218.88" style="fill: #1f77b4; stroke: #1f77b4"/>
     <use xlink:href="#maf7d8fef54" x="213.126064" y="215.118158" style="fill: #1f77b4; stroke: #1f77b4"/>
     <use xlink:href="#maf7d8fef54" x="219.337567" y="207.494576" style="fill: #1f77b4; stroke: #1f77b4"/>
     <use xlink:href="#maf7d8fef54" x="225.549069" y="196.31318" style="fill: #1f77b4; stroke: #1f77b4"/>
     <use xlink:href="#maf7d8fef54" x="231.760572" y="182.019739" style="fill: #1f77b4; stroke: #1f77b4"/>
     <use xlink:href="#maf7d8fef54" x="237.972075" y="165.184087" style="fill: #1f77b4; stroke: #1f77b4"/>
     <use xlink:href="#maf7d8fef54" x="244.183578" y="146.477407" style="fill: #1f77b4; stroke: #1f77b4"/>
     <use xlink:href="#maf7d8fef54" x="250.395081" y="126.645477" style="fill: #1f77b4; stroke: #1f77b4"/>
     <use xlink:href="#maf7d8fef54" x="256.606583" y="106.478933" style="fill: #1f77b4; stroke: #1f77b4"/>
     <use xlink:href="#maf7d8fef54" x="262.818086" y="86.781751" style="fill: #1f77b4; stroke: #1f77b4"/>
     <use xlink:href="#maf7d8fef54" x="269.029589" y="68.339195" style="fill: #1f77b4; stroke: #1f77b4"/>
     <use xlink:href="#maf7d8fef54" x="275.241092" y="51.886513" style="fill: #1f77b4; stroke: #1f77b4"/>
     <use xlink:href="#maf7d8fef54" x="281.452595" y="38.07962" style="fill: #1f77b4; stroke: #1f77b4"/>
     <use xlink:href="#maf7d8fef54" x="287.664097" y="27.468955" style="fill: #1f77b4; stroke: #1f77b4"/>
     <use xlink:href="#maf7d8fef54" x="293.8756" y="20.47753" style="fill: #1f77b4; stroke: #1f77b4"/>
     <use xlink:href="#maf7d8fef54" x="300.087103" y="17.384072" style="fill: #1f77b4; stroke: #1f77b4"/>
     <use xlink:href="#maf7d8fef54" x="306.298606" y="18.311907" style="fill: #1f77b4; stroke: #1f77b4"/>
     <use xlink:href="#maf7d8fef54" x="312.510108" y="23.224045" style="fill: #1f77b4; stroke: #1f77b4"/>
     <use xlink:href="#maf7d8fef54" x="318.721611" y="31.924655" style="fill: #1f77b4; stroke: #1f77b4"/>
     <use xlink:href="#maf7d8fef54" x="324.933114" y="44.066872" style="fill: #1f77b4; stroke: #1f77b4"/>
     <use xlink:href="#maf7d8fef54" x="331.144617" y="59.166622" style="fill: #1f77b4; stroke: #1f77b4"/>
     <use xlink:href="#maf7d8fef54" x="337.35612" y="76.621927" style="fill: #1f77b4; stroke: #1f77b4"/>
     <use xlink:href="#maf7d8fef54" x="343.567622" y="95.736899" style="fill: #1f77b4; stroke: #1f77b4"/>
     <use xlink:href="#maf7d8fef54" x="349.779125" y="115.749484" style="fill: #1f77b4; stroke: #1f77b4"/>
     <use xlink:href="#maf7d8fef54" x="355.990628" y="135.861844" style="fill: #1f77b4; stroke: #1f77b4"/>
     <use xlink:href="#maf7d8fef54" x="362.202131" y="155.272162" style="fill: #1f77b4; stroke: #1f77b4"/>
    </g>
   </g>
   <g id="line2d_13">
    <defs>
     <path id="mdaa06e9d67" d="M -0 3 
L 3 -3 
L -3 -3 
z
" style="stroke: #ff7f0e; stroke-linejoin: miter"/>
    </defs>
    <g clip-path="url(#p7f56a7baf7)">
     <use xlink:href="#mdaa06e9d67" x="57.838494" y="118.25218" style="fill: #ff7f0e; stroke: #ff7f0e; stroke-linejoin: miter"/>
     <use xlink:href="#mdaa06e9d67" x="64.049997" y="106.564789" style="fill: #ff7f0e; stroke: #ff7f0e; stroke-linejoin: miter"/>
     <use xlink:href="#mdaa06e9d67" x="70.2615" y="95.343338" style="fill: #ff7f0e; stroke: #ff7f0e; stroke-linejoin: miter"/>
     <use xlink:href="#mdaa06e9d67" x="76.473003" y="85.03519" style="fill: #ff7f0e; stroke: #ff7f0e; stroke-linejoin: miter"/>
     <use xlink:href="#mdaa06e9d67" x="82.684505" y="76.051298" style="fill: #ff7f0e; stroke: #ff7f0e; stroke-linejoin: miter"/>
     <use xlink:href="#mdaa06e9d67" x="88.896008" y="68.749823" style="fill: #ff7f0e; stroke: #ff7f0e; stroke-linejoin: miter"/>
     <use xlink:href="#mdaa06e9d67" x="95.107511" y="63.42185" style="fill: #ff7f0e; stroke: #ff7f0e; stroke-linejoin: miter"/>
     <use xlink:href="#mdaa06e9d67" x="101.319014" y="60.279789" style="fill: #ff7f0e; stroke: #ff7f0e; stroke-linejoin: miter"/>
     <use xlink:href="#mdaa06e9d67" x="107.530517" y="59.448905" style="fill: #ff7f0e; stroke: #ff7f0e; stroke-linejoin: miter"/>
     <use xlink:href="#mdaa06e9d67" x="113.742019" y="60.962322" style="fill: #ff7f0e; stroke: #ff7f0e; stroke-linejoin: miter"/>
     <use xlink:href="#mdaa06e9d67" x="119.953522" y="64.759704" style="fill: #ff7f0e; stroke: #ff7f0e; stroke-linejoin: miter"/>
     <use xlink:href="#mdaa06e9d67" x="126.165025" y="70.689663" style="fill: #ff7f0e; stroke: #ff7f0e; stroke-linejoin: miter"/>
     <use xlink:href="#mdaa06e9d67" x="132.376528" y="78.515789" style="fill: #ff7f0e; stroke: #ff7f0e; stroke-linejoin: miter"/>
     <use xlink:href="#mdaa06e9d67" x="138.58803" y="87.92608" style="fill: #ff7f0e; stroke: #ff7f0e; stroke-linejoin: miter"/>
     <use xlink:href="#mdaa06e9d67" x="144.799533" y="98.545377" style="fill: #ff7f0e; stroke: #ff7f0e; stroke-linejoin: miter"/>
     <use xlink:href="#mdaa06e9d67" x="151.011036" y="109.950322" style="fill: #ff7f0e; stroke: #ff7f0e; stroke-linejoin: miter"/>
     <use xlink:href="#mdaa06e9d67" x="157.222539" y="121.686235" style="fill: #ff7f0e; stroke: #ff7f0e; stroke-linejoin: miter"/>
     <use xlink:href="#mdaa06e9d67" x="163.434042" y="133.285244" style="fill: #ff7f0e; stroke: #ff7f0e; stroke-linejoin: miter"/>
     <use xlink:href="#mdaa06e9d67" x="169.645544" y="144.284932" style="fill: #ff7f0e; stroke: #ff7f0e; stroke-linejoin: miter"/>
     <use xlink:href="#mdaa06e9d67" x="175.857047" y="154.246776" style="fill: #ff7f0e; stroke: #ff7f0e; stroke-linejoin: miter"/>
     <use xlink:href="#mdaa06e9d67" x="182.06855" y="162.77363" style="fill: #ff7f0e; stroke: #ff7f0e; stroke-linejoin: miter"/>
     <use xlink:href="#mdaa06e9d67" x="188.280053" y="169.525553" style="fill: #ff7f0e; stroke: #ff7f0e; stroke-linejoin: miter"/>
     <use xlink:href="#mdaa06e9d67" x="194.491556" y="174.233369" style="fill: #ff7f0e; stroke: #ff7f0e; stroke-linejoin: miter"/>
     <use xlink:href="#mdaa06e9d67" x="200.703058" y="176.709392" style="fill: #ff7f0e; stroke: #ff7f0e; stroke-linejoin: miter"/>
     <use xlink:href="#mdaa06e9d67" x="206.914561" y="176.85491" style="fill: #ff7f0e; stroke: #ff7f0e; stroke-linejoin: miter"/>
     <use xlink:href="#mdaa06e9d67" x="213.126064" y="174.664122" style="fill: #ff7f0e; stroke: #ff7f0e; stroke-linejoin: miter"/>
     <use xlink:href="#mdaa06e9d67" x="219.337567" y="170.224368" style="fill: #ff7f0e; stroke: #ff7f0e; stroke-linejoin: miter"/>
     <use xlink:href="#mdaa06e9d67" x="225.549069" y="163.712647" style="fill: #ff7f0e; stroke: #ff7f0e; stroke-linejoin: miter"/>
     <use xlink:href="#mdaa06e9d67" x="231.760572" y="155.388561" style="fill: #ff7f0e; stroke: #ff7f0e; stroke-linejoin: miter"/>
     <use xlink:href="#mdaa06e9d67" x="237.972075" y="145.583964" style="fill: #ff7f0e; stroke: #ff7f0e; stroke-linejoin: miter"/>
     <use xlink:href="#mdaa06e9d67" x="244.183578" y="134.689736" style="fill: #ff7f0e; stroke: #ff7f0e; stroke-linejoin: miter"/>
     <use xlink:href="#mdaa06e9d67" x="250.395081" y="123.140193" style="fill: #ff7f0e; stroke: #ff7f0e; stroke-linejoin: miter"/>
     <use xlink:href="#mdaa06e9d67" x="256.606583" y="111.395782" style="fill: #ff7f0e; stroke: #ff7f0e; stroke-linejoin: miter"/>
     <use xlink:href="#mdaa06e9d67" x="262.818086" y="99.924713" style="fill: #ff7f0e; stroke: #ff7f0e; stroke-linejoin: miter"/>
     <use xlink:href="#mdaa06e9d67" x="269.029589" y="89.184302" style="fill: #ff7f0e; stroke: #ff7f0e; stroke-linejoin: miter"/>
     <use xlink:href="#mdaa06e9d67" x="275.241092" y="79.602736" style="fill: #ff7f0e; stroke: #ff7f0e; stroke-linejoin: miter"/>
     <use xlink:href="#mdaa06e9d67" x="281.452595" y="71.562002" style="fill: #ff7f0e; stroke: #ff7f0e; stroke-linejoin: miter"/>
     <use xlink:href="#mdaa06e9d67" x="287.664097" y="65.382657" style="fill: #ff7f0e; stroke: #ff7f0e; stroke-linejoin: miter"/>
     <use xlink:href="#mdaa06e9d67" x="293.8756" y="61.311054" style="fill: #ff7f0e; stroke: #ff7f0e; stroke-linejoin: miter"/>
     <use xlink:href="#mdaa06e9d67" x="300.087103" y="59.509513" style="fill: #ff7f0e; stroke: #ff7f0e; stroke-linejoin: miter"/>
     <use xlink:href="#mdaa06e9d67" x="306.298606" y="60.049858" style="fill: #ff7f0e; stroke: #ff7f0e; stroke-linejoin: miter"/>
     <use xlink:href="#mdaa06e9d67" x="312.510108" y="62.910545" style="fill: #ff7f0e; stroke: #ff7f0e; stroke-linejoin: miter"/>
     <use xlink:href="#mdaa06e9d67" x="318.721611" y="67.977528" style="fill: #ff7f0e; stroke: #ff7f0e; stroke-linejoin: miter"/>
     <use xlink:href="#mdaa06e9d67" x="324.933114" y="75.048804" style="fill: #ff7f0e; stroke: #ff7f0e; stroke-linejoin: miter"/>
     <use xlink:href="#mdaa06e9d67" x="331.144617" y="83.842461" style="fill: #ff7f0e; stroke: #ff7f0e; stroke-linejoin: miter"/>
     <use xlink:href="#mdaa06e9d67" x="337.35612" y="94.007926" style="fill: #ff7f0e; stroke: #ff7f0e; stroke-linejoin: miter"/>
     <use xlink:href="#mdaa06e9d67" x="343.567622" y="105.139932" style="fill: #ff7f0e; stroke: #ff7f0e; stroke-linejoin: miter"/>
     <use xlink:href="#mdaa06e9d67" x="349.779125" y="116.794683" style="fill: #ff7f0e; stroke: #ff7f0e; stroke-linejoin: miter"/>
     <use xlink:href="#mdaa06e9d67" x="355.990628" y="128.507539" style="fill: #ff7f0e; stroke: #ff7f0e; stroke-linejoin: miter"/>
     <use xlink:href="#mdaa06e9d67" x="362.202131" y="139.811546" style="fill: #ff7f0e; stroke: #ff7f0e; stroke-linejoin: miter"/>
    </g>
   </g>
   <g id="patch_3">
    <path d="M 42.620313 228.96 
L 42.620313 7.2 
" style="fill: none; stroke: #000000; stroke-width: 0.8; stroke-linejoin: miter; stroke-linecap: square"/>
   </g>
   <g id="patch_4">
    <path d="M 377.420313 228.96 
L 377.420313 7.2 
" style="fill: none; stroke: #000000; stroke-width: 0.8; stroke-linejoin: miter; stroke-linecap: square"/>
   </g>
   <g id="patch_5">
    <path d="M 42.620313 228.96 
L 377.420312 228.96 
" style="fill: none; stroke: #000000; stroke-width: 0.8; stroke-linejoin: miter; stroke-linecap: square"/>
   </g>
   <g id="patch_6">
    <path d="M 42.620313 7.2 
L 377.420312 7.2 
" style="fill: none; stroke: #000000; stroke-width: 0.8; stroke-linejoin: miter; stroke-linecap: square"/>
   </g>
   <g id="legend_1">
    <g id="patch_7">
     <path d="M 332.071875 44.55625 
L 370.420313 44.55625 
Q 372.420313 44.55625 372.420313 42.55625 
L 372.420313 14.2 
Q 372.420313 12.2 370.420313 12.2 
L 332.071875 12.2 
Q 330.071875 12.2 330.071875 14.2 
L 330.071875 42.55625 
Q 330.071875 44.55625 332.071875 44.55625 
z
" style="fill: #ffffff; opacity: 0.8; stroke: #cccccc; stroke-linejoin: miter"/>
    </g>
    <g id="line2d_14">
     <g>
      <use xlink:href="#maf7d8fef54" x="344.071875" y="20.298437" style="fill: #1f77b4; stroke: #1f77b4"/>
     </g>
    </g>
    <g id="text_14">
     <!-- a -->
     <g transform="translate(362.071875 23.798437) scale(0.1 -0.1)">
      <defs>
       <path id="DejaVuSans-61" d="M 2194 1759 
Q 1497 1759 1228 1600 
Q 959 1441 959 1056 
Q 959 750 1161 570 
Q 1363 391 1709 391 
Q 2188 391 2477 730 
Q 2766 1069 2766 1631 
L 2766 1759 
L 2194 1759 
z
M 3341 1997 
L 3341 0 
L 2766 0 
L 2766 531 
Q 2569 213 2275 61 
Q 1981 -91 1556 -91 
Q 1019 -91 701 211 
Q 384 513 384 1019 
Q 384 1609 779 1909 
Q 1175 2209 1959 2209 
L 2766 2209 
L 2766 2266 
Q 2766 2663 2505 2880 
Q 2244 3097 1772 3097 
Q 1472 3097 1187 3025 
Q 903 2953 641 2809 
L 641 3341 
Q 956 3463 1253 3523 
Q 1550 3584 1831 3584 
Q 2591 3584 2966 3190 
Q 3341 2797 3341 1997 
z
" transform="scale(0.015625)"/>
      </defs>
      <use xlink:href="#DejaVuSans-61"/>
     </g>
    </g>
    <g id="line2d_15">
     <g>
      <use xlink:href="#mdaa06e9d67" x="344.071875" y="34.976562" style="fill: #ff7f0e; stroke: #ff7f0e; stroke-linejoin: miter"/>
     </g>
    </g>
    <g id="text_15">
     <!-- b -->
     <g transform="translate(362.071875 38.476562) scale(0.1 -0.1)">
      <defs>
       <path id="DejaVuSans-62" d="M 3116 1747 
Q 3116 2381 2855 2742 
Q 2594 3103 2138 3103 
Q 1681 3103 1420 2742 
Q 1159 2381 1159 1747 
Q 1159 1113 1420 752 
Q 1681 391 2138 391 
Q 2594 391 2855 752 
Q 3116 1113 3116 1747 
z
M 1159 2969 
Q 1341 3281 1617 3432 
Q 1894 3584 2278 3584 
Q 2916 3584 3314 3078 
Q 3713 2572 3713 1747 
Q 3713 922 3314 415 
Q 2916 -91 2278 -91 
Q 1894 -91 1617 61 
Q 1341 213 1159 525 
L 1159 0 
L 581 0 
L 581 4863 
L 1159 4863 
L 1159 2969 
z
" transform="scale(0.015625)"/>
      </defs>
      <use xlink:href="#DejaVuSans-62"/>
     </g>
    </g>
   </g>
  </g>
 </g>
 <defs>
  <clipPath id="p7f56a7baf7">
   <rect x="42.620313" y="7.2" width="334.8" height="221.76"/>
  </clipPath>
 </defs>
</svg>
