<?xml version="1.0" encoding="UTF-8" standalone="no"?>
<!DOCTYPE svg PUBLIC "-//W3C//DTD SVG 1.1//EN"
 "http://www.w3.org/Graphics/SVG/1.1/DTD/svg11.dtd">
<!-- Generated by graphviz version 2.43.0 (0)
 -->
<!-- Title: %3 Pages: 1 -->
<svg width="569pt" height="323pt"
 viewBox="0.00 0.00 568.50 322.53" xmlns="http://www.w3.org/2000/svg" xmlns:xlink="http://www.w3.org/1999/xlink">
<g id="graph0" class="graph" transform="scale(1 1) rotate(0) translate(4 318.53)">
<title>%3</title>
<polygon fill="white" stroke="transparent" points="-4,4 -4,-318.53 564.5,-318.53 564.5,4 -4,4"/>
<!-- 035e76625b4943f9af888ec11448881b -->
<g id="node1" class="node">
<title>035e76625b4943f9af888ec11448881b</title>
<polygon fill="none" stroke="black" points="157,-314.53 0,-314.53 0,-291.53 157,-291.53 157,-314.53"/>
<text text-anchor="middle" x="78.5" y="-299.33" font-family="Times,serif" font-size="14.00">Input &lt;DataArray&gt;</text>
</g>
<!-- 568782d17d784beb896fdd68a35d35e2 -->
<g id="node2" class="node">
<title>568782d17d784beb896fdd68a35d35e2</title>
<polygon fill="none" stroke="black" points="285,-240.53 62,-240.53 62,-217.53 285,-217.53 285,-240.53"/>
<text text-anchor="middle" x="173.5" y="-225.33" font-family="Times,serif" font-size="14.00">gaussian_filter(arg_0, sigma)</text>
</g>
<!-- 035e76625b4943f9af888ec11448881b&#45;&gt;568782d17d784beb896fdd68a35d35e2 -->
<g id="edge1" class="edge">
<title>035e76625b4943f9af888ec11448881b&#45;&gt;568782d17d784beb896fdd68a35d35e2</title>
<path fill="none" stroke="black" d="M92.52,-291.4C107.95,-279.7 132.99,-260.73 151.14,-246.97"/>
<polygon fill="black" stroke="black" points="153.57,-249.52 159.42,-240.69 149.34,-243.95 153.57,-249.52"/>
<text text-anchor="middle" x="155.5" y="-262.33" font-family="Times,serif" font-size="14.00">arg_0</text>
</g>
<!-- 10450bb960bd4e44b90898a62409f815 -->
<g id="node3" class="node">
<title>10450bb960bd4e44b90898a62409f815</title>
<polygon fill="none" stroke="black" points="324,-166.53 229,-166.53 229,-143.53 324,-143.53 324,-166.53"/>
<text text-anchor="middle" x="276.5" y="-151.33" font-family="Times,serif" font-size="14.00">preprocess</text>
</g>
<!-- 568782d17d784beb896fdd68a35d35e2&#45;&gt;10450bb960bd4e44b90898a62409f815 -->
<g id="edge2" class="edge">
<title>568782d17d784beb896fdd68a35d35e2&#45;&gt;10450bb960bd4e44b90898a62409f815</title>
<path fill="none" stroke="black" d="M188.7,-217.4C205.59,-205.6 233.07,-186.39 252.79,-172.6"/>
<polygon fill="black" stroke="black" points="255.05,-175.29 261.24,-166.69 251.04,-169.56 255.05,-175.29"/>
<text text-anchor="middle" x="253.5" y="-188.33" font-family="Times,serif" font-size="14.00">arg_0</text>
</g>
<!-- ba53b749b653419ab9899b927208c765 -->
<g id="node4" class="node">
<title>ba53b749b653419ab9899b927208c765</title>
<polygon fill="none" stroke="black" points="458,-92.53 269,-92.53 269,-69.53 458,-69.53 458,-92.53"/>
<text text-anchor="middle" x="363.5" y="-77.33" font-family="Times,serif" font-size="14.00">slice_dims(arg_0, arg_1)</text>
</g>
<!-- 10450bb960bd4e44b90898a62409f815&#45;&gt;ba53b749b653419ab9899b927208c765 -->
<g id="edge3" class="edge">
<title>10450bb960bd4e44b90898a62409f815&#45;&gt;ba53b749b653419ab9899b927208c765</title>
<path fill="none" stroke="black" d="M289.34,-143.4C303.34,-131.81 325.98,-113.08 342.57,-99.35"/>
<polygon fill="black" stroke="black" points="345.14,-101.77 350.61,-92.69 340.67,-96.37 345.14,-101.77"/>
<text text-anchor="middle" x="347.5" y="-114.33" font-family="Times,serif" font-size="14.00">arg_0</text>
</g>
<!-- 8d4b89c208bc41abbbef7116db084158 -->
<g id="node8" class="node">
<title>8d4b89c208bc41abbbef7116db084158</title>
<ellipse fill="lightgrey" stroke="lightgrey" cx="363.5" cy="-16.26" rx="67.35" ry="16.03"/>
<text text-anchor="middle" x="363.5" y="-12.56" font-family="Times,serif" font-size="14.00">ImageView</text>
</g>
<!-- ba53b749b653419ab9899b927208c765&#45;&gt;8d4b89c208bc41abbbef7116db084158 -->
<g id="edge5" class="edge">
<title>ba53b749b653419ab9899b927208c765&#45;&gt;8d4b89c208bc41abbbef7116db084158</title>
<path fill="none" stroke="black" d="M363.5,-69.38C363.5,-62.06 363.5,-52.02 363.5,-42.7"/>
<polygon fill="black" stroke="black" points="367,-42.68 363.5,-32.68 360,-42.68 367,-42.68"/>
</g>
<!-- 72e433fb31b7461fa6f2175336a67635 -->
<g id="node5" class="node">
<title>72e433fb31b7461fa6f2175336a67635</title>
<polygon fill="none" stroke="black" points="560.5,-166.53 342.5,-166.53 342.5,-143.53 560.5,-143.53 560.5,-166.53"/>
<text text-anchor="middle" x="451.5" y="-151.33" font-family="Times,serif" font-size="14.00">Widget &lt;SliceWidget: dict&gt;</text>
</g>
<!-- 72e433fb31b7461fa6f2175336a67635&#45;&gt;ba53b749b653419ab9899b927208c765 -->
<g id="edge4" class="edge">
<title>72e433fb31b7461fa6f2175336a67635&#45;&gt;ba53b749b653419ab9899b927208c765</title>
<path fill="none" stroke="black" d="M438.52,-143.4C424.35,-131.81 401.45,-113.08 384.67,-99.35"/>
<polygon fill="black" stroke="black" points="386.49,-96.32 376.54,-92.69 382.06,-101.74 386.49,-96.32"/>
<text text-anchor="middle" x="434.5" y="-114.33" font-family="Times,serif" font-size="14.00">arg_1</text>
</g>
<!-- 85efad93fde94184a60ab70cde1adc11 -->
<g id="node6" class="node">
<title>85efad93fde94184a60ab70cde1adc11</title>
<polygon fill="none" stroke="black" points="458,-240.53 303,-240.53 303,-217.53 458,-217.53 458,-240.53"/>
<text text-anchor="middle" x="380.5" y="-225.33" font-family="Times,serif" font-size="14.00">Input &lt;NoneType&gt;</text>
</g>
<!-- 85efad93fde94184a60ab70cde1adc11&#45;&gt;10450bb960bd4e44b90898a62409f815 -->
<g id="edge6" class="edge">
<title>85efad93fde94184a60ab70cde1adc11&#45;&gt;10450bb960bd4e44b90898a62409f815</title>
<path fill="none" stroke="black" d="M365.15,-217.4C348.03,-205.55 320.1,-186.21 300.17,-172.41"/>
<polygon fill="black" stroke="black" points="302.12,-169.51 291.91,-166.69 298.14,-175.26 302.12,-169.51"/>
<text text-anchor="middle" x="357.5" y="-188.33" font-family="Times,serif" font-size="14.00">name</text>
</g>
<!-- 848498f3e9dc4e92b7d259b8af4a1805 -->
<g id="node7" class="node">
<title>848498f3e9dc4e92b7d259b8af4a1805</title>
<polygon fill="none" stroke="black" points="363.5,-314.53 175.5,-314.53 175.5,-291.53 363.5,-291.53 363.5,-314.53"/>
<text text-anchor="middle" x="269.5" y="-299.33" font-family="Times,serif" font-size="14.00">Widget &lt;IntSlider: int&gt;</text>
</g>
<!-- 848498f3e9dc4e92b7d259b8af4a1805&#45;&gt;568782d17d784beb896fdd68a35d35e2 -->
<g id="edge7" class="edge">
<title>848498f3e9dc4e92b7d259b8af4a1805&#45;&gt;568782d17d784beb896fdd68a35d35e2</title>
<path fill="none" stroke="black" d="M255.33,-291.4C239.74,-279.7 214.44,-260.73 196.1,-246.97"/>
<polygon fill="black" stroke="black" points="197.82,-243.89 187.72,-240.69 193.62,-249.49 197.82,-243.89"/>
<text text-anchor="middle" x="251" y="-262.33" font-family="Times,serif" font-size="14.00">sigma</text>
</g>
</g>
</svg>
