<?xml version="1.0" encoding="utf-8" standalone="no"?>
<!DOCTYPE svg PUBLIC "-//W3C//DTD SVG 1.1//EN"
  "http://www.w3.org/Graphics/SVG/1.1/DTD/svg11.dtd">
<svg xmlns:xlink="http://www.w3.org/1999/xlink" width="390.982812pt" height="266.51625pt" viewBox="0 0 390.982812 266.51625" xmlns="http://www.w3.org/2000/svg" version="1.1">
 <metadata>
  <rdf:RDF xmlns:dc="http://purl.org/dc/elements/1.1/" xmlns:cc="http://creativecommons.org/ns#" xmlns:rdf="http://www.w3.org/1999/02/22-rdf-syntax-ns#">
   <cc:Work>
    <dc:type rdf:resource="http://purl.org/dc/dcmitype/StillImage"/>
    <dc:date>2025-03-10T15:32:16.427775</dc:date>
    <dc:format>image/svg+xml</dc:format>
    <dc:creator>
     <cc:Agent>
      <dc:title>Matplotlib v3.10.0, https://matplotlib.org/</dc:title>
     </cc:Agent>
    </dc:creator>
   </cc:Work>
  </rdf:RDF>
 </metadata>
 <defs>
  <style type="text/css">*{stroke-linejoin: round; stroke-linecap: butt}</style>
 </defs>
 <g id="figure_1">
  <g id="patch_1">
   <path d="M 0 266.51625 
L 390.982812 266.51625 
L 390.982812 0 
L 0 0 
z
" style="fill: #ffffff"/>
  </g>
  <g id="axes_1">
   <g id="patch_2">
    <path d="M 48.982813 228.96 
L 383.782813 228.96 
L 383.782813 7.2 
L 48.982813 7.2 
z
" style="fill: #ffffff"/>
   </g>
   <g id="matplotlib.axis_1">
    <g id="xtick_1">
     <g id="line2d_1">
      <defs>
       <path id="m8eb5f23d08" d="M 0 0 
L 0 3.5 
" style="stroke: #000000; stroke-width: 0.8"/>
      </defs>
      <g>
       <use xlink:href="#m8eb5f23d08" x="64.200994" y="228.96" style="stroke: #000000; stroke-width: 0.8"/>
      </g>
     </g>
     <g id="text_1">
      <!-- 2000-01 -->
      <g transform="translate(43.309588 243.558437) scale(0.1 -0.1)">
       <defs>
        <path id="DejaVuSans-32" d="M 1228 531 
L 3431 531 
L 3431 0 
L 469 0 
L 469 531 
Q 828 903 1448 1529 
Q 2069 2156 2228 2338 
Q 2531 2678 2651 2914 
Q 2772 3150 2772 3378 
Q 2772 3750 2511 3984 
Q 2250 4219 1831 4219 
Q 1534 4219 1204 4116 
Q 875 4013 500 3803 
L 500 4441 
Q 881 4594 1212 4672 
Q 1544 4750 1819 4750 
Q 2544 4750 2975 4387 
Q 3406 4025 3406 3419 
Q 3406 3131 3298 2873 
Q 3191 2616 2906 2266 
Q 2828 2175 2409 1742 
Q 1991 1309 1228 531 
z
" transform="scale(0.015625)"/>
        <path id="DejaVuSans-30" d="M 2034 4250 
Q 1547 4250 1301 3770 
Q 1056 3291 1056 2328 
Q 1056 1369 1301 889 
Q 1547 409 2034 409 
Q 2525 409 2770 889 
Q 3016 1369 3016 2328 
Q 3016 3291 2770 3770 
Q 2525 4250 2034 4250 
z
M 2034 4750 
Q 2819 4750 3233 4129 
Q 3647 3509 3647 2328 
Q 3647 1150 3233 529 
Q 2819 -91 2034 -91 
Q 1250 -91 836 529 
Q 422 1150 422 2328 
Q 422 3509 836 4129 
Q 1250 4750 2034 4750 
z
" transform="scale(0.015625)"/>
        <path id="DejaVuSans-2d" d="M 313 2009 
L 1997 2009 
L 1997 1497 
L 313 1497 
L 313 2009 
z
" transform="scale(0.015625)"/>
        <path id="DejaVuSans-31" d="M 794 531 
L 1825 531 
L 1825 4091 
L 703 3866 
L 703 4441 
L 1819 4666 
L 2450 4666 
L 2450 531 
L 3481 531 
L 3481 0 
L 794 0 
L 794 531 
z
" transform="scale(0.015625)"/>
       </defs>
       <use xlink:href="#DejaVuSans-32"/>
       <use xlink:href="#DejaVuSans-30" transform="translate(63.623047 0)"/>
       <use xlink:href="#DejaVuSans-30" transform="translate(127.246094 0)"/>
       <use xlink:href="#DejaVuSans-30" transform="translate(190.869141 0)"/>
       <use xlink:href="#DejaVuSans-2d" transform="translate(254.492188 0)"/>
       <use xlink:href="#DejaVuSans-30" transform="translate(290.576172 0)"/>
       <use xlink:href="#DejaVuSans-31" transform="translate(354.199219 0)"/>
      </g>
     </g>
    </g>
    <g id="xtick_2">
     <g id="line2d_2">
      <g>
       <use xlink:href="#m8eb5f23d08" x="111.614425" y="228.96" style="stroke: #000000; stroke-width: 0.8"/>
      </g>
     </g>
     <g id="text_2">
      <!-- 2000-02 -->
      <g transform="translate(90.723019 243.558437) scale(0.1 -0.1)">
       <use xlink:href="#DejaVuSans-32"/>
       <use xlink:href="#DejaVuSans-30" transform="translate(63.623047 0)"/>
       <use xlink:href="#DejaVuSans-30" transform="translate(127.246094 0)"/>
       <use xlink:href="#DejaVuSans-30" transform="translate(190.869141 0)"/>
       <use xlink:href="#DejaVuSans-2d" transform="translate(254.492188 0)"/>
       <use xlink:href="#DejaVuSans-30" transform="translate(290.576172 0)"/>
       <use xlink:href="#DejaVuSans-32" transform="translate(354.199219 0)"/>
      </g>
     </g>
    </g>
    <g id="xtick_3">
     <g id="line2d_3">
      <g>
       <use xlink:href="#m8eb5f23d08" x="155.968925" y="228.96" style="stroke: #000000; stroke-width: 0.8"/>
      </g>
     </g>
     <g id="text_3">
      <!-- 2000-03 -->
      <g transform="translate(135.077519 243.558437) scale(0.1 -0.1)">
       <defs>
        <path id="DejaVuSans-33" d="M 2597 2516 
Q 3050 2419 3304 2112 
Q 3559 1806 3559 1356 
Q 3559 666 3084 287 
Q 2609 -91 1734 -91 
Q 1441 -91 1130 -33 
Q 819 25 488 141 
L 488 750 
Q 750 597 1062 519 
Q 1375 441 1716 441 
Q 2309 441 2620 675 
Q 2931 909 2931 1356 
Q 2931 1769 2642 2001 
Q 2353 2234 1838 2234 
L 1294 2234 
L 1294 2753 
L 1863 2753 
Q 2328 2753 2575 2939 
Q 2822 3125 2822 3475 
Q 2822 3834 2567 4026 
Q 2313 4219 1838 4219 
Q 1578 4219 1281 4162 
Q 984 4106 628 3988 
L 628 4550 
Q 988 4650 1302 4700 
Q 1616 4750 1894 4750 
Q 2613 4750 3031 4423 
Q 3450 4097 3450 3541 
Q 3450 3153 3228 2886 
Q 3006 2619 2597 2516 
z
" transform="scale(0.015625)"/>
       </defs>
       <use xlink:href="#DejaVuSans-32"/>
       <use xlink:href="#DejaVuSans-30" transform="translate(63.623047 0)"/>
       <use xlink:href="#DejaVuSans-30" transform="translate(127.246094 0)"/>
       <use xlink:href="#DejaVuSans-30" transform="translate(190.869141 0)"/>
       <use xlink:href="#DejaVuSans-2d" transform="translate(254.492188 0)"/>
       <use xlink:href="#DejaVuSans-30" transform="translate(290.576172 0)"/>
       <use xlink:href="#DejaVuSans-33" transform="translate(354.199219 0)"/>
      </g>
     </g>
    </g>
    <g id="xtick_4">
     <g id="line2d_4">
      <g>
       <use xlink:href="#m8eb5f23d08" x="203.382356" y="228.96" style="stroke: #000000; stroke-width: 0.8"/>
      </g>
     </g>
     <g id="text_4">
      <!-- 2000-04 -->
      <g transform="translate(182.490949 243.558437) scale(0.1 -0.1)">
       <defs>
        <path id="DejaVuSans-34" d="M 2419 4116 
L 825 1625 
L 2419 1625 
L 2419 4116 
z
M 2253 4666 
L 3047 4666 
L 3047 1625 
L 3713 1625 
L 3713 1100 
L 3047 1100 
L 3047 0 
L 2419 0 
L 2419 1100 
L 313 1100 
L 313 1709 
L 2253 4666 
z
" transform="scale(0.015625)"/>
       </defs>
       <use xlink:href="#DejaVuSans-32"/>
       <use xlink:href="#DejaVuSans-30" transform="translate(63.623047 0)"/>
       <use xlink:href="#DejaVuSans-30" transform="translate(127.246094 0)"/>
       <use xlink:href="#DejaVuSans-30" transform="translate(190.869141 0)"/>
       <use xlink:href="#DejaVuSans-2d" transform="translate(254.492188 0)"/>
       <use xlink:href="#DejaVuSans-30" transform="translate(290.576172 0)"/>
       <use xlink:href="#DejaVuSans-34" transform="translate(354.199219 0)"/>
      </g>
     </g>
    </g>
    <g id="xtick_5">
     <g id="line2d_5">
      <g>
       <use xlink:href="#m8eb5f23d08" x="249.266321" y="228.96" style="stroke: #000000; stroke-width: 0.8"/>
      </g>
     </g>
     <g id="text_5">
      <!-- 2000-05 -->
      <g transform="translate(228.374915 243.558437) scale(0.1 -0.1)">
       <defs>
        <path id="DejaVuSans-35" d="M 691 4666 
L 3169 4666 
L 3169 4134 
L 1269 4134 
L 1269 2991 
Q 1406 3038 1543 3061 
Q 1681 3084 1819 3084 
Q 2600 3084 3056 2656 
Q 3513 2228 3513 1497 
Q 3513 744 3044 326 
Q 2575 -91 1722 -91 
Q 1428 -91 1123 -41 
Q 819 9 494 109 
L 494 744 
Q 775 591 1075 516 
Q 1375 441 1709 441 
Q 2250 441 2565 725 
Q 2881 1009 2881 1497 
Q 2881 1984 2565 2268 
Q 2250 2553 1709 2553 
Q 1456 2553 1204 2497 
Q 953 2441 691 2322 
L 691 4666 
z
" transform="scale(0.015625)"/>
       </defs>
       <use xlink:href="#DejaVuSans-32"/>
       <use xlink:href="#DejaVuSans-30" transform="translate(63.623047 0)"/>
       <use xlink:href="#DejaVuSans-30" transform="translate(127.246094 0)"/>
       <use xlink:href="#DejaVuSans-30" transform="translate(190.869141 0)"/>
       <use xlink:href="#DejaVuSans-2d" transform="translate(254.492188 0)"/>
       <use xlink:href="#DejaVuSans-30" transform="translate(290.576172 0)"/>
       <use xlink:href="#DejaVuSans-35" transform="translate(354.199219 0)"/>
      </g>
     </g>
    </g>
    <g id="xtick_6">
     <g id="line2d_6">
      <g>
       <use xlink:href="#m8eb5f23d08" x="296.679752" y="228.96" style="stroke: #000000; stroke-width: 0.8"/>
      </g>
     </g>
     <g id="text_6">
      <!-- 2000-06 -->
      <g transform="translate(275.788345 243.558437) scale(0.1 -0.1)">
       <defs>
        <path id="DejaVuSans-36" d="M 2113 2584 
Q 1688 2584 1439 2293 
Q 1191 2003 1191 1497 
Q 1191 994 1439 701 
Q 1688 409 2113 409 
Q 2538 409 2786 701 
Q 3034 994 3034 1497 
Q 3034 2003 2786 2293 
Q 2538 2584 2113 2584 
z
M 3366 4563 
L 3366 3988 
Q 3128 4100 2886 4159 
Q 2644 4219 2406 4219 
Q 1781 4219 1451 3797 
Q 1122 3375 1075 2522 
Q 1259 2794 1537 2939 
Q 1816 3084 2150 3084 
Q 2853 3084 3261 2657 
Q 3669 2231 3669 1497 
Q 3669 778 3244 343 
Q 2819 -91 2113 -91 
Q 1303 -91 875 529 
Q 447 1150 447 2328 
Q 447 3434 972 4092 
Q 1497 4750 2381 4750 
Q 2619 4750 2861 4703 
Q 3103 4656 3366 4563 
z
" transform="scale(0.015625)"/>
       </defs>
       <use xlink:href="#DejaVuSans-32"/>
       <use xlink:href="#DejaVuSans-30" transform="translate(63.623047 0)"/>
       <use xlink:href="#DejaVuSans-30" transform="translate(127.246094 0)"/>
       <use xlink:href="#DejaVuSans-30" transform="translate(190.869141 0)"/>
       <use xlink:href="#DejaVuSans-2d" transform="translate(254.492188 0)"/>
       <use xlink:href="#DejaVuSans-30" transform="translate(290.576172 0)"/>
       <use xlink:href="#DejaVuSans-36" transform="translate(354.199219 0)"/>
      </g>
     </g>
    </g>
    <g id="xtick_7">
     <g id="line2d_7">
      <g>
       <use xlink:href="#m8eb5f23d08" x="342.563717" y="228.96" style="stroke: #000000; stroke-width: 0.8"/>
      </g>
     </g>
     <g id="text_7">
      <!-- 2000-07 -->
      <g transform="translate(321.672311 243.558437) scale(0.1 -0.1)">
       <defs>
        <path id="DejaVuSans-37" d="M 525 4666 
L 3525 4666 
L 3525 4397 
L 1831 0 
L 1172 0 
L 2766 4134 
L 525 4134 
L 525 4666 
z
" transform="scale(0.015625)"/>
       </defs>
       <use xlink:href="#DejaVuSans-32"/>
       <use xlink:href="#DejaVuSans-30" transform="translate(63.623047 0)"/>
       <use xlink:href="#DejaVuSans-30" transform="translate(127.246094 0)"/>
       <use xlink:href="#DejaVuSans-30" transform="translate(190.869141 0)"/>
       <use xlink:href="#DejaVuSans-2d" transform="translate(254.492188 0)"/>
       <use xlink:href="#DejaVuSans-30" transform="translate(290.576172 0)"/>
       <use xlink:href="#DejaVuSans-37" transform="translate(354.199219 0)"/>
      </g>
     </g>
    </g>
    <g id="text_8">
     <!-- row [datetime] -->
     <g transform="translate(179.229688 257.236562) scale(0.1 -0.1)">
      <defs>
       <path id="DejaVuSans-72" d="M 2631 2963 
Q 2534 3019 2420 3045 
Q 2306 3072 2169 3072 
Q 1681 3072 1420 2755 
Q 1159 2438 1159 1844 
L 1159 0 
L 581 0 
L 581 3500 
L 1159 3500 
L 1159 2956 
Q 1341 3275 1631 3429 
Q 1922 3584 2338 3584 
Q 2397 3584 2469 3576 
Q 2541 3569 2628 3553 
L 2631 2963 
z
" transform="scale(0.015625)"/>
       <path id="DejaVuSans-6f" d="M 1959 3097 
Q 1497 3097 1228 2736 
Q 959 2375 959 1747 
Q 959 1119 1226 758 
Q 1494 397 1959 397 
Q 2419 397 2687 759 
Q 2956 1122 2956 1747 
Q 2956 2369 2687 2733 
Q 2419 3097 1959 3097 
z
M 1959 3584 
Q 2709 3584 3137 3096 
Q 3566 2609 3566 1747 
Q 3566 888 3137 398 
Q 2709 -91 1959 -91 
Q 1206 -91 779 398 
Q 353 888 353 1747 
Q 353 2609 779 3096 
Q 1206 3584 1959 3584 
z
" transform="scale(0.015625)"/>
       <path id="DejaVuSans-77" d="M 269 3500 
L 844 3500 
L 1563 769 
L 2278 3500 
L 2956 3500 
L 3675 769 
L 4391 3500 
L 4966 3500 
L 4050 0 
L 3372 0 
L 2619 2869 
L 1863 0 
L 1184 0 
L 269 3500 
z
" transform="scale(0.015625)"/>
       <path id="DejaVuSans-20" transform="scale(0.015625)"/>
       <path id="DejaVuSans-5b" d="M 550 4863 
L 1875 4863 
L 1875 4416 
L 1125 4416 
L 1125 -397 
L 1875 -397 
L 1875 -844 
L 550 -844 
L 550 4863 
z
" transform="scale(0.015625)"/>
       <path id="DejaVuSans-64" d="M 2906 2969 
L 2906 4863 
L 3481 4863 
L 3481 0 
L 2906 0 
L 2906 525 
Q 2725 213 2448 61 
Q 2172 -91 1784 -91 
Q 1150 -91 751 415 
Q 353 922 353 1747 
Q 353 2572 751 3078 
Q 1150 3584 1784 3584 
Q 2172 3584 2448 3432 
Q 2725 3281 2906 2969 
z
M 947 1747 
Q 947 1113 1208 752 
Q 1469 391 1925 391 
Q 2381 391 2643 752 
Q 2906 1113 2906 1747 
Q 2906 2381 2643 2742 
Q 2381 3103 1925 3103 
Q 1469 3103 1208 2742 
Q 947 2381 947 1747 
z
" transform="scale(0.015625)"/>
       <path id="DejaVuSans-61" d="M 2194 1759 
Q 1497 1759 1228 1600 
Q 959 1441 959 1056 
Q 959 750 1161 570 
Q 1363 391 1709 391 
Q 2188 391 2477 730 
Q 2766 1069 2766 1631 
L 2766 1759 
L 2194 1759 
z
M 3341 1997 
L 3341 0 
L 2766 0 
L 2766 531 
Q 2569 213 2275 61 
Q 1981 -91 1556 -91 
Q 1019 -91 701 211 
Q 384 513 384 1019 
Q 384 1609 779 1909 
Q 1175 2209 1959 2209 
L 2766 2209 
L 2766 2266 
Q 2766 2663 2505 2880 
Q 2244 3097 1772 3097 
Q 1472 3097 1187 3025 
Q 903 2953 641 2809 
L 641 3341 
Q 956 3463 1253 3523 
Q 1550 3584 1831 3584 
Q 2591 3584 2966 3190 
Q 3341 2797 3341 1997 
z
" transform="scale(0.015625)"/>
       <path id="DejaVuSans-74" d="M 1172 4494 
L 1172 3500 
L 2356 3500 
L 2356 3053 
L 1172 3053 
L 1172 1153 
Q 1172 725 1289 603 
Q 1406 481 1766 481 
L 2356 481 
L 2356 0 
L 1766 0 
Q 1100 0 847 248 
Q 594 497 594 1153 
L 594 3053 
L 172 3053 
L 172 3500 
L 594 3500 
L 594 4494 
L 1172 4494 
z
" transform="scale(0.015625)"/>
       <path id="DejaVuSans-65" d="M 3597 1894 
L 3597 1613 
L 953 1613 
Q 991 1019 1311 708 
Q 1631 397 2203 397 
Q 2534 397 2845 478 
Q 3156 559 3463 722 
L 3463 178 
Q 3153 47 2828 -22 
Q 2503 -91 2169 -91 
Q 1331 -91 842 396 
Q 353 884 353 1716 
Q 353 2575 817 3079 
Q 1281 3584 2069 3584 
Q 2775 3584 3186 3129 
Q 3597 2675 3597 1894 
z
M 3022 2063 
Q 3016 2534 2758 2815 
Q 2500 3097 2075 3097 
Q 1594 3097 1305 2825 
Q 1016 2553 972 2059 
L 3022 2063 
z
" transform="scale(0.015625)"/>
       <path id="DejaVuSans-69" d="M 603 3500 
L 1178 3500 
L 1178 0 
L 603 0 
L 603 3500 
z
M 603 4863 
L 1178 4863 
L 1178 4134 
L 603 4134 
L 603 4863 
z
" transform="scale(0.015625)"/>
       <path id="DejaVuSans-6d" d="M 3328 2828 
Q 3544 3216 3844 3400 
Q 4144 3584 4550 3584 
Q 5097 3584 5394 3201 
Q 5691 2819 5691 2113 
L 5691 0 
L 5113 0 
L 5113 2094 
Q 5113 2597 4934 2840 
Q 4756 3084 4391 3084 
Q 3944 3084 3684 2787 
Q 3425 2491 3425 1978 
L 3425 0 
L 2847 0 
L 2847 2094 
Q 2847 2600 2669 2842 
Q 2491 3084 2119 3084 
Q 1678 3084 1418 2786 
Q 1159 2488 1159 1978 
L 1159 0 
L 581 0 
L 581 3500 
L 1159 3500 
L 1159 2956 
Q 1356 3278 1631 3431 
Q 1906 3584 2284 3584 
Q 2666 3584 2933 3390 
Q 3200 3197 3328 2828 
z
" transform="scale(0.015625)"/>
       <path id="DejaVuSans-5d" d="M 1947 4863 
L 1947 -844 
L 622 -844 
L 622 -397 
L 1369 -397 
L 1369 4416 
L 622 4416 
L 622 4863 
L 1947 4863 
z
" transform="scale(0.015625)"/>
      </defs>
      <use xlink:href="#DejaVuSans-72"/>
      <use xlink:href="#DejaVuSans-6f" transform="translate(38.863281 0)"/>
      <use xlink:href="#DejaVuSans-77" transform="translate(100.044922 0)"/>
      <use xlink:href="#DejaVuSans-20" transform="translate(181.832031 0)"/>
      <use xlink:href="#DejaVuSans-5b" transform="translate(213.619141 0)"/>
      <use xlink:href="#DejaVuSans-64" transform="translate(252.632812 0)"/>
      <use xlink:href="#DejaVuSans-61" transform="translate(316.109375 0)"/>
      <use xlink:href="#DejaVuSans-74" transform="translate(377.388672 0)"/>
      <use xlink:href="#DejaVuSans-65" transform="translate(416.597656 0)"/>
      <use xlink:href="#DejaVuSans-74" transform="translate(478.121094 0)"/>
      <use xlink:href="#DejaVuSans-69" transform="translate(517.330078 0)"/>
      <use xlink:href="#DejaVuSans-6d" transform="translate(545.113281 0)"/>
      <use xlink:href="#DejaVuSans-65" transform="translate(642.525391 0)"/>
      <use xlink:href="#DejaVuSans-5d" transform="translate(704.048828 0)"/>
     </g>
    </g>
   </g>
   <g id="matplotlib.axis_2">
    <g id="ytick_1">
     <g id="line2d_8">
      <defs>
       <path id="mdc61c05213" d="M 0 0 
L -3.5 0 
" style="stroke: #000000; stroke-width: 0.8"/>
      </defs>
      <g>
       <use xlink:href="#mdc61c05213" x="48.982813" y="213.650528" style="stroke: #000000; stroke-width: 0.8"/>
      </g>
     </g>
     <g id="text_9">
      <!-- −15 -->
      <g transform="translate(20.878125 217.449747) scale(0.1 -0.1)">
       <defs>
        <path id="DejaVuSans-2212" d="M 678 2272 
L 4684 2272 
L 4684 1741 
L 678 1741 
L 678 2272 
z
" transform="scale(0.015625)"/>
       </defs>
       <use xlink:href="#DejaVuSans-2212"/>
       <use xlink:href="#DejaVuSans-31" transform="translate(83.789062 0)"/>
       <use xlink:href="#DejaVuSans-35" transform="translate(147.412109 0)"/>
      </g>
     </g>
    </g>
    <g id="ytick_2">
     <g id="line2d_9">
      <g>
       <use xlink:href="#mdc61c05213" x="48.982813" y="186.282186" style="stroke: #000000; stroke-width: 0.8"/>
      </g>
     </g>
     <g id="text_10">
      <!-- −10 -->
      <g transform="translate(20.878125 190.081405) scale(0.1 -0.1)">
       <use xlink:href="#DejaVuSans-2212"/>
       <use xlink:href="#DejaVuSans-31" transform="translate(83.789062 0)"/>
       <use xlink:href="#DejaVuSans-30" transform="translate(147.412109 0)"/>
      </g>
     </g>
    </g>
    <g id="ytick_3">
     <g id="line2d_10">
      <g>
       <use xlink:href="#mdc61c05213" x="48.982813" y="158.913844" style="stroke: #000000; stroke-width: 0.8"/>
      </g>
     </g>
     <g id="text_11">
      <!-- −5 -->
      <g transform="translate(27.240625 162.713062) scale(0.1 -0.1)">
       <use xlink:href="#DejaVuSans-2212"/>
       <use xlink:href="#DejaVuSans-35" transform="translate(83.789062 0)"/>
      </g>
     </g>
    </g>
    <g id="ytick_4">
     <g id="line2d_11">
      <g>
       <use xlink:href="#mdc61c05213" x="48.982813" y="131.545501" style="stroke: #000000; stroke-width: 0.8"/>
      </g>
     </g>
     <g id="text_12">
      <!-- 0 -->
      <g transform="translate(35.620312 135.34472) scale(0.1 -0.1)">
       <use xlink:href="#DejaVuSans-30"/>
      </g>
     </g>
    </g>
    <g id="ytick_5">
     <g id="line2d_12">
      <g>
       <use xlink:href="#mdc61c05213" x="48.982813" y="104.177159" style="stroke: #000000; stroke-width: 0.8"/>
      </g>
     </g>
     <g id="text_13">
      <!-- 5 -->
      <g transform="translate(35.620312 107.976378) scale(0.1 -0.1)">
       <use xlink:href="#DejaVuSans-35"/>
      </g>
     </g>
    </g>
    <g id="ytick_6">
     <g id="line2d_13">
      <g>
       <use xlink:href="#mdc61c05213" x="48.982813" y="76.808817" style="stroke: #000000; stroke-width: 0.8"/>
      </g>
     </g>
     <g id="text_14">
      <!-- 10 -->
      <g transform="translate(29.257812 80.608035) scale(0.1 -0.1)">
       <use xlink:href="#DejaVuSans-31"/>
       <use xlink:href="#DejaVuSans-30" transform="translate(63.623047 0)"/>
      </g>
     </g>
    </g>
    <g id="ytick_7">
     <g id="line2d_14">
      <g>
       <use xlink:href="#mdc61c05213" x="48.982813" y="49.440474" style="stroke: #000000; stroke-width: 0.8"/>
      </g>
     </g>
     <g id="text_15">
      <!-- 15 -->
      <g transform="translate(29.257812 53.239693) scale(0.1 -0.1)">
       <use xlink:href="#DejaVuSans-31"/>
       <use xlink:href="#DejaVuSans-35" transform="translate(63.623047 0)"/>
      </g>
     </g>
    </g>
    <g id="ytick_8">
     <g id="line2d_15">
      <g>
       <use xlink:href="#mdc61c05213" x="48.982813" y="22.072132" style="stroke: #000000; stroke-width: 0.8"/>
      </g>
     </g>
     <g id="text_16">
      <!-- 20 -->
      <g transform="translate(29.257812 25.871351) scale(0.1 -0.1)">
       <use xlink:href="#DejaVuSans-32"/>
       <use xlink:href="#DejaVuSans-30" transform="translate(63.623047 0)"/>
      </g>
     </g>
    </g>
    <g id="text_17">
     <!-- [dimensionless] -->
     <g transform="translate(14.798437 157.557344) rotate(-90) scale(0.1 -0.1)">
      <defs>
       <path id="DejaVuSans-6e" d="M 3513 2113 
L 3513 0 
L 2938 0 
L 2938 2094 
Q 2938 2591 2744 2837 
Q 2550 3084 2163 3084 
Q 1697 3084 1428 2787 
Q 1159 2491 1159 1978 
L 1159 0 
L 581 0 
L 581 3500 
L 1159 3500 
L 1159 2956 
Q 1366 3272 1645 3428 
Q 1925 3584 2291 3584 
Q 2894 3584 3203 3211 
Q 3513 2838 3513 2113 
z
" transform="scale(0.015625)"/>
       <path id="DejaVuSans-73" d="M 2834 3397 
L 2834 2853 
Q 2591 2978 2328 3040 
Q 2066 3103 1784 3103 
Q 1356 3103 1142 2972 
Q 928 2841 928 2578 
Q 928 2378 1081 2264 
Q 1234 2150 1697 2047 
L 1894 2003 
Q 2506 1872 2764 1633 
Q 3022 1394 3022 966 
Q 3022 478 2636 193 
Q 2250 -91 1575 -91 
Q 1294 -91 989 -36 
Q 684 19 347 128 
L 347 722 
Q 666 556 975 473 
Q 1284 391 1588 391 
Q 1994 391 2212 530 
Q 2431 669 2431 922 
Q 2431 1156 2273 1281 
Q 2116 1406 1581 1522 
L 1381 1569 
Q 847 1681 609 1914 
Q 372 2147 372 2553 
Q 372 3047 722 3315 
Q 1072 3584 1716 3584 
Q 2034 3584 2315 3537 
Q 2597 3491 2834 3397 
z
" transform="scale(0.015625)"/>
       <path id="DejaVuSans-6c" d="M 603 4863 
L 1178 4863 
L 1178 0 
L 603 0 
L 603 4863 
z
" transform="scale(0.015625)"/>
      </defs>
      <use xlink:href="#DejaVuSans-5b"/>
      <use xlink:href="#DejaVuSans-64" transform="translate(39.013672 0)"/>
      <use xlink:href="#DejaVuSans-69" transform="translate(102.490234 0)"/>
      <use xlink:href="#DejaVuSans-6d" transform="translate(130.273438 0)"/>
      <use xlink:href="#DejaVuSans-65" transform="translate(227.685547 0)"/>
      <use xlink:href="#DejaVuSans-6e" transform="translate(289.208984 0)"/>
      <use xlink:href="#DejaVuSans-73" transform="translate(352.587891 0)"/>
      <use xlink:href="#DejaVuSans-69" transform="translate(404.6875 0)"/>
      <use xlink:href="#DejaVuSans-6f" transform="translate(432.470703 0)"/>
      <use xlink:href="#DejaVuSans-6e" transform="translate(493.652344 0)"/>
      <use xlink:href="#DejaVuSans-6c" transform="translate(557.03125 0)"/>
      <use xlink:href="#DejaVuSans-65" transform="translate(584.814453 0)"/>
      <use xlink:href="#DejaVuSans-73" transform="translate(646.337891 0)"/>
      <use xlink:href="#DejaVuSans-73" transform="translate(698.4375 0)"/>
      <use xlink:href="#DejaVuSans-5d" transform="translate(750.537109 0)"/>
     </g>
    </g>
   </g>
   <g id="patch_3">
    <path d="M 48.982813 228.96 
L 48.982813 7.2 
" style="fill: none; stroke: #000000; stroke-width: 0.8; stroke-linejoin: miter; stroke-linecap: square"/>
   </g>
   <g id="patch_4">
    <path d="M 383.782813 228.96 
L 383.782813 7.2 
" style="fill: none; stroke: #000000; stroke-width: 0.8; stroke-linejoin: miter; stroke-linecap: square"/>
   </g>
   <g id="patch_5">
    <path d="M 48.982812 228.96 
L 383.782812 228.96 
" style="fill: none; stroke: #000000; stroke-width: 0.8; stroke-linejoin: miter; stroke-linecap: square"/>
   </g>
   <g id="patch_6">
    <path d="M 48.982812 7.2 
L 383.782812 7.2 
" style="fill: none; stroke: #000000; stroke-width: 0.8; stroke-linejoin: miter; stroke-linecap: square"/>
   </g>
   <g id="legend_1">
    <g id="patch_7">
     <path d="M 55.982813 73.9125 
L 95.682813 73.9125 
Q 97.682813 73.9125 97.682813 71.9125 
L 97.682813 14.2 
Q 97.682813 12.2 95.682813 12.2 
L 55.982813 12.2 
Q 53.982813 12.2 53.982813 14.2 
L 53.982813 71.9125 
Q 53.982813 73.9125 55.982813 73.9125 
z
" style="fill: #ffffff; opacity: 0.8; stroke: #cccccc; stroke-linejoin: miter"/>
    </g>
    <g id="line2d_16">
     <path d="M 57.982813 20.298437 
L 67.982812 20.298437 
L 77.982812 20.298437 
" style="fill: none; stroke: #1f77b4; stroke-width: 1.5; stroke-linecap: square"/>
    </g>
    <g id="text_18">
     <!-- A -->
     <g transform="translate(85.982812 23.798437) scale(0.1 -0.1)">
      <defs>
       <path id="DejaVuSans-41" d="M 2188 4044 
L 1331 1722 
L 3047 1722 
L 2188 4044 
z
M 1831 4666 
L 2547 4666 
L 4325 0 
L 3669 0 
L 3244 1197 
L 1141 1197 
L 716 0 
L 50 0 
L 1831 4666 
z
" transform="scale(0.015625)"/>
      </defs>
      <use xlink:href="#DejaVuSans-41"/>
     </g>
    </g>
    <g id="line2d_17">
     <path d="M 57.982813 34.976562 
L 67.982812 34.976562 
L 77.982812 34.976562 
" style="fill: none; stroke: #ff7f0e; stroke-width: 1.5; stroke-linecap: square"/>
    </g>
    <g id="text_19">
     <!-- B -->
     <g transform="translate(85.982812 38.476562) scale(0.1 -0.1)">
      <defs>
       <path id="DejaVuSans-42" d="M 1259 2228 
L 1259 519 
L 2272 519 
Q 2781 519 3026 730 
Q 3272 941 3272 1375 
Q 3272 1813 3026 2020 
Q 2781 2228 2272 2228 
L 1259 2228 
z
M 1259 4147 
L 1259 2741 
L 2194 2741 
Q 2656 2741 2882 2914 
Q 3109 3088 3109 3444 
Q 3109 3797 2882 3972 
Q 2656 4147 2194 4147 
L 1259 4147 
z
M 628 4666 
L 2241 4666 
Q 2963 4666 3353 4366 
Q 3744 4066 3744 3513 
Q 3744 3084 3544 2831 
Q 3344 2578 2956 2516 
Q 3422 2416 3680 2098 
Q 3938 1781 3938 1306 
Q 3938 681 3513 340 
Q 3088 0 2303 0 
L 628 0 
L 628 4666 
z
" transform="scale(0.015625)"/>
      </defs>
      <use xlink:href="#DejaVuSans-42"/>
     </g>
    </g>
    <g id="line2d_18">
     <path d="M 57.982813 49.654687 
L 67.982812 49.654687 
L 77.982812 49.654687 
" style="fill: none; stroke: #2ca02c; stroke-width: 1.5; stroke-linecap: square"/>
    </g>
    <g id="text_20">
     <!-- C -->
     <g transform="translate(85.982812 53.154687) scale(0.1 -0.1)">
      <defs>
       <path id="DejaVuSans-43" d="M 4122 4306 
L 4122 3641 
Q 3803 3938 3442 4084 
Q 3081 4231 2675 4231 
Q 1875 4231 1450 3742 
Q 1025 3253 1025 2328 
Q 1025 1406 1450 917 
Q 1875 428 2675 428 
Q 3081 428 3442 575 
Q 3803 722 4122 1019 
L 4122 359 
Q 3791 134 3420 21 
Q 3050 -91 2638 -91 
Q 1578 -91 968 557 
Q 359 1206 359 2328 
Q 359 3453 968 4101 
Q 1578 4750 2638 4750 
Q 3056 4750 3426 4639 
Q 3797 4528 4122 4306 
z
" transform="scale(0.015625)"/>
      </defs>
      <use xlink:href="#DejaVuSans-43"/>
     </g>
    </g>
    <g id="line2d_19">
     <path d="M 57.982813 64.332812 
L 67.982812 64.332812 
L 77.982812 64.332812 
" style="fill: none; stroke: #d62728; stroke-width: 1.5; stroke-linecap: square"/>
    </g>
    <g id="text_21">
     <!-- D -->
     <g transform="translate(85.982812 67.832812) scale(0.1 -0.1)">
      <defs>
       <path id="DejaVuSans-44" d="M 1259 4147 
L 1259 519 
L 2022 519 
Q 2988 519 3436 956 
Q 3884 1394 3884 2338 
Q 3884 3275 3436 3711 
Q 2988 4147 2022 4147 
L 1259 4147 
z
M 628 4666 
L 1925 4666 
Q 3281 4666 3915 4102 
Q 4550 3538 4550 2338 
Q 4550 1131 3912 565 
Q 3275 0 1925 0 
L 628 0 
L 628 4666 
z
" transform="scale(0.015625)"/>
      </defs>
      <use xlink:href="#DejaVuSans-44"/>
     </g>
    </g>
   </g>
   <g id="line2d_20">
    <path d="M 64.200994 130.489314 
L 65.73046 129.95293 
L 67.259925 118.502068 
L 68.789391 116.956901 
L 70.318856 116.658819 
L 71.848322 111.325229 
L 74.907253 107.100085 
L 76.436718 100.130562 
L 77.966184 96.180385 
L 79.495649 107.033984 
L 81.025115 102.743261 
L 82.55458 102.78419 
L 84.084046 104.93869 
L 85.613511 113.257278 
L 87.142977 108.1728 
L 88.672442 105.677517 
L 90.201908 107.603526 
L 91.731373 110.219657 
L 93.260839 116.196527 
L 94.790305 104.296155 
L 96.31977 99.192911 
L 97.849236 93.268089 
L 99.378701 90.721149 
L 100.908167 100.33875 
L 102.437632 92.163591 
L 103.967098 91.140634 
L 105.496563 93.25439 
L 107.026029 87.579006 
L 108.555494 90.510409 
L 110.08496 87.52938 
L 111.614425 88.170203 
L 113.143891 89.058625 
L 114.673356 87.121049 
L 116.202822 91.940221 
L 117.732287 85.886702 
L 119.261753 78.561815 
L 120.791218 87.269532 
L 122.320684 81.952442 
L 123.850149 87.586537 
L 125.379615 82.105847 
L 126.90908 88.423947 
L 128.438546 87.83225 
L 129.968011 90.558158 
L 131.497477 93.000856 
L 134.556408 89.416729 
L 136.085873 87.061745 
L 137.615339 79.145113 
L 139.144804 79.108167 
L 140.67427 80.803458 
L 142.203735 86.266855 
L 143.733201 76.258401 
L 145.262666 79.427809 
L 146.792132 72.243107 
L 148.321597 79.223416 
L 149.851063 81.82302 
L 151.380528 85.414836 
L 152.909994 85.626303 
L 154.439459 95.861666 
L 155.968925 101.6273 
L 157.49839 100.603611 
L 159.027856 108.015844 
L 160.557321 107.676412 
L 162.086787 112.061069 
L 163.616252 117.202465 
L 165.145718 114.322527 
L 166.675183 116.672519 
L 168.204649 115.265995 
L 169.734114 112.020069 
L 171.26358 106.5343 
L 172.793045 110.235033 
L 174.322511 114.734976 
L 175.851977 114.975036 
L 177.381442 113.138667 
L 178.910908 122.617589 
L 180.440373 126.128755 
L 181.969839 125.160484 
L 183.499304 128.083381 
L 185.02877 132.474855 
L 186.558235 135.855524 
L 188.087701 130.878442 
L 189.617166 134.412985 
L 191.146632 135.764762 
L 192.676097 141.239198 
L 194.205563 138.426119 
L 195.735028 141.329022 
L 197.264494 142.712731 
L 198.793959 139.331774 
L 200.323425 135.387855 
L 201.85289 123.843679 
L 203.382356 114.359197 
L 204.911821 108.511569 
L 206.441287 111.156299 
L 207.970752 106.203084 
L 209.500218 114.086532 
L 211.029683 115.307205 
L 212.559149 111.911878 
L 214.088614 112.065012 
L 215.61808 121.737673 
L 217.147545 123.432784 
L 218.677011 126.363654 
L 220.206476 119.078015 
L 221.735942 133.999178 
L 223.265407 138.434501 
L 224.794873 144.487539 
L 226.324338 141.095563 
L 227.853804 144.528569 
L 229.383269 135.144806 
L 230.912735 133.851585 
L 232.4422 131.211353 
L 233.971666 132.270146 
L 235.501131 134.06907 
L 237.030597 147.962888 
L 238.560062 153.111553 
L 240.089528 154.846123 
L 241.618993 161.690752 
L 243.148459 160.159658 
L 244.677924 152.897679 
L 246.20739 151.251573 
L 247.736855 151.613804 
L 249.266321 144.487812 
L 250.795786 145.997219 
L 252.325252 142.374947 
L 253.854717 142.509141 
L 255.384183 135.808093 
L 256.913648 149.457342 
L 258.443114 148.489977 
L 259.97258 154.655235 
L 261.502045 150.690861 
L 263.031511 154.83026 
L 264.560976 158.440727 
L 266.090442 164.264517 
L 267.619907 162.375796 
L 269.149373 175.466637 
L 270.678838 168.142823 
L 272.208304 168.746761 
L 273.737769 162.330031 
L 275.267235 156.786623 
L 276.7967 150.368522 
L 278.326166 147.933979 
L 279.855631 150.891503 
L 281.385097 155.558554 
L 282.914562 153.287152 
L 284.444028 150.584616 
L 285.973493 150.116433 
L 287.502959 156.309866 
L 289.032424 150.230346 
L 290.56189 147.886361 
L 292.091355 141.430364 
L 293.620821 140.254125 
L 295.150286 140.906969 
L 296.679752 132.95422 
L 298.209217 129.047062 
L 299.738683 132.635299 
L 301.268148 139.289995 
L 302.797614 132.997914 
L 304.327079 135.289209 
L 305.856545 130.593362 
L 307.38601 121.832046 
L 308.915476 124.839967 
L 310.444941 123.756552 
L 311.974407 125.138085 
L 313.503872 128.840166 
L 315.033338 122.431698 
L 316.562803 126.036046 
L 318.092269 129.262278 
L 319.621734 120.0384 
L 321.1512 126.436787 
L 322.680665 129.887197 
L 324.210131 129.54879 
L 325.739596 133.964583 
L 327.269062 133.557211 
L 328.798527 131.900398 
L 330.327993 139.517629 
L 331.857458 139.276432 
L 333.386924 137.514285 
L 334.916389 136.434208 
L 337.97532 144.027063 
L 339.504786 138.242702 
L 341.034252 130.696983 
L 342.563717 130.481364 
L 344.093183 123.058247 
L 345.622648 124.955768 
L 347.152114 126.125683 
L 348.681579 125.260093 
L 350.211045 134.915081 
L 353.269976 140.782388 
L 354.799441 143.015308 
L 356.328907 146.053305 
L 357.858372 153.610121 
L 359.387838 154.342171 
L 360.917303 151.28396 
L 362.446769 160.926121 
L 363.976234 158.572398 
L 365.5057 163.214877 
L 367.035165 155.316187 
L 368.564631 155.697729 
L 368.564631 155.697729 
" clip-path="url(#p07ecae8078)" style="fill: none; stroke: #1f77b4; stroke-width: 1.5; stroke-linecap: square"/>
   </g>
   <g id="line2d_21">
    <path d="M 64.200994 132.850562 
L 65.73046 146.116167 
L 67.259925 153.589975 
L 68.789391 147.171328 
L 70.318856 151.666235 
L 71.848322 149.384669 
L 73.377787 158.706873 
L 74.907253 162.576827 
L 76.436718 158.587381 
L 77.966184 164.169411 
L 79.495649 173.972948 
L 81.025115 177.562673 
L 82.55458 189.569765 
L 84.084046 180.087797 
L 85.613511 187.043245 
L 87.142977 188.965872 
L 88.672442 189.812053 
L 90.201908 176.058478 
L 91.731373 173.02197 
L 94.790305 170.445898 
L 96.31977 169.590533 
L 97.849236 165.404008 
L 99.378701 159.838945 
L 100.908167 158.869541 
L 102.437632 156.379455 
L 103.967098 160.311836 
L 105.496563 165.759986 
L 107.026029 169.260485 
L 108.555494 173.113188 
L 110.08496 180.143458 
L 113.143891 161.584496 
L 114.673356 166.780295 
L 116.202822 170.058264 
L 117.732287 177.013639 
L 119.261753 179.143339 
L 120.791218 177.434024 
L 122.320684 179.164957 
L 123.850149 172.19288 
L 125.379615 177.731409 
L 128.438546 175.40403 
L 129.968011 178.38411 
L 131.497477 182.548829 
L 133.026942 189.117472 
L 134.556408 187.707397 
L 136.085873 187.508979 
L 137.615339 181.800711 
L 139.144804 180.142801 
L 140.67427 182.080978 
L 142.203735 181.207216 
L 143.733201 185.941254 
L 145.262666 188.7763 
L 146.792132 189.677867 
L 148.321597 189.175485 
L 149.851063 190.659798 
L 152.909994 185.936443 
L 154.439459 186.848013 
L 155.968925 187.374063 
L 157.49839 183.400314 
L 159.027856 186.745414 
L 160.557321 191.64872 
L 162.086787 202.512949 
L 163.616252 209.608917 
L 165.145718 209.439836 
L 166.675183 215.505842 
L 168.204649 217.010428 
L 169.734114 223.162346 
L 171.26358 216.44073 
L 172.793045 219.052605 
L 174.322511 217.694822 
L 175.851977 214.25685 
L 177.381442 212.696755 
L 178.910908 215.382012 
L 180.440373 215.302366 
L 181.969839 211.718132 
L 183.499304 204.117053 
L 185.02877 192.509908 
L 186.558235 192.905522 
L 188.087701 196.076268 
L 189.617166 196.024068 
L 191.146632 203.645635 
L 192.676097 209.25125 
L 194.205563 199.06858 
L 195.735028 193.332729 
L 197.264494 187.068268 
L 198.793959 186.276027 
L 200.323425 190.551411 
L 201.85289 196.209101 
L 203.382356 194.978108 
L 204.911821 195.909663 
L 206.441287 201.506793 
L 207.970752 198.204747 
L 209.500218 197.182324 
L 211.029683 196.89983 
L 212.559149 192.654669 
L 214.088614 195.554121 
L 215.61808 194.268515 
L 217.147545 186.55006 
L 218.677011 185.277505 
L 220.206476 178.798676 
L 221.735942 178.874649 
L 223.265407 180.854092 
L 224.794873 185.884079 
L 226.324338 181.503571 
L 227.853804 180.452188 
L 229.383269 190.389288 
L 230.912735 191.849208 
L 232.4422 195.375239 
L 233.971666 193.445788 
L 235.501131 196.50259 
L 237.030597 194.410799 
L 238.560062 194.00299 
L 240.089528 196.77214 
L 241.618993 209.676077 
L 243.148459 215.550748 
L 244.677924 211.876946 
L 246.20739 216.125256 
L 247.736855 221.171307 
L 249.266321 212.171876 
L 250.795786 200.871461 
L 253.854717 200.758944 
L 255.384183 201.255812 
L 256.913648 198.515213 
L 258.443114 191.707596 
L 259.97258 191.691695 
L 261.502045 189.33051 
L 263.031511 192.993679 
L 264.560976 181.50693 
L 266.090442 181.564736 
L 267.619907 184.480233 
L 269.149373 182.188806 
L 270.678838 179.146791 
L 273.737769 191.556438 
L 275.267235 190.560278 
L 276.7967 192.000422 
L 278.326166 185.47499 
L 279.855631 189.837772 
L 281.385097 184.289099 
L 282.914562 188.126351 
L 284.444028 180.063094 
L 285.973493 184.502787 
L 287.502959 174.237489 
L 289.032424 165.188519 
L 290.56189 172.160578 
L 292.091355 165.770475 
L 293.620821 158.833381 
L 295.150286 153.575873 
L 296.679752 151.442334 
L 298.209217 151.142643 
L 299.738683 152.570326 
L 301.268148 152.880126 
L 302.797614 151.883806 
L 304.327079 154.901314 
L 305.856545 157.636524 
L 307.38601 154.939005 
L 308.915476 160.206341 
L 310.444941 157.48136 
L 311.974407 156.242465 
L 313.503872 160.156335 
L 315.033338 162.317541 
L 316.562803 163.85901 
L 318.092269 163.800358 
L 319.621734 177.343197 
L 321.1512 185.14638 
L 322.680665 180.862466 
L 324.210131 174.398519 
L 325.739596 169.676501 
L 327.269062 174.828034 
L 328.798527 173.271946 
L 330.327993 177.199144 
L 331.857458 162.708099 
L 333.386924 173.181596 
L 334.916389 172.152114 
L 336.445855 165.304435 
L 337.97532 153.153078 
L 339.504786 153.231659 
L 341.034252 147.666241 
L 342.563717 137.804406 
L 344.093183 138.802522 
L 347.152114 135.49033 
L 348.681579 134.776821 
L 350.211045 129.209851 
L 351.74051 134.800301 
L 353.269976 135.963124 
L 354.799441 134.178983 
L 356.328907 124.323699 
L 357.858372 122.877922 
L 359.387838 116.535205 
L 360.917303 113.83066 
L 362.446769 119.011394 
L 363.976234 108.583922 
L 365.5057 112.672057 
L 367.035165 109.574303 
L 368.564631 107.209271 
L 368.564631 107.209271 
" clip-path="url(#p07ecae8078)" style="fill: none; stroke: #ff7f0e; stroke-width: 1.5; stroke-linecap: square"/>
   </g>
   <g id="line2d_22">
    <path d="M 64.200994 124.2263 
L 65.73046 117.164679 
L 67.259925 123.57511 
L 68.789391 122.127501 
L 70.318856 122.114021 
L 71.848322 123.696829 
L 73.377787 124.102537 
L 74.907253 123.308866 
L 76.436718 123.192244 
L 77.966184 126.076038 
L 79.495649 124.022734 
L 81.025115 125.559628 
L 84.084046 128.923869 
L 85.613511 128.51991 
L 87.142977 133.646206 
L 88.672442 128.978465 
L 90.201908 121.947154 
L 91.731373 113.734921 
L 93.260839 107.096624 
L 94.790305 106.717536 
L 96.31977 106.13267 
L 97.849236 111.932283 
L 99.378701 111.177907 
L 100.908167 106.80654 
L 102.437632 102.045414 
L 103.967098 109.087034 
L 105.496563 114.940729 
L 107.026029 122.237782 
L 108.555494 123.034836 
L 110.08496 128.258983 
L 111.614425 124.828332 
L 113.143891 132.324823 
L 114.673356 133.434441 
L 116.202822 134.788352 
L 117.732287 138.843895 
L 119.261753 141.803063 
L 120.791218 141.887775 
L 122.320684 136.38323 
L 123.850149 139.309288 
L 125.379615 146.386017 
L 126.90908 139.090351 
L 128.438546 136.059114 
L 129.968011 141.129929 
L 131.497477 139.291633 
L 133.026942 142.975562 
L 134.556408 143.040816 
L 136.085873 144.076494 
L 137.615339 139.149446 
L 139.144804 141.399141 
L 140.67427 142.012884 
L 142.203735 140.566914 
L 143.733201 144.657971 
L 145.262666 144.051582 
L 146.792132 148.735119 
L 148.321597 139.763871 
L 149.851063 140.031372 
L 151.380528 142.200276 
L 152.909994 129.785676 
L 154.439459 129.444271 
L 155.968925 128.360833 
L 157.49839 125.425425 
L 159.027856 129.407744 
L 160.557321 128.365947 
L 162.086787 131.223413 
L 163.616252 131.58709 
L 165.145718 131.825838 
L 166.675183 133.943191 
L 168.204649 132.330611 
L 169.734114 143.263657 
L 171.26358 139.21119 
L 172.793045 143.000054 
L 174.322511 138.254765 
L 175.851977 135.517667 
L 178.910908 154.710776 
L 180.440373 152.078625 
L 181.969839 152.243411 
L 183.499304 152.946335 
L 185.02877 148.446978 
L 186.558235 152.134299 
L 188.087701 156.259143 
L 189.617166 163.54347 
L 191.146632 158.997157 
L 192.676097 158.496576 
L 194.205563 158.689383 
L 195.735028 151.268661 
L 197.264494 147.408807 
L 198.793959 139.62953 
L 200.323425 144.827235 
L 201.85289 134.749245 
L 203.382356 139.135392 
L 204.911821 146.289188 
L 206.441287 151.028243 
L 207.970752 134.315594 
L 209.500218 136.763711 
L 212.559149 140.858382 
L 214.088614 153.901588 
L 215.61808 158.901482 
L 217.147545 154.154861 
L 218.677011 154.430107 
L 220.206476 158.494341 
L 221.735942 160.399399 
L 223.265407 158.009242 
L 224.794873 166.062848 
L 226.324338 157.263911 
L 227.853804 159.374438 
L 229.383269 165.713548 
L 230.912735 167.523992 
L 232.4422 166.638538 
L 233.971666 170.1808 
L 235.501131 166.845187 
L 237.030597 168.2325 
L 238.560062 171.511281 
L 240.089528 172.329802 
L 241.618993 169.071908 
L 243.148459 179.678412 
L 244.677924 183.565229 
L 246.20739 176.380828 
L 247.736855 172.060425 
L 249.266321 174.219569 
L 250.795786 174.48668 
L 252.325252 171.355828 
L 255.384183 154.959526 
L 256.913648 145.408655 
L 258.443114 148.543339 
L 259.97258 146.366064 
L 261.502045 137.99876 
L 263.031511 143.771095 
L 264.560976 140.615858 
L 266.090442 145.413967 
L 267.619907 147.507433 
L 269.149373 153.043993 
L 270.678838 163.287526 
L 272.208304 161.411792 
L 273.737769 155.508115 
L 275.267235 152.014941 
L 276.7967 150.915723 
L 278.326166 146.007596 
L 281.385097 156.621743 
L 282.914562 156.793635 
L 284.444028 152.606824 
L 285.973493 144.249241 
L 287.502959 139.466323 
L 289.032424 143.065054 
L 290.56189 142.673071 
L 292.091355 126.37481 
L 293.620821 126.847334 
L 295.150286 123.86107 
L 296.679752 125.149655 
L 298.209217 130.86255 
L 299.738683 129.886929 
L 301.268148 132.368329 
L 302.797614 143.236512 
L 304.327079 138.757243 
L 305.856545 137.183038 
L 307.38601 132.847895 
L 308.915476 127.832062 
L 311.974407 149.461372 
L 313.503872 147.533357 
L 315.033338 152.262084 
L 316.562803 150.624952 
L 318.092269 161.640532 
L 319.621734 167.891606 
L 321.1512 177.642879 
L 322.680665 170.563031 
L 324.210131 166.37906 
L 325.739596 169.712882 
L 327.269062 168.028197 
L 328.798527 168.089619 
L 330.327993 170.098371 
L 331.857458 164.142838 
L 333.386924 165.110042 
L 334.916389 164.67269 
L 336.445855 170.548692 
L 337.97532 177.959499 
L 339.504786 169.428242 
L 341.034252 178.108699 
L 342.563717 177.440971 
L 344.093183 171.000708 
L 345.622648 166.432208 
L 347.152114 171.722286 
L 348.681579 174.23671 
L 350.211045 167.461175 
L 353.269976 183.713947 
L 354.799441 187.348962 
L 356.328907 183.552993 
L 357.858372 190.330923 
L 359.387838 190.282153 
L 362.446769 179.333756 
L 363.976234 178.626657 
L 365.5057 174.676872 
L 367.035165 181.237158 
L 368.564631 182.591385 
L 368.564631 182.591385 
" clip-path="url(#p07ecae8078)" style="fill: none; stroke: #2ca02c; stroke-width: 1.5; stroke-linecap: square"/>
   </g>
   <g id="line2d_23">
    <path d="M 64.200994 132.039803 
L 65.73046 128.398481 
L 67.259925 127.653369 
L 68.789391 123.505588 
L 70.318856 119.93592 
L 71.848322 109.833959 
L 73.377787 114.614855 
L 74.907253 109.545137 
L 76.436718 114.676792 
L 77.966184 123.308324 
L 79.495649 126.754036 
L 81.025115 129.006906 
L 82.55458 127.385531 
L 84.084046 130.764944 
L 85.613511 124.73777 
L 87.142977 128.502689 
L 88.672442 123.2445 
L 90.201908 116.167831 
L 91.731373 122.227062 
L 93.260839 121.873 
L 94.790305 125.115748 
L 96.31977 111.594059 
L 97.849236 111.416211 
L 99.378701 109.574054 
L 100.908167 103.531561 
L 102.437632 101.169104 
L 103.967098 100.438099 
L 105.496563 92.1231 
L 107.026029 81.307284 
L 108.555494 78.579612 
L 110.08496 85.533141 
L 113.143891 82.510173 
L 114.673356 69.244777 
L 116.202822 67.724249 
L 117.732287 68.20974 
L 119.261753 62.429201 
L 120.791218 68.571044 
L 122.320684 63.685967 
L 123.850149 68.537456 
L 125.379615 66.335264 
L 126.90908 53.257315 
L 128.438546 59.192031 
L 129.968011 56.346931 
L 131.497477 60.410245 
L 133.026942 61.62148 
L 134.556408 59.608229 
L 136.085873 72.663001 
L 137.615339 68.244595 
L 139.144804 61.080039 
L 140.67427 59.157425 
L 142.203735 59.038131 
L 143.733201 54.814336 
L 145.262666 62.741819 
L 146.792132 54.980588 
L 148.321597 53.258964 
L 149.851063 50.125927 
L 151.380528 52.536514 
L 152.909994 56.274361 
L 154.439459 50.699971 
L 155.968925 49.508783 
L 157.49839 45.527437 
L 159.027856 44.826969 
L 160.557321 46.701785 
L 162.086787 46.347684 
L 163.616252 35.442862 
L 165.145718 37.655424 
L 166.675183 38.274414 
L 168.204649 40.64188 
L 169.734114 41.169872 
L 171.26358 37.034654 
L 172.793045 39.35024 
L 174.322511 44.822756 
L 175.851977 45.877616 
L 177.381442 50.191615 
L 178.910908 55.26849 
L 180.440373 65.670769 
L 181.969839 67.381321 
L 183.499304 58.200797 
L 185.02877 60.321744 
L 186.558235 57.331705 
L 188.087701 58.071334 
L 189.617166 63.051528 
L 191.146632 59.050426 
L 192.676097 61.573418 
L 194.205563 57.02863 
L 195.735028 56.324371 
L 197.264494 54.177833 
L 198.793959 53.300863 
L 200.323425 44.987547 
L 201.85289 37.552883 
L 203.382356 28.536199 
L 204.911821 35.755183 
L 206.441287 37.920535 
L 207.970752 36.322426 
L 209.500218 33.271079 
L 211.029683 21.540195 
L 212.559149 21.605812 
L 214.088614 17.090724 
L 217.147545 19.079046 
L 218.677011 20.404577 
L 220.206476 23.569685 
L 221.735942 19.593036 
L 223.265407 21.707461 
L 224.794873 20.722464 
L 226.324338 24.091684 
L 227.853804 25.296235 
L 229.383269 22.706635 
L 230.912735 20.706466 
L 232.4422 25.607648 
L 233.971666 31.012618 
L 235.501131 33.451246 
L 237.030597 27.153462 
L 238.560062 22.117052 
L 240.089528 18.750254 
L 241.618993 25.528404 
L 243.148459 29.305933 
L 244.677924 28.202114 
L 246.20739 21.358465 
L 247.736855 22.726523 
L 250.795786 15.78207 
L 252.325252 14.685496 
L 253.854717 18.169308 
L 255.384183 17.788194 
L 256.913648 13.144753 
L 258.443114 15.460734 
L 259.97258 14.578492 
L 261.502045 16.036131 
L 263.031511 25.10368 
L 264.560976 28.415473 
L 266.090442 31.137826 
L 267.619907 29.868294 
L 269.149373 23.191513 
L 270.678838 26.856372 
L 272.208304 34.838027 
L 273.737769 37.463077 
L 275.267235 38.15658 
L 276.7967 29.517838 
L 278.326166 30.368102 
L 279.855631 36.775261 
L 281.385097 35.448015 
L 282.914562 37.694639 
L 284.444028 42.8463 
L 285.973493 43.646734 
L 287.502959 40.194968 
L 289.032424 44.115531 
L 290.56189 42.241188 
L 292.091355 46.482153 
L 293.620821 57.350044 
L 295.150286 59.412286 
L 296.679752 66.938625 
L 298.209217 67.27058 
L 299.738683 59.474365 
L 301.268148 49.437549 
L 302.797614 48.508403 
L 304.327079 43.171353 
L 305.856545 39.707751 
L 307.38601 34.850391 
L 308.915476 38.219098 
L 310.444941 37.763888 
L 313.503872 49.939828 
L 315.033338 50.440439 
L 316.562803 50.161016 
L 318.092269 50.826061 
L 319.621734 49.564323 
L 321.1512 54.018671 
L 322.680665 53.4621 
L 324.210131 58.201621 
L 325.739596 58.874692 
L 327.269062 65.160261 
L 330.327993 57.503469 
L 331.857458 57.781681 
L 333.386924 60.38659 
L 334.916389 61.664935 
L 336.445855 58.074386 
L 337.97532 58.42975 
L 339.504786 60.90915 
L 341.034252 64.003661 
L 342.563717 72.499621 
L 344.093183 67.99459 
L 345.622648 80.16637 
L 347.152114 76.672124 
L 348.681579 78.394655 
L 350.211045 79.598171 
L 351.74051 86.773771 
L 353.269976 85.502063 
L 354.799441 93.10733 
L 356.328907 101.953828 
L 357.858372 94.083976 
L 359.387838 93.842268 
L 360.917303 97.059014 
L 362.446769 87.55397 
L 363.976234 94.647865 
L 365.5057 93.137821 
L 367.035165 92.688164 
L 368.564631 93.705407 
L 368.564631 93.705407 
" clip-path="url(#p07ecae8078)" style="fill: none; stroke: #d62728; stroke-width: 1.5; stroke-linecap: square"/>
   </g>
  </g>
 </g>
 <defs>
  <clipPath id="p07ecae8078">
   <rect x="48.982813" y="7.2" width="334.8" height="221.76"/>
  </clipPath>
 </defs>
</svg>
