<?xml version="1.0" encoding="utf-8" standalone="no"?>
<!DOCTYPE svg PUBLIC "-//W3C//DTD SVG 1.1//EN"
  "http://www.w3.org/Graphics/SVG/1.1/DTD/svg11.dtd">
<svg xmlns:xlink="http://www.w3.org/1999/xlink" width="424.442812pt" height="279.99625pt" viewBox="0 0 424.442812 279.99625" xmlns="http://www.w3.org/2000/svg" version="1.1">
 <metadata>
  <rdf:RDF xmlns:dc="http://purl.org/dc/elements/1.1/" xmlns:cc="http://creativecommons.org/ns#" xmlns:rdf="http://www.w3.org/1999/02/22-rdf-syntax-ns#">
   <cc:Work>
    <dc:type rdf:resource="http://purl.org/dc/dcmitype/StillImage"/>
    <dc:date>2024-06-18T09:51:26.381747</dc:date>
    <dc:format>image/svg+xml</dc:format>
    <dc:creator>
     <cc:Agent>
      <dc:title>Matplotlib v3.9.0, https://matplotlib.org/</dc:title>
     </cc:Agent>
    </dc:creator>
   </cc:Work>
  </rdf:RDF>
 </metadata>
 <defs>
  <style type="text/css">*{stroke-linejoin: round; stroke-linecap: butt}</style>
 </defs>
 <g id="figure_1">
  <g id="patch_1">
   <path d="M 0 279.99625 
L 424.442812 279.99625 
L 424.442812 0 
L 0 0 
z
" style="fill: #ffffff"/>
  </g>
  <g id="axes_1">
   <g id="patch_2">
    <path d="M 48.982813 242.44 
L 417.242812 242.44 
L 417.242812 7.2 
L 48.982813 7.2 
z
" style="fill: #ffffff"/>
   </g>
   <g id="matplotlib.axis_1">
    <g id="xtick_1">
     <g id="line2d_1">
      <defs>
       <path id="m1083b5cb39" d="M 0 0 
L 0 3.5 
" style="stroke: #000000; stroke-width: 0.8"/>
      </defs>
      <g>
       <use xlink:href="#m1083b5cb39" x="65.721903" y="242.44" style="stroke: #000000; stroke-width: 0.8"/>
      </g>
     </g>
     <g id="text_1">
      <!-- 2000-01 -->
      <g transform="translate(44.830497 257.038437) scale(0.1 -0.1)">
       <defs>
        <path id="DejaVuSans-32" d="M 1228 531 
L 3431 531 
L 3431 0 
L 469 0 
L 469 531 
Q 828 903 1448 1529 
Q 2069 2156 2228 2338 
Q 2531 2678 2651 2914 
Q 2772 3150 2772 3378 
Q 2772 3750 2511 3984 
Q 2250 4219 1831 4219 
Q 1534 4219 1204 4116 
Q 875 4013 500 3803 
L 500 4441 
Q 881 4594 1212 4672 
Q 1544 4750 1819 4750 
Q 2544 4750 2975 4387 
Q 3406 4025 3406 3419 
Q 3406 3131 3298 2873 
Q 3191 2616 2906 2266 
Q 2828 2175 2409 1742 
Q 1991 1309 1228 531 
z
" transform="scale(0.015625)"/>
        <path id="DejaVuSans-30" d="M 2034 4250 
Q 1547 4250 1301 3770 
Q 1056 3291 1056 2328 
Q 1056 1369 1301 889 
Q 1547 409 2034 409 
Q 2525 409 2770 889 
Q 3016 1369 3016 2328 
Q 3016 3291 2770 3770 
Q 2525 4250 2034 4250 
z
M 2034 4750 
Q 2819 4750 3233 4129 
Q 3647 3509 3647 2328 
Q 3647 1150 3233 529 
Q 2819 -91 2034 -91 
Q 1250 -91 836 529 
Q 422 1150 422 2328 
Q 422 3509 836 4129 
Q 1250 4750 2034 4750 
z
" transform="scale(0.015625)"/>
        <path id="DejaVuSans-2d" d="M 313 2009 
L 1997 2009 
L 1997 1497 
L 313 1497 
L 313 2009 
z
" transform="scale(0.015625)"/>
        <path id="DejaVuSans-31" d="M 794 531 
L 1825 531 
L 1825 4091 
L 703 3866 
L 703 4441 
L 1819 4666 
L 2450 4666 
L 2450 531 
L 3481 531 
L 3481 0 
L 794 0 
L 794 531 
z
" transform="scale(0.015625)"/>
       </defs>
       <use xlink:href="#DejaVuSans-32"/>
       <use xlink:href="#DejaVuSans-30" x="63.623047"/>
       <use xlink:href="#DejaVuSans-30" x="127.246094"/>
       <use xlink:href="#DejaVuSans-30" x="190.869141"/>
       <use xlink:href="#DejaVuSans-2d" x="254.492188"/>
       <use xlink:href="#DejaVuSans-30" x="290.576172"/>
       <use xlink:href="#DejaVuSans-31" x="354.199219"/>
      </g>
     </g>
    </g>
    <g id="xtick_2">
     <g id="line2d_2">
      <g>
       <use xlink:href="#m1083b5cb39" x="117.873845" y="242.44" style="stroke: #000000; stroke-width: 0.8"/>
      </g>
     </g>
     <g id="text_2">
      <!-- 2000-02 -->
      <g transform="translate(96.982439 257.038437) scale(0.1 -0.1)">
       <use xlink:href="#DejaVuSans-32"/>
       <use xlink:href="#DejaVuSans-30" x="63.623047"/>
       <use xlink:href="#DejaVuSans-30" x="127.246094"/>
       <use xlink:href="#DejaVuSans-30" x="190.869141"/>
       <use xlink:href="#DejaVuSans-2d" x="254.492188"/>
       <use xlink:href="#DejaVuSans-30" x="290.576172"/>
       <use xlink:href="#DejaVuSans-32" x="354.199219"/>
      </g>
     </g>
    </g>
    <g id="xtick_3">
     <g id="line2d_3">
      <g>
       <use xlink:href="#m1083b5cb39" x="166.661145" y="242.44" style="stroke: #000000; stroke-width: 0.8"/>
      </g>
     </g>
     <g id="text_3">
      <!-- 2000-03 -->
      <g transform="translate(145.769739 257.038437) scale(0.1 -0.1)">
       <defs>
        <path id="DejaVuSans-33" d="M 2597 2516 
Q 3050 2419 3304 2112 
Q 3559 1806 3559 1356 
Q 3559 666 3084 287 
Q 2609 -91 1734 -91 
Q 1441 -91 1130 -33 
Q 819 25 488 141 
L 488 750 
Q 750 597 1062 519 
Q 1375 441 1716 441 
Q 2309 441 2620 675 
Q 2931 909 2931 1356 
Q 2931 1769 2642 2001 
Q 2353 2234 1838 2234 
L 1294 2234 
L 1294 2753 
L 1863 2753 
Q 2328 2753 2575 2939 
Q 2822 3125 2822 3475 
Q 2822 3834 2567 4026 
Q 2313 4219 1838 4219 
Q 1578 4219 1281 4162 
Q 984 4106 628 3988 
L 628 4550 
Q 988 4650 1302 4700 
Q 1616 4750 1894 4750 
Q 2613 4750 3031 4423 
Q 3450 4097 3450 3541 
Q 3450 3153 3228 2886 
Q 3006 2619 2597 2516 
z
" transform="scale(0.015625)"/>
       </defs>
       <use xlink:href="#DejaVuSans-32"/>
       <use xlink:href="#DejaVuSans-30" x="63.623047"/>
       <use xlink:href="#DejaVuSans-30" x="127.246094"/>
       <use xlink:href="#DejaVuSans-30" x="190.869141"/>
       <use xlink:href="#DejaVuSans-2d" x="254.492188"/>
       <use xlink:href="#DejaVuSans-30" x="290.576172"/>
       <use xlink:href="#DejaVuSans-33" x="354.199219"/>
      </g>
     </g>
    </g>
    <g id="xtick_4">
     <g id="line2d_4">
      <g>
       <use xlink:href="#m1083b5cb39" x="218.813087" y="242.44" style="stroke: #000000; stroke-width: 0.8"/>
      </g>
     </g>
     <g id="text_4">
      <!-- 2000-04 -->
      <g transform="translate(197.92168 257.038437) scale(0.1 -0.1)">
       <defs>
        <path id="DejaVuSans-34" d="M 2419 4116 
L 825 1625 
L 2419 1625 
L 2419 4116 
z
M 2253 4666 
L 3047 4666 
L 3047 1625 
L 3713 1625 
L 3713 1100 
L 3047 1100 
L 3047 0 
L 2419 0 
L 2419 1100 
L 313 1100 
L 313 1709 
L 2253 4666 
z
" transform="scale(0.015625)"/>
       </defs>
       <use xlink:href="#DejaVuSans-32"/>
       <use xlink:href="#DejaVuSans-30" x="63.623047"/>
       <use xlink:href="#DejaVuSans-30" x="127.246094"/>
       <use xlink:href="#DejaVuSans-30" x="190.869141"/>
       <use xlink:href="#DejaVuSans-2d" x="254.492188"/>
       <use xlink:href="#DejaVuSans-30" x="290.576172"/>
       <use xlink:href="#DejaVuSans-34" x="354.199219"/>
      </g>
     </g>
    </g>
    <g id="xtick_5">
     <g id="line2d_5">
      <g>
       <use xlink:href="#m1083b5cb39" x="269.282707" y="242.44" style="stroke: #000000; stroke-width: 0.8"/>
      </g>
     </g>
     <g id="text_5">
      <!-- 2000-05 -->
      <g transform="translate(248.391301 257.038437) scale(0.1 -0.1)">
       <defs>
        <path id="DejaVuSans-35" d="M 691 4666 
L 3169 4666 
L 3169 4134 
L 1269 4134 
L 1269 2991 
Q 1406 3038 1543 3061 
Q 1681 3084 1819 3084 
Q 2600 3084 3056 2656 
Q 3513 2228 3513 1497 
Q 3513 744 3044 326 
Q 2575 -91 1722 -91 
Q 1428 -91 1123 -41 
Q 819 9 494 109 
L 494 744 
Q 775 591 1075 516 
Q 1375 441 1709 441 
Q 2250 441 2565 725 
Q 2881 1009 2881 1497 
Q 2881 1984 2565 2268 
Q 2250 2553 1709 2553 
Q 1456 2553 1204 2497 
Q 953 2441 691 2322 
L 691 4666 
z
" transform="scale(0.015625)"/>
       </defs>
       <use xlink:href="#DejaVuSans-32"/>
       <use xlink:href="#DejaVuSans-30" x="63.623047"/>
       <use xlink:href="#DejaVuSans-30" x="127.246094"/>
       <use xlink:href="#DejaVuSans-30" x="190.869141"/>
       <use xlink:href="#DejaVuSans-2d" x="254.492188"/>
       <use xlink:href="#DejaVuSans-30" x="290.576172"/>
       <use xlink:href="#DejaVuSans-35" x="354.199219"/>
      </g>
     </g>
    </g>
    <g id="xtick_6">
     <g id="line2d_6">
      <g>
       <use xlink:href="#m1083b5cb39" x="321.434649" y="242.44" style="stroke: #000000; stroke-width: 0.8"/>
      </g>
     </g>
     <g id="text_6">
      <!-- 2000-06 -->
      <g transform="translate(300.543243 257.038437) scale(0.1 -0.1)">
       <defs>
        <path id="DejaVuSans-36" d="M 2113 2584 
Q 1688 2584 1439 2293 
Q 1191 2003 1191 1497 
Q 1191 994 1439 701 
Q 1688 409 2113 409 
Q 2538 409 2786 701 
Q 3034 994 3034 1497 
Q 3034 2003 2786 2293 
Q 2538 2584 2113 2584 
z
M 3366 4563 
L 3366 3988 
Q 3128 4100 2886 4159 
Q 2644 4219 2406 4219 
Q 1781 4219 1451 3797 
Q 1122 3375 1075 2522 
Q 1259 2794 1537 2939 
Q 1816 3084 2150 3084 
Q 2853 3084 3261 2657 
Q 3669 2231 3669 1497 
Q 3669 778 3244 343 
Q 2819 -91 2113 -91 
Q 1303 -91 875 529 
Q 447 1150 447 2328 
Q 447 3434 972 4092 
Q 1497 4750 2381 4750 
Q 2619 4750 2861 4703 
Q 3103 4656 3366 4563 
z
" transform="scale(0.015625)"/>
       </defs>
       <use xlink:href="#DejaVuSans-32"/>
       <use xlink:href="#DejaVuSans-30" x="63.623047"/>
       <use xlink:href="#DejaVuSans-30" x="127.246094"/>
       <use xlink:href="#DejaVuSans-30" x="190.869141"/>
       <use xlink:href="#DejaVuSans-2d" x="254.492188"/>
       <use xlink:href="#DejaVuSans-30" x="290.576172"/>
       <use xlink:href="#DejaVuSans-36" x="354.199219"/>
      </g>
     </g>
    </g>
    <g id="xtick_7">
     <g id="line2d_7">
      <g>
       <use xlink:href="#m1083b5cb39" x="371.90427" y="242.44" style="stroke: #000000; stroke-width: 0.8"/>
      </g>
     </g>
     <g id="text_7">
      <!-- 2000-07 -->
      <g transform="translate(351.012864 257.038437) scale(0.1 -0.1)">
       <defs>
        <path id="DejaVuSans-37" d="M 525 4666 
L 3525 4666 
L 3525 4397 
L 1831 0 
L 1172 0 
L 2766 4134 
L 525 4134 
L 525 4666 
z
" transform="scale(0.015625)"/>
       </defs>
       <use xlink:href="#DejaVuSans-32"/>
       <use xlink:href="#DejaVuSans-30" x="63.623047"/>
       <use xlink:href="#DejaVuSans-30" x="127.246094"/>
       <use xlink:href="#DejaVuSans-30" x="190.869141"/>
       <use xlink:href="#DejaVuSans-2d" x="254.492188"/>
       <use xlink:href="#DejaVuSans-30" x="290.576172"/>
       <use xlink:href="#DejaVuSans-37" x="354.199219"/>
      </g>
     </g>
    </g>
    <g id="text_8">
     <!-- row [datetime] -->
     <g transform="translate(195.959687 270.716562) scale(0.1 -0.1)">
      <defs>
       <path id="DejaVuSans-72" d="M 2631 2963 
Q 2534 3019 2420 3045 
Q 2306 3072 2169 3072 
Q 1681 3072 1420 2755 
Q 1159 2438 1159 1844 
L 1159 0 
L 581 0 
L 581 3500 
L 1159 3500 
L 1159 2956 
Q 1341 3275 1631 3429 
Q 1922 3584 2338 3584 
Q 2397 3584 2469 3576 
Q 2541 3569 2628 3553 
L 2631 2963 
z
" transform="scale(0.015625)"/>
       <path id="DejaVuSans-6f" d="M 1959 3097 
Q 1497 3097 1228 2736 
Q 959 2375 959 1747 
Q 959 1119 1226 758 
Q 1494 397 1959 397 
Q 2419 397 2687 759 
Q 2956 1122 2956 1747 
Q 2956 2369 2687 2733 
Q 2419 3097 1959 3097 
z
M 1959 3584 
Q 2709 3584 3137 3096 
Q 3566 2609 3566 1747 
Q 3566 888 3137 398 
Q 2709 -91 1959 -91 
Q 1206 -91 779 398 
Q 353 888 353 1747 
Q 353 2609 779 3096 
Q 1206 3584 1959 3584 
z
" transform="scale(0.015625)"/>
       <path id="DejaVuSans-77" d="M 269 3500 
L 844 3500 
L 1563 769 
L 2278 3500 
L 2956 3500 
L 3675 769 
L 4391 3500 
L 4966 3500 
L 4050 0 
L 3372 0 
L 2619 2869 
L 1863 0 
L 1184 0 
L 269 3500 
z
" transform="scale(0.015625)"/>
       <path id="DejaVuSans-20" transform="scale(0.015625)"/>
       <path id="DejaVuSans-5b" d="M 550 4863 
L 1875 4863 
L 1875 4416 
L 1125 4416 
L 1125 -397 
L 1875 -397 
L 1875 -844 
L 550 -844 
L 550 4863 
z
" transform="scale(0.015625)"/>
       <path id="DejaVuSans-64" d="M 2906 2969 
L 2906 4863 
L 3481 4863 
L 3481 0 
L 2906 0 
L 2906 525 
Q 2725 213 2448 61 
Q 2172 -91 1784 -91 
Q 1150 -91 751 415 
Q 353 922 353 1747 
Q 353 2572 751 3078 
Q 1150 3584 1784 3584 
Q 2172 3584 2448 3432 
Q 2725 3281 2906 2969 
z
M 947 1747 
Q 947 1113 1208 752 
Q 1469 391 1925 391 
Q 2381 391 2643 752 
Q 2906 1113 2906 1747 
Q 2906 2381 2643 2742 
Q 2381 3103 1925 3103 
Q 1469 3103 1208 2742 
Q 947 2381 947 1747 
z
" transform="scale(0.015625)"/>
       <path id="DejaVuSans-61" d="M 2194 1759 
Q 1497 1759 1228 1600 
Q 959 1441 959 1056 
Q 959 750 1161 570 
Q 1363 391 1709 391 
Q 2188 391 2477 730 
Q 2766 1069 2766 1631 
L 2766 1759 
L 2194 1759 
z
M 3341 1997 
L 3341 0 
L 2766 0 
L 2766 531 
Q 2569 213 2275 61 
Q 1981 -91 1556 -91 
Q 1019 -91 701 211 
Q 384 513 384 1019 
Q 384 1609 779 1909 
Q 1175 2209 1959 2209 
L 2766 2209 
L 2766 2266 
Q 2766 2663 2505 2880 
Q 2244 3097 1772 3097 
Q 1472 3097 1187 3025 
Q 903 2953 641 2809 
L 641 3341 
Q 956 3463 1253 3523 
Q 1550 3584 1831 3584 
Q 2591 3584 2966 3190 
Q 3341 2797 3341 1997 
z
" transform="scale(0.015625)"/>
       <path id="DejaVuSans-74" d="M 1172 4494 
L 1172 3500 
L 2356 3500 
L 2356 3053 
L 1172 3053 
L 1172 1153 
Q 1172 725 1289 603 
Q 1406 481 1766 481 
L 2356 481 
L 2356 0 
L 1766 0 
Q 1100 0 847 248 
Q 594 497 594 1153 
L 594 3053 
L 172 3053 
L 172 3500 
L 594 3500 
L 594 4494 
L 1172 4494 
z
" transform="scale(0.015625)"/>
       <path id="DejaVuSans-65" d="M 3597 1894 
L 3597 1613 
L 953 1613 
Q 991 1019 1311 708 
Q 1631 397 2203 397 
Q 2534 397 2845 478 
Q 3156 559 3463 722 
L 3463 178 
Q 3153 47 2828 -22 
Q 2503 -91 2169 -91 
Q 1331 -91 842 396 
Q 353 884 353 1716 
Q 353 2575 817 3079 
Q 1281 3584 2069 3584 
Q 2775 3584 3186 3129 
Q 3597 2675 3597 1894 
z
M 3022 2063 
Q 3016 2534 2758 2815 
Q 2500 3097 2075 3097 
Q 1594 3097 1305 2825 
Q 1016 2553 972 2059 
L 3022 2063 
z
" transform="scale(0.015625)"/>
       <path id="DejaVuSans-69" d="M 603 3500 
L 1178 3500 
L 1178 0 
L 603 0 
L 603 3500 
z
M 603 4863 
L 1178 4863 
L 1178 4134 
L 603 4134 
L 603 4863 
z
" transform="scale(0.015625)"/>
       <path id="DejaVuSans-6d" d="M 3328 2828 
Q 3544 3216 3844 3400 
Q 4144 3584 4550 3584 
Q 5097 3584 5394 3201 
Q 5691 2819 5691 2113 
L 5691 0 
L 5113 0 
L 5113 2094 
Q 5113 2597 4934 2840 
Q 4756 3084 4391 3084 
Q 3944 3084 3684 2787 
Q 3425 2491 3425 1978 
L 3425 0 
L 2847 0 
L 2847 2094 
Q 2847 2600 2669 2842 
Q 2491 3084 2119 3084 
Q 1678 3084 1418 2786 
Q 1159 2488 1159 1978 
L 1159 0 
L 581 0 
L 581 3500 
L 1159 3500 
L 1159 2956 
Q 1356 3278 1631 3431 
Q 1906 3584 2284 3584 
Q 2666 3584 2933 3390 
Q 3200 3197 3328 2828 
z
" transform="scale(0.015625)"/>
       <path id="DejaVuSans-5d" d="M 1947 4863 
L 1947 -844 
L 622 -844 
L 622 -397 
L 1369 -397 
L 1369 4416 
L 622 4416 
L 622 4863 
L 1947 4863 
z
" transform="scale(0.015625)"/>
      </defs>
      <use xlink:href="#DejaVuSans-72"/>
      <use xlink:href="#DejaVuSans-6f" x="38.863281"/>
      <use xlink:href="#DejaVuSans-77" x="100.044922"/>
      <use xlink:href="#DejaVuSans-20" x="181.832031"/>
      <use xlink:href="#DejaVuSans-5b" x="213.619141"/>
      <use xlink:href="#DejaVuSans-64" x="252.632812"/>
      <use xlink:href="#DejaVuSans-61" x="316.109375"/>
      <use xlink:href="#DejaVuSans-74" x="377.388672"/>
      <use xlink:href="#DejaVuSans-65" x="416.597656"/>
      <use xlink:href="#DejaVuSans-74" x="478.121094"/>
      <use xlink:href="#DejaVuSans-69" x="517.330078"/>
      <use xlink:href="#DejaVuSans-6d" x="545.113281"/>
      <use xlink:href="#DejaVuSans-65" x="642.525391"/>
      <use xlink:href="#DejaVuSans-5d" x="704.048828"/>
     </g>
    </g>
   </g>
   <g id="matplotlib.axis_2">
    <g id="ytick_1">
     <g id="line2d_8">
      <defs>
       <path id="mfb2592dab8" d="M 0 0 
L -3.5 0 
" style="stroke: #000000; stroke-width: 0.8"/>
      </defs>
      <g>
       <use xlink:href="#mfb2592dab8" x="48.982813" y="224.644872" style="stroke: #000000; stroke-width: 0.8"/>
      </g>
     </g>
     <g id="text_9">
      <!-- −15 -->
      <g transform="translate(20.878125 228.444091) scale(0.1 -0.1)">
       <defs>
        <path id="DejaVuSans-2212" d="M 678 2272 
L 4684 2272 
L 4684 1741 
L 678 1741 
L 678 2272 
z
" transform="scale(0.015625)"/>
       </defs>
       <use xlink:href="#DejaVuSans-2212"/>
       <use xlink:href="#DejaVuSans-31" x="83.789062"/>
       <use xlink:href="#DejaVuSans-35" x="147.412109"/>
      </g>
     </g>
    </g>
    <g id="ytick_2">
     <g id="line2d_9">
      <g>
       <use xlink:href="#mfb2592dab8" x="48.982813" y="186.673978" style="stroke: #000000; stroke-width: 0.8"/>
      </g>
     </g>
     <g id="text_10">
      <!-- −10 -->
      <g transform="translate(20.878125 190.473197) scale(0.1 -0.1)">
       <use xlink:href="#DejaVuSans-2212"/>
       <use xlink:href="#DejaVuSans-31" x="83.789062"/>
       <use xlink:href="#DejaVuSans-30" x="147.412109"/>
      </g>
     </g>
    </g>
    <g id="ytick_3">
     <g id="line2d_10">
      <g>
       <use xlink:href="#mfb2592dab8" x="48.982813" y="148.703084" style="stroke: #000000; stroke-width: 0.8"/>
      </g>
     </g>
     <g id="text_11">
      <!-- −5 -->
      <g transform="translate(27.240625 152.502303) scale(0.1 -0.1)">
       <use xlink:href="#DejaVuSans-2212"/>
       <use xlink:href="#DejaVuSans-35" x="83.789062"/>
      </g>
     </g>
    </g>
    <g id="ytick_4">
     <g id="line2d_11">
      <g>
       <use xlink:href="#mfb2592dab8" x="48.982813" y="110.73219" style="stroke: #000000; stroke-width: 0.8"/>
      </g>
     </g>
     <g id="text_12">
      <!-- 0 -->
      <g transform="translate(35.620313 114.531409) scale(0.1 -0.1)">
       <use xlink:href="#DejaVuSans-30"/>
      </g>
     </g>
    </g>
    <g id="ytick_5">
     <g id="line2d_12">
      <g>
       <use xlink:href="#mfb2592dab8" x="48.982813" y="72.761296" style="stroke: #000000; stroke-width: 0.8"/>
      </g>
     </g>
     <g id="text_13">
      <!-- 5 -->
      <g transform="translate(35.620313 76.560515) scale(0.1 -0.1)">
       <use xlink:href="#DejaVuSans-35"/>
      </g>
     </g>
    </g>
    <g id="ytick_6">
     <g id="line2d_13">
      <g>
       <use xlink:href="#mfb2592dab8" x="48.982813" y="34.790402" style="stroke: #000000; stroke-width: 0.8"/>
      </g>
     </g>
     <g id="text_14">
      <!-- 10 -->
      <g transform="translate(29.257813 38.589621) scale(0.1 -0.1)">
       <use xlink:href="#DejaVuSans-31"/>
       <use xlink:href="#DejaVuSans-30" x="63.623047"/>
      </g>
     </g>
    </g>
    <g id="text_15">
     <!-- [dimensionless] -->
     <g transform="translate(14.798438 164.297344) rotate(-90) scale(0.1 -0.1)">
      <defs>
       <path id="DejaVuSans-6e" d="M 3513 2113 
L 3513 0 
L 2938 0 
L 2938 2094 
Q 2938 2591 2744 2837 
Q 2550 3084 2163 3084 
Q 1697 3084 1428 2787 
Q 1159 2491 1159 1978 
L 1159 0 
L 581 0 
L 581 3500 
L 1159 3500 
L 1159 2956 
Q 1366 3272 1645 3428 
Q 1925 3584 2291 3584 
Q 2894 3584 3203 3211 
Q 3513 2838 3513 2113 
z
" transform="scale(0.015625)"/>
       <path id="DejaVuSans-73" d="M 2834 3397 
L 2834 2853 
Q 2591 2978 2328 3040 
Q 2066 3103 1784 3103 
Q 1356 3103 1142 2972 
Q 928 2841 928 2578 
Q 928 2378 1081 2264 
Q 1234 2150 1697 2047 
L 1894 2003 
Q 2506 1872 2764 1633 
Q 3022 1394 3022 966 
Q 3022 478 2636 193 
Q 2250 -91 1575 -91 
Q 1294 -91 989 -36 
Q 684 19 347 128 
L 347 722 
Q 666 556 975 473 
Q 1284 391 1588 391 
Q 1994 391 2212 530 
Q 2431 669 2431 922 
Q 2431 1156 2273 1281 
Q 2116 1406 1581 1522 
L 1381 1569 
Q 847 1681 609 1914 
Q 372 2147 372 2553 
Q 372 3047 722 3315 
Q 1072 3584 1716 3584 
Q 2034 3584 2315 3537 
Q 2597 3491 2834 3397 
z
" transform="scale(0.015625)"/>
       <path id="DejaVuSans-6c" d="M 603 4863 
L 1178 4863 
L 1178 0 
L 603 0 
L 603 4863 
z
" transform="scale(0.015625)"/>
      </defs>
      <use xlink:href="#DejaVuSans-5b"/>
      <use xlink:href="#DejaVuSans-64" x="39.013672"/>
      <use xlink:href="#DejaVuSans-69" x="102.490234"/>
      <use xlink:href="#DejaVuSans-6d" x="130.273438"/>
      <use xlink:href="#DejaVuSans-65" x="227.685547"/>
      <use xlink:href="#DejaVuSans-6e" x="289.208984"/>
      <use xlink:href="#DejaVuSans-73" x="352.587891"/>
      <use xlink:href="#DejaVuSans-69" x="404.6875"/>
      <use xlink:href="#DejaVuSans-6f" x="432.470703"/>
      <use xlink:href="#DejaVuSans-6e" x="493.652344"/>
      <use xlink:href="#DejaVuSans-6c" x="557.03125"/>
      <use xlink:href="#DejaVuSans-65" x="584.814453"/>
      <use xlink:href="#DejaVuSans-73" x="646.337891"/>
      <use xlink:href="#DejaVuSans-73" x="698.4375"/>
      <use xlink:href="#DejaVuSans-5d" x="750.537109"/>
     </g>
    </g>
   </g>
   <g id="patch_3">
    <path d="M 48.982813 242.44 
L 48.982813 7.2 
" style="fill: none; stroke: #000000; stroke-width: 0.8; stroke-linejoin: miter; stroke-linecap: square"/>
   </g>
   <g id="patch_4">
    <path d="M 417.242812 242.44 
L 417.242812 7.2 
" style="fill: none; stroke: #000000; stroke-width: 0.8; stroke-linejoin: miter; stroke-linecap: square"/>
   </g>
   <g id="patch_5">
    <path d="M 48.982812 242.44 
L 417.242812 242.44 
" style="fill: none; stroke: #000000; stroke-width: 0.8; stroke-linejoin: miter; stroke-linecap: square"/>
   </g>
   <g id="patch_6">
    <path d="M 48.982812 7.2 
L 417.242812 7.2 
" style="fill: none; stroke: #000000; stroke-width: 0.8; stroke-linejoin: miter; stroke-linecap: square"/>
   </g>
   <g id="legend_1">
    <g id="patch_7">
     <path d="M 55.982813 73.9125 
L 95.682813 73.9125 
Q 97.682813 73.9125 97.682813 71.9125 
L 97.682813 14.2 
Q 97.682813 12.2 95.682813 12.2 
L 55.982813 12.2 
Q 53.982813 12.2 53.982813 14.2 
L 53.982813 71.9125 
Q 53.982813 73.9125 55.982813 73.9125 
z
" style="fill: #ffffff; opacity: 0.8; stroke: #cccccc; stroke-linejoin: miter"/>
    </g>
    <g id="line2d_14">
     <path d="M 57.982813 20.298437 
L 67.982813 20.298437 
L 77.982813 20.298437 
" style="fill: none; stroke: #1f77b4; stroke-width: 1.5; stroke-linecap: square"/>
    </g>
    <g id="text_16">
     <!-- A -->
     <g transform="translate(85.982813 23.798437) scale(0.1 -0.1)">
      <defs>
       <path id="DejaVuSans-41" d="M 2188 4044 
L 1331 1722 
L 3047 1722 
L 2188 4044 
z
M 1831 4666 
L 2547 4666 
L 4325 0 
L 3669 0 
L 3244 1197 
L 1141 1197 
L 716 0 
L 50 0 
L 1831 4666 
z
" transform="scale(0.015625)"/>
      </defs>
      <use xlink:href="#DejaVuSans-41"/>
     </g>
    </g>
    <g id="line2d_15">
     <path d="M 57.982813 34.976562 
L 67.982813 34.976562 
L 77.982813 34.976562 
" style="fill: none; stroke: #ff7f0e; stroke-width: 1.5; stroke-linecap: square"/>
    </g>
    <g id="text_17">
     <!-- B -->
     <g transform="translate(85.982813 38.476562) scale(0.1 -0.1)">
      <defs>
       <path id="DejaVuSans-42" d="M 1259 2228 
L 1259 519 
L 2272 519 
Q 2781 519 3026 730 
Q 3272 941 3272 1375 
Q 3272 1813 3026 2020 
Q 2781 2228 2272 2228 
L 1259 2228 
z
M 1259 4147 
L 1259 2741 
L 2194 2741 
Q 2656 2741 2882 2914 
Q 3109 3088 3109 3444 
Q 3109 3797 2882 3972 
Q 2656 4147 2194 4147 
L 1259 4147 
z
M 628 4666 
L 2241 4666 
Q 2963 4666 3353 4366 
Q 3744 4066 3744 3513 
Q 3744 3084 3544 2831 
Q 3344 2578 2956 2516 
Q 3422 2416 3680 2098 
Q 3938 1781 3938 1306 
Q 3938 681 3513 340 
Q 3088 0 2303 0 
L 628 0 
L 628 4666 
z
" transform="scale(0.015625)"/>
      </defs>
      <use xlink:href="#DejaVuSans-42"/>
     </g>
    </g>
    <g id="line2d_16">
     <path d="M 57.982813 49.654687 
L 67.982813 49.654687 
L 77.982813 49.654687 
" style="fill: none; stroke: #2ca02c; stroke-width: 1.5; stroke-linecap: square"/>
    </g>
    <g id="text_18">
     <!-- C -->
     <g transform="translate(85.982813 53.154687) scale(0.1 -0.1)">
      <defs>
       <path id="DejaVuSans-43" d="M 4122 4306 
L 4122 3641 
Q 3803 3938 3442 4084 
Q 3081 4231 2675 4231 
Q 1875 4231 1450 3742 
Q 1025 3253 1025 2328 
Q 1025 1406 1450 917 
Q 1875 428 2675 428 
Q 3081 428 3442 575 
Q 3803 722 4122 1019 
L 4122 359 
Q 3791 134 3420 21 
Q 3050 -91 2638 -91 
Q 1578 -91 968 557 
Q 359 1206 359 2328 
Q 359 3453 968 4101 
Q 1578 4750 2638 4750 
Q 3056 4750 3426 4639 
Q 3797 4528 4122 4306 
z
" transform="scale(0.015625)"/>
      </defs>
      <use xlink:href="#DejaVuSans-43"/>
     </g>
    </g>
    <g id="line2d_17">
     <path d="M 57.982813 64.332812 
L 67.982813 64.332812 
L 77.982813 64.332812 
" style="fill: none; stroke: #d62728; stroke-width: 1.5; stroke-linecap: square"/>
    </g>
    <g id="text_19">
     <!-- D -->
     <g transform="translate(85.982813 67.832812) scale(0.1 -0.1)">
      <defs>
       <path id="DejaVuSans-44" d="M 1259 4147 
L 1259 519 
L 2022 519 
Q 2988 519 3436 956 
Q 3884 1394 3884 2338 
Q 3884 3275 3436 3711 
Q 2988 4147 2022 4147 
L 1259 4147 
z
M 628 4666 
L 1925 4666 
Q 3281 4666 3915 4102 
Q 4550 3538 4550 2338 
Q 4550 1131 3912 565 
Q 3275 0 1925 0 
L 628 0 
L 628 4666 
z
" transform="scale(0.015625)"/>
      </defs>
      <use xlink:href="#DejaVuSans-44"/>
     </g>
    </g>
   </g>
   <g id="line2d_18">
    <path d="M 65.721903 114.98322 
L 67.404224 105.967117 
L 69.086545 108.828063 
L 70.768865 97.894053 
L 72.451186 101.038946 
L 74.133507 105.161471 
L 75.815828 85.317265 
L 77.498148 86.79074 
L 79.180469 96.790234 
L 80.86279 91.246059 
L 82.54511 98.96886 
L 84.227431 102.976926 
L 85.909752 106.405871 
L 87.592072 120.646528 
L 89.274393 123.574239 
L 90.956714 117.465607 
L 92.639035 118.485129 
L 94.321355 109.62716 
L 96.003676 107.115984 
L 97.685997 102.774277 
L 99.368317 91.960562 
L 101.050638 96.895719 
L 102.732959 97.734373 
L 104.415279 106.289648 
L 106.0976 98.41112 
L 107.779921 87.289257 
L 109.462241 84.690617 
L 111.144562 95.65925 
L 112.826883 85.873749 
L 114.509204 80.645152 
L 116.191524 87.08119 
L 117.873845 89.836327 
L 119.556166 104.277996 
L 121.238486 108.645919 
L 122.920807 118.482149 
L 124.603128 120.812319 
L 126.285448 124.736185 
L 127.967769 118.509894 
L 129.65009 113.253336 
L 131.33241 118.754378 
L 133.014731 121.292334 
L 134.697052 117.071286 
L 136.379373 126.616509 
L 138.061693 117.369816 
L 139.744014 111.201609 
L 141.426335 106.535244 
L 143.108655 108.757389 
L 144.790976 109.025893 
L 146.473297 105.191525 
L 148.155617 81.189922 
L 149.837938 70.446509 
L 151.520259 74.706385 
L 153.20258 79.335892 
L 154.8849 74.071407 
L 156.567221 78.639489 
L 158.249542 59.267978 
L 159.931862 56.66216 
L 161.614183 53.836963 
L 163.296504 54.98842 
L 164.978824 69.315085 
L 166.661145 66.242105 
L 168.343466 51.583133 
L 170.025786 51.615903 
L 171.708107 53.612956 
L 173.390428 61.554877 
L 175.072749 76.625862 
L 176.755069 84.773921 
L 178.43739 85.561839 
L 180.119711 83.646082 
L 181.802031 74.316422 
L 183.484352 78.589054 
L 185.166673 72.001465 
L 186.848993 71.392061 
L 188.531314 70.067998 
L 190.213635 77.607045 
L 191.895955 90.780305 
L 193.578276 105.144598 
L 195.260597 100.842667 
L 196.942918 109.228524 
L 198.625238 99.52524 
L 200.307559 81.404942 
L 201.98988 82.634302 
L 203.6722 90.327739 
L 205.354521 90.457154 
L 207.036842 90.190551 
L 208.719162 66.828368 
L 210.401483 63.413567 
L 212.083804 66.965494 
L 213.766125 66.505449 
L 215.448445 54.832383 
L 217.130766 57.056767 
L 218.813087 60.879638 
L 220.495407 51.65711 
L 222.177728 68.667291 
L 223.860049 88.972993 
L 225.542369 90.37697 
L 227.22469 92.559617 
L 228.907011 97.347889 
L 230.589331 79.528153 
L 232.271652 91.969773 
L 233.953973 95.480966 
L 235.636294 89.80598 
L 237.318614 97.414366 
L 239.000935 93.448585 
L 240.683256 83.896634 
L 242.365576 86.849509 
L 244.047897 90.556646 
L 245.730218 81.320343 
L 247.412538 80.744807 
L 249.094859 76.571206 
L 250.77718 78.983199 
L 252.4595 80.328976 
L 254.141821 82.089158 
L 255.824142 78.030834 
L 257.506463 78.646541 
L 259.188783 75.518848 
L 260.871104 75.697221 
L 262.553425 79.183169 
L 264.235745 80.467184 
L 265.918066 73.294869 
L 267.600387 73.010715 
L 269.282707 66.037268 
L 270.965028 70.403949 
L 272.647349 62.939041 
L 274.32967 60.536613 
L 276.01199 60.743625 
L 277.694311 60.784542 
L 279.376632 50.139952 
L 281.058952 37.259151 
L 282.741273 37.475233 
L 284.423594 32.174572 
L 286.105914 30.248466 
L 287.788235 26.945304 
L 289.470556 20.022358 
L 291.152876 20.815805 
L 292.835197 28.421682 
L 294.517518 29.783354 
L 296.199839 39.625068 
L 297.882159 39.188541 
L 299.56448 34.281332 
L 301.246801 44.424411 
L 302.929121 51.342692 
L 304.611442 60.091107 
L 306.293763 48.341256 
L 307.976083 55.279781 
L 309.658404 57.359854 
L 311.340725 54.666066 
L 313.023045 43.299888 
L 314.705366 37.401617 
L 316.387687 30.167611 
L 318.070008 17.500015 
L 319.752328 16.52879 
L 321.434649 30.29124 
L 323.11697 24.85747 
L 324.79929 21.310168 
L 326.481611 22.941286 
L 328.163932 12.8865 
L 329.846252 24.361395 
L 331.528573 37.917336 
L 333.210894 37.432382 
L 334.893215 29.916729 
L 336.575535 34.199855 
L 338.257856 36.792739 
L 339.940177 35.981148 
L 341.622497 27.208625 
L 343.304818 35.821676 
L 344.987139 45.608491 
L 346.669459 48.867003 
L 348.35178 55.096673 
L 350.034101 56.977156 
L 351.716421 56.447131 
L 353.398742 64.857081 
L 355.081063 55.95922 
L 356.763384 55.816789 
L 358.445704 65.796022 
L 360.128025 83.549504 
L 361.810346 78.596365 
L 363.492666 83.525165 
L 365.174987 82.236177 
L 366.857308 99.586158 
L 368.539628 89.842888 
L 370.221949 88.219288 
L 373.58659 81.465009 
L 375.268911 71.18091 
L 376.951232 69.047939 
L 378.633553 65.810098 
L 380.315873 61.752711 
L 381.998194 66.052029 
L 383.680515 60.173085 
L 385.362835 55.143375 
L 387.045156 59.771997 
L 388.727477 63.210172 
L 390.409797 55.714619 
L 392.092118 45.066407 
L 393.774439 39.095521 
L 395.45676 38.842792 
L 397.13908 53.19191 
L 398.821401 47.837134 
L 400.503722 41.912661 
L 400.503722 41.912661 
" clip-path="url(#pdedffe42fe)" style="fill: none; stroke: #1f77b4; stroke-width: 1.5; stroke-linecap: square"/>
   </g>
   <g id="line2d_19">
    <path d="M 65.721903 108.912609 
L 67.404224 112.388678 
L 69.086545 110.379824 
L 70.768865 102.727752 
L 72.451186 90.483927 
L 74.133507 93.346394 
L 75.815828 98.203506 
L 77.498148 104.609753 
L 79.180469 107.955174 
L 80.86279 120.192577 
L 82.54511 136.808265 
L 84.227431 141.275352 
L 85.909752 140.00443 
L 87.592072 134.557518 
L 89.274393 146.319237 
L 90.956714 151.753352 
L 92.639035 157.976402 
L 94.321355 162.596763 
L 96.003676 143.294628 
L 97.685997 151.463084 
L 99.368317 163.16689 
L 101.050638 162.374656 
L 102.732959 144.461197 
L 104.415279 132.036966 
L 106.0976 141.955308 
L 107.779921 141.773301 
L 109.462241 138.054435 
L 111.144562 130.391577 
L 112.826883 139.411875 
L 114.509204 136.570149 
L 116.191524 124.290371 
L 117.873845 107.818257 
L 119.556166 114.489793 
L 121.238486 118.277713 
L 122.920807 113.760361 
L 124.603128 106.019257 
L 126.285448 111.135423 
L 127.967769 102.144928 
L 129.65009 97.506488 
L 131.33241 100.636095 
L 133.014731 107.841494 
L 134.697052 100.491142 
L 136.379373 90.213492 
L 138.061693 94.659376 
L 139.744014 86.578775 
L 141.426335 94.425588 
L 143.108655 96.923511 
L 144.790976 86.558341 
L 146.473297 94.983786 
L 148.155617 93.328482 
L 149.837938 80.203578 
L 151.520259 71.670191 
L 153.20258 78.166352 
L 154.8849 65.631726 
L 156.567221 83.140449 
L 158.249542 82.841182 
L 159.931862 80.245306 
L 161.614183 86.227156 
L 163.296504 100.653044 
L 164.978824 101.750325 
L 166.661145 107.474755 
L 168.343466 108.342615 
L 170.025786 96.129074 
L 171.708107 101.593291 
L 173.390428 100.591624 
L 175.072749 105.685199 
L 176.755069 106.43394 
L 178.43739 116.472391 
L 180.119711 117.13927 
L 181.802031 119.304671 
L 183.484352 120.25477 
L 185.166673 122.368874 
L 188.531314 111.771547 
L 190.213635 98.181174 
L 191.895955 96.816127 
L 193.578276 101.502167 
L 196.942918 118.428588 
L 198.625238 125.359225 
L 200.307559 131.063348 
L 201.98988 127.134219 
L 203.6722 132.317612 
L 205.354521 114.602052 
L 207.036842 110.75302 
L 208.719162 112.379271 
L 210.401483 100.031837 
L 212.083804 96.204836 
L 213.766125 100.821635 
L 215.448445 100.889877 
L 217.130766 107.335225 
L 218.813087 105.197442 
L 220.495407 108.015755 
L 222.177728 123.061709 
L 223.860049 117.02315 
L 225.542369 122.333142 
L 227.22469 115.082883 
L 228.907011 102.716092 
L 230.589331 105.848504 
L 232.271652 103.686747 
L 233.953973 107.173927 
L 235.636294 103.021447 
L 237.318614 103.306053 
L 239.000935 108.613589 
L 240.683256 106.638876 
L 242.365576 125.286787 
L 244.047897 129.37983 
L 245.730218 119.385572 
L 247.412538 133.29954 
L 249.094859 137.579139 
L 250.77718 133.736626 
L 252.4595 151.239883 
L 254.141821 154.629118 
L 255.824142 167.632953 
L 257.506463 172.153558 
L 259.188783 178.050411 
L 260.871104 179.360786 
L 262.553425 184.585417 
L 264.235745 184.474749 
L 265.918066 181.988966 
L 269.282707 165.886812 
L 270.965028 171.146407 
L 272.647349 171.935851 
L 274.32967 180.810989 
L 276.01199 178.23513 
L 277.694311 184.799182 
L 279.376632 177.325542 
L 281.058952 184.500524 
L 282.741273 195.130705 
L 284.423594 186.557456 
L 286.105914 180.094841 
L 287.788235 184.487458 
L 289.470556 182.394884 
L 291.152876 161.920967 
L 292.835197 158.131058 
L 294.517518 148.687466 
L 296.199839 144.879059 
L 297.882159 135.346951 
L 299.56448 132.815855 
L 302.929121 135.984895 
L 304.611442 126.092877 
L 306.293763 122.362959 
L 307.976083 125.353552 
L 309.658404 133.590007 
L 311.340725 135.065297 
L 313.023045 132.878192 
L 314.705366 135.503282 
L 316.387687 132.317507 
L 318.070008 134.70261 
L 319.752328 132.816613 
L 321.434649 144.302623 
L 323.11697 148.11039 
L 324.79929 146.093417 
L 326.481611 125.431412 
L 328.163932 120.506838 
L 329.846252 121.601698 
L 331.528573 112.454562 
L 333.210894 107.785305 
L 334.893215 100.521703 
L 336.575535 105.958458 
L 338.257856 103.268915 
L 339.940177 96.073034 
L 341.622497 108.307493 
L 343.304818 95.538076 
L 344.987139 80.806113 
L 346.669459 77.831813 
L 348.35178 70.329552 
L 351.716421 77.832394 
L 353.398742 83.713335 
L 355.081063 82.500026 
L 356.763384 65.368887 
L 358.445704 70.115582 
L 360.128025 73.057647 
L 361.810346 93.443707 
L 363.492666 102.046653 
L 365.174987 109.983278 
L 366.857308 100.533395 
L 368.539628 93.59712 
L 370.221949 90.423637 
L 371.90427 82.972649 
L 373.58659 92.443474 
L 375.268911 85.013117 
L 376.951232 86.478652 
L 378.633553 89.82045 
L 380.315873 96.462179 
L 381.998194 81.370021 
L 383.680515 78.167001 
L 385.362835 77.719305 
L 387.045156 77.953668 
L 388.727477 72.718946 
L 390.409797 66.604863 
L 392.092118 75.696724 
L 393.774439 77.832466 
L 395.45676 75.513407 
L 397.13908 76.591083 
L 398.821401 73.137606 
L 400.503722 83.754963 
L 400.503722 83.754963 
" clip-path="url(#pdedffe42fe)" style="fill: none; stroke: #ff7f0e; stroke-width: 1.5; stroke-linecap: square"/>
   </g>
   <g id="line2d_20">
    <path d="M 65.721903 114.146033 
L 67.404224 117.559428 
L 69.086545 122.158737 
L 70.768865 141.478922 
L 72.451186 152.066402 
L 74.133507 153.353719 
L 75.815828 142.129792 
L 77.498148 146.118705 
L 79.180469 141.013137 
L 80.86279 127.273364 
L 82.54511 121.711368 
L 84.227431 127.61171 
L 85.909752 131.106105 
L 87.592072 143.16414 
L 89.274393 156.824625 
L 90.956714 152.971047 
L 92.639035 157.503452 
L 94.321355 157.536728 
L 96.003676 173.220596 
L 97.685997 156.793714 
L 99.368317 138.459398 
L 101.050638 140.746722 
L 102.732959 144.950865 
L 104.415279 143.843719 
L 106.0976 132.642483 
L 107.779921 140.663914 
L 109.462241 133.837605 
L 111.144562 132.937413 
L 112.826883 129.072568 
L 114.509204 135.704617 
L 116.191524 126.94873 
L 117.873845 121.220143 
L 119.556166 114.517481 
L 121.238486 117.25695 
L 122.920807 123.621474 
L 124.603128 120.225131 
L 126.285448 133.805031 
L 127.967769 145.417159 
L 129.65009 147.196844 
L 131.33241 144.488645 
L 133.014731 145.435511 
L 134.697052 140.948343 
L 136.379373 137.377219 
L 138.061693 137.262301 
L 139.744014 134.991286 
L 141.426335 134.259779 
L 143.108655 124.423295 
L 144.790976 116.967721 
L 146.473297 118.809523 
L 148.155617 120.201689 
L 149.837938 125.025185 
L 151.520259 117.090352 
L 153.20258 132.106859 
L 154.8849 130.780034 
L 156.567221 138.318381 
L 158.249542 156.127127 
L 159.931862 169.204824 
L 161.614183 169.581396 
L 163.296504 174.763746 
L 164.978824 171.693884 
L 166.661145 182.691306 
L 168.343466 190.9013 
L 170.025786 184.97046 
L 171.708107 189.612127 
L 173.390428 192.471888 
L 175.072749 188.690823 
L 176.755069 183.706999 
L 178.43739 166.078082 
L 180.119711 174.246209 
L 181.802031 165.325976 
L 183.484352 149.836806 
L 185.166673 163.175641 
L 186.848993 160.277221 
L 188.531314 174.477029 
L 190.213635 186.196303 
L 191.895955 190.712864 
L 193.578276 184.598131 
L 195.260597 182.305552 
L 196.942918 183.821306 
L 198.625238 172.886062 
L 200.307559 177.77294 
L 201.98988 175.07215 
L 203.6722 168.743901 
L 205.354521 178.412276 
L 207.036842 170.122507 
L 208.719162 168.06597 
L 210.401483 175.697519 
L 212.083804 176.095559 
L 213.766125 167.931749 
L 215.448445 173.287178 
L 217.130766 161.692726 
L 218.813087 173.980048 
L 220.495407 169.290883 
L 222.177728 171.349066 
L 223.860049 162.21942 
L 225.542369 168.742603 
L 227.22469 176.984759 
L 228.907011 185.877864 
L 230.589331 183.373265 
L 232.271652 190.335164 
L 233.953973 200.409837 
L 235.636294 198.732421 
L 237.318614 190.58205 
L 239.000935 202.341979 
L 240.683256 202.355582 
L 242.365576 211.448612 
L 244.047897 207.49462 
L 245.730218 213.633209 
L 247.412538 211.633849 
L 249.094859 209.425043 
L 250.77718 209.665425 
L 252.4595 219.725111 
L 254.141821 226.460568 
L 255.824142 228.993474 
L 257.506463 234.622037 
L 259.188783 236.330763 
L 260.871104 224.184285 
L 262.553425 222.08496 
L 264.235745 212.283522 
L 265.918066 198.328974 
L 267.600387 204.37355 
L 269.282707 211.400608 
L 270.965028 208.801537 
L 272.647349 211.803812 
L 274.32967 206.648111 
L 276.01199 205.461799 
L 277.694311 209.378938 
L 279.376632 205.720483 
L 281.058952 209.214635 
L 282.741273 205.733748 
L 284.423594 200.759617 
L 286.105914 214.069441 
L 287.788235 220.781806 
L 289.470556 211.896644 
L 291.152876 214.128732 
L 292.835197 202.807748 
L 296.199839 210.926214 
L 297.882159 208.811019 
L 299.56448 201.93097 
L 301.246801 184.227004 
L 302.929121 183.473044 
L 304.611442 197.484297 
L 306.293763 196.620739 
L 307.976083 183.980895 
L 311.340725 184.73367 
L 313.023045 188.31687 
L 314.705366 196.539121 
L 316.387687 200.0332 
L 318.070008 200.056286 
L 319.752328 203.79435 
L 321.434649 203.144451 
L 323.11697 194.407709 
L 324.79929 192.721562 
L 326.481611 176.451894 
L 328.163932 185.019557 
L 329.846252 189.894711 
L 331.528573 184.265901 
L 333.210894 186.371469 
L 334.893215 193.627084 
L 336.575535 187.258198 
L 338.257856 176.278432 
L 339.940177 190.534777 
L 341.622497 181.23308 
L 343.304818 196.681048 
L 344.987139 186.393274 
L 346.669459 182.079643 
L 348.35178 180.951503 
L 350.034101 182.914746 
L 351.716421 191.59303 
L 353.398742 199.250614 
L 355.081063 188.67329 
L 356.763384 181.178422 
L 358.445704 182.203045 
L 360.128025 163.153936 
L 361.810346 166.028002 
L 363.492666 173.140657 
L 365.174987 166.138514 
L 366.857308 166.020485 
L 368.539628 178.682736 
L 370.221949 184.19799 
L 371.90427 178.034498 
L 373.58659 181.769648 
L 375.268911 198.091913 
L 376.951232 197.579451 
L 378.633553 199.52715 
L 380.315873 184.176649 
L 381.998194 186.371626 
L 383.680515 177.079917 
L 385.362835 186.77148 
L 387.045156 181.229791 
L 388.727477 185.695418 
L 390.409797 188.617635 
L 392.092118 198.964276 
L 393.774439 216.150054 
L 395.45676 222.522922 
L 397.13908 213.793848 
L 398.821401 207.315306 
L 400.503722 219.723703 
L 400.503722 219.723703 
" clip-path="url(#pdedffe42fe)" style="fill: none; stroke: #2ca02c; stroke-width: 1.5; stroke-linecap: square"/>
   </g>
   <g id="line2d_21">
    <path d="M 65.721903 112.965013 
L 67.404224 117.414576 
L 69.086545 121.465237 
L 70.768865 120.649505 
L 72.451186 131.997896 
L 74.133507 133.515565 
L 75.815828 127.205529 
L 77.498148 126.282148 
L 79.180469 135.067171 
L 80.86279 132.872902 
L 82.54511 124.247489 
L 84.227431 121.748866 
L 85.909752 124.645842 
L 87.592072 132.141801 
L 89.274393 122.266574 
L 90.956714 135.654631 
L 92.639035 136.322092 
L 94.321355 137.330618 
L 96.003676 125.814545 
L 97.685997 128.601347 
L 99.368317 118.89302 
L 101.050638 124.712602 
L 104.415279 115.658983 
L 106.0976 113.429363 
L 107.779921 116.451729 
L 109.462241 118.663227 
L 111.144562 116.513854 
L 112.826883 126.577418 
L 114.509204 127.881477 
L 116.191524 120.45917 
L 117.873845 116.081208 
L 119.556166 110.761191 
L 121.238486 119.028125 
L 122.920807 121.160477 
L 124.603128 126.261087 
L 126.285448 104.341859 
L 127.967769 117.400873 
L 129.65009 116.702428 
L 131.33241 117.73828 
L 133.014731 116.823016 
L 134.697052 118.728851 
L 136.379373 117.385865 
L 138.061693 111.8285 
L 139.744014 107.485634 
L 143.108655 102.174037 
L 144.790976 96.870723 
L 146.473297 110.115994 
L 148.155617 112.972828 
L 149.837938 121.72361 
L 151.520259 128.612805 
L 153.20258 124.985683 
L 154.8849 127.722454 
L 156.567221 128.037511 
L 158.249542 124.222004 
L 159.931862 130.193437 
L 161.614183 131.55424 
L 163.296504 130.219724 
L 164.978824 126.016733 
L 166.661145 137.712476 
L 168.343466 137.687619 
L 170.025786 127.299175 
L 171.708107 132.213692 
L 173.390428 128.516168 
L 175.072749 132.788509 
L 176.755069 137.730909 
L 178.43739 133.743058 
L 180.119711 138.433229 
L 181.802031 132.964306 
L 183.484352 145.841211 
L 185.166673 140.43966 
L 186.848993 131.779944 
L 188.531314 133.20063 
L 190.213635 137.230136 
L 191.895955 132.465267 
L 193.578276 128.747974 
L 195.260597 138.088471 
L 196.942918 141.444804 
L 198.625238 158.143175 
L 200.307559 171.1868 
L 201.98988 153.01473 
L 203.6722 160.945135 
L 205.354521 161.80471 
L 207.036842 160.328027 
L 208.719162 149.900688 
L 210.401483 148.593176 
L 212.083804 151.569879 
L 213.766125 157.385974 
L 215.448445 154.445158 
L 217.130766 157.384362 
L 218.813087 166.060656 
L 220.495407 171.030664 
L 222.177728 178.344433 
L 223.860049 170.093167 
L 225.542369 172.600724 
L 227.22469 178.340414 
L 228.907011 167.188905 
L 230.589331 167.095054 
L 232.271652 162.983253 
L 233.953973 151.291941 
L 235.636294 160.012393 
L 237.318614 157.272494 
L 239.000935 151.533 
L 240.683256 159.588807 
L 242.365576 159.661681 
L 244.047897 146.905335 
L 245.730218 135.020259 
L 247.412538 141.742436 
L 249.094859 147.933975 
L 250.77718 137.12025 
L 252.4595 134.454812 
L 254.141821 138.421702 
L 255.824142 144.567272 
L 257.506463 140.637486 
L 260.871104 144.047194 
L 262.553425 140.714638 
L 264.235745 136.954812 
L 265.918066 132.626615 
L 267.600387 141.857924 
L 269.282707 139.958598 
L 270.965028 140.366204 
L 272.647349 132.727309 
L 274.32967 143.374447 
L 276.01199 149.599365 
L 277.694311 147.017238 
L 279.376632 145.699638 
L 281.058952 142.000503 
L 282.741273 137.976198 
L 284.423594 135.122162 
L 286.105914 143.986723 
L 287.788235 150.899039 
L 289.470556 165.226285 
L 291.152876 162.559674 
L 292.835197 163.033014 
L 294.517518 161.175289 
L 296.199839 169.582754 
L 297.882159 163.722918 
L 299.56448 172.143311 
L 301.246801 172.572422 
L 302.929121 175.032679 
L 304.611442 163.17263 
L 306.293763 164.884965 
L 307.976083 178.108645 
L 309.658404 180.025258 
L 313.023045 190.712652 
L 314.705366 192.124036 
L 316.387687 191.860437 
L 318.070008 181.347811 
L 319.752328 163.566759 
L 321.434649 162.755039 
L 323.11697 159.773662 
L 324.79929 148.094152 
L 326.481611 139.631441 
L 328.163932 147.825301 
L 329.846252 135.253771 
L 331.528573 147.29751 
L 333.210894 145.85995 
L 334.893215 154.514829 
L 336.575535 171.117471 
L 338.257856 185.356681 
L 339.940177 181.226218 
L 341.622497 190.636618 
L 343.304818 180.739406 
L 344.987139 183.304107 
L 346.669459 182.022002 
L 348.35178 181.092799 
L 350.034101 177.84475 
L 351.716421 183.577775 
L 353.398742 187.233335 
L 355.081063 182.525097 
L 356.763384 194.60027 
L 358.445704 190.411027 
L 360.128025 199.657402 
L 361.810346 195.822289 
L 363.492666 196.187534 
L 365.174987 202.517912 
L 366.857308 205.56686 
L 368.539628 221.027443 
L 370.221949 223.978873 
L 371.90427 223.836706 
L 373.58659 212.61007 
L 375.268911 207.389862 
L 376.951232 198.468948 
L 378.633553 208.601539 
L 380.315873 215.04867 
L 381.998194 201.136114 
L 383.680515 205.661321 
L 385.362835 202.272703 
L 387.045156 211.802897 
L 388.727477 202.707072 
L 390.409797 206.741787 
L 392.092118 202.418168 
L 393.774439 191.367698 
L 395.45676 178.519164 
L 397.13908 179.928642 
L 398.821401 180.762556 
L 400.503722 174.604562 
L 400.503722 174.604562 
" clip-path="url(#pdedffe42fe)" style="fill: none; stroke: #d62728; stroke-width: 1.5; stroke-linecap: square"/>
   </g>
  </g>
 </g>
 <defs>
  <clipPath id="pdedffe42fe">
   <rect x="48.982813" y="7.2" width="368.26" height="235.24"/>
  </clipPath>
 </defs>
</svg>
