<?xml version="1.0" encoding="UTF-8" standalone="no"?>
<!DOCTYPE svg PUBLIC "-//W3C//DTD SVG 1.1//EN"
 "http://www.w3.org/Graphics/SVG/1.1/DTD/svg11.dtd">
<!-- Generated by graphviz version 2.43.0 (0)
 -->
<!-- Title: %3 Pages: 1 -->
<svg width="544pt" height="179pt"
 viewBox="0.00 0.00 543.50 179.00" xmlns="http://www.w3.org/2000/svg" xmlns:xlink="http://www.w3.org/1999/xlink">
<g id="graph0" class="graph" transform="scale(1 1) rotate(0) translate(4 175)">
<title>%3</title>
<polygon fill="white" stroke="transparent" points="-4,4 -4,-175 539.5,-175 539.5,4 -4,4"/>
<!-- e69925c168de440d853ec41b0fb82abf -->
<g id="node1" class="node">
<title>e69925c168de440d853ec41b0fb82abf</title>
<polygon fill="none" stroke="black" points="217,-171 0,-171 0,-148 217,-148 217,-171"/>
<text text-anchor="middle" x="108.5" y="-155.8" font-family="Times,serif" font-size="14.00">Widget &lt;Checkboxes: dict&gt;</text>
</g>
<!-- f2903481e7534c39a9329956c1dd4bd3 -->
<g id="node2" class="node">
<title>f2903481e7534c39a9329956c1dd4bd3</title>
<polygon fill="none" stroke="black" points="329.5,-97 91.5,-97 91.5,-74 329.5,-74 329.5,-97"/>
<text text-anchor="middle" x="210.5" y="-81.8" font-family="Times,serif" font-size="14.00">hide_masks(data_array, masks)</text>
</g>
<!-- e69925c168de440d853ec41b0fb82abf&#45;&gt;f2903481e7534c39a9329956c1dd4bd3 -->
<g id="edge1" class="edge">
<title>e69925c168de440d853ec41b0fb82abf&#45;&gt;f2903481e7534c39a9329956c1dd4bd3</title>
<path fill="none" stroke="black" d="M123.55,-147.88C140.27,-136.07 167.49,-116.86 187.02,-103.07"/>
<polygon fill="black" stroke="black" points="189.24,-105.79 195.39,-97.17 185.2,-100.07 189.24,-105.79"/>
<text text-anchor="middle" x="192.5" y="-118.8" font-family="Times,serif" font-size="14.00">masks</text>
</g>
<!-- 6438e1ae729c423ba506f3e7de944cc2 -->
<g id="node3" class="node">
<title>6438e1ae729c423ba506f3e7de944cc2</title>
<polygon fill="none" stroke="black" points="406.5,-23 244.5,-23 244.5,0 406.5,0 406.5,-23"/>
<text text-anchor="middle" x="325.5" y="-7.8" font-family="Times,serif" font-size="14.00">slice_y(arg_0, index)</text>
</g>
<!-- f2903481e7534c39a9329956c1dd4bd3&#45;&gt;6438e1ae729c423ba506f3e7de944cc2 -->
<g id="edge2" class="edge">
<title>f2903481e7534c39a9329956c1dd4bd3&#45;&gt;6438e1ae729c423ba506f3e7de944cc2</title>
<path fill="none" stroke="black" d="M227.47,-73.88C246.58,-61.91 277.84,-42.34 299.92,-28.52"/>
<polygon fill="black" stroke="black" points="301.84,-31.44 308.46,-23.17 298.13,-25.51 301.84,-31.44"/>
<text text-anchor="middle" x="297.5" y="-44.8" font-family="Times,serif" font-size="14.00">arg_0</text>
</g>
<!-- 1a8cddec5ecc4dd89b7babd8ce1fd1f1 -->
<g id="node4" class="node">
<title>1a8cddec5ecc4dd89b7babd8ce1fd1f1</title>
<polygon fill="none" stroke="black" points="535.5,-97 347.5,-97 347.5,-74 535.5,-74 535.5,-97"/>
<text text-anchor="middle" x="441.5" y="-81.8" font-family="Times,serif" font-size="14.00">Widget &lt;IntSlider: int&gt;</text>
</g>
<!-- 1a8cddec5ecc4dd89b7babd8ce1fd1f1&#45;&gt;6438e1ae729c423ba506f3e7de944cc2 -->
<g id="edge3" class="edge">
<title>1a8cddec5ecc4dd89b7babd8ce1fd1f1&#45;&gt;6438e1ae729c423ba506f3e7de944cc2</title>
<path fill="none" stroke="black" d="M424.38,-73.88C405.11,-61.91 373.57,-42.34 351.31,-28.52"/>
<polygon fill="black" stroke="black" points="353.03,-25.47 342.69,-23.17 349.34,-31.41 353.03,-25.47"/>
<text text-anchor="middle" x="413.5" y="-44.8" font-family="Times,serif" font-size="14.00">index</text>
</g>
<!-- 1a44446a5c844814a1b57b8e6727f1d4 -->
<g id="node5" class="node">
<title>1a44446a5c844814a1b57b8e6727f1d4</title>
<polygon fill="none" stroke="black" points="392,-171 235,-171 235,-148 392,-148 392,-171"/>
<text text-anchor="middle" x="313.5" y="-155.8" font-family="Times,serif" font-size="14.00">Input &lt;DataArray&gt;</text>
</g>
<!-- 1a44446a5c844814a1b57b8e6727f1d4&#45;&gt;f2903481e7534c39a9329956c1dd4bd3 -->
<g id="edge4" class="edge">
<title>1a44446a5c844814a1b57b8e6727f1d4&#45;&gt;f2903481e7534c39a9329956c1dd4bd3</title>
<path fill="none" stroke="black" d="M298.3,-147.88C281.41,-136.07 253.93,-116.86 234.21,-103.07"/>
<polygon fill="black" stroke="black" points="235.96,-100.03 225.76,-97.17 231.95,-105.77 235.96,-100.03"/>
<text text-anchor="middle" x="309" y="-118.8" font-family="Times,serif" font-size="14.00">data_array</text>
</g>
</g>
</svg>
