<?xml version="1.0" encoding="utf-8" standalone="no"?>
<!DOCTYPE svg PUBLIC "-//W3C//DTD SVG 1.1//EN"
  "http://www.w3.org/Graphics/SVG/1.1/DTD/svg11.dtd">
<svg xmlns:xlink="http://www.w3.org/1999/xlink" width="424.405625pt" height="279.99625pt" viewBox="0 0 424.405625 279.99625" xmlns="http://www.w3.org/2000/svg" version="1.1">
 <metadata>
  <rdf:RDF xmlns:dc="http://purl.org/dc/elements/1.1/" xmlns:cc="http://creativecommons.org/ns#" xmlns:rdf="http://www.w3.org/1999/02/22-rdf-syntax-ns#">
   <cc:Work>
    <dc:type rdf:resource="http://purl.org/dc/dcmitype/StillImage"/>
    <dc:date>2024-02-19T11:02:12.901302</dc:date>
    <dc:format>image/svg+xml</dc:format>
    <dc:creator>
     <cc:Agent>
      <dc:title>Matplotlib v3.8.2, https://matplotlib.org/</dc:title>
     </cc:Agent>
    </dc:creator>
   </cc:Work>
  </rdf:RDF>
 </metadata>
 <defs>
  <style type="text/css">*{stroke-linejoin: round; stroke-linecap: butt}</style>
 </defs>
 <g id="figure_1">
  <g id="patch_1">
   <path d="M -0 279.99625 
L 424.405625 279.99625 
L 424.405625 0 
L -0 0 
z
" style="fill: #ffffff"/>
  </g>
  <g id="axes_1">
   <g id="patch_2">
    <path d="M 46.965625 242.44 
L 417.205625 242.44 
L 417.205625 7.2 
L 46.965625 7.2 
z
" style="fill: #ffffff"/>
   </g>
   <g id="matplotlib.axis_1">
    <g id="xtick_1">
     <g id="line2d_1">
      <defs>
       <path id="m207af7d8df" d="M 0 0 
L 0 3.5 
" style="stroke: #000000; stroke-width: 0.8"/>
      </defs>
      <g>
       <use xlink:href="#m207af7d8df" x="63.794716" y="242.44" style="stroke: #000000; stroke-width: 0.8"/>
      </g>
     </g>
     <g id="text_1">
      <!-- 0.00 -->
      <g transform="translate(52.661903 257.038437) scale(0.1 -0.1)">
       <defs>
        <path id="DejaVuSans-30" d="M 2034 4250 
Q 1547 4250 1301 3770 
Q 1056 3291 1056 2328 
Q 1056 1369 1301 889 
Q 1547 409 2034 409 
Q 2525 409 2770 889 
Q 3016 1369 3016 2328 
Q 3016 3291 2770 3770 
Q 2525 4250 2034 4250 
z
M 2034 4750 
Q 2819 4750 3233 4129 
Q 3647 3509 3647 2328 
Q 3647 1150 3233 529 
Q 2819 -91 2034 -91 
Q 1250 -91 836 529 
Q 422 1150 422 2328 
Q 422 3509 836 4129 
Q 1250 4750 2034 4750 
z
" transform="scale(0.015625)"/>
        <path id="DejaVuSans-2e" d="M 684 794 
L 1344 794 
L 1344 0 
L 684 0 
L 684 794 
z
" transform="scale(0.015625)"/>
       </defs>
       <use xlink:href="#DejaVuSans-30"/>
       <use xlink:href="#DejaVuSans-2e" x="63.623047"/>
       <use xlink:href="#DejaVuSans-30" x="95.410156"/>
       <use xlink:href="#DejaVuSans-30" x="159.033203"/>
      </g>
     </g>
    </g>
    <g id="xtick_2">
     <g id="line2d_2">
      <g>
       <use xlink:href="#m207af7d8df" x="105.867443" y="242.44" style="stroke: #000000; stroke-width: 0.8"/>
      </g>
     </g>
     <g id="text_2">
      <!-- 0.25 -->
      <g transform="translate(94.734631 257.038437) scale(0.1 -0.1)">
       <defs>
        <path id="DejaVuSans-32" d="M 1228 531 
L 3431 531 
L 3431 0 
L 469 0 
L 469 531 
Q 828 903 1448 1529 
Q 2069 2156 2228 2338 
Q 2531 2678 2651 2914 
Q 2772 3150 2772 3378 
Q 2772 3750 2511 3984 
Q 2250 4219 1831 4219 
Q 1534 4219 1204 4116 
Q 875 4013 500 3803 
L 500 4441 
Q 881 4594 1212 4672 
Q 1544 4750 1819 4750 
Q 2544 4750 2975 4387 
Q 3406 4025 3406 3419 
Q 3406 3131 3298 2873 
Q 3191 2616 2906 2266 
Q 2828 2175 2409 1742 
Q 1991 1309 1228 531 
z
" transform="scale(0.015625)"/>
        <path id="DejaVuSans-35" d="M 691 4666 
L 3169 4666 
L 3169 4134 
L 1269 4134 
L 1269 2991 
Q 1406 3038 1543 3061 
Q 1681 3084 1819 3084 
Q 2600 3084 3056 2656 
Q 3513 2228 3513 1497 
Q 3513 744 3044 326 
Q 2575 -91 1722 -91 
Q 1428 -91 1123 -41 
Q 819 9 494 109 
L 494 744 
Q 775 591 1075 516 
Q 1375 441 1709 441 
Q 2250 441 2565 725 
Q 2881 1009 2881 1497 
Q 2881 1984 2565 2268 
Q 2250 2553 1709 2553 
Q 1456 2553 1204 2497 
Q 953 2441 691 2322 
L 691 4666 
z
" transform="scale(0.015625)"/>
       </defs>
       <use xlink:href="#DejaVuSans-30"/>
       <use xlink:href="#DejaVuSans-2e" x="63.623047"/>
       <use xlink:href="#DejaVuSans-32" x="95.410156"/>
       <use xlink:href="#DejaVuSans-35" x="159.033203"/>
      </g>
     </g>
    </g>
    <g id="xtick_3">
     <g id="line2d_3">
      <g>
       <use xlink:href="#m207af7d8df" x="147.94017" y="242.44" style="stroke: #000000; stroke-width: 0.8"/>
      </g>
     </g>
     <g id="text_3">
      <!-- 0.50 -->
      <g transform="translate(136.807358 257.038437) scale(0.1 -0.1)">
       <use xlink:href="#DejaVuSans-30"/>
       <use xlink:href="#DejaVuSans-2e" x="63.623047"/>
       <use xlink:href="#DejaVuSans-35" x="95.410156"/>
       <use xlink:href="#DejaVuSans-30" x="159.033203"/>
      </g>
     </g>
    </g>
    <g id="xtick_4">
     <g id="line2d_4">
      <g>
       <use xlink:href="#m207af7d8df" x="190.012898" y="242.44" style="stroke: #000000; stroke-width: 0.8"/>
      </g>
     </g>
     <g id="text_4">
      <!-- 0.75 -->
      <g transform="translate(178.880085 257.038437) scale(0.1 -0.1)">
       <defs>
        <path id="DejaVuSans-37" d="M 525 4666 
L 3525 4666 
L 3525 4397 
L 1831 0 
L 1172 0 
L 2766 4134 
L 525 4134 
L 525 4666 
z
" transform="scale(0.015625)"/>
       </defs>
       <use xlink:href="#DejaVuSans-30"/>
       <use xlink:href="#DejaVuSans-2e" x="63.623047"/>
       <use xlink:href="#DejaVuSans-37" x="95.410156"/>
       <use xlink:href="#DejaVuSans-35" x="159.033203"/>
      </g>
     </g>
    </g>
    <g id="xtick_5">
     <g id="line2d_5">
      <g>
       <use xlink:href="#m207af7d8df" x="232.085625" y="242.44" style="stroke: #000000; stroke-width: 0.8"/>
      </g>
     </g>
     <g id="text_5">
      <!-- 1.00 -->
      <g transform="translate(220.952812 257.038437) scale(0.1 -0.1)">
       <defs>
        <path id="DejaVuSans-31" d="M 794 531 
L 1825 531 
L 1825 4091 
L 703 3866 
L 703 4441 
L 1819 4666 
L 2450 4666 
L 2450 531 
L 3481 531 
L 3481 0 
L 794 0 
L 794 531 
z
" transform="scale(0.015625)"/>
       </defs>
       <use xlink:href="#DejaVuSans-31"/>
       <use xlink:href="#DejaVuSans-2e" x="63.623047"/>
       <use xlink:href="#DejaVuSans-30" x="95.410156"/>
       <use xlink:href="#DejaVuSans-30" x="159.033203"/>
      </g>
     </g>
    </g>
    <g id="xtick_6">
     <g id="line2d_6">
      <g>
       <use xlink:href="#m207af7d8df" x="274.158352" y="242.44" style="stroke: #000000; stroke-width: 0.8"/>
      </g>
     </g>
     <g id="text_6">
      <!-- 1.25 -->
      <g transform="translate(263.02554 257.038437) scale(0.1 -0.1)">
       <use xlink:href="#DejaVuSans-31"/>
       <use xlink:href="#DejaVuSans-2e" x="63.623047"/>
       <use xlink:href="#DejaVuSans-32" x="95.410156"/>
       <use xlink:href="#DejaVuSans-35" x="159.033203"/>
      </g>
     </g>
    </g>
    <g id="xtick_7">
     <g id="line2d_7">
      <g>
       <use xlink:href="#m207af7d8df" x="316.23108" y="242.44" style="stroke: #000000; stroke-width: 0.8"/>
      </g>
     </g>
     <g id="text_7">
      <!-- 1.50 -->
      <g transform="translate(305.098267 257.038437) scale(0.1 -0.1)">
       <use xlink:href="#DejaVuSans-31"/>
       <use xlink:href="#DejaVuSans-2e" x="63.623047"/>
       <use xlink:href="#DejaVuSans-35" x="95.410156"/>
       <use xlink:href="#DejaVuSans-30" x="159.033203"/>
      </g>
     </g>
    </g>
    <g id="xtick_8">
     <g id="line2d_8">
      <g>
       <use xlink:href="#m207af7d8df" x="358.303807" y="242.44" style="stroke: #000000; stroke-width: 0.8"/>
      </g>
     </g>
     <g id="text_8">
      <!-- 1.75 -->
      <g transform="translate(347.170994 257.038437) scale(0.1 -0.1)">
       <use xlink:href="#DejaVuSans-31"/>
       <use xlink:href="#DejaVuSans-2e" x="63.623047"/>
       <use xlink:href="#DejaVuSans-37" x="95.410156"/>
       <use xlink:href="#DejaVuSans-35" x="159.033203"/>
      </g>
     </g>
    </g>
    <g id="xtick_9">
     <g id="line2d_9">
      <g>
       <use xlink:href="#m207af7d8df" x="400.376534" y="242.44" style="stroke: #000000; stroke-width: 0.8"/>
      </g>
     </g>
     <g id="text_9">
      <!-- 2.00 -->
      <g transform="translate(389.243722 257.038437) scale(0.1 -0.1)">
       <use xlink:href="#DejaVuSans-32"/>
       <use xlink:href="#DejaVuSans-2e" x="63.623047"/>
       <use xlink:href="#DejaVuSans-30" x="95.410156"/>
       <use xlink:href="#DejaVuSans-30" x="159.033203"/>
      </g>
     </g>
    </g>
    <g id="text_10">
     <!-- x [m] -->
     <g transform="translate(218.765312 270.716562) scale(0.1 -0.1)">
      <defs>
       <path id="DejaVuSans-78" d="M 3513 3500 
L 2247 1797 
L 3578 0 
L 2900 0 
L 1881 1375 
L 863 0 
L 184 0 
L 1544 1831 
L 300 3500 
L 978 3500 
L 1906 2253 
L 2834 3500 
L 3513 3500 
z
" transform="scale(0.015625)"/>
       <path id="DejaVuSans-20" transform="scale(0.015625)"/>
       <path id="DejaVuSans-5b" d="M 550 4863 
L 1875 4863 
L 1875 4416 
L 1125 4416 
L 1125 -397 
L 1875 -397 
L 1875 -844 
L 550 -844 
L 550 4863 
z
" transform="scale(0.015625)"/>
       <path id="DejaVuSans-6d" d="M 3328 2828 
Q 3544 3216 3844 3400 
Q 4144 3584 4550 3584 
Q 5097 3584 5394 3201 
Q 5691 2819 5691 2113 
L 5691 0 
L 5113 0 
L 5113 2094 
Q 5113 2597 4934 2840 
Q 4756 3084 4391 3084 
Q 3944 3084 3684 2787 
Q 3425 2491 3425 1978 
L 3425 0 
L 2847 0 
L 2847 2094 
Q 2847 2600 2669 2842 
Q 2491 3084 2119 3084 
Q 1678 3084 1418 2786 
Q 1159 2488 1159 1978 
L 1159 0 
L 581 0 
L 581 3500 
L 1159 3500 
L 1159 2956 
Q 1356 3278 1631 3431 
Q 1906 3584 2284 3584 
Q 2666 3584 2933 3390 
Q 3200 3197 3328 2828 
z
" transform="scale(0.015625)"/>
       <path id="DejaVuSans-5d" d="M 1947 4863 
L 1947 -844 
L 622 -844 
L 622 -397 
L 1369 -397 
L 1369 4416 
L 622 4416 
L 622 4863 
L 1947 4863 
z
" transform="scale(0.015625)"/>
      </defs>
      <use xlink:href="#DejaVuSans-78"/>
      <use xlink:href="#DejaVuSans-20" x="59.179688"/>
      <use xlink:href="#DejaVuSans-5b" x="90.966797"/>
      <use xlink:href="#DejaVuSans-6d" x="129.980469"/>
      <use xlink:href="#DejaVuSans-5d" x="227.392578"/>
     </g>
    </g>
   </g>
   <g id="matplotlib.axis_2">
    <g id="ytick_1">
     <g id="line2d_10">
      <defs>
       <path id="mc7190b2fe2" d="M 0 0 
L -3.5 0 
" style="stroke: #000000; stroke-width: 0.8"/>
      </defs>
      <g>
       <use xlink:href="#mc7190b2fe2" x="46.965625" y="218.63964" style="stroke: #000000; stroke-width: 0.8"/>
      </g>
     </g>
     <g id="text_11">
      <!-- 99 -->
      <g transform="translate(27.240625 222.438859) scale(0.1 -0.1)">
       <defs>
        <path id="DejaVuSans-39" d="M 703 97 
L 703 672 
Q 941 559 1184 500 
Q 1428 441 1663 441 
Q 2288 441 2617 861 
Q 2947 1281 2994 2138 
Q 2813 1869 2534 1725 
Q 2256 1581 1919 1581 
Q 1219 1581 811 2004 
Q 403 2428 403 3163 
Q 403 3881 828 4315 
Q 1253 4750 1959 4750 
Q 2769 4750 3195 4129 
Q 3622 3509 3622 2328 
Q 3622 1225 3098 567 
Q 2575 -91 1691 -91 
Q 1453 -91 1209 -44 
Q 966 3 703 97 
z
M 1959 2075 
Q 2384 2075 2632 2365 
Q 2881 2656 2881 3163 
Q 2881 3666 2632 3958 
Q 2384 4250 1959 4250 
Q 1534 4250 1286 3958 
Q 1038 3666 1038 3163 
Q 1038 2656 1286 2365 
Q 1534 2075 1959 2075 
z
" transform="scale(0.015625)"/>
       </defs>
       <use xlink:href="#DejaVuSans-39"/>
       <use xlink:href="#DejaVuSans-39" x="63.623047"/>
      </g>
     </g>
    </g>
    <g id="ytick_2">
     <g id="line2d_11">
      <g>
       <use xlink:href="#mc7190b2fe2" x="46.965625" y="176.002531" style="stroke: #000000; stroke-width: 0.8"/>
      </g>
     </g>
     <g id="text_12">
      <!-- 100 -->
      <g transform="translate(20.878125 179.80175) scale(0.1 -0.1)">
       <use xlink:href="#DejaVuSans-31"/>
       <use xlink:href="#DejaVuSans-30" x="63.623047"/>
       <use xlink:href="#DejaVuSans-30" x="127.246094"/>
      </g>
     </g>
    </g>
    <g id="ytick_3">
     <g id="line2d_12">
      <g>
       <use xlink:href="#mc7190b2fe2" x="46.965625" y="133.365423" style="stroke: #000000; stroke-width: 0.8"/>
      </g>
     </g>
     <g id="text_13">
      <!-- 101 -->
      <g transform="translate(20.878125 137.164641) scale(0.1 -0.1)">
       <use xlink:href="#DejaVuSans-31"/>
       <use xlink:href="#DejaVuSans-30" x="63.623047"/>
       <use xlink:href="#DejaVuSans-31" x="127.246094"/>
      </g>
     </g>
    </g>
    <g id="ytick_4">
     <g id="line2d_13">
      <g>
       <use xlink:href="#mc7190b2fe2" x="46.965625" y="90.728314" style="stroke: #000000; stroke-width: 0.8"/>
      </g>
     </g>
     <g id="text_14">
      <!-- 102 -->
      <g transform="translate(20.878125 94.527532) scale(0.1 -0.1)">
       <use xlink:href="#DejaVuSans-31"/>
       <use xlink:href="#DejaVuSans-30" x="63.623047"/>
       <use xlink:href="#DejaVuSans-32" x="127.246094"/>
      </g>
     </g>
    </g>
    <g id="ytick_5">
     <g id="line2d_14">
      <g>
       <use xlink:href="#mc7190b2fe2" x="46.965625" y="48.091205" style="stroke: #000000; stroke-width: 0.8"/>
      </g>
     </g>
     <g id="text_15">
      <!-- 103 -->
      <g transform="translate(20.878125 51.890424) scale(0.1 -0.1)">
       <defs>
        <path id="DejaVuSans-33" d="M 2597 2516 
Q 3050 2419 3304 2112 
Q 3559 1806 3559 1356 
Q 3559 666 3084 287 
Q 2609 -91 1734 -91 
Q 1441 -91 1130 -33 
Q 819 25 488 141 
L 488 750 
Q 750 597 1062 519 
Q 1375 441 1716 441 
Q 2309 441 2620 675 
Q 2931 909 2931 1356 
Q 2931 1769 2642 2001 
Q 2353 2234 1838 2234 
L 1294 2234 
L 1294 2753 
L 1863 2753 
Q 2328 2753 2575 2939 
Q 2822 3125 2822 3475 
Q 2822 3834 2567 4026 
Q 2313 4219 1838 4219 
Q 1578 4219 1281 4162 
Q 984 4106 628 3988 
L 628 4550 
Q 988 4650 1302 4700 
Q 1616 4750 1894 4750 
Q 2613 4750 3031 4423 
Q 3450 4097 3450 3541 
Q 3450 3153 3228 2886 
Q 3006 2619 2597 2516 
z
" transform="scale(0.015625)"/>
       </defs>
       <use xlink:href="#DejaVuSans-31"/>
       <use xlink:href="#DejaVuSans-30" x="63.623047"/>
       <use xlink:href="#DejaVuSans-33" x="127.246094"/>
      </g>
     </g>
    </g>
    <g id="text_16">
     <!-- [K] -->
     <g transform="translate(14.798438 132.000469) rotate(-90) scale(0.1 -0.1)">
      <defs>
       <path id="DejaVuSans-4b" d="M 628 4666 
L 1259 4666 
L 1259 2694 
L 3353 4666 
L 4166 4666 
L 1850 2491 
L 4331 0 
L 3500 0 
L 1259 2247 
L 1259 0 
L 628 0 
L 628 4666 
z
" transform="scale(0.015625)"/>
      </defs>
      <use xlink:href="#DejaVuSans-5b"/>
      <use xlink:href="#DejaVuSans-4b" x="39.013672"/>
      <use xlink:href="#DejaVuSans-5d" x="104.589844"/>
     </g>
    </g>
   </g>
   <g id="patch_3">
    <path d="M 46.965625 242.44 
L 46.965625 7.2 
" style="fill: none; stroke: #000000; stroke-width: 0.8; stroke-linejoin: miter; stroke-linecap: square"/>
   </g>
   <g id="patch_4">
    <path d="M 417.205625 242.44 
L 417.205625 7.2 
" style="fill: none; stroke: #000000; stroke-width: 0.8; stroke-linejoin: miter; stroke-linecap: square"/>
   </g>
   <g id="patch_5">
    <path d="M 46.965625 242.44 
L 417.205625 242.44 
" style="fill: none; stroke: #000000; stroke-width: 0.8; stroke-linejoin: miter; stroke-linecap: square"/>
   </g>
   <g id="patch_6">
    <path d="M 46.965625 7.2 
L 417.205625 7.2 
" style="fill: none; stroke: #000000; stroke-width: 0.8; stroke-linejoin: miter; stroke-linecap: square"/>
   </g>
   <g id="line2d_15">
    <defs>
     <path id="m21408b7136" d="M 0 3 
C 0.795609 3 1.55874 2.683901 2.12132 2.12132 
C 2.683901 1.55874 3 0.795609 3 0 
C 3 -0.795609 2.683901 -1.55874 2.12132 -2.12132 
C 1.55874 -2.683901 0.795609 -3 0 -3 
C -0.795609 -3 -1.55874 -2.683901 -2.12132 -2.12132 
C -2.683901 -1.55874 -3 -0.795609 -3 0 
C -3 0.795609 -2.683901 1.55874 -2.12132 2.12132 
C -1.55874 2.683901 -0.795609 3 0 3 
z
" style="stroke: #1f77b4"/>
    </defs>
    <g clip-path="url(#p8f4842a5da)">
     <use xlink:href="#m21408b7136" x="63.794716" y="185.080044" style="fill: #1f77b4; stroke: #1f77b4"/>
     <use xlink:href="#m21408b7136" x="70.663733" y="205.823184" style="fill: #1f77b4; stroke: #1f77b4"/>
     <use xlink:href="#m21408b7136" x="77.532749" y="176.048016" style="fill: #1f77b4; stroke: #1f77b4"/>
     <use xlink:href="#m21408b7136" x="84.401766" y="208.311163" style="fill: #1f77b4; stroke: #1f77b4"/>
     <use xlink:href="#m21408b7136" x="91.270783" y="193.86684" style="fill: #1f77b4; stroke: #1f77b4"/>
     <use xlink:href="#m21408b7136" x="98.139799" y="199.179982" style="fill: #1f77b4; stroke: #1f77b4"/>
     <use xlink:href="#m21408b7136" x="105.008816" y="183.77586" style="fill: #1f77b4; stroke: #1f77b4"/>
     <use xlink:href="#m21408b7136" x="111.877833" y="166.413629" style="fill: #1f77b4; stroke: #1f77b4"/>
     <use xlink:href="#m21408b7136" x="118.746849" y="187.922241" style="fill: #1f77b4; stroke: #1f77b4"/>
     <use xlink:href="#m21408b7136" x="125.615866" y="192.927685" style="fill: #1f77b4; stroke: #1f77b4"/>
     <use xlink:href="#m21408b7136" x="132.484883" y="175.286367" style="fill: #1f77b4; stroke: #1f77b4"/>
     <use xlink:href="#m21408b7136" x="139.3539" y="181.46083" style="fill: #1f77b4; stroke: #1f77b4"/>
     <use xlink:href="#m21408b7136" x="146.222916" y="183.44497" style="fill: #1f77b4; stroke: #1f77b4"/>
     <use xlink:href="#m21408b7136" x="153.091933" y="159.960287" style="fill: #1f77b4; stroke: #1f77b4"/>
     <use xlink:href="#m21408b7136" x="159.96095" y="169.358007" style="fill: #1f77b4; stroke: #1f77b4"/>
     <use xlink:href="#m21408b7136" x="166.829966" y="150.831193" style="fill: #1f77b4; stroke: #1f77b4"/>
     <use xlink:href="#m21408b7136" x="173.698983" y="168.365915" style="fill: #1f77b4; stroke: #1f77b4"/>
     <use xlink:href="#m21408b7136" x="180.568" y="134.093262" style="fill: #1f77b4; stroke: #1f77b4"/>
     <use xlink:href="#m21408b7136" x="187.437016" y="156.084564" style="fill: #1f77b4; stroke: #1f77b4"/>
     <use xlink:href="#m21408b7136" x="194.306033" y="164.543357" style="fill: #1f77b4; stroke: #1f77b4"/>
     <use xlink:href="#m21408b7136" x="201.17505" y="139.607583" style="fill: #1f77b4; stroke: #1f77b4"/>
     <use xlink:href="#m21408b7136" x="208.044067" y="124.289311" style="fill: #1f77b4; stroke: #1f77b4"/>
     <use xlink:href="#m21408b7136" x="214.913083" y="142.433656" style="fill: #1f77b4; stroke: #1f77b4"/>
     <use xlink:href="#m21408b7136" x="221.7821" y="117.898651" style="fill: #1f77b4; stroke: #1f77b4"/>
     <use xlink:href="#m21408b7136" x="228.651117" y="134.675082" style="fill: #1f77b4; stroke: #1f77b4"/>
     <use xlink:href="#m21408b7136" x="235.520133" y="135.24824" style="fill: #1f77b4; stroke: #1f77b4"/>
     <use xlink:href="#m21408b7136" x="242.38915" y="124.324216" style="fill: #1f77b4; stroke: #1f77b4"/>
     <use xlink:href="#m21408b7136" x="249.258167" y="105.729851" style="fill: #1f77b4; stroke: #1f77b4"/>
     <use xlink:href="#m21408b7136" x="256.127183" y="105.087239" style="fill: #1f77b4; stroke: #1f77b4"/>
     <use xlink:href="#m21408b7136" x="262.9962" y="123.322024" style="fill: #1f77b4; stroke: #1f77b4"/>
     <use xlink:href="#m21408b7136" x="269.865217" y="108.019216" style="fill: #1f77b4; stroke: #1f77b4"/>
     <use xlink:href="#m21408b7136" x="276.734234" y="116.507482" style="fill: #1f77b4; stroke: #1f77b4"/>
     <use xlink:href="#m21408b7136" x="283.60325" y="112.537373" style="fill: #1f77b4; stroke: #1f77b4"/>
     <use xlink:href="#m21408b7136" x="290.472267" y="98.991647" style="fill: #1f77b4; stroke: #1f77b4"/>
     <use xlink:href="#m21408b7136" x="297.341284" y="112.205116" style="fill: #1f77b4; stroke: #1f77b4"/>
     <use xlink:href="#m21408b7136" x="304.2103" y="95.958151" style="fill: #1f77b4; stroke: #1f77b4"/>
     <use xlink:href="#m21408b7136" x="311.079317" y="94.342895" style="fill: #1f77b4; stroke: #1f77b4"/>
     <use xlink:href="#m21408b7136" x="317.948334" y="82.313206" style="fill: #1f77b4; stroke: #1f77b4"/>
     <use xlink:href="#m21408b7136" x="324.81735" y="114.542706" style="fill: #1f77b4; stroke: #1f77b4"/>
     <use xlink:href="#m21408b7136" x="331.686367" y="85.749569" style="fill: #1f77b4; stroke: #1f77b4"/>
     <use xlink:href="#m21408b7136" x="338.555384" y="74.679556" style="fill: #1f77b4; stroke: #1f77b4"/>
     <use xlink:href="#m21408b7136" x="345.424401" y="70.342221" style="fill: #1f77b4; stroke: #1f77b4"/>
     <use xlink:href="#m21408b7136" x="352.293417" y="108.374326" style="fill: #1f77b4; stroke: #1f77b4"/>
     <use xlink:href="#m21408b7136" x="359.162434" y="69.567809" style="fill: #1f77b4; stroke: #1f77b4"/>
     <use xlink:href="#m21408b7136" x="366.031451" y="61.94517" style="fill: #1f77b4; stroke: #1f77b4"/>
     <use xlink:href="#m21408b7136" x="372.900467" y="60.35738" style="fill: #1f77b4; stroke: #1f77b4"/>
     <use xlink:href="#m21408b7136" x="379.769484" y="92.216752" style="fill: #1f77b4; stroke: #1f77b4"/>
     <use xlink:href="#m21408b7136" x="386.638501" y="54.479104" style="fill: #1f77b4; stroke: #1f77b4"/>
     <use xlink:href="#m21408b7136" x="393.507517" y="55.39447" style="fill: #1f77b4; stroke: #1f77b4"/>
     <use xlink:href="#m21408b7136" x="400.376534" y="55.664671" style="fill: #1f77b4; stroke: #1f77b4"/>
    </g>
   </g>
   <g id="LineCollection_1">
    <path d="M 63.794716 219.284179 
L 63.794716 150.875909 
" clip-path="url(#p8f4842a5da)" style="fill: none; stroke: #1f77b4; stroke-width: 1.5"/>
    <path d="M 70.663733 231.747273 
L 70.663733 179.899095 
" clip-path="url(#p8f4842a5da)" style="fill: none; stroke: #1f77b4; stroke-width: 1.5"/>
    <path d="M 77.532749 211.419915 
L 77.532749 140.676118 
" clip-path="url(#p8f4842a5da)" style="fill: none; stroke: #1f77b4; stroke-width: 1.5"/>
    <path d="M 84.401766 230.843736 
L 84.401766 185.77859 
" clip-path="url(#p8f4842a5da)" style="fill: none; stroke: #1f77b4; stroke-width: 1.5"/>
    <path d="M 91.270783 221.434905 
L 91.270783 166.298774 
" clip-path="url(#p8f4842a5da)" style="fill: none; stroke: #1f77b4; stroke-width: 1.5"/>
    <path d="M 98.139799 223.492099 
L 98.139799 174.867865 
" clip-path="url(#p8f4842a5da)" style="fill: none; stroke: #1f77b4; stroke-width: 1.5"/>
    <path d="M 105.008816 213.166708 
L 105.008816 154.385013 
" clip-path="url(#p8f4842a5da)" style="fill: none; stroke: #1f77b4; stroke-width: 1.5"/>
    <path d="M 111.877833 200.740133 
L 111.877833 132.087125 
" clip-path="url(#p8f4842a5da)" style="fill: none; stroke: #1f77b4; stroke-width: 1.5"/>
    <path d="M 118.746849 213.692877 
L 118.746849 162.151606 
" clip-path="url(#p8f4842a5da)" style="fill: none; stroke: #1f77b4; stroke-width: 1.5"/>
    <path d="M 125.615866 215.327822 
L 125.615866 170.527549 
" clip-path="url(#p8f4842a5da)" style="fill: none; stroke: #1f77b4; stroke-width: 1.5"/>
    <path d="M 132.484883 203.960446 
L 132.484883 146.612288 
" clip-path="url(#p8f4842a5da)" style="fill: none; stroke: #1f77b4; stroke-width: 1.5"/>
    <path d="M 139.3539 206.658479 
L 139.3539 156.263182 
" clip-path="url(#p8f4842a5da)" style="fill: none; stroke: #1f77b4; stroke-width: 1.5"/>
    <path d="M 146.222916 206.617622 
L 146.222916 160.272318 
" clip-path="url(#p8f4842a5da)" style="fill: none; stroke: #1f77b4; stroke-width: 1.5"/>
    <path d="M 153.091933 191.296856 
L 153.091933 128.623718 
" clip-path="url(#p8f4842a5da)" style="fill: none; stroke: #1f77b4; stroke-width: 1.5"/>
    <path d="M 159.96095 196.302099 
L 159.96095 142.413916 
" clip-path="url(#p8f4842a5da)" style="fill: none; stroke: #1f77b4; stroke-width: 1.5"/>
    <path d="M 166.829966 183.4701 
L 166.829966 118.192286 
" clip-path="url(#p8f4842a5da)" style="fill: none; stroke: #1f77b4; stroke-width: 1.5"/>
    <path d="M 173.698983 193.581637 
L 173.698983 143.150193 
" clip-path="url(#p8f4842a5da)" style="fill: none; stroke: #1f77b4; stroke-width: 1.5"/>
    <path d="M 180.568 170.298584 
L 180.568 97.88794 
" clip-path="url(#p8f4842a5da)" style="fill: none; stroke: #1f77b4; stroke-width: 1.5"/>
    <path d="M 187.437016 184.12653 
L 187.437016 128.042598 
" clip-path="url(#p8f4842a5da)" style="fill: none; stroke: #1f77b4; stroke-width: 1.5"/>
    <path d="M 194.306033 188.003364 
L 194.306033 141.08335 
" clip-path="url(#p8f4842a5da)" style="fill: none; stroke: #1f77b4; stroke-width: 1.5"/>
    <path d="M 201.17505 171.643748 
L 201.17505 107.571418 
" clip-path="url(#p8f4842a5da)" style="fill: none; stroke: #1f77b4; stroke-width: 1.5"/>
    <path d="M 208.044067 160.30637 
L 208.044067 88.272251 
" clip-path="url(#p8f4842a5da)" style="fill: none; stroke: #1f77b4; stroke-width: 1.5"/>
    <path d="M 214.913083 171.670049 
L 214.913083 113.197264 
" clip-path="url(#p8f4842a5da)" style="fill: none; stroke: #1f77b4; stroke-width: 1.5"/>
    <path d="M 221.7821 154.260263 
L 221.7821 81.53704 
" clip-path="url(#p8f4842a5da)" style="fill: none; stroke: #1f77b4; stroke-width: 1.5"/>
    <path d="M 228.651117 164.822501 
L 228.651117 104.527664 
" clip-path="url(#p8f4842a5da)" style="fill: none; stroke: #1f77b4; stroke-width: 1.5"/>
    <path d="M 235.520133 164.248192 
L 235.520133 106.248288 
" clip-path="url(#p8f4842a5da)" style="fill: none; stroke: #1f77b4; stroke-width: 1.5"/>
    <path d="M 242.38915 156.233947 
L 242.38915 92.414485 
" clip-path="url(#p8f4842a5da)" style="fill: none; stroke: #1f77b4; stroke-width: 1.5"/>
    <path d="M 249.258167 142.594267 
L 249.258167 68.865434 
" clip-path="url(#p8f4842a5da)" style="fill: none; stroke: #1f77b4; stroke-width: 1.5"/>
    <path d="M 256.127183 141.378203 
L 256.127183 68.796275 
" clip-path="url(#p8f4842a5da)" style="fill: none; stroke: #1f77b4; stroke-width: 1.5"/>
    <path d="M 262.9962 152.862574 
L 262.9962 93.781474 
" clip-path="url(#p8f4842a5da)" style="fill: none; stroke: #1f77b4; stroke-width: 1.5"/>
    <path d="M 269.865217 141.830858 
L 269.865217 74.207574 
" clip-path="url(#p8f4842a5da)" style="fill: none; stroke: #1f77b4; stroke-width: 1.5"/>
    <path d="M 276.734234 146.617595 
L 276.734234 86.39737 
" clip-path="url(#p8f4842a5da)" style="fill: none; stroke: #1f77b4; stroke-width: 1.5"/>
    <path d="M 283.60325 143.125036 
L 283.60325 81.949709 
" clip-path="url(#p8f4842a5da)" style="fill: none; stroke: #1f77b4; stroke-width: 1.5"/>
    <path d="M 290.472267 133.178336 
L 290.472267 64.804958 
" clip-path="url(#p8f4842a5da)" style="fill: none; stroke: #1f77b4; stroke-width: 1.5"/>
    <path d="M 297.341284 141.038898 
L 297.341284 83.371334 
" clip-path="url(#p8f4842a5da)" style="fill: none; stroke: #1f77b4; stroke-width: 1.5"/>
    <path d="M 304.2103 129.455883 
L 304.2103 62.460419 
" clip-path="url(#p8f4842a5da)" style="fill: none; stroke: #1f77b4; stroke-width: 1.5"/>
    <path d="M 311.079317 127.522442 
L 311.079317 61.163349 
" clip-path="url(#p8f4842a5da)" style="fill: none; stroke: #1f77b4; stroke-width: 1.5"/>
    <path d="M 317.948334 118.392108 
L 317.948334 46.234304 
" clip-path="url(#p8f4842a5da)" style="fill: none; stroke: #1f77b4; stroke-width: 1.5"/>
    <path d="M 324.81735 138.184832 
L 324.81735 90.90058 
" clip-path="url(#p8f4842a5da)" style="fill: none; stroke: #1f77b4; stroke-width: 1.5"/>
    <path d="M 331.686367 119.173026 
L 331.686367 52.326113 
" clip-path="url(#p8f4842a5da)" style="fill: none; stroke: #1f77b4; stroke-width: 1.5"/>
    <path d="M 338.555384 110.700014 
L 338.555384 38.659097 
" clip-path="url(#p8f4842a5da)" style="fill: none; stroke: #1f77b4; stroke-width: 1.5"/>
    <path d="M 345.424401 106.870134 
L 345.424401 33.814308 
" clip-path="url(#p8f4842a5da)" style="fill: none; stroke: #1f77b4; stroke-width: 1.5"/>
    <path d="M 352.293417 130.004126 
L 352.293417 86.744527 
" clip-path="url(#p8f4842a5da)" style="fill: none; stroke: #1f77b4; stroke-width: 1.5"/>
    <path d="M 359.162434 104.774291 
L 359.162434 34.361327 
" clip-path="url(#p8f4842a5da)" style="fill: none; stroke: #1f77b4; stroke-width: 1.5"/>
    <path d="M 366.031451 98.637803 
L 366.031451 25.252537 
" clip-path="url(#p8f4842a5da)" style="fill: none; stroke: #1f77b4; stroke-width: 1.5"/>
    <path d="M 372.900467 96.75172 
L 372.900467 23.96304 
" clip-path="url(#p8f4842a5da)" style="fill: none; stroke: #1f77b4; stroke-width: 1.5"/>
    <path d="M 379.769484 116.500523 
L 379.769484 67.932981 
" clip-path="url(#p8f4842a5da)" style="fill: none; stroke: #1f77b4; stroke-width: 1.5"/>
    <path d="M 386.638501 91.06548 
L 386.638501 17.892727 
" clip-path="url(#p8f4842a5da)" style="fill: none; stroke: #1f77b4; stroke-width: 1.5"/>
    <path d="M 393.507517 90.938779 
L 393.507517 19.85016 
" clip-path="url(#p8f4842a5da)" style="fill: none; stroke: #1f77b4; stroke-width: 1.5"/>
    <path d="M 400.376534 90.334354 
L 400.376534 20.994988 
" clip-path="url(#p8f4842a5da)" style="fill: none; stroke: #1f77b4; stroke-width: 1.5"/>
   </g>
  </g>
 </g>
 <defs>
  <clipPath id="p8f4842a5da">
   <rect x="46.965625" y="7.2" width="370.24" height="235.24"/>
  </clipPath>
 </defs>
</svg>
