<?xml version="1.0" encoding="utf-8" standalone="no"?>
<!DOCTYPE svg PUBLIC "-//W3C//DTD SVG 1.1//EN"
  "http://www.w3.org/Graphics/SVG/1.1/DTD/svg11.dtd">
<svg xmlns:xlink="http://www.w3.org/1999/xlink" width="390.982812pt" height="266.51625pt" viewBox="0 0 390.982812 266.51625" xmlns="http://www.w3.org/2000/svg" version="1.1">
 <metadata>
  <rdf:RDF xmlns:dc="http://purl.org/dc/elements/1.1/" xmlns:cc="http://creativecommons.org/ns#" xmlns:rdf="http://www.w3.org/1999/02/22-rdf-syntax-ns#">
   <cc:Work>
    <dc:type rdf:resource="http://purl.org/dc/dcmitype/StillImage"/>
    <dc:date>2025-02-21T21:43:41.452862</dc:date>
    <dc:format>image/svg+xml</dc:format>
    <dc:creator>
     <cc:Agent>
      <dc:title>Matplotlib v3.10.0, https://matplotlib.org/</dc:title>
     </cc:Agent>
    </dc:creator>
   </cc:Work>
  </rdf:RDF>
 </metadata>
 <defs>
  <style type="text/css">*{stroke-linejoin: round; stroke-linecap: butt}</style>
 </defs>
 <g id="figure_1">
  <g id="patch_1">
   <path d="M 0 266.51625 
L 390.982812 266.51625 
L 390.982812 0 
L 0 0 
z
" style="fill: #ffffff"/>
  </g>
  <g id="axes_1">
   <g id="patch_2">
    <path d="M 48.982813 228.96 
L 383.782813 228.96 
L 383.782813 7.2 
L 48.982813 7.2 
z
" style="fill: #ffffff"/>
   </g>
   <g id="matplotlib.axis_1">
    <g id="xtick_1">
     <g id="line2d_1">
      <defs>
       <path id="m8ac87e0871" d="M 0 0 
L 0 3.5 
" style="stroke: #000000; stroke-width: 0.8"/>
      </defs>
      <g>
       <use xlink:href="#m8ac87e0871" x="64.200994" y="228.96" style="stroke: #000000; stroke-width: 0.8"/>
      </g>
     </g>
     <g id="text_1">
      <!-- 2000-01 -->
      <g transform="translate(43.309588 243.558437) scale(0.1 -0.1)">
       <defs>
        <path id="DejaVuSans-32" d="M 1228 531 
L 3431 531 
L 3431 0 
L 469 0 
L 469 531 
Q 828 903 1448 1529 
Q 2069 2156 2228 2338 
Q 2531 2678 2651 2914 
Q 2772 3150 2772 3378 
Q 2772 3750 2511 3984 
Q 2250 4219 1831 4219 
Q 1534 4219 1204 4116 
Q 875 4013 500 3803 
L 500 4441 
Q 881 4594 1212 4672 
Q 1544 4750 1819 4750 
Q 2544 4750 2975 4387 
Q 3406 4025 3406 3419 
Q 3406 3131 3298 2873 
Q 3191 2616 2906 2266 
Q 2828 2175 2409 1742 
Q 1991 1309 1228 531 
z
" transform="scale(0.015625)"/>
        <path id="DejaVuSans-30" d="M 2034 4250 
Q 1547 4250 1301 3770 
Q 1056 3291 1056 2328 
Q 1056 1369 1301 889 
Q 1547 409 2034 409 
Q 2525 409 2770 889 
Q 3016 1369 3016 2328 
Q 3016 3291 2770 3770 
Q 2525 4250 2034 4250 
z
M 2034 4750 
Q 2819 4750 3233 4129 
Q 3647 3509 3647 2328 
Q 3647 1150 3233 529 
Q 2819 -91 2034 -91 
Q 1250 -91 836 529 
Q 422 1150 422 2328 
Q 422 3509 836 4129 
Q 1250 4750 2034 4750 
z
" transform="scale(0.015625)"/>
        <path id="DejaVuSans-2d" d="M 313 2009 
L 1997 2009 
L 1997 1497 
L 313 1497 
L 313 2009 
z
" transform="scale(0.015625)"/>
        <path id="DejaVuSans-31" d="M 794 531 
L 1825 531 
L 1825 4091 
L 703 3866 
L 703 4441 
L 1819 4666 
L 2450 4666 
L 2450 531 
L 3481 531 
L 3481 0 
L 794 0 
L 794 531 
z
" transform="scale(0.015625)"/>
       </defs>
       <use xlink:href="#DejaVuSans-32"/>
       <use xlink:href="#DejaVuSans-30" transform="translate(63.623047 0)"/>
       <use xlink:href="#DejaVuSans-30" transform="translate(127.246094 0)"/>
       <use xlink:href="#DejaVuSans-30" transform="translate(190.869141 0)"/>
       <use xlink:href="#DejaVuSans-2d" transform="translate(254.492188 0)"/>
       <use xlink:href="#DejaVuSans-30" transform="translate(290.576172 0)"/>
       <use xlink:href="#DejaVuSans-31" transform="translate(354.199219 0)"/>
      </g>
     </g>
    </g>
    <g id="xtick_2">
     <g id="line2d_2">
      <g>
       <use xlink:href="#m8ac87e0871" x="111.614425" y="228.96" style="stroke: #000000; stroke-width: 0.8"/>
      </g>
     </g>
     <g id="text_2">
      <!-- 2000-02 -->
      <g transform="translate(90.723019 243.558437) scale(0.1 -0.1)">
       <use xlink:href="#DejaVuSans-32"/>
       <use xlink:href="#DejaVuSans-30" transform="translate(63.623047 0)"/>
       <use xlink:href="#DejaVuSans-30" transform="translate(127.246094 0)"/>
       <use xlink:href="#DejaVuSans-30" transform="translate(190.869141 0)"/>
       <use xlink:href="#DejaVuSans-2d" transform="translate(254.492188 0)"/>
       <use xlink:href="#DejaVuSans-30" transform="translate(290.576172 0)"/>
       <use xlink:href="#DejaVuSans-32" transform="translate(354.199219 0)"/>
      </g>
     </g>
    </g>
    <g id="xtick_3">
     <g id="line2d_3">
      <g>
       <use xlink:href="#m8ac87e0871" x="155.968925" y="228.96" style="stroke: #000000; stroke-width: 0.8"/>
      </g>
     </g>
     <g id="text_3">
      <!-- 2000-03 -->
      <g transform="translate(135.077519 243.558437) scale(0.1 -0.1)">
       <defs>
        <path id="DejaVuSans-33" d="M 2597 2516 
Q 3050 2419 3304 2112 
Q 3559 1806 3559 1356 
Q 3559 666 3084 287 
Q 2609 -91 1734 -91 
Q 1441 -91 1130 -33 
Q 819 25 488 141 
L 488 750 
Q 750 597 1062 519 
Q 1375 441 1716 441 
Q 2309 441 2620 675 
Q 2931 909 2931 1356 
Q 2931 1769 2642 2001 
Q 2353 2234 1838 2234 
L 1294 2234 
L 1294 2753 
L 1863 2753 
Q 2328 2753 2575 2939 
Q 2822 3125 2822 3475 
Q 2822 3834 2567 4026 
Q 2313 4219 1838 4219 
Q 1578 4219 1281 4162 
Q 984 4106 628 3988 
L 628 4550 
Q 988 4650 1302 4700 
Q 1616 4750 1894 4750 
Q 2613 4750 3031 4423 
Q 3450 4097 3450 3541 
Q 3450 3153 3228 2886 
Q 3006 2619 2597 2516 
z
" transform="scale(0.015625)"/>
       </defs>
       <use xlink:href="#DejaVuSans-32"/>
       <use xlink:href="#DejaVuSans-30" transform="translate(63.623047 0)"/>
       <use xlink:href="#DejaVuSans-30" transform="translate(127.246094 0)"/>
       <use xlink:href="#DejaVuSans-30" transform="translate(190.869141 0)"/>
       <use xlink:href="#DejaVuSans-2d" transform="translate(254.492188 0)"/>
       <use xlink:href="#DejaVuSans-30" transform="translate(290.576172 0)"/>
       <use xlink:href="#DejaVuSans-33" transform="translate(354.199219 0)"/>
      </g>
     </g>
    </g>
    <g id="xtick_4">
     <g id="line2d_4">
      <g>
       <use xlink:href="#m8ac87e0871" x="203.382356" y="228.96" style="stroke: #000000; stroke-width: 0.8"/>
      </g>
     </g>
     <g id="text_4">
      <!-- 2000-04 -->
      <g transform="translate(182.490949 243.558437) scale(0.1 -0.1)">
       <defs>
        <path id="DejaVuSans-34" d="M 2419 4116 
L 825 1625 
L 2419 1625 
L 2419 4116 
z
M 2253 4666 
L 3047 4666 
L 3047 1625 
L 3713 1625 
L 3713 1100 
L 3047 1100 
L 3047 0 
L 2419 0 
L 2419 1100 
L 313 1100 
L 313 1709 
L 2253 4666 
z
" transform="scale(0.015625)"/>
       </defs>
       <use xlink:href="#DejaVuSans-32"/>
       <use xlink:href="#DejaVuSans-30" transform="translate(63.623047 0)"/>
       <use xlink:href="#DejaVuSans-30" transform="translate(127.246094 0)"/>
       <use xlink:href="#DejaVuSans-30" transform="translate(190.869141 0)"/>
       <use xlink:href="#DejaVuSans-2d" transform="translate(254.492188 0)"/>
       <use xlink:href="#DejaVuSans-30" transform="translate(290.576172 0)"/>
       <use xlink:href="#DejaVuSans-34" transform="translate(354.199219 0)"/>
      </g>
     </g>
    </g>
    <g id="xtick_5">
     <g id="line2d_5">
      <g>
       <use xlink:href="#m8ac87e0871" x="249.266321" y="228.96" style="stroke: #000000; stroke-width: 0.8"/>
      </g>
     </g>
     <g id="text_5">
      <!-- 2000-05 -->
      <g transform="translate(228.374915 243.558437) scale(0.1 -0.1)">
       <defs>
        <path id="DejaVuSans-35" d="M 691 4666 
L 3169 4666 
L 3169 4134 
L 1269 4134 
L 1269 2991 
Q 1406 3038 1543 3061 
Q 1681 3084 1819 3084 
Q 2600 3084 3056 2656 
Q 3513 2228 3513 1497 
Q 3513 744 3044 326 
Q 2575 -91 1722 -91 
Q 1428 -91 1123 -41 
Q 819 9 494 109 
L 494 744 
Q 775 591 1075 516 
Q 1375 441 1709 441 
Q 2250 441 2565 725 
Q 2881 1009 2881 1497 
Q 2881 1984 2565 2268 
Q 2250 2553 1709 2553 
Q 1456 2553 1204 2497 
Q 953 2441 691 2322 
L 691 4666 
z
" transform="scale(0.015625)"/>
       </defs>
       <use xlink:href="#DejaVuSans-32"/>
       <use xlink:href="#DejaVuSans-30" transform="translate(63.623047 0)"/>
       <use xlink:href="#DejaVuSans-30" transform="translate(127.246094 0)"/>
       <use xlink:href="#DejaVuSans-30" transform="translate(190.869141 0)"/>
       <use xlink:href="#DejaVuSans-2d" transform="translate(254.492188 0)"/>
       <use xlink:href="#DejaVuSans-30" transform="translate(290.576172 0)"/>
       <use xlink:href="#DejaVuSans-35" transform="translate(354.199219 0)"/>
      </g>
     </g>
    </g>
    <g id="xtick_6">
     <g id="line2d_6">
      <g>
       <use xlink:href="#m8ac87e0871" x="296.679752" y="228.96" style="stroke: #000000; stroke-width: 0.8"/>
      </g>
     </g>
     <g id="text_6">
      <!-- 2000-06 -->
      <g transform="translate(275.788345 243.558437) scale(0.1 -0.1)">
       <defs>
        <path id="DejaVuSans-36" d="M 2113 2584 
Q 1688 2584 1439 2293 
Q 1191 2003 1191 1497 
Q 1191 994 1439 701 
Q 1688 409 2113 409 
Q 2538 409 2786 701 
Q 3034 994 3034 1497 
Q 3034 2003 2786 2293 
Q 2538 2584 2113 2584 
z
M 3366 4563 
L 3366 3988 
Q 3128 4100 2886 4159 
Q 2644 4219 2406 4219 
Q 1781 4219 1451 3797 
Q 1122 3375 1075 2522 
Q 1259 2794 1537 2939 
Q 1816 3084 2150 3084 
Q 2853 3084 3261 2657 
Q 3669 2231 3669 1497 
Q 3669 778 3244 343 
Q 2819 -91 2113 -91 
Q 1303 -91 875 529 
Q 447 1150 447 2328 
Q 447 3434 972 4092 
Q 1497 4750 2381 4750 
Q 2619 4750 2861 4703 
Q 3103 4656 3366 4563 
z
" transform="scale(0.015625)"/>
       </defs>
       <use xlink:href="#DejaVuSans-32"/>
       <use xlink:href="#DejaVuSans-30" transform="translate(63.623047 0)"/>
       <use xlink:href="#DejaVuSans-30" transform="translate(127.246094 0)"/>
       <use xlink:href="#DejaVuSans-30" transform="translate(190.869141 0)"/>
       <use xlink:href="#DejaVuSans-2d" transform="translate(254.492188 0)"/>
       <use xlink:href="#DejaVuSans-30" transform="translate(290.576172 0)"/>
       <use xlink:href="#DejaVuSans-36" transform="translate(354.199219 0)"/>
      </g>
     </g>
    </g>
    <g id="xtick_7">
     <g id="line2d_7">
      <g>
       <use xlink:href="#m8ac87e0871" x="342.563717" y="228.96" style="stroke: #000000; stroke-width: 0.8"/>
      </g>
     </g>
     <g id="text_7">
      <!-- 2000-07 -->
      <g transform="translate(321.672311 243.558437) scale(0.1 -0.1)">
       <defs>
        <path id="DejaVuSans-37" d="M 525 4666 
L 3525 4666 
L 3525 4397 
L 1831 0 
L 1172 0 
L 2766 4134 
L 525 4134 
L 525 4666 
z
" transform="scale(0.015625)"/>
       </defs>
       <use xlink:href="#DejaVuSans-32"/>
       <use xlink:href="#DejaVuSans-30" transform="translate(63.623047 0)"/>
       <use xlink:href="#DejaVuSans-30" transform="translate(127.246094 0)"/>
       <use xlink:href="#DejaVuSans-30" transform="translate(190.869141 0)"/>
       <use xlink:href="#DejaVuSans-2d" transform="translate(254.492188 0)"/>
       <use xlink:href="#DejaVuSans-30" transform="translate(290.576172 0)"/>
       <use xlink:href="#DejaVuSans-37" transform="translate(354.199219 0)"/>
      </g>
     </g>
    </g>
    <g id="text_8">
     <!-- row [datetime] -->
     <g transform="translate(179.229688 257.236562) scale(0.1 -0.1)">
      <defs>
       <path id="DejaVuSans-72" d="M 2631 2963 
Q 2534 3019 2420 3045 
Q 2306 3072 2169 3072 
Q 1681 3072 1420 2755 
Q 1159 2438 1159 1844 
L 1159 0 
L 581 0 
L 581 3500 
L 1159 3500 
L 1159 2956 
Q 1341 3275 1631 3429 
Q 1922 3584 2338 3584 
Q 2397 3584 2469 3576 
Q 2541 3569 2628 3553 
L 2631 2963 
z
" transform="scale(0.015625)"/>
       <path id="DejaVuSans-6f" d="M 1959 3097 
Q 1497 3097 1228 2736 
Q 959 2375 959 1747 
Q 959 1119 1226 758 
Q 1494 397 1959 397 
Q 2419 397 2687 759 
Q 2956 1122 2956 1747 
Q 2956 2369 2687 2733 
Q 2419 3097 1959 3097 
z
M 1959 3584 
Q 2709 3584 3137 3096 
Q 3566 2609 3566 1747 
Q 3566 888 3137 398 
Q 2709 -91 1959 -91 
Q 1206 -91 779 398 
Q 353 888 353 1747 
Q 353 2609 779 3096 
Q 1206 3584 1959 3584 
z
" transform="scale(0.015625)"/>
       <path id="DejaVuSans-77" d="M 269 3500 
L 844 3500 
L 1563 769 
L 2278 3500 
L 2956 3500 
L 3675 769 
L 4391 3500 
L 4966 3500 
L 4050 0 
L 3372 0 
L 2619 2869 
L 1863 0 
L 1184 0 
L 269 3500 
z
" transform="scale(0.015625)"/>
       <path id="DejaVuSans-20" transform="scale(0.015625)"/>
       <path id="DejaVuSans-5b" d="M 550 4863 
L 1875 4863 
L 1875 4416 
L 1125 4416 
L 1125 -397 
L 1875 -397 
L 1875 -844 
L 550 -844 
L 550 4863 
z
" transform="scale(0.015625)"/>
       <path id="DejaVuSans-64" d="M 2906 2969 
L 2906 4863 
L 3481 4863 
L 3481 0 
L 2906 0 
L 2906 525 
Q 2725 213 2448 61 
Q 2172 -91 1784 -91 
Q 1150 -91 751 415 
Q 353 922 353 1747 
Q 353 2572 751 3078 
Q 1150 3584 1784 3584 
Q 2172 3584 2448 3432 
Q 2725 3281 2906 2969 
z
M 947 1747 
Q 947 1113 1208 752 
Q 1469 391 1925 391 
Q 2381 391 2643 752 
Q 2906 1113 2906 1747 
Q 2906 2381 2643 2742 
Q 2381 3103 1925 3103 
Q 1469 3103 1208 2742 
Q 947 2381 947 1747 
z
" transform="scale(0.015625)"/>
       <path id="DejaVuSans-61" d="M 2194 1759 
Q 1497 1759 1228 1600 
Q 959 1441 959 1056 
Q 959 750 1161 570 
Q 1363 391 1709 391 
Q 2188 391 2477 730 
Q 2766 1069 2766 1631 
L 2766 1759 
L 2194 1759 
z
M 3341 1997 
L 3341 0 
L 2766 0 
L 2766 531 
Q 2569 213 2275 61 
Q 1981 -91 1556 -91 
Q 1019 -91 701 211 
Q 384 513 384 1019 
Q 384 1609 779 1909 
Q 1175 2209 1959 2209 
L 2766 2209 
L 2766 2266 
Q 2766 2663 2505 2880 
Q 2244 3097 1772 3097 
Q 1472 3097 1187 3025 
Q 903 2953 641 2809 
L 641 3341 
Q 956 3463 1253 3523 
Q 1550 3584 1831 3584 
Q 2591 3584 2966 3190 
Q 3341 2797 3341 1997 
z
" transform="scale(0.015625)"/>
       <path id="DejaVuSans-74" d="M 1172 4494 
L 1172 3500 
L 2356 3500 
L 2356 3053 
L 1172 3053 
L 1172 1153 
Q 1172 725 1289 603 
Q 1406 481 1766 481 
L 2356 481 
L 2356 0 
L 1766 0 
Q 1100 0 847 248 
Q 594 497 594 1153 
L 594 3053 
L 172 3053 
L 172 3500 
L 594 3500 
L 594 4494 
L 1172 4494 
z
" transform="scale(0.015625)"/>
       <path id="DejaVuSans-65" d="M 3597 1894 
L 3597 1613 
L 953 1613 
Q 991 1019 1311 708 
Q 1631 397 2203 397 
Q 2534 397 2845 478 
Q 3156 559 3463 722 
L 3463 178 
Q 3153 47 2828 -22 
Q 2503 -91 2169 -91 
Q 1331 -91 842 396 
Q 353 884 353 1716 
Q 353 2575 817 3079 
Q 1281 3584 2069 3584 
Q 2775 3584 3186 3129 
Q 3597 2675 3597 1894 
z
M 3022 2063 
Q 3016 2534 2758 2815 
Q 2500 3097 2075 3097 
Q 1594 3097 1305 2825 
Q 1016 2553 972 2059 
L 3022 2063 
z
" transform="scale(0.015625)"/>
       <path id="DejaVuSans-69" d="M 603 3500 
L 1178 3500 
L 1178 0 
L 603 0 
L 603 3500 
z
M 603 4863 
L 1178 4863 
L 1178 4134 
L 603 4134 
L 603 4863 
z
" transform="scale(0.015625)"/>
       <path id="DejaVuSans-6d" d="M 3328 2828 
Q 3544 3216 3844 3400 
Q 4144 3584 4550 3584 
Q 5097 3584 5394 3201 
Q 5691 2819 5691 2113 
L 5691 0 
L 5113 0 
L 5113 2094 
Q 5113 2597 4934 2840 
Q 4756 3084 4391 3084 
Q 3944 3084 3684 2787 
Q 3425 2491 3425 1978 
L 3425 0 
L 2847 0 
L 2847 2094 
Q 2847 2600 2669 2842 
Q 2491 3084 2119 3084 
Q 1678 3084 1418 2786 
Q 1159 2488 1159 1978 
L 1159 0 
L 581 0 
L 581 3500 
L 1159 3500 
L 1159 2956 
Q 1356 3278 1631 3431 
Q 1906 3584 2284 3584 
Q 2666 3584 2933 3390 
Q 3200 3197 3328 2828 
z
" transform="scale(0.015625)"/>
       <path id="DejaVuSans-5d" d="M 1947 4863 
L 1947 -844 
L 622 -844 
L 622 -397 
L 1369 -397 
L 1369 4416 
L 622 4416 
L 622 4863 
L 1947 4863 
z
" transform="scale(0.015625)"/>
      </defs>
      <use xlink:href="#DejaVuSans-72"/>
      <use xlink:href="#DejaVuSans-6f" transform="translate(38.863281 0)"/>
      <use xlink:href="#DejaVuSans-77" transform="translate(100.044922 0)"/>
      <use xlink:href="#DejaVuSans-20" transform="translate(181.832031 0)"/>
      <use xlink:href="#DejaVuSans-5b" transform="translate(213.619141 0)"/>
      <use xlink:href="#DejaVuSans-64" transform="translate(252.632812 0)"/>
      <use xlink:href="#DejaVuSans-61" transform="translate(316.109375 0)"/>
      <use xlink:href="#DejaVuSans-74" transform="translate(377.388672 0)"/>
      <use xlink:href="#DejaVuSans-65" transform="translate(416.597656 0)"/>
      <use xlink:href="#DejaVuSans-74" transform="translate(478.121094 0)"/>
      <use xlink:href="#DejaVuSans-69" transform="translate(517.330078 0)"/>
      <use xlink:href="#DejaVuSans-6d" transform="translate(545.113281 0)"/>
      <use xlink:href="#DejaVuSans-65" transform="translate(642.525391 0)"/>
      <use xlink:href="#DejaVuSans-5d" transform="translate(704.048828 0)"/>
     </g>
    </g>
   </g>
   <g id="matplotlib.axis_2">
    <g id="ytick_1">
     <g id="line2d_8">
      <defs>
       <path id="m0071034385" d="M 0 0 
L -3.5 0 
" style="stroke: #000000; stroke-width: 0.8"/>
      </defs>
      <g>
       <use xlink:href="#m0071034385" x="48.982813" y="220.829897" style="stroke: #000000; stroke-width: 0.8"/>
      </g>
     </g>
     <g id="text_9">
      <!-- −15 -->
      <g transform="translate(20.878125 224.629116) scale(0.1 -0.1)">
       <defs>
        <path id="DejaVuSans-2212" d="M 678 2272 
L 4684 2272 
L 4684 1741 
L 678 1741 
L 678 2272 
z
" transform="scale(0.015625)"/>
       </defs>
       <use xlink:href="#DejaVuSans-2212"/>
       <use xlink:href="#DejaVuSans-31" transform="translate(83.789062 0)"/>
       <use xlink:href="#DejaVuSans-35" transform="translate(147.412109 0)"/>
      </g>
     </g>
    </g>
    <g id="ytick_2">
     <g id="line2d_9">
      <g>
       <use xlink:href="#m0071034385" x="48.982813" y="196.184141" style="stroke: #000000; stroke-width: 0.8"/>
      </g>
     </g>
     <g id="text_10">
      <!-- −10 -->
      <g transform="translate(20.878125 199.98336) scale(0.1 -0.1)">
       <use xlink:href="#DejaVuSans-2212"/>
       <use xlink:href="#DejaVuSans-31" transform="translate(83.789062 0)"/>
       <use xlink:href="#DejaVuSans-30" transform="translate(147.412109 0)"/>
      </g>
     </g>
    </g>
    <g id="ytick_3">
     <g id="line2d_10">
      <g>
       <use xlink:href="#m0071034385" x="48.982813" y="171.538385" style="stroke: #000000; stroke-width: 0.8"/>
      </g>
     </g>
     <g id="text_11">
      <!-- −5 -->
      <g transform="translate(27.240625 175.337604) scale(0.1 -0.1)">
       <use xlink:href="#DejaVuSans-2212"/>
       <use xlink:href="#DejaVuSans-35" transform="translate(83.789062 0)"/>
      </g>
     </g>
    </g>
    <g id="ytick_4">
     <g id="line2d_11">
      <g>
       <use xlink:href="#m0071034385" x="48.982813" y="146.892629" style="stroke: #000000; stroke-width: 0.8"/>
      </g>
     </g>
     <g id="text_12">
      <!-- 0 -->
      <g transform="translate(35.620312 150.691848) scale(0.1 -0.1)">
       <use xlink:href="#DejaVuSans-30"/>
      </g>
     </g>
    </g>
    <g id="ytick_5">
     <g id="line2d_12">
      <g>
       <use xlink:href="#m0071034385" x="48.982813" y="122.246873" style="stroke: #000000; stroke-width: 0.8"/>
      </g>
     </g>
     <g id="text_13">
      <!-- 5 -->
      <g transform="translate(35.620312 126.046092) scale(0.1 -0.1)">
       <use xlink:href="#DejaVuSans-35"/>
      </g>
     </g>
    </g>
    <g id="ytick_6">
     <g id="line2d_13">
      <g>
       <use xlink:href="#m0071034385" x="48.982813" y="97.601117" style="stroke: #000000; stroke-width: 0.8"/>
      </g>
     </g>
     <g id="text_14">
      <!-- 10 -->
      <g transform="translate(29.257812 101.400336) scale(0.1 -0.1)">
       <use xlink:href="#DejaVuSans-31"/>
       <use xlink:href="#DejaVuSans-30" transform="translate(63.623047 0)"/>
      </g>
     </g>
    </g>
    <g id="ytick_7">
     <g id="line2d_14">
      <g>
       <use xlink:href="#m0071034385" x="48.982813" y="72.955361" style="stroke: #000000; stroke-width: 0.8"/>
      </g>
     </g>
     <g id="text_15">
      <!-- 15 -->
      <g transform="translate(29.257812 76.75458) scale(0.1 -0.1)">
       <use xlink:href="#DejaVuSans-31"/>
       <use xlink:href="#DejaVuSans-35" transform="translate(63.623047 0)"/>
      </g>
     </g>
    </g>
    <g id="ytick_8">
     <g id="line2d_15">
      <g>
       <use xlink:href="#m0071034385" x="48.982813" y="48.309605" style="stroke: #000000; stroke-width: 0.8"/>
      </g>
     </g>
     <g id="text_16">
      <!-- 20 -->
      <g transform="translate(29.257812 52.108824) scale(0.1 -0.1)">
       <use xlink:href="#DejaVuSans-32"/>
       <use xlink:href="#DejaVuSans-30" transform="translate(63.623047 0)"/>
      </g>
     </g>
    </g>
    <g id="ytick_9">
     <g id="line2d_16">
      <g>
       <use xlink:href="#m0071034385" x="48.982813" y="23.663849" style="stroke: #000000; stroke-width: 0.8"/>
      </g>
     </g>
     <g id="text_17">
      <!-- 25 -->
      <g transform="translate(29.257812 27.463068) scale(0.1 -0.1)">
       <use xlink:href="#DejaVuSans-32"/>
       <use xlink:href="#DejaVuSans-35" transform="translate(63.623047 0)"/>
      </g>
     </g>
    </g>
    <g id="text_18">
     <!-- [dimensionless] -->
     <g transform="translate(14.798437 157.557344) rotate(-90) scale(0.1 -0.1)">
      <defs>
       <path id="DejaVuSans-6e" d="M 3513 2113 
L 3513 0 
L 2938 0 
L 2938 2094 
Q 2938 2591 2744 2837 
Q 2550 3084 2163 3084 
Q 1697 3084 1428 2787 
Q 1159 2491 1159 1978 
L 1159 0 
L 581 0 
L 581 3500 
L 1159 3500 
L 1159 2956 
Q 1366 3272 1645 3428 
Q 1925 3584 2291 3584 
Q 2894 3584 3203 3211 
Q 3513 2838 3513 2113 
z
" transform="scale(0.015625)"/>
       <path id="DejaVuSans-73" d="M 2834 3397 
L 2834 2853 
Q 2591 2978 2328 3040 
Q 2066 3103 1784 3103 
Q 1356 3103 1142 2972 
Q 928 2841 928 2578 
Q 928 2378 1081 2264 
Q 1234 2150 1697 2047 
L 1894 2003 
Q 2506 1872 2764 1633 
Q 3022 1394 3022 966 
Q 3022 478 2636 193 
Q 2250 -91 1575 -91 
Q 1294 -91 989 -36 
Q 684 19 347 128 
L 347 722 
Q 666 556 975 473 
Q 1284 391 1588 391 
Q 1994 391 2212 530 
Q 2431 669 2431 922 
Q 2431 1156 2273 1281 
Q 2116 1406 1581 1522 
L 1381 1569 
Q 847 1681 609 1914 
Q 372 2147 372 2553 
Q 372 3047 722 3315 
Q 1072 3584 1716 3584 
Q 2034 3584 2315 3537 
Q 2597 3491 2834 3397 
z
" transform="scale(0.015625)"/>
       <path id="DejaVuSans-6c" d="M 603 4863 
L 1178 4863 
L 1178 0 
L 603 0 
L 603 4863 
z
" transform="scale(0.015625)"/>
      </defs>
      <use xlink:href="#DejaVuSans-5b"/>
      <use xlink:href="#DejaVuSans-64" transform="translate(39.013672 0)"/>
      <use xlink:href="#DejaVuSans-69" transform="translate(102.490234 0)"/>
      <use xlink:href="#DejaVuSans-6d" transform="translate(130.273438 0)"/>
      <use xlink:href="#DejaVuSans-65" transform="translate(227.685547 0)"/>
      <use xlink:href="#DejaVuSans-6e" transform="translate(289.208984 0)"/>
      <use xlink:href="#DejaVuSans-73" transform="translate(352.587891 0)"/>
      <use xlink:href="#DejaVuSans-69" transform="translate(404.6875 0)"/>
      <use xlink:href="#DejaVuSans-6f" transform="translate(432.470703 0)"/>
      <use xlink:href="#DejaVuSans-6e" transform="translate(493.652344 0)"/>
      <use xlink:href="#DejaVuSans-6c" transform="translate(557.03125 0)"/>
      <use xlink:href="#DejaVuSans-65" transform="translate(584.814453 0)"/>
      <use xlink:href="#DejaVuSans-73" transform="translate(646.337891 0)"/>
      <use xlink:href="#DejaVuSans-73" transform="translate(698.4375 0)"/>
      <use xlink:href="#DejaVuSans-5d" transform="translate(750.537109 0)"/>
     </g>
    </g>
   </g>
   <g id="patch_3">
    <path d="M 48.982813 228.96 
L 48.982813 7.2 
" style="fill: none; stroke: #000000; stroke-width: 0.8; stroke-linejoin: miter; stroke-linecap: square"/>
   </g>
   <g id="patch_4">
    <path d="M 383.782813 228.96 
L 383.782813 7.2 
" style="fill: none; stroke: #000000; stroke-width: 0.8; stroke-linejoin: miter; stroke-linecap: square"/>
   </g>
   <g id="patch_5">
    <path d="M 48.982812 228.96 
L 383.782812 228.96 
" style="fill: none; stroke: #000000; stroke-width: 0.8; stroke-linejoin: miter; stroke-linecap: square"/>
   </g>
   <g id="patch_6">
    <path d="M 48.982812 7.2 
L 383.782812 7.2 
" style="fill: none; stroke: #000000; stroke-width: 0.8; stroke-linejoin: miter; stroke-linecap: square"/>
   </g>
   <g id="legend_1">
    <g id="patch_7">
     <path d="M 55.982813 73.9125 
L 95.682813 73.9125 
Q 97.682813 73.9125 97.682813 71.9125 
L 97.682813 14.2 
Q 97.682813 12.2 95.682813 12.2 
L 55.982813 12.2 
Q 53.982813 12.2 53.982813 14.2 
L 53.982813 71.9125 
Q 53.982813 73.9125 55.982813 73.9125 
z
" style="fill: #ffffff; opacity: 0.8; stroke: #cccccc; stroke-linejoin: miter"/>
    </g>
    <g id="line2d_17">
     <path d="M 57.982813 20.298437 
L 67.982812 20.298437 
L 77.982812 20.298437 
" style="fill: none; stroke: #1f77b4; stroke-width: 1.5; stroke-linecap: square"/>
    </g>
    <g id="text_19">
     <!-- A -->
     <g transform="translate(85.982812 23.798437) scale(0.1 -0.1)">
      <defs>
       <path id="DejaVuSans-41" d="M 2188 4044 
L 1331 1722 
L 3047 1722 
L 2188 4044 
z
M 1831 4666 
L 2547 4666 
L 4325 0 
L 3669 0 
L 3244 1197 
L 1141 1197 
L 716 0 
L 50 0 
L 1831 4666 
z
" transform="scale(0.015625)"/>
      </defs>
      <use xlink:href="#DejaVuSans-41"/>
     </g>
    </g>
    <g id="line2d_18">
     <path d="M 57.982813 34.976562 
L 67.982812 34.976562 
L 77.982812 34.976562 
" style="fill: none; stroke: #ff7f0e; stroke-width: 1.5; stroke-linecap: square"/>
    </g>
    <g id="text_20">
     <!-- B -->
     <g transform="translate(85.982812 38.476562) scale(0.1 -0.1)">
      <defs>
       <path id="DejaVuSans-42" d="M 1259 2228 
L 1259 519 
L 2272 519 
Q 2781 519 3026 730 
Q 3272 941 3272 1375 
Q 3272 1813 3026 2020 
Q 2781 2228 2272 2228 
L 1259 2228 
z
M 1259 4147 
L 1259 2741 
L 2194 2741 
Q 2656 2741 2882 2914 
Q 3109 3088 3109 3444 
Q 3109 3797 2882 3972 
Q 2656 4147 2194 4147 
L 1259 4147 
z
M 628 4666 
L 2241 4666 
Q 2963 4666 3353 4366 
Q 3744 4066 3744 3513 
Q 3744 3084 3544 2831 
Q 3344 2578 2956 2516 
Q 3422 2416 3680 2098 
Q 3938 1781 3938 1306 
Q 3938 681 3513 340 
Q 3088 0 2303 0 
L 628 0 
L 628 4666 
z
" transform="scale(0.015625)"/>
      </defs>
      <use xlink:href="#DejaVuSans-42"/>
     </g>
    </g>
    <g id="line2d_19">
     <path d="M 57.982813 49.654687 
L 67.982812 49.654687 
L 77.982812 49.654687 
" style="fill: none; stroke: #2ca02c; stroke-width: 1.5; stroke-linecap: square"/>
    </g>
    <g id="text_21">
     <!-- C -->
     <g transform="translate(85.982812 53.154687) scale(0.1 -0.1)">
      <defs>
       <path id="DejaVuSans-43" d="M 4122 4306 
L 4122 3641 
Q 3803 3938 3442 4084 
Q 3081 4231 2675 4231 
Q 1875 4231 1450 3742 
Q 1025 3253 1025 2328 
Q 1025 1406 1450 917 
Q 1875 428 2675 428 
Q 3081 428 3442 575 
Q 3803 722 4122 1019 
L 4122 359 
Q 3791 134 3420 21 
Q 3050 -91 2638 -91 
Q 1578 -91 968 557 
Q 359 1206 359 2328 
Q 359 3453 968 4101 
Q 1578 4750 2638 4750 
Q 3056 4750 3426 4639 
Q 3797 4528 4122 4306 
z
" transform="scale(0.015625)"/>
      </defs>
      <use xlink:href="#DejaVuSans-43"/>
     </g>
    </g>
    <g id="line2d_20">
     <path d="M 57.982813 64.332812 
L 67.982812 64.332812 
L 77.982812 64.332812 
" style="fill: none; stroke: #d62728; stroke-width: 1.5; stroke-linecap: square"/>
    </g>
    <g id="text_22">
     <!-- D -->
     <g transform="translate(85.982812 67.832812) scale(0.1 -0.1)">
      <defs>
       <path id="DejaVuSans-44" d="M 1259 4147 
L 1259 519 
L 2022 519 
Q 2988 519 3436 956 
Q 3884 1394 3884 2338 
Q 3884 3275 3436 3711 
Q 2988 4147 2022 4147 
L 1259 4147 
z
M 628 4666 
L 1925 4666 
Q 3281 4666 3915 4102 
Q 4550 3538 4550 2338 
Q 4550 1131 3912 565 
Q 3275 0 1925 0 
L 628 0 
L 628 4666 
z
" transform="scale(0.015625)"/>
      </defs>
      <use xlink:href="#DejaVuSans-44"/>
     </g>
    </g>
   </g>
   <g id="line2d_21">
    <path d="M 64.200994 149.374449 
L 65.73046 150.879518 
L 67.259925 143.795487 
L 68.789391 141.434852 
L 70.318856 149.561106 
L 71.848322 148.835941 
L 73.377787 145.378976 
L 74.907253 140.300743 
L 76.436718 146.01065 
L 77.966184 148.135124 
L 79.495649 149.706544 
L 81.025115 151.844892 
L 82.55458 148.618258 
L 84.084046 148.782785 
L 85.613511 144.653065 
L 87.142977 146.924047 
L 88.672442 140.743468 
L 90.201908 138.21217 
L 91.731373 137.023229 
L 93.260839 134.07664 
L 94.790305 122.885837 
L 96.31977 118.479607 
L 97.849236 115.048782 
L 99.378701 109.128499 
L 100.908167 110.478136 
L 102.437632 112.685998 
L 103.967098 111.405224 
L 105.496563 115.423566 
L 107.026029 121.123583 
L 108.555494 125.569533 
L 110.08496 123.087138 
L 111.614425 121.474924 
L 113.143891 124.799951 
L 114.673356 129.442938 
L 116.202822 128.364892 
L 117.732287 135.300632 
L 119.261753 135.855991 
L 120.791218 134.896604 
L 122.320684 139.042927 
L 123.850149 139.113952 
L 125.379615 133.925456 
L 126.90908 136.240833 
L 128.438546 137.789314 
L 129.968011 138.743872 
L 131.497477 140.720983 
L 133.026942 143.999099 
L 134.556408 145.369809 
L 136.085873 131.320845 
L 137.615339 133.148531 
L 139.144804 138.092895 
L 140.67427 136.037457 
L 142.203735 137.248471 
L 143.733201 135.359938 
L 145.262666 138.202622 
L 146.792132 141.384991 
L 148.321597 145.495264 
L 149.851063 135.793948 
L 151.380528 136.092666 
L 152.909994 143.151528 
L 154.439459 147.624649 
L 155.968925 147.037936 
L 157.49839 151.484339 
L 159.027856 152.044999 
L 160.557321 153.327041 
L 162.086787 156.531854 
L 163.616252 156.788768 
L 165.145718 159.052921 
L 166.675183 159.305776 
L 168.204649 157.992592 
L 169.734114 160.540497 
L 171.26358 162.405657 
L 172.793045 166.303106 
L 175.851977 160.017594 
L 177.381442 158.712034 
L 178.910908 159.78727 
L 180.440373 157.757248 
L 181.969839 153.670194 
L 183.499304 150.508084 
L 186.558235 148.994032 
L 188.087701 148.948071 
L 189.617166 138.949057 
L 191.146632 138.562536 
L 192.676097 143.778714 
L 194.205563 139.239053 
L 195.735028 140.224462 
L 197.264494 144.544149 
L 198.793959 143.452404 
L 200.323425 135.858365 
L 201.85289 137.824739 
L 203.382356 131.918307 
L 204.911821 133.581173 
L 207.970752 144.374998 
L 209.500218 144.14708 
L 211.029683 147.297006 
L 212.559149 153.577259 
L 214.088614 149.623778 
L 215.61808 143.260767 
L 217.147545 142.841592 
L 220.206476 148.048341 
L 221.735942 144.1314 
L 223.265407 148.59152 
L 224.794873 147.483999 
L 226.324338 144.929361 
L 227.853804 138.128687 
L 230.912735 145.409846 
L 232.4422 145.905007 
L 233.971666 140.822736 
L 235.501131 143.09841 
L 237.030597 147.814156 
L 238.560062 147.574742 
L 240.089528 151.203924 
L 241.618993 150.214504 
L 243.148459 150.58917 
L 244.677924 154.436636 
L 246.20739 156.551667 
L 247.736855 153.201846 
L 249.266321 141.031141 
L 250.795786 139.250239 
L 252.325252 143.657631 
L 253.854717 157.760653 
L 255.384183 157.693529 
L 256.913648 158.844502 
L 258.443114 159.012406 
L 259.97258 151.785762 
L 261.502045 146.600373 
L 263.031511 156.789591 
L 264.560976 156.461002 
L 266.090442 153.573277 
L 267.619907 149.098626 
L 269.149373 146.972165 
L 270.678838 149.399861 
L 272.208304 145.347344 
L 273.737769 146.035509 
L 275.267235 140.322647 
L 276.7967 138.308856 
L 278.326166 137.366923 
L 279.855631 137.339927 
L 281.385097 134.873574 
L 282.914562 144.085455 
L 284.444028 152.405848 
L 285.973493 156.170092 
L 287.502959 154.813612 
L 289.032424 157.131719 
L 290.56189 163.654866 
L 292.091355 160.480087 
L 293.620821 153.29442 
L 295.150286 154.578332 
L 296.679752 157.173462 
L 298.209217 154.878119 
L 299.738683 158.041965 
L 301.268148 157.577323 
L 302.797614 157.602883 
L 304.327079 163.177604 
L 305.856545 171.09511 
L 307.38601 167.75106 
L 308.915476 170.795276 
L 310.444941 166.402399 
L 311.974407 171.873563 
L 313.503872 172.709116 
L 315.033338 178.979971 
L 316.562803 179.437074 
L 318.092269 180.253736 
L 319.621734 183.330467 
L 321.1512 181.793684 
L 322.680665 185.344882 
L 324.210131 180.139394 
L 325.739596 180.883964 
L 328.798527 189.262297 
L 330.327993 194.12024 
L 331.857458 195.239107 
L 333.386924 203.609377 
L 334.916389 205.63336 
L 336.445855 201.175967 
L 337.97532 197.13688 
L 339.504786 202.503091 
L 342.563717 201.093137 
L 344.093183 197.582473 
L 345.622648 208.870495 
L 347.152114 215.884805 
L 348.681579 209.811673 
L 350.211045 203.017315 
L 351.74051 198.707161 
L 353.269976 193.970874 
L 354.799441 194.56431 
L 356.328907 200.969318 
L 357.858372 210.775998 
L 359.387838 213.013907 
L 360.917303 214.272166 
L 362.446769 214.361039 
L 363.976234 217.561756 
L 365.5057 213.417639 
L 367.035165 218.881533 
L 368.564631 223.253738 
L 368.564631 223.253738 
" clip-path="url(#pf1a2dc47f1)" style="fill: none; stroke: #1f77b4; stroke-width: 1.5; stroke-linecap: square"/>
   </g>
   <g id="line2d_22">
    <path d="M 64.200994 151.473341 
L 65.73046 147.642204 
L 67.259925 144.286682 
L 68.789391 146.027124 
L 70.318856 140.290014 
L 71.848322 134.006333 
L 73.377787 130.126512 
L 74.907253 133.120449 
L 77.966184 139.893442 
L 79.495649 139.105905 
L 82.55458 140.531877 
L 84.084046 135.308355 
L 85.613511 132.228149 
L 87.142977 136.745257 
L 88.672442 146.661927 
L 90.201908 146.212395 
L 91.731373 147.225868 
L 93.260839 142.459797 
L 94.790305 138.974176 
L 96.31977 130.237611 
L 97.849236 132.485602 
L 99.378701 130.102261 
L 100.908167 127.019304 
L 102.437632 132.508277 
L 103.967098 136.77879 
L 105.496563 141.981267 
L 107.026029 135.432117 
L 108.555494 132.086176 
L 110.08496 136.071535 
L 111.614425 141.35685 
L 113.143891 153.094189 
L 114.673356 144.106033 
L 116.202822 142.125569 
L 117.732287 140.940121 
L 119.261753 135.921867 
L 120.791218 144.243729 
L 122.320684 146.528097 
L 123.850149 155.09948 
L 125.379615 155.617647 
L 126.90908 152.147236 
L 128.438546 161.136607 
L 129.968011 161.096409 
L 131.497477 156.162818 
L 133.026942 156.246618 
L 134.556408 163.766063 
L 136.085873 165.582029 
L 137.615339 169.892204 
L 139.144804 171.855988 
L 140.67427 170.389126 
L 142.203735 169.222073 
L 143.733201 170.347353 
L 145.262666 170.177032 
L 146.792132 170.253622 
L 148.321597 171.152617 
L 149.851063 171.04719 
L 151.380528 167.388291 
L 152.909994 165.178946 
L 154.439459 171.68927 
L 155.968925 171.703781 
L 157.49839 172.267313 
L 159.027856 177.658422 
L 160.557321 171.203617 
L 162.086787 173.145873 
L 163.616252 169.131894 
L 165.145718 167.958626 
L 166.675183 161.863498 
L 168.204649 156.290705 
L 169.734114 164.190972 
L 171.26358 162.666703 
L 172.793045 163.024766 
L 174.322511 169.203962 
L 175.851977 164.706659 
L 177.381442 172.980543 
L 178.910908 171.868103 
L 180.440373 173.122779 
L 181.969839 174.14266 
L 183.499304 177.970855 
L 185.02877 169.353787 
L 186.558235 165.559195 
L 188.087701 162.171562 
L 189.617166 157.090664 
L 191.146632 163.773384 
L 192.676097 158.764182 
L 194.205563 158.38967 
L 195.735028 156.209586 
L 197.264494 159.80642 
L 198.793959 162.818731 
L 200.323425 162.47078 
L 201.85289 168.645474 
L 203.382356 163.26136 
L 204.911821 155.304725 
L 206.441287 159.195372 
L 207.970752 159.272874 
L 209.500218 157.802753 
L 211.029683 154.194864 
L 212.559149 160.295392 
L 214.088614 154.287638 
L 215.61808 151.044892 
L 217.147545 155.398173 
L 218.677011 162.533053 
L 220.206476 163.516752 
L 221.735942 154.58086 
L 223.265407 161.224065 
L 224.794873 159.842588 
L 226.324338 150.575737 
L 227.853804 158.519907 
L 229.383269 155.504455 
L 230.912735 154.672576 
L 232.4422 147.437355 
L 233.971666 149.472491 
L 237.030597 156.974719 
L 238.560062 167.803239 
L 240.089528 171.668258 
L 241.618993 173.342956 
L 243.148459 167.988632 
L 244.677924 167.102267 
L 246.20739 164.871768 
L 247.736855 156.687133 
L 249.266321 156.01329 
L 250.795786 159.41607 
L 252.325252 148.910801 
L 253.854717 151.624494 
L 255.384183 153.50064 
L 256.913648 145.298911 
L 258.443114 145.503492 
L 259.97258 148.210692 
L 261.502045 149.042787 
L 263.031511 141.980531 
L 264.560976 138.711444 
L 266.090442 135.989918 
L 267.619907 137.845502 
L 269.149373 135.767213 
L 270.678838 139.945324 
L 273.737769 148.955734 
L 275.267235 146.427125 
L 276.7967 146.21499 
L 278.326166 135.080561 
L 279.855631 125.692679 
L 281.385097 137.020851 
L 282.914562 142.350267 
L 284.444028 140.318443 
L 285.973493 144.567628 
L 287.502959 151.838782 
L 289.032424 143.563819 
L 290.56189 141.760139 
L 292.091355 145.389555 
L 293.620821 141.410048 
L 295.150286 142.167737 
L 296.679752 140.536707 
L 298.209217 140.055638 
L 301.268148 150.619315 
L 302.797614 159.7662 
L 304.327079 160.720039 
L 307.38601 171.704546 
L 308.915476 174.867591 
L 310.444941 174.420993 
L 311.974407 174.608205 
L 313.503872 179.817594 
L 315.033338 176.393445 
L 316.562803 172.473363 
L 318.092269 174.242111 
L 319.621734 170.542842 
L 321.1512 181.360345 
L 322.680665 186.421081 
L 324.210131 186.017818 
L 325.739596 177.919941 
L 327.269062 175.502557 
L 330.327993 156.383662 
L 331.857458 151.301668 
L 333.386924 152.126419 
L 334.916389 158.051165 
L 336.445855 160.329897 
L 337.97532 163.556231 
L 339.504786 167.856964 
L 341.034252 158.730974 
L 342.563717 159.208033 
L 344.093183 153.371401 
L 345.622648 155.109914 
L 347.152114 147.834697 
L 348.681579 157.590232 
L 350.211045 157.810238 
L 351.74051 163.09205 
L 353.269976 169.033326 
L 354.799441 170.480753 
L 356.328907 166.431722 
L 357.858372 169.595244 
L 359.387838 162.974234 
L 360.917303 161.816476 
L 362.446769 161.420513 
L 363.976234 161.38019 
L 365.5057 160.787638 
L 367.035165 165.359841 
L 368.564631 158.457687 
L 368.564631 158.457687 
" clip-path="url(#pf1a2dc47f1)" style="fill: none; stroke: #ff7f0e; stroke-width: 1.5; stroke-linecap: square"/>
   </g>
   <g id="line2d_23">
    <path d="M 64.200994 152.867159 
L 65.73046 152.874421 
L 67.259925 155.045269 
L 68.789391 150.507259 
L 70.318856 157.817208 
L 71.848322 160.870124 
L 73.377787 165.659889 
L 74.907253 165.069948 
L 76.436718 158.16104 
L 77.966184 160.535933 
L 79.495649 157.023767 
L 81.025115 161.447698 
L 82.55458 155.906197 
L 84.084046 158.640829 
L 85.613511 154.098638 
L 87.142977 154.492331 
L 88.672442 164.734018 
L 90.201908 166.608294 
L 91.731373 163.379421 
L 93.260839 162.1396 
L 94.790305 167.525916 
L 96.31977 166.560053 
L 97.849236 170.961094 
L 99.378701 168.517762 
L 102.437632 176.187439 
L 103.967098 173.642998 
L 105.496563 176.920093 
L 107.026029 176.418992 
L 108.555494 183.002991 
L 110.08496 185.201076 
L 111.614425 189.086639 
L 113.143891 186.808687 
L 114.673356 187.018814 
L 116.202822 178.344408 
L 117.732287 172.595252 
L 119.261753 172.623129 
L 120.791218 168.5333 
L 122.320684 174.108944 
L 123.850149 181.097821 
L 125.379615 182.586814 
L 126.90908 183.306946 
L 128.438546 180.791037 
L 129.968011 177.254149 
L 131.497477 176.186133 
L 133.026942 175.763238 
L 134.556408 178.197926 
L 136.085873 176.962367 
L 137.615339 180.483947 
L 139.144804 194.332709 
L 140.67427 196.194684 
L 142.203735 195.062381 
L 143.733201 191.691789 
L 145.262666 190.159239 
L 146.792132 181.943809 
L 148.321597 181.571638 
L 149.851063 182.318726 
L 152.909994 176.757724 
L 154.439459 176.965909 
L 155.968925 177.592168 
L 157.49839 175.711841 
L 159.027856 175.607046 
L 160.557321 165.652624 
L 162.086787 168.861809 
L 163.616252 167.811719 
L 165.145718 165.512086 
L 166.675183 161.754979 
L 168.204649 155.947654 
L 169.734114 151.398478 
L 171.26358 141.272383 
L 172.793045 142.52545 
L 174.322511 142.272575 
L 175.851977 145.462833 
L 177.381442 144.862051 
L 178.910908 147.486926 
L 180.440373 156.074475 
L 181.969839 153.851438 
L 183.499304 154.508098 
L 185.02877 154.706306 
L 186.558235 147.229036 
L 188.087701 150.628918 
L 189.617166 146.292764 
L 191.146632 144.370701 
L 192.676097 149.950808 
L 194.205563 157.764449 
L 195.735028 156.437971 
L 197.264494 153.900436 
L 198.793959 150.389415 
L 200.323425 146.278489 
L 201.85289 145.917694 
L 203.382356 152.212779 
L 204.911821 148.70855 
L 206.441287 147.767526 
L 207.970752 154.673594 
L 209.500218 153.643687 
L 211.029683 158.112692 
L 212.559149 155.389608 
L 214.088614 153.411647 
L 215.61808 149.797876 
L 217.147545 153.698988 
L 218.677011 152.247204 
L 220.206476 153.868585 
L 221.735942 152.582196 
L 223.265407 154.977305 
L 224.794873 166.552685 
L 226.324338 174.379199 
L 227.853804 176.674158 
L 229.383269 174.479322 
L 230.912735 171.393922 
L 232.4422 177.009011 
L 233.971666 172.813801 
L 237.030597 183.041046 
L 238.560062 182.200487 
L 240.089528 184.079505 
L 241.618993 188.663111 
L 243.148459 178.011019 
L 244.677924 176.17695 
L 246.20739 181.934768 
L 247.736855 184.348777 
L 249.266321 193.197287 
L 250.795786 192.879813 
L 252.325252 197.756989 
L 253.854717 198.351369 
L 255.384183 191.28284 
L 256.913648 183.211544 
L 258.443114 181.825489 
L 259.97258 185.899612 
L 261.502045 181.613924 
L 263.031511 189.711011 
L 264.560976 195.062334 
L 266.090442 198.013759 
L 267.619907 194.864047 
L 269.149373 187.391218 
L 270.678838 184.60636 
L 272.208304 179.251084 
L 273.737769 176.459486 
L 275.267235 165.503449 
L 276.7967 163.826506 
L 278.326166 159.021216 
L 279.855631 156.18993 
L 281.385097 158.910414 
L 282.914562 158.092389 
L 284.444028 164.949817 
L 285.973493 167.991401 
L 287.502959 176.094205 
L 289.032424 178.806866 
L 290.56189 177.297373 
L 292.091355 175.53605 
L 293.620821 173.369615 
L 295.150286 170.667162 
L 296.679752 173.298661 
L 298.209217 181.08266 
L 299.738683 184.944071 
L 301.268148 183.100284 
L 302.797614 183.146026 
L 304.327079 172.977618 
L 305.856545 179.457099 
L 307.38601 175.243067 
L 308.915476 169.426382 
L 310.444941 176.596322 
L 311.974407 167.930864 
L 313.503872 170.779638 
L 315.033338 164.268155 
L 316.562803 166.531037 
L 318.092269 168.483012 
L 319.621734 172.407782 
L 321.1512 167.410232 
L 322.680665 179.453281 
L 324.210131 184.541175 
L 325.739596 185.457572 
L 327.269062 186.574988 
L 328.798527 188.812008 
L 330.327993 198.26315 
L 331.857458 198.839913 
L 333.386924 190.40392 
L 334.916389 189.654971 
L 336.445855 189.35524 
L 337.97532 196.9113 
L 339.504786 193.918057 
L 341.034252 192.101729 
L 342.563717 193.775936 
L 344.093183 195.709318 
L 345.622648 198.919975 
L 347.152114 196.339062 
L 348.681579 188.224808 
L 350.211045 195.05072 
L 351.74051 192.945713 
L 353.269976 187.479667 
L 354.799441 185.78587 
L 356.328907 183.673148 
L 357.858372 180.787384 
L 359.387838 182.060216 
L 362.446769 188.046326 
L 363.976234 190.514671 
L 365.5057 190.169607 
L 367.035165 196.717388 
L 368.564631 191.997315 
L 368.564631 191.997315 
" clip-path="url(#pf1a2dc47f1)" style="fill: none; stroke: #2ca02c; stroke-width: 1.5; stroke-linecap: square"/>
   </g>
   <g id="line2d_24">
    <path d="M 64.200994 148.72637 
L 65.73046 152.910121 
L 67.259925 153.98771 
L 68.789391 151.721653 
L 70.318856 152.76854 
L 71.848322 147.546308 
L 73.377787 147.090787 
L 74.907253 149.682133 
L 76.436718 146.467645 
L 77.966184 155.314215 
L 79.495649 155.775343 
L 81.025115 148.654835 
L 82.55458 140.391776 
L 84.084046 136.216168 
L 85.613511 129.096621 
L 87.142977 128.034741 
L 88.672442 128.188223 
L 90.201908 127.552107 
L 91.731373 120.421903 
L 93.260839 111.512948 
L 94.790305 109.883024 
L 96.31977 109.580871 
L 97.849236 109.649921 
L 99.378701 107.116605 
L 100.908167 107.974269 
L 102.437632 112.678196 
L 103.967098 119.693133 
L 105.496563 115.07571 
L 107.026029 109.03777 
L 108.555494 101.803141 
L 110.08496 93.15537 
L 111.614425 88.944938 
L 113.143891 88.9556 
L 114.673356 86.030261 
L 116.202822 78.331198 
L 117.732287 81.646933 
L 119.261753 85.744595 
L 120.791218 75.569408 
L 122.320684 71.369134 
L 123.850149 80.193677 
L 126.90908 82.439076 
L 128.438546 79.711605 
L 129.968011 83.320194 
L 131.497477 84.846246 
L 133.026942 85.779311 
L 134.556408 86.553435 
L 136.085873 84.702691 
L 137.615339 81.675866 
L 139.144804 74.821631 
L 140.67427 74.289206 
L 142.203735 70.66037 
L 143.733201 67.409511 
L 145.262666 61.662834 
L 146.792132 66.578847 
L 148.321597 65.339443 
L 149.851063 71.361109 
L 151.380528 68.099399 
L 152.909994 56.095165 
L 154.439459 53.995726 
L 155.968925 46.262129 
L 157.49839 49.080882 
L 159.027856 49.89239 
L 160.557321 52.143435 
L 162.086787 49.204809 
L 163.616252 42.682662 
L 165.145718 39.417296 
L 166.675183 34.408303 
L 168.204649 36.865762 
L 169.734114 41.567186 
L 171.26358 38.251878 
L 172.793045 37.304541 
L 174.322511 37.425981 
L 175.851977 35.519949 
L 177.381442 42.401574 
L 178.910908 46.947291 
L 180.440373 43.639313 
L 181.969839 38.955515 
L 183.499304 41.34467 
L 185.02877 39.223953 
L 186.558235 38.091658 
L 188.087701 34.756806 
L 189.617166 25.951594 
L 191.146632 27.932256 
L 192.676097 33.791089 
L 194.205563 41.604984 
L 195.735028 43.700988 
L 197.264494 33.336609 
L 198.793959 29.295626 
L 200.323425 36.013584 
L 201.85289 44.546892 
L 203.382356 46.181361 
L 204.911821 36.273256 
L 206.441287 33.399034 
L 207.970752 28.180791 
L 209.500218 24.20541 
L 211.029683 21.907113 
L 212.559149 28.034679 
L 214.088614 26.549593 
L 215.61808 24.614407 
L 217.147545 24.91622 
L 218.677011 24.098986 
L 220.206476 22.991747 
L 221.735942 20.910196 
L 223.265407 17.877682 
L 224.794873 18.13279 
L 226.324338 27.958463 
L 227.853804 30.223161 
L 229.383269 29.386855 
L 230.912735 26.398153 
L 232.4422 14.275322 
L 233.971666 20.862131 
L 235.501131 27.953043 
L 237.030597 27.838515 
L 238.560062 29.5798 
L 240.089528 25.624554 
L 241.618993 27.06148 
L 243.148459 24.647339 
L 244.677924 28.443301 
L 246.20739 30.143362 
L 247.736855 28.425309 
L 249.266321 28.062203 
L 250.795786 26.69097 
L 252.325252 24.19481 
L 253.854717 14.275016 
L 255.384183 18.672694 
L 256.913648 25.555942 
L 258.443114 30.333839 
L 259.97258 32.883753 
L 261.502045 38.194131 
L 263.031511 39.520452 
L 264.560976 42.397701 
L 266.090442 44.648907 
L 267.619907 40.060277 
L 269.149373 47.647081 
L 270.678838 51.606061 
L 272.208304 47.537913 
L 273.737769 45.099343 
L 275.267235 47.235038 
L 276.7967 47.082476 
L 278.326166 40.943384 
L 279.855631 34.11998 
L 281.385097 33.505627 
L 282.914562 30.382978 
L 285.973493 40.645671 
L 287.502959 37.516869 
L 289.032424 40.774471 
L 290.56189 40.056928 
L 292.091355 36.757677 
L 293.620821 31.585483 
L 295.150286 34.833441 
L 296.679752 27.295726 
L 298.209217 18.442395 
L 299.738683 29.320232 
L 301.268148 32.636937 
L 302.797614 42.641485 
L 304.327079 47.479757 
L 305.856545 45.228295 
L 307.38601 48.971207 
L 310.444941 43.835788 
L 311.974407 50.219693 
L 313.503872 58.353298 
L 315.033338 53.824227 
L 316.562803 53.160881 
L 318.092269 44.114753 
L 319.621734 48.279105 
L 321.1512 41.802054 
L 322.680665 43.656668 
L 324.210131 41.153284 
L 325.739596 43.236679 
L 327.269062 35.558832 
L 328.798527 41.394437 
L 330.327993 43.007084 
L 331.857458 36.358849 
L 333.386924 32.513391 
L 334.916389 33.518467 
L 336.445855 39.280496 
L 337.97532 42.86947 
L 339.504786 37.916334 
L 341.034252 38.787778 
L 342.563717 29.343305 
L 344.093183 30.780241 
L 345.622648 39.209778 
L 347.152114 38.467171 
L 348.681579 40.684594 
L 350.211045 37.371904 
L 351.74051 39.930894 
L 353.269976 46.382189 
L 354.799441 43.747295 
L 356.328907 45.623097 
L 357.858372 41.810658 
L 359.387838 44.305462 
L 360.917303 38.069225 
L 362.446769 41.272014 
L 363.976234 48.0363 
L 365.5057 51.153695 
L 367.035165 42.266213 
L 368.564631 48.59844 
L 368.564631 48.59844 
" clip-path="url(#pf1a2dc47f1)" style="fill: none; stroke: #d62728; stroke-width: 1.5; stroke-linecap: square"/>
   </g>
  </g>
 </g>
 <defs>
  <clipPath id="pf1a2dc47f1">
   <rect x="48.982813" y="7.2" width="334.8" height="221.76"/>
  </clipPath>
 </defs>
</svg>
