<?xml version="1.0" encoding="UTF-8" standalone="no"?>
<!DOCTYPE svg PUBLIC "-//W3C//DTD SVG 1.1//EN"
 "http://www.w3.org/Graphics/SVG/1.1/DTD/svg11.dtd">
<!-- Generated by graphviz version 2.43.0 (0)
 -->
<!-- Title: %3 Pages: 1 -->
<svg width="534pt" height="258pt"
 viewBox="0.00 0.00 534.00 258.05" xmlns="http://www.w3.org/2000/svg" xmlns:xlink="http://www.w3.org/1999/xlink">
<g id="graph0" class="graph" transform="scale(1 1) rotate(0) translate(4 254.05)">
<title>%3</title>
<polygon fill="white" stroke="transparent" points="-4,4 -4,-254.05 530,-254.05 530,4 -4,4"/>
<!-- b38b3e818396439db30cc982e95f4a68 -->
<g id="node1" class="node">
<title>b38b3e818396439db30cc982e95f4a68</title>
<polygon fill="none" stroke="black" points="201.5,-250.05 13.5,-250.05 13.5,-227.05 201.5,-227.05 201.5,-250.05"/>
<text text-anchor="middle" x="107.5" y="-234.85" font-family="Times,serif" font-size="14.00">Widget &lt;IntSlider: int&gt;</text>
</g>
<!-- ec5e1802d5764473be7b62e0b578a032 -->
<g id="node2" class="node">
<title>ec5e1802d5764473be7b62e0b578a032</title>
<polygon fill="none" stroke="black" points="223,-176.05 0,-176.05 0,-153.05 223,-153.05 223,-176.05"/>
<text text-anchor="middle" x="111.5" y="-160.85" font-family="Times,serif" font-size="14.00">gaussian_filter(arg_0, sigma)</text>
</g>
<!-- b38b3e818396439db30cc982e95f4a68&#45;&gt;ec5e1802d5764473be7b62e0b578a032 -->
<g id="edge1" class="edge">
<title>b38b3e818396439db30cc982e95f4a68&#45;&gt;ec5e1802d5764473be7b62e0b578a032</title>
<path fill="none" stroke="black" d="M108.09,-226.93C108.68,-216.29 109.61,-199.65 110.34,-186.37"/>
<polygon fill="black" stroke="black" points="113.85,-186.4 110.91,-176.22 106.86,-186.01 113.85,-186.4"/>
<text text-anchor="middle" x="132" y="-197.85" font-family="Times,serif" font-size="14.00">sigma</text>
</g>
<!-- c842030d3fa541c18ec66a1ba52a5e36 -->
<g id="node3" class="node">
<title>c842030d3fa541c18ec66a1ba52a5e36</title>
<polygon fill="none" stroke="black" points="373,-97.29 240,-97.29 240,-74.29 373,-74.29 373,-97.29"/>
<text text-anchor="middle" x="306.5" y="-82.09" font-family="Times,serif" font-size="14.00">sum(arg_0, dim)</text>
</g>
<!-- ec5e1802d5764473be7b62e0b578a032&#45;&gt;c842030d3fa541c18ec66a1ba52a5e36 -->
<g id="edge3" class="edge">
<title>ec5e1802d5764473be7b62e0b578a032&#45;&gt;c842030d3fa541c18ec66a1ba52a5e36</title>
<path fill="none" stroke="black" d="M138.21,-153.04C172.39,-139.58 231.76,-116.21 270.07,-101.13"/>
<polygon fill="black" stroke="black" points="271.78,-104.22 279.81,-97.3 269.22,-97.71 271.78,-104.22"/>
<text text-anchor="middle" x="240.5" y="-123.85" font-family="Times,serif" font-size="14.00">arg_0</text>
</g>
<!-- 3e87d018d22a4d8fa545c375fbce3264 -->
<g id="node9" class="node">
<title>3e87d018d22a4d8fa545c375fbce3264</title>
<ellipse fill="lightgrey" stroke="lightgrey" cx="111.5" cy="-85.79" rx="84.71" ry="16.03"/>
<text text-anchor="middle" x="111.5" y="-82.09" font-family="Times,serif" font-size="14.00">GraphicalView</text>
</g>
<!-- ec5e1802d5764473be7b62e0b578a032&#45;&gt;3e87d018d22a4d8fa545c375fbce3264 -->
<g id="edge2" class="edge">
<title>ec5e1802d5764473be7b62e0b578a032&#45;&gt;3e87d018d22a4d8fa545c375fbce3264</title>
<path fill="none" stroke="black" d="M111.5,-152.88C111.5,-142.48 111.5,-126.26 111.5,-112.5"/>
<polygon fill="black" stroke="black" points="115,-112.14 111.5,-102.14 108,-112.14 115,-112.14"/>
</g>
<!-- c176c76b7c714998a35d379e781691a7 -->
<g id="node8" class="node">
<title>c176c76b7c714998a35d379e781691a7</title>
<ellipse fill="lightgrey" stroke="lightgrey" cx="367.5" cy="-16.26" rx="84.71" ry="16.03"/>
<text text-anchor="middle" x="367.5" y="-12.56" font-family="Times,serif" font-size="14.00">GraphicalView</text>
</g>
<!-- c842030d3fa541c18ec66a1ba52a5e36&#45;&gt;c176c76b7c714998a35d379e781691a7 -->
<g id="edge5" class="edge">
<title>c842030d3fa541c18ec66a1ba52a5e36&#45;&gt;c176c76b7c714998a35d379e781691a7</title>
<path fill="none" stroke="black" d="M316.03,-74.24C324.25,-65.14 336.42,-51.67 346.85,-40.12"/>
<polygon fill="black" stroke="black" points="349.63,-42.27 353.73,-32.5 344.43,-37.58 349.63,-42.27"/>
</g>
<!-- c306b85b0dc24f0eb1962bb9407b69ff -->
<g id="node4" class="node">
<title>c306b85b0dc24f0eb1962bb9407b69ff</title>
<polygon fill="none" stroke="black" points="372,-176.05 241,-176.05 241,-153.05 372,-153.05 372,-176.05"/>
<text text-anchor="middle" x="306.5" y="-160.85" font-family="Times,serif" font-size="14.00">Input &lt;str=&#39;y&#39;&gt;</text>
</g>
<!-- c306b85b0dc24f0eb1962bb9407b69ff&#45;&gt;c842030d3fa541c18ec66a1ba52a5e36 -->
<g id="edge4" class="edge">
<title>c306b85b0dc24f0eb1962bb9407b69ff&#45;&gt;c842030d3fa541c18ec66a1ba52a5e36</title>
<path fill="none" stroke="black" d="M306.5,-152.88C306.5,-141.19 306.5,-122.17 306.5,-107.52"/>
<polygon fill="black" stroke="black" points="310,-107.37 306.5,-97.37 303,-107.37 310,-107.37"/>
<text text-anchor="middle" x="320.5" y="-123.85" font-family="Times,serif" font-size="14.00">dim</text>
</g>
<!-- f531af9350db48f2a47d85b4af4e1d17 -->
<g id="node5" class="node">
<title>f531af9350db48f2a47d85b4af4e1d17</title>
<polygon fill="none" stroke="black" points="523,-176.05 390,-176.05 390,-153.05 523,-153.05 523,-176.05"/>
<text text-anchor="middle" x="456.5" y="-160.85" font-family="Times,serif" font-size="14.00">sum(arg_0, dim)</text>
</g>
<!-- f531af9350db48f2a47d85b4af4e1d17&#45;&gt;c176c76b7c714998a35d379e781691a7 -->
<g id="edge9" class="edge">
<title>f531af9350db48f2a47d85b4af4e1d17&#45;&gt;c176c76b7c714998a35d379e781691a7</title>
<path fill="none" stroke="black" d="M450.1,-153.03C436.02,-129.9 402.07,-74.09 382.36,-41.68"/>
<polygon fill="black" stroke="black" points="385.15,-39.55 376.97,-32.82 379.17,-43.19 385.15,-39.55"/>
</g>
<!-- e47a807af30d49669ca23df0d0b19b17 -->
<g id="node6" class="node">
<title>e47a807af30d49669ca23df0d0b19b17</title>
<polygon fill="none" stroke="black" points="377,-250.05 220,-250.05 220,-227.05 377,-227.05 377,-250.05"/>
<text text-anchor="middle" x="298.5" y="-234.85" font-family="Times,serif" font-size="14.00">Input &lt;DataArray&gt;</text>
</g>
<!-- e47a807af30d49669ca23df0d0b19b17&#45;&gt;ec5e1802d5764473be7b62e0b578a032 -->
<g id="edge6" class="edge">
<title>e47a807af30d49669ca23df0d0b19b17&#45;&gt;ec5e1802d5764473be7b62e0b578a032</title>
<path fill="none" stroke="black" d="M270.91,-226.93C238.5,-214.45 184.59,-193.7 148.56,-179.82"/>
<polygon fill="black" stroke="black" points="149.49,-176.43 138.9,-176.1 146.98,-182.96 149.49,-176.43"/>
<text text-anchor="middle" x="241.5" y="-197.85" font-family="Times,serif" font-size="14.00">arg_0</text>
</g>
<!-- e47a807af30d49669ca23df0d0b19b17&#45;&gt;f531af9350db48f2a47d85b4af4e1d17 -->
<g id="edge7" class="edge">
<title>e47a807af30d49669ca23df0d0b19b17&#45;&gt;f531af9350db48f2a47d85b4af4e1d17</title>
<path fill="none" stroke="black" d="M321.81,-226.93C348.85,-214.61 393.58,-194.23 424.01,-180.36"/>
<polygon fill="black" stroke="black" points="425.7,-183.44 433.35,-176.1 422.8,-177.07 425.7,-183.44"/>
<text text-anchor="middle" x="411.5" y="-197.85" font-family="Times,serif" font-size="14.00">arg_0</text>
</g>
<!-- 2487435983624a47843d5f4c2f62c2c6 -->
<g id="node7" class="node">
<title>2487435983624a47843d5f4c2f62c2c6</title>
<polygon fill="none" stroke="black" points="526,-250.05 395,-250.05 395,-227.05 526,-227.05 526,-250.05"/>
<text text-anchor="middle" x="460.5" y="-234.85" font-family="Times,serif" font-size="14.00">Input &lt;str=&#39;y&#39;&gt;</text>
</g>
<!-- 2487435983624a47843d5f4c2f62c2c6&#45;&gt;f531af9350db48f2a47d85b4af4e1d17 -->
<g id="edge8" class="edge">
<title>2487435983624a47843d5f4c2f62c2c6&#45;&gt;f531af9350db48f2a47d85b4af4e1d17</title>
<path fill="none" stroke="black" d="M459.91,-226.93C459.32,-216.29 458.39,-199.65 457.66,-186.37"/>
<polygon fill="black" stroke="black" points="461.14,-186.01 457.09,-176.22 454.15,-186.4 461.14,-186.01"/>
<text text-anchor="middle" x="472.5" y="-197.85" font-family="Times,serif" font-size="14.00">dim</text>
</g>
</g>
</svg>
