<?xml version="1.0" encoding="utf-8" standalone="no"?>
<!DOCTYPE svg PUBLIC "-//W3C//DTD SVG 1.1//EN"
  "http://www.w3.org/Graphics/SVG/1.1/DTD/svg11.dtd">
<svg xmlns:xlink="http://www.w3.org/1999/xlink" width="424.442812pt" height="279.99625pt" viewBox="0 0 424.442812 279.99625" xmlns="http://www.w3.org/2000/svg" version="1.1">
 <metadata>
  <rdf:RDF xmlns:dc="http://purl.org/dc/elements/1.1/" xmlns:cc="http://creativecommons.org/ns#" xmlns:rdf="http://www.w3.org/1999/02/22-rdf-syntax-ns#">
   <cc:Work>
    <dc:type rdf:resource="http://purl.org/dc/dcmitype/StillImage"/>
    <dc:date>2024-02-19T11:02:05.830534</dc:date>
    <dc:format>image/svg+xml</dc:format>
    <dc:creator>
     <cc:Agent>
      <dc:title>Matplotlib v3.8.2, https://matplotlib.org/</dc:title>
     </cc:Agent>
    </dc:creator>
   </cc:Work>
  </rdf:RDF>
 </metadata>
 <defs>
  <style type="text/css">*{stroke-linejoin: round; stroke-linecap: butt}</style>
 </defs>
 <g id="figure_1">
  <g id="patch_1">
   <path d="M 0 279.99625 
L 424.442812 279.99625 
L 424.442812 0 
L 0 0 
z
" style="fill: #ffffff"/>
  </g>
  <g id="axes_1">
   <g id="patch_2">
    <path d="M 48.982813 242.44 
L 417.242812 242.44 
L 417.242812 7.2 
L 48.982813 7.2 
z
" style="fill: #ffffff"/>
   </g>
   <g id="matplotlib.axis_1">
    <g id="xtick_1">
     <g id="line2d_1">
      <defs>
       <path id="m948c7bb56f" d="M 0 0 
L 0 3.5 
" style="stroke: #000000; stroke-width: 0.8"/>
      </defs>
      <g>
       <use xlink:href="#m948c7bb56f" x="65.721903" y="242.44" style="stroke: #000000; stroke-width: 0.8"/>
      </g>
     </g>
     <g id="text_1">
      <!-- 2000-01 -->
      <g transform="translate(44.830497 257.038437) scale(0.1 -0.1)">
       <defs>
        <path id="DejaVuSans-32" d="M 1228 531 
L 3431 531 
L 3431 0 
L 469 0 
L 469 531 
Q 828 903 1448 1529 
Q 2069 2156 2228 2338 
Q 2531 2678 2651 2914 
Q 2772 3150 2772 3378 
Q 2772 3750 2511 3984 
Q 2250 4219 1831 4219 
Q 1534 4219 1204 4116 
Q 875 4013 500 3803 
L 500 4441 
Q 881 4594 1212 4672 
Q 1544 4750 1819 4750 
Q 2544 4750 2975 4387 
Q 3406 4025 3406 3419 
Q 3406 3131 3298 2873 
Q 3191 2616 2906 2266 
Q 2828 2175 2409 1742 
Q 1991 1309 1228 531 
z
" transform="scale(0.015625)"/>
        <path id="DejaVuSans-30" d="M 2034 4250 
Q 1547 4250 1301 3770 
Q 1056 3291 1056 2328 
Q 1056 1369 1301 889 
Q 1547 409 2034 409 
Q 2525 409 2770 889 
Q 3016 1369 3016 2328 
Q 3016 3291 2770 3770 
Q 2525 4250 2034 4250 
z
M 2034 4750 
Q 2819 4750 3233 4129 
Q 3647 3509 3647 2328 
Q 3647 1150 3233 529 
Q 2819 -91 2034 -91 
Q 1250 -91 836 529 
Q 422 1150 422 2328 
Q 422 3509 836 4129 
Q 1250 4750 2034 4750 
z
" transform="scale(0.015625)"/>
        <path id="DejaVuSans-2d" d="M 313 2009 
L 1997 2009 
L 1997 1497 
L 313 1497 
L 313 2009 
z
" transform="scale(0.015625)"/>
        <path id="DejaVuSans-31" d="M 794 531 
L 1825 531 
L 1825 4091 
L 703 3866 
L 703 4441 
L 1819 4666 
L 2450 4666 
L 2450 531 
L 3481 531 
L 3481 0 
L 794 0 
L 794 531 
z
" transform="scale(0.015625)"/>
       </defs>
       <use xlink:href="#DejaVuSans-32"/>
       <use xlink:href="#DejaVuSans-30" x="63.623047"/>
       <use xlink:href="#DejaVuSans-30" x="127.246094"/>
       <use xlink:href="#DejaVuSans-30" x="190.869141"/>
       <use xlink:href="#DejaVuSans-2d" x="254.492188"/>
       <use xlink:href="#DejaVuSans-30" x="290.576172"/>
       <use xlink:href="#DejaVuSans-31" x="354.199219"/>
      </g>
     </g>
    </g>
    <g id="xtick_2">
     <g id="line2d_2">
      <g>
       <use xlink:href="#m948c7bb56f" x="117.873845" y="242.44" style="stroke: #000000; stroke-width: 0.8"/>
      </g>
     </g>
     <g id="text_2">
      <!-- 2000-02 -->
      <g transform="translate(96.982439 257.038437) scale(0.1 -0.1)">
       <use xlink:href="#DejaVuSans-32"/>
       <use xlink:href="#DejaVuSans-30" x="63.623047"/>
       <use xlink:href="#DejaVuSans-30" x="127.246094"/>
       <use xlink:href="#DejaVuSans-30" x="190.869141"/>
       <use xlink:href="#DejaVuSans-2d" x="254.492188"/>
       <use xlink:href="#DejaVuSans-30" x="290.576172"/>
       <use xlink:href="#DejaVuSans-32" x="354.199219"/>
      </g>
     </g>
    </g>
    <g id="xtick_3">
     <g id="line2d_3">
      <g>
       <use xlink:href="#m948c7bb56f" x="166.661145" y="242.44" style="stroke: #000000; stroke-width: 0.8"/>
      </g>
     </g>
     <g id="text_3">
      <!-- 2000-03 -->
      <g transform="translate(145.769739 257.038437) scale(0.1 -0.1)">
       <defs>
        <path id="DejaVuSans-33" d="M 2597 2516 
Q 3050 2419 3304 2112 
Q 3559 1806 3559 1356 
Q 3559 666 3084 287 
Q 2609 -91 1734 -91 
Q 1441 -91 1130 -33 
Q 819 25 488 141 
L 488 750 
Q 750 597 1062 519 
Q 1375 441 1716 441 
Q 2309 441 2620 675 
Q 2931 909 2931 1356 
Q 2931 1769 2642 2001 
Q 2353 2234 1838 2234 
L 1294 2234 
L 1294 2753 
L 1863 2753 
Q 2328 2753 2575 2939 
Q 2822 3125 2822 3475 
Q 2822 3834 2567 4026 
Q 2313 4219 1838 4219 
Q 1578 4219 1281 4162 
Q 984 4106 628 3988 
L 628 4550 
Q 988 4650 1302 4700 
Q 1616 4750 1894 4750 
Q 2613 4750 3031 4423 
Q 3450 4097 3450 3541 
Q 3450 3153 3228 2886 
Q 3006 2619 2597 2516 
z
" transform="scale(0.015625)"/>
       </defs>
       <use xlink:href="#DejaVuSans-32"/>
       <use xlink:href="#DejaVuSans-30" x="63.623047"/>
       <use xlink:href="#DejaVuSans-30" x="127.246094"/>
       <use xlink:href="#DejaVuSans-30" x="190.869141"/>
       <use xlink:href="#DejaVuSans-2d" x="254.492188"/>
       <use xlink:href="#DejaVuSans-30" x="290.576172"/>
       <use xlink:href="#DejaVuSans-33" x="354.199219"/>
      </g>
     </g>
    </g>
    <g id="xtick_4">
     <g id="line2d_4">
      <g>
       <use xlink:href="#m948c7bb56f" x="218.813087" y="242.44" style="stroke: #000000; stroke-width: 0.8"/>
      </g>
     </g>
     <g id="text_4">
      <!-- 2000-04 -->
      <g transform="translate(197.92168 257.038437) scale(0.1 -0.1)">
       <defs>
        <path id="DejaVuSans-34" d="M 2419 4116 
L 825 1625 
L 2419 1625 
L 2419 4116 
z
M 2253 4666 
L 3047 4666 
L 3047 1625 
L 3713 1625 
L 3713 1100 
L 3047 1100 
L 3047 0 
L 2419 0 
L 2419 1100 
L 313 1100 
L 313 1709 
L 2253 4666 
z
" transform="scale(0.015625)"/>
       </defs>
       <use xlink:href="#DejaVuSans-32"/>
       <use xlink:href="#DejaVuSans-30" x="63.623047"/>
       <use xlink:href="#DejaVuSans-30" x="127.246094"/>
       <use xlink:href="#DejaVuSans-30" x="190.869141"/>
       <use xlink:href="#DejaVuSans-2d" x="254.492188"/>
       <use xlink:href="#DejaVuSans-30" x="290.576172"/>
       <use xlink:href="#DejaVuSans-34" x="354.199219"/>
      </g>
     </g>
    </g>
    <g id="xtick_5">
     <g id="line2d_5">
      <g>
       <use xlink:href="#m948c7bb56f" x="269.282707" y="242.44" style="stroke: #000000; stroke-width: 0.8"/>
      </g>
     </g>
     <g id="text_5">
      <!-- 2000-05 -->
      <g transform="translate(248.391301 257.038437) scale(0.1 -0.1)">
       <defs>
        <path id="DejaVuSans-35" d="M 691 4666 
L 3169 4666 
L 3169 4134 
L 1269 4134 
L 1269 2991 
Q 1406 3038 1543 3061 
Q 1681 3084 1819 3084 
Q 2600 3084 3056 2656 
Q 3513 2228 3513 1497 
Q 3513 744 3044 326 
Q 2575 -91 1722 -91 
Q 1428 -91 1123 -41 
Q 819 9 494 109 
L 494 744 
Q 775 591 1075 516 
Q 1375 441 1709 441 
Q 2250 441 2565 725 
Q 2881 1009 2881 1497 
Q 2881 1984 2565 2268 
Q 2250 2553 1709 2553 
Q 1456 2553 1204 2497 
Q 953 2441 691 2322 
L 691 4666 
z
" transform="scale(0.015625)"/>
       </defs>
       <use xlink:href="#DejaVuSans-32"/>
       <use xlink:href="#DejaVuSans-30" x="63.623047"/>
       <use xlink:href="#DejaVuSans-30" x="127.246094"/>
       <use xlink:href="#DejaVuSans-30" x="190.869141"/>
       <use xlink:href="#DejaVuSans-2d" x="254.492188"/>
       <use xlink:href="#DejaVuSans-30" x="290.576172"/>
       <use xlink:href="#DejaVuSans-35" x="354.199219"/>
      </g>
     </g>
    </g>
    <g id="xtick_6">
     <g id="line2d_6">
      <g>
       <use xlink:href="#m948c7bb56f" x="321.434649" y="242.44" style="stroke: #000000; stroke-width: 0.8"/>
      </g>
     </g>
     <g id="text_6">
      <!-- 2000-06 -->
      <g transform="translate(300.543243 257.038437) scale(0.1 -0.1)">
       <defs>
        <path id="DejaVuSans-36" d="M 2113 2584 
Q 1688 2584 1439 2293 
Q 1191 2003 1191 1497 
Q 1191 994 1439 701 
Q 1688 409 2113 409 
Q 2538 409 2786 701 
Q 3034 994 3034 1497 
Q 3034 2003 2786 2293 
Q 2538 2584 2113 2584 
z
M 3366 4563 
L 3366 3988 
Q 3128 4100 2886 4159 
Q 2644 4219 2406 4219 
Q 1781 4219 1451 3797 
Q 1122 3375 1075 2522 
Q 1259 2794 1537 2939 
Q 1816 3084 2150 3084 
Q 2853 3084 3261 2657 
Q 3669 2231 3669 1497 
Q 3669 778 3244 343 
Q 2819 -91 2113 -91 
Q 1303 -91 875 529 
Q 447 1150 447 2328 
Q 447 3434 972 4092 
Q 1497 4750 2381 4750 
Q 2619 4750 2861 4703 
Q 3103 4656 3366 4563 
z
" transform="scale(0.015625)"/>
       </defs>
       <use xlink:href="#DejaVuSans-32"/>
       <use xlink:href="#DejaVuSans-30" x="63.623047"/>
       <use xlink:href="#DejaVuSans-30" x="127.246094"/>
       <use xlink:href="#DejaVuSans-30" x="190.869141"/>
       <use xlink:href="#DejaVuSans-2d" x="254.492188"/>
       <use xlink:href="#DejaVuSans-30" x="290.576172"/>
       <use xlink:href="#DejaVuSans-36" x="354.199219"/>
      </g>
     </g>
    </g>
    <g id="xtick_7">
     <g id="line2d_7">
      <g>
       <use xlink:href="#m948c7bb56f" x="371.90427" y="242.44" style="stroke: #000000; stroke-width: 0.8"/>
      </g>
     </g>
     <g id="text_7">
      <!-- 2000-07 -->
      <g transform="translate(351.012864 257.038437) scale(0.1 -0.1)">
       <defs>
        <path id="DejaVuSans-37" d="M 525 4666 
L 3525 4666 
L 3525 4397 
L 1831 0 
L 1172 0 
L 2766 4134 
L 525 4134 
L 525 4666 
z
" transform="scale(0.015625)"/>
       </defs>
       <use xlink:href="#DejaVuSans-32"/>
       <use xlink:href="#DejaVuSans-30" x="63.623047"/>
       <use xlink:href="#DejaVuSans-30" x="127.246094"/>
       <use xlink:href="#DejaVuSans-30" x="190.869141"/>
       <use xlink:href="#DejaVuSans-2d" x="254.492188"/>
       <use xlink:href="#DejaVuSans-30" x="290.576172"/>
       <use xlink:href="#DejaVuSans-37" x="354.199219"/>
      </g>
     </g>
    </g>
    <g id="text_8">
     <!-- row [datetime] -->
     <g transform="translate(195.959687 270.716562) scale(0.1 -0.1)">
      <defs>
       <path id="DejaVuSans-72" d="M 2631 2963 
Q 2534 3019 2420 3045 
Q 2306 3072 2169 3072 
Q 1681 3072 1420 2755 
Q 1159 2438 1159 1844 
L 1159 0 
L 581 0 
L 581 3500 
L 1159 3500 
L 1159 2956 
Q 1341 3275 1631 3429 
Q 1922 3584 2338 3584 
Q 2397 3584 2469 3576 
Q 2541 3569 2628 3553 
L 2631 2963 
z
" transform="scale(0.015625)"/>
       <path id="DejaVuSans-6f" d="M 1959 3097 
Q 1497 3097 1228 2736 
Q 959 2375 959 1747 
Q 959 1119 1226 758 
Q 1494 397 1959 397 
Q 2419 397 2687 759 
Q 2956 1122 2956 1747 
Q 2956 2369 2687 2733 
Q 2419 3097 1959 3097 
z
M 1959 3584 
Q 2709 3584 3137 3096 
Q 3566 2609 3566 1747 
Q 3566 888 3137 398 
Q 2709 -91 1959 -91 
Q 1206 -91 779 398 
Q 353 888 353 1747 
Q 353 2609 779 3096 
Q 1206 3584 1959 3584 
z
" transform="scale(0.015625)"/>
       <path id="DejaVuSans-77" d="M 269 3500 
L 844 3500 
L 1563 769 
L 2278 3500 
L 2956 3500 
L 3675 769 
L 4391 3500 
L 4966 3500 
L 4050 0 
L 3372 0 
L 2619 2869 
L 1863 0 
L 1184 0 
L 269 3500 
z
" transform="scale(0.015625)"/>
       <path id="DejaVuSans-20" transform="scale(0.015625)"/>
       <path id="DejaVuSans-5b" d="M 550 4863 
L 1875 4863 
L 1875 4416 
L 1125 4416 
L 1125 -397 
L 1875 -397 
L 1875 -844 
L 550 -844 
L 550 4863 
z
" transform="scale(0.015625)"/>
       <path id="DejaVuSans-64" d="M 2906 2969 
L 2906 4863 
L 3481 4863 
L 3481 0 
L 2906 0 
L 2906 525 
Q 2725 213 2448 61 
Q 2172 -91 1784 -91 
Q 1150 -91 751 415 
Q 353 922 353 1747 
Q 353 2572 751 3078 
Q 1150 3584 1784 3584 
Q 2172 3584 2448 3432 
Q 2725 3281 2906 2969 
z
M 947 1747 
Q 947 1113 1208 752 
Q 1469 391 1925 391 
Q 2381 391 2643 752 
Q 2906 1113 2906 1747 
Q 2906 2381 2643 2742 
Q 2381 3103 1925 3103 
Q 1469 3103 1208 2742 
Q 947 2381 947 1747 
z
" transform="scale(0.015625)"/>
       <path id="DejaVuSans-61" d="M 2194 1759 
Q 1497 1759 1228 1600 
Q 959 1441 959 1056 
Q 959 750 1161 570 
Q 1363 391 1709 391 
Q 2188 391 2477 730 
Q 2766 1069 2766 1631 
L 2766 1759 
L 2194 1759 
z
M 3341 1997 
L 3341 0 
L 2766 0 
L 2766 531 
Q 2569 213 2275 61 
Q 1981 -91 1556 -91 
Q 1019 -91 701 211 
Q 384 513 384 1019 
Q 384 1609 779 1909 
Q 1175 2209 1959 2209 
L 2766 2209 
L 2766 2266 
Q 2766 2663 2505 2880 
Q 2244 3097 1772 3097 
Q 1472 3097 1187 3025 
Q 903 2953 641 2809 
L 641 3341 
Q 956 3463 1253 3523 
Q 1550 3584 1831 3584 
Q 2591 3584 2966 3190 
Q 3341 2797 3341 1997 
z
" transform="scale(0.015625)"/>
       <path id="DejaVuSans-74" d="M 1172 4494 
L 1172 3500 
L 2356 3500 
L 2356 3053 
L 1172 3053 
L 1172 1153 
Q 1172 725 1289 603 
Q 1406 481 1766 481 
L 2356 481 
L 2356 0 
L 1766 0 
Q 1100 0 847 248 
Q 594 497 594 1153 
L 594 3053 
L 172 3053 
L 172 3500 
L 594 3500 
L 594 4494 
L 1172 4494 
z
" transform="scale(0.015625)"/>
       <path id="DejaVuSans-65" d="M 3597 1894 
L 3597 1613 
L 953 1613 
Q 991 1019 1311 708 
Q 1631 397 2203 397 
Q 2534 397 2845 478 
Q 3156 559 3463 722 
L 3463 178 
Q 3153 47 2828 -22 
Q 2503 -91 2169 -91 
Q 1331 -91 842 396 
Q 353 884 353 1716 
Q 353 2575 817 3079 
Q 1281 3584 2069 3584 
Q 2775 3584 3186 3129 
Q 3597 2675 3597 1894 
z
M 3022 2063 
Q 3016 2534 2758 2815 
Q 2500 3097 2075 3097 
Q 1594 3097 1305 2825 
Q 1016 2553 972 2059 
L 3022 2063 
z
" transform="scale(0.015625)"/>
       <path id="DejaVuSans-69" d="M 603 3500 
L 1178 3500 
L 1178 0 
L 603 0 
L 603 3500 
z
M 603 4863 
L 1178 4863 
L 1178 4134 
L 603 4134 
L 603 4863 
z
" transform="scale(0.015625)"/>
       <path id="DejaVuSans-6d" d="M 3328 2828 
Q 3544 3216 3844 3400 
Q 4144 3584 4550 3584 
Q 5097 3584 5394 3201 
Q 5691 2819 5691 2113 
L 5691 0 
L 5113 0 
L 5113 2094 
Q 5113 2597 4934 2840 
Q 4756 3084 4391 3084 
Q 3944 3084 3684 2787 
Q 3425 2491 3425 1978 
L 3425 0 
L 2847 0 
L 2847 2094 
Q 2847 2600 2669 2842 
Q 2491 3084 2119 3084 
Q 1678 3084 1418 2786 
Q 1159 2488 1159 1978 
L 1159 0 
L 581 0 
L 581 3500 
L 1159 3500 
L 1159 2956 
Q 1356 3278 1631 3431 
Q 1906 3584 2284 3584 
Q 2666 3584 2933 3390 
Q 3200 3197 3328 2828 
z
" transform="scale(0.015625)"/>
       <path id="DejaVuSans-5d" d="M 1947 4863 
L 1947 -844 
L 622 -844 
L 622 -397 
L 1369 -397 
L 1369 4416 
L 622 4416 
L 622 4863 
L 1947 4863 
z
" transform="scale(0.015625)"/>
      </defs>
      <use xlink:href="#DejaVuSans-72"/>
      <use xlink:href="#DejaVuSans-6f" x="38.863281"/>
      <use xlink:href="#DejaVuSans-77" x="100.044922"/>
      <use xlink:href="#DejaVuSans-20" x="181.832031"/>
      <use xlink:href="#DejaVuSans-5b" x="213.619141"/>
      <use xlink:href="#DejaVuSans-64" x="252.632812"/>
      <use xlink:href="#DejaVuSans-61" x="316.109375"/>
      <use xlink:href="#DejaVuSans-74" x="377.388672"/>
      <use xlink:href="#DejaVuSans-65" x="416.597656"/>
      <use xlink:href="#DejaVuSans-74" x="478.121094"/>
      <use xlink:href="#DejaVuSans-69" x="517.330078"/>
      <use xlink:href="#DejaVuSans-6d" x="545.113281"/>
      <use xlink:href="#DejaVuSans-65" x="642.525391"/>
      <use xlink:href="#DejaVuSans-5d" x="704.048828"/>
     </g>
    </g>
   </g>
   <g id="matplotlib.axis_2">
    <g id="ytick_1">
     <g id="line2d_8">
      <defs>
       <path id="m211aa46f7d" d="M 0 0 
L -3.5 0 
" style="stroke: #000000; stroke-width: 0.8"/>
      </defs>
      <g>
       <use xlink:href="#m211aa46f7d" x="48.982813" y="229.376626" style="stroke: #000000; stroke-width: 0.8"/>
      </g>
     </g>
     <g id="text_9">
      <!-- −15 -->
      <g transform="translate(20.878125 233.175845) scale(0.1 -0.1)">
       <defs>
        <path id="DejaVuSans-2212" d="M 678 2272 
L 4684 2272 
L 4684 1741 
L 678 1741 
L 678 2272 
z
" transform="scale(0.015625)"/>
       </defs>
       <use xlink:href="#DejaVuSans-2212"/>
       <use xlink:href="#DejaVuSans-31" x="83.789062"/>
       <use xlink:href="#DejaVuSans-35" x="147.412109"/>
      </g>
     </g>
    </g>
    <g id="ytick_2">
     <g id="line2d_9">
      <g>
       <use xlink:href="#m211aa46f7d" x="48.982813" y="201.498654" style="stroke: #000000; stroke-width: 0.8"/>
      </g>
     </g>
     <g id="text_10">
      <!-- −10 -->
      <g transform="translate(20.878125 205.297872) scale(0.1 -0.1)">
       <use xlink:href="#DejaVuSans-2212"/>
       <use xlink:href="#DejaVuSans-31" x="83.789062"/>
       <use xlink:href="#DejaVuSans-30" x="147.412109"/>
      </g>
     </g>
    </g>
    <g id="ytick_3">
     <g id="line2d_10">
      <g>
       <use xlink:href="#m211aa46f7d" x="48.982813" y="173.620681" style="stroke: #000000; stroke-width: 0.8"/>
      </g>
     </g>
     <g id="text_11">
      <!-- −5 -->
      <g transform="translate(27.240625 177.4199) scale(0.1 -0.1)">
       <use xlink:href="#DejaVuSans-2212"/>
       <use xlink:href="#DejaVuSans-35" x="83.789062"/>
      </g>
     </g>
    </g>
    <g id="ytick_4">
     <g id="line2d_11">
      <g>
       <use xlink:href="#m211aa46f7d" x="48.982813" y="145.742709" style="stroke: #000000; stroke-width: 0.8"/>
      </g>
     </g>
     <g id="text_12">
      <!-- 0 -->
      <g transform="translate(35.620313 149.541928) scale(0.1 -0.1)">
       <use xlink:href="#DejaVuSans-30"/>
      </g>
     </g>
    </g>
    <g id="ytick_5">
     <g id="line2d_12">
      <g>
       <use xlink:href="#m211aa46f7d" x="48.982813" y="117.864737" style="stroke: #000000; stroke-width: 0.8"/>
      </g>
     </g>
     <g id="text_13">
      <!-- 5 -->
      <g transform="translate(35.620313 121.663955) scale(0.1 -0.1)">
       <use xlink:href="#DejaVuSans-35"/>
      </g>
     </g>
    </g>
    <g id="ytick_6">
     <g id="line2d_13">
      <g>
       <use xlink:href="#m211aa46f7d" x="48.982813" y="89.986764" style="stroke: #000000; stroke-width: 0.8"/>
      </g>
     </g>
     <g id="text_14">
      <!-- 10 -->
      <g transform="translate(29.257813 93.785983) scale(0.1 -0.1)">
       <use xlink:href="#DejaVuSans-31"/>
       <use xlink:href="#DejaVuSans-30" x="63.623047"/>
      </g>
     </g>
    </g>
    <g id="ytick_7">
     <g id="line2d_14">
      <g>
       <use xlink:href="#m211aa46f7d" x="48.982813" y="62.108792" style="stroke: #000000; stroke-width: 0.8"/>
      </g>
     </g>
     <g id="text_15">
      <!-- 15 -->
      <g transform="translate(29.257813 65.908011) scale(0.1 -0.1)">
       <use xlink:href="#DejaVuSans-31"/>
       <use xlink:href="#DejaVuSans-35" x="63.623047"/>
      </g>
     </g>
    </g>
    <g id="ytick_8">
     <g id="line2d_15">
      <g>
       <use xlink:href="#m211aa46f7d" x="48.982813" y="34.23082" style="stroke: #000000; stroke-width: 0.8"/>
      </g>
     </g>
     <g id="text_16">
      <!-- 20 -->
      <g transform="translate(29.257813 38.030038) scale(0.1 -0.1)">
       <use xlink:href="#DejaVuSans-32"/>
       <use xlink:href="#DejaVuSans-30" x="63.623047"/>
      </g>
     </g>
    </g>
    <g id="text_17">
     <!-- [dimensionless] -->
     <g transform="translate(14.798438 164.297344) rotate(-90) scale(0.1 -0.1)">
      <defs>
       <path id="DejaVuSans-6e" d="M 3513 2113 
L 3513 0 
L 2938 0 
L 2938 2094 
Q 2938 2591 2744 2837 
Q 2550 3084 2163 3084 
Q 1697 3084 1428 2787 
Q 1159 2491 1159 1978 
L 1159 0 
L 581 0 
L 581 3500 
L 1159 3500 
L 1159 2956 
Q 1366 3272 1645 3428 
Q 1925 3584 2291 3584 
Q 2894 3584 3203 3211 
Q 3513 2838 3513 2113 
z
" transform="scale(0.015625)"/>
       <path id="DejaVuSans-73" d="M 2834 3397 
L 2834 2853 
Q 2591 2978 2328 3040 
Q 2066 3103 1784 3103 
Q 1356 3103 1142 2972 
Q 928 2841 928 2578 
Q 928 2378 1081 2264 
Q 1234 2150 1697 2047 
L 1894 2003 
Q 2506 1872 2764 1633 
Q 3022 1394 3022 966 
Q 3022 478 2636 193 
Q 2250 -91 1575 -91 
Q 1294 -91 989 -36 
Q 684 19 347 128 
L 347 722 
Q 666 556 975 473 
Q 1284 391 1588 391 
Q 1994 391 2212 530 
Q 2431 669 2431 922 
Q 2431 1156 2273 1281 
Q 2116 1406 1581 1522 
L 1381 1569 
Q 847 1681 609 1914 
Q 372 2147 372 2553 
Q 372 3047 722 3315 
Q 1072 3584 1716 3584 
Q 2034 3584 2315 3537 
Q 2597 3491 2834 3397 
z
" transform="scale(0.015625)"/>
       <path id="DejaVuSans-6c" d="M 603 4863 
L 1178 4863 
L 1178 0 
L 603 0 
L 603 4863 
z
" transform="scale(0.015625)"/>
      </defs>
      <use xlink:href="#DejaVuSans-5b"/>
      <use xlink:href="#DejaVuSans-64" x="39.013672"/>
      <use xlink:href="#DejaVuSans-69" x="102.490234"/>
      <use xlink:href="#DejaVuSans-6d" x="130.273438"/>
      <use xlink:href="#DejaVuSans-65" x="227.685547"/>
      <use xlink:href="#DejaVuSans-6e" x="289.208984"/>
      <use xlink:href="#DejaVuSans-73" x="352.587891"/>
      <use xlink:href="#DejaVuSans-69" x="404.6875"/>
      <use xlink:href="#DejaVuSans-6f" x="432.470703"/>
      <use xlink:href="#DejaVuSans-6e" x="493.652344"/>
      <use xlink:href="#DejaVuSans-6c" x="557.03125"/>
      <use xlink:href="#DejaVuSans-65" x="584.814453"/>
      <use xlink:href="#DejaVuSans-73" x="646.337891"/>
      <use xlink:href="#DejaVuSans-73" x="698.4375"/>
      <use xlink:href="#DejaVuSans-5d" x="750.537109"/>
     </g>
    </g>
   </g>
   <g id="patch_3">
    <path d="M 48.982813 242.44 
L 48.982813 7.2 
" style="fill: none; stroke: #000000; stroke-width: 0.8; stroke-linejoin: miter; stroke-linecap: square"/>
   </g>
   <g id="patch_4">
    <path d="M 417.242812 242.44 
L 417.242812 7.2 
" style="fill: none; stroke: #000000; stroke-width: 0.8; stroke-linejoin: miter; stroke-linecap: square"/>
   </g>
   <g id="patch_5">
    <path d="M 48.982812 242.44 
L 417.242812 242.44 
" style="fill: none; stroke: #000000; stroke-width: 0.8; stroke-linejoin: miter; stroke-linecap: square"/>
   </g>
   <g id="patch_6">
    <path d="M 48.982812 7.2 
L 417.242812 7.2 
" style="fill: none; stroke: #000000; stroke-width: 0.8; stroke-linejoin: miter; stroke-linecap: square"/>
   </g>
   <g id="legend_1">
    <g id="patch_7">
     <path d="M 55.982813 73.9125 
L 95.682813 73.9125 
Q 97.682813 73.9125 97.682813 71.9125 
L 97.682813 14.2 
Q 97.682813 12.2 95.682813 12.2 
L 55.982813 12.2 
Q 53.982813 12.2 53.982813 14.2 
L 53.982813 71.9125 
Q 53.982813 73.9125 55.982813 73.9125 
z
" style="fill: #ffffff; opacity: 0.8; stroke: #cccccc; stroke-linejoin: miter"/>
    </g>
    <g id="line2d_16">
     <path d="M 57.982813 20.298437 
L 67.982813 20.298437 
L 77.982813 20.298437 
" style="fill: none; stroke: #1f77b4; stroke-width: 1.5; stroke-linecap: square"/>
    </g>
    <g id="text_18">
     <!-- A -->
     <g transform="translate(85.982813 23.798437) scale(0.1 -0.1)">
      <defs>
       <path id="DejaVuSans-41" d="M 2188 4044 
L 1331 1722 
L 3047 1722 
L 2188 4044 
z
M 1831 4666 
L 2547 4666 
L 4325 0 
L 3669 0 
L 3244 1197 
L 1141 1197 
L 716 0 
L 50 0 
L 1831 4666 
z
" transform="scale(0.015625)"/>
      </defs>
      <use xlink:href="#DejaVuSans-41"/>
     </g>
    </g>
    <g id="line2d_17">
     <path d="M 57.982813 34.976562 
L 67.982813 34.976562 
L 77.982813 34.976562 
" style="fill: none; stroke: #ff7f0e; stroke-width: 1.5; stroke-linecap: square"/>
    </g>
    <g id="text_19">
     <!-- B -->
     <g transform="translate(85.982813 38.476562) scale(0.1 -0.1)">
      <defs>
       <path id="DejaVuSans-42" d="M 1259 2228 
L 1259 519 
L 2272 519 
Q 2781 519 3026 730 
Q 3272 941 3272 1375 
Q 3272 1813 3026 2020 
Q 2781 2228 2272 2228 
L 1259 2228 
z
M 1259 4147 
L 1259 2741 
L 2194 2741 
Q 2656 2741 2882 2914 
Q 3109 3088 3109 3444 
Q 3109 3797 2882 3972 
Q 2656 4147 2194 4147 
L 1259 4147 
z
M 628 4666 
L 2241 4666 
Q 2963 4666 3353 4366 
Q 3744 4066 3744 3513 
Q 3744 3084 3544 2831 
Q 3344 2578 2956 2516 
Q 3422 2416 3680 2098 
Q 3938 1781 3938 1306 
Q 3938 681 3513 340 
Q 3088 0 2303 0 
L 628 0 
L 628 4666 
z
" transform="scale(0.015625)"/>
      </defs>
      <use xlink:href="#DejaVuSans-42"/>
     </g>
    </g>
    <g id="line2d_18">
     <path d="M 57.982813 49.654687 
L 67.982813 49.654687 
L 77.982813 49.654687 
" style="fill: none; stroke: #2ca02c; stroke-width: 1.5; stroke-linecap: square"/>
    </g>
    <g id="text_20">
     <!-- C -->
     <g transform="translate(85.982813 53.154687) scale(0.1 -0.1)">
      <defs>
       <path id="DejaVuSans-43" d="M 4122 4306 
L 4122 3641 
Q 3803 3938 3442 4084 
Q 3081 4231 2675 4231 
Q 1875 4231 1450 3742 
Q 1025 3253 1025 2328 
Q 1025 1406 1450 917 
Q 1875 428 2675 428 
Q 3081 428 3442 575 
Q 3803 722 4122 1019 
L 4122 359 
Q 3791 134 3420 21 
Q 3050 -91 2638 -91 
Q 1578 -91 968 557 
Q 359 1206 359 2328 
Q 359 3453 968 4101 
Q 1578 4750 2638 4750 
Q 3056 4750 3426 4639 
Q 3797 4528 4122 4306 
z
" transform="scale(0.015625)"/>
      </defs>
      <use xlink:href="#DejaVuSans-43"/>
     </g>
    </g>
    <g id="line2d_19">
     <path d="M 57.982813 64.332812 
L 67.982813 64.332812 
L 77.982813 64.332812 
" style="fill: none; stroke: #d62728; stroke-width: 1.5; stroke-linecap: square"/>
    </g>
    <g id="text_21">
     <!-- D -->
     <g transform="translate(85.982813 67.832812) scale(0.1 -0.1)">
      <defs>
       <path id="DejaVuSans-44" d="M 1259 4147 
L 1259 519 
L 2022 519 
Q 2988 519 3436 956 
Q 3884 1394 3884 2338 
Q 3884 3275 3436 3711 
Q 2988 4147 2022 4147 
L 1259 4147 
z
M 628 4666 
L 1925 4666 
Q 3281 4666 3915 4102 
Q 4550 3538 4550 2338 
Q 4550 1131 3912 565 
Q 3275 0 1925 0 
L 628 0 
L 628 4666 
z
" transform="scale(0.015625)"/>
      </defs>
      <use xlink:href="#DejaVuSans-44"/>
     </g>
    </g>
   </g>
   <g id="line2d_20">
    <path d="M 65.721903 151.556825 
L 67.404224 149.390919 
L 69.086545 153.852439 
L 70.768865 169.016581 
L 72.451186 164.927308 
L 74.133507 167.300716 
L 75.815828 167.010806 
L 77.498148 178.199964 
L 79.180469 183.613296 
L 80.86279 181.383437 
L 82.54511 175.733809 
L 84.227431 166.096141 
L 87.592072 159.49082 
L 89.274393 165.850569 
L 90.956714 168.530408 
L 92.639035 173.776081 
L 94.321355 167.361004 
L 96.003676 174.284401 
L 97.685997 168.140983 
L 99.368317 170.464584 
L 101.050638 174.478175 
L 102.732959 165.382443 
L 104.415279 162.774157 
L 106.0976 165.697239 
L 107.779921 175.903547 
L 109.462241 174.587331 
L 111.144562 176.142679 
L 112.826883 177.021238 
L 114.509204 173.908083 
L 116.191524 178.310829 
L 117.873845 178.290081 
L 119.556166 184.853477 
L 121.238486 194.731541 
L 122.920807 188.04297 
L 124.603128 191.12294 
L 126.285448 197.323828 
L 127.967769 195.41952 
L 129.65009 199.854699 
L 131.33241 199.602445 
L 133.014731 209.544407 
L 134.697052 199.590866 
L 136.379373 194.210459 
L 138.061693 196.804094 
L 139.744014 199.930747 
L 141.426335 201.92182 
L 143.108655 196.682697 
L 144.790976 190.163886 
L 146.473297 190.328365 
L 148.155617 188.783892 
L 149.837938 189.203666 
L 151.520259 188.923886 
L 153.20258 186.786957 
L 156.567221 177.668022 
L 158.249542 188.299597 
L 159.931862 174.562056 
L 161.614183 178.559851 
L 163.296504 183.677617 
L 164.978824 182.784851 
L 166.661145 183.401994 
L 168.343466 180.327222 
L 170.025786 169.46793 
L 171.708107 170.607888 
L 173.390428 169.990812 
L 175.072749 169.076571 
L 176.755069 170.996177 
L 178.43739 171.761326 
L 180.119711 179.066192 
L 181.802031 181.808346 
L 183.484352 181.080901 
L 185.166673 187.893411 
L 186.848993 189.071363 
L 188.531314 188.684624 
L 190.213635 184.307777 
L 191.895955 185.694898 
L 193.578276 183.326716 
L 195.260597 189.00609 
L 196.942918 190.973833 
L 198.625238 197.985679 
L 200.307559 197.235916 
L 201.98988 196.208218 
L 205.354521 190.864596 
L 207.036842 193.928731 
L 208.719162 192.19038 
L 210.401483 199.508969 
L 212.083804 199.708737 
L 213.766125 210.144314 
L 215.448445 206.359963 
L 217.130766 216.68771 
L 218.813087 212.251146 
L 220.495407 209.585718 
L 222.177728 205.029662 
L 223.860049 208.6613 
L 225.542369 210.448317 
L 227.22469 212.990309 
L 228.907011 214.851257 
L 230.589331 217.025806 
L 232.271652 209.171995 
L 233.953973 209.290355 
L 235.636294 214.100923 
L 237.318614 206.668812 
L 239.000935 203.951429 
L 240.683256 199.847162 
L 242.365576 200.149259 
L 244.047897 195.090861 
L 245.730218 185.680715 
L 247.412538 187.047136 
L 249.094859 187.442504 
L 250.77718 194.723873 
L 252.4595 191.892083 
L 254.141821 190.898039 
L 255.824142 184.32007 
L 257.506463 195.265388 
L 259.188783 184.617575 
L 260.871104 179.878309 
L 262.553425 178.396009 
L 264.235745 176.741397 
L 265.918066 166.214978 
L 267.600387 167.078208 
L 269.282707 166.644618 
L 270.965028 169.302112 
L 272.647349 168.330391 
L 274.32967 164.015178 
L 276.01199 164.366367 
L 277.694311 160.95274 
L 279.376632 149.632178 
L 281.058952 144.044688 
L 282.741273 145.374237 
L 284.423594 152.850145 
L 286.105914 159.651467 
L 287.788235 163.974266 
L 289.470556 169.906549 
L 291.152876 172.798727 
L 292.835197 167.033629 
L 294.517518 172.775257 
L 296.199839 176.388171 
L 297.882159 179.730046 
L 299.56448 187.156939 
L 301.246801 194.042037 
L 302.929121 192.550197 
L 304.611442 200.621575 
L 306.293763 187.590798 
L 307.976083 181.316213 
L 309.658404 182.805898 
L 311.340725 172.232104 
L 313.023045 170.795965 
L 314.705366 167.541233 
L 316.387687 168.135751 
L 318.070008 174.808512 
L 319.752328 173.43936 
L 321.434649 179.412291 
L 323.11697 174.503625 
L 324.79929 173.268237 
L 326.481611 165.659743 
L 328.163932 165.467438 
L 329.846252 170.339102 
L 331.528573 165.562006 
L 334.893215 166.907366 
L 336.575535 159.090241 
L 338.257856 160.538163 
L 339.940177 152.219869 
L 341.622497 146.11127 
L 343.304818 143.400807 
L 344.987139 143.399254 
L 346.669459 144.05611 
L 348.35178 157.298877 
L 350.034101 168.810222 
L 351.716421 172.294594 
L 353.398742 169.648877 
L 355.081063 171.919506 
L 356.763384 170.231141 
L 358.445704 165.83958 
L 360.128025 166.3952 
L 361.810346 168.39764 
L 363.492666 179.637753 
L 365.174987 188.211285 
L 366.857308 190.793527 
L 368.539628 188.582748 
L 370.221949 187.24141 
L 371.90427 184.584624 
L 373.58659 185.324509 
L 375.268911 178.428096 
L 376.951232 173.533902 
L 378.633553 173.29345 
L 380.315873 165.701741 
L 381.998194 166.786778 
L 383.680515 176.398343 
L 385.362835 179.550681 
L 387.045156 169.824238 
L 388.727477 166.248819 
L 390.409797 171.838192 
L 392.092118 175.043269 
L 393.774439 174.741307 
L 395.45676 177.189321 
L 397.13908 184.179523 
L 398.821401 177.400697 
L 400.503722 168.274439 
L 400.503722 168.274439 
" clip-path="url(#peabda60c8b)" style="fill: none; stroke: #1f77b4; stroke-width: 1.5; stroke-linecap: square"/>
   </g>
   <g id="line2d_21">
    <path d="M 65.721903 148.921094 
L 67.404224 152.322506 
L 69.086545 146.598906 
L 70.768865 144.625205 
L 72.451186 152.682314 
L 74.133507 151.311222 
L 75.815828 146.11137 
L 77.498148 128.52858 
L 79.180469 130.171634 
L 80.86279 119.306608 
L 82.54511 109.652226 
L 84.227431 114.046162 
L 85.909752 113.151615 
L 87.592072 118.297194 
L 89.274393 113.774719 
L 90.956714 114.846345 
L 92.639035 115.121365 
L 94.321355 112.715826 
L 96.003676 106.306316 
L 97.685997 111.351509 
L 99.368317 112.492044 
L 101.050638 110.994951 
L 102.732959 121.735798 
L 104.415279 122.479258 
L 106.0976 125.845432 
L 107.779921 131.005675 
L 109.462241 137.511755 
L 111.144562 140.809819 
L 112.826883 135.052912 
L 114.509204 126.150736 
L 116.191524 125.764127 
L 117.873845 116.661576 
L 119.556166 110.32199 
L 121.238486 109.33105 
L 122.920807 108.853382 
L 124.603128 105.911466 
L 126.285448 101.063854 
L 127.967769 99.172707 
L 129.65009 99.492739 
L 133.014731 108.821369 
L 134.697052 105.414049 
L 136.379373 107.007444 
L 138.061693 108.074873 
L 139.744014 111.272696 
L 141.426335 103.879372 
L 143.108655 99.159395 
L 144.790976 84.938756 
L 146.473297 78.593369 
L 148.155617 73.178594 
L 149.837938 72.298697 
L 151.520259 72.440369 
L 153.20258 71.728068 
L 154.8849 63.694014 
L 156.567221 70.16707 
L 158.249542 64.667574 
L 159.931862 66.547894 
L 161.614183 65.776338 
L 163.296504 67.384904 
L 164.978824 71.716403 
L 166.661145 60.05603 
L 168.343466 68.095519 
L 170.025786 79.636534 
L 171.708107 79.663363 
L 173.390428 80.574527 
L 175.072749 76.882028 
L 176.755069 75.394927 
L 178.43739 79.099265 
L 180.119711 76.591523 
L 181.802031 66.307617 
L 183.484352 69.669609 
L 185.166673 76.33912 
L 186.848993 75.973443 
L 188.531314 79.801062 
L 190.213635 88.594296 
L 191.895955 81.847043 
L 193.578276 84.209323 
L 195.260597 87.471475 
L 196.942918 88.484521 
L 198.625238 81.284429 
L 200.307559 77.107277 
L 201.98988 79.881845 
L 205.354521 69.728546 
L 207.036842 62.758109 
L 208.719162 62.164266 
L 210.401483 61.157247 
L 212.083804 61.068116 
L 213.766125 56.794892 
L 215.448445 46.082961 
L 217.130766 46.473233 
L 218.813087 45.007262 
L 220.495407 45.187694 
L 222.177728 47.153761 
L 223.860049 36.352031 
L 225.542369 45.613318 
L 227.22469 42.46163 
L 228.907011 42.812414 
L 230.589331 46.65421 
L 232.271652 46.695723 
L 233.953973 48.257023 
L 235.636294 51.382573 
L 237.318614 50.162661 
L 239.000935 49.744697 
L 240.683256 42.721201 
L 242.365576 41.302323 
L 244.047897 37.413993 
L 245.730218 42.399595 
L 247.412538 47.96389 
L 249.094859 48.38693 
L 250.77718 57.793537 
L 252.4595 61.700137 
L 254.141821 62.752539 
L 255.824142 61.205159 
L 257.506463 67.430999 
L 259.188783 63.505122 
L 260.871104 61.8249 
L 262.553425 59.466245 
L 264.235745 62.652779 
L 265.918066 57.164224 
L 267.600387 60.006989 
L 269.282707 62.364018 
L 270.965028 54.141124 
L 272.647349 55.772238 
L 274.32967 55.489555 
L 276.01199 55.829887 
L 277.694311 40.627291 
L 279.376632 60.155165 
L 281.058952 54.651383 
L 282.741273 65.735709 
L 284.423594 63.357562 
L 286.105914 61.822064 
L 287.788235 54.714941 
L 289.470556 60.893848 
L 291.152876 77.384029 
L 292.835197 75.02532 
L 294.517518 72.877146 
L 296.199839 72.594232 
L 297.882159 74.166847 
L 299.56448 67.278846 
L 301.246801 68.559274 
L 302.929121 68.665135 
L 304.611442 76.195216 
L 306.293763 88.09916 
L 307.976083 90.832521 
L 309.658404 108.616638 
L 311.340725 113.025554 
L 313.023045 112.904413 
L 314.705366 113.317158 
L 316.387687 117.407792 
L 318.070008 118.011886 
L 319.752328 117.239044 
L 321.434649 119.456135 
L 323.11697 116.796111 
L 324.79929 117.865254 
L 326.481611 113.212063 
L 328.163932 114.17571 
L 329.846252 100.323113 
L 331.528573 105.035484 
L 333.210894 103.452896 
L 334.893215 94.334521 
L 336.575535 92.733995 
L 338.257856 75.789864 
L 339.940177 71.433821 
L 341.622497 69.958345 
L 343.304818 64.270928 
L 344.987139 63.15383 
L 346.669459 63.142574 
L 348.35178 62.730023 
L 350.034101 69.692867 
L 351.716421 80.722358 
L 353.398742 80.318614 
L 355.081063 77.36811 
L 356.763384 76.834244 
L 358.445704 69.391354 
L 360.128025 66.506696 
L 361.810346 75.449216 
L 363.492666 76.09002 
L 365.174987 88.065556 
L 366.857308 84.837354 
L 368.539628 87.779951 
L 370.221949 74.229961 
L 371.90427 67.726809 
L 373.58659 71.288809 
L 375.268911 77.757152 
L 376.951232 81.554337 
L 378.633553 79.571556 
L 380.315873 79.882866 
L 381.998194 72.447538 
L 383.680515 70.019875 
L 385.362835 66.731023 
L 387.045156 67.433415 
L 388.727477 67.899303 
L 390.409797 66.155444 
L 392.092118 65.353475 
L 393.774439 59.330017 
L 395.45676 63.850834 
L 397.13908 63.573446 
L 398.821401 71.411334 
L 400.503722 66.502344 
L 400.503722 66.502344 
" clip-path="url(#peabda60c8b)" style="fill: none; stroke: #ff7f0e; stroke-width: 1.5; stroke-linecap: square"/>
   </g>
   <g id="line2d_22">
    <path d="M 65.721903 140.114007 
L 67.404224 148.954315 
L 69.086545 150.96583 
L 70.768865 151.03341 
L 72.451186 146.162782 
L 74.133507 148.16839 
L 75.815828 143.310592 
L 77.498148 150.136911 
L 79.180469 155.407258 
L 80.86279 155.150089 
L 82.54511 157.51781 
L 84.227431 163.928768 
L 85.909752 169.012213 
L 87.592072 160.738292 
L 89.274393 158.366642 
L 90.956714 158.386243 
L 92.639035 155.459463 
L 94.321355 150.769469 
L 96.003676 151.155631 
L 97.685997 151.039367 
L 99.368317 145.508954 
L 101.050638 145.071026 
L 102.732959 151.366365 
L 104.415279 146.712035 
L 106.0976 143.359189 
L 107.779921 138.358016 
L 109.462241 140.719469 
L 111.144562 139.441449 
L 112.826883 148.633407 
L 114.509204 160.891106 
L 116.191524 158.737727 
L 117.873845 156.93245 
L 119.556166 154.550787 
L 121.238486 157.543307 
L 122.920807 152.973325 
L 124.603128 159.807364 
L 126.285448 156.076632 
L 129.65009 168.376888 
L 131.33241 169.978334 
L 133.014731 160.87292 
L 134.697052 152.991059 
L 136.379373 154.067264 
L 138.061693 158.333921 
L 139.744014 160.073032 
L 141.426335 159.568044 
L 143.108655 165.127032 
L 144.790976 160.790885 
L 146.473297 156.011186 
L 148.155617 163.474597 
L 149.837938 154.38884 
L 151.520259 151.869674 
L 154.8849 150.999473 
L 156.567221 154.317232 
L 158.249542 150.13297 
L 159.931862 151.427604 
L 161.614183 157.237059 
L 163.296504 152.407948 
L 164.978824 161.184606 
L 166.661145 169.042331 
L 168.343466 167.011476 
L 170.025786 168.35934 
L 171.708107 168.811987 
L 173.390428 169.616759 
L 175.072749 170.546809 
L 176.755069 171.053172 
L 178.43739 167.696195 
L 180.119711 166.075903 
L 181.802031 166.745162 
L 183.484352 174.859379 
L 185.166673 177.47017 
L 186.848993 162.074765 
L 188.531314 160.873475 
L 190.213635 154.797272 
L 191.895955 151.8348 
L 193.578276 154.474434 
L 195.260597 152.493932 
L 196.942918 148.839658 
L 198.625238 162.500326 
L 200.307559 169.51276 
L 201.98988 170.65204 
L 203.6722 161.88291 
L 205.354521 171.355794 
L 207.036842 173.588343 
L 208.719162 175.108966 
L 210.401483 170.417696 
L 212.083804 175.114018 
L 213.766125 190.304604 
L 215.448445 188.768097 
L 217.130766 191.299353 
L 218.813087 200.423911 
L 220.495407 207.478751 
L 222.177728 200.297575 
L 223.860049 208.00824 
L 225.542369 212.050639 
L 227.22469 205.009436 
L 228.907011 208.583261 
L 230.589331 205.801064 
L 232.271652 199.532971 
L 233.953973 196.999008 
L 235.636294 199.785672 
L 237.318614 194.548217 
L 239.000935 191.823204 
L 240.683256 196.257273 
L 242.365576 191.270916 
L 244.047897 190.99787 
L 245.730218 185.941963 
L 247.412538 185.661747 
L 249.094859 184.597479 
L 250.77718 180.001977 
L 252.4595 194.121357 
L 254.141821 200.003994 
L 255.824142 200.039121 
L 257.506463 210.069001 
L 259.188783 219.301419 
L 260.871104 221.550317 
L 262.553425 221.929969 
L 264.235745 222.800823 
L 265.918066 223.172718 
L 267.600387 226.397421 
L 269.282707 222.311737 
L 270.965028 227.519459 
L 272.647349 219.122226 
L 276.01199 227.146411 
L 277.694311 237.483715 
L 279.376632 234.426774 
L 281.058952 230.213244 
L 282.741273 222.649558 
L 284.423594 210.901212 
L 286.105914 214.013486 
L 287.788235 215.760774 
L 289.470556 213.629413 
L 291.152876 220.35724 
L 292.835197 219.592869 
L 294.517518 220.495017 
L 296.199839 221.194318 
L 297.882159 223.652081 
L 299.56448 217.702815 
L 301.246801 225.812781 
L 302.929121 222.950238 
L 304.611442 222.507831 
L 306.293763 231.250666 
L 307.976083 222.931541 
L 309.658404 217.615233 
L 311.340725 217.990937 
L 313.023045 214.459013 
L 314.705366 226.282287 
L 316.387687 228.598514 
L 318.070008 235.112932 
L 319.752328 230.419203 
L 321.434649 234.305449 
L 323.11697 225.144938 
L 324.79929 219.062405 
L 326.481611 219.112578 
L 328.163932 226.242806 
L 329.846252 223.488279 
L 331.528573 222.864997 
L 334.893215 213.984409 
L 336.575535 221.35973 
L 338.257856 218.669818 
L 339.940177 225.030947 
L 341.622497 229.158556 
L 343.304818 231.193936 
L 344.987139 228.752801 
L 346.669459 222.161913 
L 348.35178 228.926404 
L 350.034101 227.617119 
L 351.716421 228.468228 
L 353.398742 222.312065 
L 355.081063 217.190035 
L 356.763384 212.887944 
L 358.445704 220.773762 
L 360.128025 216.27059 
L 361.810346 221.913952 
L 363.492666 220.443475 
L 365.174987 220.332197 
L 366.857308 219.019751 
L 368.539628 213.747856 
L 370.221949 213.04965 
L 371.90427 218.962867 
L 373.58659 220.464289 
L 375.268911 214.189746 
L 376.951232 216.510035 
L 378.633553 211.50775 
L 380.315873 214.000233 
L 381.998194 210.732221 
L 383.680515 211.975924 
L 385.362835 206.768801 
L 387.045156 208.03294 
L 388.727477 206.25436 
L 390.409797 200.677787 
L 392.092118 202.980172 
L 393.774439 197.341657 
L 395.45676 198.119958 
L 397.13908 201.602 
L 398.821401 203.303576 
L 400.503722 206.379653 
L 400.503722 206.379653 
" clip-path="url(#peabda60c8b)" style="fill: none; stroke: #2ca02c; stroke-width: 1.5; stroke-linecap: square"/>
   </g>
   <g id="line2d_23">
    <path d="M 65.721903 143.493728 
L 67.404224 136.689032 
L 69.086545 132.773217 
L 70.768865 133.097761 
L 72.451186 138.673825 
L 74.133507 130.453232 
L 75.815828 129.349049 
L 77.498148 128.857356 
L 79.180469 127.969233 
L 80.86279 119.269893 
L 82.54511 120.101538 
L 84.227431 123.311174 
L 85.909752 120.424311 
L 87.592072 123.085096 
L 89.274393 121.205951 
L 90.956714 108.51883 
L 92.639035 113.743421 
L 94.321355 108.710956 
L 96.003676 105.411605 
L 97.685997 104.112688 
L 99.368317 104.462112 
L 101.050638 108.238311 
L 102.732959 103.596489 
L 104.415279 107.286338 
L 106.0976 104.657036 
L 107.779921 108.06127 
L 109.462241 105.407837 
L 111.144562 111.253773 
L 114.509204 108.862888 
L 116.191524 111.419398 
L 117.873845 106.405272 
L 119.556166 97.324306 
L 121.238486 107.057796 
L 122.920807 104.20375 
L 124.603128 100.407571 
L 126.285448 95.74985 
L 127.967769 96.579547 
L 129.65009 97.903752 
L 131.33241 101.912451 
L 133.014731 99.822786 
L 134.697052 103.137393 
L 136.379373 95.857785 
L 138.061693 99.247476 
L 139.744014 95.05887 
L 141.426335 95.133401 
L 143.108655 90.484807 
L 144.790976 93.881643 
L 146.473297 85.190456 
L 148.155617 89.30138 
L 149.837938 73.135965 
L 151.520259 77.853382 
L 153.20258 67.680703 
L 154.8849 72.183597 
L 156.567221 69.152425 
L 158.249542 69.238962 
L 159.931862 72.601054 
L 161.614183 77.233091 
L 163.296504 79.119935 
L 164.978824 84.71216 
L 166.661145 94.785753 
L 168.343466 113.605008 
L 170.025786 118.513272 
L 171.708107 118.624608 
L 173.390428 124.771469 
L 175.072749 113.291515 
L 176.755069 104.600049 
L 178.43739 107.188073 
L 180.119711 108.124783 
L 181.802031 100.873925 
L 183.484352 104.165456 
L 185.166673 106.389865 
L 186.848993 109.419738 
L 188.531314 103.961782 
L 190.213635 106.122742 
L 191.895955 102.533542 
L 193.578276 101.221723 
L 195.260597 99.476844 
L 196.942918 91.391806 
L 198.625238 89.604769 
L 200.307559 86.70839 
L 201.98988 98.835799 
L 203.6722 103.018622 
L 205.354521 109.167966 
L 207.036842 106.305403 
L 208.719162 107.959526 
L 210.401483 112.571368 
L 212.083804 114.99238 
L 213.766125 116.653447 
L 215.448445 108.857624 
L 217.130766 99.755425 
L 218.813087 100.228437 
L 220.495407 108.121645 
L 222.177728 107.806291 
L 223.860049 108.773085 
L 227.22469 102.616696 
L 228.907011 91.525388 
L 230.589331 94.684247 
L 233.953973 83.293762 
L 235.636294 87.818476 
L 237.318614 100.132639 
L 239.000935 107.280674 
L 240.683256 100.239017 
L 242.365576 98.82375 
L 244.047897 106.000066 
L 245.730218 102.550961 
L 247.412538 95.875327 
L 249.094859 92.540566 
L 250.77718 100.986911 
L 252.4595 104.944182 
L 254.141821 111.09859 
L 255.824142 111.331578 
L 257.506463 110.312201 
L 259.188783 115.413971 
L 260.871104 110.880418 
L 262.553425 111.629814 
L 264.235745 109.10253 
L 265.918066 109.843807 
L 267.600387 103.658828 
L 269.282707 102.985077 
L 270.965028 104.201484 
L 272.647349 95.497965 
L 274.32967 94.245557 
L 276.01199 87.969642 
L 277.694311 88.293797 
L 279.376632 80.660982 
L 281.058952 84.243283 
L 282.741273 85.452149 
L 284.423594 95.771332 
L 286.105914 88.121188 
L 287.788235 81.447362 
L 289.470556 76.158798 
L 291.152876 64.846034 
L 292.835197 65.968675 
L 294.517518 61.588814 
L 296.199839 54.759638 
L 297.882159 54.097301 
L 299.56448 56.728764 
L 301.246801 61.723799 
L 302.929121 59.643532 
L 304.611442 53.706357 
L 306.293763 43.052001 
L 307.976083 46.651487 
L 309.658404 43.244353 
L 311.340725 45.455972 
L 313.023045 39.36084 
L 314.705366 44.626606 
L 316.387687 46.78991 
L 318.070008 45.968375 
L 319.752328 47.05826 
L 321.434649 45.584427 
L 323.11697 47.944036 
L 324.79929 38.56357 
L 326.481611 25.624206 
L 328.163932 30.676463 
L 329.846252 29.75349 
L 331.528573 27.254387 
L 333.210894 13.690178 
L 334.893215 23.315034 
L 336.575535 31.570261 
L 338.257856 31.678028 
L 339.940177 29.884668 
L 341.622497 26.689762 
L 343.304818 35.619741 
L 344.987139 39.717887 
L 346.669459 35.34107 
L 348.35178 33.827037 
L 351.716421 33.935244 
L 353.398742 35.661576 
L 355.081063 37.882542 
L 356.763384 46.119867 
L 358.445704 50.047726 
L 360.128025 41.457104 
L 361.810346 43.726102 
L 363.492666 47.457137 
L 365.174987 50.032032 
L 366.857308 49.797182 
L 368.539628 41.825838 
L 370.221949 46.19627 
L 371.90427 51.258281 
L 373.58659 57.573326 
L 375.268911 65.178573 
L 376.951232 55.796257 
L 378.633553 56.133988 
L 380.315873 55.314872 
L 381.998194 52.940817 
L 383.680515 50.831569 
L 385.362835 47.722928 
L 387.045156 57.1111 
L 388.727477 51.740613 
L 390.409797 50.291996 
L 392.092118 55.666799 
L 393.774439 55.6715 
L 395.45676 58.682527 
L 397.13908 52.788345 
L 398.821401 54.725224 
L 400.503722 59.895153 
L 400.503722 59.895153 
" clip-path="url(#peabda60c8b)" style="fill: none; stroke: #d62728; stroke-width: 1.5; stroke-linecap: square"/>
   </g>
  </g>
 </g>
 <defs>
  <clipPath id="peabda60c8b">
   <rect x="48.982813" y="7.2" width="368.26" height="235.24"/>
  </clipPath>
 </defs>
</svg>
