<?xml version="1.0" encoding="UTF-8" standalone="no"?>
<!DOCTYPE svg PUBLIC "-//W3C//DTD SVG 1.1//EN"
 "http://www.w3.org/Graphics/SVG/1.1/DTD/svg11.dtd">
<!-- Generated by graphviz version 2.43.0 (0)
 -->
<!-- Title: %3 Pages: 1 -->
<svg width="308pt" height="175pt"
 viewBox="0.00 0.00 307.50 174.53" xmlns="http://www.w3.org/2000/svg" xmlns:xlink="http://www.w3.org/1999/xlink">
<g id="graph0" class="graph" transform="scale(1 1) rotate(0) translate(4 170.53)">
<title>%3</title>
<polygon fill="white" stroke="transparent" points="-4,4 -4,-170.53 303.5,-170.53 303.5,4 -4,4"/>
<!-- 888c2ddf0c6648deb52248736368064f -->
<g id="node1" class="node">
<title>888c2ddf0c6648deb52248736368064f</title>
<polygon fill="none" stroke="black" points="157,-166.53 0,-166.53 0,-143.53 157,-143.53 157,-166.53"/>
<text text-anchor="middle" x="78.5" y="-151.33" font-family="Times,serif" font-size="14.00">Input &lt;DataArray&gt;</text>
</g>
<!-- cba86c101056496c8a9b27a2f53fa1ee -->
<g id="node2" class="node">
<title>cba86c101056496c8a9b27a2f53fa1ee</title>
<polygon fill="none" stroke="black" points="269,-92.53 46,-92.53 46,-69.53 269,-69.53 269,-92.53"/>
<text text-anchor="middle" x="157.5" y="-77.33" font-family="Times,serif" font-size="14.00">gaussian_filter(arg_0, sigma)</text>
</g>
<!-- 888c2ddf0c6648deb52248736368064f&#45;&gt;cba86c101056496c8a9b27a2f53fa1ee -->
<g id="edge1" class="edge">
<title>888c2ddf0c6648deb52248736368064f&#45;&gt;cba86c101056496c8a9b27a2f53fa1ee</title>
<path fill="none" stroke="black" d="M90.16,-143.4C102.76,-131.92 123.06,-113.42 138.08,-99.73"/>
<polygon fill="black" stroke="black" points="140.76,-102.02 145.8,-92.69 136.05,-96.84 140.76,-102.02"/>
<text text-anchor="middle" x="145.5" y="-114.33" font-family="Times,serif" font-size="14.00">arg_0</text>
</g>
<!-- dce7c36afc3e4782ac80150a5c94ff3a -->
<g id="node4" class="node">
<title>dce7c36afc3e4782ac80150a5c94ff3a</title>
<ellipse fill="lightgrey" stroke="lightgrey" cx="157.5" cy="-16.26" rx="67.35" ry="16.03"/>
<text text-anchor="middle" x="157.5" y="-12.56" font-family="Times,serif" font-size="14.00">ImageView</text>
</g>
<!-- cba86c101056496c8a9b27a2f53fa1ee&#45;&gt;dce7c36afc3e4782ac80150a5c94ff3a -->
<g id="edge3" class="edge">
<title>cba86c101056496c8a9b27a2f53fa1ee&#45;&gt;dce7c36afc3e4782ac80150a5c94ff3a</title>
<path fill="none" stroke="black" d="M157.5,-69.38C157.5,-62.06 157.5,-52.02 157.5,-42.7"/>
<polygon fill="black" stroke="black" points="161,-42.68 157.5,-32.68 154,-42.68 161,-42.68"/>
</g>
<!-- 036d3eb556ef42c4a440ca434686b60b -->
<g id="node3" class="node">
<title>036d3eb556ef42c4a440ca434686b60b</title>
<polygon fill="none" stroke="black" points="299.5,-166.53 175.5,-166.53 175.5,-143.53 299.5,-143.53 299.5,-166.53"/>
<text text-anchor="middle" x="237.5" y="-151.33" font-family="Times,serif" font-size="14.00">Input &lt;int=5&gt;</text>
</g>
<!-- 036d3eb556ef42c4a440ca434686b60b&#45;&gt;cba86c101056496c8a9b27a2f53fa1ee -->
<g id="edge2" class="edge">
<title>036d3eb556ef42c4a440ca434686b60b&#45;&gt;cba86c101056496c8a9b27a2f53fa1ee</title>
<path fill="none" stroke="black" d="M225.7,-143.4C212.93,-131.92 192.38,-113.42 177.17,-99.73"/>
<polygon fill="black" stroke="black" points="179.13,-96.78 169.35,-92.69 174.44,-101.99 179.13,-96.78"/>
<text text-anchor="middle" x="226" y="-114.33" font-family="Times,serif" font-size="14.00">sigma</text>
</g>
</g>
</svg>
