<?xml version="1.0" encoding="UTF-8" standalone="no"?>
<!DOCTYPE svg PUBLIC "-//W3C//DTD SVG 1.1//EN"
 "http://www.w3.org/Graphics/SVG/1.1/DTD/svg11.dtd">
<!-- Generated by graphviz version 2.43.0 (0)
 -->
<!-- Title: %3 Pages: 1 -->
<svg width="640pt" height="323pt"
 viewBox="0.00 0.00 640.00 322.53" xmlns="http://www.w3.org/2000/svg" xmlns:xlink="http://www.w3.org/1999/xlink">
<g id="graph0" class="graph" transform="scale(1 1) rotate(0) translate(4 318.53)">
<title>%3</title>
<polygon fill="white" stroke="transparent" points="-4,4 -4,-318.53 636,-318.53 636,4 -4,4"/>
<!-- 7b2cb528452b4ee089bb51b4a36ab28a -->
<g id="node1" class="node">
<title>7b2cb528452b4ee089bb51b4a36ab28a</title>
<polygon fill="none" stroke="black" points="157,-314.53 0,-314.53 0,-291.53 157,-291.53 157,-314.53"/>
<text text-anchor="middle" x="78.5" y="-299.33" font-family="Times,serif" font-size="14.00">Input &lt;DataArray&gt;</text>
</g>
<!-- ad69fdcb5afa4056aa44a610dbad38a8 -->
<g id="node2" class="node">
<title>ad69fdcb5afa4056aa44a610dbad38a8</title>
<polygon fill="none" stroke="black" points="285,-240.53 62,-240.53 62,-217.53 285,-217.53 285,-240.53"/>
<text text-anchor="middle" x="173.5" y="-225.33" font-family="Times,serif" font-size="14.00">gaussian_filter(arg_0, sigma)</text>
</g>
<!-- 7b2cb528452b4ee089bb51b4a36ab28a&#45;&gt;ad69fdcb5afa4056aa44a610dbad38a8 -->
<g id="edge1" class="edge">
<title>7b2cb528452b4ee089bb51b4a36ab28a&#45;&gt;ad69fdcb5afa4056aa44a610dbad38a8</title>
<path fill="none" stroke="black" d="M92.52,-291.4C107.95,-279.7 132.99,-260.73 151.14,-246.97"/>
<polygon fill="black" stroke="black" points="153.57,-249.52 159.42,-240.69 149.34,-243.95 153.57,-249.52"/>
<text text-anchor="middle" x="155.5" y="-262.33" font-family="Times,serif" font-size="14.00">arg_0</text>
</g>
<!-- a218cbe301cd44888cb93255c24b6f96 -->
<g id="node3" class="node">
<title>a218cbe301cd44888cb93255c24b6f96</title>
<polygon fill="none" stroke="black" points="368,-166.53 273,-166.53 273,-143.53 368,-143.53 368,-166.53"/>
<text text-anchor="middle" x="320.5" y="-151.33" font-family="Times,serif" font-size="14.00">preprocess</text>
</g>
<!-- ad69fdcb5afa4056aa44a610dbad38a8&#45;&gt;a218cbe301cd44888cb93255c24b6f96 -->
<g id="edge2" class="edge">
<title>ad69fdcb5afa4056aa44a610dbad38a8&#45;&gt;a218cbe301cd44888cb93255c24b6f96</title>
<path fill="none" stroke="black" d="M195.19,-217.4C220.16,-205.17 261.36,-184.99 289.66,-171.13"/>
<polygon fill="black" stroke="black" points="291.28,-174.24 298.72,-166.69 288.2,-167.95 291.28,-174.24"/>
<text text-anchor="middle" x="279.5" y="-188.33" font-family="Times,serif" font-size="14.00">arg_0</text>
</g>
<!-- 73c8d0dabf2f4bc0920e8442459ce8cc -->
<g id="node4" class="node">
<title>73c8d0dabf2f4bc0920e8442459ce8cc</title>
<polygon fill="none" stroke="black" points="502,-92.53 313,-92.53 313,-69.53 502,-69.53 502,-92.53"/>
<text text-anchor="middle" x="407.5" y="-77.33" font-family="Times,serif" font-size="14.00">slice_dims(arg_0, arg_1)</text>
</g>
<!-- a218cbe301cd44888cb93255c24b6f96&#45;&gt;73c8d0dabf2f4bc0920e8442459ce8cc -->
<g id="edge3" class="edge">
<title>a218cbe301cd44888cb93255c24b6f96&#45;&gt;73c8d0dabf2f4bc0920e8442459ce8cc</title>
<path fill="none" stroke="black" d="M333.34,-143.4C347.34,-131.81 369.98,-113.08 386.57,-99.35"/>
<polygon fill="black" stroke="black" points="389.14,-101.77 394.61,-92.69 384.67,-96.37 389.14,-101.77"/>
<text text-anchor="middle" x="391.5" y="-114.33" font-family="Times,serif" font-size="14.00">arg_0</text>
</g>
<!-- 299f24b0680e430388d33e37b9f1cff5 -->
<g id="node8" class="node">
<title>299f24b0680e430388d33e37b9f1cff5</title>
<ellipse fill="lightgrey" stroke="lightgrey" cx="407.5" cy="-16.26" rx="84.71" ry="16.03"/>
<text text-anchor="middle" x="407.5" y="-12.56" font-family="Times,serif" font-size="14.00">GraphicalView</text>
</g>
<!-- 73c8d0dabf2f4bc0920e8442459ce8cc&#45;&gt;299f24b0680e430388d33e37b9f1cff5 -->
<g id="edge5" class="edge">
<title>73c8d0dabf2f4bc0920e8442459ce8cc&#45;&gt;299f24b0680e430388d33e37b9f1cff5</title>
<path fill="none" stroke="black" d="M407.5,-69.38C407.5,-62.06 407.5,-52.02 407.5,-42.7"/>
<polygon fill="black" stroke="black" points="411,-42.68 407.5,-32.68 404,-42.68 411,-42.68"/>
</g>
<!-- 7b06a1ad992f4e649b6b36201a7f5b0c -->
<g id="node5" class="node">
<title>7b06a1ad992f4e649b6b36201a7f5b0c</title>
<polygon fill="none" stroke="black" points="604.5,-166.53 386.5,-166.53 386.5,-143.53 604.5,-143.53 604.5,-166.53"/>
<text text-anchor="middle" x="495.5" y="-151.33" font-family="Times,serif" font-size="14.00">Widget &lt;SliceWidget: dict&gt;</text>
</g>
<!-- 7b06a1ad992f4e649b6b36201a7f5b0c&#45;&gt;73c8d0dabf2f4bc0920e8442459ce8cc -->
<g id="edge4" class="edge">
<title>7b06a1ad992f4e649b6b36201a7f5b0c&#45;&gt;73c8d0dabf2f4bc0920e8442459ce8cc</title>
<path fill="none" stroke="black" d="M482.52,-143.4C468.35,-131.81 445.45,-113.08 428.67,-99.35"/>
<polygon fill="black" stroke="black" points="430.49,-96.32 420.54,-92.69 426.06,-101.74 430.49,-96.32"/>
<text text-anchor="middle" x="478.5" y="-114.33" font-family="Times,serif" font-size="14.00">arg_1</text>
</g>
<!-- 371b4cfb055d40038ee49fb237b0a267 -->
<g id="node6" class="node">
<title>371b4cfb055d40038ee49fb237b0a267</title>
<polygon fill="none" stroke="black" points="632,-240.53 303,-240.53 303,-217.53 632,-217.53 632,-240.53"/>
<text text-anchor="middle" x="467.5" y="-225.33" font-family="Times,serif" font-size="14.00">Input &lt;str=&#39;gaussian_filter(arg_0, sigma)&#39;&gt;</text>
</g>
<!-- 371b4cfb055d40038ee49fb237b0a267&#45;&gt;a218cbe301cd44888cb93255c24b6f96 -->
<g id="edge6" class="edge">
<title>371b4cfb055d40038ee49fb237b0a267&#45;&gt;a218cbe301cd44888cb93255c24b6f96</title>
<path fill="none" stroke="black" d="M445.81,-217.4C420.84,-205.17 379.64,-184.99 351.34,-171.13"/>
<polygon fill="black" stroke="black" points="352.8,-167.95 342.28,-166.69 349.72,-174.24 352.8,-167.95"/>
<text text-anchor="middle" x="426.5" y="-188.33" font-family="Times,serif" font-size="14.00">name</text>
</g>
<!-- e142247350f7439f88cb50ec11117d8b -->
<g id="node7" class="node">
<title>e142247350f7439f88cb50ec11117d8b</title>
<polygon fill="none" stroke="black" points="363.5,-314.53 175.5,-314.53 175.5,-291.53 363.5,-291.53 363.5,-314.53"/>
<text text-anchor="middle" x="269.5" y="-299.33" font-family="Times,serif" font-size="14.00">Widget &lt;IntSlider: int&gt;</text>
</g>
<!-- e142247350f7439f88cb50ec11117d8b&#45;&gt;ad69fdcb5afa4056aa44a610dbad38a8 -->
<g id="edge7" class="edge">
<title>e142247350f7439f88cb50ec11117d8b&#45;&gt;ad69fdcb5afa4056aa44a610dbad38a8</title>
<path fill="none" stroke="black" d="M255.33,-291.4C239.74,-279.7 214.44,-260.73 196.1,-246.97"/>
<polygon fill="black" stroke="black" points="197.82,-243.89 187.72,-240.69 193.62,-249.49 197.82,-243.89"/>
<text text-anchor="middle" x="251" y="-262.33" font-family="Times,serif" font-size="14.00">sigma</text>
</g>
</g>
</svg>
