<?xml version="1.0" encoding="utf-8" standalone="no"?>
<!DOCTYPE svg PUBLIC "-//W3C//DTD SVG 1.1//EN"
  "http://www.w3.org/Graphics/SVG/1.1/DTD/svg11.dtd">
<svg xmlns:xlink="http://www.w3.org/1999/xlink" width="417.688125pt" height="279.99625pt" viewBox="0 0 417.688125 279.99625" xmlns="http://www.w3.org/2000/svg" version="1.1">
 <metadata>
  <rdf:RDF xmlns:dc="http://purl.org/dc/elements/1.1/" xmlns:cc="http://creativecommons.org/ns#" xmlns:rdf="http://www.w3.org/1999/02/22-rdf-syntax-ns#">
   <cc:Work>
    <dc:type rdf:resource="http://purl.org/dc/dcmitype/StillImage"/>
    <dc:date>2024-06-18T09:51:18.401908</dc:date>
    <dc:format>image/svg+xml</dc:format>
    <dc:creator>
     <cc:Agent>
      <dc:title>Matplotlib v3.9.0, https://matplotlib.org/</dc:title>
     </cc:Agent>
    </dc:creator>
   </cc:Work>
  </rdf:RDF>
 </metadata>
 <defs>
  <style type="text/css">*{stroke-linejoin: round; stroke-linecap: butt}</style>
 </defs>
 <g id="figure_1">
  <g id="patch_1">
   <path d="M 0 279.99625 
L 417.688125 279.99625 
L 417.688125 0 
L 0 0 
z
" style="fill: #ffffff"/>
  </g>
  <g id="axes_1">
   <g id="patch_2">
    <path d="M 51.678125 242.44 
L 410.488125 242.44 
L 410.488125 7.2 
L 51.678125 7.2 
z
" style="fill: #ffffff"/>
   </g>
   <g id="matplotlib.axis_1">
    <g id="xtick_1">
     <g id="line2d_1">
      <defs>
       <path id="m3179d76656" d="M 0 0 
L 0 3.5 
" style="stroke: #000000; stroke-width: 0.8"/>
      </defs>
      <g>
       <use xlink:href="#m3179d76656" x="67.98767" y="242.44" style="stroke: #000000; stroke-width: 0.8"/>
      </g>
     </g>
     <g id="text_1">
      <!-- 0 -->
      <g transform="translate(64.80642 257.038437) scale(0.1 -0.1)">
       <defs>
        <path id="DejaVuSans-30" d="M 2034 4250 
Q 1547 4250 1301 3770 
Q 1056 3291 1056 2328 
Q 1056 1369 1301 889 
Q 1547 409 2034 409 
Q 2525 409 2770 889 
Q 3016 1369 3016 2328 
Q 3016 3291 2770 3770 
Q 2525 4250 2034 4250 
z
M 2034 4750 
Q 2819 4750 3233 4129 
Q 3647 3509 3647 2328 
Q 3647 1150 3233 529 
Q 2819 -91 2034 -91 
Q 1250 -91 836 529 
Q 422 1150 422 2328 
Q 422 3509 836 4129 
Q 1250 4750 2034 4750 
z
" transform="scale(0.015625)"/>
       </defs>
       <use xlink:href="#DejaVuSans-30"/>
      </g>
     </g>
    </g>
    <g id="xtick_2">
     <g id="line2d_2">
      <g>
       <use xlink:href="#m3179d76656" x="134.557244" y="242.44" style="stroke: #000000; stroke-width: 0.8"/>
      </g>
     </g>
     <g id="text_2">
      <!-- 10 -->
      <g transform="translate(128.194744 257.038437) scale(0.1 -0.1)">
       <defs>
        <path id="DejaVuSans-31" d="M 794 531 
L 1825 531 
L 1825 4091 
L 703 3866 
L 703 4441 
L 1819 4666 
L 2450 4666 
L 2450 531 
L 3481 531 
L 3481 0 
L 794 0 
L 794 531 
z
" transform="scale(0.015625)"/>
       </defs>
       <use xlink:href="#DejaVuSans-31"/>
       <use xlink:href="#DejaVuSans-30" x="63.623047"/>
      </g>
     </g>
    </g>
    <g id="xtick_3">
     <g id="line2d_3">
      <g>
       <use xlink:href="#m3179d76656" x="201.126817" y="242.44" style="stroke: #000000; stroke-width: 0.8"/>
      </g>
     </g>
     <g id="text_3">
      <!-- 20 -->
      <g transform="translate(194.764317 257.038437) scale(0.1 -0.1)">
       <defs>
        <path id="DejaVuSans-32" d="M 1228 531 
L 3431 531 
L 3431 0 
L 469 0 
L 469 531 
Q 828 903 1448 1529 
Q 2069 2156 2228 2338 
Q 2531 2678 2651 2914 
Q 2772 3150 2772 3378 
Q 2772 3750 2511 3984 
Q 2250 4219 1831 4219 
Q 1534 4219 1204 4116 
Q 875 4013 500 3803 
L 500 4441 
Q 881 4594 1212 4672 
Q 1544 4750 1819 4750 
Q 2544 4750 2975 4387 
Q 3406 4025 3406 3419 
Q 3406 3131 3298 2873 
Q 3191 2616 2906 2266 
Q 2828 2175 2409 1742 
Q 1991 1309 1228 531 
z
" transform="scale(0.015625)"/>
       </defs>
       <use xlink:href="#DejaVuSans-32"/>
       <use xlink:href="#DejaVuSans-30" x="63.623047"/>
      </g>
     </g>
    </g>
    <g id="xtick_4">
     <g id="line2d_4">
      <g>
       <use xlink:href="#m3179d76656" x="267.69639" y="242.44" style="stroke: #000000; stroke-width: 0.8"/>
      </g>
     </g>
     <g id="text_4">
      <!-- 30 -->
      <g transform="translate(261.33389 257.038437) scale(0.1 -0.1)">
       <defs>
        <path id="DejaVuSans-33" d="M 2597 2516 
Q 3050 2419 3304 2112 
Q 3559 1806 3559 1356 
Q 3559 666 3084 287 
Q 2609 -91 1734 -91 
Q 1441 -91 1130 -33 
Q 819 25 488 141 
L 488 750 
Q 750 597 1062 519 
Q 1375 441 1716 441 
Q 2309 441 2620 675 
Q 2931 909 2931 1356 
Q 2931 1769 2642 2001 
Q 2353 2234 1838 2234 
L 1294 2234 
L 1294 2753 
L 1863 2753 
Q 2328 2753 2575 2939 
Q 2822 3125 2822 3475 
Q 2822 3834 2567 4026 
Q 2313 4219 1838 4219 
Q 1578 4219 1281 4162 
Q 984 4106 628 3988 
L 628 4550 
Q 988 4650 1302 4700 
Q 1616 4750 1894 4750 
Q 2613 4750 3031 4423 
Q 3450 4097 3450 3541 
Q 3450 3153 3228 2886 
Q 3006 2619 2597 2516 
z
" transform="scale(0.015625)"/>
       </defs>
       <use xlink:href="#DejaVuSans-33"/>
       <use xlink:href="#DejaVuSans-30" x="63.623047"/>
      </g>
     </g>
    </g>
    <g id="xtick_5">
     <g id="line2d_5">
      <g>
       <use xlink:href="#m3179d76656" x="334.265964" y="242.44" style="stroke: #000000; stroke-width: 0.8"/>
      </g>
     </g>
     <g id="text_5">
      <!-- 40 -->
      <g transform="translate(327.903464 257.038437) scale(0.1 -0.1)">
       <defs>
        <path id="DejaVuSans-34" d="M 2419 4116 
L 825 1625 
L 2419 1625 
L 2419 4116 
z
M 2253 4666 
L 3047 4666 
L 3047 1625 
L 3713 1625 
L 3713 1100 
L 3047 1100 
L 3047 0 
L 2419 0 
L 2419 1100 
L 313 1100 
L 313 1709 
L 2253 4666 
z
" transform="scale(0.015625)"/>
       </defs>
       <use xlink:href="#DejaVuSans-34"/>
       <use xlink:href="#DejaVuSans-30" x="63.623047"/>
      </g>
     </g>
    </g>
    <g id="xtick_6">
     <g id="line2d_6">
      <g>
       <use xlink:href="#m3179d76656" x="400.835537" y="242.44" style="stroke: #000000; stroke-width: 0.8"/>
      </g>
     </g>
     <g id="text_6">
      <!-- 50 -->
      <g transform="translate(394.473037 257.038437) scale(0.1 -0.1)">
       <defs>
        <path id="DejaVuSans-35" d="M 691 4666 
L 3169 4666 
L 3169 4134 
L 1269 4134 
L 1269 2991 
Q 1406 3038 1543 3061 
Q 1681 3084 1819 3084 
Q 2600 3084 3056 2656 
Q 3513 2228 3513 1497 
Q 3513 744 3044 326 
Q 2575 -91 1722 -91 
Q 1428 -91 1123 -41 
Q 819 9 494 109 
L 494 744 
Q 775 591 1075 516 
Q 1375 441 1709 441 
Q 2250 441 2565 725 
Q 2881 1009 2881 1497 
Q 2881 1984 2565 2268 
Q 2250 2553 1709 2553 
Q 1456 2553 1204 2497 
Q 953 2441 691 2322 
L 691 4666 
z
" transform="scale(0.015625)"/>
       </defs>
       <use xlink:href="#DejaVuSans-35"/>
       <use xlink:href="#DejaVuSans-30" x="63.623047"/>
      </g>
     </g>
    </g>
    <g id="text_7">
     <!-- x [m] -->
     <g transform="translate(217.762812 270.716562) scale(0.1 -0.1)">
      <defs>
       <path id="DejaVuSans-78" d="M 3513 3500 
L 2247 1797 
L 3578 0 
L 2900 0 
L 1881 1375 
L 863 0 
L 184 0 
L 1544 1831 
L 300 3500 
L 978 3500 
L 1906 2253 
L 2834 3500 
L 3513 3500 
z
" transform="scale(0.015625)"/>
       <path id="DejaVuSans-20" transform="scale(0.015625)"/>
       <path id="DejaVuSans-5b" d="M 550 4863 
L 1875 4863 
L 1875 4416 
L 1125 4416 
L 1125 -397 
L 1875 -397 
L 1875 -844 
L 550 -844 
L 550 4863 
z
" transform="scale(0.015625)"/>
       <path id="DejaVuSans-6d" d="M 3328 2828 
Q 3544 3216 3844 3400 
Q 4144 3584 4550 3584 
Q 5097 3584 5394 3201 
Q 5691 2819 5691 2113 
L 5691 0 
L 5113 0 
L 5113 2094 
Q 5113 2597 4934 2840 
Q 4756 3084 4391 3084 
Q 3944 3084 3684 2787 
Q 3425 2491 3425 1978 
L 3425 0 
L 2847 0 
L 2847 2094 
Q 2847 2600 2669 2842 
Q 2491 3084 2119 3084 
Q 1678 3084 1418 2786 
Q 1159 2488 1159 1978 
L 1159 0 
L 581 0 
L 581 3500 
L 1159 3500 
L 1159 2956 
Q 1356 3278 1631 3431 
Q 1906 3584 2284 3584 
Q 2666 3584 2933 3390 
Q 3200 3197 3328 2828 
z
" transform="scale(0.015625)"/>
       <path id="DejaVuSans-5d" d="M 1947 4863 
L 1947 -844 
L 622 -844 
L 622 -397 
L 1369 -397 
L 1369 4416 
L 622 4416 
L 622 4863 
L 1947 4863 
z
" transform="scale(0.015625)"/>
      </defs>
      <use xlink:href="#DejaVuSans-78"/>
      <use xlink:href="#DejaVuSans-20" x="59.179688"/>
      <use xlink:href="#DejaVuSans-5b" x="90.966797"/>
      <use xlink:href="#DejaVuSans-6d" x="129.980469"/>
      <use xlink:href="#DejaVuSans-5d" x="227.392578"/>
     </g>
    </g>
   </g>
   <g id="matplotlib.axis_2">
    <g id="ytick_1">
     <g id="line2d_7">
      <defs>
       <path id="m00db6d261b" d="M 0 0 
L -3.5 0 
" style="stroke: #000000; stroke-width: 0.8"/>
      </defs>
      <g>
       <use xlink:href="#m00db6d261b" x="51.678125" y="232.158256" style="stroke: #000000; stroke-width: 0.8"/>
      </g>
     </g>
     <g id="text_8">
      <!-- $-\pi$ -->
      <g transform="translate(30.278125 235.957475) scale(0.1 -0.1)">
       <defs>
        <path id="DejaVuSans-2212" d="M 678 2272 
L 4684 2272 
L 4684 1741 
L 678 1741 
L 678 2272 
z
" transform="scale(0.015625)"/>
        <path id="DejaVuSans-Oblique-3c0" d="M 584 3500 
L 3938 3500 
L 3825 2925 
L 3384 2925 
L 2966 775 
Q 2922 550 2981 450 
Q 3038 353 3209 353 
Q 3256 353 3325 363 
Q 3397 369 3419 372 
L 3338 -44 
Q 3222 -84 3103 -103 
Q 2981 -122 2866 -122 
Q 2491 -122 2388 81 
Q 2284 288 2391 838 
L 2797 2925 
L 1506 2925 
L 938 0 
L 350 0 
L 919 2925 
L 472 2925 
L 584 3500 
z
" transform="scale(0.015625)"/>
       </defs>
       <use xlink:href="#DejaVuSans-2212" transform="translate(0 0.3125)"/>
       <use xlink:href="#DejaVuSans-Oblique-3c0" transform="translate(83.789062 0.3125)"/>
      </g>
     </g>
    </g>
    <g id="ytick_2">
     <g id="line2d_8">
      <g>
       <use xlink:href="#m00db6d261b" x="51.678125" y="178.580451" style="stroke: #000000; stroke-width: 0.8"/>
      </g>
     </g>
     <g id="text_9">
      <!-- $-\pi / 2$ -->
      <g transform="translate(20.878125 182.37967) scale(0.1 -0.1)">
       <defs>
        <path id="DejaVuSans-2f" d="M 1625 4666 
L 2156 4666 
L 531 -594 
L 0 -594 
L 1625 4666 
z
" transform="scale(0.015625)"/>
       </defs>
       <use xlink:href="#DejaVuSans-2212" transform="translate(0 0.78125)"/>
       <use xlink:href="#DejaVuSans-Oblique-3c0" transform="translate(83.789062 0.78125)"/>
       <use xlink:href="#DejaVuSans-2f" transform="translate(143.994141 0.78125)"/>
       <use xlink:href="#DejaVuSans-32" transform="translate(174.060547 0.78125)"/>
      </g>
     </g>
    </g>
    <g id="ytick_3">
     <g id="line2d_9">
      <g>
       <use xlink:href="#m00db6d261b" x="51.678125" y="125.002646" style="stroke: #000000; stroke-width: 0.8"/>
      </g>
     </g>
     <g id="text_10">
      <!-- 0 -->
      <g transform="translate(38.315625 128.801865) scale(0.1 -0.1)">
       <use xlink:href="#DejaVuSans-30"/>
      </g>
     </g>
    </g>
    <g id="ytick_4">
     <g id="line2d_10">
      <g>
       <use xlink:href="#m00db6d261b" x="51.678125" y="71.424841" style="stroke: #000000; stroke-width: 0.8"/>
      </g>
     </g>
     <g id="text_11">
      <!-- $\pi / 2$ -->
      <g transform="translate(29.278125 75.22406) scale(0.1 -0.1)">
       <use xlink:href="#DejaVuSans-Oblique-3c0" transform="translate(0 0.78125)"/>
       <use xlink:href="#DejaVuSans-2f" transform="translate(60.205078 0.78125)"/>
       <use xlink:href="#DejaVuSans-32" transform="translate(90.271484 0.78125)"/>
      </g>
     </g>
    </g>
    <g id="ytick_5">
     <g id="line2d_11">
      <g>
       <use xlink:href="#m00db6d261b" x="51.678125" y="17.847036" style="stroke: #000000; stroke-width: 0.8"/>
      </g>
     </g>
     <g id="text_12">
      <!-- $\pi$ -->
      <g transform="translate(38.578125 21.646255) scale(0.1 -0.1)">
       <use xlink:href="#DejaVuSans-Oblique-3c0" transform="translate(0 0.3125)"/>
      </g>
     </g>
    </g>
    <g id="text_13">
     <!-- [m/s] -->
     <g transform="translate(14.798438 137.880937) rotate(-90) scale(0.1 -0.1)">
      <defs>
       <path id="DejaVuSans-73" d="M 2834 3397 
L 2834 2853 
Q 2591 2978 2328 3040 
Q 2066 3103 1784 3103 
Q 1356 3103 1142 2972 
Q 928 2841 928 2578 
Q 928 2378 1081 2264 
Q 1234 2150 1697 2047 
L 1894 2003 
Q 2506 1872 2764 1633 
Q 3022 1394 3022 966 
Q 3022 478 2636 193 
Q 2250 -91 1575 -91 
Q 1294 -91 989 -36 
Q 684 19 347 128 
L 347 722 
Q 666 556 975 473 
Q 1284 391 1588 391 
Q 1994 391 2212 530 
Q 2431 669 2431 922 
Q 2431 1156 2273 1281 
Q 2116 1406 1581 1522 
L 1381 1569 
Q 847 1681 609 1914 
Q 372 2147 372 2553 
Q 372 3047 722 3315 
Q 1072 3584 1716 3584 
Q 2034 3584 2315 3537 
Q 2597 3491 2834 3397 
z
" transform="scale(0.015625)"/>
      </defs>
      <use xlink:href="#DejaVuSans-5b"/>
      <use xlink:href="#DejaVuSans-6d" x="39.013672"/>
      <use xlink:href="#DejaVuSans-2f" x="136.425781"/>
      <use xlink:href="#DejaVuSans-73" x="170.117188"/>
      <use xlink:href="#DejaVuSans-5d" x="222.216797"/>
     </g>
    </g>
   </g>
   <g id="patch_3">
    <path d="M 51.678125 242.44 
L 51.678125 7.2 
" style="fill: none; stroke: #000000; stroke-width: 0.8; stroke-linejoin: miter; stroke-linecap: square"/>
   </g>
   <g id="patch_4">
    <path d="M 410.488125 242.44 
L 410.488125 7.2 
" style="fill: none; stroke: #000000; stroke-width: 0.8; stroke-linejoin: miter; stroke-linecap: square"/>
   </g>
   <g id="patch_5">
    <path d="M 51.678125 242.44 
L 410.488125 242.44 
" style="fill: none; stroke: #000000; stroke-width: 0.8; stroke-linejoin: miter; stroke-linecap: square"/>
   </g>
   <g id="patch_6">
    <path d="M 51.678125 7.2 
L 410.488125 7.2 
" style="fill: none; stroke: #000000; stroke-width: 0.8; stroke-linejoin: miter; stroke-linecap: square"/>
   </g>
   <g id="line2d_12">
    <defs>
     <path id="ma0ca00ca4d" d="M 0 3 
C 0.795609 3 1.55874 2.683901 2.12132 2.12132 
C 2.683901 1.55874 3 0.795609 3 0 
C 3 -0.795609 2.683901 -1.55874 2.12132 -2.12132 
C 1.55874 -2.683901 0.795609 -3 0 -3 
C -0.795609 -3 -1.55874 -2.683901 -2.12132 -2.12132 
C -2.683901 -1.55874 -3 -0.795609 -3 0 
C -3 0.795609 -2.683901 1.55874 -2.12132 2.12132 
C -1.55874 2.683901 -0.795609 3 0 3 
z
" style="stroke: #1f77b4"/>
    </defs>
    <g clip-path="url(#p4c95cc89b1)">
     <use xlink:href="#ma0ca00ca4d" x="67.98767" y="125.002646" style="fill: #1f77b4; stroke: #1f77b4"/>
     <use xlink:href="#ma0ca00ca4d" x="74.644628" y="103.714113" style="fill: #1f77b4; stroke: #1f77b4"/>
     <use xlink:href="#ma0ca00ca4d" x="81.301585" y="83.274286" style="fill: #1f77b4; stroke: #1f77b4"/>
     <use xlink:href="#ma0ca00ca4d" x="87.958542" y="64.498038" style="fill: #1f77b4; stroke: #1f77b4"/>
     <use xlink:href="#ma0ca00ca4d" x="94.6155" y="48.133917" style="fill: #1f77b4; stroke: #1f77b4"/>
     <use xlink:href="#ma0ca00ca4d" x="101.272457" y="34.83431" style="fill: #1f77b4; stroke: #1f77b4"/>
     <use xlink:href="#ma0ca00ca4d" x="107.929414" y="25.12943" style="fill: #1f77b4; stroke: #1f77b4"/>
     <use xlink:href="#ma0ca00ca4d" x="114.586372" y="19.40618" style="fill: #1f77b4; stroke: #1f77b4"/>
     <use xlink:href="#ma0ca00ca4d" x="121.243329" y="17.892727" style="fill: #1f77b4; stroke: #1f77b4"/>
     <use xlink:href="#ma0ca00ca4d" x="127.900286" y="20.64941" style="fill: #1f77b4; stroke: #1f77b4"/>
     <use xlink:href="#ma0ca00ca4d" x="134.557244" y="27.566326" style="fill: #1f77b4; stroke: #1f77b4"/>
     <use xlink:href="#ma0ca00ca4d" x="141.214201" y="38.367721" style="fill: #1f77b4; stroke: #1f77b4"/>
     <use xlink:href="#ma0ca00ca4d" x="147.871158" y="52.622977" style="fill: #1f77b4; stroke: #1f77b4"/>
     <use xlink:href="#ma0ca00ca4d" x="154.528116" y="69.763782" style="fill: #1f77b4; stroke: #1f77b4"/>
     <use xlink:href="#ma0ca00ca4d" x="161.185073" y="89.106787" style="fill: #1f77b4; stroke: #1f77b4"/>
     <use xlink:href="#ma0ca00ca4d" x="167.84203" y="109.880846" style="fill: #1f77b4; stroke: #1f77b4"/>
     <use xlink:href="#ma0ca00ca4d" x="174.498988" y="131.257763" style="fill: #1f77b4; stroke: #1f77b4"/>
     <use xlink:href="#ma0ca00ca4d" x="181.155945" y="152.385309" style="fill: #1f77b4; stroke: #1f77b4"/>
     <use xlink:href="#ma0ca00ca4d" x="187.812902" y="172.421194" style="fill: #1f77b4; stroke: #1f77b4"/>
     <use xlink:href="#ma0ca00ca4d" x="194.46986" y="190.566652" style="fill: #1f77b4; stroke: #1f77b4"/>
     <use xlink:href="#ma0ca00ca4d" x="201.126817" y="206.098279" style="fill: #1f77b4; stroke: #1f77b4"/>
     <use xlink:href="#ma0ca00ca4d" x="207.783774" y="218.39688" style="fill: #1f77b4; stroke: #1f77b4"/>
     <use xlink:href="#ma0ca00ca4d" x="214.440732" y="226.972147" style="fill: #1f77b4; stroke: #1f77b4"/>
     <use xlink:href="#ma0ca00ca4d" x="221.097689" y="231.482212" style="fill: #1f77b4; stroke: #1f77b4"/>
     <use xlink:href="#ma0ca00ca4d" x="227.754646" y="231.747273" style="fill: #1f77b4; stroke: #1f77b4"/>
     <use xlink:href="#ma0ca00ca4d" x="234.411604" y="227.756762" style="fill: #1f77b4; stroke: #1f77b4"/>
     <use xlink:href="#ma0ca00ca4d" x="241.068561" y="219.669769" style="fill: #1f77b4; stroke: #1f77b4"/>
     <use xlink:href="#ma0ca00ca4d" x="247.725518" y="207.808696" style="fill: #1f77b4; stroke: #1f77b4"/>
     <use xlink:href="#ma0ca00ca4d" x="254.382476" y="192.646408" style="fill: #1f77b4; stroke: #1f77b4"/>
     <use xlink:href="#ma0ca00ca4d" x="261.039433" y="174.787376" style="fill: #1f77b4; stroke: #1f77b4"/>
     <use xlink:href="#ma0ca00ca4d" x="267.69639" y="154.943585" style="fill: #1f77b4; stroke: #1f77b4"/>
     <use xlink:href="#ma0ca00ca4d" x="274.353348" y="133.906142" style="fill: #1f77b4; stroke: #1f77b4"/>
     <use xlink:href="#ma0ca00ca4d" x="281.010305" y="112.513745" style="fill: #1f77b4; stroke: #1f77b4"/>
     <use xlink:href="#ma0ca00ca4d" x="287.667262" y="91.619242" style="fill: #1f77b4; stroke: #1f77b4"/>
     <use xlink:href="#ma0ca00ca4d" x="294.32422" y="72.055629" style="fill: #1f77b4; stroke: #1f77b4"/>
     <use xlink:href="#ma0ca00ca4d" x="300.981177" y="54.602847" style="fill: #1f77b4; stroke: #1f77b4"/>
     <use xlink:href="#ma0ca00ca4d" x="307.638134" y="39.956682" style="fill: #1f77b4; stroke: #1f77b4"/>
     <use xlink:href="#ma0ca00ca4d" x="314.295092" y="28.701032" style="fill: #1f77b4; stroke: #1f77b4"/>
     <use xlink:href="#ma0ca00ca4d" x="320.952049" y="21.284624" style="fill: #1f77b4; stroke: #1f77b4"/>
     <use xlink:href="#ma0ca00ca4d" x="327.609006" y="18.003125" style="fill: #1f77b4; stroke: #1f77b4"/>
     <use xlink:href="#ma0ca00ca4d" x="334.265964" y="18.98736" style="fill: #1f77b4; stroke: #1f77b4"/>
     <use xlink:href="#ma0ca00ca4d" x="340.922921" y="24.19809" style="fill: #1f77b4; stroke: #1f77b4"/>
     <use xlink:href="#ma0ca00ca4d" x="347.579878" y="33.427579" style="fill: #1f77b4; stroke: #1f77b4"/>
     <use xlink:href="#ma0ca00ca4d" x="354.236836" y="46.307877" style="fill: #1f77b4; stroke: #1f77b4"/>
     <use xlink:href="#ma0ca00ca4d" x="360.893793" y="62.325488" style="fill: #1f77b4; stroke: #1f77b4"/>
     <use xlink:href="#ma0ca00ca4d" x="367.55075" y="80.841839" style="fill: #1f77b4; stroke: #1f77b4"/>
     <use xlink:href="#ma0ca00ca4d" x="374.207708" y="101.118742" style="fill: #1f77b4; stroke: #1f77b4"/>
     <use xlink:href="#ma0ca00ca4d" x="380.864665" y="122.347821" style="fill: #1f77b4; stroke: #1f77b4"/>
     <use xlink:href="#ma0ca00ca4d" x="387.521622" y="143.682739" style="fill: #1f77b4; stroke: #1f77b4"/>
     <use xlink:href="#ma0ca00ca4d" x="394.17858" y="164.272941" style="fill: #1f77b4; stroke: #1f77b4"/>
    </g>
   </g>
  </g>
 </g>
 <defs>
  <clipPath id="p4c95cc89b1">
   <rect x="51.678125" y="7.2" width="358.81" height="235.24"/>
  </clipPath>
 </defs>
</svg>
