<?xml version="1.0" encoding="utf-8" standalone="no"?>
<!DOCTYPE svg PUBLIC "-//W3C//DTD SVG 1.1//EN"
  "http://www.w3.org/Graphics/SVG/1.1/DTD/svg11.dtd">
<svg xmlns:xlink="http://www.w3.org/1999/xlink" width="390.982812pt" height="269.079835pt" viewBox="0 0 390.982812 269.079835" xmlns="http://www.w3.org/2000/svg" version="1.1">
 <metadata>
  <rdf:RDF xmlns:dc="http://purl.org/dc/elements/1.1/" xmlns:cc="http://creativecommons.org/ns#" xmlns:rdf="http://www.w3.org/1999/02/22-rdf-syntax-ns#">
   <cc:Work>
    <dc:type rdf:resource="http://purl.org/dc/dcmitype/StillImage"/>
    <dc:date>2024-09-25T14:07:38.993418</dc:date>
    <dc:format>image/svg+xml</dc:format>
    <dc:creator>
     <cc:Agent>
      <dc:title>Matplotlib v3.9.2, https://matplotlib.org/</dc:title>
     </cc:Agent>
    </dc:creator>
   </cc:Work>
  </rdf:RDF>
 </metadata>
 <defs>
  <style type="text/css">*{stroke-linejoin: round; stroke-linecap: butt}</style>
 </defs>
 <g id="figure_1">
  <g id="patch_1">
   <path d="M 0 269.079835 
L 390.982812 269.079835 
L 390.982812 0 
L 0 0 
z
" style="fill: #ffffff"/>
  </g>
  <g id="axes_1">
   <g id="patch_2">
    <path d="M 48.982813 231.523585 
L 383.782813 231.523585 
L 383.782813 9.763585 
L 48.982813 9.763585 
z
" style="fill: #ffffff"/>
   </g>
   <g id="matplotlib.axis_1">
    <g id="xtick_1">
     <g id="line2d_1">
      <defs>
       <path id="md816a3c45e" d="M 0 0 
L 0 3.5 
" style="stroke: #000000; stroke-width: 0.8"/>
      </defs>
      <g>
       <use xlink:href="#md816a3c45e" x="64.200994" y="231.523585" style="stroke: #000000; stroke-width: 0.8"/>
      </g>
     </g>
     <g id="text_1">
      <!-- 2000-01 -->
      <g transform="translate(43.309588 246.122023) scale(0.1 -0.1)">
       <defs>
        <path id="DejaVuSans-32" d="M 1228 531 
L 3431 531 
L 3431 0 
L 469 0 
L 469 531 
Q 828 903 1448 1529 
Q 2069 2156 2228 2338 
Q 2531 2678 2651 2914 
Q 2772 3150 2772 3378 
Q 2772 3750 2511 3984 
Q 2250 4219 1831 4219 
Q 1534 4219 1204 4116 
Q 875 4013 500 3803 
L 500 4441 
Q 881 4594 1212 4672 
Q 1544 4750 1819 4750 
Q 2544 4750 2975 4387 
Q 3406 4025 3406 3419 
Q 3406 3131 3298 2873 
Q 3191 2616 2906 2266 
Q 2828 2175 2409 1742 
Q 1991 1309 1228 531 
z
" transform="scale(0.015625)"/>
        <path id="DejaVuSans-30" d="M 2034 4250 
Q 1547 4250 1301 3770 
Q 1056 3291 1056 2328 
Q 1056 1369 1301 889 
Q 1547 409 2034 409 
Q 2525 409 2770 889 
Q 3016 1369 3016 2328 
Q 3016 3291 2770 3770 
Q 2525 4250 2034 4250 
z
M 2034 4750 
Q 2819 4750 3233 4129 
Q 3647 3509 3647 2328 
Q 3647 1150 3233 529 
Q 2819 -91 2034 -91 
Q 1250 -91 836 529 
Q 422 1150 422 2328 
Q 422 3509 836 4129 
Q 1250 4750 2034 4750 
z
" transform="scale(0.015625)"/>
        <path id="DejaVuSans-2d" d="M 313 2009 
L 1997 2009 
L 1997 1497 
L 313 1497 
L 313 2009 
z
" transform="scale(0.015625)"/>
        <path id="DejaVuSans-31" d="M 794 531 
L 1825 531 
L 1825 4091 
L 703 3866 
L 703 4441 
L 1819 4666 
L 2450 4666 
L 2450 531 
L 3481 531 
L 3481 0 
L 794 0 
L 794 531 
z
" transform="scale(0.015625)"/>
       </defs>
       <use xlink:href="#DejaVuSans-32"/>
       <use xlink:href="#DejaVuSans-30" x="63.623047"/>
       <use xlink:href="#DejaVuSans-30" x="127.246094"/>
       <use xlink:href="#DejaVuSans-30" x="190.869141"/>
       <use xlink:href="#DejaVuSans-2d" x="254.492188"/>
       <use xlink:href="#DejaVuSans-30" x="290.576172"/>
       <use xlink:href="#DejaVuSans-31" x="354.199219"/>
      </g>
     </g>
    </g>
    <g id="xtick_2">
     <g id="line2d_2">
      <g>
       <use xlink:href="#md816a3c45e" x="111.614425" y="231.523585" style="stroke: #000000; stroke-width: 0.8"/>
      </g>
     </g>
     <g id="text_2">
      <!-- 2000-02 -->
      <g transform="translate(90.723019 246.122023) scale(0.1 -0.1)">
       <use xlink:href="#DejaVuSans-32"/>
       <use xlink:href="#DejaVuSans-30" x="63.623047"/>
       <use xlink:href="#DejaVuSans-30" x="127.246094"/>
       <use xlink:href="#DejaVuSans-30" x="190.869141"/>
       <use xlink:href="#DejaVuSans-2d" x="254.492188"/>
       <use xlink:href="#DejaVuSans-30" x="290.576172"/>
       <use xlink:href="#DejaVuSans-32" x="354.199219"/>
      </g>
     </g>
    </g>
    <g id="xtick_3">
     <g id="line2d_3">
      <g>
       <use xlink:href="#md816a3c45e" x="155.968925" y="231.523585" style="stroke: #000000; stroke-width: 0.8"/>
      </g>
     </g>
     <g id="text_3">
      <!-- 2000-03 -->
      <g transform="translate(135.077519 246.122023) scale(0.1 -0.1)">
       <defs>
        <path id="DejaVuSans-33" d="M 2597 2516 
Q 3050 2419 3304 2112 
Q 3559 1806 3559 1356 
Q 3559 666 3084 287 
Q 2609 -91 1734 -91 
Q 1441 -91 1130 -33 
Q 819 25 488 141 
L 488 750 
Q 750 597 1062 519 
Q 1375 441 1716 441 
Q 2309 441 2620 675 
Q 2931 909 2931 1356 
Q 2931 1769 2642 2001 
Q 2353 2234 1838 2234 
L 1294 2234 
L 1294 2753 
L 1863 2753 
Q 2328 2753 2575 2939 
Q 2822 3125 2822 3475 
Q 2822 3834 2567 4026 
Q 2313 4219 1838 4219 
Q 1578 4219 1281 4162 
Q 984 4106 628 3988 
L 628 4550 
Q 988 4650 1302 4700 
Q 1616 4750 1894 4750 
Q 2613 4750 3031 4423 
Q 3450 4097 3450 3541 
Q 3450 3153 3228 2886 
Q 3006 2619 2597 2516 
z
" transform="scale(0.015625)"/>
       </defs>
       <use xlink:href="#DejaVuSans-32"/>
       <use xlink:href="#DejaVuSans-30" x="63.623047"/>
       <use xlink:href="#DejaVuSans-30" x="127.246094"/>
       <use xlink:href="#DejaVuSans-30" x="190.869141"/>
       <use xlink:href="#DejaVuSans-2d" x="254.492188"/>
       <use xlink:href="#DejaVuSans-30" x="290.576172"/>
       <use xlink:href="#DejaVuSans-33" x="354.199219"/>
      </g>
     </g>
    </g>
    <g id="xtick_4">
     <g id="line2d_4">
      <g>
       <use xlink:href="#md816a3c45e" x="203.382356" y="231.523585" style="stroke: #000000; stroke-width: 0.8"/>
      </g>
     </g>
     <g id="text_4">
      <!-- 2000-04 -->
      <g transform="translate(182.490949 246.122023) scale(0.1 -0.1)">
       <defs>
        <path id="DejaVuSans-34" d="M 2419 4116 
L 825 1625 
L 2419 1625 
L 2419 4116 
z
M 2253 4666 
L 3047 4666 
L 3047 1625 
L 3713 1625 
L 3713 1100 
L 3047 1100 
L 3047 0 
L 2419 0 
L 2419 1100 
L 313 1100 
L 313 1709 
L 2253 4666 
z
" transform="scale(0.015625)"/>
       </defs>
       <use xlink:href="#DejaVuSans-32"/>
       <use xlink:href="#DejaVuSans-30" x="63.623047"/>
       <use xlink:href="#DejaVuSans-30" x="127.246094"/>
       <use xlink:href="#DejaVuSans-30" x="190.869141"/>
       <use xlink:href="#DejaVuSans-2d" x="254.492188"/>
       <use xlink:href="#DejaVuSans-30" x="290.576172"/>
       <use xlink:href="#DejaVuSans-34" x="354.199219"/>
      </g>
     </g>
    </g>
    <g id="xtick_5">
     <g id="line2d_5">
      <g>
       <use xlink:href="#md816a3c45e" x="249.266321" y="231.523585" style="stroke: #000000; stroke-width: 0.8"/>
      </g>
     </g>
     <g id="text_5">
      <!-- 2000-05 -->
      <g transform="translate(228.374915 246.122023) scale(0.1 -0.1)">
       <defs>
        <path id="DejaVuSans-35" d="M 691 4666 
L 3169 4666 
L 3169 4134 
L 1269 4134 
L 1269 2991 
Q 1406 3038 1543 3061 
Q 1681 3084 1819 3084 
Q 2600 3084 3056 2656 
Q 3513 2228 3513 1497 
Q 3513 744 3044 326 
Q 2575 -91 1722 -91 
Q 1428 -91 1123 -41 
Q 819 9 494 109 
L 494 744 
Q 775 591 1075 516 
Q 1375 441 1709 441 
Q 2250 441 2565 725 
Q 2881 1009 2881 1497 
Q 2881 1984 2565 2268 
Q 2250 2553 1709 2553 
Q 1456 2553 1204 2497 
Q 953 2441 691 2322 
L 691 4666 
z
" transform="scale(0.015625)"/>
       </defs>
       <use xlink:href="#DejaVuSans-32"/>
       <use xlink:href="#DejaVuSans-30" x="63.623047"/>
       <use xlink:href="#DejaVuSans-30" x="127.246094"/>
       <use xlink:href="#DejaVuSans-30" x="190.869141"/>
       <use xlink:href="#DejaVuSans-2d" x="254.492188"/>
       <use xlink:href="#DejaVuSans-30" x="290.576172"/>
       <use xlink:href="#DejaVuSans-35" x="354.199219"/>
      </g>
     </g>
    </g>
    <g id="xtick_6">
     <g id="line2d_6">
      <g>
       <use xlink:href="#md816a3c45e" x="296.679752" y="231.523585" style="stroke: #000000; stroke-width: 0.8"/>
      </g>
     </g>
     <g id="text_6">
      <!-- 2000-06 -->
      <g transform="translate(275.788345 246.122023) scale(0.1 -0.1)">
       <defs>
        <path id="DejaVuSans-36" d="M 2113 2584 
Q 1688 2584 1439 2293 
Q 1191 2003 1191 1497 
Q 1191 994 1439 701 
Q 1688 409 2113 409 
Q 2538 409 2786 701 
Q 3034 994 3034 1497 
Q 3034 2003 2786 2293 
Q 2538 2584 2113 2584 
z
M 3366 4563 
L 3366 3988 
Q 3128 4100 2886 4159 
Q 2644 4219 2406 4219 
Q 1781 4219 1451 3797 
Q 1122 3375 1075 2522 
Q 1259 2794 1537 2939 
Q 1816 3084 2150 3084 
Q 2853 3084 3261 2657 
Q 3669 2231 3669 1497 
Q 3669 778 3244 343 
Q 2819 -91 2113 -91 
Q 1303 -91 875 529 
Q 447 1150 447 2328 
Q 447 3434 972 4092 
Q 1497 4750 2381 4750 
Q 2619 4750 2861 4703 
Q 3103 4656 3366 4563 
z
" transform="scale(0.015625)"/>
       </defs>
       <use xlink:href="#DejaVuSans-32"/>
       <use xlink:href="#DejaVuSans-30" x="63.623047"/>
       <use xlink:href="#DejaVuSans-30" x="127.246094"/>
       <use xlink:href="#DejaVuSans-30" x="190.869141"/>
       <use xlink:href="#DejaVuSans-2d" x="254.492188"/>
       <use xlink:href="#DejaVuSans-30" x="290.576172"/>
       <use xlink:href="#DejaVuSans-36" x="354.199219"/>
      </g>
     </g>
    </g>
    <g id="xtick_7">
     <g id="line2d_7">
      <g>
       <use xlink:href="#md816a3c45e" x="342.563717" y="231.523585" style="stroke: #000000; stroke-width: 0.8"/>
      </g>
     </g>
     <g id="text_7">
      <!-- 2000-07 -->
      <g transform="translate(321.672311 246.122023) scale(0.1 -0.1)">
       <defs>
        <path id="DejaVuSans-37" d="M 525 4666 
L 3525 4666 
L 3525 4397 
L 1831 0 
L 1172 0 
L 2766 4134 
L 525 4134 
L 525 4666 
z
" transform="scale(0.015625)"/>
       </defs>
       <use xlink:href="#DejaVuSans-32"/>
       <use xlink:href="#DejaVuSans-30" x="63.623047"/>
       <use xlink:href="#DejaVuSans-30" x="127.246094"/>
       <use xlink:href="#DejaVuSans-30" x="190.869141"/>
       <use xlink:href="#DejaVuSans-2d" x="254.492188"/>
       <use xlink:href="#DejaVuSans-30" x="290.576172"/>
       <use xlink:href="#DejaVuSans-37" x="354.199219"/>
      </g>
     </g>
    </g>
    <g id="text_8">
     <!-- row [datetime] -->
     <g transform="translate(179.229688 259.800148) scale(0.1 -0.1)">
      <defs>
       <path id="DejaVuSans-72" d="M 2631 2963 
Q 2534 3019 2420 3045 
Q 2306 3072 2169 3072 
Q 1681 3072 1420 2755 
Q 1159 2438 1159 1844 
L 1159 0 
L 581 0 
L 581 3500 
L 1159 3500 
L 1159 2956 
Q 1341 3275 1631 3429 
Q 1922 3584 2338 3584 
Q 2397 3584 2469 3576 
Q 2541 3569 2628 3553 
L 2631 2963 
z
" transform="scale(0.015625)"/>
       <path id="DejaVuSans-6f" d="M 1959 3097 
Q 1497 3097 1228 2736 
Q 959 2375 959 1747 
Q 959 1119 1226 758 
Q 1494 397 1959 397 
Q 2419 397 2687 759 
Q 2956 1122 2956 1747 
Q 2956 2369 2687 2733 
Q 2419 3097 1959 3097 
z
M 1959 3584 
Q 2709 3584 3137 3096 
Q 3566 2609 3566 1747 
Q 3566 888 3137 398 
Q 2709 -91 1959 -91 
Q 1206 -91 779 398 
Q 353 888 353 1747 
Q 353 2609 779 3096 
Q 1206 3584 1959 3584 
z
" transform="scale(0.015625)"/>
       <path id="DejaVuSans-77" d="M 269 3500 
L 844 3500 
L 1563 769 
L 2278 3500 
L 2956 3500 
L 3675 769 
L 4391 3500 
L 4966 3500 
L 4050 0 
L 3372 0 
L 2619 2869 
L 1863 0 
L 1184 0 
L 269 3500 
z
" transform="scale(0.015625)"/>
       <path id="DejaVuSans-20" transform="scale(0.015625)"/>
       <path id="DejaVuSans-5b" d="M 550 4863 
L 1875 4863 
L 1875 4416 
L 1125 4416 
L 1125 -397 
L 1875 -397 
L 1875 -844 
L 550 -844 
L 550 4863 
z
" transform="scale(0.015625)"/>
       <path id="DejaVuSans-64" d="M 2906 2969 
L 2906 4863 
L 3481 4863 
L 3481 0 
L 2906 0 
L 2906 525 
Q 2725 213 2448 61 
Q 2172 -91 1784 -91 
Q 1150 -91 751 415 
Q 353 922 353 1747 
Q 353 2572 751 3078 
Q 1150 3584 1784 3584 
Q 2172 3584 2448 3432 
Q 2725 3281 2906 2969 
z
M 947 1747 
Q 947 1113 1208 752 
Q 1469 391 1925 391 
Q 2381 391 2643 752 
Q 2906 1113 2906 1747 
Q 2906 2381 2643 2742 
Q 2381 3103 1925 3103 
Q 1469 3103 1208 2742 
Q 947 2381 947 1747 
z
" transform="scale(0.015625)"/>
       <path id="DejaVuSans-61" d="M 2194 1759 
Q 1497 1759 1228 1600 
Q 959 1441 959 1056 
Q 959 750 1161 570 
Q 1363 391 1709 391 
Q 2188 391 2477 730 
Q 2766 1069 2766 1631 
L 2766 1759 
L 2194 1759 
z
M 3341 1997 
L 3341 0 
L 2766 0 
L 2766 531 
Q 2569 213 2275 61 
Q 1981 -91 1556 -91 
Q 1019 -91 701 211 
Q 384 513 384 1019 
Q 384 1609 779 1909 
Q 1175 2209 1959 2209 
L 2766 2209 
L 2766 2266 
Q 2766 2663 2505 2880 
Q 2244 3097 1772 3097 
Q 1472 3097 1187 3025 
Q 903 2953 641 2809 
L 641 3341 
Q 956 3463 1253 3523 
Q 1550 3584 1831 3584 
Q 2591 3584 2966 3190 
Q 3341 2797 3341 1997 
z
" transform="scale(0.015625)"/>
       <path id="DejaVuSans-74" d="M 1172 4494 
L 1172 3500 
L 2356 3500 
L 2356 3053 
L 1172 3053 
L 1172 1153 
Q 1172 725 1289 603 
Q 1406 481 1766 481 
L 2356 481 
L 2356 0 
L 1766 0 
Q 1100 0 847 248 
Q 594 497 594 1153 
L 594 3053 
L 172 3053 
L 172 3500 
L 594 3500 
L 594 4494 
L 1172 4494 
z
" transform="scale(0.015625)"/>
       <path id="DejaVuSans-65" d="M 3597 1894 
L 3597 1613 
L 953 1613 
Q 991 1019 1311 708 
Q 1631 397 2203 397 
Q 2534 397 2845 478 
Q 3156 559 3463 722 
L 3463 178 
Q 3153 47 2828 -22 
Q 2503 -91 2169 -91 
Q 1331 -91 842 396 
Q 353 884 353 1716 
Q 353 2575 817 3079 
Q 1281 3584 2069 3584 
Q 2775 3584 3186 3129 
Q 3597 2675 3597 1894 
z
M 3022 2063 
Q 3016 2534 2758 2815 
Q 2500 3097 2075 3097 
Q 1594 3097 1305 2825 
Q 1016 2553 972 2059 
L 3022 2063 
z
" transform="scale(0.015625)"/>
       <path id="DejaVuSans-69" d="M 603 3500 
L 1178 3500 
L 1178 0 
L 603 0 
L 603 3500 
z
M 603 4863 
L 1178 4863 
L 1178 4134 
L 603 4134 
L 603 4863 
z
" transform="scale(0.015625)"/>
       <path id="DejaVuSans-6d" d="M 3328 2828 
Q 3544 3216 3844 3400 
Q 4144 3584 4550 3584 
Q 5097 3584 5394 3201 
Q 5691 2819 5691 2113 
L 5691 0 
L 5113 0 
L 5113 2094 
Q 5113 2597 4934 2840 
Q 4756 3084 4391 3084 
Q 3944 3084 3684 2787 
Q 3425 2491 3425 1978 
L 3425 0 
L 2847 0 
L 2847 2094 
Q 2847 2600 2669 2842 
Q 2491 3084 2119 3084 
Q 1678 3084 1418 2786 
Q 1159 2488 1159 1978 
L 1159 0 
L 581 0 
L 581 3500 
L 1159 3500 
L 1159 2956 
Q 1356 3278 1631 3431 
Q 1906 3584 2284 3584 
Q 2666 3584 2933 3390 
Q 3200 3197 3328 2828 
z
" transform="scale(0.015625)"/>
       <path id="DejaVuSans-5d" d="M 1947 4863 
L 1947 -844 
L 622 -844 
L 622 -397 
L 1369 -397 
L 1369 4416 
L 622 4416 
L 622 4863 
L 1947 4863 
z
" transform="scale(0.015625)"/>
      </defs>
      <use xlink:href="#DejaVuSans-72"/>
      <use xlink:href="#DejaVuSans-6f" x="38.863281"/>
      <use xlink:href="#DejaVuSans-77" x="100.044922"/>
      <use xlink:href="#DejaVuSans-20" x="181.832031"/>
      <use xlink:href="#DejaVuSans-5b" x="213.619141"/>
      <use xlink:href="#DejaVuSans-64" x="252.632812"/>
      <use xlink:href="#DejaVuSans-61" x="316.109375"/>
      <use xlink:href="#DejaVuSans-74" x="377.388672"/>
      <use xlink:href="#DejaVuSans-65" x="416.597656"/>
      <use xlink:href="#DejaVuSans-74" x="478.121094"/>
      <use xlink:href="#DejaVuSans-69" x="517.330078"/>
      <use xlink:href="#DejaVuSans-6d" x="545.113281"/>
      <use xlink:href="#DejaVuSans-65" x="642.525391"/>
      <use xlink:href="#DejaVuSans-5d" x="704.048828"/>
     </g>
    </g>
   </g>
   <g id="matplotlib.axis_2">
    <g id="ytick_1">
     <g id="line2d_8">
      <defs>
       <path id="m85fd0fb9e6" d="M 0 0 
L -3.5 0 
" style="stroke: #000000; stroke-width: 0.8"/>
      </defs>
      <g>
       <use xlink:href="#m85fd0fb9e6" x="48.982813" y="207.533586" style="stroke: #000000; stroke-width: 0.8"/>
      </g>
     </g>
     <g id="text_9">
      <!-- −10 -->
      <g transform="translate(20.878125 211.332805) scale(0.1 -0.1)">
       <defs>
        <path id="DejaVuSans-2212" d="M 678 2272 
L 4684 2272 
L 4684 1741 
L 678 1741 
L 678 2272 
z
" transform="scale(0.015625)"/>
       </defs>
       <use xlink:href="#DejaVuSans-2212"/>
       <use xlink:href="#DejaVuSans-31" x="83.789062"/>
       <use xlink:href="#DejaVuSans-30" x="147.412109"/>
      </g>
     </g>
    </g>
    <g id="ytick_2">
     <g id="line2d_9">
      <g>
       <use xlink:href="#m85fd0fb9e6" x="48.982813" y="179.457248" style="stroke: #000000; stroke-width: 0.8"/>
      </g>
     </g>
     <g id="text_10">
      <!-- −5 -->
      <g transform="translate(27.240625 183.256466) scale(0.1 -0.1)">
       <use xlink:href="#DejaVuSans-2212"/>
       <use xlink:href="#DejaVuSans-35" x="83.789062"/>
      </g>
     </g>
    </g>
    <g id="ytick_3">
     <g id="line2d_10">
      <g>
       <use xlink:href="#m85fd0fb9e6" x="48.982813" y="151.38091" style="stroke: #000000; stroke-width: 0.8"/>
      </g>
     </g>
     <g id="text_11">
      <!-- 0 -->
      <g transform="translate(35.620312 155.180128) scale(0.1 -0.1)">
       <use xlink:href="#DejaVuSans-30"/>
      </g>
     </g>
    </g>
    <g id="ytick_4">
     <g id="line2d_11">
      <g>
       <use xlink:href="#m85fd0fb9e6" x="48.982813" y="123.304571" style="stroke: #000000; stroke-width: 0.8"/>
      </g>
     </g>
     <g id="text_12">
      <!-- 5 -->
      <g transform="translate(35.620312 127.10379) scale(0.1 -0.1)">
       <use xlink:href="#DejaVuSans-35"/>
      </g>
     </g>
    </g>
    <g id="ytick_5">
     <g id="line2d_12">
      <g>
       <use xlink:href="#m85fd0fb9e6" x="48.982813" y="95.228233" style="stroke: #000000; stroke-width: 0.8"/>
      </g>
     </g>
     <g id="text_13">
      <!-- 10 -->
      <g transform="translate(29.257812 99.027452) scale(0.1 -0.1)">
       <use xlink:href="#DejaVuSans-31"/>
       <use xlink:href="#DejaVuSans-30" x="63.623047"/>
      </g>
     </g>
    </g>
    <g id="ytick_6">
     <g id="line2d_13">
      <g>
       <use xlink:href="#m85fd0fb9e6" x="48.982813" y="67.151895" style="stroke: #000000; stroke-width: 0.8"/>
      </g>
     </g>
     <g id="text_14">
      <!-- 15 -->
      <g transform="translate(29.257812 70.951114) scale(0.1 -0.1)">
       <use xlink:href="#DejaVuSans-31"/>
       <use xlink:href="#DejaVuSans-35" x="63.623047"/>
      </g>
     </g>
    </g>
    <g id="ytick_7">
     <g id="line2d_14">
      <g>
       <use xlink:href="#m85fd0fb9e6" x="48.982813" y="39.075557" style="stroke: #000000; stroke-width: 0.8"/>
      </g>
     </g>
     <g id="text_15">
      <!-- 20 -->
      <g transform="translate(29.257812 42.874776) scale(0.1 -0.1)">
       <use xlink:href="#DejaVuSans-32"/>
       <use xlink:href="#DejaVuSans-30" x="63.623047"/>
      </g>
     </g>
    </g>
    <g id="ytick_8">
     <g id="line2d_15">
      <g>
       <use xlink:href="#m85fd0fb9e6" x="48.982813" y="10.999219" style="stroke: #000000; stroke-width: 0.8"/>
      </g>
     </g>
     <g id="text_16">
      <!-- 25 -->
      <g transform="translate(29.257812 14.798438) scale(0.1 -0.1)">
       <use xlink:href="#DejaVuSans-32"/>
       <use xlink:href="#DejaVuSans-35" x="63.623047"/>
      </g>
     </g>
    </g>
    <g id="text_17">
     <!-- [dimensionless] -->
     <g transform="translate(14.798437 160.120929) rotate(-90) scale(0.1 -0.1)">
      <defs>
       <path id="DejaVuSans-6e" d="M 3513 2113 
L 3513 0 
L 2938 0 
L 2938 2094 
Q 2938 2591 2744 2837 
Q 2550 3084 2163 3084 
Q 1697 3084 1428 2787 
Q 1159 2491 1159 1978 
L 1159 0 
L 581 0 
L 581 3500 
L 1159 3500 
L 1159 2956 
Q 1366 3272 1645 3428 
Q 1925 3584 2291 3584 
Q 2894 3584 3203 3211 
Q 3513 2838 3513 2113 
z
" transform="scale(0.015625)"/>
       <path id="DejaVuSans-73" d="M 2834 3397 
L 2834 2853 
Q 2591 2978 2328 3040 
Q 2066 3103 1784 3103 
Q 1356 3103 1142 2972 
Q 928 2841 928 2578 
Q 928 2378 1081 2264 
Q 1234 2150 1697 2047 
L 1894 2003 
Q 2506 1872 2764 1633 
Q 3022 1394 3022 966 
Q 3022 478 2636 193 
Q 2250 -91 1575 -91 
Q 1294 -91 989 -36 
Q 684 19 347 128 
L 347 722 
Q 666 556 975 473 
Q 1284 391 1588 391 
Q 1994 391 2212 530 
Q 2431 669 2431 922 
Q 2431 1156 2273 1281 
Q 2116 1406 1581 1522 
L 1381 1569 
Q 847 1681 609 1914 
Q 372 2147 372 2553 
Q 372 3047 722 3315 
Q 1072 3584 1716 3584 
Q 2034 3584 2315 3537 
Q 2597 3491 2834 3397 
z
" transform="scale(0.015625)"/>
       <path id="DejaVuSans-6c" d="M 603 4863 
L 1178 4863 
L 1178 0 
L 603 0 
L 603 4863 
z
" transform="scale(0.015625)"/>
      </defs>
      <use xlink:href="#DejaVuSans-5b"/>
      <use xlink:href="#DejaVuSans-64" x="39.013672"/>
      <use xlink:href="#DejaVuSans-69" x="102.490234"/>
      <use xlink:href="#DejaVuSans-6d" x="130.273438"/>
      <use xlink:href="#DejaVuSans-65" x="227.685547"/>
      <use xlink:href="#DejaVuSans-6e" x="289.208984"/>
      <use xlink:href="#DejaVuSans-73" x="352.587891"/>
      <use xlink:href="#DejaVuSans-69" x="404.6875"/>
      <use xlink:href="#DejaVuSans-6f" x="432.470703"/>
      <use xlink:href="#DejaVuSans-6e" x="493.652344"/>
      <use xlink:href="#DejaVuSans-6c" x="557.03125"/>
      <use xlink:href="#DejaVuSans-65" x="584.814453"/>
      <use xlink:href="#DejaVuSans-73" x="646.337891"/>
      <use xlink:href="#DejaVuSans-73" x="698.4375"/>
      <use xlink:href="#DejaVuSans-5d" x="750.537109"/>
     </g>
    </g>
   </g>
   <g id="patch_3">
    <path d="M 48.982813 231.523585 
L 48.982813 9.763585 
" style="fill: none; stroke: #000000; stroke-width: 0.8; stroke-linejoin: miter; stroke-linecap: square"/>
   </g>
   <g id="patch_4">
    <path d="M 383.782813 231.523585 
L 383.782813 9.763585 
" style="fill: none; stroke: #000000; stroke-width: 0.8; stroke-linejoin: miter; stroke-linecap: square"/>
   </g>
   <g id="patch_5">
    <path d="M 48.982812 231.523585 
L 383.782812 231.523585 
" style="fill: none; stroke: #000000; stroke-width: 0.8; stroke-linejoin: miter; stroke-linecap: square"/>
   </g>
   <g id="patch_6">
    <path d="M 48.982812 9.763585 
L 383.782812 9.763585 
" style="fill: none; stroke: #000000; stroke-width: 0.8; stroke-linejoin: miter; stroke-linecap: square"/>
   </g>
   <g id="legend_1">
    <g id="patch_7">
     <path d="M 55.982813 76.476085 
L 95.682813 76.476085 
Q 97.682813 76.476085 97.682813 74.476085 
L 97.682813 16.763585 
Q 97.682813 14.763585 95.682813 14.763585 
L 55.982813 14.763585 
Q 53.982813 14.763585 53.982813 16.763585 
L 53.982813 74.476085 
Q 53.982813 76.476085 55.982813 76.476085 
z
" style="fill: #ffffff; opacity: 0.8; stroke: #cccccc; stroke-linejoin: miter"/>
    </g>
    <g id="line2d_16">
     <path d="M 57.982813 22.862023 
L 67.982812 22.862023 
L 77.982812 22.862023 
" style="fill: none; stroke: #1f77b4; stroke-width: 1.5; stroke-linecap: square"/>
    </g>
    <g id="text_18">
     <!-- A -->
     <g transform="translate(85.982812 26.362023) scale(0.1 -0.1)">
      <defs>
       <path id="DejaVuSans-41" d="M 2188 4044 
L 1331 1722 
L 3047 1722 
L 2188 4044 
z
M 1831 4666 
L 2547 4666 
L 4325 0 
L 3669 0 
L 3244 1197 
L 1141 1197 
L 716 0 
L 50 0 
L 1831 4666 
z
" transform="scale(0.015625)"/>
      </defs>
      <use xlink:href="#DejaVuSans-41"/>
     </g>
    </g>
    <g id="line2d_17">
     <path d="M 57.982813 37.540148 
L 67.982812 37.540148 
L 77.982812 37.540148 
" style="fill: none; stroke: #ff7f0e; stroke-width: 1.5; stroke-linecap: square"/>
    </g>
    <g id="text_19">
     <!-- B -->
     <g transform="translate(85.982812 41.040148) scale(0.1 -0.1)">
      <defs>
       <path id="DejaVuSans-42" d="M 1259 2228 
L 1259 519 
L 2272 519 
Q 2781 519 3026 730 
Q 3272 941 3272 1375 
Q 3272 1813 3026 2020 
Q 2781 2228 2272 2228 
L 1259 2228 
z
M 1259 4147 
L 1259 2741 
L 2194 2741 
Q 2656 2741 2882 2914 
Q 3109 3088 3109 3444 
Q 3109 3797 2882 3972 
Q 2656 4147 2194 4147 
L 1259 4147 
z
M 628 4666 
L 2241 4666 
Q 2963 4666 3353 4366 
Q 3744 4066 3744 3513 
Q 3744 3084 3544 2831 
Q 3344 2578 2956 2516 
Q 3422 2416 3680 2098 
Q 3938 1781 3938 1306 
Q 3938 681 3513 340 
Q 3088 0 2303 0 
L 628 0 
L 628 4666 
z
" transform="scale(0.015625)"/>
      </defs>
      <use xlink:href="#DejaVuSans-42"/>
     </g>
    </g>
    <g id="line2d_18">
     <path d="M 57.982813 52.218273 
L 67.982812 52.218273 
L 77.982812 52.218273 
" style="fill: none; stroke: #2ca02c; stroke-width: 1.5; stroke-linecap: square"/>
    </g>
    <g id="text_20">
     <!-- C -->
     <g transform="translate(85.982812 55.718273) scale(0.1 -0.1)">
      <defs>
       <path id="DejaVuSans-43" d="M 4122 4306 
L 4122 3641 
Q 3803 3938 3442 4084 
Q 3081 4231 2675 4231 
Q 1875 4231 1450 3742 
Q 1025 3253 1025 2328 
Q 1025 1406 1450 917 
Q 1875 428 2675 428 
Q 3081 428 3442 575 
Q 3803 722 4122 1019 
L 4122 359 
Q 3791 134 3420 21 
Q 3050 -91 2638 -91 
Q 1578 -91 968 557 
Q 359 1206 359 2328 
Q 359 3453 968 4101 
Q 1578 4750 2638 4750 
Q 3056 4750 3426 4639 
Q 3797 4528 4122 4306 
z
" transform="scale(0.015625)"/>
      </defs>
      <use xlink:href="#DejaVuSans-43"/>
     </g>
    </g>
    <g id="line2d_19">
     <path d="M 57.982813 66.896398 
L 67.982812 66.896398 
L 77.982812 66.896398 
" style="fill: none; stroke: #d62728; stroke-width: 1.5; stroke-linecap: square"/>
    </g>
    <g id="text_21">
     <!-- D -->
     <g transform="translate(85.982812 70.396398) scale(0.1 -0.1)">
      <defs>
       <path id="DejaVuSans-44" d="M 1259 4147 
L 1259 519 
L 2022 519 
Q 2988 519 3436 956 
Q 3884 1394 3884 2338 
Q 3884 3275 3436 3711 
Q 2988 4147 2022 4147 
L 1259 4147 
z
M 628 4666 
L 1925 4666 
Q 3281 4666 3915 4102 
Q 4550 3538 4550 2338 
Q 4550 1131 3912 565 
Q 3275 0 1925 0 
L 628 0 
L 628 4666 
z
" transform="scale(0.015625)"/>
      </defs>
      <use xlink:href="#DejaVuSans-44"/>
     </g>
    </g>
   </g>
   <g id="line2d_20">
    <path d="M 64.200994 145.848883 
L 65.73046 150.730181 
L 67.259925 142.947738 
L 68.789391 153.457896 
L 70.318856 151.913505 
L 71.848322 159.241654 
L 73.377787 152.336512 
L 74.907253 146.229217 
L 76.436718 144.318798 
L 77.966184 152.528834 
L 79.495649 159.837813 
L 81.025115 162.741848 
L 82.55458 159.10401 
L 84.084046 158.313991 
L 85.613511 165.776127 
L 87.142977 160.102816 
L 88.672442 146.937531 
L 90.201908 151.162036 
L 91.731373 152.901995 
L 93.260839 153.683222 
L 94.790305 158.188731 
L 96.31977 150.101038 
L 97.849236 139.053865 
L 99.378701 154.05636 
L 100.908167 161.841698 
L 102.437632 156.433129 
L 103.967098 158.397672 
L 105.496563 158.518581 
L 107.026029 167.304003 
L 108.555494 166.454362 
L 110.08496 169.632113 
L 111.614425 170.084225 
L 113.143891 175.821189 
L 114.673356 184.883496 
L 116.202822 181.370052 
L 117.732287 184.512465 
L 119.261753 191.290554 
L 120.791218 196.938154 
L 122.320684 198.365471 
L 123.850149 190.402698 
L 125.379615 189.09282 
L 126.90908 193.848091 
L 128.438546 194.962974 
L 129.968011 195.402391 
L 131.497477 194.96285 
L 133.026942 192.65076 
L 134.556408 190.746078 
L 136.085873 182.343268 
L 137.615339 170.385954 
L 139.144804 169.590059 
L 140.67427 161.000852 
L 142.203735 162.1738 
L 143.733201 164.79179 
L 145.262666 155.395343 
L 146.792132 172.360859 
L 148.321597 169.372905 
L 149.851063 174.41573 
L 151.380528 176.160949 
L 152.909994 177.694919 
L 154.439459 187.550926 
L 155.968925 184.99175 
L 157.49839 193.457255 
L 159.027856 180.455075 
L 160.557321 193.373365 
L 162.086787 202.235774 
L 165.145718 196.68216 
L 166.675183 195.204642 
L 169.734114 217.309297 
L 171.26358 213.530979 
L 172.793045 207.513254 
L 174.322511 214.611121 
L 175.851977 218.653712 
L 177.381442 219.229206 
L 178.910908 220.953709 
L 180.440373 226.925407 
L 181.969839 214.207866 
L 183.499304 216.57976 
L 185.02877 225.955527 
L 186.558235 222.604636 
L 188.087701 224.640287 
L 189.617166 217.106901 
L 191.146632 203.01641 
L 192.676097 198.574825 
L 194.205563 200.987126 
L 195.735028 200.635223 
L 197.264494 204.899192 
L 198.793959 198.366393 
L 200.323425 197.24384 
L 201.85289 196.588608 
L 203.382356 193.015818 
L 204.911821 198.884111 
L 206.441287 193.946186 
L 207.970752 194.002946 
L 209.500218 196.009156 
L 211.029683 197.730372 
L 212.559149 187.589843 
L 214.088614 192.200799 
L 215.61808 187.439821 
L 217.147545 187.085001 
L 220.206476 178.014198 
L 221.735942 184.307074 
L 223.265407 173.890084 
L 224.794873 167.03343 
L 226.324338 163.127504 
L 227.853804 155.580596 
L 229.383269 160.02127 
L 230.912735 158.591295 
L 232.4422 158.467413 
L 233.971666 163.914207 
L 235.501131 164.487585 
L 237.030597 166.041845 
L 238.560062 165.858916 
L 240.089528 165.225036 
L 241.618993 164.810172 
L 243.148459 166.159864 
L 244.677924 164.98271 
L 246.20739 167.483206 
L 247.736855 162.284378 
L 249.266321 160.759794 
L 252.325252 170.638185 
L 253.854717 166.415726 
L 255.384183 175.597623 
L 256.913648 186.272814 
L 258.443114 193.684742 
L 259.97258 191.686694 
L 263.031511 175.988369 
L 264.560976 168.644114 
L 266.090442 170.991194 
L 267.619907 172.180504 
L 269.149373 165.081215 
L 270.678838 160.240367 
L 272.208304 167.191299 
L 273.737769 161.579681 
L 275.267235 152.464816 
L 276.7967 150.160527 
L 278.326166 152.652948 
L 279.855631 159.782525 
L 282.914562 149.436127 
L 284.444028 155.059634 
L 285.973493 154.011048 
L 287.502959 154.025977 
L 289.032424 156.386634 
L 290.56189 154.90448 
L 292.091355 151.025339 
L 293.620821 148.163563 
L 295.150286 160.407733 
L 296.679752 151.544061 
L 298.209217 156.354837 
L 299.738683 164.241138 
L 301.268148 153.244571 
L 302.797614 149.550831 
L 304.327079 147.2719 
L 305.856545 153.179425 
L 307.38601 154.272996 
L 308.915476 155.154058 
L 310.444941 151.629831 
L 311.974407 145.199074 
L 313.503872 146.250126 
L 316.562803 134.961849 
L 318.092269 139.303088 
L 319.621734 135.943351 
L 321.1512 138.760936 
L 322.680665 139.367645 
L 324.210131 138.489049 
L 325.739596 146.900071 
L 327.269062 156.681088 
L 328.798527 167.438695 
L 330.327993 162.7674 
L 331.857458 170.882392 
L 333.386924 174.790494 
L 334.916389 167.96876 
L 336.445855 174.651003 
L 337.97532 175.032876 
L 339.504786 165.802896 
L 341.034252 167.711192 
L 342.563717 169.226589 
L 344.093183 162.618951 
L 345.622648 168.339277 
L 347.152114 161.878515 
L 348.681579 165.609419 
L 350.211045 168.111774 
L 351.74051 160.452908 
L 353.269976 158.966274 
L 354.799441 158.353936 
L 356.328907 163.556051 
L 357.858372 164.35582 
L 359.387838 164.097415 
L 360.917303 162.113276 
L 362.446769 162.56361 
L 363.976234 158.240188 
L 365.5057 163.353213 
L 367.035165 160.338286 
L 368.564631 159.710701 
L 368.564631 159.710701 
" clip-path="url(#p71d57fcb39)" style="fill: none; stroke: #1f77b4; stroke-width: 1.5; stroke-linecap: square"/>
   </g>
   <g id="line2d_21">
    <path d="M 64.200994 143.041274 
L 65.73046 145.128793 
L 67.259925 142.222996 
L 70.318856 149.900051 
L 71.848322 141.39632 
L 73.377787 145.349188 
L 74.907253 132.04298 
L 76.436718 125.194574 
L 77.966184 131.076168 
L 79.495649 128.205021 
L 81.025115 123.512888 
L 82.55458 120.233787 
L 84.084046 116.037076 
L 85.613511 111.260308 
L 87.142977 114.961706 
L 88.672442 122.342314 
L 90.201908 120.693408 
L 91.731373 118.462989 
L 93.260839 124.793559 
L 94.790305 121.183554 
L 96.31977 112.289001 
L 97.849236 106.404596 
L 99.378701 105.069634 
L 100.908167 110.067554 
L 102.437632 113.181563 
L 103.967098 117.263748 
L 105.496563 115.522994 
L 107.026029 118.859119 
L 108.555494 112.018703 
L 110.08496 119.639941 
L 111.614425 130.343458 
L 113.143891 129.454635 
L 116.202822 112.824645 
L 117.732287 108.431882 
L 119.261753 97.30919 
L 120.791218 97.782898 
L 122.320684 103.916976 
L 123.850149 102.002321 
L 125.379615 99.673015 
L 126.90908 110.351943 
L 128.438546 119.237501 
L 129.968011 124.965199 
L 131.497477 122.40103 
L 134.556408 119.413792 
L 136.085873 124.509295 
L 137.615339 122.661412 
L 139.144804 119.44267 
L 140.67427 125.267663 
L 142.203735 127.018584 
L 143.733201 131.376111 
L 145.262666 129.486972 
L 146.792132 131.47619 
L 148.321597 123.556066 
L 149.851063 120.217696 
L 151.380528 123.741304 
L 152.909994 120.503434 
L 154.439459 118.57283 
L 155.968925 112.768884 
L 160.557321 122.461621 
L 162.086787 121.788436 
L 163.616252 117.91579 
L 165.145718 115.716231 
L 166.675183 125.4535 
L 168.204649 132.119177 
L 169.734114 121.635325 
L 171.26358 118.100656 
L 172.793045 120.30316 
L 174.322511 114.529387 
L 175.851977 113.219243 
L 177.381442 107.834906 
L 178.910908 100.995032 
L 180.440373 103.112049 
L 181.969839 87.013973 
L 183.499304 79.457586 
L 185.02877 77.601403 
L 186.558235 79.995855 
L 188.087701 80.1806 
L 189.617166 82.607397 
L 191.146632 79.58488 
L 192.676097 87.676962 
L 194.205563 104.186588 
L 195.735028 108.290644 
L 197.264494 107.528352 
L 198.793959 111.534777 
L 200.323425 112.669576 
L 201.85289 119.19417 
L 203.382356 123.674774 
L 204.911821 130.46146 
L 206.441287 127.833807 
L 207.970752 122.242407 
L 209.500218 116.07626 
L 211.029683 114.986121 
L 212.559149 116.920391 
L 214.088614 124.543618 
L 215.61808 133.922721 
L 217.147545 131.102538 
L 218.677011 133.618406 
L 220.206476 144.322866 
L 221.735942 144.783805 
L 223.265407 145.619072 
L 224.794873 139.979144 
L 226.324338 131.313589 
L 227.853804 140.932496 
L 229.383269 149.272229 
L 230.912735 162.595073 
L 232.4422 155.176379 
L 233.971666 149.939302 
L 235.501131 157.999481 
L 237.030597 160.613036 
L 238.560062 159.368795 
L 240.089528 152.086515 
L 241.618993 151.872156 
L 243.148459 156.37469 
L 244.677924 167.325003 
L 247.736855 155.312609 
L 249.266321 151.838449 
L 250.795786 151.212702 
L 252.325252 148.866899 
L 253.854717 139.979084 
L 255.384183 147.932948 
L 256.913648 145.880348 
L 258.443114 153.479886 
L 259.97258 149.59782 
L 261.502045 148.974475 
L 263.031511 153.797409 
L 264.560976 154.276672 
L 266.090442 149.952021 
L 267.619907 148.326811 
L 269.149373 154.28464 
L 270.678838 144.970112 
L 272.208304 141.521709 
L 273.737769 144.642081 
L 275.267235 150.773389 
L 276.7967 148.718007 
L 278.326166 149.096219 
L 279.855631 139.592465 
L 281.385097 139.267398 
L 282.914562 156.427705 
L 284.444028 151.901214 
L 285.973493 150.441918 
L 287.502959 158.900101 
L 289.032424 156.805873 
L 290.56189 153.463352 
L 292.091355 151.758247 
L 293.620821 139.41618 
L 295.150286 138.585319 
L 296.679752 136.659318 
L 298.209217 143.759268 
L 299.738683 141.184623 
L 301.268148 146.505047 
L 302.797614 141.55016 
L 304.327079 146.955004 
L 305.856545 148.328813 
L 307.38601 145.663086 
L 308.915476 135.330907 
L 310.444941 127.780019 
L 311.974407 131.040898 
L 313.503872 129.92062 
L 315.033338 127.051137 
L 316.562803 120.989663 
L 318.092269 118.849581 
L 319.621734 123.218391 
L 321.1512 115.817252 
L 322.680665 101.117475 
L 324.210131 100.435638 
L 325.739596 107.140993 
L 327.269062 107.992615 
L 328.798527 101.671882 
L 330.327993 95.903028 
L 331.857458 92.579672 
L 333.386924 91.85963 
L 334.916389 92.508955 
L 336.445855 90.328497 
L 337.97532 91.664493 
L 339.504786 86.761316 
L 342.563717 97.941186 
L 344.093183 90.993717 
L 345.622648 86.541569 
L 347.152114 95.036187 
L 348.681579 94.157317 
L 350.211045 94.563266 
L 351.74051 93.942703 
L 353.269976 101.407103 
L 354.799441 105.830611 
L 356.328907 99.952202 
L 357.858372 108.24121 
L 359.387838 100.389823 
L 360.917303 98.403465 
L 362.446769 95.994631 
L 363.976234 92.0273 
L 367.035165 106.290121 
L 368.564631 104.749862 
L 368.564631 104.749862 
" clip-path="url(#p71d57fcb39)" style="fill: none; stroke: #ff7f0e; stroke-width: 1.5; stroke-linecap: square"/>
   </g>
   <g id="line2d_22">
    <path d="M 64.200994 150.44641 
L 65.73046 151.190101 
L 67.259925 141.078317 
L 68.789391 138.330345 
L 70.318856 142.089394 
L 71.848322 133.212183 
L 73.377787 126.922673 
L 74.907253 127.007103 
L 76.436718 120.428952 
L 77.966184 120.263597 
L 79.495649 123.605714 
L 81.025115 128.392306 
L 82.55458 123.908277 
L 84.084046 118.143933 
L 85.613511 116.778336 
L 87.142977 122.127911 
L 88.672442 117.812558 
L 90.201908 120.450922 
L 91.731373 110.459127 
L 93.260839 101.864059 
L 94.790305 95.342397 
L 96.31977 95.10518 
L 97.849236 105.131721 
L 99.378701 104.693653 
L 100.908167 107.022079 
L 102.437632 100.244422 
L 103.967098 94.048576 
L 105.496563 87.03978 
L 107.026029 87.001744 
L 108.555494 86.843773 
L 110.08496 91.235775 
L 111.614425 87.334899 
L 113.143891 86.683054 
L 114.673356 81.12833 
L 116.202822 72.398823 
L 117.732287 65.008817 
L 119.261753 67.235012 
L 120.791218 75.539636 
L 122.320684 77.471954 
L 123.850149 86.464074 
L 126.90908 78.661743 
L 128.438546 75.770655 
L 129.968011 78.29602 
L 131.497477 73.464024 
L 133.026942 79.050806 
L 134.556408 77.984599 
L 136.085873 68.311014 
L 137.615339 69.991409 
L 139.144804 66.717675 
L 140.67427 67.781138 
L 142.203735 71.043469 
L 143.733201 66.117227 
L 145.262666 73.492716 
L 146.792132 72.649632 
L 148.321597 63.562347 
L 149.851063 53.786893 
L 151.380528 45.611611 
L 152.909994 46.950711 
L 154.439459 41.206181 
L 155.968925 41.56698 
L 157.49839 50.987641 
L 159.027856 41.575414 
L 160.557321 48.871526 
L 162.086787 51.209782 
L 163.616252 44.037512 
L 165.145718 38.073001 
L 166.675183 42.085636 
L 168.204649 38.357827 
L 169.734114 42.37779 
L 171.26358 39.246148 
L 172.793045 45.592259 
L 174.322511 46.847124 
L 175.851977 49.230218 
L 177.381442 48.283871 
L 178.910908 50.527006 
L 180.440373 45.382497 
L 181.969839 51.435551 
L 183.499304 51.937644 
L 185.02877 42.34416 
L 186.558235 47.64856 
L 188.087701 43.847627 
L 189.617166 45.231861 
L 191.146632 45.441003 
L 192.676097 49.183358 
L 194.205563 53.276062 
L 195.735028 60.597184 
L 197.264494 64.459808 
L 198.793959 60.664712 
L 200.323425 53.078857 
L 201.85289 55.135761 
L 203.382356 42.125542 
L 204.911821 45.642147 
L 206.441287 59.092835 
L 207.970752 50.729294 
L 209.500218 47.981521 
L 211.029683 53.624484 
L 212.559149 62.451781 
L 214.088614 72.632774 
L 215.61808 73.155159 
L 217.147545 72.914689 
L 218.677011 79.169362 
L 220.206476 76.653457 
L 221.735942 70.917327 
L 223.265407 72.05533 
L 224.794873 75.299447 
L 226.324338 69.626667 
L 227.853804 75.212751 
L 229.383269 84.325678 
L 230.912735 74.596016 
L 232.4422 68.043585 
L 233.971666 64.316178 
L 235.501131 71.474826 
L 237.030597 74.575088 
L 238.560062 71.038521 
L 240.089528 64.630298 
L 241.618993 69.723721 
L 243.148459 68.115974 
L 244.677924 58.059937 
L 246.20739 53.747818 
L 247.736855 58.055095 
L 249.266321 58.438442 
L 250.795786 59.9623 
L 252.325252 59.991575 
L 253.854717 60.981781 
L 255.384183 64.717728 
L 256.913648 64.984952 
L 258.443114 53.989504 
L 259.97258 55.853916 
L 261.502045 60.588159 
L 263.031511 58.662285 
L 264.560976 55.181247 
L 266.090442 60.141465 
L 267.619907 57.765558 
L 269.149373 62.089144 
L 270.678838 58.654366 
L 272.208304 63.03112 
L 273.737769 65.965259 
L 275.267235 63.200905 
L 276.7967 59.29194 
L 278.326166 65.82681 
L 279.855631 63.802716 
L 281.385097 58.993956 
L 282.914562 56.748262 
L 284.444028 62.208843 
L 285.973493 65.486009 
L 287.502959 66.996056 
L 289.032424 76.866609 
L 290.56189 77.662997 
L 292.091355 85.740096 
L 293.620821 85.572155 
L 295.150286 95.983442 
L 296.679752 90.615866 
L 298.209217 94.622794 
L 299.738683 94.977007 
L 301.268148 95.056063 
L 302.797614 92.209424 
L 304.327079 89.840281 
L 305.856545 90.947234 
L 307.38601 95.053787 
L 308.915476 97.04323 
L 310.444941 87.923612 
L 311.974407 94.72695 
L 313.503872 100.923741 
L 315.033338 104.828713 
L 316.562803 106.017627 
L 318.092269 106.617287 
L 319.621734 104.824546 
L 321.1512 89.628886 
L 322.680665 94.391414 
L 324.210131 96.67703 
L 325.739596 100.533175 
L 327.269062 94.068175 
L 328.798527 92.689418 
L 330.327993 85.545016 
L 331.857458 83.408897 
L 333.386924 80.997201 
L 334.916389 75.922535 
L 336.445855 91.24214 
L 337.97532 88.065412 
L 339.504786 95.788245 
L 341.034252 105.177572 
L 342.563717 108.856929 
L 344.093183 101.888885 
L 345.622648 108.723811 
L 347.152114 89.820384 
L 348.681579 87.128028 
L 350.211045 89.334664 
L 351.74051 86.804207 
L 353.269976 84.928546 
L 354.799441 89.152681 
L 356.328907 84.57396 
L 357.858372 88.798902 
L 359.387838 81.781919 
L 360.917303 94.904421 
L 362.446769 100.959706 
L 363.976234 105.113494 
L 365.5057 121.439646 
L 367.035165 120.77959 
L 368.564631 118.034713 
L 368.564631 118.034713 
" clip-path="url(#p71d57fcb39)" style="fill: none; stroke: #2ca02c; stroke-width: 1.5; stroke-linecap: square"/>
   </g>
   <g id="line2d_23">
    <path d="M 64.200994 145.135718 
L 65.73046 137.8283 
L 67.259925 132.913632 
L 68.789391 133.127791 
L 70.318856 134.609955 
L 71.848322 128.105694 
L 73.377787 130.567578 
L 74.907253 125.268559 
L 76.436718 124.397824 
L 77.966184 126.62215 
L 79.495649 118.455892 
L 81.025115 122.13227 
L 82.55458 118.227471 
L 84.084046 116.451599 
L 85.613511 122.955808 
L 87.142977 123.012278 
L 88.672442 122.625462 
L 90.201908 124.432832 
L 91.731373 120.514827 
L 93.260839 122.238839 
L 94.790305 112.699242 
L 96.31977 105.411247 
L 97.849236 100.482552 
L 99.378701 97.383132 
L 100.908167 92.041147 
L 102.437632 99.996336 
L 103.967098 104.512536 
L 105.496563 104.81289 
L 107.026029 100.535682 
L 108.555494 104.988912 
L 110.08496 98.565327 
L 111.614425 104.795093 
L 113.143891 105.950596 
L 114.673356 99.460225 
L 116.202822 104.610394 
L 117.732287 97.354795 
L 119.261753 91.211332 
L 120.791218 85.956972 
L 122.320684 84.454686 
L 123.850149 81.759672 
L 125.379615 73.061961 
L 126.90908 72.297324 
L 128.438546 73.001785 
L 129.968011 72.000586 
L 131.497477 64.834847 
L 133.026942 73.542304 
L 134.556408 68.629233 
L 136.085873 65.773083 
L 137.615339 64.297969 
L 139.144804 66.067145 
L 140.67427 69.312697 
L 142.203735 69.017956 
L 143.733201 62.434311 
L 145.262666 59.497354 
L 146.792132 55.117741 
L 148.321597 53.411885 
L 149.851063 48.238653 
L 152.909994 38.937275 
L 154.439459 37.206514 
L 155.968925 42.594665 
L 157.49839 45.12432 
L 159.027856 39.79992 
L 160.557321 39.093941 
L 162.086787 31.926416 
L 163.616252 29.197043 
L 165.145718 37.79154 
L 166.675183 33.269714 
L 169.734114 43.380991 
L 171.26358 53.609495 
L 172.793045 58.828367 
L 174.322511 62.788694 
L 175.851977 52.15809 
L 178.910908 62.478592 
L 180.440373 71.929575 
L 181.969839 70.818065 
L 183.499304 73.555076 
L 185.02877 73.673352 
L 188.087701 61.372971 
L 189.617166 74.599207 
L 191.146632 80.91111 
L 192.676097 82.224634 
L 194.205563 88.684278 
L 195.735028 91.656753 
L 197.264494 90.439925 
L 198.793959 89.901021 
L 200.323425 95.108183 
L 201.85289 101.073845 
L 203.382356 100.492282 
L 204.911821 99.157446 
L 206.441287 105.007935 
L 207.970752 117.308361 
L 211.029683 106.78516 
L 212.559149 100.594401 
L 214.088614 108.847969 
L 215.61808 108.128216 
L 217.147545 108.024351 
L 218.677011 110.701773 
L 220.206476 105.919294 
L 221.735942 103.819688 
L 223.265407 95.534934 
L 224.794873 91.63102 
L 226.324338 94.148689 
L 227.853804 84.955503 
L 229.383269 83.607499 
L 230.912735 75.429847 
L 232.4422 79.392719 
L 233.971666 70.849293 
L 235.501131 72.228243 
L 237.030597 71.685998 
L 238.560062 62.558774 
L 240.089528 60.865688 
L 241.618993 56.787044 
L 243.148459 53.57689 
L 244.677924 55.016123 
L 246.20739 45.105741 
L 247.736855 39.724674 
L 249.266321 41.386087 
L 250.795786 48.235853 
L 252.325252 38.270321 
L 253.854717 41.309653 
L 255.384183 45.616068 
L 256.913648 48.69518 
L 258.443114 43.818524 
L 259.97258 33.189494 
L 261.502045 30.294578 
L 263.031511 27.065505 
L 264.560976 29.728311 
L 266.090442 32.615649 
L 267.619907 25.721971 
L 269.149373 30.106227 
L 270.678838 23.023048 
L 272.208304 22.7256 
L 273.737769 25.884944 
L 275.267235 31.361786 
L 276.7967 32.911885 
L 278.326166 41.018034 
L 279.855631 39.619624 
L 281.385097 31.75084 
L 282.914562 23.153629 
L 284.444028 16.236686 
L 285.973493 19.826792 
L 287.502959 21.175694 
L 289.032424 16.209877 
L 290.56189 21.612686 
L 292.091355 27.45817 
L 293.620821 26.40322 
L 295.150286 28.582863 
L 296.679752 25.609943 
L 298.209217 25.677164 
L 299.738683 27.753333 
L 301.268148 27.040558 
L 302.797614 30.901402 
L 304.327079 27.709939 
L 305.856545 28.10863 
L 307.38601 26.139707 
L 308.915476 21.089857 
L 310.444941 26.986941 
L 311.974407 21.300062 
L 313.503872 30.550796 
L 315.033338 42.3397 
L 316.562803 35.713975 
L 318.092269 39.515681 
L 321.1512 45.172828 
L 322.680665 44.613688 
L 324.210131 47.614765 
L 325.739596 52.689498 
L 327.269062 48.996965 
L 328.798527 43.541063 
L 330.327993 50.079458 
L 331.857458 42.207589 
L 333.386924 50.765224 
L 336.445855 60.509788 
L 337.97532 69.946447 
L 339.504786 65.510262 
L 341.034252 65.665735 
L 342.563717 72.517502 
L 344.093183 67.801722 
L 345.622648 76.011018 
L 347.152114 90.67977 
L 348.681579 89.862956 
L 350.211045 101.084406 
L 351.74051 105.137433 
L 353.269976 101.691761 
L 354.799441 96.737275 
L 356.328907 90.110098 
L 357.858372 90.781831 
L 359.387838 94.392093 
L 360.917303 102.446176 
L 362.446769 99.954384 
L 363.976234 107.895499 
L 365.5057 112.210247 
L 367.035165 102.083629 
L 368.564631 105.750322 
L 368.564631 105.750322 
" clip-path="url(#p71d57fcb39)" style="fill: none; stroke: #d62728; stroke-width: 1.5; stroke-linecap: square"/>
   </g>
  </g>
 </g>
 <defs>
  <clipPath id="p71d57fcb39">
   <rect x="48.982813" y="9.763585" width="334.8" height="221.76"/>
  </clipPath>
 </defs>
</svg>
