<?xml version="1.0" encoding="utf-8" standalone="no"?>
<!DOCTYPE svg PUBLIC "-//W3C//DTD SVG 1.1//EN"
  "http://www.w3.org/Graphics/SVG/1.1/DTD/svg11.dtd">
<svg xmlns:xlink="http://www.w3.org/1999/xlink" width="423.96544pt" height="279.99625pt" viewBox="0 0 423.96544 279.99625" xmlns="http://www.w3.org/2000/svg" version="1.1">
 <metadata>
  <rdf:RDF xmlns:dc="http://purl.org/dc/elements/1.1/" xmlns:cc="http://creativecommons.org/ns#" xmlns:rdf="http://www.w3.org/1999/02/22-rdf-syntax-ns#">
   <cc:Work>
    <dc:type rdf:resource="http://purl.org/dc/dcmitype/StillImage"/>
    <dc:date>2024-02-19T11:02:14.862648</dc:date>
    <dc:format>image/svg+xml</dc:format>
    <dc:creator>
     <cc:Agent>
      <dc:title>Matplotlib v3.8.2, https://matplotlib.org/</dc:title>
     </cc:Agent>
    </dc:creator>
   </cc:Work>
  </rdf:RDF>
 </metadata>
 <defs>
  <style type="text/css">*{stroke-linejoin: round; stroke-linecap: butt}</style>
 </defs>
 <g id="figure_1">
  <g id="patch_1">
   <path d="M 0 279.99625 
L 423.96544 279.99625 
L 423.96544 0 
L 0 0 
z
" style="fill: #ffffff"/>
  </g>
  <g id="axes_1">
   <g id="patch_2">
    <path d="M 45.478125 242.44 
L 416.76544 242.44 
L 416.76544 7.2 
L 45.478125 7.2 
z
" style="fill: #ffffff"/>
   </g>
   <g id="matplotlib.axis_1">
    <g id="xtick_1">
     <g id="line2d_1">
      <defs>
       <path id="me43986666c" d="M 0 0 
L 0 3.5 
" style="stroke: #000000; stroke-width: 0.8"/>
      </defs>
      <g>
       <use xlink:href="#me43986666c" x="62.354821" y="242.44" style="stroke: #000000; stroke-width: 0.8"/>
      </g>
     </g>
     <g id="text_1">
      <!-- 0.00 -->
      <g transform="translate(51.222009 257.038438) scale(0.1 -0.1)">
       <defs>
        <path id="DejaVuSans-30" d="M 2034 4250 
Q 1547 4250 1301 3770 
Q 1056 3291 1056 2328 
Q 1056 1369 1301 889 
Q 1547 409 2034 409 
Q 2525 409 2770 889 
Q 3016 1369 3016 2328 
Q 3016 3291 2770 3770 
Q 2525 4250 2034 4250 
z
M 2034 4750 
Q 2819 4750 3233 4129 
Q 3647 3509 3647 2328 
Q 3647 1150 3233 529 
Q 2819 -91 2034 -91 
Q 1250 -91 836 529 
Q 422 1150 422 2328 
Q 422 3509 836 4129 
Q 1250 4750 2034 4750 
z
" transform="scale(0.015625)"/>
        <path id="DejaVuSans-2e" d="M 684 794 
L 1344 794 
L 1344 0 
L 684 0 
L 684 794 
z
" transform="scale(0.015625)"/>
       </defs>
       <use xlink:href="#DejaVuSans-30"/>
       <use xlink:href="#DejaVuSans-2e" x="63.623047"/>
       <use xlink:href="#DejaVuSans-30" x="95.410156"/>
       <use xlink:href="#DejaVuSans-30" x="159.033203"/>
      </g>
     </g>
    </g>
    <g id="xtick_2">
     <g id="line2d_2">
      <g>
       <use xlink:href="#me43986666c" x="104.546562" y="242.44" style="stroke: #000000; stroke-width: 0.8"/>
      </g>
     </g>
     <g id="text_2">
      <!-- 0.25 -->
      <g transform="translate(93.413749 257.038438) scale(0.1 -0.1)">
       <defs>
        <path id="DejaVuSans-32" d="M 1228 531 
L 3431 531 
L 3431 0 
L 469 0 
L 469 531 
Q 828 903 1448 1529 
Q 2069 2156 2228 2338 
Q 2531 2678 2651 2914 
Q 2772 3150 2772 3378 
Q 2772 3750 2511 3984 
Q 2250 4219 1831 4219 
Q 1534 4219 1204 4116 
Q 875 4013 500 3803 
L 500 4441 
Q 881 4594 1212 4672 
Q 1544 4750 1819 4750 
Q 2544 4750 2975 4387 
Q 3406 4025 3406 3419 
Q 3406 3131 3298 2873 
Q 3191 2616 2906 2266 
Q 2828 2175 2409 1742 
Q 1991 1309 1228 531 
z
" transform="scale(0.015625)"/>
        <path id="DejaVuSans-35" d="M 691 4666 
L 3169 4666 
L 3169 4134 
L 1269 4134 
L 1269 2991 
Q 1406 3038 1543 3061 
Q 1681 3084 1819 3084 
Q 2600 3084 3056 2656 
Q 3513 2228 3513 1497 
Q 3513 744 3044 326 
Q 2575 -91 1722 -91 
Q 1428 -91 1123 -41 
Q 819 9 494 109 
L 494 744 
Q 775 591 1075 516 
Q 1375 441 1709 441 
Q 2250 441 2565 725 
Q 2881 1009 2881 1497 
Q 2881 1984 2565 2268 
Q 2250 2553 1709 2553 
Q 1456 2553 1204 2497 
Q 953 2441 691 2322 
L 691 4666 
z
" transform="scale(0.015625)"/>
       </defs>
       <use xlink:href="#DejaVuSans-30"/>
       <use xlink:href="#DejaVuSans-2e" x="63.623047"/>
       <use xlink:href="#DejaVuSans-32" x="95.410156"/>
       <use xlink:href="#DejaVuSans-35" x="159.033203"/>
      </g>
     </g>
    </g>
    <g id="xtick_3">
     <g id="line2d_3">
      <g>
       <use xlink:href="#me43986666c" x="146.738302" y="242.44" style="stroke: #000000; stroke-width: 0.8"/>
      </g>
     </g>
     <g id="text_3">
      <!-- 0.50 -->
      <g transform="translate(135.605489 257.038438) scale(0.1 -0.1)">
       <use xlink:href="#DejaVuSans-30"/>
       <use xlink:href="#DejaVuSans-2e" x="63.623047"/>
       <use xlink:href="#DejaVuSans-35" x="95.410156"/>
       <use xlink:href="#DejaVuSans-30" x="159.033203"/>
      </g>
     </g>
    </g>
    <g id="xtick_4">
     <g id="line2d_4">
      <g>
       <use xlink:href="#me43986666c" x="188.930042" y="242.44" style="stroke: #000000; stroke-width: 0.8"/>
      </g>
     </g>
     <g id="text_4">
      <!-- 0.75 -->
      <g transform="translate(177.79723 257.038438) scale(0.1 -0.1)">
       <defs>
        <path id="DejaVuSans-37" d="M 525 4666 
L 3525 4666 
L 3525 4397 
L 1831 0 
L 1172 0 
L 2766 4134 
L 525 4134 
L 525 4666 
z
" transform="scale(0.015625)"/>
       </defs>
       <use xlink:href="#DejaVuSans-30"/>
       <use xlink:href="#DejaVuSans-2e" x="63.623047"/>
       <use xlink:href="#DejaVuSans-37" x="95.410156"/>
       <use xlink:href="#DejaVuSans-35" x="159.033203"/>
      </g>
     </g>
    </g>
    <g id="xtick_5">
     <g id="line2d_5">
      <g>
       <use xlink:href="#me43986666c" x="231.121783" y="242.44" style="stroke: #000000; stroke-width: 0.8"/>
      </g>
     </g>
     <g id="text_5">
      <!-- 1.00 -->
      <g transform="translate(219.98897 257.038438) scale(0.1 -0.1)">
       <defs>
        <path id="DejaVuSans-31" d="M 794 531 
L 1825 531 
L 1825 4091 
L 703 3866 
L 703 4441 
L 1819 4666 
L 2450 4666 
L 2450 531 
L 3481 531 
L 3481 0 
L 794 0 
L 794 531 
z
" transform="scale(0.015625)"/>
       </defs>
       <use xlink:href="#DejaVuSans-31"/>
       <use xlink:href="#DejaVuSans-2e" x="63.623047"/>
       <use xlink:href="#DejaVuSans-30" x="95.410156"/>
       <use xlink:href="#DejaVuSans-30" x="159.033203"/>
      </g>
     </g>
    </g>
    <g id="xtick_6">
     <g id="line2d_6">
      <g>
       <use xlink:href="#me43986666c" x="273.313523" y="242.44" style="stroke: #000000; stroke-width: 0.8"/>
      </g>
     </g>
     <g id="text_6">
      <!-- 1.25 -->
      <g transform="translate(262.18071 257.038438) scale(0.1 -0.1)">
       <use xlink:href="#DejaVuSans-31"/>
       <use xlink:href="#DejaVuSans-2e" x="63.623047"/>
       <use xlink:href="#DejaVuSans-32" x="95.410156"/>
       <use xlink:href="#DejaVuSans-35" x="159.033203"/>
      </g>
     </g>
    </g>
    <g id="xtick_7">
     <g id="line2d_7">
      <g>
       <use xlink:href="#me43986666c" x="315.505263" y="242.44" style="stroke: #000000; stroke-width: 0.8"/>
      </g>
     </g>
     <g id="text_7">
      <!-- 1.50 -->
      <g transform="translate(304.372451 257.038438) scale(0.1 -0.1)">
       <use xlink:href="#DejaVuSans-31"/>
       <use xlink:href="#DejaVuSans-2e" x="63.623047"/>
       <use xlink:href="#DejaVuSans-35" x="95.410156"/>
       <use xlink:href="#DejaVuSans-30" x="159.033203"/>
      </g>
     </g>
    </g>
    <g id="xtick_8">
     <g id="line2d_8">
      <g>
       <use xlink:href="#me43986666c" x="357.697004" y="242.44" style="stroke: #000000; stroke-width: 0.8"/>
      </g>
     </g>
     <g id="text_8">
      <!-- 1.75 -->
      <g transform="translate(346.564191 257.038438) scale(0.1 -0.1)">
       <use xlink:href="#DejaVuSans-31"/>
       <use xlink:href="#DejaVuSans-2e" x="63.623047"/>
       <use xlink:href="#DejaVuSans-37" x="95.410156"/>
       <use xlink:href="#DejaVuSans-35" x="159.033203"/>
      </g>
     </g>
    </g>
    <g id="xtick_9">
     <g id="line2d_9">
      <g>
       <use xlink:href="#me43986666c" x="399.888744" y="242.44" style="stroke: #000000; stroke-width: 0.8"/>
      </g>
     </g>
     <g id="text_9">
      <!-- 2.00 -->
      <g transform="translate(388.755932 257.038438) scale(0.1 -0.1)">
       <use xlink:href="#DejaVuSans-32"/>
       <use xlink:href="#DejaVuSans-2e" x="63.623047"/>
       <use xlink:href="#DejaVuSans-30" x="95.410156"/>
       <use xlink:href="#DejaVuSans-30" x="159.033203"/>
      </g>
     </g>
    </g>
    <g id="text_10">
     <!-- x [m] -->
     <g transform="translate(217.80147 270.716563) scale(0.1 -0.1)">
      <defs>
       <path id="DejaVuSans-78" d="M 3513 3500 
L 2247 1797 
L 3578 0 
L 2900 0 
L 1881 1375 
L 863 0 
L 184 0 
L 1544 1831 
L 300 3500 
L 978 3500 
L 1906 2253 
L 2834 3500 
L 3513 3500 
z
" transform="scale(0.015625)"/>
       <path id="DejaVuSans-20" transform="scale(0.015625)"/>
       <path id="DejaVuSans-5b" d="M 550 4863 
L 1875 4863 
L 1875 4416 
L 1125 4416 
L 1125 -397 
L 1875 -397 
L 1875 -844 
L 550 -844 
L 550 4863 
z
" transform="scale(0.015625)"/>
       <path id="DejaVuSans-6d" d="M 3328 2828 
Q 3544 3216 3844 3400 
Q 4144 3584 4550 3584 
Q 5097 3584 5394 3201 
Q 5691 2819 5691 2113 
L 5691 0 
L 5113 0 
L 5113 2094 
Q 5113 2597 4934 2840 
Q 4756 3084 4391 3084 
Q 3944 3084 3684 2787 
Q 3425 2491 3425 1978 
L 3425 0 
L 2847 0 
L 2847 2094 
Q 2847 2600 2669 2842 
Q 2491 3084 2119 3084 
Q 1678 3084 1418 2786 
Q 1159 2488 1159 1978 
L 1159 0 
L 581 0 
L 581 3500 
L 1159 3500 
L 1159 2956 
Q 1356 3278 1631 3431 
Q 1906 3584 2284 3584 
Q 2666 3584 2933 3390 
Q 3200 3197 3328 2828 
z
" transform="scale(0.015625)"/>
       <path id="DejaVuSans-5d" d="M 1947 4863 
L 1947 -844 
L 622 -844 
L 622 -397 
L 1369 -397 
L 1369 4416 
L 622 4416 
L 622 4863 
L 1947 4863 
z
" transform="scale(0.015625)"/>
      </defs>
      <use xlink:href="#DejaVuSans-78"/>
      <use xlink:href="#DejaVuSans-20" x="59.179688"/>
      <use xlink:href="#DejaVuSans-5b" x="90.966797"/>
      <use xlink:href="#DejaVuSans-6d" x="129.980469"/>
      <use xlink:href="#DejaVuSans-5d" x="227.392578"/>
     </g>
    </g>
   </g>
   <g id="matplotlib.axis_2">
    <g id="ytick_1">
     <g id="line2d_10">
      <defs>
       <path id="mb515b6ef9e" d="M 0 0 
L -3.5 0 
" style="stroke: #000000; stroke-width: 0.8"/>
      </defs>
      <g>
       <use xlink:href="#mb515b6ef9e" x="45.478125" y="219.063007" style="stroke: #000000; stroke-width: 0.8"/>
      </g>
     </g>
     <g id="text_11">
      <!-- $\mathdefault{10^{1}}$ -->
      <g transform="translate(20.878125 222.862226) scale(0.1 -0.1)">
       <use xlink:href="#DejaVuSans-31" transform="translate(0 0.684375)"/>
       <use xlink:href="#DejaVuSans-30" transform="translate(63.623047 0.684375)"/>
       <use xlink:href="#DejaVuSans-31" transform="translate(128.203125 38.965625) scale(0.7)"/>
      </g>
     </g>
    </g>
    <g id="ytick_2">
     <g id="line2d_11">
      <g>
       <use xlink:href="#mb515b6ef9e" x="45.478125" y="103.925951" style="stroke: #000000; stroke-width: 0.8"/>
      </g>
     </g>
     <g id="text_12">
      <!-- $\mathdefault{10^{2}}$ -->
      <g transform="translate(20.878125 107.72517) scale(0.1 -0.1)">
       <use xlink:href="#DejaVuSans-31" transform="translate(0 0.765625)"/>
       <use xlink:href="#DejaVuSans-30" transform="translate(63.623047 0.765625)"/>
       <use xlink:href="#DejaVuSans-32" transform="translate(128.203125 39.046875) scale(0.7)"/>
      </g>
     </g>
    </g>
    <g id="ytick_3">
     <g id="line2d_12">
      <defs>
       <path id="m494bc503d2" d="M 0 0 
L -2 0 
" style="stroke: #000000; stroke-width: 0.6"/>
      </defs>
      <g>
       <use xlink:href="#m494bc503d2" x="45.478125" y="236.897963" style="stroke: #000000; stroke-width: 0.6"/>
      </g>
     </g>
    </g>
    <g id="ytick_4">
     <g id="line2d_13">
      <g>
       <use xlink:href="#m494bc503d2" x="45.478125" y="230.220941" style="stroke: #000000; stroke-width: 0.6"/>
      </g>
     </g>
    </g>
    <g id="ytick_5">
     <g id="line2d_14">
      <g>
       <use xlink:href="#m494bc503d2" x="45.478125" y="224.33139" style="stroke: #000000; stroke-width: 0.6"/>
      </g>
     </g>
    </g>
    <g id="ytick_6">
     <g id="line2d_15">
      <g>
       <use xlink:href="#m494bc503d2" x="45.478125" y="184.4033" style="stroke: #000000; stroke-width: 0.6"/>
      </g>
     </g>
    </g>
    <g id="ytick_7">
     <g id="line2d_16">
      <g>
       <use xlink:href="#m494bc503d2" x="45.478125" y="164.12867" style="stroke: #000000; stroke-width: 0.6"/>
      </g>
     </g>
    </g>
    <g id="ytick_8">
     <g id="line2d_17">
      <g>
       <use xlink:href="#m494bc503d2" x="45.478125" y="149.743592" style="stroke: #000000; stroke-width: 0.6"/>
      </g>
     </g>
    </g>
    <g id="ytick_9">
     <g id="line2d_18">
      <g>
       <use xlink:href="#m494bc503d2" x="45.478125" y="138.585659" style="stroke: #000000; stroke-width: 0.6"/>
      </g>
     </g>
    </g>
    <g id="ytick_10">
     <g id="line2d_19">
      <g>
       <use xlink:href="#m494bc503d2" x="45.478125" y="129.468963" style="stroke: #000000; stroke-width: 0.6"/>
      </g>
     </g>
    </g>
    <g id="ytick_11">
     <g id="line2d_20">
      <g>
       <use xlink:href="#m494bc503d2" x="45.478125" y="121.760907" style="stroke: #000000; stroke-width: 0.6"/>
      </g>
     </g>
    </g>
    <g id="ytick_12">
     <g id="line2d_21">
      <g>
       <use xlink:href="#m494bc503d2" x="45.478125" y="115.083885" style="stroke: #000000; stroke-width: 0.6"/>
      </g>
     </g>
    </g>
    <g id="ytick_13">
     <g id="line2d_22">
      <g>
       <use xlink:href="#m494bc503d2" x="45.478125" y="109.194334" style="stroke: #000000; stroke-width: 0.6"/>
      </g>
     </g>
    </g>
    <g id="ytick_14">
     <g id="line2d_23">
      <g>
       <use xlink:href="#m494bc503d2" x="45.478125" y="69.266244" style="stroke: #000000; stroke-width: 0.6"/>
      </g>
     </g>
    </g>
    <g id="ytick_15">
     <g id="line2d_24">
      <g>
       <use xlink:href="#m494bc503d2" x="45.478125" y="48.991614" style="stroke: #000000; stroke-width: 0.6"/>
      </g>
     </g>
    </g>
    <g id="ytick_16">
     <g id="line2d_25">
      <g>
       <use xlink:href="#m494bc503d2" x="45.478125" y="34.606536" style="stroke: #000000; stroke-width: 0.6"/>
      </g>
     </g>
    </g>
    <g id="ytick_17">
     <g id="line2d_26">
      <g>
       <use xlink:href="#m494bc503d2" x="45.478125" y="23.448602" style="stroke: #000000; stroke-width: 0.6"/>
      </g>
     </g>
    </g>
    <g id="ytick_18">
     <g id="line2d_27">
      <g>
       <use xlink:href="#m494bc503d2" x="45.478125" y="14.331907" style="stroke: #000000; stroke-width: 0.6"/>
      </g>
     </g>
    </g>
    <g id="text_13">
     <!-- [K] -->
     <g transform="translate(14.798438 132.000469) rotate(-90) scale(0.1 -0.1)">
      <defs>
       <path id="DejaVuSans-4b" d="M 628 4666 
L 1259 4666 
L 1259 2694 
L 3353 4666 
L 4166 4666 
L 1850 2491 
L 4331 0 
L 3500 0 
L 1259 2247 
L 1259 0 
L 628 0 
L 628 4666 
z
" transform="scale(0.015625)"/>
      </defs>
      <use xlink:href="#DejaVuSans-5b"/>
      <use xlink:href="#DejaVuSans-4b" x="39.013672"/>
      <use xlink:href="#DejaVuSans-5d" x="104.589844"/>
     </g>
    </g>
   </g>
   <g id="patch_3">
    <path d="M 45.478125 242.44 
L 45.478125 7.2 
" style="fill: none; stroke: #000000; stroke-width: 0.8; stroke-linejoin: miter; stroke-linecap: square"/>
   </g>
   <g id="patch_4">
    <path d="M 416.76544 242.44 
L 416.76544 7.2 
" style="fill: none; stroke: #000000; stroke-width: 0.8; stroke-linejoin: miter; stroke-linecap: square"/>
   </g>
   <g id="patch_5">
    <path d="M 45.478125 242.44 
L 416.76544 242.44 
" style="fill: none; stroke: #000000; stroke-width: 0.8; stroke-linejoin: miter; stroke-linecap: square"/>
   </g>
   <g id="patch_6">
    <path d="M 45.478125 7.2 
L 416.76544 7.2 
" style="fill: none; stroke: #000000; stroke-width: 0.8; stroke-linejoin: miter; stroke-linecap: square"/>
   </g>
   <g id="line2d_28">
    <defs>
     <path id="m9e33dec6ab" d="M 0 3 
C 0.795609 3 1.55874 2.683901 2.12132 2.12132 
C 2.683901 1.55874 3 0.795609 3 0 
C 3 -0.795609 2.683901 -1.55874 2.12132 -2.12132 
C 1.55874 -2.683901 0.795609 -3 0 -3 
C -0.795609 -3 -1.55874 -2.683901 -2.12132 -2.12132 
C -2.683901 -1.55874 -3 -0.795609 -3 0 
C -3 0.795609 -2.683901 1.55874 -2.12132 2.12132 
C -1.55874 2.683901 -0.795609 3 0 3 
z
" style="stroke: #1f77b4"/>
    </defs>
    <g clip-path="url(#p77858e97ee)">
     <use xlink:href="#m9e33dec6ab" x="62.354821" y="150.76572" style="fill: #1f77b4; stroke: #1f77b4"/>
     <use xlink:href="#m9e33dec6ab" x="69.243269" y="207.201056" style="fill: #1f77b4; stroke: #1f77b4"/>
     <use xlink:href="#m9e33dec6ab" x="70.435738" y="20160.73" style="fill: #1f77b4; stroke: #1f77b4"/>
     <use xlink:href="#m9e33dec6ab" x="81.828907" y="20160.73" style="fill: #1f77b4; stroke: #1f77b4"/>
     <use xlink:href="#m9e33dec6ab" x="83.020163" y="231.747273" style="fill: #1f77b4; stroke: #1f77b4"/>
     <use xlink:href="#m9e33dec6ab" x="89.908611" y="105.121288" style="fill: #1f77b4; stroke: #1f77b4"/>
     <use xlink:href="#m9e33dec6ab" x="96.797058" y="95.738546" style="fill: #1f77b4; stroke: #1f77b4"/>
     <use xlink:href="#m9e33dec6ab" x="103.685506" y="105.252197" style="fill: #1f77b4; stroke: #1f77b4"/>
     <use xlink:href="#m9e33dec6ab" x="110.573953" y="94.862324" style="fill: #1f77b4; stroke: #1f77b4"/>
     <use xlink:href="#m9e33dec6ab" x="117.4624" y="98.48751" style="fill: #1f77b4; stroke: #1f77b4"/>
     <use xlink:href="#m9e33dec6ab" x="124.350848" y="80.162824" style="fill: #1f77b4; stroke: #1f77b4"/>
     <use xlink:href="#m9e33dec6ab" x="131.239295" y="80.699749" style="fill: #1f77b4; stroke: #1f77b4"/>
     <use xlink:href="#m9e33dec6ab" x="138.127743" y="110.310534" style="fill: #1f77b4; stroke: #1f77b4"/>
     <use xlink:href="#m9e33dec6ab" x="145.01619" y="73.521585" style="fill: #1f77b4; stroke: #1f77b4"/>
     <use xlink:href="#m9e33dec6ab" x="151.904637" y="98.480125" style="fill: #1f77b4; stroke: #1f77b4"/>
     <use xlink:href="#m9e33dec6ab" x="158.793085" y="71.48563" style="fill: #1f77b4; stroke: #1f77b4"/>
     <use xlink:href="#m9e33dec6ab" x="165.681532" y="84.96133" style="fill: #1f77b4; stroke: #1f77b4"/>
     <use xlink:href="#m9e33dec6ab" x="172.56998" y="63.359432" style="fill: #1f77b4; stroke: #1f77b4"/>
     <use xlink:href="#m9e33dec6ab" x="179.458427" y="68.494676" style="fill: #1f77b4; stroke: #1f77b4"/>
     <use xlink:href="#m9e33dec6ab" x="186.346874" y="72.058154" style="fill: #1f77b4; stroke: #1f77b4"/>
     <use xlink:href="#m9e33dec6ab" x="193.235322" y="66.437405" style="fill: #1f77b4; stroke: #1f77b4"/>
     <use xlink:href="#m9e33dec6ab" x="200.123769" y="73.870104" style="fill: #1f77b4; stroke: #1f77b4"/>
     <use xlink:href="#m9e33dec6ab" x="207.012217" y="68.717101" style="fill: #1f77b4; stroke: #1f77b4"/>
     <use xlink:href="#m9e33dec6ab" x="213.900664" y="54.809951" style="fill: #1f77b4; stroke: #1f77b4"/>
     <use xlink:href="#m9e33dec6ab" x="220.789112" y="53.359334" style="fill: #1f77b4; stroke: #1f77b4"/>
     <use xlink:href="#m9e33dec6ab" x="227.677559" y="52.097839" style="fill: #1f77b4; stroke: #1f77b4"/>
     <use xlink:href="#m9e33dec6ab" x="234.566006" y="54.452179" style="fill: #1f77b4; stroke: #1f77b4"/>
     <use xlink:href="#m9e33dec6ab" x="241.454454" y="42.656381" style="fill: #1f77b4; stroke: #1f77b4"/>
     <use xlink:href="#m9e33dec6ab" x="248.342901" y="41.413991" style="fill: #1f77b4; stroke: #1f77b4"/>
     <use xlink:href="#m9e33dec6ab" x="255.231349" y="44.261712" style="fill: #1f77b4; stroke: #1f77b4"/>
     <use xlink:href="#m9e33dec6ab" x="262.119796" y="43.256567" style="fill: #1f77b4; stroke: #1f77b4"/>
     <use xlink:href="#m9e33dec6ab" x="269.008243" y="41.217653" style="fill: #1f77b4; stroke: #1f77b4"/>
     <use xlink:href="#m9e33dec6ab" x="275.896691" y="44.117838" style="fill: #1f77b4; stroke: #1f77b4"/>
     <use xlink:href="#m9e33dec6ab" x="282.785138" y="46.467127" style="fill: #1f77b4; stroke: #1f77b4"/>
     <use xlink:href="#m9e33dec6ab" x="289.673586" y="36.598575" style="fill: #1f77b4; stroke: #1f77b4"/>
     <use xlink:href="#m9e33dec6ab" x="296.562033" y="37.837856" style="fill: #1f77b4; stroke: #1f77b4"/>
     <use xlink:href="#m9e33dec6ab" x="303.45048" y="39.368908" style="fill: #1f77b4; stroke: #1f77b4"/>
     <use xlink:href="#m9e33dec6ab" x="310.338928" y="35.690146" style="fill: #1f77b4; stroke: #1f77b4"/>
     <use xlink:href="#m9e33dec6ab" x="317.227375" y="29.614577" style="fill: #1f77b4; stroke: #1f77b4"/>
     <use xlink:href="#m9e33dec6ab" x="324.115823" y="27.983022" style="fill: #1f77b4; stroke: #1f77b4"/>
     <use xlink:href="#m9e33dec6ab" x="331.00427" y="33.465429" style="fill: #1f77b4; stroke: #1f77b4"/>
     <use xlink:href="#m9e33dec6ab" x="337.892717" y="29.748654" style="fill: #1f77b4; stroke: #1f77b4"/>
     <use xlink:href="#m9e33dec6ab" x="344.781165" y="31.451858" style="fill: #1f77b4; stroke: #1f77b4"/>
     <use xlink:href="#m9e33dec6ab" x="351.669612" y="27.239386" style="fill: #1f77b4; stroke: #1f77b4"/>
     <use xlink:href="#m9e33dec6ab" x="358.55806" y="28.932897" style="fill: #1f77b4; stroke: #1f77b4"/>
     <use xlink:href="#m9e33dec6ab" x="365.446507" y="27.224278" style="fill: #1f77b4; stroke: #1f77b4"/>
     <use xlink:href="#m9e33dec6ab" x="372.334954" y="21.132366" style="fill: #1f77b4; stroke: #1f77b4"/>
     <use xlink:href="#m9e33dec6ab" x="379.223402" y="26.798787" style="fill: #1f77b4; stroke: #1f77b4"/>
     <use xlink:href="#m9e33dec6ab" x="386.111849" y="21.737591" style="fill: #1f77b4; stroke: #1f77b4"/>
     <use xlink:href="#m9e33dec6ab" x="393.000297" y="26.151331" style="fill: #1f77b4; stroke: #1f77b4"/>
     <use xlink:href="#m9e33dec6ab" x="399.888744" y="17.892727" style="fill: #1f77b4; stroke: #1f77b4"/>
    </g>
   </g>
  </g>
 </g>
 <defs>
  <clipPath id="p77858e97ee">
   <rect x="45.478125" y="7.2" width="371.287315" height="235.24"/>
  </clipPath>
 </defs>
</svg>
