<?xml version="1.0" encoding="utf-8" standalone="no"?>
<!DOCTYPE svg PUBLIC "-//W3C//DTD SVG 1.1//EN"
  "http://www.w3.org/Graphics/SVG/1.1/DTD/svg11.dtd">
<svg xmlns:xlink="http://www.w3.org/1999/xlink" width="390.982812pt" height="266.51625pt" viewBox="0 0 390.982812 266.51625" xmlns="http://www.w3.org/2000/svg" version="1.1">
 <metadata>
  <rdf:RDF xmlns:dc="http://purl.org/dc/elements/1.1/" xmlns:cc="http://creativecommons.org/ns#" xmlns:rdf="http://www.w3.org/1999/02/22-rdf-syntax-ns#">
   <cc:Work>
    <dc:type rdf:resource="http://purl.org/dc/dcmitype/StillImage"/>
    <dc:date>2024-10-31T09:34:03.128974</dc:date>
    <dc:format>image/svg+xml</dc:format>
    <dc:creator>
     <cc:Agent>
      <dc:title>Matplotlib v3.9.2, https://matplotlib.org/</dc:title>
     </cc:Agent>
    </dc:creator>
   </cc:Work>
  </rdf:RDF>
 </metadata>
 <defs>
  <style type="text/css">*{stroke-linejoin: round; stroke-linecap: butt}</style>
 </defs>
 <g id="figure_1">
  <g id="patch_1">
   <path d="M 0 266.51625 
L 390.982812 266.51625 
L 390.982812 0 
L 0 0 
z
" style="fill: #ffffff"/>
  </g>
  <g id="axes_1">
   <g id="patch_2">
    <path d="M 48.982813 228.96 
L 383.782813 228.96 
L 383.782813 7.2 
L 48.982813 7.2 
z
" style="fill: #ffffff"/>
   </g>
   <g id="matplotlib.axis_1">
    <g id="xtick_1">
     <g id="line2d_1">
      <defs>
       <path id="m18e22afbd3" d="M 0 0 
L 0 3.5 
" style="stroke: #000000; stroke-width: 0.8"/>
      </defs>
      <g>
       <use xlink:href="#m18e22afbd3" x="64.200994" y="228.96" style="stroke: #000000; stroke-width: 0.8"/>
      </g>
     </g>
     <g id="text_1">
      <!-- 2000-01 -->
      <g transform="translate(43.309588 243.558437) scale(0.1 -0.1)">
       <defs>
        <path id="DejaVuSans-32" d="M 1228 531 
L 3431 531 
L 3431 0 
L 469 0 
L 469 531 
Q 828 903 1448 1529 
Q 2069 2156 2228 2338 
Q 2531 2678 2651 2914 
Q 2772 3150 2772 3378 
Q 2772 3750 2511 3984 
Q 2250 4219 1831 4219 
Q 1534 4219 1204 4116 
Q 875 4013 500 3803 
L 500 4441 
Q 881 4594 1212 4672 
Q 1544 4750 1819 4750 
Q 2544 4750 2975 4387 
Q 3406 4025 3406 3419 
Q 3406 3131 3298 2873 
Q 3191 2616 2906 2266 
Q 2828 2175 2409 1742 
Q 1991 1309 1228 531 
z
" transform="scale(0.015625)"/>
        <path id="DejaVuSans-30" d="M 2034 4250 
Q 1547 4250 1301 3770 
Q 1056 3291 1056 2328 
Q 1056 1369 1301 889 
Q 1547 409 2034 409 
Q 2525 409 2770 889 
Q 3016 1369 3016 2328 
Q 3016 3291 2770 3770 
Q 2525 4250 2034 4250 
z
M 2034 4750 
Q 2819 4750 3233 4129 
Q 3647 3509 3647 2328 
Q 3647 1150 3233 529 
Q 2819 -91 2034 -91 
Q 1250 -91 836 529 
Q 422 1150 422 2328 
Q 422 3509 836 4129 
Q 1250 4750 2034 4750 
z
" transform="scale(0.015625)"/>
        <path id="DejaVuSans-2d" d="M 313 2009 
L 1997 2009 
L 1997 1497 
L 313 1497 
L 313 2009 
z
" transform="scale(0.015625)"/>
        <path id="DejaVuSans-31" d="M 794 531 
L 1825 531 
L 1825 4091 
L 703 3866 
L 703 4441 
L 1819 4666 
L 2450 4666 
L 2450 531 
L 3481 531 
L 3481 0 
L 794 0 
L 794 531 
z
" transform="scale(0.015625)"/>
       </defs>
       <use xlink:href="#DejaVuSans-32"/>
       <use xlink:href="#DejaVuSans-30" x="63.623047"/>
       <use xlink:href="#DejaVuSans-30" x="127.246094"/>
       <use xlink:href="#DejaVuSans-30" x="190.869141"/>
       <use xlink:href="#DejaVuSans-2d" x="254.492188"/>
       <use xlink:href="#DejaVuSans-30" x="290.576172"/>
       <use xlink:href="#DejaVuSans-31" x="354.199219"/>
      </g>
     </g>
    </g>
    <g id="xtick_2">
     <g id="line2d_2">
      <g>
       <use xlink:href="#m18e22afbd3" x="111.614425" y="228.96" style="stroke: #000000; stroke-width: 0.8"/>
      </g>
     </g>
     <g id="text_2">
      <!-- 2000-02 -->
      <g transform="translate(90.723019 243.558437) scale(0.1 -0.1)">
       <use xlink:href="#DejaVuSans-32"/>
       <use xlink:href="#DejaVuSans-30" x="63.623047"/>
       <use xlink:href="#DejaVuSans-30" x="127.246094"/>
       <use xlink:href="#DejaVuSans-30" x="190.869141"/>
       <use xlink:href="#DejaVuSans-2d" x="254.492188"/>
       <use xlink:href="#DejaVuSans-30" x="290.576172"/>
       <use xlink:href="#DejaVuSans-32" x="354.199219"/>
      </g>
     </g>
    </g>
    <g id="xtick_3">
     <g id="line2d_3">
      <g>
       <use xlink:href="#m18e22afbd3" x="155.968925" y="228.96" style="stroke: #000000; stroke-width: 0.8"/>
      </g>
     </g>
     <g id="text_3">
      <!-- 2000-03 -->
      <g transform="translate(135.077519 243.558437) scale(0.1 -0.1)">
       <defs>
        <path id="DejaVuSans-33" d="M 2597 2516 
Q 3050 2419 3304 2112 
Q 3559 1806 3559 1356 
Q 3559 666 3084 287 
Q 2609 -91 1734 -91 
Q 1441 -91 1130 -33 
Q 819 25 488 141 
L 488 750 
Q 750 597 1062 519 
Q 1375 441 1716 441 
Q 2309 441 2620 675 
Q 2931 909 2931 1356 
Q 2931 1769 2642 2001 
Q 2353 2234 1838 2234 
L 1294 2234 
L 1294 2753 
L 1863 2753 
Q 2328 2753 2575 2939 
Q 2822 3125 2822 3475 
Q 2822 3834 2567 4026 
Q 2313 4219 1838 4219 
Q 1578 4219 1281 4162 
Q 984 4106 628 3988 
L 628 4550 
Q 988 4650 1302 4700 
Q 1616 4750 1894 4750 
Q 2613 4750 3031 4423 
Q 3450 4097 3450 3541 
Q 3450 3153 3228 2886 
Q 3006 2619 2597 2516 
z
" transform="scale(0.015625)"/>
       </defs>
       <use xlink:href="#DejaVuSans-32"/>
       <use xlink:href="#DejaVuSans-30" x="63.623047"/>
       <use xlink:href="#DejaVuSans-30" x="127.246094"/>
       <use xlink:href="#DejaVuSans-30" x="190.869141"/>
       <use xlink:href="#DejaVuSans-2d" x="254.492188"/>
       <use xlink:href="#DejaVuSans-30" x="290.576172"/>
       <use xlink:href="#DejaVuSans-33" x="354.199219"/>
      </g>
     </g>
    </g>
    <g id="xtick_4">
     <g id="line2d_4">
      <g>
       <use xlink:href="#m18e22afbd3" x="203.382356" y="228.96" style="stroke: #000000; stroke-width: 0.8"/>
      </g>
     </g>
     <g id="text_4">
      <!-- 2000-04 -->
      <g transform="translate(182.490949 243.558437) scale(0.1 -0.1)">
       <defs>
        <path id="DejaVuSans-34" d="M 2419 4116 
L 825 1625 
L 2419 1625 
L 2419 4116 
z
M 2253 4666 
L 3047 4666 
L 3047 1625 
L 3713 1625 
L 3713 1100 
L 3047 1100 
L 3047 0 
L 2419 0 
L 2419 1100 
L 313 1100 
L 313 1709 
L 2253 4666 
z
" transform="scale(0.015625)"/>
       </defs>
       <use xlink:href="#DejaVuSans-32"/>
       <use xlink:href="#DejaVuSans-30" x="63.623047"/>
       <use xlink:href="#DejaVuSans-30" x="127.246094"/>
       <use xlink:href="#DejaVuSans-30" x="190.869141"/>
       <use xlink:href="#DejaVuSans-2d" x="254.492188"/>
       <use xlink:href="#DejaVuSans-30" x="290.576172"/>
       <use xlink:href="#DejaVuSans-34" x="354.199219"/>
      </g>
     </g>
    </g>
    <g id="xtick_5">
     <g id="line2d_5">
      <g>
       <use xlink:href="#m18e22afbd3" x="249.266321" y="228.96" style="stroke: #000000; stroke-width: 0.8"/>
      </g>
     </g>
     <g id="text_5">
      <!-- 2000-05 -->
      <g transform="translate(228.374915 243.558437) scale(0.1 -0.1)">
       <defs>
        <path id="DejaVuSans-35" d="M 691 4666 
L 3169 4666 
L 3169 4134 
L 1269 4134 
L 1269 2991 
Q 1406 3038 1543 3061 
Q 1681 3084 1819 3084 
Q 2600 3084 3056 2656 
Q 3513 2228 3513 1497 
Q 3513 744 3044 326 
Q 2575 -91 1722 -91 
Q 1428 -91 1123 -41 
Q 819 9 494 109 
L 494 744 
Q 775 591 1075 516 
Q 1375 441 1709 441 
Q 2250 441 2565 725 
Q 2881 1009 2881 1497 
Q 2881 1984 2565 2268 
Q 2250 2553 1709 2553 
Q 1456 2553 1204 2497 
Q 953 2441 691 2322 
L 691 4666 
z
" transform="scale(0.015625)"/>
       </defs>
       <use xlink:href="#DejaVuSans-32"/>
       <use xlink:href="#DejaVuSans-30" x="63.623047"/>
       <use xlink:href="#DejaVuSans-30" x="127.246094"/>
       <use xlink:href="#DejaVuSans-30" x="190.869141"/>
       <use xlink:href="#DejaVuSans-2d" x="254.492188"/>
       <use xlink:href="#DejaVuSans-30" x="290.576172"/>
       <use xlink:href="#DejaVuSans-35" x="354.199219"/>
      </g>
     </g>
    </g>
    <g id="xtick_6">
     <g id="line2d_6">
      <g>
       <use xlink:href="#m18e22afbd3" x="296.679752" y="228.96" style="stroke: #000000; stroke-width: 0.8"/>
      </g>
     </g>
     <g id="text_6">
      <!-- 2000-06 -->
      <g transform="translate(275.788345 243.558437) scale(0.1 -0.1)">
       <defs>
        <path id="DejaVuSans-36" d="M 2113 2584 
Q 1688 2584 1439 2293 
Q 1191 2003 1191 1497 
Q 1191 994 1439 701 
Q 1688 409 2113 409 
Q 2538 409 2786 701 
Q 3034 994 3034 1497 
Q 3034 2003 2786 2293 
Q 2538 2584 2113 2584 
z
M 3366 4563 
L 3366 3988 
Q 3128 4100 2886 4159 
Q 2644 4219 2406 4219 
Q 1781 4219 1451 3797 
Q 1122 3375 1075 2522 
Q 1259 2794 1537 2939 
Q 1816 3084 2150 3084 
Q 2853 3084 3261 2657 
Q 3669 2231 3669 1497 
Q 3669 778 3244 343 
Q 2819 -91 2113 -91 
Q 1303 -91 875 529 
Q 447 1150 447 2328 
Q 447 3434 972 4092 
Q 1497 4750 2381 4750 
Q 2619 4750 2861 4703 
Q 3103 4656 3366 4563 
z
" transform="scale(0.015625)"/>
       </defs>
       <use xlink:href="#DejaVuSans-32"/>
       <use xlink:href="#DejaVuSans-30" x="63.623047"/>
       <use xlink:href="#DejaVuSans-30" x="127.246094"/>
       <use xlink:href="#DejaVuSans-30" x="190.869141"/>
       <use xlink:href="#DejaVuSans-2d" x="254.492188"/>
       <use xlink:href="#DejaVuSans-30" x="290.576172"/>
       <use xlink:href="#DejaVuSans-36" x="354.199219"/>
      </g>
     </g>
    </g>
    <g id="xtick_7">
     <g id="line2d_7">
      <g>
       <use xlink:href="#m18e22afbd3" x="342.563717" y="228.96" style="stroke: #000000; stroke-width: 0.8"/>
      </g>
     </g>
     <g id="text_7">
      <!-- 2000-07 -->
      <g transform="translate(321.672311 243.558437) scale(0.1 -0.1)">
       <defs>
        <path id="DejaVuSans-37" d="M 525 4666 
L 3525 4666 
L 3525 4397 
L 1831 0 
L 1172 0 
L 2766 4134 
L 525 4134 
L 525 4666 
z
" transform="scale(0.015625)"/>
       </defs>
       <use xlink:href="#DejaVuSans-32"/>
       <use xlink:href="#DejaVuSans-30" x="63.623047"/>
       <use xlink:href="#DejaVuSans-30" x="127.246094"/>
       <use xlink:href="#DejaVuSans-30" x="190.869141"/>
       <use xlink:href="#DejaVuSans-2d" x="254.492188"/>
       <use xlink:href="#DejaVuSans-30" x="290.576172"/>
       <use xlink:href="#DejaVuSans-37" x="354.199219"/>
      </g>
     </g>
    </g>
    <g id="text_8">
     <!-- row [datetime] -->
     <g transform="translate(179.229688 257.236562) scale(0.1 -0.1)">
      <defs>
       <path id="DejaVuSans-72" d="M 2631 2963 
Q 2534 3019 2420 3045 
Q 2306 3072 2169 3072 
Q 1681 3072 1420 2755 
Q 1159 2438 1159 1844 
L 1159 0 
L 581 0 
L 581 3500 
L 1159 3500 
L 1159 2956 
Q 1341 3275 1631 3429 
Q 1922 3584 2338 3584 
Q 2397 3584 2469 3576 
Q 2541 3569 2628 3553 
L 2631 2963 
z
" transform="scale(0.015625)"/>
       <path id="DejaVuSans-6f" d="M 1959 3097 
Q 1497 3097 1228 2736 
Q 959 2375 959 1747 
Q 959 1119 1226 758 
Q 1494 397 1959 397 
Q 2419 397 2687 759 
Q 2956 1122 2956 1747 
Q 2956 2369 2687 2733 
Q 2419 3097 1959 3097 
z
M 1959 3584 
Q 2709 3584 3137 3096 
Q 3566 2609 3566 1747 
Q 3566 888 3137 398 
Q 2709 -91 1959 -91 
Q 1206 -91 779 398 
Q 353 888 353 1747 
Q 353 2609 779 3096 
Q 1206 3584 1959 3584 
z
" transform="scale(0.015625)"/>
       <path id="DejaVuSans-77" d="M 269 3500 
L 844 3500 
L 1563 769 
L 2278 3500 
L 2956 3500 
L 3675 769 
L 4391 3500 
L 4966 3500 
L 4050 0 
L 3372 0 
L 2619 2869 
L 1863 0 
L 1184 0 
L 269 3500 
z
" transform="scale(0.015625)"/>
       <path id="DejaVuSans-20" transform="scale(0.015625)"/>
       <path id="DejaVuSans-5b" d="M 550 4863 
L 1875 4863 
L 1875 4416 
L 1125 4416 
L 1125 -397 
L 1875 -397 
L 1875 -844 
L 550 -844 
L 550 4863 
z
" transform="scale(0.015625)"/>
       <path id="DejaVuSans-64" d="M 2906 2969 
L 2906 4863 
L 3481 4863 
L 3481 0 
L 2906 0 
L 2906 525 
Q 2725 213 2448 61 
Q 2172 -91 1784 -91 
Q 1150 -91 751 415 
Q 353 922 353 1747 
Q 353 2572 751 3078 
Q 1150 3584 1784 3584 
Q 2172 3584 2448 3432 
Q 2725 3281 2906 2969 
z
M 947 1747 
Q 947 1113 1208 752 
Q 1469 391 1925 391 
Q 2381 391 2643 752 
Q 2906 1113 2906 1747 
Q 2906 2381 2643 2742 
Q 2381 3103 1925 3103 
Q 1469 3103 1208 2742 
Q 947 2381 947 1747 
z
" transform="scale(0.015625)"/>
       <path id="DejaVuSans-61" d="M 2194 1759 
Q 1497 1759 1228 1600 
Q 959 1441 959 1056 
Q 959 750 1161 570 
Q 1363 391 1709 391 
Q 2188 391 2477 730 
Q 2766 1069 2766 1631 
L 2766 1759 
L 2194 1759 
z
M 3341 1997 
L 3341 0 
L 2766 0 
L 2766 531 
Q 2569 213 2275 61 
Q 1981 -91 1556 -91 
Q 1019 -91 701 211 
Q 384 513 384 1019 
Q 384 1609 779 1909 
Q 1175 2209 1959 2209 
L 2766 2209 
L 2766 2266 
Q 2766 2663 2505 2880 
Q 2244 3097 1772 3097 
Q 1472 3097 1187 3025 
Q 903 2953 641 2809 
L 641 3341 
Q 956 3463 1253 3523 
Q 1550 3584 1831 3584 
Q 2591 3584 2966 3190 
Q 3341 2797 3341 1997 
z
" transform="scale(0.015625)"/>
       <path id="DejaVuSans-74" d="M 1172 4494 
L 1172 3500 
L 2356 3500 
L 2356 3053 
L 1172 3053 
L 1172 1153 
Q 1172 725 1289 603 
Q 1406 481 1766 481 
L 2356 481 
L 2356 0 
L 1766 0 
Q 1100 0 847 248 
Q 594 497 594 1153 
L 594 3053 
L 172 3053 
L 172 3500 
L 594 3500 
L 594 4494 
L 1172 4494 
z
" transform="scale(0.015625)"/>
       <path id="DejaVuSans-65" d="M 3597 1894 
L 3597 1613 
L 953 1613 
Q 991 1019 1311 708 
Q 1631 397 2203 397 
Q 2534 397 2845 478 
Q 3156 559 3463 722 
L 3463 178 
Q 3153 47 2828 -22 
Q 2503 -91 2169 -91 
Q 1331 -91 842 396 
Q 353 884 353 1716 
Q 353 2575 817 3079 
Q 1281 3584 2069 3584 
Q 2775 3584 3186 3129 
Q 3597 2675 3597 1894 
z
M 3022 2063 
Q 3016 2534 2758 2815 
Q 2500 3097 2075 3097 
Q 1594 3097 1305 2825 
Q 1016 2553 972 2059 
L 3022 2063 
z
" transform="scale(0.015625)"/>
       <path id="DejaVuSans-69" d="M 603 3500 
L 1178 3500 
L 1178 0 
L 603 0 
L 603 3500 
z
M 603 4863 
L 1178 4863 
L 1178 4134 
L 603 4134 
L 603 4863 
z
" transform="scale(0.015625)"/>
       <path id="DejaVuSans-6d" d="M 3328 2828 
Q 3544 3216 3844 3400 
Q 4144 3584 4550 3584 
Q 5097 3584 5394 3201 
Q 5691 2819 5691 2113 
L 5691 0 
L 5113 0 
L 5113 2094 
Q 5113 2597 4934 2840 
Q 4756 3084 4391 3084 
Q 3944 3084 3684 2787 
Q 3425 2491 3425 1978 
L 3425 0 
L 2847 0 
L 2847 2094 
Q 2847 2600 2669 2842 
Q 2491 3084 2119 3084 
Q 1678 3084 1418 2786 
Q 1159 2488 1159 1978 
L 1159 0 
L 581 0 
L 581 3500 
L 1159 3500 
L 1159 2956 
Q 1356 3278 1631 3431 
Q 1906 3584 2284 3584 
Q 2666 3584 2933 3390 
Q 3200 3197 3328 2828 
z
" transform="scale(0.015625)"/>
       <path id="DejaVuSans-5d" d="M 1947 4863 
L 1947 -844 
L 622 -844 
L 622 -397 
L 1369 -397 
L 1369 4416 
L 622 4416 
L 622 4863 
L 1947 4863 
z
" transform="scale(0.015625)"/>
      </defs>
      <use xlink:href="#DejaVuSans-72"/>
      <use xlink:href="#DejaVuSans-6f" x="38.863281"/>
      <use xlink:href="#DejaVuSans-77" x="100.044922"/>
      <use xlink:href="#DejaVuSans-20" x="181.832031"/>
      <use xlink:href="#DejaVuSans-5b" x="213.619141"/>
      <use xlink:href="#DejaVuSans-64" x="252.632812"/>
      <use xlink:href="#DejaVuSans-61" x="316.109375"/>
      <use xlink:href="#DejaVuSans-74" x="377.388672"/>
      <use xlink:href="#DejaVuSans-65" x="416.597656"/>
      <use xlink:href="#DejaVuSans-74" x="478.121094"/>
      <use xlink:href="#DejaVuSans-69" x="517.330078"/>
      <use xlink:href="#DejaVuSans-6d" x="545.113281"/>
      <use xlink:href="#DejaVuSans-65" x="642.525391"/>
      <use xlink:href="#DejaVuSans-5d" x="704.048828"/>
     </g>
    </g>
   </g>
   <g id="matplotlib.axis_2">
    <g id="ytick_1">
     <g id="line2d_8">
      <defs>
       <path id="mcaa7b68935" d="M 0 0 
L -3.5 0 
" style="stroke: #000000; stroke-width: 0.8"/>
      </defs>
      <g>
       <use xlink:href="#mcaa7b68935" x="48.982813" y="194.738859" style="stroke: #000000; stroke-width: 0.8"/>
      </g>
     </g>
     <g id="text_9">
      <!-- −10 -->
      <g transform="translate(20.878125 198.538078) scale(0.1 -0.1)">
       <defs>
        <path id="DejaVuSans-2212" d="M 678 2272 
L 4684 2272 
L 4684 1741 
L 678 1741 
L 678 2272 
z
" transform="scale(0.015625)"/>
       </defs>
       <use xlink:href="#DejaVuSans-2212"/>
       <use xlink:href="#DejaVuSans-31" x="83.789062"/>
       <use xlink:href="#DejaVuSans-30" x="147.412109"/>
      </g>
     </g>
    </g>
    <g id="ytick_2">
     <g id="line2d_9">
      <g>
       <use xlink:href="#mcaa7b68935" x="48.982813" y="158.433194" style="stroke: #000000; stroke-width: 0.8"/>
      </g>
     </g>
     <g id="text_10">
      <!-- −5 -->
      <g transform="translate(27.240625 162.232413) scale(0.1 -0.1)">
       <use xlink:href="#DejaVuSans-2212"/>
       <use xlink:href="#DejaVuSans-35" x="83.789062"/>
      </g>
     </g>
    </g>
    <g id="ytick_3">
     <g id="line2d_10">
      <g>
       <use xlink:href="#mcaa7b68935" x="48.982813" y="122.12753" style="stroke: #000000; stroke-width: 0.8"/>
      </g>
     </g>
     <g id="text_11">
      <!-- 0 -->
      <g transform="translate(35.620312 125.926748) scale(0.1 -0.1)">
       <use xlink:href="#DejaVuSans-30"/>
      </g>
     </g>
    </g>
    <g id="ytick_4">
     <g id="line2d_11">
      <g>
       <use xlink:href="#mcaa7b68935" x="48.982813" y="85.821865" style="stroke: #000000; stroke-width: 0.8"/>
      </g>
     </g>
     <g id="text_12">
      <!-- 5 -->
      <g transform="translate(35.620312 89.621084) scale(0.1 -0.1)">
       <use xlink:href="#DejaVuSans-35"/>
      </g>
     </g>
    </g>
    <g id="ytick_5">
     <g id="line2d_12">
      <g>
       <use xlink:href="#mcaa7b68935" x="48.982813" y="49.5162" style="stroke: #000000; stroke-width: 0.8"/>
      </g>
     </g>
     <g id="text_13">
      <!-- 10 -->
      <g transform="translate(29.257812 53.315419) scale(0.1 -0.1)">
       <use xlink:href="#DejaVuSans-31"/>
       <use xlink:href="#DejaVuSans-30" x="63.623047"/>
      </g>
     </g>
    </g>
    <g id="ytick_6">
     <g id="line2d_13">
      <g>
       <use xlink:href="#mcaa7b68935" x="48.982813" y="13.210536" style="stroke: #000000; stroke-width: 0.8"/>
      </g>
     </g>
     <g id="text_14">
      <!-- 15 -->
      <g transform="translate(29.257812 17.009755) scale(0.1 -0.1)">
       <use xlink:href="#DejaVuSans-31"/>
       <use xlink:href="#DejaVuSans-35" x="63.623047"/>
      </g>
     </g>
    </g>
    <g id="text_15">
     <!-- [dimensionless] -->
     <g transform="translate(14.798437 157.557344) rotate(-90) scale(0.1 -0.1)">
      <defs>
       <path id="DejaVuSans-6e" d="M 3513 2113 
L 3513 0 
L 2938 0 
L 2938 2094 
Q 2938 2591 2744 2837 
Q 2550 3084 2163 3084 
Q 1697 3084 1428 2787 
Q 1159 2491 1159 1978 
L 1159 0 
L 581 0 
L 581 3500 
L 1159 3500 
L 1159 2956 
Q 1366 3272 1645 3428 
Q 1925 3584 2291 3584 
Q 2894 3584 3203 3211 
Q 3513 2838 3513 2113 
z
" transform="scale(0.015625)"/>
       <path id="DejaVuSans-73" d="M 2834 3397 
L 2834 2853 
Q 2591 2978 2328 3040 
Q 2066 3103 1784 3103 
Q 1356 3103 1142 2972 
Q 928 2841 928 2578 
Q 928 2378 1081 2264 
Q 1234 2150 1697 2047 
L 1894 2003 
Q 2506 1872 2764 1633 
Q 3022 1394 3022 966 
Q 3022 478 2636 193 
Q 2250 -91 1575 -91 
Q 1294 -91 989 -36 
Q 684 19 347 128 
L 347 722 
Q 666 556 975 473 
Q 1284 391 1588 391 
Q 1994 391 2212 530 
Q 2431 669 2431 922 
Q 2431 1156 2273 1281 
Q 2116 1406 1581 1522 
L 1381 1569 
Q 847 1681 609 1914 
Q 372 2147 372 2553 
Q 372 3047 722 3315 
Q 1072 3584 1716 3584 
Q 2034 3584 2315 3537 
Q 2597 3491 2834 3397 
z
" transform="scale(0.015625)"/>
       <path id="DejaVuSans-6c" d="M 603 4863 
L 1178 4863 
L 1178 0 
L 603 0 
L 603 4863 
z
" transform="scale(0.015625)"/>
      </defs>
      <use xlink:href="#DejaVuSans-5b"/>
      <use xlink:href="#DejaVuSans-64" x="39.013672"/>
      <use xlink:href="#DejaVuSans-69" x="102.490234"/>
      <use xlink:href="#DejaVuSans-6d" x="130.273438"/>
      <use xlink:href="#DejaVuSans-65" x="227.685547"/>
      <use xlink:href="#DejaVuSans-6e" x="289.208984"/>
      <use xlink:href="#DejaVuSans-73" x="352.587891"/>
      <use xlink:href="#DejaVuSans-69" x="404.6875"/>
      <use xlink:href="#DejaVuSans-6f" x="432.470703"/>
      <use xlink:href="#DejaVuSans-6e" x="493.652344"/>
      <use xlink:href="#DejaVuSans-6c" x="557.03125"/>
      <use xlink:href="#DejaVuSans-65" x="584.814453"/>
      <use xlink:href="#DejaVuSans-73" x="646.337891"/>
      <use xlink:href="#DejaVuSans-73" x="698.4375"/>
      <use xlink:href="#DejaVuSans-5d" x="750.537109"/>
     </g>
    </g>
   </g>
   <g id="patch_3">
    <path d="M 48.982813 228.96 
L 48.982813 7.2 
" style="fill: none; stroke: #000000; stroke-width: 0.8; stroke-linejoin: miter; stroke-linecap: square"/>
   </g>
   <g id="patch_4">
    <path d="M 383.782813 228.96 
L 383.782813 7.2 
" style="fill: none; stroke: #000000; stroke-width: 0.8; stroke-linejoin: miter; stroke-linecap: square"/>
   </g>
   <g id="patch_5">
    <path d="M 48.982812 228.96 
L 383.782812 228.96 
" style="fill: none; stroke: #000000; stroke-width: 0.8; stroke-linejoin: miter; stroke-linecap: square"/>
   </g>
   <g id="patch_6">
    <path d="M 48.982812 7.2 
L 383.782812 7.2 
" style="fill: none; stroke: #000000; stroke-width: 0.8; stroke-linejoin: miter; stroke-linecap: square"/>
   </g>
   <g id="legend_1">
    <g id="patch_7">
     <path d="M 55.982813 223.96 
L 95.682813 223.96 
Q 97.682813 223.96 97.682813 221.96 
L 97.682813 164.2475 
Q 97.682813 162.2475 95.682813 162.2475 
L 55.982813 162.2475 
Q 53.982813 162.2475 53.982813 164.2475 
L 53.982813 221.96 
Q 53.982813 223.96 55.982813 223.96 
z
" style="fill: #ffffff; opacity: 0.8; stroke: #cccccc; stroke-linejoin: miter"/>
    </g>
    <g id="line2d_14">
     <path d="M 57.982813 170.345937 
L 67.982812 170.345937 
L 77.982812 170.345937 
" style="fill: none; stroke: #1f77b4; stroke-width: 1.5; stroke-linecap: square"/>
    </g>
    <g id="text_16">
     <!-- A -->
     <g transform="translate(85.982812 173.845937) scale(0.1 -0.1)">
      <defs>
       <path id="DejaVuSans-41" d="M 2188 4044 
L 1331 1722 
L 3047 1722 
L 2188 4044 
z
M 1831 4666 
L 2547 4666 
L 4325 0 
L 3669 0 
L 3244 1197 
L 1141 1197 
L 716 0 
L 50 0 
L 1831 4666 
z
" transform="scale(0.015625)"/>
      </defs>
      <use xlink:href="#DejaVuSans-41"/>
     </g>
    </g>
    <g id="line2d_15">
     <path d="M 57.982813 185.024062 
L 67.982812 185.024062 
L 77.982812 185.024062 
" style="fill: none; stroke: #ff7f0e; stroke-width: 1.5; stroke-linecap: square"/>
    </g>
    <g id="text_17">
     <!-- B -->
     <g transform="translate(85.982812 188.524062) scale(0.1 -0.1)">
      <defs>
       <path id="DejaVuSans-42" d="M 1259 2228 
L 1259 519 
L 2272 519 
Q 2781 519 3026 730 
Q 3272 941 3272 1375 
Q 3272 1813 3026 2020 
Q 2781 2228 2272 2228 
L 1259 2228 
z
M 1259 4147 
L 1259 2741 
L 2194 2741 
Q 2656 2741 2882 2914 
Q 3109 3088 3109 3444 
Q 3109 3797 2882 3972 
Q 2656 4147 2194 4147 
L 1259 4147 
z
M 628 4666 
L 2241 4666 
Q 2963 4666 3353 4366 
Q 3744 4066 3744 3513 
Q 3744 3084 3544 2831 
Q 3344 2578 2956 2516 
Q 3422 2416 3680 2098 
Q 3938 1781 3938 1306 
Q 3938 681 3513 340 
Q 3088 0 2303 0 
L 628 0 
L 628 4666 
z
" transform="scale(0.015625)"/>
      </defs>
      <use xlink:href="#DejaVuSans-42"/>
     </g>
    </g>
    <g id="line2d_16">
     <path d="M 57.982813 199.702187 
L 67.982812 199.702187 
L 77.982812 199.702187 
" style="fill: none; stroke: #2ca02c; stroke-width: 1.5; stroke-linecap: square"/>
    </g>
    <g id="text_18">
     <!-- C -->
     <g transform="translate(85.982812 203.202187) scale(0.1 -0.1)">
      <defs>
       <path id="DejaVuSans-43" d="M 4122 4306 
L 4122 3641 
Q 3803 3938 3442 4084 
Q 3081 4231 2675 4231 
Q 1875 4231 1450 3742 
Q 1025 3253 1025 2328 
Q 1025 1406 1450 917 
Q 1875 428 2675 428 
Q 3081 428 3442 575 
Q 3803 722 4122 1019 
L 4122 359 
Q 3791 134 3420 21 
Q 3050 -91 2638 -91 
Q 1578 -91 968 557 
Q 359 1206 359 2328 
Q 359 3453 968 4101 
Q 1578 4750 2638 4750 
Q 3056 4750 3426 4639 
Q 3797 4528 4122 4306 
z
" transform="scale(0.015625)"/>
      </defs>
      <use xlink:href="#DejaVuSans-43"/>
     </g>
    </g>
    <g id="line2d_17">
     <path d="M 57.982813 214.380312 
L 67.982812 214.380312 
L 77.982812 214.380312 
" style="fill: none; stroke: #d62728; stroke-width: 1.5; stroke-linecap: square"/>
    </g>
    <g id="text_19">
     <!-- D -->
     <g transform="translate(85.982812 217.880312) scale(0.1 -0.1)">
      <defs>
       <path id="DejaVuSans-44" d="M 1259 4147 
L 1259 519 
L 2022 519 
Q 2988 519 3436 956 
Q 3884 1394 3884 2338 
Q 3884 3275 3436 3711 
Q 2988 4147 2022 4147 
L 1259 4147 
z
M 628 4666 
L 1925 4666 
Q 3281 4666 3915 4102 
Q 4550 3538 4550 2338 
Q 4550 1131 3912 565 
Q 3275 0 1925 0 
L 628 0 
L 628 4666 
z
" transform="scale(0.015625)"/>
      </defs>
      <use xlink:href="#DejaVuSans-44"/>
     </g>
    </g>
   </g>
   <g id="line2d_18">
    <path d="M 64.200994 125.464466 
L 65.73046 136.390319 
L 67.259925 134.946472 
L 68.789391 121.971132 
L 70.318856 103.066691 
L 71.848322 105.98726 
L 73.377787 114.89805 
L 74.907253 104.710796 
L 76.436718 107.204022 
L 77.966184 108.318808 
L 79.495649 99.684659 
L 81.025115 107.373466 
L 82.55458 119.935292 
L 84.084046 123.915306 
L 85.613511 122.706449 
L 87.142977 115.160119 
L 88.672442 114.197228 
L 90.201908 112.412103 
L 91.731373 105.060994 
L 93.260839 102.231028 
L 94.790305 115.194979 
L 96.31977 116.333704 
L 97.849236 124.125068 
L 99.378701 118.735405 
L 100.908167 127.447999 
L 102.437632 134.729245 
L 103.967098 139.429428 
L 105.496563 137.739601 
L 107.026029 130.20477 
L 108.555494 126.619188 
L 110.08496 130.767056 
L 111.614425 136.011682 
L 113.143891 145.683376 
L 114.673356 142.332544 
L 116.202822 134.713919 
L 117.732287 126.309482 
L 119.261753 140.37836 
L 120.791218 144.448646 
L 122.320684 138.538721 
L 123.850149 144.295288 
L 125.379615 136.069975 
L 126.90908 129.302266 
L 128.438546 125.624299 
L 129.968011 125.42972 
L 131.497477 120.727681 
L 133.026942 121.220185 
L 134.556408 125.48109 
L 136.085873 120.119917 
L 137.615339 120.424764 
L 139.144804 116.12799 
L 140.67427 105.037517 
L 142.203735 117.663186 
L 143.733201 118.317644 
L 145.262666 114.401046 
L 146.792132 112.97176 
L 148.321597 91.394316 
L 149.851063 93.086741 
L 151.380528 101.949231 
L 152.909994 95.202156 
L 154.439459 97.446655 
L 155.968925 99.229853 
L 157.49839 109.739211 
L 159.027856 112.782235 
L 160.557321 108.190969 
L 162.086787 93.252491 
L 163.616252 96.565018 
L 165.145718 89.37907 
L 166.675183 78.479477 
L 168.204649 70.448263 
L 169.734114 83.559495 
L 171.26358 68.96835 
L 172.793045 69.702987 
L 174.322511 67.444165 
L 175.851977 76.008851 
L 177.381442 64.632064 
L 178.910908 74.939334 
L 180.440373 79.359828 
L 181.969839 79.190652 
L 183.499304 90.243541 
L 185.02877 87.399415 
L 188.087701 91.526157 
L 189.617166 101.387159 
L 191.146632 97.902638 
L 192.676097 98.771108 
L 194.205563 111.05326 
L 195.735028 110.114938 
L 197.264494 110.424618 
L 198.793959 113.357901 
L 201.85289 121.629738 
L 203.382356 118.548102 
L 204.911821 123.478433 
L 206.441287 123.009475 
L 207.970752 126.503659 
L 209.500218 115.452461 
L 211.029683 115.745004 
L 212.559149 105.915861 
L 214.088614 102.756549 
L 215.61808 96.459372 
L 217.147545 92.588639 
L 218.677011 89.641647 
L 220.206476 98.519585 
L 221.735942 103.786336 
L 223.265407 112.363083 
L 224.794873 111.050635 
L 226.324338 115.308793 
L 227.853804 116.846497 
L 229.383269 116.34264 
L 230.912735 114.723582 
L 232.4422 123.220382 
L 233.971666 119.847989 
L 235.501131 117.110491 
L 237.030597 114.984767 
L 238.560062 111.073354 
L 240.089528 105.355884 
L 241.618993 105.059744 
L 243.148459 103.52065 
L 244.677924 111.914283 
L 246.20739 116.3505 
L 247.736855 102.810043 
L 249.266321 98.903447 
L 250.795786 109.953254 
L 252.325252 111.643975 
L 253.854717 118.113711 
L 255.384183 121.751489 
L 258.443114 101.360635 
L 259.97258 102.878662 
L 261.502045 98.968182 
L 263.031511 87.623923 
L 264.560976 95.233969 
L 266.090442 85.540778 
L 267.619907 78.120614 
L 269.149373 84.094643 
L 270.678838 86.87823 
L 272.208304 94.530798 
L 273.737769 106.477147 
L 275.267235 107.540974 
L 276.7967 106.714963 
L 279.855631 84.460695 
L 281.385097 90.52424 
L 282.914562 84.344654 
L 284.444028 81.106498 
L 285.973493 81.886192 
L 287.502959 87.337394 
L 289.032424 93.585947 
L 290.56189 97.384654 
L 292.091355 109.0141 
L 293.620821 117.329383 
L 295.150286 103.951375 
L 296.679752 96.029675 
L 298.209217 101.555689 
L 299.738683 108.334576 
L 301.268148 97.15202 
L 302.797614 102.131841 
L 304.327079 102.734216 
L 305.856545 100.45632 
L 307.38601 93.640993 
L 308.915476 103.190797 
L 310.444941 108.415898 
L 311.974407 113.021715 
L 313.503872 122.897873 
L 315.033338 125.60092 
L 316.562803 133.315277 
L 318.092269 160.247295 
L 319.621734 156.344063 
L 321.1512 166.342056 
L 322.680665 160.538608 
L 324.210131 168.84703 
L 325.739596 153.639163 
L 327.269062 152.557526 
L 328.798527 156.763638 
L 330.327993 163.744762 
L 331.857458 166.763345 
L 333.386924 156.221757 
L 334.916389 156.02025 
L 336.445855 152.076517 
L 337.97532 149.905868 
L 339.504786 151.799419 
L 341.034252 142.672993 
L 342.563717 149.550548 
L 344.093183 143.073612 
L 347.152114 116.017238 
L 348.681579 127.944587 
L 350.211045 125.016925 
L 351.74051 116.314309 
L 353.269976 110.703473 
L 354.799441 98.133769 
L 356.328907 106.893081 
L 357.858372 113.265867 
L 359.387838 113.570667 
L 360.917303 117.320171 
L 362.446769 108.03949 
L 363.976234 103.485135 
L 367.035165 84.135231 
L 368.564631 77.863703 
L 368.564631 77.863703 
" clip-path="url(#p8ad1cbd030)" style="fill: none; stroke: #1f77b4; stroke-width: 1.5; stroke-linecap: square"/>
   </g>
   <g id="line2d_19">
    <path d="M 64.200994 124.779259 
L 67.259925 108.628626 
L 68.789391 101.073952 
L 70.318856 110.131277 
L 71.848322 102.580169 
L 73.377787 101.212656 
L 74.907253 86.663099 
L 76.436718 85.295468 
L 77.966184 76.511762 
L 79.495649 85.319872 
L 81.025115 83.016319 
L 82.55458 99.072994 
L 84.084046 110.25689 
L 85.613511 110.99753 
L 87.142977 125.869072 
L 88.672442 133.599729 
L 90.201908 145.871007 
L 91.731373 150.325525 
L 93.260839 155.959782 
L 94.790305 156.318786 
L 96.31977 150.570085 
L 97.849236 136.278844 
L 99.378701 140.246054 
L 100.908167 121.893226 
L 102.437632 136.266631 
L 103.967098 130.615293 
L 105.496563 135.800909 
L 107.026029 118.292993 
L 108.555494 114.454054 
L 110.08496 112.027752 
L 111.614425 103.206543 
L 113.143891 103.457885 
L 114.673356 111.11727 
L 116.202822 113.406291 
L 117.732287 115.14593 
L 119.261753 107.868974 
L 120.791218 96.548419 
L 122.320684 101.497191 
L 123.850149 100.891644 
L 125.379615 106.937739 
L 126.90908 109.210458 
L 129.968011 131.865345 
L 131.497477 140.927514 
L 133.026942 144.950392 
L 134.556408 160.069402 
L 136.085873 160.979151 
L 137.615339 156.325558 
L 139.144804 161.116978 
L 140.67427 169.602315 
L 142.203735 162.774064 
L 143.733201 174.659392 
L 145.262666 177.256464 
L 146.792132 170.986555 
L 148.321597 181.364645 
L 149.851063 197.717406 
L 151.380528 193.770149 
L 154.439459 195.582193 
L 155.968925 187.999532 
L 157.49839 201.02036 
L 159.027856 203.84558 
L 160.557321 195.126079 
L 162.086787 198.851827 
L 163.616252 208.775604 
L 165.145718 204.675325 
L 166.675183 213.394883 
L 168.204649 213.341386 
L 169.734114 207.830198 
L 171.26358 206.538494 
L 172.793045 203.2365 
L 174.322511 218.063551 
L 175.851977 221.70056 
L 177.381442 211.95601 
L 178.910908 200.911348 
L 180.440373 200.284646 
L 181.969839 180.853403 
L 183.499304 179.639907 
L 185.02877 179.524025 
L 186.558235 180.395136 
L 188.087701 189.990871 
L 189.617166 179.190329 
L 191.146632 179.989258 
L 192.676097 186.076545 
L 194.205563 183.939345 
L 195.735028 194.179473 
L 197.264494 194.564548 
L 198.793959 192.568944 
L 200.323425 205.32683 
L 201.85289 207.086637 
L 203.382356 196.452252 
L 204.911821 182.266241 
L 206.441287 180.900767 
L 207.970752 181.553555 
L 209.500218 177.939454 
L 211.029683 175.60758 
L 212.559149 174.698562 
L 214.088614 173.019579 
L 215.61808 160.929514 
L 217.147545 164.577616 
L 218.677011 169.898139 
L 220.206476 165.435805 
L 221.735942 168.894937 
L 224.794873 160.169061 
L 226.324338 167.831114 
L 227.853804 165.661956 
L 229.383269 178.833624 
L 230.912735 180.159871 
L 232.4422 171.641884 
L 233.971666 162.203212 
L 235.501131 165.937638 
L 237.030597 160.042287 
L 238.560062 162.185786 
L 240.089528 158.134212 
L 241.618993 148.75976 
L 243.148459 151.651621 
L 244.677924 140.776493 
L 246.20739 136.040055 
L 247.736855 134.10077 
L 249.266321 133.018206 
L 250.795786 133.490321 
L 252.325252 134.208453 
L 253.854717 148.691871 
L 255.384183 146.253436 
L 256.913648 145.303838 
L 258.443114 154.387932 
L 259.97258 154.428968 
L 261.502045 159.604657 
L 263.031511 162.073698 
L 264.560976 163.872994 
L 266.090442 162.552707 
L 267.619907 168.364436 
L 269.149373 153.976887 
L 270.678838 151.090343 
L 272.208304 149.778867 
L 273.737769 151.742028 
L 275.267235 146.158838 
L 276.7967 152.116733 
L 278.326166 150.663112 
L 279.855631 144.848281 
L 281.385097 159.033163 
L 282.914562 167.858678 
L 284.444028 172.068176 
L 285.973493 161.786062 
L 287.502959 174.266396 
L 289.032424 173.101362 
L 290.56189 166.773823 
L 292.091355 162.378782 
L 293.620821 158.821672 
L 295.150286 149.219839 
L 296.679752 147.790931 
L 298.209217 147.024156 
L 299.738683 157.856253 
L 301.268148 155.142144 
L 302.797614 139.877277 
L 304.327079 148.444013 
L 305.856545 141.819348 
L 307.38601 132.850525 
L 308.915476 135.298513 
L 310.444941 150.502997 
L 311.974407 147.843433 
L 313.503872 155.60245 
L 315.033338 157.716716 
L 316.562803 160.943996 
L 318.092269 154.891011 
L 319.621734 165.037893 
L 321.1512 164.181594 
L 322.680665 156.417174 
L 324.210131 161.307011 
L 325.739596 155.72209 
L 327.269062 150.894208 
L 328.798527 151.750829 
L 330.327993 158.062996 
L 331.857458 171.63958 
L 333.386924 161.269311 
L 334.916389 163.444049 
L 336.445855 162.702115 
L 337.97532 172.217376 
L 339.504786 174.611555 
L 341.034252 161.303158 
L 342.563717 163.016954 
L 344.093183 159.425617 
L 345.622648 160.983489 
L 347.152114 160.175806 
L 350.211045 166.786894 
L 351.74051 168.172317 
L 353.269976 169.214622 
L 354.799441 171.33741 
L 356.328907 178.40181 
L 357.858372 171.755305 
L 359.387838 174.236755 
L 360.917303 167.520185 
L 362.446769 155.688659 
L 363.976234 159.219583 
L 365.5057 156.888978 
L 368.564631 137.89398 
L 368.564631 137.89398 
" clip-path="url(#p8ad1cbd030)" style="fill: none; stroke: #ff7f0e; stroke-width: 1.5; stroke-linecap: square"/>
   </g>
   <g id="line2d_20">
    <path d="M 64.200994 123.104066 
L 65.73046 110.530556 
L 67.259925 108.05663 
L 68.789391 110.487355 
L 70.318856 111.937971 
L 71.848322 101.940938 
L 73.377787 104.883172 
L 74.907253 100.943262 
L 76.436718 99.450496 
L 77.966184 112.366804 
L 79.495649 132.030288 
L 81.025115 129.441229 
L 82.55458 136.839632 
L 84.084046 148.805676 
L 85.613511 148.224141 
L 87.142977 150.20997 
L 88.672442 149.13243 
L 90.201908 141.953456 
L 91.731373 143.315212 
L 93.260839 141.008284 
L 94.790305 133.685334 
L 96.31977 135.182477 
L 97.849236 128.663352 
L 99.378701 125.655974 
L 100.908167 120.174892 
L 102.437632 119.115273 
L 103.967098 108.631553 
L 105.496563 110.471903 
L 107.026029 108.16091 
L 108.555494 99.040468 
L 110.08496 96.602554 
L 111.614425 95.100845 
L 113.143891 87.44632 
L 114.673356 72.750531 
L 116.202822 71.342442 
L 117.732287 69.364564 
L 119.261753 71.710334 
L 120.791218 76.305235 
L 122.320684 72.608139 
L 123.850149 69.976798 
L 125.379615 67.079404 
L 126.90908 77.354696 
L 128.438546 79.129943 
L 129.968011 80.647808 
L 131.497477 77.23305 
L 133.026942 77.961925 
L 134.556408 73.454743 
L 136.085873 68.105008 
L 137.615339 57.971052 
L 139.144804 58.059224 
L 140.67427 60.294236 
L 142.203735 51.161 
L 143.733201 49.943205 
L 145.262666 68.333893 
L 146.792132 70.134124 
L 148.321597 74.977035 
L 149.851063 64.340465 
L 151.380528 64.542724 
L 152.909994 58.798985 
L 154.439459 64.479156 
L 155.968925 53.510047 
L 157.49839 51.930621 
L 159.027856 43.441559 
L 160.557321 46.636914 
L 162.086787 46.332913 
L 165.145718 65.195638 
L 166.675183 77.226544 
L 168.204649 73.751342 
L 171.26358 80.417459 
L 172.793045 81.752031 
L 174.322511 66.004107 
L 175.851977 61.347399 
L 177.381442 63.051242 
L 178.910908 70.465429 
L 180.440373 76.767285 
L 181.969839 84.444435 
L 183.499304 76.406739 
L 185.02877 56.901885 
L 186.558235 59.99213 
L 188.087701 65.219529 
L 189.617166 58.247944 
L 191.146632 60.175545 
L 192.676097 49.140096 
L 194.205563 51.057664 
L 195.735028 42.566228 
L 197.264494 49.740175 
L 198.793959 52.059539 
L 200.323425 43.556373 
L 201.85289 45.696575 
L 203.382356 45.801343 
L 204.911821 48.659837 
L 206.441287 43.189367 
L 207.970752 55.49076 
L 209.500218 61.300697 
L 211.029683 56.326569 
L 212.559149 58.466752 
L 214.088614 48.999746 
L 217.147545 40.736251 
L 218.677011 49.908306 
L 220.206476 54.543584 
L 221.735942 57.488517 
L 223.265407 57.512001 
L 224.794873 45.099552 
L 226.324338 56.834796 
L 229.383269 76.780914 
L 230.912735 80.406508 
L 232.4422 75.387417 
L 233.971666 78.220158 
L 235.501131 81.321216 
L 237.030597 81.008032 
L 238.560062 78.336829 
L 240.089528 83.537678 
L 241.618993 79.280329 
L 243.148459 82.374772 
L 244.677924 88.715307 
L 246.20739 71.829327 
L 247.736855 83.546286 
L 249.266321 78.072291 
L 250.795786 78.848468 
L 252.325252 74.856295 
L 253.854717 70.54245 
L 255.384183 69.366179 
L 256.913648 65.411657 
L 258.443114 72.47047 
L 259.97258 61.006472 
L 261.502045 62.026782 
L 263.031511 51.923445 
L 264.560976 55.406997 
L 266.090442 51.293662 
L 267.619907 45.265258 
L 269.149373 50.738161 
L 270.678838 58.002306 
L 272.208304 74.4802 
L 273.737769 80.357676 
L 275.267235 94.313881 
L 276.7967 102.830318 
L 278.326166 93.231211 
L 279.855631 99.559482 
L 281.385097 81.577633 
L 282.914562 79.336553 
L 284.444028 78.395832 
L 285.973493 71.411463 
L 289.032424 75.641627 
L 290.56189 74.66889 
L 292.091355 82.377663 
L 293.620821 95.379824 
L 295.150286 90.754119 
L 296.679752 96.581638 
L 298.209217 83.904264 
L 299.738683 85.405314 
L 301.268148 93.564885 
L 302.797614 87.685087 
L 304.327079 107.766497 
L 305.856545 110.38209 
L 307.38601 112.452782 
L 308.915476 103.862618 
L 310.444941 98.672802 
L 311.974407 97.034034 
L 313.503872 86.491075 
L 315.033338 83.566876 
L 316.562803 93.402927 
L 318.092269 94.839094 
L 319.621734 88.56267 
L 321.1512 91.934145 
L 322.680665 85.822989 
L 324.210131 78.021872 
L 325.739596 77.393906 
L 327.269062 73.119426 
L 330.327993 46.420303 
L 331.857458 37.600862 
L 333.386924 45.901224 
L 334.916389 46.55556 
L 336.445855 58.744448 
L 337.97532 47.943226 
L 339.504786 53.071981 
L 341.034252 62.151856 
L 342.563717 63.865358 
L 344.093183 62.194432 
L 345.622648 63.687142 
L 347.152114 73.503192 
L 348.681579 72.636419 
L 350.211045 64.124227 
L 351.74051 78.078666 
L 353.269976 80.895016 
L 354.799441 66.567307 
L 356.328907 75.11501 
L 357.858372 88.815415 
L 359.387838 83.094277 
L 360.917303 66.621176 
L 362.446769 69.702113 
L 363.976234 61.801275 
L 365.5057 54.539841 
L 368.564631 45.645615 
L 368.564631 45.645615 
" clip-path="url(#p8ad1cbd030)" style="fill: none; stroke: #2ca02c; stroke-width: 1.5; stroke-linecap: square"/>
   </g>
   <g id="line2d_21">
    <path d="M 64.200994 114.758343 
L 65.73046 121.090198 
L 67.259925 112.352491 
L 68.789391 114.670856 
L 70.318856 104.900529 
L 71.848322 103.100066 
L 73.377787 105.272738 
L 74.907253 111.204929 
L 76.436718 100.033289 
L 77.966184 111.264975 
L 79.495649 98.016162 
L 81.025115 96.248706 
L 82.55458 93.835838 
L 84.084046 97.25836 
L 85.613511 93.060694 
L 87.142977 87.980982 
L 88.672442 76.244039 
L 90.201908 72.632539 
L 91.731373 70.964075 
L 94.790305 70.792565 
L 96.31977 81.522874 
L 97.849236 82.199174 
L 99.378701 82.302488 
L 100.908167 79.496576 
L 102.437632 79.526528 
L 103.967098 83.519402 
L 105.496563 90.021815 
L 107.026029 78.592766 
L 108.555494 63.669921 
L 110.08496 64.578212 
L 111.614425 70.130809 
L 113.143891 54.002534 
L 114.673356 53.032882 
L 116.202822 51.180226 
L 117.732287 45.308264 
L 119.261753 37.479827 
L 120.791218 34.532469 
L 122.320684 30.444765 
L 123.850149 28.514278 
L 125.379615 26.030376 
L 126.90908 37.155594 
L 128.438546 43.407939 
L 129.968011 23.038628 
L 131.497477 28.378015 
L 133.026942 39.087663 
L 134.556408 33.780852 
L 136.085873 37.013837 
L 137.615339 43.778846 
L 139.144804 38.850767 
L 140.67427 27.627841 
L 142.203735 25.453791 
L 143.733201 18.668385 
L 145.262666 15.052913 
L 146.792132 19.141802 
L 148.321597 36.53823 
L 149.851063 31.643883 
L 151.380528 34.007276 
L 152.909994 29.873312 
L 155.968925 26.73648 
L 159.027856 26.230267 
L 160.557321 32.056168 
L 162.086787 37.286932 
L 163.616252 54.094987 
L 165.145718 67.135616 
L 166.675183 61.095085 
L 168.204649 68.410337 
L 169.734114 70.508728 
L 171.26358 69.90925 
L 172.793045 69.93926 
L 174.322511 66.163248 
L 175.851977 63.531556 
L 177.381442 54.199668 
L 178.910908 58.583469 
L 180.440373 69.08286 
L 181.969839 59.566477 
L 183.499304 66.39859 
L 185.02877 59.874282 
L 186.558235 61.867409 
L 188.087701 60.392904 
L 189.617166 50.047398 
L 192.676097 64.891012 
L 194.205563 67.539085 
L 195.735028 71.646175 
L 197.264494 79.143011 
L 198.793959 77.55951 
L 200.323425 83.044208 
L 201.85289 83.009111 
L 203.382356 78.080455 
L 204.911821 82.947923 
L 206.441287 79.122114 
L 207.970752 85.839355 
L 209.500218 76.854929 
L 211.029683 84.85375 
L 212.559149 81.804779 
L 214.088614 79.175694 
L 215.61808 78.261766 
L 217.147545 72.267881 
L 218.677011 74.502935 
L 220.206476 86.654278 
L 221.735942 82.052444 
L 223.265407 68.273618 
L 224.794873 69.952731 
L 226.324338 77.414708 
L 229.383269 59.591508 
L 230.912735 61.10976 
L 232.4422 54.337157 
L 233.971666 61.355451 
L 235.501131 72.52799 
L 237.030597 66.971473 
L 238.560062 71.336576 
L 240.089528 68.05674 
L 241.618993 69.566796 
L 243.148459 65.605797 
L 244.677924 66.83163 
L 246.20739 84.840566 
L 247.736855 87.347613 
L 249.266321 92.051178 
L 250.795786 99.462042 
L 252.325252 88.461785 
L 253.854717 87.018587 
L 255.384183 82.864752 
L 256.913648 84.446563 
L 258.443114 89.612809 
L 259.97258 92.473906 
L 261.502045 82.524727 
L 263.031511 79.97377 
L 264.560976 72.695525 
L 266.090442 71.164648 
L 267.619907 64.763903 
L 269.149373 66.171375 
L 270.678838 68.931866 
L 272.208304 61.437181 
L 273.737769 58.296654 
L 275.267235 56.576284 
L 276.7967 63.398621 
L 279.855631 57.081508 
L 281.385097 57.781616 
L 282.914562 68.687771 
L 284.444028 66.690332 
L 285.973493 81.290246 
L 287.502959 82.292325 
L 289.032424 91.957991 
L 290.56189 90.924752 
L 292.091355 89.509466 
L 293.620821 95.27433 
L 295.150286 106.443936 
L 296.679752 112.801129 
L 298.209217 103.524144 
L 299.738683 115.845271 
L 301.268148 124.722318 
L 302.797614 125.222831 
L 304.327079 128.826965 
L 305.856545 135.689163 
L 307.38601 136.718372 
L 308.915476 137.077568 
L 310.444941 132.068346 
L 311.974407 135.25412 
L 313.503872 141.130645 
L 315.033338 143.324592 
L 316.562803 146.62821 
L 318.092269 163.373386 
L 319.621734 172.111175 
L 321.1512 158.548012 
L 322.680665 166.114549 
L 324.210131 158.434168 
L 325.739596 146.304382 
L 327.269062 146.29547 
L 328.798527 139.238942 
L 330.327993 145.808111 
L 331.857458 154.128718 
L 333.386924 149.146335 
L 334.916389 146.75368 
L 336.445855 150.324019 
L 337.97532 143.78531 
L 339.504786 161.286369 
L 341.034252 157.813305 
L 342.563717 156.759864 
L 344.093183 165.05169 
L 345.622648 159.395143 
L 347.152114 155.892943 
L 348.681579 156.43067 
L 350.211045 160.634386 
L 351.74051 151.840191 
L 353.269976 140.470524 
L 354.799441 144.288524 
L 356.328907 142.040865 
L 357.858372 143.767652 
L 359.387838 144.143154 
L 360.917303 140.927125 
L 362.446769 159.771744 
L 363.976234 160.83813 
L 365.5057 171.193114 
L 367.035165 164.800079 
L 368.564631 164.701882 
L 368.564631 164.701882 
" clip-path="url(#p8ad1cbd030)" style="fill: none; stroke: #d62728; stroke-width: 1.5; stroke-linecap: square"/>
   </g>
  </g>
 </g>
 <defs>
  <clipPath id="p8ad1cbd030">
   <rect x="48.982813" y="7.2" width="334.8" height="221.76"/>
  </clipPath>
 </defs>
</svg>
