<?xml version="1.0" encoding="UTF-8" standalone="no"?>
<!DOCTYPE svg PUBLIC "-//W3C//DTD SVG 1.1//EN"
 "http://www.w3.org/Graphics/SVG/1.1/DTD/svg11.dtd">
<!-- Generated by graphviz version 2.43.0 (0)
 -->
<!-- Title: %3 Pages: 1 -->
<svg width="544pt" height="258pt"
 viewBox="0.00 0.00 543.50 258.05" xmlns="http://www.w3.org/2000/svg" xmlns:xlink="http://www.w3.org/1999/xlink">
<g id="graph0" class="graph" transform="scale(1 1) rotate(0) translate(4 254.05)">
<title>%3</title>
<polygon fill="white" stroke="transparent" points="-4,4 -4,-254.05 539.5,-254.05 539.5,4 -4,4"/>
<!-- 93dcad0846b3439fb151e00952937040 -->
<g id="node1" class="node">
<title>93dcad0846b3439fb151e00952937040</title>
<polygon fill="none" stroke="black" points="217,-250.05 0,-250.05 0,-227.05 217,-227.05 217,-250.05"/>
<text text-anchor="middle" x="108.5" y="-234.85" font-family="Times,serif" font-size="14.00">Widget &lt;Checkboxes: dict&gt;</text>
</g>
<!-- 09e62c41e2ea4719980aa01c9b68ab85 -->
<g id="node2" class="node">
<title>09e62c41e2ea4719980aa01c9b68ab85</title>
<polygon fill="none" stroke="black" points="329.5,-176.05 91.5,-176.05 91.5,-153.05 329.5,-153.05 329.5,-176.05"/>
<text text-anchor="middle" x="210.5" y="-160.85" font-family="Times,serif" font-size="14.00">hide_masks(data_array, masks)</text>
</g>
<!-- 93dcad0846b3439fb151e00952937040&#45;&gt;09e62c41e2ea4719980aa01c9b68ab85 -->
<g id="edge1" class="edge">
<title>93dcad0846b3439fb151e00952937040&#45;&gt;09e62c41e2ea4719980aa01c9b68ab85</title>
<path fill="none" stroke="black" d="M123.55,-226.93C140.27,-215.13 167.49,-195.91 187.02,-182.13"/>
<polygon fill="black" stroke="black" points="189.24,-184.85 195.39,-176.22 185.2,-179.13 189.24,-184.85"/>
<text text-anchor="middle" x="192.5" y="-197.85" font-family="Times,serif" font-size="14.00">masks</text>
</g>
<!-- 75c2c83d9b23450db8d171c48d9ff44a -->
<g id="node3" class="node">
<title>75c2c83d9b23450db8d171c48d9ff44a</title>
<polygon fill="none" stroke="black" points="499.5,-97.29 337.5,-97.29 337.5,-74.29 499.5,-74.29 499.5,-97.29"/>
<text text-anchor="middle" x="418.5" y="-82.09" font-family="Times,serif" font-size="14.00">slice_y(arg_0, index)</text>
</g>
<!-- 09e62c41e2ea4719980aa01c9b68ab85&#45;&gt;75c2c83d9b23450db8d171c48d9ff44a -->
<g id="edge2" class="edge">
<title>09e62c41e2ea4719980aa01c9b68ab85&#45;&gt;75c2c83d9b23450db8d171c48d9ff44a</title>
<path fill="none" stroke="black" d="M238.99,-153.04C275.68,-139.5 339.59,-115.91 380.42,-100.84"/>
<polygon fill="black" stroke="black" points="381.86,-104.04 390.03,-97.3 379.43,-97.48 381.86,-104.04"/>
<text text-anchor="middle" x="346.5" y="-123.85" font-family="Times,serif" font-size="14.00">arg_0</text>
</g>
<!-- 4244d01a205e4536aef8851204078c2b -->
<g id="node7" class="node">
<title>4244d01a205e4536aef8851204078c2b</title>
<ellipse fill="lightgrey" stroke="lightgrey" cx="210.5" cy="-85.79" rx="84.71" ry="16.03"/>
<text text-anchor="middle" x="210.5" y="-82.09" font-family="Times,serif" font-size="14.00">GraphicalView</text>
</g>
<!-- 09e62c41e2ea4719980aa01c9b68ab85&#45;&gt;4244d01a205e4536aef8851204078c2b -->
<g id="edge3" class="edge">
<title>09e62c41e2ea4719980aa01c9b68ab85&#45;&gt;4244d01a205e4536aef8851204078c2b</title>
<path fill="none" stroke="black" d="M210.5,-152.88C210.5,-142.48 210.5,-126.26 210.5,-112.5"/>
<polygon fill="black" stroke="black" points="214,-112.14 210.5,-102.14 207,-112.14 214,-112.14"/>
</g>
<!-- 6ac186abaa214579ac355b54f82bebdf -->
<g id="node6" class="node">
<title>6ac186abaa214579ac355b54f82bebdf</title>
<ellipse fill="lightgrey" stroke="lightgrey" cx="418.5" cy="-16.26" rx="84.71" ry="16.03"/>
<text text-anchor="middle" x="418.5" y="-12.56" font-family="Times,serif" font-size="14.00">GraphicalView</text>
</g>
<!-- 75c2c83d9b23450db8d171c48d9ff44a&#45;&gt;6ac186abaa214579ac355b54f82bebdf -->
<g id="edge5" class="edge">
<title>75c2c83d9b23450db8d171c48d9ff44a&#45;&gt;6ac186abaa214579ac355b54f82bebdf</title>
<path fill="none" stroke="black" d="M418.5,-74.24C418.5,-65.89 418.5,-53.88 418.5,-43.03"/>
<polygon fill="black" stroke="black" points="422,-42.76 418.5,-32.76 415,-42.76 422,-42.76"/>
</g>
<!-- 8be9133b194f4a1397f44f6a3d73a5ad -->
<g id="node4" class="node">
<title>8be9133b194f4a1397f44f6a3d73a5ad</title>
<polygon fill="none" stroke="black" points="535.5,-176.05 347.5,-176.05 347.5,-153.05 535.5,-153.05 535.5,-176.05"/>
<text text-anchor="middle" x="441.5" y="-160.85" font-family="Times,serif" font-size="14.00">Widget &lt;IntSlider: int&gt;</text>
</g>
<!-- 8be9133b194f4a1397f44f6a3d73a5ad&#45;&gt;75c2c83d9b23450db8d171c48d9ff44a -->
<g id="edge4" class="edge">
<title>8be9133b194f4a1397f44f6a3d73a5ad&#45;&gt;75c2c83d9b23450db8d171c48d9ff44a</title>
<path fill="none" stroke="black" d="M438.3,-152.88C434.77,-141.08 428.99,-121.79 424.58,-107.09"/>
<polygon fill="black" stroke="black" points="427.89,-105.95 421.67,-97.37 421.19,-107.96 427.89,-105.95"/>
<text text-anchor="middle" x="452.5" y="-123.85" font-family="Times,serif" font-size="14.00">index</text>
</g>
<!-- 4fab3cbb5b534db5a1c2fab5a8239d35 -->
<g id="node5" class="node">
<title>4fab3cbb5b534db5a1c2fab5a8239d35</title>
<polygon fill="none" stroke="black" points="392,-250.05 235,-250.05 235,-227.05 392,-227.05 392,-250.05"/>
<text text-anchor="middle" x="313.5" y="-234.85" font-family="Times,serif" font-size="14.00">Input &lt;DataArray&gt;</text>
</g>
<!-- 4fab3cbb5b534db5a1c2fab5a8239d35&#45;&gt;09e62c41e2ea4719980aa01c9b68ab85 -->
<g id="edge6" class="edge">
<title>4fab3cbb5b534db5a1c2fab5a8239d35&#45;&gt;09e62c41e2ea4719980aa01c9b68ab85</title>
<path fill="none" stroke="black" d="M298.3,-226.93C281.41,-215.13 253.93,-195.91 234.21,-182.13"/>
<polygon fill="black" stroke="black" points="235.96,-179.08 225.76,-176.22 231.95,-184.82 235.96,-179.08"/>
<text text-anchor="middle" x="309" y="-197.85" font-family="Times,serif" font-size="14.00">data_array</text>
</g>
</g>
</svg>
