<?xml version="1.0" encoding="utf-8" standalone="no"?>
<!DOCTYPE svg PUBLIC "-//W3C//DTD SVG 1.1//EN"
  "http://www.w3.org/Graphics/SVG/1.1/DTD/svg11.dtd">
<svg xmlns:xlink="http://www.w3.org/1999/xlink" width="424.54623pt" height="279.99625pt" viewBox="0 0 424.54623 279.99625" xmlns="http://www.w3.org/2000/svg" version="1.1">
 <metadata>
  <rdf:RDF xmlns:dc="http://purl.org/dc/elements/1.1/" xmlns:cc="http://creativecommons.org/ns#" xmlns:rdf="http://www.w3.org/1999/02/22-rdf-syntax-ns#">
   <cc:Work>
    <dc:type rdf:resource="http://purl.org/dc/dcmitype/StillImage"/>
    <dc:date>2024-06-18T09:51:51.267174</dc:date>
    <dc:format>image/svg+xml</dc:format>
    <dc:creator>
     <cc:Agent>
      <dc:title>Matplotlib v3.9.0, https://matplotlib.org/</dc:title>
     </cc:Agent>
    </dc:creator>
   </cc:Work>
  </rdf:RDF>
 </metadata>
 <defs>
  <style type="text/css">*{stroke-linejoin: round; stroke-linecap: butt}</style>
 </defs>
 <g id="figure_1">
  <g id="patch_1">
   <path d="M 0 279.99625 
L 424.54623 279.99625 
L 424.54623 0 
L 0 0 
z
" style="fill: #ffffff"/>
  </g>
  <g id="axes_1">
   <g id="patch_2">
    <path d="M 58.523438 242.44 
L 407.401848 242.44 
L 407.401848 7.2 
L 58.523438 7.2 
z
" style="fill: #ffffff"/>
   </g>
   <g id="matplotlib.axis_1">
    <g id="xtick_1">
     <g id="line2d_1">
      <defs>
       <path id="m3e98e26075" d="M 0 0 
L 0 3.5 
" style="stroke: #000000; stroke-width: 0.8"/>
      </defs>
      <g>
       <use xlink:href="#m3e98e26075" x="74.381547" y="242.44" style="stroke: #000000; stroke-width: 0.8"/>
      </g>
     </g>
     <g id="text_1">
      <!-- 0 -->
      <g transform="translate(71.200297 257.038437) scale(0.1 -0.1)">
       <defs>
        <path id="DejaVuSans-30" d="M 2034 4250 
Q 1547 4250 1301 3770 
Q 1056 3291 1056 2328 
Q 1056 1369 1301 889 
Q 1547 409 2034 409 
Q 2525 409 2770 889 
Q 3016 1369 3016 2328 
Q 3016 3291 2770 3770 
Q 2525 4250 2034 4250 
z
M 2034 4750 
Q 2819 4750 3233 4129 
Q 3647 3509 3647 2328 
Q 3647 1150 3233 529 
Q 2819 -91 2034 -91 
Q 1250 -91 836 529 
Q 422 1150 422 2328 
Q 422 3509 836 4129 
Q 1250 4750 2034 4750 
z
" transform="scale(0.015625)"/>
       </defs>
       <use xlink:href="#DejaVuSans-30"/>
      </g>
     </g>
    </g>
    <g id="xtick_2">
     <g id="line2d_2">
      <g>
       <use xlink:href="#m3e98e26075" x="140.429484" y="242.44" style="stroke: #000000; stroke-width: 0.8"/>
      </g>
     </g>
     <g id="text_2">
      <!-- 500 -->
      <g transform="translate(130.885734 257.038437) scale(0.1 -0.1)">
       <defs>
        <path id="DejaVuSans-35" d="M 691 4666 
L 3169 4666 
L 3169 4134 
L 1269 4134 
L 1269 2991 
Q 1406 3038 1543 3061 
Q 1681 3084 1819 3084 
Q 2600 3084 3056 2656 
Q 3513 2228 3513 1497 
Q 3513 744 3044 326 
Q 2575 -91 1722 -91 
Q 1428 -91 1123 -41 
Q 819 9 494 109 
L 494 744 
Q 775 591 1075 516 
Q 1375 441 1709 441 
Q 2250 441 2565 725 
Q 2881 1009 2881 1497 
Q 2881 1984 2565 2268 
Q 2250 2553 1709 2553 
Q 1456 2553 1204 2497 
Q 953 2441 691 2322 
L 691 4666 
z
" transform="scale(0.015625)"/>
       </defs>
       <use xlink:href="#DejaVuSans-35"/>
       <use xlink:href="#DejaVuSans-30" x="63.623047"/>
       <use xlink:href="#DejaVuSans-30" x="127.246094"/>
      </g>
     </g>
    </g>
    <g id="xtick_3">
     <g id="line2d_3">
      <g>
       <use xlink:href="#m3e98e26075" x="206.47742" y="242.44" style="stroke: #000000; stroke-width: 0.8"/>
      </g>
     </g>
     <g id="text_3">
      <!-- 1000 -->
      <g transform="translate(193.75242 257.038437) scale(0.1 -0.1)">
       <defs>
        <path id="DejaVuSans-31" d="M 794 531 
L 1825 531 
L 1825 4091 
L 703 3866 
L 703 4441 
L 1819 4666 
L 2450 4666 
L 2450 531 
L 3481 531 
L 3481 0 
L 794 0 
L 794 531 
z
" transform="scale(0.015625)"/>
       </defs>
       <use xlink:href="#DejaVuSans-31"/>
       <use xlink:href="#DejaVuSans-30" x="63.623047"/>
       <use xlink:href="#DejaVuSans-30" x="127.246094"/>
       <use xlink:href="#DejaVuSans-30" x="190.869141"/>
      </g>
     </g>
    </g>
    <g id="xtick_4">
     <g id="line2d_4">
      <g>
       <use xlink:href="#m3e98e26075" x="272.525357" y="242.44" style="stroke: #000000; stroke-width: 0.8"/>
      </g>
     </g>
     <g id="text_4">
      <!-- 1500 -->
      <g transform="translate(259.800357 257.038437) scale(0.1 -0.1)">
       <use xlink:href="#DejaVuSans-31"/>
       <use xlink:href="#DejaVuSans-35" x="63.623047"/>
       <use xlink:href="#DejaVuSans-30" x="127.246094"/>
       <use xlink:href="#DejaVuSans-30" x="190.869141"/>
      </g>
     </g>
    </g>
    <g id="xtick_5">
     <g id="line2d_5">
      <g>
       <use xlink:href="#m3e98e26075" x="338.573294" y="242.44" style="stroke: #000000; stroke-width: 0.8"/>
      </g>
     </g>
     <g id="text_5">
      <!-- 2000 -->
      <g transform="translate(325.848294 257.038437) scale(0.1 -0.1)">
       <defs>
        <path id="DejaVuSans-32" d="M 1228 531 
L 3431 531 
L 3431 0 
L 469 0 
L 469 531 
Q 828 903 1448 1529 
Q 2069 2156 2228 2338 
Q 2531 2678 2651 2914 
Q 2772 3150 2772 3378 
Q 2772 3750 2511 3984 
Q 2250 4219 1831 4219 
Q 1534 4219 1204 4116 
Q 875 4013 500 3803 
L 500 4441 
Q 881 4594 1212 4672 
Q 1544 4750 1819 4750 
Q 2544 4750 2975 4387 
Q 3406 4025 3406 3419 
Q 3406 3131 3298 2873 
Q 3191 2616 2906 2266 
Q 2828 2175 2409 1742 
Q 1991 1309 1228 531 
z
" transform="scale(0.015625)"/>
       </defs>
       <use xlink:href="#DejaVuSans-32"/>
       <use xlink:href="#DejaVuSans-30" x="63.623047"/>
       <use xlink:href="#DejaVuSans-30" x="127.246094"/>
       <use xlink:href="#DejaVuSans-30" x="190.869141"/>
      </g>
     </g>
    </g>
    <g id="xtick_6">
     <g id="line2d_6">
      <g>
       <use xlink:href="#m3e98e26075" x="404.62123" y="242.44" style="stroke: #000000; stroke-width: 0.8"/>
      </g>
     </g>
     <g id="text_6">
      <!-- 2500 -->
      <g transform="translate(391.89623 257.038437) scale(0.1 -0.1)">
       <use xlink:href="#DejaVuSans-32"/>
       <use xlink:href="#DejaVuSans-35" x="63.623047"/>
       <use xlink:href="#DejaVuSans-30" x="127.246094"/>
       <use xlink:href="#DejaVuSans-30" x="190.869141"/>
      </g>
     </g>
    </g>
    <g id="text_7">
     <!-- x2 [m^2] -->
     <g transform="translate(209.089987 270.716562) scale(0.1 -0.1)">
      <defs>
       <path id="DejaVuSans-78" d="M 3513 3500 
L 2247 1797 
L 3578 0 
L 2900 0 
L 1881 1375 
L 863 0 
L 184 0 
L 1544 1831 
L 300 3500 
L 978 3500 
L 1906 2253 
L 2834 3500 
L 3513 3500 
z
" transform="scale(0.015625)"/>
       <path id="DejaVuSans-20" transform="scale(0.015625)"/>
       <path id="DejaVuSans-5b" d="M 550 4863 
L 1875 4863 
L 1875 4416 
L 1125 4416 
L 1125 -397 
L 1875 -397 
L 1875 -844 
L 550 -844 
L 550 4863 
z
" transform="scale(0.015625)"/>
       <path id="DejaVuSans-6d" d="M 3328 2828 
Q 3544 3216 3844 3400 
Q 4144 3584 4550 3584 
Q 5097 3584 5394 3201 
Q 5691 2819 5691 2113 
L 5691 0 
L 5113 0 
L 5113 2094 
Q 5113 2597 4934 2840 
Q 4756 3084 4391 3084 
Q 3944 3084 3684 2787 
Q 3425 2491 3425 1978 
L 3425 0 
L 2847 0 
L 2847 2094 
Q 2847 2600 2669 2842 
Q 2491 3084 2119 3084 
Q 1678 3084 1418 2786 
Q 1159 2488 1159 1978 
L 1159 0 
L 581 0 
L 581 3500 
L 1159 3500 
L 1159 2956 
Q 1356 3278 1631 3431 
Q 1906 3584 2284 3584 
Q 2666 3584 2933 3390 
Q 3200 3197 3328 2828 
z
" transform="scale(0.015625)"/>
       <path id="DejaVuSans-5e" d="M 2988 4666 
L 4684 2925 
L 4056 2925 
L 2681 4159 
L 1306 2925 
L 678 2925 
L 2375 4666 
L 2988 4666 
z
" transform="scale(0.015625)"/>
       <path id="DejaVuSans-5d" d="M 1947 4863 
L 1947 -844 
L 622 -844 
L 622 -397 
L 1369 -397 
L 1369 4416 
L 622 4416 
L 622 4863 
L 1947 4863 
z
" transform="scale(0.015625)"/>
      </defs>
      <use xlink:href="#DejaVuSans-78"/>
      <use xlink:href="#DejaVuSans-32" x="59.179688"/>
      <use xlink:href="#DejaVuSans-20" x="122.802734"/>
      <use xlink:href="#DejaVuSans-5b" x="154.589844"/>
      <use xlink:href="#DejaVuSans-6d" x="193.603516"/>
      <use xlink:href="#DejaVuSans-5e" x="291.015625"/>
      <use xlink:href="#DejaVuSans-32" x="374.804688"/>
      <use xlink:href="#DejaVuSans-5d" x="438.427734"/>
     </g>
    </g>
   </g>
   <g id="matplotlib.axis_2">
    <g id="ytick_1">
     <g id="line2d_7">
      <defs>
       <path id="mdff608bd35" d="M 0 0 
L -3.5 0 
" style="stroke: #000000; stroke-width: 0.8"/>
      </defs>
      <g>
       <use xlink:href="#mdff608bd35" x="58.523438" y="232.158256" style="stroke: #000000; stroke-width: 0.8"/>
      </g>
     </g>
     <g id="text_8">
      <!-- −1.00 -->
      <g transform="translate(20.878125 235.957475) scale(0.1 -0.1)">
       <defs>
        <path id="DejaVuSans-2212" d="M 678 2272 
L 4684 2272 
L 4684 1741 
L 678 1741 
L 678 2272 
z
" transform="scale(0.015625)"/>
        <path id="DejaVuSans-2e" d="M 684 794 
L 1344 794 
L 1344 0 
L 684 0 
L 684 794 
z
" transform="scale(0.015625)"/>
       </defs>
       <use xlink:href="#DejaVuSans-2212"/>
       <use xlink:href="#DejaVuSans-31" x="83.789062"/>
       <use xlink:href="#DejaVuSans-2e" x="147.412109"/>
       <use xlink:href="#DejaVuSans-30" x="179.199219"/>
       <use xlink:href="#DejaVuSans-30" x="242.822266"/>
      </g>
     </g>
    </g>
    <g id="ytick_2">
     <g id="line2d_8">
      <g>
       <use xlink:href="#mdff608bd35" x="58.523438" y="205.369354" style="stroke: #000000; stroke-width: 0.8"/>
      </g>
     </g>
     <g id="text_9">
      <!-- −0.75 -->
      <g transform="translate(20.878125 209.168573) scale(0.1 -0.1)">
       <defs>
        <path id="DejaVuSans-37" d="M 525 4666 
L 3525 4666 
L 3525 4397 
L 1831 0 
L 1172 0 
L 2766 4134 
L 525 4134 
L 525 4666 
z
" transform="scale(0.015625)"/>
       </defs>
       <use xlink:href="#DejaVuSans-2212"/>
       <use xlink:href="#DejaVuSans-30" x="83.789062"/>
       <use xlink:href="#DejaVuSans-2e" x="147.412109"/>
       <use xlink:href="#DejaVuSans-37" x="179.199219"/>
       <use xlink:href="#DejaVuSans-35" x="242.822266"/>
      </g>
     </g>
    </g>
    <g id="ytick_3">
     <g id="line2d_9">
      <g>
       <use xlink:href="#mdff608bd35" x="58.523438" y="178.580451" style="stroke: #000000; stroke-width: 0.8"/>
      </g>
     </g>
     <g id="text_10">
      <!-- −0.50 -->
      <g transform="translate(20.878125 182.37967) scale(0.1 -0.1)">
       <use xlink:href="#DejaVuSans-2212"/>
       <use xlink:href="#DejaVuSans-30" x="83.789062"/>
       <use xlink:href="#DejaVuSans-2e" x="147.412109"/>
       <use xlink:href="#DejaVuSans-35" x="179.199219"/>
       <use xlink:href="#DejaVuSans-30" x="242.822266"/>
      </g>
     </g>
    </g>
    <g id="ytick_4">
     <g id="line2d_10">
      <g>
       <use xlink:href="#mdff608bd35" x="58.523438" y="151.791549" style="stroke: #000000; stroke-width: 0.8"/>
      </g>
     </g>
     <g id="text_11">
      <!-- −0.25 -->
      <g transform="translate(20.878125 155.590768) scale(0.1 -0.1)">
       <use xlink:href="#DejaVuSans-2212"/>
       <use xlink:href="#DejaVuSans-30" x="83.789062"/>
       <use xlink:href="#DejaVuSans-2e" x="147.412109"/>
       <use xlink:href="#DejaVuSans-32" x="179.199219"/>
       <use xlink:href="#DejaVuSans-35" x="242.822266"/>
      </g>
     </g>
    </g>
    <g id="ytick_5">
     <g id="line2d_11">
      <g>
       <use xlink:href="#mdff608bd35" x="58.523438" y="125.002646" style="stroke: #000000; stroke-width: 0.8"/>
      </g>
     </g>
     <g id="text_12">
      <!-- 0.00 -->
      <g transform="translate(29.257813 128.801865) scale(0.1 -0.1)">
       <use xlink:href="#DejaVuSans-30"/>
       <use xlink:href="#DejaVuSans-2e" x="63.623047"/>
       <use xlink:href="#DejaVuSans-30" x="95.410156"/>
       <use xlink:href="#DejaVuSans-30" x="159.033203"/>
      </g>
     </g>
    </g>
    <g id="ytick_6">
     <g id="line2d_12">
      <g>
       <use xlink:href="#mdff608bd35" x="58.523438" y="98.213744" style="stroke: #000000; stroke-width: 0.8"/>
      </g>
     </g>
     <g id="text_13">
      <!-- 0.25 -->
      <g transform="translate(29.257813 102.012963) scale(0.1 -0.1)">
       <use xlink:href="#DejaVuSans-30"/>
       <use xlink:href="#DejaVuSans-2e" x="63.623047"/>
       <use xlink:href="#DejaVuSans-32" x="95.410156"/>
       <use xlink:href="#DejaVuSans-35" x="159.033203"/>
      </g>
     </g>
    </g>
    <g id="ytick_7">
     <g id="line2d_13">
      <g>
       <use xlink:href="#mdff608bd35" x="58.523438" y="71.424841" style="stroke: #000000; stroke-width: 0.8"/>
      </g>
     </g>
     <g id="text_14">
      <!-- 0.50 -->
      <g transform="translate(29.257813 75.22406) scale(0.1 -0.1)">
       <use xlink:href="#DejaVuSans-30"/>
       <use xlink:href="#DejaVuSans-2e" x="63.623047"/>
       <use xlink:href="#DejaVuSans-35" x="95.410156"/>
       <use xlink:href="#DejaVuSans-30" x="159.033203"/>
      </g>
     </g>
    </g>
    <g id="ytick_8">
     <g id="line2d_14">
      <g>
       <use xlink:href="#mdff608bd35" x="58.523438" y="44.635939" style="stroke: #000000; stroke-width: 0.8"/>
      </g>
     </g>
     <g id="text_15">
      <!-- 0.75 -->
      <g transform="translate(29.257813 48.435158) scale(0.1 -0.1)">
       <use xlink:href="#DejaVuSans-30"/>
       <use xlink:href="#DejaVuSans-2e" x="63.623047"/>
       <use xlink:href="#DejaVuSans-37" x="95.410156"/>
       <use xlink:href="#DejaVuSans-35" x="159.033203"/>
      </g>
     </g>
    </g>
    <g id="ytick_9">
     <g id="line2d_15">
      <g>
       <use xlink:href="#mdff608bd35" x="58.523438" y="17.847036" style="stroke: #000000; stroke-width: 0.8"/>
      </g>
     </g>
     <g id="text_16">
      <!-- 1.00 -->
      <g transform="translate(29.257813 21.646255) scale(0.1 -0.1)">
       <use xlink:href="#DejaVuSans-31"/>
       <use xlink:href="#DejaVuSans-2e" x="63.623047"/>
       <use xlink:href="#DejaVuSans-30" x="95.410156"/>
       <use xlink:href="#DejaVuSans-30" x="159.033203"/>
      </g>
     </g>
    </g>
    <g id="text_17">
     <!-- [m/s] -->
     <g transform="translate(14.798438 137.880937) rotate(-90) scale(0.1 -0.1)">
      <defs>
       <path id="DejaVuSans-2f" d="M 1625 4666 
L 2156 4666 
L 531 -594 
L 0 -594 
L 1625 4666 
z
" transform="scale(0.015625)"/>
       <path id="DejaVuSans-73" d="M 2834 3397 
L 2834 2853 
Q 2591 2978 2328 3040 
Q 2066 3103 1784 3103 
Q 1356 3103 1142 2972 
Q 928 2841 928 2578 
Q 928 2378 1081 2264 
Q 1234 2150 1697 2047 
L 1894 2003 
Q 2506 1872 2764 1633 
Q 3022 1394 3022 966 
Q 3022 478 2636 193 
Q 2250 -91 1575 -91 
Q 1294 -91 989 -36 
Q 684 19 347 128 
L 347 722 
Q 666 556 975 473 
Q 1284 391 1588 391 
Q 1994 391 2212 530 
Q 2431 669 2431 922 
Q 2431 1156 2273 1281 
Q 2116 1406 1581 1522 
L 1381 1569 
Q 847 1681 609 1914 
Q 372 2147 372 2553 
Q 372 3047 722 3315 
Q 1072 3584 1716 3584 
Q 2034 3584 2315 3537 
Q 2597 3491 2834 3397 
z
" transform="scale(0.015625)"/>
      </defs>
      <use xlink:href="#DejaVuSans-5b"/>
      <use xlink:href="#DejaVuSans-6d" x="39.013672"/>
      <use xlink:href="#DejaVuSans-2f" x="136.425781"/>
      <use xlink:href="#DejaVuSans-73" x="170.117188"/>
      <use xlink:href="#DejaVuSans-5d" x="222.216797"/>
     </g>
    </g>
   </g>
   <g id="patch_3">
    <path d="M 58.523438 242.44 
L 58.523438 7.2 
" style="fill: none; stroke: #000000; stroke-width: 0.8; stroke-linejoin: miter; stroke-linecap: square"/>
   </g>
   <g id="patch_4">
    <path d="M 407.401848 242.44 
L 407.401848 7.2 
" style="fill: none; stroke: #000000; stroke-width: 0.8; stroke-linejoin: miter; stroke-linecap: square"/>
   </g>
   <g id="patch_5">
    <path d="M 58.523438 242.44 
L 407.401848 242.44 
" style="fill: none; stroke: #000000; stroke-width: 0.8; stroke-linejoin: miter; stroke-linecap: square"/>
   </g>
   <g id="patch_6">
    <path d="M 58.523438 7.2 
L 407.401848 7.2 
" style="fill: none; stroke: #000000; stroke-width: 0.8; stroke-linejoin: miter; stroke-linecap: square"/>
   </g>
   <g id="line2d_16">
    <defs>
     <path id="mbdd3ae9f75" d="M 0 3 
C 0.795609 3 1.55874 2.683901 2.12132 2.12132 
C 2.683901 1.55874 3 0.795609 3 0 
C 3 -0.795609 2.683901 -1.55874 2.12132 -2.12132 
C 1.55874 -2.683901 0.795609 -3 0 -3 
C -0.795609 -3 -1.55874 -2.683901 -2.12132 -2.12132 
C -2.683901 -1.55874 -3 -0.795609 -3 0 
C -3 0.795609 -2.683901 1.55874 -2.12132 2.12132 
C -1.55874 2.683901 -0.795609 3 0 3 
z
" style="stroke: #1f77b4"/>
    </defs>
    <g clip-path="url(#pd87baed2c4)">
     <use xlink:href="#mbdd3ae9f75" x="74.381547" y="125.002646" style="fill: #1f77b4; stroke: #1f77b4"/>
     <use xlink:href="#mbdd3ae9f75" x="74.513643" y="103.714113" style="fill: #1f77b4; stroke: #1f77b4"/>
     <use xlink:href="#mbdd3ae9f75" x="74.909931" y="83.274286" style="fill: #1f77b4; stroke: #1f77b4"/>
     <use xlink:href="#mbdd3ae9f75" x="75.57041" y="64.498038" style="fill: #1f77b4; stroke: #1f77b4"/>
     <use xlink:href="#mbdd3ae9f75" x="76.495081" y="48.133917" style="fill: #1f77b4; stroke: #1f77b4"/>
     <use xlink:href="#mbdd3ae9f75" x="77.683944" y="34.83431" style="fill: #1f77b4; stroke: #1f77b4"/>
     <use xlink:href="#mbdd3ae9f75" x="79.136999" y="25.12943" style="fill: #1f77b4; stroke: #1f77b4"/>
     <use xlink:href="#mbdd3ae9f75" x="80.854245" y="19.40618" style="fill: #1f77b4; stroke: #1f77b4"/>
     <use xlink:href="#mbdd3ae9f75" x="82.835683" y="17.892727" style="fill: #1f77b4; stroke: #1f77b4"/>
     <use xlink:href="#mbdd3ae9f75" x="85.081313" y="20.64941" style="fill: #1f77b4; stroke: #1f77b4"/>
     <use xlink:href="#mbdd3ae9f75" x="87.591134" y="27.566326" style="fill: #1f77b4; stroke: #1f77b4"/>
     <use xlink:href="#mbdd3ae9f75" x="90.365148" y="38.367721" style="fill: #1f77b4; stroke: #1f77b4"/>
     <use xlink:href="#mbdd3ae9f75" x="93.403353" y="52.622977" style="fill: #1f77b4; stroke: #1f77b4"/>
     <use xlink:href="#mbdd3ae9f75" x="96.70575" y="69.763782" style="fill: #1f77b4; stroke: #1f77b4"/>
     <use xlink:href="#mbdd3ae9f75" x="100.272338" y="89.106787" style="fill: #1f77b4; stroke: #1f77b4"/>
     <use xlink:href="#mbdd3ae9f75" x="104.103119" y="109.880846" style="fill: #1f77b4; stroke: #1f77b4"/>
     <use xlink:href="#mbdd3ae9f75" x="108.198091" y="131.257763" style="fill: #1f77b4; stroke: #1f77b4"/>
     <use xlink:href="#mbdd3ae9f75" x="112.557254" y="152.385309" style="fill: #1f77b4; stroke: #1f77b4"/>
     <use xlink:href="#mbdd3ae9f75" x="117.18061" y="172.421194" style="fill: #1f77b4; stroke: #1f77b4"/>
     <use xlink:href="#mbdd3ae9f75" x="122.068157" y="190.566652" style="fill: #1f77b4; stroke: #1f77b4"/>
     <use xlink:href="#mbdd3ae9f75" x="127.219896" y="206.098279" style="fill: #1f77b4; stroke: #1f77b4"/>
     <use xlink:href="#mbdd3ae9f75" x="132.635827" y="218.39688" style="fill: #1f77b4; stroke: #1f77b4"/>
     <use xlink:href="#mbdd3ae9f75" x="138.31595" y="226.972147" style="fill: #1f77b4; stroke: #1f77b4"/>
     <use xlink:href="#mbdd3ae9f75" x="144.260264" y="231.482212" style="fill: #1f77b4; stroke: #1f77b4"/>
     <use xlink:href="#mbdd3ae9f75" x="150.46877" y="231.747273" style="fill: #1f77b4; stroke: #1f77b4"/>
     <use xlink:href="#mbdd3ae9f75" x="156.941468" y="227.756762" style="fill: #1f77b4; stroke: #1f77b4"/>
     <use xlink:href="#mbdd3ae9f75" x="163.678357" y="219.669769" style="fill: #1f77b4; stroke: #1f77b4"/>
     <use xlink:href="#mbdd3ae9f75" x="170.679439" y="207.808696" style="fill: #1f77b4; stroke: #1f77b4"/>
     <use xlink:href="#mbdd3ae9f75" x="177.944712" y="192.646408" style="fill: #1f77b4; stroke: #1f77b4"/>
     <use xlink:href="#mbdd3ae9f75" x="185.474177" y="174.787376" style="fill: #1f77b4; stroke: #1f77b4"/>
     <use xlink:href="#mbdd3ae9f75" x="193.267833" y="154.943585" style="fill: #1f77b4; stroke: #1f77b4"/>
     <use xlink:href="#mbdd3ae9f75" x="201.325681" y="133.906142" style="fill: #1f77b4; stroke: #1f77b4"/>
     <use xlink:href="#mbdd3ae9f75" x="209.647721" y="112.513745" style="fill: #1f77b4; stroke: #1f77b4"/>
     <use xlink:href="#mbdd3ae9f75" x="218.233953" y="91.619242" style="fill: #1f77b4; stroke: #1f77b4"/>
     <use xlink:href="#mbdd3ae9f75" x="227.084377" y="72.055629" style="fill: #1f77b4; stroke: #1f77b4"/>
     <use xlink:href="#mbdd3ae9f75" x="236.198992" y="54.602847" style="fill: #1f77b4; stroke: #1f77b4"/>
     <use xlink:href="#mbdd3ae9f75" x="245.577799" y="39.956682" style="fill: #1f77b4; stroke: #1f77b4"/>
     <use xlink:href="#mbdd3ae9f75" x="255.220798" y="28.701032" style="fill: #1f77b4; stroke: #1f77b4"/>
     <use xlink:href="#mbdd3ae9f75" x="265.127988" y="21.284624" style="fill: #1f77b4; stroke: #1f77b4"/>
     <use xlink:href="#mbdd3ae9f75" x="275.29937" y="18.003125" style="fill: #1f77b4; stroke: #1f77b4"/>
     <use xlink:href="#mbdd3ae9f75" x="285.734944" y="18.98736" style="fill: #1f77b4; stroke: #1f77b4"/>
     <use xlink:href="#mbdd3ae9f75" x="296.43471" y="24.19809" style="fill: #1f77b4; stroke: #1f77b4"/>
     <use xlink:href="#mbdd3ae9f75" x="307.398668" y="33.427579" style="fill: #1f77b4; stroke: #1f77b4"/>
     <use xlink:href="#mbdd3ae9f75" x="318.626817" y="46.307877" style="fill: #1f77b4; stroke: #1f77b4"/>
     <use xlink:href="#mbdd3ae9f75" x="330.119158" y="62.325488" style="fill: #1f77b4; stroke: #1f77b4"/>
     <use xlink:href="#mbdd3ae9f75" x="341.87569" y="80.841839" style="fill: #1f77b4; stroke: #1f77b4"/>
     <use xlink:href="#mbdd3ae9f75" x="353.896415" y="101.118742" style="fill: #1f77b4; stroke: #1f77b4"/>
     <use xlink:href="#mbdd3ae9f75" x="366.181331" y="122.347821" style="fill: #1f77b4; stroke: #1f77b4"/>
     <use xlink:href="#mbdd3ae9f75" x="378.730439" y="143.682739" style="fill: #1f77b4; stroke: #1f77b4"/>
     <use xlink:href="#mbdd3ae9f75" x="391.543739" y="164.272941" style="fill: #1f77b4; stroke: #1f77b4"/>
    </g>
   </g>
  </g>
 </g>
 <defs>
  <clipPath id="pd87baed2c4">
   <rect x="58.523438" y="7.2" width="348.878411" height="235.24"/>
  </clipPath>
 </defs>
</svg>
