<?xml version="1.0" encoding="utf-8" standalone="no"?>
<!DOCTYPE svg PUBLIC "-//W3C//DTD SVG 1.1//EN"
  "http://www.w3.org/Graphics/SVG/1.1/DTD/svg11.dtd">
<svg xmlns:xlink="http://www.w3.org/1999/xlink" width="424.405625pt" height="279.649127pt" viewBox="0 0 424.405625 279.649127" xmlns="http://www.w3.org/2000/svg" version="1.1">
 <metadata>
  <rdf:RDF xmlns:dc="http://purl.org/dc/elements/1.1/" xmlns:cc="http://creativecommons.org/ns#" xmlns:rdf="http://www.w3.org/1999/02/22-rdf-syntax-ns#">
   <cc:Work>
    <dc:type rdf:resource="http://purl.org/dc/dcmitype/StillImage"/>
    <dc:date>2024-06-18T09:51:32.302256</dc:date>
    <dc:format>image/svg+xml</dc:format>
    <dc:creator>
     <cc:Agent>
      <dc:title>Matplotlib v3.9.0, https://matplotlib.org/</dc:title>
     </cc:Agent>
    </dc:creator>
   </cc:Work>
  </rdf:RDF>
 </metadata>
 <defs>
  <style type="text/css">*{stroke-linejoin: round; stroke-linecap: butt}</style>
 </defs>
 <g id="figure_1">
  <g id="patch_1">
   <path d="M -0 279.649127 
L 424.405625 279.649127 
L 424.405625 0 
L -0 0 
z
" style="fill: #ffffff"/>
  </g>
  <g id="axes_1">
   <g id="patch_2">
    <path d="M 46.965625 242.092877 
L 417.205625 242.092877 
L 417.205625 7.574076 
L 46.965625 7.574076 
z
" style="fill: #ffffff"/>
   </g>
   <g id="matplotlib.axis_1">
    <g id="xtick_1">
     <g id="line2d_1">
      <defs>
       <path id="m7f486c945e" d="M 0 0 
L 0 3.5 
" style="stroke: #000000; stroke-width: 0.8"/>
      </defs>
      <g>
       <use xlink:href="#m7f486c945e" x="63.794716" y="242.092877" style="stroke: #000000; stroke-width: 0.8"/>
      </g>
     </g>
     <g id="text_1">
      <!-- 0.00 -->
      <g transform="translate(52.661903 256.691314) scale(0.1 -0.1)">
       <defs>
        <path id="DejaVuSans-30" d="M 2034 4250 
Q 1547 4250 1301 3770 
Q 1056 3291 1056 2328 
Q 1056 1369 1301 889 
Q 1547 409 2034 409 
Q 2525 409 2770 889 
Q 3016 1369 3016 2328 
Q 3016 3291 2770 3770 
Q 2525 4250 2034 4250 
z
M 2034 4750 
Q 2819 4750 3233 4129 
Q 3647 3509 3647 2328 
Q 3647 1150 3233 529 
Q 2819 -91 2034 -91 
Q 1250 -91 836 529 
Q 422 1150 422 2328 
Q 422 3509 836 4129 
Q 1250 4750 2034 4750 
z
" transform="scale(0.015625)"/>
        <path id="DejaVuSans-2e" d="M 684 794 
L 1344 794 
L 1344 0 
L 684 0 
L 684 794 
z
" transform="scale(0.015625)"/>
       </defs>
       <use xlink:href="#DejaVuSans-30"/>
       <use xlink:href="#DejaVuSans-2e" x="63.623047"/>
       <use xlink:href="#DejaVuSans-30" x="95.410156"/>
       <use xlink:href="#DejaVuSans-30" x="159.033203"/>
      </g>
     </g>
    </g>
    <g id="xtick_2">
     <g id="line2d_2">
      <g>
       <use xlink:href="#m7f486c945e" x="105.867443" y="242.092877" style="stroke: #000000; stroke-width: 0.8"/>
      </g>
     </g>
     <g id="text_2">
      <!-- 0.25 -->
      <g transform="translate(94.734631 256.691314) scale(0.1 -0.1)">
       <defs>
        <path id="DejaVuSans-32" d="M 1228 531 
L 3431 531 
L 3431 0 
L 469 0 
L 469 531 
Q 828 903 1448 1529 
Q 2069 2156 2228 2338 
Q 2531 2678 2651 2914 
Q 2772 3150 2772 3378 
Q 2772 3750 2511 3984 
Q 2250 4219 1831 4219 
Q 1534 4219 1204 4116 
Q 875 4013 500 3803 
L 500 4441 
Q 881 4594 1212 4672 
Q 1544 4750 1819 4750 
Q 2544 4750 2975 4387 
Q 3406 4025 3406 3419 
Q 3406 3131 3298 2873 
Q 3191 2616 2906 2266 
Q 2828 2175 2409 1742 
Q 1991 1309 1228 531 
z
" transform="scale(0.015625)"/>
        <path id="DejaVuSans-35" d="M 691 4666 
L 3169 4666 
L 3169 4134 
L 1269 4134 
L 1269 2991 
Q 1406 3038 1543 3061 
Q 1681 3084 1819 3084 
Q 2600 3084 3056 2656 
Q 3513 2228 3513 1497 
Q 3513 744 3044 326 
Q 2575 -91 1722 -91 
Q 1428 -91 1123 -41 
Q 819 9 494 109 
L 494 744 
Q 775 591 1075 516 
Q 1375 441 1709 441 
Q 2250 441 2565 725 
Q 2881 1009 2881 1497 
Q 2881 1984 2565 2268 
Q 2250 2553 1709 2553 
Q 1456 2553 1204 2497 
Q 953 2441 691 2322 
L 691 4666 
z
" transform="scale(0.015625)"/>
       </defs>
       <use xlink:href="#DejaVuSans-30"/>
       <use xlink:href="#DejaVuSans-2e" x="63.623047"/>
       <use xlink:href="#DejaVuSans-32" x="95.410156"/>
       <use xlink:href="#DejaVuSans-35" x="159.033203"/>
      </g>
     </g>
    </g>
    <g id="xtick_3">
     <g id="line2d_3">
      <g>
       <use xlink:href="#m7f486c945e" x="147.94017" y="242.092877" style="stroke: #000000; stroke-width: 0.8"/>
      </g>
     </g>
     <g id="text_3">
      <!-- 0.50 -->
      <g transform="translate(136.807358 256.691314) scale(0.1 -0.1)">
       <use xlink:href="#DejaVuSans-30"/>
       <use xlink:href="#DejaVuSans-2e" x="63.623047"/>
       <use xlink:href="#DejaVuSans-35" x="95.410156"/>
       <use xlink:href="#DejaVuSans-30" x="159.033203"/>
      </g>
     </g>
    </g>
    <g id="xtick_4">
     <g id="line2d_4">
      <g>
       <use xlink:href="#m7f486c945e" x="190.012898" y="242.092877" style="stroke: #000000; stroke-width: 0.8"/>
      </g>
     </g>
     <g id="text_4">
      <!-- 0.75 -->
      <g transform="translate(178.880085 256.691314) scale(0.1 -0.1)">
       <defs>
        <path id="DejaVuSans-37" d="M 525 4666 
L 3525 4666 
L 3525 4397 
L 1831 0 
L 1172 0 
L 2766 4134 
L 525 4134 
L 525 4666 
z
" transform="scale(0.015625)"/>
       </defs>
       <use xlink:href="#DejaVuSans-30"/>
       <use xlink:href="#DejaVuSans-2e" x="63.623047"/>
       <use xlink:href="#DejaVuSans-37" x="95.410156"/>
       <use xlink:href="#DejaVuSans-35" x="159.033203"/>
      </g>
     </g>
    </g>
    <g id="xtick_5">
     <g id="line2d_5">
      <g>
       <use xlink:href="#m7f486c945e" x="232.085625" y="242.092877" style="stroke: #000000; stroke-width: 0.8"/>
      </g>
     </g>
     <g id="text_5">
      <!-- 1.00 -->
      <g transform="translate(220.952812 256.691314) scale(0.1 -0.1)">
       <defs>
        <path id="DejaVuSans-31" d="M 794 531 
L 1825 531 
L 1825 4091 
L 703 3866 
L 703 4441 
L 1819 4666 
L 2450 4666 
L 2450 531 
L 3481 531 
L 3481 0 
L 794 0 
L 794 531 
z
" transform="scale(0.015625)"/>
       </defs>
       <use xlink:href="#DejaVuSans-31"/>
       <use xlink:href="#DejaVuSans-2e" x="63.623047"/>
       <use xlink:href="#DejaVuSans-30" x="95.410156"/>
       <use xlink:href="#DejaVuSans-30" x="159.033203"/>
      </g>
     </g>
    </g>
    <g id="xtick_6">
     <g id="line2d_6">
      <g>
       <use xlink:href="#m7f486c945e" x="274.158352" y="242.092877" style="stroke: #000000; stroke-width: 0.8"/>
      </g>
     </g>
     <g id="text_6">
      <!-- 1.25 -->
      <g transform="translate(263.02554 256.691314) scale(0.1 -0.1)">
       <use xlink:href="#DejaVuSans-31"/>
       <use xlink:href="#DejaVuSans-2e" x="63.623047"/>
       <use xlink:href="#DejaVuSans-32" x="95.410156"/>
       <use xlink:href="#DejaVuSans-35" x="159.033203"/>
      </g>
     </g>
    </g>
    <g id="xtick_7">
     <g id="line2d_7">
      <g>
       <use xlink:href="#m7f486c945e" x="316.23108" y="242.092877" style="stroke: #000000; stroke-width: 0.8"/>
      </g>
     </g>
     <g id="text_7">
      <!-- 1.50 -->
      <g transform="translate(305.098267 256.691314) scale(0.1 -0.1)">
       <use xlink:href="#DejaVuSans-31"/>
       <use xlink:href="#DejaVuSans-2e" x="63.623047"/>
       <use xlink:href="#DejaVuSans-35" x="95.410156"/>
       <use xlink:href="#DejaVuSans-30" x="159.033203"/>
      </g>
     </g>
    </g>
    <g id="xtick_8">
     <g id="line2d_8">
      <g>
       <use xlink:href="#m7f486c945e" x="358.303807" y="242.092877" style="stroke: #000000; stroke-width: 0.8"/>
      </g>
     </g>
     <g id="text_8">
      <!-- 1.75 -->
      <g transform="translate(347.170994 256.691314) scale(0.1 -0.1)">
       <use xlink:href="#DejaVuSans-31"/>
       <use xlink:href="#DejaVuSans-2e" x="63.623047"/>
       <use xlink:href="#DejaVuSans-37" x="95.410156"/>
       <use xlink:href="#DejaVuSans-35" x="159.033203"/>
      </g>
     </g>
    </g>
    <g id="xtick_9">
     <g id="line2d_9">
      <g>
       <use xlink:href="#m7f486c945e" x="400.376534" y="242.092877" style="stroke: #000000; stroke-width: 0.8"/>
      </g>
     </g>
     <g id="text_9">
      <!-- 2.00 -->
      <g transform="translate(389.243722 256.691314) scale(0.1 -0.1)">
       <use xlink:href="#DejaVuSans-32"/>
       <use xlink:href="#DejaVuSans-2e" x="63.623047"/>
       <use xlink:href="#DejaVuSans-30" x="95.410156"/>
       <use xlink:href="#DejaVuSans-30" x="159.033203"/>
      </g>
     </g>
    </g>
    <g id="text_10">
     <!-- x [m] -->
     <g transform="translate(218.765312 270.369439) scale(0.1 -0.1)">
      <defs>
       <path id="DejaVuSans-78" d="M 3513 3500 
L 2247 1797 
L 3578 0 
L 2900 0 
L 1881 1375 
L 863 0 
L 184 0 
L 1544 1831 
L 300 3500 
L 978 3500 
L 1906 2253 
L 2834 3500 
L 3513 3500 
z
" transform="scale(0.015625)"/>
       <path id="DejaVuSans-20" transform="scale(0.015625)"/>
       <path id="DejaVuSans-5b" d="M 550 4863 
L 1875 4863 
L 1875 4416 
L 1125 4416 
L 1125 -397 
L 1875 -397 
L 1875 -844 
L 550 -844 
L 550 4863 
z
" transform="scale(0.015625)"/>
       <path id="DejaVuSans-6d" d="M 3328 2828 
Q 3544 3216 3844 3400 
Q 4144 3584 4550 3584 
Q 5097 3584 5394 3201 
Q 5691 2819 5691 2113 
L 5691 0 
L 5113 0 
L 5113 2094 
Q 5113 2597 4934 2840 
Q 4756 3084 4391 3084 
Q 3944 3084 3684 2787 
Q 3425 2491 3425 1978 
L 3425 0 
L 2847 0 
L 2847 2094 
Q 2847 2600 2669 2842 
Q 2491 3084 2119 3084 
Q 1678 3084 1418 2786 
Q 1159 2488 1159 1978 
L 1159 0 
L 581 0 
L 581 3500 
L 1159 3500 
L 1159 2956 
Q 1356 3278 1631 3431 
Q 1906 3584 2284 3584 
Q 2666 3584 2933 3390 
Q 3200 3197 3328 2828 
z
" transform="scale(0.015625)"/>
       <path id="DejaVuSans-5d" d="M 1947 4863 
L 1947 -844 
L 622 -844 
L 622 -397 
L 1369 -397 
L 1369 4416 
L 622 4416 
L 622 4863 
L 1947 4863 
z
" transform="scale(0.015625)"/>
      </defs>
      <use xlink:href="#DejaVuSans-78"/>
      <use xlink:href="#DejaVuSans-20" x="59.179688"/>
      <use xlink:href="#DejaVuSans-5b" x="90.966797"/>
      <use xlink:href="#DejaVuSans-6d" x="129.980469"/>
      <use xlink:href="#DejaVuSans-5d" x="227.392578"/>
     </g>
    </g>
   </g>
   <g id="matplotlib.axis_2">
    <g id="ytick_1">
     <g id="line2d_10">
      <defs>
       <path id="m5c7cc3bbcd" d="M 0 0 
L -3.5 0 
" style="stroke: #000000; stroke-width: 0.8"/>
      </defs>
      <g>
       <use xlink:href="#m5c7cc3bbcd" x="46.965625" y="225.02557" style="stroke: #000000; stroke-width: 0.8"/>
      </g>
     </g>
     <g id="text_11">
      <!-- 99 -->
      <g transform="translate(27.240625 228.824789) scale(0.1 -0.1)">
       <defs>
        <path id="DejaVuSans-39" d="M 703 97 
L 703 672 
Q 941 559 1184 500 
Q 1428 441 1663 441 
Q 2288 441 2617 861 
Q 2947 1281 2994 2138 
Q 2813 1869 2534 1725 
Q 2256 1581 1919 1581 
Q 1219 1581 811 2004 
Q 403 2428 403 3163 
Q 403 3881 828 4315 
Q 1253 4750 1959 4750 
Q 2769 4750 3195 4129 
Q 3622 3509 3622 2328 
Q 3622 1225 3098 567 
Q 2575 -91 1691 -91 
Q 1453 -91 1209 -44 
Q 966 3 703 97 
z
M 1959 2075 
Q 2384 2075 2632 2365 
Q 2881 2656 2881 3163 
Q 2881 3666 2632 3958 
Q 2384 4250 1959 4250 
Q 1534 4250 1286 3958 
Q 1038 3666 1038 3163 
Q 1038 2656 1286 2365 
Q 1534 2075 1959 2075 
z
" transform="scale(0.015625)"/>
       </defs>
       <use xlink:href="#DejaVuSans-39"/>
       <use xlink:href="#DejaVuSans-39" x="63.623047"/>
      </g>
     </g>
    </g>
    <g id="ytick_2">
     <g id="line2d_11">
      <g>
       <use xlink:href="#m5c7cc3bbcd" x="46.965625" y="194.450377" style="stroke: #000000; stroke-width: 0.8"/>
      </g>
     </g>
     <g id="text_12">
      <!-- 100 -->
      <g transform="translate(20.878125 198.249596) scale(0.1 -0.1)">
       <use xlink:href="#DejaVuSans-31"/>
       <use xlink:href="#DejaVuSans-30" x="63.623047"/>
       <use xlink:href="#DejaVuSans-30" x="127.246094"/>
      </g>
     </g>
    </g>
    <g id="ytick_3">
     <g id="line2d_12">
      <g>
       <use xlink:href="#m5c7cc3bbcd" x="46.965625" y="163.875184" style="stroke: #000000; stroke-width: 0.8"/>
      </g>
     </g>
     <g id="text_13">
      <!-- 101 -->
      <g transform="translate(20.878125 167.674403) scale(0.1 -0.1)">
       <use xlink:href="#DejaVuSans-31"/>
       <use xlink:href="#DejaVuSans-30" x="63.623047"/>
       <use xlink:href="#DejaVuSans-31" x="127.246094"/>
      </g>
     </g>
    </g>
    <g id="ytick_4">
     <g id="line2d_13">
      <g>
       <use xlink:href="#m5c7cc3bbcd" x="46.965625" y="133.299991" style="stroke: #000000; stroke-width: 0.8"/>
      </g>
     </g>
     <g id="text_14">
      <!-- 102 -->
      <g transform="translate(20.878125 137.09921) scale(0.1 -0.1)">
       <use xlink:href="#DejaVuSans-31"/>
       <use xlink:href="#DejaVuSans-30" x="63.623047"/>
       <use xlink:href="#DejaVuSans-32" x="127.246094"/>
      </g>
     </g>
    </g>
    <g id="ytick_5">
     <g id="line2d_14">
      <g>
       <use xlink:href="#m5c7cc3bbcd" x="46.965625" y="102.724798" style="stroke: #000000; stroke-width: 0.8"/>
      </g>
     </g>
     <g id="text_15">
      <!-- 103 -->
      <g transform="translate(20.878125 106.524017) scale(0.1 -0.1)">
       <defs>
        <path id="DejaVuSans-33" d="M 2597 2516 
Q 3050 2419 3304 2112 
Q 3559 1806 3559 1356 
Q 3559 666 3084 287 
Q 2609 -91 1734 -91 
Q 1441 -91 1130 -33 
Q 819 25 488 141 
L 488 750 
Q 750 597 1062 519 
Q 1375 441 1716 441 
Q 2309 441 2620 675 
Q 2931 909 2931 1356 
Q 2931 1769 2642 2001 
Q 2353 2234 1838 2234 
L 1294 2234 
L 1294 2753 
L 1863 2753 
Q 2328 2753 2575 2939 
Q 2822 3125 2822 3475 
Q 2822 3834 2567 4026 
Q 2313 4219 1838 4219 
Q 1578 4219 1281 4162 
Q 984 4106 628 3988 
L 628 4550 
Q 988 4650 1302 4700 
Q 1616 4750 1894 4750 
Q 2613 4750 3031 4423 
Q 3450 4097 3450 3541 
Q 3450 3153 3228 2886 
Q 3006 2619 2597 2516 
z
" transform="scale(0.015625)"/>
       </defs>
       <use xlink:href="#DejaVuSans-31"/>
       <use xlink:href="#DejaVuSans-30" x="63.623047"/>
       <use xlink:href="#DejaVuSans-33" x="127.246094"/>
      </g>
     </g>
    </g>
    <g id="ytick_6">
     <g id="line2d_15">
      <g>
       <use xlink:href="#m5c7cc3bbcd" x="46.965625" y="72.149605" style="stroke: #000000; stroke-width: 0.8"/>
      </g>
     </g>
     <g id="text_16">
      <!-- 104 -->
      <g transform="translate(20.878125 75.948824) scale(0.1 -0.1)">
       <defs>
        <path id="DejaVuSans-34" d="M 2419 4116 
L 825 1625 
L 2419 1625 
L 2419 4116 
z
M 2253 4666 
L 3047 4666 
L 3047 1625 
L 3713 1625 
L 3713 1100 
L 3047 1100 
L 3047 0 
L 2419 0 
L 2419 1100 
L 313 1100 
L 313 1709 
L 2253 4666 
z
" transform="scale(0.015625)"/>
       </defs>
       <use xlink:href="#DejaVuSans-31"/>
       <use xlink:href="#DejaVuSans-30" x="63.623047"/>
       <use xlink:href="#DejaVuSans-34" x="127.246094"/>
      </g>
     </g>
    </g>
    <g id="ytick_7">
     <g id="line2d_16">
      <g>
       <use xlink:href="#m5c7cc3bbcd" x="46.965625" y="41.574412" style="stroke: #000000; stroke-width: 0.8"/>
      </g>
     </g>
     <g id="text_17">
      <!-- 105 -->
      <g transform="translate(20.878125 45.373631) scale(0.1 -0.1)">
       <use xlink:href="#DejaVuSans-31"/>
       <use xlink:href="#DejaVuSans-30" x="63.623047"/>
       <use xlink:href="#DejaVuSans-35" x="127.246094"/>
      </g>
     </g>
    </g>
    <g id="ytick_8">
     <g id="line2d_17">
      <g>
       <use xlink:href="#m5c7cc3bbcd" x="46.965625" y="10.999219" style="stroke: #000000; stroke-width: 0.8"/>
      </g>
     </g>
     <g id="text_18">
      <!-- 106 -->
      <g transform="translate(20.878125 14.798437) scale(0.1 -0.1)">
       <defs>
        <path id="DejaVuSans-36" d="M 2113 2584 
Q 1688 2584 1439 2293 
Q 1191 2003 1191 1497 
Q 1191 994 1439 701 
Q 1688 409 2113 409 
Q 2538 409 2786 701 
Q 3034 994 3034 1497 
Q 3034 2003 2786 2293 
Q 2538 2584 2113 2584 
z
M 3366 4563 
L 3366 3988 
Q 3128 4100 2886 4159 
Q 2644 4219 2406 4219 
Q 1781 4219 1451 3797 
Q 1122 3375 1075 2522 
Q 1259 2794 1537 2939 
Q 1816 3084 2150 3084 
Q 2853 3084 3261 2657 
Q 3669 2231 3669 1497 
Q 3669 778 3244 343 
Q 2819 -91 2113 -91 
Q 1303 -91 875 529 
Q 447 1150 447 2328 
Q 447 3434 972 4092 
Q 1497 4750 2381 4750 
Q 2619 4750 2861 4703 
Q 3103 4656 3366 4563 
z
" transform="scale(0.015625)"/>
       </defs>
       <use xlink:href="#DejaVuSans-31"/>
       <use xlink:href="#DejaVuSans-30" x="63.623047"/>
       <use xlink:href="#DejaVuSans-36" x="127.246094"/>
      </g>
     </g>
    </g>
    <g id="text_19">
     <!-- [K] -->
     <g transform="translate(14.798438 132.013945) rotate(-90) scale(0.1 -0.1)">
      <defs>
       <path id="DejaVuSans-4b" d="M 628 4666 
L 1259 4666 
L 1259 2694 
L 3353 4666 
L 4166 4666 
L 1850 2491 
L 4331 0 
L 3500 0 
L 1259 2247 
L 1259 0 
L 628 0 
L 628 4666 
z
" transform="scale(0.015625)"/>
      </defs>
      <use xlink:href="#DejaVuSans-5b"/>
      <use xlink:href="#DejaVuSans-4b" x="39.013672"/>
      <use xlink:href="#DejaVuSans-5d" x="104.589844"/>
     </g>
    </g>
   </g>
   <g id="patch_3">
    <path d="M 46.965625 242.092877 
L 46.965625 7.574076 
" style="fill: none; stroke: #000000; stroke-width: 0.8; stroke-linejoin: miter; stroke-linecap: square"/>
   </g>
   <g id="patch_4">
    <path d="M 417.205625 242.092877 
L 417.205625 7.574076 
" style="fill: none; stroke: #000000; stroke-width: 0.8; stroke-linejoin: miter; stroke-linecap: square"/>
   </g>
   <g id="patch_5">
    <path d="M 46.965625 242.092877 
L 417.205625 242.092877 
" style="fill: none; stroke: #000000; stroke-width: 0.8; stroke-linejoin: miter; stroke-linecap: square"/>
   </g>
   <g id="patch_6">
    <path d="M 46.965625 7.574076 
L 417.205625 7.574076 
" style="fill: none; stroke: #000000; stroke-width: 0.8; stroke-linejoin: miter; stroke-linecap: square"/>
   </g>
   <g id="legend_1">
    <g id="patch_7">
     <path d="M 53.965625 44.930326 
L 118.490625 44.930326 
Q 120.490625 44.930326 120.490625 42.930326 
L 120.490625 14.574076 
Q 120.490625 12.574076 118.490625 12.574076 
L 53.965625 12.574076 
Q 51.965625 12.574076 51.965625 14.574076 
L 51.965625 42.930326 
Q 51.965625 44.930326 53.965625 44.930326 
z
" style="fill: #ffffff; opacity: 0.8; stroke: #cccccc; stroke-linejoin: miter"/>
    </g>
    <g id="line2d_18">
     <defs>
      <path id="m418244dad1" d="M 0 3 
C 0.795609 3 1.55874 2.683901 2.12132 2.12132 
C 2.683901 1.55874 3 0.795609 3 0 
C 3 -0.795609 2.683901 -1.55874 2.12132 -2.12132 
C 1.55874 -2.683901 0.795609 -3 0 -3 
C -0.795609 -3 -1.55874 -2.683901 -2.12132 -2.12132 
C -2.683901 -1.55874 -3 -0.795609 -3 0 
C -3 0.795609 -2.683901 1.55874 -2.12132 2.12132 
C -1.55874 2.683901 -0.795609 3 0 3 
z
" style="stroke: #1f77b4"/>
     </defs>
     <g>
      <use xlink:href="#m418244dad1" x="65.965625" y="20.672513" style="fill: #1f77b4; stroke: #1f77b4"/>
     </g>
    </g>
    <g id="text_20">
     <!-- temp1 -->
     <g transform="translate(83.965625 24.172513) scale(0.1 -0.1)">
      <defs>
       <path id="DejaVuSans-74" d="M 1172 4494 
L 1172 3500 
L 2356 3500 
L 2356 3053 
L 1172 3053 
L 1172 1153 
Q 1172 725 1289 603 
Q 1406 481 1766 481 
L 2356 481 
L 2356 0 
L 1766 0 
Q 1100 0 847 248 
Q 594 497 594 1153 
L 594 3053 
L 172 3053 
L 172 3500 
L 594 3500 
L 594 4494 
L 1172 4494 
z
" transform="scale(0.015625)"/>
       <path id="DejaVuSans-65" d="M 3597 1894 
L 3597 1613 
L 953 1613 
Q 991 1019 1311 708 
Q 1631 397 2203 397 
Q 2534 397 2845 478 
Q 3156 559 3463 722 
L 3463 178 
Q 3153 47 2828 -22 
Q 2503 -91 2169 -91 
Q 1331 -91 842 396 
Q 353 884 353 1716 
Q 353 2575 817 3079 
Q 1281 3584 2069 3584 
Q 2775 3584 3186 3129 
Q 3597 2675 3597 1894 
z
M 3022 2063 
Q 3016 2534 2758 2815 
Q 2500 3097 2075 3097 
Q 1594 3097 1305 2825 
Q 1016 2553 972 2059 
L 3022 2063 
z
" transform="scale(0.015625)"/>
       <path id="DejaVuSans-70" d="M 1159 525 
L 1159 -1331 
L 581 -1331 
L 581 3500 
L 1159 3500 
L 1159 2969 
Q 1341 3281 1617 3432 
Q 1894 3584 2278 3584 
Q 2916 3584 3314 3078 
Q 3713 2572 3713 1747 
Q 3713 922 3314 415 
Q 2916 -91 2278 -91 
Q 1894 -91 1617 61 
Q 1341 213 1159 525 
z
M 3116 1747 
Q 3116 2381 2855 2742 
Q 2594 3103 2138 3103 
Q 1681 3103 1420 2742 
Q 1159 2381 1159 1747 
Q 1159 1113 1420 752 
Q 1681 391 2138 391 
Q 2594 391 2855 752 
Q 3116 1113 3116 1747 
z
" transform="scale(0.015625)"/>
      </defs>
      <use xlink:href="#DejaVuSans-74"/>
      <use xlink:href="#DejaVuSans-65" x="39.208984"/>
      <use xlink:href="#DejaVuSans-6d" x="100.732422"/>
      <use xlink:href="#DejaVuSans-70" x="198.144531"/>
      <use xlink:href="#DejaVuSans-31" x="261.621094"/>
     </g>
    </g>
    <g id="line2d_19">
     <defs>
      <path id="m34dec36e32" d="M -0 3 
L 3 -3 
L -3 -3 
z
" style="stroke: #ff7f0e; stroke-linejoin: miter"/>
     </defs>
     <g>
      <use xlink:href="#m34dec36e32" x="65.965625" y="35.350638" style="fill: #ff7f0e; stroke: #ff7f0e; stroke-linejoin: miter"/>
     </g>
    </g>
    <g id="text_21">
     <!-- temp2 -->
     <g transform="translate(83.965625 38.850638) scale(0.1 -0.1)">
      <use xlink:href="#DejaVuSans-74"/>
      <use xlink:href="#DejaVuSans-65" x="39.208984"/>
      <use xlink:href="#DejaVuSans-6d" x="100.732422"/>
      <use xlink:href="#DejaVuSans-70" x="198.144531"/>
      <use xlink:href="#DejaVuSans-32" x="261.621094"/>
     </g>
    </g>
   </g>
   <g id="line2d_20">
    <g clip-path="url(#p79f4339583)">
     <use xlink:href="#m418244dad1" x="63.794716" y="174.975151" style="fill: #1f77b4; stroke: #1f77b4"/>
     <use xlink:href="#m418244dad1" x="70.663733" y="183.081679" style="fill: #1f77b4; stroke: #1f77b4"/>
     <use xlink:href="#m418244dad1" x="77.532749" y="186.957769" style="fill: #1f77b4; stroke: #1f77b4"/>
     <use xlink:href="#m418244dad1" x="84.401766" y="184.585289" style="fill: #1f77b4; stroke: #1f77b4"/>
     <use xlink:href="#m418244dad1" x="91.270783" y="157.104812" style="fill: #1f77b4; stroke: #1f77b4"/>
     <use xlink:href="#m418244dad1" x="98.139799" y="150.943111" style="fill: #1f77b4; stroke: #1f77b4"/>
     <use xlink:href="#m418244dad1" x="105.008816" y="157.182865" style="fill: #1f77b4; stroke: #1f77b4"/>
     <use xlink:href="#m418244dad1" x="111.877833" y="150.306455" style="fill: #1f77b4; stroke: #1f77b4"/>
     <use xlink:href="#m418244dad1" x="118.746849" y="152.869597" style="fill: #1f77b4; stroke: #1f77b4"/>
     <use xlink:href="#m418244dad1" x="125.615866" y="137.781098" style="fill: #1f77b4; stroke: #1f77b4"/>
     <use xlink:href="#m418244dad1" x="132.484883" y="138.306321" style="fill: #1f77b4; stroke: #1f77b4"/>
     <use xlink:href="#m418244dad1" x="139.3539" y="160.047553" style="fill: #1f77b4; stroke: #1f77b4"/>
     <use xlink:href="#m418244dad1" x="146.222916" y="130.796064" style="fill: #1f77b4; stroke: #1f77b4"/>
     <use xlink:href="#m418244dad1" x="153.091933" y="152.864562" style="fill: #1f77b4; stroke: #1f77b4"/>
     <use xlink:href="#m418244dad1" x="159.96095" y="128.462174" style="fill: #1f77b4; stroke: #1f77b4"/>
     <use xlink:href="#m418244dad1" x="166.829966" y="142.280908" style="fill: #1f77b4; stroke: #1f77b4"/>
     <use xlink:href="#m418244dad1" x="173.698983" y="118.139832" style="fill: #1f77b4; stroke: #1f77b4"/>
     <use xlink:href="#m418244dad1" x="180.568" y="124.856496" style="fill: #1f77b4; stroke: #1f77b4"/>
     <use xlink:href="#m418244dad1" x="187.437016" y="129.12811" style="fill: #1f77b4; stroke: #1f77b4"/>
     <use xlink:href="#m418244dad1" x="194.306033" y="122.248198" style="fill: #1f77b4; stroke: #1f77b4"/>
     <use xlink:href="#m418244dad1" x="201.17505" y="131.186145" style="fill: #1f77b4; stroke: #1f77b4"/>
     <use xlink:href="#m418244dad1" x="208.044067" y="125.132121" style="fill: #1f77b4; stroke: #1f77b4"/>
     <use xlink:href="#m418244dad1" x="214.913083" y="105.307718" style="fill: #1f77b4; stroke: #1f77b4"/>
     <use xlink:href="#m418244dad1" x="221.7821" y="102.904327" style="fill: #1f77b4; stroke: #1f77b4"/>
     <use xlink:href="#m418244dad1" x="228.651117" y="100.756835" style="fill: #1f77b4; stroke: #1f77b4"/>
     <use xlink:href="#m418244dad1" x="235.520133" y="104.72142" style="fill: #1f77b4; stroke: #1f77b4"/>
     <use xlink:href="#m418244dad1" x="242.38915" y="82.842632" style="fill: #1f77b4; stroke: #1f77b4"/>
     <use xlink:href="#m418244dad1" x="249.258167" y="80.223371" style="fill: #1f77b4; stroke: #1f77b4"/>
     <use xlink:href="#m418244dad1" x="256.127183" y="86.132104" style="fill: #1f77b4; stroke: #1f77b4"/>
     <use xlink:href="#m418244dad1" x="262.9962" y="84.084847" style="fill: #1f77b4; stroke: #1f77b4"/>
     <use xlink:href="#m418244dad1" x="269.865217" y="79.803456" style="fill: #1f77b4; stroke: #1f77b4"/>
     <use xlink:href="#m418244dad1" x="276.734234" y="85.841582" style="fill: #1f77b4; stroke: #1f77b4"/>
     <use xlink:href="#m418244dad1" x="283.60325" y="90.48241" style="fill: #1f77b4; stroke: #1f77b4"/>
     <use xlink:href="#m418244dad1" x="290.472267" y="69.433449" style="fill: #1f77b4; stroke: #1f77b4"/>
     <use xlink:href="#m418244dad1" x="297.341284" y="72.310367" style="fill: #1f77b4; stroke: #1f77b4"/>
     <use xlink:href="#m418244dad1" x="304.2103" y="75.767554" style="fill: #1f77b4; stroke: #1f77b4"/>
     <use xlink:href="#m418244dad1" x="311.079317" y="67.278832" style="fill: #1f77b4; stroke: #1f77b4"/>
     <use xlink:href="#m418244dad1" x="317.948334" y="51.817162" style="fill: #1f77b4; stroke: #1f77b4"/>
     <use xlink:href="#m418244dad1" x="324.81735" y="47.334945" style="fill: #1f77b4; stroke: #1f77b4"/>
     <use xlink:href="#m418244dad1" x="331.686367" y="61.833931" style="fill: #1f77b4; stroke: #1f77b4"/>
     <use xlink:href="#m418244dad1" x="338.555384" y="52.179036" style="fill: #1f77b4; stroke: #1f77b4"/>
     <use xlink:href="#m418244dad1" x="345.424401" y="56.692534" style="fill: #1f77b4; stroke: #1f77b4"/>
     <use xlink:href="#m418244dad1" x="352.293417" y="45.242997" style="fill: #1f77b4; stroke: #1f77b4"/>
     <use xlink:href="#m418244dad1" x="359.162434" y="49.962217" style="fill: #1f77b4; stroke: #1f77b4"/>
     <use xlink:href="#m418244dad1" x="366.031451" y="45.200174" style="fill: #1f77b4; stroke: #1f77b4"/>
     <use xlink:href="#m418244dad1" x="372.900467" y="26.833772" style="fill: #1f77b4; stroke: #1f77b4"/>
     <use xlink:href="#m418244dad1" x="379.769484" y="43.988778" style="fill: #1f77b4; stroke: #1f77b4"/>
     <use xlink:href="#m418244dad1" x="386.638501" y="28.76018" style="fill: #1f77b4; stroke: #1f77b4"/>
     <use xlink:href="#m418244dad1" x="393.507517" y="42.125544" style="fill: #1f77b4; stroke: #1f77b4"/>
     <use xlink:href="#m418244dad1" x="400.376534" y="16.116156" style="fill: #1f77b4; stroke: #1f77b4"/>
    </g>
   </g>
   <g id="line2d_21">
    <g clip-path="url(#p79f4339583)">
     <use xlink:href="#m34dec36e32" x="63.794716" y="200.959888" style="fill: #ff7f0e; stroke: #ff7f0e; stroke-linejoin: miter"/>
     <use xlink:href="#m34dec36e32" x="70.663733" y="215.834853" style="fill: #ff7f0e; stroke: #ff7f0e; stroke-linejoin: miter"/>
     <use xlink:href="#m34dec36e32" x="77.532749" y="194.482995" style="fill: #ff7f0e; stroke: #ff7f0e; stroke-linejoin: miter"/>
     <use xlink:href="#m34dec36e32" x="84.401766" y="217.61899" style="fill: #ff7f0e; stroke: #ff7f0e; stroke-linejoin: miter"/>
     <use xlink:href="#m34dec36e32" x="91.270783" y="207.260924" style="fill: #ff7f0e; stroke: #ff7f0e; stroke-linejoin: miter"/>
     <use xlink:href="#m34dec36e32" x="98.139799" y="211.070994" style="fill: #ff7f0e; stroke: #ff7f0e; stroke-linejoin: miter"/>
     <use xlink:href="#m34dec36e32" x="105.008816" y="200.024654" style="fill: #ff7f0e; stroke: #ff7f0e; stroke-linejoin: miter"/>
     <use xlink:href="#m34dec36e32" x="111.877833" y="187.574148" style="fill: #ff7f0e; stroke: #ff7f0e; stroke-linejoin: miter"/>
     <use xlink:href="#m34dec36e32" x="118.746849" y="202.998036" style="fill: #ff7f0e; stroke: #ff7f0e; stroke-linejoin: miter"/>
     <use xlink:href="#m34dec36e32" x="125.615866" y="206.587454" style="fill: #ff7f0e; stroke: #ff7f0e; stroke-linejoin: miter"/>
     <use xlink:href="#m34dec36e32" x="132.484883" y="193.936814" style="fill: #ff7f0e; stroke: #ff7f0e; stroke-linejoin: miter"/>
     <use xlink:href="#m34dec36e32" x="139.3539" y="198.364539" style="fill: #ff7f0e; stroke: #ff7f0e; stroke-linejoin: miter"/>
     <use xlink:href="#m34dec36e32" x="146.222916" y="199.787371" style="fill: #ff7f0e; stroke: #ff7f0e; stroke-linejoin: miter"/>
     <use xlink:href="#m34dec36e32" x="153.091933" y="182.946438" style="fill: #ff7f0e; stroke: #ff7f0e; stroke-linejoin: miter"/>
     <use xlink:href="#m34dec36e32" x="159.96095" y="189.68557" style="fill: #ff7f0e; stroke: #ff7f0e; stroke-linejoin: miter"/>
     <use xlink:href="#m34dec36e32" x="166.829966" y="176.399938" style="fill: #ff7f0e; stroke: #ff7f0e; stroke-linejoin: miter"/>
     <use xlink:href="#m34dec36e32" x="173.698983" y="188.974138" style="fill: #ff7f0e; stroke: #ff7f0e; stroke-linejoin: miter"/>
     <use xlink:href="#m34dec36e32" x="180.568" y="164.39712" style="fill: #ff7f0e; stroke: #ff7f0e; stroke-linejoin: miter"/>
     <use xlink:href="#m34dec36e32" x="187.437016" y="180.167146" style="fill: #ff7f0e; stroke: #ff7f0e; stroke-linejoin: miter"/>
     <use xlink:href="#m34dec36e32" x="194.306033" y="186.23297" style="fill: #ff7f0e; stroke: #ff7f0e; stroke-linejoin: miter"/>
     <use xlink:href="#m34dec36e32" x="201.17505" y="168.351455" style="fill: #ff7f0e; stroke: #ff7f0e; stroke-linejoin: miter"/>
     <use xlink:href="#m34dec36e32" x="208.044067" y="157.366678" style="fill: #ff7f0e; stroke: #ff7f0e; stroke-linejoin: miter"/>
     <use xlink:href="#m34dec36e32" x="214.913083" y="170.378041" style="fill: #ff7f0e; stroke: #ff7f0e; stroke-linejoin: miter"/>
     <use xlink:href="#m34dec36e32" x="221.7821" y="152.783918" style="fill: #ff7f0e; stroke: #ff7f0e; stroke-linejoin: miter"/>
     <use xlink:href="#m34dec36e32" x="228.651117" y="164.814345" style="fill: #ff7f0e; stroke: #ff7f0e; stroke-linejoin: miter"/>
     <use xlink:href="#m34dec36e32" x="235.520133" y="165.225358" style="fill: #ff7f0e; stroke: #ff7f0e; stroke-linejoin: miter"/>
     <use xlink:href="#m34dec36e32" x="242.38915" y="157.391709" style="fill: #ff7f0e; stroke: #ff7f0e; stroke-linejoin: miter"/>
     <use xlink:href="#m34dec36e32" x="249.258167" y="144.057636" style="fill: #ff7f0e; stroke: #ff7f0e; stroke-linejoin: miter"/>
     <use xlink:href="#m34dec36e32" x="256.127183" y="143.596818" style="fill: #ff7f0e; stroke: #ff7f0e; stroke-linejoin: miter"/>
     <use xlink:href="#m34dec36e32" x="262.9962" y="156.673034" style="fill: #ff7f0e; stroke: #ff7f0e; stroke-linejoin: miter"/>
     <use xlink:href="#m34dec36e32" x="269.865217" y="145.699347" style="fill: #ff7f0e; stroke: #ff7f0e; stroke-linejoin: miter"/>
     <use xlink:href="#m34dec36e32" x="276.734234" y="151.786307" style="fill: #ff7f0e; stroke: #ff7f0e; stroke-linejoin: miter"/>
     <use xlink:href="#m34dec36e32" x="283.60325" y="148.93933" style="fill: #ff7f0e; stroke: #ff7f0e; stroke-linejoin: miter"/>
     <use xlink:href="#m34dec36e32" x="290.472267" y="139.225651" style="fill: #ff7f0e; stroke: #ff7f0e; stroke-linejoin: miter"/>
     <use xlink:href="#m34dec36e32" x="297.341284" y="148.701067" style="fill: #ff7f0e; stroke: #ff7f0e; stroke-linejoin: miter"/>
     <use xlink:href="#m34dec36e32" x="304.2103" y="137.050322" style="fill: #ff7f0e; stroke: #ff7f0e; stroke-linejoin: miter"/>
     <use xlink:href="#m34dec36e32" x="311.079317" y="135.892018" style="fill: #ff7f0e; stroke: #ff7f0e; stroke-linejoin: miter"/>
     <use xlink:href="#m34dec36e32" x="317.948334" y="127.265493" style="fill: #ff7f0e; stroke: #ff7f0e; stroke-linejoin: miter"/>
     <use xlink:href="#m34dec36e32" x="324.81735" y="150.37736" style="fill: #ff7f0e; stroke: #ff7f0e; stroke-linejoin: miter"/>
     <use xlink:href="#m34dec36e32" x="331.686367" y="129.729719" style="fill: #ff7f0e; stroke: #ff7f0e; stroke-linejoin: miter"/>
     <use xlink:href="#m34dec36e32" x="338.555384" y="121.791381" style="fill: #ff7f0e; stroke: #ff7f0e; stroke-linejoin: miter"/>
     <use xlink:href="#m34dec36e32" x="345.424401" y="118.681066" style="fill: #ff7f0e; stroke: #ff7f0e; stroke-linejoin: miter"/>
     <use xlink:href="#m34dec36e32" x="352.293417" y="145.953997" style="fill: #ff7f0e; stroke: #ff7f0e; stroke-linejoin: miter"/>
     <use xlink:href="#m34dec36e32" x="359.162434" y="118.125732" style="fill: #ff7f0e; stroke: #ff7f0e; stroke-linejoin: miter"/>
     <use xlink:href="#m34dec36e32" x="366.031451" y="112.659516" style="fill: #ff7f0e; stroke: #ff7f0e; stroke-linejoin: miter"/>
     <use xlink:href="#m34dec36e32" x="372.900467" y="111.520907" style="fill: #ff7f0e; stroke: #ff7f0e; stroke-linejoin: miter"/>
     <use xlink:href="#m34dec36e32" x="379.769484" y="134.367355" style="fill: #ff7f0e; stroke: #ff7f0e; stroke-linejoin: miter"/>
     <use xlink:href="#m34dec36e32" x="386.638501" y="107.305579" style="fill: #ff7f0e; stroke: #ff7f0e; stroke-linejoin: miter"/>
     <use xlink:href="#m34dec36e32" x="393.507517" y="107.96199" style="fill: #ff7f0e; stroke: #ff7f0e; stroke-linejoin: miter"/>
     <use xlink:href="#m34dec36e32" x="400.376534" y="108.155753" style="fill: #ff7f0e; stroke: #ff7f0e; stroke-linejoin: miter"/>
    </g>
   </g>
   <g id="LineCollection_1">
    <path d="M 63.794716 225.487771 
L 63.794716 176.432004 
" clip-path="url(#p79f4339583)" style="fill: none; stroke: #ff7f0e; stroke-width: 1.5"/>
    <path d="M 70.663733 234.425091 
L 70.663733 197.244614 
" clip-path="url(#p79f4339583)" style="fill: none; stroke: #ff7f0e; stroke-width: 1.5"/>
    <path d="M 77.532749 219.848285 
L 77.532749 169.117705 
" clip-path="url(#p79f4339583)" style="fill: none; stroke: #ff7f0e; stroke-width: 1.5"/>
    <path d="M 84.401766 233.777162 
L 84.401766 201.460817 
" clip-path="url(#p79f4339583)" style="fill: none; stroke: #ff7f0e; stroke-width: 1.5"/>
    <path d="M 91.270783 227.030063 
L 91.270783 187.491785 
" clip-path="url(#p79f4339583)" style="fill: none; stroke: #ff7f0e; stroke-width: 1.5"/>
    <path d="M 98.139799 228.505282 
L 98.139799 193.636705 
" clip-path="url(#p79f4339583)" style="fill: none; stroke: #ff7f0e; stroke-width: 1.5"/>
    <path d="M 105.008816 221.100915 
L 105.008816 178.948393 
" clip-path="url(#p79f4339583)" style="fill: none; stroke: #ff7f0e; stroke-width: 1.5"/>
    <path d="M 111.877833 212.189782 
L 111.877833 162.958513 
" clip-path="url(#p79f4339583)" style="fill: none; stroke: #ff7f0e; stroke-width: 1.5"/>
    <path d="M 118.746849 221.478232 
L 118.746849 184.517839 
" clip-path="url(#p79f4339583)" style="fill: none; stroke: #ff7f0e; stroke-width: 1.5"/>
    <path d="M 125.615866 222.650656 
L 125.615866 190.524251 
" clip-path="url(#p79f4339583)" style="fill: none; stroke: #ff7f0e; stroke-width: 1.5"/>
    <path d="M 132.484883 214.499078 
L 132.484883 173.374549 
" clip-path="url(#p79f4339583)" style="fill: none; stroke: #ff7f0e; stroke-width: 1.5"/>
    <path d="M 139.3539 216.433845 
L 139.3539 180.295233 
" clip-path="url(#p79f4339583)" style="fill: none; stroke: #ff7f0e; stroke-width: 1.5"/>
    <path d="M 146.222916 216.404546 
L 146.222916 183.170196 
" clip-path="url(#p79f4339583)" style="fill: none; stroke: #ff7f0e; stroke-width: 1.5"/>
    <path d="M 153.091933 205.417982 
L 153.091933 160.474894 
" clip-path="url(#p79f4339583)" style="fill: none; stroke: #ff7f0e; stroke-width: 1.5"/>
    <path d="M 159.96095 209.007255 
L 159.96095 170.363885 
" clip-path="url(#p79f4339583)" style="fill: none; stroke: #ff7f0e; stroke-width: 1.5"/>
    <path d="M 166.829966 199.805392 
L 166.829966 152.994484 
" clip-path="url(#p79f4339583)" style="fill: none; stroke: #ff7f0e; stroke-width: 1.5"/>
    <path d="M 173.698983 207.056404 
L 173.698983 170.891871 
" clip-path="url(#p79f4339583)" style="fill: none; stroke: #ff7f0e; stroke-width: 1.5"/>
    <path d="M 180.568 190.36006 
L 180.568 138.43418 
" clip-path="url(#p79f4339583)" style="fill: none; stroke: #ff7f0e; stroke-width: 1.5"/>
    <path d="M 187.437016 200.27612 
L 187.437016 160.058171 
" clip-path="url(#p79f4339583)" style="fill: none; stroke: #ff7f0e; stroke-width: 1.5"/>
    <path d="M 194.306033 203.056209 
L 194.306033 169.409732 
" clip-path="url(#p79f4339583)" style="fill: none; stroke: #ff7f0e; stroke-width: 1.5"/>
    <path d="M 201.17505 191.324681 
L 201.17505 145.378229 
" clip-path="url(#p79f4339583)" style="fill: none; stroke: #ff7f0e; stroke-width: 1.5"/>
    <path d="M 208.044067 183.194615 
L 208.044067 131.538742 
" clip-path="url(#p79f4339583)" style="fill: none; stroke: #ff7f0e; stroke-width: 1.5"/>
    <path d="M 214.913083 191.343542 
L 214.913083 149.41254 
" clip-path="url(#p79f4339583)" style="fill: none; stroke: #ff7f0e; stroke-width: 1.5"/>
    <path d="M 221.7821 178.858934 
L 221.7821 126.708902 
" clip-path="url(#p79f4339583)" style="fill: none; stroke: #ff7f0e; stroke-width: 1.5"/>
    <path d="M 228.651117 186.433145 
L 228.651117 143.195545 
" clip-path="url(#p79f4339583)" style="fill: none; stroke: #ff7f0e; stroke-width: 1.5"/>
    <path d="M 235.520133 186.021307 
L 235.520133 144.429409 
" clip-path="url(#p79f4339583)" style="fill: none; stroke: #ff7f0e; stroke-width: 1.5"/>
    <path d="M 242.38915 180.274268 
L 242.38915 134.509149 
" clip-path="url(#p79f4339583)" style="fill: none; stroke: #ff7f0e; stroke-width: 1.5"/>
    <path d="M 249.258167 170.493215 
L 249.258167 117.622058 
" clip-path="url(#p79f4339583)" style="fill: none; stroke: #ff7f0e; stroke-width: 1.5"/>
    <path d="M 256.127183 169.621172 
L 256.127183 117.572463 
" clip-path="url(#p79f4339583)" style="fill: none; stroke: #ff7f0e; stroke-width: 1.5"/>
    <path d="M 262.9962 177.856647 
L 262.9962 135.489421 
" clip-path="url(#p79f4339583)" style="fill: none; stroke: #ff7f0e; stroke-width: 1.5"/>
    <path d="M 269.865217 169.945772 
L 269.865217 121.452921 
" clip-path="url(#p79f4339583)" style="fill: none; stroke: #ff7f0e; stroke-width: 1.5"/>
    <path d="M 276.734234 173.378355 
L 276.734234 130.194259 
" clip-path="url(#p79f4339583)" style="fill: none; stroke: #ff7f0e; stroke-width: 1.5"/>
    <path d="M 283.60325 170.873831 
L 283.60325 127.004829 
" clip-path="url(#p79f4339583)" style="fill: none; stroke: #ff7f0e; stroke-width: 1.5"/>
    <path d="M 290.472267 163.741024 
L 290.472267 114.710278 
" clip-path="url(#p79f4339583)" style="fill: none; stroke: #ff7f0e; stroke-width: 1.5"/>
    <path d="M 297.341284 169.377855 
L 297.341284 128.02428 
" clip-path="url(#p79f4339583)" style="fill: none; stroke: #ff7f0e; stroke-width: 1.5"/>
    <path d="M 304.2103 161.071642 
L 304.2103 113.029002 
" clip-path="url(#p79f4339583)" style="fill: none; stroke: #ff7f0e; stroke-width: 1.5"/>
    <path d="M 311.079317 159.685166 
L 311.079317 112.09887 
" clip-path="url(#p79f4339583)" style="fill: none; stroke: #ff7f0e; stroke-width: 1.5"/>
    <path d="M 317.948334 153.137777 
L 317.948334 101.393209 
" clip-path="url(#p79f4339583)" style="fill: none; stroke: #ff7f0e; stroke-width: 1.5"/>
    <path d="M 324.81735 167.331196 
L 324.81735 133.423524 
" clip-path="url(#p79f4339583)" style="fill: none; stroke: #ff7f0e; stroke-width: 1.5"/>
    <path d="M 331.686367 153.697776 
L 331.686367 105.761662 
" clip-path="url(#p79f4339583)" style="fill: none; stroke: #ff7f0e; stroke-width: 1.5"/>
    <path d="M 338.555384 147.621755 
L 338.555384 95.961007 
" clip-path="url(#p79f4339583)" style="fill: none; stroke: #ff7f0e; stroke-width: 1.5"/>
    <path d="M 345.424401 144.875337 
L 345.424401 92.486795 
" clip-path="url(#p79f4339583)" style="fill: none; stroke: #ff7f0e; stroke-width: 1.5"/>
    <path d="M 352.293417 161.464788 
L 352.293417 130.443206 
" clip-path="url(#p79f4339583)" style="fill: none; stroke: #ff7f0e; stroke-width: 1.5"/>
    <path d="M 359.162434 143.372401 
L 359.162434 92.879063 
" clip-path="url(#p79f4339583)" style="fill: none; stroke: #ff7f0e; stroke-width: 1.5"/>
    <path d="M 366.031451 138.971909 
L 366.031451 86.347124 
" clip-path="url(#p79f4339583)" style="fill: none; stroke: #ff7f0e; stroke-width: 1.5"/>
    <path d="M 372.900467 137.619393 
L 372.900467 85.422422 
" clip-path="url(#p79f4339583)" style="fill: none; stroke: #ff7f0e; stroke-width: 1.5"/>
    <path d="M 379.769484 151.781316 
L 379.769484 116.953393 
" clip-path="url(#p79f4339583)" style="fill: none; stroke: #ff7f0e; stroke-width: 1.5"/>
    <path d="M 386.638501 133.541774 
L 386.638501 81.069383 
" clip-path="url(#p79f4339583)" style="fill: none; stroke: #ff7f0e; stroke-width: 1.5"/>
    <path d="M 393.507517 133.450917 
L 393.507517 82.473064 
" clip-path="url(#p79f4339583)" style="fill: none; stroke: #ff7f0e; stroke-width: 1.5"/>
    <path d="M 400.376534 133.017482 
L 400.376534 83.294023 
" clip-path="url(#p79f4339583)" style="fill: none; stroke: #ff7f0e; stroke-width: 1.5"/>
   </g>
  </g>
 </g>
 <defs>
  <clipPath id="p79f4339583">
   <rect x="46.965625" y="7.574076" width="370.24" height="234.518801"/>
  </clipPath>
 </defs>
</svg>
