<?xml version="1.0" encoding="UTF-8" standalone="no"?>
<!DOCTYPE svg PUBLIC "-//W3C//DTD SVG 1.1//EN"
 "http://www.w3.org/Graphics/SVG/1.1/DTD/svg11.dtd">
<!-- Generated by graphviz version 2.43.0 (0)
 -->
<!-- Title: %3 Pages: 1 -->
<svg width="544pt" height="258pt"
 viewBox="0.00 0.00 543.50 258.05" xmlns="http://www.w3.org/2000/svg" xmlns:xlink="http://www.w3.org/1999/xlink">
<g id="graph0" class="graph" transform="scale(1 1) rotate(0) translate(4 254.05)">
<title>%3</title>
<polygon fill="white" stroke="transparent" points="-4,4 -4,-254.05 539.5,-254.05 539.5,4 -4,4"/>
<!-- 8a6af6c7db6040f8b42e411d3f894e89 -->
<g id="node1" class="node">
<title>8a6af6c7db6040f8b42e411d3f894e89</title>
<polygon fill="none" stroke="black" points="217,-250.05 0,-250.05 0,-227.05 217,-227.05 217,-250.05"/>
<text text-anchor="middle" x="108.5" y="-234.85" font-family="Times,serif" font-size="14.00">Widget &lt;Checkboxes: dict&gt;</text>
</g>
<!-- 9045e58c4dfb46ed9465bbe2d52acfe9 -->
<g id="node2" class="node">
<title>9045e58c4dfb46ed9465bbe2d52acfe9</title>
<polygon fill="none" stroke="black" points="329.5,-176.05 91.5,-176.05 91.5,-153.05 329.5,-153.05 329.5,-176.05"/>
<text text-anchor="middle" x="210.5" y="-160.85" font-family="Times,serif" font-size="14.00">hide_masks(data_array, masks)</text>
</g>
<!-- 8a6af6c7db6040f8b42e411d3f894e89&#45;&gt;9045e58c4dfb46ed9465bbe2d52acfe9 -->
<g id="edge1" class="edge">
<title>8a6af6c7db6040f8b42e411d3f894e89&#45;&gt;9045e58c4dfb46ed9465bbe2d52acfe9</title>
<path fill="none" stroke="black" d="M123.55,-226.93C140.27,-215.13 167.49,-195.91 187.02,-182.13"/>
<polygon fill="black" stroke="black" points="189.24,-184.85 195.39,-176.22 185.2,-179.13 189.24,-184.85"/>
<text text-anchor="middle" x="192.5" y="-197.85" font-family="Times,serif" font-size="14.00">masks</text>
</g>
<!-- 0c1bf0c63f6c4137890b581ece0bda01 -->
<g id="node3" class="node">
<title>0c1bf0c63f6c4137890b581ece0bda01</title>
<polygon fill="none" stroke="black" points="490.5,-97.29 328.5,-97.29 328.5,-74.29 490.5,-74.29 490.5,-97.29"/>
<text text-anchor="middle" x="409.5" y="-82.09" font-family="Times,serif" font-size="14.00">slice_y(arg_0, index)</text>
</g>
<!-- 9045e58c4dfb46ed9465bbe2d52acfe9&#45;&gt;0c1bf0c63f6c4137890b581ece0bda01 -->
<g id="edge3" class="edge">
<title>9045e58c4dfb46ed9465bbe2d52acfe9&#45;&gt;0c1bf0c63f6c4137890b581ece0bda01</title>
<path fill="none" stroke="black" d="M237.75,-153.04C272.79,-139.53 333.74,-116.01 372.82,-100.94"/>
<polygon fill="black" stroke="black" points="374.19,-104.16 382.26,-97.3 371.67,-97.63 374.19,-104.16"/>
<text text-anchor="middle" x="342.5" y="-123.85" font-family="Times,serif" font-size="14.00">arg_0</text>
</g>
<!-- 08040aa73a8949afaac1f486b0872e3b -->
<g id="node7" class="node">
<title>08040aa73a8949afaac1f486b0872e3b</title>
<ellipse fill="lightgrey" stroke="lightgrey" cx="210.5" cy="-85.79" rx="67.35" ry="16.03"/>
<text text-anchor="middle" x="210.5" y="-82.09" font-family="Times,serif" font-size="14.00">ImageView</text>
</g>
<!-- 9045e58c4dfb46ed9465bbe2d52acfe9&#45;&gt;08040aa73a8949afaac1f486b0872e3b -->
<g id="edge2" class="edge">
<title>9045e58c4dfb46ed9465bbe2d52acfe9&#45;&gt;08040aa73a8949afaac1f486b0872e3b</title>
<path fill="none" stroke="black" d="M210.5,-152.88C210.5,-142.48 210.5,-126.26 210.5,-112.5"/>
<polygon fill="black" stroke="black" points="214,-112.14 210.5,-102.14 207,-112.14 214,-112.14"/>
</g>
<!-- b85019abb2f64769acd3e06b62603b74 -->
<g id="node6" class="node">
<title>b85019abb2f64769acd3e06b62603b74</title>
<ellipse fill="lightgrey" stroke="lightgrey" cx="409.5" cy="-16.26" rx="57.97" ry="16.03"/>
<text text-anchor="middle" x="409.5" y="-12.56" font-family="Times,serif" font-size="14.00">LineView</text>
</g>
<!-- 0c1bf0c63f6c4137890b581ece0bda01&#45;&gt;b85019abb2f64769acd3e06b62603b74 -->
<g id="edge5" class="edge">
<title>0c1bf0c63f6c4137890b581ece0bda01&#45;&gt;b85019abb2f64769acd3e06b62603b74</title>
<path fill="none" stroke="black" d="M409.5,-74.24C409.5,-65.89 409.5,-53.88 409.5,-43.03"/>
<polygon fill="black" stroke="black" points="413,-42.76 409.5,-32.76 406,-42.76 413,-42.76"/>
</g>
<!-- 2c2ad08d175a4f099559f0fdaa30f155 -->
<g id="node4" class="node">
<title>2c2ad08d175a4f099559f0fdaa30f155</title>
<polygon fill="none" stroke="black" points="535.5,-176.05 347.5,-176.05 347.5,-153.05 535.5,-153.05 535.5,-176.05"/>
<text text-anchor="middle" x="441.5" y="-160.85" font-family="Times,serif" font-size="14.00">Widget &lt;IntSlider: int&gt;</text>
</g>
<!-- 2c2ad08d175a4f099559f0fdaa30f155&#45;&gt;0c1bf0c63f6c4137890b581ece0bda01 -->
<g id="edge4" class="edge">
<title>2c2ad08d175a4f099559f0fdaa30f155&#45;&gt;0c1bf0c63f6c4137890b581ece0bda01</title>
<path fill="none" stroke="black" d="M437.05,-152.88C432.08,-140.96 423.94,-121.42 417.79,-106.67"/>
<polygon fill="black" stroke="black" points="420.99,-105.26 413.91,-97.37 414.53,-107.95 420.99,-105.26"/>
<text text-anchor="middle" x="448.5" y="-123.85" font-family="Times,serif" font-size="14.00">index</text>
</g>
<!-- 8bc1f6f0b47a444eb1ef5d37fc314cb5 -->
<g id="node5" class="node">
<title>8bc1f6f0b47a444eb1ef5d37fc314cb5</title>
<polygon fill="none" stroke="black" points="392,-250.05 235,-250.05 235,-227.05 392,-227.05 392,-250.05"/>
<text text-anchor="middle" x="313.5" y="-234.85" font-family="Times,serif" font-size="14.00">Input &lt;DataArray&gt;</text>
</g>
<!-- 8bc1f6f0b47a444eb1ef5d37fc314cb5&#45;&gt;9045e58c4dfb46ed9465bbe2d52acfe9 -->
<g id="edge6" class="edge">
<title>8bc1f6f0b47a444eb1ef5d37fc314cb5&#45;&gt;9045e58c4dfb46ed9465bbe2d52acfe9</title>
<path fill="none" stroke="black" d="M298.3,-226.93C281.41,-215.13 253.93,-195.91 234.21,-182.13"/>
<polygon fill="black" stroke="black" points="235.96,-179.08 225.76,-176.22 231.95,-184.82 235.96,-179.08"/>
<text text-anchor="middle" x="310" y="-197.85" font-family="Times,serif" font-size="14.00">data_array</text>
</g>
</g>
</svg>
