<?xml version="1.0" encoding="utf-8" standalone="no"?>
<!DOCTYPE svg PUBLIC "-//W3C//DTD SVG 1.1//EN"
  "http://www.w3.org/Graphics/SVG/1.1/DTD/svg11.dtd">
<svg xmlns:xlink="http://www.w3.org/1999/xlink" width="424.533437pt" height="276.68425pt" viewBox="0 0 424.533437 276.68425" xmlns="http://www.w3.org/2000/svg" version="1.1">
 <metadata>
  <rdf:RDF xmlns:dc="http://purl.org/dc/elements/1.1/" xmlns:cc="http://creativecommons.org/ns#" xmlns:rdf="http://www.w3.org/1999/02/22-rdf-syntax-ns#">
   <cc:Work>
    <dc:type rdf:resource="http://purl.org/dc/dcmitype/StillImage"/>
    <dc:date>2024-06-18T09:51:49.034486</dc:date>
    <dc:format>image/svg+xml</dc:format>
    <dc:creator>
     <cc:Agent>
      <dc:title>Matplotlib v3.9.0, https://matplotlib.org/</dc:title>
     </cc:Agent>
    </dc:creator>
   </cc:Work>
  </rdf:RDF>
 </metadata>
 <defs>
  <style type="text/css">*{stroke-linejoin: round; stroke-linecap: butt}</style>
 </defs>
 <g id="figure_1">
  <g id="patch_1">
   <path d="M 0 276.68425 
L 424.533437 276.68425 
L 424.533437 0 
L 0 0 
z
" style="fill: #ffffff"/>
  </g>
  <g id="axes_1">
   <g id="patch_2">
    <path d="M 58.523438 239.128 
L 417.333438 239.128 
L 417.333438 7.2 
L 58.523438 7.2 
z
" style="fill: #ffffff"/>
   </g>
   <g id="matplotlib.axis_1">
    <g id="xtick_1">
     <g id="line2d_1">
      <defs>
       <path id="m7e804a2f23" d="M 0 0 
L 0 3.5 
" style="stroke: #000000; stroke-width: 0.8"/>
      </defs>
      <g>
       <use xlink:href="#m7e804a2f23" x="74.832983" y="239.128" style="stroke: #000000; stroke-width: 0.8"/>
      </g>
     </g>
     <g id="text_1">
      <!-- $\mathdefault{10^{0}}$ -->
      <g transform="translate(66.032983 253.726437) scale(0.1 -0.1)">
       <defs>
        <path id="DejaVuSans-31" d="M 794 531 
L 1825 531 
L 1825 4091 
L 703 3866 
L 703 4441 
L 1819 4666 
L 2450 4666 
L 2450 531 
L 3481 531 
L 3481 0 
L 794 0 
L 794 531 
z
" transform="scale(0.015625)"/>
        <path id="DejaVuSans-30" d="M 2034 4250 
Q 1547 4250 1301 3770 
Q 1056 3291 1056 2328 
Q 1056 1369 1301 889 
Q 1547 409 2034 409 
Q 2525 409 2770 889 
Q 3016 1369 3016 2328 
Q 3016 3291 2770 3770 
Q 2525 4250 2034 4250 
z
M 2034 4750 
Q 2819 4750 3233 4129 
Q 3647 3509 3647 2328 
Q 3647 1150 3233 529 
Q 2819 -91 2034 -91 
Q 1250 -91 836 529 
Q 422 1150 422 2328 
Q 422 3509 836 4129 
Q 1250 4750 2034 4750 
z
" transform="scale(0.015625)"/>
       </defs>
       <use xlink:href="#DejaVuSans-31" transform="translate(0 0.765625)"/>
       <use xlink:href="#DejaVuSans-30" transform="translate(63.623047 0.765625)"/>
       <use xlink:href="#DejaVuSans-30" transform="translate(128.203125 39.046875) scale(0.7)"/>
      </g>
     </g>
    </g>
    <g id="xtick_2">
     <g id="line2d_2">
      <g>
       <use xlink:href="#m7e804a2f23" x="267.822964" y="239.128" style="stroke: #000000; stroke-width: 0.8"/>
      </g>
     </g>
     <g id="text_2">
      <!-- $\mathdefault{10^{1}}$ -->
      <g transform="translate(259.022964 253.726437) scale(0.1 -0.1)">
       <use xlink:href="#DejaVuSans-31" transform="translate(0 0.684375)"/>
       <use xlink:href="#DejaVuSans-30" transform="translate(63.623047 0.684375)"/>
       <use xlink:href="#DejaVuSans-31" transform="translate(128.203125 38.965625) scale(0.7)"/>
      </g>
     </g>
    </g>
    <g id="xtick_3">
     <g id="line2d_3">
      <defs>
       <path id="m93286762ff" d="M 0 0 
L 0 2 
" style="stroke: #000000; stroke-width: 0.6"/>
      </defs>
      <g>
       <use xlink:href="#m93286762ff" x="66.002246" y="239.128" style="stroke: #000000; stroke-width: 0.6"/>
      </g>
     </g>
    </g>
    <g id="xtick_4">
     <g id="line2d_4">
      <g>
       <use xlink:href="#m93286762ff" x="132.928756" y="239.128" style="stroke: #000000; stroke-width: 0.6"/>
      </g>
     </g>
    </g>
    <g id="xtick_5">
     <g id="line2d_5">
      <g>
       <use xlink:href="#m93286762ff" x="166.912605" y="239.128" style="stroke: #000000; stroke-width: 0.6"/>
      </g>
     </g>
    </g>
    <g id="xtick_6">
     <g id="line2d_6">
      <g>
       <use xlink:href="#m93286762ff" x="191.024529" y="239.128" style="stroke: #000000; stroke-width: 0.6"/>
      </g>
     </g>
    </g>
    <g id="xtick_7">
     <g id="line2d_7">
      <g>
       <use xlink:href="#m93286762ff" x="209.727191" y="239.128" style="stroke: #000000; stroke-width: 0.6"/>
      </g>
     </g>
    </g>
    <g id="xtick_8">
     <g id="line2d_8">
      <g>
       <use xlink:href="#m93286762ff" x="225.008378" y="239.128" style="stroke: #000000; stroke-width: 0.6"/>
      </g>
     </g>
    </g>
    <g id="xtick_9">
     <g id="line2d_9">
      <g>
       <use xlink:href="#m93286762ff" x="237.928438" y="239.128" style="stroke: #000000; stroke-width: 0.6"/>
      </g>
     </g>
    </g>
    <g id="xtick_10">
     <g id="line2d_10">
      <g>
       <use xlink:href="#m93286762ff" x="249.120302" y="239.128" style="stroke: #000000; stroke-width: 0.6"/>
      </g>
     </g>
    </g>
    <g id="xtick_11">
     <g id="line2d_11">
      <g>
       <use xlink:href="#m93286762ff" x="258.992227" y="239.128" style="stroke: #000000; stroke-width: 0.6"/>
      </g>
     </g>
    </g>
    <g id="xtick_12">
     <g id="line2d_12">
      <g>
       <use xlink:href="#m93286762ff" x="325.918737" y="239.128" style="stroke: #000000; stroke-width: 0.6"/>
      </g>
     </g>
    </g>
    <g id="xtick_13">
     <g id="line2d_13">
      <g>
       <use xlink:href="#m93286762ff" x="359.902586" y="239.128" style="stroke: #000000; stroke-width: 0.6"/>
      </g>
     </g>
    </g>
    <g id="xtick_14">
     <g id="line2d_14">
      <g>
       <use xlink:href="#m93286762ff" x="384.01451" y="239.128" style="stroke: #000000; stroke-width: 0.6"/>
      </g>
     </g>
    </g>
    <g id="xtick_15">
     <g id="line2d_15">
      <g>
       <use xlink:href="#m93286762ff" x="402.717172" y="239.128" style="stroke: #000000; stroke-width: 0.6"/>
      </g>
     </g>
    </g>
    <g id="text_3">
     <!-- x [m] -->
     <g transform="translate(224.608125 267.404562) scale(0.1 -0.1)">
      <defs>
       <path id="DejaVuSans-78" d="M 3513 3500 
L 2247 1797 
L 3578 0 
L 2900 0 
L 1881 1375 
L 863 0 
L 184 0 
L 1544 1831 
L 300 3500 
L 978 3500 
L 1906 2253 
L 2834 3500 
L 3513 3500 
z
" transform="scale(0.015625)"/>
       <path id="DejaVuSans-20" transform="scale(0.015625)"/>
       <path id="DejaVuSans-5b" d="M 550 4863 
L 1875 4863 
L 1875 4416 
L 1125 4416 
L 1125 -397 
L 1875 -397 
L 1875 -844 
L 550 -844 
L 550 4863 
z
" transform="scale(0.015625)"/>
       <path id="DejaVuSans-6d" d="M 3328 2828 
Q 3544 3216 3844 3400 
Q 4144 3584 4550 3584 
Q 5097 3584 5394 3201 
Q 5691 2819 5691 2113 
L 5691 0 
L 5113 0 
L 5113 2094 
Q 5113 2597 4934 2840 
Q 4756 3084 4391 3084 
Q 3944 3084 3684 2787 
Q 3425 2491 3425 1978 
L 3425 0 
L 2847 0 
L 2847 2094 
Q 2847 2600 2669 2842 
Q 2491 3084 2119 3084 
Q 1678 3084 1418 2786 
Q 1159 2488 1159 1978 
L 1159 0 
L 581 0 
L 581 3500 
L 1159 3500 
L 1159 2956 
Q 1356 3278 1631 3431 
Q 1906 3584 2284 3584 
Q 2666 3584 2933 3390 
Q 3200 3197 3328 2828 
z
" transform="scale(0.015625)"/>
       <path id="DejaVuSans-5d" d="M 1947 4863 
L 1947 -844 
L 622 -844 
L 622 -397 
L 1369 -397 
L 1369 4416 
L 622 4416 
L 622 4863 
L 1947 4863 
z
" transform="scale(0.015625)"/>
      </defs>
      <use xlink:href="#DejaVuSans-78"/>
      <use xlink:href="#DejaVuSans-20" x="59.179688"/>
      <use xlink:href="#DejaVuSans-5b" x="90.966797"/>
      <use xlink:href="#DejaVuSans-6d" x="129.980469"/>
      <use xlink:href="#DejaVuSans-5d" x="227.392578"/>
     </g>
    </g>
   </g>
   <g id="matplotlib.axis_2">
    <g id="ytick_1">
     <g id="line2d_16">
      <defs>
       <path id="m3230edc996" d="M 0 0 
L -3.5 0 
" style="stroke: #000000; stroke-width: 0.8"/>
      </defs>
      <g>
       <use xlink:href="#m3230edc996" x="58.523438" y="228.991016" style="stroke: #000000; stroke-width: 0.8"/>
      </g>
     </g>
     <g id="text_4">
      <!-- −1.00 -->
      <g transform="translate(20.878125 232.790234) scale(0.1 -0.1)">
       <defs>
        <path id="DejaVuSans-2212" d="M 678 2272 
L 4684 2272 
L 4684 1741 
L 678 1741 
L 678 2272 
z
" transform="scale(0.015625)"/>
        <path id="DejaVuSans-2e" d="M 684 794 
L 1344 794 
L 1344 0 
L 684 0 
L 684 794 
z
" transform="scale(0.015625)"/>
       </defs>
       <use xlink:href="#DejaVuSans-2212"/>
       <use xlink:href="#DejaVuSans-31" x="83.789062"/>
       <use xlink:href="#DejaVuSans-2e" x="147.412109"/>
       <use xlink:href="#DejaVuSans-30" x="179.199219"/>
       <use xlink:href="#DejaVuSans-30" x="242.822266"/>
      </g>
     </g>
    </g>
    <g id="ytick_2">
     <g id="line2d_17">
      <g>
       <use xlink:href="#m3230edc996" x="58.523438" y="202.57928" style="stroke: #000000; stroke-width: 0.8"/>
      </g>
     </g>
     <g id="text_5">
      <!-- −0.75 -->
      <g transform="translate(20.878125 206.378499) scale(0.1 -0.1)">
       <defs>
        <path id="DejaVuSans-37" d="M 525 4666 
L 3525 4666 
L 3525 4397 
L 1831 0 
L 1172 0 
L 2766 4134 
L 525 4134 
L 525 4666 
z
" transform="scale(0.015625)"/>
        <path id="DejaVuSans-35" d="M 691 4666 
L 3169 4666 
L 3169 4134 
L 1269 4134 
L 1269 2991 
Q 1406 3038 1543 3061 
Q 1681 3084 1819 3084 
Q 2600 3084 3056 2656 
Q 3513 2228 3513 1497 
Q 3513 744 3044 326 
Q 2575 -91 1722 -91 
Q 1428 -91 1123 -41 
Q 819 9 494 109 
L 494 744 
Q 775 591 1075 516 
Q 1375 441 1709 441 
Q 2250 441 2565 725 
Q 2881 1009 2881 1497 
Q 2881 1984 2565 2268 
Q 2250 2553 1709 2553 
Q 1456 2553 1204 2497 
Q 953 2441 691 2322 
L 691 4666 
z
" transform="scale(0.015625)"/>
       </defs>
       <use xlink:href="#DejaVuSans-2212"/>
       <use xlink:href="#DejaVuSans-30" x="83.789062"/>
       <use xlink:href="#DejaVuSans-2e" x="147.412109"/>
       <use xlink:href="#DejaVuSans-37" x="179.199219"/>
       <use xlink:href="#DejaVuSans-35" x="242.822266"/>
      </g>
     </g>
    </g>
    <g id="ytick_3">
     <g id="line2d_18">
      <g>
       <use xlink:href="#m3230edc996" x="58.523438" y="176.167545" style="stroke: #000000; stroke-width: 0.8"/>
      </g>
     </g>
     <g id="text_6">
      <!-- −0.50 -->
      <g transform="translate(20.878125 179.966764) scale(0.1 -0.1)">
       <use xlink:href="#DejaVuSans-2212"/>
       <use xlink:href="#DejaVuSans-30" x="83.789062"/>
       <use xlink:href="#DejaVuSans-2e" x="147.412109"/>
       <use xlink:href="#DejaVuSans-35" x="179.199219"/>
       <use xlink:href="#DejaVuSans-30" x="242.822266"/>
      </g>
     </g>
    </g>
    <g id="ytick_4">
     <g id="line2d_19">
      <g>
       <use xlink:href="#m3230edc996" x="58.523438" y="149.75581" style="stroke: #000000; stroke-width: 0.8"/>
      </g>
     </g>
     <g id="text_7">
      <!-- −0.25 -->
      <g transform="translate(20.878125 153.555029) scale(0.1 -0.1)">
       <defs>
        <path id="DejaVuSans-32" d="M 1228 531 
L 3431 531 
L 3431 0 
L 469 0 
L 469 531 
Q 828 903 1448 1529 
Q 2069 2156 2228 2338 
Q 2531 2678 2651 2914 
Q 2772 3150 2772 3378 
Q 2772 3750 2511 3984 
Q 2250 4219 1831 4219 
Q 1534 4219 1204 4116 
Q 875 4013 500 3803 
L 500 4441 
Q 881 4594 1212 4672 
Q 1544 4750 1819 4750 
Q 2544 4750 2975 4387 
Q 3406 4025 3406 3419 
Q 3406 3131 3298 2873 
Q 3191 2616 2906 2266 
Q 2828 2175 2409 1742 
Q 1991 1309 1228 531 
z
" transform="scale(0.015625)"/>
       </defs>
       <use xlink:href="#DejaVuSans-2212"/>
       <use xlink:href="#DejaVuSans-30" x="83.789062"/>
       <use xlink:href="#DejaVuSans-2e" x="147.412109"/>
       <use xlink:href="#DejaVuSans-32" x="179.199219"/>
       <use xlink:href="#DejaVuSans-35" x="242.822266"/>
      </g>
     </g>
    </g>
    <g id="ytick_5">
     <g id="line2d_20">
      <g>
       <use xlink:href="#m3230edc996" x="58.523438" y="123.344075" style="stroke: #000000; stroke-width: 0.8"/>
      </g>
     </g>
     <g id="text_8">
      <!-- 0.00 -->
      <g transform="translate(29.257813 127.143294) scale(0.1 -0.1)">
       <use xlink:href="#DejaVuSans-30"/>
       <use xlink:href="#DejaVuSans-2e" x="63.623047"/>
       <use xlink:href="#DejaVuSans-30" x="95.410156"/>
       <use xlink:href="#DejaVuSans-30" x="159.033203"/>
      </g>
     </g>
    </g>
    <g id="ytick_6">
     <g id="line2d_21">
      <g>
       <use xlink:href="#m3230edc996" x="58.523438" y="96.93234" style="stroke: #000000; stroke-width: 0.8"/>
      </g>
     </g>
     <g id="text_9">
      <!-- 0.25 -->
      <g transform="translate(29.257813 100.731558) scale(0.1 -0.1)">
       <use xlink:href="#DejaVuSans-30"/>
       <use xlink:href="#DejaVuSans-2e" x="63.623047"/>
       <use xlink:href="#DejaVuSans-32" x="95.410156"/>
       <use xlink:href="#DejaVuSans-35" x="159.033203"/>
      </g>
     </g>
    </g>
    <g id="ytick_7">
     <g id="line2d_22">
      <g>
       <use xlink:href="#m3230edc996" x="58.523438" y="70.520605" style="stroke: #000000; stroke-width: 0.8"/>
      </g>
     </g>
     <g id="text_10">
      <!-- 0.50 -->
      <g transform="translate(29.257813 74.319823) scale(0.1 -0.1)">
       <use xlink:href="#DejaVuSans-30"/>
       <use xlink:href="#DejaVuSans-2e" x="63.623047"/>
       <use xlink:href="#DejaVuSans-35" x="95.410156"/>
       <use xlink:href="#DejaVuSans-30" x="159.033203"/>
      </g>
     </g>
    </g>
    <g id="ytick_8">
     <g id="line2d_23">
      <g>
       <use xlink:href="#m3230edc996" x="58.523438" y="44.108869" style="stroke: #000000; stroke-width: 0.8"/>
      </g>
     </g>
     <g id="text_11">
      <!-- 0.75 -->
      <g transform="translate(29.257813 47.908088) scale(0.1 -0.1)">
       <use xlink:href="#DejaVuSans-30"/>
       <use xlink:href="#DejaVuSans-2e" x="63.623047"/>
       <use xlink:href="#DejaVuSans-37" x="95.410156"/>
       <use xlink:href="#DejaVuSans-35" x="159.033203"/>
      </g>
     </g>
    </g>
    <g id="ytick_9">
     <g id="line2d_24">
      <g>
       <use xlink:href="#m3230edc996" x="58.523438" y="17.697134" style="stroke: #000000; stroke-width: 0.8"/>
      </g>
     </g>
     <g id="text_12">
      <!-- 1.00 -->
      <g transform="translate(29.257813 21.496353) scale(0.1 -0.1)">
       <use xlink:href="#DejaVuSans-31"/>
       <use xlink:href="#DejaVuSans-2e" x="63.623047"/>
       <use xlink:href="#DejaVuSans-30" x="95.410156"/>
       <use xlink:href="#DejaVuSans-30" x="159.033203"/>
      </g>
     </g>
    </g>
    <g id="text_13">
     <!-- [m/s] -->
     <g transform="translate(14.798438 136.224937) rotate(-90) scale(0.1 -0.1)">
      <defs>
       <path id="DejaVuSans-2f" d="M 1625 4666 
L 2156 4666 
L 531 -594 
L 0 -594 
L 1625 4666 
z
" transform="scale(0.015625)"/>
       <path id="DejaVuSans-73" d="M 2834 3397 
L 2834 2853 
Q 2591 2978 2328 3040 
Q 2066 3103 1784 3103 
Q 1356 3103 1142 2972 
Q 928 2841 928 2578 
Q 928 2378 1081 2264 
Q 1234 2150 1697 2047 
L 1894 2003 
Q 2506 1872 2764 1633 
Q 3022 1394 3022 966 
Q 3022 478 2636 193 
Q 2250 -91 1575 -91 
Q 1294 -91 989 -36 
Q 684 19 347 128 
L 347 722 
Q 666 556 975 473 
Q 1284 391 1588 391 
Q 1994 391 2212 530 
Q 2431 669 2431 922 
Q 2431 1156 2273 1281 
Q 2116 1406 1581 1522 
L 1381 1569 
Q 847 1681 609 1914 
Q 372 2147 372 2553 
Q 372 3047 722 3315 
Q 1072 3584 1716 3584 
Q 2034 3584 2315 3537 
Q 2597 3491 2834 3397 
z
" transform="scale(0.015625)"/>
      </defs>
      <use xlink:href="#DejaVuSans-5b"/>
      <use xlink:href="#DejaVuSans-6d" x="39.013672"/>
      <use xlink:href="#DejaVuSans-2f" x="136.425781"/>
      <use xlink:href="#DejaVuSans-73" x="170.117188"/>
      <use xlink:href="#DejaVuSans-5d" x="222.216797"/>
     </g>
    </g>
   </g>
   <g id="patch_3">
    <path d="M 58.523438 239.128 
L 58.523438 7.2 
" style="fill: none; stroke: #000000; stroke-width: 0.8; stroke-linejoin: miter; stroke-linecap: square"/>
   </g>
   <g id="patch_4">
    <path d="M 417.333438 239.128 
L 417.333438 7.2 
" style="fill: none; stroke: #000000; stroke-width: 0.8; stroke-linejoin: miter; stroke-linecap: square"/>
   </g>
   <g id="patch_5">
    <path d="M 58.523438 239.128 
L 417.333438 239.128 
" style="fill: none; stroke: #000000; stroke-width: 0.8; stroke-linejoin: miter; stroke-linecap: square"/>
   </g>
   <g id="patch_6">
    <path d="M 58.523438 7.2 
L 417.333438 7.2 
" style="fill: none; stroke: #000000; stroke-width: 0.8; stroke-linejoin: miter; stroke-linecap: square"/>
   </g>
   <g id="line2d_25">
    <defs>
     <path id="mb6f0384a20" d="M 0 3 
C 0.795609 3 1.55874 2.683901 2.12132 2.12132 
C 2.683901 1.55874 3 0.795609 3 0 
C 3 -0.795609 2.683901 -1.55874 2.12132 -2.12132 
C 1.55874 -2.683901 0.795609 -3 0 -3 
C -0.795609 -3 -1.55874 -2.683901 -2.12132 -2.12132 
C -2.683901 -1.55874 -3 -0.795609 -3 0 
C -3 0.795609 -2.683901 1.55874 -2.12132 2.12132 
C -1.55874 2.683901 -0.795609 3 0 3 
z
" style="stroke: #1f77b4"/>
    </defs>
    <g clip-path="url(#p1f797f64fd)">
     <use xlink:href="#mb6f0384a20" x="-1" y="102.363515" style="fill: #1f77b4; stroke: #1f77b4"/>
     <use xlink:href="#mb6f0384a20" x="74.832983" y="102.355268" style="fill: #1f77b4; stroke: #1f77b4"/>
     <use xlink:href="#mb6f0384a20" x="132.928756" y="82.203218" style="fill: #1f77b4; stroke: #1f77b4"/>
     <use xlink:href="#mb6f0384a20" x="166.912605" y="63.691325" style="fill: #1f77b4; stroke: #1f77b4"/>
     <use xlink:href="#mb6f0384a20" x="191.024529" y="47.557599" style="fill: #1f77b4; stroke: #1f77b4"/>
     <use xlink:href="#mb6f0384a20" x="209.727191" y="34.44524" style="fill: #1f77b4; stroke: #1f77b4"/>
     <use xlink:href="#mb6f0384a20" x="225.008378" y="24.876997" style="fill: #1f77b4; stroke: #1f77b4"/>
     <use xlink:href="#mb6f0384a20" x="237.928438" y="19.234326" style="fill: #1f77b4; stroke: #1f77b4"/>
     <use xlink:href="#mb6f0384a20" x="249.120302" y="17.742182" style="fill: #1f77b4; stroke: #1f77b4"/>
     <use xlink:href="#mb6f0384a20" x="258.992227" y="20.460052" style="fill: #1f77b4; stroke: #1f77b4"/>
     <use xlink:href="#mb6f0384a20" x="267.822964" y="27.279584" style="fill: #1f77b4; stroke: #1f77b4"/>
     <use xlink:href="#mb6f0384a20" x="275.811337" y="37.928903" style="fill: #1f77b4; stroke: #1f77b4"/>
     <use xlink:href="#mb6f0384a20" x="283.104151" y="51.983456" style="fill: #1f77b4; stroke: #1f77b4"/>
     <use xlink:href="#mb6f0384a20" x="289.812889" y="68.882932" style="fill: #1f77b4; stroke: #1f77b4"/>
     <use xlink:href="#mb6f0384a20" x="296.024211" y="87.953602" style="fill: #1f77b4; stroke: #1f77b4"/>
     <use xlink:href="#mb6f0384a20" x="301.806812" y="108.435178" style="fill: #1f77b4; stroke: #1f77b4"/>
     <use xlink:href="#mb6f0384a20" x="307.216075" y="129.511125" style="fill: #1f77b4; stroke: #1f77b4"/>
     <use xlink:href="#mb6f0384a20" x="312.297297" y="150.341211" style="fill: #1f77b4; stroke: #1f77b4"/>
     <use xlink:href="#mb6f0384a20" x="317.088" y="170.095006" style="fill: #1f77b4; stroke: #1f77b4"/>
     <use xlink:href="#mb6f0384a20" x="321.619616" y="187.984989" style="fill: #1f77b4; stroke: #1f77b4"/>
     <use xlink:href="#mb6f0384a20" x="325.918737" y="203.297943" style="fill: #1f77b4; stroke: #1f77b4"/>
     <use xlink:href="#mb6f0384a20" x="330.008059" y="215.423389" style="fill: #1f77b4; stroke: #1f77b4"/>
     <use xlink:href="#mb6f0384a20" x="333.90711" y="223.877923" style="fill: #1f77b4; stroke: #1f77b4"/>
     <use xlink:href="#mb6f0384a20" x="337.632812" y="228.324489" style="fill: #1f77b4; stroke: #1f77b4"/>
     <use xlink:href="#mb6f0384a20" x="341.199924" y="228.585818" style="fill: #1f77b4; stroke: #1f77b4"/>
     <use xlink:href="#mb6f0384a20" x="344.621398" y="224.651491" style="fill: #1f77b4; stroke: #1f77b4"/>
     <use xlink:href="#mb6f0384a20" x="347.908662" y="216.678356" style="fill: #1f77b4; stroke: #1f77b4"/>
     <use xlink:href="#mb6f0384a20" x="351.071848" y="204.984279" style="fill: #1f77b4; stroke: #1f77b4"/>
     <use xlink:href="#mb6f0384a20" x="354.119984" y="190.035464" style="fill: #1f77b4; stroke: #1f77b4"/>
     <use xlink:href="#mb6f0384a20" x="357.061145" y="172.427874" style="fill: #1f77b4; stroke: #1f77b4"/>
     <use xlink:href="#mb6f0384a20" x="359.902586" y="152.863467" style="fill: #1f77b4; stroke: #1f77b4"/>
     <use xlink:href="#mb6f0384a20" x="362.650848" y="132.122216" style="fill: #1f77b4; stroke: #1f77b4"/>
     <use xlink:href="#mb6f0384a20" x="365.311848" y="111.031008" style="fill: #1f77b4; stroke: #1f77b4"/>
     <use xlink:href="#mb6f0384a20" x="367.890959" y="90.430683" style="fill: #1f77b4; stroke: #1f77b4"/>
     <use xlink:href="#mb6f0384a20" x="370.39307" y="71.142511" style="fill: #1f77b4; stroke: #1f77b4"/>
     <use xlink:href="#mb6f0384a20" x="372.822645" y="53.935451" style="fill: #1f77b4; stroke: #1f77b4"/>
     <use xlink:href="#mb6f0384a20" x="375.183773" y="39.495493" style="fill: #1f77b4; stroke: #1f77b4"/>
     <use xlink:href="#mb6f0384a20" x="377.480204" y="28.398314" style="fill: #1f77b4; stroke: #1f77b4"/>
     <use xlink:href="#mb6f0384a20" x="379.715389" y="21.086323" style="fill: #1f77b4; stroke: #1f77b4"/>
     <use xlink:href="#mb6f0384a20" x="381.892511" y="17.851025" style="fill: #1f77b4; stroke: #1f77b4"/>
     <use xlink:href="#mb6f0384a20" x="384.01451" y="18.821403" style="fill: #1f77b4; stroke: #1f77b4"/>
     <use xlink:href="#mb6f0384a20" x="386.084109" y="23.95877" style="fill: #1f77b4; stroke: #1f77b4"/>
     <use xlink:href="#mb6f0384a20" x="388.103832" y="33.058315" style="fill: #1f77b4; stroke: #1f77b4"/>
     <use xlink:href="#mb6f0384a20" x="390.076029" y="45.757268" style="fill: #1f77b4; stroke: #1f77b4"/>
     <use xlink:href="#mb6f0384a20" x="392.002883" y="61.549363" style="fill: #1f77b4; stroke: #1f77b4"/>
     <use xlink:href="#mb6f0384a20" x="393.886434" y="79.805018" style="fill: #1f77b4; stroke: #1f77b4"/>
     <use xlink:href="#mb6f0384a20" x="395.728585" y="99.796437" style="fill: #1f77b4; stroke: #1f77b4"/>
     <use xlink:href="#mb6f0384a20" x="397.531117" y="120.726627" style="fill: #1f77b4; stroke: #1f77b4"/>
     <use xlink:href="#mb6f0384a20" x="399.295697" y="141.761166" style="fill: #1f77b4; stroke: #1f77b4"/>
     <use xlink:href="#mb6f0384a20" x="401.023892" y="162.061474" style="fill: #1f77b4; stroke: #1f77b4"/>
    </g>
   </g>
  </g>
 </g>
 <defs>
  <clipPath id="p1f797f64fd">
   <rect x="58.523438" y="7.2" width="358.81" height="231.928"/>
  </clipPath>
 </defs>
</svg>
