<?xml version="1.0" encoding="UTF-8" standalone="no"?>
<!DOCTYPE svg PUBLIC "-//W3C//DTD SVG 1.1//EN"
 "http://www.w3.org/Graphics/SVG/1.1/DTD/svg11.dtd">
<!-- Generated by graphviz version 2.43.0 (0)
 -->
<!-- Title: %3 Pages: 1 -->
<svg width="372pt" height="105pt"
 viewBox="0.00 0.00 371.50 105.00" xmlns="http://www.w3.org/2000/svg" xmlns:xlink="http://www.w3.org/1999/xlink">
<g id="graph0" class="graph" transform="scale(1 1) rotate(0) translate(4 101)">
<title>%3</title>
<polygon fill="white" stroke="transparent" points="-4,4 -4,-101 367.5,-101 367.5,4 -4,4"/>
<!-- 568782d17d784beb896fdd68a35d35e2 -->
<g id="node1" class="node">
<title>568782d17d784beb896fdd68a35d35e2</title>
<polygon fill="none" stroke="black" points="285,-23 62,-23 62,0 285,0 285,-23"/>
<text text-anchor="middle" x="173.5" y="-7.8" font-family="Times,serif" font-size="14.00">gaussian_filter(arg_0, sigma)</text>
</g>
<!-- 035e76625b4943f9af888ec11448881b -->
<g id="node2" class="node">
<title>035e76625b4943f9af888ec11448881b</title>
<polygon fill="none" stroke="black" points="157,-97 0,-97 0,-74 157,-74 157,-97"/>
<text text-anchor="middle" x="78.5" y="-81.8" font-family="Times,serif" font-size="14.00">Input &lt;DataArray&gt;</text>
</g>
<!-- 035e76625b4943f9af888ec11448881b&#45;&gt;568782d17d784beb896fdd68a35d35e2 -->
<g id="edge1" class="edge">
<title>035e76625b4943f9af888ec11448881b&#45;&gt;568782d17d784beb896fdd68a35d35e2</title>
<path fill="none" stroke="black" d="M92.52,-73.88C107.95,-62.18 132.99,-43.21 151.14,-29.45"/>
<polygon fill="black" stroke="black" points="153.57,-32 159.42,-23.17 149.34,-26.42 153.57,-32"/>
<text text-anchor="middle" x="155.5" y="-44.8" font-family="Times,serif" font-size="14.00">arg_0</text>
</g>
<!-- 848498f3e9dc4e92b7d259b8af4a1805 -->
<g id="node3" class="node">
<title>848498f3e9dc4e92b7d259b8af4a1805</title>
<polygon fill="none" stroke="black" points="363.5,-97 175.5,-97 175.5,-74 363.5,-74 363.5,-97"/>
<text text-anchor="middle" x="269.5" y="-81.8" font-family="Times,serif" font-size="14.00">Widget &lt;IntSlider: int&gt;</text>
</g>
<!-- 848498f3e9dc4e92b7d259b8af4a1805&#45;&gt;568782d17d784beb896fdd68a35d35e2 -->
<g id="edge2" class="edge">
<title>848498f3e9dc4e92b7d259b8af4a1805&#45;&gt;568782d17d784beb896fdd68a35d35e2</title>
<path fill="none" stroke="black" d="M255.33,-73.88C239.74,-62.18 214.44,-43.21 196.1,-29.45"/>
<polygon fill="black" stroke="black" points="197.82,-26.37 187.72,-23.17 193.62,-31.97 197.82,-26.37"/>
<text text-anchor="middle" x="251" y="-44.8" font-family="Times,serif" font-size="14.00">sigma</text>
</g>
</g>
</svg>
