<?xml version="1.0" encoding="UTF-8" standalone="no"?>
<!-- Created with Inkscape (http://www.inkscape.org/) -->

<svg
   xmlns:dc="http://purl.org/dc/elements/1.1/"
   xmlns:cc="http://creativecommons.org/ns#"
   xmlns:rdf="http://www.w3.org/1999/02/22-rdf-syntax-ns#"
   xmlns:svg="http://www.w3.org/2000/svg"
   xmlns="http://www.w3.org/2000/svg"
   xmlns:sodipodi="http://sodipodi.sourceforge.net/DTD/sodipodi-0.dtd"
   xmlns:inkscape="http://www.inkscape.org/namespaces/inkscape"
   width="41.445713mm"
   height="20.890667mm"
   viewBox="0 0 41.445714 20.890667"
   version="1.1"
   id="svg901"
   inkscape:version="0.92.5 (2060ec1f9f, 2020-04-08)"
   sodipodi:docname="logo.svg">
  <defs
     id="defs895" />
  <sodipodi:namedview
     id="base"
     pagecolor="#ffffff"
     bordercolor="#666666"
     borderopacity="1.0"
     inkscape:pageopacity="0.0"
     inkscape:pageshadow="2"
     inkscape:zoom="5.6"
     inkscape:cx="57.980409"
     inkscape:cy="18.713081"
     inkscape:document-units="mm"
     inkscape:current-layer="g2125"
     showgrid="false"
     inkscape:window-width="1720"
     inkscape:window-height="1384"
     inkscape:window-x="1718"
     inkscape:window-y="0"
     inkscape:window-maximized="0" />
  <metadata
     id="metadata898">
    <rdf:RDF>
      <cc:Work
         rdf:about="">
        <dc:format>image/svg+xml</dc:format>
        <dc:type
           rdf:resource="http://purl.org/dc/dcmitype/StillImage" />
        <dc:title />
      </cc:Work>
    </rdf:RDF>
  </metadata>
  <g
     inkscape:label="Layer 1"
     inkscape:groupmode="layer"
     id="layer1"
     transform="translate(-55.112344,-72.251882)">
    <g
       transform="translate(-26.509745,-30.191963)"
       id="g1625">
      <g
         id="g1473">
        <g
           id="g1616"
           transform="matrix(1.569263,0,0,1.569263,-71.926004,-64.000944)">
          <g
             id="g1490">
            <g
               id="g1480">
              <g
                 id="g2125">
                <g
                   id="g2355">
                  <path
                     transform="matrix(0.16860356,0,0,0.16860356,97.847265,106.06558)"
                     id="path979"
                     d="M 60.003906 0.001953125 C 59.946583 0.015659463 59.833592 0.094828309 59.662109 0.25 C 59.422494 0.46648416 59.33463 0.48188318 59.28125 0.31640625 C 59.239732 0.19956412 59.228301 0.22494386 59.246094 0.375 C 59.293661 0.70026003 57.847138 2.7544795 54.894531 6.5507812 C 54.41192 7.1714087 53.710188 8.1079126 53.335938 8.6328125 L 53.341797 8.6328125 C 52.967546 9.1577124 52.747176 9.536538 52.851562 9.4707031 C 53.063065 9.339923 55.229878 6.6284039 55.650391 5.96875 C 56.05833 5.3284314 56.43088 5.0044254 56.623047 5.1230469 C 56.723875 5.18473 56.749429 5.1557612 56.683594 5.0507812 C 56.542553 4.8226129 57.353991 3.5735018 57.605469 3.6328125 C 57.712821 3.6565368 57.738303 3.6508925 57.671875 3.609375 C 57.442936 3.4812638 57.722426 3.2606433 58 3.3496094 C 58.226567 3.4213754 58.23489 3.4068866 58.046875 3.2734375 C 57.880212 3.1565954 57.862614 3.0495061 57.982422 2.8964844 C 58.074354 2.7789305 58.597267 2.1119718 59.146484 1.4140625 C 59.851985 0.51528256 60.175875 -0.03916589 60.003906 0.001953125 z M 9.9804688 0.84960938 C 9.9244201 0.84738522 9.8608589 0.85713508 9.8027344 0.88085938 C 9.6740301 0.93127349 9.7129687 0.97258455 9.9003906 0.97851562 C 10.070612 0.98563291 10.164708 0.94595778 10.111328 0.89257812 C 10.084638 0.8658883 10.036517 0.85183353 9.9804688 0.84960938 z M 11.193359 1.6914062 C 11.042391 1.7034908 10.790907 1.78183 10.435547 1.9277344 C 9.9201367 2.1406599 9.8447122 2.2868357 10.314453 2.1640625 C 10.512551 2.1124622 10.638672 2.1600106 10.638672 2.2851562 C 10.638672 2.397728 10.824214 2.7341033 11.050781 3.03125 C 11.277941 3.3281002 11.424473 3.6361343 11.371094 3.7167969 C 11.321866 3.7980526 11.357461 3.8843354 11.451172 3.9199219 C 11.544883 3.9507635 11.661536 4.2300536 11.708984 4.5390625 C 11.902041 4.8144422 11.450861 3.9210277 13.337891 7.15625 C 13.315708 7.1785508 13.641987 7.6432013 14.0625 8.1894531 C 14.482657 8.7357642 14.902976 9.3510062 14.996094 9.5585938 C 15.15406 9.9098142 15.376789 10.306283 15.685547 10.783203 C 15.75812 10.893628 15.882203 10.984375 15.962891 10.984375 C 16.181213 10.984375 14.317163 7.4045427 13.818359 6.8671875 C 13.582896 6.6132783 13.299771 6.1845194 13.189453 5.9140625 C 13.078542 5.6436056 12.896313 5.3258265 12.78125 5.2089844 C 12.66678 5.0919643 12.572266 4.8244274 12.572266 4.6132812 C 12.572266 4.4021351 12.466595 4.1694222 12.337891 4.0976562 C 12.031966 3.9264855 11.24285 2.1328692 11.349609 1.8535156 C 11.39599 1.7328183 11.344327 1.6793217 11.193359 1.6914062 z M 44.78125 3.4941406 C 44.666539 3.4375916 44.597271 3.5496491 44.443359 3.9179688 C 44.315841 4.2230038 44.201315 4.9228458 44.189453 5.4726562 L 44.183594 5.4726562 C 44.174104 6.0228226 44.200598 6.4726562 44.248047 6.4726562 C 44.34413 6.4726562 44.700396 5.6040175 44.619141 5.5625 C 44.590671 5.5494516 44.705964 5.3854544 44.875 5.1992188 C 45.240947 4.7990493 45.260611 3.948111 44.916016 3.6035156 C 44.862636 3.5504325 44.819487 3.5129903 44.78125 3.4941406 z M 12.8125 4.4570312 C 12.799804 4.4591349 12.787723 4.4754371 12.777344 4.5039062 C 12.735826 4.6177828 12.741542 4.815422 12.794922 4.9453125 L 12.798828 4.9453125 C 12.943546 5.3324929 13.022979 5.2164995 12.931641 4.7402344 C 12.896054 4.5582987 12.850589 4.4507202 12.8125 4.4570312 z M 21.226562 5.1367188 C 21.173273 5.0935354 21.19059 5.2868277 21.367188 5.9042969 C 21.505381 6.2340645 21.646054 6.4789458 21.681641 6.4433594 C 21.601571 5.9373647 21.315378 5.2086909 21.226562 5.1367188 z M 30.292969 6.9550781 C 29.867711 6.9548409 29.856414 7.0753957 30.166016 8.3691406 C 30.329713 9.0542388 30.464191 9.8128735 30.464844 10.056641 C 30.464844 10.300408 30.532792 10.5 30.615234 10.5 C 30.7042 10.5 30.729233 10.078771 30.669922 9.4921875 C 30.613577 8.9380474 30.564525 8.1418093 30.558594 7.7207031 C 30.549697 7.1346538 30.488101 6.9551967 30.292969 6.9550781 z M 21.855469 7.1171875 C 21.847462 7.183319 21.958683 7.6445077 22.185547 8.5253906 C 22.328486 9.0791749 22.510194 9.5332031 22.587891 9.5332031 C 22.768195 9.5332031 22.798175 9.665687 22.238281 8.0820312 C 21.990066 7.3796736 21.863476 7.051056 21.855469 7.1171875 z M 24.552734 8.78125 C 24.517741 8.8192089 24.534439 9.0426471 24.59375 9.2792969 C 24.653061 9.5159467 24.729967 9.6821425 24.771484 9.640625 C 24.806478 9.6032592 24.787826 9.3792279 24.728516 9.1425781 C 24.669205 8.9059283 24.594252 8.7397325 24.552734 8.78125 z M 39.980469 9.0644531 C 39.928288 9.0632712 39.870029 9.0928617 39.806641 9.15625 C 39.727757 9.2350146 39.623692 9.8294232 39.570312 10.476562 C 39.519305 11.123465 39.33725 12.100406 39.164062 12.648438 C 38.760275 13.928244 37.972915 15.533462 37.822266 15.382812 C 37.762955 15.318757 37.755214 15.383986 37.808594 15.529297 C 37.939552 15.870571 37.136955 16.24557 36.042969 16.353516 C 35.574592 16.399778 35.167552 16.537618 35.056641 16.689453 C 34.50167 17.447563 33.767836 16.170495 34.150391 15.113281 C 34.382296 14.462939 34.39157 13.884766 34.167969 13.884766 C 34.075444 13.884766 33.839664 14.051064 33.644531 14.253906 C 33.174672 14.740788 32.475863 15.175781 32.162109 15.175781 C 32.023915 15.175781 31.869786 15.28316 31.816406 15.416016 C 31.655081 15.8373 31.502383 15.680001 31.466797 15.054688 C 31.405707 13.976359 31.256292 12.848167 31.107422 12.353516 C 31.027352 12.087507 30.92252 11.662646 30.869141 11.408203 C 30.682905 10.489777 30.629517 11.123378 30.789062 12.369141 C 30.879215 13.070134 30.991614 14.04117 31.039062 14.529297 C 31.085918 15.016772 31.155748 15.51053 31.197266 15.625 C 31.237004 15.738877 31.168288 15.87052 31.044922 15.917969 C 30.921556 15.965417 30.781895 16.16731 30.728516 16.367188 C 30.678102 16.567005 30.45271 16.929294 30.228516 17.171875 C 29.781016 17.655257 29.419075 17.636617 28.726562 17.095703 C 28.302313 16.764571 28.024492 16.829024 27.46875 17.384766 L 27.078125 17.773438 L 26.583984 17.28125 C 26.209615 16.907592 25.946334 16.787109 25.490234 16.787109 C 24.866641 16.787109 24.60873 16.957007 23.820312 17.894531 C 23.559286 18.204133 23.302317 18.371535 23.191406 18.302734 C 23.056178 18.219106 23.03722 18.298005 23.125 18.576172 C 23.401269 19.447862 23.320017 19.747847 22.730469 20.039062 C 22.420214 20.192084 22.125574 20.323147 22.078125 20.326172 C 22.029075 20.330442 21.684971 20.032382 21.3125 19.664062 C 20.636358 18.993851 20.490412 18.957296 20.798828 19.533203 C 20.939988 19.797136 20.89182 19.858708 20.4375 19.978516 C 19.727669 20.165641 19.541372 20.098039 18.699219 19.355469 C 18.301422 19.004527 17.812565 18.674473 17.613281 18.621094 C 17.344011 18.549328 17.25 18.405909 17.25 18.0625 C 17.25 17.712211 17.134118 17.540764 16.767578 17.351562 C 16.337575 17.130215 16.283203 17.017446 16.283203 16.378906 C 16.283203 15.982651 16.317857 15.658203 16.359375 15.658203 C 16.401486 15.658203 16.55084 15.880701 16.691406 16.152344 C 16.932386 16.618526 17.247799 16.7189 17.365234 16.367188 C 17.394356 16.279941 16.767657 15.53134 15.972656 14.703125 C 15.177655 13.87491 14.418779 12.96898 14.287109 12.691406 C 14.155914 12.414188 13.862866 12.015241 13.638672 11.804688 C 13.413884 11.594134 13.278652 11.346779 13.332031 11.257812 C 13.389563 11.162915 13.351912 11.143323 13.242188 11.210938 C 13.128341 11.280924 12.875494 11.117255 12.613281 10.804688 C 11.738863 9.762598 11.465728 9.5341829 11.214844 9.6308594 C 10.842372 9.7737982 10.911364 10.210755 11.376953 10.662109 C 11.60352 10.881737 11.962263 11.232632 12.175781 11.441406 C 12.388707 11.650477 12.649519 12.01377 12.753906 12.248047 C 12.858323 12.482443 13.404705 13.019881 13.96875 13.443359 C 14.532558 13.866601 14.994141 14.320688 14.994141 14.451172 C 14.994141 14.581655 15.048806 14.668184 15.115234 14.650391 C 15.181662 14.630225 15.434387 14.787074 15.675781 15 C 16.051218 15.331013 16.111472 15.50414 16.099609 16.207031 C 16.09012 16.658089 15.991944 17.155327 15.882812 17.3125 C 15.772495 17.469436 15.720201 17.774517 15.761719 17.992188 C 15.819132 18.2923 15.97001 18.415084 16.382812 18.492188 C 16.85374 18.579967 16.929688 18.65706 16.929688 19.058594 C 16.929688 19.763739 16.927576 19.770177 16.666016 19.716797 C 16.029612 19.585542 15.701908 20.690189 16.222656 21.210938 C 16.617784 21.606006 16.986504 21.227419 16.875 20.541016 C 16.829924 20.248614 16.852062 20.009766 16.923828 20.009766 C 17.169968 20.009766 17.452738 20.487571 17.355469 20.740234 C 17.305055 20.873684 17.321753 20.957605 17.396484 20.910156 C 17.471216 20.864487 17.626532 21.003452 17.742188 21.21875 C 17.933761 21.575563 17.90174 21.665442 17.402344 22.246094 C 17.100927 22.596502 16.613727 22.968646 16.318359 23.074219 C 15.843043 23.243847 15.74156 23.227847 15.421875 22.927734 C 15.223184 22.741499 14.974121 22.589844 14.869141 22.589844 C 14.551235 22.589844 14.655455 23.365299 15.060547 24.007812 C 15.565281 24.807677 15.735935 25.582427 15.445312 25.759766 C 15.324319 25.833726 15.10088 26.16378 14.947266 26.494141 C 14.650119 27.133451 13.66418 27.999737 13.412109 27.84375 C 13.329074 27.79215 13.215489 27.8647 13.162109 28.005859 C 13.099833 28.169557 12.965215 28.225817 12.789062 28.158203 C 12.633668 28.097706 12.561118 28.098228 12.626953 28.164062 C 12.790651 28.32776 12.420406 28.727475 12.21875 28.603516 C 12.129191 28.544798 12.098964 28.57391 12.152344 28.664062 C 12.208689 28.754808 12.107446 28.961129 11.927734 29.123047 C 11.648203 29.376897 11.511239 29.393011 10.953125 29.244141 C 10.430835 29.104167 10.285004 29.11249 10.216797 29.291016 C 10.170535 29.414382 10.078147 29.480971 10.011719 29.439453 C 9.9452314 29.397936 9.7293478 29.537494 9.53125 29.748047 C 9.178025 30.123484 9.1559218 30.125465 8.4277344 29.876953 C 7.3463871 29.50804 6.8770646 29.242394 7.1328125 29.144531 C 7.2498919 29.100048 7.0557314 29.070241 6.7011719 29.076172 C 6.331067 29.083882 5.4908086 28.871539 4.7304688 28.576172 C 3.2725873 28.010941 2.5898438 27.924506 2.5898438 28.304688 C 2.5898438 28.43695 2.6632243 28.546875 2.7519531 28.546875 C 2.840682 28.546875 2.9126865 28.672731 2.9140625 28.828125 C 2.9161384 29.06774 2.9406082 29.073691 3.0664062 28.875 C 3.1957629 28.676309 3.2318802 28.680031 3.3203125 28.910156 C 3.3768356 29.054281 3.5245926 29.137292 3.6503906 29.089844 C 3.7761887 29.041802 3.8789062 29.07935 3.8789062 29.171875 C 3.8789062 29.26262 4.0070711 29.328197 4.1621094 29.322266 C 4.5175408 29.298541 6.1225383 29.676135 6.5039062 29.873047 C 6.6612576 29.954896 6.7410741 30.102123 6.6796875 30.201172 C 6.6056084 30.323945 6.6630647 30.345623 6.8554688 30.271484 C 7.0142436 30.211581 7.2333769 30.23466 7.3417969 30.324219 C 7.4502287 30.414371 7.9164012 30.520911 8.3789062 30.568359 C 9.2029221 30.646946 9.794179 30.986895 9.6132812 31.279297 C 9.5634602 31.357587 9.6604494 31.393152 9.8300781 31.345703 C 10.095553 31.27625 10.511002 31.703588 10.570312 32.101562 C 10.59374 32.267277 11.030244 32.987275 11.226562 33.183594 C 11.387888 33.344326 11.445884 33.34586 11.511719 33.1875 C 11.556202 33.077182 11.607207 33.18592 11.625 33.429688 C 11.636862 33.67387 11.671732 33.965261 11.683594 34.076172 C 11.699015 34.187083 11.582188 34.448243 11.423828 34.658203 C 11.270806 34.868163 11.177161 35.104537 11.224609 35.181641 C 11.273244 35.264676 11.186992 35.276108 11.035156 35.216797 C 10.874424 35.160452 10.79623 35.178858 10.849609 35.263672 C 10.90121 35.346114 10.832494 35.558222 10.697266 35.734375 C 10.527044 35.95679 10.42838 35.992896 10.375 35.853516 C 10.333482 35.742605 10.236493 35.652344 10.158203 35.652344 C 10.081099 35.652344 10.056067 35.757248 10.103516 35.884766 C 7.8829279 36.485939 1.4311845 32.028045 8.2011719 36.773438 C 8.2551446 36.867148 8.4651118 37.102823 8.5625 36.982422 C 8.9005059 36.668431 9.0055948 36.730894 9.3554688 37.455078 C 9.7658397 38.302688 9.7656313 38.464366 9.3417969 38.859375 C 8.9281639 39.244598 9.0277226 39.929357 9.5214844 40.085938 C 9.6988235 40.142283 9.84375 40.299306 9.84375 40.4375 C 9.84375 40.658729 9.8837487 40.663811 10.113281 40.474609 C 10.312565 40.303794 10.397864 40.293968 10.445312 40.4375 C 10.480899 40.544141 10.608115 40.594324 10.728516 40.546875 C 11.015283 40.436854 11.235374 40.869909 11.378906 41.824219 C 11.472617 42.44793 11.440296 42.65648 11.208984 42.912109 C 10.887342 43.267381 10.328325 43.326372 10.037109 43.035156 C 9.91315 42.914162 9.84375 42.905307 9.84375 43.015625 C 9.84375 43.109929 9.5445712 43.229895 9.1777344 43.277344 C 8.2887555 43.396558 7.987038 43.705373 8.1835938 44.294922 C 8.3259632 44.718994 8.3800141 44.742689 9.1875 44.701172 C 9.8639982 44.665585 10.014124 44.701465 9.9121094 44.871094 C 9.8112811 45.039536 9.8347273 45.046223 10.015625 44.90625 C 10.44456 44.573517 11.232489 44.669822 11.453125 45.082031 C 11.563443 45.289026 11.623549 45.555974 11.582031 45.675781 C 11.542293 45.794996 11.623105 45.982665 11.763672 46.091797 C 11.987273 46.266764 11.988909 46.307814 11.775391 46.453125 C 11.580851 46.58776 11.5758 46.642576 11.751953 46.755859 C 11.918023 46.862619 11.867368 46.974522 11.529297 47.240234 C 11.288199 47.429436 10.971483 47.583984 10.826172 47.583984 C 10.43312 47.583984 10.005859 48.166363 10.005859 48.703125 C 10.005859 49.096948 10.07912 49.181067 10.449219 49.228516 C 10.910478 49.283793 11.27024 49.147895 11.916016 48.675781 C 12.204088 48.465228 12.373738 48.436761 12.607422 48.5625 C 12.775864 48.653839 12.875574 48.793397 12.828125 48.871094 C 12.675696 49.117826 12.978235 49.17237 13.195312 48.9375 C 13.364941 48.753637 13.358326 48.712891 13.154297 48.712891 C 13.017289 48.712891 12.90625 48.636087 12.90625 48.542969 C 12.90625 48.242263 13.448932 48.655691 13.472656 48.976562 C 13.486298 49.141565 13.548111 49.431126 13.607422 49.619141 C 13.689271 49.868305 13.611774 50.064396 13.316406 50.34375 C 13.093991 50.554303 12.909745 50.795104 12.908203 50.876953 C 12.907017 50.959395 12.687413 51.213653 12.419922 51.441406 C 11.950774 51.841635 11.941085 51.872343 12.177734 52.318359 C 12.31237 52.572624 12.421875 52.8819 12.421875 53.005859 C 12.421875 53.202178 12.507691 53.197924 12.986328 52.998047 C 13.348124 52.844432 13.550781 52.822683 13.550781 52.933594 C 13.550781 53.03976 13.642841 53.027735 13.798828 52.898438 C 14.001078 52.730054 14.083828 52.729576 14.242188 52.900391 C 14.398175 53.070612 14.37752 53.091267 14.136719 53.005859 C 13.912524 52.926976 13.859701 52.960494 13.929688 53.142578 C 13.984846 53.28611 13.934159 53.386719 13.806641 53.386719 C 13.686833 53.386719 13.504184 53.488136 13.400391 53.613281 C 13.297071 53.737834 12.962886 53.960157 12.65625 54.105469 C 12.244634 54.30072 12.099609 54.47127 12.099609 54.763672 C 12.099609 55.262475 12.598824 55.295278 13.335938 54.845703 C 13.617604 54.673702 14.109062 54.485092 14.425781 54.425781 C 14.743094 54.366471 15 54.247517 15 54.162109 C 15 54.073736 15.127809 54.032773 15.283203 54.068359 C 15.439843 54.10276 15.761673 53.928026 16.007812 53.677734 C 16.287759 53.39067 16.451172 53.312313 16.451172 53.457031 C 16.451172 53.676244 15.173628 54.835938 14.931641 54.835938 C 14.868178 54.835938 14.723845 54.928151 14.609375 55.039062 C 13.840115 55.785132 13.228614 56.264478 12.929688 56.359375 C 12.493754 56.497569 12.477433 56.771484 12.90625 56.771484 C 13.082996 56.771484 13.228516 56.70737 13.228516 56.630859 C 13.228516 56.554349 13.573034 56.230434 13.994141 55.910156 C 15.026444 55.125772 15.007504 55.139817 15.630859 54.625 C 16.06193 54.267949 16.21027 54.216149 16.330078 54.382812 C 16.443362 54.5388 16.462319 54.521028 16.396484 54.316406 C 16.34785 54.163978 16.387872 53.988998 16.486328 53.929688 C 16.585377 53.869191 16.621811 53.893384 16.5625 53.988281 C 16.505562 54.07962 16.569083 54.246511 16.703125 54.357422 C 16.846064 54.473671 16.904942 54.687374 16.851562 54.859375 C 16.79759 55.030783 16.833706 55.160156 16.9375 55.160156 C 17.037142 55.160156 17.072911 55.08642 17.019531 54.998047 C 16.875406 54.764956 17.05381 54.800581 17.498047 55.091797 C 17.740628 55.252529 17.854161 55.445013 17.800781 55.615234 C 17.733167 55.826974 17.748494 55.837076 17.873047 55.662109 C 18.041489 55.426646 18.390625 55.543536 18.390625 55.835938 C 18.390625 55.931428 18.264769 56.114669 18.109375 56.242188 C 17.953981 56.368994 17.916433 56.430404 18.027344 56.371094 C 18.253318 56.256624 18.273379 56.309241 18.132812 56.675781 C 18.079433 56.819313 17.958352 56.885483 17.865234 56.826172 C 17.758475 56.763303 17.741327 56.798407 17.8125 56.914062 C 17.877742 57.019636 17.842147 57.215393 17.732422 57.347656 C 17.28427 57.88774 17.820369 59.349609 18.466797 59.349609 C 18.568396 59.349609 18.970297 59.078827 19.359375 58.746094 C 19.74786 58.413361 20.015054 58.227644 19.949219 58.332031 C 19.885756 58.437011 19.906535 58.569667 19.996094 58.623047 C 20.085653 58.678799 20.160156 58.646445 20.160156 58.552734 C 20.160156 58.459023 20.230579 58.382812 20.318359 58.382812 C 20.515864 58.382812 20.397992 59.714559 20.160156 60.158203 C 20.035663 60.387736 20.035778 60.478516 20.162109 60.478516 C 20.255227 60.478516 20.291661 60.553019 20.238281 60.642578 C 20.181936 60.73273 20.073965 60.768152 19.998047 60.720703 C 19.922722 60.674263 19.732752 60.925386 19.576172 61.28125 C 19.418998 61.636462 19.239663 61.927734 19.173828 61.927734 C 19.109773 61.927734 19.009194 62.163515 18.943359 62.451172 C 18.845734 62.902111 18.425767 63.785762 17.619141 65.238281 C 17.477388 65.488454 17.462019 65.721455 17.566406 65.982422 C 17.710531 66.339472 17.722585 66.341271 17.728516 66.029297 C 17.734447 65.844247 17.790299 65.641342 17.849609 65.582031 C 17.910699 65.520823 18.148954 64.982969 18.380859 64.386719 C 18.679014 63.618408 18.877103 63.310117 19.058594 63.345703 C 19.342099 63.393626 19.595206 62.689245 19.410156 62.367188 C 19.348473 62.260428 19.358862 62.229261 19.433594 62.296875 C 19.651857 62.495091 20.492987 60.937498 20.394531 60.517578 C 20.338186 60.278556 20.395142 60.117904 20.554688 60.058594 C 20.685764 60.006993 20.76808 59.911538 20.726562 59.845703 C 20.686824 59.781648 20.759968 59.728516 20.888672 59.728516 C 21.0239 59.728516 21.123047 59.881489 21.123047 60.087891 C 21.123047 60.284802 21.232378 60.485683 21.365234 60.539062 C 21.497497 60.59007 21.607422 60.731336 21.607422 60.853516 C 21.607422 61.536775 22.958554 61.715921 22.994141 61.037109 C 23.028541 60.374253 23.061075 60.302067 23.259766 60.421875 C 23.41516 60.515586 23.417389 60.489491 23.271484 60.308594 C 23.015677 59.992171 23.388409 59.464657 23.765625 59.609375 C 23.964909 59.685886 23.986545 59.765468 23.855469 59.923828 C 23.722613 60.083967 23.758186 60.178703 24.001953 60.308594 C 24.216065 60.423657 24.359946 60.427072 24.425781 60.320312 C 24.48094 60.230753 24.599127 60.158203 24.6875 60.158203 C 24.777059 60.158203 24.807286 60.228453 24.753906 60.314453 C 24.700527 60.399267 24.789254 60.551516 24.951172 60.652344 C 25.17418 60.790775 25.227136 60.981963 25.179688 61.423828 C 25.143508 61.746953 25.059035 62.083502 24.990234 62.171875 C 24.921434 62.260841 24.865883 62.526081 24.867188 62.759766 C 24.870272 63.313491 24.36024 64.698999 24.0625 64.943359 C 23.934863 65.048339 23.874283 65.20749 23.933594 65.298828 C 23.989939 65.390345 23.887929 65.75529 23.707031 66.109375 C 23.526134 66.46346 23.378906 66.891511 23.378906 67.060547 C 23.378906 67.229405 23.233387 67.55137 23.056641 67.777344 C 22.879895 68.002725 22.734375 68.257749 22.734375 68.34375 C 22.734375 68.430344 22.570378 68.610865 22.371094 68.746094 C 22.091147 68.936481 22.052721 69.037025 22.199219 69.189453 C 22.319026 69.315785 22.338547 69.514434 22.251953 69.742188 C 22.073191 70.214004 22.286488 70.534954 22.693359 70.40625 C 23.068796 70.287035 23.539062 69.175743 23.539062 68.408203 C 23.539062 68.11681 23.636819 67.84823 23.757812 67.800781 C 23.885924 67.75096 23.949792 67.565398 23.902344 67.341797 C 23.862012 67.134031 23.92672 66.793351 24.042969 66.583984 C 24.159218 66.374024 24.259694 66.168542 24.265625 66.121094 C 24.298127 65.913684 24.721435 64.693421 24.935547 64.1875 C 25.551133 62.735751 25.691982 62.544561 26.064453 62.6875 C 26.183075 62.733169 26.279297 62.685058 26.279297 62.580078 C 26.279297 62.46027 26.486424 62.401914 26.833984 62.4375 C 27.139257 62.461224 27.436783 62.436264 27.496094 62.376953 C 27.647336 62.225711 28.067104 62.417843 27.960938 62.589844 C 27.910523 62.668727 27.911536 62.734375 27.958984 62.734375 C 28.058508 62.734375 29.036199 62.192395 29.580078 61.835938 C 29.88197 61.634874 29.976397 61.627073 30.054688 61.794922 C 30.102136 61.909985 30.119643 61.836668 30.078125 61.630859 C 30.012883 61.282112 30.031111 61.271276 30.349609 61.482422 C 30.537624 61.606974 30.71832 61.811761 30.753906 61.9375 C 30.803134 62.120177 30.775997 62.117355 30.628906 61.925781 C 30.462243 61.711076 30.450455 61.711076 30.509766 61.925781 C 30.546538 62.05923 30.661831 62.175638 30.765625 62.1875 C 30.868826 62.193431 31.029336 62.218607 31.123047 62.230469 C 31.217232 62.241738 31.262221 62.304666 31.220703 62.371094 C 31.179779 62.437522 31.318918 62.503763 31.53125 62.515625 C 31.743582 62.52808 31.875574 62.474008 31.828125 62.394531 C 31.778897 62.316241 31.812611 62.25 31.900391 62.25 C 31.988171 62.25 32.102799 62.10448 32.162109 61.927734 C 32.224979 61.729637 32.404886 61.605469 32.630859 61.605469 C 33.041527 61.605469 33.599531 62.123084 33.412109 62.330078 C 33.345681 62.407182 33.416872 62.418614 33.572266 62.365234 C 33.811881 62.279412 33.856291 62.365673 33.859375 62.943359 C 33.862934 63.473597 33.899652 63.562361 34.025391 63.347656 C 34.114238 63.195584 34.158705 62.902133 34.117188 62.693359 C 34.056691 62.357068 34.099581 62.321549 34.505859 62.380859 C 34.840668 62.43068 35.009446 62.578322 35.132812 62.933594 C 35.222372 63.200551 35.258529 63.494006 35.199219 63.585938 C 35.133977 63.690917 35.175145 63.705489 35.308594 63.623047 C 35.465767 63.525184 35.493365 63.564244 35.412109 63.775391 C 35.330261 63.986537 35.36521 64.038144 35.544922 63.96875 C 35.770481 63.882275 36.273438 64.568474 36.273438 64.962891 C 36.273438 65.043672 36.514586 65.365934 36.810547 65.679688 C 37.369017 66.271846 37.70843 67.476958 37.802734 69.197266 C 37.847811 70.018897 38.262724 71.794039 38.599609 72.605469 C 38.719417 72.895973 38.943275 73.642985 39.095703 74.263672 C 39.248132 74.884299 39.447724 75.484373 39.539062 75.597656 L 39.537109 75.619141 C 39.628448 75.731831 39.781637 75.803165 39.878906 75.767578 C 40.231805 75.651922 40.158416 74.823131 39.720703 73.992188 C 39.339039 73.268419 39.182975 72.792299 38.943359 71.623047 C 38.772663 70.791155 38.464151 69.832544 38.34375 69.757812 C 38.26546 69.709771 38.200524 69.184904 38.199219 68.591797 C 38.198626 67.998571 38.096023 67.222459 37.972656 66.867188 C 37.84929 66.512035 37.761575 65.811723 37.773438 65.310547 C 37.787672 64.809075 37.744162 64.435045 37.677734 64.476562 C 37.61012 64.51808 37.51627 64.420498 37.462891 64.259766 C 37.411883 64.098974 37.233243 63.708878 37.068359 63.394531 C 36.686398 62.665484 36.501375 61.715137 36.775391 61.884766 C 36.905281 61.965428 36.936929 61.920641 36.871094 61.748047 C 36.686578 61.270002 37.921325 60.809997 38.322266 61.210938 C 38.363783 61.251862 38.571464 61.221288 38.783203 61.140625 C 38.994349 61.051659 39.156322 61.039634 39.150391 61.105469 C 39.097604 61.45125 39.197854 61.489105 39.423828 61.210938 C 39.563801 61.040123 39.629552 60.988698 39.576172 61.099609 C 39.446281 61.354646 39.499354 61.350996 40.085938 61.058594 C 40.790668 60.706881 41.587891 60.572189 41.587891 60.804688 C 41.587891 60.909074 41.669715 60.944076 41.767578 60.884766 C 41.892724 60.807069 41.882478 60.735103 41.732422 60.642578 C 41.617359 60.569626 41.569596 60.457748 41.628906 60.398438 C 41.689403 60.336754 41.94136 60.419346 42.1875 60.580078 C 42.57302 60.826811 42.60445 60.830154 42.414062 60.597656 C 42.226641 60.372275 42.226641 60.326117 42.414062 60.324219 C 42.589622 60.321846 42.592444 60.294433 42.425781 60.189453 C 42.291146 60.104639 42.388604 60.056641 42.701172 60.056641 C 42.966884 60.056641 43.16254 60.098964 43.126953 60.152344 C 42.979981 60.391366 44.098612 60.2919 44.375 60.041016 C 44.544036 59.887401 44.727799 59.773294 44.787109 59.785156 C 44.847013 59.798205 44.871309 59.746259 44.853516 59.667969 C 44.803873 59.487071 45.432931 59.338768 45.859375 59.427734 C 46.036714 59.466286 46.29404 59.501881 46.431641 59.507812 C 46.681873 59.520208 47.167191 59.841694 47.732422 60.367188 C 47.898848 60.521988 48.173354 60.648438 48.341797 60.648438 C 48.578447 60.648438 48.638959 60.543795 48.615234 60.152344 C 48.582198 59.6794 48.315831 59.367259 47.943359 59.361328 C 47.847869 59.359549 47.614635 59.1769 47.421875 58.955078 C 47.229115 58.733849 47.000063 58.552734 46.914062 58.552734 C 46.828062 58.552734 46.681602 58.407982 46.587891 58.232422 C 46.44851 57.972048 46.462232 57.930709 46.662109 58.007812 C 46.833517 58.073647 46.908203 58.000495 46.908203 57.765625 C 46.908203 57.408574 47.509552 57.147964 47.947266 57.316406 C 48.103846 57.375717 48.151108 57.329222 48.091797 57.173828 C 48.043162 57.04631 48.118013 56.89713 48.259766 56.84375 C 48.39796 56.788591 48.486902 56.686581 48.439453 56.617188 C 48.397343 56.547794 48.488963 56.392478 48.642578 56.271484 C 48.891683 56.079911 48.899474 56.084082 48.716797 56.318359 C 48.548354 56.535437 48.55497 56.600037 48.757812 56.677734 C 48.909648 56.735859 49.003906 56.679108 49.003906 56.533203 C 49.003906 56.242581 49.472997 56.225811 49.816406 56.498047 C 49.952584 56.60623 50.229391 56.931093 50.431641 57.21875 C 50.633712 57.507 50.902372 57.742188 51.029297 57.742188 C 51.156815 57.742188 51.261719 57.800514 51.261719 57.871094 C 51.261719 57.941496 51.765451 58.5261 52.380859 59.171875 C 53.23873 60.071975 53.585809 60.334486 53.871094 60.292969 C 54.119606 60.257975 54.261289 60.115771 54.296875 59.861328 C 54.337681 59.572959 54.13283 59.270843 53.451172 58.621094 C 52.956105 58.149455 52.550781 57.687635 52.550781 57.595703 C 52.550781 57.503771 52.334665 57.317288 52.068359 57.179688 C 51.802054 57.042087 51.583984 56.830571 51.583984 56.708984 C 51.583984 56.58799 51.466984 56.440098 51.322266 56.386719 C 51.115864 56.309971 51.082357 56.153252 51.152344 55.722656 C 51.214027 55.33595 51.1874 55.190893 51.066406 55.265625 C 50.959054 55.329681 50.934165 55.302246 51 55.197266 C 51.060497 55.099403 51.23429 55.063808 51.386719 55.117188 C 51.539207 55.169381 51.608456 55.150136 51.539062 55.074219 C 51.469669 54.998301 51.57628 54.848947 51.777344 54.742188 C 52.42472 54.395754 53.519531 55.230765 53.519531 56.072266 C 53.519531 56.43762 54.015036 56.722404 54.322266 56.533203 C 54.643315 56.334631 54.474342 55.981173 53.84375 55.535156 C 53.445063 55.25343 53.132641 54.868105 53.017578 54.517578 C 52.669721 53.454552 52.212169 52.5656 51.964844 52.470703 C 51.761408 52.393599 51.755314 52.350552 51.929688 52.240234 C 52.048309 52.163724 52.218268 52.103516 52.306641 52.103516 C 52.395014 52.103516 52.359419 52.175718 52.226562 52.261719 C 52.067017 52.361361 52.049623 52.418261 52.177734 52.419922 C 52.286273 52.421227 52.52418 52.132022 52.705078 51.777344 C 52.887162 51.42225 52.959886 51.132812 52.869141 51.132812 C 52.778988 51.132812 52.705078 50.945317 52.705078 50.71875 C 52.705078 50.458376 52.771482 50.347982 52.884766 50.417969 C 52.983221 50.479059 53.127974 50.428821 53.205078 50.306641 C 53.282775 50.188019 53.346411 50.157721 53.347656 50.246094 C 53.350444 50.42794 54.086317 50.427585 54.523438 50.246094 C 54.941222 50.072669 54.728638 49.557749 53.941406 48.835938 C 53.150201 48.110805 53.017445 47.507609 53.529297 46.958984 C 53.822233 46.643451 53.996461 46.596274 54.580078 46.662109 C 55.009073 46.711337 55.240951 46.680068 55.181641 46.583984 C 55.121915 46.487901 55.385932 46.458411 55.871094 46.505859 L 56.654297 46.583984 L 56.697266 45.697266 C 56.73048 44.947756 56.671606 44.734894 56.322266 44.320312 C 55.858456 43.769316 55.889265 43.278787 56.421875 42.707031 C 56.835271 42.267242 56.827182 41.750335 56.404297 41.367188 C 55.848555 40.864826 55.743174 40.547842 56.033203 40.257812 C 56.183852 40.108349 56.419131 40.038346 56.597656 40.097656 C 56.780333 40.156374 56.902344 40.117016 56.902344 40.001953 C 56.902344 39.858421 56.957151 39.857307 57.125 39.996094 C 57.299374 40.140219 57.361899 40.114268 57.427734 39.871094 C 57.496831 39.605382 57.641205 39.570026 58.404297 39.59375 C 58.896754 39.611543 59.271986 39.572983 59.230469 39.513672 C 59.109 39.31676 59.969415 39.18707 61.197266 39.222656 C 61.853183 39.239856 62.436783 39.205795 62.496094 39.146484 C 62.764949 38.877807 62.198262 38.768732 61.052734 38.867188 C 60.365086 38.930057 59.804688 38.917888 59.804688 38.84375 C 59.804688 38.772577 59.7404 38.747473 59.662109 38.794922 C 59.583226 38.843557 59.482995 38.741547 59.435547 38.568359 C 59.385726 38.394579 59.393814 38.261575 59.453125 38.273438 C 59.510656 38.284113 59.691004 38.234642 59.853516 38.164062 C 60.089572 38.060862 60.106955 38.00576 59.935547 37.884766 C 59.786084 37.780379 59.854287 37.757239 60.162109 37.804688 C 60.405876 37.843239 60.605469 37.812839 60.605469 37.736328 C 60.605469 37.656852 60.827026 37.597656 61.095703 37.597656 C 61.364499 37.597656 62.015103 37.450777 62.542969 37.273438 C 63.070775 37.096098 63.558746 36.958841 63.626953 36.970703 C 64.071368 37.042469 64.486806 36.908392 64.625 36.650391 C 64.767939 36.388237 64.729005 36.35287 64.300781 36.40625 C 64.034951 36.437092 63.693444 36.530072 63.541016 36.611328 C 63.38835 36.694363 62.701257 36.742618 62.015625 36.707031 C 61.02223 36.664328 60.741177 36.702886 60.630859 36.900391 C 60.529319 37.083661 60.295168 37.131361 59.757812 37.089844 C 59.35444 37.054257 59.058092 37.083963 59.099609 37.150391 C 59.14172 37.218005 59.097617 37.269531 59.003906 37.269531 C 58.909602 37.269531 58.833984 37.192553 58.833984 37.097656 C 58.833984 36.564453 57.977944 36.349998 57.912109 36.867188 C 57.891944 37.046899 57.911536 37.107874 57.958984 37.005859 C 58.064261 36.778106 58.674955 36.916491 58.673828 37.167969 C 58.673057 37.351476 56.570302 38.086009 56.070312 38.080078 C 55.882297 38.077706 55.827408 37.980299 55.886719 37.751953 C 55.952554 37.503441 55.912001 37.45024 55.710938 37.527344 C 55.566812 37.583096 55.449219 37.553462 55.449219 37.460938 C 55.449219 37.367701 55.636816 37.327623 55.871094 37.369141 C 56.209165 37.431417 56.273848 37.395579 56.191406 37.179688 C 56.116675 36.976252 56.157862 36.93936 56.347656 37.011719 C 56.489409 37.062726 56.675892 37.111328 56.763672 37.111328 C 56.852045 37.111328 56.814497 37.218706 56.681641 37.351562 C 56.548191 37.485012 56.343405 37.596351 56.226562 37.597656 C 56.064051 37.599436 56.070882 37.640797 56.25 37.755859 C 56.414884 37.861432 56.543979 37.844111 56.654297 37.701172 C 56.925466 37.350645 57.685232 37.158381 57.582031 37.466797 C 57.560679 37.526108 57.654427 37.539708 57.789062 37.486328 C 58.00436 37.404479 57.999135 37.365954 57.763672 37.193359 C 57.611836 37.084228 57.541587 36.911375 57.607422 36.810547 C 57.680967 36.687181 57.631435 36.663346 57.470703 36.722656 C 57.334882 36.77485 57.265051 36.883414 57.3125 36.962891 C 57.422818 37.139637 57.20991 37.147204 56.939453 36.974609 C 56.809859 36.892167 57.038499 36.736987 57.585938 36.537109 C 58.050874 36.367481 58.46427 36.220775 58.511719 36.214844 C 58.556024 36.20654 59.026577 36.149154 59.558594 36.089844 C 62.431072 35.764228 63.52504 35.810968 62.849609 36.228516 C 62.734547 36.300282 62.730538 36.391288 62.837891 36.498047 C 63.037175 36.697331 63.349609 36.522493 63.349609 36.212891 C 63.349609 36.086559 63.549202 35.940098 63.792969 35.886719 C 64.5165 35.728359 64.638672 35.674056 64.638672 35.509766 C 64.638672 35.421986 64.299491 35.37457 63.873047 35.410156 C 62.065968 35.544792 60.47428 35.669307 59.732422 35.736328 C 58.478534 35.84979 59.135563 35.426911 60.609375 35.171875 C 62.364973 34.868204 62.573834 34.854156 62.896484 35.027344 C 63.067892 35.116903 63.1875 35.12039 63.1875 35.033203 C 63.1875 34.825022 63.756921 34.672777 64.880859 34.582031 C 65.412817 34.539328 66.030131 34.482709 66.251953 34.458984 C 66.473597 34.436446 66.925079 34.402487 67.257812 34.390625 C 67.787813 34.368087 67.863281 34.315023 67.863281 33.960938 C 67.863281 33.593804 67.800509 33.558594 67.171875 33.558594 C 66.792168 33.558594 66.086131 33.669459 65.601562 33.804688 C 65.116757 33.939323 64.272047 34.112942 63.724609 34.189453 C 63.17729 34.265964 62.643276 34.381431 62.537109 34.447266 C 62.43118 34.512507 61.934943 34.59332 61.435547 34.628906 C 60.936269 34.662713 60.291983 34.768977 60.001953 34.863281 C 59.327412 35.08451 57.02458 34.892665 57.15625 34.626953 C 57.205478 34.526718 57.141016 34.574062 57.011719 34.732422 C 56.612024 35.221142 55.892882 35.333704 55.1875 35.017578 C 54.517111 34.717169 53.915896 33.882539 54.28125 33.759766 C 54.392754 33.7224 54.482422 33.567851 54.482422 33.416016 C 54.482422 33.263587 54.392161 33.041683 54.28125 32.921875 C 54.163222 32.79495 54.156319 32.74733 54.263672 32.806641 C 54.48668 32.931193 54.851443 32.532706 54.683594 32.347656 C 54.618352 32.270552 54.687241 32.25912 54.837891 32.3125 C 55.018788 32.375962 55.084558 32.340409 55.037109 32.212891 C 54.994999 32.104352 55.198252 31.885515 55.488281 31.726562 C 55.858973 31.517789 55.923168 31.507022 55.703125 31.685547 C 55.529345 31.824927 55.471264 31.9375 55.570312 31.9375 C 55.669361 31.9375 55.872441 31.817012 56.019531 31.669922 C 56.246098 31.442169 56.309461 31.436739 56.431641 31.628906 C 56.542552 31.81099 56.576168 31.812105 56.578125 31.634766 C 56.579904 31.506061 56.680022 31.452408 56.830078 31.511719 C 56.968865 31.566878 57.039708 31.542019 56.986328 31.458984 C 56.934609 31.375949 57.185918 31.220041 57.542969 31.113281 C 57.900316 31.006522 58.191406 30.819793 58.191406 30.701172 C 58.191406 30.581957 58.304225 30.486328 58.439453 30.486328 C 58.575868 30.486328 58.72787 30.374103 58.78125 30.238281 C 58.902007 29.923697 59.673954 29.59899 60.876953 29.359375 C 61.39521 29.256174 62.290687 29.033677 62.867188 28.865234 C 63.44351 28.696792 64.168321 28.518152 64.478516 28.470703 C 65.195226 28.356589 65.677287 27.997491 65.552734 27.671875 C 65.422488 27.333211 64.86332 27.359951 64.255859 27.732422 C 63.784873 28.021562 63.253113 28.191674 60.851562 28.822266 C 60.319427 28.962239 59.811029 29.131605 59.722656 29.199219 C 59.633987 29.269205 59.090172 29.32191 58.513672 29.322266 C 57.81938 29.322859 57.171436 29.439796 56.59375 29.669922 C 55.911024 29.941565 55.694752 29.973232 55.595703 29.8125 C 55.500213 29.657106 55.443944 29.674806 55.363281 29.884766 C 55.277696 30.10896 55.052248 30.164062 54.216797 30.164062 C 53.644686 30.164062 53.216223 30.097821 53.263672 30.019531 C 53.311714 29.940055 53.227067 29.886575 53.072266 29.898438 C 52.918058 29.9103 52.812213 29.82506 52.835938 29.707031 C 52.860255 29.589893 52.81197 29.536464 52.726562 29.589844 C 52.407471 29.787645 52.076732 29.006375 52.175781 28.285156 C 52.231533 27.874845 52.199497 27.502692 52.095703 27.376953 C 51.998434 27.26023 51.923756 26.841682 51.929688 26.447266 C 51.943922 25.501971 51.935358 25.459278 51.660156 25.095703 C 51.477894 24.857274 51.255871 24.786679 50.689453 24.822266 C 50.100142 24.852514 49.899454 24.789958 49.669922 24.505859 C 49.439203 24.221168 49.321718 24.184665 49.076172 24.322266 C 48.876888 24.433177 48.670018 24.441439 48.484375 24.341797 C 48.13029 24.152596 48.109961 23.876953 48.449219 23.876953 C 48.596902 23.876953 48.652192 23.952182 48.583984 24.0625 C 48.512812 24.179342 48.540175 24.205172 48.658203 24.132812 C 48.893667 23.987501 48.742501 23.714844 48.425781 23.714844 C 48.228277 23.714844 48.232591 23.63683 48.460938 23.191406 C 48.609214 22.902741 48.809747 22.618569 48.908203 22.552734 C 49.006659 22.489272 49.092738 22.344938 49.095703 22.230469 C 49.099855 22.116592 49.170452 22.035013 49.255859 22.046875 C 49.341267 22.060516 49.502718 21.970256 49.617188 21.845703 C 49.732072 21.721151 49.785802 21.619141 49.732422 21.619141 C 49.632602 21.619141 49.919077 21.244873 50.263672 20.925781 C 50.910633 20.326862 51.071694 20.114767 51.005859 19.943359 C 50.965647 19.838617 51.315835 19.342379 51.783203 18.841797 C 52.251105 18.341452 52.830697 17.720718 53.070312 17.460938 C 53.498299 16.997424 54.328125 15.578458 54.328125 15.308594 C 54.328125 15.101006 53.98297 15.144138 53.695312 15.386719 C 53.028008 15.949222 51.4199 17.636104 51.486328 17.703125 C 51.527846 17.744643 51.35712 18.100317 51.107422 18.494141 C 50.649958 19.215537 49.287655 20.395077 49.113281 20.220703 C 49.061681 20.16851 48.939833 20.299979 48.84375 20.511719 C 48.640729 20.957142 47.770242 21.510096 47.517578 21.353516 C 47.408446 21.285901 47.394121 21.323582 47.476562 21.457031 C 47.577984 21.621915 47.488003 21.644942 47.058594 21.5625 C 46.671888 21.488362 46.579778 21.505683 46.75 21.617188 C 46.964705 21.761313 46.964705 21.775276 46.75 21.773438 C 46.617025 21.771658 46.217959 21.583815 45.863281 21.355469 C 45.511569 21.127122 45.355588 20.987636 45.523438 21.041016 C 45.781439 21.126423 45.797768 21.103653 45.626953 20.898438 C 45.515449 20.770326 45.365502 20.68888 45.294922 20.736328 C 45.109872 20.850798 45.209755 20.210219 45.517578 19.316406 C 45.873442 18.278291 45.86832 17.843563 45.5 17.988281 C 45.344902 18.049371 44.829955 18.162537 44.355469 18.240234 C 43.76159 18.338097 43.374248 18.511836 43.113281 18.792969 C 42.755578 19.178488 42.236328 19.347396 42.236328 19.078125 C 42.236328 19.010392 42.387809 18.557254 42.572266 18.070312 C 42.756722 17.583965 42.980927 16.933242 43.072266 16.623047 C 43.163604 16.312852 43.311598 15.968333 43.402344 15.857422 C 43.502579 15.731683 43.505473 15.654297 43.408203 15.654297 C 43.321432 15.654297 43.051594 16.125265 42.806641 16.701172 C 42.56228 17.276723 42.303002 17.715417 42.232422 17.667969 C 42.055142 17.558481 42.202143 17.069276 42.751953 15.933594 C 43.228811 14.948561 43.249692 14.456731 42.806641 14.626953 C 42.667854 14.67974 42.597083 14.78405 42.644531 14.859375 C 42.691387 14.93464 42.61765 15.262868 42.482422 15.587891 C 42.3466 15.912795 42.234375 16.315759 42.234375 16.482422 C 42.234375 16.649085 42.158164 16.783203 42.064453 16.783203 C 41.974894 16.783203 41.932948 16.851152 41.986328 16.933594 C 42.037928 17.016036 42.014849 17.122402 41.933594 17.175781 C 41.748544 17.29031 41.533179 16.761691 41.712891 16.634766 C 41.785843 16.583284 41.868854 16.262738 41.892578 15.919922 C 41.953668 15.141113 41.536088 15.171939 41.458984 15.955078 C 41.418297 16.368177 41.286056 16.532002 40.775391 16.792969 C 40.426703 16.969715 40.140625 17.041917 40.140625 16.951172 C 40.140625 16.86102 40.031887 16.787109 39.898438 16.787109 C 39.766175 16.787109 39.646556 16.661253 39.640625 16.505859 C 39.628763 16.350703 39.603802 15.932803 39.580078 15.578125 C 39.531443 14.818948 39.750801 13.203301 40.072266 11.941406 C 40.426047 10.553113 40.345734 9.0727266 39.980469 9.0644531 z M 14.105469 9.9179688 C 14.064793 9.9261147 14.046041 9.9660386 14.0625 10.044922 C 14.086224 10.161171 14.147864 10.288489 14.195312 10.335938 C 14.547203 10.65414 15.21246 11.71175 15.248047 12 C 15.26584 12.19276 15.296803 12.425299 15.302734 12.513672 C 15.311631 12.605604 15.381287 12.575898 15.458984 12.453125 C 15.571082 12.275193 15.64054 12.303199 15.792969 12.587891 L 15.794922 12.585938 C 15.899902 12.782849 16.022864 12.906824 16.070312 12.859375 C 16.116575 12.813231 15.874833 12.334649 15.533203 11.794922 C 15.191217 11.255254 14.827043 10.659137 14.722656 10.46875 C 14.549083 10.151942 14.227497 9.8935309 14.105469 9.9179688 z M 24.824219 10.5 C 24.735253 10.5 24.662109 10.573736 24.662109 10.662109 C 24.662109 10.750482 24.735846 10.822266 24.824219 10.822266 C 24.913185 10.822266 24.986328 10.750482 24.986328 10.662109 C 24.986328 10.573143 24.912592 10.5 24.824219 10.5 z M 16.164062 11.195312 C 16.154293 11.253298 16.327152 11.626038 16.75 12.515625 C 17.045427 13.136193 17.315904 13.558872 17.357422 13.455078 C 17.434289 13.248973 16.78676 11.902722 16.363281 11.386719 C 16.241487 11.238501 16.169924 11.160521 16.164062 11.195312 z M 45.126953 11.355469 C 45.087854 11.339719 45.032877 11.351234 44.962891 11.394531 C 44.880449 11.445538 44.8125 11.583317 44.8125 11.703125 C 44.8125 11.87394 43.905503 14.213387 43.417969 15.296875 C 43.364233 15.407786 43.364589 15.498047 43.417969 15.498047 C 43.517196 15.498047 43.777894 14.955344 44.386719 13.482422 C 44.606702 12.950405 44.897975 12.30275 45.033203 12.042969 C 45.219587 11.687327 45.244249 11.402718 45.126953 11.355469 z M 67.003906 11.955078 C 66.775927 11.969441 66.386999 12.220669 65.931641 12.671875 C 64.495253 14.094977 63.478978 15.013672 63.34375 15.013672 C 63.172223 15.013672 61.09375 17.130314 61.09375 17.304688 C 61.09375 17.372302 61.141933 17.431641 61.195312 17.431641 C 61.330304 17.431641 63.850221 15.311697 64.962891 14.261719 C 65.450484 13.801586 66.15794 13.200564 66.535156 12.927734 C 66.911779 12.65532 67.220703 12.323669 67.220703 12.191406 C 67.220703 12.022326 67.140694 11.94646 67.003906 11.955078 z M 19.742188 12.337891 C 19.687326 12.324687 19.641229 12.343427 19.607422 12.398438 C 19.533198 12.518665 20.343304 13.98385 20.984375 14.888672 C 21.242723 15.2532 21.351166 15.128391 21.130859 14.716797 C 21.036555 14.538865 20.999355 14.278052 21.052734 14.138672 C 21.113231 13.979719 21.063106 13.884766 20.916016 13.884766 C 20.787311 13.884766 20.550171 13.595506 20.390625 13.240234 C 20.151351 12.709196 19.906772 12.377503 19.742188 12.337891 z M 15.849609 13.113281 C 15.816321 13.109129 15.796875 13.131227 15.796875 13.181641 C 15.796875 13.273572 15.844986 13.395767 15.904297 13.455078 C 15.964201 13.514389 16.048255 13.525964 16.095703 13.478516 C 16.141965 13.432846 16.093261 13.310058 15.988281 13.205078 C 15.930453 13.147547 15.882898 13.117433 15.849609 13.113281 z M 36.419922 13.580078 C 35.847019 13.707744 35.251835 14.760333 35.560547 15.564453 C 35.697199 15.920317 36.368387 15.883567 36.753906 15.498047 C 37.078929 15.17338 37.197905 14.140979 36.951172 13.804688 C 36.799574 13.59836 36.610889 13.537523 36.419922 13.580078 z M 21.412109 15.431641 C 21.342716 15.476124 21.371756 15.672055 21.478516 15.867188 C 21.815519 16.484968 22.461904 17.501927 22.705078 17.794922 C 23.032473 18.189338 23.063445 18.147947 22.839844 17.623047 C 22.489495 16.802839 21.543779 15.350385 21.412109 15.431641 z M 36.09375 16 C 36.037701 15.997776 35.97414 16.007526 35.916016 16.03125 C 35.787904 16.081071 35.82625 16.122975 36.013672 16.128906 C 36.183301 16.13543 36.277989 16.096348 36.224609 16.042969 C 36.19792 16.016279 36.149799 16.002224 36.09375 16 z M 19.394531 16.878906 C 19.263455 16.828789 19.320308 17.065283 19.546875 17.513672 C 19.892834 18.20049 20.148438 18.434971 20.148438 18.0625 C 20.148438 17.788247 19.626436 16.967872 19.394531 16.878906 z M 4.2519531 17.800781 C 4.2057026 17.846866 4.5099496 18.145752 4.9277344 18.464844 C 5.6146238 18.989744 5.9628906 19.161019 5.9628906 18.976562 C 5.9628906 18.840029 4.3329123 17.719526 4.2519531 17.800781 z M 33.060547 21.923828 A 0.77881486 0.77881486 0 0 1 33.431641 22.027344 L 36.673828 23.898438 A 0.25957298 0.25957298 0 0 1 36.673828 24.347656 L 35.640625 24.943359 A 0.77890697 0.77890697 0 0 1 34.861328 24.943359 L 33.431641 24.119141 A 0.77866717 0.77866717 0 0 0 32.654297 24.119141 L 28.453125 26.546875 A 0.77905418 0.77905418 0 0 0 28.0625 27.220703 L 28.0625 28.869141 A 0.77870662 0.77870662 0 0 1 27.673828 29.544922 L 25.339844 30.892578 A 0.77872198 0.77872198 0 0 1 24.560547 30.892578 L 23.132812 30.066406 A 0.77839458 0.77839458 0 0 0 22.353516 30.066406 L 19.623047 31.644531 A 0.77903425 0.77903425 0 0 0 19.234375 32.320312 L 19.234375 47.365234 A 0.77931621 0.77931621 0 0 0 19.623047 48.039062 L 21.050781 48.865234 A 0.77931621 0.77931621 0 0 1 21.439453 49.539062 L 21.439453 50.732422 A 0.25961391 0.25961391 0 0 1 21.050781 50.955078 L 19.369141 49.984375 A 1943.0498 1943.0498 0 0 1 18.589844 49.535156 L 17.8125 49.085938 A 0.77906628 0.77906628 0 0 1 17.423828 48.410156 L 17.423828 46.613281 L 17.423828 31.271484 A 0.77891598 0.77891598 0 0 1 17.8125 30.597656 L 21.449219 28.496094 A 0.77891598 0.77891598 0 0 0 21.837891 27.822266 L 21.837891 26.173828 A 0.77891444 0.77891444 0 0 1 22.228516 25.5 L 24.560547 24.152344 A 0.77851427 0.77851427 0 0 1 25.339844 24.152344 L 26.767578 24.976562 A 0.77865656 0.77865656 0 0 0 27.546875 24.976562 L 32.654297 22.027344 A 0.77881486 0.77881486 0 0 1 33.060547 21.923828 z M 10.732422 22.003906 C 10.603365 22.0036 10.482159 22.145403 10.564453 22.279297 C 10.61546 22.361739 10.727512 22.429688 10.810547 22.429688 C 10.982548 22.429688 11.010444 22.209662 10.857422 22.056641 C 10.820204 22.019571 10.775441 22.004008 10.732422 22.003906 z M 11.724609 22.912109 C 11.636829 22.912109 11.653528 23.019662 11.765625 23.154297 C 11.875943 23.28656 12.040533 23.396484 12.128906 23.396484 C 12.216686 23.396484 12.198035 23.288932 12.085938 23.154297 C 11.97562 23.021441 11.812982 22.912109 11.724609 22.912109 z M 0.5 25.753906 C 0.47810869 25.777668 0.484375 25.824591 0.484375 25.886719 C 0.484375 26.010085 0.71979961 26.189666 1.0078125 26.285156 C 1.2959559 26.380765 2.1844672 26.74577 2.9824219 27.095703 C 3.7803825 27.444806 4.5375486 27.73721 4.6660156 27.740234 C 5.0061508 27.75269 4.6902378 27.514976 4.0292969 27.261719 C 3.7189594 27.142623 2.9227807 26.791257 2.2578125 26.480469 C 0.87207221 25.831461 0.56567393 25.682622 0.5 25.753906 z M 24.931641 26.138672 A 0.77740759 0.77740759 0 0 0 24.560547 26.242188 L 24.037109 26.546875 A 0.77941627 0.77941627 0 0 0 23.646484 27.220703 L 23.646484 27.822266 A 0.77941627 0.77941627 0 0 0 24.037109 28.496094 L 24.560547 28.800781 A 0.77740759 0.77740759 0 0 0 25.339844 28.800781 L 25.863281 28.496094 A 0.77941627 0.77941627 0 0 0 26.251953 27.822266 L 26.251953 27.220703 A 0.77941627 0.77941627 0 0 0 25.863281 26.546875 L 25.339844 26.242188 A 0.77740759 0.77740759 0 0 0 24.931641 26.138672 z M 40.419922 26.167969 A 0.77868989 0.77868989 0 0 1 40.791016 26.271484 L 41.824219 26.867188 A 0.25962441 0.25962441 0 0 1 41.824219 27.316406 L 26.980469 35.888672 A 0.77880489 0.77880489 0 0 0 26.589844 36.5625 L 26.589844 40.5625 A 0.77931621 0.77931621 0 0 0 26.980469 41.236328 L 28.408203 42.0625 A 0.77931621 0.77931621 0 0 1 28.796875 42.738281 L 28.796875 45.433594 A 0.77931621 0.77931621 0 0 1 28.408203 46.107422 L 26.980469 46.933594 A 0.77931621 0.77931621 0 0 0 26.589844 47.607422 L 26.589844 51.607422 A 0.77893111 0.77893111 0 0 0 26.980469 52.28125 L 31.748047 55.037109 A 0.2595202 0.2595202 0 0 0 32.138672 54.8125 L 32.138672 39.763672 A 0.77879647 0.77879647 0 0 1 32.527344 39.089844 L 40.011719 34.767578 A 0.77774928 0.77774928 0 0 1 40.789062 34.769531 L 40.916016 34.84375 A 0.77969361 0.77969361 0 0 1 41.306641 35.517578 L 41.306641 52.65625 A 0.7788145 0.7788145 0 0 1 40.916016 53.330078 L 39.884766 53.925781 A 0.25955911 0.25955911 0 0 1 39.496094 53.701172 L 39.496094 37.607422 A 0.2595202 0.2595202 0 0 0 39.107422 37.382812 L 34.337891 40.138672 A 0.77893111 0.77893111 0 0 0 33.949219 40.8125 L 33.949219 56.904297 A 0.77845822 0.77845822 0 0 1 33.560547 57.578125 L 33.433594 57.652344 A 0.77904564 0.77904564 0 0 1 32.654297 57.652344 L 26.726562 54.230469 A 2432.5672 2432.5672 0 0 1 25.947266 53.779297 L 25.169922 53.330078 A 0.77906628 0.77906628 0 0 1 24.78125 52.65625 L 24.78125 47.609375 A 0.77931603 0.77931603 0 0 0 24.392578 46.935547 L 22.962891 46.109375 A 0.77931603 0.77931603 0 0 1 22.574219 45.433594 L 22.574219 42.738281 A 0.77931603 0.77931603 0 0 1 22.962891 42.064453 L 24.392578 41.238281 A 0.77931603 0.77931603 0 0 0 24.78125 40.5625 L 24.78125 35.517578 A 0.77873331 0.77873331 0 0 1 25.169922 34.841797 L 40.013672 26.273438 L 40.013672 26.271484 A 0.77868989 0.77868989 0 0 1 40.419922 26.167969 z M 83.246094 26.257812 C 83.205225 26.25152 83.156548 26.252822 83.099609 26.261719 C 81.769033 26.442023 80.909129 26.616407 80.638672 26.761719 C 80.463705 26.85365 80.283777 26.895105 80.236328 26.847656 C 80.113021 26.72429 77.699219 27.452549 77.699219 27.613281 C 77.699219 27.788841 78.252773 27.781939 79.070312 27.595703 C 79.424991 27.514447 80.114028 27.405014 80.601562 27.345703 C 81.089215 27.289358 81.923061 27.152274 82.455078 27.044922 C 83.24142 26.885376 83.421875 26.790019 83.421875 26.533203 C 83.421875 26.364612 83.3687 26.27669 83.246094 26.257812 z M 45.572266 29.140625 A 0.77886539 0.77886539 0 0 1 45.943359 29.246094 L 48.275391 30.59375 A 0.77891432 0.77891432 0 0 1 48.666016 31.267578 L 48.666016 37.164062 A 0.77931621 0.77931621 0 0 0 49.054688 37.837891 L 50.482422 38.664062 A 0.77931621 0.77931621 0 0 1 50.871094 39.339844 L 50.871094 42.035156 A 0.77931621 0.77931621 0 0 1 50.482422 42.708984 L 49.054688 43.535156 A 0.77931621 0.77931621 0 0 0 48.666016 44.208984 L 48.666016 48.40625 A 0.7788113 0.7788113 0 0 1 48.275391 49.082031 L 45.037109 50.951172 A 0.25956011 0.25956011 0 0 1 44.648438 50.726562 L 44.648438 49.535156 A 0.77931621 0.77931621 0 0 1 45.037109 48.861328 L 46.464844 48.035156 A 0.77931621 0.77931621 0 0 0 46.855469 47.359375 L 46.855469 44.210938 A 0.77931621 0.77931621 0 0 0 46.464844 43.535156 L 45.037109 42.708984 A 0.77931621 0.77931621 0 0 1 44.648438 42.035156 L 44.648438 39.339844 A 0.77931621 0.77931621 0 0 1 45.037109 38.666016 L 46.464844 37.839844 A 0.77931621 0.77931621 0 0 0 46.855469 37.164062 L 46.855469 32.314453 A 0.77906628 0.77906628 0 0 0 46.464844 31.640625 L 44.130859 30.291016 A 0.25959273 0.25959273 0 0 1 44.130859 29.841797 L 45.164062 29.246094 A 0.77886539 0.77886539 0 0 1 45.572266 29.140625 z M 0.12109375 30.011719 C 0.054013317 30.008753 0 30.07074 0 30.148438 C 0 30.226728 0.41789936 30.397627 0.92773438 30.529297 C 2.0613166 30.821106 2.1772441 30.839294 2.0449219 30.707031 C 1.9374271 30.59956 0.33651031 30.01765 0.12109375 30.011719 z M 2.4609375 30.880859 C 2.5027464 30.913035 2.6976856 30.988013 3.0625 31.115234 L 3.0625 31.113281 C 3.5501528 31.28291 4.058135 31.427663 4.1914062 31.433594 C 4.61702 31.451387 3.4046751 30.990788 2.7792969 30.896484 C 2.5314047 30.859415 2.4191286 30.848683 2.4609375 30.880859 z M 4.7148438 31.458984 C 4.4737456 31.460764 4.4690241 31.483738 4.6757812 31.617188 C 4.9804011 31.814099 4.9980469 31.814099 4.9980469 31.617188 C 4.9980469 31.528815 4.869882 31.457739 4.7148438 31.458984 z M 1.6679688 32.064453 C 1.4936923 32.055482 1.3864883 32.076836 1.3554688 32.126953 C 1.2103532 32.36123 1.2503279 32.376171 2.8203125 32.634766 L 2.8203125 32.636719 C 3.6182612 32.768389 4.4399092 32.886647 4.6445312 32.892578 C 5.3098375 32.922233 4.849901 32.608958 4.0664062 32.498047 C 3.6473404 32.438143 2.8883261 32.295343 2.3789062 32.179688 C 2.0833342 32.112073 1.8422452 32.073424 1.6679688 32.064453 z M 5.3671875 32.806641 C 5.3379473 32.819541 5.3203125 32.851582 5.3203125 32.898438 C 5.3203125 32.992742 5.3917399 33.068359 5.4804688 33.068359 C 5.5691383 33.068359 5.6425781 33.039564 5.6425781 32.998047 C 5.6425781 32.958309 5.5691976 32.879552 5.4804688 32.826172 C 5.4361043 32.798889 5.3964277 32.793741 5.3671875 32.806641 z M 6.4355469 33.087891 C 6.3795205 33.085666 6.3139542 33.095416 6.2558594 33.119141 C 6.127333 33.169555 6.1658565 33.210866 6.3535156 33.216797 C 6.5235595 33.223321 6.6197859 33.184239 6.5664062 33.130859 C 6.5396571 33.10417 6.4915733 33.090115 6.4355469 33.087891 z M 54.660156 33.988281 C 54.642558 33.990505 54.62111 34.001937 54.599609 34.023438 C 54.516574 34.103507 54.499283 34.247667 54.558594 34.34375 L 54.564453 34.34375 C 54.72222 34.588703 54.744141 34.563806 54.744141 34.197266 C 54.744141 34.057144 54.712952 33.981609 54.660156 33.988281 z M 56.431641 34.789062 C 56.374925 34.777942 56.283553 34.781976 56.173828 34.802734 C 55.956941 34.845169 55.781544 34.903788 55.779297 34.939453 C 55.786487 35.061086 56.406316 34.994005 56.488281 34.861328 C 56.511709 34.825742 56.488357 34.800183 56.431641 34.789062 z M 61.566406 37.923828 C 61.510358 37.921604 61.446796 37.931354 61.388672 37.955078 C 61.260561 38.005492 61.298906 38.046803 61.486328 38.052734 C 61.655957 38.059259 61.750645 38.020177 61.697266 37.966797 C 61.670576 37.940107 61.622455 37.926052 61.566406 37.923828 z M 9.2695312 38.388672 C 9.1259993 38.388672 9.0548091 38.462408 9.109375 38.550781 C 9.1642967 38.639747 9.2357241 38.710938 9.2695312 38.710938 C 9.3036349 38.710938 9.3770748 38.639154 9.4316406 38.550781 C 9.4863251 38.461815 9.4129446 38.388672 9.2695312 38.388672 z M 47.740234 39.306641 A 0.77691217 0.77691217 0 0 0 47.371094 39.412109 L 46.847656 39.712891 A 0.77991406 0.77991406 0 0 0 46.458984 40.388672 L 46.458984 40.988281 A 0.77991406 0.77991406 0 0 0 46.847656 41.664062 L 47.371094 41.966797 A 0.77691217 0.77691217 0 0 0 48.148438 41.966797 L 48.673828 41.664062 A 0.77941627 0.77941627 0 0 0 49.0625 40.988281 L 49.0625 40.388672 A 0.77941627 0.77941627 0 0 0 48.673828 39.712891 L 48.148438 39.410156 A 0.77691217 0.77691217 0 0 0 47.740234 39.306641 z M 25.666016 42.703125 A 0.77740759 0.77740759 0 0 0 25.294922 42.808594 L 24.771484 43.111328 A 0.77941627 0.77941627 0 0 0 24.382812 43.787109 L 24.382812 44.386719 A 0.77941627 0.77941627 0 0 0 24.771484 45.0625 L 25.294922 45.365234 A 0.77740759 0.77740759 0 0 0 26.074219 45.365234 L 26.597656 45.0625 A 0.77941627 0.77941627 0 0 0 26.988281 44.386719 L 26.988281 43.787109 A 0.77941627 0.77941627 0 0 0 26.597656 43.111328 L 26.074219 42.808594 A 0.77740759 0.77740759 0 0 0 25.666016 42.703125 z M 57.03125 46.167969 C 56.831373 46.150769 56.749896 46.173255 56.855469 46.220703 C 56.962228 46.268152 57.012292 46.405583 56.964844 46.525391 C 56.916802 46.651129 57.028393 46.787681 57.232422 46.853516 C 57.487458 46.933585 57.534954 47.011328 57.40625 47.140625 C 57.062841 47.484212 57.326097 47.712643 58.203125 47.830078 C 58.428506 47.86092 58.790735 47.955782 59.007812 48.042969 L 59.007812 48.041016 C 59.695639 48.315624 61.095703 48.209615 61.095703 47.882812 C 61.095703 47.649603 60.194099 47.261389 58.777344 46.884766 C 58.034121 46.687854 57.419994 46.453607 57.414062 46.365234 C 57.406352 46.275675 57.234093 46.185762 57.03125 46.167969 z M 62.583984 48.146484 C 62.494566 48.154195 62.391538 48.172825 62.267578 48.199219 L 61.660156 48.328125 L 62.628906 48.695312 C 63.160923 48.898155 63.741223 49.091367 63.917969 49.126953 C 64.095249 49.161353 64.603824 49.331486 65.046875 49.505859 C 66.017436 49.88782 66.255859 49.910602 66.255859 49.615234 C 66.255859 49.487716 66.016879 49.34642 65.703125 49.287109 C 64.579898 49.076378 63.488032 48.683344 63.185547 48.380859 C 62.994626 48.190472 62.852239 48.123353 62.583984 48.146484 z M 13.148438 49.349609 C 13.108699 49.349609 13.031895 49.423346 12.978516 49.511719 C 12.923357 49.600685 12.955117 49.673828 13.048828 49.673828 C 13.143132 49.673828 13.220703 49.600092 13.220703 49.511719 C 13.220703 49.423346 13.189955 49.349609 13.148438 49.349609 z M 53.337891 50.804688 C 53.254856 50.804688 53.225917 50.878424 53.279297 50.966797 C 53.334456 51.05517 53.45069 51.126953 53.539062 51.126953 C 53.622098 51.126953 53.652989 51.05517 53.599609 50.966797 C 53.54445 50.878424 53.426264 50.804688 53.337891 50.804688 z M 10.4375 51.064453 C 10.248863 51.063452 9.4533772 51.470249 8.7871094 51.923828 C 8.5212787 52.104726 8.3873896 52.255207 8.4902344 52.255859 C 8.7558812 52.257461 10.478516 51.247017 10.478516 51.089844 C 10.478516 51.071939 10.464448 51.064596 10.4375 51.064453 z M 53.923828 51.203125 C 53.897296 51.214434 53.896182 51.245111 53.923828 51.289062 C 53.977801 51.376249 54.090793 51.447266 54.173828 51.447266 C 54.405733 51.447266 54.355525 51.331369 54.076172 51.224609 C 54.00322 51.198513 53.950963 51.191559 53.923828 51.203125 z M 54.585938 51.685547 C 54.525215 51.685445 54.488192 51.704305 54.488281 51.748047 C 54.488341 51.806171 54.8328 52.050214 55.253906 52.291016 C 55.674953 52.531699 56.599356 53.123273 57.308594 53.605469 C 58.729679 54.572056 58.887058 54.63915 58.810547 54.244141 C 58.782078 54.096457 58.614246 53.963034 58.4375 53.951172 C 58.260161 53.937946 57.751645 53.660786 57.308594 53.333984 C 56.865365 53.006945 56.321431 52.64938 56.099609 52.539062 C 55.877728 52.429931 55.563495 52.219949 55.400391 52.072266 C 55.162184 51.860526 54.768104 51.685853 54.585938 51.685547 z M 6.0566406 52.095703 C 6.0172583 52.095703 5.9393315 52.167486 5.8847656 52.255859 C 5.8300811 52.344825 5.8612486 52.417969 5.9550781 52.417969 C 6.0491449 52.417969 6.1269531 52.344232 6.1269531 52.255859 C 6.1269531 52.166893 6.0957857 52.095703 6.0566406 52.095703 z M 7.0644531 52.902344 C 6.8293454 52.902344 6.6136397 52.957183 6.5839844 53.025391 C 6.5237484 53.164356 4.4283627 54.40728 3.9902344 54.564453 C 3.8351368 54.620205 3.7089844 54.7401 3.7089844 54.832031 C 3.7089844 54.922777 3.6044364 54.998047 3.4765625 54.998047 C 3.3486886 54.998047 3.1990971 55.06983 3.1445312 55.158203 C 3.0891943 55.247169 3.0967531 55.320312 3.1601562 55.320312 C 3.3889889 55.320312 5.6507672 54.127777 5.9492188 53.849609 C 6.1170147 53.693207 6.5327219 53.416459 6.8730469 53.234375 C 7.4527499 52.920621 7.4649785 52.902344 7.0644531 52.902344 z M 55.201172 53.298828 C 55.146656 53.294637 55.132812 53.322285 55.132812 53.369141 C 55.132812 53.455141 55.283701 53.571549 55.46875 53.630859 C 55.948811 53.783229 57.336009 54.642494 58.255859 55.355469 C 59.075237 55.990687 59.544138 56.142576 59.382812 55.722656 C 59.331805 55.5898 59.226308 55.480469 59.150391 55.480469 C 59.074295 55.480469 58.303144 55.056078 57.435547 54.537109 C 55.88638 53.609994 55.364719 53.3114 55.201172 53.298828 z M 7.53125 54.894531 C 7.5020098 54.88341 7.46038 54.889326 7.4160156 54.916016 C 7.3273461 54.971175 7.2558594 55.087408 7.2558594 55.175781 C 7.2558594 55.258816 7.3272868 55.289708 7.4160156 55.236328 C 7.5046852 55.181169 7.578125 55.062982 7.578125 54.974609 C 7.578125 54.933092 7.5604902 54.905652 7.53125 54.894531 z M 2.3222656 55.763672 C 2.136368 55.648787 0.16210938 56.868124 0.16210938 57.097656 C 0.16210938 57.337924 0.26879552 57.296293 1.1113281 56.730469 C 1.5403523 56.442278 2.023332 56.1281 2.1855469 56.033203 C 2.3463976 55.938306 2.4092152 55.817052 2.3222656 55.763672 z M 59.693359 56.025391 C 59.664149 56.038291 59.646484 56.070332 59.646484 56.117188 C 59.646484 56.211492 59.718268 56.287109 59.806641 56.287109 C 59.895607 56.287109 59.96875 56.258314 59.96875 56.216797 C 59.96875 56.177652 59.895014 56.098302 59.806641 56.044922 C 59.762158 56.017639 59.72257 56.012491 59.693359 56.025391 z M 5.5644531 56.359375 C 5.4083924 56.362583 5.017319 56.618156 4.3847656 57.126953 C 4.0217721 57.418881 3.3957377 57.862397 2.9921875 58.113281 C 2.5886195 58.364047 2.2578125 58.636901 2.2578125 58.71875 C 2.2578125 59.026988 2.6527587 58.843463 3.4492188 58.166016 C 3.9020858 57.780733 4.5802302 57.271806 4.9570312 57.035156 C 5.3338382 56.79904 5.6425781 56.531559 5.6425781 56.441406 C 5.6425781 56.386811 5.6164734 56.358306 5.5644531 56.359375 z M 49.5 56.449219 C 49.405696 56.449219 49.328125 56.521002 49.328125 56.609375 C 49.328125 56.698341 49.358873 56.771484 49.400391 56.771484 C 49.439536 56.771484 49.516933 56.697748 49.570312 56.609375 C 49.625471 56.520409 49.593711 56.449219 49.5 56.449219 z M 9.8242188 57.09375 C 9.7293216 57.09375 9.7005266 57.165533 9.7539062 57.253906 C 9.8084721 57.342872 9.8823106 57.416016 9.9238281 57.416016 C 9.9653456 57.416016 9.9960938 57.342279 9.9960938 57.253906 C 9.9960938 57.16494 9.9179297 57.09375 9.8242188 57.09375 z M 24.341797 59.755859 C 24.43017 59.7007 24.503906 59.763628 24.503906 59.896484 C 24.503906 60.02934 24.43017 60.184902 24.341797 60.238281 C 24.252831 60.29344 24.181641 60.229152 24.181641 60.095703 C 24.181641 59.962847 24.253424 59.809239 24.341797 59.755859 z M 23.865234 60.478516 C 23.702713 60.527372 23.385266 61.079283 23.386719 61.365234 L 23.388672 61.365234 C 23.389265 61.602477 23.467631 61.538222 23.689453 61.123047 C 23.854337 60.812496 23.965346 60.531752 23.923828 60.490234 C 23.908259 60.474428 23.888452 60.471536 23.865234 60.478516 z M 48.511719 61.210938 C 48.436394 61.257141 48.616323 61.553608 48.914062 61.869141 C 49.212277 62.184733 49.589442 62.690296 49.751953 62.992188 C 49.914465 63.294079 50.103075 63.541016 50.171875 63.541016 C 50.388359 63.541016 50.306124 63.051857 50.074219 62.962891 C 49.952395 62.916094 49.581547 62.483556 49.25 62.001953 C 48.918334 61.520231 48.587043 61.163489 48.511719 61.210938 z M 38.039062 61.228516 C 37.997545 61.187591 37.746774 61.249752 37.480469 61.367188 C 37.105625 61.532071 37.068661 61.585866 37.318359 61.591797 C 37.664853 61.603066 38.164208 61.351289 38.039062 61.228516 z M 50.908203 61.34375 C 50.856603 61.339153 50.799352 61.410389 50.691406 61.552734 C 50.56804 61.715839 50.464789 61.975465 50.462891 62.130859 L 50.462891 62.136719 C 50.459332 62.331258 50.581208 62.417969 50.859375 62.417969 C 51.300054 62.417969 51.381059 62.133723 51.089844 61.589844 C 51.006216 61.430298 50.959803 61.348347 50.908203 61.34375 z M 42.880859 61.607422 C 42.791893 61.607422 42.71875 61.679205 42.71875 61.767578 C 42.71875 61.856544 42.792486 61.929688 42.880859 61.929688 C 42.969825 61.929688 43.042969 61.855951 43.042969 61.767578 C 43.042969 61.678612 42.969232 61.607422 42.880859 61.607422 z M 32.724609 61.767578 C 32.558539 61.767578 32.385339 61.828205 32.337891 61.902344 C 32.292221 61.977668 32.466608 62.037109 32.724609 62.037109 C 32.982611 62.037109 33.158777 61.976482 33.111328 61.902344 C 33.066252 61.827019 32.891273 61.767578 32.724609 61.767578 z M 24.712891 61.830078 C 24.68368 61.842978 24.664062 61.873066 24.664062 61.919922 C 24.664062 62.014226 24.737799 62.091797 24.826172 62.091797 C 24.915138 62.091797 24.988281 62.061049 24.988281 62.019531 C 24.988281 61.979793 24.914545 61.902989 24.826172 61.849609 C 24.781689 61.822326 24.742101 61.817178 24.712891 61.830078 z M 23.398438 61.865234 C 23.294466 61.80106 21.842038 65.079799 21.53125 66.082031 C 21.46245 66.301481 21.485457 66.445312 21.589844 66.445312 C 21.685334 66.445312 21.763672 66.346196 21.763672 66.224609 C 21.763672 66.103378 22.01793 65.508499 22.328125 64.902344 C 22.63832 64.296366 22.892633 63.688382 22.894531 63.550781 C 22.896904 63.413536 23.038763 62.993984 23.208984 62.619141 C 23.380985 62.243882 23.464272 61.906752 23.398438 61.865234 z M 58.929688 63.607422 C 58.806983 63.627399 58.800208 63.762421 58.966797 64.029297 C 59.171893 64.857334 59.345945 64.857155 60.4375 64.927734 C 60.564425 64.775306 60.514352 64.635926 60.248047 64.394531 C 59.660982 63.861476 59.134195 63.574126 58.929688 63.607422 z M 17.617188 64.248047 C 17.599765 64.265025 17.58695 64.320352 17.583984 64.414062 L 17.585938 64.414062 C 17.579413 64.583691 17.616542 64.680333 17.669922 64.626953 C 17.723302 64.573573 17.729089 64.432655 17.681641 64.316406 C 17.656434 64.252054 17.63461 64.231069 17.617188 64.248047 z M 34.748047 64.546875 C 34.723526 64.527358 34.703125 64.693261 34.703125 64.992188 C 34.703125 65.396094 34.73192 65.554753 34.773438 65.355469 C 34.814955 65.155532 34.814955 64.82819 34.773438 64.628906 C 34.764837 64.579085 34.756221 64.553381 34.748047 64.546875 z M 56.396484 64.830078 C 56.287353 64.830078 56.321342 64.95122 56.478516 65.125 C 56.625013 65.287511 56.744141 65.510009 56.744141 65.619141 C 56.744141 65.728272 56.81303 65.774083 56.898438 65.720703 C 56.982484 65.668618 57.173351 65.81177 57.320312 66.035156 C 57.583397 66.436758 57.873047 66.575652 57.873047 66.300781 C 57.873047 66.222491 57.765075 66.068709 57.632812 65.958984 C 57.49877 65.84926 57.434973 65.695478 57.482422 65.617188 C 57.531057 65.540084 57.438669 65.474609 57.277344 65.474609 C 57.116019 65.474609 56.894114 65.32909 56.783203 65.152344 C 56.672292 64.975598 56.498499 64.830078 56.396484 64.830078 z M 48.833984 64.832031 C 48.511215 64.832031 49.264905 66.078325 49.970703 66.712891 C 50.396495 67.095741 50.792252 67.602427 50.851562 67.837891 C 50.970303 68.310775 51.712564 69.43876 52.175781 69.851562 C 52.339004 69.996577 52.618176 70.301544 52.794922 70.529297 L 52.798828 70.529297 C 52.976167 70.75705 53.173111 70.948147 53.232422 70.951172 C 53.444754 70.965347 53.542604 70.323028 53.378906 70.017578 C 53.284009 69.848543 53.258384 69.653971 53.324219 69.583984 C 53.387088 69.512812 53.35498 69.505142 53.25 69.564453 C 52.894966 69.210724 52.807477 68.764178 52.382812 68.496094 C 52.086555 68.121843 51.760984 67.767007 51.660156 67.701172 C 51.559328 67.638896 51.301409 67.440837 51.087891 67.261719 C 50.775916 67.000158 50.74335 66.906498 50.921875 66.789062 C 51.039903 66.7084 51.093179 66.558279 51.027344 66.455078 C 50.939564 66.313207 50.856188 66.313499 50.683594 66.457031 C 50.559041 66.557859 50.457031 66.58101 50.457031 66.503906 C 50.456913 66.322237 49.010137 64.832031 48.833984 64.832031 z M 26.363281 65.894531 C 26.349457 65.893354 26.328212 65.914898 26.300781 65.960938 C 26.221305 66.093912 26.064629 66.60231 25.953125 67.089844 C 25.840435 67.577437 25.576381 68.578818 25.365234 69.316406 C 25.154088 70.054054 25.026627 70.73424 25.085938 70.826172 C 25.236587 71.069939 25.465784 70.644286 25.46875 70.115234 C 25.469936 69.872772 25.643556 69.07464 25.853516 68.341797 C 26.235477 67.007217 26.460053 65.902772 26.363281 65.894531 z M 34.904297 65.931641 C 34.876801 65.903088 34.853787 66.003396 34.851562 66.203125 C 34.848597 66.470616 34.880286 66.597413 34.927734 66.488281 C 34.975183 66.37915 34.975111 66.16108 34.933594 66.003906 C 34.923807 65.964761 34.913462 65.941158 34.904297 65.931641 z M 35.072266 66.828125 C 35.057725 66.814298 35.041849 66.813619 35.025391 66.830078 C 34.88601 66.969814 34.938058 68.774232 35.150391 71.119141 C 35.234612 72.050022 35.304569 73.373432 35.304688 74.060547 L 35.300781 74.054688 C 35.300781 75.032959 35.351712 75.304688 35.533203 75.304688 C 35.660721 75.304688 35.764795 75.178832 35.765625 75.023438 C 35.766218 74.868459 35.806067 74.524118 35.853516 74.257812 C 35.933585 73.821879 35.928892 73.8128 35.800781 74.175781 C 35.660808 74.581467 35.65444 74.583583 35.642578 74.212891 C 35.608178 73.419966 35.294944 69.071071 35.228516 68.458984 C 35.191743 68.104306 35.153356 67.56675 35.150391 67.263672 C 35.147722 67.036364 35.115887 66.869605 35.072266 66.828125 z M 24.609375 68.421875 C 24.579988 68.387904 24.481807 68.559989 24.310547 68.982422 C 24.050351 69.624105 23.411729 71.682085 22.974609 73.294922 C 22.829891 73.82682 22.577586 74.734047 22.412109 75.310547 C 22.246039 75.886869 22.063145 76.566289 22.009766 76.818359 L 22.011719 76.816406 C 21.939953 77.152698 21.969258 77.260411 22.121094 77.207031 C 22.23497 77.169072 22.333913 77.07149 22.339844 76.990234 C 22.362263 76.625889 22.628908 75.601663 23.048828 74.263672 C 23.299119 73.465705 23.550136 72.558242 23.603516 72.248047 C 23.658556 71.937674 23.927156 70.971592 24.201172 70.101562 C 24.514777 69.106514 24.658353 68.478494 24.609375 68.421875 z M 22.408203 68.863281 C 22.497169 68.863281 22.568359 68.935065 22.568359 69.023438 C 22.568359 69.112404 22.496576 69.185547 22.408203 69.185547 C 22.31983 69.185547 22.246094 69.11181 22.246094 69.023438 C 22.246094 68.935065 22.31983 68.863281 22.408203 68.863281 z M 52.144531 70.064453 C 52.115422 70.053893 52.093976 70.147911 52.09375 70.3125 C 52.09375 70.3125 52.09375 70.314453 52.09375 70.314453 C 52.094039 70.531876 52.128537 70.624106 52.175781 70.513672 C 52.22323 70.403354 52.22323 70.222239 52.175781 70.111328 C 52.164364 70.083749 52.15429 70.067993 52.144531 70.064453 z M 52.740234 75.318359 C 52.555578 75.273431 52.395472 75.32578 52.398438 75.511719 C 52.405375 75.785467 53.200312 76.809722 54.441406 78.148438 C 54.87651 78.621144 55.238759 78.642372 55.376953 78.207031 C 55.457734 77.952588 55.299285 77.71688 54.662109 77.144531 C 54.211526 76.740151 53.88412 76.340254 53.9375 76.257812 C 53.987321 76.178336 53.97003 76.12095 53.896484 76.132812 C 53.562031 76.190937 53.398737 76.086548 53.228516 75.712891 C 53.134004 75.505007 52.924891 75.363287 52.740234 75.318359 z M 35.994141 75.693359 C 35.976718 75.710411 35.963903 75.767617 35.960938 75.861328 L 35.962891 75.861328 C 35.956366 76.030957 35.993495 76.125645 36.046875 76.072266 C 36.100255 76.018886 36.107995 75.879921 36.060547 75.763672 C 36.03534 75.699616 36.011563 75.676308 35.994141 75.693359 z M 36.111328 76.277344 C 36.022362 76.277344 35.949219 76.422863 35.949219 76.599609 C 35.949219 76.776355 36.022955 76.921875 36.111328 76.921875 C 36.200294 76.921875 36.273438 76.776355 36.273438 76.599609 C 36.273438 76.422863 36.199701 76.277344 36.111328 76.277344 z M 13.220703 77.363281 L 12.925781 77.748047 C 12.537889 78.250231 12.386675 78.683733 12.519531 78.898438 L 12.521484 78.898438 C 12.69568 79.17963 13.220703 78.391116 13.220703 77.849609 L 13.220703 77.363281 z "
                     style="fill:#0065ac;fill-opacity:1;stroke-width:0.16120234" />
                  <g
                     id="text1605"
                     style="font-style:normal;font-weight:normal;font-size:11.33898735px;line-height:1.25;font-family:sans-serif;letter-spacing:0px;word-spacing:0px;fill:#0065ac;fill-opacity:1;stroke:none;stroke-width:0.28347468"
                     aria-label="plopp">
                    <path
                       id="path2336"
                       style="font-weight:bold;font-size:6.04746008px;fill:#0065ac;fill-opacity:1;stroke-width:0.28347468"
                       d="m 109.86528,115.30224 v -4.1153 h 0.45658 q 0.14514,0 0.1905,0.13607 l 0.0605,0.28726 q 0.18747,-0.21469 0.42937,-0.34773 0.24492,-0.13305 0.57149,-0.13305 0.25399,0 0.46263,0.10583 0.21166,0.10583 0.36284,0.30842 0.15421,0.19957 0.23586,0.4959 0.0847,0.2933 0.0847,0.67429 0,0.34773 -0.0937,0.64405 -0.0937,0.29633 -0.26911,0.51404 -0.17235,0.21771 -0.4203,0.34168 -0.24492,0.12095 -0.55032,0.12095 -0.26306,0 -0.44751,-0.0786 -0.18142,-0.0816 -0.32656,-0.22376 v 1.26997 z m 1.45139,-3.58312 q -0.23283,0 -0.39913,0.0998 -0.16328,0.0968 -0.3054,0.27516 v 1.39092 q 0.127,0.15723 0.27516,0.22073 0.15119,0.0605 0.32656,0.0605 0.16933,0 0.3054,-0.0635 0.13607,-0.0635 0.2298,-0.19352 0.0968,-0.13002 0.14817,-0.32656 0.0514,-0.19957 0.0514,-0.46868 0,-0.27214 -0.0454,-0.45961 -0.0423,-0.19049 -0.12397,-0.30842 -0.0816,-0.11792 -0.19957,-0.17235 -0.1149,-0.0544 -0.26306,-0.0544 z" />
                    <path
                       id="path2338"
                       style="font-weight:bold;font-size:6.04746008px;fill:#0065ac;fill-opacity:1;stroke-width:0.28347468"
                       d="m 114.05616,109.79603 v 4.49326 h -0.74686 v -4.49326 z" />
                    <path
                       id="path2340"
                       style="font-weight:bold;font-size:6.04746008px;fill:#0065ac;fill-opacity:1;stroke-width:0.28347468"
                       d="m 116.17579,111.13856 q 0.34471,0 0.62591,0.11188 0.28423,0.11188 0.4838,0.31749 0.20259,0.20562 0.31144,0.50194 0.10886,0.29633 0.10886,0.6622 0,0.3689 -0.10886,0.66522 -0.10885,0.29633 -0.31144,0.50496 -0.19957,0.20864 -0.4838,0.32052 -0.2812,0.11188 -0.62591,0.11188 -0.34773,0 -0.63196,-0.11188 -0.28423,-0.11188 -0.48682,-0.32052 -0.19957,-0.20863 -0.31144,-0.50496 -0.10886,-0.29632 -0.10886,-0.66522 0,-0.36587 0.10886,-0.6622 0.11187,-0.29632 0.31144,-0.50194 0.20259,-0.20561 0.48682,-0.31749 0.28423,-0.11188 0.63196,-0.11188 z m 0,2.62158 q 0.38704,0 0.57149,-0.26004 0.18747,-0.26004 0.18747,-0.76198 0,-0.50194 -0.18747,-0.76501 -0.18445,-0.26306 -0.57149,-0.26306 -0.39308,0 -0.58358,0.26609 -0.18747,0.26306 -0.18747,0.76198 0,0.49891 0.18747,0.76198 0.1905,0.26004 0.58358,0.26004 z" />
                    <path
                       id="path2342"
                       style="font-style:normal;font-variant:normal;font-weight:300;font-stretch:normal;font-size:6.04746008px;font-family:Lato;-inkscape-font-specification:'Lato Light';fill:#0065ac;fill-opacity:1;stroke-width:0.28347468"
                       d="m 118.40427,115.35364 v -4.07296 h 0.16026 q 0.0756,0 0.0877,0.0756 l 0.0272,0.46566 q 0.19957,-0.27214 0.46868,-0.4324 0.26911,-0.16025 0.60172,-0.16025 0.55335,0 0.86177,0.38401 0.31144,0.38401 0.31144,1.15204 0,0.32959 -0.0877,0.61684 -0.0847,0.28423 -0.25399,0.49589 -0.16631,0.20864 -0.41123,0.32959 -0.2419,0.12095 -0.55939,0.12095 -0.30539,0 -0.52915,-0.11188 -0.22376,-0.11188 -0.38704,-0.32958 v 1.4665 z m 1.26392,-3.89154 q -0.29935,0 -0.54124,0.15421 -0.2419,0.15421 -0.4324,0.42937 v 1.58746 q 0.17235,0.26004 0.38099,0.36587 0.20864,0.10281 0.48078,0.10281 0.26608,0 0.46565,-0.0968 0.19957,-0.0968 0.33261,-0.27213 0.13607,-0.17841 0.20259,-0.42333 0.0696,-0.24794 0.0696,-0.54427 0,-0.67127 -0.24795,-0.98573 -0.24795,-0.3175 -0.71058,-0.3175 z" />
                    <path
                       id="path2344"
                       style="font-style:normal;font-variant:normal;font-weight:300;font-stretch:normal;font-size:6.04746008px;font-family:Lato;-inkscape-font-specification:'Lato Light';fill:#0065ac;fill-opacity:1;stroke-width:0.28347468"
                       d="m 121.73944,115.35364 v -4.07296 h 0.16026 q 0.0756,0 0.0877,0.0756 l 0.0272,0.46566 q 0.19956,-0.27214 0.46868,-0.4324 0.26911,-0.16025 0.60172,-0.16025 0.55334,0 0.86176,0.38401 0.31145,0.38401 0.31145,1.15204 0,0.32959 -0.0877,0.61684 -0.0847,0.28423 -0.254,0.49589 -0.1663,0.20864 -0.41122,0.32959 -0.2419,0.12095 -0.55939,0.12095 -0.3054,0 -0.52916,-0.11188 -0.22375,-0.11188 -0.38703,-0.32958 v 1.4665 z m 1.26392,-3.89154 q -0.29935,0 -0.54125,0.15421 -0.2419,0.15421 -0.43239,0.42937 v 1.58746 q 0.17235,0.26004 0.38099,0.36587 0.20863,0.10281 0.48077,0.10281 0.26609,0 0.46565,-0.0968 0.19957,-0.0968 0.33261,-0.27213 0.13607,-0.17841 0.20259,-0.42333 0.0695,-0.24794 0.0695,-0.54427 0,-0.67127 -0.24795,-0.98573 -0.24794,-0.3175 -0.71057,-0.3175 z" />
                  </g>
                </g>
              </g>
            </g>
          </g>
        </g>
      </g>
    </g>
  </g>
</svg>
