<?xml version="1.0" encoding="UTF-8" standalone="no"?>
<!DOCTYPE svg PUBLIC "-//W3C//DTD SVG 1.1//EN"
 "http://www.w3.org/Graphics/SVG/1.1/DTD/svg11.dtd">
<!-- Generated by graphviz version 2.43.0 (0)
 -->
<!-- Title: %3 Pages: 1 -->
<svg width="441pt" height="227pt"
 viewBox="0.00 0.00 440.50 227.05" xmlns="http://www.w3.org/2000/svg" xmlns:xlink="http://www.w3.org/1999/xlink">
<g id="graph0" class="graph" transform="scale(1 1) rotate(0) translate(4 223.05)">
<title>%3</title>
<polygon fill="white" stroke="transparent" points="-4,4 -4,-223.05 436.5,-223.05 436.5,4 -4,4"/>
<!-- 30435536&#45;5c55&#45;11ed&#45;911f&#45;ddde605016aa -->
<g id="node1" class="node">
<title>30435536&#45;5c55&#45;11ed&#45;911f&#45;ddde605016aa</title>
<polygon fill="none" stroke="black" points="389.5,-219.05 295.5,-219.05 295.5,-196.05 389.5,-196.05 389.5,-219.05"/>
<text text-anchor="middle" x="342.5" y="-203.85" font-family="Times,serif" font-size="14.00">Input node</text>
</g>
<!-- 30435538&#45;5c55&#45;11ed&#45;911f&#45;ddde605016aa -->
<g id="node2" class="node">
<title>30435538&#45;5c55&#45;11ed&#45;911f&#45;ddde605016aa</title>
<polygon fill="none" stroke="black" points="262.5,-160.05 168.5,-160.05 168.5,-137.05 262.5,-137.05 262.5,-160.05"/>
<text text-anchor="middle" x="215.5" y="-144.85" font-family="Times,serif" font-size="14.00">Smoothing</text>
</g>
<!-- 30435536&#45;5c55&#45;11ed&#45;911f&#45;ddde605016aa&#45;&gt;30435538&#45;5c55&#45;11ed&#45;911f&#45;ddde605016aa -->
<g id="edge1" class="edge">
<title>30435536&#45;5c55&#45;11ed&#45;911f&#45;ddde605016aa&#45;&gt;30435538&#45;5c55&#45;11ed&#45;911f&#45;ddde605016aa</title>
<path fill="none" stroke="black" d="M318.91,-195.97C299.04,-187.05 270.4,-174.19 248.3,-164.27"/>
<polygon fill="black" stroke="black" points="249.52,-160.99 238.96,-160.08 246.65,-167.37 249.52,-160.99"/>
</g>
<!-- 3043553a&#45;5c55&#45;11ed&#45;911f&#45;ddde605016aa -->
<g id="node7" class="node">
<title>3043553a&#45;5c55&#45;11ed&#45;911f&#45;ddde605016aa</title>
<polygon fill="none" stroke="black" points="432.5,-160.05 280.5,-160.05 280.5,-137.05 432.5,-137.05 432.5,-160.05"/>
<text text-anchor="middle" x="356.5" y="-144.85" font-family="Times,serif" font-size="14.00">Summing raw data</text>
</g>
<!-- 30435536&#45;5c55&#45;11ed&#45;911f&#45;ddde605016aa&#45;&gt;3043553a&#45;5c55&#45;11ed&#45;911f&#45;ddde605016aa -->
<g id="edge6" class="edge">
<title>30435536&#45;5c55&#45;11ed&#45;911f&#45;ddde605016aa&#45;&gt;3043553a&#45;5c55&#45;11ed&#45;911f&#45;ddde605016aa</title>
<path fill="none" stroke="black" d="M345.13,-195.83C346.91,-188.59 349.32,-178.79 351.46,-170.08"/>
<polygon fill="black" stroke="black" points="354.89,-170.77 353.88,-160.23 348.09,-169.1 354.89,-170.77"/>
</g>
<!-- 3043553b&#45;5c55&#45;11ed&#45;911f&#45;ddde605016aa -->
<g id="node3" class="node">
<title>3043553b&#45;5c55&#45;11ed&#45;911f&#45;ddde605016aa</title>
<polygon fill="none" stroke="black" points="195,-96.29 0,-96.29 0,-73.29 195,-73.29 195,-96.29"/>
<text text-anchor="middle" x="97.5" y="-81.09" font-family="Times,serif" font-size="14.00">Summing smoothed data</text>
</g>
<!-- 30435538&#45;5c55&#45;11ed&#45;911f&#45;ddde605016aa&#45;&gt;3043553b&#45;5c55&#45;11ed&#45;911f&#45;ddde605016aa -->
<g id="edge2" class="edge">
<title>30435538&#45;5c55&#45;11ed&#45;911f&#45;ddde605016aa&#45;&gt;3043553b&#45;5c55&#45;11ed&#45;911f&#45;ddde605016aa</title>
<path fill="none" stroke="black" d="M195.22,-136.94C176.39,-127.08 148.14,-112.3 126.86,-101.16"/>
<polygon fill="black" stroke="black" points="128.4,-98.01 117.92,-96.48 125.15,-104.21 128.4,-98.01"/>
</g>
<!-- 30435539&#45;5c55&#45;11ed&#45;911f&#45;ddde605016aa -->
<g id="node6" class="node">
<title>30435539&#45;5c55&#45;11ed&#45;911f&#45;ddde605016aa</title>
<ellipse fill="lightgrey" stroke="lightgrey" cx="270.5" cy="-84.79" rx="57.97" ry="16.03"/>
<text text-anchor="middle" x="270.5" y="-81.09" font-family="Times,serif" font-size="14.00">Figure2d</text>
</g>
<!-- 30435538&#45;5c55&#45;11ed&#45;911f&#45;ddde605016aa&#45;&gt;30435539&#45;5c55&#45;11ed&#45;911f&#45;ddde605016aa -->
<g id="edge5" class="edge">
<title>30435538&#45;5c55&#45;11ed&#45;911f&#45;ddde605016aa&#45;&gt;30435539&#45;5c55&#45;11ed&#45;911f&#45;ddde605016aa</title>
<path fill="none" stroke="black" d="M225.08,-136.8C232.01,-129.02 241.62,-118.23 250.21,-108.57"/>
<polygon fill="black" stroke="black" points="253.08,-110.62 257.12,-100.82 247.85,-105.96 253.08,-110.62"/>
</g>
<!-- 3043553c&#45;5c55&#45;11ed&#45;911f&#45;ddde605016aa -->
<g id="node4" class="node">
<title>3043553c&#45;5c55&#45;11ed&#45;911f&#45;ddde605016aa</title>
<ellipse fill="lightgrey" stroke="lightgrey" cx="226.5" cy="-16.26" rx="57.97" ry="16.03"/>
<text text-anchor="middle" x="226.5" y="-12.56" font-family="Times,serif" font-size="14.00">Figure1d</text>
</g>
<!-- 3043553b&#45;5c55&#45;11ed&#45;911f&#45;ddde605016aa&#45;&gt;3043553c&#45;5c55&#45;11ed&#45;911f&#45;ddde605016aa -->
<g id="edge3" class="edge">
<title>3043553b&#45;5c55&#45;11ed&#45;911f&#45;ddde605016aa&#45;&gt;3043553c&#45;5c55&#45;11ed&#45;911f&#45;ddde605016aa</title>
<path fill="none" stroke="black" d="M117.94,-73.25C137.51,-63.16 167.44,-47.72 190.92,-35.61"/>
<polygon fill="black" stroke="black" points="192.61,-38.68 199.89,-30.98 189.4,-32.46 192.61,-38.68"/>
</g>
<!-- 30435537&#45;5c55&#45;11ed&#45;911f&#45;ddde605016aa -->
<g id="node5" class="node">
<title>30435537&#45;5c55&#45;11ed&#45;911f&#45;ddde605016aa</title>
<polygon fill="none" stroke="black" points="264.5,-219.05 166.5,-219.05 166.5,-196.05 264.5,-196.05 264.5,-219.05"/>
<text text-anchor="middle" x="215.5" y="-203.85" font-family="Times,serif" font-size="14.00">Slider node</text>
</g>
<!-- 30435537&#45;5c55&#45;11ed&#45;911f&#45;ddde605016aa&#45;&gt;30435538&#45;5c55&#45;11ed&#45;911f&#45;ddde605016aa -->
<g id="edge4" class="edge">
<title>30435537&#45;5c55&#45;11ed&#45;911f&#45;ddde605016aa&#45;&gt;30435538&#45;5c55&#45;11ed&#45;911f&#45;ddde605016aa</title>
<path fill="none" stroke="black" d="M215.5,-195.83C215.5,-188.67 215.5,-179.01 215.5,-170.36"/>
<polygon fill="black" stroke="black" points="219,-170.23 215.5,-160.23 212,-170.23 219,-170.23"/>
</g>
<!-- 3043553a&#45;5c55&#45;11ed&#45;911f&#45;ddde605016aa&#45;&gt;3043553c&#45;5c55&#45;11ed&#45;911f&#45;ddde605016aa -->
<g id="edge7" class="edge">
<title>3043553a&#45;5c55&#45;11ed&#45;911f&#45;ddde605016aa&#45;&gt;3043553c&#45;5c55&#45;11ed&#45;911f&#45;ddde605016aa</title>
<path fill="none" stroke="black" d="M356.74,-136.81C356.55,-120.3 353.88,-88.49 337.5,-68.53 322.61,-50.38 299.88,-38.35 278.86,-30.53"/>
<polygon fill="black" stroke="black" points="279.95,-27.2 269.35,-27.23 277.65,-33.82 279.95,-27.2"/>
</g>
</g>
</svg>
