<?xml version="1.0" encoding="UTF-8" standalone="no"?>
<!DOCTYPE svg PUBLIC "-//W3C//DTD SVG 1.1//EN"
 "http://www.w3.org/Graphics/SVG/1.1/DTD/svg11.dtd">
<!-- Generated by graphviz version 2.43.0 (0)
 -->
<!-- Title: %3 Pages: 1 -->
<svg width="352pt" height="286pt"
 viewBox="0.00 0.00 352.48 286.05" xmlns="http://www.w3.org/2000/svg" xmlns:xlink="http://www.w3.org/1999/xlink">
<g id="graph0" class="graph" transform="scale(1 1) rotate(0) translate(4 282.05)">
<title>%3</title>
<polygon fill="white" stroke="transparent" points="-4,4 -4,-282.05 348.48,-282.05 348.48,4 -4,4"/>
<!-- 37d3778c&#45;5c55&#45;11ed&#45;911f&#45;ddde605016aa -->
<g id="node1" class="node">
<title>37d3778c&#45;5c55&#45;11ed&#45;911f&#45;ddde605016aa</title>
<polygon fill="none" stroke="black" points="196,-278.05 105,-278.05 105,-255.05 196,-255.05 196,-278.05"/>
<text text-anchor="middle" x="150.5" y="-262.85" font-family="Times,serif" font-size="14.00">Input data</text>
</g>
<!-- 37d3778e&#45;5c55&#45;11ed&#45;911f&#45;ddde605016aa -->
<g id="node2" class="node">
<title>37d3778e&#45;5c55&#45;11ed&#45;911f&#45;ddde605016aa</title>
<polygon fill="none" stroke="black" points="265.5,-219.05 155.5,-219.05 155.5,-196.05 265.5,-196.05 265.5,-219.05"/>
<text text-anchor="middle" x="210.5" y="-203.85" font-family="Times,serif" font-size="14.00">Slice by hour</text>
</g>
<!-- 37d3778c&#45;5c55&#45;11ed&#45;911f&#45;ddde605016aa&#45;&gt;37d3778e&#45;5c55&#45;11ed&#45;911f&#45;ddde605016aa -->
<g id="edge1" class="edge">
<title>37d3778c&#45;5c55&#45;11ed&#45;911f&#45;ddde605016aa&#45;&gt;37d3778e&#45;5c55&#45;11ed&#45;911f&#45;ddde605016aa</title>
<path fill="none" stroke="black" d="M161.79,-254.83C170.25,-246.79 182.02,-235.61 191.88,-226.25"/>
<polygon fill="black" stroke="black" points="194.43,-228.65 199.27,-219.23 189.6,-223.58 194.43,-228.65"/>
</g>
<!-- 37d37790&#45;5c55&#45;11ed&#45;911f&#45;ddde605016aa -->
<g id="node3" class="node">
<title>37d37790&#45;5c55&#45;11ed&#45;911f&#45;ddde605016aa</title>
<polygon fill="none" stroke="black" points="210.5,-155.29 58.5,-155.29 58.5,-132.29 210.5,-132.29 210.5,-155.29"/>
<text text-anchor="middle" x="134.5" y="-140.09" font-family="Times,serif" font-size="14.00">Sum along latitude</text>
</g>
<!-- 37d3778e&#45;5c55&#45;11ed&#45;911f&#45;ddde605016aa&#45;&gt;37d37790&#45;5c55&#45;11ed&#45;911f&#45;ddde605016aa -->
<g id="edge2" class="edge">
<title>37d3778e&#45;5c55&#45;11ed&#45;911f&#45;ddde605016aa&#45;&gt;37d37790&#45;5c55&#45;11ed&#45;911f&#45;ddde605016aa</title>
<path fill="none" stroke="black" d="M197.26,-195.8C185.71,-186.41 168.75,-172.63 155.37,-161.75"/>
<polygon fill="black" stroke="black" points="157.55,-159.02 147.59,-155.43 153.14,-164.45 157.55,-159.02"/>
</g>
<!-- 37d3778f&#45;5c55&#45;11ed&#45;911f&#45;ddde605016aa -->
<g id="node7" class="node">
<title>37d3778f&#45;5c55&#45;11ed&#45;911f&#45;ddde605016aa</title>
<ellipse fill="lightgrey" stroke="lightgrey" cx="286.5" cy="-143.79" rx="57.97" ry="16.03"/>
<text text-anchor="middle" x="286.5" y="-140.09" font-family="Times,serif" font-size="14.00">Figure2d</text>
</g>
<!-- 37d3778e&#45;5c55&#45;11ed&#45;911f&#45;ddde605016aa&#45;&gt;37d3778f&#45;5c55&#45;11ed&#45;911f&#45;ddde605016aa -->
<g id="edge7" class="edge">
<title>37d3778e&#45;5c55&#45;11ed&#45;911f&#45;ddde605016aa&#45;&gt;37d3778f&#45;5c55&#45;11ed&#45;911f&#45;ddde605016aa</title>
<path fill="none" stroke="black" d="M223.74,-195.8C233.93,-187.52 248.32,-175.82 260.75,-165.72"/>
<polygon fill="black" stroke="black" points="263.02,-168.38 268.57,-159.36 258.61,-162.95 263.02,-168.38"/>
</g>
<!-- 37d37791&#45;5c55&#45;11ed&#45;911f&#45;ddde605016aa -->
<g id="node4" class="node">
<title>37d37791&#45;5c55&#45;11ed&#45;911f&#45;ddde605016aa</title>
<polygon fill="none" stroke="black" points="161,-91.53 0,-91.53 0,-68.53 161,-68.53 161,-91.53"/>
<text text-anchor="middle" x="80.5" y="-76.33" font-family="Times,serif" font-size="14.00">Gaussian smoothing</text>
</g>
<!-- 37d37790&#45;5c55&#45;11ed&#45;911f&#45;ddde605016aa&#45;&gt;37d37791&#45;5c55&#45;11ed&#45;911f&#45;ddde605016aa -->
<g id="edge3" class="edge">
<title>37d37790&#45;5c55&#45;11ed&#45;911f&#45;ddde605016aa&#45;&gt;37d37791&#45;5c55&#45;11ed&#45;911f&#45;ddde605016aa</title>
<path fill="none" stroke="black" d="M125.09,-132.03C117.2,-123 105.74,-109.9 96.42,-99.23"/>
<polygon fill="black" stroke="black" points="99.02,-96.89 89.8,-91.66 93.75,-101.49 99.02,-96.89"/>
</g>
<!-- 37d37792&#45;5c55&#45;11ed&#45;911f&#45;ddde605016aa -->
<g id="node5" class="node">
<title>37d37792&#45;5c55&#45;11ed&#45;911f&#45;ddde605016aa</title>
<ellipse fill="lightgrey" stroke="lightgrey" cx="134.5" cy="-16.26" rx="57.97" ry="16.03"/>
<text text-anchor="middle" x="134.5" y="-12.56" font-family="Times,serif" font-size="14.00">Figure1d</text>
</g>
<!-- 37d37790&#45;5c55&#45;11ed&#45;911f&#45;ddde605016aa&#45;&gt;37d37792&#45;5c55&#45;11ed&#45;911f&#45;ddde605016aa -->
<g id="edge5" class="edge">
<title>37d37790&#45;5c55&#45;11ed&#45;911f&#45;ddde605016aa&#45;&gt;37d37792&#45;5c55&#45;11ed&#45;911f&#45;ddde605016aa</title>
<path fill="none" stroke="black" d="M144.74,-132.03C153.23,-122.32 164.67,-107.18 169.5,-91.53 175.05,-73.54 165.56,-54.35 155.07,-39.98"/>
<polygon fill="black" stroke="black" points="157.82,-37.81 148.88,-32.12 152.32,-42.14 157.82,-37.81"/>
</g>
<!-- 37d37791&#45;5c55&#45;11ed&#45;911f&#45;ddde605016aa&#45;&gt;37d37792&#45;5c55&#45;11ed&#45;911f&#45;ddde605016aa -->
<g id="edge4" class="edge">
<title>37d37791&#45;5c55&#45;11ed&#45;911f&#45;ddde605016aa&#45;&gt;37d37792&#45;5c55&#45;11ed&#45;911f&#45;ddde605016aa</title>
<path fill="none" stroke="black" d="M89.91,-68.27C96.71,-60.49 106.14,-49.7 114.58,-40.05"/>
<polygon fill="black" stroke="black" points="117.41,-42.13 121.36,-32.29 112.14,-37.52 117.41,-42.13"/>
</g>
<!-- 37d3778d&#45;5c55&#45;11ed&#45;911f&#45;ddde605016aa -->
<g id="node6" class="node">
<title>37d3778d&#45;5c55&#45;11ed&#45;911f&#45;ddde605016aa</title>
<polygon fill="none" stroke="black" points="327,-278.05 214,-278.05 214,-255.05 327,-255.05 327,-278.05"/>
<text text-anchor="middle" x="270.5" y="-262.85" font-family="Times,serif" font-size="14.00">Slider widget</text>
</g>
<!-- 37d3778d&#45;5c55&#45;11ed&#45;911f&#45;ddde605016aa&#45;&gt;37d3778e&#45;5c55&#45;11ed&#45;911f&#45;ddde605016aa -->
<g id="edge6" class="edge">
<title>37d3778d&#45;5c55&#45;11ed&#45;911f&#45;ddde605016aa&#45;&gt;37d3778e&#45;5c55&#45;11ed&#45;911f&#45;ddde605016aa</title>
<path fill="none" stroke="black" d="M259.21,-254.83C250.75,-246.79 238.98,-235.61 229.12,-226.25"/>
<polygon fill="black" stroke="black" points="231.4,-223.58 221.73,-219.23 226.57,-228.65 231.4,-223.58"/>
</g>
</g>
</svg>
