<?xml version="1.0" encoding="utf-8" standalone="no"?>
<!DOCTYPE svg PUBLIC "-//W3C//DTD SVG 1.1//EN"
  "http://www.w3.org/Graphics/SVG/1.1/DTD/svg11.dtd">
<svg xmlns:xlink="http://www.w3.org/1999/xlink" width="432pt" height="288pt" viewBox="0 0 432 288" xmlns="http://www.w3.org/2000/svg" version="1.1">
 <metadata>
  <rdf:RDF xmlns:dc="http://purl.org/dc/elements/1.1/" xmlns:cc="http://creativecommons.org/ns#" xmlns:rdf="http://www.w3.org/1999/02/22-rdf-syntax-ns#">
   <cc:Work>
    <dc:type rdf:resource="http://purl.org/dc/dcmitype/StillImage"/>
    <dc:date>2022-09-30T15:58:55.205113</dc:date>
    <dc:format>image/svg+xml</dc:format>
    <dc:creator>
     <cc:Agent>
      <dc:title>Matplotlib v3.6.0, https://matplotlib.org/</dc:title>
     </cc:Agent>
    </dc:creator>
   </cc:Work>
  </rdf:RDF>
 </metadata>
 <defs>
  <style type="text/css">*{stroke-linejoin: round; stroke-linecap: butt}</style>
 </defs>
 <g id="figure_1">
  <g id="patch_1">
   <path d="M 0 288 
L 432 288 
L 432 0 
L 0 0 
z
" style="fill: #ffffff"/>
  </g>
  <g id="axes_1">
   <g id="patch_2">
    <path d="M 55.43125 254.69 
L 413.23125 254.69 
L 413.23125 14.55 
L 55.43125 14.55 
z
" style="fill: #ffffff"/>
   </g>
   <g id="matplotlib.axis_1">
    <g id="xtick_1">
     <g id="line2d_1">
      <defs>
       <path id="mf281932a60" d="M 0 0 
L 0 3.5 
" style="stroke: #000000; stroke-width: 0.8"/>
      </defs>
      <g>
       <use xlink:href="#mf281932a60" x="65.557665" y="254.69" style="stroke: #000000; stroke-width: 0.8"/>
      </g>
     </g>
     <g id="text_1">
      <!-- $\mathdefault{10^{0}}$ -->
      <g transform="translate(56.757665 269.288437) scale(0.1 -0.1)">
       <defs>
        <path id="DejaVuSans-31" d="M 794 531 
L 1825 531 
L 1825 4091 
L 703 3866 
L 703 4441 
L 1819 4666 
L 2450 4666 
L 2450 531 
L 3481 531 
L 3481 0 
L 794 0 
L 794 531 
z
" transform="scale(0.015625)"/>
        <path id="DejaVuSans-30" d="M 2034 4250 
Q 1547 4250 1301 3770 
Q 1056 3291 1056 2328 
Q 1056 1369 1301 889 
Q 1547 409 2034 409 
Q 2525 409 2770 889 
Q 3016 1369 3016 2328 
Q 3016 3291 2770 3770 
Q 2525 4250 2034 4250 
z
M 2034 4750 
Q 2819 4750 3233 4129 
Q 3647 3509 3647 2328 
Q 3647 1150 3233 529 
Q 2819 -91 2034 -91 
Q 1250 -91 836 529 
Q 422 1150 422 2328 
Q 422 3509 836 4129 
Q 1250 4750 2034 4750 
z
" transform="scale(0.015625)"/>
       </defs>
       <use xlink:href="#DejaVuSans-31" transform="translate(0 0.765625)"/>
       <use xlink:href="#DejaVuSans-30" transform="translate(63.623047 0.765625)"/>
       <use xlink:href="#DejaVuSans-30" transform="translate(128.203125 39.046875) scale(0.7)"/>
      </g>
     </g>
    </g>
    <g id="xtick_2">
     <g id="line2d_2">
      <g>
       <use xlink:href="#mf281932a60" x="265.266547" y="254.69" style="stroke: #000000; stroke-width: 0.8"/>
      </g>
     </g>
     <g id="text_2">
      <!-- $\mathdefault{10^{1}}$ -->
      <g transform="translate(256.466547 269.288437) scale(0.1 -0.1)">
       <use xlink:href="#DejaVuSans-31" transform="translate(0 0.684375)"/>
       <use xlink:href="#DejaVuSans-30" transform="translate(63.623047 0.684375)"/>
       <use xlink:href="#DejaVuSans-31" transform="translate(128.203125 38.965625) scale(0.7)"/>
      </g>
     </g>
    </g>
    <g id="xtick_3">
     <g id="line2d_3">
      <defs>
       <path id="m04fdf00fcc" d="M 0 0 
L 0 2 
" style="stroke: #000000; stroke-width: 0.6"/>
      </defs>
      <g>
       <use xlink:href="#m04fdf00fcc" x="56.419488" y="254.69" style="stroke: #000000; stroke-width: 0.6"/>
      </g>
     </g>
    </g>
    <g id="xtick_4">
     <g id="line2d_4">
      <g>
       <use xlink:href="#m04fdf00fcc" x="125.676029" y="254.69" style="stroke: #000000; stroke-width: 0.6"/>
      </g>
     </g>
    </g>
    <g id="xtick_5">
     <g id="line2d_5">
      <g>
       <use xlink:href="#m04fdf00fcc" x="160.843018" y="254.69" style="stroke: #000000; stroke-width: 0.6"/>
      </g>
     </g>
    </g>
    <g id="xtick_6">
     <g id="line2d_6">
      <g>
       <use xlink:href="#m04fdf00fcc" x="185.794393" y="254.69" style="stroke: #000000; stroke-width: 0.6"/>
      </g>
     </g>
    </g>
    <g id="xtick_7">
     <g id="line2d_7">
      <g>
       <use xlink:href="#m04fdf00fcc" x="205.148183" y="254.69" style="stroke: #000000; stroke-width: 0.6"/>
      </g>
     </g>
    </g>
    <g id="xtick_8">
     <g id="line2d_8">
      <g>
       <use xlink:href="#m04fdf00fcc" x="220.961381" y="254.69" style="stroke: #000000; stroke-width: 0.6"/>
      </g>
     </g>
    </g>
    <g id="xtick_9">
     <g id="line2d_9">
      <g>
       <use xlink:href="#m04fdf00fcc" x="234.33125" y="254.69" style="stroke: #000000; stroke-width: 0.6"/>
      </g>
     </g>
    </g>
    <g id="xtick_10">
     <g id="line2d_10">
      <g>
       <use xlink:href="#m04fdf00fcc" x="245.912757" y="254.69" style="stroke: #000000; stroke-width: 0.6"/>
      </g>
     </g>
    </g>
    <g id="xtick_11">
     <g id="line2d_11">
      <g>
       <use xlink:href="#m04fdf00fcc" x="256.12837" y="254.69" style="stroke: #000000; stroke-width: 0.6"/>
      </g>
     </g>
    </g>
    <g id="xtick_12">
     <g id="line2d_12">
      <g>
       <use xlink:href="#m04fdf00fcc" x="325.384911" y="254.69" style="stroke: #000000; stroke-width: 0.6"/>
      </g>
     </g>
    </g>
    <g id="xtick_13">
     <g id="line2d_13">
      <g>
       <use xlink:href="#m04fdf00fcc" x="360.5519" y="254.69" style="stroke: #000000; stroke-width: 0.6"/>
      </g>
     </g>
    </g>
    <g id="xtick_14">
     <g id="line2d_14">
      <g>
       <use xlink:href="#m04fdf00fcc" x="385.503275" y="254.69" style="stroke: #000000; stroke-width: 0.6"/>
      </g>
     </g>
    </g>
    <g id="xtick_15">
     <g id="line2d_15">
      <g>
       <use xlink:href="#m04fdf00fcc" x="404.857066" y="254.69" style="stroke: #000000; stroke-width: 0.6"/>
      </g>
     </g>
    </g>
    <g id="text_3">
     <!-- xx [m] -->
     <g transform="translate(218.051563 282.966563) scale(0.1 -0.1)">
      <defs>
       <path id="DejaVuSans-78" d="M 3513 3500 
L 2247 1797 
L 3578 0 
L 2900 0 
L 1881 1375 
L 863 0 
L 184 0 
L 1544 1831 
L 300 3500 
L 978 3500 
L 1906 2253 
L 2834 3500 
L 3513 3500 
z
" transform="scale(0.015625)"/>
       <path id="DejaVuSans-20" transform="scale(0.015625)"/>
       <path id="DejaVuSans-5b" d="M 550 4863 
L 1875 4863 
L 1875 4416 
L 1125 4416 
L 1125 -397 
L 1875 -397 
L 1875 -844 
L 550 -844 
L 550 4863 
z
" transform="scale(0.015625)"/>
       <path id="DejaVuSans-6d" d="M 3328 2828 
Q 3544 3216 3844 3400 
Q 4144 3584 4550 3584 
Q 5097 3584 5394 3201 
Q 5691 2819 5691 2113 
L 5691 0 
L 5113 0 
L 5113 2094 
Q 5113 2597 4934 2840 
Q 4756 3084 4391 3084 
Q 3944 3084 3684 2787 
Q 3425 2491 3425 1978 
L 3425 0 
L 2847 0 
L 2847 2094 
Q 2847 2600 2669 2842 
Q 2491 3084 2119 3084 
Q 1678 3084 1418 2786 
Q 1159 2488 1159 1978 
L 1159 0 
L 581 0 
L 581 3500 
L 1159 3500 
L 1159 2956 
Q 1356 3278 1631 3431 
Q 1906 3584 2284 3584 
Q 2666 3584 2933 3390 
Q 3200 3197 3328 2828 
z
" transform="scale(0.015625)"/>
       <path id="DejaVuSans-5d" d="M 1947 4863 
L 1947 -844 
L 622 -844 
L 622 -397 
L 1369 -397 
L 1369 4416 
L 622 4416 
L 622 4863 
L 1947 4863 
z
" transform="scale(0.015625)"/>
      </defs>
      <use xlink:href="#DejaVuSans-78"/>
      <use xlink:href="#DejaVuSans-78" x="59.179688"/>
      <use xlink:href="#DejaVuSans-20" x="118.359375"/>
      <use xlink:href="#DejaVuSans-5b" x="150.146484"/>
      <use xlink:href="#DejaVuSans-6d" x="189.160156"/>
      <use xlink:href="#DejaVuSans-5d" x="286.572266"/>
     </g>
    </g>
   </g>
   <g id="matplotlib.axis_2">
    <g id="ytick_1">
     <g id="line2d_16">
      <defs>
       <path id="m393fa6c52c" d="M 0 0 
L -3.5 0 
" style="stroke: #000000; stroke-width: 0.8"/>
      </defs>
      <g>
       <use xlink:href="#m393fa6c52c" x="55.43125" y="248.328961" style="stroke: #000000; stroke-width: 0.8"/>
      </g>
     </g>
     <g id="text_4">
      <!-- −1.00 -->
      <g transform="translate(17.785938 252.12818) scale(0.1 -0.1)">
       <defs>
        <path id="DejaVuSans-2212" d="M 678 2272 
L 4684 2272 
L 4684 1741 
L 678 1741 
L 678 2272 
z
" transform="scale(0.015625)"/>
        <path id="DejaVuSans-2e" d="M 684 794 
L 1344 794 
L 1344 0 
L 684 0 
L 684 794 
z
" transform="scale(0.015625)"/>
       </defs>
       <use xlink:href="#DejaVuSans-2212"/>
       <use xlink:href="#DejaVuSans-31" x="83.789062"/>
       <use xlink:href="#DejaVuSans-2e" x="147.412109"/>
       <use xlink:href="#DejaVuSans-30" x="179.199219"/>
       <use xlink:href="#DejaVuSans-30" x="242.822266"/>
      </g>
     </g>
    </g>
    <g id="ytick_2">
     <g id="line2d_17">
      <g>
       <use xlink:href="#m393fa6c52c" x="55.43125" y="219.950093" style="stroke: #000000; stroke-width: 0.8"/>
      </g>
     </g>
     <g id="text_5">
      <!-- −0.75 -->
      <g transform="translate(17.785938 223.749311) scale(0.1 -0.1)">
       <defs>
        <path id="DejaVuSans-37" d="M 525 4666 
L 3525 4666 
L 3525 4397 
L 1831 0 
L 1172 0 
L 2766 4134 
L 525 4134 
L 525 4666 
z
" transform="scale(0.015625)"/>
        <path id="DejaVuSans-35" d="M 691 4666 
L 3169 4666 
L 3169 4134 
L 1269 4134 
L 1269 2991 
Q 1406 3038 1543 3061 
Q 1681 3084 1819 3084 
Q 2600 3084 3056 2656 
Q 3513 2228 3513 1497 
Q 3513 744 3044 326 
Q 2575 -91 1722 -91 
Q 1428 -91 1123 -41 
Q 819 9 494 109 
L 494 744 
Q 775 591 1075 516 
Q 1375 441 1709 441 
Q 2250 441 2565 725 
Q 2881 1009 2881 1497 
Q 2881 1984 2565 2268 
Q 2250 2553 1709 2553 
Q 1456 2553 1204 2497 
Q 953 2441 691 2322 
L 691 4666 
z
" transform="scale(0.015625)"/>
       </defs>
       <use xlink:href="#DejaVuSans-2212"/>
       <use xlink:href="#DejaVuSans-30" x="83.789062"/>
       <use xlink:href="#DejaVuSans-2e" x="147.412109"/>
       <use xlink:href="#DejaVuSans-37" x="179.199219"/>
       <use xlink:href="#DejaVuSans-35" x="242.822266"/>
      </g>
     </g>
    </g>
    <g id="ytick_3">
     <g id="line2d_18">
      <g>
       <use xlink:href="#m393fa6c52c" x="55.43125" y="191.571224" style="stroke: #000000; stroke-width: 0.8"/>
      </g>
     </g>
     <g id="text_6">
      <!-- −0.50 -->
      <g transform="translate(17.785938 195.370443) scale(0.1 -0.1)">
       <use xlink:href="#DejaVuSans-2212"/>
       <use xlink:href="#DejaVuSans-30" x="83.789062"/>
       <use xlink:href="#DejaVuSans-2e" x="147.412109"/>
       <use xlink:href="#DejaVuSans-35" x="179.199219"/>
       <use xlink:href="#DejaVuSans-30" x="242.822266"/>
      </g>
     </g>
    </g>
    <g id="ytick_4">
     <g id="line2d_19">
      <g>
       <use xlink:href="#m393fa6c52c" x="55.43125" y="163.192355" style="stroke: #000000; stroke-width: 0.8"/>
      </g>
     </g>
     <g id="text_7">
      <!-- −0.25 -->
      <g transform="translate(17.785938 166.991574) scale(0.1 -0.1)">
       <defs>
        <path id="DejaVuSans-32" d="M 1228 531 
L 3431 531 
L 3431 0 
L 469 0 
L 469 531 
Q 828 903 1448 1529 
Q 2069 2156 2228 2338 
Q 2531 2678 2651 2914 
Q 2772 3150 2772 3378 
Q 2772 3750 2511 3984 
Q 2250 4219 1831 4219 
Q 1534 4219 1204 4116 
Q 875 4013 500 3803 
L 500 4441 
Q 881 4594 1212 4672 
Q 1544 4750 1819 4750 
Q 2544 4750 2975 4387 
Q 3406 4025 3406 3419 
Q 3406 3131 3298 2873 
Q 3191 2616 2906 2266 
Q 2828 2175 2409 1742 
Q 1991 1309 1228 531 
z
" transform="scale(0.015625)"/>
       </defs>
       <use xlink:href="#DejaVuSans-2212"/>
       <use xlink:href="#DejaVuSans-30" x="83.789062"/>
       <use xlink:href="#DejaVuSans-2e" x="147.412109"/>
       <use xlink:href="#DejaVuSans-32" x="179.199219"/>
       <use xlink:href="#DejaVuSans-35" x="242.822266"/>
      </g>
     </g>
    </g>
    <g id="ytick_5">
     <g id="line2d_20">
      <g>
       <use xlink:href="#m393fa6c52c" x="55.43125" y="134.813487" style="stroke: #000000; stroke-width: 0.8"/>
      </g>
     </g>
     <g id="text_8">
      <!-- 0.00 -->
      <g transform="translate(26.165625 138.612706) scale(0.1 -0.1)">
       <use xlink:href="#DejaVuSans-30"/>
       <use xlink:href="#DejaVuSans-2e" x="63.623047"/>
       <use xlink:href="#DejaVuSans-30" x="95.410156"/>
       <use xlink:href="#DejaVuSans-30" x="159.033203"/>
      </g>
     </g>
    </g>
    <g id="ytick_6">
     <g id="line2d_21">
      <g>
       <use xlink:href="#m393fa6c52c" x="55.43125" y="106.434618" style="stroke: #000000; stroke-width: 0.8"/>
      </g>
     </g>
     <g id="text_9">
      <!-- 0.25 -->
      <g transform="translate(26.165625 110.233837) scale(0.1 -0.1)">
       <use xlink:href="#DejaVuSans-30"/>
       <use xlink:href="#DejaVuSans-2e" x="63.623047"/>
       <use xlink:href="#DejaVuSans-32" x="95.410156"/>
       <use xlink:href="#DejaVuSans-35" x="159.033203"/>
      </g>
     </g>
    </g>
    <g id="ytick_7">
     <g id="line2d_22">
      <g>
       <use xlink:href="#m393fa6c52c" x="55.43125" y="78.05575" style="stroke: #000000; stroke-width: 0.8"/>
      </g>
     </g>
     <g id="text_10">
      <!-- 0.50 -->
      <g transform="translate(26.165625 81.854968) scale(0.1 -0.1)">
       <use xlink:href="#DejaVuSans-30"/>
       <use xlink:href="#DejaVuSans-2e" x="63.623047"/>
       <use xlink:href="#DejaVuSans-35" x="95.410156"/>
       <use xlink:href="#DejaVuSans-30" x="159.033203"/>
      </g>
     </g>
    </g>
    <g id="ytick_8">
     <g id="line2d_23">
      <g>
       <use xlink:href="#m393fa6c52c" x="55.43125" y="49.676881" style="stroke: #000000; stroke-width: 0.8"/>
      </g>
     </g>
     <g id="text_11">
      <!-- 0.75 -->
      <g transform="translate(26.165625 53.4761) scale(0.1 -0.1)">
       <use xlink:href="#DejaVuSans-30"/>
       <use xlink:href="#DejaVuSans-2e" x="63.623047"/>
       <use xlink:href="#DejaVuSans-37" x="95.410156"/>
       <use xlink:href="#DejaVuSans-35" x="159.033203"/>
      </g>
     </g>
    </g>
    <g id="ytick_9">
     <g id="line2d_24">
      <g>
       <use xlink:href="#m393fa6c52c" x="55.43125" y="21.298012" style="stroke: #000000; stroke-width: 0.8"/>
      </g>
     </g>
     <g id="text_12">
      <!-- 1.00 -->
      <g transform="translate(26.165625 25.097231) scale(0.1 -0.1)">
       <use xlink:href="#DejaVuSans-31"/>
       <use xlink:href="#DejaVuSans-2e" x="63.623047"/>
       <use xlink:href="#DejaVuSans-30" x="95.410156"/>
       <use xlink:href="#DejaVuSans-30" x="159.033203"/>
      </g>
     </g>
    </g>
    <g id="text_13">
     <!--  [m/s] -->
     <g transform="translate(11.70625 149.27) rotate(-90) scale(0.1 -0.1)">
      <defs>
       <path id="DejaVuSans-2f" d="M 1625 4666 
L 2156 4666 
L 531 -594 
L 0 -594 
L 1625 4666 
z
" transform="scale(0.015625)"/>
       <path id="DejaVuSans-73" d="M 2834 3397 
L 2834 2853 
Q 2591 2978 2328 3040 
Q 2066 3103 1784 3103 
Q 1356 3103 1142 2972 
Q 928 2841 928 2578 
Q 928 2378 1081 2264 
Q 1234 2150 1697 2047 
L 1894 2003 
Q 2506 1872 2764 1633 
Q 3022 1394 3022 966 
Q 3022 478 2636 193 
Q 2250 -91 1575 -91 
Q 1294 -91 989 -36 
Q 684 19 347 128 
L 347 722 
Q 666 556 975 473 
Q 1284 391 1588 391 
Q 1994 391 2212 530 
Q 2431 669 2431 922 
Q 2431 1156 2273 1281 
Q 2116 1406 1581 1522 
L 1381 1569 
Q 847 1681 609 1914 
Q 372 2147 372 2553 
Q 372 3047 722 3315 
Q 1072 3584 1716 3584 
Q 2034 3584 2315 3537 
Q 2597 3491 2834 3397 
z
" transform="scale(0.015625)"/>
      </defs>
      <use xlink:href="#DejaVuSans-20"/>
      <use xlink:href="#DejaVuSans-5b" x="31.787109"/>
      <use xlink:href="#DejaVuSans-6d" x="70.800781"/>
      <use xlink:href="#DejaVuSans-2f" x="168.212891"/>
      <use xlink:href="#DejaVuSans-73" x="201.904297"/>
      <use xlink:href="#DejaVuSans-5d" x="254.003906"/>
     </g>
    </g>
   </g>
   <g id="patch_3">
    <path d="M 55.43125 254.69 
L 55.43125 14.55 
" style="fill: none; stroke: #000000; stroke-width: 0.8; stroke-linejoin: miter; stroke-linecap: square"/>
   </g>
   <g id="patch_4">
    <path d="M 413.23125 254.69 
L 413.23125 14.55 
" style="fill: none; stroke: #000000; stroke-width: 0.8; stroke-linejoin: miter; stroke-linecap: square"/>
   </g>
   <g id="patch_5">
    <path d="M 55.43125 254.69 
L 413.23125 254.69 
" style="fill: none; stroke: #000000; stroke-width: 0.8; stroke-linejoin: miter; stroke-linecap: square"/>
   </g>
   <g id="patch_6">
    <path d="M 55.43125 14.55 
L 413.23125 14.55 
" style="fill: none; stroke: #000000; stroke-width: 0.8; stroke-linejoin: miter; stroke-linecap: square"/>
   </g>
   <g id="line2d_25">
    <defs>
     <path id="m3bf3d90d4e" d="M 0 3 
C 0.795609 3 1.55874 2.683901 2.12132 2.12132 
C 2.683901 1.55874 3 0.795609 3 0 
C 3 -0.795609 2.683901 -1.55874 2.12132 -2.12132 
C 1.55874 -2.683901 0.795609 -3 0 -3 
C -0.795609 -3 -1.55874 -2.683901 -2.12132 -2.12132 
C -2.683901 -1.55874 -3 -0.795609 -3 0 
C -3 0.795609 -2.683901 1.55874 -2.12132 2.12132 
C -1.55874 2.683901 -0.795609 3 0 3 
z
" style="stroke: #1f77b4"/>
    </defs>
    <g clip-path="url(#p9c454965d6)">
     <use xlink:href="#m3bf3d90d4e" x="-1" y="112.268959" style="fill: #1f77b4; stroke: #1f77b4"/>
     <use xlink:href="#m3bf3d90d4e" x="65.557665" y="112.261443" style="fill: #1f77b4; stroke: #1f77b4"/>
     <use xlink:href="#m3bf3d90d4e" x="125.676029" y="90.608479" style="fill: #1f77b4; stroke: #1f77b4"/>
     <use xlink:href="#m3bf3d90d4e" x="160.843018" y="70.717829" style="fill: #1f77b4; stroke: #1f77b4"/>
     <use xlink:href="#m3bf3d90d4e" x="185.794393" y="53.38247" style="fill: #1f77b4; stroke: #1f77b4"/>
     <use xlink:href="#m3bf3d90d4e" x="205.148183" y="39.293509" style="fill: #1f77b4; stroke: #1f77b4"/>
     <use xlink:href="#m3bf3d90d4e" x="220.961381" y="29.012628" style="fill: #1f77b4; stroke: #1f77b4"/>
     <use xlink:href="#m3bf3d90d4e" x="234.33125" y="22.949693" style="fill: #1f77b4; stroke: #1f77b4"/>
     <use xlink:href="#m3bf3d90d4e" x="245.912757" y="21.346415" style="fill: #1f77b4; stroke: #1f77b4"/>
     <use xlink:href="#m3bf3d90d4e" x="256.12837" y="24.266711" style="fill: #1f77b4; stroke: #1f77b4"/>
     <use xlink:href="#m3bf3d90d4e" x="265.266547" y="31.594158" style="fill: #1f77b4; stroke: #1f77b4"/>
     <use xlink:href="#m3bf3d90d4e" x="273.533034" y="43.036634" style="fill: #1f77b4; stroke: #1f77b4"/>
     <use xlink:href="#m3bf3d90d4e" x="281.079745" y="58.137963" style="fill: #1f77b4; stroke: #1f77b4"/>
     <use xlink:href="#m3bf3d90d4e" x="288.022047" y="76.296104" style="fill: #1f77b4; stroke: #1f77b4"/>
     <use xlink:href="#m3bf3d90d4e" x="294.449614" y="96.787148" style="fill: #1f77b4; stroke: #1f77b4"/>
     <use xlink:href="#m3bf3d90d4e" x="300.433536" y="118.794182" style="fill: #1f77b4; stroke: #1f77b4"/>
     <use xlink:href="#m3bf3d90d4e" x="306.031121" y="141.439855" style="fill: #1f77b4; stroke: #1f77b4"/>
     <use xlink:href="#m3bf3d90d4e" x="311.289244" y="163.821356" style="fill: #1f77b4; stroke: #1f77b4"/>
     <use xlink:href="#m3bf3d90d4e" x="316.246734" y="185.046405" style="fill: #1f77b4; stroke: #1f77b4"/>
     <use xlink:href="#m3bf3d90d4e" x="320.936117" y="204.268826" style="fill: #1f77b4; stroke: #1f77b4"/>
     <use xlink:href="#m3bf3d90d4e" x="325.384911" y="220.722281" style="fill: #1f77b4; stroke: #1f77b4"/>
     <use xlink:href="#m3bf3d90d4e" x="329.616602" y="233.750824" style="fill: #1f77b4; stroke: #1f77b4"/>
     <use xlink:href="#m3bf3d90d4e" x="333.651398" y="242.835048" style="fill: #1f77b4; stroke: #1f77b4"/>
     <use xlink:href="#m3bf3d90d4e" x="337.506809" y="247.612792" style="fill: #1f77b4; stroke: #1f77b4"/>
     <use xlink:href="#m3bf3d90d4e" x="341.198109" y="247.893585" style="fill: #1f77b4; stroke: #1f77b4"/>
     <use xlink:href="#m3bf3d90d4e" x="344.738702" y="243.666231" style="fill: #1f77b4; stroke: #1f77b4"/>
     <use xlink:href="#m3bf3d90d4e" x="348.140411" y="235.099261" style="fill: #1f77b4; stroke: #1f77b4"/>
     <use xlink:href="#m3bf3d90d4e" x="351.413722" y="222.534214" style="fill: #1f77b4; stroke: #1f77b4"/>
     <use xlink:href="#m3bf3d90d4e" x="354.567978" y="206.472019" style="fill: #1f77b4; stroke: #1f77b4"/>
     <use xlink:href="#m3bf3d90d4e" x="357.611535" y="187.553024" style="fill: #1f77b4; stroke: #1f77b4"/>
     <use xlink:href="#m3bf3d90d4e" x="360.5519" y="166.53147" style="fill: #1f77b4; stroke: #1f77b4"/>
     <use xlink:href="#m3bf3d90d4e" x="363.395842" y="144.24542" style="fill: #1f77b4; stroke: #1f77b4"/>
     <use xlink:href="#m3bf3d90d4e" x="366.149485" y="121.583349" style="fill: #1f77b4; stroke: #1f77b4"/>
     <use xlink:href="#m3bf3d90d4e" x="368.818387" y="99.448721" style="fill: #1f77b4; stroke: #1f77b4"/>
     <use xlink:href="#m3bf3d90d4e" x="371.407608" y="78.723975" style="fill: #1f77b4; stroke: #1f77b4"/>
     <use xlink:href="#m3bf3d90d4e" x="373.921768" y="60.235341" style="fill: #1f77b4; stroke: #1f77b4"/>
     <use xlink:href="#m3bf3d90d4e" x="376.365098" y="44.719903" style="fill: #1f77b4; stroke: #1f77b4"/>
     <use xlink:href="#m3bf3d90d4e" x="378.741478" y="32.796211" style="fill: #1f77b4; stroke: #1f77b4"/>
     <use xlink:href="#m3bf3d90d4e" x="381.054481" y="24.939626" style="fill: #1f77b4; stroke: #1f77b4"/>
     <use xlink:href="#m3bf3d90d4e" x="383.307399" y="21.463365" style="fill: #1f77b4; stroke: #1f77b4"/>
     <use xlink:href="#m3bf3d90d4e" x="385.503275" y="22.506016" style="fill: #1f77b4; stroke: #1f77b4"/>
     <use xlink:href="#m3bf3d90d4e" x="387.644926" y="28.026011" style="fill: #1f77b4; stroke: #1f77b4"/>
     <use xlink:href="#m3bf3d90d4e" x="389.734966" y="37.803286" style="fill: #1f77b4; stroke: #1f77b4"/>
     <use xlink:href="#m3bf3d90d4e" x="391.775824" y="51.448052" style="fill: #1f77b4; stroke: #1f77b4"/>
     <use xlink:href="#m3bf3d90d4e" x="393.769762" y="68.416334" style="fill: #1f77b4; stroke: #1f77b4"/>
     <use xlink:href="#m3bf3d90d4e" x="395.718888" y="88.031661" style="fill: #1f77b4; stroke: #1f77b4"/>
     <use xlink:href="#m3bf3d90d4e" x="397.625173" y="109.512032" style="fill: #1f77b4; stroke: #1f77b4"/>
     <use xlink:href="#m3bf3d90d4e" x="399.490459" y="132.001093" style="fill: #1f77b4; stroke: #1f77b4"/>
     <use xlink:href="#m3bf3d90d4e" x="401.316473" y="154.602274" style="fill: #1f77b4; stroke: #1f77b4"/>
     <use xlink:href="#m3bf3d90d4e" x="403.104835" y="176.414539" style="fill: #1f77b4; stroke: #1f77b4"/>
    </g>
   </g>
  </g>
 </g>
 <defs>
  <clipPath id="p9c454965d6">
   <rect x="55.43125" y="14.55" width="357.8" height="240.14"/>
  </clipPath>
 </defs>
</svg>
