<?xml version="1.0" encoding="UTF-8" standalone="no"?>
<!-- Created with Inkscape (http://www.inkscape.org/) -->

<svg
   width="62.41507mm"
   height="20.890835mm"
   viewBox="0 0 62.415071 20.890835"
   version="1.1"
   id="svg901"
   xmlns="http://www.w3.org/2000/svg"
   xmlns:svg="http://www.w3.org/2000/svg"
   xmlns:rdf="http://www.w3.org/1999/02/22-rdf-syntax-ns#"
   xmlns:cc="http://creativecommons.org/ns#"
   xmlns:dc="http://purl.org/dc/elements/1.1/">
  <defs
     id="defs895" />
  <metadata
     id="metadata898">
    <rdf:RDF>
      <cc:Work
         rdf:about="">
        <dc:format>image/svg+xml</dc:format>
        <dc:type
           rdf:resource="http://purl.org/dc/dcmitype/StillImage" />
      </cc:Work>
    </rdf:RDF>
  </metadata>
  <g
     id="layer1"
     transform="translate(-55.112344,-72.251834)">
    <g
       transform="translate(-26.509745,-30.191963)"
       id="g1625">
      <g
         id="g1473">
        <g
           id="g1616"
           transform="matrix(1.569263,0,0,1.569263,-71.926004,-64.000944)">
          <g
             id="g1490">
            <g
               id="g1480">
              <g
                 id="g2125">
                <g
                   id="g2355"
                   style="fill:#800080;fill-opacity:1">
                  <path
                     transform="matrix(0.16860356,0,0,0.16860356,97.847265,106.06558)"
                     id="path979"
                     d="M 60.003906,0.00195313 C 59.946583,0.01565946 59.833592,0.09482831 59.662109,0.25 59.422494,0.46648416 59.33463,0.48188318 59.28125,0.31640625 59.239732,0.19956412 59.228301,0.22494386 59.246094,0.375 59.293661,0.70026003 57.847138,2.7544795 54.894531,6.5507812 54.41192,7.1714087 53.710188,8.1079126 53.335938,8.6328125 h 0.0059 C 52.967546,9.1577124 52.747176,9.536538 52.851562,9.4707031 53.063065,9.339923 55.229878,6.6284039 55.650391,5.96875 56.05833,5.3284314 56.43088,5.0044254 56.623047,5.1230469 c 0.100828,0.061683 0.126382,0.032714 0.06055,-0.072266 -0.141041,-0.2281683 0.670397,-1.4772794 0.921875,-1.4179687 0.107352,0.023724 0.132834,0.01808 0.06641,-0.023437 C 57.442936,3.4812638 57.722426,3.2606433 58,3.3496094 c 0.226567,0.071766 0.23489,0.057277 0.04687,-0.076172 C 57.880207,3.1565953 57.862609,3.049506 57.98242,2.8964843 58.07435,2.7789304 58.597265,2.1119717 59.146482,1.4140624 59.851983,0.51528246 60.175873,-0.03916599 60.003904,0.00195303 Z M 9.9804688,0.84960938 c -0.056049,-0.002224 -0.1196099,0.007526 -0.1777344,0.03125 -0.1287043,0.0504141 -0.089766,0.0917252 0.097656,0.0976562 0.1702216,0.007117 0.2643176,-0.0325578 0.2109376,-0.0859375 -0.02669,-0.0266898 -0.07481,-0.0407446 -0.1308592,-0.0429687 z M 11.193359,1.6914062 c -0.150968,0.012085 -0.402452,0.090424 -0.757812,0.2363282 -0.5154103,0.2129255 -0.5908348,0.3591013 -0.121094,0.2363281 0.198098,-0.0516 0.324219,-0.00405 0.324219,0.1210937 0,0.1125718 0.185542,0.4489471 0.412109,0.7460938 0.22716,0.2968502 0.373692,0.6048843 0.320313,0.6855469 -0.04923,0.081256 -0.01363,0.1675385 0.08008,0.203125 0.09371,0.030842 0.210364,0.3101317 0.257812,0.6191406 0.193057,0.2753797 -0.258123,-0.6180348 1.628907,2.6171875 -0.02218,0.022301 0.304096,0.4869513 0.724609,1.0332031 0.420157,0.5463111 0.840476,1.1615531 0.933594,1.3691407 0.157966,0.3512204 0.380695,0.7476892 0.689453,1.2246092 0.07257,0.110425 0.196656,0.201172 0.277344,0.201172 0.218322,0 -1.645728,-3.5798323 -2.144532,-4.1171875 C 13.582896,6.6132783 13.299771,6.1845194 13.189453,5.9140625 13.078542,5.6436056 12.896313,5.3258265 12.78125,5.2089844 12.66678,5.0919643 12.572266,4.8244274 12.572266,4.6132812 c 0,-0.2111461 -0.105671,-0.443859 -0.234375,-0.515625 C 12.031966,3.9264855 11.24285,2.1328692 11.349609,1.8535156 11.39599,1.7328183 11.344327,1.6793217 11.193359,1.6914062 Z M 44.78125,3.4941406 c -0.114711,-0.056549 -0.183979,0.055508 -0.337891,0.4238282 -0.127518,0.305035 -0.242044,1.004877 -0.253906,1.5546874 h -0.0059 c -0.0095,0.5501664 0.017,1 0.06445,1 0.09608,0 0.452349,-0.8686387 0.371094,-0.9101562 -0.02847,-0.013048 0.08682,-0.1770456 0.255859,-0.3632812 0.365947,-0.4001695 0.385611,-1.2511078 0.04102,-1.5957032 -0.05338,-0.053083 -0.09653,-0.090525 -0.134766,-0.109375 z M 12.8125,4.4570312 c -0.0127,0.0021 -0.02478,0.018406 -0.03516,0.046875 -0.04152,0.1138766 -0.0358,0.3115158 0.01758,0.4414063 h 0.0039 c 0.144718,0.3871804 0.224151,0.271187 0.132813,-0.2050781 C 12.896054,4.5582987 12.850589,4.4507202 12.8125,4.4570312 Z m 8.414062,0.6796876 c -0.05329,-0.043183 -0.03597,0.1501089 0.140626,0.7675781 0.138193,0.3297676 0.278866,0.5746489 0.314453,0.5390625 -0.08007,-0.5059947 -0.366263,-1.2346685 -0.455079,-1.3066406 z m 9.066407,1.8183593 c -0.425258,-2.372e-4 -0.436555,0.1203176 -0.126953,1.4140625 0.163697,0.6850982 0.298175,1.4437329 0.298828,1.6875004 0,0.243767 0.06795,0.443359 0.15039,0.443359 0.08897,0 0.113999,-0.421229 0.05469,-1.0078125 -0.05635,-0.5541401 -0.105397,-1.3503782 -0.111328,-1.7714844 -0.0089,-0.5860493 -0.07049,-0.7655064 -0.265625,-0.765625 z m -8.4375,0.1621094 c -0.008,0.066132 0.103214,0.5273202 0.330078,1.4082031 0.142939,0.5537843 0.324647,1.0078125 0.402344,1.0078125 0.180304,0 0.210284,0.1324839 -0.34961,-1.4511719 C 21.990066,7.3796736 21.863476,7.051056 21.855469,7.1171875 Z M 24.552734,8.78125 c -0.03499,0.037959 -0.0183,0.2613971 0.04102,0.4980469 0.05931,0.2366498 0.136217,0.4028456 0.177734,0.3613281 0.03499,-0.037366 0.01634,-0.2613971 -0.04297,-0.4980469 C 24.669205,8.9059283 24.594252,8.7397325 24.552734,8.78125 Z m 15.427735,0.2832031 c -0.05218,-0.00118 -0.11044,0.028409 -0.173828,0.091797 -0.07888,0.078765 -0.182949,0.6731732 -0.236329,1.3203119 -0.05101,0.646903 -0.233062,1.623844 -0.40625,2.171876 -0.403787,1.279806 -1.191147,2.885024 -1.341796,2.734374 -0.05931,-0.06405 -0.06705,0.0012 -0.01367,0.146485 0.130958,0.341274 -0.671639,0.716273 -1.765625,0.824219 -0.468377,0.04626 -0.875417,0.184102 -0.986328,0.335937 -0.554971,0.75811 -1.288805,-0.518958 -0.90625,-1.576172 0.231905,-0.650342 0.241179,-1.228515 0.01758,-1.228515 -0.09253,0 -0.328305,0.166298 -0.523438,0.36914 -0.469859,0.486882 -1.168668,0.921875 -1.482422,0.921875 -0.138194,0 -0.292323,0.107379 -0.345703,0.240235 -0.161325,0.421284 -0.314023,0.263985 -0.349609,-0.361328 -0.06109,-1.078329 -0.210505,-2.206521 -0.359375,-2.701172 -0.08007,-0.266009 -0.184902,-0.69087 -0.238281,-0.945313 -0.186236,-0.918426 -0.239624,-0.284825 -0.08008,0.960938 0.09015,0.700993 0.202552,1.672029 0.25,2.160156 0.04686,0.487475 0.116686,0.981233 0.158204,1.095703 0.03974,0.113877 -0.02898,0.24552 -0.152344,0.292969 -0.123366,0.04745 -0.263027,0.249341 -0.316406,0.449219 -0.05041,0.199817 -0.275806,0.562106 -0.5,0.804687 -0.4475,0.483382 -0.809441,0.464742 -1.501954,-0.07617 -0.424249,-0.331132 -0.70207,-0.266679 -1.257812,0.289063 l -0.390625,0.388672 -0.494141,-0.492188 c -0.374369,-0.373658 -0.63765,-0.494141 -1.09375,-0.494141 -0.623593,0 -0.881504,0.169898 -1.669922,1.107422 -0.261026,0.309602 -0.517995,0.477004 -0.628906,0.408203 -0.135228,-0.08363 -0.154186,-0.0047 -0.06641,0.273438 0.276269,0.87169 0.195017,1.171675 -0.394531,1.46289 -0.310255,0.153022 -0.604895,0.284085 -0.652344,0.28711 -0.04905,0.0043 -0.393154,-0.29379 -0.765625,-0.66211 -0.676142,-0.670211 -0.822088,-0.706766 -0.513672,-0.130859 0.14116,0.263933 0.09299,0.325505 -0.361328,0.445313 -0.709831,0.187125 -0.896128,0.119523 -1.738281,-0.623047 C 18.301422,19.004527 17.812565,18.674473 17.613281,18.621094 17.344011,18.549328 17.25,18.405909 17.25,18.0625 c 0,-0.350289 -0.115882,-0.521736 -0.482422,-0.710938 -0.430003,-0.221347 -0.484375,-0.334116 -0.484375,-0.972656 0,-0.396255 0.03465,-0.720703 0.07617,-0.720703 0.04211,0 0.191465,0.222498 0.332031,0.494141 0.24098,0.466182 0.556393,0.566556 0.673828,0.214844 0.02912,-0.08725 -0.597577,-0.835848 -1.392578,-1.664063 -0.795001,-0.828215 -1.553877,-1.734145 -1.685547,-2.011719 -0.131195,-0.277218 -0.424243,-0.676165 -0.648437,-0.886718 -0.224788,-0.210554 -0.36002,-0.457909 -0.306641,-0.546876 0.05753,-0.0949 0.01988,-0.114489 -0.08984,-0.04687 -0.113847,0.06999 -0.366694,-0.09368 -0.628907,-0.40625 -0.874418,-1.04209 -1.147553,-1.2705051 -1.398437,-1.1738286 -0.372472,0.1429388 -0.30348,0.5798956 0.162109,1.0312496 0.226567,0.219628 0.58531,0.570523 0.798828,0.779297 0.212926,0.209071 0.473738,0.572364 0.578125,0.806641 0.104417,0.234396 0.650799,0.771834 1.214844,1.195312 0.563808,0.423242 1.025391,0.877329 1.025391,1.007813 0,0.130483 0.05466,0.217012 0.121093,0.199219 0.06643,-0.02017 0.319153,0.136683 0.560547,0.349609 0.375437,0.331013 0.435691,0.50414 0.423828,1.207031 -0.0095,0.451058 -0.107665,0.948296 -0.216797,1.105469 -0.110317,0.156936 -0.162611,0.462017 -0.121093,0.679688 0.05741,0.300112 0.208291,0.422896 0.621093,0.5 0.470928,0.08778 0.546876,0.164872 0.546876,0.566406 0,0.705145 -0.0021,0.711583 -0.263672,0.658203 -0.636404,-0.131255 -0.964108,0.973392 -0.44336,1.494141 0.395128,0.395068 0.763848,0.01648 0.652344,-0.669922 -0.04508,-0.292402 -0.02294,-0.53125 0.04883,-0.53125 0.24614,0 0.52891,0.477805 0.431641,0.730468 -0.05041,0.13345 -0.03372,0.217371 0.04102,0.169922 0.07473,-0.04567 0.230048,0.0933 0.345704,0.308594 0.191573,0.356813 0.159552,0.446692 -0.339844,1.027344 -0.301417,0.350408 -0.788617,0.722552 -1.083985,0.828125 -0.475316,0.169628 -0.576799,0.153628 -0.896484,-0.146485 -0.198691,-0.186235 -0.447754,-0.33789 -0.552734,-0.33789 -0.317906,0 -0.213686,0.775455 0.191406,1.417968 0.504734,0.799865 0.675388,1.574615 0.384765,1.751954 -0.120993,0.07396 -0.344432,0.404014 -0.498046,0.734375 -0.297147,0.63931 -1.283086,1.505596 -1.535157,1.349609 -0.08303,-0.0516 -0.19662,0.02095 -0.25,0.162109 -0.06228,0.163698 -0.196894,0.219958 -0.373047,0.152344 -0.155394,-0.0605 -0.227944,-0.05998 -0.162109,0.0059 0.163698,0.163698 -0.206547,0.563413 -0.408203,0.439454 -0.08956,-0.05872 -0.119786,-0.02961 -0.06641,0.06055 0.05635,0.09075 -0.0449,0.297067 -0.22461,0.458985 -0.279531,0.25385 -0.416495,0.269964 -0.974609,0.121094 -0.52229,-0.139974 -0.668121,-0.131651 -0.736328,0.04687 -0.04626,0.123366 -0.13865,0.189955 -0.205078,0.148437 -0.066488,-0.04152 -0.2823712,0.09804 -0.480469,0.308594 -0.353225,0.375437 -0.3753282,0.377418 -1.1035156,0.128906 -1.0813473,-0.368913 -1.5506698,-0.634559 -1.2949219,-0.732422 0.1170794,-0.04448 -0.077081,-0.07429 -0.4316406,-0.06836 -0.3701049,0.0077 -1.2103633,-0.204633 -1.9707031,-0.5 -1.4578815,-0.565231 -2.140625,-0.651666 -2.140625,-0.271484 0,0.132262 0.07338,0.242187 0.1621093,0.242187 0.088729,0 0.1607334,0.125856 0.1621094,0.28125 0.00208,0.239615 0.026546,0.245566 0.1523437,0.04687 0.1293567,-0.198691 0.165474,-0.194969 0.2539063,0.03516 0.056523,0.144125 0.2042801,0.227136 0.3300781,0.179688 0.1257981,-0.04804 0.2285156,-0.01049 0.2285156,0.08203 0,0.09074 0.1281649,0.156322 0.2832032,0.150391 0.3554314,-0.02372 1.9604289,0.353869 2.3417968,0.550781 0.1573514,0.08185 0.2371679,0.229076 0.1757813,0.328125 -0.074079,0.122773 -0.016623,0.144451 0.1757813,0.07031 0.1587748,-0.0599 0.3779081,-0.03682 0.4863281,0.05273 0.1084318,0.09015 0.5746043,0.196692 1.0371093,0.24414 0.8240159,0.07859 1.4152728,0.418536 1.234375,0.710938 -0.049821,0.07829 0.047168,0.113855 0.2167969,0.06641 0.2654749,-0.06945 0.6809239,0.357885 0.7402339,0.755859 0.02343,0.165715 0.459932,0.885713 0.65625,1.082032 0.161326,0.160732 0.219322,0.162266 0.285157,0.0039 0.04448,-0.110318 0.09549,-0.0016 0.113281,0.242188 0.01186,0.244182 0.04673,0.535573 0.05859,0.646484 0.01542,0.110911 -0.101406,0.372071 -0.259766,0.582031 -0.153022,0.20996 -0.246667,0.446334 -0.199219,0.523438 0.04864,0.08304 -0.03762,0.09447 -0.189453,0.03516 -0.160732,-0.05635 -0.238926,-0.03794 -0.185547,0.04687 0.0516,0.08244 -0.01711,0.29455 -0.152343,0.470703 -0.170222,0.222415 -0.268886,0.258521 -0.322266,0.119141 -0.04152,-0.110911 -0.138507,-0.201172 -0.216797,-0.201172 -0.0771,0 -0.102136,0.104904 -0.05469,0.232422 -2.2205881,0.601173 -8.6723315,-3.856721 -1.9023441,0.888672 0.053973,0.09371 0.2639399,0.329385 0.3613281,0.208984 0.3380059,-0.313991 0.4430948,-0.251528 0.7929688,0.472656 0.4103709,0.84761 0.4101625,1.009288 -0.013672,1.404297 -0.413633,0.385223 -0.3140743,1.069982 0.1796875,1.226563 0.1773391,0.05635 0.3222656,0.213368 0.3222656,0.351562 0,0.221229 0.039999,0.226311 0.2695311,0.03711 0.199284,-0.170815 0.284583,-0.180641 0.332031,-0.03711 0.03559,0.106641 0.162803,0.156824 0.283204,0.109375 0.286767,-0.110021 0.506858,0.323034 0.65039,1.277344 0.09371,0.623711 0.06139,0.832261 -0.169922,1.08789 -0.321642,0.355272 -0.880659,0.414263 -1.171875,0.123047 -0.123956,-0.121025 -0.193356,-0.12988 -0.193356,-0.01956 0,0.0943 -0.2991788,0.21427 -0.6660156,0.261719 -0.8889789,0.119214 -1.1906964,0.428029 -0.9941406,1.017578 0.1423694,0.424072 0.1964203,0.447767 1.0039062,0.40625 0.6764982,-0.03559 0.826624,2.93e-4 0.7246094,0.169922 -0.1008283,0.168442 -0.077382,0.175129 0.1035156,0.03516 0.428935,-0.332733 1.216864,-0.236428 1.4375,0.175781 0.110318,0.206995 0.170424,0.473943 0.128906,0.59375 -0.03974,0.119215 0.04107,0.306884 0.181641,0.416016 0.223601,0.174967 0.225237,0.216017 0.01172,0.361328 -0.19454,0.134635 -0.199591,0.189451 -0.02344,0.302734 0.16607,0.10676 0.115415,0.218663 -0.222656,0.484375 -0.241098,0.189202 -0.557814,0.34375 -0.703125,0.34375 -0.393052,0 -0.820313,0.582379 -0.820313,1.119141 0,0.393823 0.07326,0.477942 0.44336,0.525391 0.461259,0.05528 0.821021,-0.08062 1.466797,-0.552735 0.288072,-0.210553 0.457722,-0.23902 0.691406,-0.113281 0.168442,0.09134 0.268152,0.230897 0.220703,0.308594 -0.152429,0.246732 0.15011,0.301276 0.367187,0.06641 0.169629,-0.183863 0.163014,-0.224609 -0.04101,-0.224609 -0.137008,0 -0.248047,-0.0768 -0.248047,-0.169922 0,-0.300706 0.542682,0.112722 0.566406,0.433593 0.01364,0.165003 0.07545,0.454564 0.134766,0.642579 0.08185,0.249164 0.0044,0.445255 -0.291016,0.724609 -0.222415,0.210553 -0.406661,0.451354 -0.408203,0.533203 -0.0012,0.08244 -0.22079,0.3367 -0.488281,0.564453 -0.469148,0.400229 -0.478837,0.430937 -0.242188,0.876953 0.134636,0.254265 0.244141,0.563541 0.244141,0.6875 0,0.196319 0.08582,0.192065 0.564453,-0.0078 0.361796,-0.153615 0.564453,-0.175364 0.564453,-0.06445 0,0.106166 0.09206,0.09414 0.248047,-0.03516 0.20225,-0.168384 0.285,-0.168862 0.44336,0.002 0.155987,0.170221 0.135332,0.190876 -0.105469,0.105468 -0.224195,-0.07888 -0.277018,-0.04537 -0.207031,0.136719 0.05516,0.143532 0.0045,0.244141 -0.123047,0.244141 -0.119808,0 -0.302457,0.101417 -0.40625,0.226562 -0.10332,0.124553 -0.437505,0.346876 -0.744141,0.492188 -0.411616,0.195251 -0.556641,0.365801 -0.556641,0.658203 0,0.498803 0.499215,0.531606 1.236329,0.08203 0.281666,-0.172001 0.773124,-0.360611 1.089843,-0.419922 C 14.743094,54.366471 15,54.247517 15,54.162109 c 0,-0.08837 0.127809,-0.129336 0.283203,-0.09375 0.15664,0.0344 0.47847,-0.140333 0.724609,-0.390625 0.279947,-0.287064 0.44336,-0.365421 0.44336,-0.220703 0,0.219213 -1.277544,1.378907 -1.519531,1.378907 -0.06346,0 -0.207796,0.09221 -0.322266,0.203124 -0.76926,0.74607 -1.380761,1.225416 -1.679687,1.320313 -0.435934,0.138194 -0.452255,0.412109 -0.02344,0.412109 0.176746,0 0.322266,-0.06411 0.322266,-0.140625 0,-0.07651 0.344518,-0.400425 0.765625,-0.720703 1.032303,-0.784384 1.013363,-0.770339 1.636718,-1.285156 0.431071,-0.357051 0.579411,-0.408851 0.699219,-0.242188 0.113284,0.155988 0.132241,0.138216 0.06641,-0.06641 -0.04863,-0.152428 -0.0086,-0.327408 0.08984,-0.386718 0.09905,-0.0605 0.135483,-0.0363 0.07617,0.05859 -0.05694,0.09134 0.0066,0.25823 0.140625,0.369141 0.142939,0.116249 0.201817,0.329952 0.148437,0.501953 -0.05397,0.171408 -0.01786,0.300781 0.08594,0.300781 0.09964,0 0.135411,-0.07374 0.08203,-0.162109 -0.144125,-0.233091 0.03428,-0.197466 0.478516,0.09375 0.242581,0.160732 0.356114,0.353216 0.302734,0.523437 -0.06761,0.21174 -0.05229,0.221842 0.07227,0.04687 0.168442,-0.235463 0.517578,-0.118573 0.517578,0.173829 0,0.09549 -0.125856,0.278731 -0.28125,0.40625 -0.155394,0.126806 -0.192942,0.188216 -0.08203,0.128906 0.225974,-0.11447 0.246035,-0.06185 0.105468,0.304687 -0.05338,0.143532 -0.17446,0.209702 -0.267578,0.150391 -0.106759,-0.06287 -0.123907,-0.02777 -0.05273,0.08789 0.06524,0.105574 0.02965,0.301331 -0.08008,0.433594 -0.448152,0.540084 0.08795,2.001953 0.734375,2.001953 0.101599,0 0.5035,-0.270782 0.892578,-0.603515 0.388485,-0.332733 0.655679,-0.51845 0.589844,-0.414063 -0.06346,0.10498 -0.04268,0.237636 0.04687,0.291016 0.08956,0.05575 0.164062,0.0234 0.164062,-0.07031 0,-0.09371 0.07042,-0.169922 0.158203,-0.169922 0.197505,0 0.07963,1.331747 -0.158203,1.775391 -0.124493,0.229533 -0.124378,0.320313 0.002,0.320313 0.09312,0 0.129552,0.0745 0.07617,0.164062 -0.05635,0.09015 -0.164316,0.125574 -0.240234,0.07813 -0.07532,-0.04644 -0.265295,0.204683 -0.421875,0.560547 -0.157174,0.355212 -0.336509,0.646484 -0.402344,0.646484 -0.06405,0 -0.164634,0.235781 -0.230469,0.523438 -0.09763,0.450939 -0.517592,1.33459 -1.324218,2.787109 -0.141753,0.250173 -0.157122,0.483174 -0.05273,0.744141 0.144125,0.35705 0.156179,0.358849 0.16211,0.04687 0.0059,-0.18505 0.06178,-0.387955 0.121093,-0.447266 0.06109,-0.06121 0.299345,-0.599062 0.53125,-1.195312 0.298155,-0.768311 0.496244,-1.076602 0.677735,-1.041016 0.283505,0.04792 0.536612,-0.656458 0.351562,-0.978515 -0.06168,-0.10676 -0.05129,-0.137927 0.02344,-0.07031 0.218263,0.198216 1.059393,-1.359377 0.960937,-1.779297 -0.05635,-0.239022 6.11e-4,-0.399674 0.160157,-0.458984 0.131076,-0.0516 0.213392,-0.147056 0.171874,-0.212891 -0.03974,-0.06406 0.03341,-0.117187 0.16211,-0.117187 0.135228,0 0.234375,0.152973 0.234375,0.359375 0,0.196911 0.109331,0.397792 0.242187,0.451171 0.132263,0.05101 0.242188,0.192274 0.242188,0.314454 0,0.683259 1.351132,0.862405 1.386719,0.183593 0.0344,-0.662856 0.06693,-0.735042 0.265625,-0.615234 0.155394,0.09371 0.157623,0.06762 0.01172,-0.113281 -0.255807,-0.316423 0.116925,-0.843937 0.494141,-0.699219 0.199284,0.07651 0.22092,0.156093 0.08984,0.314453 -0.132856,0.160139 -0.09728,0.254875 0.146484,0.384766 0.214112,0.115063 0.357993,0.118478 0.423828,0.01172 0.05516,-0.08956 0.173346,-0.162109 0.261719,-0.162109 0.08956,0 0.119786,0.07025 0.06641,0.15625 -0.05338,0.08481 0.03535,0.237063 0.197266,0.337891 0.223008,0.138431 0.275964,0.329619 0.228516,0.771484 -0.03618,0.323125 -0.120653,0.659674 -0.189454,0.748047 -0.0688,0.08897 -0.124351,0.354206 -0.123046,0.587891 0.0031,0.553725 -0.506948,1.939233 -0.804688,2.183593 -0.127637,0.10498 -0.188217,0.264131 -0.128906,0.355469 0.05635,0.09152 -0.04566,0.456462 -0.226563,0.810547 -0.180897,0.354085 -0.328125,0.782136 -0.328125,0.951172 0,0.168858 -0.145519,0.490823 -0.322265,0.716797 -0.176746,0.225381 -0.322266,0.480405 -0.322266,0.566406 0,0.08659 -0.163997,0.267115 -0.363281,0.402344 -0.279947,0.190387 -0.318373,0.290931 -0.171875,0.443359 0.119807,0.126332 0.139328,0.324981 0.05273,0.552735 -0.178762,0.471816 0.03453,0.792766 0.441406,0.664062 0.375437,-0.119215 0.845703,-1.230507 0.845703,-1.998047 0,-0.291393 0.09776,-0.559973 0.21875,-0.607422 0.128112,-0.04982 0.19198,-0.235383 0.144532,-0.458984 -0.04033,-0.207766 0.02438,-0.548446 0.140625,-0.757813 0.116249,-0.20996 0.216725,-0.415442 0.222656,-0.46289 0.0325,-0.20741 0.45581,-1.427673 0.669922,-1.933594 0.615586,-1.451749 0.756435,-1.642939 1.128906,-1.5 0.118622,0.04567 0.214844,-0.0024 0.214844,-0.107422 0,-0.119808 0.207127,-0.178164 0.554687,-0.142578 0.305273,0.02372 0.602799,-0.0012 0.66211,-0.06055 0.151242,-0.151242 0.57101,0.04089 0.464844,0.212891 -0.05041,0.07888 -0.0494,0.144531 -0.002,0.144531 0.09952,0 1.077215,-0.54198 1.621094,-0.898437 0.301892,-0.201064 0.396319,-0.208865 0.47461,-0.04102 0.04745,0.115063 0.06496,0.04175 0.02344,-0.164063 -0.06524,-0.348747 -0.04701,-0.359583 0.271484,-0.148437 0.188015,0.124552 0.368711,0.329339 0.404297,0.455078 0.04923,0.182677 0.02209,0.179855 -0.125,-0.01172 -0.166663,-0.214705 -0.178451,-0.214705 -0.11914,0 0.03677,0.133449 0.152065,0.249857 0.255859,0.261719 0.103201,0.0059 0.263711,0.03111 0.357422,0.04297 0.09418,0.01127 0.139174,0.0742 0.09766,0.140625 -0.04092,0.06643 0.09821,0.132669 0.310547,0.144531 0.212332,0.01246 0.344324,-0.04162 0.296875,-0.121094 -0.04923,-0.07829 -0.01551,-0.144531 0.07227,-0.144531 0.08778,0 0.202408,-0.14552 0.261718,-0.322266 0.06287,-0.198097 0.242777,-0.322265 0.46875,-0.322265 0.410668,0 0.968672,0.517615 0.78125,0.724609 -0.06643,0.0771 0.0048,0.08854 0.160157,0.03516 0.239615,-0.08582 0.284025,4.39e-4 0.287109,0.578125 0.0036,0.530238 0.04028,0.619002 0.166016,0.404297 0.08885,-0.152072 0.133314,-0.445523 0.0918,-0.654297 -0.0605,-0.336291 -0.01761,-0.37181 0.388671,-0.3125 0.334809,0.04982 0.503587,0.197463 0.626953,0.552735 0.08956,0.266957 0.125717,0.560412 0.06641,0.652344 -0.06524,0.104979 -0.02407,0.119551 0.109375,0.03711 0.157173,-0.09786 0.184771,-0.0588 0.103515,0.152344 -0.08185,0.211146 -0.0469,0.262753 0.132813,0.193359 0.225559,-0.08648 0.728516,0.599724 0.728516,0.994141 0,0.08078 0.241148,0.403043 0.537109,0.716797 0.55847,0.592158 0.897883,1.79727 0.992187,3.517578 0.04508,0.821631 0.45999,2.596773 0.796875,3.408203 0.119808,0.290504 0.343666,1.037516 0.496094,1.658203 0.152429,0.620627 0.352021,1.220701 0.443359,1.333984 l -0.002,0.02148 c 0.09134,0.11269 0.244528,0.184024 0.341797,0.148437 0.352899,-0.115656 0.27951,-0.944447 -0.158203,-1.77539 -0.381664,-0.723769 -0.537728,-1.199889 -0.777344,-2.369141 -0.170696,-0.831892 -0.479208,-1.790503 -0.599609,-1.865235 -0.07829,-0.04804 -0.143226,-0.572908 -0.144531,-1.166015 -5.93e-4,-0.593226 -0.103196,-1.369338 -0.226563,-1.724609 -0.123366,-0.355153 -0.211081,-1.055465 -0.199218,-1.556641 0.01423,-0.501472 -0.02928,-0.875502 -0.0957,-0.833985 -0.06761,0.04152 -0.161464,-0.05606 -0.214843,-0.216796 -0.05101,-0.160792 -0.229648,-0.550888 -0.394532,-0.865235 -0.381961,-0.729047 -0.566984,-1.679394 -0.292968,-1.509765 0.12989,0.08066 0.161538,0.03588 0.0957,-0.136719 -0.184516,-0.478045 1.050231,-0.93805 1.451172,-0.537109 0.04152,0.04092 0.249198,0.01035 0.460937,-0.07031 0.211146,-0.08897 0.373119,-0.100991 0.367188,-0.03516 -0.05279,0.345781 0.04746,0.383636 0.273437,0.105469 0.139973,-0.170815 0.205724,-0.22224 0.152344,-0.111329 -0.129891,0.255037 -0.07682,0.251387 0.509766,-0.04102 0.70473,-0.351713 1.501953,-0.486405 1.501953,-0.253906 0,0.104386 0.08182,0.139388 0.179687,0.08008 0.125146,-0.0777 0.1149,-0.149663 -0.03516,-0.242188 -0.115063,-0.07295 -0.162826,-0.18483 -0.103516,-0.24414 0.0605,-0.06168 0.312454,0.02091 0.558594,0.18164 0.38552,0.246733 0.41695,0.250076 0.226562,0.01758 -0.187421,-0.225381 -0.187421,-0.271539 0,-0.273437 0.17556,-0.0024 0.178382,-0.02979 0.01172,-0.134766 -0.134635,-0.08481 -0.03718,-0.132812 0.275391,-0.132812 0.265712,0 0.461368,0.04232 0.425781,0.0957 -0.146972,0.239022 0.971659,0.139556 1.248047,-0.111328 0.169036,-0.153615 0.352799,-0.267722 0.412109,-0.25586 0.0599,0.01305 0.0842,-0.0389 0.06641,-0.117187 -0.04964,-0.180898 0.579415,-0.329201 1.005859,-0.240235 0.177339,0.03855 0.434665,0.07415 0.572266,0.08008 0.250232,0.0124 0.73555,0.333882 1.300781,0.859376 0.166426,0.1548 0.440932,0.28125 0.609375,0.28125 0.23665,0 0.297162,-0.104643 0.273437,-0.496094 -0.03304,-0.472944 -0.299403,-0.785085 -0.671875,-0.791016 -0.09549,-0.0018 -0.328724,-0.184428 -0.521484,-0.40625 -0.19276,-0.221229 -0.421812,-0.402344 -0.507813,-0.402344 -0.086,0 -0.23246,-0.144752 -0.326171,-0.320312 -0.139381,-0.260374 -0.125659,-0.301713 0.07422,-0.22461 0.171408,0.06583 0.246094,-0.0073 0.246094,-0.242187 0,-0.357051 0.601349,-0.617661 1.039063,-0.449219 0.15658,0.05931 0.203842,0.01282 0.144531,-0.142578 -0.04863,-0.127518 0.02622,-0.276698 0.167969,-0.330078 0.138194,-0.05516 0.227136,-0.157169 0.179687,-0.226562 -0.04211,-0.06939 0.04951,-0.22471 0.203125,-0.345704 0.249105,-0.191573 0.256896,-0.187402 0.07422,0.04687 -0.168443,0.217078 -0.161827,0.281678 0.04102,0.359375 0.151836,0.05812 0.246094,0.0014 0.246094,-0.144531 0,-0.290622 0.469091,-0.307392 0.8125,-0.03516 0.136178,0.108183 0.412985,0.433046 0.615235,0.720703 0.202071,0.28825 0.470731,0.523438 0.597656,0.523438 0.127518,0 0.232422,0.05833 0.232422,0.128906 0,0.0704 0.503732,0.655006 1.11914,1.300781 0.857871,0.9001 1.20495,1.162611 1.490235,1.121094 0.248512,-0.03499 0.390195,-0.177198 0.425781,-0.431641 0.04081,-0.288369 -0.164045,-0.590485 -0.845703,-1.240234 -0.495067,-0.471639 -0.900391,-0.933459 -0.900391,-1.025391 0,-0.09193 -0.216116,-0.278415 -0.482422,-0.416015 -0.266305,-0.137601 -0.484375,-0.349117 -0.484375,-0.470704 0,-0.120994 -0.117,-0.268886 -0.261718,-0.322265 -0.206402,-0.07675 -0.239909,-0.233467 -0.169922,-0.664063 0.06168,-0.386706 0.03506,-0.531763 -0.08594,-0.457031 -0.107352,0.06406 -0.132241,0.03662 -0.06641,-0.06836 0.0605,-0.09786 0.23429,-0.133458 0.386719,-0.08008 0.152488,0.05219 0.221737,0.03295 0.152343,-0.04297 -0.06939,-0.07592 0.03722,-0.225272 0.238282,-0.332031 0.647376,-0.346434 1.742187,0.488577 1.742187,1.330078 0,0.365354 0.495505,0.650138 0.802735,0.460937 0.321049,-0.198572 0.152076,-0.55203 -0.478516,-0.998047 -0.398687,-0.281726 -0.711109,-0.667051 -0.826172,-1.017578 -0.347857,-1.063026 -0.805409,-1.951978 -1.052734,-2.046875 -0.203436,-0.0771 -0.20953,-0.120151 -0.03516,-0.230469 0.118621,-0.07651 0.28858,-0.136718 0.376953,-0.136718 0.08837,0 0.05278,0.0722 -0.08008,0.158203 -0.159545,0.09964 -0.176939,0.156542 -0.04883,0.158203 0.108539,0.0013 0.346446,-0.2879 0.527344,-0.642578 0.182084,-0.355094 0.254808,-0.644532 0.164063,-0.644532 -0.09015,0 -0.164063,-0.187495 -0.164063,-0.414062 0,-0.260374 0.0664,-0.370768 0.179688,-0.300781 0.09846,0.06109 0.243208,0.01085 0.320312,-0.111328 0.0777,-0.118622 0.141333,-0.14892 0.142578,-0.06055 0.0028,0.181846 0.738661,0.181491 1.175782,0 0.417784,-0.173425 0.2052,-0.688345 -0.582032,-1.410156 -0.791205,-0.725133 -0.923961,-1.328329 -0.412109,-1.876954 0.292936,-0.315533 0.467164,-0.36271 1.050781,-0.296875 0.428995,0.04923 0.660873,0.01796 0.601563,-0.07813 -0.05973,-0.09608 0.204291,-0.125573 0.689453,-0.07813 l 0.783203,0.07813 0.04297,-0.886718 c 0.03321,-0.74951 -0.02566,-0.962372 -0.375,-1.376954 -0.46381,-0.550996 -0.433001,-1.041525 0.09961,-1.613281 0.413396,-0.439789 0.405307,-0.956696 -0.01758,-1.339843 -0.555742,-0.502362 -0.661123,-0.819346 -0.371094,-1.109376 0.150649,-0.149463 0.385928,-0.219466 0.564453,-0.160156 0.182677,0.05872 0.304688,0.01936 0.304688,-0.0957 0,-0.143532 0.05481,-0.144646 0.222656,-0.0059 0.174374,0.144125 0.236899,0.118174 0.302734,-0.125 0.0691,-0.265712 0.213471,-0.301068 0.976563,-0.277344 0.492457,0.01779 0.867689,-0.02077 0.826172,-0.08008 -0.121469,-0.196912 0.738946,-0.326602 1.966797,-0.291016 0.655917,0.0172 1.239517,-0.01686 1.298828,-0.07617 0.268855,-0.268677 -0.297832,-0.377752 -1.44336,-0.279296 -0.687648,0.06287 -1.248046,0.0507 -1.248046,-0.02344 0,-0.07117 -0.06429,-0.09628 -0.142579,-0.04883 -0.07888,0.04863 -0.179114,-0.05338 -0.226562,-0.226563 -0.04982,-0.17378 -0.04173,-0.306784 0.01758,-0.294921 0.05753,0.01067 0.237879,-0.0388 0.400391,-0.109376 0.236056,-0.1032 0.253439,-0.158302 0.08203,-0.279296 -0.149463,-0.104387 -0.08126,-0.127527 0.226562,-0.08008 0.243767,0.03855 0.44336,0.0082 0.44336,-0.06836 0,-0.07948 0.221557,-0.138672 0.490234,-0.138672 0.268796,0 0.9194,-0.146879 1.447266,-0.324218 0.527806,-0.17734 1.015777,-0.314597 1.083984,-0.302735 0.444415,0.07177 0.859853,-0.06231 0.998047,-0.320312 0.142939,-0.262154 0.104005,-0.297521 -0.324219,-0.244141 -0.26583,0.03084 -0.607337,0.123822 -0.759765,0.205078 -0.152666,0.08304 -0.839759,0.13129 -1.525391,0.0957 -0.993395,-0.0427 -1.274448,-0.0041 -1.384766,0.19336 -0.10154,0.18327 -0.335691,0.23097 -0.873047,0.189453 -0.403372,-0.03559 -0.69972,-0.0059 -0.658203,0.06055 0.04211,0.06761 -0.002,0.11914 -0.0957,0.11914 -0.0943,0 -0.169922,-0.07698 -0.169922,-0.171875 0,-0.533203 -0.85604,-0.747658 -0.921875,-0.230468 -0.02016,0.179711 -5.73e-4,0.240686 0.04687,0.138671 0.105277,-0.227753 0.715971,-0.08937 0.714844,0.16211 -7.71e-4,0.183507 -2.103526,0.91804 -2.603516,0.912109 -0.188015,-0.0024 -0.242904,-0.09978 -0.183593,-0.328125 0.06583,-0.248512 0.02528,-0.301713 -0.175781,-0.224609 -0.144126,0.05575 -0.261719,0.02612 -0.261719,-0.06641 0,-0.09324 0.187597,-0.133315 0.421875,-0.0918 0.338071,0.06228 0.402754,0.02644 0.320312,-0.189453 -0.07473,-0.203436 -0.03354,-0.240328 0.15625,-0.167969 0.141753,0.05101 0.328236,0.09961 0.416016,0.09961 0.08837,0 0.05083,0.107378 -0.08203,0.240234 -0.13345,0.13345 -0.338236,0.244789 -0.455079,0.246094 -0.162511,0.0018 -0.15568,0.04314 0.02344,0.158203 0.164884,0.105573 0.293979,0.08825 0.404297,-0.05469 0.271169,-0.350527 1.030935,-0.542791 0.927734,-0.234375 -0.02135,0.05931 0.0724,0.07291 0.207031,0.01953 0.215298,-0.08185 0.210073,-0.120374 -0.02539,-0.292969 -0.151836,-0.109131 -0.222085,-0.281984 -0.15625,-0.382812 0.07355,-0.123366 0.02401,-0.147201 -0.136719,-0.08789 -0.135821,0.05219 -0.205652,0.160758 -0.158203,0.240235 0.110318,0.176746 -0.10259,0.184313 -0.373047,0.01172 -0.129594,-0.08244 0.09905,-0.237622 0.646485,-0.4375 0.464936,-0.169628 0.878332,-0.316334 0.925781,-0.322265 0.04431,-0.0083 0.514858,-0.06569 1.046875,-0.125 2.872478,-0.325616 3.966446,-0.278876 3.291015,0.138672 -0.115062,0.07177 -0.119071,0.162772 -0.01172,0.269531 0.199284,0.199284 0.511718,0.02445 0.511718,-0.285156 0,-0.126332 0.199593,-0.272793 0.44336,-0.326172 0.723531,-0.15836 0.845703,-0.212663 0.845703,-0.376953 0,-0.08778 -0.339181,-0.135196 -0.765625,-0.09961 -1.807079,0.134636 -3.398767,0.259151 -4.140625,0.326172 -1.253888,0.113462 -0.596859,-0.309417 0.876953,-0.564453 1.755598,-0.303671 1.964459,-0.317719 2.287109,-0.144531 0.171408,0.08956 0.291016,0.09305 0.291016,0.0059 0,-0.208181 0.569421,-0.360426 1.693359,-0.451172 0.531958,-0.0427 1.149272,-0.09932 1.371094,-0.123047 0.221644,-0.02254 0.673126,-0.0565 1.005859,-0.06836 0.530001,-0.02254 0.605469,-0.0756 0.605469,-0.429687 0,-0.367134 -0.06277,-0.402344 -0.691406,-0.402344 -0.379707,0 -1.085744,0.110865 -1.570313,0.246094 -0.484805,0.134635 -1.329515,0.308254 -1.876953,0.384765 -0.547319,0.07651 -1.081333,0.191978 -1.1875,0.257813 -0.105929,0.06524 -0.602166,0.146054 -1.101562,0.18164 -0.499278,0.03381 -1.143564,0.140071 -1.433594,0.234375 -0.674541,0.221229 -2.977373,0.02938 -2.845703,-0.236328 0.04923,-0.100235 -0.01523,-0.05289 -0.144531,0.105469 -0.399695,0.48872 -1.118837,0.601282 -1.824219,0.285156 -0.670389,-0.300409 -1.271604,-1.135039 -0.90625,-1.257812 0.111504,-0.03737 0.201172,-0.191915 0.201172,-0.34375 0,-0.152429 -0.09026,-0.374333 -0.201172,-0.494141 -0.118028,-0.126925 -0.124931,-0.174545 -0.01758,-0.115234 0.223008,0.124552 0.587771,-0.273935 0.419922,-0.458985 -0.06524,-0.0771 0.0036,-0.08854 0.154297,-0.03516 0.180897,0.06346 0.246667,0.02791 0.199218,-0.09961 -0.04211,-0.108539 0.161143,-0.327376 0.451172,-0.486329 0.370692,-0.208773 0.434887,-0.21954 0.214844,-0.04102 -0.17378,0.13938 -0.231861,0.251953 -0.132813,0.251953 0.09905,0 0.302129,-0.120488 0.449219,-0.267578 0.226567,-0.227753 0.28993,-0.233183 0.41211,-0.04102 0.110911,0.182084 0.144527,0.183199 0.146484,0.0059 0.0018,-0.128705 0.101897,-0.182358 0.251953,-0.123047 0.138787,0.05516 0.20963,0.0303 0.15625,-0.05273 -0.05172,-0.08304 0.19959,-0.238943 0.556641,-0.345703 0.357347,-0.106759 0.648437,-0.293488 0.648437,-0.412109 0,-0.119215 0.112819,-0.214844 0.248047,-0.214844 0.136415,0 0.288417,-0.112225 0.341797,-0.248047 0.120757,-0.314584 0.892704,-0.639291 2.095703,-0.878906 0.518257,-0.103201 1.413734,-0.325698 1.990235,-0.494141 0.576322,-0.168442 1.301133,-0.347082 1.611328,-0.394531 0.71671,-0.114114 1.198771,-0.473212 1.074218,-0.798828 -0.130246,-0.338664 -0.689414,-0.311924 -1.296875,0.06055 -0.470986,0.28914 -1.002746,0.459252 -3.404297,1.089844 -0.532135,0.139973 -1.040533,0.309339 -1.128906,0.376953 -0.08867,0.06999 -0.632484,0.122691 -1.208984,0.123047 -0.694292,5.93e-4 -1.342236,0.11753 -1.919922,0.347656 -0.682726,0.271643 -0.898998,0.30331 -0.998047,0.142578 -0.09549,-0.155394 -0.151759,-0.137694 -0.232422,0.07227 -0.08559,0.224194 -0.311033,0.279296 -1.146484,0.279296 -0.572111,0 -1.000574,-0.06624 -0.953125,-0.144531 0.04804,-0.07948 -0.03661,-0.132956 -0.191406,-0.121093 -0.154208,0.01186 -0.260053,-0.07338 -0.236328,-0.191407 0.02432,-0.117138 -0.02397,-0.170567 -0.109376,-0.117187 -0.319091,0.197801 -0.64983,-0.583469 -0.550781,-1.304688 0.05575,-0.410311 0.02372,-0.782464 -0.08008,-0.908203 -0.09727,-0.116723 -0.171947,-0.535271 -0.166015,-0.929687 0.01423,-0.945295 0.0057,-0.987988 -0.269532,-1.351563 -0.182262,-0.238429 -0.404285,-0.309024 -0.970703,-0.273437 -0.589311,0.03025 -0.789999,-0.03231 -1.019531,-0.316407 -0.230719,-0.284691 -0.348204,-0.321194 -0.59375,-0.183593 -0.199284,0.110911 -0.406154,0.119173 -0.591797,0.01953 -0.354085,-0.189201 -0.374414,-0.464844 -0.03516,-0.464844 0.147683,0 0.202973,0.07523 0.134765,0.185547 -0.07117,0.116842 -0.04381,0.142672 0.07422,0.07031 0.235464,-0.145311 0.0843,-0.417968 -0.232422,-0.417968 -0.197504,0 -0.19319,-0.07801 0.03516,-0.523438 0.148276,-0.288665 0.348809,-0.572837 0.447265,-0.638672 0.09846,-0.06346 0.184535,-0.207796 0.1875,-0.322265 0.0042,-0.113877 0.07475,-0.195456 0.160156,-0.183594 0.08541,0.01364 0.246859,-0.07662 0.361329,-0.201172 0.114884,-0.124552 0.168614,-0.226562 0.115234,-0.226562 -0.09982,0 0.186655,-0.374268 0.53125,-0.69336 0.646961,-0.598919 0.808022,-0.811014 0.742187,-0.982422 -0.04021,-0.104742 0.309976,-0.60098 0.777344,-1.101562 0.467902,-0.500345 1.047494,-1.121079 1.287109,-1.380859 0.427987,-0.463514 1.257813,-1.88248 1.257813,-2.152344 0,-0.207588 -0.345155,-0.164456 -0.632813,0.07813 -0.667304,0.562503 -2.275412,2.249385 -2.208984,2.316406 0.04152,0.04152 -0.129208,0.397192 -0.378906,0.791016 -0.457464,0.721396 -1.819767,1.900936 -1.994141,1.726562 -0.0516,-0.05219 -0.173448,0.07928 -0.269531,0.291016 -0.203021,0.445423 -1.073508,0.998377 -1.326172,0.841797 -0.109132,-0.06761 -0.123457,-0.02993 -0.04102,0.103515 0.101422,0.164884 0.01144,0.187911 -0.417968,0.105469 -0.386706,-0.07414 -0.478816,-0.05682 -0.308594,0.05469 0.214705,0.144125 0.214705,0.158088 0,0.15625 -0.132975,-0.0018 -0.532041,-0.189623 -0.886719,-0.417969 -0.351712,-0.228347 -0.507693,-0.367833 -0.339843,-0.314453 0.258001,0.08541 0.27433,0.06264 0.103515,-0.142578 -0.111504,-0.128112 -0.261451,-0.209558 -0.332031,-0.16211 -0.18505,0.11447 -0.08517,-0.526109 0.222656,-1.419922 0.355864,-1.038115 0.350742,-1.472843 -0.01758,-1.328125 -0.155098,0.06109 -0.670045,0.174256 -1.144531,0.251953 -0.593879,0.09786 -0.981221,0.271602 -1.242188,0.552735 -0.357703,0.385519 -0.876953,0.554427 -0.876953,0.285156 0,-0.06773 0.151481,-0.520871 0.335938,-1.007813 0.184456,-0.486347 0.408661,-1.13707 0.5,-1.447265 0.09134,-0.310195 0.239332,-0.654714 0.330078,-0.765625 0.100235,-0.125739 0.103129,-0.203125 0.0059,-0.203125 -0.08677,0 -0.356609,0.470968 -0.601562,1.046875 -0.244361,0.575551 -0.503639,1.014245 -0.574219,0.966797 -0.17728,-0.109488 -0.03028,-0.598693 0.519531,-1.734375 0.476858,-0.985033 0.497739,-1.476863 0.05469,-1.306641 -0.138787,0.05279 -0.209558,0.157097 -0.16211,0.232422 0.04686,0.07526 -0.02688,0.403493 -0.162109,0.728516 -0.135822,0.324904 -0.248047,0.727868 -0.248047,0.894531 0,0.166663 -0.07621,0.300781 -0.169922,0.300781 -0.08956,0 -0.131505,0.06795 -0.07813,0.150391 0.0516,0.08244 0.02852,0.188808 -0.05273,0.242187 -0.18505,0.114529 -0.400415,-0.41409 -0.220703,-0.541015 0.07295,-0.05148 0.155963,-0.372028 0.179687,-0.714844 0.06109,-0.778809 -0.35649,-0.747983 -0.433594,0.03516 -0.04069,0.413099 -0.172928,0.576924 -0.683593,0.837891 -0.348688,0.176746 -0.634766,0.248948 -0.634766,0.158203 0,-0.09015 -0.108738,-0.164063 -0.242187,-0.164063 -0.132263,0 -0.251882,-0.125856 -0.257813,-0.28125 -0.01186,-0.155156 -0.03682,-0.573056 -0.06055,-0.927734 -0.04863,-0.759177 0.170723,-2.374824 0.492188,-3.636719 0.353781,-1.388293 0.273468,-2.8686794 -0.0918,-2.8769529 z m -25.875,0.8535157 c -0.04068,0.00815 -0.05943,0.04807 -0.04297,0.1269532 0.02372,0.116249 0.08536,0.243567 0.132812,0.291016 0.351891,0.318202 1.017148,1.375812 1.052735,1.664062 0.01779,0.19276 0.04876,0.425299 0.05469,0.513672 0.0089,0.09193 0.07855,0.06223 0.15625,-0.06055 0.112098,-0.177932 0.181556,-0.149926 0.333985,0.134766 l 0.002,-0.002 c 0.10498,0.196911 0.227942,0.320886 0.27539,0.273437 0.04626,-0.04614 -0.195479,-0.524726 -0.537109,-1.064453 C 15.191217,11.255254 14.827043,10.659137 14.722656,10.46875 14.549083,10.151942 14.227497,9.8935309 14.105469,9.9179688 Z M 24.824219,10.5 c -0.08897,0 -0.16211,0.07374 -0.16211,0.162109 0,0.08837 0.07374,0.160157 0.16211,0.160157 0.08897,0 0.162109,-0.07178 0.162109,-0.160157 0,-0.08897 -0.07374,-0.162109 -0.162109,-0.162109 z m -8.660157,0.695312 c -0.0098,0.05799 0.16309,0.430726 0.585938,1.320313 0.295427,0.620568 0.565904,1.043247 0.607422,0.939453 0.07687,-0.206105 -0.570662,-1.552356 -0.994141,-2.068359 -0.121794,-0.148218 -0.193357,-0.226198 -0.199219,-0.191407 z m 28.962891,0.160157 c -0.0391,-0.01575 -0.09408,-0.0042 -0.164062,0.03906 -0.08244,0.05101 -0.150391,0.188786 -0.150391,0.308594 0,0.170815 -0.906997,2.510262 -1.394531,3.59375 -0.05374,0.110911 -0.05338,0.201172 0,0.201172 0.09923,0 0.359925,-0.542703 0.96875,-2.015625 0.219983,-0.532017 0.511256,-1.179672 0.646484,-1.439453 0.186384,-0.355642 0.211046,-0.640251 0.09375,-0.6875 z m 21.876953,0.599609 c -0.227979,0.01436 -0.616907,0.265591 -1.072265,0.716797 -1.436388,1.423102 -2.452663,2.341797 -2.587891,2.341797 -0.171527,0 -2.25,2.116642 -2.25,2.291016 0,0.06761 0.04818,0.126953 0.101562,0.126953 0.134992,0 2.654909,-2.119944 3.767579,-3.169922 0.487593,-0.460133 1.195049,-1.061155 1.572265,-1.333985 0.376623,-0.272414 0.685547,-0.604065 0.685547,-0.736328 0,-0.16908 -0.08001,-0.244946 -0.216797,-0.236328 z m -47.261718,0.382813 c -0.05486,-0.0132 -0.100959,0.0055 -0.134766,0.06055 -0.07422,0.120227 0.735882,1.585412 1.376953,2.490234 0.258348,0.364528 0.366791,0.239719 0.146484,-0.171875 -0.0943,-0.177932 -0.131504,-0.438745 -0.07813,-0.578125 0.0605,-0.158953 0.01037,-0.253906 -0.136718,-0.253906 -0.128705,0 -0.365845,-0.28926 -0.525391,-0.644532 -0.239274,-0.531038 -0.483853,-0.862731 -0.648437,-0.902343 z m -3.892579,0.77539 c -0.03329,-0.0042 -0.05273,0.01795 -0.05273,0.06836 0,0.09193 0.04811,0.214126 0.107422,0.273437 0.0599,0.05931 0.143958,0.07089 0.191406,0.02344 0.04626,-0.04567 -0.0024,-0.168458 -0.107422,-0.273438 -0.05783,-0.05753 -0.105383,-0.08765 -0.138672,-0.0918 z m 20.570313,0.466797 c -0.572903,0.127666 -1.168087,1.180255 -0.859375,1.984375 0.136652,0.355864 0.80784,0.319114 1.193359,-0.06641 0.325023,-0.324667 0.443999,-1.357068 0.197266,-1.693359 -0.151598,-0.206328 -0.340283,-0.267165 -0.53125,-0.22461 z m -15.007813,1.851563 c -0.06939,0.04448 -0.04035,0.240414 0.06641,0.435547 0.337003,0.61778 0.983388,1.634739 1.226562,1.927734 0.327395,0.394416 0.358367,0.353025 0.134766,-0.171875 -0.350349,-0.820208 -1.296065,-2.272662 -1.427735,-2.191406 z M 36.09375,16 c -0.05605,-0.0022 -0.11961,0.0075 -0.177734,0.03125 -0.128112,0.04982 -0.08977,0.09173 0.09766,0.09766 0.169629,0.0065 0.264317,-0.03256 0.210937,-0.08594 C 36.19792,16.016279 36.149799,16.002224 36.09375,16 Z m -16.699219,0.878906 c -0.131076,-0.05012 -0.07422,0.186377 0.152344,0.634766 0.345959,0.686818 0.601563,0.921299 0.601563,0.548828 0,-0.274253 -0.522002,-1.094628 -0.753907,-1.183594 z M 4.2519531,17.800781 c -0.04625,0.04608 0.2579965,0.344971 0.6757813,0.664063 0.6868894,0.5249 1.0351562,0.696175 1.0351562,0.511718 0,-0.136533 -1.6299783,-1.257036 -1.7109375,-1.175781 z m 28.8085939,4.123047 a 0.77881486,0.77881486 0 0 1 0.371094,0.103516 l 3.242187,1.871094 a 0.25957298,0.25957298 0 0 1 0,0.449218 l -1.033203,0.595703 a 0.77890697,0.77890697 0 0 1 -0.779297,0 l -1.429687,-0.824218 a 0.77866717,0.77866717 0 0 0 -0.777344,0 l -4.201172,2.427734 A 0.77905418,0.77905418 0 0 0 28.0625,27.220703 v 1.648438 a 0.77870662,0.77870662 0 0 1 -0.388672,0.675781 l -2.333984,1.347656 a 0.77872198,0.77872198 0 0 1 -0.779297,0 l -1.427735,-0.826172 a 0.77839458,0.77839458 0 0 0 -0.779296,0 l -2.730469,1.578125 a 0.77903425,0.77903425 0 0 0 -0.388672,0.675781 v 15.044922 a 0.77931621,0.77931621 0 0 0 0.388672,0.673828 l 1.427734,0.826172 a 0.77931621,0.77931621 0 0 1 0.388672,0.673828 v 1.19336 a 0.25961391,0.25961391 0 0 1 -0.388672,0.222656 l -1.68164,-0.970703 A 1943.0498,1943.0498 0 0 1 18.589844,49.535156 L 17.8125,49.085938 A 0.77906628,0.77906628 0 0 1 17.423828,48.410156 V 46.613281 31.271484 A 0.77891598,0.77891598 0 0 1 17.8125,30.597656 l 3.636719,-2.101562 a 0.77891598,0.77891598 0 0 0 0.388672,-0.673828 V 26.173828 A 0.77891444,0.77891444 0 0 1 22.228516,25.5 l 2.332031,-1.347656 a 0.77851427,0.77851427 0 0 1 0.779297,0 l 1.427734,0.824218 a 0.77865656,0.77865656 0 0 0 0.779297,0 l 5.107422,-2.949218 a 0.77881486,0.77881486 0 0 1 0.40625,-0.103516 z m -22.328125,0.08008 c -0.129057,-3.06e-4 -0.250263,0.141497 -0.167969,0.275391 0.05101,0.08244 0.163059,0.150391 0.246094,0.150391 0.172001,0 0.199897,-0.220026 0.04687,-0.373047 -0.03722,-0.03707 -0.08198,-0.05263 -0.125,-0.05273 z m 0.992187,0.908203 c -0.08778,0 -0.07108,0.107553 0.04102,0.242188 0.110318,0.132263 0.274908,0.242187 0.363281,0.242187 0.08778,0 0.06913,-0.107552 -0.04297,-0.242187 -0.110318,-0.132856 -0.272956,-0.242188 -0.361329,-0.242188 z M 0.5,25.753906 c -0.0218913,0.02376 -0.015625,0.07069 -0.015625,0.132813 0,0.123366 0.23542461,0.302947 0.5234375,0.398437 0.2881434,0.09561 1.1766547,0.460614 1.9746094,0.810547 0.7979606,0.349103 1.5551267,0.641507 1.6835937,0.644531 0.3401352,0.01246 0.024222,-0.225258 -0.6367187,-0.478515 C 3.7189594,27.142623 2.9227807,26.791257 2.2578125,26.480469 0.87207221,25.831461 0.56567393,25.682622 0.5,25.753906 Z m 24.431641,0.384766 a 0.77740759,0.77740759 0 0 0 -0.371094,0.103516 l -0.523438,0.304687 a 0.77941627,0.77941627 0 0 0 -0.390625,0.673828 v 0.601563 a 0.77941627,0.77941627 0 0 0 0.390625,0.673828 l 0.523438,0.304687 a 0.77740759,0.77740759 0 0 0 0.779297,0 l 0.523437,-0.304687 a 0.77941627,0.77941627 0 0 0 0.388672,-0.673828 v -0.601563 a 0.77941627,0.77941627 0 0 0 -0.388672,-0.673828 l -0.523437,-0.304687 a 0.77740759,0.77740759 0 0 0 -0.408203,-0.103516 z m 15.488281,0.0293 a 0.77868989,0.77868989 0 0 1 0.371094,0.103515 l 1.033203,0.595704 a 0.25962441,0.25962441 0 0 1 0,0.449218 l -14.84375,8.572266 A 0.77880489,0.77880489 0 0 0 26.589844,36.5625 v 4 a 0.77931621,0.77931621 0 0 0 0.390625,0.673828 l 1.427734,0.826172 a 0.77931621,0.77931621 0 0 1 0.388672,0.675781 v 2.695313 a 0.77931621,0.77931621 0 0 1 -0.388672,0.673828 l -1.427734,0.826172 a 0.77931621,0.77931621 0 0 0 -0.390625,0.673828 v 4 a 0.77893111,0.77893111 0 0 0 0.390625,0.673828 l 4.767578,2.755859 A 0.2595202,0.2595202 0 0 0 32.138672,54.8125 V 39.763672 a 0.77879647,0.77879647 0 0 1 0.388672,-0.673828 l 7.484375,-4.322266 a 0.77774928,0.77774928 0 0 1 0.777343,0.002 l 0.126954,0.07422 a 0.77969361,0.77969361 0 0 1 0.390625,0.673828 V 52.65625 a 0.7788145,0.7788145 0 0 1 -0.390625,0.673828 l -1.03125,0.595703 a 0.25955911,0.25955911 0 0 1 -0.388672,-0.224609 v -16.09375 a 0.2595202,0.2595202 0 0 0 -0.388672,-0.22461 l -4.769531,2.75586 A 0.77893111,0.77893111 0 0 0 33.949219,40.8125 v 16.091797 a 0.77845822,0.77845822 0 0 1 -0.388672,0.673828 l -0.126953,0.07422 a 0.77904564,0.77904564 0 0 1 -0.779297,0 L 26.726562,54.230469 A 2432.5672,2432.5672 0 0 1 25.947266,53.779297 L 25.169922,53.330078 A 0.77906628,0.77906628 0 0 1 24.78125,52.65625 v -5.046875 a 0.77931603,0.77931603 0 0 0 -0.388672,-0.673828 l -1.429687,-0.826172 a 0.77931603,0.77931603 0 0 1 -0.388672,-0.675781 v -2.695313 a 0.77931603,0.77931603 0 0 1 0.388672,-0.673828 l 1.429687,-0.826172 A 0.77931603,0.77931603 0 0 0 24.78125,40.5625 v -5.044922 a 0.77873331,0.77873331 0 0 1 0.388672,-0.675781 l 14.84375,-8.568359 v -0.002 a 0.77868989,0.77868989 0 0 1 0.40625,-0.103515 z m 42.826172,0.08984 c -0.04087,-0.0063 -0.08955,-0.005 -0.146485,0.0039 -1.330576,0.180304 -2.19048,0.354688 -2.460937,0.5 -0.174967,0.09193 -0.354895,0.133386 -0.402344,0.08594 -0.123307,-0.123366 -2.537109,0.604893 -2.537109,0.765625 0,0.17556 0.553554,0.168658 1.371093,-0.01758 0.354679,-0.08126 1.043716,-0.190689 1.53125,-0.25 0.487653,-0.05635 1.321499,-0.193429 1.853516,-0.300781 0.786342,-0.159546 0.966797,-0.254903 0.966797,-0.511719 0,-0.168591 -0.05317,-0.256513 -0.175781,-0.275391 z m -37.673828,2.882813 a 0.77886539,0.77886539 0 0 1 0.371093,0.105469 l 2.332032,1.347656 a 0.77891432,0.77891432 0 0 1 0.390625,0.673828 v 5.896484 a 0.77931621,0.77931621 0 0 0 0.388672,0.673829 l 1.427734,0.826171 a 0.77931621,0.77931621 0 0 1 0.388672,0.675782 v 2.695312 a 0.77931621,0.77931621 0 0 1 -0.388672,0.673828 l -1.427734,0.826172 a 0.77931621,0.77931621 0 0 0 -0.388672,0.673828 v 4.197266 a 0.7788113,0.7788113 0 0 1 -0.390625,0.675781 l -3.238282,1.869141 a 0.25956011,0.25956011 0 0 1 -0.388671,-0.22461 v -1.191406 a 0.77931621,0.77931621 0 0 1 0.388671,-0.673828 l 1.427735,-0.826172 a 0.77931621,0.77931621 0 0 0 0.390625,-0.675781 v -3.148437 a 0.77931621,0.77931621 0 0 0 -0.390625,-0.675782 l -1.427735,-0.826172 a 0.77931621,0.77931621 0 0 1 -0.388671,-0.673828 v -2.695312 a 0.77931621,0.77931621 0 0 1 0.388671,-0.673828 l 1.427735,-0.826172 a 0.77931621,0.77931621 0 0 0 0.390625,-0.675782 v -4.849609 a 0.77906628,0.77906628 0 0 0 -0.390625,-0.673828 l -2.333985,-1.349609 a 0.25959273,0.25959273 0 0 1 0,-0.449219 l 1.033203,-0.595703 a 0.77886539,0.77886539 0 0 1 0.408204,-0.105469 z M 0.12109375,30.011719 C 0.05401332,30.008753 0,30.07074 0,30.148438 0,30.226728 0.41789936,30.397627 0.92773438,30.529297 2.0613166,30.821106 2.1772441,30.839294 2.0449219,30.707031 1.9374271,30.59956 0.33651031,30.01765 0.12109375,30.011719 Z m 2.33984375,0.86914 c 0.041809,0.03218 0.2367481,0.107154 0.6015625,0.234375 v -0.002 c 0.4876528,0.169629 0.995635,0.314382 1.1289062,0.320313 0.4256138,0.01779 -0.7867311,-0.442806 -1.4121093,-0.53711 -0.2478922,-0.03707 -0.3601683,-0.0478 -0.3183594,-0.01563 z m 2.2539063,0.578125 c -0.2410982,0.0018 -0.2458197,0.02475 -0.039063,0.158204 0.3046199,0.196911 0.3222657,0.196911 0.3222657,0 0,-0.08837 -0.1281649,-0.159449 -0.2832027,-0.158204 z m -3.046875,0.605469 c -0.1742765,-0.009 -0.2814805,0.01238 -0.3125,0.0625 -0.1451156,0.234277 -0.1051409,0.249218 1.4648437,0.507813 v 0.002 c 0.7979487,0.13167 1.6195967,0.249928 1.8242187,0.255859 0.6653063,0.02965 0.2053698,-0.28362 -0.578125,-0.394531 -0.4190658,-0.0599 -1.1780801,-0.202704 -1.6875,-0.318359 -0.295572,-0.06761 -0.536661,-0.106264 -0.7109374,-0.115235 z m 3.6992187,0.742188 c -0.02924,0.0129 -0.046875,0.04494 -0.046875,0.0918 0,0.0943 0.071427,0.169921 0.1601563,0.169921 0.088669,0 0.1621093,-0.0288 0.1621093,-0.07031 0,-0.03974 -0.07338,-0.118495 -0.1621093,-0.171875 -0.044364,-0.02728 -0.084041,-0.03243 -0.1132813,-0.01953 z m 1.0683594,0.28125 c -0.056026,-0.0022 -0.1215927,0.0075 -0.1796875,0.03125 -0.1285264,0.05041 -0.090003,0.09173 0.097656,0.09766 0.1700439,0.0065 0.2662703,-0.03256 0.2128906,-0.08594 -0.026749,-0.02669 -0.074833,-0.04074 -0.1308591,-0.04297 z m 48.2246091,0.90039 c -0.0176,0.0022 -0.03905,0.01366 -0.06055,0.03516 -0.08304,0.08007 -0.100326,0.224229 -0.04102,0.320312 h 0.0059 c 0.157767,0.244953 0.179688,0.220056 0.179688,-0.146484 0,-0.140122 -0.03119,-0.215657 -0.08398,-0.208985 z m 1.771485,0.800781 c -0.05672,-0.01112 -0.148088,-0.0071 -0.257813,0.01367 -0.216887,0.04243 -0.392284,0.101054 -0.394531,0.136719 0.0072,0.121633 0.627019,0.05455 0.708984,-0.07813 0.02343,-0.03559 7.6e-5,-0.06115 -0.05664,-0.07227 z m 5.134765,3.134766 c -0.05605,-0.0022 -0.11961,0.0075 -0.177734,0.03125 -0.128111,0.05041 -0.08977,0.09172 0.09766,0.09766 0.169629,0.0065 0.264317,-0.03256 0.210938,-0.08594 -0.02669,-0.02669 -0.07481,-0.04075 -0.13086,-0.04297 z M 9.2695312,38.388672 c -0.1435319,0 -0.2147221,0.07374 -0.1601562,0.162109 0.054922,0.08897 0.1263491,0.160157 0.1601562,0.160157 0.034104,0 0.1075436,-0.07178 0.1621094,-0.160157 0.054685,-0.08897 -0.018696,-0.162109 -0.1621094,-0.162109 z m 38.4707028,0.917969 a 0.77691217,0.77691217 0 0 0 -0.36914,0.105468 l -0.523438,0.300782 a 0.77991406,0.77991406 0 0 0 -0.388672,0.675781 v 0.599609 a 0.77991406,0.77991406 0 0 0 0.388672,0.675781 l 0.523438,0.302735 a 0.77691217,0.77691217 0 0 0 0.777344,0 l 0.52539,-0.302735 A 0.77941627,0.77941627 0 0 0 49.0625,40.988281 v -0.599609 a 0.77941627,0.77941627 0 0 0 -0.388672,-0.675781 l -0.52539,-0.302735 a 0.77691217,0.77691217 0 0 0 -0.408204,-0.103515 z m -22.074218,3.396484 a 0.77740759,0.77740759 0 0 0 -0.371094,0.105469 l -0.523438,0.302734 a 0.77941627,0.77941627 0 0 0 -0.388672,0.675781 v 0.59961 a 0.77941627,0.77941627 0 0 0 0.388672,0.675781 l 0.523438,0.302734 a 0.77740759,0.77740759 0 0 0 0.779297,0 L 26.597656,45.0625 a 0.77941627,0.77941627 0 0 0 0.390625,-0.675781 v -0.59961 a 0.77941627,0.77941627 0 0 0 -0.390625,-0.675781 l -0.523437,-0.302734 a 0.77740759,0.77740759 0 0 0 -0.408203,-0.105469 z m 31.365234,3.464844 c -0.199877,-0.0172 -0.281354,0.0053 -0.175781,0.05273 0.106759,0.04745 0.156823,0.18488 0.109375,0.304688 -0.04804,0.125738 0.06355,0.26229 0.267578,0.328125 0.255036,0.08007 0.302532,0.157812 0.173828,0.287109 -0.343409,0.343587 -0.08015,0.572018 0.796875,0.689453 0.225381,0.03084 0.58761,0.125704 0.804687,0.212891 v -0.002 c 0.687827,0.274608 2.087891,0.168599 2.087891,-0.158204 0,-0.233209 -0.901604,-0.621423 -2.318359,-0.998046 -0.743223,-0.196912 -1.35735,-0.431159 -1.363282,-0.519532 -0.0077,-0.08956 -0.179969,-0.179472 -0.382812,-0.197265 z m 5.552734,1.978515 c -0.08942,0.0077 -0.192446,0.02634 -0.316406,0.05273 l -0.607422,0.128906 0.96875,0.367187 c 0.532017,0.202843 1.112317,0.396055 1.289063,0.431641 0.17728,0.0344 0.685855,0.204533 1.128906,0.378906 0.970561,0.381961 1.208984,0.404743 1.208984,0.109375 0,-0.127518 -0.23898,-0.268814 -0.552734,-0.328125 -1.123227,-0.210731 -2.215093,-0.603765 -2.517578,-0.90625 -0.190921,-0.190387 -0.333308,-0.257506 -0.601563,-0.234375 z m -49.435546,1.203125 c -0.03974,0 -0.116543,0.07374 -0.169922,0.16211 -0.05516,0.08897 -0.0234,0.162109 0.07031,0.162109 0.0943,0 0.171875,-0.07374 0.171875,-0.162109 0,-0.08837 -0.03075,-0.16211 -0.07226,-0.16211 z m 40.189453,1.455079 c -0.08304,0 -0.111974,0.07374 -0.05859,0.162109 0.05516,0.08837 0.171393,0.160156 0.259765,0.160156 0.08304,0 0.113927,-0.07178 0.06055,-0.160156 -0.05516,-0.08837 -0.173345,-0.162109 -0.261718,-0.162109 z M 10.4375,51.064453 c -0.188637,-10e-4 -0.9841228,0.405796 -1.6503906,0.859375 -0.2658307,0.180898 -0.3997198,0.331379 -0.296875,0.332031 0.2656468,0.0016 1.9882816,-1.008842 1.9882816,-1.166015 0,-0.0179 -0.01407,-0.02525 -0.04102,-0.02539 z m 43.486328,0.138672 c -0.02653,0.01131 -0.02765,0.04199 0,0.08594 0.05397,0.08719 0.166965,0.158204 0.25,0.158204 0.231905,0 0.181697,-0.115897 -0.09766,-0.222657 -0.07295,-0.0261 -0.125209,-0.03305 -0.152344,-0.02148 z m 0.66211,0.482422 c -0.06072,-1.02e-4 -0.09775,0.01876 -0.09766,0.0625 6e-5,0.05812 0.344519,0.302167 0.765625,0.542969 0.421047,0.240683 1.34545,0.832257 2.054688,1.314453 1.421085,0.966587 1.578464,1.033681 1.501953,0.638672 -0.02847,-0.147684 -0.196301,-0.281107 -0.373047,-0.292969 -0.177339,-0.01323 -0.685855,-0.290386 -1.128906,-0.617188 -0.443229,-0.327039 -0.987163,-0.684604 -1.208985,-0.794922 -0.221881,-0.109131 -0.536114,-0.319113 -0.699218,-0.466796 -0.238207,-0.21174 -0.632287,-0.386413 -0.814453,-0.386719 z M 6.0566406,52.095703 c -0.039382,0 -0.1173091,0.07178 -0.171875,0.160156 -0.054684,0.08897 -0.023517,0.16211 0.070312,0.16211 0.094067,0 0.171875,-0.07374 0.171875,-0.16211 0,-0.08897 -0.031167,-0.160156 -0.070312,-0.160156 z m 1.0078125,0.806641 c -0.2351077,0 -0.4508134,0.05484 -0.4804687,0.123047 -0.060236,0.138965 -2.1556217,1.381889 -2.59375,1.539062 -0.1550976,0.05575 -0.28125,0.175647 -0.28125,0.267578 0,0.09075 -0.104548,0.166016 -0.2324219,0.166016 -0.1278739,0 -0.2774654,0.07178 -0.3320313,0.160156 -0.055337,0.08897 -0.047778,0.162109 0.015625,0.162109 0.2288327,0 2.490611,-1.192535 2.7890626,-1.470703 0.1677959,-0.156402 0.5835031,-0.43315 0.9238281,-0.615234 0.579703,-0.313754 0.5919316,-0.332031 0.1914062,-0.332031 z m 48.1367189,0.396484 c -0.05452,-0.0042 -0.06836,0.02346 -0.06836,0.07031 0,0.086 0.150889,0.202408 0.335938,0.261718 0.480061,0.15237 1.867259,1.011635 2.787109,1.72461 0.819378,0.635218 1.288279,0.787107 1.126953,0.367187 -0.05101,-0.132856 -0.156504,-0.242187 -0.232421,-0.242187 -0.0761,0 -0.847247,-0.424391 -1.714844,-0.94336 C 55.88638,53.609994 55.364719,53.3114 55.201172,53.298828 Z M 7.53125,54.894531 c -0.02924,-0.01112 -0.07087,-0.0052 -0.1152344,0.02148 -0.088669,0.05516 -0.1601562,0.171392 -0.1601562,0.259765 0,0.08304 0.071427,0.113927 0.1601562,0.06055 0.08867,-0.05516 0.1621094,-0.173346 0.1621094,-0.261719 0,-0.04152 -0.017635,-0.06896 -0.046875,-0.08008 z m -5.2089844,0.869141 c -0.1858976,-0.114885 -2.16015622,1.104452 -2.16015622,1.333984 0,0.240268 0.10668614,0.198637 0.94921872,-0.367187 0.4290242,-0.288191 0.9120039,-0.602369 1.0742188,-0.697266 0.1608507,-0.0949 0.2236683,-0.216151 0.1367187,-0.269531 z m 57.3710934,0.261719 c -0.02921,0.0129 -0.04687,0.04494 -0.04687,0.0918 0,0.0943 0.07178,0.169921 0.160157,0.169921 0.08897,0 0.162109,-0.0288 0.162109,-0.07031 0,-0.03914 -0.07374,-0.118495 -0.162109,-0.171875 -0.04448,-0.02728 -0.08407,-0.03243 -0.113282,-0.01953 z M 5.5644531,56.359375 c -0.1560607,0.0032 -0.5471341,0.258781 -1.1796875,0.767578 -0.3629935,0.291928 -0.9890279,0.735444 -1.3925781,0.986328 -0.403568,0.250766 -0.734375,0.52362 -0.734375,0.605469 0,0.308238 0.3949462,0.124713 1.1914063,-0.552734 0.452867,-0.385283 1.1310114,-0.89421 1.5078124,-1.13086 0.376807,-0.236116 0.6855469,-0.503597 0.6855469,-0.59375 0,-0.05459 -0.026105,-0.0831 -0.078125,-0.08203 z M 49.5,56.449219 c -0.0943,0 -0.171875,0.07178 -0.171875,0.160156 0,0.08897 0.03075,0.162109 0.07227,0.162109 0.03914,0 0.116542,-0.07374 0.169921,-0.162109 0.05516,-0.08897 0.0234,-0.160156 -0.07031,-0.160156 z M 9.8242188,57.09375 c -0.094897,0 -0.1236922,0.07178 -0.070313,0.160156 0.054566,0.08897 0.1284044,0.16211 0.1699219,0.16211 0.041517,0 0.072266,-0.07374 0.072266,-0.16211 0,-0.08897 -0.078164,-0.160156 -0.1718749,-0.160156 z m 14.5175782,2.662109 c 0.08837,-0.05516 0.162109,0.0078 0.162109,0.140625 0,0.132856 -0.07374,0.288418 -0.162109,0.341797 -0.08897,0.05516 -0.160156,-0.0091 -0.160156,-0.142578 0,-0.132856 0.07178,-0.286464 0.160156,-0.339844 z m -0.476563,0.722657 c -0.162521,0.04886 -0.479968,0.600767 -0.478515,0.886718 h 0.002 c 5.93e-4,0.237243 0.07896,0.172988 0.300781,-0.242187 0.164884,-0.310551 0.275893,-0.591295 0.234375,-0.632813 -0.01557,-0.01581 -0.03538,-0.0187 -0.05859,-0.01172 z m 24.646485,0.732422 c -0.07532,0.0462 0.104604,0.34267 0.402343,0.658203 0.298215,0.315592 0.67538,0.821155 0.837891,1.123047 0.162512,0.301891 0.351122,0.548828 0.419922,0.548828 0.216484,0 0.134249,-0.489159 -0.09766,-0.578125 -0.121824,-0.0468 -0.492672,-0.479335 -0.824219,-0.960938 -0.331666,-0.481722 -0.662957,-0.838464 -0.738281,-0.791015 z m -10.472657,0.01758 c -0.04152,-0.04093 -0.292288,0.02124 -0.558593,0.138672 -0.374844,0.164883 -0.411808,0.218678 -0.16211,0.224609 0.346494,0.01127 0.845849,-0.240508 0.720703,-0.363281 z m 12.869141,0.115234 c -0.0516,-0.0046 -0.108851,0.06664 -0.216797,0.208984 -0.123366,0.163105 -0.226617,0.422731 -0.228515,0.578125 v 0.0059 c -0.0036,0.194539 0.118317,0.28125 0.396484,0.28125 0.440679,0 0.521684,-0.284246 0.230469,-0.828125 -0.08363,-0.159546 -0.130041,-0.241497 -0.181641,-0.246094 z m -8.027344,0.263672 c -0.08897,0 -0.162109,0.07178 -0.162109,0.160156 0,0.08897 0.07374,0.16211 0.162109,0.16211 0.08897,0 0.16211,-0.07374 0.16211,-0.16211 0,-0.08897 -0.07374,-0.160156 -0.16211,-0.160156 z m -10.15625,0.160156 c -0.16607,0 -0.33927,0.06063 -0.386718,0.134766 -0.04567,0.07532 0.128717,0.134765 0.386718,0.134765 0.258002,0 0.434168,-0.06063 0.386719,-0.134765 -0.04508,-0.07532 -0.220055,-0.134766 -0.386719,-0.134766 z m -8.011718,0.0625 c -0.02921,0.0129 -0.04883,0.04299 -0.04883,0.08984 0,0.0943 0.07374,0.171875 0.16211,0.171875 0.08897,0 0.162109,-0.03075 0.162109,-0.07227 0,-0.03974 -0.07374,-0.116542 -0.162109,-0.169922 -0.04448,-0.02728 -0.08407,-0.03243 -0.113281,-0.01953 z m -1.314453,0.03516 c -0.103972,-0.06417 -1.5564,3.214565 -1.867188,4.216797 -0.0688,0.21945 -0.04579,0.363281 0.05859,0.363281 0.09549,0 0.173828,-0.09912 0.173828,-0.220703 0,-0.121231 0.254258,-0.71611 0.564453,-1.322265 0.310195,-0.605978 0.564508,-1.213962 0.566406,-1.351563 0.0024,-0.137245 0.144232,-0.556797 0.314453,-0.93164 0.172001,-0.375259 0.255288,-0.712389 0.189454,-0.753907 z m 35.53125,1.742188 c -0.122705,0.01998 -0.12948,0.154999 0.03711,0.421875 0.205096,0.828037 0.379148,0.827858 1.470703,0.898437 0.126925,-0.152428 0.07685,-0.291808 -0.189453,-0.533203 -0.587065,-0.533055 -1.113852,-0.820405 -1.31836,-0.787109 z m -41.3125,0.640625 c -0.01742,0.01698 -0.03024,0.07231 -0.0332,0.166015 h 0.002 c -0.0065,0.169629 0.0306,0.266271 0.08398,0.212891 0.05338,-0.05338 0.05917,-0.194298 0.01172,-0.310547 -0.02521,-0.06435 -0.04703,-0.08534 -0.06445,-0.06836 z m 17.130859,0.298828 c -0.02452,-0.01952 -0.04492,0.146386 -0.04492,0.445313 0,0.403906 0.0288,0.562565 0.07031,0.363281 0.04152,-0.199937 0.04152,-0.527279 0,-0.726563 -0.0086,-0.04982 -0.01722,-0.07552 -0.02539,-0.08203 z m 21.648437,0.283203 c -0.109131,0 -0.07514,0.121142 0.08203,0.294922 0.146497,0.162511 0.265625,0.385009 0.265625,0.494141 0,0.109131 0.06889,0.154942 0.154297,0.101562 0.08405,-0.05209 0.274913,0.09107 0.421874,0.314453 0.263085,0.401602 0.552735,0.540496 0.552735,0.265625 0,-0.07829 -0.107972,-0.232072 -0.240235,-0.341797 -0.134042,-0.109724 -0.197839,-0.263506 -0.15039,-0.341796 0.04863,-0.0771 -0.04375,-0.142579 -0.205078,-0.142579 -0.161325,0 -0.38323,-0.145519 -0.494141,-0.322265 -0.110911,-0.176746 -0.284704,-0.322266 -0.386719,-0.322266 z m -7.5625,0.002 c -0.322769,0 0.430921,1.246294 1.136719,1.88086 0.425792,0.38285 0.821549,0.889536 0.880859,1.125 0.118741,0.472884 0.861002,1.600869 1.324219,2.013671 0.163223,0.145015 0.442395,0.449982 0.619141,0.677735 h 0.0039 c 0.177339,0.227753 0.374283,0.41885 0.433594,0.421875 0.212332,0.01417 0.310182,-0.628144 0.146484,-0.933594 -0.0949,-0.169035 -0.120522,-0.363607 -0.05469,-0.433594 0.06287,-0.07117 0.03076,-0.07884 -0.07422,-0.01953 -0.355034,-0.353729 -0.442523,-0.800275 -0.867188,-1.068359 -0.296257,-0.374251 -0.621828,-0.729087 -0.722656,-0.794922 -0.100828,-0.06228 -0.358747,-0.260335 -0.572265,-0.439453 -0.311975,-0.261561 -0.344541,-0.355221 -0.166016,-0.472657 0.118028,-0.08066 0.171304,-0.230783 0.105469,-0.333984 -0.08778,-0.141871 -0.171156,-0.141579 -0.34375,0.002 -0.124553,0.100828 -0.226563,0.123979 -0.226563,0.04687 -1.18e-4,-0.181669 -1.446894,-1.671875 -1.623047,-1.671875 z m -22.470703,1.0625 c -0.01382,-0.0012 -0.03507,0.02037 -0.0625,0.06641 -0.07948,0.132974 -0.236152,0.641372 -0.347656,1.128906 -0.11269,0.487593 -0.376744,1.488974 -0.587891,2.226562 -0.211146,0.737648 -0.338607,1.417834 -0.279296,1.509766 0.150649,0.243767 0.379846,-0.181886 0.382812,-0.710938 0.0012,-0.242462 0.174806,-1.040594 0.384766,-1.773437 0.381961,-1.33458 0.606537,-2.439025 0.509765,-2.447266 z m 8.541016,0.03711 c -0.0275,-0.02855 -0.05051,0.07175 -0.05273,0.271484 -0.003,0.267491 0.02872,0.394288 0.07617,0.285156 0.04745,-0.109131 0.04738,-0.327201 0.0059,-0.484375 -0.0098,-0.03915 -0.02013,-0.06275 -0.0293,-0.07227 z m 0.167969,0.896484 c -0.01454,-0.01383 -0.03042,-0.01451 -0.04687,0.002 -0.139381,0.139736 -0.08733,1.944154 0.125,4.289063 0.08422,0.930881 0.154178,2.254291 0.154297,2.941406 l -0.0039,-0.0059 c 0,0.978271 0.05093,1.25 0.232422,1.25 0.127518,0 0.231592,-0.125856 0.232422,-0.28125 5.93e-4,-0.154979 0.04044,-0.49932 0.08789,-0.765626 0.08007,-0.435933 0.07538,-0.445012 -0.05273,-0.08203 -0.139973,0.405686 -0.146341,0.407802 -0.158203,0.03711 -0.0344,-0.792925 -0.347634,-5.14182 -0.414062,-5.753907 -0.03677,-0.354678 -0.07516,-0.892234 -0.07813,-1.195312 -0.0027,-0.227308 -0.0345,-0.394067 -0.07813,-0.435547 z m -10.462891,1.59375 c -0.02939,-0.03397 -0.127568,0.138114 -0.298828,0.560547 -0.260196,0.641683 -0.898818,2.699663 -1.335938,4.3125 -0.144718,0.531898 -0.397023,1.439125 -0.5625,2.015625 -0.16607,0.576322 -0.348964,1.255742 -0.402343,1.507812 l 0.002,-0.002 c -0.07177,0.336292 -0.04246,0.444005 0.109375,0.390625 0.113876,-0.03796 0.212819,-0.135541 0.21875,-0.216797 0.02242,-0.364345 0.289064,-1.388571 0.708984,-2.726562 0.250291,-0.797967 0.501308,-1.70543 0.554688,-2.015625 0.05504,-0.310373 0.32364,-1.276455 0.597656,-2.146485 0.313605,-0.995048 0.457181,-1.623068 0.408203,-1.679687 z m -2.201172,0.441406 c 0.08897,0 0.160156,0.07178 0.160156,0.160157 0,0.08897 -0.07178,0.162109 -0.160156,0.162109 -0.08837,0 -0.162109,-0.07374 -0.162109,-0.162109 0,-0.08837 0.07374,-0.160157 0.162109,-0.160157 z m 29.736328,1.201172 c -0.02911,-0.01056 -0.05056,0.08346 -0.05078,0.248047 0,0 0,0.002 0,0.002 2.89e-4,0.217423 0.03479,0.309653 0.08203,0.199219 0.04745,-0.110318 0.04745,-0.291433 0,-0.402344 -0.01142,-0.02758 -0.02149,-0.04333 -0.03125,-0.04687 z m 0.595703,5.253906 c -0.184656,-0.04493 -0.344762,0.0074 -0.341796,0.19336 0.0069,0.273748 0.801874,1.298003 2.042968,2.636719 0.435104,0.472706 0.797353,0.493934 0.935547,0.05859 0.08078,-0.254443 -0.07767,-0.490151 -0.714844,-1.0625 -0.450583,-0.40438 -0.777989,-0.804277 -0.724609,-0.886719 0.04982,-0.07948 0.03253,-0.136862 -0.04102,-0.125 -0.334453,0.05813 -0.497747,-0.04626 -0.667968,-0.419921 -0.09451,-0.207884 -0.303625,-0.349604 -0.488282,-0.394532 z m -16.746093,0.375 c -0.01742,0.01705 -0.03024,0.07426 -0.0332,0.167969 h 0.002 c -0.0065,0.169629 0.0306,0.264317 0.08398,0.210938 0.05338,-0.05338 0.06112,-0.192345 0.01367,-0.308594 -0.02521,-0.06406 -0.04898,-0.08736 -0.06641,-0.07031 z m 0.117187,0.583985 c -0.08897,0 -0.162109,0.145519 -0.162109,0.322265 0,0.176746 0.07374,0.322266 0.162109,0.322266 0.08897,0 0.16211,-0.14552 0.16211,-0.322266 0,-0.176746 -0.07374,-0.322265 -0.16211,-0.322265 z M 13.220703,77.363334 12.925781,77.7481 c -0.387892,0.502184 -0.539106,0.935686 -0.40625,1.150391 h 0.002 c 0.174196,0.281192 0.699219,-0.507322 0.699219,-1.048829 z"
                     style="fill:#800080;fill-opacity:1;stroke-width:0.161202" />
                  <g
                     id="text1605"
                     style="font-style:normal;font-weight:normal;font-size:11.339px;line-height:1.25;font-family:sans-serif;letter-spacing:0px;word-spacing:0px;fill:#800080;fill-opacity:1;stroke:none;stroke-width:0.283475"
                     aria-label="plopp"
                     transform="matrix(1.8342776,0,0,1.8342776,-90.303294,-93.771702)">
                    <path
                       id="path2336"
                       style="font-weight:bold;font-size:6.04746px;fill:#800080;fill-opacity:1;stroke-width:0.283475"
                       d="m 109.86528,115.30224 v -4.1153 h 0.45658 q 0.14514,0 0.1905,0.13607 l 0.0605,0.28726 q 0.18747,-0.21469 0.42937,-0.34773 0.24492,-0.13305 0.57149,-0.13305 0.25399,0 0.46263,0.10583 0.21166,0.10583 0.36284,0.30842 0.15421,0.19957 0.23586,0.4959 0.0847,0.2933 0.0847,0.67429 0,0.34773 -0.0937,0.64405 -0.0937,0.29633 -0.26911,0.51404 -0.17235,0.21771 -0.4203,0.34168 -0.24492,0.12095 -0.55032,0.12095 -0.26306,0 -0.44751,-0.0786 -0.18142,-0.0816 -0.32656,-0.22376 v 1.26997 z m 1.45139,-3.58312 q -0.23283,0 -0.39913,0.0998 -0.16328,0.0968 -0.3054,0.27516 v 1.39092 q 0.127,0.15723 0.27516,0.22073 0.15119,0.0605 0.32656,0.0605 0.16933,0 0.3054,-0.0635 0.13607,-0.0635 0.2298,-0.19352 0.0968,-0.13002 0.14817,-0.32656 0.0514,-0.19957 0.0514,-0.46868 0,-0.27214 -0.0454,-0.45961 -0.0423,-0.19049 -0.12397,-0.30842 -0.0816,-0.11792 -0.19957,-0.17235 -0.1149,-0.0544 -0.26306,-0.0544 z" />
                    <path
                       id="path2338"
                       style="font-weight:bold;font-size:6.04746px;fill:#800080;fill-opacity:1;stroke-width:0.283475"
                       d="m 114.05616,109.79603 v 4.49326 h -0.74686 v -4.49326 z" />
                    <path
                       id="path2340"
                       style="font-weight:bold;font-size:6.04746px;fill:#800080;fill-opacity:1;stroke-width:0.283475"
                       d="m 116.17579,111.13856 q 0.34471,0 0.62591,0.11188 0.28423,0.11188 0.4838,0.31749 0.20259,0.20562 0.31144,0.50194 0.10886,0.29633 0.10886,0.6622 0,0.3689 -0.10886,0.66522 -0.10885,0.29633 -0.31144,0.50496 -0.19957,0.20864 -0.4838,0.32052 -0.2812,0.11188 -0.62591,0.11188 -0.34773,0 -0.63196,-0.11188 -0.28423,-0.11188 -0.48682,-0.32052 -0.19957,-0.20863 -0.31144,-0.50496 -0.10886,-0.29632 -0.10886,-0.66522 0,-0.36587 0.10886,-0.6622 0.11187,-0.29632 0.31144,-0.50194 0.20259,-0.20561 0.48682,-0.31749 0.28423,-0.11188 0.63196,-0.11188 z m 0,2.62158 q 0.38704,0 0.57149,-0.26004 0.18747,-0.26004 0.18747,-0.76198 0,-0.50194 -0.18747,-0.76501 -0.18445,-0.26306 -0.57149,-0.26306 -0.39308,0 -0.58358,0.26609 -0.18747,0.26306 -0.18747,0.76198 0,0.49891 0.18747,0.76198 0.1905,0.26004 0.58358,0.26004 z" />
                    <path
                       id="path2342"
                       style="font-style:normal;font-variant:normal;font-weight:300;font-stretch:normal;font-size:6.04746px;font-family:Lato;-inkscape-font-specification:'Lato Light';fill:#800080;fill-opacity:1;stroke-width:0.283475"
                       d="m 118.40427,115.35364 v -4.07296 h 0.16026 q 0.0756,0 0.0877,0.0756 l 0.0272,0.46566 q 0.19957,-0.27214 0.46868,-0.4324 0.26911,-0.16025 0.60172,-0.16025 0.55335,0 0.86177,0.38401 0.31144,0.38401 0.31144,1.15204 0,0.32959 -0.0877,0.61684 -0.0847,0.28423 -0.25399,0.49589 -0.16631,0.20864 -0.41123,0.32959 -0.2419,0.12095 -0.55939,0.12095 -0.30539,0 -0.52915,-0.11188 -0.22376,-0.11188 -0.38704,-0.32958 v 1.4665 z m 1.26392,-3.89154 q -0.29935,0 -0.54124,0.15421 -0.2419,0.15421 -0.4324,0.42937 v 1.58746 q 0.17235,0.26004 0.38099,0.36587 0.20864,0.10281 0.48078,0.10281 0.26608,0 0.46565,-0.0968 0.19957,-0.0968 0.33261,-0.27213 0.13607,-0.17841 0.20259,-0.42333 0.0696,-0.24794 0.0696,-0.54427 0,-0.67127 -0.24795,-0.98573 -0.24795,-0.3175 -0.71058,-0.3175 z" />
                    <path
                       id="path2344"
                       style="font-style:normal;font-variant:normal;font-weight:300;font-stretch:normal;font-size:6.04746px;font-family:Lato;-inkscape-font-specification:'Lato Light';fill:#800080;fill-opacity:1;stroke-width:0.283475"
                       d="m 121.73944,115.35364 v -4.07296 h 0.16026 q 0.0756,0 0.0877,0.0756 l 0.0272,0.46566 q 0.19956,-0.27214 0.46868,-0.4324 0.26911,-0.16025 0.60172,-0.16025 0.55334,0 0.86176,0.38401 0.31145,0.38401 0.31145,1.15204 0,0.32959 -0.0877,0.61684 -0.0847,0.28423 -0.254,0.49589 -0.1663,0.20864 -0.41122,0.32959 -0.2419,0.12095 -0.55939,0.12095 -0.3054,0 -0.52916,-0.11188 -0.22375,-0.11188 -0.38703,-0.32958 v 1.4665 z m 1.26392,-3.89154 q -0.29935,0 -0.54125,0.15421 -0.2419,0.15421 -0.43239,0.42937 v 1.58746 q 0.17235,0.26004 0.38099,0.36587 0.20863,0.10281 0.48077,0.10281 0.26609,0 0.46565,-0.0968 0.19957,-0.0968 0.33261,-0.27213 0.13607,-0.17841 0.20259,-0.42333 0.0695,-0.24794 0.0695,-0.54427 0,-0.67127 -0.24795,-0.98573 -0.24794,-0.3175 -0.71057,-0.3175 z" />
                  </g>
                </g>
              </g>
            </g>
          </g>
        </g>
      </g>
    </g>
  </g>
</svg>
