<?xml version="1.0" encoding="UTF-8" standalone="no"?>
<!DOCTYPE svg PUBLIC "-//W3C//DTD SVG 1.1//EN"
 "http://www.w3.org/Graphics/SVG/1.1/DTD/svg11.dtd">
<!-- Generated by graphviz version 2.43.0 (0)
 -->
<!-- Title: %3 Pages: 1 -->
<svg width="218pt" height="159pt"
 viewBox="0.00 0.00 218.00 158.53" xmlns="http://www.w3.org/2000/svg" xmlns:xlink="http://www.w3.org/1999/xlink">
<g id="graph0" class="graph" transform="scale(1 1) rotate(0) translate(4 154.53)">
<title>%3</title>
<polygon fill="white" stroke="transparent" points="-4,4 -4,-154.53 214,-154.53 214,4 -4,4"/>
<!-- 881b4f84&#45;748b&#45;11ed&#45;9d8c&#45;e7dbf6a67f37 -->
<g id="node1" class="node">
<title>881b4f84&#45;748b&#45;11ed&#45;9d8c&#45;e7dbf6a67f37</title>
<polygon fill="none" stroke="black" points="94,-150.53 0,-150.53 0,-127.53 94,-127.53 94,-150.53"/>
<text text-anchor="middle" x="47" y="-135.33" font-family="Times,serif" font-size="14.00">Input node</text>
</g>
<!-- 881b4f86&#45;748b&#45;11ed&#45;9d8c&#45;e7dbf6a67f37 -->
<g id="node2" class="node">
<title>881b4f86&#45;748b&#45;11ed&#45;9d8c&#45;e7dbf6a67f37</title>
<polygon fill="none" stroke="black" points="151,-91.53 57,-91.53 57,-68.53 151,-68.53 151,-91.53"/>
<text text-anchor="middle" x="104" y="-76.33" font-family="Times,serif" font-size="14.00">Smoothing</text>
</g>
<!-- 881b4f84&#45;748b&#45;11ed&#45;9d8c&#45;e7dbf6a67f37&#45;&gt;881b4f86&#45;748b&#45;11ed&#45;9d8c&#45;e7dbf6a67f37 -->
<g id="edge1" class="edge">
<title>881b4f84&#45;748b&#45;11ed&#45;9d8c&#45;e7dbf6a67f37&#45;&gt;881b4f86&#45;748b&#45;11ed&#45;9d8c&#45;e7dbf6a67f37</title>
<path fill="none" stroke="black" d="M57.72,-127.31C65.68,-119.34 76.73,-108.3 86.03,-99"/>
<polygon fill="black" stroke="black" points="88.73,-101.25 93.33,-91.7 83.78,-96.3 88.73,-101.25"/>
</g>
<!-- 881b4f87&#45;748b&#45;11ed&#45;9d8c&#45;e7dbf6a67f37 -->
<g id="node4" class="node">
<title>881b4f87&#45;748b&#45;11ed&#45;9d8c&#45;e7dbf6a67f37</title>
<ellipse fill="lightgrey" stroke="lightgrey" cx="104" cy="-16.26" rx="57.97" ry="16.03"/>
<text text-anchor="middle" x="104" y="-12.56" font-family="Times,serif" font-size="14.00">Figure2d</text>
</g>
<!-- 881b4f86&#45;748b&#45;11ed&#45;9d8c&#45;e7dbf6a67f37&#45;&gt;881b4f87&#45;748b&#45;11ed&#45;9d8c&#45;e7dbf6a67f37 -->
<g id="edge3" class="edge">
<title>881b4f86&#45;748b&#45;11ed&#45;9d8c&#45;e7dbf6a67f37&#45;&gt;881b4f87&#45;748b&#45;11ed&#45;9d8c&#45;e7dbf6a67f37</title>
<path fill="none" stroke="black" d="M104,-68.27C104,-61.29 104,-51.88 104,-43.05"/>
<polygon fill="black" stroke="black" points="107.5,-42.76 104,-32.76 100.5,-42.76 107.5,-42.76"/>
</g>
<!-- 881b4f85&#45;748b&#45;11ed&#45;9d8c&#45;e7dbf6a67f37 -->
<g id="node3" class="node">
<title>881b4f85&#45;748b&#45;11ed&#45;9d8c&#45;e7dbf6a67f37</title>
<polygon fill="none" stroke="black" points="210,-150.53 112,-150.53 112,-127.53 210,-127.53 210,-150.53"/>
<text text-anchor="middle" x="161" y="-135.33" font-family="Times,serif" font-size="14.00">Slider node</text>
</g>
<!-- 881b4f85&#45;748b&#45;11ed&#45;9d8c&#45;e7dbf6a67f37&#45;&gt;881b4f86&#45;748b&#45;11ed&#45;9d8c&#45;e7dbf6a67f37 -->
<g id="edge2" class="edge">
<title>881b4f85&#45;748b&#45;11ed&#45;9d8c&#45;e7dbf6a67f37&#45;&gt;881b4f86&#45;748b&#45;11ed&#45;9d8c&#45;e7dbf6a67f37</title>
<path fill="none" stroke="black" d="M150.28,-127.31C142.32,-119.34 131.27,-108.3 121.97,-99"/>
<polygon fill="black" stroke="black" points="124.22,-96.3 114.67,-91.7 119.27,-101.25 124.22,-96.3"/>
</g>
</g>
</svg>
