<?xml version="1.0" encoding="UTF-8" standalone="no"?>
<!DOCTYPE svg PUBLIC "-//W3C//DTD SVG 1.1//EN"
 "http://www.w3.org/Graphics/SVG/1.1/DTD/svg11.dtd">
<!-- Generated by graphviz version 2.43.0 (0)
 -->
<!-- Title: %3 Pages: 1 -->
<svg width="124pt" height="159pt"
 viewBox="0.00 0.00 123.97 158.53" xmlns="http://www.w3.org/2000/svg" xmlns:xlink="http://www.w3.org/1999/xlink">
<g id="graph0" class="graph" transform="scale(1 1) rotate(0) translate(4 154.53)">
<title>%3</title>
<polygon fill="white" stroke="transparent" points="-4,4 -4,-154.53 119.97,-154.53 119.97,4 -4,4"/>
<!-- 876e02b6&#45;748b&#45;11ed&#45;9d8c&#45;e7dbf6a67f37 -->
<g id="node1" class="node">
<title>876e02b6&#45;748b&#45;11ed&#45;9d8c&#45;e7dbf6a67f37</title>
<polygon fill="none" stroke="black" points="104.98,-150.53 10.98,-150.53 10.98,-127.53 104.98,-127.53 104.98,-150.53"/>
<text text-anchor="middle" x="57.98" y="-135.33" font-family="Times,serif" font-size="14.00">Input node</text>
</g>
<!-- 881b4f82&#45;748b&#45;11ed&#45;9d8c&#45;e7dbf6a67f37 -->
<g id="node2" class="node">
<title>881b4f82&#45;748b&#45;11ed&#45;9d8c&#45;e7dbf6a67f37</title>
<polygon fill="none" stroke="black" points="104.98,-91.53 10.98,-91.53 10.98,-68.53 104.98,-68.53 104.98,-91.53"/>
<text text-anchor="middle" x="57.98" y="-76.33" font-family="Times,serif" font-size="14.00">Smoothing</text>
</g>
<!-- 876e02b6&#45;748b&#45;11ed&#45;9d8c&#45;e7dbf6a67f37&#45;&gt;881b4f82&#45;748b&#45;11ed&#45;9d8c&#45;e7dbf6a67f37 -->
<g id="edge1" class="edge">
<title>876e02b6&#45;748b&#45;11ed&#45;9d8c&#45;e7dbf6a67f37&#45;&gt;881b4f82&#45;748b&#45;11ed&#45;9d8c&#45;e7dbf6a67f37</title>
<path fill="none" stroke="black" d="M57.98,-127.31C57.98,-120.14 57.98,-110.48 57.98,-101.84"/>
<polygon fill="black" stroke="black" points="61.48,-101.7 57.98,-91.7 54.48,-101.7 61.48,-101.7"/>
</g>
<!-- 881b4f83&#45;748b&#45;11ed&#45;9d8c&#45;e7dbf6a67f37 -->
<g id="node3" class="node">
<title>881b4f83&#45;748b&#45;11ed&#45;9d8c&#45;e7dbf6a67f37</title>
<ellipse fill="lightgrey" stroke="lightgrey" cx="57.98" cy="-16.26" rx="57.97" ry="16.03"/>
<text text-anchor="middle" x="57.98" y="-12.56" font-family="Times,serif" font-size="14.00">Figure2d</text>
</g>
<!-- 881b4f82&#45;748b&#45;11ed&#45;9d8c&#45;e7dbf6a67f37&#45;&gt;881b4f83&#45;748b&#45;11ed&#45;9d8c&#45;e7dbf6a67f37 -->
<g id="edge2" class="edge">
<title>881b4f82&#45;748b&#45;11ed&#45;9d8c&#45;e7dbf6a67f37&#45;&gt;881b4f83&#45;748b&#45;11ed&#45;9d8c&#45;e7dbf6a67f37</title>
<path fill="none" stroke="black" d="M57.98,-68.27C57.98,-61.29 57.98,-51.88 57.98,-43.05"/>
<polygon fill="black" stroke="black" points="61.48,-42.76 57.98,-32.76 54.48,-42.76 61.48,-42.76"/>
</g>
</g>
</svg>
