<?xml version="1.0" encoding="UTF-8" standalone="no"?>
<!DOCTYPE svg PUBLIC "-//W3C//DTD SVG 1.1//EN"
 "http://www.w3.org/Graphics/SVG/1.1/DTD/svg11.dtd">
<!-- Generated by graphviz version 2.43.0 (0)
 -->
<!-- Title: %3 Pages: 1 -->
<svg width="312pt" height="149pt"
 viewBox="0.00 0.00 312.00 149.00" xmlns="http://www.w3.org/2000/svg" xmlns:xlink="http://www.w3.org/1999/xlink">
<g id="graph0" class="graph" transform="scale(1 1) rotate(0) translate(4 145)">
<title>%3</title>
<polygon fill="white" stroke="transparent" points="-4,4 -4,-145 308,-145 308,4 -4,4"/>
<!-- 896884ea&#45;748b&#45;11ed&#45;9d8c&#45;e7dbf6a67f37 -->
<g id="node1" class="node">
<title>896884ea&#45;748b&#45;11ed&#45;9d8c&#45;e7dbf6a67f37</title>
<polygon fill="none" stroke="black" points="94,-141 0,-141 0,-118 94,-118 94,-141"/>
<text text-anchor="middle" x="47" y="-125.8" font-family="Times,serif" font-size="14.00">Input node</text>
</g>
<!-- 896884ec&#45;748b&#45;11ed&#45;9d8c&#45;e7dbf6a67f37 -->
<g id="node2" class="node">
<title>896884ec&#45;748b&#45;11ed&#45;9d8c&#45;e7dbf6a67f37</title>
<polygon fill="none" stroke="black" points="187.5,-82 46.5,-82 46.5,-59 187.5,-59 187.5,-82"/>
<text text-anchor="middle" x="117" y="-66.8" font-family="Times,serif" font-size="14.00">Hide/show masks</text>
</g>
<!-- 896884ea&#45;748b&#45;11ed&#45;9d8c&#45;e7dbf6a67f37&#45;&gt;896884ec&#45;748b&#45;11ed&#45;9d8c&#45;e7dbf6a67f37 -->
<g id="edge1" class="edge">
<title>896884ea&#45;748b&#45;11ed&#45;9d8c&#45;e7dbf6a67f37&#45;&gt;896884ec&#45;748b&#45;11ed&#45;9d8c&#45;e7dbf6a67f37</title>
<path fill="none" stroke="black" d="M60.17,-117.78C70.24,-109.58 84.32,-98.11 95.95,-88.64"/>
<polygon fill="black" stroke="black" points="98.35,-91.2 103.89,-82.17 93.93,-85.77 98.35,-91.2"/>
</g>
<!-- 896884ee&#45;748b&#45;11ed&#45;9d8c&#45;e7dbf6a67f37 -->
<g id="node3" class="node">
<title>896884ee&#45;748b&#45;11ed&#45;9d8c&#45;e7dbf6a67f37</title>
<polygon fill="none" stroke="black" points="265.5,-23 106.5,-23 106.5,0 265.5,0 265.5,-23"/>
<text text-anchor="middle" x="186" y="-7.8" font-family="Times,serif" font-size="14.00">Slice horizontal row</text>
</g>
<!-- 896884ec&#45;748b&#45;11ed&#45;9d8c&#45;e7dbf6a67f37&#45;&gt;896884ee&#45;748b&#45;11ed&#45;9d8c&#45;e7dbf6a67f37 -->
<g id="edge2" class="edge">
<title>896884ec&#45;748b&#45;11ed&#45;9d8c&#45;e7dbf6a67f37&#45;&gt;896884ee&#45;748b&#45;11ed&#45;9d8c&#45;e7dbf6a67f37</title>
<path fill="none" stroke="black" d="M129.98,-58.78C139.91,-50.58 153.79,-39.11 165.25,-29.64"/>
<polygon fill="black" stroke="black" points="167.6,-32.24 173.08,-23.17 163.14,-26.84 167.6,-32.24"/>
</g>
<!-- 896884ed&#45;748b&#45;11ed&#45;9d8c&#45;e7dbf6a67f37 -->
<g id="node4" class="node">
<title>896884ed&#45;748b&#45;11ed&#45;9d8c&#45;e7dbf6a67f37</title>
<polygon fill="none" stroke="black" points="304,-82 206,-82 206,-59 304,-59 304,-82"/>
<text text-anchor="middle" x="255" y="-66.8" font-family="Times,serif" font-size="14.00">Slider node</text>
</g>
<!-- 896884ed&#45;748b&#45;11ed&#45;9d8c&#45;e7dbf6a67f37&#45;&gt;896884ee&#45;748b&#45;11ed&#45;9d8c&#45;e7dbf6a67f37 -->
<g id="edge3" class="edge">
<title>896884ed&#45;748b&#45;11ed&#45;9d8c&#45;e7dbf6a67f37&#45;&gt;896884ee&#45;748b&#45;11ed&#45;9d8c&#45;e7dbf6a67f37</title>
<path fill="none" stroke="black" d="M242.02,-58.78C232.09,-50.58 218.21,-39.11 206.75,-29.64"/>
<polygon fill="black" stroke="black" points="208.86,-26.84 198.92,-23.17 204.4,-32.24 208.86,-26.84"/>
</g>
<!-- 896884eb&#45;748b&#45;11ed&#45;9d8c&#45;e7dbf6a67f37 -->
<g id="node5" class="node">
<title>896884eb&#45;748b&#45;11ed&#45;9d8c&#45;e7dbf6a67f37</title>
<polygon fill="none" stroke="black" points="261.5,-141 112.5,-141 112.5,-118 261.5,-118 261.5,-141"/>
<text text-anchor="middle" x="187" y="-125.8" font-family="Times,serif" font-size="14.00">Masks checkboxes</text>
</g>
<!-- 896884eb&#45;748b&#45;11ed&#45;9d8c&#45;e7dbf6a67f37&#45;&gt;896884ec&#45;748b&#45;11ed&#45;9d8c&#45;e7dbf6a67f37 -->
<g id="edge4" class="edge">
<title>896884eb&#45;748b&#45;11ed&#45;9d8c&#45;e7dbf6a67f37&#45;&gt;896884ec&#45;748b&#45;11ed&#45;9d8c&#45;e7dbf6a67f37</title>
<path fill="none" stroke="black" d="M173.83,-117.78C163.76,-109.58 149.68,-98.11 138.05,-88.64"/>
<polygon fill="black" stroke="black" points="140.07,-85.77 130.11,-82.17 135.65,-91.2 140.07,-85.77"/>
</g>
</g>
</svg>
