<?xml version="1.0" encoding="UTF-8" standalone="no"?>
<!DOCTYPE svg PUBLIC "-//W3C//DTD SVG 1.1//EN"
 "http://www.w3.org/Graphics/SVG/1.1/DTD/svg11.dtd">
<!-- Generated by graphviz version 2.43.0 (0)
 -->
<!-- Title: %3 Pages: 1 -->
<svg width="378pt" height="227pt"
 viewBox="0.00 0.00 378.00 227.05" xmlns="http://www.w3.org/2000/svg" xmlns:xlink="http://www.w3.org/1999/xlink">
<g id="graph0" class="graph" transform="scale(1 1) rotate(0) translate(4 223.05)">
<title>%3</title>
<polygon fill="white" stroke="transparent" points="-4,4 -4,-223.05 374,-223.05 374,4 -4,4"/>
<!-- 896884ea&#45;748b&#45;11ed&#45;9d8c&#45;e7dbf6a67f37 -->
<g id="node1" class="node">
<title>896884ea&#45;748b&#45;11ed&#45;9d8c&#45;e7dbf6a67f37</title>
<polygon fill="none" stroke="black" points="202.5,-219.05 108.5,-219.05 108.5,-196.05 202.5,-196.05 202.5,-219.05"/>
<text text-anchor="middle" x="155.5" y="-203.85" font-family="Times,serif" font-size="14.00">Input node</text>
</g>
<!-- 896884ec&#45;748b&#45;11ed&#45;9d8c&#45;e7dbf6a67f37 -->
<g id="node2" class="node">
<title>896884ec&#45;748b&#45;11ed&#45;9d8c&#45;e7dbf6a67f37</title>
<polygon fill="none" stroke="black" points="296,-160.05 155,-160.05 155,-137.05 296,-137.05 296,-160.05"/>
<text text-anchor="middle" x="225.5" y="-144.85" font-family="Times,serif" font-size="14.00">Hide/show masks</text>
</g>
<!-- 896884ea&#45;748b&#45;11ed&#45;9d8c&#45;e7dbf6a67f37&#45;&gt;896884ec&#45;748b&#45;11ed&#45;9d8c&#45;e7dbf6a67f37 -->
<g id="edge1" class="edge">
<title>896884ea&#45;748b&#45;11ed&#45;9d8c&#45;e7dbf6a67f37&#45;&gt;896884ec&#45;748b&#45;11ed&#45;9d8c&#45;e7dbf6a67f37</title>
<path fill="none" stroke="black" d="M168.67,-195.83C178.74,-187.63 192.82,-176.16 204.45,-166.69"/>
<polygon fill="black" stroke="black" points="206.85,-169.26 212.39,-160.23 202.43,-163.83 206.85,-169.26"/>
</g>
<!-- 896884ee&#45;748b&#45;11ed&#45;9d8c&#45;e7dbf6a67f37 -->
<g id="node3" class="node">
<title>896884ee&#45;748b&#45;11ed&#45;9d8c&#45;e7dbf6a67f37</title>
<polygon fill="none" stroke="black" points="159,-96.29 0,-96.29 0,-73.29 159,-73.29 159,-96.29"/>
<text text-anchor="middle" x="79.5" y="-81.09" font-family="Times,serif" font-size="14.00">Slice horizontal row</text>
</g>
<!-- 896884ec&#45;748b&#45;11ed&#45;9d8c&#45;e7dbf6a67f37&#45;&gt;896884ee&#45;748b&#45;11ed&#45;9d8c&#45;e7dbf6a67f37 -->
<g id="edge2" class="edge">
<title>896884ec&#45;748b&#45;11ed&#45;9d8c&#45;e7dbf6a67f37&#45;&gt;896884ee&#45;748b&#45;11ed&#45;9d8c&#45;e7dbf6a67f37</title>
<path fill="none" stroke="black" d="M200.4,-136.94C176.58,-126.86 140.59,-111.63 114.06,-100.41"/>
<polygon fill="black" stroke="black" points="115.33,-97.15 104.76,-96.48 112.61,-103.6 115.33,-97.15"/>
</g>
<!-- 896884ef&#45;748b&#45;11ed&#45;9d8c&#45;e7dbf6a67f37 -->
<g id="node7" class="node">
<title>896884ef&#45;748b&#45;11ed&#45;9d8c&#45;e7dbf6a67f37</title>
<ellipse fill="lightgrey" stroke="lightgrey" cx="234.5" cy="-84.79" rx="57.97" ry="16.03"/>
<text text-anchor="middle" x="234.5" y="-81.09" font-family="Times,serif" font-size="14.00">Figure2d</text>
</g>
<!-- 896884ec&#45;748b&#45;11ed&#45;9d8c&#45;e7dbf6a67f37&#45;&gt;896884ef&#45;748b&#45;11ed&#45;9d8c&#45;e7dbf6a67f37 -->
<g id="edge6" class="edge">
<title>896884ec&#45;748b&#45;11ed&#45;9d8c&#45;e7dbf6a67f37&#45;&gt;896884ef&#45;748b&#45;11ed&#45;9d8c&#45;e7dbf6a67f37</title>
<path fill="none" stroke="black" d="M227.07,-136.8C228.1,-129.74 229.49,-120.2 230.78,-111.29"/>
<polygon fill="black" stroke="black" points="234.26,-111.69 232.24,-101.29 227.34,-110.68 234.26,-111.69"/>
</g>
<!-- 896884f0&#45;748b&#45;11ed&#45;9d8c&#45;e7dbf6a67f37 -->
<g id="node5" class="node">
<title>896884f0&#45;748b&#45;11ed&#45;9d8c&#45;e7dbf6a67f37</title>
<ellipse fill="lightgrey" stroke="lightgrey" cx="79.5" cy="-16.26" rx="57.97" ry="16.03"/>
<text text-anchor="middle" x="79.5" y="-12.56" font-family="Times,serif" font-size="14.00">Figure1d</text>
</g>
<!-- 896884ee&#45;748b&#45;11ed&#45;9d8c&#45;e7dbf6a67f37&#45;&gt;896884f0&#45;748b&#45;11ed&#45;9d8c&#45;e7dbf6a67f37 -->
<g id="edge4" class="edge">
<title>896884ee&#45;748b&#45;11ed&#45;9d8c&#45;e7dbf6a67f37&#45;&gt;896884f0&#45;748b&#45;11ed&#45;9d8c&#45;e7dbf6a67f37</title>
<path fill="none" stroke="black" d="M79.5,-73.1C79.5,-65.03 79.5,-53.61 79.5,-43.19"/>
<polygon fill="black" stroke="black" points="83,-42.89 79.5,-32.89 76,-42.89 83,-42.89"/>
</g>
<!-- 896884ed&#45;748b&#45;11ed&#45;9d8c&#45;e7dbf6a67f37 -->
<g id="node4" class="node">
<title>896884ed&#45;748b&#45;11ed&#45;9d8c&#45;e7dbf6a67f37</title>
<polygon fill="none" stroke="black" points="128.5,-160.05 30.5,-160.05 30.5,-137.05 128.5,-137.05 128.5,-160.05"/>
<text text-anchor="middle" x="79.5" y="-144.85" font-family="Times,serif" font-size="14.00">Slider node</text>
</g>
<!-- 896884ed&#45;748b&#45;11ed&#45;9d8c&#45;e7dbf6a67f37&#45;&gt;896884ee&#45;748b&#45;11ed&#45;9d8c&#45;e7dbf6a67f37 -->
<g id="edge3" class="edge">
<title>896884ed&#45;748b&#45;11ed&#45;9d8c&#45;e7dbf6a67f37&#45;&gt;896884ee&#45;748b&#45;11ed&#45;9d8c&#45;e7dbf6a67f37</title>
<path fill="none" stroke="black" d="M79.5,-136.8C79.5,-128.47 79.5,-116.69 79.5,-106.55"/>
<polygon fill="black" stroke="black" points="83,-106.43 79.5,-96.43 76,-106.43 83,-106.43"/>
</g>
<!-- 896884eb&#45;748b&#45;11ed&#45;9d8c&#45;e7dbf6a67f37 -->
<g id="node6" class="node">
<title>896884eb&#45;748b&#45;11ed&#45;9d8c&#45;e7dbf6a67f37</title>
<polygon fill="none" stroke="black" points="370,-219.05 221,-219.05 221,-196.05 370,-196.05 370,-219.05"/>
<text text-anchor="middle" x="295.5" y="-203.85" font-family="Times,serif" font-size="14.00">Masks checkboxes</text>
</g>
<!-- 896884eb&#45;748b&#45;11ed&#45;9d8c&#45;e7dbf6a67f37&#45;&gt;896884ec&#45;748b&#45;11ed&#45;9d8c&#45;e7dbf6a67f37 -->
<g id="edge5" class="edge">
<title>896884eb&#45;748b&#45;11ed&#45;9d8c&#45;e7dbf6a67f37&#45;&gt;896884ec&#45;748b&#45;11ed&#45;9d8c&#45;e7dbf6a67f37</title>
<path fill="none" stroke="black" d="M282.33,-195.83C272.26,-187.63 258.18,-176.16 246.55,-166.69"/>
<polygon fill="black" stroke="black" points="248.57,-163.83 238.61,-160.23 244.15,-169.26 248.57,-163.83"/>
</g>
</g>
</svg>
