<?xml version="1.0" encoding="utf-8" standalone="no"?>
<!DOCTYPE svg PUBLIC "-//W3C//DTD SVG 1.1//EN"
  "http://www.w3.org/Graphics/SVG/1.1/DTD/svg11.dtd">
<svg xmlns:xlink="http://www.w3.org/1999/xlink" width="424.623437pt" height="279.835469pt" viewBox="0 0 424.623437 279.835469" xmlns="http://www.w3.org/2000/svg" version="1.1">
 <metadata>
  <rdf:RDF xmlns:dc="http://purl.org/dc/elements/1.1/" xmlns:cc="http://creativecommons.org/ns#" xmlns:rdf="http://www.w3.org/1999/02/22-rdf-syntax-ns#">
   <cc:Work>
    <dc:type rdf:resource="http://purl.org/dc/dcmitype/StillImage"/>
    <dc:date>2022-12-05T10:57:05.524096</dc:date>
    <dc:format>image/svg+xml</dc:format>
    <dc:creator>
     <cc:Agent>
      <dc:title>Matplotlib v3.6.1, https://matplotlib.org/</dc:title>
     </cc:Agent>
    </dc:creator>
   </cc:Work>
  </rdf:RDF>
 </metadata>
 <defs>
  <style type="text/css">*{stroke-linejoin: round; stroke-linecap: butt}</style>
 </defs>
 <g id="figure_1">
  <g id="patch_1">
   <path d="M 0 279.835469 
L 424.623437 279.835469 
L 424.623437 0 
L 0 0 
z
" style="fill: #ffffff"/>
  </g>
  <g id="axes_1">
   <g id="patch_2">
    <path d="M 58.523438 242.279219 
L 417.423437 242.279219 
L 417.423437 10.999219 
L 58.523438 10.999219 
z
" style="fill: #ffffff"/>
   </g>
   <g id="matplotlib.axis_1">
    <g id="xtick_1">
     <g id="line2d_1">
      <defs>
       <path id="m4fa83992f8" d="M 0 0 
L 0 3.5 
" style="stroke: #000000; stroke-width: 0.8"/>
      </defs>
      <g>
       <use xlink:href="#m4fa83992f8" x="74.837074" y="242.279219" style="stroke: #000000; stroke-width: 0.8"/>
      </g>
     </g>
     <g id="text_1">
      <!-- 0 -->
      <g transform="translate(71.655824 256.877656) scale(0.1 -0.1)">
       <defs>
        <path id="DejaVuSans-30" d="M 2034 4250 
Q 1547 4250 1301 3770 
Q 1056 3291 1056 2328 
Q 1056 1369 1301 889 
Q 1547 409 2034 409 
Q 2525 409 2770 889 
Q 3016 1369 3016 2328 
Q 3016 3291 2770 3770 
Q 2525 4250 2034 4250 
z
M 2034 4750 
Q 2819 4750 3233 4129 
Q 3647 3509 3647 2328 
Q 3647 1150 3233 529 
Q 2819 -91 2034 -91 
Q 1250 -91 836 529 
Q 422 1150 422 2328 
Q 422 3509 836 4129 
Q 1250 4750 2034 4750 
z
" transform="scale(0.015625)"/>
       </defs>
       <use xlink:href="#DejaVuSans-30"/>
      </g>
     </g>
    </g>
    <g id="xtick_2">
     <g id="line2d_2">
      <g>
       <use xlink:href="#m4fa83992f8" x="141.423345" y="242.279219" style="stroke: #000000; stroke-width: 0.8"/>
      </g>
     </g>
     <g id="text_2">
      <!-- 10 -->
      <g transform="translate(135.060845 256.877656) scale(0.1 -0.1)">
       <defs>
        <path id="DejaVuSans-31" d="M 794 531 
L 1825 531 
L 1825 4091 
L 703 3866 
L 703 4441 
L 1819 4666 
L 2450 4666 
L 2450 531 
L 3481 531 
L 3481 0 
L 794 0 
L 794 531 
z
" transform="scale(0.015625)"/>
       </defs>
       <use xlink:href="#DejaVuSans-31"/>
       <use xlink:href="#DejaVuSans-30" x="63.623047"/>
      </g>
     </g>
    </g>
    <g id="xtick_3">
     <g id="line2d_3">
      <g>
       <use xlink:href="#m4fa83992f8" x="208.009616" y="242.279219" style="stroke: #000000; stroke-width: 0.8"/>
      </g>
     </g>
     <g id="text_3">
      <!-- 20 -->
      <g transform="translate(201.647116 256.877656) scale(0.1 -0.1)">
       <defs>
        <path id="DejaVuSans-32" d="M 1228 531 
L 3431 531 
L 3431 0 
L 469 0 
L 469 531 
Q 828 903 1448 1529 
Q 2069 2156 2228 2338 
Q 2531 2678 2651 2914 
Q 2772 3150 2772 3378 
Q 2772 3750 2511 3984 
Q 2250 4219 1831 4219 
Q 1534 4219 1204 4116 
Q 875 4013 500 3803 
L 500 4441 
Q 881 4594 1212 4672 
Q 1544 4750 1819 4750 
Q 2544 4750 2975 4387 
Q 3406 4025 3406 3419 
Q 3406 3131 3298 2873 
Q 3191 2616 2906 2266 
Q 2828 2175 2409 1742 
Q 1991 1309 1228 531 
z
" transform="scale(0.015625)"/>
       </defs>
       <use xlink:href="#DejaVuSans-32"/>
       <use xlink:href="#DejaVuSans-30" x="63.623047"/>
      </g>
     </g>
    </g>
    <g id="xtick_4">
     <g id="line2d_4">
      <g>
       <use xlink:href="#m4fa83992f8" x="274.595886" y="242.279219" style="stroke: #000000; stroke-width: 0.8"/>
      </g>
     </g>
     <g id="text_4">
      <!-- 30 -->
      <g transform="translate(268.233386 256.877656) scale(0.1 -0.1)">
       <defs>
        <path id="DejaVuSans-33" d="M 2597 2516 
Q 3050 2419 3304 2112 
Q 3559 1806 3559 1356 
Q 3559 666 3084 287 
Q 2609 -91 1734 -91 
Q 1441 -91 1130 -33 
Q 819 25 488 141 
L 488 750 
Q 750 597 1062 519 
Q 1375 441 1716 441 
Q 2309 441 2620 675 
Q 2931 909 2931 1356 
Q 2931 1769 2642 2001 
Q 2353 2234 1838 2234 
L 1294 2234 
L 1294 2753 
L 1863 2753 
Q 2328 2753 2575 2939 
Q 2822 3125 2822 3475 
Q 2822 3834 2567 4026 
Q 2313 4219 1838 4219 
Q 1578 4219 1281 4162 
Q 984 4106 628 3988 
L 628 4550 
Q 988 4650 1302 4700 
Q 1616 4750 1894 4750 
Q 2613 4750 3031 4423 
Q 3450 4097 3450 3541 
Q 3450 3153 3228 2886 
Q 3006 2619 2597 2516 
z
" transform="scale(0.015625)"/>
       </defs>
       <use xlink:href="#DejaVuSans-33"/>
       <use xlink:href="#DejaVuSans-30" x="63.623047"/>
      </g>
     </g>
    </g>
    <g id="xtick_5">
     <g id="line2d_5">
      <g>
       <use xlink:href="#m4fa83992f8" x="341.182157" y="242.279219" style="stroke: #000000; stroke-width: 0.8"/>
      </g>
     </g>
     <g id="text_5">
      <!-- 40 -->
      <g transform="translate(334.819657 256.877656) scale(0.1 -0.1)">
       <defs>
        <path id="DejaVuSans-34" d="M 2419 4116 
L 825 1625 
L 2419 1625 
L 2419 4116 
z
M 2253 4666 
L 3047 4666 
L 3047 1625 
L 3713 1625 
L 3713 1100 
L 3047 1100 
L 3047 0 
L 2419 0 
L 2419 1100 
L 313 1100 
L 313 1709 
L 2253 4666 
z
" transform="scale(0.015625)"/>
       </defs>
       <use xlink:href="#DejaVuSans-34"/>
       <use xlink:href="#DejaVuSans-30" x="63.623047"/>
      </g>
     </g>
    </g>
    <g id="xtick_6">
     <g id="line2d_6">
      <g>
       <use xlink:href="#m4fa83992f8" x="407.768428" y="242.279219" style="stroke: #000000; stroke-width: 0.8"/>
      </g>
     </g>
     <g id="text_6">
      <!-- 50 -->
      <g transform="translate(401.405928 256.877656) scale(0.1 -0.1)">
       <defs>
        <path id="DejaVuSans-35" d="M 691 4666 
L 3169 4666 
L 3169 4134 
L 1269 4134 
L 1269 2991 
Q 1406 3038 1543 3061 
Q 1681 3084 1819 3084 
Q 2600 3084 3056 2656 
Q 3513 2228 3513 1497 
Q 3513 744 3044 326 
Q 2575 -91 1722 -91 
Q 1428 -91 1123 -41 
Q 819 9 494 109 
L 494 744 
Q 775 591 1075 516 
Q 1375 441 1709 441 
Q 2250 441 2565 725 
Q 2881 1009 2881 1497 
Q 2881 1984 2565 2268 
Q 2250 2553 1709 2553 
Q 1456 2553 1204 2497 
Q 953 2441 691 2322 
L 691 4666 
z
" transform="scale(0.015625)"/>
       </defs>
       <use xlink:href="#DejaVuSans-35"/>
       <use xlink:href="#DejaVuSans-30" x="63.623047"/>
      </g>
     </g>
    </g>
    <g id="text_7">
     <!-- xx [m] -->
     <g transform="translate(221.69375 270.555781) scale(0.1 -0.1)">
      <defs>
       <path id="DejaVuSans-78" d="M 3513 3500 
L 2247 1797 
L 3578 0 
L 2900 0 
L 1881 1375 
L 863 0 
L 184 0 
L 1544 1831 
L 300 3500 
L 978 3500 
L 1906 2253 
L 2834 3500 
L 3513 3500 
z
" transform="scale(0.015625)"/>
       <path id="DejaVuSans-20" transform="scale(0.015625)"/>
       <path id="DejaVuSans-5b" d="M 550 4863 
L 1875 4863 
L 1875 4416 
L 1125 4416 
L 1125 -397 
L 1875 -397 
L 1875 -844 
L 550 -844 
L 550 4863 
z
" transform="scale(0.015625)"/>
       <path id="DejaVuSans-6d" d="M 3328 2828 
Q 3544 3216 3844 3400 
Q 4144 3584 4550 3584 
Q 5097 3584 5394 3201 
Q 5691 2819 5691 2113 
L 5691 0 
L 5113 0 
L 5113 2094 
Q 5113 2597 4934 2840 
Q 4756 3084 4391 3084 
Q 3944 3084 3684 2787 
Q 3425 2491 3425 1978 
L 3425 0 
L 2847 0 
L 2847 2094 
Q 2847 2600 2669 2842 
Q 2491 3084 2119 3084 
Q 1678 3084 1418 2786 
Q 1159 2488 1159 1978 
L 1159 0 
L 581 0 
L 581 3500 
L 1159 3500 
L 1159 2956 
Q 1356 3278 1631 3431 
Q 1906 3584 2284 3584 
Q 2666 3584 2933 3390 
Q 3200 3197 3328 2828 
z
" transform="scale(0.015625)"/>
       <path id="DejaVuSans-5d" d="M 1947 4863 
L 1947 -844 
L 622 -844 
L 622 -397 
L 1369 -397 
L 1369 4416 
L 622 4416 
L 622 4863 
L 1947 4863 
z
" transform="scale(0.015625)"/>
      </defs>
      <use xlink:href="#DejaVuSans-78"/>
      <use xlink:href="#DejaVuSans-78" x="59.179688"/>
      <use xlink:href="#DejaVuSans-20" x="118.359375"/>
      <use xlink:href="#DejaVuSans-5b" x="150.146484"/>
      <use xlink:href="#DejaVuSans-6d" x="189.160156"/>
      <use xlink:href="#DejaVuSans-5d" x="286.572266"/>
     </g>
    </g>
   </g>
   <g id="matplotlib.axis_2">
    <g id="ytick_1">
     <g id="line2d_7">
      <defs>
       <path id="m6a0e8eca5c" d="M 0 0 
L -3.5 0 
" style="stroke: #000000; stroke-width: 0.8"/>
      </defs>
      <g>
       <use xlink:href="#m6a0e8eca5c" x="58.523438" y="242.279219" style="stroke: #000000; stroke-width: 0.8"/>
      </g>
     </g>
     <g id="text_8">
      <!-- −0.50 -->
      <g transform="translate(20.878125 246.078438) scale(0.1 -0.1)">
       <defs>
        <path id="DejaVuSans-2212" d="M 678 2272 
L 4684 2272 
L 4684 1741 
L 678 1741 
L 678 2272 
z
" transform="scale(0.015625)"/>
        <path id="DejaVuSans-2e" d="M 684 794 
L 1344 794 
L 1344 0 
L 684 0 
L 684 794 
z
" transform="scale(0.015625)"/>
       </defs>
       <use xlink:href="#DejaVuSans-2212"/>
       <use xlink:href="#DejaVuSans-30" x="83.789062"/>
       <use xlink:href="#DejaVuSans-2e" x="147.412109"/>
       <use xlink:href="#DejaVuSans-35" x="179.199219"/>
       <use xlink:href="#DejaVuSans-30" x="242.822266"/>
      </g>
     </g>
    </g>
    <g id="ytick_2">
     <g id="line2d_8">
      <g>
       <use xlink:href="#m6a0e8eca5c" x="58.523438" y="213.369219" style="stroke: #000000; stroke-width: 0.8"/>
      </g>
     </g>
     <g id="text_9">
      <!-- −0.25 -->
      <g transform="translate(20.878125 217.168438) scale(0.1 -0.1)">
       <use xlink:href="#DejaVuSans-2212"/>
       <use xlink:href="#DejaVuSans-30" x="83.789062"/>
       <use xlink:href="#DejaVuSans-2e" x="147.412109"/>
       <use xlink:href="#DejaVuSans-32" x="179.199219"/>
       <use xlink:href="#DejaVuSans-35" x="242.822266"/>
      </g>
     </g>
    </g>
    <g id="ytick_3">
     <g id="line2d_9">
      <g>
       <use xlink:href="#m6a0e8eca5c" x="58.523438" y="184.459219" style="stroke: #000000; stroke-width: 0.8"/>
      </g>
     </g>
     <g id="text_10">
      <!-- 0.00 -->
      <g transform="translate(29.257813 188.258438) scale(0.1 -0.1)">
       <use xlink:href="#DejaVuSans-30"/>
       <use xlink:href="#DejaVuSans-2e" x="63.623047"/>
       <use xlink:href="#DejaVuSans-30" x="95.410156"/>
       <use xlink:href="#DejaVuSans-30" x="159.033203"/>
      </g>
     </g>
    </g>
    <g id="ytick_4">
     <g id="line2d_10">
      <g>
       <use xlink:href="#m6a0e8eca5c" x="58.523438" y="155.549219" style="stroke: #000000; stroke-width: 0.8"/>
      </g>
     </g>
     <g id="text_11">
      <!-- 0.25 -->
      <g transform="translate(29.257813 159.348438) scale(0.1 -0.1)">
       <use xlink:href="#DejaVuSans-30"/>
       <use xlink:href="#DejaVuSans-2e" x="63.623047"/>
       <use xlink:href="#DejaVuSans-32" x="95.410156"/>
       <use xlink:href="#DejaVuSans-35" x="159.033203"/>
      </g>
     </g>
    </g>
    <g id="ytick_5">
     <g id="line2d_11">
      <g>
       <use xlink:href="#m6a0e8eca5c" x="58.523438" y="126.639219" style="stroke: #000000; stroke-width: 0.8"/>
      </g>
     </g>
     <g id="text_12">
      <!-- 0.50 -->
      <g transform="translate(29.257813 130.438438) scale(0.1 -0.1)">
       <use xlink:href="#DejaVuSans-30"/>
       <use xlink:href="#DejaVuSans-2e" x="63.623047"/>
       <use xlink:href="#DejaVuSans-35" x="95.410156"/>
       <use xlink:href="#DejaVuSans-30" x="159.033203"/>
      </g>
     </g>
    </g>
    <g id="ytick_6">
     <g id="line2d_12">
      <g>
       <use xlink:href="#m6a0e8eca5c" x="58.523438" y="97.729219" style="stroke: #000000; stroke-width: 0.8"/>
      </g>
     </g>
     <g id="text_13">
      <!-- 0.75 -->
      <g transform="translate(29.257813 101.528438) scale(0.1 -0.1)">
       <defs>
        <path id="DejaVuSans-37" d="M 525 4666 
L 3525 4666 
L 3525 4397 
L 1831 0 
L 1172 0 
L 2766 4134 
L 525 4134 
L 525 4666 
z
" transform="scale(0.015625)"/>
       </defs>
       <use xlink:href="#DejaVuSans-30"/>
       <use xlink:href="#DejaVuSans-2e" x="63.623047"/>
       <use xlink:href="#DejaVuSans-37" x="95.410156"/>
       <use xlink:href="#DejaVuSans-35" x="159.033203"/>
      </g>
     </g>
    </g>
    <g id="ytick_7">
     <g id="line2d_13">
      <g>
       <use xlink:href="#m6a0e8eca5c" x="58.523438" y="68.819219" style="stroke: #000000; stroke-width: 0.8"/>
      </g>
     </g>
     <g id="text_14">
      <!-- 1.00 -->
      <g transform="translate(29.257813 72.618437) scale(0.1 -0.1)">
       <use xlink:href="#DejaVuSans-31"/>
       <use xlink:href="#DejaVuSans-2e" x="63.623047"/>
       <use xlink:href="#DejaVuSans-30" x="95.410156"/>
       <use xlink:href="#DejaVuSans-30" x="159.033203"/>
      </g>
     </g>
    </g>
    <g id="ytick_8">
     <g id="line2d_14">
      <g>
       <use xlink:href="#m6a0e8eca5c" x="58.523438" y="39.909219" style="stroke: #000000; stroke-width: 0.8"/>
      </g>
     </g>
     <g id="text_15">
      <!-- 1.25 -->
      <g transform="translate(29.257813 43.708438) scale(0.1 -0.1)">
       <use xlink:href="#DejaVuSans-31"/>
       <use xlink:href="#DejaVuSans-2e" x="63.623047"/>
       <use xlink:href="#DejaVuSans-32" x="95.410156"/>
       <use xlink:href="#DejaVuSans-35" x="159.033203"/>
      </g>
     </g>
    </g>
    <g id="ytick_9">
     <g id="line2d_15">
      <g>
       <use xlink:href="#m6a0e8eca5c" x="58.523438" y="10.999219" style="stroke: #000000; stroke-width: 0.8"/>
      </g>
     </g>
     <g id="text_16">
      <!-- 1.50 -->
      <g transform="translate(29.257813 14.798438) scale(0.1 -0.1)">
       <use xlink:href="#DejaVuSans-31"/>
       <use xlink:href="#DejaVuSans-2e" x="63.623047"/>
       <use xlink:href="#DejaVuSans-35" x="95.410156"/>
       <use xlink:href="#DejaVuSans-30" x="159.033203"/>
      </g>
     </g>
    </g>
    <g id="text_17">
     <!--  [m/s] -->
     <g transform="translate(14.798438 141.289219) rotate(-90) scale(0.1 -0.1)">
      <defs>
       <path id="DejaVuSans-2f" d="M 1625 4666 
L 2156 4666 
L 531 -594 
L 0 -594 
L 1625 4666 
z
" transform="scale(0.015625)"/>
       <path id="DejaVuSans-73" d="M 2834 3397 
L 2834 2853 
Q 2591 2978 2328 3040 
Q 2066 3103 1784 3103 
Q 1356 3103 1142 2972 
Q 928 2841 928 2578 
Q 928 2378 1081 2264 
Q 1234 2150 1697 2047 
L 1894 2003 
Q 2506 1872 2764 1633 
Q 3022 1394 3022 966 
Q 3022 478 2636 193 
Q 2250 -91 1575 -91 
Q 1294 -91 989 -36 
Q 684 19 347 128 
L 347 722 
Q 666 556 975 473 
Q 1284 391 1588 391 
Q 1994 391 2212 530 
Q 2431 669 2431 922 
Q 2431 1156 2273 1281 
Q 2116 1406 1581 1522 
L 1381 1569 
Q 847 1681 609 1914 
Q 372 2147 372 2553 
Q 372 3047 722 3315 
Q 1072 3584 1716 3584 
Q 2034 3584 2315 3537 
Q 2597 3491 2834 3397 
z
" transform="scale(0.015625)"/>
      </defs>
      <use xlink:href="#DejaVuSans-20"/>
      <use xlink:href="#DejaVuSans-5b" x="31.787109"/>
      <use xlink:href="#DejaVuSans-6d" x="70.800781"/>
      <use xlink:href="#DejaVuSans-2f" x="168.212891"/>
      <use xlink:href="#DejaVuSans-73" x="201.904297"/>
      <use xlink:href="#DejaVuSans-5d" x="254.003906"/>
     </g>
    </g>
   </g>
   <g id="patch_3">
    <path d="M 58.523438 242.279219 
L 58.523438 10.999219 
" style="fill: none; stroke: #000000; stroke-width: 0.8; stroke-linejoin: miter; stroke-linecap: square"/>
   </g>
   <g id="patch_4">
    <path d="M 417.423437 242.279219 
L 417.423437 10.999219 
" style="fill: none; stroke: #000000; stroke-width: 0.8; stroke-linejoin: miter; stroke-linecap: square"/>
   </g>
   <g id="patch_5">
    <path d="M 58.523438 242.279219 
L 417.423437 242.279219 
" style="fill: none; stroke: #000000; stroke-width: 0.8; stroke-linejoin: miter; stroke-linecap: square"/>
   </g>
   <g id="patch_6">
    <path d="M 58.523438 10.999219 
L 417.423437 10.999219 
" style="fill: none; stroke: #000000; stroke-width: 0.8; stroke-linejoin: miter; stroke-linecap: square"/>
   </g>
   <g id="line2d_16">
    <defs>
     <path id="m752bb578a9" d="M 0 3 
C 0.795609 3 1.55874 2.683901 2.12132 2.12132 
C 2.683901 1.55874 3 0.795609 3 0 
C 3 -0.795609 2.683901 -1.55874 2.12132 -2.12132 
C 1.55874 -2.683901 0.795609 -3 0 -3 
C -0.795609 -3 -1.55874 -2.683901 -2.12132 -2.12132 
C -2.683901 -1.55874 -3 -0.795609 -3 0 
C -3 0.795609 -2.683901 1.55874 -2.12132 2.12132 
C -1.55874 2.683901 -0.795609 3 0 3 
z
" style="stroke: #1f77b4"/>
    </defs>
    <g clip-path="url(#p63e70af08c)">
     <use xlink:href="#m752bb578a9" x="74.837074" y="184.459219" style="fill: #1f77b4; stroke: #1f77b4"/>
     <use xlink:href="#m752bb578a9" x="81.495701" y="161.485097" style="fill: #1f77b4; stroke: #1f77b4"/>
     <use xlink:href="#m752bb578a9" x="88.154328" y="139.426882" style="fill: #1f77b4; stroke: #1f77b4"/>
     <use xlink:href="#m752bb578a9" x="94.812955" y="119.163963" style="fill: #1f77b4; stroke: #1f77b4"/>
     <use xlink:href="#m752bb578a9" x="101.471582" y="101.50416" style="fill: #1f77b4; stroke: #1f77b4"/>
     <use xlink:href="#m752bb578a9" x="108.130209" y="87.151514" style="fill: #1f77b4; stroke: #1f77b4"/>
     <use xlink:href="#m752bb578a9" x="114.788836" y="76.678219" style="fill: #1f77b4; stroke: #1f77b4"/>
     <use xlink:href="#m752bb578a9" x="121.447463" y="70.501812" style="fill: #1f77b4; stroke: #1f77b4"/>
     <use xlink:href="#m752bb578a9" x="128.106091" y="68.868527" style="fill: #1f77b4; stroke: #1f77b4"/>
     <use xlink:href="#m752bb578a9" x="134.764718" y="71.843479" style="fill: #1f77b4; stroke: #1f77b4"/>
     <use xlink:href="#m752bb578a9" x="141.423345" y="79.308064" style="fill: #1f77b4; stroke: #1f77b4"/>
     <use xlink:href="#m752bb578a9" x="148.081972" y="90.964695" style="fill: #1f77b4; stroke: #1f77b4"/>
     <use xlink:href="#m752bb578a9" x="154.740599" y="106.348657" style="fill: #1f77b4; stroke: #1f77b4"/>
     <use xlink:href="#m752bb578a9" x="161.399226" y="124.84664" style="fill: #1f77b4; stroke: #1f77b4"/>
     <use xlink:href="#m752bb578a9" x="168.057853" y="145.721189" style="fill: #1f77b4; stroke: #1f77b4"/>
     <use xlink:href="#m752bb578a9" x="174.71648" y="168.140101" style="fill: #1f77b4; stroke: #1f77b4"/>
     <use xlink:href="#m752bb578a9" x="181.375107" y="191.209605" style="fill: #1f77b4; stroke: #1f77b4"/>
     <use xlink:href="#m752bb578a9" x="188.033734" y="214.009992" style="fill: #1f77b4; stroke: #1f77b4"/>
     <use xlink:href="#m752bb578a9" x="194.692361" y="235.632283" style="fill: #1f77b4; stroke: #1f77b4"/>
     <use xlink:href="#m752bb578a9" x="201.350989" y="255.214465" style="fill: #1f77b4; stroke: #1f77b4"/>
     <use xlink:href="#m752bb578a9" x="208.009616" y="271.975859" style="fill: #1f77b4; stroke: #1f77b4"/>
     <use xlink:href="#m752bb578a9" x="214.668243" y="285.248241" style="fill: #1f77b4; stroke: #1f77b4"/>
     <use xlink:href="#m752bb578a9" x="221.32687" y="294.502483" style="fill: #1f77b4; stroke: #1f77b4"/>
     <use xlink:href="#m752bb578a9" x="227.985497" y="299.369646" style="fill: #1f77b4; stroke: #1f77b4"/>
     <use xlink:href="#m752bb578a9" x="234.644124" y="299.655694" style="fill: #1f77b4; stroke: #1f77b4"/>
     <use xlink:href="#m752bb578a9" x="241.302751" y="295.349222" style="fill: #1f77b4; stroke: #1f77b4"/>
     <use xlink:href="#m752bb578a9" x="247.961378" y="286.621915" style="fill: #1f77b4; stroke: #1f77b4"/>
     <use xlink:href="#m752bb578a9" x="254.620005" y="273.821704" style="fill: #1f77b4; stroke: #1f77b4"/>
     <use xlink:href="#m752bb578a9" x="261.278632" y="257.458893" style="fill: #1f77b4; stroke: #1f77b4"/>
     <use xlink:href="#m752bb578a9" x="267.937259" y="238.185815" style="fill: #1f77b4; stroke: #1f77b4"/>
     <use xlink:href="#m752bb578a9" x="274.595886" y="216.770827" style="fill: #1f77b4; stroke: #1f77b4"/>
     <use xlink:href="#m752bb578a9" x="281.254514" y="194.067677" style="fill: #1f77b4; stroke: #1f77b4"/>
     <use xlink:href="#m752bb578a9" x="287.913141" y="170.981469" style="fill: #1f77b4; stroke: #1f77b4"/>
     <use xlink:href="#m752bb578a9" x="294.571768" y="148.432575" style="fill: #1f77b4; stroke: #1f77b4"/>
     <use xlink:href="#m752bb578a9" x="301.230395" y="127.319951" style="fill: #1f77b4; stroke: #1f77b4"/>
     <use xlink:href="#m752bb578a9" x="307.889022" y="108.485288" style="fill: #1f77b4; stroke: #1f77b4"/>
     <use xlink:href="#m752bb578a9" x="314.547649" y="92.679467" style="fill: #1f77b4; stroke: #1f77b4"/>
     <use xlink:href="#m752bb578a9" x="321.206276" y="80.532615" style="fill: #1f77b4; stroke: #1f77b4"/>
     <use xlink:href="#m752bb578a9" x="327.864903" y="72.528988" style="fill: #1f77b4; stroke: #1f77b4"/>
     <use xlink:href="#m752bb578a9" x="334.52353" y="68.987666" style="fill: #1f77b4; stroke: #1f77b4"/>
     <use xlink:href="#m752bb578a9" x="341.182157" y="70.049831" style="fill: #1f77b4; stroke: #1f77b4"/>
     <use xlink:href="#m752bb578a9" x="347.840784" y="75.673137" style="fill: #1f77b4; stroke: #1f77b4"/>
     <use xlink:href="#m752bb578a9" x="354.499412" y="85.633401" style="fill: #1f77b4; stroke: #1f77b4"/>
     <use xlink:href="#m752bb578a9" x="361.158039" y="99.533538" style="fill: #1f77b4; stroke: #1f77b4"/>
     <use xlink:href="#m752bb578a9" x="367.816666" y="116.819395" style="fill: #1f77b4; stroke: #1f77b4"/>
     <use xlink:href="#m752bb578a9" x="374.475293" y="136.801837" style="fill: #1f77b4; stroke: #1f77b4"/>
     <use xlink:href="#m752bb578a9" x="381.13392" y="158.684229" style="fill: #1f77b4; stroke: #1f77b4"/>
     <use xlink:href="#m752bb578a9" x="387.792547" y="181.594189" style="fill: #1f77b4; stroke: #1f77b4"/>
     <use xlink:href="#m752bb578a9" x="394.451174" y="204.618368" style="fill: #1f77b4; stroke: #1f77b4"/>
     <use xlink:href="#m752bb578a9" x="401.109801" y="226.838865" style="fill: #1f77b4; stroke: #1f77b4"/>
    </g>
   </g>
  </g>
 </g>
 <defs>
  <clipPath id="p63e70af08c">
   <rect x="58.523438" y="10.999219" width="358.9" height="231.28"/>
  </clipPath>
 </defs>
</svg>
